<?xml version="1.0" encoding="utf-8"?>
<!-- Generator: Adobe Illustrator 26.4.1, SVG Export Plug-In . SVG Version: 6.00 Build 0)  -->
<svg version="1.1" id="Layer_1" xmlns="http://www.w3.org/2000/svg" xmlns:xlink="http://www.w3.org/1999/xlink" x="0px" y="0px"
	 viewBox="0 0 360.1 173.4" style="enable-background:new 0 0 360.1 173.4;" xml:space="preserve">
<style type="text/css">
	.st0{clip-path:url(#SVGID_00000127035387704373558700000003367782619227668880_);}
	.st1{fill:#002E66;}
	.st2{enable-background:new    ;}
	.st3{fill:#12C6C1;}
</style>
<g id="Grupo_3144" transform="translate(1384.607 2185.86)">
	<g>
		<g>
			<defs>
				<rect id="SVGID_1_" x="-1260.7" y="-2185.9" width="144.8" height="109.6"/>
			</defs>
			<clipPath id="SVGID_00000011022407941507897410000006763517267111348097_">
				<use xlink:href="#SVGID_1_"  style="overflow:visible;"/>
			</clipPath>
			<g id="Grupo_3143" style="clip-path:url(#SVGID_00000011022407941507897410000006763517267111348097_);">
				<path id="Trazado_3105" class="st1" d="M-1188.3-2076.2c-23.3,0-42.3-20.9-42.3-46.6c-0.1-12.9,4.9-25.3,13.9-34.5
					c0.7-0.7,1.8-0.7,2.5,0s0.7,1.8,0,2.5c-8.3,8.6-13,20.1-12.9,32c0,23.7,17.4,43.1,38.8,43.1s38.8-19.3,38.8-43.1
					c0.1-12-4.5-23.5-12.9-32c-0.7-0.7-0.7-1.8,0-2.5s1.8-0.7,2.5,0l0,0c9,9.2,14,21.6,13.9,34.5
					C-1146-2097.1-1165-2076.2-1188.3-2076.2"/>
				<path id="Trazado_3106" class="st1" d="M-1188.3-2092.7c-20,0-36.2-17.9-36.2-39.9c-0.1-10.4,3.7-20.4,10.6-28.2
					c0.7-0.7,1.8-0.8,2.5-0.1s0.8,1.8,0.1,2.5l0,0c-6.3,7.1-9.8,16.3-9.7,25.8c0,20,14.7,36.3,32.7,36.3s32.7-16.3,32.7-36.3
					c0.1-9.5-3.4-18.7-9.7-25.8c-0.7-0.7-0.6-1.8,0.1-2.5s1.8-0.6,2.5,0.1c6.9,7.7,10.7,17.8,10.6,28.2
					C-1152.1-2110.6-1168.4-2092.7-1188.3-2092.7"/>
				<path id="Trazado_3107" class="st1" d="M-1188.3-2106.9c-17.2,0-31.2-15.4-31.2-34.3c0-18.9,14-34.3,31.2-34.3
					s31.2,15.4,31.2,34.3C-1157.1-2122.3-1171.1-2106.9-1188.3-2106.9 M-1188.3-2172c-15.3,0-27.7,13.8-27.7,30.8
					s12.4,30.8,27.7,30.8c15.3,0,27.7-13.8,27.7-30.8S-1173.1-2172-1188.3-2172"/>
				<path id="Trazado_3108" class="st1" d="M-1124.4-2142.2c-1,0-1.8-0.8-1.8-1.8l0,0c0-21.2-16.7-38.4-37.3-38.4
					c-8.9,0-16.4,3.1-23.7,9.9c-0.7,0.7-1.8,0.6-2.5-0.1c-0.7-0.7-0.6-1.8,0.1-2.5l0,0c7.9-7.4,16.2-10.8,26-10.8
					c22.5,0,40.8,18.8,40.8,41.9C-1122.7-2143-1123.4-2142.2-1124.4-2142.2L-1124.4-2142.2"/>
				<path id="Trazado_3109" class="st1" d="M-1119.2-2132.5h-10.4c-1.8,0-3.3-1.5-3.3-3.3v-3.1c0-3.8,3.1-6.9,6.9-6.9h3.1
					c3.8,0,6.9,3.1,6.9,6.9v3.1C-1116-2133.9-1117.4-2132.5-1119.2-2132.5 M-1126-2142.2c-1.9,0-3.4,1.5-3.4,3.4v3.1l9.9-0.2v-2.9
					c0-1.9-1.5-3.4-3.4-3.4L-1126-2142.2L-1126-2142.2z M-1119.2-2136L-1119.2-2136z"/>
				<path id="Trazado_3110" class="st1" d="M-1124.3-2085.1h-0.3c-3.3,0-5.9-2.6-5.9-5.9v-43.2c0-1,0.8-1.8,1.8-1.8l0,0h8.6
					c1,0,1.8,0.8,1.8,1.8l0,0v43.2C-1118.4-2087.8-1121-2085.1-1124.3-2085.1 M-1127-2132.5v41.4c0,1.3,1.1,2.4,2.4,2.4h0.3
					c1.3,0,2.4-1.1,2.4-2.4v-41.4H-1127z"/>
				<path id="Trazado_3111" class="st1" d="M-1252.3-2142.2c-1,0-1.8-0.8-1.8-1.7l0,0c0-23.1,18.3-41.9,40.8-41.9
					c9.8,0,18.1,3.4,26,10.8c0.7,0.7,0.8,1.8,0.1,2.5c-0.7,0.7-1.8,0.8-2.5,0.1c-7.2-6.7-14.8-9.9-23.7-9.9
					c-20.6,0-37.3,17.2-37.3,38.4C-1250.5-2143-1251.3-2142.2-1252.3-2142.2L-1252.3-2142.2"/>
				<path id="Trazado_3112" class="st1" d="M-1247.1-2132.5h-10.4c-1.8,0-3.3-1.5-3.3-3.3v-3.1c0-3.8,3.1-6.9,6.9-6.9h3.1
					c3.8,0,6.9,3.1,6.9,6.9v3.1C-1243.8-2133.9-1245.3-2132.5-1247.1-2132.5 M-1257.2-2136h10.1l-0.2-2.9c0-1.9-1.5-3.4-3.4-3.4
					h-3.1c-1.9,0-3.4,1.5-3.4,3.4V-2136z"/>
				<path id="Trazado_3113" class="st1" d="M-1252.1-2085.1h-0.3c-3.3,0-5.9-2.6-5.9-5.9v-43.2c0-1,0.8-1.8,1.8-1.8l0,0h8.6
					c1,0,1.8,0.8,1.8,1.8l0,0v43.2C-1246.2-2087.8-1248.9-2085.1-1252.1-2085.1 M-1254.8-2132.5v41.4c0,1.3,1.1,2.4,2.4,2.4h0.3
					c1.3,0,2.4-1.1,2.4-2.4v-41.4H-1254.8z"/>
			</g>
		</g>
	</g>
</g>
<g class="st2">
	<path class="st3" d="M3.6,170.1c-0.4-0.5-0.7-1.2-0.8-1.8c-0.2-1.1-0.2-2.2-0.2-3.3c0-0.4-0.1-0.7,0-1.2c0.2-2.5,0.1-5,0.1-7.5
		c0.2-0.9,0-1.8,0.1-2.7c0.1-0.5,0-1.1,0.1-1.6c0.1-0.6,0-1.2,0.2-1.7l0.1-0.1c-0.1-0.6,0.1-1.2,0.1-1.7c-0.1-0.3,0.1-0.5,0.1-0.8
		c-0.1-0.2-0.1-0.5,0.1-0.7c0.1-0.1,0-0.1,0-0.2c0.1-0.5,0.2-1,0.2-1.6s0.2-1,0.3-1.5c0.2-0.8,0.6-1.5,1.4-1.9
		c0.5-0.3,0.9-0.4,1.5-0.6c0.2-0.1,0.5,0,0.7-0.1c1.1,0,2.1,0.2,3.1,0.5c0.6,0.3,1.2,0.5,1.8,0.8c0.9,0.5,1.8,0.9,2.7,1.5
		c0.5,0.4,0.9,0.7,1.4,1.1c0.6,0.6,1.2,1.2,1.7,1.8c0.5,0.7,1,1.4,1.4,2.1c0.5,0.8,0.8,1.7,1.1,2.6c0.2,0.5,0.3,1,0.3,1.6
		c0,0.3,0.1,0.6,0.1,0.9c-0.1,1.4-0.4,2.8-0.9,4c-0.2,0.5-0.4,0.9-0.6,1.4c-0.3,0.6-0.6,1.2-1,1.7c-0.3,0.4-0.5,0.8-0.8,1.3l-1,1.4
		c-0.7,0.8-1.4,1.7-2.2,2.4c-0.9,0.8-1.8,1.5-2.9,2.1c-0.6,0.3-1.2,0.6-1.8,0.9c-1,0.5-2.2,0.9-3.3,1.2c-0.6,0.1-1.2,0.1-1.8,0
		C4.2,170.7,3.8,170.4,3.6,170.1z M8.4,165.4c0.5-0.3,1-0.6,1.5-1c1.2-1.2,2.5-2.4,3.5-3.8c0.9-1.3,1.7-2.6,2.3-4
		c0.2-0.5,0.4-1,0.5-1.6c0.1-0.6,0.1-1.3-0.1-1.9c-0.2-0.5-0.3-1-0.6-1.5c-0.4-0.6-0.8-1.3-1.2-1.8c-0.6-0.7-1.2-1.3-1.9-1.8
		c-0.6-0.5-1.3-0.8-2-1.2c-0.3-0.2-0.7-0.3-1-0.4c-0.3-0.1-0.7,0.2-0.9,0.4c-0.1,0.1-0.1,0.1-0.1,0.2c0,0.3-0.1,0.6-0.1,0.9
		c0,0.6-0.2,1.1-0.1,1.7v0.1c-0.2,0.5-0.1,1.1-0.2,1.6c-0.1,0.4-0.1,0.8-0.1,1.3c-0.1,0.6,0.1,1.3-0.1,1.9c0.1,2.2-0.2,4.5-0.1,6.6
		v3.9c0.1,0.3,0.4,0.5,0.7,0.4L8.4,165.4z"/>
	<path class="st3" d="M29.1,169.3c-0.7-0.3-1.5-0.7-2.1-1.2c-0.6-0.5-1.2-1.2-1.7-1.8c-0.4-0.6-0.8-1.2-1.2-1.9
		c-0.2-0.4-0.3-0.9-0.5-1.4c-0.4-1.3-0.6-2.5-0.7-3.8l-0.2-1.8c-0.1-0.6-0.1-1.2-0.1-1.7c0.1-0.7,0.1-1.5,0.1-2.1
		c0-0.6,0.1-1.2,0.1-1.8c0.1-1.1,0.3-2.2,0.5-3.3l0.2-0.9c0.1-0.6,0.3-1.2,0.5-1.7c0.2-0.3,0.4-0.5,0.6-0.7c0.5-0.5,0.9-1.1,1.5-1.5
		c0.9-0.7,1.8-1.4,2.9-1.8c0.8-0.3,1.6-0.6,2.4-0.7c0.6-0.1,1.3-0.1,1.9,0c1.2,0.2,2.2,0.5,3.3,1c0.5,0.3,1.1,0.6,1.5,1
		c0.2,0.2,0.5,0.4,0.6,0.6c0.7,0.8,1.4,1.6,1.9,2.5c0.4,0.7,0.7,1.5,1,2.2c0.2,0.4,0.2,0.8,0.4,1.2c0.2,0.5,0.2,1.2,0.3,1.6
		c0.1,0.2,0.1,0.4,0.1,0.5c0.1,0.7,0.1,1.5,0.1,2.1c0.1,1.5-0.2,3-0.5,4.4c-0.3,1.5-0.8,3-1.4,4.4c-0.3,0.6-0.5,1.2-0.9,1.7
		c-0.4,0.6-0.7,1.3-1.2,1.8c-0.5,0.4-0.9,0.9-1.4,1.4c-0.8,0.7-1.7,1.2-2.7,1.7c-0.4,0.2-0.9,0.2-1.3,0.4c-0.2,0.1-0.5,0.2-0.7,0.1
		c-0.1-0.1-0.2,0-0.2,0C31.1,170,30.1,169.8,29.1,169.3z M34.1,163.8c0.3-0.3,0.5-0.7,0.7-1c0.4-0.5,0.7-1.1,0.9-1.7
		c0.4-0.9,0.8-1.8,1-2.8c0.3-1.3,0.6-2.6,0.6-4c0-0.7,0-1.3-0.1-2c0-0.5-0.3-1-0.4-1.6v-0.1c-0.3-0.6-0.5-1.3-0.9-1.9
		c-0.6-0.9-1.3-1.6-2.2-2.1c-0.2-0.1-0.4-0.2-0.6-0.2c-0.9-0.2-1.7-0.1-2.5,0.3c-0.6,0.3-1.1,0.8-1.6,1.3c-0.4,0.3-0.5,0.7-0.6,1.1
		l-0.4,2.5c-0.2,1.4-0.3,2.8-0.3,4.2c0,0.6,0,1.2,0.1,1.7c0.1,0.7,0.2,1.5,0.2,2.2c0,0.2,0.2,0.4,0.2,0.6c0.1,0.7,0.3,1.3,0.5,2
		c0.3,0.9,0.7,1.8,1.5,2.6c0.6,0.6,1.4,0.7,2,0.5C33,164.9,33.7,164.4,34.1,163.8z"/>
	<path class="st3" d="M44.5,166.8c-0.2-0.4-0.3-0.7-0.4-1.1c-0.1-0.2-0.1-0.5,0-0.7v-0.2c-0.1-0.6-0.1-1.2-0.1-1.8
		c-0.1-0.7-0.1-1.5-0.1-2.2c0-0.8-0.1-1.6,0-2.4v-1.2c0-0.6,0-1.3,0.1-1.8c0.1-0.4,0.1-0.7,0.1-1c-0.1-0.3-0.1-0.7,0-0.9
		c0.1-0.4,0-0.8,0.1-1.2c0.1-0.6,0.1-1.3,0.1-2v-0.9c0.1-0.7,0.1-1.4,0.1-2c0-0.5,0-1,0.1-1.5c0.1-0.2,0.1-0.4,0.2-0.5
		c0.3-0.6,0.7-1.2,1.4-1.4c0.2-0.1,0.4-0.1,0.6-0.2c0.7-0.2,1.3,0.1,1.8,0.5c0.5,0.3,0.8,0.7,1,1.3c0.1,0.3,0.2,0.5,0.2,0.8
		c0,0.5-0.1,0.9-0.1,1.4v0.9c-0.1,0.7-0.1,1.4-0.1,2v1c-0.1,0.7-0.1,1.3-0.1,2c0,0.6-0.1,1.2-0.1,1.8c0,0.6,0,1.2-0.1,1.7
		c-0.1,0.4,0.1,0.7,0,1.1c-0.1,0.5-0.1,1.1,0,1.6c0,0.5-0.1,1,0.1,1.6c0.1,0.3-0.1,0.5-0.1,0.8c0.1,0.3,0.2,0.5,0,0.8v0.2
		c0.2,0.5,0.1,1.1,0.1,1.7c0,1.2-0.3,2.2-1,3.1c-0.8,0.9-2,1-3,0.3C45.1,167.8,44.7,167.3,44.5,166.8z"/>
	<path class="st3" d="M52.2,170.5c-0.4-0.4-0.6-0.9-0.6-1.2c-0.1-0.8-0.1-1.4-0.1-2c0-0.3,0-0.7-0.1-1c0-0.5-0.1-0.9,0-1.4
		c0-0.3-0.1-0.7-0.1-1c-0.1-0.6,0-1.3,0-1.8c-0.1-0.8,0-1.5,0-2.3V158c-0.1-0.7-0.1-1.5,0.1-2.1c0.1-0.6,0-1.3,0.1-1.9
		c0-0.9,0.1-1.9,0.2-2.8l0.2-2.7c0.1-1.2,0.2-2.3,0.5-3.5c0.3-1,1-1.7,2.1-1.9c0.6-0.1,1.2,0.1,1.7,0.4c0.9,0.5,1.3,1.3,1.7,2.1
		l0.8,1.8c0.2,0.5,0.4,1.1,0.7,1.7c0.3,0.9,0.7,1.7,1,2.6c0.5,1.1,0.9,2.2,1.3,3.3c0.3,0.7,0.6,1.4,0.9,2.1c0,0.1,0.1,0.1,0.1,0.2
		c0.1,0.1,0.2,0.2,0.3,0.2c0.2-0.1,0.2-0.2,0.3-0.3v-2.7c0-0.6,0.1-1.1,0-1.7c-0.1-0.5-0.1-0.9,0-1.4c0.1-0.3,0-0.6,0.1-0.9v-2.6
		c0-0.5,0-1.7,0.1-2.2c0-0.5,0-1,0.1-1.5c0.1-0.7,0.3-1.4,0.6-2c0.4-0.7,1-1.2,1.8-1.2c0.5,0,0.9,0.2,1.3,0.5c0.6,0.5,0.9,1.1,1,1.8
		c0,0.2,0.2,0.4,0.2,0.7c0.1,0.6,0.1,1.2,0.1,1.7c-0.1,0.3,0,0.6,0,0.9l-0.1,0.7v3.6c0,0.7,0,1.5-0.1,2.3v0.8c0.1,1.1,0,2.2-0.1,3.3
		l-0.2,2.9c-0.1,1-0.1,1.9-0.1,2.9c-0.1,1.3-0.2,2.6-0.4,3.8c-0.1,0.6-0.1,1.3-0.4,1.9c-0.3,0.7-0.8,1.3-1.6,1.4
		c-0.8,0.2-1.5-0.1-2-0.7c-0.3-0.3-0.5-0.6-0.7-0.8c-0.2-0.4-0.5-0.7-0.8-1.2c-0.7-0.9-1.2-1.9-1.7-3c-0.4-0.7-0.8-1.6-1.2-2.4
		c-0.5-1-0.9-2-1.4-3c-0.2-0.6-0.5-1.1-0.7-1.7c-0.1-0.1-0.1-0.2-0.2-0.2c-0.1-0.1-0.2-0.3-0.3-0.2c-0.2,0.1-0.3,0.2-0.3,0.4
		c-0.1,0.2-0.1,0.4-0.1,0.6c0,0.6-0.1,1.2-0.1,1.8v4.2c0,0.6,0.1,1.2,0.1,1.7c-0.1,0.5-0.1,1-0.1,1.5c-0.1,0.4-0.1,0.8-0.1,1.2
		c-0.1,0.6-0.3,1.3-0.6,1.8c-0.3,0.4-0.7,0.7-1.3,0.9C53.6,171.5,52.8,171.3,52.2,170.5z"/>
	<path class="st3" d="M74.5,170.6c-1-0.5-1.8-1.4-2.5-2.3c-0.6-0.9-1-1.8-1.3-2.8c-0.2-0.7-0.4-1.4-0.4-2.1c0-0.2-0.1-0.4-0.1-0.6
		c0.1-0.2,0.1-0.4-0.1-0.5c-0.1-0.1,0-0.2,0-0.3v-1.8h-0.1c0-0.5,0-1,0.1-1.5c0-0.5,0.1-1,0.2-1.6c0.1-0.3,0.1-0.5,0.1-0.8l0.3-1.5
		c0.2-0.9,0.4-1.8,0.7-2.6c0.2-0.5,0.4-1,0.6-1.5c0.3-0.7,0.6-1.4,1-2c0.4-0.8,0.9-1.5,1.5-2.2c0.4-0.6,0.9-1.2,1.4-1.7
		c0.4-0.4,0.8-0.8,1.2-1.1c0.5-0.4,0.9-0.7,1.5-1.1c1-0.7,2.2-1.3,3.4-1.6c0.6-0.2,1.3-0.3,2-0.3c0.9,0.1,1.8,0.5,2.2,1.4
		c0.2,0.3,0.3,0.6,0.3,0.9c-0.1,0.3,0,0.6-0.1,0.9c-0.4,1-1.2,1.6-2.2,1.7c-0.5,0.1-1,0.2-1.5,0.4c-0.7,0.4-1.5,0.7-2.1,1.3
		c-0.4,0.4-0.9,0.7-1.2,1.2c-0.2,0.3-0.5,0.5-0.7,0.8c-0.5,0.6-0.9,1.3-1.4,1.9c-0.6,1.1-1.1,2.3-1.5,3.6c-0.2,0.7-0.4,1.4-0.5,2.1
		c-0.1,0.6-0.2,1.2-0.3,1.8c-0.1,0.9-0.1,1.9-0.1,2.8c0.1,1.1,0.2,2.2,0.6,3.2c0.2,0.5,0.4,0.9,0.6,1.3c0.3,0.4,0.7,0.6,1.3,0.6
		c0.8,0.1,1.5-0.3,2-0.7c0.5-0.4,0.9-0.7,1.3-1.3c0.4-0.7,0.7-1.5,0.7-2.4c-0.1-0.5,0-1.1-0.2-1.6c-0.3-0.7-0.7-1.2-1.5-1.5
		c-0.5-0.2-1-0.2-1.5-0.1c-0.1,0-0.2,0.1-0.2,0c-0.5-0.1-0.9-0.1-1.4-0.4c-0.3-0.2-0.6-0.5-0.8-0.8c-0.4-0.6-0.5-1.3-0.2-2
		c0.4-0.9,1-1.3,1.8-1.6c0.4-0.2,0.9-0.2,1.3-0.3c0.4-0.1,0.8,0.1,1.3,0.2c0.5,0.1,1,0.3,1.6,0.5c0.7,0.3,1.4,0.7,2,1.2
		c0.7,0.6,1.3,1.4,1.8,2.2c0.3,0.7,0.6,1.5,0.7,2.2c0.1,0.7,0.3,1.4,0.2,2.1c-0.1,1-0.3,2-0.7,3c-0.3,0.8-0.7,1.6-1.3,2.4
		c-0.8,1-1.7,1.8-2.7,2.5c-0.8,0.5-1.6,0.9-2.6,1c-0.5,0.1-1,0.2-1.5,0.2C76.6,171.4,75.5,171.2,74.5,170.6z"/>
	<path class="st3" d="M99.8,170.7c-0.9-0.6-1.4-1.7-1.2-2.7v-0.2c-0.1-0.5,0-1.1,0-1.3c-0.1-0.2-0.1-0.4,0-0.6c0.1-0.3,0-0.6,0-0.9
		c0-0.4,0.1-0.8,0-1.3c-0.1-0.2,0.1-0.4,0.1-0.7c-0.1-0.2-0.1-0.4,0-0.6c0.1-0.1,0-0.1,0-0.2c-0.1-0.5,0.1-1.1,0.1-1.6
		c0-0.4,0.1-0.8,0-1.3c-0.1-0.2,0.1-0.4,0.1-0.7c-0.1-0.2-0.2-0.4,0-0.6v-0.1c-0.1-0.5,0.1-0.9-0.1-1.4c-0.1-0.3,0.1-0.5,0.1-0.7
		v-0.6c0.1-0.3,0.1-0.6,0.1-0.9c-0.1-0.5,0-0.9,0-1.4c0.1-0.4-0.1-0.8,0.1-1.3c0.1-0.3,0-0.6,0-0.8c0-0.4,0.1-0.8,0-1.3
		c-0.1-0.2,0.1-0.4,0.1-0.6c0-0.2-0.1-0.4,0.1-0.6v-0.3c-0.1-0.4,0-0.9,0-1.3c0.1-0.4,0.1-0.7,0.1-1.1c0-0.9,0.1-1.8,0.5-2.7
		c0.3-0.8,0.9-1.4,1.7-1.8c0.8-0.4,1.6-0.6,2.5-0.6c1,0,2,0.1,3,0.4c1.1,0.3,2,0.8,2.9,1.4c0.5,0.5,1,0.9,1.4,1.5
		c0.4,0.6,0.8,1.1,1.1,1.7c0.2,0.4,0.3,0.8,0.4,1.2c0.2,0.4,0.2,0.8,0.3,1.2c0.1,0.2,0.1,0.5,0.1,0.7c0.1,0.9,0.1,1.8-0.1,2.8
		c-0.2,1.4-0.7,2.7-1.4,4c-0.3,0.6-0.7,1.2-1.2,1.7c-0.6,0.8-1.4,1.5-2.2,2.1c-0.6,0.5-1.3,0.7-1.9,1c-0.3,0.1-0.5,0.2-0.8,0.2
		c-0.5,0.1-0.7,0.3-0.9,0.7c-0.3,0.4-0.5,0.7-0.5,1.2c-0.1,0.1-0.1,0.1-0.1,0.2c0.1,0.4,0,0.8,0,1.2c0,0.4,0.1,0.8-0.1,1.2v0.2
		c0.1,0.5,0.2,1.7,0,1.9c0,0.1,0,0.2,0.1,0.3c0.1,0.5,0,1.1-0.2,1.6c-0.3,0.8-0.8,1.5-1.7,1.7C101.2,171.3,100.5,171.2,99.8,170.7z
		 M104.7,156.2c0.2,0,0.4-0.1,0.5-0.2c0.3-0.2,0.6-0.4,0.8-0.6c0.7-0.7,1.1-1.4,1.4-2.3c0.4-1.2,0.6-2.4,0.4-3.6
		c0-0.2-0.1-0.5-0.1-0.7c-0.1-0.3-0.2-0.6-0.3-0.9c-0.3-0.6-0.7-1.1-1.2-1.5c-0.3-0.3-0.6-0.4-0.9-0.5c-0.2-0.1-0.4-0.1-0.5,0.1
		c-0.3,0.3-0.6,0.5-0.6,0.9c-0.1,0.8-0.2,1.7-0.1,2.5c0,0.1,0.1,0.1,0,0.2c-0.1,0.4,0,0.7-0.1,1.1c0,0.4-0.1,0.9,0,1.3v0.9
		c-0.1,0.6-0.1,1.1-0.1,1.6v0.2c-0.2,0.4,0.1,0.8,0.1,1.3c0,0.2,0.2,0.3,0.3,0.4C104.4,156.3,104.6,156.2,104.7,156.2z"/>
	<path class="st3" d="M116.2,170.7c-0.7-0.6-1.1-1.3-1.3-2.2c-0.2-0.8-0.1-1.7-0.1-2.6c0-0.3,0.1-0.6-0.1-0.9
		c-0.1-0.2-0.1-0.4,0-0.5c0.2-0.4,0.1-0.8,0.1-1.3c0-2.6-0.1-5.2,0.1-7.8c0.1-1.5-0.1-3,0.1-4.6c0.1-1.3,0-2.5,0.1-3.7
		c0.1-1.2,0.1-2.3,0.1-3.4c0-0.9,0.4-1.8,1.2-2.4c0.4-0.3,0.8-0.5,1.3-0.4h0.3c0.9-0.1,1.6,0.4,2.1,1.1c0.3,0.4,0.5,0.9,0.5,1.5
		c0,1.5,0.1,3-0.1,4.6c-0.1,1.3-0.1,2.6-0.1,3.9c-0.1,0.3-0.1,0.5,0.2,0.7c0.3,0.2,0.5,0.3,0.8,0.3c0.9,0.1,1.9-0.1,2.9-0.1
		c0.4,0,0.9-0.2,1.3-0.5c0.5-0.3,0.8-0.8,0.8-1.4c0-0.5,0.1-0.9-0.1-1.4c-0.2-1.2-0.1-2.4-0.1-3.6c0-1.1,0.6-1.9,1.5-2.5
		c1.4-0.6,2.9,0.1,3.4,1.2c0.3,0.6,0.4,1.2,0.4,1.8c-0.1,1.3,0.2,2.5,0.1,3.7c0.2,0.6,0.1,1.2,0.2,1.7c0.1,0.7,0,1.4,0.1,2
		s0,1.3,0.1,1.9c0.1,0.6,0.1,1.1,0.1,1.7c0.1,0.6,0.1,1.3,0.2,2c0.1,0.5,0.1,0.9,0.1,1.4c0,0.4,0.2,0.7,0.2,1
		c-0.1,0.4,0.1,3.2,0.3,3.6c-0.1,0.7,0.1,1.5-0.2,2.2c-0.3,0.8-0.8,1.5-1.7,1.9c-0.3,0.1-0.5-0.1-0.7,0.2c-0.6-0.2-1.3-0.3-1.7-0.8
		c-0.7-0.7-1-1.5-1.1-2.5c0-0.4-0.1-0.7-0.1-1.1s-0.1-3.2-0.3-3.6c-0.1-0.2,0-0.4,0-0.6c0.1-0.8-0.3-1.6-0.5-2.4
		c-0.1-0.2-0.2-0.3-0.3-0.5c-0.1-0.3-0.3-0.4-0.6-0.3c-0.1,0.1-0.2,0-0.3,0c-1.2-0.1-2.3,0.2-3.5,0.2c-1.2,0-1.7,0.9-1.7,1.7v4
		c0,1.2,0,2.4,0.1,3.5c0,0.7-0.1,1.4-0.4,2c-0.3,0.7-0.8,1.3-1.6,1.5C117.5,171.3,116.7,171.2,116.2,170.7z"/>
	<path class="st3" d="M137.1,170.5c-0.6-0.4-0.9-1-1.2-1.7c-0.3-1.2,0.5-2.5,1.4-2.8c0.6-0.3,1.3-0.2,1.9-0.1
		c0.6,0.1,1.1,0.3,1.7,0.3c1.3-0.1,2.4-0.6,3.1-1.8c0.5-0.8,0.8-1.6,1-2.5c0.2-0.4,0.3-0.8,0.3-1.3c0-0.1-0.1-0.2-0.1-0.3
		c-0.1-0.2-0.2-0.2-0.4-0.1l-0.8,0.6c-0.6,0.5-1.2,0.8-1.9,0.9c-0.6,0.2-1.3,0.1-1.9-0.1c-0.8-0.3-1.6-0.7-2.2-1.3
		c-1.2-0.9-2.1-2.1-2.7-3.6c-0.2-0.5-0.3-0.9-0.4-1.4c-0.1-0.5-0.2-0.9-0.2-1.5c0-0.2-0.1-0.4-0.1-0.6c-0.1-0.8-0.3-1.6-0.3-2.4
		c-0.1-0.6-0.1-1.2-0.1-1.7c-0.1-0.4,0.1-0.8,0.1-1.2c-0.1-0.4-0.1-0.7,0.1-1.1c0.1-0.1,0-0.2,0-0.2c0-0.7,0.2-1.3,0.3-1.9
		c0.1-0.7,0.3-1.3,0.5-1.9c0.3-1,0.9-1.6,1.9-1.9c0.3-0.1,0.6,0,0.8,0.1c1.1,0.3,1.6,1.4,1.6,2.4c0,0.8-0.1,1.6-0.2,2.4l-0.2,1.6
		c-0.2,1.5-0.1,3-0.1,4.6c0,1.4,0.3,2.7,1,3.9c0.4,0.5,0.7,0.9,1.3,1.2c0.3,0.2,0.5,0.1,0.7-0.1c0.3-0.3,0.4-0.5,0.6-0.8
		c0.5-1,0.8-2,1.1-3.1c0.2-0.6,0.3-1.2,0.4-1.8c0.2-0.9,0.5-1.8,0.6-2.8c0.1-0.6,0.3-1.3,0.4-1.9c0-0.3,0.1-0.6,0.1-1
		c0.1-0.4,0.2-0.7,0.2-1l0.2-0.9c0.2-1,0.6-1.9,1.6-2.4c1.1-0.5,2.2-0.2,3,0.9c0.4,0.6,0.6,1.4,0.7,2.1c0.1,0.9,0.1,1.9,0.2,2.9
		c0.1,0.8,0.1,1.5,0.1,2.2v0.2c0.1,1-0.1,2-0.1,3c-0.1,0.8-0.1,1.5-0.2,2.3c-0.1,0.6-0.1,1.2-0.2,1.8c-0.2,0.9-0.3,1.9-0.5,2.8
		c-0.2,0.8-0.3,1.7-0.5,2.5c-0.2,0.7-0.3,1.3-0.6,2c-0.3,0.9-0.7,1.7-1.1,2.5c-0.3,0.6-0.7,1.2-1.1,1.7c-0.6,0.7-1.3,1.4-2,1.9
		c-0.5,0.3-1,0.6-1.6,0.8c-0.6,0.2-1.2,0.4-1.8,0.5c-0.7,0.2-1.5,0.1-2.1,0.1C138.6,171.2,137.8,170.9,137.1,170.5z"/>
	<path class="st3" d="M153.8,170.4c-0.5-0.8-0.4-1.6,0-2.4c0.3-0.4,0.6-0.7,1.1-1l1.5-0.6c0.9-0.4,1.8-0.8,2.6-1.5
		c0.6-0.6,1-1.3,1.2-2.1c0.1-0.3,0.1-0.6,0.1-0.9c-0.1-0.9-0.4-1.8-0.9-2.6c-0.4-0.6-0.9-1.2-1.4-1.7c-0.8-0.8-1.7-1.6-2.5-2.5
		c-0.7-0.8-1.4-1.6-1.9-2.6c-0.2-0.5-0.4-1-0.5-1.6c-0.2-0.8-0.2-1.6-0.1-2.3c0.1-0.5,0.2-0.9,0.4-1.4c0.2-0.6,0.4-1.2,0.7-1.7
		c0.6-1.2,1.5-2.2,2.6-3c0.6-0.5,1.3-0.8,1.9-1.1c0.5-0.3,1.1-0.4,1.6-0.5c0.6-0.2,1.1-0.2,1.6-0.1c0.7,0.1,1.4,0.5,1.7,1.2
		c0.2,0.4,0.4,0.8,0.3,1.3c-0.1,0.8-0.4,1.5-1.2,1.9c-0.4,0.3-0.9,0.4-1.4,0.4c-0.6,0.2-1.2,0.4-1.7,0.7c-0.9,0.6-1.5,1.5-1.8,2.5
		c-0.4,0.9-0.1,1.8,0.5,2.5c1,1.2,2.2,2.2,3.2,3.3s2,2.4,2.6,3.8c0.3,0.8,0.6,1.6,0.7,2.5c0.1,0.4,0.1,0.9,0.1,1.2
		c0,1.2-0.2,2.1-0.5,3.1c-0.3,0.7-0.6,1.4-1,2c-0.7,1-1.2,1.5-2.5,2.2c-0.9,0.6-2,1-3,1.5c-0.3,0.1-0.6,0.2-0.9,0.3
		c-0.6,0.3-1.2,0.3-1.7,0.2C154.6,171.3,154.1,170.9,153.8,170.4z"/>
	<path class="st3" d="M166.9,166.8c-0.2-0.4-0.3-0.7-0.4-1.1c-0.1-0.2-0.1-0.5,0-0.7v-0.2c-0.1-0.6-0.1-1.2-0.1-1.8
		c-0.1-0.7-0.1-1.5-0.1-2.2c0-0.8-0.1-1.6,0-2.4v-1.2c0-0.6,0-1.3,0.1-1.8c0.1-0.4,0.1-0.7,0.1-1c-0.1-0.3-0.1-0.7,0-0.9
		c0.1-0.4,0-0.8,0.1-1.2c0.1-0.6,0.1-1.3,0.1-2v-0.9c0.1-0.7,0.1-1.4,0.1-2c0-0.5,0-1,0.1-1.5c0.1-0.2,0.1-0.4,0.2-0.5
		c0.3-0.6,0.7-1.2,1.4-1.4c0.2-0.1,0.4-0.1,0.6-0.2c0.7-0.2,1.3,0.1,1.8,0.5c0.5,0.3,0.8,0.7,1,1.3c0.1,0.3,0.2,0.5,0.2,0.8
		c0,0.5-0.1,0.9-0.1,1.4v0.9c-0.1,0.7-0.1,1.4-0.1,2v1c-0.1,0.7-0.1,1.3-0.1,2c0,0.6-0.1,1.2-0.1,1.8c0,0.6,0,1.2-0.1,1.7
		c-0.1,0.4,0.1,0.7,0,1.1c-0.1,0.5-0.1,1.1,0,1.6c0,0.5-0.1,1,0.1,1.6c0.1,0.3-0.1,0.5-0.1,0.8c0.1,0.3,0.2,0.5,0,0.8v0.2
		c0.2,0.5,0.1,1.1,0.1,1.7c0,1.2-0.3,2.2-1,3.1c-0.8,0.9-2,1-3,0.3C167.5,167.8,167.2,167.3,166.9,166.8z"/>
	<path class="st3" d="M181.5,170.4c-1.3-0.3-2.5-0.8-3.5-1.8c-0.3-0.2-0.5-0.4-0.7-0.7c-0.7-0.7-1.3-1.5-1.7-2.4
		c-0.4-0.8-0.8-1.6-1-2.5c-0.2-0.6-0.3-1.1-0.4-1.7c-0.1-0.7-0.2-1.3-0.2-1.9c-0.1-0.4-0.1-0.8-0.1-1.3c-0.1-0.7,0.1-1.4,0.1-2.1
		c0.2-1.4,0.4-2.7,0.8-4c0.4-1.3,0.8-2.5,1.3-3.7c0.5-1,1-1.9,1.7-2.9c0.6-0.9,1.4-1.7,2.1-2.4c0.8-0.8,1.9-1.2,3-1.5
		c0.3-0.1,0.6-0.2,1-0.2c0.1,0,0.3,0.1,0.4-0.1c0.1-0.1,0.2-0.1,0.2,0c0.6,0.1,1.2,0.1,1.7,0.2s1.1,0.5,1.5,0.9
		c0.3,0.3,0.4,0.7,0.5,1.1c0.1,0.4,0,0.8-0.1,1.2c-0.2,0.6-1,1.3-1.6,1.4s-1,0.1-1.5,0c-0.8-0.2-1.5,0.1-2.1,0.6
		c-0.8,0.7-1.5,1.7-2,2.6c-0.5,1-0.9,2-1.3,3c-0.2,0.6-0.5,1.3-0.6,2c-0.1,0.5-0.2,1.1-0.3,1.7c-0.1,0.9-0.1,1.7-0.1,2.6
		c-0.1,1.2,0.2,2.3,0.6,3.4c0.3,0.9,0.8,1.7,1.5,2.4c0.6,0.5,1.2,1,1.9,1.5c0.3,0.2,0.6,0.3,0.9,0.4c0.5,0.2,1,0.5,1.4,0.8
		c0.4,0.3,0.6,0.7,0.7,1.2c0.2,0.5,0,0.9-0.3,1.4c-0.3,0.4-0.7,0.7-1.2,0.8c-0.5,0.1-1,0.1-1.5,0
		C182.3,170.6,181.9,170.5,181.5,170.4z"/>
	<path class="st3" d="M200,170.1c-0.7-0.6-1-1.3-1.1-2.2c-0.2-1.5-0.1-2.9-0.1-4.4c0-0.3-0.1-0.6-0.3-0.9c-0.2-0.2-0.3-0.2-0.5-0.3
		c-0.6,0-1.3-0.1-1.8-0.1c-0.5-0.1-1-0.1-1.6-0.1c-0.2-0.1-0.4,0-0.5,0.2c-0.2,0.2-0.3,0.3-0.4,0.5c-0.2,0.1-0.2,0.3-0.3,0.5
		l-0.3,2.3c-0.1,0.5-0.2,1.1-0.3,1.6c-0.2,0.7-0.6,1.2-1.1,1.6c-0.2,0.2-0.4,0.3-0.7,0.4c-0.6,0.3-1.3,0.1-1.8-0.3
		c-0.5-0.4-0.9-1-1-1.6c-0.1-0.4-0.2-0.7-0.1-1.1v-0.1c-0.1-0.5,0.1-1,0.1-1.5c0.1-0.8,0.2-1.6,0.4-2.5l0.5-2.5
		c0.2-0.9,0.4-1.8,0.6-2.7c0.5-1.8,1-3.6,1.7-5.3c0.4-1.1,0.8-2.2,1.2-3.2l1.4-3.4c0.4-1,0.8-1.9,1.5-2.7c0.3-0.5,0.8-0.7,1.4-0.7
		c0.9-0.2,1.7,0.2,2.3,0.8c0.5,0.5,0.8,1,1.2,1.6c0.5,0.7,0.8,1.5,1.2,2.3c0.4,0.9,0.7,1.8,0.9,2.7c0.1,0.6,0.3,1.2,0.4,1.7
		c0.1,0.6,0.3,1.2,0.2,1.7c0,0.3,0.2,0.4,0.2,0.7c-0.1,0.2-0.1,0.4,0.1,0.6c0.1,0,0,0.1,0,0.1c-0.1,0.6,0.1,1.2,0.2,1.8
		c0.1,0.9,0,1.9,0.1,2.9c0.1,1.2,0.1,2.4,0.1,3.6c0,0.5,0.2,1,0.1,1.6v1.6c0,0.6,0.1,1.3,0,1.9c0,0.6-0.1,1.2-0.3,1.8
		c-0.3,0.7-0.8,1.3-1.6,1.5C201.1,170.7,200.5,170.6,200,170.1z M198.5,156.7c0.1-0.2,0.1-0.4,0.1-0.7c0.1-0.3-0.1-0.7-0.1-1
		c0-0.6-0.2-1.1-0.1-1.7v-0.1c-0.2-0.6-0.2-1.3-0.3-1.9c-0.1-0.3-0.1-0.6-0.2-0.9c0-0.1-0.1-0.3-0.2-0.3c-0.2-0.1-0.3,0.1-0.4,0.2
		c-0.1,0.1-0.1,0.2-0.1,0.2c-0.3,0.8-0.6,1.6-0.9,2.3c-0.3,1-0.7,1.9-0.9,2.9c-0.1,0.3-0.2,0.6-0.2,0.9c0,0.3,0.2,0.5,0.5,0.6
		c0.2,0.1,0.4,0.1,0.6,0.1c0.2,0,0.5,0,0.6,0.1c0.3,0.1,0.5,0.1,0.7,0.1C198,157.4,198.4,157.1,198.5,156.7z"/>
	<path class="st3" d="M216.7,171.1c-0.7-0.3-1.5-0.3-2.2-0.4c-0.7-0.2-1.4-0.2-2.1-0.3c-0.5-0.1-1-0.1-1.5-0.1
		c-0.7-0.1-1.4-0.3-2-0.5c-0.4-0.1-0.8-0.3-1.2-0.6c-0.6-0.4-1-0.9-1.3-1.5c-0.2-0.6-0.3-1.7-0.2-2.4c0.1-0.3,0-0.5,0-0.8
		c0-0.4,0.1-0.9,0.1-1.3c0-0.5,0-1,0.1-1.6c0.1-0.4,0.1-0.7,0.1-1.2c0-0.5,0-0.9,0.1-1.4c0.1-0.1,0.1-0.1,0-0.2
		c-0.1-0.5,0-1,0.1-1.5V156c0.1-0.5,0.1-1,0.1-1.5s-0.1-1,0.1-1.6v-0.3c-0.1-0.6,0-1.2,0.1-1.7c0.1-0.4,0-0.7,0-1.2
		c0-0.5,0.1-1,0.1-1.6c0-0.4-0.1-0.8,0.1-1.2c0.1-0.3,0-0.6,0.1-1v-1.4c0-0.8,0.1-1.6,0.4-2.4c0.3-0.7,0.8-1.2,1.5-1.4
		c0.8-0.2,1.6,0,2.1,0.6c0.3,0.4,0.4,0.8,0.6,1.2c0.2,0.5,0.2,0.9,0.3,1.6c0.1,0.5,0,1.2,0,1.8c-0.1,0.7-0.1,1.4-0.1,2
		c-0.1,0.4-0.1,0.8-0.1,1.2c0,0.4-0.1,0.8-0.1,1.2v0.9c0,0.4-0.1,0.8-0.1,1.3c0.1,0.6,0.1,1.2-0.1,1.8v0.1c0.1,0.6-0.1,1.2,0.1,1.7
		c0.1,0.2-0.1,0.4-0.1,0.7c0,0.2,0.1,0.5-0.1,0.7v0.2c0.1,0.6-0.1,1.2-0.1,1.7v1.4c-0.1,0.5,0,0.9-0.1,1.4c-0.1,0.3,0,0.5,0,0.8
		c-0.1,0.5-0.1,0.9-0.1,1.4c0.1,0.5,0.3,0.7,0.6,0.9c0.4,0.2,0.7,0.3,1,0.3h1c0.9,0.1,1.9,0.1,2.8,0.2c0.1,0.1,0.2,0,0.4,0
		c1.1-0.1,2.1,0.2,3,0.8c0.4,0.3,0.7,0.8,0.8,1.3c0.2,0.8,0.1,1.5-0.6,2.1c-0.4,0.4-0.9,0.7-1.5,0.8
		C218,171.2,217.3,171.3,216.7,171.1z"/>
	<path class="st3" d="M244.6,170.1c-0.7-0.6-1-1.3-1.1-2.2c-0.2-1.5-0.1-2.9-0.1-4.4c0-0.3-0.1-0.6-0.3-0.9
		c-0.2-0.2-0.3-0.2-0.5-0.3c-0.6,0-1.3-0.1-1.8-0.1c-0.5-0.1-1-0.1-1.6-0.1c-0.2-0.1-0.4,0-0.5,0.2c-0.2,0.2-0.3,0.3-0.4,0.5
		c-0.2,0.1-0.2,0.3-0.3,0.5l-0.3,2.3c-0.1,0.5-0.2,1.1-0.3,1.6c-0.2,0.7-0.6,1.2-1.1,1.6c-0.2,0.2-0.4,0.3-0.7,0.4
		c-0.6,0.3-1.3,0.1-1.8-0.3c-0.5-0.4-0.9-1-1-1.6c-0.1-0.4-0.2-0.7-0.1-1.1v-0.1c-0.1-0.5,0.1-1,0.1-1.5c0.1-0.8,0.2-1.6,0.4-2.5
		l0.5-2.5c0.2-0.9,0.4-1.8,0.6-2.7c0.5-1.8,1-3.6,1.7-5.3c0.4-1.1,0.8-2.2,1.2-3.2l1.4-3.4c0.4-1,0.8-1.9,1.5-2.7
		c0.3-0.5,0.8-0.7,1.4-0.7c0.9-0.2,1.7,0.2,2.3,0.8c0.5,0.5,0.8,1,1.2,1.6c0.5,0.7,0.8,1.5,1.2,2.3c0.4,0.9,0.7,1.8,0.9,2.7
		c0.1,0.6,0.3,1.2,0.4,1.7c0.1,0.6,0.3,1.2,0.2,1.7c0,0.3,0.2,0.4,0.2,0.7c-0.1,0.2-0.1,0.4,0.1,0.6c0.1,0,0,0.1,0,0.1
		c-0.1,0.6,0.1,1.2,0.2,1.8c0.1,0.9,0,1.9,0.1,2.9c0.1,1.2,0.1,2.4,0.1,3.6c0,0.5,0.2,1,0.1,1.6v1.6c0,0.6,0.1,1.3,0,1.9
		c0,0.6-0.1,1.2-0.3,1.8c-0.3,0.7-0.8,1.3-1.6,1.5C245.7,170.7,245.1,170.6,244.6,170.1z M243.1,156.7c0.1-0.2,0.1-0.4,0.1-0.7
		c0.1-0.3-0.1-0.7-0.1-1c0-0.6-0.2-1.1-0.1-1.7v-0.1c-0.2-0.6-0.2-1.3-0.3-1.9c-0.1-0.3-0.1-0.6-0.2-0.9c0-0.1-0.1-0.3-0.2-0.3
		c-0.2-0.1-0.3,0.1-0.4,0.2c-0.1,0.1-0.1,0.2-0.1,0.2c-0.3,0.8-0.6,1.6-0.9,2.3c-0.3,1-0.7,1.9-0.9,2.9c-0.1,0.3-0.2,0.6-0.2,0.9
		c0,0.3,0.2,0.5,0.5,0.6c0.2,0.1,0.4,0.1,0.6,0.1c0.2,0,0.5,0,0.6,0.1c0.3,0.1,0.5,0.1,0.7,0.1C242.6,157.4,243,157.1,243.1,156.7z"
		/>
	<path class="st3" d="M257.5,170.4c-1.3-0.3-2.5-0.8-3.5-1.8c-0.3-0.2-0.5-0.4-0.7-0.7c-0.7-0.7-1.3-1.5-1.7-2.4
		c-0.4-0.8-0.8-1.6-1-2.5c-0.2-0.6-0.3-1.1-0.4-1.7c-0.1-0.7-0.2-1.3-0.2-1.9c-0.1-0.4-0.1-0.8-0.1-1.3c-0.1-0.7,0.1-1.4,0.1-2.1
		c0.2-1.4,0.4-2.7,0.8-4c0.4-1.3,0.8-2.5,1.3-3.7c0.5-1,1-1.9,1.7-2.9c0.6-0.9,1.4-1.7,2.1-2.4c0.8-0.8,1.9-1.2,3-1.5
		c0.3-0.1,0.6-0.2,1-0.2c0.1,0,0.3,0.1,0.4-0.1c0.1-0.1,0.2-0.1,0.2,0c0.6,0.1,1.2,0.1,1.7,0.2s1.1,0.5,1.5,0.9
		c0.3,0.3,0.4,0.7,0.5,1.1c0.1,0.4,0,0.8-0.1,1.2c-0.2,0.6-1,1.3-1.6,1.4s-1,0.1-1.5,0c-0.8-0.2-1.5,0.1-2.1,0.6
		c-0.8,0.7-1.5,1.7-2,2.6c-0.5,1-0.9,2-1.3,3c-0.2,0.6-0.5,1.3-0.6,2c-0.1,0.5-0.2,1.1-0.3,1.7c-0.1,0.9-0.1,1.7-0.1,2.6
		c-0.1,1.2,0.2,2.3,0.6,3.4c0.3,0.9,0.8,1.7,1.5,2.4c0.6,0.5,1.2,1,1.9,1.5c0.3,0.2,0.6,0.3,0.9,0.4c0.5,0.2,1,0.5,1.4,0.8
		c0.4,0.3,0.6,0.7,0.7,1.2c0.2,0.5,0,0.9-0.3,1.4c-0.3,0.4-0.7,0.7-1.2,0.8c-0.5,0.1-1,0.1-1.5,0
		C258.3,170.6,257.9,170.5,257.5,170.4z"/>
	<path class="st3" d="M272.3,170c-0.4-0.4-0.6-0.9-0.6-1.4c-0.1-0.3-0.1-0.6-0.1-1c0-0.8-0.1-1.6,0-2.5c0.1-1,0-2.1,0.1-3.1
		c0.1-1,0-2,0.1-3c0.1-0.7,0-1.5,0.1-2.2c0.1-0.6,0-1.2,0.1-1.8c0.1-0.6,0-1.1,0.1-1.7c0.1-0.7,0-1.5,0.1-2.1
		c0.2-1.2,0.1-2.2,0.1-3.4c0-0.5-0.2-1-0.4-1.5c-0.2-0.3-0.4-0.5-0.8-0.5h-2.9c-1,0-1.7-0.4-2.2-1.1c-0.2-0.3-0.3-0.5-0.2-0.8
		c0-0.3-0.1-0.5,0.1-0.7c0.2-0.8,1.1-1.5,2-1.6c0.3,0,0.6-0.1,0.9-0.1h3.8c1.3,0,2.7,0.1,4-0.1c1.5-0.1,3-0.1,4.5-0.1
		c0.7,0,1.3,0.2,1.9,0.5c0.5,0.3,1,0.7,1.1,1.4c0,0.4,0.1,0.8-0.2,1.2c-0.2,0.3-0.6,0.5-0.9,0.6c-0.1,0.1-0.1,0.1-0.2,0.1
		c-0.4,0.2-0.8,0.4-1.3,0.4c-0.8,0.1-1.7,0.1-2.5,0.1c-0.3,0-0.6,0.2-0.9,0.1c-0.1,0-0.2,0.1-0.2,0.2c-0.4,0.3-0.6,0.7-0.7,1.2
		c-0.1,0.4-0.1,0.7-0.1,1c0,0.8-0.1,1.7,0,2.5c0,0.9-0.2,1.9-0.2,2.8c-0.2,0.6,0,1.2-0.1,1.8c-0.1,0.6,0,1.3-0.1,1.8
		c-0.1,0.8,0,1.5-0.1,2.3c-0.2,1.1,0,2.2-0.2,3.3c-0.1,0.9,0.1,1.9-0.1,2.8c-0.1,0.6-0.1,1.3-0.1,1.8c-0.1,0.6-0.1,1.3-0.4,1.8
		c-0.3,0.6-0.6,1-1.3,1.4C273.8,170.9,272.8,170.6,272.3,170z"/>
	<path class="st3" d="M286.1,166.8c-0.2-0.4-0.3-0.7-0.4-1.1c-0.1-0.2-0.1-0.5,0-0.7v-0.2c-0.1-0.6-0.1-1.2-0.1-1.8
		c-0.1-0.7-0.1-1.5-0.1-2.2c0-0.8-0.1-1.6,0-2.4v-1.2c0-0.6,0-1.3,0.1-1.8c0.1-0.4,0.1-0.7,0.1-1c-0.1-0.3-0.1-0.7,0-0.9
		c0.1-0.4,0-0.8,0.1-1.2c0.1-0.6,0.1-1.3,0.1-2v-0.9c0.1-0.7,0.1-1.4,0.1-2c0-0.5,0-1,0.1-1.5c0.1-0.2,0.1-0.4,0.2-0.5
		c0.3-0.6,0.7-1.2,1.4-1.4c0.2-0.1,0.4-0.1,0.6-0.2c0.7-0.2,1.3,0.1,1.8,0.5c0.5,0.3,0.8,0.7,1,1.3c0.1,0.3,0.2,0.5,0.2,0.8
		c0,0.5-0.1,0.9-0.1,1.4v0.9c-0.1,0.7-0.1,1.4-0.1,2v1c-0.1,0.7-0.1,1.3-0.1,2c0,0.6-0.1,1.2-0.1,1.8c0,0.6,0,1.2-0.1,1.7
		c-0.1,0.4,0.1,0.7,0,1.1c-0.1,0.5-0.1,1.1,0,1.6c0,0.5-0.1,1,0.1,1.6c0.1,0.3-0.1,0.5-0.1,0.8c0.1,0.3,0.2,0.5,0,0.8v0.2
		c0.2,0.5,0.1,1.1,0.1,1.7c0,1.2-0.3,2.2-1,3.1c-0.8,0.9-2,1-3,0.3C286.6,167.8,286.3,167.3,286.1,166.8z"/>
	<path class="st3" d="M298.8,170c-0.5-0.4-0.8-0.8-1-1.4c-0.4-0.8-0.8-1.6-1.2-2.4c-0.3-0.6-0.5-1.3-0.7-1.9
		c-0.1-0.4-0.3-0.8-0.4-1.2c-0.1-0.3-0.2-0.5-0.2-0.7c-0.1-0.6-0.3-1.2-0.4-1.8c-0.1-0.7-0.3-1.3-0.4-2c-0.1-0.4-0.1-0.8-0.2-1.2
		c-0.2-0.5-0.2-1.1-0.3-1.6c-0.2-0.6-0.2-1.2-0.3-1.7c-0.5-2.9-0.6-6-0.9-8.9c0-0.5,0.1-0.9,0.2-1.4c0.3-0.9,1.2-1.7,2.2-1.8
		c1-0.1,2.1,0.6,2.6,1.6c-0.1,0.4,0.3,0.8,0.1,1.3c0,0.1,0,0.2,0.1,0.3c0.1,0.7,0.1,1.5,0.2,2.1c0.4,2.2,0.4,4.5,0.7,6.8l0.3,1.8
		l0.5,2.4c0.2,0.7,0.3,1.4,0.5,2l0.2,1c0.1,0.3,0.2,0.6,0.3,0.9c0.1,0.3,0.3,0.3,0.5,0.1c0.1-0.1,0.2-0.2,0.2-0.4
		c0.2-0.7,0.5-1.3,0.6-2l0.8-2.5c0.2-0.8,0.5-1.6,0.7-2.4c0.3-0.6,0.5-1.3,0.6-1.9c0.3-0.8,0.6-1.7,0.8-2.5c0.2-0.6,0.4-1.1,0.6-1.7
		c0.4-0.9,0.6-1.8,1-2.7l0.7-1.9l0.6-1.6c0.3-0.7,0.7-1.4,1.4-1.8c0.4-0.2,0.7-0.4,1.1-0.5c1-0.2,1.8,0.3,2.2,1
		c0.1,0.2,0.2,0.4,0.3,0.6c0.1,0.2,0,0.4,0.1,0.7c0.1,0.4,0,0.8-0.2,1.2c-0.2,0.6-0.5,1.3-0.7,1.9c-0.4,0.9-0.7,1.9-1,2.8l-0.6,1.7
		c-0.4,0.9-0.7,1.9-1,2.8c-0.3,0.8-0.6,1.7-0.9,2.6c-0.3,0.9-0.6,1.8-0.9,2.7c-0.3,1-0.6,2-1,3c-0.5,1.4-1,2.8-1.6,4.1
		c-0.5,1-1,2.1-1.7,3c-0.5,0.6-1,1.2-1.8,1.5C300.6,170.7,299.7,170.6,298.8,170z"/>
	<path class="st3" d="M315,166.8c-0.2-0.4-0.3-0.7-0.4-1.1c-0.1-0.2-0.1-0.5,0-0.7v-0.2c-0.1-0.6-0.1-1.2-0.1-1.8
		c-0.1-0.7-0.1-1.5-0.1-2.2c0-0.8-0.1-1.6,0-2.4v-1.2c0-0.6,0-1.3,0.1-1.8c0.1-0.4,0.1-0.7,0.1-1c-0.1-0.3-0.1-0.7,0-0.9
		c0.1-0.4,0-0.8,0.1-1.2c0.1-0.6,0.1-1.3,0.1-2v-0.9c0.1-0.7,0.1-1.4,0.1-2c0-0.5,0-1,0.1-1.5c0.1-0.2,0.1-0.4,0.2-0.5
		c0.3-0.6,0.7-1.2,1.4-1.4c0.2-0.1,0.4-0.1,0.6-0.2c0.7-0.2,1.3,0.1,1.8,0.5c0.5,0.3,0.8,0.7,1,1.3c0.1,0.3,0.2,0.5,0.2,0.8
		c0,0.5-0.1,0.9-0.1,1.4v0.9c-0.1,0.7-0.1,1.4-0.1,2v1c-0.1,0.7-0.1,1.3-0.1,2c0,0.6-0.1,1.2-0.1,1.8c0,0.6,0,1.2-0.1,1.7
		c-0.1,0.4,0.1,0.7,0,1.1c-0.1,0.5-0.1,1.1,0,1.6c0,0.5-0.1,1,0.1,1.6c0.1,0.3-0.1,0.5-0.1,0.8c0.1,0.3,0.2,0.5,0,0.8v0.2
		c0.2,0.5,0.1,1.1,0.1,1.7c0,1.2-0.3,2.2-1,3.1c-0.8,0.9-2,1-3,0.3C315.6,167.8,315.3,167.3,315,166.8z"/>
	<path class="st3" d="M328.4,170c-0.4-0.4-0.6-0.9-0.6-1.4c-0.1-0.3-0.1-0.6-0.1-1c0-0.8-0.1-1.6,0-2.5c0.1-1,0-2.1,0.1-3.1
		c0.1-1,0-2,0.1-3c0.1-0.7,0-1.5,0.1-2.2c0.1-0.6,0-1.2,0.1-1.8c0.1-0.6,0-1.1,0.1-1.7c0.1-0.7,0-1.5,0.1-2.1
		c0.2-1.2,0.1-2.2,0.1-3.4c0-0.5-0.2-1-0.4-1.5c-0.2-0.3-0.4-0.5-0.8-0.5h-2.9c-1,0-1.7-0.4-2.2-1.1c-0.2-0.3-0.3-0.5-0.2-0.8
		c0-0.3-0.1-0.5,0.1-0.7c0.2-0.8,1.1-1.5,2-1.6c0.3,0,0.6-0.1,0.9-0.1h3.8c1.3,0,2.7,0.1,4-0.1c1.5-0.1,3-0.1,4.5-0.1
		c0.7,0,1.3,0.2,1.9,0.5c0.5,0.3,1,0.7,1.1,1.4c0,0.4,0.1,0.8-0.2,1.2c-0.2,0.3-0.6,0.5-0.9,0.6c-0.1,0.1-0.1,0.1-0.2,0.1
		c-0.4,0.2-0.8,0.4-1.3,0.4c-0.8,0.1-1.7,0.1-2.5,0.1c-0.3,0-0.6,0.2-0.9,0.1c-0.1,0-0.2,0.1-0.2,0.2c-0.4,0.3-0.6,0.7-0.7,1.2
		c-0.1,0.4-0.1,0.7-0.1,1c0,0.8-0.1,1.7,0,2.5c0,0.9-0.2,1.9-0.2,2.8c-0.2,0.6,0,1.2-0.1,1.8c-0.1,0.6,0,1.3-0.1,1.8
		c-0.1,0.8,0,1.5-0.1,2.3c-0.2,1.1,0,2.2-0.2,3.3c-0.1,0.9,0.1,1.9-0.1,2.8c-0.1,0.6-0.1,1.3-0.1,1.8c-0.1,0.6-0.1,1.3-0.4,1.8
		c-0.3,0.6-0.6,1-1.3,1.4C329.9,170.9,328.9,170.6,328.4,170z"/>
	<path class="st3" d="M344.5,170.5c-0.6-0.4-0.9-1-1.2-1.7c-0.3-1.2,0.5-2.5,1.4-2.8c0.6-0.3,1.3-0.2,1.9-0.1
		c0.6,0.1,1.1,0.3,1.7,0.3c1.3-0.1,2.4-0.6,3.1-1.8c0.5-0.8,0.8-1.6,1-2.5c0.2-0.4,0.3-0.8,0.3-1.3c0-0.1-0.1-0.2-0.1-0.3
		c-0.1-0.2-0.2-0.2-0.4-0.1l-0.8,0.6c-0.6,0.5-1.2,0.8-1.9,0.9c-0.6,0.2-1.3,0.1-1.9-0.1c-0.8-0.3-1.6-0.7-2.2-1.3
		c-1.2-0.9-2.1-2.1-2.7-3.6c-0.2-0.5-0.3-0.9-0.4-1.4c-0.1-0.5-0.2-0.9-0.2-1.5c0-0.2-0.1-0.4-0.1-0.6c-0.1-0.8-0.3-1.6-0.3-2.4
		c-0.1-0.6-0.1-1.2-0.1-1.7c-0.1-0.4,0.1-0.8,0.1-1.2c-0.1-0.4-0.1-0.7,0.1-1.1c0.1-0.1,0-0.2,0-0.2c0-0.7,0.2-1.3,0.3-1.9
		c0.1-0.7,0.3-1.3,0.5-1.9c0.3-1,0.9-1.6,1.9-1.9c0.3-0.1,0.6,0,0.8,0.1c1.1,0.3,1.6,1.4,1.6,2.4c0,0.8-0.1,1.6-0.2,2.4l-0.2,1.6
		c-0.2,1.5-0.1,3-0.1,4.6c0,1.4,0.3,2.7,1,3.9c0.4,0.5,0.7,0.9,1.3,1.2c0.3,0.2,0.5,0.1,0.7-0.1c0.3-0.3,0.4-0.5,0.6-0.8
		c0.5-1,0.8-2,1.1-3.1c0.2-0.6,0.3-1.2,0.4-1.8c0.2-0.9,0.5-1.8,0.6-2.8c0.1-0.6,0.3-1.3,0.4-1.9c0-0.3,0.1-0.6,0.1-1
		c0.1-0.4,0.2-0.7,0.2-1l0.2-0.9c0.2-1,0.6-1.9,1.6-2.4c1.1-0.5,2.2-0.2,3,0.9c0.4,0.6,0.6,1.4,0.7,2.1c0.1,0.9,0.1,1.9,0.2,2.9
		c0.1,0.8,0.1,1.5,0.1,2.2v0.2c0.1,1-0.1,2-0.1,3c-0.1,0.8-0.1,1.5-0.2,2.3c-0.1,0.6-0.1,1.2-0.2,1.8c-0.2,0.9-0.3,1.9-0.5,2.8
		c-0.2,0.8-0.3,1.7-0.5,2.5c-0.2,0.7-0.3,1.3-0.6,2c-0.3,0.9-0.7,1.7-1.1,2.5c-0.3,0.6-0.7,1.2-1.1,1.7c-0.6,0.7-1.3,1.4-2,1.9
		c-0.5,0.3-1,0.6-1.6,0.8c-0.6,0.2-1.2,0.4-1.8,0.5c-0.7,0.2-1.5,0.1-2.1,0.1C346,171.2,345.2,170.9,344.5,170.5z"/>
</g>
</svg>
