<?xml version="1.0" encoding="utf-8"?>
<!-- Generator: Adobe Illustrator 26.4.1, SVG Export Plug-In . SVG Version: 6.00 Build 0)  -->
<svg version="1.1" id="Layer_1" xmlns="http://www.w3.org/2000/svg" xmlns:xlink="http://www.w3.org/1999/xlink" x="0px" y="0px"
	 viewBox="0 0 405.4 271" style="enable-background:new 0 0 405.4 271;" xml:space="preserve">
<style type="text/css">
	.st0{clip-path:url(#SVGID_00000034805999238136244330000007676762935101028279_);}
	.st1{fill:#002E66;}
	.st2{enable-background:new    ;}
	.st3{fill:#12C6C1;}
</style>
<g id="Grupo_3148" transform="translate(675.001 2072.36)">
	<g>
		<g>
			<g>
				<defs>
					<rect id="SVGID_1_" x="-532.3" y="-2072.4" width="122" height="152"/>
				</defs>
				<clipPath id="SVGID_00000020386289196189022730000015153572910914902672_">
					<use xlink:href="#SVGID_1_"  style="overflow:visible;"/>
				</clipPath>
				<g id="Grupo_3147" style="clip-path:url(#SVGID_00000020386289196189022730000015153572910914902672_);">
					<path id="Trazado_3120" class="st1" d="M-465.9-1929.7H-516c-9,0-16.3-7.3-16.3-16.3v-90.5c0-9,7.3-16.3,16.3-16.3h7
						c1.3,0,2.3,1,2.3,2.3s-1,2.3-2.3,2.3h-7c-6.5,0-11.7,5.2-11.7,11.7v90.5c0,6.5,5.2,11.7,11.7,11.7h50.1c1.3,0,2.3,1.1,2.3,2.4
						C-463.6-1930.7-464.6-1929.7-465.9-1929.7"/>
					<path id="Trazado_3121" class="st1" d="M-435.8-1991.4c-1.3,0-2.3-1-2.3-2.3l0,0v-42.9c0-6.5-5.2-11.7-11.7-11.7h-7
						c-1.3,0-2.3-1-2.4-2.3c0-1.3,1-2.3,2.3-2.4h0.1h7c9,0,16.3,7.3,16.3,16.3v42.9C-433.5-1992.4-434.6-1991.4-435.8-1991.4
						L-435.8-1991.4"/>
					<path id="Trazado_3122" class="st1" d="M-460-2040.5h-45.8c-3,0-5.5-2.5-5.5-5.5v-8.9c0-3,2.5-5.5,5.5-5.5h8.8
						c1.3-7.8,8.6-13.1,16.4-11.8c6.1,1,10.8,5.7,11.8,11.8h8.8c3,0,5.5,2.5,5.5,5.5v8.9C-454.6-2043-457-2040.6-460-2040.5
						 M-505.8-2055.7c-0.5,0-0.9,0.4-0.9,0.9v8.9c0,0.5,0.4,0.9,0.9,0.9h45.8c0.5,0,0.9-0.4,0.9-0.9v-8.9c0-0.5-0.4-0.9-0.9-0.9
						h-10.9c-1.3,0-2.3-1-2.3-2.3l0,0c0-5.4-4.3-9.7-9.7-9.7c-5.4,0-9.7,4.3-9.7,9.7c0,1.3-1,2.3-2.3,2.3l0,0H-505.8z"/>
					<path id="Trazado_3123" class="st1" d="M-503.8-2009.6c-0.6,0-1.2-0.2-1.6-0.7l-11.1-11.1c-0.9-0.9-0.9-2.4,0-3.3
						s2.3-0.9,3.2,0l9.5,9.5l14.9-14.9c0.9-0.9,2.3-1,3.3-0.1c0.9,0.9,1,2.3,0.1,3.3l-0.1,0.1l-16.5,16.5
						C-502.6-2009.8-503.2-2009.6-503.8-2009.6"/>
					<path id="Trazado_3124" class="st1" d="M-503.7-1980.4c-0.6,0-1.2-0.2-1.6-0.7l-11.1-11.1c-0.9-0.9-0.9-2.4,0-3.3
						s2.3-0.9,3.2,0l9.5,9.5l14.9-14.9c0.9-0.9,2.4-0.9,3.3,0s0.9,2.3,0,3.2l-16.5,16.5C-502.5-1980.6-503.1-1980.4-503.7-1980.4"/>
					<path id="Trazado_3125" class="st1" d="M-503.5-1951.2c-0.6,0-1.2-0.2-1.6-0.7l-11.1-11.1c-0.9-0.9-0.9-2.4,0-3.3
						s2.4-0.9,3.3,0l0,0l9.5,9.5l14.9-14.9c0.9-0.9,2.4-0.9,3.3,0s0.9,2.4,0,3.3l0,0l-16.5,16.5
						C-502.4-1951.4-502.9-1951.2-503.5-1951.2"/>
					<path id="Trazado_3126" class="st1" d="M-450.7-2017.8H-475c-1.3,0-2.3-1.1-2.3-2.4c0-1.2,1-2.2,2.3-2.3h24.3
						c1.3,0,2.3,1.1,2.3,2.4C-448.4-2018.8-449.4-2017.8-450.7-2017.8"/>
					<path id="Trazado_3127" class="st1" d="M-450.7-1988.6H-475c-1.3,0-2.3-1.1-2.3-2.4c0-1.2,1-2.2,2.3-2.3h24.3
						c1.3,0,2.3,1.1,2.3,2.4C-448.4-1989.7-449.4-1988.7-450.7-1988.6"/>
					<path id="Trazado_3128" class="st1" d="M-467-1959.5h-8c-1.3,0-2.3-1-2.4-2.3s1-2.3,2.3-2.4h0.1h8c1.3,0,2.3,1.1,2.3,2.4
						C-464.8-1960.5-465.8-1959.5-467-1959.5"/>
					<path id="Trazado_3129" class="st1" d="M-444.1-1920.3c-3.7,0-7.2-1.9-9.3-5c-1.7-2.4-3.1-5-4.3-7.7
						c-2.4-5.8-3.7-12.1-3.7-18.4c0-2.9,1.2-7.5,3-9.9c2.8-3.7,7-5.8,11.6-5.9h0.1c2.4,0,4.9,0.6,7,1.8l3.1,1.7
						c0.4,0.2,0.9,0.2,1.4,0l3.1-1.7c6.4-3.5,14.4-1.8,18.8,4.1c1.8,2.3,3,7.1,3,10.1c0,6.3-1.2,12.5-3.7,18.2
						c-1.2,2.7-2.6,5.3-4.3,7.7c-2.8,4.1-8,6-12.7,4.4c0,0-0.4-0.2-0.5-0.2c-2.8-1.1-6-1.1-8.8,0l0,0l-0.5,0.2
						C-441.8-1920.5-442.9-1920.3-444.1-1920.3 M-442-1924.6l1,1.7l-0.7-1.8c3.7-1.5,7.9-1.5,11.6,0c3.2,1.1,6.7,0,8.6-2.8
						c1.5-2.2,2.8-4.6,3.9-7c2.2-5.3,3.4-11,3.4-16.7c0-2.2-1-6.1-2.2-7.7c-2-2.7-5.2-4.3-8.6-4.4c-1.8,0-3.6,0.4-5.2,1.3l-3.1,1.7
						c-1.6,0.9-3.5,0.9-5.1,0l-3.1-1.7c-1.6-0.9-3.3-1.3-5.1-1.3h-0.1c-3.4,0.1-6.5,1.7-8.6,4.4c-1.3,2.3-2.1,4.8-2.2,7.5
						c0,5.8,1.1,11.5,3.4,16.9c1.1,2.5,2.4,4.8,3.9,7C-448.4-1924.8-445.1-1923.6-442-1924.6"/>
					<path id="Trazado_3130" class="st1" d="M-435.8-1959.6L-435.8-1959.6c-1.1,0-2-0.9-2-2c0.3-11.1-2-18.3-6.7-21.5
						c-0.9-0.6-1.1-1.8-0.5-2.7c0.6-0.9,1.8-1.1,2.7-0.5c5.9,3.9,8.8,12.3,8.4,24.8C-433.9-1960.5-434.8-1959.6-435.8-1959.6"/>
					<path id="Trazado_3131" class="st1" d="M-435.7-1959.6c-1,0-1.8-0.7-1.9-1.7c0-0.3-1.1-8.2,3.2-14.4c4.2-6.2,12-8,12.3-8.1
						c0.5-0.1,1.1,0,1.5,0.3c0.5,0.3,0.8,0.8,0.8,1.3c0,0.3,1.1,8.2-3.1,14.4c-1.3,1.8-2.9,3.4-4.8,4.6c-0.9,0.6-2.1,0.4-2.7-0.5
						s-0.4-2.1,0.5-2.7c1.5-1,2.7-2.2,3.8-3.6c1.7-2.8,2.6-6,2.6-9.3c-3.1,1.1-5.7,3.1-7.7,5.7c-3.4,4.9-2.5,11.6-2.5,11.7
						c0.1,1.1-0.6,2-1.7,2.2C-435.5-1959.6-435.6-1959.6-435.7-1959.6"/>
				</g>
			</g>
		</g>
	</g>
</g>
<g class="st2">
	<path class="st3" d="M58.3,194.7c-0.4-0.4-0.6-0.9-0.6-1.4c-0.1-0.3-0.1-0.6-0.1-1c0-0.8,0-1.5,0-2.3c0.1-1,0-2,0.1-3s0-2,0.1-2.9
		c0.1-0.7,0-1.5,0.1-2.2c0.1-0.6,0-1.2,0.1-1.7s0-1,0.1-1.6c0.1-0.7,0-1.4,0.1-2.1c0.1-1.1,0-2.1,0-3.2c0-0.5-0.1-1-0.3-1.5
		c-0.2-0.3-0.4-0.5-0.8-0.5h-2.8c-1,0-1.6-0.3-2.1-1c-0.2-0.2-0.2-0.5-0.2-0.8c0-0.2,0-0.5,0-0.7c0.2-0.8,1.1-1.5,1.9-1.5
		c0.3,0,0.6,0,0.9,0h3.7c1.2,0,2.6,0,3.8,0c1.5,0,2.9,0,4.3,0c0.6,0,1.2,0.1,1.8,0.5c0.5,0.2,1,0.7,1.1,1.3c0,0.3,0,0.8-0.2,1.1
		c-0.2,0.2-0.5,0.5-0.9,0.6c0,0-0.1,0.1-0.2,0.1c-0.4,0.2-0.8,0.4-1.2,0.4c-0.8,0.1-1.6,0-2.4,0c-0.3,0-0.6,0.2-0.9,0.1
		c-0.1,0-0.1,0.1-0.2,0.2c-0.4,0.3-0.6,0.7-0.7,1.2c-0.1,0.3-0.1,0.6-0.1,1c0,0.8,0,1.6,0,2.4c0,0.9-0.2,1.8-0.1,2.7
		c-0.1,0.6,0,1.2-0.1,1.7c0,0.6,0,1.2-0.1,1.8c-0.1,0.8,0,1.4-0.1,2.2c-0.1,1.1,0,2.2-0.1,3.2c0,0.9,0,1.8,0,2.7
		c-0.1,0.6-0.1,1.2-0.1,1.8c-0.1,0.6-0.1,1.2-0.4,1.8c-0.2,0.5-0.5,1-1.2,1.3C59.7,195.6,58.8,195.3,58.3,194.7z"/>
	<path class="st3" d="M78.3,194.8c-0.7-0.5-1-1.2-1-2.1c-0.1-1.4,0-2.8-0.1-4.2c0-0.3-0.1-0.6-0.2-0.9c-0.1-0.2-0.2-0.2-0.5-0.2
		c-0.6,0-1.2,0-1.8-0.1c-0.5-0.1-1-0.1-1.5-0.1c-0.2,0-0.4,0-0.5,0.2s-0.3,0.3-0.4,0.5c-0.1,0.1-0.2,0.3-0.2,0.5l-0.3,2.2
		c-0.1,0.5-0.2,1-0.2,1.5c-0.2,0.7-0.6,1.1-1.1,1.5c-0.2,0.2-0.4,0.2-0.6,0.4c-0.6,0.3-1.2,0.1-1.7-0.3c-0.5-0.4-0.9-1-1-1.6
		c-0.1-0.3-0.2-0.7,0-1V191c0-0.5,0-1,0.1-1.5c0.1-0.8,0.2-1.6,0.4-2.4l0.4-2.3c0.1-0.9,0.4-1.7,0.6-2.6c0.5-1.8,1-3.5,1.6-5.1
		c0.4-1.1,0.8-2.1,1.1-3.1l1.3-3.2c0.4-1,0.8-1.8,1.4-2.6c0.3-0.5,0.8-0.6,1.3-0.7c0.9-0.1,1.6,0.2,2.2,0.8c0.4,0.5,0.8,1,1.1,1.5
		c0.4,0.7,0.8,1.4,1.1,2.2c0.4,0.9,0.6,1.7,0.9,2.6c0.1,0.5,0.3,1.1,0.3,1.6c0.1,0.5,0.2,1.1,0.2,1.6c0,0.2,0.1,0.4,0.1,0.7
		c0,0.2-0.1,0.4,0.1,0.6c0,0,0,0,0,0.1c-0.1,0.5,0.1,1.1,0.1,1.7c0,0.9,0,1.9,0.1,2.8c0.1,1.1,0,2.3,0,3.5c0,0.5,0.1,1,0.1,1.5v1.5
		c0,0.6,0,1.2,0,1.9c0,0.5-0.1,1.1-0.3,1.7c-0.2,0.7-0.8,1.2-1.5,1.5C79.4,195.3,78.8,195.2,78.3,194.8z M76.9,181.9
		c0.1-0.2,0.1-0.4,0.1-0.7s-0.1-0.6-0.1-1c0-0.5-0.1-1-0.1-1.6l0,0c-0.1-0.6-0.2-1.2-0.3-1.8c0-0.3-0.1-0.5-0.2-0.8
		c0-0.1-0.1-0.2-0.2-0.2c-0.2,0-0.3,0-0.4,0.2c0,0.1-0.1,0.1-0.1,0.2c-0.3,0.8-0.5,1.5-0.9,2.2c-0.3,1-0.6,1.9-0.9,2.8
		c-0.1,0.3-0.1,0.6-0.1,0.9s0.1,0.5,0.4,0.6c0.2,0.1,0.4,0.1,0.6,0.1s0.4,0,0.6,0c0.2,0.1,0.4,0,0.7,0
		C76.4,182.7,76.8,182.4,76.9,181.9z"/>
	<path class="st3" d="M84.9,194.8c-0.7-0.5-1.2-1.2-1.4-2.5c0-0.5-0.1-1.2-0.1-1.9c0.1-0.3,0-0.7,0-1c-0.1-0.7-0.1-1.3-0.1-2
		c0-0.5,0-1,0-1.5c0.1-0.3,0-0.6,0-0.9c0-0.5,0.1-1.1,0.1-1.6v-3.6c0-0.5,0-1,0-1.6c0.1-0.5,0.1-1.1,0.1-1.6V175c0-0.5,0-1.1,0-1.6
		s0-1,0-1.5s0.1-1.1,0.5-1.6s0.8-0.8,1.4-1c0.7-0.1,1.3,0,1.9,0.2c0.2,0.1,0.3,0.3,0.5,0.5c0.4,0.3,0.6,0.8,0.8,1.3
		c0,0.4,0,0.7,0,1.1c0,0.5,0,1,0.1,1.5c0,0.2,0,0.4,0.2,0.4s0.5,0,0.6-0.2c0.3-0.4,0.7-0.8,1-1.2c0.2-0.3,0.4-0.5,0.6-0.8
		c0.6-0.8,1.1-1.6,1.6-2.4c0.3-0.5,0.6-1.1,1.1-1.5c0.2-0.2,0.5-0.4,0.8-0.5c0.4-0.2,0.6-0.4,1-0.2c1.1-0.1,2.1,0.8,2.3,1.8
		c0.2,0.3,0.1,0.6,0.1,1c0,0.5-0.1,0.8-0.4,1.2c-0.5,0.8-1,1.5-1.4,2.3c-0.6,0.8-1.1,1.6-1.7,2.4c-0.6,0.8-1.2,1.7-1.9,2.5l-1,1.3
		c-0.3,0.4-0.4,0.8-0.3,1.2c0.1,0.5,0.2,1,0.6,1.4c0.3,0.4,0.5,0.9,0.8,1.4c0.4,0.6,0.7,1.2,1.1,1.9c0.7,1.1,1.4,2.2,2.1,3.3
		c0.3,0.5,0.7,0.9,0.9,1.4c0.4,0.9,0.5,1.8,0,2.7c-0.5,0.7-1.2,1.1-2.2,1c-0.9,0-1.5-0.5-2.1-1.2c-0.4-0.6-0.9-1.2-1.2-1.9
		c-0.4-0.6-0.8-1.2-1.2-1.8c-0.2-0.4-0.5-0.8-0.8-1.2c-0.1-0.2-0.2-0.3-0.4-0.2c-0.2,0-0.2,0.2-0.2,0.4c0,0.5,0,1.1,0,1.6
		c0.1,0.3,0,0.6,0,0.9c0.1,0.3,0.1,0.7,0.1,1c0,0.4,0.1,0.8,0,1.2c-0.1,0.9-0.7,1.6-1.5,2C86.3,195.3,85.6,195.2,84.9,194.8z"/>
	<path class="st3" d="M102.5,194.2c-1.2-0.4-2.1-1.2-2.5-2.4c-0.2-0.7-0.4-1.3-0.5-2c-0.1-1,0-2-0.1-2.8c0-1.1,0-1.9,0.1-2.7
		c0-0.8,0-1.7,0.1-2.5c0.1-0.6,0-1.2,0.1-1.8s0-1.2,0.1-1.9c0.1-1.2,0.1-2.3,0-3.5c0-0.7,0-1.3-0.1-2v-0.2c-0.1-0.2-0.1-0.4,0-0.7
		c0-0.1,0-0.3,0-0.4c-0.2-0.5,0-0.9,0.1-1.4c0.3-0.7,0.9-1.1,1.7-1.4c0.5-0.2,1-0.2,1.6-0.3c0.5-0.1,1,0,1.5-0.2c0.1,0,0.1,0,0.1,0
		c1.4,0,2.7-0.2,4.1-0.1c1,0.1,1.8,0.5,2.4,1.3c0.5,0.7,0.5,1.5,0,2.2c-0.4,0.7-1.1,1-1.9,1.2c-0.3,0.1-0.6,0.1-1,0.1
		c-0.9,0-1.8,0.2-2.8,0.2c-0.6,0-1,0.4-1,1c0,1.2,0,2.3,0,3.5c0,0.3,0,0.5-0.1,0.9c-0.1,0.3,0.1,0.7,0.2,1c0.1,0.2,0.2,0.3,0.5,0.3
		c0.5,0,1,0,1.5,0c0.8,0,1.5,0.2,2.2,0.5c0.8,0.3,1.2,1,1.3,1.9c0.1,1-0.6,1.8-1.6,2.2c-0.6,0.2-1.2,0.4-1.9,0.4c-0.4,0-0.9,0-1.2,0
		H105c-0.7,0.2-0.9,0.4-0.9,1.1v2.6c0,0.4,0.1,0.8,0.2,1.1c0,0.6,0.4,1,1.1,1c0.5,0,1.1,0,1.6,0c0.7,0,1.4,0.1,2.1,0.5
		c0.5,0.4,0.9,0.8,0.9,1.4c0.1,0.5-0.1,0.9-0.4,1.3c-0.5,0.5-1.1,0.8-1.8,0.9c-0.5,0-1,0.1-1.4,0.1c-0.5,0-1.1,0.2-1.6,0
		C104.1,194.5,103.3,194.5,102.5,194.2z"/>
	<path class="st3" d="M130.5,195c-1.2-0.3-2.4-0.8-3.4-1.7c-0.2-0.2-0.5-0.4-0.7-0.6c-0.6-0.7-1.2-1.5-1.7-2.3
		c-0.4-0.8-0.8-1.5-0.9-2.3c-0.1-0.5-0.3-1-0.4-1.6s-0.2-1.2-0.2-1.8c0-0.4,0-0.8,0-1.2c-0.1-0.7,0-1.3,0.1-2
		c0.2-1.3,0.4-2.6,0.8-3.9c0.4-1.2,0.8-2.4,1.3-3.5c0.4-1,1-1.9,1.6-2.8c0.5-0.9,1.3-1.6,2-2.3c0.8-0.8,1.8-1.1,2.9-1.4
		c0.3-0.1,0.6-0.2,1-0.2c0.1,0,0.2,0,0.4,0c0,0,0.1,0,0.2,0c0.5,0.1,1.1,0,1.6,0.2c0.5,0.1,1.1,0.4,1.5,0.9c0.2,0.3,0.4,0.7,0.5,1.1
		c0,0.4,0,0.8-0.1,1.1c-0.2,0.5-1,1.2-1.5,1.4c-0.5,0.1-1,0.1-1.5,0c-0.8-0.2-1.5,0-2,0.6c-0.8,0.7-1.4,1.6-2,2.5
		c-0.5,1-0.9,1.9-1.2,2.9c-0.2,0.6-0.4,1.2-0.5,2c-0.1,0.5-0.2,1-0.2,1.6c-0.1,0.9-0.1,1.7-0.1,2.5c0,1.1,0.2,2.2,0.6,3.2
		c0.3,0.8,0.8,1.7,1.5,2.3c0.5,0.5,1.1,1,1.8,1.4c0.2,0.1,0.5,0.3,0.8,0.3c0.5,0.2,1,0.5,1.4,0.8s0.6,0.7,0.7,1.1
		c0.1,0.5,0,0.9-0.2,1.3s-0.7,0.7-1.2,0.8s-1,0-1.4,0C131.3,195.2,130.9,195.1,130.5,195z"/>
	<path class="st3" d="M148.1,194.8c-0.7-0.5-1-1.2-1-2.1c-0.1-1.4,0-2.8-0.1-4.2c0-0.3-0.1-0.6-0.2-0.9c-0.1-0.2-0.2-0.2-0.5-0.2
		c-0.6,0-1.2,0-1.8-0.1c-0.5-0.1-1-0.1-1.5-0.1c-0.2,0-0.4,0-0.5,0.2s-0.3,0.3-0.4,0.5c-0.1,0.1-0.2,0.3-0.2,0.5l-0.3,2.2
		c-0.1,0.5-0.2,1-0.2,1.5c-0.2,0.7-0.6,1.1-1.1,1.5c-0.2,0.2-0.4,0.2-0.6,0.4c-0.6,0.3-1.2,0.1-1.7-0.3c-0.5-0.4-0.9-1-1-1.6
		c-0.1-0.3-0.2-0.7,0-1V191c0-0.5,0-1,0.1-1.5c0.1-0.8,0.2-1.6,0.4-2.4l0.4-2.3c0.1-0.9,0.4-1.7,0.6-2.6c0.5-1.8,1-3.5,1.6-5.1
		c0.4-1.1,0.8-2.1,1.1-3.1l1.3-3.2c0.4-1,0.8-1.8,1.4-2.6c0.3-0.5,0.8-0.6,1.3-0.7c0.9-0.1,1.6,0.2,2.2,0.8c0.4,0.5,0.8,1,1.1,1.5
		c0.4,0.7,0.8,1.4,1.1,2.2c0.4,0.9,0.6,1.7,0.9,2.6c0.1,0.5,0.3,1.1,0.3,1.6c0.1,0.5,0.2,1.1,0.2,1.6c0,0.2,0.1,0.4,0.1,0.7
		c0,0.2-0.1,0.4,0.1,0.6c0,0,0,0,0,0.1c-0.1,0.5,0.1,1.1,0.1,1.7c0,0.9,0,1.9,0.1,2.8c0.1,1.1,0,2.3,0,3.5c0,0.5,0.1,1,0.1,1.5v1.5
		c0,0.6,0,1.2,0,1.9c0,0.5-0.1,1.1-0.3,1.7c-0.2,0.7-0.8,1.2-1.5,1.5C149.2,195.3,148.6,195.2,148.1,194.8z M146.7,181.9
		c0.1-0.2,0.1-0.4,0.1-0.7s-0.1-0.6-0.1-1c0-0.5-0.1-1-0.1-1.6l0,0c-0.1-0.6-0.2-1.2-0.3-1.8c0-0.3-0.1-0.5-0.2-0.8
		c0-0.1-0.1-0.2-0.2-0.2c-0.2,0-0.3,0-0.4,0.2c0,0.1-0.1,0.1-0.1,0.2c-0.3,0.8-0.5,1.5-0.9,2.2c-0.3,1-0.6,1.9-0.9,2.8
		c-0.1,0.3-0.1,0.6-0.1,0.9s0.1,0.5,0.4,0.6c0.2,0.1,0.4,0.1,0.6,0.1c0.2,0,0.4,0,0.6,0c0.2,0.1,0.4,0,0.7,0
		C146.3,182.7,146.6,182.4,146.7,181.9z"/>
	<path class="st3" d="M154.9,194.7c-0.2-0.2-0.5-0.4-0.7-0.6c-0.4-0.5-0.8-1.1-0.9-2l-0.2-2c0-0.2,0.1-0.5,0.1-0.8
		c-0.1-0.2-0.1-0.5,0-0.8v-0.1c-0.1-0.5,0-1,0-1.4c0-0.7,0-1.5,0.1-2.2c0-0.3,0-0.8,0-1.1c0.1-0.4,0.1-0.8,0.1-1.2s0-0.8,0-1.1
		c0-0.5,0-0.8,0.1-1.2c0-0.3,0-0.5,0-0.8c0-0.7,0.1-1.2,0.1-1.9c0-0.6,0.1-1.2,0.1-1.9c0-0.4,0-0.8,0-1.2c0-0.5,0.1-0.8,0.1-1.2
		c0.1-0.6,0.1-1.2,0.4-1.7c0.2-0.4,0.4-0.8,0.7-1.2c0.5-0.7,1.2-1.1,2-1.3s1.5-0.2,2.1-0.2c1.4,0.1,2.6,0.5,3.8,1.2
		c1.1,0.7,2,1.5,2.5,2.8c0.2,0.5,0.5,1.1,0.6,1.7c0,0.2,0,0.3,0,0.5c0.1,1.5-0.2,2.9-0.9,4.2c-0.3,0.7-0.7,1.2-1.1,1.8
		c-0.6,0.8-1.3,1.5-2,2.1c-0.3,0.3-0.4,0.8-0.5,1.2c0.2,0.2,0.2,0.5,0.4,0.8c0.6,0.7,1.2,1.5,1.8,2.2c0.7,0.8,1.4,1.8,2,2.7
		c0.5,0.6,0.9,1.3,0.9,2.1c0,0.5-0.1,1.1-0.5,1.5c-0.2,0.2-0.4,0.5-0.8,0.7c-0.9,0.3-1.7,0.2-2.4-0.3c-0.6-0.5-1.1-1.1-1.6-1.7
		c-0.6-0.9-1.2-1.7-2-2.5l-0.5-0.8c-0.1-0.2-0.4-0.2-0.5-0.2s-0.1,0.2-0.2,0.4v0.1c0.1,0.7,0,1.4,0.1,2.1c0,0.4,0,0.7-0.1,1.1
		c-0.2,0.7-0.5,1.3-1,1.8c-0.3,0.3-0.6,0.5-1,0.5C155.6,194.9,155.2,194.9,154.9,194.7z M160,178.3c0.4-0.5,0.9-1,1-1.8
		c0.1-0.4,0.2-0.8,0.2-1.2c-0.2-0.8-1-1.3-1.8-1.2c-0.4,0-0.5,0-0.6,0.5c0,0.3-0.1,0.8-0.1,1.1c0,0.4,0,0.8,0,1.1
		c-0.1,0.5-0.1,1-0.1,1.4c0,0.2,0,0.3,0,0.4c0,0.4,0.2,0.5,0.6,0.3C159.6,178.7,159.8,178.5,160,178.3z"/>
	<path class="st3" d="M171.1,194.2c-1.2-0.4-2.1-1.2-2.5-2.4c-0.2-0.7-0.4-1.3-0.5-2c-0.1-1,0-2-0.1-2.8c0-1.1,0-1.9,0-2.7
		c0.1-0.8,0-1.7,0.1-2.5c0.1-0.6,0-1.2,0.1-1.8s0-1.2,0.1-1.9c0.1-1.2,0.1-2.3,0-3.5c0-0.7,0-1.3-0.1-2v-0.2c-0.1-0.2-0.1-0.4,0-0.7
		c0-0.1,0-0.3,0-0.4c-0.2-0.5,0-0.9,0.1-1.4c0.3-0.7,0.9-1.1,1.7-1.4c0.5-0.2,1-0.2,1.6-0.3c0.5-0.1,1,0,1.5-0.2c0.1,0,0.1,0,0.1,0
		c1.4,0,2.7-0.2,4.1-0.1c1,0.1,1.8,0.5,2.4,1.3c0.5,0.7,0.5,1.5,0,2.2c-0.4,0.7-1.1,1-1.9,1.2c-0.3,0.1-0.6,0.1-1,0.1
		c-0.9,0-1.8,0.2-2.8,0.2c-0.6,0-1,0.4-1,1c0,1.2,0,2.3,0,3.5c0,0.3,0,0.5-0.1,0.9c-0.1,0.3,0.1,0.7,0.2,1c0.1,0.2,0.2,0.3,0.5,0.3
		c0.5,0,1,0,1.5,0c0.8,0,1.5,0.2,2.2,0.5c0.8,0.3,1.2,1,1.3,1.9c0.1,1-0.6,1.8-1.6,2.2c-0.6,0.2-1.2,0.4-1.9,0.4c-0.4,0-0.9,0-1.2,0
		h-0.4c-0.7,0.2-0.9,0.4-0.9,1.1v2.6c0,0.4,0.1,0.8,0.1,1.1c0,0.6,0.4,1,1.1,1c0.5,0,1.1,0,1.6,0c0.7,0,1.4,0.1,2.1,0.5
		c0.5,0.4,0.9,0.8,0.9,1.4c0.1,0.5-0.1,0.9-0.4,1.3c-0.5,0.5-1.1,0.8-1.8,0.9c-0.5,0-1,0.1-1.4,0.1c-0.5,0-1.1,0.2-1.6,0
		C172.8,194.5,171.9,194.5,171.1,194.2z"/>
	<path class="st3" d="M197.9,194c-0.7-0.3-1.4-0.7-2-1.2s-1.2-1.1-1.7-1.8c-0.4-0.5-0.8-1.1-1.1-1.8c-0.1-0.4-0.3-0.8-0.5-1.3
		c-0.3-1.2-0.5-2.4-0.7-3.6l-0.2-1.7c0-0.5,0-1.1,0-1.6c0-0.7,0-1.4,0.1-2.1c0-0.5,0-1.1,0.1-1.7c0.1-1,0.2-2.1,0.5-3.1l0.1-0.9
		c0.1-0.5,0.2-1.2,0.5-1.7c0.1-0.2,0.4-0.5,0.6-0.7c0.4-0.5,0.8-1.1,1.4-1.5c0.9-0.7,1.8-1.3,2.8-1.8c0.8-0.3,1.5-0.6,2.3-0.7
		c0.6-0.1,1.2,0,1.8,0c1.1,0.2,2.2,0.5,3.2,1c0.5,0.3,1,0.5,1.5,1c0.2,0.2,0.4,0.3,0.6,0.5c0.7,0.8,1.3,1.5,1.8,2.4
		c0.4,0.7,0.7,1.4,1,2.1c0.2,0.4,0.2,0.8,0.4,1.2c0.1,0.5,0.2,1.1,0.3,1.5c0,0.2,0,0.4,0.1,0.5c0.1,0.7,0.1,1.4,0.1,2.1
		c0,1.5-0.2,2.8-0.5,4.2c-0.3,1.5-0.8,2.9-1.4,4.2c-0.3,0.5-0.5,1.2-0.8,1.7c-0.3,0.6-0.7,1.2-1.2,1.7c-0.4,0.4-0.8,0.9-1.3,1.3
		c-0.8,0.7-1.6,1.2-2.5,1.6c-0.4,0.2-0.9,0.2-1.2,0.4c-0.2,0.1-0.5,0.1-0.7,0c0,0-0.1,0-0.2,0C199.9,194.6,198.9,194.5,197.9,194z
		 M202.8,188.7c0.3-0.3,0.4-0.7,0.6-1c0.4-0.5,0.7-1,0.9-1.6c0.4-0.9,0.8-1.8,1-2.7c0.3-1.2,0.5-2.5,0.5-3.8c0-0.6,0-1.2-0.1-1.9
		c0-0.5-0.3-1-0.3-1.5v-0.1c-0.3-0.6-0.5-1.2-0.8-1.8c-0.6-0.9-1.2-1.5-2.1-2c-0.2-0.1-0.4-0.2-0.6-0.2c-0.9-0.2-1.6-0.1-2.4,0.3
		c-0.6,0.3-1.1,0.8-1.5,1.2c-0.3,0.3-0.5,0.7-0.6,1L197,177c-0.2,1.3-0.2,2.7-0.3,4c0,0.5,0,1.1,0,1.7c0.1,0.7,0.2,1.4,0.2,2.1
		c0,0.2,0.1,0.4,0.2,0.5c0,0.7,0.2,1.3,0.5,1.9c0.3,0.9,0.7,1.8,1.4,2.5c0.6,0.5,1.3,0.7,2,0.5C201.7,189.8,202.3,189.3,202.8,188.7
		z"/>
	<path class="st3" d="M214.2,195.6c-0.8-0.4-1.3-1.1-1.5-2c0-0.2,0-0.6-0.1-0.9c-0.1-0.4-0.1-0.8-0.2-1.2c0,0,0,0,0-0.1v-0.1
		c0-0.8,0-1.7-0.1-2.5c0.2-1.5,0.1-3.2,0.2-4.7c0-1,0-1.9,0.1-2.9c0.1-1.1,0-2.3,0.1-3.5c0-0.8,0-1.5,0.1-2.2c0.1-0.8,0-1.7,0.1-2.5
		s0-1.5,0.1-2.4c0-0.5,0.1-1.1,0.3-1.7c0.2-0.3,0.5-0.6,0.8-0.9c0.3-0.2,0.6-0.5,0.9-0.7c0.4-0.2,0.8-0.3,1.3-0.4
		c0.2,0,0.4,0.1,0.6,0h0.1c1,0.2,1.9,0,2.9,0c0,0,0.2,0.1,0.2,0c0.4-0.1,0.8-0.1,1.2,0c0.7,0,1.4,0,2,0.5c0.6,0.3,1,0.8,1.2,1.5
		c0.2,0.5,0,1-0.2,1.5s-0.6,1-1.2,1.2c-0.5,0.2-1.1,0.3-1.7,0.3h-1.8c-1,0-1.4,0.5-1.6,1.2c-0.2,0.5-0.3,1.1-0.3,1.8v1
		c0,0.2,0,0.3,0,0.5c-0.1,0.7,0,1.2,0.5,1.7c0.1,0.2,0.4,0.3,0.8,0.3c1,0,1.9,0.2,2.9,0.2c0.7,0,1.3,0.2,1.8,0.7s0.9,1.2,0.8,2
		c0,0.4-0.2,0.8-0.5,1.1c-0.5,0.7-1.2,1-2.1,1c-1,0-2,0-3.1,0c-0.5,0-0.7,0.2-0.9,0.5c-0.2,0.4-0.3,0.7-0.3,1.1c0,1.3-0.2,2.6-0.1,4
		v2.3c0.1,0.7,0,1.2-0.1,1.9c-0.1,0.6-0.3,1.2-0.6,1.8c-0.2,0.4-0.6,0.8-1.1,0.9C215,195.8,214.6,195.8,214.2,195.6z"/>
	<path class="st3" d="M238.7,195.1c-0.5-0.4-0.9-1-1.1-1.7c-0.3-1.2,0.5-2.4,1.3-2.7c0.6-0.2,1.2-0.2,1.8-0.1
		c0.6,0.1,1.1,0.3,1.7,0.2c1.2-0.1,2.2-0.6,3-1.8c0.5-0.8,0.8-1.5,1-2.4c0.2-0.3,0.3-0.8,0.2-1.2c0-0.1,0-0.2-0.1-0.3
		c-0.1-0.2-0.2-0.2-0.4,0l-0.8,0.6c-0.5,0.5-1.2,0.8-1.8,0.9c-0.6,0.1-1.2,0.1-1.9-0.1c-0.8-0.2-1.5-0.7-2.2-1.2
		c-1.1-0.9-2-2-2.5-3.5c-0.2-0.5-0.2-0.9-0.3-1.3c-0.1-0.5-0.2-0.9-0.2-1.4c0-0.2,0-0.4-0.1-0.6c-0.1-0.8-0.2-1.5-0.3-2.2
		c0-0.6,0-1.1,0-1.6c0-0.4,0.1-0.8,0.1-1.1c0-0.4-0.1-0.7,0.1-1.1c0,0,0-0.1,0-0.2c0-0.6,0.1-1.2,0.2-1.8c0.1-0.6,0.2-1.2,0.5-1.8
		c0.3-1,0.9-1.6,1.8-1.9c0.2,0,0.5,0,0.8,0c1,0.3,1.5,1.4,1.5,2.3c0,0.8-0.1,1.5-0.1,2.2l-0.2,1.5c-0.1,1.5-0.1,2.9,0,4.4
		c0,1.3,0.3,2.6,1,3.7c0.3,0.5,0.7,0.8,1.2,1.1c0.3,0.2,0.5,0.1,0.7-0.1c0.2-0.2,0.4-0.5,0.5-0.8c0.5-1,0.8-2,1-3
		c0.2-0.6,0.3-1.1,0.4-1.7c0.2-0.9,0.5-1.8,0.6-2.7c0-0.6,0.2-1.2,0.4-1.9c0-0.3,0.1-0.6,0.1-1c0-0.3,0.2-0.7,0.2-1l0.1-0.9
		c0.2-1,0.6-1.9,1.5-2.3c1.1-0.4,2.2-0.2,2.9,0.9c0.4,0.6,0.6,1.3,0.7,2c0.1,0.9,0.1,1.9,0.1,2.8c0.1,0.8,0.1,1.4,0.1,2.1v0.2
		c0,1-0.1,1.9-0.1,2.8c0,0.8-0.1,1.5-0.2,2.2c-0.1,0.6-0.1,1.2-0.2,1.7c-0.2,0.9-0.2,1.8-0.5,2.7c-0.2,0.8-0.3,1.6-0.5,2.4
		c-0.2,0.7-0.3,1.2-0.5,1.9c-0.3,0.8-0.7,1.6-1.1,2.4c-0.3,0.6-0.6,1.2-1,1.6c-0.6,0.7-1.2,1.3-1.9,1.8c-0.5,0.3-1,0.6-1.5,0.8
		s-1.1,0.4-1.8,0.5c-0.7,0.2-1.4,0.1-2,0C240.1,195.8,239.3,195.6,238.7,195.1z"/>
	<path class="st3" d="M259.8,194c-0.7-0.3-1.4-0.7-2-1.2s-1.2-1.1-1.7-1.8c-0.4-0.5-0.8-1.1-1.1-1.8c-0.2-0.4-0.3-0.8-0.5-1.3
		c-0.4-1.2-0.6-2.4-0.7-3.6l-0.2-1.7c0-0.5,0-1.1,0-1.6c0-0.7,0-1.4,0.1-2.1c0-0.5,0.1-1.1,0.1-1.7c0.1-1,0.2-2.1,0.5-3.1l0.2-0.9
		c0.1-0.5,0.2-1.2,0.5-1.7c0.1-0.2,0.3-0.5,0.5-0.7c0.5-0.5,0.8-1.1,1.4-1.5c0.9-0.7,1.8-1.3,2.8-1.8c0.8-0.3,1.5-0.6,2.2-0.7
		c0.6-0.1,1.2,0,1.8,0c1.1,0.2,2.2,0.5,3.2,1c0.5,0.3,1,0.5,1.5,1c0.2,0.2,0.5,0.3,0.6,0.5c0.7,0.8,1.3,1.5,1.8,2.4
		c0.4,0.7,0.7,1.4,1,2.1c0.1,0.4,0.2,0.8,0.3,1.2c0.2,0.5,0.2,1.1,0.3,1.5c0,0.2,0,0.4,0.1,0.5c0.1,0.7,0.1,1.4,0.1,2.1
		c0,1.5-0.2,2.8-0.5,4.2c-0.3,1.5-0.8,2.9-1.3,4.2c-0.3,0.5-0.5,1.2-0.9,1.7c-0.3,0.6-0.6,1.2-1.1,1.7c-0.5,0.4-0.9,0.9-1.3,1.3
		c-0.8,0.7-1.6,1.2-2.5,1.6c-0.4,0.2-0.9,0.2-1.2,0.4c-0.2,0.1-0.5,0.1-0.7,0c0,0-0.1,0-0.2,0C261.8,194.6,260.8,194.5,259.8,194z
		 M264.7,188.7c0.2-0.3,0.5-0.7,0.6-1c0.4-0.5,0.7-1,0.9-1.6c0.4-0.9,0.8-1.8,1-2.7c0.3-1.2,0.5-2.5,0.5-3.8c0-0.6,0-1.2-0.1-1.9
		c0-0.5-0.3-1-0.4-1.5v-0.1c-0.3-0.6-0.5-1.2-0.8-1.8c-0.5-0.9-1.2-1.5-2.1-2c-0.1-0.1-0.3-0.2-0.5-0.2c-0.8-0.2-1.7-0.1-2.4,0.3
		c-0.6,0.3-1,0.8-1.5,1.2c-0.3,0.3-0.5,0.7-0.6,1l-0.4,2.4c-0.2,1.3-0.2,2.7-0.3,4c0,0.5,0,1.1,0,1.7c0.1,0.7,0.2,1.4,0.2,2.1
		c0,0.2,0.2,0.4,0.2,0.5c0,0.7,0.2,1.3,0.5,1.9c0.3,0.9,0.7,1.8,1.5,2.5c0.5,0.5,1.3,0.7,2,0.5C263.6,189.8,264.2,189.3,264.7,188.7
		z"/>
	<path class="st3" d="M279.1,193.2c-0.8-0.5-1.5-1.1-2-1.8c-0.7-0.8-1.2-1.8-1.7-2.8c-0.2-0.6-0.4-1.3-0.6-1.9v-0.1
		c-0.1-0.9-0.4-1.7-0.4-2.4c0-0.4-0.1-0.7-0.1-1c0-0.8-0.2-1.5-0.2-2.3c0-0.5-0.1-0.9,0-1.2c0-0.8,0-1.6,0-2.3c0-0.5,0-0.8,0-1.3
		c0-0.4,0-0.9,0-1.3c0-0.3,0-0.6,0-0.9v-1.2c0-0.8,0-1.7,0.4-2.5c0.2-0.6,0.6-1,1.1-1.3s1-0.4,1.6-0.3c0.8,0.2,1.3,0.6,1.8,1.2
		c0.3,0.5,0.5,1,0.3,1.6c0,0.2,0,0.5,0,0.8c0,0.6,0,1.2,0,1.8v2.1c0,0.4,0,0.8,0,1.2s0.1,0.8,0,1.2v0.2c0.1,0.6,0,1.2,0,1.8
		c0,1.5,0.3,2.9,0.5,4.4c0.1,1.2,0.6,2.3,1.3,3.3c0.4,0.5,0.8,0.9,1.4,1.2c0.5,0.2,0.8,0.1,1.1-0.2c0.5-0.5,0.8-1,1-1.6
		c0.6-1.5,0.9-3,1.2-4.5c0.2-1,0.4-2.1,0.5-3.2c0.1-0.8,0.2-1.7,0.2-2.5c0-0.5,0-1.1,0.1-1.6c0-0.4-0.1-0.7,0-1c0-0.8,0-1.5,0-2.2
		v-1.3c0-0.8,0-1.7,0.5-2.4c0.2-0.4,0.6-0.8,1-0.9c1.3-0.6,2.8,0.2,3.2,1.3c0.2,0.5,0.4,1.1,0.2,1.7c0,0.1,0,0.2,0,0.2
		c0.1,0.5,0,1,0,1.6c0,0.3,0,0.6,0,0.9c0,0.4,0,0.8,0,1.2s0,0.7,0,1.1c0,0.2,0,0.5,0,0.8c0,0.8-0.2,1.5-0.2,2.2
		c-0.1,1.2-0.3,2.3-0.4,3.5c0,0.5-0.2,1-0.2,1.4c-0.2,1-0.4,2-0.7,3c-0.4,1.2-0.8,2.5-1.5,3.5c-0.2,0.4-0.5,0.9-0.8,1.2
		c-0.4,0.5-0.9,1-1.4,1.4s-1,0.8-1.6,1c-0.3,0.1-0.7,0.2-1,0.3c-0.5,0-1.1,0.1-1.8,0C281,194.1,280,193.8,279.1,193.2z"/>
	<path class="st3" d="M294.9,194.7c-0.2-0.2-0.5-0.4-0.7-0.6c-0.4-0.5-0.8-1.1-0.8-2l-0.2-2c0-0.2,0-0.5,0-0.8c0-0.2-0.1-0.5,0-0.8
		c0.1,0,0-0.1,0-0.1c-0.1-0.5,0-1,0.1-1.4c0-0.7,0-1.5,0-2.2c0-0.3,0-0.8,0-1.1c0-0.4,0-0.8,0.1-1.2c0-0.4,0.1-0.8,0.1-1.1
		c0-0.5,0-0.8,0-1.2c0-0.3,0-0.5,0-0.8c0-0.7,0-1.2,0.1-1.9c0.1-0.6,0.1-1.2,0.1-1.9c0-0.4,0-0.8,0-1.2c0-0.5,0-0.8,0.1-1.2
		c0.1-0.6,0.1-1.2,0.4-1.7c0.2-0.4,0.4-0.8,0.7-1.2c0.5-0.7,1.2-1.1,2-1.3s1.5-0.2,2.2-0.2c1.3,0.1,2.6,0.5,3.8,1.2
		c1.1,0.7,2,1.5,2.5,2.8c0.2,0.5,0.5,1.1,0.5,1.7c0,0.2,0,0.3,0.1,0.5c0.1,1.5-0.2,2.9-0.9,4.2c-0.3,0.7-0.7,1.2-1.2,1.8
		c-0.5,0.8-1.3,1.5-2,2.1c-0.3,0.3-0.4,0.8-0.5,1.2c0.2,0.2,0.2,0.5,0.4,0.8c0.6,0.7,1.2,1.5,1.8,2.2c0.7,0.8,1.4,1.8,2,2.7
		c0.5,0.6,0.9,1.3,0.9,2.1c0,0.5-0.1,1.1-0.5,1.5c-0.2,0.2-0.5,0.5-0.8,0.7c-0.8,0.3-1.6,0.2-2.4-0.3c-0.7-0.5-1.1-1.1-1.6-1.7
		c-0.6-0.9-1.2-1.7-2-2.5l-0.5-0.8c-0.2-0.2-0.3-0.2-0.5-0.2s-0.2,0.2-0.2,0.4v0.1c0,0.7,0,1.4,0,2.1c0.1,0.4,0,0.7-0.1,1.1
		c-0.2,0.7-0.5,1.3-1,1.8c-0.3,0.3-0.6,0.5-1,0.5C295.7,194.9,295.3,194.9,294.9,194.7z M300,178.3c0.5-0.5,0.8-1,1-1.8
		c0.1-0.4,0.2-0.8,0.2-1.2c-0.2-0.8-1-1.3-1.8-1.2c-0.4,0-0.4,0-0.5,0.5c0,0.3-0.1,0.8-0.1,1.1c0,0.4,0,0.8,0,1.1c0,0.5,0,1-0.1,1.4
		c0,0.2,0,0.3,0.1,0.4c0,0.4,0.2,0.5,0.6,0.3C299.6,178.7,299.8,178.5,300,178.3z"/>
	<path class="st3" d="M319,194.8c-0.4-0.5-0.7-1.1-0.8-1.8c-0.2-1-0.2-2.2-0.2-3.2c0-0.3,0-0.7,0-1.1c0.2-2.4,0-4.8,0.1-7.2
		c0.2-0.8,0-1.7,0.1-2.5c0-0.5,0-1,0.1-1.5s0-1.2,0.2-1.7l0,0c0-0.5,0.1-1.1,0.1-1.7c0-0.2,0.1-0.5,0.1-0.8c0-0.2-0.1-0.5,0-0.6
		c0-0.1,0-0.1,0-0.2c0-0.5,0.2-1,0.2-1.5s0.2-1,0.2-1.4c0.2-0.8,0.5-1.5,1.3-1.9c0.5-0.2,0.9-0.4,1.4-0.5c0.2-0.1,0.5,0,0.7,0
		c1,0,2,0.2,3,0.5c0.6,0.2,1.2,0.5,1.7,0.8c0.9,0.5,1.8,0.9,2.5,1.5c0.5,0.4,0.9,0.7,1.3,1c0.6,0.6,1.2,1.1,1.7,1.8
		c0.5,0.6,1,1.3,1.4,2c0.4,0.8,0.8,1.6,1,2.5c0.2,0.5,0.3,1,0.3,1.5c0,0.3,0.1,0.6,0.1,0.9c-0.1,1.3-0.4,2.7-0.9,3.9
		c-0.2,0.4-0.3,0.9-0.5,1.3c-0.3,0.5-0.6,1.1-1,1.7c-0.2,0.4-0.5,0.8-0.8,1.2l-1,1.3c-0.7,0.8-1.4,1.6-2.1,2.3
		c-0.8,0.8-1.8,1.5-2.8,2.1c-0.5,0.3-1.1,0.6-1.7,0.9c-1,0.5-2.1,0.9-3.2,1.1c-0.6,0.1-1.2,0.1-1.8,0
		C319.6,195.3,319.3,195.1,319,194.8z M323.6,190.3c0.5-0.2,1-0.5,1.4-1c1.2-1.2,2.4-2.2,3.3-3.6c0.9-1.2,1.7-2.5,2.2-3.8
		c0.2-0.5,0.4-1,0.5-1.5c0-0.6,0.1-1.2-0.1-1.8c-0.2-0.5-0.3-1-0.5-1.4c-0.4-0.6-0.8-1.2-1.2-1.7c-0.5-0.7-1.2-1.2-1.9-1.8
		c-0.6-0.5-1.2-0.8-1.9-1.1c-0.3-0.1-0.7-0.2-1-0.3s-0.7,0.1-0.9,0.4v0.1c0,0.3-0.1,0.5-0.1,0.9c0,0.5-0.2,1-0.1,1.6v0.1
		c-0.2,0.5,0,1.1-0.2,1.6c-0.1,0.4,0,0.8-0.1,1.2c0,0.6,0,1.2-0.1,1.8c0,2.2-0.2,4.3-0.1,6.3v3.7c0,0.3,0.4,0.5,0.7,0.4L323.6,190.3
		z"/>
	<path class="st3" d="M337.7,191.6c-0.2-0.3-0.2-0.7-0.4-1c0-0.2-0.1-0.5,0-0.7v-0.2c-0.1-0.6,0-1.1,0-1.8s0-1.5,0-2.1
		c0-0.8,0-1.5,0-2.3v-1.1c0-0.6,0-1.2,0-1.8c0-0.4,0.1-0.7,0-1c0-0.3,0-0.7,0-0.9c0.1-0.4,0-0.8,0.1-1.1c0-0.6,0-1.2,0.1-1.9v-0.9
		c0-0.7,0-1.3,0.1-2c0-0.5,0-1,0.1-1.5c0-0.2,0.1-0.3,0.2-0.5c0.3-0.6,0.7-1.1,1.3-1.3c0.2-0.1,0.4-0.1,0.6-0.2
		c0.6-0.1,1.2,0,1.8,0.5c0.5,0.3,0.8,0.7,1,1.2c0,0.2,0.1,0.5,0.2,0.8c0,0.5,0,0.9,0,1.3v0.9c0,0.6,0,1.3-0.1,2v1
		c0,0.6-0.1,1.2-0.1,1.9c0,0.6,0,1.2,0,1.8s0,1.1,0,1.7c0,0.4,0,0.7,0,1c0,0.5,0,1.1,0,1.6s-0.1,1,0,1.5c0,0.2,0,0.5,0,0.8
		c0,0.2,0.2,0.5,0,0.8v0.1c0.2,0.5,0,1.1,0.1,1.6c0,1.1-0.2,2.2-1,3c-0.8,0.9-1.9,1-2.8,0.3C338.2,192.5,337.9,192.1,337.7,191.6z"
		/>
	<path class="st3" d="M347.3,194.2c-1.2-0.4-2-1.2-2.5-2.4c-0.2-0.7-0.3-1.3-0.5-2c-0.1-1,0-2-0.1-2.8c0-1.1,0-1.9,0-2.7
		s0-1.7,0.1-2.5c0-0.6,0-1.2,0.1-1.8c0-0.6,0-1.2,0.1-1.9c0.2-1.2,0.1-2.3,0.1-3.5c0-0.7-0.1-1.3-0.1-2v-0.2c-0.1-0.2-0.1-0.4,0-0.7
		c0-0.1,0-0.3,0-0.4c-0.2-0.5,0-0.9,0.2-1.4c0.3-0.7,1-1.1,1.7-1.4c0.5-0.2,1-0.2,1.6-0.3c0.5-0.1,1.1,0,1.6-0.2c0,0,0,0,0.1,0
		c1.3,0,2.7-0.2,4-0.1c1,0.1,1.8,0.5,2.4,1.3c0.5,0.7,0.5,1.5,0,2.2c-0.4,0.7-1.1,1-1.9,1.2c-0.3,0.1-0.6,0.1-0.9,0.1
		c-0.9,0-1.8,0.2-2.8,0.2c-0.6,0-0.9,0.4-0.9,1c0,1.2,0,2.3-0.1,3.5c0,0.3,0.1,0.5,0,0.9c-0.1,0.3,0,0.7,0.2,1
		c0.1,0.2,0.2,0.3,0.5,0.3c0.5,0,1,0,1.5,0c0.8,0,1.5,0.2,2.2,0.5c0.8,0.3,1.2,1,1.3,1.9c0.1,1-0.7,1.8-1.7,2.2
		c-0.6,0.2-1.2,0.4-1.8,0.4c-0.4,0-0.9,0-1.2,0H350c-0.7,0.2-0.8,0.4-0.9,1.1v2.6c0,0.4,0.1,0.8,0.1,1.1c0.1,0.6,0.5,1,1.1,1
		c0.5,0,1.1,0,1.7,0c0.7,0,1.4,0.1,2,0.5c0.5,0.4,0.8,0.8,1,1.4c0,0.5-0.1,0.9-0.5,1.3c-0.5,0.5-1,0.8-1.8,0.9c-0.5,0-1,0.1-1.4,0.1
		c-0.5,0-1.1,0.2-1.7,0C348.9,194.5,348.1,194.5,347.3,194.2z"/>
	<path class="st3" d="M364.2,194.7c-0.3-0.4-0.5-0.9-0.6-1.4c-0.1-0.3-0.1-0.6-0.1-1c0-0.8-0.1-1.5,0-2.3c0.1-1,0-2,0.1-3
		s0-2,0.1-2.9c0.1-0.7,0-1.5,0.1-2.2c0.1-0.6,0-1.2,0.1-1.7s0-1,0.1-1.6c0.1-0.7,0-1.4,0.1-2.1c0.2-1.1,0-2.1,0-3.2
		c0-0.5-0.1-1-0.3-1.5c-0.2-0.3-0.4-0.5-0.8-0.5h-2.8c-0.9,0-1.6-0.3-2.1-1c-0.2-0.2-0.2-0.5-0.2-0.8c0-0.2,0-0.5,0-0.7
		c0.2-0.8,1.1-1.5,1.9-1.5c0.3,0,0.6,0,0.9,0h3.6c1.3,0,2.6,0,3.8,0c1.5,0,2.9,0,4.3,0c0.7,0,1.2,0.1,1.8,0.5c0.5,0.2,1,0.7,1,1.3
		c0,0.3,0,0.8-0.2,1.1c-0.2,0.2-0.5,0.5-0.8,0.6c-0.1,0-0.1,0.1-0.2,0.1c-0.4,0.2-0.8,0.4-1.2,0.4c-0.8,0.1-1.6,0-2.4,0
		c-0.3,0-0.6,0.2-0.9,0.1c-0.1,0-0.2,0.1-0.2,0.2c-0.4,0.3-0.6,0.7-0.7,1.2c0,0.3,0,0.6,0,1c0,0.8,0,1.6,0,2.4
		c0,0.9-0.2,1.8-0.2,2.7c-0.2,0.6,0,1.2-0.1,1.7c-0.1,0.6,0,1.2-0.1,1.8c-0.1,0.8,0,1.4,0,2.2c-0.2,1.1,0,2.2-0.2,3.2
		c0,0.9,0.1,1.8,0,2.7c-0.1,0.6,0,1.2-0.1,1.8s-0.1,1.2-0.4,1.8c-0.2,0.5-0.5,1-1.2,1.3C365.6,195.6,364.6,195.3,364.2,194.7z"/>
</g>
<g class="st2">
	<path class="st3" d="M54.8,262.6c-0.4-0.4-0.6-0.8-0.7-1.3c-0.1-0.9,0-1.8-0.1-2.7c0-0.2-0.1-0.4-0.2-0.5c-0.1-0.1-0.2-0.1-0.3-0.2
		c-0.4,0-0.8,0-1.1-0.1c-0.3,0-0.6,0-1,0c-0.1,0-0.2,0-0.3,0.1s-0.2,0.2-0.3,0.3c-0.1,0.1-0.1,0.2-0.2,0.3l-0.2,1.4
		c-0.1,0.3-0.1,0.7-0.2,1c-0.1,0.4-0.4,0.7-0.7,1c-0.1,0.1-0.3,0.2-0.4,0.2c-0.4,0.2-0.8,0.1-1.1-0.2c-0.3-0.3-0.5-0.6-0.6-1
		c-0.1-0.2-0.1-0.4,0-0.7v-0.1c0-0.3,0-0.6,0.1-0.9c0.1-0.5,0.1-1,0.2-1.5l0.3-1.5c0.1-0.5,0.3-1.1,0.4-1.6c0.3-1.1,0.6-2.2,1-3.3
		c0.2-0.7,0.5-1.3,0.7-2l0.8-2.1c0.2-0.6,0.5-1.2,0.9-1.7c0.2-0.3,0.5-0.4,0.8-0.4c0.5-0.1,1,0.1,1.4,0.5c0.3,0.3,0.5,0.6,0.7,1
		c0.3,0.4,0.5,0.9,0.7,1.4s0.4,1.1,0.5,1.7c0.1,0.4,0.2,0.7,0.2,1c0,0.4,0.2,0.7,0.1,1c0,0.2,0.1,0.3,0.1,0.4c0,0.1-0.1,0.3,0,0.4
		c0,0,0,0,0,0.1c0,0.4,0.1,0.7,0.1,1.1c0,0.6,0,1.2,0.1,1.8c0.1,0.7,0,1.5,0,2.2c0,0.3,0.1,0.6,0.1,1v1c0,0.4,0,0.8,0,1.2
		c0,0.4-0.1,0.7-0.2,1.1c-0.2,0.4-0.5,0.8-1,0.9C55.5,263,55.1,262.9,54.8,262.6z M53.9,254.4c0-0.1,0-0.3,0-0.4
		c0-0.2-0.1-0.4-0.1-0.6c0-0.4-0.1-0.7-0.1-1l0,0c-0.1-0.4-0.1-0.8-0.2-1.2c0-0.2-0.1-0.4-0.1-0.5s0-0.2-0.1-0.2s-0.2,0-0.3,0.1
		c0,0.1-0.1,0.1-0.1,0.1c-0.2,0.5-0.4,1-0.5,1.4c-0.2,0.6-0.4,1.2-0.6,1.8c-0.1,0.2-0.1,0.4-0.1,0.5c0,0.2,0.1,0.3,0.3,0.4
		c0.1,0.1,0.2,0.1,0.4,0.1s0.3,0,0.4,0c0.2,0.1,0.3,0,0.4,0C53.6,254.9,53.8,254.7,53.9,254.4z"/>
	<path class="st3" d="M58.5,262.8c-0.2-0.3-0.4-0.5-0.4-0.7c-0.1-0.5-0.1-0.8-0.1-1.2c0-0.2,0-0.4,0-0.6c0-0.3,0-0.5,0-0.8
		c0-0.2,0-0.4,0-0.6c0-0.4,0-0.8,0-1.1c0-0.5,0-0.9,0-1.4v-1.1c0-0.4,0-0.9,0-1.3c0-0.4,0-0.8,0-1.2c0-0.6,0.1-1.2,0.1-1.7l0.1-1.7
		c0.1-0.7,0.1-1.4,0.3-2.1c0.2-0.6,0.6-1.1,1.3-1.2c0.4-0.1,0.7,0.1,1.1,0.3c0.5,0.3,0.8,0.8,1.1,1.3l0.5,1.1c0.1,0.3,0.3,0.7,0.4,1
		c0.2,0.5,0.4,1.1,0.6,1.6c0.3,0.7,0.5,1.3,0.8,2c0.2,0.4,0.4,0.9,0.6,1.3v0.1c0.1,0.1,0.1,0.1,0.2,0.1s0.1-0.1,0.2-0.2V253
		c0-0.4,0-0.7,0-1s0-0.6,0-0.9c0-0.2,0-0.4,0-0.6v-1.6c0-0.3,0-1,0-1.4c0-0.3,0-0.6,0.1-0.9c0.1-0.4,0.2-0.8,0.4-1.2
		c0.3-0.4,0.6-0.7,1.1-0.7c0.3,0,0.6,0.1,0.8,0.3c0.4,0.3,0.5,0.7,0.6,1.1c0,0.1,0.1,0.3,0.1,0.4c0.1,0.4,0.1,0.7,0.1,1.1
		c0,0.2,0,0.4,0,0.5v0.4v2.2c0,0.4,0,0.9,0,1.4v0.5c0,0.7,0,1.4,0,2l-0.1,1.8c0,0.6,0,1.2-0.1,1.8c-0.1,0.8-0.1,1.6-0.2,2.3
		c-0.1,0.4-0.1,0.8-0.2,1.2c-0.2,0.4-0.5,0.8-1,0.9s-0.9,0-1.2-0.4c-0.2-0.2-0.3-0.4-0.4-0.5c-0.1-0.3-0.3-0.4-0.5-0.7
		c-0.4-0.5-0.7-1.2-1.1-1.8c-0.3-0.4-0.5-1-0.7-1.4c-0.3-0.6-0.5-1.2-0.8-1.8c-0.1-0.4-0.3-0.7-0.4-1c0-0.1-0.1-0.1-0.1-0.1
		c-0.1-0.1-0.1-0.2-0.2-0.1c-0.1,0-0.2,0.1-0.2,0.2c0,0.1,0,0.3,0,0.4c0,0.4,0,0.7,0,1.1v2.6c0,0.4,0,0.7,0,1.1c0,0.3,0,0.6,0,0.9
		c0,0.2,0,0.5,0,0.7c0,0.4-0.2,0.8-0.4,1.1c-0.2,0.3-0.4,0.4-0.8,0.5C59.4,263.4,58.9,263.3,58.5,262.8z"/>
	<path class="st3" d="M69.8,260.6c-0.1-0.2-0.2-0.4-0.2-0.7c0-0.1-0.1-0.3,0-0.4v-0.1c-0.1-0.4,0-0.7,0-1.1s0-0.9,0-1.4s0-1,0-1.4
		v-0.7c0-0.4,0-0.8,0-1.1c0-0.2,0.1-0.4,0-0.6c0-0.2,0-0.4,0-0.6c0-0.3,0-0.5,0-0.7c0-0.4,0-0.8,0.1-1.2V250c0-0.4,0-0.8,0.1-1.2
		c0-0.3,0-0.6,0.1-0.9c0-0.1,0.1-0.2,0.1-0.3c0.2-0.4,0.4-0.7,0.9-0.9c0.1-0.1,0.3-0.1,0.4-0.1c0.4-0.1,0.8,0,1.1,0.3
		c0.3,0.2,0.5,0.4,0.6,0.8c0,0.2,0.1,0.3,0.1,0.5c0,0.3,0,0.5,0,0.8v0.5c0,0.4,0,0.8-0.1,1.2v0.6c0,0.4-0.1,0.8-0.1,1.2s0,0.7,0,1.1
		c0,0.4,0,0.7,0,1.1c0,0.2,0,0.4,0,0.7s0,0.7,0,1c0,0.3-0.1,0.6,0,1c0,0.2,0,0.3,0,0.5s0.1,0.3,0,0.5v0.1c0.1,0.3,0,0.7,0.1,1
		c0,0.7-0.2,1.4-0.6,1.9c-0.5,0.6-1.2,0.6-1.8,0.2C70.1,261.2,69.9,260.9,69.8,260.6z"/>
	<path class="st3" d="M83.9,261.8c-0.1-0.5-0.1-1,0-1.4c0-0.4,0-1.3,0.1-1.7c0-0.3,0-0.6,0-0.9c0-0.4,0-0.9,0.1-1.3
		c0-0.4,0-0.8,0-1.3c0-0.2,0-0.4,0-0.7c0-0.1,0-0.3-0.1-0.3c-0.2,0-0.1,0.2-0.2,0.3c-0.3,1-0.6,1.9-1,2.8c-0.2,0.5-0.3,1.1-0.6,1.6
		c-0.3,0.6-0.9,0.9-1.4,0.9s-0.9-0.3-1.3-0.7c-0.2-0.3-0.3-0.5-0.4-0.8s-0.2-0.6-0.3-1c-0.1-0.3-0.1-0.6-0.3-0.9v-0.1
		c-0.1-0.6-0.3-1.2-0.5-1.8c-0.1-0.4-0.3-0.8-0.4-1.2c-0.1-0.3-0.2-0.5-0.3-0.8l-0.1-0.1c-0.1-0.2-0.3-0.2-0.4,0
		c0,0.1-0.1,0.2-0.1,0.3c0,0.3,0,0.6,0,0.9c0,0.4,0.1,0.8,0,1.2c0,0.2,0,0.4,0,0.7c0.1,0.4,0,0.9,0.1,1.3v2.2c0,0.5,0,1-0.1,1.5
		c0,0.4-0.1,0.7-0.2,1.1c-0.2,0.5-0.8,1-1.4,0.9c-0.2,0-0.4-0.1-0.5-0.2c-0.2-0.2-0.4-0.4-0.5-0.7c-0.1-0.3-0.2-0.5-0.1-0.9v-0.1
		c-0.1-0.4,0-0.8-0.1-1.2c0-0.3,0-0.5,0-0.8c0-0.2,0-0.4,0-0.7c0-0.2,0-0.4,0-0.6c0-0.4,0-0.9,0-1.2v-1.5c0-0.4,0-0.7,0-1
		c0-0.4,0-0.8,0-1.2c0-0.3,0-0.6,0-0.9c0-0.4,0-0.8,0-1.2c0-0.7,0.1-1.4,0.1-2c0-0.4,0-0.9,0.1-1.3c0-0.4,0.2-0.9,0.4-1.3
		c0.2-0.4,0.5-0.6,0.9-0.7c0.3-0.1,0.7-0.1,1,0.1c0.3,0.2,0.6,0.4,0.8,0.7c0.3,0.3,0.4,0.6,0.6,1s0.5,0.7,0.7,1.1
		c0.3,0.6,0.5,1.2,0.8,1.7c0.2,0.4,0.4,0.9,0.5,1.3c0.2,0.4,0.3,0.7,0.5,1.1c0.1,0.1,0,0.3,0.2,0.4c0.1,0.1,0.2,0.1,0.3,0.1
		c0.2-0.1,0.3-0.2,0.4-0.4c0.2-0.6,0.4-1.2,0.6-1.8c0.3-0.7,0.5-1.4,0.8-2.2c0.3-0.7,0.6-1.5,0.9-2.2c0.1-0.4,0.3-0.8,0.6-1.2
		c0.3-0.4,0.7-0.6,1.2-0.6s1,0.2,1.4,0.6c0.3,0.4,0.4,0.6,0.5,1.3c0.1,0.4,0.1,0.9,0.1,1.3c0,0.4,0,0.7,0,1.1c0,0.2,0,0.4,0,0.6
		c0,0.2,0,0.4,0,0.6c0,0.5,0,1,0,1.5v0.9c0,0.3,0,0.6,0,1v1c0,0.3,0,0.6,0,0.9c0,0.3,0,0.5,0,0.8c0,0.4,0,0.9,0,1.3s0,0.8,0,1.2
		c0,0.6-0.1,2-0.1,2.5c0,0.4,0,0.9-0.3,1.3c-0.2,0.4-0.6,0.7-1,0.8c-0.3,0.1-0.5,0.1-0.8,0C84.5,262.8,84.1,262.4,83.9,261.8z"/>
	<path class="st3" d="M95.5,262.6c-0.4-0.4-0.6-0.8-0.7-1.3c-0.1-0.9,0-1.8-0.1-2.7c0-0.2-0.1-0.4-0.2-0.5s-0.2-0.1-0.3-0.2
		c-0.4,0-0.8,0-1.1-0.1c-0.3,0-0.6,0-1,0c-0.1,0-0.2,0-0.3,0.1c-0.1,0.1-0.2,0.2-0.3,0.3c-0.1,0.1-0.1,0.2-0.2,0.3l-0.2,1.4
		c-0.1,0.3-0.1,0.7-0.2,1c-0.1,0.4-0.4,0.7-0.7,1c-0.1,0.1-0.3,0.2-0.4,0.2c-0.4,0.2-0.8,0.1-1.1-0.2c-0.3-0.3-0.5-0.6-0.6-1
		c-0.1-0.2-0.1-0.4,0-0.7v-0.1c0-0.3,0-0.6,0.1-0.9c0.1-0.5,0.1-1,0.2-1.5l0.3-1.5c0.1-0.5,0.3-1.1,0.4-1.6c0.3-1.1,0.6-2.2,1-3.3
		c0.2-0.7,0.5-1.3,0.7-2l0.8-2.1c0.2-0.6,0.5-1.2,0.9-1.7c0.2-0.3,0.5-0.4,0.8-0.4c0.5-0.1,1,0.1,1.4,0.5c0.3,0.3,0.5,0.6,0.7,1
		c0.3,0.4,0.5,0.9,0.7,1.4s0.4,1.1,0.5,1.7c0.1,0.4,0.2,0.7,0.2,1c0,0.4,0.2,0.7,0.1,1c0,0.2,0.1,0.3,0.1,0.4c0,0.1-0.1,0.3,0,0.4
		c0,0,0,0,0,0.1c0,0.4,0.1,0.7,0.1,1.1c0,0.6,0,1.2,0.1,1.8c0.1,0.7,0,1.5,0,2.2c0,0.3,0.1,0.6,0.1,1v1c0,0.4,0,0.8,0,1.2
		c0,0.4-0.1,0.7-0.2,1.1c-0.2,0.4-0.5,0.8-1,0.9C96.2,263,95.9,262.9,95.5,262.6z M94.6,254.4c0-0.1,0-0.3,0-0.4
		c0-0.2-0.1-0.4-0.1-0.6c0-0.4-0.1-0.7-0.1-1l0,0c-0.1-0.4-0.1-0.8-0.2-1.2c0-0.2-0.1-0.4-0.1-0.5s0-0.2-0.1-0.2s-0.2,0-0.3,0.1
		c0,0.1-0.1,0.1-0.1,0.1c-0.2,0.5-0.4,1-0.5,1.4c-0.2,0.6-0.4,1.2-0.6,1.8c-0.1,0.2-0.1,0.4-0.1,0.5c0,0.2,0.1,0.3,0.3,0.4
		c0.1,0.1,0.2,0.1,0.4,0.1s0.3,0,0.4,0c0.2,0.1,0.3,0,0.4,0C94.3,254.9,94.6,254.7,94.6,254.4z"/>
	<path class="st3" d="M105.8,263.2c-0.4-0.2-0.9-0.2-1.3-0.2c-0.4-0.1-0.9-0.1-1.3-0.2c-0.3,0-0.6,0-0.9-0.1c-0.4,0-0.8-0.2-1.2-0.3
		c-0.3-0.1-0.5-0.2-0.7-0.4c-0.4-0.2-0.6-0.5-0.8-0.9c-0.1-0.4-0.2-1-0.1-1.5c0-0.2,0-0.3,0-0.5c0-0.3,0-0.5,0-0.8s0-0.6,0-1
		c0-0.2,0-0.4,0-0.7c0-0.3,0-0.6,0-0.9v-0.1c0-0.3,0-0.6,0-0.9V254c0-0.3,0-0.6,0-0.9c0-0.3,0-0.6,0-1V252c0-0.4,0-0.7,0-1.1
		c0-0.2,0-0.4,0-0.7s0-0.6,0-1c0-0.2,0-0.5,0-0.7s0-0.4,0-0.6v-0.8c0-0.5,0.1-1,0.2-1.4c0.2-0.4,0.5-0.7,0.9-0.9
		c0.5-0.1,1,0,1.3,0.4c0.2,0.2,0.3,0.5,0.4,0.7c0.1,0.3,0.1,0.6,0.2,1c0.1,0.3,0,0.7,0,1.1c0,0.4,0,0.8-0.1,1.2c0,0.2,0,0.5,0,0.7
		s0,0.5-0.1,0.7v0.6c0,0.3,0,0.5,0,0.8c0,0.4,0,0.7,0,1.1v0.1c0.1,0.4,0,0.7,0,1.1c0,0.1-0.1,0.3,0,0.4c0,0.1,0.1,0.3,0,0.4v0.1
		c0,0.4,0,0.7,0,1.1v0.8c0,0.3,0,0.6-0.1,0.9c0,0.2,0,0.3,0,0.5c0,0.3-0.1,0.6,0,0.9c0,0.3,0.2,0.4,0.4,0.5c0.2,0.1,0.4,0.2,0.6,0.2
		h0.6c0.6,0,1.2,0,1.7,0.1c0.1,0,0.1,0,0.2,0c0.7-0.1,1.3,0.1,1.9,0.5c0.3,0.2,0.4,0.5,0.5,0.8c0.1,0.5,0,0.9-0.4,1.3
		c-0.3,0.3-0.5,0.4-0.9,0.5C106.6,263.3,106.2,263.3,105.8,263.2z"/>
	<path class="st3" d="M116.9,263.2c-0.5-0.2-0.8-0.7-1-1.2c0-0.2,0-0.4-0.1-0.6c0-0.3,0-0.5-0.1-0.8c0,0,0,0,0-0.1v-0.1
		c0-0.5,0-1.1-0.1-1.6c0.1-1,0-2,0.1-3c0-0.6,0-1.2,0.1-1.8c0.1-0.7,0-1.5,0.1-2.2c0-0.5,0-1,0.1-1.4c0.1-0.5,0-1.1,0.1-1.6
		s0-1,0.1-1.5c0-0.4,0.1-0.7,0.2-1.1c0.1-0.2,0.3-0.4,0.5-0.6s0.4-0.3,0.6-0.4c0.3-0.2,0.5-0.2,0.8-0.3c0.1,0,0.3,0,0.4,0h0.1
		c0.6,0.1,1.2,0,1.8,0c0,0,0.1,0,0.2,0c0.3-0.1,0.5-0.1,0.8,0c0.4,0,0.9,0,1.3,0.3c0.4,0.2,0.6,0.5,0.7,1c0.1,0.4,0,0.7-0.1,1
		c-0.2,0.4-0.4,0.6-0.8,0.7c-0.4,0.2-0.7,0.2-1.1,0.2h-1.2c-0.6,0-0.9,0.3-1,0.7c-0.2,0.4-0.2,0.7-0.2,1.1v0.6c0,0.1,0,0.2,0,0.3
		c-0.1,0.4,0,0.8,0.3,1.1c0.1,0.1,0.3,0.2,0.5,0.2c0.6,0,1.2,0.1,1.9,0.1c0.4,0,0.8,0.2,1.2,0.4c0.4,0.4,0.5,0.8,0.5,1.3
		c0,0.3-0.1,0.5-0.3,0.7c-0.4,0.4-0.8,0.6-1.3,0.6c-0.7,0-1.3,0-2,0c-0.3,0-0.4,0.1-0.5,0.3s-0.2,0.4-0.2,0.7c0,0.9-0.1,1.7-0.1,2.6
		v1.5c0,0.4,0,0.8-0.1,1.2c-0.1,0.4-0.2,0.8-0.4,1.2c-0.2,0.3-0.4,0.5-0.7,0.6C117.4,263.3,117.1,263.3,116.9,263.2z"/>
	<path class="st3" d="M131.6,262.6c-0.4-0.4-0.6-0.8-0.7-1.3c-0.1-0.9,0-1.8-0.1-2.7c0-0.2-0.1-0.4-0.2-0.5
		c-0.1-0.1-0.2-0.1-0.3-0.2c-0.4,0-0.8,0-1.1-0.1c-0.3,0-0.6,0-1,0c-0.1,0-0.2,0-0.3,0.1c-0.1,0.1-0.2,0.2-0.3,0.3
		c-0.1,0.1-0.1,0.2-0.2,0.3l-0.2,1.4c-0.1,0.3-0.1,0.7-0.2,1c-0.1,0.4-0.4,0.7-0.7,1c-0.1,0.1-0.3,0.2-0.4,0.2
		c-0.4,0.2-0.8,0.1-1.1-0.2c-0.3-0.3-0.5-0.6-0.6-1c-0.1-0.2-0.1-0.4,0-0.7v-0.1c0-0.3,0-0.6,0.1-0.9c0.1-0.5,0.1-1,0.2-1.5l0.3-1.5
		c0.1-0.5,0.3-1.1,0.4-1.6c0.3-1.1,0.6-2.2,1-3.3c0.2-0.7,0.5-1.3,0.7-2l0.8-2.1c0.2-0.6,0.5-1.2,0.9-1.7c0.2-0.3,0.5-0.4,0.8-0.4
		c0.5-0.1,1,0.1,1.4,0.5c0.3,0.3,0.5,0.6,0.7,1c0.3,0.4,0.5,0.9,0.7,1.4s0.4,1.1,0.5,1.7c0.1,0.4,0.2,0.7,0.2,1c0,0.4,0.2,0.7,0.1,1
		c0,0.2,0.1,0.3,0.1,0.4c0,0.1-0.1,0.3,0,0.4c0,0,0,0,0,0.1c0,0.4,0.1,0.7,0.1,1.1c0,0.6,0,1.2,0.1,1.8c0.1,0.7,0,1.5,0,2.2
		c0,0.3,0.1,0.6,0.1,1v1c0,0.4,0,0.8,0,1.2c0,0.4-0.1,0.7-0.2,1.1c-0.2,0.4-0.5,0.8-1,0.9C132.3,263,131.9,262.9,131.6,262.6z
		 M130.7,254.4c0-0.1,0-0.3,0-0.4c0-0.2-0.1-0.4-0.1-0.6c0-0.4-0.1-0.7-0.1-1l0,0c-0.1-0.4-0.1-0.8-0.2-1.2c0-0.2-0.1-0.4-0.1-0.5
		s0-0.2-0.1-0.2s-0.2,0-0.3,0.1c0,0.1-0.1,0.1-0.1,0.1c-0.2,0.5-0.4,1-0.5,1.4c-0.2,0.6-0.4,1.2-0.6,1.8c-0.1,0.2-0.1,0.4-0.1,0.5
		c0,0.2,0.1,0.3,0.3,0.4c0.1,0.1,0.2,0.1,0.4,0.1s0.3,0,0.4,0c0.2,0.1,0.3,0,0.4,0C130.4,254.9,130.7,254.7,130.7,254.4z"/>
	<path class="st3" d="M138.8,262.5c-0.2-0.3-0.4-0.5-0.4-0.9c-0.1-0.2-0.1-0.4-0.1-0.6c0-0.5,0-1,0-1.5c0.1-0.6,0-1.3,0.1-1.9
		s0-1.2,0.1-1.9c0.1-0.4,0-0.9,0.1-1.4c0.1-0.4,0-0.7,0.1-1.1s0-0.7,0.1-1c0.1-0.4,0-0.9,0.1-1.3c0.1-0.7,0-1.4,0-2.1
		c0-0.3-0.1-0.6-0.2-0.9c-0.1-0.2-0.3-0.3-0.5-0.3h-1.8c-0.6,0-1-0.2-1.3-0.7c-0.1-0.2-0.2-0.3-0.1-0.5c0-0.2,0-0.3,0-0.4
		c0.1-0.5,0.7-0.9,1.2-1c0.2,0,0.4,0,0.6,0h2.3c0.8,0,1.6,0,2.4,0c0.9,0,1.9,0,2.8,0c0.4,0,0.8,0.1,1.2,0.3c0.3,0.2,0.6,0.4,0.7,0.8
		c0,0.2,0,0.5-0.1,0.7s-0.4,0.3-0.5,0.4l-0.1,0.1c-0.2,0.1-0.5,0.2-0.8,0.3c-0.5,0.1-1,0-1.5,0c-0.2,0-0.4,0.1-0.6,0.1
		c-0.1,0-0.1,0.1-0.1,0.1c-0.2,0.2-0.4,0.4-0.4,0.7c0,0.2,0,0.4,0,0.6c0,0.5,0,1,0,1.5c0,0.6-0.1,1.2-0.1,1.7
		c-0.1,0.4,0,0.7-0.1,1.1c0,0.4,0,0.8-0.1,1.1c-0.1,0.5,0,0.9,0,1.4c-0.1,0.7,0,1.4-0.1,2c0,0.6,0,1.2,0,1.7c-0.1,0.4,0,0.8-0.1,1.1
		c-0.1,0.4-0.1,0.8-0.3,1.1c-0.2,0.4-0.4,0.6-0.8,0.8C139.7,263.1,139.1,262.9,138.8,262.5z"/>
	<path class="st3" d="M146.9,262.8c-0.3-0.5-0.2-1,0-1.4c0.2-0.3,0.4-0.4,0.7-0.6l0.9-0.4c0.5-0.3,1.1-0.5,1.6-0.9
		c0.4-0.4,0.6-0.8,0.7-1.3c0-0.2,0.1-0.4,0.1-0.6c-0.1-0.5-0.3-1.1-0.6-1.6c-0.3-0.4-0.5-0.7-0.9-1.1c-0.5-0.5-1.1-1-1.5-1.5
		s-0.9-1-1.2-1.6c-0.1-0.3-0.2-0.6-0.3-1c-0.1-0.5-0.1-1-0.1-1.4c0-0.3,0.1-0.6,0.2-0.9c0.1-0.4,0.3-0.7,0.4-1.1
		c0.4-0.7,0.9-1.3,1.6-1.8c0.4-0.3,0.8-0.5,1.2-0.7c0.3-0.2,0.7-0.2,1-0.3c0.4-0.1,0.7-0.1,1-0.1c0.4,0.1,0.8,0.3,1.1,0.7
		c0.1,0.3,0.2,0.5,0.2,0.8c-0.1,0.5-0.3,0.9-0.7,1.2c-0.3,0.2-0.5,0.2-0.8,0.3c-0.4,0.1-0.7,0.3-1,0.4c-0.6,0.4-0.9,0.9-1.1,1.5
		c-0.2,0.6-0.1,1.1,0.3,1.5c0.6,0.7,1.3,1.3,2,2c0.6,0.7,1.2,1.4,1.6,2.3c0.2,0.5,0.4,1,0.4,1.5c0.1,0.3,0,0.5,0.1,0.7
		c0,0.7-0.1,1.3-0.3,1.9c-0.2,0.4-0.4,0.9-0.6,1.2c-0.4,0.6-0.7,0.9-1.5,1.4c-0.6,0.4-1.2,0.6-1.8,0.9c-0.2,0.1-0.4,0.1-0.5,0.2
		c-0.4,0.2-0.7,0.2-1.1,0.1C147.4,263.3,147.1,263.1,146.9,262.8z"/>
	<path class="st3" d="M163.9,263.5c-0.4-0.2-0.6-0.5-0.8-0.9s-0.4-0.9-0.5-1.3c-0.1-0.2-0.1-0.4-0.1-0.5c0-0.3-0.1-0.6-0.2-1
		c-0.2-0.8-0.2-1.6-0.4-2.4c-0.1-0.4-0.1-0.8-0.2-1.1c0-0.3-0.1-0.4-0.1-0.6c0-0.9-0.2-1.8-0.3-2.7c0-0.4-0.1-0.9-0.1-1.4
		c0-0.4-0.1-0.9-0.1-1.3s-0.1-0.9,0-1.3c0-0.4,0.1-0.8,0.4-1.2c0.2-0.2,0.4-0.4,0.6-0.5c0.5-0.2,1-0.1,1.4,0.1
		c0.4,0.2,0.6,0.6,0.7,1c0.1,0.2,0.1,0.4,0.1,0.7c0,0.4,0.1,0.8,0.1,1.1c0,0.4,0.1,0.7,0.1,1.1c0,0.6,0.1,1.2,0.1,1.7
		c0,0.7,0.1,1.4,0.2,2.2c0.1,0.7,0.2,1.4,0.3,2.2v0.1c0,0.1,0.1,0.3,0.2,0.3c0.1,0,0.1-0.1,0.2-0.2c0.1-0.4,0.2-0.7,0.3-1.1
		c0.2-0.6,0.2-1.2,0.4-1.8l0.4-1.2l0.3-1.1c0.1-0.4,0.3-0.8,0.5-1.2c0.3-0.4,0.6-0.5,1.1-0.6c0.8-0.1,1.3,0.2,1.7,0.8
		c0.3,0.4,0.4,0.8,0.6,1.2c0.4,0.7,0.7,1.5,1.1,2.2c0.1,0.3,0.3,0.6,0.4,0.9c0,0,0,0.1,0.1,0.1c0.1,0.1,0.1,0.2,0.2,0.2
		c0.2,0,0.2-0.2,0.3-0.3c0-0.1,0-0.1,0.1-0.2c0.2-0.7,0.3-1.5,0.4-2.2l0.3-1.6c0.2-0.9,0.4-1.7,0.5-2.6c0.1-0.6,0.2-1.2,0.3-1.7
		c0.1-0.4,0.2-0.8,0.3-1.2s0.2-0.8,0.4-1.2c0.3-0.4,1.1-0.9,1.8-0.5c0.3,0.2,0.5,0.4,0.6,0.6c0.1,0.2,0.2,0.4,0.2,0.7
		c0,0.2,0,0.4,0,0.7c0,0.5-0.1,1-0.2,1.5c-0.2,0.8-0.3,1.7-0.4,2.5l-0.3,1.7c-0.2,0.9-0.4,1.8-0.5,2.8c-0.2,0.8-0.4,1.6-0.5,2.4
		c-0.2,0.9-0.4,1.7-0.7,2.6c-0.1,0.4-0.2,0.7-0.4,1.1s-0.4,0.7-0.9,0.9c-0.5,0.2-0.9,0.2-1.4,0c-0.4-0.2-0.6-0.5-0.8-0.8
		c-0.5-0.7-0.9-1.5-1.3-2.4c-0.2-0.4-0.4-0.8-0.6-1.2c-0.1-0.2-0.2-0.4-0.3-0.5s-0.2-0.1-0.4-0.2c-0.1,0-0.2,0.1-0.2,0.2l-0.2,0.4
		c-0.3,0.8-0.5,1.6-0.9,2.4c-0.3,0.8-0.6,1.6-1,2.4c-0.2,0.4-0.5,0.8-0.8,1.1c-0.3,0.3-0.6,0.4-0.9,0.4
		C164.5,263.7,164.1,263.6,163.9,263.5z"/>
	<path class="st3" d="M178.8,260.6c-0.1-0.2-0.2-0.4-0.2-0.7c0-0.1-0.1-0.3,0-0.4v-0.1c-0.1-0.4,0-0.7,0-1.1s0-0.9,0-1.4s0-1,0-1.4
		v-0.7c0-0.4,0-0.8,0-1.1c0-0.2,0.1-0.4,0-0.6c0-0.2,0-0.4,0-0.6c0-0.3,0-0.5,0-0.7c0-0.4,0-0.8,0.1-1.2V250c0-0.4,0-0.8,0.1-1.2
		c0-0.3,0-0.6,0.1-0.9c0-0.1,0.1-0.2,0.1-0.3c0.2-0.4,0.4-0.7,0.9-0.9c0.1-0.1,0.3-0.1,0.4-0.1c0.4-0.1,0.8,0,1.1,0.3
		c0.3,0.2,0.5,0.4,0.6,0.8c0,0.2,0.1,0.3,0.1,0.5c0,0.3,0,0.5,0,0.8v0.5c0,0.4,0,0.8-0.1,1.2v0.6c0,0.4-0.1,0.8-0.1,1.2s0,0.7,0,1.1
		c0,0.4,0,0.7,0,1.1c0,0.2,0,0.4,0,0.7s0,0.7,0,1c0,0.3-0.1,0.6,0,1c0,0.2,0,0.3,0,0.5s0.1,0.3,0,0.5v0.1c0.1,0.3,0,0.7,0.1,1
		c0,0.7-0.2,1.4-0.6,1.9c-0.5,0.6-1.2,0.6-1.8,0.2C179.1,261.2,178.9,260.9,178.8,260.6z"/>
	<path class="st3" d="M187,262.5c-0.2-0.3-0.4-0.5-0.4-0.9c-0.1-0.2-0.1-0.4-0.1-0.6c0-0.5,0-1,0-1.5c0.1-0.6,0-1.3,0.1-1.9
		s0-1.2,0.1-1.9c0.1-0.4,0-0.9,0.1-1.4c0.1-0.4,0-0.7,0.1-1.1s0-0.7,0.1-1c0.1-0.4,0-0.9,0.1-1.3c0.1-0.7,0-1.4,0-2.1
		c0-0.3-0.1-0.6-0.2-0.9c-0.1-0.2-0.3-0.3-0.5-0.3h-1.8c-0.6,0-1-0.2-1.3-0.7c-0.1-0.2-0.2-0.3-0.1-0.5c0-0.2,0-0.3,0-0.4
		c0.1-0.5,0.7-0.9,1.2-1c0.2,0,0.4,0,0.6,0h2.3c0.8,0,1.6,0,2.4,0c0.9,0,1.9,0,2.8,0c0.4,0,0.8,0.1,1.2,0.3c0.3,0.2,0.6,0.4,0.7,0.8
		c0,0.2,0,0.5-0.1,0.7s-0.4,0.3-0.5,0.4l-0.1,0.1c-0.2,0.1-0.5,0.2-0.8,0.3c-0.5,0.1-1,0-1.5,0c-0.2,0-0.4,0.1-0.6,0.1
		c-0.1,0-0.1,0.1-0.1,0.1c-0.2,0.2-0.4,0.4-0.4,0.7c0,0.2,0,0.4,0,0.6c0,0.5,0,1,0,1.5c0,0.6-0.1,1.2-0.1,1.7
		c-0.1,0.4,0,0.7-0.1,1.1c0,0.4,0,0.8-0.1,1.1c-0.1,0.5,0,0.9,0,1.4c-0.1,0.7,0,1.4-0.1,2c0,0.6,0,1.2,0,1.7c-0.1,0.4,0,0.8-0.1,1.1
		c-0.1,0.4-0.1,0.8-0.3,1.1c-0.2,0.4-0.4,0.6-0.8,0.8C187.9,263.1,187.2,262.9,187,262.5z"/>
	<path class="st3" d="M196,263c-0.4-0.4-0.7-0.8-0.8-1.3s0-1.1-0.1-1.6c0-0.2,0-0.4-0.1-0.6c0-0.1,0-0.2,0-0.3
		c0.1-0.3,0.1-0.5,0.1-0.8c0-1.6,0-3.2,0-4.8c0-0.9,0-1.9,0.1-2.8c0.1-0.8,0-1.5,0.1-2.2c0-0.7,0-1.4,0.1-2.1c0-0.6,0.3-1.1,0.7-1.4
		c0.2-0.2,0.5-0.3,0.8-0.3h0.2c0.6-0.1,1,0.3,1.3,0.7c0.2,0.3,0.3,0.6,0.3,0.9c0,0.9,0,1.9,0,2.8c-0.1,0.8,0,1.6,0,2.4
		c0,0.2,0,0.3,0.1,0.4c0.2,0.1,0.3,0.2,0.5,0.2c0.6,0,1.2-0.1,1.8-0.1c0.3,0,0.5-0.1,0.8-0.3s0.5-0.5,0.5-0.9c0-0.3,0-0.5,0-0.8
		c-0.1-0.7,0-1.5,0-2.2s0.4-1.2,0.9-1.5c0.8-0.4,1.8,0,2.1,0.7c0.2,0.4,0.3,0.7,0.3,1.1c0,0.8,0.1,1.5,0.1,2.3
		c0.1,0.4,0,0.7,0.1,1.1c0.1,0.4,0,0.8,0.1,1.2s0,0.8,0.1,1.2s0,0.7,0.1,1c0.1,0.4,0,0.8,0.1,1.2c0,0.3,0,0.6,0,0.9
		c0,0.2,0.1,0.4,0.1,0.6s0,2,0.2,2.2c0,0.4,0.1,0.9-0.1,1.4c-0.2,0.5-0.5,0.9-1,1.2c-0.2,0.1-0.3,0-0.4,0.1
		c-0.4-0.1-0.8-0.2-1.1-0.5c-0.4-0.4-0.6-0.9-0.7-1.5c0-0.2-0.1-0.4-0.1-0.7c0-0.2-0.1-2-0.2-2.2c0-0.1,0-0.2,0-0.4
		c0-0.5-0.2-1-0.3-1.4c0-0.1-0.1-0.2-0.2-0.3c-0.1-0.2-0.2-0.3-0.4-0.2c0,0-0.1,0-0.2,0c-0.7,0-1.4,0.1-2.1,0.1c-0.7,0-1,0.6-1,1.1
		v2.4c0,0.7,0,1.4,0,2.1c0,0.4-0.1,0.8-0.3,1.2c-0.2,0.4-0.5,0.8-1,0.9C196.8,263.3,196.4,263.3,196,263z"/>
	<path class="st3" d="M217.1,262.5c-0.3-0.2-0.5-0.5-0.6-0.8c-0.3-0.5-0.5-1-0.7-1.4s-0.3-0.8-0.4-1.2c-0.1-0.3-0.2-0.5-0.2-0.7
		c-0.1-0.2-0.1-0.3-0.1-0.4c-0.1-0.4-0.2-0.7-0.3-1.1s-0.2-0.8-0.2-1.2c-0.1-0.2-0.1-0.5-0.1-0.7c-0.1-0.3-0.1-0.7-0.2-1
		c-0.1-0.4-0.1-0.7-0.2-1.1c-0.3-1.8-0.4-3.6-0.6-5.4c0-0.3,0-0.6,0.1-0.8c0.2-0.6,0.7-1,1.4-1.1c0.6-0.1,1.3,0.4,1.6,1
		c0,0.3,0.2,0.5,0.1,0.8c0,0,0,0.1,0,0.2c0,0.4,0,0.9,0.1,1.3c0.2,1.4,0.2,2.8,0.4,4.1l0.2,1.1l0.3,1.4c0.1,0.4,0.2,0.8,0.3,1.2
		l0.1,0.6c0,0.2,0.1,0.4,0.2,0.5c0.1,0.2,0.2,0.2,0.3,0c0.1-0.1,0.1-0.1,0.1-0.2c0.1-0.4,0.3-0.8,0.4-1.2l0.5-1.5
		c0.1-0.5,0.3-1,0.4-1.4c0.2-0.4,0.3-0.8,0.4-1.2c0.2-0.5,0.4-1,0.5-1.5c0.1-0.4,0.2-0.7,0.4-1c0.2-0.5,0.4-1.1,0.6-1.6l0.4-1.2
		l0.4-1c0.2-0.4,0.4-0.8,0.8-1.1c0.2-0.1,0.4-0.3,0.7-0.3c0.6-0.1,1.1,0.2,1.4,0.6c0.1,0.1,0.1,0.3,0.2,0.4c0,0.1,0,0.3,0,0.4
		c0.1,0.2,0,0.5-0.1,0.7c-0.1,0.4-0.3,0.8-0.4,1.2c-0.2,0.6-0.4,1.2-0.6,1.7l-0.4,1.1c-0.2,0.6-0.4,1.2-0.6,1.7
		c-0.2,0.5-0.4,1.1-0.5,1.6c-0.2,0.5-0.4,1.1-0.5,1.7c-0.2,0.6-0.4,1.2-0.6,1.9c-0.3,0.8-0.6,1.7-1,2.5c-0.3,0.6-0.6,1.3-1,1.9
		c-0.3,0.4-0.6,0.7-1.1,0.9C218.2,263,217.6,262.9,217.1,262.5z"/>
	<path class="st3" d="M228.7,262.3c-0.8-0.3-1.3-0.8-1.6-1.5c-0.2-0.4-0.2-0.8-0.3-1.2c-0.1-0.7,0-1.3-0.1-1.8c0-0.7,0-1.2,0-1.7
		c0-0.5,0-1.1,0.1-1.6c0-0.4,0-0.7,0.1-1.1c0-0.4,0-0.8,0.1-1.2c0.1-0.8,0.1-1.5,0-2.3c0-0.4,0-0.8-0.1-1.3v-0.2
		c-0.1-0.1-0.1-0.3,0-0.4c0-0.1,0-0.2,0-0.3c-0.1-0.3,0-0.6,0.1-0.9c0.2-0.4,0.6-0.7,1.1-0.9c0.3-0.1,0.7-0.2,1-0.2
		c0.3-0.1,0.7,0,1-0.1c0,0,0,0,0.1,0c0.9,0,1.7-0.1,2.6-0.1c0.6,0.1,1.2,0.3,1.5,0.8c0.3,0.4,0.3,1,0,1.4s-0.7,0.6-1.2,0.8
		c-0.2,0.1-0.4,0.1-0.6,0.1c-0.6,0-1.2,0.1-1.8,0.1c-0.4,0-0.6,0.3-0.6,0.6c0,0.7,0,1.5,0,2.2c0,0.2,0,0.4,0,0.5
		c-0.1,0.2,0,0.4,0.1,0.6c0.1,0.1,0.2,0.2,0.3,0.2c0.4,0,0.7,0,1,0c0.5,0,0.9,0.1,1.4,0.3s0.8,0.7,0.8,1.2c0.1,0.6-0.4,1.2-1.1,1.4
		c-0.4,0.1-0.8,0.2-1.2,0.2c-0.3,0-0.5,0-0.8,0h-0.2c-0.4,0.1-0.5,0.3-0.6,0.7v1.7c0,0.3,0.1,0.5,0.1,0.7c0,0.4,0.3,0.6,0.7,0.6
		s0.7,0,1.1,0c0.4,0,0.9,0.1,1.3,0.3c0.4,0.2,0.5,0.5,0.6,0.9c0,0.3-0.1,0.6-0.3,0.8c-0.3,0.3-0.7,0.5-1.1,0.5
		c-0.3,0-0.6,0.1-0.9,0.1c-0.4,0-0.7,0.1-1.1,0C229.7,262.5,229.2,262.4,228.7,262.3z"/>
	<path class="st3" d="M238.2,262.9c-0.6-0.3-1.1-0.8-1.5-1.4c-0.4-0.5-0.6-1.1-0.8-1.7c-0.1-0.4-0.2-0.9-0.3-1.3
		c0-0.1-0.1-0.2-0.1-0.4c0-0.1,0-0.2,0-0.3c0-0.1,0-0.1,0-0.2v-1.1l0,0c0-0.3,0-0.6,0-0.9c0-0.3,0-0.6,0.1-1c0-0.2,0-0.3,0.1-0.5
		l0.2-0.9c0.1-0.5,0.3-1.1,0.4-1.6c0.1-0.3,0.2-0.6,0.4-0.9c0.2-0.4,0.4-0.8,0.6-1.2c0.3-0.5,0.5-0.9,0.9-1.3c0.3-0.4,0.5-0.7,0.9-1
		c0.2-0.3,0.5-0.5,0.7-0.7c0.3-0.3,0.6-0.4,0.9-0.7c0.6-0.4,1.3-0.8,2.1-1c0.4-0.1,0.8-0.2,1.2-0.2c0.6,0.1,1.1,0.3,1.4,0.8
		c0.1,0.2,0.2,0.4,0.2,0.5c0,0.2,0,0.4-0.1,0.5c-0.2,0.6-0.7,1-1.4,1c-0.3,0-0.6,0.1-0.9,0.3c-0.4,0.2-0.9,0.4-1.3,0.8
		c-0.3,0.2-0.5,0.4-0.7,0.7c-0.1,0.2-0.3,0.3-0.4,0.5c-0.3,0.4-0.6,0.8-0.8,1.2c-0.4,0.7-0.7,1.4-0.9,2.2c-0.1,0.4-0.2,0.9-0.3,1.3
		c-0.1,0.4-0.1,0.7-0.2,1.1c-0.1,0.6-0.1,1.2,0,1.7c0.1,0.7,0.1,1.3,0.4,2c0.1,0.3,0.2,0.5,0.4,0.8c0.2,0.2,0.4,0.4,0.8,0.4
		c0.5,0,0.9-0.2,1.2-0.4c0.3-0.2,0.6-0.4,0.8-0.8c0.3-0.4,0.4-0.9,0.4-1.4c0-0.3,0-0.7-0.1-1c-0.2-0.4-0.4-0.7-0.9-0.9
		c-0.3-0.1-0.6-0.1-0.9,0c-0.1,0-0.1,0-0.1,0c-0.3,0-0.6-0.1-0.8-0.2c-0.2-0.1-0.4-0.3-0.5-0.5c-0.2-0.4-0.3-0.8-0.1-1.2
		c0.2-0.5,0.6-0.8,1.1-1c0.3-0.1,0.5-0.1,0.8-0.2c0.3,0,0.5,0.1,0.8,0.1s0.6,0.2,1,0.3c0.4,0.2,0.9,0.4,1.2,0.7
		c0.4,0.4,0.8,0.9,1.1,1.4c0.2,0.4,0.4,0.9,0.4,1.4c0.1,0.4,0.2,0.9,0.1,1.3c-0.1,0.6-0.2,1.2-0.4,1.8c-0.2,0.5-0.4,1-0.8,1.4
		c-0.5,0.6-1,1.1-1.7,1.5c-0.5,0.3-1,0.5-1.6,0.6c-0.3,0-0.6,0.1-0.9,0.1C239.4,263.4,238.8,263.3,238.2,262.9z"/>
	<path class="st3" d="M248.4,262.3c-0.8-0.3-1.3-0.8-1.6-1.5c-0.2-0.4-0.2-0.8-0.3-1.2c-0.1-0.7,0-1.3-0.1-1.8c0-0.7,0-1.2,0-1.7
		c0-0.5,0-1.1,0.1-1.6c0-0.4,0-0.7,0.1-1.1c0-0.4,0-0.8,0.1-1.2c0.1-0.8,0.1-1.5,0-2.3c0-0.4,0-0.8-0.1-1.3v-0.2
		c-0.1-0.1-0.1-0.3,0-0.4c0-0.1,0-0.2,0-0.3c-0.1-0.3,0-0.6,0.1-0.9c0.2-0.4,0.6-0.7,1.1-0.9c0.3-0.1,0.7-0.2,1-0.2
		c0.3-0.1,0.7,0,1-0.1c0,0,0,0,0.1,0c0.9,0,1.7-0.1,2.6-0.1c0.6,0.1,1.2,0.3,1.5,0.8c0.3,0.4,0.3,1,0,1.4s-0.7,0.6-1.2,0.8
		c-0.2,0.1-0.4,0.1-0.6,0.1c-0.6,0-1.2,0.1-1.8,0.1c-0.4,0-0.6,0.3-0.6,0.6c0,0.7,0,1.5,0,2.2c0,0.2,0,0.4,0,0.5
		c-0.1,0.2,0,0.4,0.1,0.6c0.1,0.1,0.2,0.2,0.3,0.2c0.4,0,0.7,0,1,0c0.5,0,0.9,0.1,1.4,0.3s0.8,0.7,0.8,1.2c0.1,0.6-0.4,1.2-1.1,1.4
		c-0.4,0.1-0.8,0.2-1.2,0.2c-0.3,0-0.5,0-0.8,0h-0.2c-0.4,0.1-0.5,0.3-0.6,0.7v1.7c0,0.3,0.1,0.5,0.1,0.7c0,0.4,0.3,0.6,0.7,0.6
		s0.7,0,1.1,0c0.4,0,0.9,0.1,1.3,0.3c0.4,0.2,0.5,0.5,0.6,0.9c0,0.3-0.1,0.6-0.3,0.8c-0.3,0.3-0.7,0.5-1.1,0.5
		c-0.3,0-0.6,0.1-0.9,0.1c-0.4,0-0.7,0.1-1.1,0C249.5,262.5,248.9,262.4,248.4,262.3z"/>
	<path class="st3" d="M259.2,262.5c-0.2-0.3-0.4-0.5-0.4-0.9c-0.1-0.2-0.1-0.4-0.1-0.6c0-0.5,0-1,0-1.5c0.1-0.6,0-1.3,0.1-1.9
		s0-1.2,0.1-1.9c0.1-0.4,0-0.9,0.1-1.4c0.1-0.4,0-0.7,0.1-1.1c0.1-0.4,0-0.7,0.1-1c0.1-0.4,0-0.9,0.1-1.3c0.1-0.7,0-1.4,0-2.1
		c0-0.3-0.1-0.6-0.2-0.9c-0.1-0.2-0.3-0.3-0.5-0.3h-1.8c-0.6,0-1-0.2-1.3-0.7c-0.1-0.2-0.2-0.3-0.1-0.5c0-0.2,0-0.3,0-0.4
		c0.1-0.5,0.7-0.9,1.2-1c0.2,0,0.4,0,0.6,0h2.3c0.8,0,1.6,0,2.4,0c0.9,0,1.9,0,2.8,0c0.4,0,0.8,0.1,1.2,0.3c0.3,0.2,0.6,0.4,0.7,0.8
		c0,0.2,0,0.5-0.1,0.7s-0.4,0.3-0.5,0.4l-0.1,0.1c-0.2,0.1-0.5,0.2-0.8,0.3c-0.5,0.1-1,0-1.5,0c-0.2,0-0.4,0.1-0.6,0.1
		c-0.1,0-0.1,0.1-0.1,0.1c-0.2,0.2-0.4,0.4-0.4,0.7c0,0.2,0,0.4,0,0.6c0,0.5,0,1,0,1.5c0,0.6-0.1,1.2-0.1,1.7
		c-0.1,0.4,0,0.7-0.1,1.1c0,0.4,0,0.8-0.1,1.1c-0.1,0.5,0,0.9,0,1.4c-0.1,0.7,0,1.4-0.1,2c0,0.6,0,1.2,0,1.7c-0.1,0.4,0,0.8-0.1,1.1
		c-0.1,0.4-0.1,0.8-0.3,1.1c-0.2,0.4-0.4,0.6-0.8,0.8C260.1,263.1,259.5,262.9,259.2,262.5z"/>
	<path class="st3" d="M272,262.6c-0.4-0.4-0.6-0.8-0.7-1.3c-0.1-0.9,0-1.8-0.1-2.7c0-0.2-0.1-0.4-0.2-0.5s-0.2-0.1-0.3-0.2
		c-0.4,0-0.8,0-1.1-0.1c-0.3,0-0.6,0-1,0c-0.1,0-0.2,0-0.3,0.1c-0.1,0.1-0.2,0.2-0.3,0.3c-0.1,0.1-0.1,0.2-0.2,0.3l-0.2,1.4
		c-0.1,0.3-0.1,0.7-0.2,1c-0.1,0.4-0.4,0.7-0.7,1c-0.1,0.1-0.3,0.2-0.4,0.2c-0.4,0.2-0.8,0.1-1.1-0.2c-0.3-0.3-0.5-0.6-0.6-1
		c-0.1-0.2-0.1-0.4,0-0.7v-0.1c0-0.3,0-0.6,0.1-0.9c0.1-0.5,0.1-1,0.2-1.5l0.3-1.5c0.1-0.5,0.3-1.1,0.4-1.6c0.3-1.1,0.6-2.2,1-3.3
		c0.2-0.7,0.5-1.3,0.7-2l0.8-2.1c0.2-0.6,0.5-1.2,0.9-1.7c0.2-0.3,0.5-0.4,0.8-0.4c0.5-0.1,1,0.1,1.4,0.5c0.3,0.3,0.5,0.6,0.7,1
		c0.3,0.4,0.5,0.9,0.7,1.4s0.4,1.1,0.5,1.7c0.1,0.4,0.2,0.7,0.2,1c0,0.4,0.2,0.7,0.1,1c0,0.2,0.1,0.3,0.1,0.4c0,0.1-0.1,0.3,0,0.4
		c0,0,0,0,0,0.1c0,0.4,0.1,0.7,0.1,1.1c0,0.6,0,1.2,0.1,1.8c0.1,0.7,0,1.5,0,2.2c0,0.3,0.1,0.6,0.1,1v1c0,0.4,0,0.8,0,1.2
		c0,0.4-0.1,0.7-0.2,1.1c-0.2,0.4-0.5,0.8-1,0.9C272.7,263,272.3,262.9,272,262.6z M271.1,254.4c0-0.1,0-0.3,0-0.4
		c0-0.2-0.1-0.4-0.1-0.6c0-0.4-0.1-0.7-0.1-1l0,0c-0.1-0.4-0.1-0.8-0.2-1.2c0-0.2-0.1-0.4-0.1-0.5s0-0.2-0.1-0.2s-0.2,0-0.3,0.1
		c0,0.1-0.1,0.1-0.1,0.1c-0.2,0.5-0.4,1-0.5,1.4c-0.2,0.6-0.4,1.2-0.6,1.8c-0.1,0.2-0.1,0.4-0.1,0.5c0,0.2,0.1,0.3,0.3,0.4
		c0.1,0.1,0.2,0.1,0.4,0.1s0.3,0,0.4,0c0.2,0.1,0.3,0,0.4,0C270.8,254.9,271,254.7,271.1,254.4z"/>
	<path class="st3" d="M276.7,262.7c-0.2-0.2-0.3-0.5-0.4-0.7s-0.2-0.3-0.3-0.4c-0.3-0.2-0.4-0.6-0.6-0.9c0-0.2,0-0.4-0.1-0.6
		c-0.1-1,0-2,0-2.7c0-1-0.1-1.8,0-2.6c0.1-0.9,0-1.8,0.1-2.7c0-0.5,0-1,0.1-1.5c0-0.4,0-0.8,0.1-1.2c0-0.3,0-0.6,0.1-0.9
		c0-0.2,0-0.4,0-0.7c0-0.2,0.1-0.4,0.1-0.6c0-0.4,0.1-0.8,0.3-1.2c0.2-0.4,0.5-0.7,1-0.9c0.7-0.3,1.5-0.4,2.2-0.3
		c0.6,0.1,1.3,0.3,1.8,0.6c0.5,0.4,0.9,0.8,1.2,1.3c0.3,0.4,0.4,0.8,0.5,1.3c0,0.2,0.1,0.4,0.1,0.6c0,0.2,0.1,0.3,0.1,0.4
		c0,0.6-0.1,1.3-0.4,1.9c-0.3,0.8-0.7,1.4-1.2,2.1c-0.2,0.3-0.5,0.6-0.8,0.9l-0.1,0.1c-0.2,0.3-0.2,0.5,0,0.7
		c0.4,0.5,0.8,1.1,1.1,1.7c0.2,0.4,0.4,0.9,0.4,1.3c0.1,0.4,0.2,0.9,0.2,1.3c0,0.7-0.2,1.3-0.4,2c-0.2,0.3-0.4,0.6-0.6,0.9
		c-0.3,0.4-0.6,0.6-0.9,0.8c-0.3,0.2-0.6,0.3-1,0.4s-0.9,0.2-1.3,0.1C277.4,263.2,277,263.1,276.7,262.7z M278.9,260l0.1-0.2
		c0.3-0.4,0.2-0.8,0.2-1.2c0-0.3-0.1-0.5-0.2-0.7c-0.1-0.3-0.2-0.5-0.4-0.7c-0.1-0.1-0.1-0.1-0.2,0c-0.1,0-0.1,0.1-0.1,0.1
		c0,0.1,0,0.2,0,0.3v0.8c-0.1,0.5,0.1,1,0.1,1.6v0.1c0,0.1,0.1,0.1,0.1,0.2C278.5,260.1,278.7,260.1,278.9,260z M278.8,251.3
		c0.4-0.4,0.6-0.8,0.8-1.3c0.2-0.3,0.3-0.7,0.3-1.1c0-0.4-0.2-0.7-0.5-1c-0.1-0.1-0.3-0.2-0.4-0.2c-0.2,0-0.4,0.2-0.5,0.4
		s-0.1,0.5-0.1,0.7c-0.1,0.3,0,0.7-0.1,1c0,0.2,0,0.4,0,0.6c0,0.2,0,0.4,0,0.7c0,0.2,0.1,0.2,0.2,0.2
		C278.7,251.4,278.7,251.3,278.8,251.3z"/>
	<path class="st3" d="M290.2,263.2c-0.4-0.2-0.9-0.2-1.3-0.2c-0.4-0.1-0.9-0.1-1.3-0.2c-0.3,0-0.6,0-0.9-0.1c-0.4,0-0.8-0.2-1.2-0.3
		c-0.3-0.1-0.5-0.2-0.7-0.4c-0.4-0.2-0.6-0.5-0.8-0.9c-0.1-0.4-0.2-1-0.1-1.5c0-0.2,0-0.3,0-0.5c0-0.3,0-0.5,0-0.8s0-0.6,0-1
		c0-0.2,0-0.4,0-0.7c0-0.3,0-0.6,0-0.9v-0.1c0-0.3,0-0.6,0-0.9V254c0-0.3,0-0.6,0-0.9c0-0.3,0-0.6,0-1V252c0-0.4,0-0.7,0-1.1
		c0-0.2,0-0.4,0-0.7s0-0.6,0-1c0-0.2,0-0.5,0-0.7s0-0.4,0-0.6v-0.8c0-0.5,0.1-1,0.2-1.4c0.2-0.4,0.5-0.7,0.9-0.9
		c0.5-0.1,1,0,1.3,0.4c0.2,0.2,0.3,0.5,0.4,0.7c0.1,0.3,0.1,0.6,0.2,1c0.1,0.3,0,0.7,0,1.1c0,0.4,0,0.8-0.1,1.2c0,0.2,0,0.5,0,0.7
		s0,0.5-0.1,0.7v0.6c0,0.3,0,0.5,0,0.8c0,0.4,0,0.7,0,1.1v0.1c0.1,0.4,0,0.7,0,1.1c0,0.1-0.1,0.3,0,0.4c0,0.1,0.1,0.3,0,0.4v0.1
		c0,0.4,0,0.7,0,1.1v0.8c0,0.3,0,0.6-0.1,0.9c0,0.2,0,0.3,0,0.5c0,0.3-0.1,0.6,0,0.9s0.2,0.4,0.4,0.5c0.2,0.1,0.4,0.2,0.6,0.2h0.6
		c0.6,0,1.2,0,1.7,0.1c0.1,0,0.1,0,0.2,0c0.7-0.1,1.3,0.1,1.9,0.5c0.3,0.2,0.4,0.5,0.5,0.8c0.1,0.5,0,0.9-0.4,1.3
		c-0.3,0.3-0.5,0.4-0.9,0.5C291,263.3,290.6,263.3,290.2,263.2z"/>
	<path class="st3" d="M295.6,262.3c-0.8-0.3-1.3-0.8-1.6-1.5c-0.2-0.4-0.2-0.8-0.3-1.2c-0.1-0.7,0-1.3-0.1-1.8c0-0.7,0-1.2,0-1.7
		c0-0.5,0-1.1,0.1-1.6c0-0.4,0-0.7,0.1-1.1c0-0.4,0-0.8,0.1-1.2c0.1-0.8,0.1-1.5,0-2.3c0-0.4,0-0.8-0.1-1.3v-0.2
		c-0.1-0.1-0.1-0.3,0-0.4c0-0.1,0-0.2,0-0.3c-0.1-0.3,0-0.6,0.1-0.9c0.2-0.4,0.6-0.7,1.1-0.9c0.3-0.1,0.7-0.2,1-0.2
		c0.3-0.1,0.7,0,1-0.1c0,0,0,0,0.1,0c0.9,0,1.7-0.1,2.6-0.1c0.6,0.1,1.2,0.3,1.5,0.8c0.3,0.4,0.3,1,0,1.4s-0.7,0.6-1.2,0.8
		c-0.2,0.1-0.4,0.1-0.6,0.1c-0.6,0-1.2,0.1-1.8,0.1c-0.4,0-0.6,0.3-0.6,0.6c0,0.7,0,1.5,0,2.2c0,0.2,0,0.4,0,0.5
		c-0.1,0.2,0,0.4,0.1,0.6c0.1,0.1,0.2,0.2,0.3,0.2c0.4,0,0.7,0,1,0c0.5,0,0.9,0.1,1.4,0.3s0.8,0.7,0.8,1.2c0.1,0.6-0.4,1.2-1.1,1.4
		c-0.4,0.1-0.8,0.2-1.2,0.2c-0.3,0-0.5,0-0.8,0h-0.2c-0.4,0.1-0.5,0.3-0.6,0.7v1.7c0,0.3,0.1,0.5,0.1,0.7c0,0.4,0.3,0.6,0.7,0.6
		c0.4,0,0.7,0,1.1,0s0.9,0.1,1.3,0.3c0.4,0.2,0.5,0.5,0.6,0.9c0,0.3-0.1,0.6-0.3,0.8c-0.3,0.3-0.7,0.5-1.1,0.5
		c-0.3,0-0.6,0.1-0.9,0.1c-0.4,0-0.7,0.1-1.1,0C296.7,262.5,296.1,262.4,295.6,262.3z"/>
	<path class="st3" d="M310.1,263.2c-0.5-0.2-0.8-0.7-1-1.2c0-0.2,0-0.4-0.1-0.6c0-0.3,0-0.5-0.1-0.8c0,0,0,0,0-0.1v-0.1
		c0-0.5,0-1.1-0.1-1.6c0.1-1,0-2,0.1-3c0-0.6,0-1.2,0.1-1.8c0.1-0.7,0-1.5,0.1-2.2c0-0.5,0-1,0.1-1.4c0.1-0.5,0-1.1,0.1-1.6
		s0-1,0.1-1.5c0-0.4,0.1-0.7,0.2-1.1c0.1-0.2,0.3-0.4,0.5-0.6s0.4-0.3,0.6-0.4c0.3-0.2,0.5-0.2,0.8-0.3c0.1,0,0.3,0,0.4,0h0.1
		c0.6,0.1,1.2,0,1.8,0c0,0,0.1,0,0.2,0c0.3-0.1,0.5-0.1,0.8,0c0.4,0,0.9,0,1.3,0.3c0.4,0.2,0.6,0.5,0.7,1c0.1,0.4,0,0.7-0.1,1
		c-0.2,0.4-0.4,0.6-0.8,0.7c-0.4,0.2-0.7,0.2-1.1,0.2h-1.2c-0.6,0-0.9,0.3-1,0.7c-0.2,0.4-0.2,0.7-0.2,1.1v0.6c0,0.1,0,0.2,0,0.3
		c-0.1,0.4,0,0.8,0.3,1.1c0.1,0.1,0.3,0.2,0.5,0.2c0.6,0,1.2,0.1,1.9,0.1c0.4,0,0.8,0.2,1.2,0.4c0.4,0.4,0.5,0.8,0.5,1.3
		c0,0.3-0.1,0.5-0.3,0.7c-0.4,0.4-0.8,0.6-1.3,0.6c-0.7,0-1.3,0-2,0c-0.3,0-0.4,0.1-0.5,0.3s-0.2,0.4-0.2,0.7c0,0.9-0.1,1.7-0.1,2.6
		v1.5c0,0.4,0,0.8-0.1,1.2c-0.1,0.4-0.2,0.8-0.4,1.2c-0.2,0.3-0.4,0.5-0.7,0.6C310.6,263.3,310.3,263.3,310.1,263.2z"/>
	<path class="st3" d="M324.8,262.6c-0.4-0.4-0.6-0.8-0.7-1.3c-0.1-0.9,0-1.8-0.1-2.7c0-0.2-0.1-0.4-0.2-0.5s-0.2-0.1-0.3-0.2
		c-0.4,0-0.8,0-1.1-0.1c-0.3,0-0.6,0-1,0c-0.1,0-0.2,0-0.3,0.1c-0.1,0.1-0.2,0.2-0.3,0.3c-0.1,0.1-0.1,0.2-0.2,0.3l-0.2,1.4
		c-0.1,0.3-0.1,0.7-0.2,1c-0.1,0.4-0.4,0.7-0.7,1c-0.1,0.1-0.3,0.2-0.4,0.2c-0.4,0.2-0.8,0.1-1.1-0.2c-0.3-0.3-0.5-0.6-0.6-1
		c-0.1-0.2-0.1-0.4,0-0.7v-0.1c0-0.3,0-0.6,0.1-0.9c0.1-0.5,0.1-1,0.2-1.5l0.3-1.5c0.1-0.5,0.3-1.1,0.4-1.6c0.3-1.1,0.6-2.2,1-3.3
		c0.2-0.7,0.5-1.3,0.7-2l0.8-2.1c0.2-0.6,0.5-1.2,0.9-1.7c0.2-0.3,0.5-0.4,0.8-0.4c0.5-0.1,1,0.1,1.4,0.5c0.3,0.3,0.5,0.6,0.7,1
		c0.3,0.4,0.5,0.9,0.7,1.4s0.4,1.1,0.5,1.7c0.1,0.4,0.2,0.7,0.2,1c0,0.4,0.2,0.7,0.1,1c0,0.2,0.1,0.3,0.1,0.4c0,0.1-0.1,0.3,0,0.4
		c0,0,0,0,0,0.1c0,0.4,0.1,0.7,0.1,1.1c0,0.6,0,1.2,0.1,1.8c0.1,0.7,0,1.5,0,2.2c0,0.3,0.1,0.6,0.1,1v1c0,0.4,0,0.8,0,1.2
		c0,0.4-0.1,0.7-0.2,1.1c-0.2,0.4-0.5,0.8-1,0.9C325.5,263,325.2,262.9,324.8,262.6z M323.9,254.4c0-0.1,0-0.3,0-0.4
		c0-0.2-0.1-0.4-0.1-0.6c0-0.4-0.1-0.7-0.1-1l0,0c-0.1-0.4-0.1-0.8-0.2-1.2c0-0.2-0.1-0.4-0.1-0.5s0-0.2-0.1-0.2s-0.2,0-0.3,0.1
		c0,0.1-0.1,0.1-0.1,0.1c-0.2,0.5-0.4,1-0.5,1.4c-0.2,0.6-0.4,1.2-0.6,1.8c-0.1,0.2-0.1,0.4-0.1,0.5c0,0.2,0.1,0.3,0.3,0.4
		c0.1,0.1,0.2,0.1,0.4,0.1s0.3,0,0.4,0c0.2,0.1,0.3,0,0.4,0C323.7,254.9,323.9,254.7,323.9,254.4z"/>
	<path class="st3" d="M332,262.5c-0.2-0.3-0.4-0.5-0.4-0.9c-0.1-0.2-0.1-0.4-0.1-0.6c0-0.5,0-1,0-1.5c0.1-0.6,0-1.3,0.1-1.9
		s0-1.2,0.1-1.9c0.1-0.4,0-0.9,0.1-1.4c0.1-0.4,0-0.7,0.1-1.1c0.1-0.4,0-0.7,0.1-1c0.1-0.4,0-0.9,0.1-1.3c0.1-0.7,0-1.4,0-2.1
		c0-0.3-0.1-0.6-0.2-0.9c-0.1-0.2-0.3-0.3-0.5-0.3h-1.8c-0.6,0-1-0.2-1.3-0.7c-0.1-0.2-0.2-0.3-0.1-0.5c0-0.2,0-0.3,0-0.4
		c0.1-0.5,0.7-0.9,1.2-1c0.2,0,0.4,0,0.6,0h2.3c0.8,0,1.6,0,2.4,0c0.9,0,1.9,0,2.8,0c0.4,0,0.8,0.1,1.2,0.3c0.3,0.2,0.6,0.4,0.7,0.8
		c0,0.2,0,0.5-0.1,0.7s-0.4,0.3-0.5,0.4l-0.1,0.1c-0.2,0.1-0.5,0.2-0.8,0.3c-0.5,0.1-1,0-1.5,0c-0.2,0-0.4,0.1-0.6,0.1
		c-0.1,0-0.1,0.1-0.1,0.1c-0.2,0.2-0.4,0.4-0.4,0.7c0,0.2,0,0.4,0,0.6c0,0.5,0,1,0,1.5c0,0.6-0.1,1.2-0.1,1.7
		c-0.1,0.4,0,0.7-0.1,1.1c0,0.4,0,0.8-0.1,1.1c-0.1,0.5,0,0.9,0,1.4c-0.1,0.7,0,1.4-0.1,2c0,0.6,0,1.2,0,1.7c-0.1,0.4,0,0.8-0.1,1.1
		c-0.1,0.4-0.1,0.8-0.3,1.1c-0.2,0.4-0.4,0.6-0.8,0.8C332.9,263.1,332.3,262.9,332,262.5z"/>
	<path class="st3" d="M340.1,262.8c-0.3-0.5-0.2-1,0-1.4c0.2-0.3,0.4-0.4,0.7-0.6l0.9-0.4c0.5-0.3,1.1-0.5,1.6-0.9
		c0.4-0.4,0.6-0.8,0.7-1.3c0-0.2,0.1-0.4,0.1-0.6c-0.1-0.5-0.3-1.1-0.6-1.6c-0.3-0.4-0.5-0.7-0.9-1.1c-0.5-0.5-1.1-1-1.5-1.5
		s-0.9-1-1.2-1.6c-0.1-0.3-0.2-0.6-0.3-1c-0.1-0.5-0.1-1-0.1-1.4c0-0.3,0.1-0.6,0.2-0.9c0.1-0.4,0.3-0.7,0.4-1.1
		c0.4-0.7,0.9-1.3,1.6-1.8c0.4-0.3,0.8-0.5,1.2-0.7c0.3-0.2,0.7-0.2,1-0.3c0.4-0.1,0.7-0.1,1-0.1c0.4,0.1,0.8,0.3,1.1,0.7
		c0.1,0.3,0.2,0.5,0.2,0.8c-0.1,0.5-0.3,0.9-0.7,1.2c-0.3,0.2-0.5,0.2-0.8,0.3c-0.4,0.1-0.7,0.3-1,0.4c-0.6,0.4-0.9,0.9-1.1,1.5
		s-0.1,1.1,0.3,1.5c0.6,0.7,1.3,1.3,2,2c0.6,0.7,1.2,1.4,1.6,2.3c0.2,0.5,0.4,1,0.4,1.5c0.1,0.3,0,0.5,0.1,0.7
		c0,0.7-0.1,1.3-0.3,1.9c-0.2,0.4-0.4,0.9-0.6,1.2c-0.4,0.6-0.7,0.9-1.5,1.4c-0.6,0.4-1.2,0.6-1.8,0.9c-0.2,0.1-0.4,0.1-0.5,0.2
		c-0.4,0.2-0.7,0.2-1.1,0.1C340.6,263.3,340.3,263.1,340.1,262.8z"/>
</g>
<g>
	<path class="st3" d="M10,231.7c-0.2-0.3-0.4-0.6-0.4-0.9c-0.1-0.2-0.1-0.4-0.1-0.7c0-0.5,0-1.1,0-1.6c0.1-0.7,0-1.4,0.1-2.1
		c0.1-0.7,0-1.4,0.1-2c0.1-0.5,0-1,0.1-1.5c0.1-0.4,0-0.8,0.1-1.2c0.1-0.4,0-0.7,0.1-1.1c0.1-0.5,0-1,0.1-1.4c0.1-0.8,0-1.5,0-2.3
		c0-0.3-0.1-0.7-0.2-1c-0.1-0.2-0.3-0.3-0.5-0.3h-2c-0.7,0-1.1-0.2-1.5-0.7c-0.1-0.2-0.2-0.3-0.1-0.5c0-0.2,0-0.3,0-0.5
		c0.1-0.5,0.7-1,1.3-1c0.2,0,0.4,0,0.6,0h2.6c0.9,0,1.8,0,2.7,0c1,0,2,0,3,0c0.5,0,0.9,0.1,1.3,0.4c0.4,0.2,0.7,0.5,0.7,0.9
		c0,0.2,0,0.6-0.1,0.8c-0.1,0.2-0.4,0.3-0.6,0.4c0,0-0.1,0.1-0.1,0.1c-0.2,0.1-0.6,0.2-0.9,0.3c-0.6,0.1-1.1,0-1.6,0
		c-0.2,0-0.4,0.1-0.6,0.1c-0.1,0-0.1,0.1-0.1,0.1c-0.2,0.2-0.4,0.5-0.5,0.8c0,0.2,0,0.5,0,0.7c0,0.6,0,1.1,0,1.7
		c0,0.6-0.1,1.3-0.1,1.9c-0.1,0.4,0,0.8-0.1,1.2c0,0.4,0,0.8-0.1,1.2c-0.1,0.5,0,1,0,1.5c-0.1,0.7,0,1.5-0.1,2.2c0,0.6,0,1.3,0,1.9
		c-0.1,0.4,0,0.8-0.1,1.2c-0.1,0.4-0.1,0.8-0.3,1.2c-0.2,0.4-0.4,0.7-0.8,0.9C11,232.3,10.3,232.1,10,231.7z"/>
	<path class="st3" d="M24,231.7c-0.5-0.4-0.7-0.9-0.7-1.5c-0.1-1,0-2-0.1-2.9c0-0.2-0.1-0.4-0.2-0.6c-0.1-0.1-0.2-0.1-0.3-0.2
		c-0.4,0-0.8,0-1.2-0.1c-0.3,0-0.7,0-1,0c-0.1,0-0.2,0-0.3,0.1c-0.1,0.1-0.2,0.2-0.3,0.3c-0.1,0.1-0.1,0.2-0.2,0.3l-0.2,1.5
		c-0.1,0.3-0.1,0.7-0.2,1.1c-0.1,0.5-0.4,0.8-0.7,1.1c-0.1,0.1-0.3,0.2-0.5,0.2c-0.4,0.2-0.8,0.1-1.2-0.2c-0.3-0.3-0.6-0.7-0.7-1.1
		c-0.1-0.2-0.1-0.5,0-0.7v-0.1c0-0.3,0-0.7,0.1-1c0.1-0.6,0.1-1.1,0.2-1.6l0.3-1.6c0.1-0.6,0.3-1.2,0.4-1.8c0.3-1.2,0.7-2.4,1.1-3.6
		c0.2-0.7,0.6-1.5,0.8-2.2L20,215c0.2-0.7,0.6-1.3,1-1.8c0.2-0.3,0.6-0.5,0.9-0.5c0.6-0.1,1.1,0.1,1.5,0.5c0.3,0.3,0.6,0.7,0.8,1
		c0.3,0.5,0.6,1,0.8,1.5c0.2,0.6,0.5,1.2,0.6,1.8c0.1,0.4,0.2,0.8,0.2,1.1c0,0.4,0.2,0.8,0.1,1.1c0,0.2,0.1,0.3,0.1,0.5
		c0,0.1-0.1,0.3,0,0.4c0,0,0,0,0,0.1c0,0.4,0.1,0.8,0.1,1.2c0,0.6,0,1.3,0.1,1.9c0.1,0.8,0,1.6,0,2.4c0,0.3,0.1,0.7,0.1,1.1v1.1
		c0,0.4,0,0.9,0,1.3c0,0.4-0.1,0.8-0.2,1.2c-0.2,0.5-0.5,0.9-1.1,1C24.7,232.1,24.3,232,24,231.7z M23,222.7c0-0.1,0-0.3,0-0.5
		c0-0.2-0.1-0.5-0.1-0.7c0-0.4-0.1-0.7-0.1-1.1v0c-0.1-0.4-0.1-0.8-0.2-1.3c0-0.2-0.1-0.4-0.1-0.6c0-0.1,0-0.2-0.1-0.2
		c-0.1,0-0.2,0-0.3,0.1c0,0.1-0.1,0.1-0.1,0.1c-0.2,0.5-0.4,1-0.6,1.5c-0.2,0.7-0.5,1.3-0.6,1.9c-0.1,0.2-0.1,0.4-0.1,0.6
		c0,0.2,0.1,0.4,0.3,0.4c0.1,0.1,0.2,0.1,0.4,0.1s0.3,0,0.4,0c0.2,0.1,0.3,0,0.5,0C22.7,223.3,22.9,223,23,222.7z"/>
	<path class="st3" d="M28.6,231.7c-0.5-0.3-0.8-0.8-1-1.8c0-0.3-0.1-0.8-0.1-1.3c0-0.2,0-0.5,0-0.7c0-0.5,0-0.9,0-1.4
		c0-0.4,0-0.7,0-1.1c0-0.2,0-0.4,0-0.6c0-0.4,0-0.8,0-1.2v-2.5c0-0.3,0-0.7,0-1.1c0-0.3,0-0.7,0-1.1v-1.1c0-0.4,0-0.8,0-1.1
		c0-0.3,0-0.7,0-1c0-0.4,0.1-0.8,0.4-1.1c0.2-0.3,0.6-0.6,1-0.7c0.5-0.1,0.9,0,1.3,0.2c0.1,0.1,0.2,0.2,0.3,0.3
		c0.3,0.2,0.4,0.6,0.5,0.9c0,0.2,0,0.5,0,0.7c0,0.4,0,0.7,0.1,1.1c0,0.1,0,0.3,0.1,0.3c0.2,0,0.3,0,0.5-0.1c0.2-0.3,0.5-0.5,0.7-0.8
		c0.1-0.2,0.3-0.4,0.4-0.6c0.4-0.6,0.7-1.1,1.1-1.7c0.2-0.4,0.5-0.8,0.8-1.1c0.1-0.2,0.4-0.3,0.5-0.3c0.2-0.1,0.5-0.3,0.7-0.2
		c0.7,0,1.5,0.5,1.6,1.2c0.2,0.2,0.1,0.5,0.1,0.7c0,0.3-0.1,0.6-0.3,0.9c-0.4,0.6-0.7,1.1-1,1.6c-0.4,0.6-0.8,1.1-1.2,1.6
		c-0.5,0.6-0.8,1.2-1.3,1.7l-0.7,0.9c-0.2,0.2-0.3,0.5-0.2,0.8c0,0.3,0.1,0.7,0.4,0.9c0.2,0.3,0.3,0.7,0.6,1
		c0.2,0.4,0.5,0.9,0.8,1.3c0.5,0.8,0.9,1.5,1.5,2.3c0.2,0.3,0.5,0.6,0.6,1c0.3,0.6,0.3,1.3,0,1.9c-0.4,0.5-0.8,0.8-1.5,0.7
		c-0.6,0-1.1-0.4-1.5-0.8c-0.3-0.4-0.6-0.9-0.9-1.3c-0.3-0.4-0.5-0.8-0.8-1.3c-0.2-0.3-0.4-0.6-0.6-0.9c-0.1-0.1-0.1-0.2-0.2-0.2
		c-0.1,0-0.2,0.1-0.2,0.3c0,0.4,0,0.8,0,1.2c0,0.2,0,0.4,0,0.6c0.1,0.2,0.1,0.5,0.1,0.7c0,0.3,0,0.6,0,0.9c-0.1,0.6-0.5,1.1-1,1.4
		C29.6,232.1,29.1,232,28.6,231.7z"/>
	<path class="st3" d="M39.1,229.5c-0.1-0.2-0.2-0.5-0.2-0.7c0-0.1-0.1-0.3,0-0.5v-0.1c-0.1-0.4,0-0.8,0-1.2c0-0.5,0-1,0-1.5
		c0-0.5,0-1,0-1.6V223c0-0.4,0-0.8,0-1.2c0-0.2,0.1-0.5,0-0.7c0-0.2,0-0.5,0-0.6c0-0.3,0-0.5,0-0.8c0-0.4,0-0.9,0.1-1.3v-0.6
		c0-0.5,0-0.9,0.1-1.4c0-0.4,0-0.7,0.1-1c0-0.1,0.1-0.2,0.1-0.3c0.2-0.4,0.5-0.8,0.9-0.9c0.1-0.1,0.3-0.1,0.4-0.1
		c0.5-0.1,0.9,0,1.2,0.3c0.3,0.2,0.6,0.5,0.7,0.9c0,0.2,0.1,0.4,0.1,0.5c0,0.3,0,0.6,0,0.9v0.6c0,0.5,0,0.9-0.1,1.4v0.7
		c0,0.5-0.1,0.9-0.1,1.3c0,0.4,0,0.8,0,1.2c0,0.4,0,0.8,0,1.2c0,0.2,0,0.5,0,0.7c0,0.4,0,0.7,0,1.1c0,0.4-0.1,0.7,0,1.1
		c0,0.2,0,0.3,0,0.5c0,0.2,0.1,0.4,0,0.5v0.1c0.1,0.3,0,0.7,0.1,1.1c0,0.8-0.2,1.5-0.7,2.1c-0.6,0.6-1.3,0.7-2,0.2
		C39.5,230.1,39.2,229.8,39.1,229.5z"/>
	<path class="st3" d="M44.2,232c-0.2-0.3-0.4-0.6-0.4-0.8c-0.1-0.5-0.1-0.9-0.1-1.3c0-0.2,0-0.5,0-0.7c0-0.3,0-0.6,0-0.9
		c0-0.2,0-0.5,0-0.7c0-0.4,0-0.8,0-1.2c0-0.5,0-1,0-1.5v-1.2c0-0.5,0-1,0-1.4c0-0.4,0-0.8,0-1.3c0-0.6,0.1-1.3,0.1-1.9l0.1-1.8
		c0.1-0.8,0.1-1.5,0.3-2.3c0.2-0.7,0.7-1.2,1.4-1.3c0.4-0.1,0.8,0.1,1.2,0.3c0.6,0.3,0.9,0.9,1.2,1.4l0.5,1.2
		c0.1,0.4,0.3,0.7,0.5,1.1c0.2,0.6,0.5,1.2,0.7,1.8c0.3,0.7,0.6,1.5,0.9,2.2c0.2,0.5,0.4,0.9,0.6,1.4c0,0,0,0.1,0,0.1
		c0.1,0.1,0.1,0.1,0.2,0.1c0.1,0,0.1-0.1,0.2-0.2v-1.8c0-0.4,0-0.7,0-1.1c0-0.3,0-0.6,0-0.9c0-0.2,0-0.4,0-0.6v-1.8
		c0-0.3,0-1.1,0-1.5c0-0.4,0-0.7,0.1-1c0.1-0.5,0.2-0.9,0.4-1.3c0.3-0.5,0.7-0.8,1.2-0.8c0.3,0,0.6,0.1,0.8,0.3
		c0.4,0.3,0.6,0.7,0.7,1.2c0,0.1,0.1,0.3,0.1,0.5c0.1,0.4,0.1,0.8,0.1,1.2c0,0.2,0,0.4,0,0.6l0,0.5v2.4c0,0.5,0,1,0,1.5v0.5
		c0,0.7,0,1.5,0,2.2l-0.1,2c0,0.7,0,1.3-0.1,2c-0.1,0.8-0.1,1.7-0.2,2.6c-0.1,0.4-0.1,0.9-0.2,1.3c-0.2,0.5-0.6,0.8-1.1,0.9
		c-0.5,0.1-1,0-1.4-0.5c-0.2-0.2-0.3-0.4-0.5-0.6c-0.1-0.3-0.4-0.5-0.6-0.8c-0.5-0.6-0.8-1.3-1.2-2c-0.3-0.5-0.5-1-0.8-1.6
		c-0.3-0.7-0.6-1.3-0.9-2c-0.1-0.4-0.4-0.7-0.5-1.1c0-0.1-0.1-0.1-0.1-0.1c-0.1-0.1-0.1-0.2-0.2-0.1c-0.1,0-0.2,0.1-0.2,0.2
		c0,0.1,0,0.3,0,0.4c0,0.4,0,0.8,0,1.2v2.8c0,0.4,0,0.8,0,1.2c0,0.3,0,0.7,0,1c0,0.2,0,0.5,0,0.8c0,0.4-0.2,0.8-0.4,1.2
		c-0.2,0.3-0.5,0.5-0.8,0.6C45.2,232.6,44.6,232.5,44.2,232z"/>
	<path class="st3" d="M59.2,232c-0.7-0.4-1.2-0.9-1.6-1.5c-0.4-0.6-0.7-1.2-0.8-1.9c-0.1-0.5-0.2-0.9-0.3-1.4c0-0.1-0.1-0.2-0.1-0.4
		c0-0.1,0-0.2,0-0.3c0-0.1,0-0.1,0-0.2V225h0c0-0.3,0-0.7,0-1c0-0.4,0-0.7,0.1-1.1c0-0.2,0-0.3,0.1-0.6l0.2-1
		c0.1-0.6,0.3-1.2,0.5-1.8c0.1-0.3,0.2-0.7,0.4-1c0.2-0.5,0.4-0.9,0.7-1.3c0.3-0.5,0.6-1,1-1.5c0.3-0.4,0.6-0.8,0.9-1.1
		c0.2-0.3,0.5-0.5,0.8-0.7c0.3-0.3,0.6-0.5,1-0.7c0.7-0.5,1.5-0.8,2.3-1.1c0.4-0.1,0.9-0.2,1.3-0.2c0.6,0.1,1.2,0.4,1.5,0.9
		c0.1,0.2,0.2,0.4,0.2,0.6c0,0.2,0,0.4-0.1,0.6c-0.2,0.7-0.8,1.1-1.5,1.1c-0.4,0-0.7,0.1-1,0.3c-0.5,0.2-1,0.5-1.4,0.8
		c-0.3,0.2-0.6,0.5-0.8,0.8c-0.1,0.2-0.4,0.4-0.5,0.6c-0.4,0.4-0.6,0.8-0.9,1.3c-0.4,0.7-0.7,1.5-1,2.4c-0.1,0.5-0.2,0.9-0.3,1.4
		c-0.1,0.4-0.1,0.8-0.2,1.2c-0.1,0.6-0.1,1.3,0,1.9c0.1,0.7,0.1,1.5,0.4,2.1c0.1,0.3,0.2,0.6,0.4,0.9c0.2,0.2,0.5,0.4,0.8,0.4
		c0.5,0,1-0.2,1.3-0.5c0.3-0.2,0.6-0.5,0.8-0.8c0.3-0.5,0.5-1,0.5-1.6c0-0.3,0-0.7-0.1-1.1c-0.2-0.5-0.5-0.8-1-1
		c-0.3-0.1-0.7-0.1-1,0c-0.1,0-0.1,0-0.1,0c-0.3,0-0.6-0.1-0.9-0.2c-0.2-0.1-0.4-0.3-0.6-0.5c-0.2-0.4-0.3-0.9-0.1-1.4
		c0.2-0.6,0.7-0.9,1.2-1c0.3-0.1,0.6-0.1,0.9-0.2c0.3,0,0.6,0.1,0.8,0.1c0.4,0,0.7,0.2,1.1,0.3c0.5,0.2,0.9,0.5,1.3,0.8
		c0.5,0.4,0.9,0.9,1.2,1.5c0.2,0.5,0.4,1,0.5,1.5c0.1,0.5,0.2,0.9,0.1,1.4c-0.1,0.7-0.2,1.4-0.5,2c-0.2,0.6-0.5,1.1-0.9,1.6
		c-0.5,0.7-1.1,1.2-1.8,1.7c-0.5,0.3-1.1,0.6-1.7,0.7c-0.3,0-0.7,0.1-1,0.1C60.5,232.6,59.8,232.4,59.2,232z"/>
	<path class="st3" d="M86.2,230.9c-0.1-0.5-0.1-1,0-1.6c0-0.5,0-1.4,0.1-1.9c0-0.3,0-0.7,0-1c0-0.5,0-0.9,0.1-1.4c0-0.5,0-0.9,0-1.4
		c0-0.2,0-0.5,0-0.7c0-0.1,0-0.3-0.1-0.3c-0.2,0-0.1,0.2-0.2,0.3c-0.4,1-0.7,2.1-1.1,3.1c-0.2,0.6-0.4,1.2-0.6,1.8
		c-0.4,0.6-1,1-1.6,1c-0.6,0-1-0.3-1.4-0.7c-0.2-0.3-0.3-0.6-0.4-0.9c-0.1-0.4-0.2-0.7-0.3-1.1c-0.1-0.3-0.1-0.7-0.3-0.9
		c0,0,0-0.1,0-0.1c-0.1-0.7-0.4-1.3-0.6-1.9c-0.1-0.5-0.4-0.9-0.5-1.3c-0.1-0.3-0.2-0.6-0.3-0.9c0,0-0.1-0.1-0.1-0.1
		c-0.1-0.2-0.3-0.2-0.4,0c0,0.1-0.1,0.2-0.1,0.3c0,0.3,0,0.7,0,1c0,0.5,0.1,0.9,0,1.4c0,0.2,0,0.5,0,0.7c0.1,0.5,0,0.9,0.1,1.4v2.4
		c0,0.5,0,1.1-0.1,1.6c0,0.4-0.1,0.8-0.2,1.2c-0.2,0.6-0.8,1.1-1.5,0.9c-0.2,0-0.5-0.1-0.6-0.2c-0.2-0.2-0.5-0.5-0.5-0.8
		c-0.1-0.3-0.2-0.6-0.1-0.9c0,0,0-0.1,0-0.1c-0.1-0.4,0-0.9-0.1-1.3c0-0.3,0-0.6,0-0.8c0-0.2,0-0.5,0-0.7c0-0.2,0-0.5,0-0.7
		c0-0.5,0-0.9,0-1.4v-1.6c0-0.4,0-0.8,0-1.1c0-0.5,0-0.9,0-1.3c0-0.4,0-0.7,0-1c0-0.4,0-0.8,0-1.3c0-0.8,0.1-1.5,0.1-2.2
		c0-0.5,0-0.9,0.1-1.4c0-0.5,0.2-1,0.4-1.5c0.2-0.4,0.5-0.6,1-0.7c0.4-0.1,0.7-0.1,1.1,0.1c0.4,0.2,0.7,0.4,0.9,0.7
		c0.3,0.4,0.5,0.7,0.7,1c0.2,0.4,0.5,0.8,0.7,1.2c0.3,0.6,0.6,1.3,0.9,1.9c0.2,0.5,0.4,1,0.6,1.5c0.2,0.4,0.4,0.8,0.6,1.2
		c0.1,0.1,0,0.3,0.2,0.4c0.1,0.1,0.2,0.1,0.3,0.1c0.2-0.1,0.4-0.2,0.4-0.4c0.2-0.7,0.5-1.3,0.7-1.9c0.3-0.8,0.6-1.6,0.9-2.4
		c0.4-0.8,0.7-1.6,1-2.5c0.1-0.5,0.3-0.9,0.6-1.3c0.4-0.4,0.8-0.7,1.3-0.7c0.6,0,1.1,0.2,1.5,0.7c0.3,0.4,0.5,0.7,0.5,1.4
		c0.1,0.5,0.1,0.9,0.1,1.4c0,0.4,0,0.8,0,1.2c0,0.2,0,0.5,0,0.7c0,0.2,0,0.5,0,0.7c0,0.6,0,1.1,0,1.7v1c0,0.3,0,0.7,0,1v1
		c0,0.3,0,0.7,0,1c0,0.3,0,0.6,0,0.9c0,0.5,0,0.9,0,1.4c0,0.5,0,0.9,0,1.3c0,0.7-0.1,2.2-0.1,2.7c0,0.5,0,1-0.3,1.4
		c-0.2,0.5-0.6,0.7-1.1,0.8c-0.3,0.1-0.6,0.1-0.9,0C86.7,231.9,86.3,231.5,86.2,230.9z"/>
	<path class="st3" d="M95.3,231.2c-0.5-0.2-1-0.5-1.4-0.8c-0.4-0.3-0.8-0.8-1.2-1.2c-0.3-0.4-0.6-0.8-0.8-1.3
		c-0.1-0.3-0.2-0.6-0.4-0.9c-0.2-0.8-0.4-1.7-0.5-2.5l-0.1-1.2c0-0.4,0-0.8,0-1.1c0-0.5,0-1,0.1-1.4c0-0.4,0-0.8,0.1-1.2
		c0.1-0.7,0.2-1.5,0.4-2.2l0.1-0.6c0.1-0.4,0.2-0.8,0.4-1.2c0.1-0.2,0.2-0.3,0.4-0.5c0.3-0.4,0.6-0.7,1-1c0.6-0.5,1.2-0.9,1.9-1.2
		c0.5-0.2,1.1-0.4,1.6-0.5c0.4-0.1,0.8,0,1.3,0c0.8,0.1,1.5,0.3,2.2,0.7c0.3,0.2,0.7,0.4,1,0.7c0.1,0.1,0.3,0.2,0.4,0.4
		c0.5,0.5,0.9,1,1.3,1.7c0.3,0.5,0.5,1,0.7,1.5c0.1,0.2,0.1,0.5,0.2,0.8c0.1,0.4,0.1,0.8,0.2,1.1c0,0.1,0,0.2,0.1,0.4
		c0.1,0.5,0.1,1,0.1,1.4c0,1-0.1,2-0.3,3c-0.2,1-0.5,2-0.9,2.9c-0.2,0.4-0.4,0.8-0.6,1.2c-0.2,0.4-0.5,0.8-0.8,1.2
		c-0.3,0.3-0.6,0.6-0.9,0.9c-0.5,0.5-1.1,0.8-1.8,1.1c-0.3,0.1-0.6,0.1-0.8,0.2c-0.1,0.1-0.3,0.1-0.5,0c0,0-0.1,0-0.1,0
		C96.7,231.6,96,231.5,95.3,231.2z M98.7,227.5c0.2-0.2,0.3-0.5,0.5-0.7c0.2-0.3,0.5-0.7,0.6-1.2c0.3-0.6,0.5-1.2,0.7-1.9
		c0.2-0.9,0.4-1.8,0.4-2.7c0-0.5,0-0.9-0.1-1.3c0-0.4-0.2-0.7-0.2-1.1v0c-0.2-0.4-0.4-0.9-0.6-1.3c-0.4-0.6-0.8-1-1.5-1.4
		c-0.1,0-0.2-0.1-0.4-0.1c-0.6-0.1-1.2-0.1-1.7,0.2c-0.4,0.2-0.7,0.5-1,0.8c-0.2,0.2-0.4,0.5-0.4,0.7l-0.3,1.6
		c-0.1,0.9-0.2,1.9-0.2,2.8c0,0.4,0,0.8,0,1.2c0.1,0.5,0.1,1,0.1,1.5c0,0.1,0.1,0.2,0.1,0.4c0,0.5,0.2,0.9,0.4,1.3
		c0.2,0.6,0.5,1.2,1,1.7c0.4,0.4,0.9,0.5,1.4,0.3C97.9,228.2,98.4,227.9,98.7,227.5z"/>
	<path class="st3" d="M106.5,231.7c-0.2-0.1-0.3-0.2-0.5-0.4c-0.3-0.4-0.6-0.8-0.6-1.4l-0.1-1.4c0-0.2,0-0.4,0-0.5
		c0-0.2-0.1-0.3,0-0.5c0,0,0-0.1,0-0.1c-0.1-0.3,0-0.7,0-1c0-0.5,0-1,0-1.5c0-0.2,0-0.5,0-0.8c0-0.3,0-0.6,0.1-0.8
		c0-0.2,0-0.5,0-0.8c0-0.3,0-0.6,0-0.9c0-0.2,0-0.4,0-0.6c0-0.5,0-0.9,0.1-1.3c0-0.5,0.1-0.9,0.1-1.3c0-0.3,0-0.5,0-0.8
		c0-0.3,0-0.6,0.1-0.9c0.1-0.4,0.1-0.8,0.3-1.2c0.1-0.3,0.3-0.6,0.5-0.8c0.4-0.5,0.8-0.8,1.4-0.9c0.5-0.1,1-0.1,1.5-0.2
		c0.9,0.1,1.8,0.4,2.6,0.9c0.8,0.5,1.4,1.1,1.8,1.9c0.2,0.3,0.4,0.8,0.4,1.2c0,0.1,0,0.2,0,0.4c0.1,1-0.1,2-0.6,2.9
		c-0.2,0.5-0.5,0.8-0.8,1.3c-0.4,0.6-0.9,1-1.4,1.5c-0.2,0.2-0.3,0.6-0.4,0.9c0.1,0.2,0.1,0.3,0.2,0.5c0.4,0.5,0.8,1,1.3,1.5
		c0.5,0.6,1,1.2,1.4,1.9c0.3,0.4,0.6,0.9,0.6,1.5c0,0.4-0.1,0.8-0.4,1c-0.2,0.2-0.3,0.4-0.6,0.5c-0.6,0.2-1.2,0.2-1.7-0.2
		c-0.5-0.3-0.8-0.8-1.1-1.2c-0.4-0.6-0.9-1.2-1.4-1.7l-0.4-0.5c-0.1-0.1-0.2-0.1-0.4-0.1s-0.1,0.1-0.1,0.2v0.1c0,0.5,0,1,0,1.5
		c0,0.2,0,0.5-0.1,0.8c-0.1,0.5-0.3,0.9-0.7,1.3c-0.2,0.2-0.4,0.3-0.7,0.3C107,231.8,106.8,231.8,106.5,231.7z M110.1,220.2
		c0.3-0.4,0.6-0.7,0.7-1.2c0.1-0.3,0.2-0.6,0.1-0.9c-0.1-0.5-0.7-0.9-1.3-0.8c-0.3,0-0.3,0-0.4,0.3c0,0.2-0.1,0.5-0.1,0.8
		c0,0.3,0,0.6,0,0.8c0,0.4,0,0.7-0.1,0.9c0,0.1,0,0.2,0,0.3c0,0.3,0.1,0.3,0.4,0.2C109.8,220.5,109.9,220.3,110.1,220.2z"/>
	<path class="st3" d="M117.9,231.3c-0.9-0.3-1.4-0.8-1.8-1.7c-0.2-0.5-0.2-0.9-0.3-1.4c-0.1-0.7,0-1.4-0.1-1.9c0-0.8,0-1.3,0-1.9
		c0-0.6,0-1.2,0.1-1.8c0-0.4,0-0.8,0.1-1.2c0-0.4,0-0.9,0.1-1.3c0.1-0.8,0.1-1.6,0-2.5c0-0.5,0-0.9-0.1-1.4v-0.2
		c-0.1-0.1-0.1-0.3,0-0.5c0-0.1,0-0.2,0-0.3c-0.1-0.3,0-0.7,0.1-1c0.2-0.5,0.7-0.8,1.2-0.9c0.4-0.1,0.7-0.2,1.1-0.2
		c0.4-0.1,0.7,0,1.1-0.1c0,0,0,0,0.1,0c0.9,0,1.9-0.1,2.8-0.1c0.7,0.1,1.3,0.3,1.7,0.9c0.3,0.5,0.3,1,0,1.6
		c-0.3,0.5-0.8,0.7-1.3,0.8c-0.2,0.1-0.4,0.1-0.7,0.1c-0.6,0-1.3,0.1-1.9,0.1c-0.4,0-0.7,0.3-0.7,0.7c0,0.8,0,1.6,0,2.5
		c0,0.2,0,0.4,0,0.6c-0.1,0.2,0,0.5,0.1,0.7c0.1,0.1,0.2,0.2,0.3,0.2c0.4,0,0.7,0,1.1,0c0.5,0,1,0.1,1.5,0.3
		c0.6,0.2,0.9,0.7,0.9,1.3c0.1,0.7-0.5,1.3-1.2,1.5c-0.4,0.1-0.8,0.2-1.3,0.2c-0.3,0-0.6,0-0.9,0h-0.2c-0.5,0.1-0.6,0.3-0.6,0.8v1.8
		c0,0.3,0.1,0.5,0.1,0.8c0,0.4,0.3,0.7,0.8,0.7c0.4,0,0.8,0,1.2,0c0.5,0,1,0.1,1.4,0.4c0.4,0.2,0.6,0.6,0.7,1c0,0.4-0.1,0.6-0.3,0.9
		c-0.3,0.4-0.7,0.5-1.2,0.6c-0.3,0-0.7,0.1-1,0.1c-0.4,0-0.8,0.1-1.2,0C119,231.5,118.4,231.5,117.9,231.3z"/>
	<path class="st3" d="M135.2,232c-0.7-0.4-1.2-0.9-1.6-1.5c-0.4-0.6-0.7-1.2-0.8-1.9c-0.1-0.5-0.2-0.9-0.3-1.4
		c0-0.1-0.1-0.2-0.1-0.4c0-0.1,0-0.2,0-0.3c0-0.1,0-0.1,0-0.2V225h0c0-0.3,0-0.7,0-1c0-0.4,0-0.7,0.1-1.1c0-0.2,0-0.3,0.1-0.6l0.2-1
		c0.1-0.6,0.3-1.2,0.5-1.8c0.1-0.3,0.2-0.7,0.4-1c0.2-0.5,0.4-0.9,0.7-1.3c0.3-0.5,0.6-1,1-1.5c0.3-0.4,0.6-0.8,0.9-1.1
		c0.2-0.3,0.5-0.5,0.8-0.7c0.3-0.3,0.6-0.5,1-0.7c0.7-0.5,1.5-0.8,2.3-1.1c0.4-0.1,0.9-0.2,1.3-0.2c0.6,0.1,1.2,0.4,1.5,0.9
		c0.1,0.2,0.2,0.4,0.2,0.6c0,0.2,0,0.4-0.1,0.6c-0.2,0.7-0.8,1.1-1.5,1.1c-0.4,0-0.7,0.1-1,0.3c-0.5,0.2-1,0.5-1.4,0.8
		c-0.3,0.2-0.6,0.5-0.8,0.8c-0.1,0.2-0.4,0.4-0.5,0.6c-0.4,0.4-0.6,0.8-0.9,1.3c-0.4,0.7-0.7,1.5-1,2.4c-0.1,0.5-0.2,0.9-0.3,1.4
		c-0.1,0.4-0.1,0.8-0.2,1.2c-0.1,0.6-0.1,1.3,0,1.9c0.1,0.7,0.1,1.5,0.4,2.1c0.1,0.3,0.2,0.6,0.4,0.9c0.2,0.2,0.5,0.4,0.8,0.4
		c0.5,0,1-0.2,1.3-0.5c0.3-0.2,0.6-0.5,0.8-0.8c0.3-0.5,0.5-1,0.5-1.6c0-0.3,0-0.7-0.1-1.1c-0.2-0.5-0.5-0.8-1-1
		c-0.3-0.1-0.7-0.1-1,0c-0.1,0-0.1,0-0.1,0c-0.3,0-0.6-0.1-0.9-0.2c-0.2-0.1-0.4-0.3-0.6-0.5c-0.2-0.4-0.3-0.9-0.1-1.4
		c0.2-0.6,0.7-0.9,1.2-1c0.3-0.1,0.6-0.1,0.9-0.2c0.3,0,0.6,0.1,0.8,0.1c0.4,0,0.7,0.2,1.1,0.3c0.5,0.2,0.9,0.5,1.3,0.8
		c0.5,0.4,0.9,0.9,1.2,1.5c0.2,0.5,0.4,1,0.5,1.5c0.1,0.5,0.2,0.9,0.1,1.4c-0.1,0.7-0.2,1.4-0.5,2c-0.2,0.6-0.5,1.1-0.9,1.6
		c-0.5,0.7-1.1,1.2-1.8,1.7c-0.5,0.3-1.1,0.6-1.7,0.7c-0.3,0-0.7,0.1-1,0.1C136.6,232.6,135.9,232.4,135.2,232z"/>
	<path class="st3" d="M145.6,231.7c-0.2-0.1-0.3-0.2-0.5-0.4c-0.3-0.4-0.6-0.8-0.6-1.4l-0.1-1.4c0-0.2,0-0.4,0-0.5
		c0-0.2-0.1-0.3,0-0.5c0,0,0-0.1,0-0.1c-0.1-0.3,0-0.7,0-1c0-0.5,0-1,0-1.5c0-0.2,0-0.5,0-0.8c0-0.3,0-0.6,0.1-0.8
		c0-0.2,0-0.5,0-0.8c0-0.3,0-0.6,0-0.9c0-0.2,0-0.4,0-0.6c0-0.5,0-0.9,0.1-1.3c0-0.5,0.1-0.9,0.1-1.3c0-0.3,0-0.5,0-0.8
		c0-0.3,0-0.6,0.1-0.9c0.1-0.4,0.1-0.8,0.3-1.2c0.1-0.3,0.3-0.6,0.5-0.8c0.4-0.5,0.8-0.8,1.4-0.9c0.5-0.1,1-0.1,1.5-0.2
		c0.9,0.1,1.8,0.4,2.6,0.9c0.8,0.5,1.4,1.1,1.8,1.9c0.2,0.3,0.4,0.8,0.4,1.2c0,0.1,0,0.2,0,0.4c0.1,1-0.1,2-0.6,2.9
		c-0.2,0.5-0.5,0.8-0.8,1.3c-0.4,0.6-0.9,1-1.4,1.5c-0.2,0.2-0.3,0.6-0.4,0.9c0.1,0.2,0.1,0.3,0.2,0.5c0.4,0.5,0.8,1,1.3,1.5
		c0.5,0.6,1,1.2,1.4,1.9c0.3,0.4,0.6,0.9,0.6,1.5c0,0.4-0.1,0.8-0.4,1c-0.2,0.2-0.3,0.4-0.6,0.5c-0.6,0.2-1.2,0.2-1.7-0.2
		c-0.5-0.3-0.8-0.8-1.1-1.2c-0.4-0.6-0.9-1.2-1.4-1.7l-0.4-0.5c-0.1-0.1-0.2-0.1-0.4-0.1s-0.1,0.1-0.1,0.2v0.1c0,0.5,0,1,0,1.5
		c0,0.2,0,0.5-0.1,0.8c-0.1,0.5-0.3,0.9-0.7,1.3c-0.2,0.2-0.4,0.3-0.7,0.3C146.1,231.8,145.8,231.8,145.6,231.7z M149.1,220.2
		c0.3-0.4,0.6-0.7,0.7-1.2c0.1-0.3,0.2-0.6,0.1-0.9c-0.1-0.5-0.7-0.9-1.3-0.8c-0.3,0-0.3,0-0.4,0.3c0,0.2-0.1,0.5-0.1,0.8
		c0,0.3,0,0.6,0,0.8c0,0.4,0,0.7-0.1,0.9c0,0.1,0,0.2,0,0.3c0,0.3,0.1,0.3,0.4,0.2C148.9,220.5,149,220.3,149.1,220.2z"/>
	<path class="st3" d="M162.7,231.7c-0.5-0.4-0.7-0.9-0.7-1.5c-0.1-1,0-2-0.1-2.9c0-0.2-0.1-0.4-0.2-0.6c-0.1-0.1-0.2-0.1-0.3-0.2
		c-0.4,0-0.8,0-1.2-0.1c-0.4,0-0.7,0-1.1,0c-0.1,0-0.2,0-0.3,0.1c-0.1,0.1-0.2,0.2-0.3,0.3c-0.1,0.1-0.1,0.2-0.2,0.3l-0.2,1.5
		c-0.1,0.3-0.1,0.7-0.2,1.1c-0.1,0.5-0.4,0.8-0.7,1.1c-0.1,0.1-0.3,0.2-0.5,0.2c-0.4,0.2-0.8,0.1-1.2-0.2c-0.3-0.3-0.6-0.7-0.7-1.1
		c-0.1-0.2-0.1-0.5,0-0.7v-0.1c0-0.3,0-0.7,0.1-1c0.1-0.6,0.1-1.1,0.2-1.6l0.3-1.6c0.1-0.6,0.3-1.2,0.4-1.8c0.3-1.2,0.7-2.4,1.1-3.6
		c0.2-0.7,0.6-1.5,0.8-2.2l0.9-2.3c0.2-0.7,0.6-1.3,1-1.8c0.2-0.3,0.6-0.5,0.9-0.5c0.6-0.1,1.1,0.1,1.5,0.5c0.3,0.3,0.6,0.7,0.8,1
		c0.3,0.5,0.6,1,0.8,1.5c0.2,0.6,0.5,1.2,0.6,1.8c0.1,0.4,0.2,0.8,0.2,1.1c0,0.4,0.2,0.8,0.1,1.1c0,0.2,0.1,0.3,0.1,0.5
		c0,0.1-0.1,0.3,0,0.4c0,0,0,0,0,0.1c0,0.4,0.1,0.8,0.1,1.2c0,0.6,0,1.3,0.1,1.9c0.1,0.8,0,1.6,0,2.4c0,0.3,0.1,0.7,0.1,1.1v1.1
		c0,0.4,0,0.9,0,1.3c0,0.4-0.1,0.8-0.2,1.2c-0.2,0.5-0.5,0.9-1.1,1C163.5,232.1,163,232,162.7,231.7z M161.7,222.7
		c0-0.1,0-0.3,0-0.5c0-0.2-0.1-0.5-0.1-0.7c0-0.4-0.1-0.7-0.1-1.1v0c-0.1-0.4-0.1-0.8-0.2-1.3c0-0.2-0.1-0.4-0.1-0.6
		c0-0.1,0-0.2-0.1-0.2c-0.1,0-0.2,0-0.3,0.1c0,0.1-0.1,0.1-0.1,0.1c-0.2,0.5-0.4,1-0.6,1.5c-0.2,0.7-0.5,1.3-0.6,1.9
		c-0.1,0.2-0.1,0.4-0.1,0.6c0,0.2,0.1,0.4,0.3,0.4c0.1,0.1,0.2,0.1,0.4,0.1s0.3,0,0.4,0c0.2,0.1,0.3,0,0.5,0
		C161.4,223.3,161.6,223,161.7,222.7z"/>
	<path class="st3" d="M166.5,229.5c-0.1-0.2-0.2-0.5-0.2-0.7c0-0.1-0.1-0.3,0-0.5v-0.1c-0.1-0.4,0-0.8,0-1.2c0-0.5,0-1,0-1.5
		c0-0.5,0-1,0-1.6V223c0-0.4,0-0.8,0-1.2c0-0.2,0.1-0.5,0-0.7c0-0.2,0-0.5,0-0.6c0-0.3,0-0.5,0-0.8c0-0.4,0-0.9,0.1-1.3v-0.6
		c0-0.5,0-0.9,0.1-1.4c0-0.4,0-0.7,0.1-1c0-0.1,0.1-0.2,0.1-0.3c0.2-0.4,0.5-0.8,0.9-0.9c0.1-0.1,0.3-0.1,0.4-0.1
		c0.5-0.1,0.9,0,1.2,0.3c0.3,0.2,0.6,0.5,0.7,0.9c0,0.2,0.1,0.4,0.1,0.5c0,0.3,0,0.6,0,0.9v0.6c0,0.5,0,0.9-0.1,1.4v0.7
		c0,0.5-0.1,0.9-0.1,1.3c0,0.4,0,0.8,0,1.2c0,0.4,0,0.8,0,1.2c0,0.2,0,0.5,0,0.7c0,0.4,0,0.7,0,1.1c0,0.4-0.1,0.7,0,1.1
		c0,0.2,0,0.3,0,0.5c0,0.2,0.1,0.4,0,0.5v0.1c0.1,0.3,0,0.7,0.1,1.1c0,0.8-0.2,1.5-0.7,2.1c-0.6,0.6-1.3,0.7-2,0.2
		C166.9,230.1,166.7,229.8,166.5,229.5z"/>
	<path class="st3" d="M171.6,232c-0.2-0.3-0.4-0.6-0.4-0.8c-0.1-0.5-0.1-0.9-0.1-1.3c0-0.2,0-0.5,0-0.7c0-0.3,0-0.6,0-0.9
		c0-0.2,0-0.5,0-0.7c0-0.4,0-0.8,0-1.2c0-0.5,0-1,0-1.5v-1.2c0-0.5,0-1,0-1.4c0-0.4,0-0.8,0-1.3c0-0.6,0.1-1.3,0.1-1.9l0.1-1.8
		c0.1-0.8,0.1-1.5,0.3-2.3c0.2-0.7,0.7-1.2,1.4-1.3c0.4-0.1,0.8,0.1,1.2,0.3c0.6,0.3,0.9,0.9,1.2,1.4l0.5,1.2
		c0.1,0.4,0.3,0.7,0.5,1.1c0.2,0.6,0.5,1.2,0.7,1.8c0.3,0.7,0.6,1.5,0.9,2.2c0.2,0.5,0.4,0.9,0.6,1.4c0,0,0,0.1,0,0.1
		c0.1,0.1,0.1,0.1,0.2,0.1c0.1,0,0.1-0.1,0.2-0.2v-1.8c0-0.4,0-0.7,0-1.1c0-0.3,0-0.6,0-0.9c0-0.2,0-0.4,0-0.6v-1.8
		c0-0.3,0-1.1,0-1.5c0-0.4,0-0.7,0.1-1c0.1-0.5,0.2-0.9,0.4-1.3c0.3-0.5,0.7-0.8,1.2-0.8c0.3,0,0.6,0.1,0.8,0.3
		c0.4,0.3,0.6,0.7,0.7,1.2c0,0.1,0.1,0.3,0.1,0.5c0.1,0.4,0.1,0.8,0.1,1.2c0,0.2,0,0.4,0,0.6l0,0.5v2.4c0,0.5,0,1,0,1.5v0.5
		c0,0.7,0,1.5,0,2.2l-0.1,2c0,0.7,0,1.3-0.1,2c-0.1,0.8-0.1,1.7-0.2,2.6c-0.1,0.4-0.1,0.9-0.2,1.3c-0.2,0.5-0.6,0.8-1.1,0.9
		c-0.5,0.1-1,0-1.4-0.5c-0.2-0.2-0.3-0.4-0.5-0.6c-0.1-0.3-0.4-0.5-0.6-0.8c-0.5-0.6-0.8-1.3-1.2-2c-0.3-0.5-0.5-1-0.8-1.6
		c-0.3-0.7-0.6-1.3-0.9-2c-0.1-0.4-0.4-0.7-0.5-1.1c0-0.1-0.1-0.1-0.1-0.1c-0.1-0.1-0.1-0.2-0.2-0.1c-0.1,0-0.2,0.1-0.2,0.2
		c0,0.1,0,0.3,0,0.4c0,0.4,0,0.8,0,1.2v2.8c0,0.4,0,0.8,0,1.2c0,0.3,0,0.7,0,1c0,0.2,0,0.5,0,0.8c0,0.4-0.2,0.8-0.4,1.2
		c-0.2,0.3-0.5,0.5-0.8,0.6C172.6,232.6,172.1,232.5,171.6,232z"/>
	<path class="st3" d="M184.3,231.9c-0.3-0.5-0.2-1.1,0-1.6c0.2-0.3,0.4-0.5,0.7-0.7l1-0.4c0.6-0.3,1.2-0.5,1.7-1
		c0.4-0.4,0.7-0.8,0.8-1.4c0-0.2,0.1-0.4,0.1-0.6c-0.1-0.6-0.3-1.2-0.6-1.7c-0.3-0.4-0.6-0.8-0.9-1.2c-0.6-0.6-1.2-1.1-1.7-1.7
		c-0.5-0.5-0.9-1.1-1.3-1.8c-0.1-0.3-0.2-0.7-0.3-1c-0.1-0.5-0.1-1-0.1-1.5c0-0.3,0.1-0.6,0.2-0.9c0.1-0.4,0.3-0.8,0.5-1.2
		c0.4-0.8,1-1.5,1.7-2c0.4-0.3,0.8-0.5,1.3-0.7c0.4-0.2,0.7-0.2,1.1-0.3c0.4-0.1,0.7-0.1,1.1-0.1c0.5,0.1,0.9,0.3,1.2,0.8
		c0.1,0.3,0.2,0.5,0.2,0.8c-0.1,0.6-0.3,1-0.8,1.3c-0.3,0.2-0.6,0.2-0.9,0.3c-0.4,0.1-0.8,0.3-1.1,0.5c-0.6,0.4-1,1-1.2,1.7
		c-0.2,0.6-0.1,1.2,0.4,1.7c0.7,0.8,1.5,1.5,2.2,2.2c0.7,0.8,1.3,1.6,1.8,2.5c0.2,0.6,0.4,1.1,0.5,1.7c0.1,0.3,0,0.6,0.1,0.8
		c0,0.8-0.1,1.4-0.4,2.1c-0.2,0.5-0.4,0.9-0.7,1.4c-0.5,0.7-0.8,1-1.6,1.5c-0.6,0.4-1.3,0.7-2,1c-0.2,0.1-0.4,0.1-0.6,0.2
		c-0.4,0.2-0.8,0.2-1.2,0.1C184.9,232.5,184.6,232.3,184.3,231.9z"/>
	<path class="st3" d="M194.2,233.8c0-0.2-0.1-0.3-0.1-0.5c0-0.1,0-0.3-0.1-0.5c0-0.1,0-0.2,0-0.2c0-0.1,0-0.1-0.1-0.2
		c-0.5,0-0.8-0.3-1-0.8c-0.1-0.4-0.1-0.9,0-1.3c0.1-0.3,0.3-0.5,0.5-0.7c0.2-0.1,0.4-0.2,0.6-0.3c0.1,0,0.3-0.1,0.5-0.1
		c0.7,0,1.1,0.4,1.3,0.9c0.1,0.2,0.2,0.4,0.2,0.6v0.2c0,0.1,0,0.2,0,0.3c0,0,0,0.1,0,0.1c-0.1,0.2-0.1,0.4-0.1,0.6
		c0,0.2-0.1,0.5-0.1,0.8c0,0.2-0.1,0.4-0.3,0.6c-0.1,0.1-0.2,0.2-0.2,0.4c-0.1,0.1-0.1,0.2-0.2,0.3
		C194.9,234.2,194.4,234.2,194.2,233.8z"/>
	<path class="st3" d="M205.5,232.3c-0.6-0.2-0.9-0.7-1.1-1.4c0-0.2,0-0.4-0.1-0.6c0-0.3,0-0.6-0.1-0.9c0,0,0,0,0-0.1v-0.1
		c0-0.6,0-1.2-0.1-1.8c0.1-1.1,0-2.2,0.1-3.3c0-0.7,0-1.3,0.1-2c0.1-0.8,0-1.6,0.1-2.4c0-0.5,0-1,0.1-1.6c0.1-0.6,0-1.2,0.1-1.8
		c0.1-0.5,0-1.1,0.1-1.6c0-0.4,0.1-0.8,0.2-1.2c0.1-0.2,0.4-0.5,0.6-0.6c0.2-0.2,0.5-0.3,0.7-0.5c0.3-0.2,0.6-0.2,0.9-0.3
		c0.1,0,0.3,0,0.4,0c0,0,0.1,0,0.1,0c0.7,0.1,1.3,0,2,0c0,0,0.1,0,0.2,0c0.3-0.1,0.6-0.1,0.9,0c0.5,0,1,0,1.4,0.3
		c0.4,0.2,0.7,0.6,0.8,1c0.1,0.4,0,0.7-0.1,1c-0.2,0.4-0.5,0.7-0.8,0.8c-0.4,0.2-0.8,0.2-1.2,0.2h-1.3c-0.7,0-0.9,0.3-1.1,0.8
		c-0.2,0.4-0.2,0.8-0.2,1.2v0.7c0,0.1,0,0.2,0,0.3c-0.1,0.5,0,0.8,0.3,1.2c0.1,0.1,0.3,0.2,0.5,0.2c0.7,0,1.3,0.1,2,0.1
		c0.5,0,0.9,0.2,1.3,0.5c0.4,0.4,0.6,0.8,0.5,1.4c0,0.3-0.1,0.6-0.3,0.8c-0.4,0.5-0.9,0.7-1.5,0.7c-0.7,0-1.4,0-2.2,0
		c-0.3,0-0.5,0.1-0.6,0.4c-0.1,0.2-0.2,0.5-0.2,0.8c0,0.9-0.1,1.9-0.1,2.8v1.6c0,0.5,0,0.9-0.1,1.3c-0.1,0.5-0.2,0.9-0.4,1.3
		c-0.2,0.3-0.4,0.5-0.8,0.6C206.1,232.4,205.8,232.5,205.5,232.3z"/>
	<path class="st3" d="M214.1,229.5c-0.1-0.2-0.2-0.5-0.2-0.7c0-0.1-0.1-0.3,0-0.5v-0.1c-0.1-0.4,0-0.8,0-1.2c0-0.5,0-1,0-1.5
		c0-0.5,0-1,0-1.6V223c0-0.4,0-0.8,0-1.2c0-0.2,0.1-0.5,0-0.7s0-0.5,0-0.6c0-0.3,0-0.5,0-0.8c0-0.4,0-0.9,0.1-1.3v-0.6
		c0-0.5,0-0.9,0.1-1.4c0-0.4,0-0.7,0.1-1c0-0.1,0.1-0.2,0.1-0.3c0.2-0.4,0.5-0.8,0.9-0.9c0.1-0.1,0.3-0.1,0.4-0.1
		c0.5-0.1,0.9,0,1.2,0.3c0.3,0.2,0.6,0.5,0.7,0.9c0,0.2,0.1,0.4,0.1,0.5c0,0.3,0,0.6,0,0.9v0.6c0,0.5,0,0.9-0.1,1.4v0.7
		c0,0.5-0.1,0.9-0.1,1.3c0,0.4,0,0.8,0,1.2c0,0.4,0,0.8,0,1.2c0,0.2,0,0.5,0,0.7c0,0.4,0,0.7,0,1.1c0,0.4-0.1,0.7,0,1.1
		c0,0.2,0,0.3,0,0.5c0,0.2,0.1,0.4,0,0.5v0.1c0.1,0.3,0,0.7,0.1,1.1c0,0.8-0.2,1.5-0.7,2.1c-0.6,0.6-1.3,0.7-2,0.2
		C214.5,230.1,214.3,229.8,214.1,229.5z"/>
	<path class="st3" d="M220.3,231.9c-0.2-0.2-0.4-0.5-0.5-0.8c-0.1-0.2-0.2-0.3-0.4-0.5c-0.3-0.2-0.5-0.6-0.6-1c0-0.2,0-0.4-0.1-0.6
		c-0.1-1.1,0-2.1,0-2.9c0-1.1-0.1-2,0-2.8c0.1-1,0-2,0.1-2.9c0-0.5,0-1.1,0.1-1.6c0-0.5,0-0.9,0.1-1.4c0-0.3,0-0.6,0.1-0.9
		c0-0.2,0-0.5,0-0.7c0-0.2,0.1-0.5,0.1-0.7c0-0.5,0.1-0.9,0.3-1.3c0.2-0.5,0.6-0.8,1.1-1c0.8-0.3,1.6-0.4,2.4-0.3
		c0.7,0.1,1.4,0.3,2,0.7c0.6,0.4,1,0.8,1.3,1.4c0.3,0.5,0.5,0.9,0.6,1.4c0,0.2,0.1,0.4,0.1,0.6c0,0.2,0.1,0.3,0.1,0.5
		c0,0.7-0.1,1.4-0.4,2.1c-0.3,0.8-0.8,1.6-1.3,2.3c-0.2,0.4-0.6,0.7-0.9,1c0,0-0.1,0.1-0.1,0.1c-0.2,0.3-0.2,0.5,0,0.8
		c0.5,0.6,0.9,1.2,1.2,1.9c0.2,0.5,0.4,0.9,0.5,1.4c0.1,0.5,0.2,0.9,0.2,1.4c0,0.7-0.2,1.5-0.5,2.1c-0.2,0.4-0.4,0.7-0.6,0.9
		c-0.3,0.4-0.7,0.6-1,0.9c-0.3,0.2-0.7,0.3-1.1,0.5c-0.5,0.1-0.9,0.2-1.4,0.1C221.1,232.4,220.6,232.2,220.3,231.9z M222.7,228.8
		l0.1-0.2c0.3-0.4,0.2-0.9,0.2-1.4c0-0.3-0.1-0.6-0.2-0.8c-0.1-0.3-0.2-0.5-0.5-0.7c-0.1-0.1-0.1-0.1-0.2,0c-0.1,0-0.1,0.1-0.1,0.1
		c0,0.1,0,0.2,0,0.3v0.9c-0.1,0.5,0.1,1.1,0.1,1.8v0.1c0,0.1,0.1,0.1,0.1,0.2C222.3,229,222.5,229,222.7,228.8z M222.6,219.4
		c0.4-0.4,0.7-0.9,0.9-1.4c0.2-0.4,0.3-0.7,0.3-1.2c0-0.5-0.2-0.8-0.5-1.1c-0.1-0.1-0.3-0.2-0.4-0.2c-0.2,0-0.5,0.2-0.6,0.4
		c-0.1,0.2-0.1,0.5-0.1,0.8c-0.1,0.4,0,0.8-0.1,1.1c0,0.2,0,0.4,0,0.6c0,0.2,0,0.5,0,0.7c0,0.2,0.1,0.2,0.2,0.2
		C222.5,219.5,222.5,219.4,222.6,219.4z"/>
	<path class="st3" d="M230.2,231.3c-0.9-0.3-1.4-0.8-1.8-1.7c-0.2-0.5-0.2-0.9-0.3-1.4c-0.1-0.7,0-1.4-0.1-1.9c0-0.8,0-1.3,0-1.9
		c0-0.6,0-1.2,0.1-1.8c0-0.4,0-0.8,0.1-1.2c0-0.4,0-0.9,0.1-1.3c0.1-0.8,0.1-1.6,0-2.5c0-0.5,0-0.9-0.1-1.4v-0.2
		c-0.1-0.1-0.1-0.3,0-0.5c0-0.1,0-0.2,0-0.3c-0.1-0.3,0-0.7,0.1-1c0.2-0.5,0.7-0.8,1.2-0.9c0.3-0.1,0.7-0.2,1.1-0.2
		c0.3-0.1,0.7,0,1.1-0.1c0,0,0,0,0.1,0c0.9,0,1.9-0.1,2.8-0.1c0.7,0.1,1.3,0.3,1.7,0.9c0.3,0.5,0.3,1,0,1.6
		c-0.3,0.5-0.8,0.7-1.3,0.8c-0.2,0.1-0.4,0.1-0.7,0.1c-0.6,0-1.3,0.1-1.9,0.1c-0.4,0-0.7,0.3-0.7,0.7c0,0.8,0,1.6,0,2.5
		c0,0.2,0,0.4,0,0.6c-0.1,0.2,0,0.5,0.1,0.7c0.1,0.1,0.2,0.2,0.3,0.2c0.4,0,0.7,0,1.1,0c0.5,0,1,0.1,1.5,0.3
		c0.6,0.2,0.9,0.7,0.9,1.3c0.1,0.7-0.5,1.3-1.2,1.5c-0.4,0.1-0.8,0.2-1.3,0.2c-0.3,0-0.6,0-0.9,0h-0.2c-0.5,0.1-0.6,0.3-0.6,0.8v1.8
		c0,0.3,0.1,0.5,0.1,0.8c0,0.4,0.3,0.7,0.8,0.7c0.4,0,0.8,0,1.2,0c0.5,0,1,0.1,1.4,0.4c0.4,0.2,0.6,0.6,0.7,1c0,0.4-0.1,0.6-0.3,0.9
		c-0.3,0.4-0.7,0.5-1.2,0.6c-0.3,0-0.7,0.1-1,0.1c-0.4,0-0.8,0.1-1.2,0C231.4,231.5,230.8,231.5,230.2,231.3z"/>
	<path class="st3" d="M238.9,231.7c-0.2-0.1-0.3-0.2-0.5-0.4c-0.3-0.4-0.6-0.8-0.6-1.4l-0.1-1.4c0-0.2,0-0.4,0-0.5
		c0-0.2-0.1-0.3,0-0.5c0,0,0-0.1,0-0.1c-0.1-0.3,0-0.7,0-1c0-0.5,0-1,0-1.5c0-0.2,0-0.5,0-0.8c0-0.3,0-0.6,0.1-0.8
		c0-0.2,0-0.5,0-0.8c0-0.3,0-0.6,0-0.9c0-0.2,0-0.4,0-0.6c0-0.5,0-0.9,0.1-1.3c0-0.5,0.1-0.9,0.1-1.3c0-0.3,0-0.5,0-0.8
		c0-0.3,0-0.6,0.1-0.9c0.1-0.4,0.1-0.8,0.3-1.2c0.1-0.3,0.3-0.6,0.5-0.8c0.3-0.5,0.8-0.8,1.4-0.9c0.5-0.1,1-0.1,1.5-0.2
		c0.9,0.1,1.8,0.4,2.6,0.9c0.8,0.5,1.4,1.1,1.8,1.9c0.2,0.3,0.4,0.8,0.4,1.2c0,0.1,0,0.2,0,0.4c0.1,1-0.1,2-0.6,2.9
		c-0.2,0.5-0.5,0.8-0.8,1.3c-0.4,0.6-0.9,1-1.4,1.5c-0.2,0.2-0.3,0.6-0.4,0.9c0.1,0.2,0.1,0.3,0.2,0.5c0.4,0.5,0.8,1,1.3,1.5
		c0.5,0.6,1,1.2,1.4,1.9c0.3,0.4,0.6,0.9,0.6,1.5c0,0.4-0.1,0.8-0.4,1c-0.2,0.2-0.3,0.4-0.6,0.5c-0.6,0.2-1.2,0.2-1.7-0.2
		c-0.5-0.3-0.8-0.8-1.1-1.2c-0.4-0.6-0.9-1.2-1.4-1.7l-0.4-0.5c-0.1-0.1-0.2-0.1-0.3-0.1c-0.1,0-0.1,0.1-0.1,0.2v0.1
		c0,0.5,0,1,0,1.5c0,0.2,0,0.5-0.1,0.8c-0.1,0.5-0.3,0.9-0.7,1.3c-0.2,0.2-0.4,0.3-0.7,0.3C239.4,231.8,239.2,231.8,238.9,231.7z
		 M242.5,220.2c0.3-0.4,0.6-0.7,0.7-1.2c0.1-0.3,0.2-0.6,0.1-0.9c-0.1-0.5-0.7-0.9-1.3-0.8c-0.3,0-0.3,0-0.4,0.3
		c0,0.2-0.1,0.5-0.1,0.8c0,0.3,0,0.6,0,0.8c0,0.4,0,0.7-0.1,0.9c0,0.1,0,0.2,0,0.3c0,0.3,0.1,0.3,0.4,0.2
		C242.2,220.5,242.3,220.3,242.5,220.2z"/>
	<path class="st3" d="M248.8,231.9c-0.3-0.5-0.2-1.1,0-1.6c0.2-0.3,0.4-0.5,0.7-0.7l1-0.4c0.6-0.3,1.2-0.5,1.7-1
		c0.4-0.4,0.7-0.8,0.8-1.4c0-0.2,0.1-0.4,0.1-0.6c-0.1-0.6-0.3-1.2-0.6-1.7c-0.3-0.4-0.6-0.8-0.9-1.2c-0.6-0.6-1.2-1.1-1.7-1.7
		c-0.5-0.5-0.9-1.1-1.3-1.8c-0.1-0.3-0.2-0.7-0.3-1c-0.1-0.5-0.1-1-0.1-1.5c0-0.3,0.1-0.6,0.2-0.9c0.1-0.4,0.3-0.8,0.5-1.2
		c0.4-0.8,1-1.5,1.7-2c0.4-0.3,0.8-0.5,1.3-0.7c0.3-0.2,0.7-0.2,1.1-0.3c0.4-0.1,0.7-0.1,1.1-0.1c0.5,0.1,0.9,0.3,1.2,0.8
		c0.1,0.3,0.2,0.5,0.2,0.8c-0.1,0.6-0.3,1-0.8,1.3c-0.3,0.2-0.6,0.2-0.9,0.3c-0.4,0.1-0.8,0.3-1.1,0.5c-0.6,0.4-1,1-1.2,1.7
		c-0.2,0.6-0.1,1.2,0.3,1.7c0.7,0.8,1.5,1.5,2.2,2.2c0.7,0.8,1.3,1.6,1.8,2.5c0.2,0.6,0.4,1.1,0.5,1.7c0.1,0.3,0,0.6,0.1,0.8
		c0,0.8-0.1,1.4-0.4,2.1c-0.2,0.5-0.4,0.9-0.7,1.4c-0.5,0.7-0.8,1-1.6,1.5c-0.6,0.4-1.3,0.7-2,1c-0.2,0.1-0.4,0.1-0.6,0.2
		c-0.4,0.2-0.8,0.2-1.2,0.1C249.3,232.5,249,232.3,248.8,231.9z"/>
	<path class="st3" d="M272.2,231.7c-0.5-0.4-0.7-0.9-0.7-1.5c-0.1-1,0-2-0.1-2.9c0-0.2-0.1-0.4-0.2-0.6c-0.1-0.1-0.2-0.1-0.3-0.2
		c-0.4,0-0.8,0-1.2-0.1c-0.4,0-0.7,0-1.1,0c-0.1,0-0.2,0-0.3,0.1c-0.1,0.1-0.2,0.2-0.3,0.3c-0.1,0.1-0.1,0.2-0.2,0.3l-0.2,1.5
		c-0.1,0.3-0.1,0.7-0.2,1.1c-0.1,0.5-0.4,0.8-0.7,1.1c-0.1,0.1-0.3,0.2-0.5,0.2c-0.4,0.2-0.8,0.1-1.2-0.2c-0.3-0.3-0.6-0.7-0.7-1.1
		c-0.1-0.2-0.1-0.5,0-0.7v-0.1c0-0.3,0-0.7,0.1-1c0.1-0.6,0.1-1.1,0.2-1.6l0.3-1.6c0.1-0.6,0.3-1.2,0.4-1.8c0.3-1.2,0.7-2.4,1.1-3.6
		c0.2-0.7,0.6-1.5,0.8-2.2l0.9-2.3c0.2-0.7,0.6-1.3,1-1.8c0.2-0.3,0.6-0.5,0.9-0.5c0.6-0.1,1.1,0.1,1.5,0.5c0.3,0.3,0.6,0.7,0.8,1
		c0.3,0.5,0.6,1,0.8,1.5c0.2,0.6,0.5,1.2,0.6,1.8c0.1,0.4,0.2,0.8,0.2,1.1c0,0.4,0.2,0.8,0.1,1.1c0,0.2,0.1,0.3,0.1,0.5
		c0,0.1-0.1,0.3,0,0.4c0,0,0,0,0,0.1c0,0.4,0.1,0.8,0.1,1.2c0,0.6,0,1.3,0.1,1.9c0.1,0.8,0,1.6,0,2.4c0,0.3,0.1,0.7,0.1,1.1v1.1
		c0,0.4,0,0.9,0,1.3c0,0.4-0.1,0.8-0.2,1.2c-0.2,0.5-0.5,0.9-1,1C272.9,232.1,272.5,232,272.2,231.7z M271.2,222.7
		c0-0.1,0-0.3,0-0.5c0-0.2-0.1-0.5-0.1-0.7c0-0.4-0.1-0.7-0.1-1.1v0c-0.1-0.4-0.1-0.8-0.2-1.3c0-0.2-0.1-0.4-0.1-0.6
		c0-0.1,0-0.2-0.1-0.2c-0.1,0-0.2,0-0.3,0.1c0,0.1-0.1,0.1-0.1,0.1c-0.2,0.5-0.4,1-0.6,1.5c-0.2,0.7-0.5,1.3-0.6,1.9
		c-0.1,0.2-0.1,0.4-0.1,0.6c0,0.2,0.1,0.4,0.3,0.4c0.1,0.1,0.2,0.1,0.4,0.1s0.3,0,0.4,0c0.2,0.1,0.3,0,0.5,0
		C270.9,223.3,271.1,223,271.2,222.7z"/>
	<path class="st3" d="M276.2,232c-0.2-0.3-0.4-0.6-0.4-0.8c-0.1-0.5-0.1-0.9-0.1-1.3c0-0.2,0-0.5,0-0.7c0-0.3,0-0.6,0-0.9
		c0-0.2,0-0.5,0-0.7c0-0.4,0-0.8,0-1.2c0-0.5,0-1,0-1.5v-1.2c0-0.5,0-1,0-1.4c0-0.4,0-0.8,0-1.3c0-0.6,0.1-1.3,0.1-1.9l0.1-1.8
		c0.1-0.8,0.1-1.5,0.4-2.3c0.2-0.7,0.7-1.2,1.4-1.3c0.4-0.1,0.8,0.1,1.2,0.3c0.6,0.3,0.9,0.9,1.2,1.4l0.5,1.2
		c0.1,0.4,0.3,0.7,0.5,1.1c0.2,0.6,0.5,1.2,0.7,1.8c0.3,0.7,0.6,1.5,0.9,2.2c0.2,0.5,0.4,0.9,0.6,1.4c0,0,0,0.1,0,0.1
		c0.1,0.1,0.1,0.1,0.2,0.1c0.1,0,0.1-0.1,0.2-0.2v-1.8c0-0.4,0-0.7,0-1.1c0-0.3,0-0.6,0-0.9c0-0.2,0-0.4,0-0.6v-1.8
		c0-0.3,0-1.1,0-1.5c0-0.4,0-0.7,0.1-1c0.1-0.5,0.2-0.9,0.4-1.3c0.3-0.5,0.7-0.8,1.2-0.8c0.3,0,0.6,0.1,0.8,0.3
		c0.4,0.3,0.6,0.7,0.7,1.2c0,0.1,0.1,0.3,0.1,0.5c0.1,0.4,0.1,0.8,0.1,1.2c0,0.2,0,0.4,0,0.6l0,0.5v2.4c0,0.5,0,1,0,1.5v0.5
		c0,0.7,0,1.5,0,2.2l-0.1,2c0,0.7,0,1.3-0.1,2c-0.1,0.8-0.1,1.7-0.2,2.6c-0.1,0.4-0.1,0.9-0.2,1.3c-0.2,0.5-0.6,0.8-1.1,0.9
		c-0.5,0.1-1,0-1.4-0.5c-0.2-0.2-0.3-0.4-0.5-0.6c-0.1-0.3-0.3-0.5-0.6-0.8c-0.5-0.6-0.8-1.3-1.2-2c-0.3-0.5-0.5-1-0.8-1.6
		c-0.3-0.7-0.6-1.3-0.9-2c-0.1-0.4-0.4-0.7-0.5-1.1c0-0.1-0.1-0.1-0.1-0.1c-0.1-0.1-0.1-0.2-0.2-0.1c-0.1,0-0.2,0.1-0.2,0.2
		c0,0.1,0,0.3,0,0.4c0,0.4,0,0.8,0,1.2v2.8c0,0.4,0,0.8,0,1.2c0,0.3,0,0.7,0,1c0,0.2,0,0.5,0,0.8c0,0.4-0.2,0.8-0.4,1.2
		c-0.2,0.3-0.5,0.5-0.8,0.6C277.2,232.6,276.6,232.5,276.2,232z"/>
	<path class="st3" d="M288.9,231.7c-0.3-0.3-0.5-0.8-0.5-1.2c-0.1-0.7-0.1-1.5-0.1-2.2c0-0.2,0-0.5,0-0.8c0.1-1.6,0-3.3,0.1-5
		c0.1-0.6,0-1.2,0.1-1.8c0-0.4,0-0.7,0.1-1.1c0.1-0.4,0-0.8,0.1-1.2l0,0c0-0.4,0.1-0.8,0.1-1.2c0-0.2,0.1-0.4,0.1-0.5
		c0-0.1-0.1-0.3,0-0.5c0,0,0-0.1,0-0.1c0-0.4,0.1-0.7,0.1-1c0-0.4,0.1-0.7,0.2-1c0.1-0.6,0.4-1,0.9-1.3c0.3-0.2,0.6-0.3,1-0.4
		c0.1-0.1,0.3,0,0.5,0c0.7,0,1.4,0.1,2.1,0.3c0.4,0.2,0.8,0.3,1.2,0.6c0.6,0.3,1.2,0.6,1.8,1c0.3,0.2,0.6,0.5,0.9,0.7
		c0.4,0.4,0.8,0.8,1.2,1.2c0.4,0.5,0.7,0.9,0.9,1.4c0.3,0.6,0.6,1.1,0.7,1.8c0.1,0.3,0.2,0.7,0.2,1.1c0,0.2,0.1,0.4,0.1,0.6
		c-0.1,0.9-0.2,1.9-0.6,2.7c-0.1,0.3-0.2,0.6-0.4,0.9c-0.2,0.4-0.4,0.8-0.7,1.2c-0.2,0.3-0.3,0.6-0.6,0.8l-0.7,0.9
		c-0.5,0.5-0.9,1.1-1.5,1.6c-0.6,0.5-1.2,1-1.9,1.4c-0.4,0.2-0.8,0.4-1.2,0.6c-0.7,0.3-1.5,0.6-2.2,0.8c-0.4,0.1-0.8,0.1-1.2,0
		C289.3,232.1,289.1,231.9,288.9,231.7z M292.1,228.6c0.4-0.2,0.7-0.4,1-0.7c0.8-0.8,1.6-1.6,2.3-2.5c0.6-0.8,1.2-1.7,1.5-2.7
		c0.1-0.3,0.3-0.7,0.3-1c0-0.4,0.1-0.8-0.1-1.3c-0.1-0.4-0.2-0.7-0.4-1c-0.2-0.4-0.5-0.8-0.8-1.2c-0.4-0.5-0.8-0.9-1.3-1.2
		c-0.4-0.3-0.9-0.5-1.3-0.8c-0.2-0.1-0.5-0.2-0.7-0.2c-0.2-0.1-0.5,0.1-0.6,0.3c0,0,0,0.1,0,0.1c0,0.2-0.1,0.4-0.1,0.6
		c0,0.4-0.1,0.7-0.1,1.1v0.1c-0.1,0.3,0,0.7-0.1,1.1c-0.1,0.3,0,0.6-0.1,0.8c0,0.4,0,0.8-0.1,1.3c0,1.5-0.1,3-0.1,4.4v2.6
		c0,0.2,0.3,0.4,0.5,0.3L292.1,228.6z"/>
	<path class="st3" d="M309.9,231.7c-0.2-0.1-0.3-0.2-0.5-0.4c-0.3-0.4-0.6-0.8-0.6-1.4l-0.1-1.4c0-0.2,0-0.4,0-0.5
		c0-0.2-0.1-0.3,0-0.5c0,0,0-0.1,0-0.1c-0.1-0.3,0-0.7,0-1c0-0.5,0-1,0-1.5c0-0.2,0-0.5,0-0.8c0-0.3,0-0.6,0.1-0.8
		c0-0.2,0-0.5,0-0.8c0-0.3,0-0.6,0-0.9c0-0.2,0-0.4,0-0.6c0-0.5,0-0.9,0.1-1.3c0-0.5,0.1-0.9,0.1-1.3c0-0.3,0-0.5,0-0.8
		c0-0.3,0-0.6,0.1-0.9c0.1-0.4,0.1-0.8,0.3-1.2c0.1-0.3,0.3-0.6,0.5-0.8c0.3-0.5,0.8-0.8,1.4-0.9c0.5-0.1,1-0.1,1.5-0.2
		c0.9,0.1,1.8,0.4,2.6,0.9c0.8,0.5,1.4,1.1,1.8,1.9c0.2,0.3,0.4,0.8,0.4,1.2c0,0.1,0,0.2,0,0.4c0.1,1-0.1,2-0.6,2.9
		c-0.2,0.5-0.5,0.8-0.8,1.3c-0.4,0.6-0.9,1-1.4,1.5c-0.2,0.2-0.3,0.6-0.4,0.9c0.1,0.2,0.1,0.3,0.2,0.5c0.4,0.5,0.8,1,1.3,1.5
		c0.5,0.6,1,1.2,1.4,1.9c0.3,0.4,0.6,0.9,0.6,1.5c0,0.4-0.1,0.8-0.4,1c-0.2,0.2-0.3,0.4-0.6,0.5c-0.6,0.2-1.2,0.2-1.7-0.2
		c-0.5-0.3-0.8-0.8-1.1-1.2c-0.4-0.6-0.9-1.2-1.4-1.7l-0.4-0.5c-0.1-0.1-0.2-0.1-0.3-0.1c-0.1,0-0.1,0.1-0.1,0.2v0.1
		c0,0.5,0,1,0,1.5c0,0.2,0,0.5-0.1,0.8c-0.1,0.5-0.3,0.9-0.7,1.3c-0.2,0.2-0.4,0.3-0.7,0.3C310.4,231.8,310.1,231.8,309.9,231.7z
		 M313.4,220.2c0.3-0.4,0.6-0.7,0.7-1.2c0.1-0.3,0.2-0.6,0.1-0.9c-0.1-0.5-0.7-0.9-1.3-0.8c-0.3,0-0.3,0-0.4,0.3
		c0,0.2-0.1,0.5-0.1,0.8c0,0.3,0,0.6,0,0.8c0,0.4,0,0.7-0.1,0.9c0,0.1,0,0.2,0,0.3c0,0.3,0.1,0.3,0.4,0.2
		C313.2,220.5,313.3,220.3,313.4,220.2z"/>
	<path class="st3" d="M321.2,231.3c-0.9-0.3-1.4-0.8-1.8-1.7c-0.2-0.5-0.2-0.9-0.3-1.4c-0.1-0.7,0-1.4-0.1-1.9c0-0.8,0-1.3,0-1.9
		c0-0.6,0-1.2,0.1-1.8c0-0.4,0-0.8,0.1-1.2c0-0.4,0-0.9,0.1-1.3c0.1-0.8,0.1-1.6,0-2.5c0-0.5,0-0.9-0.1-1.4v-0.2
		c-0.1-0.1-0.1-0.3,0-0.5c0-0.1,0-0.2,0-0.3c-0.1-0.3,0-0.7,0.1-1c0.2-0.5,0.7-0.8,1.2-0.9c0.3-0.1,0.7-0.2,1.1-0.2
		c0.3-0.1,0.7,0,1.1-0.1c0,0,0,0,0.1,0c0.9,0,1.9-0.1,2.8-0.1c0.7,0.1,1.3,0.3,1.7,0.9c0.3,0.5,0.3,1,0,1.6
		c-0.3,0.5-0.8,0.7-1.3,0.8c-0.2,0.1-0.4,0.1-0.7,0.1c-0.6,0-1.3,0.1-1.9,0.1c-0.4,0-0.7,0.3-0.7,0.7c0,0.8,0,1.6,0,2.5
		c0,0.2,0,0.4,0,0.6c-0.1,0.2,0,0.5,0.1,0.7c0.1,0.1,0.2,0.2,0.3,0.2c0.4,0,0.7,0,1.1,0c0.5,0,1,0.1,1.5,0.3
		c0.6,0.2,0.9,0.7,0.9,1.3c0.1,0.7-0.5,1.3-1.2,1.5c-0.4,0.1-0.8,0.2-1.3,0.2c-0.3,0-0.6,0-0.9,0h-0.2c-0.5,0.1-0.6,0.3-0.6,0.8v1.8
		c0,0.3,0.1,0.5,0.1,0.8c0,0.4,0.3,0.7,0.8,0.7c0.4,0,0.8,0,1.2,0c0.5,0,1,0.1,1.4,0.4c0.4,0.2,0.6,0.6,0.7,1c0,0.4-0.1,0.6-0.3,0.9
		c-0.3,0.4-0.7,0.5-1.2,0.6c-0.3,0-0.7,0.1-1,0.1c-0.4,0-0.8,0.1-1.2,0C322.4,231.5,321.8,231.5,321.2,231.3z"/>
	<path class="st3" d="M329.5,232.1c-0.6-0.4-0.9-1.2-0.8-1.8v-0.1c0-0.4,0-0.7,0-0.9c0-0.1,0-0.3,0-0.4c0-0.2,0-0.4,0-0.6
		c0-0.3,0.1-0.6,0-0.9c0-0.1,0.1-0.3,0-0.5c0-0.1-0.1-0.2,0-0.4c0,0,0-0.1,0-0.1c0-0.3,0-0.7,0-1.1c0-0.3,0-0.6,0-0.8
		c0-0.1,0-0.3,0-0.5c0-0.1-0.1-0.3,0-0.4v-0.1c-0.1-0.3,0-0.6,0-0.9c0-0.2,0.1-0.3,0-0.5v-0.4c0.1-0.2,0-0.4,0-0.6
		c0-0.3,0-0.6,0-0.9c0-0.3,0-0.6,0-0.8c0-0.2,0-0.4,0-0.6c0-0.3,0.1-0.6,0-0.8c0-0.1,0.1-0.2,0-0.4c0-0.1,0-0.2,0-0.4v-0.2
		c0-0.3,0-0.6,0-0.9c0-0.2,0-0.5,0-0.7c0-0.6,0-1.2,0.3-1.8c0.2-0.5,0.6-0.9,1.2-1.2c0.5-0.2,1.1-0.4,1.7-0.4c0.7,0,1.4,0.1,2,0.3
		c0.7,0.2,1.4,0.5,1.9,0.9c0.3,0.3,0.7,0.6,0.9,1c0.3,0.4,0.5,0.7,0.7,1.2c0.1,0.2,0.2,0.5,0.3,0.8c0.1,0.2,0.1,0.6,0.2,0.8
		c0.1,0.1,0.1,0.3,0.1,0.5c0,0.6,0,1.2-0.1,1.9c-0.1,0.9-0.5,1.8-0.9,2.7c-0.2,0.4-0.5,0.8-0.8,1.2c-0.4,0.5-0.9,1-1.5,1.4
		c-0.4,0.3-0.8,0.5-1.3,0.7c-0.2,0.1-0.3,0.1-0.5,0.1c-0.3,0-0.5,0.2-0.6,0.5c-0.2,0.2-0.3,0.5-0.3,0.8c0,0-0.1,0.1-0.1,0.1
		c0.1,0.3,0,0.6,0,0.8c0,0.3,0,0.6,0,0.8v0.1c0,0.4,0.1,1.2,0,1.3c0,0.1,0,0.1,0,0.2c0,0.3,0,0.7-0.1,1.1c-0.2,0.6-0.6,1-1.2,1.2
		C330.4,232.5,329.9,232.4,329.5,232.1z M332.8,222.4c0.1,0,0.2,0,0.4-0.1c0.2-0.1,0.4-0.3,0.5-0.4c0.5-0.5,0.7-0.9,0.9-1.5
		c0.2-0.8,0.4-1.6,0.3-2.4c0-0.1,0-0.3,0-0.5c0-0.2-0.1-0.4-0.2-0.6c-0.2-0.4-0.5-0.7-0.8-1c-0.2-0.2-0.4-0.2-0.6-0.3
		c-0.1,0-0.3,0-0.3,0c-0.2,0.2-0.4,0.3-0.4,0.6c0,0.6-0.1,1.1-0.1,1.7c0,0,0,0.1,0,0.1c-0.1,0.2,0,0.5,0,0.7c0,0.3,0,0.6,0,0.9v0.6
		c0,0.4-0.1,0.7,0,1.1v0.1c-0.1,0.3,0,0.6,0,0.8c0,0.1,0.1,0.2,0.2,0.3C332.6,222.5,332.7,222.4,332.8,222.4z"/>
	<path class="st3" d="M346.4,232.4c-0.5-0.2-1-0.2-1.5-0.2c-0.5-0.1-0.9-0.1-1.4-0.2c-0.3,0-0.7,0-1-0.1c-0.5,0-0.9-0.2-1.3-0.3
		c-0.3-0.1-0.6-0.2-0.8-0.4c-0.4-0.2-0.7-0.6-0.8-1c-0.1-0.4-0.2-1.1-0.1-1.6c0-0.2,0-0.3,0-0.5c0-0.3,0-0.6,0-0.9
		c0-0.4,0-0.7,0-1.1c0-0.2,0-0.5,0-0.8c0-0.3,0-0.6,0-0.9c0,0,0-0.1,0-0.1c0-0.4,0-0.7,0-1v-0.9c0-0.3,0-0.7,0-1c0-0.4,0-0.7,0-1
		v-0.2c0-0.4,0-0.8,0-1.2c0-0.2,0-0.5,0-0.8c0-0.3,0-0.7,0-1c0-0.2,0-0.5,0-0.8c0-0.2,0-0.4,0-0.7v-0.9c0-0.5,0.1-1,0.2-1.6
		c0.2-0.5,0.5-0.8,1-0.9c0.5-0.1,1.1,0,1.4,0.4c0.2,0.2,0.3,0.5,0.4,0.8c0.1,0.3,0.1,0.6,0.2,1c0.1,0.4,0,0.8,0,1.2
		c0,0.5,0,0.9-0.1,1.4c0,0.2,0,0.5,0,0.8c0,0.2,0,0.5-0.1,0.8v0.6c0,0.3,0,0.6,0,0.8c0,0.4,0,0.8,0,1.2v0.1c0.1,0.4,0,0.8,0,1.2
		c0,0.1-0.1,0.3,0,0.5c0,0.1,0.1,0.3,0,0.5v0.1c0,0.4,0,0.8,0,1.2v0.9c0,0.3,0,0.6-0.1,0.9c0,0.2,0,0.3,0,0.5c0,0.3-0.1,0.6,0,0.9
		c0,0.3,0.2,0.5,0.4,0.6c0.2,0.1,0.5,0.2,0.7,0.2h0.7c0.6,0,1.3,0,1.9,0.1c0.1,0,0.1,0,0.2,0c0.7-0.1,1.4,0.1,2,0.5
		c0.3,0.2,0.5,0.5,0.6,0.9c0.1,0.5,0,1-0.4,1.4c-0.3,0.3-0.6,0.5-1,0.5C347.3,232.5,346.9,232.5,346.4,232.4z"/>
	<path class="st3" d="M358.1,231.7c-0.5-0.4-0.7-0.9-0.7-1.5c-0.1-1,0-2-0.1-2.9c0-0.2-0.1-0.4-0.2-0.6c-0.1-0.1-0.2-0.1-0.3-0.2
		c-0.4,0-0.8,0-1.2-0.1c-0.4,0-0.7,0-1.1,0c-0.1,0-0.2,0-0.3,0.1c-0.1,0.1-0.2,0.2-0.3,0.3c-0.1,0.1-0.1,0.2-0.2,0.3l-0.2,1.5
		c-0.1,0.3-0.1,0.7-0.2,1.1c-0.1,0.5-0.4,0.8-0.7,1.1c-0.1,0.1-0.3,0.2-0.5,0.2c-0.4,0.2-0.8,0.1-1.2-0.2c-0.3-0.3-0.6-0.7-0.7-1.1
		c-0.1-0.2-0.1-0.5,0-0.7v-0.1c0-0.3,0-0.7,0.1-1c0.1-0.6,0.1-1.1,0.2-1.6l0.3-1.6c0.1-0.6,0.3-1.2,0.4-1.8c0.3-1.2,0.7-2.4,1.1-3.6
		c0.2-0.7,0.6-1.5,0.8-2.2l0.9-2.3c0.2-0.7,0.6-1.3,1-1.8c0.2-0.3,0.6-0.5,0.9-0.5c0.6-0.1,1.1,0.1,1.5,0.5c0.3,0.3,0.6,0.7,0.8,1
		c0.3,0.5,0.6,1,0.8,1.5c0.2,0.6,0.5,1.2,0.6,1.8c0.1,0.4,0.2,0.8,0.2,1.1c0,0.4,0.2,0.8,0.1,1.1c0,0.2,0.1,0.3,0.1,0.5
		c0,0.1-0.1,0.3,0,0.4c0,0,0,0,0,0.1c0,0.4,0.1,0.8,0.1,1.2c0,0.6,0,1.3,0.1,1.9c0.1,0.8,0,1.6,0,2.4c0,0.3,0.1,0.7,0.1,1.1v1.1
		c0,0.4,0,0.9,0,1.3c0,0.4-0.1,0.8-0.2,1.2c-0.2,0.5-0.5,0.9-1.1,1C358.9,232.1,358.4,232,358.1,231.7z M357.1,222.7
		c0-0.1,0-0.3,0-0.5c0-0.2-0.1-0.5-0.1-0.7c0-0.4-0.1-0.7-0.1-1.1v0c-0.1-0.4-0.1-0.8-0.2-1.3c0-0.2-0.1-0.4-0.1-0.6
		c0-0.1,0-0.2-0.1-0.2c-0.1,0-0.2,0-0.3,0.1c0,0.1-0.1,0.1-0.1,0.1c-0.2,0.5-0.4,1-0.6,1.5c-0.2,0.7-0.5,1.3-0.6,1.9
		c-0.1,0.2-0.1,0.4-0.1,0.6c0,0.2,0.1,0.4,0.3,0.4c0.1,0.1,0.2,0.1,0.4,0.1s0.3,0,0.4,0c0.2,0.1,0.3,0,0.5,0
		C356.8,223.3,357,223,357.1,222.7z"/>
	<path class="st3" d="M366.7,231.9c-0.9-0.2-1.7-0.6-2.3-1.2c-0.2-0.1-0.3-0.3-0.5-0.5c-0.5-0.5-0.8-1-1.2-1.6
		c-0.3-0.5-0.5-1.1-0.7-1.6c-0.1-0.4-0.2-0.7-0.3-1.1c-0.1-0.5-0.1-0.9-0.1-1.3c0-0.3,0-0.6,0-0.8c-0.1-0.5,0-0.9,0.1-1.4
		c0.1-0.9,0.2-1.8,0.5-2.7c0.2-0.8,0.5-1.7,0.9-2.5c0.3-0.7,0.7-1.3,1.1-1.9c0.4-0.6,0.9-1.1,1.4-1.6c0.6-0.5,1.3-0.8,2-1
		c0.2-0.1,0.4-0.1,0.7-0.1c0.1,0,0.2,0,0.2,0c0,0,0.1,0,0.1,0c0.4,0.1,0.8,0,1.2,0.1c0.4,0.1,0.7,0.3,1,0.6c0.2,0.2,0.3,0.5,0.4,0.7
		c0,0.3,0,0.6-0.1,0.8c-0.1,0.4-0.7,0.9-1,0.9c-0.4,0.1-0.7,0.1-1,0c-0.5-0.1-1,0-1.4,0.4c-0.6,0.5-1,1.1-1.4,1.8
		c-0.4,0.7-0.6,1.3-0.8,2c-0.1,0.4-0.3,0.9-0.4,1.4c-0.1,0.3-0.1,0.7-0.2,1.1c-0.1,0.6,0,1.2,0,1.8c0,0.8,0.1,1.5,0.4,2.3
		c0.2,0.6,0.5,1.2,1,1.6c0.4,0.4,0.8,0.7,1.3,1c0.2,0.1,0.4,0.2,0.6,0.2c0.4,0.1,0.7,0.3,0.9,0.5c0.2,0.2,0.4,0.5,0.5,0.8
		c0.1,0.4,0,0.6-0.2,0.9s-0.5,0.5-0.8,0.5c-0.3,0.1-0.7,0-1,0C367.3,232,367,232,366.7,231.9z"/>
	<path class="st3" d="M372.6,229.5c-0.1-0.2-0.2-0.5-0.2-0.7c0-0.1-0.1-0.3,0-0.5v-0.1c-0.1-0.4,0-0.8,0-1.2c0-0.5,0-1,0-1.5
		c0-0.5,0-1,0-1.6V223c0-0.4,0-0.8,0-1.2c0-0.2,0.1-0.5,0-0.7c0-0.2,0-0.5,0-0.6c0-0.3,0-0.5,0-0.8c0-0.4,0-0.9,0.1-1.3v-0.6
		c0-0.5,0-0.9,0.1-1.4c0-0.4,0-0.7,0.1-1c0-0.1,0.1-0.2,0.1-0.3c0.2-0.4,0.5-0.8,0.9-0.9c0.1-0.1,0.3-0.1,0.4-0.1
		c0.5-0.1,0.9,0,1.2,0.3c0.3,0.2,0.6,0.5,0.7,0.9c0,0.2,0.1,0.4,0.1,0.5c0,0.3,0,0.6,0,0.9v0.6c0,0.5,0,0.9-0.1,1.4v0.7
		c0,0.5-0.1,0.9-0.1,1.3c0,0.4,0,0.8,0,1.2c0,0.4,0,0.8,0,1.2c0,0.2,0,0.5,0,0.7c0,0.4,0,0.7,0,1.1c0,0.4-0.1,0.7,0,1.1
		c0,0.2,0,0.3,0,0.5c0,0.2,0.1,0.4,0,0.5v0.1c0.1,0.3,0,0.7,0.1,1.1c0,0.8-0.2,1.5-0.7,2.1c-0.6,0.6-1.3,0.7-2,0.2
		C373,230.1,372.8,229.8,372.6,229.5z"/>
	<path class="st3" d="M377.7,232c-0.2-0.3-0.4-0.6-0.4-0.8c-0.1-0.5-0.1-0.9-0.1-1.3c0-0.2,0-0.5,0-0.7c0-0.3,0-0.6,0-0.9
		c0-0.2,0-0.5,0-0.7c0-0.4,0-0.8,0-1.2c0-0.5,0-1,0-1.5v-1.2c0-0.5,0-1,0-1.4c0-0.4,0-0.8,0-1.3c0-0.6,0.1-1.3,0.1-1.9l0.1-1.8
		c0.1-0.8,0.1-1.5,0.4-2.3c0.2-0.7,0.7-1.2,1.4-1.3c0.4-0.1,0.8,0.1,1.2,0.3c0.6,0.3,0.9,0.9,1.2,1.4l0.5,1.2
		c0.1,0.4,0.3,0.7,0.5,1.1c0.2,0.6,0.5,1.2,0.7,1.8c0.3,0.7,0.6,1.5,0.9,2.2c0.2,0.5,0.4,0.9,0.6,1.4c0,0,0,0.1,0,0.1
		c0.1,0.1,0.1,0.1,0.2,0.1c0.1,0,0.1-0.1,0.2-0.2v-1.8c0-0.4,0-0.7,0-1.1c0-0.3,0-0.6,0-0.9c0-0.2,0-0.4,0-0.6v-1.8
		c0-0.3,0-1.1,0-1.5c0-0.4,0-0.7,0.1-1c0.1-0.5,0.2-0.9,0.4-1.3c0.3-0.5,0.7-0.8,1.2-0.8c0.3,0,0.6,0.1,0.8,0.3
		c0.4,0.3,0.6,0.7,0.7,1.2c0,0.1,0.1,0.3,0.1,0.5c0.1,0.4,0.1,0.8,0.1,1.2c0,0.2,0,0.4,0,0.6l0,0.5v2.4c0,0.5,0,1,0,1.5v0.5
		c0,0.7,0,1.5,0,2.2l-0.1,2c0,0.7,0,1.3-0.1,2c-0.1,0.8-0.1,1.7-0.2,2.6c-0.1,0.4-0.1,0.9-0.2,1.3c-0.2,0.5-0.6,0.8-1.1,0.9
		c-0.5,0.1-1,0-1.4-0.5c-0.2-0.2-0.3-0.4-0.5-0.6c-0.1-0.3-0.4-0.5-0.6-0.8c-0.5-0.6-0.8-1.3-1.2-2c-0.3-0.5-0.5-1-0.8-1.6
		c-0.3-0.7-0.6-1.3-0.9-2c-0.1-0.4-0.4-0.7-0.5-1.1c0-0.1-0.1-0.1-0.1-0.1c-0.1-0.1-0.1-0.2-0.2-0.1c-0.1,0-0.2,0.1-0.2,0.2
		c0,0.1,0,0.3,0,0.4c0,0.4,0,0.8,0,1.2v2.8c0,0.4,0,0.8,0,1.2c0,0.3,0,0.7,0,1c0,0.2,0,0.5,0,0.8c0,0.4-0.2,0.8-0.4,1.2
		c-0.2,0.3-0.5,0.5-0.8,0.6C378.7,232.6,378.1,232.5,377.7,232z"/>
	<path class="st3" d="M392.7,232c-0.7-0.4-1.2-0.9-1.6-1.5c-0.4-0.6-0.7-1.2-0.8-1.9c-0.1-0.5-0.2-0.9-0.3-1.4
		c0-0.1-0.1-0.2-0.1-0.4c0-0.1,0-0.2,0-0.3c0-0.1,0-0.1,0-0.2V225h0c0-0.3,0-0.7,0-1c0-0.4,0-0.7,0.1-1.1c0-0.2,0-0.3,0.1-0.6l0.2-1
		c0.1-0.6,0.3-1.2,0.5-1.8c0.1-0.3,0.2-0.7,0.4-1c0.2-0.5,0.4-0.9,0.7-1.3c0.3-0.5,0.6-1,1-1.5c0.3-0.4,0.6-0.8,0.9-1.1
		c0.2-0.3,0.5-0.5,0.8-0.7c0.3-0.3,0.6-0.5,1-0.7c0.7-0.5,1.5-0.8,2.3-1.1c0.4-0.1,0.9-0.2,1.3-0.2c0.6,0.1,1.2,0.4,1.5,0.9
		c0.1,0.2,0.2,0.4,0.2,0.6c0,0.2,0,0.4-0.1,0.6c-0.2,0.7-0.8,1.1-1.5,1.1c-0.4,0-0.7,0.1-1,0.3c-0.5,0.2-1,0.5-1.4,0.8
		c-0.3,0.2-0.6,0.5-0.8,0.8c-0.1,0.2-0.3,0.4-0.5,0.6c-0.3,0.4-0.6,0.8-0.9,1.3c-0.4,0.7-0.7,1.5-1,2.4c-0.1,0.5-0.2,0.9-0.3,1.4
		c-0.1,0.4-0.1,0.8-0.2,1.2c-0.1,0.6-0.1,1.3,0,1.9c0.1,0.7,0.1,1.5,0.4,2.1c0.1,0.3,0.2,0.6,0.4,0.9c0.2,0.2,0.5,0.4,0.8,0.4
		c0.5,0,1-0.2,1.3-0.5c0.3-0.2,0.6-0.5,0.8-0.8c0.3-0.5,0.5-1,0.5-1.6c0-0.3,0-0.7-0.1-1.1c-0.2-0.5-0.5-0.8-1-1
		c-0.3-0.1-0.7-0.1-1,0c-0.1,0-0.1,0-0.1,0c-0.3,0-0.6-0.1-0.9-0.2c-0.2-0.1-0.4-0.3-0.6-0.5c-0.2-0.4-0.3-0.9-0.1-1.4
		c0.2-0.6,0.7-0.9,1.2-1c0.3-0.1,0.6-0.1,0.9-0.2c0.3,0,0.6,0.1,0.8,0.1c0.3,0,0.7,0.2,1,0.3c0.5,0.2,0.9,0.5,1.3,0.8
		c0.5,0.4,0.9,0.9,1.2,1.5c0.2,0.5,0.4,1,0.5,1.5c0.1,0.5,0.2,0.9,0.1,1.4c-0.1,0.7-0.2,1.4-0.5,2c-0.2,0.6-0.5,1.1-0.9,1.6
		c-0.5,0.7-1.1,1.2-1.8,1.7c-0.5,0.3-1.1,0.6-1.7,0.7c-0.3,0-0.7,0.1-1,0.1C394,232.6,393.3,232.4,392.7,232z"/>
</g>
</svg>
