<svg xmlns="http://www.w3.org/2000/svg" viewBox="0 0 793.41 67.68"><defs><style>.cls-1{fill:#fff;}</style></defs><g id="Capa_2" data-name="Capa 2"><g id="Layer_1" data-name="Layer 1"><path class="cls-1" d="M34.94,0h7.58a2.72,2.72,0,0,1,2.73,2.73v47.6a2.72,2.72,0,0,1-2.73,2.72H34.94a2.71,2.71,0,0,1-2.73-2.72V32.44H13V50.33a2.7,2.7,0,0,1-2.65,2.72H2.65A2.7,2.7,0,0,1,0,50.33V2.73A2.7,2.7,0,0,1,2.65,0h7.66A2.7,2.7,0,0,1,13,2.73V20.16H32.21V2.73A2.71,2.71,0,0,1,34.94,0Z"/><path class="cls-1" d="M82.91,14.63h7.58a2.71,2.71,0,0,1,2.73,2.73v33a2.71,2.71,0,0,1-2.73,2.72H82.91a2,2,0,0,1-2-2V49.26C78.59,52.07,75.18,54,70,54c-12,0-18.42-10.08-18.42-20.08S58.05,13.72,70,13.72c5.15,0,8.56,1.89,10.83,4.7V16.67A2,2,0,0,1,82.91,14.63ZM80.49,33.88a7.87,7.87,0,0,0-8.27-8.26c-5.07,0-8.18,3.48-8.18,8.26s3.11,8.18,8.18,8.18C76.85,42.06,80.49,39,80.49,33.88Z"/><path class="cls-1" d="M127.78,14.63h7.73a2,2,0,0,1,1.82,2.8l-13,33.5a3.39,3.39,0,0,1-3.19,2.12h-7.27a3.48,3.48,0,0,1-3.19-2.12l-13-33.5a2,2,0,0,1,1.9-2.8h7.65A3.42,3.42,0,0,1,110.5,17l7,22.13,7-22.13A3.42,3.42,0,0,1,127.78,14.63Z"/><path class="cls-1" d="M179.31,34.86a2.7,2.7,0,0,1-2.65,2.73H151.42c1.29,4.47,5,6.52,9.7,6.52A10.65,10.65,0,0,0,168,41.76a1.93,1.93,0,0,1,2.34-.23l5.39,3.19a2.14,2.14,0,0,1,.53,3.1c-3.34,3.72-8.64,6.14-15.09,6.14-13,0-21.6-8.18-21.6-20.08A19.79,19.79,0,0,1,159.3,13.72C170.07,13.72,179.54,20.54,179.31,34.86ZM168.1,30.17c-1-4.55-4.1-6.6-8.34-6.6-3.94,0-7.12,2.35-8.26,6.6Z"/><path class="cls-1" d="M232.82,14.63h7.73a2,2,0,0,1,1.89,2.8c-3.18,8-12.12,30.85-14.17,35.62-3,7.2-6.59,14.63-15.46,14.63-1.14,0-2.12-.07-3-.15a2,2,0,0,1-1.74-2V59.12a2.13,2.13,0,0,1,2-2c3.71-.07,5.6-2.2,7-6.29-.53-1.36-10.61-25.09-14.09-33.35a2,2,0,0,1,1.89-2.8h7.58a3.34,3.34,0,0,1,3.18,2.27l7,19.48,7-19.48A3.34,3.34,0,0,1,232.82,14.63Z"/><path class="cls-1" d="M286,33.88C286,45.25,277.38,54,265.33,54s-20.61-8.79-20.61-20.16,8.64-20.16,20.61-20.16S286,22.43,286,33.88Zm-12.36,0a8.22,8.22,0,1,0-16.44,0,8.22,8.22,0,0,0,16.44,0Z"/><path class="cls-1" d="M326.19,14.63a2.71,2.71,0,0,1,2.73,2.73v33a2.71,2.71,0,0,1-2.73,2.72h-7.58a2,2,0,0,1-2-2V49.57c-2.2,2.5-5.53,4.39-10.54,4.39C296.55,54,292,46.46,292,38.65V17.36a2.71,2.71,0,0,1,2.73-2.73h6.89a2.71,2.71,0,0,1,2.73,2.73v18c0,4.47,2.73,6.67,6.14,6.67s6.14-2.35,6.14-6.67v-18a2.7,2.7,0,0,1,2.65-2.73Z"/><path class="cls-1" d="M381.21,39.71a2,2,0,0,1,2.5-.3L391,43.66a2.06,2.06,0,0,1,.53,3A20.63,20.63,0,0,1,375.3,54c-12,0-20.62-8.71-20.62-20.08s8.64-20.16,20.62-20.16A20.63,20.63,0,0,1,391.51,21a2.06,2.06,0,0,1-.53,3l-7.27,4.32a2.08,2.08,0,0,1-2.5-.38,8.23,8.23,0,0,0-5.91-2.35,8,8,0,0,0-8.19,8.26,8,8,0,0,0,8.19,8.18A8.23,8.23,0,0,0,381.21,39.71Z"/><path class="cls-1" d="M434.56,29v21.3a2.7,2.7,0,0,1-2.65,2.72H425a2.72,2.72,0,0,1-2.73-2.72v-18c0-4.47-2.72-6.59-6.13-6.59-3.64,0-6.14,2.27-6.14,6.59v18a2.72,2.72,0,0,1-2.73,2.72h-6.9a2.65,2.65,0,0,1-2.65-2.72V2.73A2.65,2.65,0,0,1,400.38,0h6.9A2.72,2.72,0,0,1,410,2.73V18.11c2.12-2.5,5.45-4.39,10.45-4.39C430.09,13.72,434.56,21.3,434.56,29Z"/><path class="cls-1" d="M480.49,34.86a2.71,2.71,0,0,1-2.66,2.73H452.6c1.28,4.47,5,6.52,9.7,6.52a10.62,10.62,0,0,0,6.82-2.35,2,2,0,0,1,2.35-.23l5.38,3.19a2.13,2.13,0,0,1,.53,3.1C474,51.54,468.74,54,462.3,54c-13,0-21.6-8.18-21.6-20.08a19.78,19.78,0,0,1,19.78-20.16C471.24,13.72,480.71,20.54,480.49,34.86Zm-11.22-4.69c-1-4.55-4.09-6.6-8.34-6.6-3.94,0-7.12,2.35-8.26,6.6Z"/><path class="cls-1" d="M511,39.71a2,2,0,0,1,2.51-.3l7.27,4.25a2.06,2.06,0,0,1,.53,3A20.65,20.65,0,0,1,505,54c-12,0-20.61-8.71-20.61-20.08S493.07,13.72,505,13.72A20.65,20.65,0,0,1,521.26,21a2.07,2.07,0,0,1-.53,3l-7.27,4.32A2.1,2.1,0,0,1,511,28,8.22,8.22,0,0,0,505,25.62a8,8,0,0,0-8.18,8.26A8,8,0,0,0,505,42.06,8.22,8.22,0,0,0,511,39.71Z"/><path class="cls-1" d="M561.28,53.05h-8.72a3.55,3.55,0,0,1-2.88-1.51l-9.93-15.39V51a2,2,0,0,1-2,2h-8.26a2,2,0,0,1-2-2v-49a2,2,0,0,1,2-2h8.26a2,2,0,0,1,2,2.05V30.47l9.63-14.33a3.39,3.39,0,0,1,2.8-1.51h8a2,2,0,0,1,1.67,3.18L551.35,32.74l11.59,17.13A2,2,0,0,1,561.28,53.05Z"/><path class="cls-1" d="M606.07,34.86a2.71,2.71,0,0,1-2.66,2.73H578.18c1.28,4.47,5,6.52,9.7,6.52a10.62,10.62,0,0,0,6.82-2.35,2,2,0,0,1,2.35-.23l5.38,3.19a2.13,2.13,0,0,1,.53,3.1c-3.34,3.72-8.64,6.14-15.08,6.14-13,0-21.6-8.18-21.6-20.08a19.78,19.78,0,0,1,19.78-20.16C596.82,13.72,606.29,20.54,606.07,34.86Zm-11.22-4.69c-1-4.55-4.09-6.6-8.34-6.6-3.94,0-7.12,2.35-8.26,6.6Z"/><path class="cls-1" d="M641.91,0h6.9a2.71,2.71,0,0,1,2.73,2.73v47.6a2.71,2.71,0,0,1-2.73,2.72h-7.58a2,2,0,0,1-2-2V49.26c-2.2,2.81-5.61,4.7-10.84,4.7-11.9,0-18.42-10.08-18.42-20.08s6.52-20.16,18.42-20.16c5.23,0,8.64,1.89,10.84,4.7V2.73A2.71,2.71,0,0,1,641.91,0Zm-3.1,33.88a7.82,7.82,0,0,0-8.19-8.26c-5.15,0-8.26,3.48-8.26,8.26s3.11,8.18,8.26,8.18A7.8,7.8,0,0,0,638.81,33.88Z"/><path class="cls-1" d="M700,24.78h-4.85V36.91c0,4,1.44,6.06,5.31,6.06h.23a1.94,1.94,0,0,1,2,2v6.52a2,2,0,0,1-1.66,2,22.77,22.77,0,0,1-3.64.31c-11.83,0-14.55-8-14.55-15.62V24.78h-2.73a2.71,2.71,0,0,1-2.73-2.72v-4.7a2.71,2.71,0,0,1,2.73-2.73h2.73V9.25a2.69,2.69,0,0,1,2.65-2.66h7a2.69,2.69,0,0,1,2.65,2.66v5.38H700a2.71,2.71,0,0,1,2.73,2.73v4.7A2.71,2.71,0,0,1,700,24.78Z"/><path class="cls-1" d="M747.48,29v21.3a2.7,2.7,0,0,1-2.65,2.72h-6.9a2.71,2.71,0,0,1-2.72-2.72v-18c0-4.47-2.73-6.59-6.14-6.59-3.64,0-6.14,2.27-6.14,6.59v18a2.72,2.72,0,0,1-2.73,2.72h-6.9a2.65,2.65,0,0,1-2.65-2.72V2.73A2.65,2.65,0,0,1,713.3,0h6.9a2.72,2.72,0,0,1,2.73,2.73V18.11c2.12-2.5,5.45-4.39,10.46-4.39C743,13.72,747.48,21.3,747.48,29Z"/><path class="cls-1" d="M793.41,34.86a2.7,2.7,0,0,1-2.65,2.73H765.52c1.29,4.47,5,6.52,9.7,6.52A10.62,10.62,0,0,0,782,41.76a2,2,0,0,1,2.35-.23l5.38,3.19a2.13,2.13,0,0,1,.53,3.1C787,51.54,781.66,54,775.22,54c-13,0-21.6-8.18-21.6-20.08A19.78,19.78,0,0,1,773.4,13.72C784.16,13.72,793.64,20.54,793.41,34.86Zm-11.22-4.69c-1-4.55-4.09-6.6-8.33-6.6-4,0-7.13,2.35-8.27,6.6Z"/></g></g></svg>