<?xml version="1.0" encoding="utf-8"?>
<!-- Generator: Adobe Illustrator 26.4.1, SVG Export Plug-In . SVG Version: 6.00 Build 0)  -->
<svg version="1.1" id="Layer_1" xmlns="http://www.w3.org/2000/svg" xmlns:xlink="http://www.w3.org/1999/xlink" x="0px" y="0px"
	 viewBox="0 0 509.7 328.3" style="enable-background:new 0 0 509.7 328.3;" xml:space="preserve">
<style type="text/css">
	.st0{clip-path:url(#SVGID_00000001651844226437878100000002789561452351754905_);}
	.st1{fill:#002E66;}
	.st2{clip-path:url(#SVGID_00000044164519517216230870000016854767101026533052_);}
	.st3{enable-background:new    ;}
	.st4{fill:#28DD39;}
</style>
<g id="Grupo_3207" transform="translate(-6520 580.283)">
	<g>
		<g>
			<defs>
				<rect id="SVGID_1_" x="6875.3" y="-580.3" width="97.5" height="104.8"/>
			</defs>
			<clipPath id="SVGID_00000007396521166680322550000000091236019150251657_">
				<use xlink:href="#SVGID_1_"  style="overflow:visible;"/>
			</clipPath>
			<g id="Grupo_3149" style="clip-path:url(#SVGID_00000007396521166680322550000000091236019150251657_);">
				<path id="Trazado_3132" class="st1" d="M6916.9-475.4c-5.8-0.1-11.2-3-14.5-7.8c-2.4-3.4-4.5-7.1-6.3-10.9
					c-0.4-0.8-0.1-1.7,0.7-2.1c0.8-0.4,1.7-0.1,2.1,0.7v0.1c1.7,3.6,3.7,7.1,6,10.4c3.7,5.4,10.4,7.7,16.1,5.7l0.6-0.2
					c6-2.3,12.6-2.3,18.6,0l0.6,0.2c5.8,2,12.4-0.4,16.1-5.7c2.7-3.9,5-8,6.8-12.3c3.9-9.2,5.9-19.2,5.9-29.2c0-4-1.8-11.2-4.1-14.2
					c-3.8-5-9.7-8.1-16-8.2c-3.4,0-6.8,0.9-9.8,2.5l-5.3,2.9c-2.2,1.2-4.9,1.2-7.1,0l-5.3-2.9c-3-1.6-6.4-2.5-9.8-2.5
					c-6.3,0.1-12.2,3.1-16,8.2c-2.3,3-4.1,9.9-4.1,13.8c0,4.3,0.4,8.6,1.1,12.9c0.1,0.8-0.4,1.6-1.3,1.8c-0.8,0.2-1.6-0.4-1.8-1.2
					v-0.1c-0.7-4.4-1.1-8.9-1.1-13.4s2-12.1,4.8-15.7c4.4-5.8,11.2-9.3,18.4-9.4c4,0,7.8,1,11.3,2.9l5.3,2.9c1.3,0.7,2.8,0.7,4.1,0
					l5.3-2.9c10.1-5.6,22.9-2.8,29.7,6.5c2.7,3.5,4.8,11.4,4.8,16.1c0,10.4-2.1,20.8-6.1,30.4c-1.9,4.5-4.3,8.8-7.1,12.8
					c-4.5,6.5-12.6,9.3-19.7,6.9c-0.2-0.1-0.5-0.2-0.7-0.3c-5.2-2-11.1-2-16.3,0l-0.7,0.3C6920.4-475.7,6918.7-475.5,6916.9-475.4"
					/>
				<path id="Trazado_3133" class="st1" d="M6931-542.5L6931-542.5c-0.9,0-1.6-0.7-1.6-1.6c0.5-19.7-3.5-26-12.2-31.8
					c-0.7-0.5-0.9-1.5-0.4-2.2s1.4-0.9,2.1-0.4c9.4,6.3,14.1,13.4,13.6,34.4C6932.5-543.1,6931.8-542.5,6931-542.5"/>
				<path id="Trazado_3134" class="st1" d="M6931.3-542.5c-0.8,0-1.4-0.6-1.5-1.3c-0.1-0.5-1.8-13.4,5.1-23.3
					c6.9-10,19.4-13,20-13.1c0.4-0.1,0.9,0,1.2,0.2c0.4,0.2,0.6,0.6,0.7,1.1s1.8,13.4-5.1,23.3c-2.1,2.9-4.7,5.5-7.7,7.5
					c-0.7,0.5-1.7,0.4-2.2-0.3s-0.4-1.7,0.3-2.2l0.1-0.1c2.7-1.8,5-4,6.9-6.7c4.7-6.9,4.9-15.6,4.7-19.3
					c-3.5,1.2-11.6,4.4-16.4,11.3c-6.2,9-4.6,21-4.6,21.1c0.1,0.8-0.5,1.6-1.3,1.8C6931.4-542.5,6931.3-542.5,6931.3-542.5"/>
				<path id="Trazado_3135" class="st1" d="M6933.2-493.2h-43.7c-7.8,0-14.2-6.4-14.2-14.2v-11.7c-0.1-4,3.1-7.2,7-7.3h0.1h8.2
					c0.9,0,1.6,0.6,1.6,1.5s-0.6,1.6-1.5,1.6c-0.1,0-0.1,0-0.2,0h-8.2c-2.2,0-4,1.8-4.1,4v0.1v0.1c0,0.1,0,0.2,0,0.3
					c0.3,2.1,2.2,3.7,4.4,3.6h50.4c2.2,0,3.9,1.7,3.9,3.9v14.2C6937.1-495,6935.4-493.2,6933.2-493.2 M6878.5-513.5v6.1
					c0,6.1,5,11.1,11.1,11.1h43.7c0.4,0,0.8-0.4,0.8-0.8v-14.2c0-0.4-0.4-0.8-0.8-0.8h-50.4C6881.3-512.1,6879.7-512.6,6878.5-513.5
					"/>
				<path id="Trazado_3136" class="st1" d="M6888.8-505.7c-0.9,0-1.6-0.7-1.6-1.5l0,0v-6.4c0-0.9,0.6-1.6,1.5-1.6s1.6,0.6,1.6,1.5
					c0,0.1,0,0.1,0,0.2v6.4C6890.3-506.4,6889.6-505.7,6888.8-505.7C6888.7-505.7,6888.7-505.7,6888.8-505.7"/>
				<path id="Trazado_3137" class="st1" d="M6900.4-505.7c-0.9,0-1.6-0.7-1.6-1.5l0,0v-6.4c0-0.9,0.6-1.6,1.5-1.6s1.6,0.6,1.6,1.5
					c0,0.1,0,0.1,0,0.2v6.4C6902-506.4,6901.3-505.7,6900.4-505.7L6900.4-505.7"/>
				<path id="Trazado_3138" class="st1" d="M6912.1-505.7c-0.9,0-1.6-0.7-1.6-1.5l0,0v-6.4c0-0.9,0.6-1.6,1.5-1.6s1.6,0.6,1.6,1.5
					c0,0.1,0,0.1,0,0.2v6.4C6913.6-506.4,6912.9-505.7,6912.1-505.7L6912.1-505.7"/>
				<path id="Trazado_3139" class="st1" d="M6923.7-505.7c-0.9,0-1.6-0.7-1.6-1.5l0,0v-6.4c0-0.9,0.6-1.6,1.5-1.6s1.6,0.6,1.6,1.5
					c0,0.1,0,0.1,0,0.2v6.4C6925.3-506.4,6924.6-505.7,6923.7-505.7L6923.7-505.7"/>
			</g>
		</g>
	</g>
</g>
<g id="Grupo_3211" transform="translate(122.453 -12.209)">
	<g id="Grupo_3210" transform="translate(-6952 694.875)">
		<g>
			<g>
				<defs>
					<rect id="SVGID_00000101826208132923652190000016879492197284650393_" x="6882" y="-580.3" width="119.5" height="119.5"/>
				</defs>
				<clipPath id="SVGID_00000024002673576295741990000003078513727308955541_">
					<use xlink:href="#SVGID_00000101826208132923652190000016879492197284650393_"  style="overflow:visible;"/>
				</clipPath>
				<g id="Grupo_3209" style="clip-path:url(#SVGID_00000024002673576295741990000003078513727308955541_);">
					<path id="Trazado_3240" class="st1" d="M6999.2-553.5c0,11.3,0,22.5,0,33.8c0,1.1,0.2,1.5,0.8,1.7c0.6,0.2,0.9,0.1,1.5-0.7
						v-39.8c-0.1-0.2-0.1-0.5-0.2-0.7c-0.1-0.5-0.3-1.1-0.5-1.6c-1.5-3.7-5.1-6.1-9.1-5.9c-9.3-0.1-18.5,0-26.5,0
						c-1,0.1-1.9-0.5-2.4-1.4c-3.7-6.7-10.4-11.2-18.1-12.2c-0.2,0-0.4-0.1-0.6-0.2h-0.1h-4.6c-0.4,0.1-0.8,0.2-1.2,0.2
						c-0.9,0.2-1.8,0.3-2.6,0.6c-6.3,1.6-11.7,5.8-14.9,11.5c-0.5,1-1.5,1.5-2.6,1.4c-4.8,0-9.6,0-14.3,0c-2.7,0-5.4,0-8.1,0h-3.4
						c-6.4,0-10.4,4-10.4,10.5c0,28.3,0,56.7,0,85c0,6.3,4.1,10.4,10.4,10.4c27.4,0,54.7,0,82.1,0h16.4c5.8,0,9-2.5,10.6-8.1
						c0-0.1,0.1-0.2,0.1-0.3v-42.1l-0.2-0.1c-0.2-0.2-0.4-0.4-0.7-0.5c-0.3-0.1-0.6-0.1-0.9,0.1c-0.4,0.4-0.6,0.9-0.5,1.5
						c0,8.8,0,17.7,0,26.5v12.5c0,5.2-3,8.2-8.2,8.2h-98.6c-5.2,0-8.2-3-8.2-8.1c0-28.3,0-56.7,0-85c0-5.2,3-8.1,8.2-8.1
						c5.7,0,11.4,0,17,0h9.3l-0.2,0.8c-2.8,12.1,0.6,21.4,10.2,27.7c8.7,5.7,17.8,5.5,26.3-0.3c9.3-6.3,12.5-15.5,9.7-27.4l-0.2-0.8
						h9.2c5.7,0,11.5,0,17.2,0c5.1,0,8.1,3,8.1,8.1v2.8H6999.2z M6960.6-555c0.5,0,1,0,1.5,0c0.3,0,0.5,0,0.8,0h0.7l-0.1,0.7
						c-0.4,4.6-2.2,8.9-5.2,12.4l-0.5,0.6l-0.5-0.6c-0.2-0.2-0.3-0.4-0.5-0.6c-0.3-0.4-0.7-0.8-1-1.1c-0.4-0.5-1.1-0.5-1.6-0.1
						s-0.5,1.1-0.1,1.6l0.1,0.1c0.3,0.3,0.7,0.7,1.1,1c0.2,0.2,0.4,0.4,0.6,0.5l0.5,0.5l-0.5,0.5c-3.5,3-7.8,4.8-12.4,5.2l-0.7,0.1
						v-0.7c0-0.3,0-0.5,0-0.8c0-0.5,0-1,0-1.5c-0.1-1.2-0.7-1.3-1.1-1.3c-0.5,0-1.1,0.1-1.1,1.3c0,0.5,0,0.9,0,1.4
						c0,0.2,0,0.5,0,0.8v0.7l-0.7-0.1c-4.6-0.4-8.9-2.2-12.4-5.2l-0.6-0.5l0.6-0.5c0.2-0.2,0.4-0.4,0.6-0.5c0.4-0.3,0.8-0.7,1.2-1
						c0.2-0.2,0.4-0.6,0.4-0.9c0-0.3-0.1-0.6-0.3-0.8c-0.5-0.4-1.2-0.4-1.6,0.1c-0.3,0.2-0.5,0.5-0.8,0.8c-0.2,0.2-0.3,0.4-0.4,0.6
						c-0.1,0.1-0.1,0.2-0.2,0.3l-0.4,0.6l-0.5-0.5c-3.1-3.4-5-7.8-5.3-12.4v-0.7h0.7c0.2,0,0.5,0,0.7,0c0.5,0,1,0,1.5,0
						c1.3-0.1,1.3-0.9,1.3-1.1c0-0.5-0.1-1.1-1.3-1.1c-0.5,0-0.9,0-1.4,0c-0.2,0-0.5,0-0.8,0h-0.7l0.1-0.7c0.4-4.6,2.2-9,5.2-12.5
						l0.5-0.6l0.5,0.6c0.2,0.2,0.4,0.4,0.5,0.6c0.3,0.4,0.6,0.8,1,1.2c0.2,0.2,0.5,0.4,0.9,0.4c0.3,0,0.6-0.1,0.8-0.3
						c0.4-0.5,0.4-1.2-0.1-1.6c-0.2-0.3-0.5-0.5-0.8-0.8c-0.2-0.2-0.4-0.3-0.6-0.5c-0.1-0.1-0.2-0.2-0.4-0.3l-0.6-0.5l0.6-0.5
						c3.5-3,7.8-4.8,12.4-5.2l0.7-0.1v0.7c0,0.2,0,0.5,0,0.7c0,0.5,0,1,0,1.5c0.1,1.2,0.7,1.3,1.1,1.3c0.5,0,1.1-0.1,1.1-1.3
						c0-0.5,0-0.9,0-1.4c0-0.2,0-0.5,0-0.8v-0.7l0.7,0.1c4.6,0.4,8.9,2.1,12.4,5.1l0.6,0.5l-0.5,0.5c-0.2,0.2-0.4,0.4-0.6,0.5
						c-0.4,0.4-0.7,0.7-1,1c-0.5,0.4-0.6,1.1-0.2,1.6l0.1,0.1c0.5,0.4,1.2,0.4,1.7-0.1l0.1-0.1c0.3-0.3,0.6-0.7,1-1
						c0.2-0.2,0.3-0.4,0.5-0.6l0.5-0.5l0.5,0.6c3,3.5,4.8,7.8,5.1,12.4l0.1,0.7h-0.7c-0.3,0-0.5,0-0.8,0c-0.5,0-1,0-1.5,0
						c-1.1,0.1-1.3,0.6-1.3,1.1C6959.3-555.5,6959.7-555.1,6960.6-555"/>
					<path id="Trazado_3240_-_Contorno" class="st1" d="M6941.4-460.3h-49.1c-2.9,0.1-5.8-1-7.9-3c-2-2.1-3.1-5-3-7.9
						c0-26.1,0-53.9,0-85c-0.1-2.9,0.9-5.8,2.9-8c2.1-2,5-3.1,8-3h3.4c2.7,0,5.4,0,8.1,0c5.8,0,10.2,0,14.3,0
						c0.9,0.1,1.8-0.4,2.1-1.2c3.2-5.8,8.7-10,15.2-11.7c0.9-0.2,1.8-0.4,2.7-0.6c0.4-0.1,0.8-0.1,1.2-0.2l0,0h4.7h0.1h0.1
						c0.2,0.1,0.3,0.1,0.5,0.1c7.8,0.9,14.7,5.5,18.4,12.4c0.4,0.7,1.1,1.2,1.9,1.1c4.8,0,9.9,0,15.2,0c4.1,0,7.8,0,11.3,0
						c2,0,4,0.5,5.7,1.6s3,2.8,3.8,4.6c0.2,0.5,0.4,1.1,0.6,1.6c0.1,0.2,0.1,0.5,0.2,0.7v0.1v40l-0.1,0.1c-0.3,0.5-0.9,0.9-1.5,0.9
						l0,0c-0.2,0-0.4,0-0.6-0.1c-0.9-0.3-1.1-1.1-1.1-2.2c0-11,0-22.2,0-33v-3.6c0-4.8-2.8-7.6-7.6-7.6h-9.5h-16.3v0.2
						c1.4,6,1.3,11.4-0.4,16c-1.8,4.9-5.2,9-9.6,11.9c-4,2.9-8.7,4.5-13.6,4.5c-4.7-0.1-9.3-1.6-13.3-4.2c-4.5-2.8-8-6.9-10-11.9
						c-1.7-4.7-1.9-10.2-0.5-16.3v-0.2h-8.7c-5.7,0-11.4,0-17,0c-4.9,0-7.7,2.7-7.7,7.6c0,28.3,0,56.7,0,85c0,4.9,2.7,7.6,7.7,7.6
						h98.6c5,0,7.7-2.7,7.7-7.7v-12.5c0-8,0-17.3,0-26.5c-0.1-0.7,0.2-1.4,0.8-1.9c0.4-0.3,0.9-0.3,1.3-0.2c0.3,0.1,0.6,0.3,0.9,0.6
						l0.2,0.1l0.2,0.1v42.5l-0.1,0.1v0.1c-0.9,5.3-5.7,9-11,8.5L6941.4-460.3z M6903.9-566.1c-2.7,0-5.4,0-8.1,0h-3.4
						c-6.1,0-9.9,3.8-9.9,9.9c0,31.2,0,59,0,85c0,6,3.9,9.9,9.9,9.9h98.5c5.6,0,8.6-2.3,10.1-7.7c0-0.1,0.1-0.2,0.1-0.3V-511l0,0
						c-0.2-0.1-0.3-0.3-0.5-0.4c-0.1,0-0.2,0-0.2,0c-0.1,0-0.1,0-0.2,0.1c-0.3,0.3-0.4,0.7-0.3,1.1c0,9.1,0,18.5,0,26.5v12.5
						c0.4,4.4-2.8,8.3-7.1,8.7c-0.5,0.1-1,0.1-1.6,0h-98.6c-2.3,0.1-4.6-0.7-6.4-2.3c-1.6-1.7-2.4-4-2.3-6.4c0-28.3,0-56.7,0-85
						c-0.1-2.3,0.7-4.6,2.3-6.4c1.7-1.6,4-2.4,6.4-2.3c5.7,0,11.4,0,17,0h9.9l-0.3,1.4c-2.8,11.9,0.6,21,10,27.1
						c3.7,2.6,8.2,4,12.7,4.1c4.7-0.1,9.3-1.6,13.1-4.4c9.1-6.2,12.3-15.2,9.5-26.8l-0.3-1.4h17.5h9.5c2.3-0.1,4.6,0.7,6.3,2.3
						c1.6,1.7,2.4,4,2.3,6.3v3.6c0,10.8,0,22,0,33c0,1.1,0.2,1.2,0.5,1.3c0.1,0,0.2,0.1,0.2,0.1c0.1,0,0.3-0.1,0.6-0.4v-39.5
						c-0.1-0.2-0.1-0.4-0.2-0.6c-0.1-0.5-0.3-1-0.5-1.5c-1.4-3.5-4.9-5.8-8.6-5.6c-3.5,0-7.2,0-11.3,0c-5.3,0-10.4,0-15.2,0
						c-1.2,0.1-2.3-0.6-2.8-1.6c-3.6-6.6-10.2-11-17.7-11.9c-0.2,0-0.5-0.1-0.7-0.2l0,0l0,0h-4.4c-0.4,0.1-0.7,0.1-1.1,0.2
						c-0.9,0.2-1.7,0.3-2.6,0.6c-6.2,1.6-11.5,5.7-14.6,11.2c-0.6,1.1-1.7,1.8-3,1.7C6914.1-566.1,6909.7-566.1,6903.9-566.1z
						 M6942.4-533.7v-1.2c0-0.3,0-0.5,0-0.8l0,0c0-0.5,0-1,0-1.4c0-0.8-0.4-0.8-0.6-0.8c-0.3,0-0.6,0-0.6,0.9c0,0.4,0,0.9,0,1.4
						c0,0.2,0,0.5,0,0.8v1.2l-1.2-0.1c-4.7-0.4-9.1-2.2-12.7-5.3l-1-0.9l1-0.9c0.2-0.2,0.4-0.4,0.6-0.5c0.4-0.3,0.8-0.6,1.1-1
						c0.1-0.1,0.2-0.3,0.2-0.5s-0.1-0.3-0.2-0.4c-0.1-0.1-0.2-0.2-0.4-0.2c-0.2,0-0.4,0.1-0.6,0.2c-0.3,0.2-0.5,0.4-0.7,0.7
						c-0.1,0.2-0.3,0.4-0.4,0.6l0,0c-0.1,0.1-0.1,0.2-0.2,0.3l-0.8,1.1l-1-0.9c-3.2-3.5-5.1-8-5.4-12.7l-0.1-1.2h1.2
						c0.2,0,0.5,0,0.7,0s0.5,0,0.7,0c0.3,0,0.5,0,0.8,0c0.9,0,0.9-0.4,0.9-0.6c0-0.3,0-0.6-0.8-0.6c-0.2,0-0.5,0-0.8,0
						c-0.2,0-0.4,0-0.6,0h-0.1c-0.2,0-0.5,0-0.7,0h-1.2l0.1-1.2c0.4-4.7,2.2-9.2,5.3-12.7l0.9-1l0.9,1c0.2,0.2,0.4,0.5,0.5,0.7l0,0
						c0.3,0.4,0.6,0.8,1,1.1c0.1,0.1,0.3,0.2,0.5,0.2l0,0c0.2,0,0.3-0.1,0.4-0.2c0.2-0.3,0.2-0.7-0.1-0.9c-0.2-0.3-0.5-0.5-0.7-0.7
						s-0.4-0.3-0.6-0.5c-0.1-0.1-0.2-0.2-0.4-0.3l-1.1-0.9l1.1-0.9c3.6-3.1,8-4.9,12.7-5.3l1.2-0.1v1.2c0,0.3,0,0.5,0,0.7
						c0,0.5,0,1,0,1.4c0,0.9,0.4,0.9,0.6,0.9l0,0c0.3,0,0.6,0,0.6-0.8c0-0.4,0-0.9,0-1.4v-0.1c0-0.2,0-0.5,0-0.8v-1.2l1.2,0.1
						c4.7,0.4,9.1,2.2,12.7,5.2l1,0.8l-1,0.9c-0.2,0.2-0.4,0.4-0.6,0.6l0,0c-0.4,0.3-0.7,0.6-1,0.9c-0.2,0.2-0.5,0.6-0.1,1
						c0.1,0.1,0.2,0.2,0.4,0.2c0.3,0,0.5-0.1,0.7-0.3c0.3-0.3,0.6-0.7,0.9-1l0,0c0.2-0.2,0.3-0.3,0.5-0.5l0.9-1l0.8,1
						c3,3.6,4.9,8,5.3,12.7l0.1,1.2h-1.2c-0.3,0-0.6,0-0.8,0c-0.2,0-0.4,0-0.7,0c-0.3,0-0.6,0-0.8,0c-0.8,0-0.8,0.3-0.8,0.6
						s0,0.6,0.8,0.7c0.2,0,0.5,0,0.8,0c0.2,0,0.4,0,0.7,0h0.1c0.2,0,0.5,0,0.7,0h1.2l-0.1,1.2c-0.4,4.7-2.2,9.1-5.3,12.7l-0.8,1
						l-0.9-1c-0.2-0.2-0.4-0.4-0.5-0.6c-0.3-0.4-0.6-0.8-1-1.1c-0.1-0.2-0.3-0.2-0.6-0.3c-0.2,0-0.3,0.1-0.4,0.2
						c-0.2,0.3-0.2,0.7,0,0.9l0,0c0.3,0.3,0.7,0.6,1.1,1l0,0c0.2,0.2,0.4,0.3,0.6,0.5l1,0.9l-1,0.8c-3.6,3-8,4.9-12.6,5.3
						L6942.4-533.7z M6941.7-539.1L6941.7-539.1c1,0,1.6,0.6,1.6,1.8c0,0.5,0,1,0,1.5l0,0c0,0.2,0,0.5,0,0.8v0.1h0.1
						c4.5-0.4,8.7-2.1,12.1-5.1l0.1-0.1l-0.1-0.1c-0.2-0.2-0.4-0.4-0.6-0.5l0,0c-0.4-0.4-0.8-0.7-1.1-1c-0.7-0.6-0.7-1.7-0.1-2.3
						l0,0c0.3-0.3,0.7-0.5,1.1-0.5c0.5,0,0.9,0.2,1.3,0.5c0.4,0.4,0.7,0.8,1.1,1.2c0.2,0.2,0.3,0.4,0.5,0.6l0.1,0.1l0.1-0.1
						c2.9-3.4,4.7-7.7,5.1-12.1v-0.1h-0.1c-0.3,0-0.5,0-0.7,0h-0.1c-0.2,0-0.5,0-0.7,0c-0.3,0-0.6,0-0.8,0c-1.1-0.1-1.8-0.7-1.7-1.7
						c0-1,0.6-1.5,1.8-1.6c0.2,0,0.5,0,0.8,0c0.2,0,0.5,0,0.7,0s0.5,0,0.8,0h0.1v-0.1c-0.4-4.5-2.1-8.7-5-12.1l-0.1-0.1l-0.1,0.1
						c-0.2,0.2-0.3,0.4-0.5,0.5l0,0c-0.3,0.4-0.7,0.7-1,1.1c-0.4,0.4-0.8,0.6-1.4,0.6c-0.4,0-0.8-0.2-1.1-0.5
						c-0.6-0.7-0.6-1.7,0-2.4c0,0,0,0,0.1-0.1c0.3-0.3,0.7-0.6,1.1-1l0,0c0.2-0.2,0.4-0.4,0.6-0.5l0.1-0.1l-0.1-0.1
						c-3.4-2.9-7.6-4.7-12.1-5h-0.1v0.1c0,0.3,0,0.5,0,0.7v0.1c0,0.5,0,1,0,1.4c-0.1,1.2-0.6,1.8-1.6,1.8l0,0c-1,0-1.6-0.6-1.6-1.8
						c0-0.5,0-1,0-1.5c0-0.2,0-0.5,0-0.7v-0.1h-0.1c-4.5,0.4-8.7,2.1-12.1,5.1l-0.1,0.1l0.1,0.1c0.1,0.1,0.2,0.2,0.4,0.3
						c0.2,0.2,0.4,0.3,0.6,0.5c0.3,0.3,0.6,0.5,0.8,0.8c0.6,0.6,0.6,1.6,0,2.3c-0.3,0.3-0.7,0.5-1.1,0.5l0,0c-0.5,0-0.9-0.2-1.2-0.5
						c-0.4-0.4-0.7-0.8-1.1-1.2l0,0c-0.2-0.2-0.3-0.4-0.5-0.6l-0.1-0.1l-0.1,0.1c-3,3.4-4.7,7.7-5.1,12.2v0.1h0.1c0.2,0,0.5,0,0.7,0
						h0.1c0.2,0,0.4,0,0.6,0c0.3,0,0.6,0,0.8,0c1.2,0,1.8,0.6,1.8,1.6s-0.6,1.6-1.8,1.6c-0.2,0-0.5,0-0.8,0c-0.2,0-0.4,0-0.7,0
						c-0.2,0-0.5,0-0.7,0h-0.1v0.1c0.3,4.5,2.1,8.8,5.1,12.1l0.1,0.1l0.1-0.1c0.1-0.1,0.1-0.2,0.2-0.3l0,0c0.1-0.2,0.3-0.4,0.5-0.6
						c0.3-0.3,0.5-0.6,0.8-0.8c0.3-0.3,0.8-0.5,1.2-0.5c0.4,0,0.8,0.2,1.1,0.4c0.3,0.3,0.5,0.7,0.5,1.1c0,0.5-0.2,0.9-0.5,1.2
						c-0.4,0.4-0.8,0.7-1.2,1.1c-0.2,0.2-0.4,0.3-0.6,0.5l-0.1,0.1l0.1,0.1c3.4,2.9,7.7,4.7,12.1,5.1h0.1v-0.1c0-0.3,0-0.5,0-0.8
						c0-0.5,0-1,0-1.5C6940.2-538.4,6940.7-539,6941.7-539.1L6941.7-539.1z"/>
					<path id="Trazado_3241" class="st1" d="M6990.1-557.6c-5.5,0-11.1,0-16.3,0c-0.9,0-1.2,0.4-1.3,1.3c0,0.4,0,0.7-0.1,1.1
						c0,0.8-0.1,1.6-0.2,2.4c-1.8,16.9-17.1,29.2-34,27.4c-0.4,0-0.7-0.1-1.1-0.1c-15-2.2-26.2-15-26.4-30.2c0-1.5-0.3-1.8-1.9-1.8
						c-5,0-10,0-15,0c-2.3,0-3.1,0.8-3.1,3.2c0,27.2,0,54.3,0,81.5c0,2.4,0.8,3.2,3.2,3.2c14.5,0,28.9,0,43.4,0c0.1,0,0.2,0,0.3,0
						c0.3,0,0.5,0,0.8,0c0.6-0.1,1.1-0.6,1-1.2s-0.5-1-1.1-1c-0.2,0-0.4,0-0.7,0c-0.1,0-0.2,0-0.3,0H6893v-83.3h15.3v0.6
						c0.9,16.9,14.2,30.4,31,31.6c7.4,0.6,14.8-1.5,20.9-5.8c8.7-6.1,13.6-14.8,14.4-25.8v-0.6h15.3v83.2h-6.6c-12,0-24,0-36,0
						c-0.1,0-0.2,0-0.3,0s-0.2,0-0.3,0c-0.2,0-0.4,0-0.5,0c-0.6,0.1-1,0.7-0.9,1.3c0.1,0.5,0.5,0.9,1,0.9c0.2,0,0.5,0,0.7,0
						c0.1,0,0.2,0,0.3,0h41.5c2.6,0,3.4-0.8,3.4-3.4v-81.3c0-0.3,0-0.5,0-0.7C6992.6-556.5,6991.5-557.6,6990.1-557.6
						C6990.2-557.6,6990.2-557.6,6990.1-557.6"/>
					<path id="Trazado_3241_-_Contorno" class="st1" d="M6947-469.2c-0.2,0-0.3,0-0.5,0c-0.9-0.1-1.5-0.9-1.4-1.8
						c0.1-0.7,0.6-1.3,1.3-1.4c0.2,0,0.4-0.1,0.6-0.1c0.1,0,0.2,0,0.3,0c0.1,0,0.2,0,0.3,0c12,0,24,0,35.9,0h6.1v-82.2h-14.3v0.1
						c-0.8,11.1-5.7,19.9-14.6,26.2c-5.5,3.9-12.1,6-18.8,6c-0.8,0-1.6,0-2.4-0.1c-17.1-1.2-30.6-14.9-31.5-32v-0.1h-14.3v82.3h43.8
						c0.1,0,0.2,0,0.2,0h0.1c0.1,0,0.2,0,0.3,0c0.1,0,0.3,0,0.4,0c0.9,0.1,1.6,0.8,1.5,1.7c-0.1,0.8-0.7,1.4-1.4,1.5
						c-0.2,0-0.4,0-0.6,0c-0.1,0-0.2,0-0.3,0c-0.1,0-0.2,0-0.3,0c-13.8,0-28.6,0-43.4,0c-1,0.1-2.1-0.2-2.9-0.9
						c-0.7-0.8-1-1.8-0.8-2.9c0-27.2,0-54.3,0-81.5c-0.1-1,0.2-2,0.8-2.8c0.8-0.7,1.8-1,2.8-0.9c5,0,10,0,15,0
						c0.7-0.1,1.3,0.1,1.9,0.5c0.4,0.5,0.6,1.2,0.5,1.8c0.2,16.7,13.8,30,30.4,30.1c15.4-0.1,28.3-11.8,30-27.1
						c0.1-0.8,0.1-1.6,0.1-2.3c0-0.4,0-0.7,0.1-1.1c0.1-1.2,0.7-1.8,1.8-1.8c2.3,0,5.3,0,8.3,0c2.9,0,5.5,0,8,0c0.8,0,1.5,0.3,2,0.8
						c0.5,0.6,0.8,1.3,0.9,2.1c0,0.3,0,0.5,0,0.8v81.3c0,2.9-1,3.9-3.9,3.9h-41.5c-0.1,0-0.2,0-0.3,0h-0.1
						C6947.2-469.2,6947.1-469.2,6947-469.2z M6947-471.5c-0.1,0-0.3,0-0.4,0c-0.5,0.1-0.5,0.4-0.5,0.6c0,0.3,0.1,0.5,0.6,0.6
						c0.1,0,0.2,0,0.4,0c0.1,0,0.2,0,0.3,0h0.1c0.1,0,0.2,0,0.3,0h41.5c2.3,0,2.9-0.5,2.9-2.9v-81.3c0-0.2,0-0.5,0-0.7
						c0-1-0.8-1.9-1.8-1.9c0,0,0,0-0.1,0c-2.5,0-5.1,0-8,0c-3,0-6,0-8.3,0c-0.5,0-0.8,0.1-0.8,0.8c0,0.4,0,0.7-0.1,1.1
						c0,0.8-0.1,1.6-0.2,2.4c-0.9,8.5-5.2,16.2-11.9,21.4c-2.7,2.1-5.8,3.8-9.1,4.9c-3.2,1.1-6.6,1.7-10,1.7
						c-17.2,0-31.2-13.8-31.4-31c0-0.4,0-0.8-0.2-1.1c-0.4-0.2-0.8-0.2-1.2-0.2c-5,0-10,0-15,0c-2,0-2.6,0.6-2.6,2.7
						c0,27.2,0,54.3,0,81.5c0,2.1,0.6,2.7,2.7,2.7c14.8,0,29.6,0,43.4,0c0.1,0,0.2,0,0.3,0h0.3c0.1,0,0.3,0,0.4,0
						c0.5-0.1,0.6-0.3,0.6-0.6c0-0.3-0.1-0.6-0.6-0.6c-0.1,0-0.2,0-0.3,0c-0.1,0-0.2,0-0.3,0h-0.1c-0.1,0-0.2,0-0.3,0h-44.8v-84.3
						h16.2l0.1,1.1c0.8,16.6,14,30,30.5,31.1c0.8,0.1,1.6,0.1,2.3,0.1c6.5,0,12.9-2,18.2-5.8c8.6-6,13.4-14.6,14.2-25.4l0.1-1h16.3
						v84.2h-7.1c-12,0-24,0-36,0l0,0c-0.1,0-0.2,0-0.3,0C6947.2-471.5,6947.1-471.5,6947-471.5z"/>
					<path id="Trazado_3242" class="st1" d="M6966.5-484c0-2.7,0-5.5,0-8.2c0-2.1-0.8-2.9-2.9-2.9c-14.5,0-29.1,0-43.6,0
						c-2.1,0-2.9,0.8-2.9,2.9c0,2.8,0,5.5,0,8c0,2.4,0.8,3.1,3.2,3.1h27.6c5.2,0,10.5,0,15.7,0
						C6965.6-481.1,6966.5-481.9,6966.5-484 M6964.2-485.1c0,0.2,0,0.5,0,0.7c0,0.1,0,0.2,0,0.4v0.6h-44.8v-9.3h44.8v2.4
						C6964.2-488.6,6964.2-486.8,6964.2-485.1"/>
					<path id="Trazado_3242_-_Contorno" class="st1" d="M6953.5-480.6h-33.3c-2.7,0-3.6-1-3.7-3.6l0,0c0-2.4,0-5.2,0-8
						c-0.1-0.9,0.2-1.9,0.8-2.6c0.7-0.6,1.6-0.9,2.6-0.8c14.5,0,29.1,0,43.6,0c1.6-0.3,3.1,0.8,3.4,2.4c0.1,0.3,0.1,0.7,0,1
						c0,2.8,0,5.5,0,8.3c0.1,1-0.2,1.9-0.8,2.6c-0.8,0.6-1.7,0.9-2.7,0.8C6960.1-480.6,6956.8-480.6,6953.5-480.6z M6941.8-481.6h6
						c5.2,0,10.5,0,15.7,0c1.9,0,2.5-0.6,2.5-2.4c0-2.7,0-5.5,0-8.2c0-1.8-0.6-2.4-2.4-2.4c-14.5,0-29.1,0-43.6,0
						c-1.8,0-2.4,0.6-2.4,2.4c0,2.7,0,5.5,0,8l0,0c0,2.1,0.6,2.6,2.7,2.6H6941.8L6941.8-481.6z M6964.6-482.9h-45.7v-10.3h45.8v2.9
						c0,1.8,0,3.5,0,5.2c0,0.2,0,0.5,0,0.7v0.1c0,0.1,0,0.2,0,0.3L6964.6-482.9z M6919.9-483.9h43.8v-0.1c0-0.1,0-0.2,0-0.3v-0.1
						c0-0.2,0-0.4,0-0.6c0-1.7,0-3.4,0-5.2v-1.9h-43.8V-483.9z"/>
					<path id="Trazado_3243" class="st1" d="M6941.8-561.5c-0.8,0.1-1.5-0.4-1.8-1.2c-0.5-1.2-1.1-2.6-1.9-4.1
						c-0.2-0.5-0.6-0.8-1.1-0.8c-0.2,0-0.3,0-0.5,0.1c-0.6,0.3-0.8,1-0.5,1.6c0,0,0,0.1,0.1,0.1c0.6,1.4,1.2,2.6,1.8,3.8
						c0.5,0.9,0.4,2-0.3,2.7c-1.5,1.9-1.5,4.5-0.1,6.4c1.7,2.4,5.1,3,7.5,1.3s3-5.1,1.3-7.5C6945.1-560.7,6943.5-561.5,6941.8-561.5
						 M6943.9-553.9c-0.6,0.6-1.4,0.9-2.2,0.9l0,0c-1.7,0-3.1-1.4-3.1-3.1c0-1.7,1.4-3.1,3.1-3.1s3.1,1.4,3.1,3.1
						C6944.8-555.3,6944.5-554.5,6943.9-553.9"/>
					<path id="Trazado_3243_-_Contorno" class="st1" d="M6941.7-550.2L6941.7-550.2c-1.9,0-3.7-0.9-4.8-2.5c-1.5-2.1-1.5-4.9,0.1-7
						c0.6-0.6,0.7-1.5,0.3-2.2c-0.6-1.2-1.1-2.4-1.8-3.8c-0.5-0.8-0.2-1.8,0.6-2.3c0.2-0.1,0.5-0.2,0.8-0.2c0.7,0,1.3,0.5,1.6,1.1
						c0.8,1.6,1.4,2.9,1.9,4.2c0.2,0.6,0.7,0.9,1.3,0.9c1.6,0,3.1,0.6,4.2,1.7c1.1,1.1,1.7,2.6,1.7,4.1
						C6947.6-552.9,6945-550.3,6941.7-550.2L6941.7-550.2z M6937-567.2c-0.1,0-0.2,0-0.3,0.1c-0.5,0.2-0.3,0.8-0.2,1
						c0.6,1.4,1.2,2.6,1.7,3.8c0.6,1.1,0.5,2.4-0.4,3.3c-1.3,1.7-1.4,4-0.1,5.7c0.9,1.3,2.4,2,4,2l0,0c2.7,0,4.9-2.2,4.9-4.9
						s-2.1-4.8-4.8-4.9h-0.1c-1,0.1-1.9-0.6-2.2-1.5c-0.5-1.2-1.1-2.5-1.9-4.1C6937.5-566.8,6937.3-567.2,6937-567.2L6937-567.2z
						 M6941.8-552.5L6941.8-552.5c-2,0-3.6-1.6-3.6-3.6s1.6-3.6,3.6-3.6s3.6,1.6,3.6,3.6C6945.3-554.1,6943.7-552.5,6941.8-552.5
						L6941.8-552.5z M6941.7-558.7c-1.4,0-2.6,1.2-2.6,2.6s1.2,2.6,2.6,2.6l0,0c1.4,0,2.6-1.2,2.6-2.6
						C6944.4-557.5,6943.2-558.7,6941.7-558.7L6941.7-558.7z"/>
				</g>
			</g>
		</g>
	</g>
	<g class="st3">
		<path class="st4" d="M-66.3,293.4c-0.9-0.6-1.2-1.4-1.4-2.4c-0.1-0.6,0-1.2-0.1-1.9c-0.1-0.8,0-1.5-0.1-2.3
			c-0.1-0.8,0-1.7-0.1-2.5c-0.1-0.7,0-1.4-0.1-2c-0.1-0.7,0-1.4-0.1-2c0-0.6,0-1.2-0.1-1.8c0-0.8-0.1-1.6-0.2-2.4
			c0-0.3-0.1-0.6-0.1-1c0-0.1-0.1-0.2-0.1-0.4c0-0.1-0.3-0.2-0.4,0c-0.1,0.2-0.1,0.4-0.2,0.5c-0.4,1.3-0.8,2.6-1.1,3.9
			c-0.2,1-0.5,1.9-0.7,2.9c-0.2,1-0.6,2.1-0.7,3.2c-0.1,0.7-0.4,1.4-0.5,2.1c-0.1,0.5-0.2,1-0.4,1.4c-0.3,0.7-0.9,1-1.5,1.2
			c-0.9,0.3-1.7,0-2.4-0.5c-0.6-0.5-0.9-1.2-1-2s-0.2-1.5-0.4-2.2c-0.1-0.5-0.2-1.1-0.2-1.6c-0.1-0.5-0.1-0.9-0.2-1.3l-0.1-1
			c-0.1-0.5-0.2-1-0.2-1.4l-0.3-1.5c-0.2-0.9-0.4-1.8-0.6-2.7l-0.1-0.6v-0.2c-0.1-0.1-0.1-0.4-0.4-0.4c-0.2,0-0.1,0.3-0.2,0.5v0.1
			c0,0.7-0.1,1.3-0.1,2c-0.1,0.9-0.1,1.7-0.1,2.5v5.1c0,1.5,0.1,2.9,0.1,4.3c0.1,0.6,0.1,1.1,0.1,1.7c0,0.3-0.1,0.6-0.1,0.9
			c-0.2,0.7-0.6,1.2-1.3,1.5c-0.4,0.2-0.9,0.3-1.4,0.2c-1.1-0.3-1.6-1.1-1.9-2.1c-0.2-0.7-0.2-1.4-0.4-2.1c-0.1-0.7,0-1.4-0.1-2
			c-0.1-1-0.1-1.9-0.1-2.8c0.1-1.1,0-2.1,0.1-3.2c0.1-0.5,0.1-1,0.1-1.5c0.1-0.5,0.1-1,0.1-1.5c0.1-0.5,0-1.1,0.1-1.7
			c0.1-0.5,0-1,0.1-1.5l0.2-2c0.1-0.6,0.2-1.2,0.2-1.7c0-0.5,0.2-1,0.4-1.5c0.3-0.8,0.7-1.6,1.1-2.2c0.5-0.7,1.1-1.2,1.9-1.5
			c0.9-0.3,1.8-0.1,2.6,0.4c0.7,0.5,1.2,1.1,1.6,1.8c0.8,1.2,1.3,2.6,1.7,4c0.3,1,0.6,2,0.8,3c0,0.2,0.2,0.3,0.4,0.2
			c0.2-0.2,0.2-0.4,0.3-0.5c0.2-0.9,0.5-1.8,0.9-2.6c0.3-0.9,0.6-1.8,1-2.5l1.4-3c0.2-0.5,0.5-0.9,1-1.2c0.8-0.5,1.6-0.6,2.4-0.3
			c0.6,0.2,1.1,0.6,1.5,1.1c0.6,0.8,1,1.8,1.2,2.7c0.1,0.5,0.2,1,0.4,1.5l0.3,1.3l0.3,1.7l0.1,1.2c0.1,0.5,0,1,0.2,1.5v0.1
			c0,0.8,0.2,1.4,0.1,2.2c0,0.3,0.2,0.8,0.1,1.1c0,0.4,0,0.8,0.1,1.2c0.1,0.5,0,1,0,1.5c0.1,0.9,0,1.8,0.1,2.7
			c0.1,0.8,0,1.6,0.1,2.4c0.1,0.8,0,1.5,0.1,2.2c0,0.2,0.1,0.5,0.1,0.8c-0.1,0.7-0.2,1.4-0.6,1.9c-0.3,0.5-0.7,1-1.4,1.2
			C-65.2,293.7-65.7,293.7-66.3,293.4z"/>
		<path class="st4" d="M-48.9,288.2c0-2.1-1.4-2.1-3-2.1s-3.1,0.1-4.2,3.5c-1.1,3.3-6.1,2.5-5-0.8c0.9-2.9,5.1-17.4,8.5-22.1
			c1-1.4,3.5-1.3,4.6-0.4c3,2.5,3.8,13,4,17.3c0.1,4.2,1.4,9.4-2,9.4C-48.8,293.1-48.9,290.3-48.9,288.2z M-49.9,275.5
			c-0.6-1.5-1.3,0.1-1.7,1c-0.1,0.2-0.8,2.2-1.1,3.2c-0.4,1.1-0.1,1.3,1.9,1.3S-48.5,279.3-49.9,275.5z"/>
		<path class="st4" d="M-41.1,291.7c-0.6-0.5-0.8-1-1-1.7c-0.1-0.8,0-1.5-0.1-2.4c0-0.5,0.1-1.1,0.1-1.7c0-0.5,0-1.1,0-1.7
			c0.2-1.8,0-3.6,0.1-4.9v-4.2c0-1-0.1-2-0.1-2.9c0-0.2-0.1-0.3-0.1-0.5c0-0.5,0.1-1,0.2-1.5c0.4-1,1.2-1.7,2.4-1.6
			c1.1,0.1,1.7,0.5,2.2,1.7c0.2,0.6,0.3,1.2,0.4,1.8c0.1,1.2,0,2.4,0.1,3.5c0.1,1,0.1,2,0.1,3c0,1,0.1,2,0,3c-0.1,1,0,2.1-0.1,3.2
			c-0.1,0.9,0,1.9-0.1,2.8c0,0.6,0,1.2-0.1,1.7c0,0.4-0.1,0.9-0.3,1.3c-0.4,0.8-1,1.4-1.8,1.6C-40,292.3-40.6,292.1-41.1,291.7z"/>
		<path class="st4" d="M-33.3,292.4c-0.5-0.4-0.9-0.8-1.1-1.3c-0.1-0.5-0.2-0.9-0.4-1.2c0-0.6,0-1.1-0.1-1.6c0-0.6,0-1.2-0.1-1.8
			c0-0.4,0-0.9-0.1-1.3c-0.1-0.8-0.1-1.5-0.1-2.2c-0.1-0.6,0-1.3-0.1-2c-0.1-1.2-0.1-2.4-0.1-3.5c0-0.5,0.1-1,0.1-1.5
			c0-0.5-0.1-0.9,0-1.3c0.1-0.5,0-1.1,0.1-1.6c0.1-0.7,0.1-1.4,0.2-2.1c0-0.6,0.2-1.2,0.4-1.8c0.5-1,1.9-1.8,3.1-1.4
			c0.8,0.2,1.4,0.6,1.9,1.2c0.2,0.3,0.5,0.5,0.6,0.8c0.8,1.1,1.4,2.2,2,3.3c0.8,1.3,1.4,2.8,2.1,4.2c0.4,0.8,0.8,1.6,1.1,2.4
			c0,0.2,0.1,0.5,0.4,0.5c0.2,0,0.2-0.2,0.3-0.5c0.1-0.1,0.2-0.3,0.2-0.5c0-1,0-2,0.1-3c0.1-1.5,0-2.9,0.1-4.4c0-0.7,0-1.4,0-2.1
			c0.1-0.6,0.2-1.1,0.7-1.6c0.3-0.5,0.8-0.8,1.4-1c0.3-0.1,0.6-0.1,0.9,0c0.8,0.2,1.4,0.5,1.7,1.3c0.2,0.5,0.4,1,0.4,1.6
			c0,0.5,0,1,0,1.5h0v0.7c0,1.3-0.1,2.7-0.1,4c-0.1,0.8,0,1.5-0.1,2.3c-0.1,0.6,0,1.2-0.1,1.8c-0.1,0.6-0.1,1.1-0.1,1.8
			c0,0.3-0.2,0.5-0.1,0.8c0,0.3-0.1,0.5-0.1,0.8c0,0.5,0,0.9-0.1,1.4l-0.1,1.6c-0.1,0.7-0.2,1.4-0.4,2c-0.1,0.5-0.3,0.9-0.4,1.3
			c-0.1,0.6-0.4,1.1-0.8,1.6c-0.5,0.6-1,0.9-1.8,1c-0.8,0.1-1.5-0.2-2.1-0.8c-0.5-0.5-1-1.2-1.3-2c-0.3-0.7-0.6-1.4-0.9-2.1
			c-0.3-0.9-0.6-1.7-1-2.6c-0.4-0.8-0.7-1.6-1-2.5l-1.2-2.9c-0.1-0.2-0.1-0.4-0.3-0.5s-0.3-0.2-0.5-0.1c-0.1,0-0.1,0.2-0.1,0.3
			c0,0.8-0.1,1.5,0,2.2c0,0.5,0,1,0.1,1.6c0.1,0.7,0,1.3,0.1,2c0.1,0.5,0,1.1,0.1,1.6c0.1,0.6,0.1,1.2,0.2,1.8c0,0.4,0.1,0.8,0,1.2
			c-0.1,0.7-0.1,1.3-0.5,2c-0.4,0.5-0.8,0.8-1.2,0.9C-32.1,292.8-32.8,292.8-33.3,292.4z"/>
		<path class="st4" d="M-7.7,292.4c-0.3-0.4-0.4-0.9-0.5-1.4c-0.1-0.6-0.2-1.3-0.2-2c0-0.3-0.1-0.5-0.1-0.8c0.1-0.2,0.1-0.5-0.1-0.8
			v0c0-0.7-0.1-1.4-0.1-2l-0.2-7.3c-0.1-1.1,0-2.2-0.1-3.3c-0.1-1.1,0-2.1,0-3.2c-0.1-0.4-0.2-0.8-0.4-1.1c-0.2-0.3-0.6-0.5-1-0.4
			c-0.2,0-0.2,0-0.4,0h-2.6c-0.9,0-1.6-0.4-2.2-1.2c-0.4-0.5-0.5-1.1-0.3-1.8c0.2-0.8,0.8-1.4,1.5-1.7c0.4-0.1,0.7-0.2,1.1-0.2
			c1.9-0.1,3.7,0,5.6-0.1c1.1,0,2.2,0,3.3-0.1c1.1,0,2.2,0,3.3,0.1c0.9,0,1.7,0.1,2.5,0.5c1,0.5,1.5,2,0.5,3c-0.5,0.5-1,0.7-1.7,0.8
			c-0.5,0.1-1,0.2-1.5,0.3h-0.2c-0.5-0.1-1,0.1-1.5,0.1c0,0-0.1,0-0.2,0.1c-0.4,0.3-0.6,0.7-0.8,1.2c0,0.5-0.1,1.1,0,1.6
			c0.1,1.3,0,2.6,0.1,3.9c0,0.7,0.2,7.8,0.3,8.5c0.1,0.5,0,0.9,0.1,1.3c0.1,0.6,0,1.2,0.2,1.8v0.1c0,0.8,0.1,1.7,0.1,2.5
			c0,0.7-0.2,1.2-0.6,1.7c-0.4,0.5-1,0.7-1.5,0.8C-6.7,293.4-7.3,293-7.7,292.4z"/>
		<path class="st4" d="M11.9,288.2c0-2.1-1.4-2.1-3-2.1s-3.1,0.1-4.2,3.5c-1.1,3.3-6.1,2.5-5-0.8c0.9-2.9,5.1-17.4,8.5-22.1
			c1-1.4,3.5-1.3,4.6-0.4c3,2.5,3.8,13,4,17.3c0.1,4.2,1.4,9.4-2,9.4C12,293.1,11.9,290.3,11.9,288.2z M10.9,275.5
			c-0.6-1.5-1.3,0.1-1.7,1c-0.1,0.2-0.8,2.2-1.1,3.2C7.7,280.8,8,281,10,281S12.3,279.3,10.9,275.5z"/>
		<path class="st4" d="M19.7,291.7c-0.6-0.5-0.8-1-1-1.7c-0.1-0.8,0-1.5-0.1-2.4c0-0.5,0.1-1.1,0.1-1.7c0-0.5,0-1.1,0-1.7
			c0.2-1.8,0-3.6,0.1-4.9v-4.2c0-1-0.1-2-0.1-2.9c0-0.2-0.1-0.3-0.1-0.5c0-0.5,0.1-1,0.2-1.5c0.4-1,1.2-1.7,2.4-1.6
			c1.1,0.1,1.7,0.5,2.2,1.7c0.2,0.6,0.3,1.2,0.4,1.8c0.1,1.2,0,2.4,0.1,3.5c0.1,1,0.1,2,0.1,3c0,1,0.1,2,0,3c-0.1,1,0,2.1-0.1,3.2
			c-0.1,0.9,0,1.9-0.1,2.8c0,0.6,0,1.2-0.1,1.7c0,0.4-0.1,0.9-0.3,1.3c-0.4,0.8-1,1.4-1.8,1.6C20.8,292.3,20.2,292.1,19.7,291.7z"/>
		<path class="st4" d="M27.5,292.4c-0.5-0.4-0.9-0.8-1.1-1.3c-0.1-0.5-0.2-0.9-0.4-1.2c0-0.6,0-1.1-0.1-1.6c0-0.6,0-1.2-0.1-1.8
			c0-0.4,0-0.9-0.1-1.3c-0.1-0.8-0.1-1.5-0.1-2.2c-0.1-0.6,0-1.3-0.1-2c-0.1-1.2-0.1-2.4-0.1-3.5c0-0.5,0.1-1,0.1-1.5
			c0-0.5-0.1-0.9,0-1.3c0.1-0.5,0-1.1,0.1-1.6c0.1-0.7,0.1-1.4,0.2-2.1c0-0.6,0.2-1.2,0.4-1.8c0.5-1,1.9-1.8,3.1-1.4
			c0.8,0.2,1.4,0.6,1.9,1.2c0.2,0.3,0.5,0.5,0.6,0.8c0.8,1.1,1.4,2.2,2,3.3c0.8,1.3,1.4,2.8,2.1,4.2c0.4,0.8,0.8,1.6,1.1,2.4
			c0,0.2,0.1,0.5,0.4,0.5c0.2,0,0.2-0.2,0.3-0.5c0.1-0.1,0.2-0.3,0.2-0.5c0-1,0-2,0.1-3c0.1-1.5,0-2.9,0.1-4.4c0-0.7,0-1.4,0-2.1
			c0.1-0.6,0.2-1.1,0.7-1.6c0.3-0.5,0.8-0.8,1.4-1c0.3-0.1,0.6-0.1,0.9,0c0.8,0.2,1.4,0.5,1.7,1.3c0.2,0.5,0.4,1,0.4,1.6
			c0,0.5,0,1,0,1.5h0v0.7c0,1.3-0.1,2.7-0.1,4c-0.1,0.8,0,1.5-0.1,2.3c-0.1,0.6,0,1.2-0.1,1.8c-0.1,0.6-0.1,1.1-0.1,1.8
			c0,0.3-0.2,0.5-0.1,0.8c0,0.3-0.1,0.5-0.1,0.8c0,0.5,0,0.9-0.1,1.4l-0.1,1.6c-0.1,0.7-0.2,1.4-0.4,2c-0.1,0.5-0.3,0.9-0.4,1.3
			c-0.1,0.6-0.4,1.1-0.8,1.6c-0.5,0.6-1,0.9-1.8,1c-0.8,0.1-1.5-0.2-2.1-0.8c-0.5-0.5-1-1.2-1.3-2c-0.3-0.7-0.6-1.4-0.9-2.1
			c-0.3-0.9-0.6-1.7-1-2.6c-0.4-0.8-0.7-1.6-1-2.5l-1.2-2.9c-0.1-0.2-0.1-0.4-0.3-0.5s-0.3-0.2-0.5-0.1c-0.1,0-0.1,0.2-0.1,0.3
			c0,0.8-0.1,1.5,0,2.2c0,0.5,0,1,0.1,1.6c0.1,0.7,0,1.3,0.1,2c0.1,0.5,0,1.1,0.1,1.6c0.1,0.6,0.1,1.2,0.2,1.8c0,0.4,0.1,0.8,0,1.2
			c-0.1,0.7-0.1,1.3-0.5,2c-0.4,0.5-0.8,0.8-1.2,0.9C28.7,292.8,28,292.8,27.5,292.4z"/>
		<path class="st4" d="M67,288.2c0-2.1-1.4-2.1-3-2.1s-3.1,0.1-4.2,3.5c-1.1,3.3-6.1,2.5-5-0.8c0.9-2.9,5.1-17.4,8.5-22.1
			c1-1.4,3.5-1.3,4.6-0.4c3,2.5,3.8,13,4,17.3c0.1,4.2,1.4,9.4-2,9.4C67.1,293.1,67,290.3,67,288.2z M66,275.5
			c-0.6-1.5-1.3,0.1-1.7,1c-0.1,0.2-0.8,2.2-1.1,3.2c-0.4,1.1-0.1,1.3,1.9,1.3S67.3,279.3,66,275.5z"/>
	</g>
	<g class="st3">
		<path class="st4" d="M-108.7,332.9c-0.2-0.5-0.4-1-0.4-1.5v-1.2c0-0.5-0.1-0.9-0.1-1.3c0.2-1.2,0.1-2.5,0.1-3.7
			c0-0.3,0.1-0.6,0.1-0.9c-0.1-0.4-0.2-0.6-0.2-0.9c-0.1-0.4-0.4-0.5-0.6-0.7c-0.3,0-0.6-0.1-0.9-0.1c-0.3,0-0.6,0-0.9,0
			c-0.5,0-1,0.1-1.5,0.2l-0.4,0.1c-0.5,0.2-0.5,0.7-0.5,1.1c0,0.5,0,1,0,1.5c-0.1,1,0,2-0.1,3c0,0.5,0,1.2-0.1,1.7
			c-0.1,1.2-0.5,2.1-1.9,2.5c-0.6,0.2-1.2,0.1-1.8-0.3c-0.6-0.4-0.8-1-1.1-1.7v-0.3c0-0.8-0.1-1.5,0-2.2c0.1-0.9,0-1.8,0.1-2.7
			c0-0.8-0.1-1.5,0-2.3c0.1-0.9,0-1.8,0.1-2.6c0.1-1,0-1.9,0-2.8c0.1-1.6,0-3.2,0.1-4.8c0-0.6,0-1.2,0.2-1.8
			c0.3-0.9,1.2-1.6,2.1-1.6c0.8,0,1.4,0.2,1.9,0.7c0.5,0.5,0.6,1,0.7,1.6c0,0.5,0.1,1,0,1.6c-0.1,1.2,0,2.4,0,3.7
			c0,0.4,0,0.5,0.4,0.5l0.6,0.2c0.8,0,1.4-0.2,2.1-0.2c0.5,0,0.9-0.2,1.3-0.4c0.3-0.2,0.5-0.5,0.5-0.9c-0.1-1,0.1-1.9,0-2.9
			c0.1-0.5,0.1-1.1,0.1-1.7c0-0.5,0-1,0-1.4c0.1-0.5,0.1-1.1,0.2-1.6c0.2-0.9,0.7-1.7,1.6-2c1-0.4,2.1,0,2.7,0.8
			c0.4,0.7,0.5,1.3,0.4,2.1v0.1c0,0.7-0.1,1.2-0.1,1.8c0,0.8,0,1.5,0,2.2c-0.1,0.5,0,1.1-0.1,1.7c-0.1,0.7,0,1.5-0.1,2.2
			c0,0.5,0,1.1,0,1.7c-0.1,1,0,2,0,2.9c-0.1,1-0.1,2-0.1,2.9c0.1,0.8-0.1,1.5,0,2.2c0,0.7,0.1,1.5,0,2.2c-0.1,0.8,0,1.5-0.1,2.2
			c-0.1,1-0.7,1.9-1.8,2.2C-107,334.3-108.2,333.7-108.7,332.9z"/>
		<path class="st4" d="M-100.4,331.6c-0.9-0.6-1.4-1.4-1.6-2.5c-0.1-0.3-0.1-0.6-0.1-0.9c-0.2-1.2-0.1-2.4-0.1-3.5
			c0-0.8,0-1.6,0.1-2.3c0.1-0.5,0-1,0.1-1.5c0.1-0.6,0-1.3,0.1-1.9V319c0-0.8,0.1-1.6,0.2-2.3c0-1.1,0-2.2,0.1-3.2
			c0.1-0.7,0.1-1.4,0.1-2c0-0.6-0.1-1.1-0.1-1.7c0-0.8,0.2-1.5,0.6-2.2c0.5-0.7,1-1.2,1.8-1.2c0.5,0,0.9,0,1.2,0c1.5,0,3.1,0,4.6,0
			c0.6,0,1.3-0.2,2-0.1c0.5,0.1,1.1,0.1,1.6,0.3c0.8,0.3,1.4,1.2,1.4,2c0,0.6-0.2,1.2-0.6,1.5c-0.5,0.5-1,0.8-1.8,0.9
			c-1.6,0.2-3.1,0.1-4.6,0.1c-0.8,0-1.3,0.7-1.4,1.3c-0.2,0.7-0.1,1.4-0.1,2.1c-0.1,0.5-0.1,1-0.1,1.5c0,0.4,0.2,0.8,0.5,0.9
			c0.4,0.2,0.7,0.3,1.1,0.3c0.8,0,1.6,0.1,2.2,0.4c0.8,0.3,1.4,0.9,1.6,1.8c0.1,1.1-0.4,1.8-1.2,2.3c-0.4,0.2-0.8,0.3-1.2,0.4
			c-0.5,0-0.9,0-1.3-0.1c-0.6-0.1-1.2,0.1-1.8,0.5c-0.1,0.2-0.2,0.3-0.2,0.5c-0.1,0.4-0.1,0.7-0.1,1.1v0.9c0,0.5-0.1,1-0.1,1.5
			c0,0.9,0.5,1.4,1.4,1.4c1,0,1.9,0,2.8,0c1.1,0,1.9,0.5,2.4,1.5c0.3,0.7,0.1,1.7-0.2,2.2c-0.5,0.5-1.1,0.9-1.8,1
			c-0.6,0-1.1,0-1.6,0c-0.4,0-0.8,0-1.1,0h-1.7C-98.4,332.5-99.5,332.2-100.4,331.6z"/>
		<path class="st4" d="M-76.6,328.2c0-2.1-1.4-2.1-3-2.1s-3.1,0.1-4.2,3.5c-1.1,3.3-6.1,2.5-5-0.8c0.9-2.9,5.1-17.4,8.5-22.1
			c1-1.4,3.5-1.3,4.6-0.4c3,2.5,3.8,13,4,17.3c0.1,4.2,1.4,9.4-2,9.4C-76.5,333.1-76.6,330.3-76.6,328.2z M-77.6,315.5
			c-0.6-1.5-1.3,0.1-1.7,1c-0.1,0.2-0.8,2.2-1.1,3.2c-0.4,1.1-0.1,1.3,1.9,1.3S-76.2,319.3-77.6,315.5z"/>
		<path class="st4" d="M-62,334.7c-0.4,0.2-0.7,0-1.1,0c-0.6,0.1-1.2-0.1-1.8,0c-0.4,0-0.9,0-1.2-0.1l-0.8-0.1
			c-0.7-0.1-1.3-0.3-1.9-0.8c-0.6-0.5-0.9-1.2-1.1-1.9c0-0.3,0-0.6,0-0.9c0-0.7,0.1-1.4,0-2v-0.1c0.1-0.8,0.1-1.7,0.1-2.5
			c0-0.7,0.1-1.3,0.1-2c0-0.5,0.1-1,0-1.5c0-0.7,0.1-1.2,0.1-1.9c0-0.5,0.1-1.1,0.1-1.7c0-0.5,0.1-1.1,0.1-1.6c-0.1-0.5,0-1,0-1.5
			c0-0.5,0.2-4.6,0.2-5.1c0-0.6,0.1-1.2,0.1-1.8c0-0.2-0.1-0.3,0-0.5c0-0.2,0.2-1.3,0.4-1.6c0.5-0.7,1.1-1.2,2-1.2
			c1.2-0.1,2.2,0.8,2.5,1.8c0.1,0.5,0.1,1,0.1,1.4c-0.1,0.8-0.1,1.7-0.1,2.6c-0.1,4.2-0.2,4.6-0.1,5.1c0,0.5-0.1,1-0.1,1.5
			c0.1,0.6-0.1,1.2,0,1.8c0,0.6-0.1,1.2-0.1,1.8c0.1,0.5,0,1.1,0,1.7c0,0.5-0.1,1.1-0.1,1.7c0.1,0.6-0.1,1.2,0,1.9
			c0,0.5,0,0.9,0,1.4c0,0.3,0,0.5,0.1,0.8c0.1,0.3,0.5,0.5,0.9,0.5c0.2-0.1,0.4-0.1,0.6,0c0.6,0,1.2,0,1.8,0c0.4,0,0.8,0,1.2,0h0.6
			c0.9,0,1.7,0.2,2.4,0.8c0.4,0.3,0.7,0.8,0.8,1.3c0.3,1.5-0.9,2.8-2.2,2.9c-0.5,0-1,0.1-1.6,0C-60.8,334.7-61.4,334.8-62,334.7z"/>
		<path class="st4" d="M-50.5,332.4c-0.3-0.4-0.4-0.9-0.5-1.4c-0.1-0.6-0.2-1.3-0.2-2c0-0.3-0.1-0.5-0.1-0.8
			c0.1-0.2,0.1-0.5-0.1-0.8v0c0-0.7-0.1-1.4-0.1-2l-0.2-7.3c-0.1-1.1,0-2.2-0.1-3.3c-0.1-1.1,0-2.1,0-3.2c-0.1-0.4-0.2-0.8-0.4-1.1
			c-0.2-0.3-0.6-0.5-1-0.4c-0.2,0-0.2,0-0.4,0h-2.6c-0.9,0-1.6-0.4-2.2-1.2c-0.4-0.5-0.5-1.1-0.3-1.8c0.2-0.8,0.8-1.4,1.5-1.7
			c0.4-0.1,0.7-0.2,1.1-0.2c1.9-0.1,3.7,0,5.6-0.1c1.1,0,2.2,0,3.3-0.1c1.1,0,2.2,0,3.3,0.1c0.9,0,1.7,0.1,2.5,0.5
			c1,0.5,1.5,2,0.5,3c-0.5,0.5-1,0.7-1.7,0.8c-0.5,0.1-1,0.2-1.5,0.3h-0.2c-0.5-0.1-1,0.1-1.5,0.1c0,0-0.1,0-0.2,0.1
			c-0.4,0.3-0.6,0.7-0.8,1.2c0,0.5-0.1,1.1,0,1.6c0.1,1.3,0,2.6,0.1,3.9c0,0.7,0.2,7.8,0.3,8.5c0.1,0.5,0,0.9,0.1,1.3
			c0.1,0.6,0,1.2,0.2,1.8v0.1c0,0.8,0.1,1.7,0.1,2.5c0,0.7-0.2,1.2-0.6,1.7c-0.4,0.5-1,0.7-1.5,0.8C-49.5,333.4-50,333-50.5,332.4z"
			/>
		<path class="st4" d="M-30.9,332.9c-0.2-0.5-0.4-1-0.4-1.5v-1.2c0-0.5-0.1-0.9-0.1-1.3c0.2-1.2,0.1-2.5,0.1-3.7
			c0-0.3,0.1-0.6,0.1-0.9c-0.1-0.4-0.2-0.6-0.2-0.9c-0.1-0.4-0.4-0.5-0.6-0.7c-0.3,0-0.6-0.1-0.9-0.1c-0.3,0-0.6,0-0.9,0
			c-0.5,0-1,0.1-1.5,0.2l-0.4,0.1c-0.5,0.2-0.5,0.7-0.5,1.1c0,0.5,0,1,0,1.5c-0.1,1,0,2-0.1,3c0,0.5,0,1.2-0.1,1.7
			c-0.1,1.2-0.5,2.1-1.9,2.5c-0.6,0.2-1.2,0.1-1.8-0.3c-0.6-0.4-0.8-1-1.1-1.7v-0.3c0-0.8-0.1-1.5,0-2.2c0.1-0.9,0-1.8,0.1-2.7
			c0-0.8-0.1-1.5,0-2.3c0.1-0.9,0-1.8,0.1-2.6c0.1-1,0-1.9,0-2.8c0.1-1.6,0-3.2,0.1-4.8c0-0.6,0-1.2,0.2-1.8
			c0.3-0.9,1.2-1.6,2.1-1.6c0.8,0,1.4,0.2,1.9,0.7c0.5,0.5,0.6,1,0.7,1.6c0,0.5,0.1,1,0,1.6c-0.1,1.2,0,2.4,0,3.7
			c0,0.4,0,0.5,0.4,0.5l0.6,0.2c0.8,0,1.4-0.2,2.1-0.2c0.5,0,0.9-0.2,1.3-0.4c0.3-0.2,0.5-0.5,0.5-0.9c-0.1-1,0.1-1.9,0-2.9
			c0.1-0.5,0.1-1.1,0.1-1.7c0-0.5,0-1,0-1.4c0.1-0.5,0.1-1.1,0.2-1.6c0.2-0.9,0.7-1.7,1.6-2c1-0.4,2.1,0,2.7,0.8
			c0.4,0.7,0.5,1.3,0.4,2.1v0.1c0,0.7-0.1,1.2-0.1,1.8c0,0.8,0,1.5,0,2.2c-0.1,0.5,0,1.1-0.1,1.7c-0.1,0.7,0,1.5-0.1,2.2
			c0,0.5,0,1.1,0,1.7c-0.1,1,0,2,0,2.9c-0.1,1-0.1,2-0.1,2.9c0.1,0.8-0.1,1.5,0,2.2c0,0.7,0.1,1.5,0,2.2c-0.1,0.8,0,1.5-0.1,2.2
			c-0.1,1-0.7,1.9-1.8,2.2C-29.2,334.3-30.5,333.7-30.9,332.9z"/>
		<path class="st4" d="M-19.2,332.8c-0.2-0.3-0.5-0.7-0.5-1.1c-0.1-0.4-0.2-0.7-0.1-1.1c0.1-0.6,0-1.3,0.1-1.9
			c0.1-0.8,0-1.6,0.1-2.4c0.1-0.8,0-1.5,0.1-2.2c0.1-0.3,0.1-0.7,0.1-1c-0.1-0.6-0.1-1.2-0.1-1.8c-0.1-0.5-0.2-1-0.2-1.5
			c-0.1-0.2-0.1-0.5-0.2-0.7l-1.5-3.9c-0.5-1.3-1-2.5-1.5-3.8c-0.4-1.1-0.8-2.2-1.2-3.3c-0.1-0.4-0.2-0.9-0.1-1.4
			c0.1-0.7,0.5-1.2,1.1-1.7c0.4-0.3,0.9-0.5,1.4-0.5c1,0.1,1.7,0.5,2.1,1.4c0.3,0.5,0.5,1.2,0.8,1.7c0.3,0.7,0.5,1.4,0.8,2.1
			c0.4,1,0.8,1.9,1.1,2.9c0.1,0.5,0.4,0.9,0.5,1.3l0.2,0.3c0.1,0.1,0.2,0.1,0.4,0.1c0.3-0.1,0.5-0.4,0.7-0.7
			c0.5-0.7,0.9-1.5,1.3-2.2c1-1.7,1.8-3.4,2.6-5.2c0.4-0.8,1-1.3,1.8-1.6c1.2-0.5,2.4,0.2,2.8,1.3c0.2,0.3,0.2,0.7,0.2,1
			c0,0.5-0.1,1-0.4,1.5c-0.4,0.8-0.7,1.5-1.1,2.2c-0.4,0.6-0.7,1.2-1.1,1.8c-0.4,0.8-0.9,1.6-1.4,2.4c-0.4,0.5-0.6,1.2-1,1.8
			c-0.3,0.5-0.6,1-0.9,1.5c-0.6,1-1.1,2.2-1.5,3.3c-0.3,0.8-0.4,1.6-0.5,2.5c0,1,0,2-0.1,3c0,0.7,0,1.3-0.1,1.9
			c-0.1,0.6,0,1.2-0.1,1.9c0,0.5-0.1,1-0.3,1.4c-0.4,0.8-1.2,1.4-2.1,1.5C-18,333.7-18.7,333.4-19.2,332.8z"/>
		<path class="st4" d="M8.5,333.8c-0.5-0.5-0.9-1.1-1.1-1.7c-0.4-0.8-0.7-1.7-0.9-2.6c-0.2-0.8-0.4-1.6-0.6-2.4c0-0.3-0.1-0.7-0.1-1
			c0-0.5-0.2-1-0.1-1.4c0-0.2-0.1-0.5-0.1-0.7c0-0.2,0.1-0.5-0.1-0.6v-0.1c0-0.6-0.1-1.2-0.2-1.7c-0.1-0.7,0.1-1.3-0.2-2v0
			c0-0.8-0.1-1.6-0.1-2.4c0-0.8,0-1.5-0.1-2.2c-0.1-0.6,0-1.3-0.1-2c-0.1-0.7-0.1-1.4-0.1-1.9v-1.3c0-0.5,0.1-1.1,0.3-1.6
			c0.3-0.8,1.3-1.6,2.2-1.6c1.4,0,2.3,0.9,2.6,2.2c0.1,0.5,0.2,1.1,0.1,1.7c-0.1,1.1,0.2,2.1,0.1,3.2c0.1,0.6,0,1.2,0.1,1.8
			c0.1,0.7,0,1.3,0.1,1.9c0.1,0.5,0,1,0.1,1.5c0.1,0.6-0.1,1.3,0.1,1.9c0,0,0,0.1,0,0.1c-0.1,0.7,0.1,1.2,0.2,1.8
			c0,0.5,0,0.9,0.1,1.4l0.1,1.3c0.1,0.7,0.1,1.4,0.3,2.1l0.1,0.2c0.1,0,0.2,0.1,0.2,0l0.2-0.3c0.3-0.9,0.7-1.9,1-2.9
			c0.2-1,0.6-2,0.9-2.9c0.4-1.1,0.7-2.3,1-3.5l0.5-2.1c0.1-0.7,0.4-1.3,0.8-1.9c0.4-0.5,0.9-0.7,1.5-0.8c0.6-0.1,1.2,0,1.8,0.3
			c0.6,0.4,1.1,1,1.4,1.6c0.2,0.7,0.5,1.3,0.6,2c0,0.6,0.1,1.2,0.2,1.7c0.1,0.8,0.2,1.5,0.4,2.2c0.2,1,0.5,1.9,0.7,2.9
			c0.3,1.1,0.8,2.1,1.1,3.2c0,0.2,0.1,0.4,0.3,0.6c0.2,0.3,0.5,0.2,0.7,0c0.2-0.3,0.3-0.6,0.4-1c0.3-0.9,0.6-1.8,0.8-2.7l0.4-1.8
			c0.1-0.6,0.3-1.3,0.4-2c0.1-0.7,0.2-1.4,0.4-2.1c0.1-0.8,0.2-1.6,0.4-2.3c0.1-0.5,0.2-1,0.2-1.5c0.2-0.8,0.3-1.6,0.4-2.3
			c0.1-0.6,0.2-1.2,0.3-1.8c0-0.3,0.1-0.6,0.1-1c0.1-0.3,0.1-0.6,0.2-1c0.1-0.8,0.4-1.4,1-2c0.4-0.3,0.9-0.5,1.3-0.6
			c0.6-0.1,1.1,0,1.5,0.2c0.5,0.3,1,0.8,1.1,1.4c0.2,0.3,0.2,0.8,0.2,1.1c0,0.5-0.1,1-0.2,1.4c-0.1,0.7-0.3,1.2-0.4,1.9
			c-0.2,0.8-0.4,1.5-0.5,2.3c-0.1,0.7-0.3,1.3-0.4,2c-0.2,0.7-0.4,1.4-0.5,2.1c-0.2,0.8-0.4,1.5-0.6,2.3c-0.2,1-0.4,1.9-0.7,2.9
			l-0.6,2.2c-0.4,1.3-0.9,2.6-1.4,3.8c-0.5,1.1-0.9,2.2-1.6,3.1c-0.5,0.7-0.9,1.3-1.7,1.7c-0.9,0.4-1.9,0.3-2.7-0.2
			c-0.6-0.3-1-0.7-1.4-1.2c-1-1.1-1.7-2.4-2.4-3.7c-0.3-0.8-0.6-1.5-0.9-2.3c-0.1-0.3-0.2-0.7-0.5-0.9c-0.1-0.2-0.3-0.2-0.5,0
			c-0.1,0.1-0.2,0.3-0.2,0.5c-0.3,0.9-0.6,1.7-1,2.5c-0.2,0.6-0.6,1.2-0.9,1.8c-0.2,0.4-0.5,0.8-0.7,1.2c-0.2,0.6-0.7,1.2-1.1,1.6
			c-0.5,0.5-1,1-1.6,1.2C10.3,335.2,9.2,334.7,8.5,333.8z"/>
		<path class="st4" d="M37.3,331.6c-0.9-0.6-1.4-1.4-1.6-2.5c-0.1-0.3-0.1-0.6-0.1-0.9c-0.2-1.2-0.1-2.4-0.1-3.5
			c0-0.8,0-1.6,0.1-2.3c0.1-0.5,0-1,0.1-1.5c0.1-0.6,0-1.3,0.1-1.9V319c0-0.8,0.1-1.6,0.2-2.3c0-1.1,0-2.2,0.1-3.2
			c0.1-0.7,0.1-1.4,0.1-2c0-0.6-0.1-1.1-0.1-1.7c0-0.8,0.2-1.5,0.6-2.2c0.5-0.7,1-1.2,1.8-1.2c0.5,0,0.9,0,1.2,0c1.5,0,3.1,0,4.6,0
			c0.6,0,1.3-0.2,2-0.1c0.5,0.1,1.1,0.1,1.6,0.3c0.8,0.3,1.4,1.2,1.4,2c0,0.6-0.2,1.2-0.6,1.5c-0.5,0.5-1,0.8-1.8,0.9
			c-1.6,0.2-3.1,0.1-4.6,0.1c-0.8,0-1.3,0.7-1.4,1.3c-0.2,0.7-0.1,1.4-0.1,2.1c-0.1,0.5-0.1,1-0.1,1.5c0,0.4,0.2,0.8,0.5,0.9
			c0.4,0.2,0.7,0.3,1.1,0.3c0.8,0,1.6,0.1,2.2,0.4c0.8,0.3,1.4,0.9,1.6,1.8c0.1,1.1-0.4,1.8-1.2,2.3c-0.4,0.2-0.8,0.3-1.2,0.4
			c-0.5,0-0.9,0-1.3-0.1c-0.6-0.1-1.2,0.1-1.8,0.5c-0.1,0.2-0.2,0.3-0.2,0.5c-0.1,0.4-0.1,0.7-0.1,1.1v0.9c0,0.5-0.1,1-0.1,1.5
			c0,0.9,0.5,1.4,1.4,1.4c1,0,1.9,0,2.8,0c1.1,0,1.9,0.5,2.4,1.5c0.3,0.7,0.1,1.7-0.2,2.2c-0.5,0.5-1.1,0.9-1.8,1
			c-0.6,0-1.1,0-1.6,0c-0.4,0-0.8,0-1.1,0h-1.7C39.2,332.5,38.2,332.2,37.3,331.6z"/>
		<path class="st4" d="M51.8,331.7c-0.5-0.5-0.8-1-0.9-1.7c-0.1-0.8-0.1-1.5-0.1-2.4c0-0.5,0.1-1.1,0.1-1.7c0-0.5-0.1-1.1,0-1.7
			c0.2-1.8,0-3.6,0.1-4.9v-4.2c0-1-0.2-2-0.1-2.9c0-0.2-0.1-0.3-0.1-0.5c0-0.5,0-1,0.2-1.5c0.4-1,1.2-1.7,2.4-1.6
			c1,0.1,1.7,0.5,2.1,1.7c0.2,0.6,0.3,1.2,0.4,1.8c0.1,1.2,0,2.4,0.1,3.5c0.1,1,0,2,0.1,3c0,1,0,2-0.1,3c-0.1,1,0,2.1-0.1,3.2
			c-0.1,0.9,0,1.9-0.1,2.8c-0.1,0.6-0.1,1.2-0.1,1.7c0,0.4-0.1,0.9-0.3,1.3c-0.3,0.8-1,1.4-1.8,1.6C53,332.3,52.3,332.1,51.8,331.7z
			"/>
		<path class="st4" d="M63.1,334.4c-1.2-0.2-2.2-0.8-3-1.7c-0.8-0.9-1.3-1.9-1.7-3c-0.2-0.7-0.3-1.3-0.5-2c0-0.2-0.1-0.5-0.1-0.8
			c0-0.5-0.2-0.9-0.2-1.3c0-0.5,0-1,0-1.4v-1.1c0-0.8,0-1.5,0.2-2.3c0-0.5,0.1-1.1,0.2-1.6c0.1-0.6,0.2-1.1,0.4-1.8
			c0.3-1,0.6-2,1-2.9c0.3-0.8,0.7-1.7,1.2-2.5c0.3-0.7,0.8-1.3,1.2-2c0.5-0.7,1.1-1.3,1.8-1.9c0.5-0.4,1-0.9,1.7-1.2
			c0.6-0.3,1.3-0.7,2-0.7c0.2,0,0.3-0.1,0.5-0.1c0.4,0.1,0.9,0.1,1.3,0.3c0.8,0.4,1.4,1.4,1.2,2.4c-0.1,0.8-0.5,1.3-1.2,1.8
			c-0.4,0.2-0.8,0.3-1.2,0.4c-0.3,0-0.6,0.2-0.9,0.4c-0.5,0.4-0.9,0.8-1.3,1.2c-0.7,0.9-1.2,1.8-1.7,2.8c-0.5,1.1-0.8,2.1-1.1,3.2
			c-0.2,0.7-0.3,1.3-0.4,1.9l-0.1,1.5c-0.2,0.9,0,1.8,0,2.7c0,0.6,0.1,1.2,0.2,1.7c0.1,0.8,0.3,1.5,0.6,2.2l0.4,1
			c0.4,0.7,0.6,0.7,1.3,0.5c0.6-0.2,1-0.7,1.1-1.3c0.2-0.6,0.2-1.2,0.2-1.8c0-0.2,0-0.6,0-0.8c0-0.1,0-0.1,0-0.1
			c-0.1-0.5,0-1.1-0.2-1.7c-0.2-0.5-0.3-1-0.7-1.5c-0.2-0.2-0.5-0.5-0.7-0.6c-0.4-0.2-0.7-0.5-0.9-0.7c-0.4-0.4-0.6-0.9-0.7-1.5
			c0-0.9,0.4-1.6,1.1-2.1c0.7-0.4,1.4-0.5,2.2-0.2c0.5,0.2,1,0.5,1.4,0.8c0.2,0.2,0.5,0.3,0.8,0.6c0.7,0.7,1.2,1.5,1.6,2.4
			c0.2,0.5,0.3,1,0.5,1.4c0.1,0.3,0,0.6,0.1,0.9c0,0.5,0.1,1,0.1,1.5c0,1-0.2,2-0.4,3.1c-0.2,0.9-0.5,1.7-1,2.5
			c-0.3,0.8-1,1.4-1.6,2c-0.9,0.6-1.9,1-2.9,1.3C64.3,334.4,63.7,334.5,63.1,334.4z"/>
		<path class="st4" d="M82.5,332.9c-0.2-0.5-0.4-1-0.4-1.5v-1.2c0-0.5,0-0.9,0-1.3c0.1-1.2,0-2.5,0-3.7c0-0.3,0.1-0.6,0.1-0.9
			c0-0.4-0.1-0.6-0.2-0.9c-0.1-0.4-0.3-0.5-0.6-0.7c-0.3,0-0.5-0.1-0.9-0.1c-0.3,0-0.6,0-0.9,0c-0.5,0-1,0.1-1.5,0.2l-0.4,0.1
			c-0.5,0.2-0.5,0.7-0.5,1.1c0,0.5,0,1,0,1.5c-0.1,1,0,2-0.1,3c0,0.5,0,1.2,0,1.7c-0.2,1.2-0.6,2.1-1.9,2.5
			c-0.6,0.2-1.2,0.1-1.8-0.3c-0.6-0.4-0.9-1-1.1-1.7v-0.3c0-0.8-0.1-1.5,0-2.2c0-0.9,0-1.8,0-2.7c0.1-0.8,0-1.5,0.1-2.3
			c0.1-0.9-0.1-1.8,0-2.6c0.1-1,0-1.9,0-2.8c0.2-1.6,0-3.2,0-4.8c0-0.6,0-1.2,0.2-1.8c0.3-0.9,1.2-1.6,2-1.6c0.8,0,1.4,0.2,1.9,0.7
			c0.5,0.5,0.7,1,0.7,1.6c0,0.5,0.1,1,0,1.6c-0.1,1.2,0,2.4,0,3.7c0,0.4,0,0.5,0.4,0.5l0.6,0.2c0.8,0,1.5-0.2,2.2-0.2
			c0.4,0,0.9-0.2,1.3-0.4c0.3-0.2,0.5-0.5,0.5-0.9c0-1,0.1-1.9,0-2.9c0.2-0.5,0-1.1,0.1-1.7c0.1-0.5,0.1-1,0.1-1.4
			c0-0.5,0-1.1,0.2-1.6c0.2-0.9,0.7-1.7,1.6-2c1-0.4,2.1,0,2.7,0.8c0.4,0.7,0.5,1.3,0.4,2.1v0.1c0.1,0.7,0,1.2-0.1,1.8
			c0,0.8,0,1.5,0,2.2c0,0.5,0,1.1,0,1.7c-0.1,0.7,0,1.5-0.1,2.2c0,0.5,0,1.1,0,1.7c-0.1,1,0,2,0,2.9c-0.1,1,0,2,0,2.9
			c0,0.8-0.1,1.5-0.1,2.2c0.1,0.7,0.1,1.5,0,2.2c0,0.8,0.1,1.5,0,2.2c-0.1,1-0.7,1.9-1.8,2.2C84.2,334.3,82.9,333.7,82.5,332.9z"/>
		<path class="st4" d="M97.3,332.4c-0.3-0.4-0.5-0.9-0.5-1.4c-0.1-0.6-0.2-1.3-0.2-2c0-0.3-0.1-0.5-0.1-0.8s0-0.5-0.1-0.8v0
			c0.1-0.7-0.1-1.4-0.1-2l-0.2-7.3c-0.2-1.1,0-2.2-0.2-3.3c-0.1-1.1,0-2.1,0-3.2c0-0.4-0.1-0.8-0.3-1.1c-0.2-0.3-0.6-0.5-1-0.4
			c-0.2,0-0.2,0-0.4,0h-2.6c-0.9,0-1.7-0.4-2.2-1.2c-0.4-0.5-0.5-1.1-0.3-1.8c0.2-0.8,0.8-1.4,1.5-1.7c0.3-0.1,0.7-0.2,1-0.2
			c1.8-0.1,3.7,0,5.5-0.1c1.1,0,2.2,0,3.3-0.1c1.1,0,2.2,0,3.3,0.1c0.9,0,1.7,0.1,2.5,0.5c1,0.5,1.5,2,0.5,3c-0.5,0.5-1,0.7-1.7,0.8
			c-0.5,0.1-1,0.2-1.5,0.3h-0.2c-0.5-0.1-1,0.1-1.5,0.1c0,0-0.2,0-0.2,0.1c-0.4,0.3-0.6,0.7-0.8,1.2c0,0.5-0.1,1.1,0,1.6
			c0.2,1.3,0,2.6,0.1,3.9c0.1,0.7,0.2,7.8,0.3,8.5c0,0.5,0,0.9,0.1,1.3c0.2,0.6,0,1.2,0.2,1.8v0.1c0,0.8,0.1,1.7,0.1,2.5
			c0,0.7-0.2,1.2-0.6,1.7c-0.5,0.5-1.1,0.7-1.5,0.8C98.3,333.4,97.8,333,97.3,332.4z"/>
	</g>
</g>
<g class="st3">
	<path class="st4" d="M378.6,149.7c-1.2-0.4-2-1.2-2.5-2.4c-0.2-0.7-0.3-1.3-0.5-2c-0.1-1,0-2-0.1-2.8c0-1.1,0-1.9,0-2.7
		c0-0.8,0-1.7,0.1-2.5c0.1-0.6,0-1.2,0.1-1.8c0-0.6,0-1.2,0.1-1.9c0.2-1.2,0.1-2.3,0-3.5c0-0.7,0-1.3-0.1-2V128
		c-0.1-0.2-0.1-0.4,0-0.7c0-0.1,0-0.3,0-0.4c-0.2-0.5,0-0.9,0.2-1.4c0.3-0.7,0.9-1.1,1.7-1.4c0.5-0.2,1-0.2,1.6-0.3
		c0.5-0.1,1,0,1.5-0.2c0.1,0,0.1,0,0.1,0c1.3,0,2.7-0.2,4-0.1c1,0.1,1.8,0.5,2.4,1.3c0.5,0.7,0.5,1.5,0,2.2c-0.4,0.7-1.1,1-1.9,1.2
		c-0.3,0.1-0.6,0.1-1,0.1c-0.9,0-1.8,0.2-2.8,0.2c-0.6,0-1,0.4-1,1c0,1.2,0,2.3,0,3.5c0,0.3,0,0.5,0,0.9c-0.1,0.3,0,0.7,0.2,1
		c0.1,0.2,0.2,0.3,0.5,0.3c0.5,0,1,0,1.5,0c0.8,0,1.5,0.2,2.2,0.5c0.8,0.3,1.2,1,1.3,1.9c0.1,1-0.7,1.8-1.7,2.2
		c-0.6,0.2-1.2,0.4-1.8,0.4c-0.4,0-0.9,0-1.2,0h-0.4c-0.7,0.2-0.8,0.4-0.9,1.1v2.6c0,0.4,0.1,0.8,0.1,1.1c0,0.6,0.5,1,1.1,1
		c0.5,0,1.1,0,1.6,0c0.7,0,1.4,0.1,2.1,0.5c0.5,0.4,0.8,0.8,0.9,1.4c0.1,0.5-0.1,0.9-0.4,1.3c-0.5,0.5-1.1,0.8-1.8,0.9
		c-0.5,0-1,0.1-1.4,0.1c-0.5,0-1.1,0.2-1.7,0C380.3,150,379.4,150,378.6,149.7z"/>
	<path class="st4" d="M399.7,150.3c-0.7-0.5-1-1.2-1-2.1c-0.2-1.4,0-2.8-0.1-4.2c0-0.3-0.1-0.6-0.2-0.9c-0.1-0.2-0.2-0.2-0.5-0.2
		c-0.6,0-1.2,0-1.8-0.1c-0.5-0.1-1-0.1-1.5-0.1c-0.2,0-0.3,0-0.5,0.2c-0.1,0.2-0.3,0.3-0.4,0.5c-0.2,0.1-0.2,0.3-0.2,0.5l-0.3,2.2
		c-0.1,0.5-0.2,1-0.2,1.5c-0.2,0.7-0.6,1.1-1.1,1.5c-0.2,0.2-0.4,0.2-0.6,0.4c-0.6,0.3-1.2,0.1-1.7-0.3c-0.5-0.4-0.9-1-1-1.6
		c-0.1-0.3-0.2-0.7,0-1v-0.1c0-0.5,0-1,0.1-1.5c0.1-0.8,0.2-1.6,0.4-2.4l0.4-2.3c0.2-0.9,0.4-1.7,0.6-2.6c0.5-1.8,1-3.5,1.6-5.1
		c0.4-1.1,0.8-2.1,1.2-3.1l1.3-3.3c0.4-1,0.8-1.8,1.4-2.6c0.3-0.5,0.8-0.6,1.3-0.7c0.9-0.1,1.6,0.2,2.2,0.8c0.5,0.5,0.8,1,1.1,1.5
		c0.4,0.7,0.8,1.4,1.1,2.2c0.4,0.9,0.7,1.7,0.9,2.6c0.1,0.5,0.3,1.1,0.3,1.6c0,0.5,0.2,1.1,0.2,1.6c0,0.2,0.1,0.4,0.1,0.7
		c0,0.2-0.1,0.4,0.1,0.6c0,0,0,0,0,0.1c-0.1,0.5,0.1,1.1,0.1,1.7c0,0.9,0,1.9,0.1,2.8c0.1,1.1,0,2.3,0,3.5c0,0.5,0.1,1,0.1,1.5v1.5
		c0,0.6,0,1.2,0,1.9c0,0.5-0.1,1.1-0.3,1.7c-0.2,0.7-0.8,1.2-1.5,1.5C400.8,150.8,400.2,150.7,399.7,150.3z M398.3,137.4
		c0.1-0.2,0.1-0.4,0.1-0.7c0-0.3-0.1-0.6-0.1-1c0-0.5-0.1-1-0.1-1.6v0c-0.2-0.6-0.2-1.2-0.3-1.8c0-0.3-0.1-0.5-0.2-0.8
		c0-0.1-0.1-0.2-0.2-0.2c-0.2,0-0.3,0-0.4,0.2c0,0.1-0.1,0.1-0.1,0.2c-0.3,0.8-0.5,1.5-0.9,2.2c-0.3,1-0.6,1.9-0.9,2.8
		c-0.1,0.3-0.2,0.6-0.2,0.9s0.2,0.5,0.5,0.6c0.2,0.1,0.3,0.1,0.5,0.1s0.5,0,0.6,0c0.2,0.1,0.4,0,0.7,0
		C397.8,138.2,398.2,137.9,398.3,137.4z"/>
	<path class="st4" d="M410.1,150.2c-0.3-0.4-0.5-0.9-0.6-1.4c-0.1-0.3-0.1-0.6-0.1-1c0-0.8,0-1.5,0-2.3c0.1-1,0-2,0.1-3
		c0.1-1,0-2,0.1-2.9c0.1-0.7,0-1.5,0.1-2.2c0.1-0.6,0-1.2,0.1-1.7s0-1,0.1-1.6c0.1-0.7,0-1.4,0.1-2.1c0.1-1.1,0-2.1,0-3.2
		c0-0.5-0.2-1-0.3-1.5c-0.2-0.3-0.4-0.5-0.8-0.5h-2.8c-1,0-1.6-0.3-2.1-1c-0.2-0.2-0.2-0.5-0.2-0.8c0-0.2,0-0.5,0-0.7
		c0.2-0.8,1-1.5,1.9-1.5c0.3,0,0.6,0,0.9,0h3.7c1.2,0,2.6,0,3.8,0c1.5,0,2.9,0,4.3,0c0.7,0,1.2,0.1,1.8,0.5c0.5,0.2,1,0.7,1.1,1.3
		c0,0.3,0,0.8-0.2,1.1c-0.2,0.2-0.5,0.5-0.9,0.6c0,0-0.1,0.1-0.2,0.1c-0.4,0.2-0.8,0.4-1.2,0.4c-0.8,0.1-1.6,0-2.4,0
		c-0.3,0-0.6,0.2-0.9,0.1c-0.1,0-0.1,0.1-0.2,0.2c-0.4,0.3-0.6,0.7-0.7,1.2c-0.1,0.3-0.1,0.6-0.1,1c0,0.8,0,1.6,0,2.4
		c0,0.9-0.2,1.8-0.1,2.7c-0.2,0.6,0,1.2-0.1,1.7c0,0.6,0,1.2-0.1,1.8c-0.1,0.8,0,1.4,0,2.2c-0.2,1.1,0,2.2-0.2,3.2
		c0,0.9,0,1.8,0,2.7c-0.1,0.6,0,1.2-0.1,1.8c-0.1,0.6-0.1,1.2-0.4,1.8c-0.2,0.5-0.5,1-1.2,1.3C411.5,151.1,410.5,150.8,410.1,150.2z
		"/>
	<path class="st4" d="M442.3,150.3c-0.7-0.5-1-1.2-1.1-2.1c-0.1-1.4,0-2.8-0.1-4.2c0-0.3-0.1-0.6-0.2-0.9c-0.2-0.2-0.2-0.2-0.5-0.2
		c-0.6,0-1.2,0-1.8-0.1c-0.5-0.1-1-0.1-1.5-0.1c-0.2,0-0.4,0-0.5,0.2c-0.2,0.2-0.3,0.3-0.4,0.5c-0.1,0.1-0.2,0.3-0.2,0.5l-0.3,2.2
		c-0.1,0.5-0.2,1-0.2,1.5c-0.2,0.7-0.6,1.1-1,1.5c-0.2,0.2-0.4,0.2-0.7,0.4c-0.6,0.3-1.2,0.1-1.7-0.3c-0.5-0.4-0.8-1-1-1.6
		c-0.1-0.3-0.2-0.7,0-1v-0.1c0-0.5,0-1,0.1-1.5c0.1-0.8,0.2-1.6,0.3-2.4l0.5-2.3c0.1-0.9,0.4-1.7,0.6-2.6c0.5-1.8,1-3.5,1.6-5.1
		c0.3-1.1,0.8-2.1,1.1-3.1l1.3-3.3c0.3-1,0.8-1.8,1.4-2.6c0.3-0.5,0.8-0.6,1.3-0.7c0.8-0.1,1.6,0.2,2.2,0.8c0.4,0.5,0.8,1,1.1,1.5
		c0.5,0.7,0.8,1.4,1.1,2.2c0.3,0.9,0.6,1.7,0.8,2.6c0.1,0.5,0.3,1.1,0.3,1.6c0.1,0.5,0.2,1.1,0.2,1.6c0,0.2,0.2,0.4,0.2,0.7
		c0,0.2-0.1,0.4,0,0.6c0,0,0,0,0,0.1c0,0.5,0.1,1.1,0.2,1.7c0,0.9,0,1.9,0.1,2.8c0.1,1.1,0,2.3,0,3.5c0,0.5,0.2,1,0.1,1.5v1.5
		c0,0.6,0,1.2,0,1.9c0,0.5-0.1,1.1-0.3,1.7c-0.3,0.7-0.8,1.2-1.5,1.5C443.4,150.8,442.8,150.7,442.3,150.3z M440.9,137.4
		c0-0.2,0-0.4,0-0.7c0-0.3-0.1-0.6-0.1-1c0-0.5-0.2-1-0.1-1.6v0c-0.1-0.6-0.2-1.2-0.3-1.8c0-0.3-0.1-0.5-0.2-0.8
		c0-0.1,0-0.2-0.2-0.2c-0.2,0-0.3,0-0.4,0.2c0,0.1-0.1,0.1-0.1,0.2c-0.3,0.8-0.5,1.5-0.8,2.2c-0.3,1-0.7,1.9-0.9,2.8
		c-0.1,0.3-0.1,0.6-0.1,0.9s0.1,0.5,0.4,0.6c0.2,0.1,0.4,0.1,0.6,0.1c0.2,0,0.5,0,0.6,0c0.2,0.1,0.5,0,0.7,0
		C440.5,138.2,440.8,137.9,440.9,137.4z"/>
</g>
<g class="st3">
	<path class="st4" d="M333.6,190.8c-0.6-0.5-1-1.2-1.2-2.1c-0.1-0.8,0-1.7-0.1-2.5c0-0.3,0-0.6-0.1-0.9c0-0.1,0-0.3,0-0.5
		c0.2-0.4,0.1-0.8,0.1-1.2c0-2.5,0-5,0-7.5c0-1.5,0-2.9,0.1-4.4c0.1-1.2,0-2.3,0.1-3.5c0-1.1,0-2.2,0.1-3.2c0-0.9,0.4-1.7,1.2-2.2
		c0.3-0.2,0.8-0.5,1.2-0.4h0.3c0.9-0.1,1.5,0.4,2,1c0.3,0.4,0.5,0.9,0.5,1.5c0,1.4,0,2.9,0,4.4c-0.1,1.2,0,2.5,0,3.7
		c-0.1,0.2-0.1,0.5,0.1,0.6c0.2,0.2,0.5,0.3,0.8,0.3c0.9,0,1.8-0.1,2.8-0.1c0.4,0,0.8-0.1,1.2-0.5c0.5-0.3,0.8-0.8,0.8-1.3
		c0-0.5,0-0.8-0.1-1.3c-0.1-1.2,0-2.3,0-3.5c0-1.1,0.5-1.9,1.5-2.4c1.3-0.6,2.8,0,3.2,1.1c0.2,0.5,0.4,1.1,0.4,1.7
		c0,1.2,0.2,2.4,0.1,3.6c0.2,0.5,0.1,1.2,0.2,1.7c0.1,0.6,0,1.3,0.1,1.9c0.1,0.6,0,1.2,0.1,1.9c0.1,0.5,0,1,0.1,1.6
		c0.1,0.6,0,1.2,0.2,1.9c0,0.5,0,0.9,0,1.4c0,0.3,0.2,0.6,0.2,1c-0.1,0.3,0,3,0.2,3.4c-0.1,0.7,0.1,1.5-0.2,2.2
		c-0.2,0.8-0.8,1.5-1.6,1.8c-0.2,0.1-0.5,0-0.7,0.2c-0.6-0.2-1.2-0.3-1.7-0.8c-0.7-0.7-1-1.5-1-2.4c0-0.3-0.1-0.7-0.1-1
		s-0.1-3.1-0.2-3.4c0-0.1,0-0.3,0-0.5c0-0.8-0.2-1.5-0.5-2.2c0-0.2-0.2-0.3-0.3-0.5c-0.1-0.2-0.3-0.4-0.6-0.2c-0.1,0-0.2,0-0.2,0
		c-1.1,0-2.2,0.2-3.3,0.2c-1.2,0-1.6,0.9-1.6,1.6v3.8c0,1.1,0,2.2,0,3.3c0,0.7-0.1,1.3-0.4,1.9c-0.3,0.7-0.8,1.2-1.5,1.5
		C334.9,191.4,334.2,191.3,333.6,190.8z"/>
	<path class="st4" d="M353.2,189.7c-1.2-0.4-2-1.2-2.5-2.4c-0.2-0.7-0.3-1.3-0.5-2c-0.1-1,0-2-0.1-2.8c0-1.1,0-1.9,0-2.7
		c0-0.8,0-1.7,0.1-2.5c0.1-0.6,0-1.2,0.1-1.8c0-0.6,0-1.2,0.1-1.9c0.2-1.2,0.1-2.3,0-3.5c0-0.7,0-1.3-0.1-2V168
		c-0.1-0.2-0.1-0.4,0-0.7c0-0.1,0-0.3,0-0.4c-0.2-0.5,0-0.9,0.2-1.4c0.3-0.7,0.9-1.1,1.7-1.4c0.5-0.2,1-0.2,1.6-0.3
		c0.5-0.1,1,0,1.5-0.2c0.1,0,0.1,0,0.1,0c1.3,0,2.7-0.2,4-0.1c1,0.1,1.8,0.5,2.4,1.3c0.5,0.6,0.5,1.5,0,2.2c-0.4,0.7-1.1,1-1.9,1.2
		c-0.3,0.1-0.6,0.1-1,0.1c-0.9,0-1.8,0.2-2.8,0.2c-0.6,0-1,0.4-1,1c0,1.2,0,2.3,0,3.5c0,0.3,0,0.5,0,0.9c-0.1,0.3,0,0.7,0.2,1
		c0.1,0.2,0.2,0.3,0.5,0.3c0.5,0,1,0,1.5,0c0.8,0,1.5,0.2,2.2,0.5c0.8,0.3,1.2,1,1.3,1.9c0.1,1-0.7,1.8-1.7,2.2
		c-0.6,0.2-1.2,0.4-1.8,0.4c-0.4,0-0.9,0-1.2,0h-0.4c-0.7,0.2-0.8,0.4-0.9,1.1v2.6c0,0.4,0.1,0.8,0.2,1.1c0,0.6,0.5,1,1.1,1
		c0.5,0,1.1,0,1.6,0c0.7,0,1.4,0.1,2.1,0.5c0.5,0.4,0.8,0.8,0.9,1.4c0.1,0.5-0.1,0.9-0.4,1.3c-0.5,0.5-1.1,0.8-1.8,0.9
		c-0.5,0-1,0.1-1.4,0.1c-0.5,0-1.1,0.2-1.7,0C354.8,190,354,190,353.2,189.7z"/>
	<path class="st4" d="M374.2,190.3c-0.7-0.5-1-1.2-1-2.1c-0.2-1.4,0-2.8-0.1-4.2c0-0.3-0.1-0.6-0.2-0.9c-0.1-0.2-0.2-0.2-0.5-0.2
		c-0.6,0-1.2,0-1.8-0.1c-0.5-0.1-1-0.1-1.5-0.1c-0.2,0-0.3,0-0.5,0.2c-0.1,0.2-0.3,0.3-0.4,0.5c-0.2,0.1-0.2,0.3-0.2,0.5l-0.3,2.2
		c-0.1,0.5-0.2,1-0.2,1.5c-0.2,0.7-0.6,1.1-1.1,1.5c-0.2,0.2-0.4,0.2-0.6,0.4c-0.6,0.3-1.2,0.1-1.7-0.3c-0.5-0.4-0.9-1-1-1.6
		c-0.1-0.3-0.2-0.7,0-1v-0.1c-0.1-0.5,0-1,0.1-1.5c0.1-0.8,0.2-1.6,0.4-2.4l0.4-2.3c0.2-0.9,0.4-1.7,0.6-2.6c0.5-1.8,1-3.5,1.6-5.1
		c0.4-1.1,0.8-2.1,1.2-3.1l1.3-3.2c0.4-1,0.8-1.8,1.4-2.6c0.3-0.5,0.8-0.6,1.3-0.7c0.9-0.1,1.6,0.2,2.2,0.8c0.5,0.5,0.8,1,1.1,1.5
		c0.4,0.7,0.8,1.4,1.1,2.2c0.4,0.9,0.7,1.7,0.9,2.6c0.1,0.5,0.3,1.1,0.3,1.6c0,0.5,0.2,1.1,0.2,1.6c0,0.2,0.1,0.4,0.1,0.7
		c0,0.2-0.1,0.4,0.1,0.6c0,0,0,0,0,0.1c-0.1,0.5,0.1,1.1,0.1,1.7c0,0.9,0,1.9,0.1,2.8c0.1,1.1,0,2.3,0,3.5c0,0.5,0.1,1,0.1,1.5v1.5
		c0,0.6,0,1.2,0,1.9c0,0.5-0.1,1.1-0.3,1.7c-0.2,0.7-0.8,1.2-1.5,1.5C375.3,190.8,374.7,190.7,374.2,190.3z M372.8,177.4
		c0.1-0.2,0.1-0.4,0.1-0.7c0-0.3-0.1-0.6-0.1-1c0-0.5-0.2-1-0.1-1.6v0c-0.2-0.6-0.2-1.2-0.3-1.8c0-0.3-0.1-0.5-0.2-0.8
		c0-0.1-0.1-0.2-0.2-0.2c-0.2,0-0.3,0-0.4,0.2c0,0.1-0.1,0.1-0.1,0.2c-0.3,0.8-0.5,1.5-0.9,2.2c-0.3,1-0.6,1.9-0.9,2.8
		c-0.1,0.3-0.2,0.6-0.2,0.9s0.2,0.5,0.5,0.6c0.2,0.1,0.3,0.1,0.5,0.1s0.5,0,0.6,0c0.2,0.1,0.4,0,0.7,0
		C372.4,178.2,372.7,177.9,372.8,177.4z"/>
	<path class="st4" d="M389.4,191.2c-0.7-0.2-1.4-0.2-2.1-0.3c-0.6-0.2-1.3-0.2-2-0.2c-0.5-0.1-1-0.1-1.5-0.1c-0.6,0-1.3-0.2-1.9-0.5
		c-0.4-0.1-0.8-0.2-1.2-0.5c-0.5-0.3-1-0.8-1.2-1.5c-0.2-0.6-0.2-1.6-0.2-2.3c0-0.2,0-0.5,0-0.8c0-0.4,0-0.9,0-1.2
		c0-0.5,0-1,0.1-1.6c0-0.3,0-0.7,0-1.1c0-0.5,0-0.9,0-1.4c0,0,0-0.1,0-0.1c0-0.5,0-1,0-1.5v-1.4c0.1-0.5,0.1-0.9,0.1-1.4
		s-0.1-1,0-1.5v-0.2c0-0.5,0-1.1,0-1.6c0-0.4,0-0.7,0-1.1c0-0.5,0-1,0-1.5c0-0.3,0-0.8,0-1.1c0.1-0.3,0-0.6,0.1-1V166
		c0-0.8,0.1-1.5,0.3-2.3c0.2-0.6,0.8-1.1,1.4-1.3c0.8-0.2,1.5,0,2,0.6c0.3,0.4,0.4,0.8,0.5,1.2c0.2,0.5,0.2,0.9,0.2,1.5
		c0.1,0.5,0,1.2,0,1.8c0,0.7,0,1.3-0.1,2c0,0.4,0,0.8,0,1.2c0,0.3-0.1,0.8-0.1,1.2v0.9c0,0.4,0,0.8,0,1.2c0,0.6,0,1.2,0,1.7v0.1
		c0.1,0.6,0,1.1,0,1.7c0,0.2-0.1,0.4,0,0.7c0,0.2,0.1,0.5,0,0.7v0.2c0,0.6-0.1,1.1-0.1,1.7v1.3c0,0.5,0,0.9-0.1,1.4
		c0,0.2,0,0.5,0,0.8c0,0.5-0.1,0.9,0,1.3c0,0.5,0.2,0.7,0.6,0.9c0.4,0.2,0.7,0.2,1,0.2h1c0.9,0,1.8,0,2.7,0.2c0.1,0,0.2,0,0.4,0
		c1-0.1,2,0.1,2.9,0.8c0.4,0.3,0.7,0.8,0.8,1.2c0.1,0.8,0,1.5-0.6,2c-0.4,0.4-0.8,0.7-1.5,0.8C390.6,191.3,390,191.4,389.4,191.2z"
		/>
	<path class="st4" d="M396.2,190.2c-0.4-0.4-0.6-0.9-0.6-1.4c-0.1-0.3-0.1-0.6-0.1-1c0-0.8,0-1.5,0-2.3c0.1-1,0-2,0.1-3
		c0.1-1,0-2,0.1-2.9c0.1-0.7,0-1.5,0.1-2.2c0.1-0.6,0-1.2,0.1-1.7c0.1-0.5,0-1,0.1-1.6c0.1-0.7,0-1.4,0.1-2.1c0.2-1.1,0-2.1,0-3.2
		c0-0.5-0.1-1-0.3-1.5c-0.2-0.3-0.4-0.5-0.8-0.5h-2.8c-1,0-1.6-0.3-2.1-1c-0.2-0.2-0.2-0.5-0.2-0.8c0-0.2,0-0.4,0-0.7
		c0.2-0.8,1.1-1.5,1.9-1.5c0.3,0,0.6,0,0.9,0h3.7c1.2,0,2.5,0,3.8,0c1.5,0,2.9,0,4.3,0c0.6,0,1.2,0.1,1.8,0.5c0.5,0.2,1,0.7,1,1.3
		c0,0.3,0,0.8-0.2,1.1c-0.2,0.2-0.5,0.5-0.8,0.6c0,0-0.1,0.1-0.2,0.1c-0.3,0.2-0.8,0.4-1.2,0.4c-0.8,0.1-1.6,0-2.4,0
		c-0.3,0-0.6,0.2-0.9,0.1c-0.1,0-0.2,0.1-0.2,0.2c-0.3,0.3-0.6,0.7-0.7,1.2c0,0.3,0,0.6,0,1c0,0.8,0,1.6,0,2.4
		c0,0.9-0.2,1.8-0.2,2.7c-0.1,0.6,0,1.2-0.1,1.7c0,0.6,0,1.2-0.1,1.8c-0.1,0.8,0,1.4-0.1,2.2c-0.1,1.1,0,2.2-0.1,3.2
		c0,0.9,0,1.8,0,2.7c-0.1,0.6-0.1,1.2-0.1,1.8c-0.1,0.6-0.1,1.2-0.4,1.8c-0.2,0.5-0.5,1-1.2,1.3
		C397.6,191.1,396.6,190.8,396.2,190.2z"/>
	<path class="st4" d="M409.5,190.8c-0.6-0.5-1-1.2-1.2-2.1c-0.1-0.8,0-1.7-0.1-2.5c0-0.3,0-0.6-0.1-0.9c0-0.1,0-0.3,0-0.5
		c0.2-0.4,0.1-0.8,0.1-1.2c0-2.5,0-5,0-7.5c0-1.5,0-2.9,0.1-4.4c0.1-1.2,0-2.3,0.1-3.5c0-1.1,0-2.2,0.1-3.2c0-0.9,0.4-1.7,1.2-2.2
		c0.3-0.2,0.8-0.5,1.2-0.4h0.3c0.9-0.1,1.5,0.4,2,1c0.3,0.4,0.5,0.9,0.5,1.5c0,1.4,0,2.9,0,4.4c-0.1,1.2,0,2.5,0,3.7
		c-0.1,0.2-0.1,0.5,0.1,0.6c0.2,0.2,0.5,0.3,0.8,0.3c0.9,0,1.8-0.1,2.8-0.1c0.4,0,0.8-0.1,1.2-0.5c0.5-0.3,0.8-0.8,0.8-1.3
		c0-0.5,0-0.8-0.1-1.3c-0.1-1.2,0-2.3,0-3.5c0-1.1,0.5-1.9,1.5-2.4c1.3-0.6,2.8,0,3.2,1.1c0.2,0.5,0.4,1.1,0.4,1.7
		c0,1.2,0.2,2.4,0.1,3.6c0.2,0.5,0.1,1.2,0.2,1.7c0.1,0.6,0,1.3,0.1,1.9c0.1,0.6,0,1.2,0.1,1.9c0.1,0.5,0,1,0.1,1.6
		c0.1,0.6,0,1.2,0.2,1.9c0,0.5,0,0.9,0,1.4c0,0.3,0.2,0.6,0.2,1c-0.1,0.3,0,3,0.2,3.4c-0.1,0.7,0.1,1.5-0.2,2.2
		c-0.2,0.8-0.8,1.5-1.6,1.8c-0.2,0.1-0.5,0-0.7,0.2c-0.6-0.2-1.2-0.3-1.7-0.8c-0.7-0.7-1-1.5-1-2.4c0-0.3-0.1-0.7-0.1-1
		s-0.1-3.1-0.2-3.4c0-0.1,0-0.3,0-0.5c0-0.8-0.2-1.5-0.5-2.2c0-0.2-0.2-0.3-0.3-0.5c-0.1-0.2-0.3-0.4-0.6-0.2c-0.1,0-0.2,0-0.2,0
		c-1.1,0-2.2,0.2-3.3,0.2c-1.2,0-1.6,0.9-1.6,1.6v3.8c0,1.1,0,2.2,0,3.3c0,0.7-0.1,1.3-0.4,1.9c-0.3,0.7-0.8,1.2-1.5,1.5
		C410.7,191.4,410,191.3,409.5,190.8z"/>
	<path class="st4" d="M428.7,190.6c-0.5-0.4-0.9-1-1.1-1.7c-0.3-1.2,0.5-2.4,1.4-2.7c0.6-0.2,1.2-0.2,1.8-0.1c0.5,0.1,1,0.3,1.7,0.2
		c1.2-0.1,2.2-0.6,3-1.8c0.5-0.8,0.8-1.5,1-2.4c0.1-0.3,0.3-0.8,0.2-1.2c0-0.1,0-0.2-0.1-0.3c-0.1-0.2-0.2-0.2-0.3,0l-0.8,0.6
		c-0.5,0.5-1.2,0.8-1.8,0.9c-0.6,0.1-1.2,0.1-1.8-0.1c-0.8-0.2-1.5-0.7-2.2-1.2c-1.1-0.9-2-2-2.5-3.5c-0.2-0.5-0.2-0.9-0.4-1.3
		c-0.1-0.5-0.2-0.9-0.2-1.4c0-0.2-0.1-0.4-0.1-0.6c-0.1-0.8-0.2-1.5-0.3-2.2c0-0.6,0-1.1,0-1.6c0-0.4,0.1-0.8,0.1-1.1
		c0-0.4-0.1-0.7,0-1.1c0.1,0,0-0.1,0-0.2c0-0.6,0.2-1.2,0.2-1.8c0.1-0.6,0.2-1.2,0.5-1.8c0.3-1,0.9-1.6,1.8-1.9c0.2,0,0.5,0,0.8,0
		c1,0.3,1.5,1.4,1.5,2.3c0,0.7-0.1,1.5-0.2,2.2l-0.1,1.5c-0.2,1.5-0.1,2.9,0,4.4c0,1.3,0.3,2.6,1,3.7c0.3,0.5,0.7,0.8,1.2,1.1
		c0.3,0.2,0.5,0.1,0.7-0.1c0.2-0.2,0.4-0.5,0.6-0.8c0.5-1,0.8-2,1-3c0.2-0.6,0.3-1.1,0.4-1.7c0.2-0.9,0.4-1.8,0.6-2.7
		c0-0.6,0.2-1.2,0.3-1.9c0-0.3,0.1-0.6,0.1-1c0-0.3,0.1-0.7,0.1-1l0.2-0.9c0.2-1,0.6-1.9,1.5-2.3c1-0.4,2.2-0.2,2.9,0.9
		c0.4,0.6,0.6,1.3,0.7,2c0.1,0.9,0.1,1.9,0.1,2.8c0,0.8,0.1,1.4,0.1,2.1v0.2c0,1-0.1,1.9-0.1,2.8c0,0.8-0.1,1.5-0.2,2.2
		c0,0.6-0.1,1.2-0.2,1.7c-0.2,0.9-0.2,1.8-0.5,2.7c-0.2,0.8-0.3,1.6-0.5,2.4c-0.2,0.7-0.3,1.2-0.6,1.9c-0.3,0.8-0.6,1.6-1,2.4
		c-0.3,0.6-0.6,1.2-1,1.6c-0.6,0.7-1.2,1.3-1.9,1.8c-0.5,0.3-1,0.6-1.5,0.8c-0.5,0.2-1.2,0.4-1.8,0.5c-0.7,0.2-1.4,0.1-2.1,0
		C430.1,191.3,429.3,191.1,428.7,190.6z"/>
	<path class="st4" d="M452.9,190.3c-0.4-0.5-0.6-1.1-0.8-1.8c-0.1-1-0.1-2.2-0.1-3.2c0-0.3,0-0.7,0-1.1c0.1-2.4,0-4.8,0.1-7.2
		c0.2-0.8,0-1.7,0.1-2.5c0-0.5,0-1,0.1-1.5c0.1-0.5,0-1.2,0.2-1.7l0,0c0-0.5,0.1-1.1,0.1-1.7c0-0.2,0.1-0.5,0.1-0.8
		c-0.1-0.2-0.1-0.5,0-0.6c0-0.1,0-0.1,0-0.2c0-0.5,0.1-1,0.2-1.5c0-0.5,0.1-1,0.2-1.4c0.1-0.8,0.5-1.5,1.3-1.9
		c0.5-0.2,0.9-0.4,1.4-0.5c0.2-0.1,0.4,0,0.7,0c1.1,0,2,0.2,3,0.5c0.6,0.2,1.1,0.5,1.7,0.8c0.9,0.5,1.8,0.9,2.5,1.4
		c0.5,0.4,0.9,0.7,1.3,1c0.6,0.6,1.2,1.1,1.7,1.8c0.5,0.6,1,1.3,1.3,2c0.5,0.8,0.8,1.6,1.1,2.5c0.1,0.5,0.3,1,0.3,1.5
		c0,0.3,0.1,0.6,0.1,0.9c-0.1,1.3-0.3,2.7-0.8,3.9c-0.2,0.4-0.4,0.9-0.5,1.3c-0.3,0.5-0.6,1.1-1,1.7c-0.2,0.4-0.5,0.8-0.8,1.2
		l-1,1.3c-0.7,0.8-1.3,1.6-2.1,2.3c-0.9,0.8-1.8,1.5-2.8,2.1c-0.6,0.3-1.1,0.6-1.7,0.9c-1,0.5-2.1,0.9-3.2,1.1
		c-0.6,0.1-1.2,0.1-1.8,0C453.5,190.8,453.1,190.6,452.9,190.3z M457.5,185.8c0.5-0.2,1-0.5,1.4-1c1.1-1.2,2.3-2.2,3.3-3.6
		c0.9-1.2,1.7-2.5,2.2-3.8c0.2-0.5,0.4-1,0.5-1.5c0-0.6,0.1-1.2-0.1-1.8c-0.2-0.5-0.3-1-0.6-1.4c-0.3-0.6-0.8-1.2-1.1-1.7
		c-0.6-0.7-1.2-1.2-1.9-1.8c-0.6-0.5-1.2-0.8-1.9-1.1c-0.3-0.1-0.6-0.2-1-0.3c-0.3-0.1-0.7,0.1-0.8,0.4c0,0,0,0.1,0,0.1
		c0,0.3-0.1,0.5-0.1,0.9c0,0.5-0.1,1-0.1,1.6v0.1c-0.2,0.5,0,1.1-0.2,1.6c-0.1,0.4,0,0.8-0.1,1.2c-0.1,0.6,0,1.2-0.1,1.8
		c0,2.2-0.1,4.3-0.1,6.3v3.7c0,0.3,0.4,0.5,0.7,0.4L457.5,185.8z"/>
	<path class="st4" d="M470.7,187.1c-0.1-0.3-0.2-0.7-0.3-1c-0.1-0.2-0.1-0.5,0-0.7v-0.2c-0.1-0.6-0.1-1.1-0.1-1.8c0-0.7,0-1.5,0-2.1
		c0-0.8,0-1.5,0-2.3v-1.1c0-0.6,0-1.2,0-1.8c0.1-0.4,0.1-0.7,0.1-1c-0.1-0.3-0.1-0.7,0-0.9c0-0.4,0-0.8,0-1.1c0-0.6,0-1.2,0.1-1.9
		v-0.9c0.1-0.7,0.1-1.3,0.1-2c0-0.5,0-1,0.1-1.5c0-0.2,0.1-0.3,0.2-0.5c0.3-0.6,0.7-1.1,1.3-1.3c0.2-0.1,0.4-0.1,0.6-0.2
		c0.6-0.1,1.2,0,1.8,0.4c0.5,0.3,0.8,0.7,1,1.2c0,0.2,0.1,0.5,0.2,0.8c0,0.5-0.1,0.9-0.1,1.3v0.9c0,0.6,0,1.3-0.1,2v1
		c0,0.6-0.1,1.2-0.1,1.9c0,0.6-0.1,1.2-0.1,1.8c0,0.6,0,1.1,0,1.7c0,0.4,0,0.7,0,1c0,0.5,0,1.1,0,1.6c0,0.5-0.1,1,0,1.5
		c0.1,0.2,0,0.5,0,0.8c0,0.2,0.2,0.5,0,0.8v0.1c0.2,0.5,0,1.1,0.1,1.6c0,1.1-0.2,2.2-1,3c-0.8,0.9-1.9,1-2.9,0.3
		C471.2,188,470.9,187.6,470.7,187.1z"/>
	<path class="st4" d="M479.4,189.7c-1.2-0.4-2-1.2-2.5-2.4c-0.2-0.7-0.3-1.3-0.5-2c-0.1-1,0-2-0.1-2.8c0-1.1,0-1.9,0-2.7
		c0-0.8,0-1.7,0.1-2.5c0.1-0.6,0-1.2,0.1-1.8c0-0.6,0-1.2,0.1-1.9c0.2-1.2,0.1-2.3,0-3.5c0-0.7,0-1.3-0.1-2V168
		c-0.1-0.2-0.1-0.4,0-0.7c0-0.1,0-0.3,0-0.4c-0.2-0.5,0-0.9,0.2-1.4c0.3-0.7,0.9-1.1,1.7-1.4c0.5-0.2,1-0.2,1.6-0.3
		c0.5-0.1,1,0,1.5-0.2c0.1,0,0.1,0,0.1,0c1.3,0,2.7-0.2,4-0.1c1,0.1,1.8,0.5,2.4,1.3c0.5,0.6,0.5,1.5,0,2.2c-0.4,0.7-1.1,1-1.9,1.2
		c-0.3,0.1-0.6,0.1-1,0.1c-0.9,0-1.8,0.2-2.8,0.2c-0.6,0-1,0.4-1,1c0,1.2,0,2.3,0,3.5c0,0.3,0,0.5,0,0.9c-0.1,0.3,0,0.7,0.2,1
		c0.1,0.2,0.2,0.3,0.5,0.3c0.5,0,1,0,1.5,0c0.8,0,1.5,0.2,2.2,0.5c0.8,0.3,1.2,1,1.3,1.9c0.1,1-0.7,1.8-1.7,2.2
		c-0.6,0.2-1.2,0.4-1.8,0.4c-0.4,0-0.9,0-1.2,0h-0.4c-0.7,0.2-0.8,0.4-0.9,1.1v2.6c0,0.4,0.1,0.8,0.2,1.1c0,0.6,0.5,1,1.1,1
		c0.5,0,1.1,0,1.6,0c0.7,0,1.4,0.1,2.1,0.5c0.5,0.4,0.8,0.8,0.9,1.4c0.1,0.5-0.1,0.9-0.4,1.3c-0.5,0.5-1.1,0.8-1.8,0.9
		c-0.5,0-1,0.1-1.4,0.1c-0.5,0-1.1,0.2-1.7,0C481.1,190,480.2,190,479.4,189.7z"/>
	<path class="st4" d="M495.5,190.2c-0.3-0.4-0.5-0.9-0.6-1.4c-0.1-0.3-0.1-0.6-0.1-1c0-0.8,0-1.5,0-2.3c0.1-1,0-2,0.1-3
		c0.1-1,0-2,0.1-2.9c0.1-0.7,0-1.5,0.1-2.2c0.1-0.6,0-1.2,0.1-1.7s0-1,0.1-1.6c0.1-0.7,0-1.4,0.1-2.1c0.1-1.1,0-2.1,0-3.2
		c0-0.5-0.2-1-0.3-1.5c-0.2-0.3-0.4-0.5-0.8-0.5h-2.8c-1,0-1.6-0.3-2.1-1c-0.2-0.2-0.2-0.5-0.2-0.8c0-0.2,0-0.4,0-0.7
		c0.2-0.8,1-1.5,1.9-1.5c0.3,0,0.6,0,0.9,0h3.7c1.2,0,2.6,0,3.8,0c1.5,0,2.9,0,4.3,0c0.6,0,1.2,0.1,1.8,0.5c0.5,0.2,1,0.7,1,1.3
		c0,0.3,0.1,0.8-0.2,1.1c-0.2,0.2-0.6,0.5-0.9,0.6c0,0-0.1,0.1-0.2,0.1c-0.3,0.2-0.8,0.4-1.2,0.4c-0.8,0.1-1.6,0-2.3,0
		c-0.3,0-0.6,0.2-0.9,0.1c-0.1,0-0.1,0.1-0.2,0.2c-0.4,0.3-0.6,0.7-0.7,1.2c-0.1,0.3-0.1,0.6-0.1,1c0,0.8,0,1.6,0,2.4
		c0,0.9-0.2,1.8-0.1,2.7c-0.2,0.6,0,1.2-0.1,1.7c0,0.6,0,1.2-0.1,1.8c-0.1,0.8,0,1.4,0,2.2c-0.2,1.1,0,2.2-0.2,3.2
		c0,0.9,0,1.8,0,2.7c-0.1,0.6,0,1.2-0.1,1.8c-0.1,0.6-0.1,1.2-0.4,1.8c-0.2,0.5-0.5,1-1.2,1.3C496.9,191.1,495.9,190.8,495.5,190.2z
		"/>
</g>
</svg>
