<?xml version="1.0" encoding="utf-8"?>
<!-- Generator: Adobe Illustrator 26.4.1, SVG Export Plug-In . SVG Version: 6.00 Build 0)  -->
<svg version="1.1" id="Layer_1" xmlns="http://www.w3.org/2000/svg" xmlns:xlink="http://www.w3.org/1999/xlink" x="0px" y="0px"
	 viewBox="0 0 583.1 369.4" style="enable-background:new 0 0 583.1 369.4;" xml:space="preserve">
<style type="text/css">
	.st0{clip-path:url(#SVGID_00000054266446028830932860000018134694842459072406_);}
	.st1{fill:#002E66;}
	.st2{clip-path:url(#SVGID_00000145766323662315054140000003694804373618705312_);}
	.st3{enable-background:new    ;}
	.st4{fill:#28DD39;}
</style>
<g id="Grupo_3205" transform="translate(-6228 775.86)">
	<g>
		<g>
			<defs>
				<rect id="SVGID_1_" x="6267.8" y="-624.6" width="144.8" height="109.6"/>
			</defs>
			<clipPath id="SVGID_00000057855613977943382780000003768612195411839401_">
				<use xlink:href="#SVGID_1_"  style="overflow:visible;"/>
			</clipPath>
			<g id="Grupo_3143" style="clip-path:url(#SVGID_00000057855613977943382780000003768612195411839401_);">
				<path id="Trazado_3105" class="st1" d="M6340.1-515c-23.3,0-42.3-20.9-42.3-46.6c-0.1-12.9,4.9-25.3,13.9-34.5
					c0.7-0.7,1.8-0.7,2.5,0s0.7,1.8,0,2.5c-8.3,8.6-13,20.1-12.9,32c0,23.7,17.4,43.1,38.8,43.1s38.8-19.3,38.8-43.1
					c0.1-12-4.5-23.5-12.9-32c-0.7-0.7-0.7-1.8,0-2.5s1.8-0.7,2.5,0l0,0c9,9.2,14,21.6,13.9,34.5
					C6382.5-535.9,6363.5-515,6340.1-515"/>
				<path id="Trazado_3106" class="st1" d="M6340.1-531.5c-20,0-36.2-17.9-36.2-39.9c-0.1-10.4,3.7-20.4,10.6-28.2
					c0.7-0.7,1.8-0.8,2.5-0.1s0.8,1.8,0.1,2.5l0,0c-6.3,7.1-9.8,16.3-9.7,25.8c0,20,14.7,36.3,32.7,36.3s32.7-16.3,32.7-36.3
					c0.1-9.5-3.4-18.7-9.7-25.8c-0.7-0.7-0.6-1.8,0.1-2.5s1.8-0.6,2.5,0.1c6.9,7.7,10.7,17.8,10.6,28.2
					C6376.4-549.4,6360.1-531.5,6340.1-531.5"/>
				<path id="Trazado_3107" class="st1" d="M6340.1-545.7c-17.2,0-31.2-15.4-31.2-34.3c0-18.9,14-34.3,31.2-34.3
					s31.2,15.4,31.2,34.3C6371.4-561.1,6357.4-545.7,6340.1-545.7 M6340.1-610.8c-15.3,0-27.7,13.8-27.7,30.8s12.4,30.8,27.7,30.8
					s27.7-13.8,27.7-30.8S6355.4-610.8,6340.1-610.8"/>
				<path id="Trazado_3108" class="st1" d="M6404.1-581c-1,0-1.8-0.8-1.8-1.8l0,0c0-21.2-16.7-38.4-37.3-38.4
					c-8.9,0-16.4,3.1-23.7,9.9c-0.7,0.7-1.8,0.6-2.5-0.1c-0.7-0.7-0.6-1.8,0.1-2.5l0,0c7.9-7.4,16.2-10.8,26-10.8
					c22.5,0,40.8,18.8,40.8,41.9C6405.8-581.8,6405-581,6404.1-581L6404.1-581"/>
				<path id="Trazado_3109" class="st1" d="M6409.3-571.2h-10.4c-1.8,0-3.3-1.5-3.3-3.3v-3.1c0-3.8,3.1-6.9,6.9-6.9h3.1
					c3.8,0,6.9,3.1,6.9,6.9v3.1C6412.5-572.7,6411.1-571.2,6409.3-571.2 M6402.5-581c-1.9,0-3.4,1.5-3.4,3.4v3.1l9.9-0.2v-2.9
					c0-1.9-1.5-3.4-3.4-3.4L6402.5-581L6402.5-581z M6409.3-574.7L6409.3-574.7z"/>
				<path id="Trazado_3110" class="st1" d="M6404.2-523.9h-0.3c-3.3,0-5.9-2.6-5.9-5.9V-573c0-1,0.8-1.8,1.8-1.8l0,0h8.6
					c1,0,1.8,0.8,1.8,1.8l0,0v43.2C6410.1-526.5,6407.5-523.9,6404.2-523.9 M6401.5-571.2v41.4c0,1.3,1.1,2.4,2.4,2.4h0.3
					c1.3,0,2.4-1.1,2.4-2.4v-41.4H6401.5z"/>
				<path id="Trazado_3111" class="st1" d="M6276.2-581c-1,0-1.8-0.8-1.8-1.7l0,0c0-23.1,18.3-41.9,40.8-41.9
					c9.8,0,18.1,3.4,26,10.8c0.7,0.7,0.8,1.8,0.1,2.5c-0.7,0.7-1.8,0.8-2.5,0.1c-7.2-6.7-14.8-9.9-23.7-9.9
					c-20.6,0-37.3,17.2-37.3,38.4C6278-581.8,6277.2-581,6276.2-581L6276.2-581"/>
				<path id="Trazado_3112" class="st1" d="M6281.4-571.2H6271c-1.8,0-3.3-1.5-3.3-3.3v-3.1c0-3.8,3.1-6.9,6.9-6.9h3.1
					c3.8,0,6.9,3.1,6.9,6.9v3.1C6284.7-572.7,6283.2-571.2,6281.4-571.2 M6271.3-574.7h10.1l-0.2-2.9c0-1.9-1.5-3.4-3.4-3.4h-3.1
					c-1.9,0-3.4,1.5-3.4,3.4V-574.7z"/>
				<path id="Trazado_3113" class="st1" d="M6276.4-523.9h-0.3c-3.3,0-5.9-2.6-5.9-5.9V-573c0-1,0.8-1.8,1.8-1.8l0,0h8.6
					c1,0,1.8,0.8,1.8,1.8l0,0v43.2C6282.3-526.5,6279.6-523.9,6276.4-523.9 M6273.7-571.2v41.4c0,1.3,1.1,2.4,2.4,2.4h0.3
					c1.3,0,2.4-1.1,2.4-2.4v-41.4H6273.7z"/>
			</g>
		</g>
	</g>
</g>
<g id="Grupo_3208" transform="translate(-5850 621.199)">
	<g>
		<g>
			<defs>
				<rect id="SVGID_00000138556413170883254960000009941877969629047980_" x="6229.6" y="-621.2" width="112.3" height="139.9"/>
			</defs>
			<clipPath id="SVGID_00000157989763267981750920000016806854687484049824_">
				<use xlink:href="#SVGID_00000138556413170883254960000009941877969629047980_"  style="overflow:visible;"/>
			</clipPath>
			<g id="Grupo_3147" style="clip-path:url(#SVGID_00000157989763267981750920000016806854687484049824_);">
				<path id="Trazado_3120" class="st1" d="M6290.7-489.9h-46.1c-8.3,0-15-6.7-15-15v-83.3c0-8.3,6.7-15,15-15h6.5
					c1.2,0,2.1,1,2.1,2.2c0,1.1-0.9,2.1-2.1,2.1h-6.5c-5.9,0-10.8,4.8-10.8,10.8v83.3c0,5.9,4.8,10.8,10.8,10.8h46.1
					c1.2,0,2.1,1,2.1,2.1C6292.8-490.8,6291.9-489.9,6290.7-489.9"/>
				<path id="Trazado_3121" class="st1" d="M6318.3-546.6c-1.2,0-2.1-0.9-2.1-2.1l0,0v-39.5c0-5.9-4.8-10.8-10.8-10.8h-6.5
					c-1.2,0-2.1-1-2.1-2.1c0-1.2,1-2.1,2.1-2.1l0,0h6.5c8.3,0,15,6.7,15,15v39.5C6320.5-547.6,6319.5-546.6,6318.3-546.6
					C6318.4-546.6,6318.3-546.6,6318.3-546.6"/>
				<path id="Trazado_3122" class="st1" d="M6296.1-591.9H6254c-2.8,0-5-2.3-5-5v-8.2c0-2.8,2.3-5,5-5h8.1c1.2-7.2,7.9-12,15.1-10.9
					c5.6,0.9,10,5.3,10.9,10.9h8.1c2.8,0,5,2.3,5,5v8.2C6301.1-594.2,6298.9-591.9,6296.1-591.9 M6254-605.9c-0.4,0-0.8,0.4-0.8,0.8
					v8.2c0,0.4,0.4,0.8,0.8,0.8h42.1c0.4,0,0.8-0.4,0.8-0.8v-8.2c0-0.4-0.4-0.8-0.8-0.8h-10c-1.2,0-2.1-1-2.1-2.1
					c0-4.9-4-8.9-8.9-8.9s-8.9,4-8.9,8.9c0,1.2-0.9,2.1-2.1,2.1l0,0H6254z"/>
				<path id="Trazado_3123" class="st1" d="M6255.8-563.4c-0.6,0-1.1-0.2-1.5-0.6l-10.2-10.2c-0.8-0.8-0.8-2.2,0-3s2.2-0.8,3,0
					l8.7,8.7l13.7-13.7c0.8-0.8,2.2-0.8,3,0.1c0.8,0.8,0.8,2.1,0,3l-15.2,15.2C6256.9-563.6,6256.3-563.4,6255.8-563.4"/>
				<path id="Trazado_3124" class="st1" d="M6255.9-536.5c-0.6,0-1.1-0.2-1.5-0.6l-10.2-10.2c-0.8-0.8-0.8-2.2,0-3s2.2-0.8,3,0l0,0
					l8.7,8.7l13.7-13.7c0.8-0.8,2.2-0.8,3,0s0.8,2.2,0,3l0,0l-15.2,15.2C6257-536.8,6256.5-536.5,6255.9-536.5"/>
				<path id="Trazado_3125" class="st1" d="M6256-509.7c-0.6,0-1.1-0.2-1.5-0.6l-10.2-10.2c-0.8-0.8-0.8-2.2,0-3s2.2-0.8,3,0l0,0
					l8.7,8.7l13.7-13.7c0.8-0.8,2.2-0.8,3,0s0.8,2.2,0,3l-15.2,15.2C6257.1-509.9,6256.6-509.7,6256-509.7"/>
				<path id="Trazado_3126" class="st1" d="M6304.7-571h-22.4c-1.2,0-2.1-1-2.1-2.1c0-1.2,1-2.1,2.1-2.1h22.4c1.2,0,2.1,1,2.1,2.1
					C6306.8-571.9,6305.9-571,6304.7-571"/>
				<path id="Trazado_3127" class="st1" d="M6304.7-544.1h-22.4c-1.2,0-2.1-1-2.1-2.1c0-1.2,1-2.1,2.1-2.1h22.4c1.2,0,2.1,1,2.1,2.1
					C6306.8-545.1,6305.9-544.1,6304.7-544.1"/>
				<path id="Trazado_3128" class="st1" d="M6289.7-517.3h-7.4c-1.2,0-2.1-1-2.1-2.1c0-1.2,1-2.1,2.1-2.1l0,0h7.4
					c1.2,0,2.1,1,2.1,2.1C6291.8-518.2,6290.8-517.3,6289.7-517.3"/>
				<path id="Trazado_3129" class="st1" d="M6310.7-481.3c-3.4,0-6.7-1.8-8.6-4.6c-1.5-2.2-2.9-4.6-3.9-7.1
					c-2.2-5.4-3.4-11.1-3.4-17c0-2.6,1.1-6.9,2.8-9.1c2.5-3.4,6.5-5.4,10.7-5.4h0.1c2.3,0,4.5,0.6,6.4,1.7l2.9,1.6
					c0.4,0.2,0.9,0.2,1.3,0l2.9-1.6c5.9-3.2,13.3-1.6,17.3,3.8c1.6,2.1,2.8,6.6,2.8,9.3c0,5.8-1.2,11.5-3.4,16.8
					c-1.1,2.5-2.4,4.9-3.9,7.1c-2.6,3.8-7.3,5.5-11.7,4.1l-0.4-0.2c-2.6-1-5.5-1-8.1,0l0,0l-0.4,0.2
					C6312.9-481.4,6311.8-481.3,6310.7-481.3 M6312.7-485.2l0.9,1.6l-0.6-1.7c3.4-1.3,7.3-1.3,10.7,0c2.9,1,6.2,0,7.9-2.6
					c1.4-2,2.6-4.2,3.6-6.5c2-4.9,3.1-10.1,3.1-15.4c0-2-0.9-5.6-2-7.1c-1.9-2.5-4.8-4-7.9-4c-1.7,0-3.3,0.4-4.8,1.2l-2.9,1.6
					c-1.5,0.8-3.3,0.8-4.7,0l-2.9-1.6c-1.4-0.8-3.1-1.2-4.7-1.2h-0.1c-3.1,0.1-6,1.6-7.9,4c-1.2,2.1-1.9,4.4-2,6.9
					c0,5.3,1,10.6,3.1,15.5c1,2.3,2.2,4.4,3.6,6.5C6306.7-485.4,6309.8-484.3,6312.7-485.2"/>
				<path id="Trazado_3130" class="st1" d="M6318.4-517.4L6318.4-517.4c-1,0-1.8-0.9-1.8-1.8c0.3-10.2-1.8-16.9-6.2-19.8
					c-0.8-0.6-1-1.7-0.4-2.5c0.6-0.7,1.6-0.9,2.4-0.5c5.4,3.6,8.1,11.3,7.8,22.9C6320.1-518.2,6319.3-517.4,6318.4-517.4"/>
				<path id="Trazado_3131" class="st1" d="M6318.5-517.4c-0.9,0-1.7-0.7-1.8-1.5c0-0.3-1-7.6,2.9-13.3s11-7.4,11.3-7.4
					c0.5-0.1,1,0,1.4,0.3s0.7,0.7,0.8,1.2c0,0.3,1,7.6-2.9,13.3c-1.2,1.7-2.7,3.1-4.4,4.3c-0.8,0.5-1.9,0.3-2.5-0.5
					c-0.5-0.8-0.3-1.9,0.5-2.4c1.3-0.9,2.5-2,3.5-3.4c1.6-2.6,2.4-5.5,2.4-8.5c-2.8,1-5.3,2.9-7.1,5.3c-3.1,4.5-2.3,10.7-2.3,10.7
					c0.1,1-0.6,1.9-1.5,2C6318.7-517.4,6318.6-517.4,6318.5-517.4"/>
			</g>
		</g>
	</g>
</g>
<g class="st3">
	<path class="st4" d="M61.4,308.9c-0.1-0.3-0.2-0.7-0.4-1c-0.1-0.2-0.1-0.5,0-0.7V307c-0.1-0.6-0.1-1.1-0.1-1.8c0-0.7,0-1.5,0-2.1
		c0-0.8,0-1.5,0-2.3v-1.1c0-0.6,0-1.2,0-1.8c0.1-0.4,0.1-0.7,0.1-1c-0.1-0.3-0.1-0.7,0-0.9c0-0.4,0-0.8,0-1.1
		c0.1-0.6,0.1-1.2,0.1-1.9v-0.9c0.1-0.7,0.1-1.3,0.1-2c0-0.5,0-1,0.1-1.5c0-0.2,0.1-0.3,0.2-0.5c0.3-0.6,0.7-1.1,1.4-1.3
		c0.2-0.1,0.4-0.1,0.6-0.2c0.6-0.1,1.2,0,1.8,0.5c0.5,0.3,0.8,0.7,1,1.2c0.1,0.2,0.1,0.5,0.2,0.8c0,0.5-0.1,0.9-0.1,1.3v0.9
		c0,0.6,0,1.3-0.1,2v1c-0.1,0.6-0.1,1.2-0.1,1.9c0,0.6-0.1,1.2-0.1,1.8c0,0.6,0,1.1,0,1.7c0,0.4,0,0.7,0,1c0,0.5,0,1.1,0,1.6
		c0,0.5-0.1,1,0,1.5c0.1,0.2,0,0.5,0,0.8c0,0.2,0.1,0.5,0,0.8v0.1c0.1,0.5,0,1.1,0.1,1.6c0,1.1-0.2,2.2-1,3c-0.8,0.9-1.9,1-2.9,0.3
		C62,309.9,61.7,309.4,61.4,308.9z"/>
	<path class="st4" d="M68.8,312.5c-0.4-0.4-0.6-0.9-0.6-1.2c-0.1-0.8-0.1-1.3-0.1-1.9c0-0.3,0-0.7,0-1c0-0.5-0.1-0.8,0-1.3
		c0-0.3-0.1-0.7-0.1-1c0-0.6,0-1.2,0-1.8c0-0.8,0-1.5,0-2.2v-1.7c0-0.7,0-1.4,0.1-2c0-0.6,0-1.2,0-1.8c0-0.9,0.1-1.8,0.2-2.7
		l0.1-2.6c0.1-1.1,0.1-2.2,0.5-3.3c0.3-1,1-1.6,2-1.8c0.6-0.1,1.2,0.1,1.7,0.4c0.9,0.4,1.2,1.2,1.6,2l0.8,1.8c0.2,0.5,0.4,1,0.7,1.6
		c0.3,0.9,0.6,1.7,1,2.5c0.4,1,0.9,2.1,1.2,3.1c0.3,0.7,0.5,1.4,0.9,2c0,0,0.1,0.1,0.1,0.1c0.1,0.1,0.1,0.2,0.3,0.2
		c0.2,0,0.2-0.2,0.2-0.3v-2.6c0-0.5,0.1-1,0-1.6c0-0.5,0-0.9,0-1.4c0.1-0.3,0-0.6,0.1-0.9v-2.5c0-0.5,0-1.6,0-2.1c0-0.5,0-1,0.1-1.5
		c0.1-0.7,0.2-1.3,0.6-1.9c0.4-0.7,0.9-1.1,1.8-1.2c0.5,0,0.9,0.2,1.2,0.5c0.5,0.5,0.8,1.1,1,1.8c0,0.2,0.1,0.4,0.2,0.7
		c0.1,0.5,0.1,1.1,0.1,1.7c0,0.3,0,0.5,0,0.8l0,0.7v3.5c0,0.7,0,1.5-0.1,2.2v0.8c0.1,1,0,2.2,0,3.2l-0.1,2.8c-0.1,1-0.1,1.9-0.1,2.8
		c-0.1,1.2-0.1,2.5-0.4,3.6c-0.1,0.6-0.1,1.3-0.4,1.9c-0.3,0.7-0.8,1.2-1.5,1.4c-0.8,0.1-1.5-0.1-2-0.7c-0.2-0.2-0.5-0.5-0.6-0.8
		c-0.2-0.4-0.5-0.7-0.8-1.1c-0.6-0.8-1.1-1.8-1.6-2.8c-0.4-0.7-0.8-1.5-1.2-2.3c-0.4-0.9-0.9-1.9-1.3-2.8c-0.2-0.5-0.5-1-0.7-1.6
		c0-0.1-0.1-0.1-0.1-0.2c-0.1-0.1-0.2-0.2-0.3-0.2c-0.1,0-0.2,0.1-0.2,0.3c-0.1,0.2-0.1,0.4-0.1,0.6c0,0.5,0,1.1,0,1.7v4.1
		c0,0.5,0,1.1,0,1.7c0,0.5,0,0.9,0,1.5c0,0.3,0,0.8,0,1.1c-0.1,0.6-0.3,1.2-0.6,1.7c-0.3,0.4-0.7,0.7-1.2,0.9
		C70.2,313.4,69.4,313.2,68.8,312.5z"/>
	<path class="st4" d="M93.3,312.4c-1.2-0.3-2.4-0.8-3.4-1.7c-0.2-0.2-0.5-0.4-0.7-0.6c-0.6-0.7-1.2-1.5-1.6-2.3
		c-0.4-0.8-0.8-1.5-1-2.3c-0.1-0.5-0.3-1-0.4-1.6c-0.1-0.6-0.2-1.2-0.2-1.8c-0.1-0.4-0.1-0.8-0.1-1.2c-0.1-0.7,0.1-1.3,0.1-2
		c0.2-1.3,0.4-2.6,0.8-3.9c0.4-1.2,0.8-2.4,1.3-3.5c0.4-1,1-1.9,1.6-2.8c0.5-0.9,1.3-1.6,2-2.3c0.8-0.8,1.8-1.1,2.9-1.4
		c0.3-0.1,0.6-0.2,1-0.2c0.1,0,0.2,0,0.4,0c0,0,0.1,0,0.2,0c0.5,0.1,1.1,0,1.6,0.2c0.5,0.1,1,0.4,1.5,0.9c0.2,0.3,0.4,0.7,0.5,1.1
		c0,0.4,0,0.8-0.1,1.1c-0.2,0.5-1,1.2-1.5,1.4c-0.5,0.1-1,0.1-1.5,0c-0.8-0.2-1.5,0-2,0.6c-0.8,0.7-1.4,1.6-2,2.5
		c-0.5,1-0.9,1.9-1.2,2.9c-0.2,0.6-0.4,1.2-0.5,2c-0.1,0.5-0.1,1-0.2,1.6c-0.1,0.9-0.1,1.7-0.1,2.5c0,1.1,0.2,2.2,0.6,3.2
		c0.3,0.8,0.8,1.7,1.5,2.3c0.5,0.5,1.1,1,1.8,1.4c0.2,0.1,0.5,0.3,0.8,0.3c0.5,0.2,1,0.5,1.4,0.8c0.4,0.3,0.6,0.7,0.7,1.1
		c0.1,0.5,0,0.9-0.2,1.3s-0.7,0.7-1.2,0.8c-0.5,0.1-1,0-1.4,0C94.1,312.6,93.7,312.5,93.3,312.4z"/>
	<path class="st4" d="M103,312c-0.2-0.2-0.5-0.4-0.7-0.6c-0.4-0.5-0.8-1.1-0.9-2l-0.2-2c0-0.2,0.1-0.5,0.1-0.8
		c-0.1-0.2-0.1-0.5,0-0.8c0,0,0-0.1,0-0.1c-0.1-0.5,0-1,0-1.4c0-0.7,0-1.5,0.1-2.2c0-0.3,0-0.8,0-1.1c0.1-0.4,0.1-0.8,0.1-1.2
		c0-0.4,0-0.8,0-1.1c0-0.5,0-0.8,0.1-1.2c0-0.3,0-0.5,0-0.8c0-0.7,0.1-1.2,0.1-1.9c0-0.6,0.1-1.2,0.1-1.9c0-0.4,0-0.8,0-1.2
		c0-0.5,0.1-0.8,0.1-1.2c0.1-0.6,0.1-1.2,0.4-1.7c0.2-0.4,0.4-0.8,0.7-1.2c0.5-0.7,1.2-1.1,2-1.3c0.8-0.2,1.5-0.2,2.1-0.2
		c1.4,0.1,2.6,0.5,3.8,1.2c1.1,0.7,2,1.5,2.5,2.8c0.2,0.5,0.5,1.1,0.6,1.7c0,0.2,0,0.3,0,0.5c0.1,1.5-0.2,2.9-0.9,4.2
		c-0.3,0.7-0.7,1.2-1.1,1.8c-0.6,0.8-1.3,1.5-2,2.1c-0.3,0.3-0.4,0.8-0.5,1.2c0.2,0.2,0.2,0.5,0.4,0.8c0.6,0.7,1.2,1.5,1.8,2.2
		c0.7,0.8,1.4,1.8,2,2.7c0.5,0.6,0.9,1.3,0.9,2.1c0,0.5-0.1,1.1-0.5,1.5c-0.2,0.2-0.4,0.5-0.8,0.7c-0.9,0.3-1.7,0.2-2.4-0.3
		c-0.6-0.5-1.1-1.1-1.6-1.7c-0.6-0.9-1.2-1.7-2-2.5l-0.5-0.8c-0.1-0.2-0.4-0.2-0.5-0.2s-0.1,0.2-0.2,0.4v0.1c0.1,0.7,0,1.4,0.1,2.1
		c0,0.4,0,0.7-0.1,1.1c-0.2,0.7-0.5,1.3-1,1.8c-0.3,0.3-0.6,0.5-1,0.5C103.7,312.3,103.3,312.3,103,312z M108.1,295.6
		c0.4-0.5,0.9-1,1-1.8c0.1-0.4,0.2-0.8,0.2-1.2c-0.2-0.8-1-1.3-1.8-1.2c-0.4,0-0.5,0-0.6,0.5c0,0.3-0.1,0.8-0.1,1.1
		c0,0.4,0,0.8,0,1.1c-0.1,0.5-0.1,1-0.1,1.4c0,0.2,0,0.3,0,0.4c0,0.4,0.2,0.5,0.6,0.3C107.7,296.1,107.9,295.8,108.1,295.6z"/>
	<path class="st4" d="M119.2,311.6c-1.2-0.4-2.1-1.2-2.5-2.4c-0.2-0.7-0.4-1.3-0.5-2c-0.1-1,0-2-0.1-2.8c0-1.1,0-1.9,0.1-2.7
		c0-0.8,0-1.7,0.1-2.5c0.1-0.6,0-1.2,0.1-1.8c0.1-0.6,0-1.2,0.1-1.9c0.1-1.2,0.1-2.3,0-3.5c0-0.7,0-1.3-0.1-2v-0.2
		c-0.1-0.2-0.1-0.4,0-0.7c0-0.1,0-0.3,0-0.4c-0.2-0.5,0-0.9,0.1-1.4c0.3-0.7,0.9-1.1,1.7-1.4c0.5-0.2,1-0.2,1.6-0.3
		c0.5-0.1,1,0,1.5-0.2c0.1,0,0.1,0,0.1,0c1.4,0,2.7-0.2,4.1-0.1c1,0.1,1.8,0.5,2.4,1.3c0.5,0.7,0.5,1.5,0,2.2
		c-0.4,0.7-1.1,1-1.9,1.2c-0.3,0.1-0.6,0.1-1,0.1c-0.9,0-1.8,0.2-2.8,0.2c-0.6,0-1,0.4-1,1c0,1.2,0,2.3,0,3.5c0,0.3,0,0.5-0.1,0.9
		c-0.1,0.3,0.1,0.7,0.2,1c0.1,0.2,0.2,0.3,0.5,0.3c0.5,0,1,0,1.5,0c0.8,0,1.5,0.2,2.2,0.5c0.8,0.3,1.2,1,1.3,1.9
		c0.1,1-0.6,1.8-1.6,2.2c-0.6,0.2-1.2,0.4-1.9,0.4c-0.4,0-0.9,0-1.2,0h-0.4c-0.7,0.2-0.9,0.4-0.9,1.1v2.6c0,0.4,0.1,0.8,0.2,1.1
		c0,0.6,0.4,1,1.1,1c0.5,0,1.1,0,1.6,0c0.7,0,1.4,0.1,2.1,0.5c0.5,0.4,0.9,0.8,0.9,1.4c0.1,0.5-0.1,0.9-0.4,1.3
		c-0.5,0.5-1.1,0.8-1.8,0.9c-0.5,0-1,0.1-1.4,0.1c-0.5,0-1.1,0.2-1.6,0C120.9,311.9,120,311.8,119.2,311.6z"/>
	<path class="st4" d="M141.1,312.1c-0.7-0.5-1-1.2-1-2.1c-0.1-1.4,0-2.8-0.1-4.2c0-0.3-0.1-0.6-0.2-0.9c-0.1-0.2-0.2-0.2-0.5-0.2
		c-0.6,0-1.2,0-1.8-0.1c-0.5-0.1-1-0.1-1.5-0.1c-0.2,0-0.4,0-0.5,0.2c-0.1,0.2-0.3,0.3-0.4,0.5c-0.1,0.1-0.2,0.3-0.2,0.5l-0.3,2.2
		c-0.1,0.5-0.2,1-0.2,1.5c-0.2,0.7-0.6,1.1-1.1,1.5c-0.2,0.2-0.4,0.2-0.6,0.4c-0.6,0.3-1.2,0.1-1.7-0.3c-0.5-0.4-0.9-1-1-1.6
		c-0.1-0.3-0.2-0.7,0-1v-0.1c0-0.5,0-1,0.1-1.5c0.1-0.8,0.2-1.6,0.4-2.4l0.4-2.3c0.1-0.9,0.4-1.7,0.6-2.6c0.5-1.8,1-3.5,1.6-5.1
		c0.4-1.1,0.8-2.1,1.1-3.1l1.3-3.2c0.4-1,0.8-1.8,1.4-2.6c0.3-0.5,0.8-0.6,1.3-0.7c0.9-0.1,1.6,0.2,2.2,0.8c0.4,0.5,0.8,1,1.1,1.5
		c0.4,0.7,0.8,1.4,1.1,2.2c0.4,0.9,0.6,1.7,0.9,2.6c0.1,0.5,0.3,1.1,0.3,1.6c0.1,0.5,0.2,1.1,0.2,1.6c0,0.2,0.1,0.4,0.1,0.7
		c0,0.2-0.1,0.4,0.1,0.6c0,0,0,0,0,0.1c-0.1,0.5,0.1,1.1,0.1,1.7c0,0.9,0,1.9,0.1,2.8c0.1,1.1,0,2.3,0,3.5c0,0.5,0.1,1,0.1,1.5v1.5
		c0,0.6,0,1.2,0,1.9c0,0.5-0.1,1.1-0.3,1.7c-0.2,0.7-0.8,1.2-1.5,1.5C142.2,312.7,141.6,312.6,141.1,312.1z M139.7,299.3
		c0.1-0.2,0.1-0.4,0.1-0.7c0-0.3-0.1-0.6-0.1-1c0-0.5-0.1-1-0.1-1.6v0c-0.1-0.6-0.2-1.2-0.3-1.8c0-0.3-0.1-0.5-0.2-0.8
		c0-0.1-0.1-0.2-0.2-0.2c-0.2,0-0.3,0-0.4,0.2c0,0.1-0.1,0.1-0.1,0.2c-0.3,0.8-0.5,1.5-0.9,2.2c-0.3,1-0.6,1.9-0.9,2.8
		c-0.1,0.3-0.1,0.6-0.1,0.9s0.1,0.5,0.4,0.6c0.2,0.1,0.4,0.1,0.6,0.1c0.2,0,0.4,0,0.6,0c0.2,0.1,0.4,0,0.7,0
		C139.3,300,139.6,299.7,139.7,299.3z"/>
	<path class="st4" d="M147,312.4c-0.4-0.8-0.3-1.5,0-2.2c0.2-0.4,0.6-0.7,1.1-1l1.5-0.6c0.9-0.4,1.8-0.8,2.5-1.4
		c0.6-0.5,1-1.2,1.1-2c0-0.3,0.1-0.6,0.1-0.9c-0.1-0.8-0.4-1.7-0.9-2.5c-0.4-0.6-0.9-1.2-1.4-1.7c-0.8-0.8-1.6-1.5-2.4-2.4
		c-0.7-0.8-1.4-1.6-1.8-2.5c-0.2-0.5-0.4-1-0.5-1.5c-0.2-0.8-0.1-1.5-0.1-2.2c0-0.4,0.2-0.9,0.3-1.3c0.2-0.5,0.4-1.2,0.7-1.7
		c0.6-1.1,1.5-2.1,2.5-2.8c0.5-0.5,1.2-0.8,1.8-1.1c0.5-0.2,1-0.3,1.5-0.5c0.6-0.1,1.1-0.1,1.6-0.1c0.7,0.1,1.3,0.5,1.6,1.1
		c0.2,0.4,0.4,0.8,0.3,1.2c-0.1,0.8-0.4,1.5-1.1,1.8c-0.4,0.2-0.9,0.3-1.3,0.4c-0.6,0.2-1.1,0.4-1.6,0.7c-0.9,0.6-1.4,1.5-1.7,2.4
		c-0.4,0.9-0.1,1.7,0.5,2.4c1,1.1,2.1,2.1,3.1,3.2c1,1.1,1.9,2.2,2.5,3.6c0.3,0.8,0.5,1.5,0.6,2.4c0.1,0.4,0.1,0.8,0.1,1.2
		c0,1.1-0.1,2-0.5,3c-0.2,0.7-0.6,1.3-1,2c-0.7,0.9-1.2,1.4-2.4,2.1c-0.9,0.6-1.9,1-2.9,1.5c-0.3,0.1-0.6,0.2-0.8,0.3
		c-0.6,0.2-1.1,0.2-1.7,0.2C147.8,313.3,147.4,312.9,147,312.4z"/>
	<path class="st4" d="M162.2,311.6c-1.2-0.4-2.1-1.2-2.5-2.4c-0.2-0.7-0.4-1.3-0.5-2c-0.1-1,0-2-0.1-2.8c0-1.1,0-1.9,0-2.7
		c0.1-0.8,0-1.7,0.1-2.5c0.1-0.6,0-1.2,0.1-1.8c0.1-0.6,0-1.2,0.1-1.9c0.1-1.2,0.1-2.3,0-3.5c0-0.7,0-1.3-0.1-2v-0.2
		c-0.1-0.2-0.1-0.4,0-0.7c0-0.1,0-0.3,0-0.4c-0.2-0.5,0-0.9,0.1-1.4c0.3-0.7,0.9-1.1,1.7-1.4c0.5-0.2,1-0.2,1.6-0.3
		c0.5-0.1,1,0,1.5-0.2c0.1,0,0.1,0,0.1,0c1.4,0,2.7-0.2,4.1-0.1c1,0.1,1.8,0.5,2.4,1.3c0.5,0.7,0.5,1.5,0,2.2
		c-0.4,0.7-1.1,1-1.9,1.2c-0.3,0.1-0.6,0.1-1,0.1c-0.9,0-1.8,0.2-2.8,0.2c-0.6,0-1,0.4-1,1c0,1.2,0,2.3,0,3.5c0,0.3,0,0.5-0.1,0.9
		c-0.1,0.3,0.1,0.7,0.2,1c0.1,0.2,0.2,0.3,0.5,0.3c0.5,0,1,0,1.5,0c0.8,0,1.5,0.2,2.2,0.5c0.8,0.3,1.2,1,1.3,1.9
		c0.1,1-0.6,1.8-1.6,2.2c-0.6,0.2-1.2,0.4-1.9,0.4c-0.4,0-0.9,0-1.2,0h-0.4c-0.7,0.2-0.9,0.4-0.9,1.1v2.6c0,0.4,0.1,0.8,0.1,1.1
		c0,0.6,0.4,1,1.1,1c0.5,0,1.1,0,1.6,0c0.7,0,1.4,0.1,2.1,0.5c0.5,0.4,0.9,0.8,0.9,1.4c0.1,0.5-0.1,0.9-0.4,1.3
		c-0.5,0.5-1.1,0.8-1.8,0.9c-0.5,0-1,0.1-1.4,0.1c-0.5,0-1.1,0.2-1.6,0C163.9,311.9,163,311.8,162.2,311.6z"/>
</g>
<g class="st3">
	<path class="st4" d="M5.3,352.7c-0.9-0.6-1.3-1.7-1.2-2.6V350c0-0.5,0-1.1,0-1.3c0-0.2,0-0.4,0-0.6c0.1-0.2,0-0.5,0-0.8
		c0-0.4,0.1-0.8,0-1.2c0-0.2,0.1-0.4,0.1-0.7c-0.1-0.2-0.1-0.4,0-0.5c0-0.1,0-0.1,0-0.2c-0.1-0.5,0-1,0-1.5c0-0.4,0.1-0.8,0-1.2
		c0-0.2,0.1-0.4,0.1-0.7c-0.1-0.2-0.2-0.4,0-0.6v-0.1c-0.1-0.4,0-0.9-0.1-1.3c0-0.2,0.1-0.5,0.1-0.7V338c0.1-0.3,0-0.6,0-0.9
		c0-0.4,0-0.9,0-1.3c0.1-0.4,0-0.8,0.1-1.2c0-0.2,0-0.5,0-0.8c0-0.4,0.1-0.8,0-1.2c-0.1-0.2,0.1-0.3,0-0.5c0-0.2,0-0.4,0-0.5v-0.2
		c0-0.4,0-0.9,0-1.2c0.1-0.4,0.1-0.7,0.1-1.1c0-0.8,0-1.8,0.4-2.5c0.3-0.8,0.9-1.3,1.7-1.7c0.8-0.3,1.5-0.6,2.4-0.6
		c1,0,2,0.1,2.9,0.4c1,0.3,2,0.8,2.8,1.4c0.5,0.4,1,0.9,1.4,1.4c0.4,0.6,0.8,1.1,1.1,1.7c0.1,0.3,0.2,0.8,0.4,1.2
		c0.1,0.3,0.1,0.8,0.3,1.1c0.1,0.2,0.1,0.5,0.1,0.7c0.1,0.9,0.1,1.8-0.1,2.7c-0.1,1.3-0.7,2.6-1.4,3.8c-0.3,0.6-0.7,1.1-1.1,1.7
		c-0.6,0.8-1.4,1.5-2.2,2c-0.5,0.5-1.2,0.7-1.9,1c-0.2,0.1-0.5,0.2-0.8,0.2c-0.5,0-0.7,0.3-0.9,0.7c-0.2,0.3-0.5,0.7-0.5,1.1
		c-0.1,0-0.1,0.1-0.1,0.2c0.1,0.4,0,0.8,0,1.2c0,0.4,0,0.8-0.1,1.1v0.2c0.1,0.5,0.2,1.7,0,1.8c0,0.1,0,0.2,0.1,0.3
		c0,0.5,0,1-0.2,1.5c-0.2,0.8-0.8,1.4-1.6,1.7C6.6,353.2,5.9,353.1,5.3,352.7z M10,338.8c0.2,0,0.3,0,0.5-0.2
		c0.3-0.2,0.5-0.4,0.8-0.6c0.6-0.7,1-1.3,1.3-2.2c0.4-1.1,0.6-2.2,0.4-3.5c0-0.2-0.1-0.5-0.1-0.7c0-0.3-0.2-0.6-0.3-0.9
		c-0.2-0.6-0.7-1.1-1.1-1.5c-0.2-0.2-0.6-0.4-0.9-0.5c-0.1-0.1-0.4-0.1-0.5,0c-0.3,0.2-0.5,0.5-0.5,0.9c0,0.8-0.1,1.6-0.1,2.4
		c0,0,0.1,0.1,0,0.2c-0.1,0.3,0,0.7,0,1c0,0.4-0.1,0.9,0,1.2v0.9c-0.1,0.5-0.1,1-0.1,1.5v0.2c-0.1,0.4,0.1,0.8,0.1,1.2
		c0,0.2,0.2,0.2,0.2,0.4C9.7,338.9,9.9,338.8,10,338.8z"/>
	<path class="st4" d="M20.9,352.7c-0.6-0.5-1.1-1.2-1.2-2.1c-0.1-0.8,0-1.7-0.1-2.5c0-0.3,0.1-0.6-0.1-0.9c0-0.1,0-0.3,0-0.5
		c0.2-0.4,0.1-0.8,0.1-1.2c0-2.5,0-5,0.1-7.5c0-1.5-0.1-2.9,0.1-4.4c0.1-1.2,0-2.3,0.1-3.5c0.1-1.1,0.1-2.2,0.1-3.2
		c0-0.9,0.4-1.7,1.2-2.2c0.3-0.2,0.8-0.5,1.2-0.4h0.3c0.9-0.1,1.5,0.4,2,1c0.3,0.4,0.5,0.9,0.5,1.5c0,1.5,0,2.9-0.1,4.4
		c-0.1,1.2,0,2.5,0,3.7c-0.1,0.2-0.1,0.5,0.1,0.6c0.2,0.2,0.5,0.3,0.8,0.3c0.9,0,1.8-0.1,2.8-0.1c0.4,0,0.9-0.1,1.2-0.5
		c0.5-0.3,0.8-0.8,0.8-1.3c0-0.5,0-0.8-0.1-1.3c-0.1-1.2,0-2.3,0-3.5c0-1.1,0.5-1.9,1.5-2.4c1.3-0.6,2.8,0,3.2,1.1
		c0.2,0.5,0.4,1.1,0.4,1.7c0,1.2,0.2,2.4,0.1,3.6c0.1,0.5,0.1,1.2,0.1,1.7c0.1,0.6,0,1.3,0.1,1.9c0.1,0.6,0,1.2,0.1,1.9
		c0.1,0.5,0,1,0.1,1.6c0.1,0.6,0,1.2,0.1,1.9c0,0.5,0,0.9,0,1.4c0,0.3,0.2,0.6,0.2,1c-0.1,0.3,0,3,0.2,3.4c-0.1,0.7,0.1,1.5-0.2,2.2
		c-0.2,0.8-0.8,1.5-1.6,1.8c-0.2,0.1-0.5,0-0.7,0.2c-0.6-0.2-1.2-0.3-1.7-0.8c-0.7-0.7-1-1.5-1-2.4c0-0.3-0.1-0.7-0.1-1
		s-0.1-3.1-0.2-3.4c0-0.1,0-0.3,0-0.5c0-0.8-0.2-1.5-0.5-2.2c0-0.2-0.2-0.3-0.3-0.5c-0.1-0.2-0.3-0.4-0.6-0.2c-0.1,0-0.2,0-0.2,0
		c-1.1,0-2.2,0.2-3.3,0.2c-1.2,0-1.6,0.9-1.6,1.6v3.8c0,1.1,0,2.2,0,3.3c0,0.7-0.1,1.3-0.4,1.9c-0.3,0.7-0.8,1.2-1.6,1.5
		C22.1,353.2,21.4,353.2,20.9,352.7z"/>
	<path class="st4" d="M40.9,352.5c-0.5-0.4-0.9-1-1.1-1.7c-0.3-1.2,0.5-2.4,1.4-2.7c0.6-0.2,1.2-0.2,1.8-0.1c0.5,0.1,1,0.3,1.6,0.2
		c1.2-0.1,2.2-0.6,3-1.8c0.5-0.8,0.8-1.5,1-2.4c0.1-0.3,0.3-0.8,0.2-1.2c0-0.1,0-0.2-0.1-0.3c-0.1-0.2-0.2-0.2-0.3,0l-0.8,0.6
		c-0.5,0.5-1.1,0.8-1.8,0.9c-0.6,0.1-1.2,0.1-1.9-0.1c-0.8-0.2-1.5-0.7-2.1-1.2c-1.1-0.9-2-2-2.6-3.5c-0.2-0.5-0.2-0.9-0.4-1.3
		c-0.1-0.5-0.2-0.9-0.2-1.4c0-0.2-0.1-0.4-0.1-0.6c-0.1-0.8-0.2-1.5-0.3-2.2c0-0.6,0-1.1,0-1.6c0-0.4,0.1-0.8,0.1-1.1
		c-0.1-0.4-0.1-0.7,0-1.1c0.1,0,0-0.1,0-0.2c0-0.6,0.2-1.2,0.2-1.8c0.1-0.6,0.2-1.2,0.5-1.8c0.3-1,0.9-1.6,1.8-1.9
		c0.2,0,0.5,0,0.8,0c1.1,0.3,1.6,1.4,1.6,2.3c0,0.8-0.1,1.5-0.1,2.2l-0.2,1.5c-0.1,1.5-0.1,2.9,0,4.4c0,1.3,0.3,2.6,1,3.7
		c0.4,0.5,0.7,0.8,1.2,1.1c0.3,0.2,0.5,0.1,0.7-0.1c0.2-0.2,0.4-0.5,0.6-0.8c0.5-1,0.8-2,1-3c0.2-0.6,0.3-1.1,0.4-1.7
		c0.2-0.9,0.4-1.8,0.6-2.7c0-0.6,0.2-1.2,0.3-1.9c0-0.3,0.1-0.6,0.1-1c0.1-0.3,0.1-0.7,0.1-1l0.2-0.9c0.2-1,0.6-1.9,1.5-2.3
		c1-0.4,2.1-0.2,2.9,0.9c0.4,0.6,0.6,1.3,0.7,2c0.1,0.9,0.1,1.9,0.1,2.8c0,0.8,0.1,1.4,0.1,2.1v0.2c0,1-0.1,1.9-0.1,2.8
		c-0.1,0.8-0.1,1.5-0.2,2.2c0,0.6-0.1,1.2-0.2,1.7c-0.2,0.9-0.2,1.8-0.5,2.7c-0.1,0.8-0.3,1.6-0.5,2.4c-0.1,0.7-0.3,1.2-0.6,1.9
		c-0.3,0.8-0.6,1.6-1,2.4c-0.3,0.6-0.6,1.2-1.1,1.6c-0.6,0.7-1.2,1.3-1.9,1.8c-0.5,0.3-1,0.6-1.6,0.8c-0.5,0.2-1.1,0.4-1.8,0.5
		c-0.7,0.2-1.4,0.1-2,0C42.3,353.1,41.6,352.9,40.9,352.5z"/>
	<path class="st4" d="M56.8,352.4c-0.4-0.8-0.3-1.5,0-2.2c0.2-0.4,0.6-0.7,1.1-1l1.5-0.6c0.9-0.4,1.8-0.8,2.5-1.4
		c0.6-0.5,1-1.2,1.1-2c0-0.3,0.1-0.6,0.1-0.9c-0.1-0.8-0.4-1.7-0.9-2.5c-0.4-0.6-0.9-1.2-1.4-1.7c-0.8-0.8-1.6-1.5-2.4-2.4
		c-0.7-0.8-1.4-1.6-1.8-2.5c-0.2-0.5-0.4-1-0.5-1.5c-0.2-0.8-0.1-1.5-0.1-2.2c0.1-0.4,0.2-0.9,0.4-1.3c0.2-0.5,0.4-1.2,0.7-1.7
		c0.6-1.1,1.5-2.1,2.5-2.8c0.5-0.5,1.2-0.8,1.8-1.1c0.5-0.2,1-0.3,1.5-0.5c0.6-0.1,1.1-0.1,1.6-0.1c0.7,0.1,1.3,0.5,1.6,1.1
		c0.2,0.4,0.4,0.8,0.3,1.2c-0.1,0.8-0.4,1.5-1.1,1.8c-0.4,0.2-0.9,0.3-1.3,0.4c-0.6,0.2-1.1,0.4-1.6,0.7c-0.9,0.6-1.4,1.5-1.7,2.4
		c-0.4,0.9-0.1,1.7,0.5,2.4c1,1.1,2.1,2.1,3.1,3.2c1,1.1,1.9,2.2,2.5,3.6c0.3,0.8,0.5,1.5,0.6,2.4c0.1,0.4,0.1,0.8,0.1,1.2
		c0,1.1-0.1,2-0.5,3c-0.2,0.7-0.6,1.3-1,2c-0.7,0.9-1.2,1.4-2.4,2.1c-0.9,0.6-1.9,1-2.9,1.5c-0.3,0.1-0.6,0.2-0.9,0.3
		c-0.6,0.2-1.1,0.2-1.7,0.2C57.6,353.3,57.2,352.9,56.8,352.4z"/>
	<path class="st4" d="M69.4,348.9c-0.1-0.3-0.2-0.7-0.4-1c0-0.2-0.1-0.5,0-0.7V347c-0.1-0.6,0-1.1,0-1.8c-0.1-0.7-0.1-1.5-0.1-2.1
		c0-0.8,0-1.5,0-2.3v-1.1c0-0.6,0-1.2,0.1-1.8c0-0.4,0.1-0.7,0-1c0-0.3,0-0.7,0-0.9c0-0.4,0-0.8,0-1.1c0.1-0.6,0.1-1.2,0.1-1.9v-0.9
		c0.1-0.7,0.1-1.3,0.1-2c0-0.5,0-1,0.1-1.5c0-0.2,0.1-0.3,0.2-0.5c0.3-0.6,0.7-1.1,1.4-1.3c0.2-0.1,0.4-0.1,0.6-0.2
		c0.7-0.1,1.2,0,1.8,0.5c0.5,0.3,0.8,0.7,1,1.2c0.1,0.2,0.1,0.5,0.2,0.8c0,0.5-0.1,0.9-0.1,1.3v0.9c0,0.6,0,1.3-0.1,2v1
		c-0.1,0.6-0.1,1.2-0.1,1.9c0,0.6-0.1,1.2-0.1,1.8c0,0.6,0,1.1,0,1.7c0,0.4,0,0.7,0,1c0,0.5,0,1.1,0,1.6c0,0.5-0.1,1,0,1.5
		c0.1,0.2,0,0.5,0,0.8c0,0.2,0.1,0.5,0,0.8v0.1c0.1,0.5,0,1.1,0.1,1.6c0,1.1-0.2,2.2-1,3c-0.8,0.9-1.9,1-2.9,0.3
		C70,349.9,69.7,349.4,69.4,348.9z"/>
	<path class="st4" d="M83.3,352.4c-1.2-0.3-2.4-0.8-3.4-1.7c-0.2-0.2-0.5-0.4-0.7-0.6c-0.6-0.7-1.2-1.5-1.7-2.3
		c-0.4-0.8-0.8-1.5-0.9-2.3c-0.1-0.5-0.3-1-0.4-1.6c-0.1-0.6-0.2-1.2-0.2-1.8c0-0.4,0-0.8,0-1.2c-0.1-0.7,0-1.3,0.1-2
		c0.2-1.3,0.4-2.6,0.8-3.9c0.4-1.2,0.8-2.4,1.3-3.5c0.4-1,1-1.9,1.6-2.8c0.5-0.9,1.3-1.6,2-2.3c0.8-0.8,1.8-1.1,2.9-1.4
		c0.3-0.1,0.6-0.2,1-0.2c0.1,0,0.2,0,0.4,0c0,0,0.1,0,0.2,0c0.5,0.1,1.1,0,1.6,0.2c0.5,0.1,1.1,0.4,1.5,0.9c0.2,0.3,0.4,0.7,0.5,1.1
		c0,0.4,0,0.8-0.1,1.1c-0.2,0.5-1,1.2-1.5,1.4c-0.5,0.1-1,0.1-1.5,0c-0.8-0.2-1.5,0-2,0.6c-0.8,0.7-1.4,1.6-2,2.5
		c-0.5,1-0.9,1.9-1.2,2.9c-0.2,0.6-0.4,1.2-0.5,2c-0.1,0.5-0.2,1-0.2,1.6c-0.1,0.9-0.1,1.7-0.1,2.5c0,1.1,0.2,2.2,0.6,3.2
		c0.3,0.8,0.8,1.7,1.5,2.3c0.5,0.5,1.1,1,1.8,1.4c0.2,0.1,0.5,0.3,0.8,0.3c0.5,0.2,1,0.5,1.4,0.8c0.4,0.3,0.6,0.7,0.7,1.1
		c0.1,0.5,0,0.9-0.2,1.3s-0.7,0.7-1.2,0.8c-0.5,0.1-1,0-1.4,0C84.1,352.6,83.7,352.5,83.3,352.4z"/>
	<path class="st4" d="M101,352.1c-0.7-0.5-1-1.2-1.1-2.1c-0.1-1.4,0-2.8-0.1-4.2c0-0.3-0.1-0.6-0.2-0.9c-0.1-0.2-0.2-0.2-0.5-0.2
		c-0.6,0-1.2,0-1.8-0.1c-0.5-0.1-1-0.1-1.5-0.1c-0.2,0-0.4,0-0.5,0.2c-0.1,0.2-0.3,0.3-0.4,0.5c-0.1,0.1-0.2,0.3-0.2,0.5l-0.3,2.2
		c-0.1,0.5-0.2,1-0.2,1.5c-0.2,0.7-0.6,1.1-1.1,1.5c-0.2,0.2-0.4,0.2-0.6,0.4c-0.6,0.3-1.2,0.1-1.7-0.3c-0.5-0.4-0.9-1-1-1.6
		c-0.1-0.3-0.2-0.7,0-1v-0.1c-0.1-0.5,0-1,0.1-1.5c0.1-0.8,0.2-1.6,0.4-2.4l0.4-2.3c0.1-0.9,0.4-1.7,0.6-2.6c0.5-1.8,1-3.5,1.6-5.1
		c0.4-1.1,0.8-2.1,1.1-3.1l1.3-3.2c0.4-1,0.8-1.8,1.4-2.6c0.3-0.5,0.8-0.6,1.3-0.7c0.9-0.1,1.6,0.2,2.2,0.8c0.4,0.5,0.8,1,1.1,1.5
		c0.4,0.7,0.8,1.4,1.1,2.2c0.4,0.9,0.6,1.7,0.9,2.6c0.1,0.5,0.3,1.1,0.3,1.6c0.1,0.5,0.2,1.1,0.2,1.6c0,0.2,0.1,0.4,0.1,0.7
		c0,0.2-0.1,0.4,0.1,0.6c0,0,0,0,0,0.1c-0.1,0.5,0.1,1.1,0.1,1.7c0,0.9,0,1.9,0.1,2.8c0.1,1.1,0,2.3,0,3.5c0,0.5,0.1,1,0.1,1.5v1.5
		c0,0.6,0,1.2,0,1.9c0,0.5-0.1,1.1-0.3,1.7c-0.3,0.7-0.8,1.2-1.5,1.5C102.1,352.7,101.5,352.6,101,352.1z M99.6,339.3
		c0.1-0.2,0.1-0.4,0.1-0.7c0-0.3-0.1-0.6-0.1-1c0-0.5-0.2-1-0.1-1.6v0c-0.1-0.6-0.2-1.2-0.3-1.8c0-0.3-0.1-0.5-0.2-0.8
		c0-0.1-0.1-0.2-0.2-0.2c-0.2,0-0.3,0-0.4,0.2c0,0.1-0.1,0.1-0.1,0.2c-0.3,0.8-0.5,1.5-0.9,2.2c-0.3,1-0.6,1.9-0.9,2.8
		c-0.1,0.3-0.1,0.6-0.1,0.9s0.1,0.5,0.4,0.6c0.2,0.1,0.4,0.1,0.6,0.1c0.2,0,0.5,0,0.6,0c0.2,0.1,0.4,0,0.7,0
		C99.1,340,99.5,339.7,99.6,339.3z"/>
	<path class="st4" d="M117,353.1c-0.7-0.2-1.4-0.2-2.1-0.3c-0.6-0.2-1.4-0.2-2-0.2c-0.5-0.1-1-0.1-1.5-0.1c-0.6,0-1.3-0.2-1.9-0.5
		c-0.4-0.1-0.8-0.2-1.2-0.5c-0.5-0.3-0.9-0.8-1.2-1.5c-0.2-0.6-0.2-1.6-0.2-2.3c0.1-0.2,0-0.5,0-0.8c0-0.4,0.1-0.9,0.1-1.2
		c0-0.5,0-1,0-1.6c0-0.3,0-0.7,0-1.1c0-0.5,0-0.9,0.1-1.4c0,0,0-0.1,0-0.1c-0.1-0.5,0-1,0-1.5v-1.4c0.1-0.5,0.1-0.9,0.1-1.4
		s-0.1-1,0-1.5v-0.2c0-0.5,0-1.1,0-1.6c0.1-0.4,0-0.7,0-1.1c0-0.5,0.1-1,0.1-1.5c0-0.3-0.1-0.8,0-1.1c0.1-0.3,0-0.6,0.1-1v-1.3
		c0-0.8,0.1-1.5,0.3-2.3c0.2-0.6,0.8-1.1,1.4-1.3c0.8-0.2,1.5,0,2,0.6c0.3,0.4,0.4,0.8,0.6,1.2c0.1,0.5,0.1,0.9,0.2,1.5
		c0.1,0.5,0,1.2,0,1.8c0,0.7,0,1.3-0.1,2c0,0.4,0,0.8,0,1.2c0,0.3-0.1,0.8-0.1,1.2v0.9c0,0.4-0.1,0.8-0.1,1.2c0.1,0.6,0.1,1.2,0,1.7
		v0.1c0.1,0.6,0,1.1,0,1.7c0.1,0.2-0.1,0.4,0,0.7c0,0.2,0.1,0.5,0,0.7v0.2c0,0.6-0.1,1.1-0.1,1.7v1.3c0,0.5,0,0.9-0.1,1.4
		c0,0.2,0,0.5,0,0.8c0,0.5-0.1,0.9,0,1.3c0,0.5,0.2,0.7,0.6,0.9c0.4,0.2,0.7,0.2,1,0.2h1c0.9,0,1.8,0,2.7,0.2c0.1,0,0.2,0,0.4,0
		c1-0.1,2,0.1,2.9,0.8c0.4,0.3,0.7,0.8,0.8,1.2c0.1,0.8,0,1.5-0.6,2c-0.4,0.4-0.9,0.7-1.5,0.8C118.2,353.2,117.6,353.3,117,353.1z"
		/>
	<path class="st4" d="M143.6,352.1c-0.7-0.5-1-1.2-1.1-2.1c-0.1-1.4,0-2.8-0.1-4.2c0-0.3-0.1-0.6-0.2-0.9c-0.1-0.2-0.2-0.2-0.5-0.2
		c-0.6,0-1.2,0-1.8-0.1c-0.5-0.1-1-0.1-1.5-0.1c-0.2,0-0.4,0-0.5,0.2c-0.1,0.2-0.3,0.3-0.4,0.5c-0.1,0.1-0.2,0.3-0.2,0.5l-0.3,2.2
		c-0.1,0.5-0.2,1-0.2,1.5c-0.2,0.7-0.6,1.1-1.1,1.5c-0.2,0.2-0.4,0.2-0.6,0.4c-0.6,0.3-1.2,0.1-1.7-0.3c-0.5-0.4-0.9-1-1-1.6
		c-0.1-0.3-0.2-0.7,0-1v-0.1c-0.1-0.5,0-1,0.1-1.5c0.1-0.8,0.2-1.6,0.4-2.4l0.4-2.3c0.1-0.9,0.4-1.7,0.6-2.6c0.5-1.8,1-3.5,1.6-5.1
		c0.4-1.1,0.8-2.1,1.1-3.1l1.3-3.2c0.4-1,0.8-1.8,1.4-2.6c0.3-0.5,0.8-0.6,1.3-0.7c0.9-0.1,1.6,0.2,2.2,0.8c0.4,0.5,0.8,1,1.1,1.5
		c0.4,0.7,0.8,1.4,1.1,2.2c0.4,0.9,0.6,1.7,0.9,2.6c0.1,0.5,0.3,1.1,0.3,1.6c0.1,0.5,0.2,1.1,0.2,1.6c0,0.2,0.1,0.4,0.1,0.7
		c0,0.2-0.1,0.4,0.1,0.6c0,0,0,0,0,0.1c-0.1,0.5,0.1,1.1,0.1,1.7c0,0.9,0,1.9,0.1,2.8c0.1,1.1,0,2.3,0,3.5c0,0.5,0.1,1,0.1,1.5v1.5
		c0,0.6,0,1.2,0,1.9c0,0.5-0.1,1.1-0.3,1.7c-0.3,0.7-0.8,1.2-1.5,1.5C144.7,352.7,144.1,352.6,143.6,352.1z M142.2,339.3
		c0.1-0.2,0.1-0.4,0.1-0.7c0-0.3-0.1-0.6-0.1-1c0-0.5-0.2-1-0.1-1.6v0c-0.1-0.6-0.2-1.2-0.3-1.8c0-0.3-0.1-0.5-0.2-0.8
		c0-0.1-0.1-0.2-0.2-0.2c-0.2,0-0.3,0-0.4,0.2c0,0.1-0.1,0.1-0.1,0.2c-0.3,0.8-0.5,1.5-0.9,2.2c-0.3,1-0.6,1.9-0.9,2.8
		c-0.1,0.3-0.1,0.6-0.1,0.9s0.1,0.5,0.4,0.6c0.2,0.1,0.4,0.1,0.6,0.1c0.2,0,0.5,0,0.6,0c0.2,0.1,0.4,0,0.7,0
		C141.8,340,142.1,339.7,142.2,339.3z"/>
	<path class="st4" d="M156,352.4c-1.2-0.3-2.4-0.8-3.4-1.7c-0.2-0.2-0.5-0.4-0.7-0.6c-0.6-0.7-1.2-1.5-1.7-2.3
		c-0.4-0.8-0.8-1.5-0.9-2.3c-0.1-0.5-0.3-1-0.4-1.6c-0.1-0.6-0.2-1.2-0.2-1.8c0-0.4,0-0.8,0-1.2c-0.1-0.7,0-1.3,0.1-2
		c0.2-1.3,0.4-2.6,0.8-3.9c0.4-1.2,0.8-2.4,1.3-3.5c0.4-1,1-1.9,1.6-2.8c0.5-0.9,1.3-1.6,2-2.3c0.8-0.8,1.8-1.1,2.9-1.4
		c0.3-0.1,0.6-0.2,1-0.2c0.1,0,0.2,0,0.4,0c0,0,0.1,0,0.2,0c0.5,0.1,1.1,0,1.6,0.2c0.5,0.1,1.1,0.4,1.5,0.9c0.2,0.3,0.4,0.7,0.5,1.1
		c0,0.4,0,0.8-0.1,1.1c-0.2,0.5-1,1.2-1.5,1.4c-0.5,0.1-1,0.1-1.5,0c-0.8-0.2-1.5,0-2,0.6c-0.8,0.7-1.4,1.6-2,2.5
		c-0.5,1-0.9,1.9-1.2,2.9c-0.2,0.6-0.4,1.2-0.5,2c-0.1,0.5-0.2,1-0.2,1.6c-0.1,0.9-0.1,1.7-0.1,2.5c0,1.1,0.2,2.2,0.6,3.2
		c0.3,0.8,0.8,1.7,1.5,2.3c0.5,0.5,1.1,1,1.8,1.4c0.2,0.1,0.5,0.3,0.8,0.3c0.5,0.2,1,0.5,1.4,0.8c0.4,0.3,0.6,0.7,0.7,1.1
		c0.1,0.5,0,0.9-0.2,1.3s-0.7,0.7-1.2,0.8c-0.5,0.1-1,0-1.4,0C156.8,352.6,156.4,352.5,156,352.4z"/>
	<path class="st4" d="M170.1,352c-0.4-0.4-0.6-0.9-0.6-1.4c-0.1-0.3-0.1-0.6-0.1-1c0-0.8,0-1.5,0-2.3c0.1-1,0-2,0.1-3
		c0.1-1,0-2,0.1-2.9c0.1-0.7,0-1.5,0.1-2.2c0.1-0.6,0-1.2,0.1-1.7c0.1-0.5,0-1,0.1-1.6c0.1-0.7,0-1.4,0.1-2.1c0.1-1.1,0-2.1,0-3.2
		c0-0.5-0.1-1-0.3-1.5c-0.2-0.3-0.4-0.5-0.8-0.5h-2.8c-1,0-1.6-0.3-2.1-1c-0.2-0.2-0.2-0.5-0.2-0.8c0-0.2,0-0.5,0-0.7
		c0.2-0.8,1.1-1.5,1.9-1.5c0.3,0,0.6,0,0.9,0h3.7c1.2,0,2.6,0,3.8,0c1.5,0,2.9,0,4.3,0c0.7,0,1.2,0.1,1.8,0.5c0.5,0.2,1,0.7,1,1.3
		c0,0.3,0,0.8-0.2,1.1c-0.2,0.2-0.5,0.5-0.8,0.6c-0.1,0-0.1,0.1-0.2,0.1c-0.4,0.2-0.8,0.4-1.2,0.4c-0.8,0.1-1.6,0-2.4,0
		c-0.3,0-0.6,0.2-0.9,0.1c-0.1,0-0.2,0.1-0.2,0.2c-0.4,0.3-0.6,0.7-0.7,1.2c0,0.3,0,0.6,0,1c0,0.8,0,1.6,0,2.4
		c0,0.9-0.2,1.8-0.2,2.7c-0.1,0.6,0,1.2-0.1,1.7c-0.1,0.6,0,1.2-0.1,1.8c-0.1,0.8,0,1.4-0.1,2.2c-0.1,1.1,0,2.2-0.1,3.2
		c0,0.9,0,1.8,0,2.7c-0.1,0.6-0.1,1.2-0.1,1.8c-0.1,0.6-0.1,1.2-0.4,1.8c-0.2,0.5-0.5,1-1.2,1.3C171.5,352.9,170.6,352.6,170.1,352z
		"/>
	<path class="st4" d="M183.3,348.9c-0.2-0.3-0.2-0.7-0.4-1c0-0.2-0.1-0.5,0-0.7V347c-0.1-0.6,0-1.1,0-1.8c0-0.7,0-1.5,0-2.1
		c0-0.8,0-1.5,0-2.3v-1.1c0-0.6,0-1.2,0-1.8c0-0.4,0.1-0.7,0-1c0-0.3,0-0.7,0-0.9c0.1-0.4,0-0.8,0.1-1.1c0-0.6,0-1.2,0.1-1.9v-0.9
		c0-0.7,0-1.3,0.1-2c0-0.5,0-1,0.1-1.5c0-0.2,0.1-0.3,0.2-0.5c0.3-0.6,0.7-1.1,1.3-1.3c0.2-0.1,0.4-0.1,0.6-0.2
		c0.6-0.1,1.2,0,1.8,0.5c0.5,0.3,0.8,0.7,1,1.2c0,0.2,0.1,0.5,0.2,0.8c0,0.5,0,0.9,0,1.3v0.9c0,0.6,0,1.3-0.1,2v1
		c0,0.6-0.1,1.2-0.1,1.9c0,0.6,0,1.2,0,1.8c0,0.6,0,1.1,0,1.7c0,0.4,0,0.7,0,1c0,0.5,0,1.1,0,1.6c0,0.5-0.1,1,0,1.5
		c0,0.2,0,0.5,0,0.8c0,0.2,0.2,0.5,0,0.8v0.1c0.2,0.5,0,1.1,0.1,1.6c0,1.1-0.2,2.2-1,3c-0.8,0.9-1.9,1-2.8,0.3
		C183.8,349.9,183.5,349.4,183.3,348.9z"/>
	<path class="st4" d="M195.5,352c-0.5-0.4-0.8-0.8-1-1.3c-0.4-0.8-0.8-1.5-1.1-2.2c-0.2-0.6-0.4-1.2-0.6-1.8
		c-0.1-0.4-0.2-0.8-0.4-1.2c-0.1-0.2-0.1-0.5-0.2-0.7c-0.1-0.5-0.3-1.1-0.4-1.7c-0.1-0.7-0.2-1.3-0.3-1.9c-0.1-0.4-0.1-0.8-0.2-1.1
		c-0.2-0.5-0.2-1-0.2-1.5c-0.2-0.5-0.2-1.1-0.2-1.7c-0.5-2.8-0.6-5.7-0.9-8.5c0-0.5,0-0.9,0.2-1.3c0.2-0.9,1.1-1.6,2.1-1.7
		c1-0.1,2.1,0.6,2.5,1.5c0,0.4,0.2,0.8,0.1,1.2c0,0,0,0.2,0,0.2c0,0.7,0,1.4,0.2,2c0.3,2.2,0.3,4.3,0.6,6.5l0.2,1.8l0.5,2.2
		c0.2,0.7,0.2,1.3,0.5,1.9l0.2,1c0,0.3,0.1,0.6,0.3,0.8c0.1,0.3,0.2,0.3,0.5,0.1c0.1-0.1,0.2-0.2,0.2-0.4c0.2-0.6,0.5-1.2,0.6-1.9
		l0.8-2.3c0.2-0.8,0.5-1.5,0.7-2.2c0.2-0.6,0.5-1.2,0.6-1.8c0.3-0.8,0.5-1.6,0.8-2.4c0.2-0.5,0.3-1.1,0.5-1.6c0.4-0.8,0.6-1.7,1-2.5
		l0.7-1.9l0.6-1.5c0.2-0.7,0.7-1.3,1.3-1.7c0.4-0.2,0.7-0.4,1.1-0.5c1-0.2,1.7,0.2,2.1,1c0.1,0.2,0.2,0.4,0.2,0.6
		c0.1,0.2,0,0.4,0.1,0.6c0.1,0.4,0,0.8-0.2,1.2c-0.2,0.6-0.5,1.2-0.7,1.8c-0.3,0.9-0.6,1.8-0.9,2.7l-0.6,1.7c-0.3,0.9-0.7,1.8-1,2.7
		c-0.3,0.8-0.5,1.7-0.8,2.5c-0.2,0.9-0.6,1.7-0.9,2.6c-0.3,1-0.6,2-1,2.9c-0.4,1.3-0.9,2.6-1.5,3.9c-0.4,1-0.9,2-1.6,2.9
		c-0.5,0.6-1,1.2-1.8,1.5C197.2,352.7,196.3,352.6,195.5,352z"/>
	<path class="st4" d="M210.9,348.9c-0.2-0.3-0.2-0.7-0.4-1c0-0.2-0.1-0.5,0-0.7V347c-0.1-0.6,0-1.1,0-1.8c0-0.7,0-1.5,0-2.1
		c0-0.8,0-1.5,0-2.3v-1.1c0-0.6,0-1.2,0-1.8c0-0.4,0.1-0.7,0-1c0-0.3,0-0.7,0-0.9c0.1-0.4,0-0.8,0.1-1.1c0-0.6,0-1.2,0.1-1.9v-0.9
		c0-0.7,0-1.3,0.1-2c0-0.5,0-1,0.1-1.5c0-0.2,0.1-0.3,0.2-0.5c0.3-0.6,0.7-1.1,1.3-1.3c0.2-0.1,0.4-0.1,0.6-0.2
		c0.6-0.1,1.2,0,1.8,0.5c0.5,0.3,0.8,0.7,1,1.2c0,0.2,0.1,0.5,0.2,0.8c0,0.5,0,0.9,0,1.3v0.9c0,0.6,0,1.3-0.1,2v1
		c0,0.6-0.1,1.2-0.1,1.9c0,0.6,0,1.2,0,1.8c0,0.6,0,1.1,0,1.7c0,0.4,0,0.7,0,1c0,0.5,0,1.1,0,1.6c0,0.5-0.1,1,0,1.5
		c0,0.2,0,0.5,0,0.8c0,0.2,0.2,0.5,0,0.8v0.1c0.2,0.5,0,1.1,0.1,1.6c0,1.1-0.2,2.2-1,3c-0.8,0.9-1.9,1-2.8,0.3
		C211.5,349.9,211.2,349.4,210.9,348.9z"/>
	<path class="st4" d="M223.7,352c-0.3-0.4-0.5-0.9-0.6-1.4c-0.1-0.3-0.1-0.6-0.1-1c0-0.8-0.1-1.5,0-2.3c0.1-1,0-2,0.1-3
		c0.1-1,0-2,0.1-2.9c0.1-0.7,0-1.5,0.1-2.2c0.1-0.6,0-1.2,0.1-1.7c0.1-0.5,0-1,0.1-1.6c0.1-0.7,0-1.4,0.1-2.1c0.2-1.1,0-2.1,0-3.2
		c0-0.5-0.1-1-0.3-1.5c-0.2-0.3-0.4-0.5-0.8-0.5h-2.8c-0.9,0-1.6-0.3-2.1-1c-0.2-0.2-0.2-0.5-0.2-0.8c0-0.2,0-0.5,0-0.7
		c0.2-0.8,1.1-1.5,1.9-1.5c0.3,0,0.6,0,0.9,0h3.6c1.3,0,2.6,0,3.8,0c1.5,0,2.9,0,4.3,0c0.7,0,1.2,0.1,1.8,0.5c0.5,0.2,1,0.7,1,1.3
		c0,0.3,0,0.8-0.2,1.1c-0.2,0.2-0.5,0.5-0.8,0.6c-0.1,0-0.1,0.1-0.2,0.1c-0.4,0.2-0.8,0.4-1.2,0.4c-0.8,0.1-1.6,0-2.4,0
		c-0.3,0-0.6,0.2-0.9,0.1c-0.1,0-0.2,0.1-0.2,0.2c-0.4,0.3-0.6,0.7-0.7,1.2c0,0.3,0,0.6,0,1c0,0.8,0,1.6,0,2.4
		c0,0.9-0.2,1.8-0.2,2.7c-0.2,0.6,0,1.2-0.1,1.7c-0.1,0.6,0,1.2-0.1,1.8c-0.1,0.8,0,1.4,0,2.2c-0.2,1.1,0,2.2-0.2,3.2
		c0,0.9,0.1,1.8,0,2.7c-0.1,0.6,0,1.2-0.1,1.8c-0.1,0.6-0.1,1.2-0.4,1.8c-0.2,0.5-0.5,1-1.2,1.3C225.1,352.9,224.2,352.6,223.7,352z
		"/>
	<path class="st4" d="M239.1,352.5c-0.5-0.4-0.9-1-1.1-1.7c-0.3-1.2,0.5-2.4,1.3-2.7c0.6-0.2,1.2-0.2,1.8-0.1
		c0.6,0.1,1.1,0.3,1.7,0.2c1.2-0.1,2.2-0.6,3-1.8c0.5-0.8,0.8-1.5,1-2.4c0.2-0.3,0.3-0.8,0.2-1.2c0-0.1,0-0.2-0.1-0.3
		c-0.1-0.2-0.2-0.2-0.4,0l-0.8,0.6c-0.5,0.5-1.2,0.8-1.8,0.9c-0.6,0.1-1.2,0.1-1.9-0.1c-0.8-0.2-1.5-0.7-2.2-1.2
		c-1.1-0.9-2-2-2.5-3.5c-0.2-0.5-0.2-0.9-0.3-1.3c-0.1-0.5-0.2-0.9-0.2-1.4c0-0.2,0-0.4-0.1-0.6c-0.1-0.8-0.2-1.5-0.3-2.2
		c0-0.6,0-1.1,0-1.6c0-0.4,0.1-0.8,0.1-1.1c0-0.4-0.1-0.7,0.1-1.1c0,0,0-0.1,0-0.2c0-0.6,0.1-1.2,0.2-1.8c0.1-0.6,0.2-1.2,0.4-1.8
		c0.3-1,0.9-1.6,1.8-1.9c0.2,0,0.5,0,0.8,0c1,0.3,1.5,1.4,1.5,2.3c0,0.8-0.1,1.5-0.1,2.2l-0.2,1.5c-0.1,1.5-0.1,2.9,0,4.4
		c0,1.3,0.3,2.6,1,3.7c0.3,0.5,0.7,0.8,1.2,1.1c0.3,0.2,0.5,0.1,0.7-0.1c0.2-0.2,0.4-0.5,0.5-0.8c0.5-1,0.8-2,1-3
		c0.2-0.6,0.3-1.1,0.4-1.7c0.2-0.9,0.5-1.8,0.6-2.7c0-0.6,0.2-1.2,0.4-1.9c0-0.3,0.1-0.6,0.1-1c0-0.3,0.2-0.7,0.2-1l0.1-0.9
		c0.2-1,0.6-1.9,1.5-2.3c1.1-0.4,2.2-0.2,2.9,0.9c0.4,0.6,0.6,1.3,0.7,2c0.1,0.9,0.1,1.9,0.1,2.8c0.1,0.8,0.1,1.4,0.1,2.1v0.2
		c0,1-0.1,1.9-0.1,2.8c0,0.8-0.1,1.5-0.2,2.2c-0.1,0.6-0.1,1.2-0.2,1.7c-0.2,0.9-0.2,1.8-0.5,2.7c-0.2,0.8-0.3,1.6-0.5,2.4
		c-0.2,0.7-0.3,1.2-0.5,1.9c-0.3,0.8-0.7,1.6-1.1,2.4c-0.3,0.6-0.6,1.2-1,1.6c-0.6,0.7-1.2,1.3-1.9,1.8c-0.5,0.3-1,0.6-1.5,0.8
		c-0.5,0.2-1.1,0.4-1.8,0.5c-0.7,0.2-1.4,0.1-2,0C240.5,353.1,239.8,352.9,239.1,352.5z"/>
</g>
<g class="st3">
	<path class="st4" d="M305.6,192c-0.7-0.5-1.2-1.2-1.4-2.5c0-0.5-0.1-1.2-0.1-1.9c0-0.3,0-0.7,0-1c-0.1-0.7-0.1-1.3-0.1-2
		c0-0.5,0-1,0-1.5c0.1-0.3,0-0.6,0-0.9c0-0.5,0.1-1.1,0.1-1.6V177c0-0.5,0-1,0-1.6c0-0.5,0-1.1,0-1.6v-1.5c0-0.5,0-1.1,0-1.6
		c0-0.5,0-1,0-1.5c0-0.5,0.2-1.1,0.5-1.6c0.4-0.5,0.8-0.8,1.4-1c0.7-0.1,1.3,0,1.9,0.2c0.2,0.1,0.3,0.3,0.5,0.5
		c0.4,0.3,0.6,0.8,0.8,1.3c0,0.4,0,0.7,0,1.1c0,0.5,0,1,0.1,1.5c0,0.2,0,0.4,0.2,0.4c0.2,0,0.5,0,0.6-0.2c0.3-0.4,0.7-0.8,1-1.2
		c0.2-0.3,0.4-0.5,0.6-0.8c0.5-0.8,1-1.6,1.5-2.4c0.3-0.5,0.7-1.1,1.1-1.5c0.2-0.2,0.5-0.4,0.8-0.5c0.3-0.2,0.6-0.4,1-0.2
		c1-0.1,2.1,0.8,2.3,1.8c0.2,0.3,0.2,0.6,0.1,1c0,0.5-0.2,0.8-0.4,1.2c-0.5,0.8-1,1.5-1.5,2.3c-0.5,0.8-1.1,1.6-1.7,2.4
		c-0.6,0.8-1.2,1.7-1.8,2.5l-1,1.3c-0.3,0.4-0.4,0.8-0.3,1.2c0.1,0.5,0.2,1,0.6,1.4c0.3,0.4,0.5,0.9,0.8,1.4
		c0.3,0.6,0.7,1.2,1.1,1.9c0.7,1.1,1.4,2.2,2.1,3.3c0.3,0.5,0.7,0.9,0.8,1.4c0.4,0.9,0.5,1.8,0,2.7c-0.5,0.7-1.2,1.1-2.2,1
		c-0.9,0-1.5-0.5-2.1-1.2c-0.5-0.6-0.9-1.2-1.2-1.9c-0.4-0.6-0.8-1.2-1.2-1.8c-0.2-0.4-0.5-0.8-0.8-1.2c-0.1-0.2-0.2-0.3-0.4-0.3
		c-0.2,0-0.2,0.2-0.2,0.4c0,0.5,0,1.1,0,1.6c0.1,0.3,0,0.6,0,0.9c0.1,0.3,0.1,0.7,0.1,1c0,0.4,0,0.8,0,1.2c-0.2,0.9-0.7,1.6-1.5,2
		C307,192.5,306.2,192.5,305.6,192z"/>
	<path class="st4" d="M320.9,192.4c-0.3-0.4-0.5-0.9-0.5-1.2c-0.1-0.8-0.1-1.3-0.1-1.9c0-0.3,0-0.7,0-1c0-0.5,0-0.8,0-1.3
		c0-0.3,0-0.7,0-1c0-0.6,0-1.2,0-1.8c0-0.8,0-1.5,0-2.2v-1.7c0-0.7,0-1.4,0-2c0-0.6,0-1.2,0-1.8c0-0.9,0.1-1.8,0.2-2.7l0.2-2.6
		c0.1-1.1,0.1-2.2,0.5-3.3c0.3-1,1-1.6,2-1.8c0.6-0.1,1.2,0.1,1.7,0.4c0.8,0.4,1.2,1.2,1.6,2l0.8,1.8c0.2,0.5,0.4,1,0.7,1.6
		c0.3,0.9,0.7,1.7,1,2.5c0.5,1,0.9,2.1,1.2,3.1c0.3,0.7,0.5,1.4,0.9,2c0,0,0,0.1,0,0.1c0.1,0.1,0.2,0.2,0.3,0.2
		c0.2,0,0.2-0.2,0.2-0.3V177c0-0.5,0.1-1,0-1.6c0-0.5,0-0.9,0-1.4c0.1-0.3,0-0.6,0.1-0.9v-2.5c0-0.5,0-1.6,0-2.1c0-0.5,0-1,0.1-1.5
		c0.1-0.7,0.2-1.3,0.6-1.9c0.4-0.7,0.9-1.1,1.8-1.2c0.4,0,0.9,0.2,1.2,0.5c0.5,0.5,0.8,1.1,1,1.8c0,0.2,0.1,0.4,0.2,0.7
		c0.1,0.5,0.1,1.1,0.1,1.7c0,0.3,0,0.5,0,0.8l0,0.7v3.5c0,0.7,0,1.5-0.1,2.2v0.8c0.1,1,0,2.2,0,3.2l-0.1,2.8c-0.1,1-0.1,1.9-0.1,2.8
		c-0.1,1.2-0.1,2.5-0.3,3.6c-0.1,0.6-0.1,1.3-0.4,1.9c-0.3,0.7-0.8,1.2-1.5,1.4c-0.8,0.1-1.5-0.1-2-0.7c-0.2-0.2-0.5-0.5-0.7-0.8
		c-0.2-0.4-0.5-0.7-0.8-1.1c-0.6-0.8-1.1-1.8-1.6-2.8c-0.4-0.7-0.8-1.5-1.2-2.3c-0.5-0.9-0.9-1.9-1.3-2.8c-0.2-0.5-0.5-1-0.7-1.6
		c0-0.1-0.1-0.1-0.2-0.2c-0.1-0.1-0.2-0.2-0.3-0.2c-0.1,0-0.2,0.1-0.2,0.3c0,0.2,0,0.4,0,0.6c0,0.5,0,1.1,0,1.7v4.1
		c0,0.5,0,1.1,0,1.7c0,0.5,0,0.9,0,1.5c-0.1,0.3-0.1,0.8-0.1,1.1c0,0.6-0.2,1.2-0.5,1.7c-0.3,0.4-0.7,0.7-1.2,0.9
		C322.3,193.3,321.5,193.1,320.9,192.4z"/>
	<path class="st4" d="M344.2,191.3c-0.7-0.3-1.4-0.7-2-1.2c-0.6-0.5-1.2-1.1-1.7-1.8c-0.4-0.5-0.8-1.1-1.1-1.8
		c-0.2-0.4-0.3-0.8-0.5-1.3c-0.3-1.2-0.5-2.4-0.7-3.6l-0.2-1.7c0-0.5,0-1.1,0-1.6c0-0.7,0-1.4,0.1-2.1c0-0.5,0-1.1,0.1-1.7
		c0.1-1,0.2-2.1,0.5-3.1l0.2-0.9c0.1-0.5,0.2-1.2,0.5-1.7c0.1-0.2,0.3-0.5,0.5-0.7c0.5-0.5,0.8-1.1,1.4-1.5c0.8-0.7,1.8-1.3,2.8-1.8
		c0.8-0.3,1.5-0.6,2.2-0.7c0.6-0.1,1.2,0,1.8,0c1.1,0.2,2.2,0.5,3.2,1c0.5,0.3,1,0.5,1.5,1c0.2,0.2,0.5,0.3,0.6,0.5
		c0.7,0.8,1.3,1.5,1.8,2.4c0.4,0.7,0.7,1.4,1,2.1c0.1,0.4,0.2,0.8,0.3,1.2c0.2,0.5,0.2,1.1,0.3,1.5c0.1,0.2,0.1,0.4,0.1,0.5
		c0.1,0.7,0.1,1.4,0.1,2.1c0,1.5-0.1,2.8-0.5,4.2c-0.3,1.5-0.8,2.9-1.3,4.2c-0.3,0.6-0.5,1.2-0.8,1.7c-0.4,0.6-0.7,1.2-1.2,1.7
		c-0.5,0.4-0.9,0.9-1.3,1.3c-0.8,0.7-1.6,1.2-2.6,1.6c-0.4,0.2-0.8,0.2-1.2,0.4c-0.2,0.1-0.5,0.1-0.7,0c0,0-0.1,0-0.2,0
		C346.2,191.9,345.2,191.7,344.2,191.3z M349.1,186c0.2-0.3,0.5-0.7,0.7-1c0.3-0.5,0.6-1,0.9-1.6c0.4-0.9,0.8-1.8,1-2.7
		c0.3-1.2,0.5-2.5,0.5-3.8c0-0.6,0-1.2-0.1-1.9c0-0.5-0.3-1-0.3-1.5v-0.1c-0.3-0.6-0.5-1.2-0.9-1.8c-0.5-0.9-1.2-1.5-2.1-2
		c-0.2-0.1-0.4-0.2-0.6-0.2c-0.8-0.2-1.6-0.1-2.4,0.3c-0.6,0.3-1.1,0.8-1.5,1.2c-0.3,0.3-0.5,0.7-0.6,1l-0.4,2.4
		c-0.2,1.3-0.2,2.7-0.3,4c0,0.5,0,1.1,0,1.7c0.1,0.7,0.2,1.4,0.2,2.1c0,0.2,0.2,0.4,0.2,0.5c0,0.7,0.2,1.3,0.5,1.9
		c0.3,0.9,0.7,1.8,1.5,2.5c0.5,0.5,1.3,0.7,2,0.5C348,187,348.6,186.6,349.1,186z"/>
	<path class="st4" d="M362.9,193.4c-0.6-0.3-1-0.8-1.3-1.4c-0.3-0.7-0.6-1.4-0.8-2.1c-0.1-0.2-0.2-0.5-0.2-0.8c0-0.5-0.2-1-0.3-1.5
		c-0.2-1.2-0.4-2.5-0.6-3.7c-0.1-0.6-0.1-1.2-0.2-1.7c0-0.4-0.1-0.7-0.1-1c0-1.4-0.4-2.8-0.4-4.2c0-0.7-0.1-1.5-0.1-2.2
		s-0.2-1.3-0.2-2s-0.1-1.4,0-2.1c0-0.6,0.2-1.3,0.6-1.8c0.2-0.3,0.6-0.6,1-0.8c0.8-0.3,1.6-0.2,2.2,0.2c0.5,0.3,1,0.9,1,1.5
		c0.1,0.4,0.2,0.7,0.2,1c0,0.6,0.1,1.2,0.1,1.8c-0.1,0.6,0.1,1.2,0.1,1.7c0,0.9,0.2,1.8,0.2,2.7c0,1.2,0.2,2.3,0.3,3.4
		c0.2,1.2,0.3,2.2,0.4,3.4c0,0,0,0.1,0,0.2c0,0.1,0.1,0.4,0.3,0.4c0.1,0,0.2-0.2,0.2-0.3c0.2-0.5,0.3-1.2,0.5-1.7
		c0.2-1,0.3-1.9,0.6-2.9l0.6-2l0.5-1.7c0.2-0.6,0.4-1.3,0.8-1.8c0.5-0.5,1-0.8,1.7-1c1.2-0.2,2,0.3,2.6,1.2c0.4,0.5,0.7,1.2,1,1.8
		c0.6,1.2,1.1,2.3,1.7,3.5c0.2,0.5,0.5,1,0.7,1.5c0,0,0,0.1,0.1,0.2c0.1,0.1,0.2,0.4,0.2,0.4c0.3,0,0.3-0.2,0.4-0.4
		c0-0.1,0-0.2,0.1-0.3c0.2-1.2,0.4-2.3,0.6-3.5l0.5-2.5c0.2-1.4,0.5-2.7,0.8-4.1c0.2-0.9,0.3-1.8,0.5-2.7c0.1-0.6,0.2-1.2,0.4-1.9
		c0.1-0.7,0.4-1.2,0.7-1.8c0.5-0.7,1.7-1.3,2.8-0.8c0.4,0.2,0.8,0.5,1,1c0.2,0.3,0.3,0.7,0.3,1c0,0.4,0,0.7,0,1.1
		c0,0.8-0.2,1.5-0.3,2.3c-0.2,1.3-0.5,2.6-0.7,3.9l-0.5,2.6c-0.2,1.5-0.5,2.9-0.8,4.3c-0.2,1.2-0.5,2.5-0.8,3.8
		c-0.3,1.4-0.7,2.7-1.1,4c-0.1,0.6-0.3,1.1-0.6,1.6c-0.4,0.6-0.7,1.2-1.4,1.5c-0.8,0.4-1.4,0.3-2.2,0c-0.5-0.2-0.9-0.8-1.2-1.2
		c-0.8-1.1-1.4-2.4-2-3.7c-0.3-0.6-0.5-1.2-0.9-1.9c-0.1-0.3-0.3-0.5-0.5-0.9c-0.1-0.2-0.3-0.2-0.5-0.2c-0.2,0-0.3,0.2-0.3,0.2
		l-0.3,0.7c-0.5,1.2-0.9,2.5-1.4,3.8s-1,2.5-1.5,3.7c-0.4,0.6-0.8,1.2-1.3,1.7c-0.4,0.4-0.9,0.6-1.4,0.7
		C363.8,193.7,363.3,193.6,362.9,193.4z"/>
	<path class="st4" d="M407,192c-0.7-0.5-1-1.2-1-2.1c-0.1-1.4,0-2.8-0.1-4.2c0-0.3-0.1-0.6-0.2-0.9c-0.2-0.2-0.2-0.2-0.5-0.2
		c-0.6,0-1.2,0-1.8-0.1c-0.5-0.1-1-0.1-1.5-0.1c-0.2,0-0.4,0-0.5,0.2c-0.2,0.2-0.3,0.3-0.4,0.5c-0.1,0.1-0.2,0.3-0.2,0.5l-0.3,2.2
		c-0.1,0.5-0.2,1-0.2,1.5c-0.2,0.7-0.6,1.1-1,1.5c-0.2,0.2-0.4,0.2-0.7,0.4c-0.6,0.3-1.2,0.1-1.7-0.3c-0.5-0.4-0.8-1-1-1.6
		c-0.1-0.3-0.2-0.7,0-1v-0.1c0-0.5,0-1,0.1-1.5c0.1-0.8,0.2-1.6,0.3-2.4l0.5-2.3c0.1-0.9,0.4-1.7,0.6-2.6c0.5-1.8,1-3.5,1.6-5.1
		c0.3-1.1,0.8-2.1,1.1-3.1l1.3-3.2c0.3-1,0.8-1.8,1.4-2.6c0.3-0.5,0.8-0.6,1.3-0.7c0.8-0.1,1.6,0.2,2.2,0.8c0.4,0.5,0.8,1,1.1,1.5
		c0.5,0.7,0.8,1.4,1.1,2.2c0.3,0.9,0.6,1.7,0.8,2.6c0.1,0.5,0.3,1.1,0.3,1.6c0.1,0.5,0.2,1.1,0.2,1.6c0,0.2,0.2,0.4,0.2,0.7
		c0,0.2-0.1,0.4,0,0.6c0,0,0,0,0,0.1c0,0.5,0.1,1.1,0.2,1.7c0,0.9,0,1.9,0.1,2.8c0.1,1.1,0,2.3,0,3.5c0,0.5,0.2,1,0.1,1.6v1.5
		c0,0.6,0,1.2,0,1.9c0,0.5-0.1,1.1-0.3,1.7c-0.2,0.7-0.8,1.2-1.5,1.5C408.1,192.6,407.5,192.5,407,192z M405.6,179.2
		c0-0.2,0-0.4,0-0.7c0-0.3-0.1-0.6-0.1-1c0-0.5-0.2-1-0.1-1.6v0c-0.1-0.6-0.2-1.2-0.3-1.8c0-0.3-0.1-0.5-0.2-0.8
		c0-0.1,0-0.2-0.2-0.2c-0.2,0-0.3,0-0.4,0.2c0,0.1-0.1,0.1-0.1,0.2c-0.3,0.8-0.5,1.5-0.8,2.2c-0.3,1-0.7,1.9-0.9,2.8
		c-0.1,0.3-0.1,0.6-0.1,0.9s0.1,0.5,0.4,0.6c0.2,0.1,0.4,0.1,0.6,0.1c0.2,0,0.4,0,0.6,0c0.2,0.1,0.5,0,0.7,0
		C405.1,179.9,405.5,179.6,405.6,179.2z"/>
	<path class="st4" d="M412.8,192.4c-0.3-0.4-0.5-0.9-0.5-1.2c-0.1-0.8-0.1-1.3-0.1-1.9c0-0.3,0-0.7,0-1c0-0.5,0-0.8,0-1.3
		c0-0.3,0-0.7,0-1c0-0.6,0-1.2,0-1.8c0-0.8,0-1.5,0-2.2v-1.7c0-0.7,0-1.4,0-2c0-0.6,0-1.2,0-1.8c0-0.9,0.1-1.8,0.2-2.7l0.2-2.6
		c0.1-1.1,0.1-2.2,0.5-3.3c0.3-1,1-1.6,2-1.8c0.6-0.1,1.2,0.1,1.7,0.4c0.8,0.4,1.2,1.2,1.6,2l0.8,1.8c0.2,0.5,0.4,1,0.7,1.6
		c0.3,0.9,0.7,1.7,1,2.5c0.5,1,0.9,2.1,1.2,3.1c0.3,0.7,0.5,1.4,0.9,2c0,0,0,0.1,0,0.1c0.1,0.1,0.2,0.2,0.3,0.2
		c0.2,0,0.2-0.2,0.2-0.3V177c0-0.5,0.1-1,0-1.6c0-0.5,0-0.9,0-1.4c0.1-0.3,0-0.6,0.1-0.9v-2.5c0-0.5,0-1.6,0-2.1c0-0.5,0-1,0.1-1.5
		c0.1-0.7,0.2-1.3,0.6-1.9c0.4-0.7,0.9-1.1,1.8-1.2c0.4,0,0.9,0.2,1.2,0.5c0.5,0.5,0.8,1.1,1,1.8c0,0.2,0.1,0.4,0.2,0.7
		c0.1,0.5,0.1,1.1,0.1,1.7c0,0.3,0,0.5,0,0.8l0,0.7v3.5c0,0.7,0,1.5-0.1,2.2v0.8c0.1,1,0,2.2,0,3.2l-0.1,2.8c-0.1,1-0.1,1.9-0.1,2.8
		c-0.1,1.2-0.1,2.5-0.3,3.6c-0.1,0.6-0.1,1.3-0.4,1.9c-0.3,0.7-0.8,1.2-1.5,1.4c-0.8,0.1-1.5-0.1-2-0.7c-0.2-0.2-0.5-0.5-0.7-0.8
		c-0.2-0.4-0.5-0.7-0.8-1.1c-0.6-0.8-1.1-1.8-1.6-2.8c-0.4-0.7-0.8-1.5-1.2-2.3c-0.5-0.9-0.9-1.9-1.3-2.8c-0.2-0.5-0.5-1-0.7-1.6
		c0-0.1-0.1-0.1-0.2-0.2c-0.1-0.1-0.2-0.2-0.3-0.2c-0.1,0-0.2,0.1-0.2,0.3c0,0.2,0,0.4,0,0.6c0,0.5,0,1.1,0,1.7v4.1
		c0,0.5,0,1.1,0,1.7c0,0.5,0,0.9,0,1.5c-0.1,0.3-0.1,0.8-0.1,1.1c0,0.6-0.2,1.2-0.5,1.7c-0.3,0.4-0.7,0.7-1.2,0.9
		C414.2,193.3,413.4,193.1,412.8,192.4z"/>
	<path class="st4" d="M430.9,192c-0.4-0.5-0.6-1.1-0.8-1.8c-0.1-1-0.1-2.2-0.1-3.2c0-0.3,0-0.7,0-1.1c0.1-2.4,0-4.8,0.1-7.2
		c0.2-0.8,0-1.7,0.1-2.5c0-0.5,0-1,0.1-1.5c0.1-0.5,0-1.2,0.2-1.7l0,0c0-0.5,0.1-1.1,0.1-1.7c0-0.2,0.1-0.5,0.1-0.8
		c-0.1-0.2-0.1-0.5,0-0.6c0-0.1,0-0.1,0-0.2c0-0.5,0.1-1,0.2-1.5c0-0.5,0.1-1,0.2-1.4c0.1-0.8,0.5-1.5,1.3-1.9
		c0.5-0.2,0.9-0.4,1.4-0.5c0.2-0.1,0.4,0,0.7,0c1.1,0,2,0.2,3,0.5c0.6,0.2,1.1,0.5,1.7,0.8c0.9,0.5,1.8,0.9,2.5,1.5
		c0.5,0.4,0.9,0.7,1.3,1c0.6,0.6,1.2,1.1,1.7,1.8c0.5,0.6,1,1.3,1.3,2c0.5,0.8,0.8,1.6,1.1,2.5c0.1,0.5,0.3,1,0.3,1.5
		c0,0.3,0.1,0.6,0.1,0.9c-0.1,1.3-0.3,2.7-0.8,3.9c-0.2,0.4-0.4,0.9-0.5,1.3c-0.3,0.5-0.6,1.1-1,1.7c-0.2,0.4-0.5,0.8-0.8,1.2
		l-1,1.3c-0.7,0.8-1.3,1.6-2.1,2.3c-0.9,0.8-1.8,1.5-2.8,2.1c-0.6,0.3-1.1,0.6-1.7,0.9c-1,0.5-2.1,0.9-3.2,1.1
		c-0.6,0.1-1.2,0.1-1.8,0C431.5,192.6,431.1,192.3,430.9,192z M435.5,187.5c0.5-0.2,1-0.5,1.4-1c1.1-1.2,2.3-2.3,3.3-3.6
		c0.9-1.2,1.7-2.5,2.2-3.8c0.2-0.5,0.4-1,0.5-1.5c0-0.6,0.1-1.2-0.1-1.8c-0.2-0.5-0.3-1-0.6-1.4c-0.3-0.6-0.8-1.2-1.1-1.7
		c-0.6-0.7-1.2-1.2-1.9-1.8c-0.6-0.5-1.2-0.8-1.9-1.1c-0.3-0.1-0.6-0.2-1-0.3c-0.3-0.1-0.7,0.1-0.8,0.4c0,0,0,0.1,0,0.1
		c0,0.3-0.1,0.5-0.1,0.9c0,0.5-0.1,1-0.1,1.6v0.1c-0.2,0.5,0,1.1-0.2,1.6c-0.1,0.4,0,0.8-0.1,1.2c-0.1,0.6,0,1.2-0.1,1.8
		c0,2.2-0.1,4.3-0.1,6.3v3.7c0,0.3,0.4,0.5,0.7,0.4L435.5,187.5z"/>
	<path class="st4" d="M466.4,192.3c-1.2-0.3-2.4-0.8-3.4-1.7c-0.2-0.2-0.5-0.4-0.7-0.6c-0.6-0.7-1.2-1.5-1.7-2.3
		c-0.4-0.8-0.8-1.5-0.9-2.3c-0.2-0.6-0.3-1.1-0.4-1.6c-0.1-0.6-0.2-1.2-0.2-1.8c0-0.4,0-0.8,0-1.2c-0.1-0.7,0-1.3,0.1-2
		c0.2-1.3,0.4-2.6,0.8-3.9c0.4-1.2,0.8-2.4,1.3-3.5c0.4-1,1-1.9,1.6-2.8c0.5-0.9,1.3-1.6,2-2.3c0.8-0.8,1.8-1.1,2.9-1.4
		c0.3-0.1,0.6-0.2,1-0.2c0.1,0,0.2,0,0.3,0c0,0,0.2,0,0.2,0c0.5,0.1,1.1,0,1.7,0.2c0.5,0.1,1,0.4,1.5,0.9c0.2,0.3,0.4,0.7,0.5,1.1
		c0,0.4,0,0.8-0.1,1.1c-0.2,0.5-1,1.2-1.5,1.4c-0.5,0.1-1,0.1-1.5,0c-0.8-0.2-1.5,0-2,0.6c-0.8,0.7-1.4,1.6-2,2.5
		c-0.5,1-0.9,1.9-1.2,2.9c-0.2,0.6-0.4,1.2-0.5,2c-0.1,0.5-0.2,1-0.2,1.6c-0.1,0.9,0,1.7,0,2.5c0,1.1,0.2,2.2,0.6,3.2
		c0.3,0.9,0.8,1.7,1.5,2.3c0.5,0.5,1.2,1,1.8,1.4c0.2,0.1,0.5,0.3,0.8,0.3c0.5,0.2,1,0.5,1.3,0.8c0.4,0.3,0.6,0.7,0.7,1.1
		c0.2,0.5,0,0.9-0.2,1.3s-0.7,0.7-1.2,0.8c-0.5,0.1-1,0-1.4,0C467.2,192.5,466.8,192.4,466.4,192.3z"/>
	<path class="st4" d="M480.5,191.3c-0.7-0.3-1.4-0.7-2-1.2c-0.6-0.5-1.2-1.1-1.7-1.8c-0.4-0.5-0.8-1.1-1.1-1.8
		c-0.2-0.4-0.3-0.8-0.5-1.3c-0.4-1.2-0.6-2.4-0.7-3.6l-0.2-1.7c0-0.5,0-1.1,0-1.6c0-0.7,0-1.4,0.1-2.1c0-0.5,0.1-1.1,0.1-1.7
		c0.1-1,0.2-2.1,0.5-3.1l0.1-0.9c0.1-0.5,0.3-1.2,0.5-1.7c0.1-0.2,0.3-0.5,0.5-0.7c0.5-0.5,0.8-1.1,1.4-1.5c0.9-0.7,1.8-1.3,2.8-1.8
		c0.8-0.3,1.5-0.6,2.2-0.7c0.6-0.1,1.2,0,1.8,0c1.1,0.2,2.2,0.5,3.2,1c0.5,0.3,1,0.5,1.5,1c0.2,0.2,0.5,0.3,0.6,0.5
		c0.7,0.8,1.3,1.5,1.8,2.4c0.4,0.7,0.7,1.4,1,2.1c0.1,0.4,0.2,0.8,0.3,1.2c0.2,0.5,0.2,1.1,0.3,1.5c0,0.2,0,0.4,0.1,0.5
		c0.1,0.7,0.1,1.4,0.1,2.1c0,1.5-0.2,2.8-0.5,4.2c-0.3,1.5-0.8,2.9-1.3,4.2c-0.3,0.6-0.5,1.2-0.9,1.7c-0.3,0.6-0.6,1.2-1.1,1.7
		c-0.5,0.4-0.9,0.9-1.3,1.3c-0.8,0.7-1.6,1.2-2.5,1.6c-0.4,0.2-0.8,0.2-1.2,0.4c-0.2,0.1-0.5,0.1-0.7,0c0,0-0.1,0-0.2,0
		C482.5,191.9,481.5,191.7,480.5,191.3z M485.3,186c0.2-0.3,0.5-0.7,0.6-1c0.4-0.5,0.7-1,0.9-1.6c0.4-0.9,0.8-1.8,1-2.7
		c0.3-1.2,0.5-2.5,0.5-3.8c0-0.6,0-1.2-0.1-1.9c0-0.5-0.3-1-0.4-1.5v-0.1c-0.3-0.6-0.5-1.2-0.8-1.8c-0.5-0.9-1.2-1.5-2.1-2
		c-0.1-0.1-0.3-0.2-0.5-0.2c-0.8-0.2-1.7-0.1-2.4,0.3c-0.6,0.3-1,0.8-1.5,1.2c-0.3,0.3-0.5,0.7-0.6,1l-0.4,2.4
		c-0.2,1.3-0.2,2.7-0.3,4c0,0.5,0,1.1,0,1.7c0.1,0.7,0.2,1.4,0.2,2.1c0,0.2,0.2,0.4,0.2,0.5c0,0.7,0.2,1.3,0.5,1.9
		c0.3,0.9,0.7,1.8,1.5,2.5c0.5,0.5,1.3,0.7,2,0.5C484.3,187,484.9,186.6,485.3,186z"/>
	<path class="st4" d="M495.6,192.4c-0.3-0.4-0.5-0.9-0.5-1.2c-0.1-0.8-0.1-1.3-0.1-1.9c0-0.3,0-0.7-0.1-1c0-0.5,0-0.8,0-1.3
		c0-0.3,0-0.7,0-1c0-0.6,0-1.2,0-1.8c0-0.8,0-1.5,0-2.2v-1.7c0-0.7,0-1.4,0-2c0.1-0.6,0-1.2,0.1-1.8c0-0.9,0.1-1.8,0.1-2.7l0.2-2.6
		c0.1-1.1,0.1-2.2,0.5-3.3c0.3-1,1-1.6,2-1.8c0.6-0.1,1.2,0.1,1.7,0.4c0.8,0.4,1.2,1.2,1.7,2l0.8,1.8c0.1,0.5,0.4,1,0.6,1.6
		c0.3,0.9,0.7,1.7,1,2.5c0.5,1,0.9,2.1,1.2,3.1c0.3,0.7,0.6,1.4,0.9,2c0,0,0,0.1,0,0.1c0.1,0.1,0.2,0.2,0.3,0.2
		c0.2,0,0.2-0.2,0.2-0.3V177c0-0.5,0-1,0-1.6c-0.1-0.5-0.1-0.9,0-1.4c0-0.3,0-0.6,0-0.9v-2.5c0-0.5,0-1.6,0-2.1c0-0.5,0-1,0.1-1.5
		c0.1-0.7,0.2-1.3,0.6-1.9c0.4-0.7,1-1.1,1.8-1.2c0.5,0,0.9,0.2,1.2,0.5c0.5,0.5,0.8,1.1,1,1.8c0,0.2,0.1,0.4,0.2,0.7
		c0.1,0.5,0.1,1.1,0.1,1.7c0,0.3,0,0.5,0,0.8l0,0.7v3.5c0,0.7,0,1.5,0,2.2v0.8c0,1,0,2.2-0.1,3.2l-0.1,2.8c0,1,0,1.9-0.1,2.8
		c-0.1,1.2-0.1,2.5-0.3,3.6c-0.1,0.6-0.1,1.3-0.3,1.9c-0.3,0.7-0.8,1.2-1.6,1.4c-0.8,0.1-1.5-0.1-2-0.7c-0.2-0.2-0.4-0.5-0.6-0.8
		c-0.2-0.4-0.5-0.7-0.8-1.1c-0.6-0.8-1.1-1.8-1.6-2.8c-0.4-0.7-0.8-1.5-1.2-2.3c-0.5-0.9-0.8-1.9-1.3-2.8c-0.2-0.5-0.5-1-0.7-1.6
		c0-0.1-0.1-0.1-0.1-0.2c-0.1-0.1-0.2-0.2-0.3-0.2c-0.1,0-0.2,0.1-0.2,0.3c0,0.2,0,0.4,0,0.6c0,0.5,0,1.1,0,1.7v4.1
		c0,0.5,0,1.1,0,1.7c0,0.5,0,0.9,0,1.5c0,0.3,0,0.8,0,1.1c0,0.6-0.2,1.2-0.5,1.7c-0.3,0.4-0.7,0.7-1.2,0.9
		C497,193.3,496.2,193.1,495.6,192.4z"/>
	<path class="st4" d="M519,191.9c-0.3-0.4-0.5-0.9-0.6-1.4c-0.1-0.3-0.1-0.6-0.1-1c0-0.8-0.1-1.5,0-2.3c0.1-1,0-2,0.1-3
		c0.1-1,0-2,0.1-2.9c0.1-0.7,0-1.5,0.1-2.2c0.1-0.6,0-1.2,0.1-1.7c0.1-0.5,0-1,0.1-1.6c0.1-0.7,0-1.4,0.1-2.1c0.2-1.1,0-2.1,0-3.2
		c0-0.5-0.1-1-0.3-1.5c-0.2-0.3-0.4-0.5-0.8-0.5h-2.8c-0.9,0-1.6-0.3-2.1-1c-0.2-0.2-0.2-0.5-0.2-0.8c0-0.2,0-0.5,0-0.7
		c0.2-0.8,1.1-1.5,1.9-1.5c0.3,0,0.6,0,0.9,0h3.6c1.3,0,2.6,0,3.8,0c1.5,0,2.9,0,4.3,0c0.7,0,1.2,0.1,1.8,0.5c0.5,0.2,1,0.7,1,1.3
		c0,0.3,0,0.8-0.2,1.1c-0.2,0.2-0.5,0.5-0.8,0.6c-0.1,0-0.1,0.1-0.2,0.1c-0.4,0.2-0.8,0.4-1.2,0.4c-0.8,0.1-1.6,0-2.4,0
		c-0.3,0-0.6,0.2-0.9,0.1c-0.1,0-0.2,0.1-0.2,0.2c-0.4,0.3-0.6,0.7-0.7,1.2c0,0.3,0,0.6,0,1c0,0.8,0,1.6,0,2.4
		c0,0.9-0.2,1.8-0.2,2.7c-0.1,0.6,0,1.2-0.1,1.7c0,0.6,0,1.2-0.1,1.8c-0.1,0.8,0,1.4,0,2.2c-0.2,1.1,0,2.2-0.2,3.2
		c0,0.9,0.1,1.8,0,2.7c-0.1,0.6,0,1.2-0.1,1.8c-0.1,0.6-0.1,1.2-0.4,1.8c-0.2,0.5-0.5,1-1.2,1.3C520.4,192.8,519.5,192.5,519,191.9z
		"/>
	<path class="st4" d="M533.5,191.9c-0.2-0.2-0.5-0.4-0.7-0.6c-0.4-0.5-0.8-1.1-0.8-2l-0.2-2c0-0.2,0-0.5,0-0.8c0-0.2-0.1-0.5,0-0.8
		c0.1,0,0-0.1,0-0.1c-0.1-0.5,0-1,0.1-1.4c0-0.7,0-1.5,0-2.2c0-0.3,0-0.8,0-1.1c0-0.4,0-0.8,0.1-1.2c0-0.4,0.1-0.8,0.1-1.1
		c0-0.5,0-0.8,0-1.2c0-0.3,0-0.5,0-0.8c0-0.7,0-1.2,0.1-1.9c0.1-0.6,0.1-1.2,0.1-1.9c0-0.4,0-0.8,0-1.2c0-0.5,0-0.8,0.1-1.2
		c0.1-0.6,0.2-1.2,0.4-1.7c0.2-0.4,0.4-0.8,0.7-1.2c0.5-0.7,1.2-1.1,2-1.3c0.8-0.2,1.5-0.2,2.2-0.2c1.3,0.1,2.6,0.5,3.8,1.2
		c1.1,0.7,2,1.5,2.5,2.8c0.2,0.5,0.5,1.1,0.5,1.7c0,0.2,0,0.3,0.1,0.5c0.1,1.5-0.2,2.9-0.9,4.2c-0.3,0.7-0.7,1.2-1.2,1.8
		c-0.5,0.8-1.3,1.5-2,2.1c-0.3,0.3-0.4,0.8-0.5,1.2c0.2,0.2,0.2,0.5,0.4,0.8c0.6,0.7,1.2,1.5,1.8,2.2c0.7,0.9,1.4,1.8,2,2.7
		c0.5,0.6,0.9,1.3,0.9,2.1c0,0.5-0.1,1.1-0.5,1.5c-0.2,0.2-0.5,0.5-0.8,0.7c-0.8,0.3-1.6,0.2-2.4-0.3c-0.7-0.5-1.1-1.1-1.6-1.7
		c-0.6-0.9-1.2-1.7-2-2.5l-0.5-0.8c-0.2-0.2-0.3-0.2-0.5-0.2s-0.2,0.2-0.2,0.4v0.1c0,0.7,0,1.4,0,2.1c0.1,0.4,0,0.7-0.1,1.1
		c-0.2,0.7-0.5,1.3-1,1.8c-0.3,0.3-0.6,0.5-1,0.5C534.2,192.2,533.8,192.2,533.5,191.9z M538.6,175.5c0.5-0.5,0.8-1,1-1.8
		c0.1-0.4,0.2-0.8,0.2-1.2c-0.2-0.8-1-1.3-1.8-1.2c-0.4,0-0.4,0-0.5,0.5c0,0.3-0.1,0.8-0.1,1.1c0,0.4,0,0.8,0,1.1c0,0.5,0,1-0.1,1.4
		c0,0.2,0,0.3,0.1,0.4c0,0.4,0.2,0.5,0.6,0.3C538.2,176,538.4,175.7,538.6,175.5z"/>
	<path class="st4" d="M552.8,191.3c-0.7-0.3-1.4-0.7-2-1.2c-0.6-0.5-1.2-1.1-1.7-1.8c-0.4-0.5-0.8-1.1-1.1-1.8
		c-0.2-0.4-0.3-0.8-0.5-1.3c-0.4-1.2-0.6-2.4-0.7-3.6l-0.2-1.7c0-0.5,0-1.1,0-1.6c0-0.7,0-1.4,0.1-2.1c0-0.5,0.1-1.1,0.1-1.7
		c0.1-1,0.2-2.1,0.5-3.1l0.2-0.9c0.1-0.5,0.2-1.2,0.5-1.7c0.1-0.2,0.3-0.5,0.5-0.7c0.5-0.5,0.8-1.1,1.4-1.5c0.9-0.7,1.8-1.3,2.8-1.8
		c0.8-0.3,1.5-0.6,2.2-0.7c0.6-0.1,1.2,0,1.8,0c1.1,0.2,2.2,0.5,3.2,1c0.5,0.3,1,0.5,1.5,1c0.2,0.2,0.5,0.3,0.6,0.5
		c0.7,0.8,1.3,1.5,1.8,2.4c0.4,0.7,0.7,1.4,1,2.1c0.1,0.4,0.2,0.8,0.3,1.2c0.2,0.5,0.2,1.1,0.3,1.5c0,0.2,0,0.4,0.1,0.5
		c0.1,0.7,0.1,1.4,0.1,2.1c0,1.5-0.2,2.8-0.5,4.2c-0.3,1.5-0.8,2.9-1.3,4.2c-0.3,0.6-0.5,1.2-0.9,1.7c-0.3,0.6-0.6,1.2-1.1,1.7
		c-0.5,0.4-0.9,0.9-1.3,1.3c-0.8,0.7-1.6,1.2-2.5,1.6c-0.4,0.2-0.9,0.2-1.2,0.4c-0.2,0.1-0.5,0.1-0.7,0c0,0-0.1,0-0.2,0
		C554.8,191.9,553.8,191.7,552.8,191.3z M557.7,186c0.2-0.3,0.5-0.7,0.6-1c0.4-0.5,0.7-1,0.9-1.6c0.4-0.9,0.8-1.8,1-2.7
		c0.3-1.2,0.5-2.5,0.5-3.8c0-0.6,0-1.2-0.1-1.9c0-0.5-0.3-1-0.4-1.5v-0.1c-0.3-0.6-0.5-1.2-0.8-1.8c-0.5-0.9-1.2-1.5-2.1-2
		c-0.1-0.1-0.3-0.2-0.5-0.2c-0.8-0.2-1.7-0.1-2.4,0.3c-0.6,0.3-1,0.8-1.5,1.2c-0.3,0.3-0.5,0.7-0.6,1l-0.4,2.4
		c-0.2,1.3-0.2,2.7-0.3,4c0,0.5,0,1.1,0,1.7c0.1,0.7,0.2,1.4,0.2,2.1c0,0.2,0.2,0.4,0.2,0.5c0,0.7,0.2,1.3,0.5,1.9
		c0.3,0.9,0.7,1.8,1.5,2.5c0.5,0.5,1.3,0.7,2,0.5C556.6,187,557.2,186.6,557.7,186z"/>
	<path class="st4" d="M577.1,193c-0.7-0.2-1.4-0.2-2.1-0.3c-0.7-0.2-1.3-0.2-2-0.2c-0.5-0.1-1-0.1-1.5-0.1c-0.7,0-1.3-0.2-1.9-0.5
		c-0.4-0.1-0.8-0.2-1.1-0.5c-0.6-0.3-1-0.8-1.2-1.5c-0.2-0.6-0.2-1.6-0.2-2.3c0-0.2,0-0.5,0-0.8c0-0.4,0-0.9,0-1.2c0-0.5,0-1,0-1.6
		c0.1-0.3,0.1-0.7,0.1-1.1c0-0.5,0-0.9,0-1.4c0,0,0-0.1,0-0.1c0-0.5,0-1,0-1.5v-1.4c0-0.5,0-0.9,0-1.4s0-1,0-1.5v-0.2
		c0-0.5,0-1.1,0.1-1.6c0-0.4,0-0.7,0-1.1c0-0.5,0-1,0-1.5c0-0.3,0-0.8,0-1.1c0-0.3,0-0.6,0-1v-1.3c0-0.8,0.1-1.5,0.4-2.3
		c0.2-0.6,0.8-1.1,1.4-1.3c0.8-0.2,1.5,0,2.1,0.6c0.3,0.4,0.4,0.8,0.5,1.2c0.2,0.5,0.2,0.9,0.2,1.5c0.1,0.5,0,1.2,0,1.8
		c0,0.7,0,1.3-0.1,2c-0.1,0.4-0.1,0.8-0.1,1.2c0,0.3,0,0.8-0.1,1.2v0.9c0,0.4,0,0.8,0,1.2c0,0.6,0,1.2,0,1.7v0.1
		c0.1,0.6-0.1,1.1,0,1.7c0,0.2-0.1,0.4,0,0.7c0,0.2,0.1,0.5-0.1,0.7v0.2c0.1,0.6,0,1.1,0,1.7v1.3c0,0.5,0,0.9-0.1,1.4
		c0,0.2,0,0.5,0,0.8c0,0.5-0.1,0.9,0,1.3c0,0.5,0.2,0.7,0.6,0.9c0.3,0.2,0.7,0.2,1,0.2h1c0.9,0,1.8,0,2.7,0.2c0.1,0,0.2,0,0.3,0
		c1.1-0.1,2,0.1,2.9,0.8c0.4,0.3,0.7,0.8,0.8,1.2c0.2,0.8,0.1,1.5-0.5,2c-0.4,0.4-0.8,0.7-1.5,0.8
		C578.4,193.1,577.7,193.2,577.1,193z"/>
</g>
<g class="st3">
	<path class="st4" d="M317,232.4c-0.5-0.4-0.9-1-1.1-1.7c-0.3-1.2,0.5-2.4,1.4-2.7c0.6-0.2,1.2-0.2,1.8-0.1c0.5,0.1,1,0.3,1.7,0.2
		c1.2-0.1,2.2-0.6,3-1.8c0.5-0.8,0.8-1.5,1-2.4c0.1-0.3,0.3-0.8,0.2-1.2c0-0.1,0-0.2-0.1-0.3c-0.1-0.2-0.2-0.2-0.3,0l-0.8,0.6
		c-0.5,0.5-1.2,0.8-1.8,0.9c-0.6,0.1-1.2,0.1-1.8-0.1c-0.8-0.2-1.5-0.7-2.2-1.2c-1.1-0.9-2-2-2.5-3.5c-0.2-0.5-0.2-0.9-0.4-1.3
		c-0.1-0.5-0.2-0.9-0.2-1.4c0-0.2-0.1-0.4-0.1-0.6c-0.1-0.8-0.2-1.5-0.3-2.2c0-0.6,0-1.1,0-1.6c0-0.4,0.1-0.8,0.1-1.1
		c0-0.4-0.1-0.7,0-1.1c0.1,0,0-0.1,0-0.2c0-0.6,0.2-1.2,0.2-1.8c0.1-0.6,0.2-1.2,0.5-1.8c0.3-1,0.9-1.6,1.8-1.9c0.2,0,0.5,0,0.8,0
		c1,0.3,1.5,1.4,1.5,2.3c0,0.8-0.1,1.5-0.1,2.2l-0.2,1.5c-0.2,1.5-0.1,2.9,0,4.4c0,1.3,0.3,2.6,1,3.7c0.3,0.5,0.7,0.8,1.2,1.1
		c0.3,0.2,0.5,0.1,0.7-0.1c0.2-0.2,0.4-0.5,0.6-0.8c0.5-1,0.8-2,1-3c0.2-0.6,0.3-1.1,0.4-1.7c0.2-0.9,0.4-1.8,0.6-2.7
		c0-0.6,0.2-1.2,0.3-1.9c0-0.3,0.1-0.6,0.1-1c0-0.3,0.1-0.7,0.1-1l0.2-0.9c0.2-1,0.6-1.9,1.5-2.3c1-0.4,2.2-0.2,2.9,0.9
		c0.4,0.6,0.6,1.3,0.7,2c0.1,0.9,0.1,1.9,0.1,2.8c0,0.8,0.1,1.4,0.1,2.1v0.2c0,1-0.1,1.9-0.1,2.8c0,0.8-0.1,1.5-0.2,2.2
		c0,0.6-0.1,1.2-0.2,1.7c-0.2,0.9-0.2,1.8-0.5,2.7c-0.2,0.8-0.3,1.6-0.5,2.4c-0.2,0.7-0.3,1.2-0.6,1.9c-0.3,0.8-0.6,1.6-1,2.4
		c-0.3,0.6-0.6,1.2-1,1.6c-0.6,0.7-1.2,1.3-1.9,1.8c-0.5,0.3-1,0.6-1.5,0.8c-0.5,0.2-1.2,0.4-1.8,0.5c-0.7,0.2-1.4,0.1-2,0
		C318.4,233,317.7,232.8,317,232.4z"/>
	<path class="st4" d="M338.2,231.3c-0.7-0.3-1.4-0.7-2-1.2c-0.6-0.5-1.2-1.1-1.7-1.8c-0.4-0.5-0.8-1.1-1.1-1.8
		c-0.1-0.4-0.3-0.8-0.5-1.3c-0.3-1.2-0.5-2.4-0.7-3.6l-0.2-1.7c0-0.5,0-1.1,0-1.6c0-0.7,0-1.4,0.1-2.1c0-0.5,0-1.1,0.1-1.7
		c0.1-1,0.2-2.1,0.5-3.1l0.1-0.9c0.1-0.5,0.2-1.2,0.5-1.7c0.2-0.2,0.4-0.5,0.6-0.7c0.4-0.5,0.8-1.1,1.4-1.5c0.9-0.7,1.8-1.3,2.8-1.8
		c0.8-0.3,1.5-0.6,2.3-0.7c0.6-0.1,1.2,0,1.8,0c1.1,0.2,2.2,0.5,3.2,1c0.5,0.3,1,0.5,1.5,1c0.2,0.2,0.4,0.3,0.6,0.5
		c0.7,0.8,1.3,1.5,1.8,2.4c0.4,0.7,0.7,1.4,1,2.1c0.2,0.4,0.2,0.8,0.4,1.2c0.1,0.5,0.2,1.1,0.3,1.5c0,0.2,0,0.4,0.1,0.5
		c0.1,0.7,0.1,1.4,0.1,2.1c0,1.5-0.2,2.8-0.5,4.2c-0.3,1.5-0.8,2.9-1.4,4.2c-0.3,0.5-0.5,1.2-0.8,1.7c-0.3,0.6-0.7,1.2-1.2,1.7
		c-0.4,0.4-0.8,0.9-1.3,1.3c-0.8,0.7-1.6,1.2-2.5,1.6c-0.4,0.2-0.9,0.2-1.2,0.4c-0.2,0.1-0.5,0.1-0.7,0c0,0-0.2,0-0.2,0
		C340.2,231.9,339.2,231.7,338.2,231.3z M343,226c0.3-0.3,0.5-0.7,0.7-1c0.4-0.5,0.7-1,0.9-1.6c0.4-0.9,0.8-1.8,1-2.7
		c0.3-1.2,0.5-2.5,0.5-3.8c0-0.6,0-1.2-0.1-1.9c0-0.5-0.3-1-0.3-1.5v-0.1c-0.3-0.6-0.5-1.2-0.8-1.8c-0.6-0.9-1.2-1.5-2.1-2
		c-0.2-0.1-0.3-0.2-0.5-0.2c-0.9-0.2-1.7-0.1-2.4,0.3c-0.6,0.3-1,0.8-1.5,1.2c-0.3,0.3-0.5,0.7-0.6,1l-0.4,2.4
		c-0.2,1.3-0.2,2.7-0.3,4c0,0.5,0,1.1,0,1.7c0.1,0.7,0.2,1.4,0.2,2.1c0,0.2,0.1,0.4,0.2,0.5c0,0.7,0.2,1.3,0.5,1.9
		c0.3,0.9,0.7,1.8,1.4,2.5c0.6,0.5,1.3,0.7,2,0.5C342,227,342.6,226.6,343,226z"/>
	<path class="st4" d="M357.4,230.4c-0.8-0.5-1.5-1.1-2-1.8c-0.7-0.8-1.2-1.8-1.7-2.8c-0.2-0.6-0.4-1.3-0.6-1.9
		c-0.1,0-0.1-0.1-0.1-0.1c0-0.9-0.4-1.7-0.3-2.4c0-0.4-0.2-0.7-0.1-1c0-0.8-0.2-1.5-0.2-2.3c0-0.5-0.1-0.9,0-1.2c0-0.8,0-1.6,0-2.3
		c0-0.5,0-0.8,0-1.3c0-0.4,0-0.9,0-1.3c0-0.3,0-0.6,0-0.9v-1.2c0-0.8,0-1.7,0.3-2.5c0.2-0.6,0.6-1,1.1-1.3c0.5-0.3,1-0.4,1.6-0.3
		c0.8,0.2,1.4,0.6,1.8,1.2c0.3,0.5,0.4,1,0.3,1.6c0,0.2,0,0.5,0,0.8c0,0.6,0,1.2,0,1.8v2.1c-0.1,0.4,0,0.8-0.1,1.2
		c0,0.4,0.1,0.8,0,1.2v0.2c0.1,0.6,0.1,1.2,0.1,1.8c0,1.5,0.3,2.9,0.4,4.4c0.2,1.2,0.6,2.3,1.4,3.3c0.4,0.5,0.8,0.9,1.4,1.2
		c0.4,0.2,0.8,0.1,1.1-0.2c0.5-0.5,0.8-1,1-1.6c0.6-1.5,0.9-3,1.2-4.5c0.2-1,0.4-2.1,0.5-3.2c0-0.8,0.2-1.7,0.2-2.5
		c0-0.5,0-1.1,0.1-1.6c0-0.4,0-0.7,0-1c0.1-0.8,0-1.5,0.1-2.2v-1.3c-0.1-0.8,0-1.7,0.5-2.4c0.2-0.4,0.6-0.8,1-0.9
		c1.3-0.6,2.8,0.2,3.2,1.3c0.2,0.5,0.4,1.1,0.2,1.7c0,0.1,0,0.2,0,0.2c0,0.5,0,1,0,1.6c0,0.3,0,0.6,0,0.9c0,0.4,0,0.8,0,1.2
		c0,0.4,0,0.7,0,1.1c-0.1,0.2,0,0.5,0,0.8c-0.1,0.8-0.2,1.5-0.2,2.2c-0.1,1.2-0.3,2.3-0.4,3.5c0,0.5-0.2,1-0.2,1.4
		c-0.1,1-0.4,2-0.6,3c-0.4,1.2-0.9,2.5-1.5,3.5c-0.3,0.4-0.5,0.9-0.8,1.2c-0.4,0.5-0.9,1-1.4,1.4c-0.5,0.4-1,0.8-1.6,1
		c-0.3,0.1-0.6,0.2-1,0.3c-0.5,0-1.1,0.1-1.8,0C359.4,231.4,358.4,231,357.4,230.4z"/>
	<path class="st4" d="M373.3,231.9c-0.2-0.2-0.5-0.4-0.7-0.6c-0.4-0.5-0.8-1.1-0.8-2l-0.2-2c0-0.2,0-0.5,0-0.8c0-0.2-0.1-0.5,0-0.8
		c0,0,0-0.1,0-0.1c-0.1-0.5,0-1,0-1.4c0-0.7,0-1.5,0.1-2.2c0-0.3,0-0.8,0-1.1c0-0.4,0-0.8,0.1-1.2c0-0.4,0-0.8,0-1.1
		c0-0.5,0-0.8,0.1-1.2c0-0.3,0-0.5,0-0.8c0-0.7,0-1.2,0.1-1.9c0-0.6,0.1-1.2,0.1-1.9c0-0.4,0-0.8,0-1.2c0-0.5,0-0.8,0.1-1.2
		c0.1-0.6,0.2-1.2,0.4-1.7c0.2-0.4,0.4-0.8,0.7-1.2c0.5-0.7,1.2-1.1,2-1.3c0.8-0.2,1.5-0.2,2.1-0.2c1.4,0.1,2.6,0.5,3.8,1.2
		c1.1,0.7,2,1.5,2.5,2.8c0.2,0.5,0.5,1.1,0.5,1.7c0,0.2,0,0.3,0,0.5c0.1,1.5-0.2,2.9-0.9,4.2c-0.3,0.7-0.7,1.2-1.2,1.8
		c-0.5,0.8-1.3,1.5-2,2.1c-0.3,0.3-0.4,0.8-0.5,1.2c0.2,0.2,0.2,0.5,0.3,0.8c0.6,0.7,1.2,1.5,1.8,2.2c0.7,0.8,1.4,1.8,2,2.7
		c0.5,0.6,0.8,1.3,0.8,2.1c0,0.5-0.1,1.1-0.5,1.5c-0.2,0.2-0.4,0.5-0.8,0.7c-0.8,0.3-1.7,0.2-2.4-0.3c-0.6-0.5-1.1-1.1-1.6-1.7
		c-0.6-0.9-1.2-1.7-2-2.5l-0.5-0.8c-0.2-0.2-0.4-0.2-0.5-0.2c-0.2,0-0.2,0.2-0.2,0.4v0.1c0,0.7,0,1.4,0,2.1c0,0.4,0,0.7-0.1,1.1
		c-0.2,0.7-0.5,1.3-1,1.8c-0.3,0.3-0.6,0.5-1,0.5C374,232.2,373.6,232.2,373.3,231.9z M378.4,215.5c0.4-0.5,0.8-1,1-1.8
		c0.1-0.4,0.2-0.8,0.2-1.2c-0.2-0.8-1-1.3-1.8-1.2c-0.4,0-0.5,0-0.5,0.5c0,0.3-0.1,0.8-0.1,1.1c0,0.4,0,0.8,0,1.1
		c-0.1,0.5-0.1,1-0.1,1.4c0,0.2,0,0.3,0,0.4c0,0.4,0.2,0.5,0.6,0.3C378,216,378.2,215.7,378.4,215.5z"/>
	<path class="st4" d="M397.3,232.4c-0.4-0.4-0.6-0.9-0.6-1.2c-0.1-0.8-0.1-1.3-0.1-1.9c0-0.3,0-0.7,0-1c0-0.5,0-0.8,0-1.3
		c0-0.3,0-0.7,0-1c-0.1-0.6,0-1.2,0-1.8c-0.1-0.8,0-1.5,0-2.2v-1.7c-0.1-0.7-0.1-1.4,0-2c0-0.6,0-1.2,0-1.8c0-0.9,0.1-1.8,0.2-2.7
		l0.1-2.6c0.1-1.1,0.2-2.2,0.5-3.3c0.3-1,1-1.6,2-1.8c0.6-0.1,1.2,0.1,1.7,0.4c0.9,0.4,1.2,1.2,1.7,2l0.8,1.8c0.2,0.5,0.4,1,0.7,1.6
		c0.3,0.9,0.6,1.7,1,2.5c0.4,1,0.8,2.1,1.2,3.1c0.3,0.7,0.5,1.4,0.9,2c0,0,0.1,0.1,0.1,0.1c0.1,0.1,0.1,0.2,0.3,0.2
		c0.2,0,0.2-0.2,0.2-0.3V217c0-0.5,0-1,0-1.6c0-0.5,0-0.9,0-1.4c0-0.3,0-0.6,0-0.9v-2.5c0-0.5,0-1.6,0-2.1c0-0.5,0-1,0.1-1.5
		c0.1-0.7,0.2-1.3,0.6-1.9c0.4-0.7,1-1.1,1.8-1.2c0.5,0,0.9,0.2,1.2,0.5c0.5,0.5,0.9,1.1,1,1.8c0,0.2,0.2,0.4,0.2,0.7
		c0.1,0.5,0.1,1.1,0.1,1.7c0,0.3,0,0.5,0,0.8l0,0.7v3.5c0,0.7,0,1.5,0,2.2v0.8c0,1,0,2.2,0,3.2l-0.2,2.8c0,1,0,1.9-0.1,2.8
		c-0.1,1.2-0.2,2.5-0.4,3.6c-0.1,0.6-0.1,1.3-0.3,1.9c-0.3,0.7-0.8,1.2-1.5,1.4c-0.8,0.1-1.5-0.1-2-0.7c-0.2-0.2-0.5-0.5-0.7-0.8
		c-0.2-0.4-0.5-0.7-0.8-1.1c-0.7-0.8-1.2-1.8-1.7-2.8c-0.4-0.7-0.8-1.5-1.2-2.3c-0.4-0.9-0.8-1.9-1.3-2.8c-0.2-0.5-0.5-1-0.7-1.6
		c0-0.1-0.1-0.1-0.1-0.2c-0.1-0.1-0.2-0.2-0.3-0.2c-0.2,0-0.2,0.1-0.2,0.3c-0.1,0.2-0.1,0.4-0.1,0.6c0,0.5,0,1.1,0,1.7v4.1
		c0,0.5,0,1.1,0,1.7c0,0.5,0,0.9,0,1.5c0,0.3,0,0.8,0,1.1c0,0.6-0.2,1.2-0.5,1.7c-0.3,0.4-0.7,0.7-1.2,0.9
		C398.7,233.3,397.9,233.1,397.3,232.4z"/>
	<path class="st4" d="M419.4,230.4c-0.8-0.5-1.4-1.1-2-1.8c-0.7-0.8-1.2-1.8-1.6-2.8c-0.2-0.6-0.4-1.3-0.6-1.9c0,0,0-0.1,0-0.1
		c0-0.9-0.4-1.7-0.3-2.4c-0.1-0.4-0.2-0.7-0.1-1c0-0.8-0.1-1.5-0.1-2.3c-0.1-0.5-0.1-0.9-0.1-1.2c0.1-0.8,0-1.6,0-2.3
		c0.1-0.5,0-0.8,0-1.3c0-0.4,0-0.9,0.1-1.3c0-0.3,0-0.6,0-0.9v-1.2c0-0.8,0-1.7,0.3-2.5c0.2-0.6,0.6-1,1.1-1.3
		c0.5-0.3,1-0.4,1.6-0.3c0.8,0.2,1.3,0.6,1.8,1.2c0.3,0.5,0.5,1,0.3,1.6c0,0.2,0,0.5,0,0.8c0,0.6,0,1.2,0,1.8v2.1c0,0.4,0,0.8,0,1.2
		c0,0.4,0.1,0.8,0,1.2v0.2c0.1,0.6,0,1.2,0,1.8c0,1.5,0.3,2.9,0.5,4.4c0.1,1.2,0.6,2.3,1.3,3.3c0.4,0.5,0.8,0.9,1.4,1.2
		c0.5,0.2,0.8,0.1,1.2-0.2c0.5-0.5,0.8-1,1-1.6c0.6-1.5,0.9-3,1.2-4.5c0.2-1,0.4-2.1,0.5-3.2c0-0.8,0.2-1.7,0.2-2.5
		c0-0.5,0.1-1.1,0.1-1.6c0-0.4,0-0.7,0-1c0-0.8,0-1.5,0-2.2v-1.3c0-0.8,0-1.7,0.5-2.4c0.2-0.4,0.6-0.8,1-0.9
		c1.3-0.6,2.8,0.2,3.2,1.3c0.2,0.5,0.4,1.1,0.2,1.7c0,0.1,0.1,0.2,0.1,0.2c0,0.5,0,1-0.1,1.6c0,0.3,0.1,0.6,0.1,0.9
		c0,0.4-0.1,0.8-0.1,1.2c0,0.4,0.1,0.7,0,1.1c0,0.2,0,0.5,0,0.8c0,0.8-0.1,1.5-0.1,2.2c-0.1,1.2-0.3,2.3-0.4,3.5
		c0,0.5-0.2,1-0.2,1.4c-0.2,1-0.4,2-0.7,3c-0.4,1.2-0.8,2.5-1.5,3.5c-0.2,0.4-0.5,0.9-0.8,1.2c-0.4,0.5-0.9,1-1.4,1.4
		c-0.5,0.4-1,0.8-1.6,1c-0.3,0.1-0.7,0.2-1,0.3c-0.6,0-1.2,0.1-1.8,0C421.4,231.4,420.4,231,419.4,230.4z"/>
	<path class="st4" d="M449.1,230.8c-0.2-0.8-0.1-1.5-0.1-2.2c0.1-0.7,0.1-2,0.1-2.7c0-0.5,0-1,0-1.4c0-0.7,0-1.4,0.1-2
		c0-0.6,0.1-1.3,0-2c0-0.3,0.1-0.7,0.1-1c0-0.1,0-0.4-0.2-0.5c-0.2,0-0.2,0.2-0.2,0.4c-0.5,1.5-1,3-1.5,4.5
		c-0.3,0.8-0.5,1.8-0.9,2.5c-0.5,0.9-1.4,1.5-2.2,1.4c-0.8,0-1.5-0.4-2-1c-0.2-0.4-0.5-0.8-0.5-1.2c-0.2-0.5-0.3-1-0.4-1.5
		c-0.1-0.5-0.2-1-0.4-1.4c-0.1,0-0.1-0.2-0.1-0.2c-0.2-1-0.5-1.8-0.8-2.8c-0.2-0.7-0.5-1.2-0.7-1.9c-0.1-0.4-0.3-0.8-0.5-1.3
		c0,0-0.1-0.1-0.1-0.1c-0.2-0.3-0.4-0.3-0.6,0c0,0.1-0.1,0.2-0.1,0.4c0,0.5,0,1,0,1.4c0,0.6,0.1,1.3,0,2c0,0.3,0,0.7,0,1
		c0.1,0.7,0,1.3,0.1,2v3.5c0,0.8,0,1.6-0.1,2.3c0,0.6-0.1,1.1-0.3,1.7c-0.2,0.8-1.2,1.5-2.2,1.3c-0.4,0-0.7-0.2-0.9-0.3
		c-0.3-0.3-0.6-0.7-0.8-1.2c-0.1-0.5-0.3-0.8-0.2-1.3c0-0.1-0.1-0.1-0.1-0.2c-0.1-0.6,0-1.2-0.1-1.9c0-0.4,0-0.8,0-1.2
		c0-0.4,0-0.7,0-1.1c0-0.3,0-0.6,0-1c-0.1-0.6-0.1-1.3-0.1-2v-2.3c0.1-0.5,0.1-1.1,0-1.6c0-0.7,0-1.2,0.1-1.9c0-0.5,0-1,0-1.5
		c0-0.6,0-1.2,0-1.8c0-1.1,0.1-2.2,0.1-3.2c0-0.7,0.1-1.4,0.2-2c0-0.7,0.3-1.5,0.6-2.1c0.3-0.5,0.8-0.9,1.4-1c0.5-0.1,1-0.1,1.5,0.1
		c0.5,0.2,1,0.6,1.2,1.1c0.4,0.5,0.7,1,1,1.5c0.4,0.5,0.8,1.1,1.1,1.8c0.4,0.9,0.8,1.8,1.2,2.7c0.3,0.7,0.6,1.4,0.8,2.1
		c0.2,0.6,0.5,1.2,0.8,1.8c0.1,0.2,0.1,0.5,0.2,0.6c0.1,0.2,0.2,0.2,0.4,0.2c0.2-0.1,0.5-0.3,0.6-0.6c0.3-1,0.7-1.8,1-2.8
		c0.4-1.2,0.9-2.2,1.3-3.4c0.5-1.2,1-2.3,1.4-3.5c0.2-0.7,0.5-1.3,0.9-1.9c0.5-0.6,1.1-1,1.9-1c0.8,0,1.6,0.2,2.2,1
		c0.4,0.6,0.6,1,0.8,2.1c0.1,0.7,0.1,1.3,0.1,2c0,0.6,0,1.2,0,1.8c0,0.3,0,0.7,0,1c0,0.3,0,0.7,0,1c0,0.8,0,1.6,0,2.4v1.4
		c0,0.5,0,1,0,1.5v1.5c0,0.5,0,1,0,1.5c0,0.4,0,0.8,0,1.3c0,0.6-0.1,1.3-0.1,2c0,0.7,0,1.3,0,1.9c0,1-0.1,3.2-0.1,3.9
		c0,0.7-0.1,1.4-0.4,2c-0.3,0.7-0.9,1-1.6,1.2c-0.4,0.1-0.8,0.1-1.2,0C449.9,232.3,449.3,231.7,449.1,230.8z"/>
	<path class="st4" d="M458.2,232.2c-0.3-0.3-0.5-0.8-0.7-1.2c-0.1-0.2-0.2-0.5-0.5-0.7c-0.5-0.3-0.7-0.9-0.9-1.5
		c-0.1-0.3-0.1-0.6-0.1-0.9c-0.2-1.5,0-3.1,0-4.2c0-1.6-0.1-2.8,0-4c0.1-1.4,0-2.8,0.1-4.2c0.1-0.8,0-1.5,0.1-2.3c0-0.7,0-1.3,0.1-2
		c0-0.5,0-0.9,0.1-1.3c0-0.4,0-0.7,0-1.1c0-0.3,0.1-0.7,0.1-1c0.1-0.6,0.2-1.3,0.5-1.8c0.4-0.7,0.9-1.1,1.6-1.4
		c1.1-0.5,2.3-0.5,3.5-0.5c1,0.1,2,0.5,2.8,1c0.8,0.5,1.4,1.2,1.9,2c0.4,0.7,0.7,1.3,0.9,2c0,0.3,0.1,0.6,0.1,0.9
		c0,0.2,0.2,0.5,0.1,0.7c0,1-0.2,2-0.6,3c-0.5,1.2-1.1,2.2-1.9,3.2c-0.3,0.5-0.8,1-1.2,1.5c0,0-0.1,0.1-0.1,0.1
		c-0.4,0.4-0.4,0.8,0,1.2c0.7,0.8,1.3,1.7,1.8,2.7c0.3,0.7,0.5,1.3,0.7,2c0.1,0.7,0.2,1.4,0.2,2.1c-0.1,1-0.2,2.1-0.7,3
		c-0.2,0.5-0.6,1-0.9,1.3c-0.5,0.6-1,0.9-1.5,1.3c-0.5,0.3-1,0.5-1.5,0.6c-0.7,0.2-1.3,0.2-2,0.2
		C459.4,232.9,458.8,232.7,458.2,232.2z M461.7,227.9l0.2-0.3c0.4-0.6,0.3-1.3,0.2-2c-0.1-0.4-0.2-0.8-0.4-1.2
		c-0.1-0.4-0.3-0.8-0.6-1c-0.1-0.1-0.2-0.1-0.3,0c-0.1,0-0.1,0.2-0.1,0.2c-0.1,0.1-0.1,0.3-0.1,0.4v1.3c-0.1,0.8,0.2,1.6,0.1,2.5
		v0.1c0,0.2,0.1,0.2,0.2,0.2C461.2,228.1,461.5,228.2,461.7,227.9z M461.6,214.4c0.5-0.6,0.9-1.2,1.3-2c0.3-0.5,0.5-1,0.4-1.6
		c0-0.7-0.2-1.2-0.8-1.6c-0.1-0.1-0.4-0.3-0.6-0.2c-0.3,0-0.7,0.2-0.8,0.6c-0.2,0.3-0.1,0.8-0.2,1.1c-0.1,0.5,0,1.1-0.1,1.6
		c0,0.3,0,0.6,0,0.9c0,0.4,0,0.7,0,1.1c0,0.3,0.1,0.3,0.3,0.3C461.4,214.5,461.5,214.4,461.6,214.4z"/>
	<path class="st4" d="M472.5,231.5c-1.2-0.4-2.1-1.2-2.5-2.4c-0.2-0.7-0.4-1.3-0.5-2c-0.2-1,0-2-0.1-2.8c0-1.1,0-1.9,0.1-2.7
		c0-0.8,0-1.7,0.1-2.5c0-0.6,0-1.2,0.1-1.8c0.1-0.6,0-1.2,0.1-1.9c0.1-1.2,0.1-2.3,0-3.5c0-0.7,0-1.3-0.1-2v-0.2
		c-0.1-0.2-0.1-0.4,0-0.7c0-0.1,0-0.3,0-0.4c-0.2-0.5,0-0.9,0.1-1.4c0.3-0.7,1-1.1,1.7-1.4c0.5-0.2,1-0.2,1.6-0.3
		c0.5-0.1,1,0,1.5-0.2c0,0,0,0,0.1,0c1.4,0,2.7-0.2,4.1-0.1c1,0.1,1.8,0.5,2.4,1.3c0.5,0.7,0.5,1.5,0,2.2c-0.4,0.7-1.1,1-1.8,1.2
		c-0.3,0.1-0.6,0.1-1,0.1c-0.9,0-1.8,0.2-2.8,0.2c-0.6,0-1,0.4-1,1c0,1.2,0,2.3,0,3.5c0,0.3,0,0.5-0.1,0.9c-0.1,0.3,0.1,0.7,0.2,1
		c0.1,0.2,0.2,0.3,0.5,0.3c0.5,0,1,0,1.5,0c0.8,0,1.5,0.2,2.2,0.5c0.8,0.3,1.2,1,1.3,1.9c0.1,1-0.6,1.8-1.6,2.2
		c-0.6,0.2-1.2,0.4-1.9,0.4c-0.4,0-0.8,0-1.2,0h-0.3c-0.7,0.2-0.9,0.4-0.9,1.1v2.6c0,0.4,0.1,0.8,0.2,1.1c0,0.6,0.4,1,1.1,1
		c0.5,0,1.1,0,1.7,0c0.7,0,1.4,0.1,2,0.5c0.5,0.4,0.9,0.8,1,1.4c0,0.5-0.1,0.9-0.5,1.3c-0.5,0.5-1,0.8-1.8,0.9c-0.5,0-1,0.1-1.4,0.1
		c-0.5,0-1.1,0.2-1.6,0C474.1,231.8,473.3,231.7,472.5,231.5z"/>
	<path class="st4" d="M484.9,231.9c-0.2-0.2-0.5-0.4-0.7-0.6c-0.4-0.5-0.8-1.1-0.9-2l-0.1-2c-0.1-0.2,0-0.5,0-0.8
		c0-0.2-0.2-0.5,0-0.8c0,0,0-0.1,0-0.1c-0.1-0.5,0-1,0-1.4c0-0.7,0-1.5,0-2.2c0-0.3,0-0.8,0-1.1c0.1-0.4,0.1-0.8,0.1-1.2
		c0-0.4,0-0.8,0-1.1c0-0.5,0-0.8,0-1.2c0-0.3,0-0.5,0-0.8c0-0.7,0.1-1.2,0.1-1.9c0-0.6,0.1-1.2,0.1-1.9c0-0.4,0-0.8,0-1.2
		c0-0.5,0.1-0.8,0.1-1.2c0.1-0.6,0.1-1.2,0.4-1.7c0.2-0.4,0.4-0.8,0.7-1.2c0.5-0.7,1.2-1.1,2-1.3c0.8-0.2,1.5-0.2,2.2-0.2
		c1.4,0.1,2.6,0.5,3.8,1.2c1.1,0.7,2,1.5,2.6,2.8c0.2,0.5,0.5,1.1,0.5,1.7c0,0.2,0,0.3,0,0.5c0.1,1.5-0.2,2.9-0.9,4.2
		c-0.3,0.7-0.7,1.2-1.2,1.8c-0.5,0.8-1.3,1.5-2,2.1c-0.4,0.3-0.4,0.8-0.5,1.2c0.1,0.2,0.1,0.5,0.3,0.8c0.6,0.7,1.2,1.5,1.8,2.2
		c0.7,0.8,1.4,1.8,2.1,2.7c0.5,0.6,0.8,1.3,0.8,2.1c0,0.5-0.1,1.1-0.5,1.5c-0.2,0.2-0.5,0.5-0.8,0.7c-0.9,0.3-1.7,0.2-2.4-0.3
		c-0.6-0.5-1.1-1.1-1.6-1.7c-0.6-0.9-1.2-1.7-2-2.5l-0.5-0.8c-0.2-0.2-0.4-0.2-0.5-0.2c-0.1,0-0.1,0.2-0.2,0.4v0.1
		c0,0.7-0.1,1.4,0,2.1c0,0.4,0,0.7-0.1,1.1c-0.2,0.7-0.4,1.3-0.9,1.8c-0.3,0.3-0.6,0.5-1,0.5C485.6,232.2,485.2,232.2,484.9,231.9z
		 M490,215.5c0.5-0.5,0.9-1,1.1-1.8c0.1-0.4,0.2-0.8,0.1-1.2c-0.1-0.8-1-1.3-1.8-1.2c-0.4,0-0.5,0-0.5,0.5c0,0.3-0.1,0.8-0.1,1.1
		c0.1,0.4,0,0.8,0,1.1c0,0.5,0,1-0.1,1.4c0,0.2,0,0.3,0,0.4c0,0.4,0.2,0.5,0.6,0.3C489.6,216,489.8,215.7,490,215.5z"/>
	<path class="st4" d="M499,232.3c-0.5-0.8-0.4-1.5,0-2.2c0.2-0.4,0.6-0.7,1-1l1.5-0.6c0.8-0.4,1.8-0.8,2.5-1.4c0.6-0.5,1-1.2,1.1-2
		c0-0.3,0.1-0.6,0.1-0.9c-0.1-0.8-0.4-1.7-0.9-2.5c-0.4-0.6-0.8-1.2-1.3-1.7c-0.8-0.8-1.7-1.5-2.4-2.4c-0.7-0.8-1.4-1.6-1.8-2.5
		c-0.2-0.5-0.3-1-0.4-1.5c-0.2-0.8-0.2-1.5-0.1-2.2c0-0.4,0.2-0.9,0.4-1.3c0.2-0.5,0.4-1.2,0.7-1.7c0.6-1.1,1.4-2.1,2.4-2.8
		c0.6-0.5,1.2-0.8,1.8-1.1c0.5-0.2,1-0.3,1.5-0.5c0.5-0.1,1-0.1,1.5-0.1c0.7,0.1,1.3,0.5,1.7,1.1c0.2,0.4,0.4,0.8,0.3,1.2
		c-0.1,0.8-0.4,1.5-1.1,1.8c-0.4,0.2-0.9,0.3-1.3,0.4c-0.6,0.2-1.1,0.4-1.6,0.7c-0.9,0.6-1.4,1.5-1.7,2.4c-0.3,0.9-0.1,1.7,0.5,2.4
		c1,1.1,2.1,2.1,3.1,3.2c1,1.1,1.9,2.2,2.5,3.6c0.3,0.8,0.5,1.5,0.7,2.4c0.1,0.4,0,0.8,0.1,1.2c0,1.1-0.2,2-0.5,3
		c-0.2,0.7-0.6,1.3-1,2c-0.7,0.9-1.2,1.4-2.4,2.1c-0.9,0.6-1.9,1-2.8,1.5c-0.3,0.1-0.6,0.2-0.9,0.3c-0.5,0.2-1.1,0.2-1.6,0.2
		C499.8,233.2,499.3,232.8,499,232.3z"/>
	<path class="st4" d="M523.1,232.9c-0.8-0.4-1.3-1.1-1.5-2c-0.1-0.2-0.1-0.6-0.1-0.9c0-0.4,0-0.8-0.1-1.2c-0.1,0-0.1,0-0.1-0.1v-0.1
		c0-0.8,0.1-1.7-0.1-2.5c0.2-1.5,0-3.2,0.2-4.7c0-1,0-1.9,0.1-2.9c0.1-1.1,0-2.3,0.1-3.5c0.1-0.8,0-1.5,0.1-2.2
		c0.1-0.8,0-1.7,0.1-2.5c0.1-0.8,0-1.5,0.1-2.4c0-0.5,0.1-1.1,0.3-1.7c0.2-0.3,0.5-0.6,0.8-0.9c0.3-0.2,0.7-0.5,1-0.7
		c0.4-0.2,0.8-0.3,1.2-0.4c0.2,0,0.5,0.1,0.6,0c0,0,0.1,0,0.1,0c1,0.2,1.9,0,2.9,0c0,0,0.1,0.1,0.2,0c0.4-0.1,0.8-0.1,1.2,0
		c0.7,0,1.4,0,2,0.5c0.5,0.3,1,0.8,1.2,1.5c0.1,0.5,0,1-0.2,1.5c-0.2,0.5-0.7,1-1.2,1.2c-0.5,0.2-1.1,0.3-1.7,0.3h-1.8
		c-1,0-1.4,0.5-1.6,1.2c-0.2,0.5-0.3,1.1-0.3,1.8v1c0,0.2,0,0.3,0,0.5c-0.1,0.7,0,1.2,0.4,1.7c0.2,0.2,0.4,0.3,0.8,0.3
		c1,0,1.9,0.2,2.9,0.2c0.7,0,1.3,0.2,1.8,0.7c0.5,0.5,0.8,1.2,0.8,2c-0.1,0.4-0.2,0.8-0.5,1.1c-0.6,0.7-1.3,1-2.1,1c-1,0-2,0-3.1,0
		c-0.4,0-0.7,0.2-0.8,0.5c-0.2,0.4-0.3,0.7-0.3,1.1c0,1.3-0.2,2.6-0.1,4v2.3c0,0.7,0,1.2-0.1,1.9c-0.1,0.6-0.3,1.2-0.6,1.8
		c-0.2,0.4-0.6,0.8-1.1,0.9C523.9,233,523.5,233.1,523.1,232.9z"/>
	<path class="st4" d="M541,231.3c-0.7-0.3-1.4-0.7-2-1.2c-0.6-0.5-1.2-1.1-1.7-1.8c-0.4-0.5-0.8-1.1-1.1-1.8
		c-0.2-0.4-0.3-0.8-0.5-1.3c-0.4-1.2-0.6-2.4-0.7-3.6l-0.2-1.7c0-0.5,0-1.1,0-1.6c0-0.7,0-1.4,0.1-2.1c0-0.5,0.1-1.1,0.1-1.7
		c0.1-1,0.2-2.1,0.5-3.1l0.1-0.9c0.1-0.5,0.3-1.2,0.5-1.7c0.1-0.2,0.3-0.5,0.5-0.7c0.5-0.5,0.8-1.1,1.4-1.5c0.9-0.7,1.8-1.3,2.8-1.8
		c0.8-0.3,1.5-0.6,2.2-0.7c0.6-0.1,1.2,0,1.8,0c1.1,0.2,2.2,0.5,3.2,1c0.5,0.3,1,0.5,1.5,1c0.2,0.2,0.5,0.3,0.6,0.5
		c0.7,0.8,1.3,1.5,1.8,2.4c0.4,0.7,0.7,1.4,1,2.1c0.1,0.4,0.2,0.8,0.3,1.2c0.2,0.5,0.2,1.1,0.3,1.5c0,0.2,0,0.4,0.1,0.5
		c0.1,0.7,0.1,1.4,0.1,2.1c0,1.5-0.2,2.8-0.5,4.2c-0.3,1.5-0.8,2.9-1.3,4.2c-0.3,0.5-0.5,1.2-0.9,1.7c-0.3,0.6-0.6,1.2-1.1,1.7
		c-0.5,0.4-0.9,0.9-1.3,1.3c-0.8,0.7-1.6,1.2-2.5,1.6c-0.4,0.2-0.8,0.2-1.2,0.4c-0.2,0.1-0.5,0.1-0.7,0c0,0-0.1,0-0.2,0
		C543,231.9,542,231.7,541,231.3z M545.9,226c0.2-0.3,0.5-0.7,0.6-1c0.4-0.5,0.7-1,0.9-1.6c0.4-0.9,0.8-1.8,1-2.7
		c0.3-1.2,0.5-2.5,0.5-3.8c0-0.6,0-1.2-0.1-1.9c0-0.5-0.3-1-0.4-1.5v-0.1c-0.3-0.6-0.5-1.2-0.8-1.8c-0.5-0.9-1.2-1.5-2.1-2
		c-0.1-0.1-0.3-0.2-0.5-0.2c-0.8-0.2-1.7-0.1-2.4,0.3c-0.6,0.3-1,0.8-1.5,1.2c-0.3,0.3-0.5,0.7-0.6,1l-0.4,2.4
		c-0.2,1.3-0.2,2.7-0.3,4c0,0.5,0,1.1,0,1.7c0.1,0.7,0.2,1.4,0.2,2.1c0,0.2,0.2,0.4,0.2,0.5c0,0.7,0.2,1.3,0.5,1.9
		c0.3,0.9,0.7,1.8,1.5,2.5c0.5,0.5,1.3,0.7,2,0.5C544.8,227,545.4,226.6,545.9,226z"/>
	<path class="st4" d="M557.1,231.9c-0.2-0.2-0.5-0.4-0.7-0.6c-0.4-0.5-0.8-1.1-0.8-2l-0.2-2c0-0.2,0-0.5,0-0.8c0-0.2-0.1-0.5,0-0.8
		c0.1,0,0-0.1,0-0.1c-0.1-0.5,0-1,0.1-1.4c0-0.7,0-1.5,0-2.2c0-0.3,0-0.8,0-1.1c0-0.4,0-0.8,0.1-1.2c0-0.4,0.1-0.8,0.1-1.1
		c0-0.5,0-0.8,0-1.2c0-0.3,0-0.5,0-0.8c0-0.7,0-1.2,0.1-1.9c0.1-0.6,0.1-1.2,0.1-1.9c0-0.4,0-0.8,0-1.2c0-0.5,0-0.8,0.1-1.2
		c0.1-0.6,0.1-1.2,0.4-1.7c0.2-0.4,0.4-0.8,0.7-1.2c0.5-0.7,1.2-1.1,2-1.3c0.8-0.2,1.5-0.2,2.2-0.2c1.3,0.1,2.6,0.5,3.8,1.2
		c1.1,0.7,2,1.5,2.5,2.8c0.2,0.5,0.5,1.1,0.5,1.7c0,0.2,0,0.3,0.1,0.5c0.1,1.5-0.2,2.9-0.9,4.2c-0.3,0.7-0.7,1.2-1.2,1.8
		c-0.5,0.8-1.3,1.5-2,2.1c-0.3,0.3-0.4,0.8-0.5,1.2c0.2,0.2,0.2,0.5,0.4,0.8c0.6,0.7,1.2,1.5,1.8,2.2c0.7,0.8,1.4,1.8,2,2.7
		c0.5,0.6,0.9,1.3,0.9,2.1c0,0.5-0.1,1.1-0.5,1.5c-0.2,0.2-0.5,0.5-0.8,0.7c-0.8,0.3-1.6,0.2-2.4-0.3c-0.7-0.5-1.1-1.1-1.6-1.7
		c-0.6-0.9-1.2-1.7-2-2.5l-0.5-0.8c-0.2-0.2-0.3-0.2-0.5-0.2s-0.2,0.2-0.2,0.4v0.1c0,0.7,0,1.4,0,2.1c0.1,0.4,0,0.7-0.1,1.1
		c-0.2,0.7-0.5,1.3-1,1.8c-0.3,0.3-0.6,0.5-1,0.5C557.8,232.2,557.4,232.2,557.1,231.9z M562.2,215.5c0.5-0.5,0.8-1,1-1.8
		c0.1-0.4,0.2-0.8,0.2-1.2c-0.2-0.8-1-1.3-1.8-1.2c-0.4,0-0.4,0-0.5,0.5c0,0.3-0.1,0.8-0.1,1.1c0,0.4,0,0.8,0,1.1c0,0.5,0,1-0.1,1.4
		c0,0.2,0,0.3,0.1,0.4c0,0.4,0.2,0.5,0.6,0.3C561.8,216,562,215.7,562.2,215.5z"/>
</g>
<g class="st3">
	<path class="st4" d="M334,272c-0.7-0.5-1-1.2-1-2.1c-0.2-1.4,0-2.8-0.1-4.2c0-0.3-0.1-0.6-0.2-0.9c-0.1-0.2-0.2-0.2-0.5-0.2
		c-0.6,0-1.2,0-1.8-0.1c-0.5-0.1-1-0.1-1.5-0.1c-0.2,0-0.3,0-0.5,0.2c-0.1,0.2-0.3,0.3-0.4,0.5c-0.2,0.1-0.2,0.3-0.2,0.5l-0.3,2.2
		c-0.1,0.5-0.2,1-0.2,1.5c-0.2,0.7-0.6,1.1-1.1,1.5c-0.2,0.2-0.4,0.2-0.6,0.4c-0.6,0.3-1.2,0.1-1.7-0.3c-0.5-0.4-0.9-1-1-1.6
		c-0.1-0.3-0.2-0.7,0-1v-0.1c-0.1-0.5,0-1,0.1-1.5c0.1-0.8,0.2-1.6,0.4-2.4l0.4-2.3c0.2-0.9,0.4-1.7,0.6-2.6c0.5-1.8,1-3.5,1.6-5.1
		c0.4-1.1,0.8-2.1,1.2-3.1l1.3-3.2c0.4-1,0.8-1.8,1.4-2.6c0.3-0.5,0.8-0.6,1.3-0.7c0.9-0.1,1.6,0.2,2.2,0.8c0.5,0.5,0.8,1,1.1,1.5
		c0.4,0.7,0.8,1.4,1.1,2.2c0.4,0.9,0.7,1.7,0.9,2.6c0.1,0.5,0.3,1.1,0.3,1.6c0,0.5,0.2,1.1,0.2,1.6c0,0.2,0.1,0.4,0.1,0.7
		c0,0.2-0.1,0.4,0.1,0.6c0,0,0,0,0,0.1c-0.1,0.5,0.1,1.1,0.1,1.7c0,0.9,0,1.9,0.1,2.8c0.1,1.1,0,2.3,0,3.5c0,0.5,0.1,1,0.1,1.5v1.5
		c0,0.6,0,1.2,0,1.9c0,0.5-0.1,1.1-0.3,1.7c-0.2,0.7-0.8,1.2-1.5,1.5C335.1,272.6,334.5,272.5,334,272z M332.6,259.2
		c0.1-0.2,0.1-0.4,0.1-0.7c0-0.3-0.1-0.6-0.1-1c0-0.5-0.2-1-0.1-1.6v0c-0.2-0.6-0.2-1.2-0.3-1.8c0-0.3-0.1-0.5-0.2-0.8
		c0-0.1-0.1-0.2-0.2-0.2c-0.2,0-0.3,0-0.4,0.2c0,0.1-0.1,0.1-0.1,0.2c-0.3,0.8-0.5,1.5-0.9,2.2c-0.3,1-0.6,1.9-0.9,2.7
		c-0.1,0.3-0.2,0.6-0.2,0.9s0.2,0.5,0.5,0.6c0.2,0.1,0.3,0.1,0.5,0.1s0.5,0,0.6,0c0.2,0.1,0.4,0,0.7,0
		C332.1,259.9,332.5,259.6,332.6,259.2z"/>
	<path class="st4" d="M350.4,272.6c-0.7-0.5-1.1-1.2-1.2-2.1c-0.2-0.8,0-1.7-0.1-2.5c0-0.3,0.1-0.6-0.1-0.9c0-0.1,0-0.3,0-0.5
		c0.2-0.4,0.1-0.8,0.1-1.2c0-2.5,0-5,0.1-7.5c0-1.5-0.1-2.9,0.1-4.4c0.1-1.2,0-2.3,0.1-3.5c0.1-1.1,0.1-2.2,0.1-3.2
		c0-0.9,0.4-1.7,1.1-2.2c0.4-0.2,0.8-0.5,1.2-0.4h0.3c0.9-0.1,1.5,0.4,2,1c0.3,0.4,0.5,0.9,0.5,1.5c0,1.5,0,2.9-0.1,4.4
		c-0.1,1.2,0,2.5,0,3.7c0,0.2,0,0.5,0.2,0.6c0.2,0.2,0.5,0.3,0.8,0.3c0.9,0,1.8-0.1,2.8-0.1c0.4,0,0.9-0.1,1.2-0.5
		c0.5-0.3,0.8-0.8,0.8-1.3c0-0.5,0-0.8,0-1.3c-0.2-1.2,0-2.3,0-3.5c0-1.1,0.5-1.9,1.5-2.4c1.3-0.6,2.8,0,3.2,1.1
		c0.2,0.5,0.4,1.1,0.4,1.7c0,1.2,0.2,2.4,0.1,3.6c0.1,0.5,0,1.2,0.1,1.7c0.1,0.6,0,1.3,0.1,1.9c0.1,0.6,0,1.2,0.1,1.9
		c0.1,0.5,0,1,0.1,1.6c0.1,0.6,0,1.2,0.1,1.9c0,0.5,0,0.9,0,1.4c0,0.3,0.2,0.6,0.2,1c0,0.3,0,3,0.2,3.4c0,0.7,0.1,1.5-0.2,2.2
		c-0.2,0.8-0.8,1.5-1.6,1.8c-0.2,0.1-0.5,0-0.7,0.2c-0.6-0.2-1.2-0.3-1.7-0.8c-0.7-0.7-1-1.5-1-2.4c0-0.3-0.1-0.7-0.1-1
		s-0.1-3.1-0.2-3.4c0-0.1,0-0.3,0-0.5c0-0.8-0.2-1.5-0.5-2.2c-0.1-0.2-0.2-0.3-0.3-0.5c-0.1-0.2-0.3-0.4-0.6-0.2c0,0-0.2,0-0.2,0
		c-1.1,0-2.2,0.2-3.3,0.2c-1.2,0-1.6,0.9-1.6,1.6v3.8c0,1.1,0,2.2,0,3.3c0,0.7-0.1,1.3-0.4,1.9c-0.3,0.7-0.8,1.2-1.6,1.5
		C351.7,273.1,351,273.1,350.4,272.6z"/>
	<path class="st4" d="M370.8,271.5c-1.2-0.4-2-1.2-2.5-2.4c-0.2-0.7-0.3-1.3-0.5-2c-0.1-1,0-2-0.1-2.8c0-1.1,0-1.9,0-2.7
		c0-0.8,0-1.7,0.1-2.5c0.1-0.6,0-1.2,0.1-1.8c0-0.6,0-1.2,0.1-1.9c0.2-1.2,0.1-2.3,0-3.5c0-0.7,0-1.3-0.1-2v-0.2
		c-0.1-0.2-0.1-0.4,0-0.7c0-0.1,0-0.3,0-0.4c-0.2-0.5,0-0.9,0.2-1.4c0.3-0.7,0.9-1.1,1.7-1.4c0.5-0.2,1-0.2,1.6-0.3
		c0.5-0.1,1,0,1.5-0.2c0.1,0,0.1,0,0.1,0c1.3,0,2.7-0.2,4-0.1c1,0.1,1.8,0.5,2.4,1.3c0.5,0.7,0.5,1.5,0,2.2c-0.4,0.7-1.1,1-1.9,1.2
		c-0.3,0.1-0.6,0.1-1,0.1c-0.9,0-1.8,0.2-2.8,0.2c-0.6,0-1,0.4-1,1c0,1.2,0,2.3,0,3.5c0,0.3,0,0.5,0,0.9c-0.1,0.3,0,0.7,0.2,1
		c0.1,0.2,0.2,0.3,0.5,0.3c0.5,0,1,0,1.5,0c0.8,0,1.5,0.2,2.2,0.5c0.8,0.3,1.2,1,1.3,1.9c0.1,1-0.7,1.8-1.7,2.2
		c-0.6,0.2-1.2,0.4-1.8,0.4c-0.4,0-0.9,0-1.2,0h-0.4c-0.7,0.2-0.8,0.4-0.9,1.1v2.6c0,0.4,0.1,0.8,0.2,1.1c0,0.6,0.5,1,1.1,1
		c0.5,0,1.1,0,1.6,0c0.7,0,1.4,0.1,2.1,0.5c0.5,0.4,0.8,0.8,0.9,1.4c0.1,0.5-0.1,0.9-0.4,1.3c-0.5,0.5-1.1,0.8-1.8,0.9
		c-0.5,0-1,0.1-1.4,0.1c-0.5,0-1.1,0.2-1.7,0C372.5,271.8,371.6,271.7,370.8,271.5z"/>
	<path class="st4" d="M392.7,272c-0.7-0.5-1-1.2-1-2.1c-0.1-1.4,0-2.8-0.1-4.2c0-0.3-0.1-0.6-0.2-0.9c-0.2-0.2-0.2-0.2-0.5-0.2
		c-0.6,0-1.2,0-1.8-0.1c-0.5-0.1-1-0.1-1.5-0.1c-0.2,0-0.4,0-0.5,0.2c-0.2,0.2-0.3,0.3-0.4,0.5c-0.1,0.1-0.2,0.3-0.2,0.5l-0.3,2.2
		c-0.1,0.5-0.2,1-0.2,1.5c-0.2,0.7-0.6,1.1-1,1.5c-0.2,0.2-0.4,0.2-0.7,0.4c-0.6,0.3-1.2,0.1-1.7-0.3c-0.5-0.4-0.8-1-1-1.6
		c-0.1-0.3-0.2-0.7,0-1v-0.1c0-0.5,0-1,0.1-1.5c0.1-0.8,0.2-1.6,0.3-2.4l0.5-2.3c0.1-0.9,0.4-1.7,0.6-2.6c0.5-1.8,1-3.5,1.6-5.1
		c0.3-1.1,0.8-2.1,1.1-3.1l1.3-3.2c0.3-1,0.8-1.8,1.4-2.6c0.3-0.5,0.8-0.6,1.3-0.7c0.8-0.1,1.6,0.2,2.2,0.8c0.4,0.5,0.8,1,1.1,1.5
		c0.5,0.7,0.8,1.4,1.1,2.2c0.3,0.9,0.6,1.7,0.8,2.6c0.1,0.5,0.3,1.1,0.3,1.6c0.1,0.5,0.2,1.1,0.2,1.6c0,0.2,0.2,0.4,0.2,0.7
		c0,0.2-0.1,0.4,0,0.6c0,0,0,0,0,0.1c0,0.5,0.1,1.1,0.2,1.7c0,0.9,0,1.9,0.1,2.8c0.1,1.1,0,2.3,0,3.5c0,0.5,0.2,1,0.1,1.5v1.5
		c0,0.6,0,1.2,0,1.9c0,0.5-0.1,1.1-0.3,1.7c-0.2,0.7-0.8,1.2-1.5,1.5C393.8,272.6,393.2,272.5,392.7,272z M391.3,259.2
		c0-0.2,0-0.4,0-0.7c0-0.3-0.1-0.6-0.1-1c0-0.5-0.2-1-0.1-1.6v0c-0.1-0.6-0.2-1.2-0.3-1.8c0-0.3-0.1-0.5-0.2-0.8
		c0-0.1,0-0.2-0.2-0.2c-0.2,0-0.3,0-0.4,0.2c0,0.1-0.1,0.1-0.1,0.2c-0.3,0.8-0.5,1.5-0.8,2.2c-0.3,1-0.7,1.9-0.9,2.7
		c-0.1,0.3-0.1,0.6-0.1,0.9s0.1,0.5,0.4,0.6c0.2,0.1,0.4,0.1,0.6,0.1c0.2,0,0.4,0,0.6,0c0.2,0.1,0.5,0,0.7,0
		C390.9,259.9,391.2,259.6,391.3,259.2z"/>
	<path class="st4" d="M408.7,273c-0.7-0.2-1.4-0.2-2.1-0.3c-0.6-0.2-1.3-0.2-2-0.2c-0.5-0.1-1-0.1-1.5-0.1c-0.6,0-1.3-0.2-1.9-0.5
		c-0.4-0.1-0.8-0.2-1.2-0.5c-0.5-0.3-1-0.8-1.2-1.5c-0.2-0.6-0.2-1.6-0.2-2.3c0-0.2,0-0.5,0-0.8c0-0.4,0-0.9,0-1.2
		c0-0.5,0-1,0.1-1.6c0-0.3,0-0.7,0-1.1c0-0.5,0-0.9,0-1.4c0,0,0-0.1,0-0.1c0-0.5,0-1,0-1.5v-1.4c0.1-0.5,0.1-0.9,0.1-1.4
		s-0.1-1,0-1.5v-0.2c0-0.5,0-1.1,0-1.6c0-0.4,0-0.7,0-1.1c0-0.5,0-1,0-1.5c0-0.3,0-0.8,0-1.1c0.1-0.3,0-0.6,0.1-1v-1.3
		c0-0.8,0.1-1.5,0.3-2.3c0.2-0.6,0.8-1.1,1.4-1.3c0.8-0.2,1.5,0,2,0.6c0.3,0.4,0.4,0.8,0.5,1.2c0.2,0.5,0.2,0.9,0.2,1.5
		c0.1,0.5,0,1.2,0,1.8c0,0.7,0,1.3-0.1,2c0,0.4,0,0.8,0,1.2c0,0.3-0.1,0.8-0.1,1.2v0.9c0,0.4,0,0.8,0,1.2c0,0.6,0,1.2,0,1.7v0.1
		c0.1,0.6,0,1.1,0,1.7c0,0.2-0.1,0.4,0,0.7c0,0.2,0.1,0.5,0,0.7v0.2c0,0.6-0.1,1.1-0.1,1.7v1.3c0,0.5,0,0.9-0.1,1.4
		c0,0.2,0,0.5,0,0.8c0,0.5-0.1,0.9,0,1.3c0,0.5,0.2,0.7,0.6,0.9c0.4,0.2,0.7,0.2,1,0.2h1c0.9,0,1.8,0,2.7,0.2c0.1,0,0.2,0,0.4,0
		c1-0.1,2,0.1,2.9,0.8c0.4,0.3,0.7,0.8,0.8,1.2c0.1,0.8,0,1.5-0.6,2c-0.4,0.4-0.8,0.7-1.5,0.8C410,273.1,409.3,273.2,408.7,273z"/>
	<path class="st4" d="M416.4,271.9c-0.4-0.4-0.6-0.9-0.6-1.4c-0.1-0.3-0.1-0.6-0.1-1c0-0.8,0-1.5,0-2.3c0.1-1,0-2,0.1-3
		c0.1-1,0-2,0.1-2.9c0.1-0.7,0-1.5,0.1-2.2c0.1-0.6,0-1.2,0.1-1.7c0.1-0.5,0-1,0.1-1.6c0.1-0.7,0-1.4,0.1-2.1c0.2-1.1,0-2.1,0-3.2
		c0-0.5-0.1-1-0.3-1.5c-0.2-0.3-0.4-0.5-0.8-0.5h-2.8c-1,0-1.6-0.3-2.1-1c-0.2-0.2-0.2-0.5-0.2-0.8c0-0.2,0-0.5,0-0.7
		c0.2-0.8,1.1-1.5,1.9-1.5c0.3,0,0.6,0,0.9,0h3.7c1.2,0,2.5,0,3.8,0c1.5,0,2.9,0,4.3,0c0.6,0,1.2,0.1,1.8,0.5c0.5,0.2,1,0.7,1,1.3
		c0,0.3,0,0.8-0.2,1.1c-0.2,0.2-0.5,0.5-0.8,0.6c0,0-0.1,0.1-0.2,0.1c-0.3,0.2-0.8,0.4-1.2,0.4c-0.8,0.1-1.6,0-2.4,0
		c-0.3,0-0.6,0.2-0.9,0.1c-0.1,0-0.2,0.1-0.2,0.2c-0.3,0.3-0.6,0.7-0.7,1.2c0,0.3,0,0.6,0,1c0,0.8,0,1.6,0,2.4
		c0,0.9-0.2,1.8-0.2,2.7c-0.1,0.6,0,1.2-0.1,1.7c0,0.6,0,1.2-0.1,1.8c-0.1,0.8,0,1.4-0.1,2.2c-0.1,1.1,0,2.2-0.1,3.2
		c0,0.9,0,1.8,0,2.7c-0.1,0.6-0.1,1.2-0.1,1.8c-0.1,0.6-0.1,1.2-0.4,1.8c-0.2,0.5-0.5,1-1.2,1.3
		C417.8,272.8,416.8,272.5,416.4,271.9z"/>
	<path class="st4" d="M430.5,272.6c-0.6-0.5-1-1.2-1.2-2.1c-0.1-0.8,0-1.7-0.1-2.5c0-0.3,0-0.6-0.1-0.9c0-0.1,0-0.3,0-0.5
		c0.2-0.4,0.1-0.8,0.1-1.2c0-2.5,0-5,0-7.5c0-1.5,0-2.9,0.1-4.4c0.1-1.2,0-2.3,0.1-3.5c0-1.1,0-2.2,0.1-3.2c0-0.9,0.4-1.7,1.2-2.2
		c0.3-0.2,0.8-0.5,1.2-0.4h0.3c0.9-0.1,1.5,0.4,2,1c0.3,0.4,0.5,0.9,0.5,1.5c0,1.5,0,2.9,0,4.4c-0.1,1.2,0,2.5,0,3.7
		c-0.1,0.2-0.1,0.5,0.1,0.6c0.2,0.2,0.5,0.3,0.8,0.3c0.9,0,1.8-0.1,2.8-0.1c0.4,0,0.8-0.1,1.2-0.5c0.5-0.3,0.8-0.8,0.8-1.3
		c0-0.5,0-0.8-0.1-1.3c-0.1-1.2,0-2.3,0-3.5c0-1.1,0.5-1.9,1.5-2.4c1.3-0.6,2.8,0,3.2,1.1c0.2,0.5,0.4,1.1,0.4,1.7
		c0,1.2,0.2,2.4,0.1,3.6c0.2,0.5,0.1,1.2,0.2,1.7c0.1,0.6,0,1.3,0.1,1.9c0.1,0.6,0,1.2,0.1,1.9c0.1,0.5,0,1,0.1,1.6
		c0.1,0.6,0,1.2,0.2,1.9c0,0.5,0,0.9,0,1.4c0,0.3,0.2,0.6,0.2,1c-0.1,0.3,0,3,0.2,3.4c-0.1,0.7,0.1,1.5-0.2,2.2
		c-0.2,0.8-0.8,1.5-1.6,1.8c-0.2,0.1-0.5,0-0.7,0.2c-0.6-0.2-1.2-0.3-1.7-0.8c-0.7-0.7-1-1.5-1-2.4c0-0.3-0.1-0.7-0.1-1
		s-0.1-3.1-0.2-3.4c0-0.1,0-0.3,0-0.5c0-0.8-0.2-1.5-0.5-2.2c0-0.2-0.2-0.3-0.3-0.5c-0.1-0.2-0.3-0.4-0.6-0.2c-0.1,0-0.2,0-0.2,0
		c-1.1,0-2.2,0.2-3.3,0.2c-1.2,0-1.6,0.9-1.6,1.6v3.8c0,1.1,0,2.2,0,3.3c0,0.7-0.1,1.3-0.4,1.9c-0.3,0.7-0.8,1.2-1.5,1.5
		C431.8,273.1,431.1,273.1,430.5,272.6z"/>
	<path class="st4" d="M450.6,272.4c-0.5-0.4-0.9-1-1.1-1.7c-0.3-1.2,0.5-2.4,1.4-2.7c0.6-0.2,1.2-0.2,1.8-0.1c0.5,0.1,1,0.3,1.7,0.2
		c1.2-0.1,2.2-0.6,3-1.8c0.5-0.8,0.8-1.5,1-2.4c0.1-0.3,0.3-0.8,0.2-1.2c0-0.1,0-0.2-0.1-0.3c-0.1-0.2-0.2-0.2-0.3,0l-0.8,0.6
		c-0.5,0.5-1.2,0.8-1.8,0.9c-0.6,0.1-1.2,0.1-1.8-0.1c-0.8-0.2-1.5-0.7-2.2-1.2c-1.1-0.9-2-2-2.5-3.5c-0.2-0.5-0.2-0.9-0.4-1.3
		c-0.1-0.5-0.2-0.9-0.2-1.4c0-0.2-0.1-0.4-0.1-0.6c-0.1-0.8-0.2-1.5-0.3-2.2c0-0.6,0-1.1,0-1.6c0-0.4,0.1-0.8,0.1-1.1
		c0-0.4-0.1-0.7,0-1.1c0.1,0,0-0.1,0-0.2c0-0.6,0.2-1.2,0.2-1.8c0.1-0.6,0.2-1.2,0.5-1.8c0.3-1,0.9-1.6,1.8-1.9c0.2,0,0.5,0,0.8,0
		c1,0.3,1.5,1.4,1.5,2.3c0,0.8-0.1,1.5-0.2,2.2l-0.1,1.5c-0.2,1.5-0.1,2.9,0,4.4c0,1.3,0.3,2.6,1,3.7c0.3,0.5,0.7,0.8,1.2,1.1
		c0.3,0.2,0.5,0.1,0.7-0.1c0.2-0.2,0.4-0.5,0.6-0.8c0.5-1,0.8-2,1-3c0.2-0.6,0.3-1.1,0.4-1.7c0.2-0.9,0.4-1.8,0.6-2.7
		c0-0.6,0.2-1.2,0.3-1.9c0-0.3,0.1-0.6,0.1-1c0-0.3,0.1-0.7,0.1-1l0.2-0.9c0.2-1,0.6-1.9,1.5-2.3c1-0.4,2.2-0.2,2.9,0.9
		c0.4,0.6,0.6,1.3,0.7,2c0.1,0.9,0.1,1.9,0.1,2.8c0,0.8,0.1,1.4,0.1,2.1v0.2c0,1-0.1,1.9-0.1,2.8c0,0.8-0.1,1.5-0.2,2.2
		c0,0.6-0.1,1.2-0.2,1.7c-0.2,0.9-0.2,1.8-0.5,2.7c-0.2,0.8-0.3,1.6-0.5,2.4c-0.2,0.7-0.3,1.2-0.6,1.9c-0.3,0.8-0.6,1.6-1,2.4
		c-0.3,0.6-0.6,1.2-1,1.6c-0.6,0.7-1.2,1.3-1.9,1.8c-0.5,0.3-1,0.6-1.5,0.8c-0.5,0.2-1.2,0.4-1.8,0.5c-0.7,0.2-1.4,0.1-2.1,0
		C452,273,451.2,272.8,450.6,272.4z"/>
	<path class="st4" d="M477,272.6c-0.7-0.5-1.1-1.2-1.2-2.1c-0.2-0.8,0-1.7-0.1-2.5c0-0.3,0.1-0.6-0.1-0.9c0-0.1,0-0.3,0-0.5
		c0.2-0.4,0.1-0.8,0.1-1.2c0-2.5,0-5,0.1-7.5c0-1.5-0.1-2.9,0.1-4.4c0.1-1.2,0-2.3,0.1-3.5c0.1-1.1,0.1-2.2,0.1-3.2
		c0-0.9,0.4-1.7,1.1-2.2c0.4-0.2,0.8-0.5,1.2-0.4h0.3c0.9-0.1,1.5,0.4,2,1c0.3,0.4,0.5,0.9,0.5,1.5c0,1.5,0,2.9-0.1,4.4
		c-0.1,1.2,0,2.5,0,3.7c0,0.2,0,0.5,0.2,0.6c0.2,0.2,0.5,0.3,0.8,0.3c0.9,0,1.8-0.1,2.8-0.1c0.4,0,0.9-0.1,1.2-0.5
		c0.5-0.3,0.8-0.8,0.8-1.3c0-0.5,0-0.8,0-1.3c-0.2-1.2,0-2.3,0-3.5c0-1.1,0.5-1.9,1.5-2.4c1.3-0.6,2.8,0,3.2,1.1
		c0.2,0.5,0.4,1.1,0.4,1.7c0,1.2,0.2,2.4,0.1,3.6c0.1,0.5,0,1.2,0.1,1.7c0.1,0.6,0,1.3,0.1,1.9c0.1,0.6,0,1.2,0.1,1.9
		c0.1,0.5,0,1,0.1,1.6c0.1,0.6,0,1.2,0.1,1.9c0,0.5,0,0.9,0,1.4c0,0.3,0.2,0.6,0.2,1c0,0.3,0,3,0.2,3.4c0,0.7,0.1,1.5-0.2,2.2
		c-0.2,0.8-0.8,1.5-1.6,1.8c-0.2,0.1-0.5,0-0.7,0.2c-0.6-0.2-1.2-0.3-1.7-0.8c-0.7-0.7-1-1.5-1-2.4c0-0.3-0.1-0.7-0.1-1
		s-0.1-3.1-0.2-3.4c0-0.1,0-0.3,0-0.5c0-0.8-0.2-1.5-0.5-2.2c-0.1-0.2-0.2-0.3-0.3-0.5c-0.1-0.2-0.3-0.4-0.6-0.2c0,0-0.2,0-0.2,0
		c-1.1,0-2.2,0.2-3.3,0.2c-1.2,0-1.6,0.9-1.6,1.6v3.8c0,1.1,0,2.2,0,3.3c0,0.7-0.1,1.3-0.4,1.9c-0.3,0.7-0.8,1.2-1.6,1.5
		C478.3,273.1,477.6,273.1,477,272.6z"/>
	<path class="st4" d="M497.4,271.5c-1.2-0.4-2-1.2-2.5-2.4c-0.2-0.7-0.3-1.3-0.5-2c-0.1-1,0-2-0.1-2.8c0-1.1,0-1.9,0-2.7
		c0-0.8,0-1.7,0.1-2.5c0-0.6,0-1.2,0.1-1.8c0-0.6,0-1.2,0.1-1.9c0.2-1.2,0.1-2.3,0.1-3.5c0-0.7-0.1-1.3-0.1-2v-0.2
		c-0.1-0.2-0.1-0.4,0-0.7c0-0.1,0-0.3,0-0.4c-0.2-0.5,0-0.9,0.2-1.4c0.3-0.7,1-1.1,1.7-1.4c0.5-0.2,1-0.2,1.6-0.3
		c0.5-0.1,1.1,0,1.6-0.2c0,0,0,0,0.1,0c1.3,0,2.7-0.2,4-0.1c1,0.1,1.8,0.5,2.4,1.3c0.5,0.7,0.5,1.5,0,2.2c-0.4,0.7-1.1,1-1.9,1.2
		c-0.3,0.1-0.6,0.1-0.9,0.1c-0.9,0-1.8,0.2-2.8,0.2c-0.6,0-0.9,0.4-0.9,1c0,1.2,0,2.3-0.1,3.5c0,0.3,0.1,0.5,0,0.9
		c-0.1,0.3,0,0.7,0.2,1c0.1,0.2,0.2,0.3,0.5,0.3c0.5,0,1,0,1.5,0c0.8,0,1.5,0.2,2.2,0.5c0.8,0.3,1.2,1,1.3,1.9
		c0.1,1-0.7,1.8-1.7,2.2c-0.6,0.2-1.2,0.4-1.8,0.4c-0.4,0-0.9,0-1.2,0h-0.4c-0.7,0.2-0.8,0.4-0.9,1.1v2.6c0,0.4,0.1,0.8,0.1,1.1
		c0.1,0.6,0.5,1,1.1,1c0.5,0,1.1,0,1.7,0c0.7,0,1.4,0.1,2,0.5c0.5,0.4,0.8,0.8,1,1.4c0,0.5-0.1,0.9-0.5,1.3c-0.5,0.5-1,0.8-1.8,0.9
		c-0.5,0-1,0.1-1.4,0.1c-0.5,0-1.1,0.2-1.7,0C499.1,271.8,498.2,271.7,497.4,271.5z"/>
	<path class="st4" d="M519.3,272c-0.7-0.5-1-1.2-1.1-2.1c-0.1-1.4,0-2.8-0.1-4.2c0-0.3-0.1-0.6-0.2-0.9c-0.2-0.2-0.2-0.2-0.5-0.2
		c-0.6,0-1.2,0-1.8-0.1c-0.5-0.1-1-0.1-1.5-0.1c-0.2,0-0.3,0-0.5,0.2c-0.1,0.2-0.3,0.3-0.4,0.5c-0.2,0.1-0.2,0.3-0.2,0.5l-0.3,2.2
		c-0.1,0.5-0.1,1-0.2,1.5c-0.2,0.7-0.6,1.1-1,1.5c-0.2,0.2-0.4,0.2-0.7,0.4c-0.6,0.3-1.2,0.1-1.7-0.3c-0.5-0.4-0.9-1-1-1.6
		c-0.1-0.3-0.2-0.7-0.1-1v-0.1c0-0.5,0.1-1,0.1-1.5c0.1-0.8,0.2-1.6,0.3-2.4l0.5-2.3c0.2-0.9,0.4-1.7,0.6-2.6c0.4-1.8,1-3.5,1.6-5.1
		c0.3-1.1,0.8-2.1,1.2-3.1l1.3-3.2c0.3-1,0.8-1.8,1.4-2.6c0.3-0.5,0.8-0.6,1.3-0.7c0.8-0.1,1.6,0.2,2.2,0.8c0.5,0.5,0.8,1,1.1,1.5
		c0.5,0.7,0.8,1.4,1.1,2.2c0.3,0.9,0.6,1.7,0.8,2.6c0.1,0.5,0.3,1.1,0.4,1.6c0,0.5,0.2,1.1,0.2,1.6c0,0.2,0.1,0.4,0.1,0.7
		c0,0.2-0.1,0.4,0,0.6c0.1,0,0,0,0,0.1c0,0.5,0.1,1.1,0.2,1.7c0,0.9,0,1.9,0.1,2.8c0.1,1.1,0.1,2.3,0.1,3.5c0,0.5,0.1,1,0.1,1.5v1.5
		c0,0.6,0,1.2,0,1.9c0,0.5-0.1,1.1-0.3,1.7c-0.2,0.7-0.8,1.2-1.5,1.5C520.4,272.6,519.8,272.5,519.3,272z M517.9,259.2
		c0-0.2,0-0.4,0-0.7c0-0.3-0.1-0.6-0.1-1c0-0.5-0.2-1-0.1-1.6v0c-0.1-0.6-0.2-1.2-0.3-1.8c0-0.3-0.1-0.5-0.2-0.8
		c0-0.1,0-0.2-0.2-0.2c-0.2,0-0.3,0-0.4,0.2c0,0.1-0.1,0.1-0.1,0.2c-0.3,0.8-0.6,1.5-0.9,2.2c-0.3,1-0.7,1.9-0.9,2.7
		c-0.1,0.3-0.1,0.6-0.1,0.9s0.1,0.5,0.5,0.6c0.1,0.1,0.3,0.1,0.5,0.1s0.5,0,0.6,0c0.2,0.1,0.5,0,0.7,0
		C517.5,259.9,517.8,259.6,517.9,259.2z"/>
	<path class="st4" d="M526.1,271.9c-0.2-0.2-0.5-0.4-0.7-0.6c-0.4-0.5-0.8-1.1-0.8-2l-0.2-2c0-0.2,0-0.5,0-0.8c0-0.2-0.1-0.5,0-0.8
		c0.1,0,0-0.1,0-0.1c-0.1-0.5,0-1,0.1-1.4c0-0.7,0-1.5,0-2.2c0-0.3,0-0.8,0-1.1c0-0.4,0-0.8,0.1-1.2c0-0.4,0.1-0.8,0.1-1.1
		c0-0.5,0-0.8,0-1.2c0-0.3,0-0.5,0-0.8c0-0.7,0-1.2,0.1-1.9c0.1-0.6,0.1-1.2,0.1-1.9c0-0.4,0-0.8,0-1.2c0-0.5,0-0.8,0.1-1.2
		c0.1-0.6,0.2-1.2,0.4-1.7c0.2-0.4,0.4-0.8,0.7-1.2c0.5-0.7,1.2-1.1,2-1.3c0.8-0.2,1.5-0.2,2.2-0.2c1.3,0.1,2.6,0.5,3.8,1.2
		c1.1,0.7,2,1.5,2.5,2.8c0.2,0.5,0.5,1.1,0.5,1.7c0,0.2,0,0.3,0.1,0.5c0.1,1.5-0.2,2.9-0.9,4.2c-0.3,0.7-0.7,1.2-1.2,1.8
		c-0.5,0.8-1.3,1.5-2,2.1c-0.3,0.3-0.4,0.8-0.5,1.2c0.2,0.2,0.2,0.5,0.4,0.8c0.6,0.7,1.2,1.5,1.8,2.2c0.7,0.8,1.4,1.8,2,2.7
		c0.5,0.6,0.9,1.3,0.9,2.1c0,0.5-0.1,1.1-0.5,1.5c-0.2,0.2-0.5,0.5-0.8,0.7c-0.8,0.3-1.6,0.2-2.4-0.3c-0.7-0.5-1.1-1.1-1.6-1.7
		c-0.6-0.9-1.2-1.7-2-2.5l-0.5-0.8c-0.2-0.2-0.3-0.2-0.5-0.2s-0.2,0.2-0.2,0.4v0.1c0,0.7,0,1.4,0,2.1c0.1,0.4,0,0.7-0.1,1.1
		c-0.2,0.7-0.5,1.3-1,1.8c-0.3,0.3-0.6,0.5-1,0.5C526.8,272.2,526.4,272.2,526.1,271.9z M531.2,255.5c0.5-0.5,0.8-1,1-1.8
		c0.1-0.4,0.2-0.8,0.2-1.2c-0.2-0.8-1-1.3-1.8-1.2c-0.4,0-0.4,0-0.5,0.5c0,0.3-0.1,0.8-0.1,1.1c0,0.4,0,0.8,0,1.1c0,0.5,0,1-0.1,1.4
		c0,0.2,0,0.3,0.1,0.4c0,0.4,0.2,0.5,0.6,0.3C530.8,256,531,255.7,531.2,255.5z"/>
	<path class="st4" d="M545.5,271.9c-0.3-0.4-0.5-0.9-0.6-1.4c-0.1-0.3-0.1-0.6-0.1-1c0-0.8-0.1-1.5,0-2.3c0.1-1,0-2,0.1-3
		c0.1-1,0-2,0.1-2.9c0.1-0.7,0-1.5,0.1-2.2c0.1-0.6,0-1.2,0.1-1.7c0.1-0.5,0-1,0.1-1.6c0.1-0.7,0-1.4,0.1-2.1c0.2-1.1,0-2.1,0-3.2
		c0-0.5-0.1-1-0.3-1.5c-0.2-0.3-0.4-0.5-0.8-0.5h-2.8c-0.9,0-1.6-0.3-2.1-1c-0.2-0.2-0.2-0.5-0.2-0.8c0-0.2,0-0.5,0-0.7
		c0.2-0.8,1.1-1.5,1.9-1.5c0.3,0,0.6,0,0.9,0h3.6c1.3,0,2.6,0,3.8,0c1.5,0,2.9,0,4.3,0c0.7,0,1.2,0.1,1.8,0.5c0.5,0.2,1,0.7,1,1.3
		c0,0.3,0,0.8-0.2,1.1c-0.2,0.2-0.5,0.5-0.8,0.6c-0.1,0-0.1,0.1-0.2,0.1c-0.4,0.2-0.8,0.4-1.2,0.4c-0.8,0.1-1.6,0-2.4,0
		c-0.3,0-0.6,0.2-0.9,0.1c-0.1,0-0.2,0.1-0.2,0.2c-0.4,0.3-0.6,0.7-0.7,1.2c0,0.3,0,0.6,0,1c0,0.8,0,1.6,0,2.4
		c0,0.9-0.2,1.8-0.2,2.7c-0.2,0.6,0,1.2-0.1,1.7c-0.1,0.6,0,1.2-0.1,1.8c-0.1,0.8,0,1.4,0,2.2c-0.2,1.1,0,2.2-0.2,3.2
		c0,0.9,0.1,1.8,0,2.7c-0.1,0.6,0,1.2-0.1,1.8c-0.1,0.6-0.1,1.2-0.4,1.8c-0.2,0.5-0.5,1-1.2,1.3C546.9,272.8,546,272.5,545.5,271.9z
		"/>
</g>
</svg>
