<?xml version="1.0" encoding="utf-8"?>
<!-- Generator: Adobe Illustrator 26.3.1, SVG Export Plug-In . SVG Version: 6.00 Build 0)  -->
<svg version="1.1" id="Layer_1" xmlns="http://www.w3.org/2000/svg" xmlns:xlink="http://www.w3.org/1999/xlink" x="0px" y="0px"
	 viewBox="0 0 300 129" style="enable-background:new 0 0 300 129;" xml:space="preserve">
<style type="text/css">
	.st0{fill:#FFFFFF;}
	.st1{opacity:0.43;fill:#EBEBEA;}
	.st2{fill:#F95E4B;}
	.st3{fill:#033782;}
	.st4{fill:#E5E5E5;}
</style>
<g>
	<g>
		<path class="st0" d="M32.95,72.9c-0.68-0.48-1.22-1.02-1.5-1.77c-0.2-0.61-0.34-1.15-0.47-1.7c-0.07-0.75,0-1.5-0.14-2.17
			c-0.07-0.81,0-1.63-0.14-2.44c-0.07-0.54-0.07-1.15-0.14-1.77c-0.07-1.02-0.07-2.04-0.14-3.05c-0.14-0.88,0-1.77-0.14-2.65
			c-0.2-1.63-0.07-3.26-0.14-4.82c0-0.68,0.2-1.29,0.14-1.97c0-0.61-0.07-1.22,0.07-1.83c0.07-0.68,0-1.43,0.14-2.11
			c0.07-0.95,0.14-1.9,0.27-2.85c0.07-0.82,0.27-1.63,0.61-2.38c0.61-1.29,2.51-2.38,4.14-1.9c1.09,0.34,1.83,0.82,2.51,1.7
			c0.27,0.41,0.61,0.75,0.82,1.09c1.02,1.43,1.9,2.99,2.72,4.48c1.02,1.83,1.9,3.74,2.85,5.64c0.47,1.09,1.02,2.17,1.43,3.26
			c0.07,0.27,0.2,0.61,0.48,0.61c0.27,0,0.27-0.34,0.41-0.61c0.14-0.2,0.27-0.48,0.27-0.75c0-1.36,0.07-2.65,0.14-4.01
			c0.14-1.97,0.07-3.94,0.2-5.91c0-0.95,0-1.9,0.07-2.92c0.14-0.82,0.34-1.5,0.88-2.17c0.47-0.68,1.09-1.02,1.83-1.29
			c0.41-0.14,0.88-0.14,1.22-0.07c1.02,0.27,1.83,0.75,2.31,1.76c0.34,0.68,0.61,1.36,0.61,2.17c-0.07,0.68,0,1.29,0,1.97h-0.07
			v0.95c0.07,1.84-0.2,3.67-0.14,5.5c-0.2,1.02,0,2.11-0.14,3.12c-0.14,0.82-0.07,1.63-0.14,2.44c-0.14,0.82-0.14,1.56-0.14,2.38
			c0,0.41-0.2,0.75-0.14,1.09c0,0.41-0.07,0.75-0.14,1.09c0,0.61-0.07,1.22-0.2,1.83l-0.2,2.17c-0.07,0.95-0.34,1.84-0.47,2.72
			c-0.14,0.61-0.41,1.15-0.54,1.7c-0.2,0.82-0.54,1.56-1.09,2.24c-0.61,0.82-1.36,1.22-2.38,1.36c-1.09,0.14-2.04-0.34-2.79-1.09
			c-0.75-0.75-1.29-1.63-1.76-2.65c-0.41-0.95-0.75-1.9-1.16-2.85c-0.41-1.16-0.81-2.31-1.36-3.46c-0.48-1.09-0.95-2.24-1.36-3.4
			l-1.7-3.94c-0.14-0.27-0.2-0.54-0.41-0.75c-0.2-0.2-0.41-0.2-0.61-0.14c-0.2,0.07-0.2,0.27-0.2,0.41c0,1.02-0.14,2.04,0,3.06
			c0.07,0.75,0,1.43,0.14,2.17c0.14,0.88,0.07,1.76,0.14,2.65c0.14,0.68,0.07,1.43,0.14,2.11c0.14,0.82,0.07,1.7,0.2,2.51
			c0,0.54,0.13,1.02,0.07,1.56c-0.14,0.95-0.2,1.84-0.75,2.65c-0.48,0.61-1.02,1.02-1.63,1.22C34.58,73.45,33.69,73.38,32.95,72.9z"
			/>
		<path class="st0" d="M64.4,71.14c-1.09-0.61-1.97-1.5-2.72-2.44c-0.95-1.16-1.7-2.45-2.24-3.87c-0.34-0.82-0.54-1.77-0.82-2.58
			c-0.07-0.07-0.07-0.14-0.07-0.14c-0.07-1.16-0.54-2.24-0.48-3.19c-0.07-0.54-0.2-0.95-0.14-1.36c0-1.02-0.2-2.11-0.2-3.12
			c-0.07-0.61-0.14-1.15-0.07-1.7c0.07-1.09-0.07-2.11,0-3.13c0.07-0.61,0-1.15,0-1.76c0-0.54-0.07-1.15,0.07-1.77
			c0.07-0.41,0-0.82,0-1.22v-1.63c0-1.09,0.07-2.24,0.47-3.33c0.27-0.82,0.82-1.36,1.5-1.83c0.68-0.41,1.36-0.47,2.17-0.41
			c1.09,0.2,1.83,0.75,2.38,1.63c0.41,0.61,0.61,1.36,0.48,2.11c-0.07,0.34-0.07,0.68-0.07,1.09c0,0.81,0,1.7-0.07,2.51v2.85
			c-0.07,0.54,0,1.15-0.07,1.7c0,0.54,0.14,1.15,0,1.7v0.2c0.14,0.88,0.07,1.7,0.07,2.51c0.07,2.04,0.41,3.94,0.61,5.91
			c0.2,1.7,0.82,3.19,1.83,4.48c0.54,0.68,1.09,1.22,1.9,1.63c0.61,0.27,1.09,0.14,1.56-0.34c0.61-0.61,1.02-1.36,1.36-2.17
			c0.82-1.97,1.22-4.01,1.63-6.11c0.27-1.43,0.54-2.92,0.68-4.42c0.07-1.15,0.27-2.24,0.27-3.4c-0.07-0.75,0.07-1.5,0.14-2.17
			c0-0.47-0.07-0.95,0-1.36c0.07-1.02,0-2.04,0.07-3.06v-1.77c-0.07-1.15,0.07-2.24,0.68-3.19c0.34-0.61,0.82-1.02,1.43-1.29
			c1.77-0.75,3.74,0.34,4.35,1.84c0.27,0.75,0.54,1.49,0.34,2.31c0,0.14,0.07,0.27,0.07,0.34c0.07,0.75,0,1.43-0.07,2.17
			c0,0.41,0.07,0.82,0.07,1.29c0,0.54-0.07,1.09-0.07,1.63c0,0.47,0.07,0.95-0.07,1.49c-0.07,0.34,0,0.75,0,1.09
			c-0.07,1.02-0.2,1.97-0.2,2.99c-0.14,1.56-0.41,3.19-0.54,4.76c-0.07,0.68-0.27,1.29-0.34,1.9c-0.21,1.36-0.54,2.72-0.88,4.01
			c-0.54,1.7-1.15,3.33-2.11,4.82c-0.34,0.54-0.61,1.15-1.02,1.63c-0.54,0.68-1.22,1.29-1.9,1.83c-0.68,0.54-1.36,1.02-2.17,1.36
			c-0.41,0.14-0.88,0.34-1.36,0.41c-0.75,0.07-1.56,0.2-2.38,0.07C67.05,72.43,65.69,71.95,64.4,71.14z"/>
		<path class="st0" d="M106.11,71.68c-0.2-1.02-0.14-2.04-0.07-3.06c0.07-0.95,0.07-2.79,0.14-3.6c0-0.61,0.07-1.29,0.07-1.9
			c0-0.88,0.07-1.83,0.14-2.72c0-0.88,0.07-1.77,0-2.72c0-0.47,0.07-0.95,0.07-1.43c0-0.2,0.07-0.54-0.2-0.61
			c-0.34-0.07-0.27,0.34-0.34,0.54c-0.68,2.04-1.29,4.08-2.04,6.05c-0.41,1.15-0.68,2.38-1.22,3.46c-0.68,1.22-1.9,1.97-3.06,1.9
			c-1.09,0-1.97-0.54-2.72-1.43c-0.34-0.54-0.61-1.09-0.75-1.7c-0.2-0.68-0.41-1.36-0.54-2.04c-0.14-0.61-0.27-1.29-0.54-1.83
			c-0.07-0.07-0.07-0.2-0.07-0.27c-0.27-1.29-0.68-2.51-1.15-3.74c-0.27-0.88-0.68-1.7-0.88-2.58c-0.14-0.61-0.47-1.15-0.68-1.77
			c-0.07-0.07-0.14-0.14-0.14-0.2c-0.27-0.41-0.54-0.41-0.82,0c-0.07,0.14-0.14,0.34-0.14,0.54c0.07,0.61-0.07,1.29-0.07,1.9
			c0.07,0.88,0.14,1.77,0.07,2.65c0,0.48,0.07,0.95,0.07,1.43c0.14,0.88,0.07,1.84,0.14,2.79v4.69c0.07,1.02,0,2.11-0.14,3.12
			c-0.07,0.82-0.2,1.56-0.47,2.31c-0.34,1.09-1.63,2.11-2.99,1.84c-0.48-0.07-0.88-0.27-1.16-0.48c-0.47-0.41-0.88-0.88-1.02-1.56
			c-0.2-0.61-0.41-1.15-0.27-1.83c0-0.07-0.07-0.14-0.07-0.2c-0.14-0.81-0.07-1.7-0.14-2.51c0-0.54-0.07-1.09-0.07-1.63
			c0.07-0.47-0.07-0.95,0-1.43c0.07-0.41,0-0.88-0.07-1.29c-0.07-0.88-0.07-1.84-0.07-2.65V56.6c0.07-0.75,0.07-1.49,0-2.17
			c0-0.88,0-1.7,0.07-2.58c0.07-0.68,0-1.36,0.07-1.97c0.07-0.81,0.07-1.63,0-2.44c0-1.5,0.14-2.92,0.2-4.35
			c0-0.95,0.07-1.83,0.2-2.72c0.07-0.95,0.41-1.97,0.82-2.85c0.41-0.75,1.02-1.22,1.9-1.43c0.68-0.14,1.43-0.14,2.04,0.2
			c0.68,0.34,1.29,0.81,1.7,1.43c0.54,0.68,0.95,1.36,1.36,2.04c0.47,0.75,1.02,1.56,1.43,2.38c0.54,1.22,1.15,2.45,1.7,3.67
			c0.41,0.95,0.82,1.9,1.15,2.85c0.34,0.75,0.68,1.56,1.09,2.38c0.14,0.27,0.07,0.61,0.34,0.81c0.14,0.2,0.34,0.27,0.54,0.2
			c0.34-0.14,0.68-0.34,0.82-0.82c0.41-1.29,0.88-2.51,1.36-3.74c0.54-1.56,1.15-3.05,1.76-4.62c0.68-1.56,1.36-3.13,1.9-4.76
			c0.27-0.88,0.61-1.77,1.22-2.51c0.68-0.82,1.49-1.36,2.58-1.36c1.15-0.07,2.17,0.34,2.92,1.36c0.61,0.75,0.88,1.36,1.02,2.79
			c0.21,0.95,0.14,1.83,0.21,2.78c0.07,0.82,0,1.56,0.07,2.38c0,0.41,0,0.88-0.07,1.29c0,0.41,0.07,0.88,0.07,1.29
			c-0.07,1.09-0.07,2.17-0.07,3.26v1.97c0,0.68-0.07,1.36-0.07,2.04v2.04c0,0.61-0.07,1.29-0.07,1.97c0,0.61,0,1.15-0.07,1.77
			c0,0.88-0.07,1.83-0.07,2.79c0,0.88-0.07,1.76-0.07,2.58c-0.07,1.36-0.2,4.35-0.2,5.23c0,0.95-0.07,1.9-0.54,2.79
			c-0.47,0.95-1.22,1.43-2.17,1.63c-0.61,0.2-1.15,0.2-1.7,0C107.2,73.72,106.38,72.9,106.11,71.68z"/>
		<path class="st0" d="M119.83,73.58c-0.41-0.41-0.68-1.02-0.88-1.56c-0.2-0.34-0.34-0.68-0.68-0.95c-0.68-0.48-0.95-1.22-1.22-1.97
			c-0.07-0.41-0.07-0.82-0.14-1.22c-0.27-2.04,0-4.14-0.07-5.64c0-2.17-0.14-3.81,0-5.5c0.14-1.9,0-3.8,0.14-5.7
			c0.07-1.02,0-2.11,0.14-3.19c0.07-0.88,0-1.77,0.14-2.65c0.07-0.61,0-1.22,0.14-1.83c0.07-0.47,0.07-0.95,0.07-1.43
			c0-0.48,0.14-0.95,0.2-1.36c0.07-0.88,0.27-1.77,0.68-2.51c0.48-0.95,1.16-1.5,2.11-1.9c1.56-0.61,3.13-0.75,4.69-0.61
			c1.36,0.14,2.72,0.61,3.87,1.36c1.09,0.75,1.9,1.63,2.58,2.72c0.54,0.88,0.88,1.77,1.15,2.72c0.07,0.41,0.21,0.81,0.14,1.22
			c0,0.34,0.21,0.61,0.14,0.88c-0.07,1.36-0.27,2.72-0.82,4.01c-0.61,1.63-1.49,3.06-2.58,4.42c-0.48,0.68-1.15,1.36-1.7,1.97
			c-0.07,0.07-0.14,0.14-0.14,0.2c-0.48,0.54-0.48,1.02,0,1.56c0.95,1.09,1.76,2.31,2.38,3.6c0.47,0.88,0.75,1.83,0.95,2.79
			c0.14,0.95,0.34,1.83,0.34,2.79c-0.07,1.43-0.34,2.85-0.95,4.14c-0.34,0.68-0.82,1.29-1.22,1.83c-0.61,0.75-1.29,1.22-1.97,1.7
			c-0.68,0.48-1.36,0.68-2.11,0.88c-0.88,0.2-1.83,0.34-2.72,0.27C121.47,74.53,120.58,74.26,119.83,73.58z M124.52,67.67l0.2-0.41
			c0.54-0.81,0.47-1.76,0.34-2.65c-0.07-0.54-0.27-1.09-0.47-1.56c-0.2-0.54-0.47-1.02-0.88-1.43c-0.14-0.14-0.27-0.14-0.41-0.07
			c-0.21,0-0.14,0.2-0.21,0.27c-0.07,0.2-0.07,0.41-0.07,0.54v1.76c-0.14,1.02,0.2,2.17,0.14,3.4v0.14c0,0.21,0.14,0.27,0.27,0.34
			C123.84,68.01,124.25,68.08,124.52,67.67z M124.39,49.33c0.75-0.82,1.29-1.7,1.76-2.72c0.41-0.68,0.61-1.43,0.54-2.24
			c-0.07-0.88-0.34-1.56-1.02-2.11c-0.21-0.2-0.54-0.41-0.82-0.34c-0.47,0.07-0.88,0.34-1.09,0.82c-0.2,0.47-0.14,1.02-0.2,1.49
			c-0.14,0.68,0,1.5-0.14,2.17c-0.07,0.41,0,0.82,0,1.22c0,0.48-0.07,0.95,0,1.43c0,0.41,0.14,0.47,0.47,0.47
			C124.12,49.54,124.25,49.4,124.39,49.33z"/>
		<path class="st0" d="M140.56,72.56c-1.7-0.54-2.79-1.63-3.4-3.26c-0.34-0.88-0.48-1.77-0.61-2.65c-0.2-1.43,0-2.79-0.14-3.74
			c0-1.49-0.07-2.58,0.07-3.67c0.07-1.15,0-2.24,0.14-3.4c0.07-0.82,0-1.56,0.14-2.38c0.07-0.82,0-1.7,0.14-2.51
			c0.2-1.63,0.14-3.19,0.07-4.82c0-0.88-0.07-1.77-0.14-2.72v-0.34c-0.14-0.27-0.14-0.54,0-0.88c0.07-0.14,0.07-0.41,0-0.54
			c-0.27-0.68,0-1.29,0.21-1.9c0.41-0.95,1.29-1.49,2.31-1.83c0.68-0.27,1.43-0.34,2.17-0.47c0.68-0.14,1.43,0,2.11-0.2
			c0.07-0.07,0.07,0,0.14,0c1.83-0.07,3.67-0.27,5.5-0.2c1.29,0.14,2.44,0.68,3.26,1.76c0.61,0.88,0.61,2.04-0.07,3.06
			c-0.54,0.95-1.5,1.29-2.51,1.63c-0.41,0.14-0.82,0.14-1.29,0.14c-1.22,0-2.44,0.2-3.73,0.2c-0.82-0.07-1.29,0.54-1.29,1.36
			c0,1.56,0,3.12-0.07,4.76c0,0.41,0.07,0.75-0.07,1.15c-0.14,0.48,0.07,0.95,0.27,1.36c0.14,0.27,0.34,0.47,0.61,0.47
			c0.75-0.07,1.43,0,2.11-0.07c1.02,0,1.97,0.2,2.92,0.61c1.09,0.41,1.7,1.43,1.76,2.58c0.14,1.36-0.88,2.51-2.24,2.99
			c-0.81,0.27-1.63,0.47-2.51,0.47c-0.54-0.07-1.15,0-1.7,0h-0.47c-0.95,0.27-1.15,0.54-1.22,1.5v3.53c0,0.54,0.14,1.02,0.2,1.5
			c0.07,0.82,0.61,1.29,1.49,1.29c0.75,0,1.5-0.07,2.24,0c0.95,0.07,1.9,0.14,2.79,0.68c0.75,0.47,1.15,1.09,1.29,1.9
			c0.07,0.68-0.14,1.22-0.61,1.77c-0.61,0.68-1.43,1.02-2.38,1.15c-0.61,0.07-1.29,0.14-1.9,0.14c-0.75-0.07-1.5,0.2-2.24,0.07
			C142.8,72.97,141.64,72.9,140.56,72.56z"/>
		<path class="st0" d="M158.76,73.18c-0.34-0.2-0.68-0.48-0.95-0.82c-0.54-0.75-1.09-1.56-1.15-2.65l-0.2-2.65
			c-0.07-0.34,0.07-0.68,0.07-1.02c-0.07-0.34-0.2-0.68,0-1.02c0.07-0.07,0-0.14,0-0.2c-0.14-0.61,0-1.29,0.07-1.9
			c0-0.95,0-1.97,0.07-2.92c0.07-0.48,0.07-1.02,0.07-1.56c0.07-0.54,0.07-1.09,0.14-1.63c0-0.48,0.07-1.02,0.07-1.5
			c0-0.61,0-1.15,0.07-1.7c0.07-0.41,0.07-0.75,0.07-1.09c0-0.88,0.07-1.7,0.14-2.51c0.07-0.88,0.14-1.7,0.14-2.58
			c0.07-0.54,0.07-1.02,0.07-1.56c0-0.61,0.07-1.15,0.14-1.7c0.13-0.82,0.2-1.63,0.54-2.31c0.27-0.54,0.54-1.15,0.88-1.63
			c0.68-0.95,1.63-1.56,2.72-1.83c1.02-0.27,1.97-0.27,2.92-0.34c1.83,0.2,3.53,0.68,5.09,1.7c1.5,0.95,2.65,2.11,3.46,3.74
			c0.34,0.68,0.68,1.5,0.75,2.31c0,0.27,0,0.48,0.07,0.75c0.14,1.97-0.27,3.87-1.22,5.64c-0.41,0.88-0.95,1.63-1.56,2.44
			c-0.75,1.09-1.77,1.97-2.72,2.85c-0.47,0.47-0.54,1.09-0.68,1.7c0.2,0.34,0.2,0.68,0.47,1.02c0.82,0.95,1.63,1.97,2.44,2.99
			c0.95,1.16,1.9,2.38,2.79,3.6c0.61,0.82,1.16,1.77,1.16,2.85c0,0.75-0.14,1.5-0.68,2.04c-0.34,0.34-0.61,0.75-1.09,0.88
			c-1.15,0.41-2.24,0.34-3.26-0.41c-0.88-0.61-1.5-1.49-2.17-2.31c-0.82-1.15-1.7-2.24-2.65-3.33l-0.75-1.02
			c-0.2-0.21-0.47-0.27-0.68-0.21c-0.2,0.07-0.2,0.27-0.27,0.48v0.14c0.07,0.95-0.07,1.9,0.07,2.85c0.07,0.47,0,0.95-0.14,1.5
			c-0.27,0.95-0.61,1.76-1.29,2.51c-0.41,0.41-0.82,0.61-1.36,0.68C159.78,73.51,159.24,73.51,158.76,73.18z M165.69,50.9
			c0.61-0.75,1.15-1.43,1.43-2.38c0.14-0.54,0.34-1.16,0.2-1.7c-0.2-1.02-1.36-1.77-2.44-1.63c-0.54,0.07-0.61,0.07-0.75,0.68
			c-0.07,0.47-0.13,1.02-0.13,1.49c0.07,0.54,0,1.09,0,1.56c-0.07,0.68-0.07,1.36-0.14,1.83c0,0.27,0,0.41,0.07,0.54
			c0,0.54,0.27,0.61,0.82,0.41C165.15,51.51,165.42,51.17,165.69,50.9z"/>
		<path class="st0" d="M179.28,73.65c-0.61-1.02-0.47-2.04,0-3.06c0.34-0.54,0.82-0.95,1.43-1.29l1.97-0.82
			c1.15-0.54,2.38-1.02,3.33-1.9c0.82-0.75,1.36-1.63,1.5-2.79c0.07-0.41,0.14-0.82,0.14-1.22c-0.14-1.15-0.54-2.31-1.22-3.33
			c-0.54-0.82-1.15-1.56-1.83-2.24c-1.09-1.09-2.24-2.11-3.26-3.26c-0.95-1.02-1.84-2.11-2.45-3.4c-0.27-0.68-0.47-1.36-0.61-2.04
			c-0.27-1.02-0.2-2.04-0.14-2.99c0.07-0.61,0.27-1.22,0.47-1.83c0.27-0.75,0.54-1.56,0.95-2.24c0.82-1.56,1.97-2.85,3.33-3.87
			c0.75-0.61,1.63-1.02,2.44-1.43c0.68-0.34,1.43-0.47,2.11-0.68c0.75-0.2,1.43-0.2,2.11-0.14c0.95,0.14,1.77,0.61,2.24,1.5
			c0.27,0.54,0.47,1.02,0.41,1.63c-0.14,1.09-0.54,1.97-1.5,2.44c-0.54,0.34-1.15,0.47-1.76,0.54c-0.82,0.2-1.5,0.54-2.17,0.95
			c-1.22,0.82-1.9,1.97-2.31,3.26c-0.48,1.22-0.14,2.31,0.68,3.26c1.29,1.56,2.85,2.85,4.21,4.35c1.36,1.5,2.58,3.06,3.4,4.89
			c0.41,1.09,0.75,2.11,0.88,3.26c0.14,0.54,0.07,1.16,0.14,1.56c0,1.5-0.2,2.79-0.68,4.01c-0.34,0.95-0.82,1.83-1.36,2.65
			c-0.95,1.29-1.56,1.9-3.19,2.92c-1.22,0.82-2.58,1.36-3.87,1.97c-0.41,0.14-0.82,0.2-1.15,0.41c-0.75,0.34-1.5,0.34-2.24,0.2
			C180.36,74.87,179.75,74.4,179.28,73.65z"/>
	</g>
	<g>
		<path class="st0" d="M84.89,119.52c-0.2-1.02-0.14-2.04-0.07-3.06c0.07-0.95,0.07-2.79,0.14-3.6c0-0.61,0.07-1.29,0.07-1.9
			c0-0.88,0.07-1.83,0.14-2.72c0-0.88,0.07-1.77,0-2.72c0-0.47,0.07-0.95,0.07-1.43c0-0.2,0.07-0.54-0.2-0.61
			c-0.34-0.07-0.27,0.34-0.34,0.54c-0.68,2.04-1.29,4.08-2.04,6.05c-0.41,1.15-0.68,2.38-1.22,3.46c-0.68,1.22-1.9,1.97-3.06,1.9
			c-1.09,0-1.97-0.54-2.72-1.43c-0.34-0.54-0.61-1.09-0.75-1.7c-0.2-0.68-0.41-1.36-0.54-2.04c-0.14-0.61-0.27-1.29-0.54-1.83
			c-0.07-0.07-0.07-0.2-0.07-0.27c-0.27-1.29-0.68-2.51-1.15-3.74c-0.27-0.88-0.68-1.7-0.88-2.58c-0.14-0.61-0.47-1.15-0.68-1.77
			c-0.07-0.07-0.14-0.14-0.14-0.2c-0.27-0.41-0.54-0.41-0.82,0c-0.07,0.14-0.14,0.34-0.14,0.54c0.07,0.61-0.07,1.29-0.07,1.9
			c0.07,0.88,0.14,1.77,0.07,2.65c0,0.48,0.07,0.95,0.07,1.43c0.14,0.88,0.07,1.84,0.14,2.79v4.69c0.07,1.02,0,2.11-0.14,3.12
			c-0.07,0.82-0.2,1.56-0.47,2.31c-0.34,1.09-1.63,2.11-2.99,1.84c-0.48-0.07-0.88-0.27-1.16-0.48c-0.47-0.41-0.88-0.88-1.02-1.56
			c-0.2-0.61-0.41-1.15-0.27-1.83c0-0.07-0.07-0.14-0.07-0.21c-0.14-0.81-0.07-1.7-0.14-2.51c0-0.54-0.07-1.09-0.07-1.63
			c0.07-0.47-0.07-0.95,0-1.43c0.07-0.41,0-0.88-0.07-1.29c-0.07-0.88-0.07-1.84-0.07-2.65v-3.13c0.07-0.75,0.07-1.49,0-2.17
			c0-0.88,0-1.7,0.07-2.58c0.07-0.68,0-1.36,0.07-1.97c0.07-0.81,0.07-1.63,0-2.44c0-1.5,0.14-2.92,0.2-4.35
			c0-0.95,0.07-1.83,0.2-2.72c0.07-0.95,0.41-1.97,0.82-2.85c0.41-0.75,1.02-1.22,1.9-1.43c0.68-0.14,1.43-0.14,2.04,0.2
			c0.68,0.34,1.29,0.81,1.7,1.43c0.54,0.68,0.95,1.36,1.36,2.04c0.47,0.75,1.02,1.56,1.43,2.38c0.54,1.22,1.15,2.45,1.7,3.67
			c0.41,0.95,0.82,1.9,1.15,2.85c0.34,0.75,0.68,1.56,1.09,2.38c0.14,0.27,0.07,0.61,0.34,0.81c0.14,0.2,0.34,0.27,0.54,0.2
			c0.34-0.14,0.68-0.34,0.82-0.82c0.41-1.29,0.88-2.51,1.36-3.74c0.54-1.56,1.15-3.05,1.76-4.62c0.68-1.56,1.36-3.13,1.9-4.76
			c0.27-0.88,0.61-1.77,1.22-2.51c0.68-0.82,1.49-1.36,2.58-1.36c1.15-0.07,2.17,0.34,2.92,1.36c0.61,0.75,0.88,1.36,1.02,2.79
			c0.21,0.95,0.14,1.83,0.21,2.78c0.07,0.82,0,1.56,0.07,2.38c0,0.41,0,0.88-0.07,1.29c0,0.41,0.07,0.88,0.07,1.29
			c-0.07,1.09-0.07,2.17-0.07,3.26v1.97c0,0.68-0.07,1.36-0.07,2.04v2.04c0,0.61-0.07,1.29-0.07,1.97c0,0.61,0,1.15-0.07,1.77
			c0,0.88-0.07,1.83-0.07,2.79c0,0.88-0.07,1.76-0.07,2.58c-0.07,1.36-0.2,4.35-0.2,5.23c0,0.95-0.07,1.9-0.54,2.79
			c-0.47,0.95-1.22,1.43-2.17,1.63c-0.61,0.2-1.15,0.2-1.7,0C85.98,121.55,85.17,120.74,84.89,119.52z"/>
		<path class="st0" d="M109.49,121.15c-0.95-0.75-1.36-1.7-1.43-2.85c-0.2-1.9-0.07-3.8-0.14-5.71c0-0.41-0.14-0.81-0.34-1.15
			c-0.21-0.2-0.34-0.27-0.61-0.34c-0.81,0-1.63-0.07-2.38-0.14c-0.68-0.07-1.36-0.07-2.04-0.07c-0.27-0.07-0.48,0-0.61,0.2
			c-0.2,0.2-0.41,0.41-0.54,0.61c-0.21,0.14-0.27,0.41-0.34,0.68l-0.41,2.99c-0.14,0.68-0.2,1.43-0.34,2.11
			c-0.27,0.88-0.82,1.5-1.43,2.11c-0.27,0.21-0.54,0.34-0.88,0.48c-0.81,0.41-1.63,0.14-2.31-0.41c-0.68-0.54-1.15-1.29-1.29-2.11
			c-0.14-0.48-0.27-0.95-0.07-1.43v-0.14c-0.07-0.68,0.07-1.36,0.14-1.97c0.14-1.09,0.27-2.11,0.48-3.19l0.61-3.19
			c0.2-1.15,0.54-2.31,0.82-3.46c0.61-2.38,1.36-4.69,2.17-6.93c0.48-1.43,1.09-2.85,1.56-4.21l1.77-4.41
			c0.47-1.29,1.09-2.45,1.9-3.53c0.41-0.61,1.09-0.88,1.76-0.95c1.15-0.2,2.17,0.2,2.99,1.02c0.61,0.61,1.09,1.29,1.5,2.04
			c0.61,0.95,1.09,1.97,1.5,2.99c0.47,1.15,0.88,2.31,1.15,3.53c0.14,0.75,0.41,1.49,0.47,2.17c0.07,0.75,0.34,1.5,0.27,2.17
			c0,0.34,0.2,0.54,0.2,0.88c-0.07,0.27-0.14,0.54,0.07,0.82c0.07,0,0,0.07,0,0.14c-0.07,0.75,0.14,1.56,0.21,2.31
			c0.07,1.22,0,2.51,0.14,3.74c0.14,1.56,0.07,3.12,0.07,4.69c0,0.68,0.21,1.36,0.14,2.11v2.11c0,0.82,0.07,1.7,0,2.51
			c0,0.75-0.14,1.56-0.41,2.31c-0.34,0.95-1.02,1.7-2.04,1.97C110.98,121.89,110.17,121.76,109.49,121.15z M107.59,103.69
			c0.07-0.27,0.07-0.54,0.07-0.88c0.07-0.41-0.14-0.88-0.14-1.29c0-0.75-0.2-1.43-0.14-2.17v-0.07c-0.2-0.82-0.27-1.63-0.41-2.45
			c-0.07-0.41-0.14-0.75-0.27-1.15c0-0.14-0.07-0.34-0.27-0.34c-0.27-0.07-0.41,0.07-0.54,0.21c-0.07,0.14-0.14,0.2-0.14,0.27
			c-0.41,1.02-0.75,2.04-1.16,2.99c-0.41,1.29-0.88,2.51-1.22,3.74c-0.14,0.41-0.21,0.75-0.21,1.15s0.21,0.68,0.61,0.82
			c0.2,0.14,0.47,0.14,0.75,0.14c0.27,0,0.61,0,0.82,0.07c0.34,0.14,0.61,0.07,0.95,0.07C106.97,104.71,107.45,104.3,107.59,103.69z
			"/>
		<path class="st0" d="M124.77,121.01c-0.48-0.54-0.75-1.16-0.82-1.84c-0.14-0.41-0.14-0.81-0.14-1.29c0-1.02-0.07-2.11,0-3.19
			c0.14-1.36,0-2.72,0.14-4.08c0.14-1.29,0-2.65,0.14-3.94c0.14-0.95,0-1.97,0.14-2.92c0.14-0.82,0-1.56,0.14-2.31
			c0.14-0.75,0-1.43,0.14-2.17c0.14-0.95,0-1.9,0.14-2.79c0.2-1.5,0.07-2.92,0.07-4.42c0-0.68-0.2-1.36-0.47-1.97
			c-0.21-0.41-0.54-0.61-1.02-0.61h-3.8c-1.29,0-2.17-0.48-2.85-1.43c-0.2-0.34-0.34-0.68-0.27-1.02c0-0.34-0.07-0.61,0.07-0.95
			c0.27-1.02,1.43-1.97,2.58-2.04c0.41,0,0.82-0.07,1.22-0.07h4.96c1.7,0,3.46,0.07,5.16-0.07c1.97-0.07,3.94-0.07,5.84-0.07
			c0.88,0,1.7,0.2,2.44,0.68c0.68,0.34,1.29,0.95,1.43,1.77c0,0.47,0.07,1.09-0.27,1.5c-0.27,0.34-0.75,0.61-1.15,0.82
			c-0.07,0.07-0.14,0.13-0.27,0.13c-0.47,0.27-1.09,0.48-1.7,0.54c-1.09,0.14-2.17,0.07-3.19,0.07c-0.41,0-0.81,0.2-1.22,0.14
			c-0.14,0-0.2,0.14-0.27,0.2c-0.48,0.41-0.82,0.95-0.95,1.56c-0.07,0.48-0.07,0.88-0.07,1.36c0,1.09-0.07,2.17,0,3.26
			c0,1.22-0.27,2.45-0.2,3.67c-0.21,0.75,0,1.56-0.14,2.31c-0.07,0.82,0,1.63-0.14,2.38c-0.14,1.02,0,1.97-0.07,2.99
			c-0.21,1.43,0,2.92-0.21,4.35c-0.07,1.22,0.07,2.45-0.07,3.67c-0.14,0.82-0.07,1.63-0.14,2.38c-0.14,0.82-0.14,1.63-0.54,2.38
			c-0.34,0.75-0.75,1.36-1.63,1.77C126.67,122.23,125.38,121.83,124.77,121.01z"/>
		<path class="st0" d="M150.52,121.01c-0.48-0.54-0.75-1.16-0.82-1.84c-0.14-0.41-0.14-0.81-0.14-1.29c0-1.02-0.07-2.11,0-3.19
			c0.14-1.36,0-2.72,0.14-4.08c0.14-1.29,0-2.65,0.14-3.94c0.14-0.95,0-1.97,0.14-2.92c0.14-0.82,0-1.56,0.14-2.31
			c0.14-0.75,0-1.43,0.14-2.17c0.14-0.95,0-1.9,0.14-2.79c0.2-1.5,0.07-2.92,0.07-4.42c0-0.68-0.2-1.36-0.47-1.97
			c-0.21-0.41-0.54-0.61-1.02-0.61h-3.8c-1.29,0-2.17-0.48-2.85-1.43c-0.2-0.34-0.34-0.68-0.27-1.02c0-0.34-0.07-0.61,0.07-0.95
			c0.27-1.02,1.43-1.97,2.58-2.04c0.41,0,0.82-0.07,1.22-0.07h4.96c1.7,0,3.46,0.07,5.16-0.07c1.97-0.07,3.94-0.07,5.84-0.07
			c0.88,0,1.7,0.2,2.44,0.68c0.68,0.34,1.29,0.95,1.43,1.77c0,0.47,0.07,1.09-0.27,1.5c-0.27,0.34-0.75,0.61-1.15,0.82
			c-0.07,0.07-0.14,0.13-0.27,0.13c-0.47,0.27-1.09,0.48-1.7,0.54c-1.09,0.14-2.17,0.07-3.19,0.07c-0.41,0-0.81,0.2-1.22,0.14
			c-0.14,0-0.2,0.14-0.27,0.2c-0.48,0.41-0.82,0.95-0.95,1.56c-0.07,0.48-0.07,0.88-0.07,1.36c0,1.09-0.07,2.17,0,3.26
			c0,1.22-0.27,2.45-0.2,3.67c-0.2,0.75,0,1.56-0.14,2.31c-0.07,0.82,0,1.63-0.14,2.38c-0.14,1.02,0,1.97-0.07,2.99
			c-0.21,1.43,0,2.92-0.21,4.35c-0.07,1.22,0.07,2.45-0.07,3.67c-0.14,0.82-0.07,1.63-0.14,2.38c-0.14,0.82-0.14,1.63-0.54,2.38
			c-0.34,0.75-0.75,1.36-1.63,1.77C152.42,122.23,151.13,121.83,150.52,121.01z"/>
		<path class="st0" d="M171.92,120.4c-1.7-0.54-2.79-1.63-3.4-3.26c-0.34-0.88-0.48-1.77-0.61-2.65c-0.2-1.43,0-2.79-0.14-3.74
			c0-1.49-0.07-2.58,0.07-3.67c0.07-1.15,0-2.24,0.14-3.4c0.07-0.82,0-1.56,0.14-2.38c0.07-0.82,0-1.7,0.14-2.51
			c0.2-1.63,0.14-3.19,0.07-4.82c0-0.88-0.07-1.77-0.14-2.72v-0.34c-0.14-0.27-0.14-0.54,0-0.88c0.07-0.14,0.07-0.41,0-0.54
			c-0.27-0.68,0-1.29,0.21-1.9c0.41-0.95,1.29-1.49,2.31-1.83c0.68-0.27,1.43-0.34,2.17-0.47c0.68-0.14,1.43,0,2.11-0.21
			c0.07-0.07,0.07,0,0.14,0c1.83-0.07,3.67-0.27,5.5-0.2c1.29,0.14,2.44,0.68,3.26,1.76c0.61,0.88,0.61,2.04-0.07,3.06
			c-0.54,0.95-1.5,1.29-2.51,1.63c-0.41,0.14-0.82,0.14-1.29,0.14c-1.22,0-2.44,0.2-3.73,0.2c-0.82-0.07-1.29,0.54-1.29,1.36
			c0,1.56,0,3.12-0.07,4.76c0,0.41,0.07,0.75-0.07,1.15c-0.14,0.48,0.07,0.95,0.27,1.36c0.14,0.27,0.34,0.47,0.61,0.47
			c0.75-0.07,1.43,0,2.11-0.07c1.02,0,1.97,0.2,2.92,0.61c1.09,0.41,1.7,1.43,1.76,2.58c0.14,1.36-0.88,2.51-2.24,2.99
			c-0.81,0.27-1.63,0.47-2.51,0.47c-0.54-0.07-1.15,0-1.7,0h-0.47c-0.95,0.27-1.15,0.54-1.22,1.5v3.53c0,0.54,0.14,1.02,0.2,1.5
			c0.07,0.82,0.61,1.29,1.49,1.29c0.75,0,1.5-0.07,2.24,0c0.95,0.07,1.9,0.14,2.79,0.68c0.75,0.47,1.15,1.09,1.29,1.9
			c0.07,0.68-0.14,1.22-0.61,1.77c-0.61,0.68-1.43,1.02-2.38,1.15c-0.61,0.07-1.29,0.14-1.9,0.14c-0.75-0.07-1.5,0.21-2.24,0.07
			C174.16,120.81,173.01,120.74,171.92,120.4z"/>
		<path class="st0" d="M188.77,121.01c-0.34-0.21-0.68-0.48-0.95-0.82c-0.54-0.75-1.09-1.56-1.15-2.65l-0.2-2.65
			c-0.07-0.34,0.07-0.68,0.07-1.02c-0.07-0.34-0.2-0.68,0-1.02c0.07-0.07,0-0.14,0-0.2c-0.14-0.61,0-1.29,0.07-1.9
			c0-0.95,0-1.97,0.07-2.92c0.07-0.48,0.07-1.02,0.07-1.56c0.07-0.54,0.07-1.09,0.14-1.63c0-0.48,0.07-1.02,0.07-1.5
			c0-0.61,0-1.15,0.07-1.7c0.07-0.41,0.07-0.75,0.07-1.09c0-0.88,0.07-1.7,0.14-2.51c0.07-0.88,0.14-1.7,0.14-2.58
			c0.07-0.54,0.07-1.02,0.07-1.56c0-0.61,0.07-1.15,0.14-1.7c0.13-0.82,0.2-1.63,0.54-2.31c0.27-0.54,0.54-1.15,0.88-1.63
			c0.68-0.95,1.63-1.56,2.72-1.83c1.02-0.27,1.97-0.27,2.92-0.34c1.83,0.21,3.53,0.68,5.09,1.7c1.5,0.95,2.65,2.11,3.46,3.74
			c0.34,0.68,0.68,1.5,0.75,2.31c0,0.27,0,0.48,0.07,0.75c0.14,1.97-0.27,3.87-1.22,5.64c-0.41,0.88-0.95,1.63-1.56,2.44
			c-0.75,1.09-1.77,1.97-2.72,2.85c-0.47,0.47-0.54,1.09-0.68,1.7c0.2,0.34,0.2,0.68,0.47,1.02c0.82,0.95,1.63,1.97,2.44,2.99
			c0.95,1.16,1.9,2.38,2.79,3.6c0.61,0.82,1.16,1.77,1.16,2.85c0,0.75-0.14,1.5-0.68,2.04c-0.34,0.34-0.61,0.75-1.09,0.88
			c-1.15,0.41-2.24,0.34-3.26-0.41c-0.88-0.61-1.5-1.49-2.17-2.31c-0.82-1.15-1.7-2.24-2.65-3.33l-0.75-1.02
			c-0.2-0.21-0.47-0.27-0.68-0.21c-0.2,0.07-0.2,0.27-0.27,0.48v0.14c0.07,0.95-0.07,1.9,0.07,2.85c0.07,0.47,0,0.95-0.14,1.5
			c-0.27,0.95-0.61,1.76-1.29,2.51c-0.41,0.41-0.82,0.61-1.36,0.68C189.79,121.35,189.24,121.35,188.77,121.01z M195.7,98.73
			c0.61-0.75,1.15-1.43,1.43-2.38c0.14-0.54,0.34-1.16,0.2-1.7c-0.2-1.02-1.36-1.77-2.44-1.63c-0.54,0.07-0.61,0.07-0.75,0.68
			c-0.07,0.47-0.13,1.02-0.13,1.49c0.07,0.54,0,1.09,0,1.56c-0.07,0.68-0.07,1.36-0.14,1.83c0,0.27,0,0.41,0.07,0.54
			c0,0.54,0.27,0.61,0.82,0.41C195.15,99.34,195.43,99,195.7,98.73z"/>
	</g>
	<g>
		<g>
			<path class="st0" d="M8.23,104.54c-0.24-0.28-0.38-0.59-0.42-0.94c-0.07-0.21-0.07-0.42-0.07-0.66c0-0.52-0.04-1.08,0-1.63
				c0.07-0.69,0-1.39,0.07-2.08c0.07-0.66,0-1.35,0.07-2.02c0.07-0.49,0-1.01,0.07-1.49c0.07-0.42,0-0.8,0.07-1.18
				c0.07-0.38,0-0.73,0.07-1.11c0.07-0.49,0-0.97,0.07-1.43c0.1-0.76,0.04-1.49,0.04-2.26c0-0.35-0.1-0.7-0.25-1.01
				c-0.1-0.21-0.28-0.31-0.52-0.31H5.48c-0.66,0-1.11-0.24-1.46-0.73c-0.1-0.17-0.17-0.35-0.14-0.52c0-0.17-0.04-0.31,0.04-0.49
				c0.14-0.52,0.73-1.01,1.32-1.04c0.21,0,0.42-0.04,0.63-0.04H8.4c0.87,0,1.77,0.04,2.64-0.04c1.01-0.03,2.02-0.03,2.99-0.03
				c0.45,0,0.87,0.1,1.25,0.35c0.35,0.17,0.66,0.49,0.73,0.9c0,0.24,0.04,0.56-0.14,0.76c-0.14,0.17-0.38,0.31-0.59,0.42
				c-0.04,0.04-0.07,0.07-0.14,0.07c-0.24,0.14-0.55,0.24-0.87,0.28c-0.55,0.07-1.11,0.04-1.63,0.04c-0.21,0-0.42,0.1-0.63,0.07
				c-0.07,0-0.1,0.07-0.14,0.1c-0.24,0.21-0.42,0.49-0.49,0.8c-0.03,0.24-0.03,0.45-0.03,0.69c0,0.56-0.04,1.11,0,1.67
				c0,0.63-0.14,1.25-0.1,1.88c-0.1,0.38,0,0.8-0.07,1.18c-0.04,0.42,0,0.83-0.07,1.22c-0.07,0.52,0,1.01-0.03,1.53
				c-0.1,0.73,0,1.5-0.1,2.22c-0.04,0.63,0.04,1.25-0.04,1.88c-0.07,0.42-0.03,0.83-0.07,1.22c-0.07,0.42-0.07,0.83-0.28,1.22
				c-0.17,0.38-0.38,0.7-0.84,0.9C9.2,105.16,8.54,104.95,8.23,104.54z"/>
			<path class="st0" d="M18.75,104.99c-0.45-0.38-0.73-0.87-0.83-1.46c-0.1-0.55-0.04-1.15-0.07-1.7c0-0.21,0.03-0.42-0.07-0.62
				c-0.03-0.1-0.03-0.25,0-0.35c0.1-0.28,0.07-0.56,0.07-0.87c0-1.7-0.04-3.44,0.03-5.18c0.04-1.01-0.03-2.01,0.07-3.02
				c0.07-0.84,0-1.63,0.07-2.43c0.03-0.76,0.03-1.53,0.07-2.26c0-0.63,0.28-1.18,0.8-1.56c0.24-0.17,0.52-0.31,0.83-0.28h0.21
				c0.63-0.07,1.04,0.28,1.39,0.73c0.21,0.28,0.31,0.62,0.31,1.01c0,1.01,0.04,2.01-0.03,3.02c-0.07,0.87-0.04,1.7-0.04,2.57
				c-0.03,0.17-0.03,0.35,0.1,0.45c0.17,0.14,0.31,0.21,0.55,0.21c0.63,0.03,1.25-0.07,1.91-0.07c0.28,0,0.59-0.1,0.83-0.31
				c0.35-0.21,0.52-0.52,0.52-0.94c0-0.31,0.04-0.59-0.03-0.9c-0.1-0.8-0.04-1.6-0.04-2.4c0-0.73,0.38-1.29,1.01-1.63
				c0.9-0.42,1.91,0.03,2.26,0.76c0.17,0.38,0.28,0.76,0.28,1.18c-0.04,0.83,0.1,1.63,0.07,2.47c0.1,0.38,0.03,0.8,0.1,1.15
				c0.07,0.45,0,0.9,0.07,1.32c0.07,0.42,0,0.87,0.07,1.29c0.07,0.38,0.04,0.73,0.07,1.11c0.07,0.42,0.04,0.87,0.1,1.32
				c0.04,0.31,0.04,0.63,0.04,0.94c0,0.24,0.1,0.45,0.1,0.7c-0.03,0.24,0.04,2.12,0.17,2.36c-0.03,0.49,0.07,1.01-0.1,1.5
				c-0.17,0.55-0.52,1.01-1.11,1.25c-0.17,0.07-0.35-0.04-0.49,0.1c-0.42-0.1-0.83-0.21-1.15-0.52c-0.49-0.45-0.7-1.01-0.73-1.67
				c0-0.24-0.07-0.49-0.07-0.73c0-0.24-0.07-2.15-0.17-2.36c-0.04-0.1,0-0.25,0-0.38c0.04-0.55-0.17-1.08-0.35-1.56
				c-0.03-0.14-0.14-0.21-0.21-0.31c-0.07-0.17-0.21-0.28-0.42-0.17c-0.03,0.04-0.1,0-0.17,0c-0.76-0.04-1.53,0.1-2.29,0.1
				c-0.8,0-1.11,0.63-1.11,1.15v2.64c0,0.76,0,1.56,0.04,2.33c0,0.45-0.07,0.9-0.28,1.32c-0.21,0.45-0.55,0.87-1.08,1.01
				C19.62,105.37,19.14,105.33,18.75,104.99z"/>
			<path class="st0" d="M39.32,104.61c-0.49-0.38-0.69-0.87-0.73-1.46c-0.1-0.97-0.04-1.95-0.07-2.92c0-0.21-0.07-0.42-0.17-0.59
				c-0.1-0.1-0.17-0.14-0.31-0.17c-0.42,0-0.84-0.04-1.22-0.07c-0.35-0.04-0.7-0.04-1.04-0.04c-0.14-0.03-0.24,0-0.31,0.1
				c-0.1,0.1-0.21,0.21-0.28,0.31c-0.1,0.07-0.14,0.21-0.17,0.35l-0.21,1.53c-0.07,0.35-0.1,0.73-0.17,1.08
				c-0.14,0.45-0.42,0.76-0.73,1.08c-0.14,0.1-0.28,0.17-0.45,0.24c-0.42,0.21-0.83,0.07-1.18-0.21c-0.35-0.28-0.59-0.66-0.66-1.08
				c-0.07-0.24-0.14-0.49-0.04-0.73v-0.07c-0.03-0.35,0.04-0.7,0.07-1.01c0.07-0.55,0.14-1.08,0.24-1.63l0.31-1.63
				c0.1-0.59,0.28-1.18,0.42-1.77c0.31-1.21,0.7-2.4,1.11-3.54c0.24-0.73,0.55-1.46,0.8-2.15l0.9-2.26c0.24-0.66,0.56-1.25,0.97-1.8
				c0.21-0.31,0.55-0.45,0.9-0.49c0.59-0.1,1.11,0.1,1.53,0.52c0.31,0.31,0.56,0.66,0.76,1.04c0.31,0.49,0.56,1.01,0.76,1.53
				c0.24,0.59,0.45,1.18,0.59,1.81c0.07,0.38,0.21,0.76,0.25,1.11c0.03,0.38,0.17,0.76,0.14,1.11c0,0.17,0.1,0.28,0.1,0.45
				c-0.04,0.14-0.07,0.28,0.03,0.42c0.04,0,0,0.03,0,0.07c-0.03,0.38,0.07,0.8,0.1,1.18c0.04,0.63,0,1.29,0.07,1.91
				c0.07,0.8,0.04,1.6,0.04,2.4c0,0.35,0.1,0.7,0.07,1.08v1.08c0,0.42,0.04,0.87,0,1.29c0,0.38-0.07,0.8-0.21,1.18
				c-0.17,0.49-0.52,0.87-1.04,1.01C40.09,104.99,39.67,104.92,39.32,104.61z M38.35,95.67c0.03-0.14,0.03-0.28,0.03-0.45
				c0.04-0.21-0.07-0.45-0.07-0.66c0-0.38-0.1-0.73-0.07-1.11v-0.03c-0.1-0.42-0.14-0.84-0.21-1.25c-0.04-0.21-0.07-0.38-0.14-0.59
				c0-0.07-0.03-0.17-0.14-0.17c-0.14-0.03-0.21,0.04-0.28,0.1c-0.04,0.07-0.07,0.1-0.07,0.14c-0.21,0.52-0.38,1.04-0.59,1.53
				c-0.21,0.66-0.45,1.29-0.63,1.91c-0.07,0.21-0.1,0.38-0.1,0.59c0,0.21,0.1,0.35,0.31,0.42c0.1,0.07,0.24,0.07,0.38,0.07
				c0.14,0,0.31,0,0.42,0.03c0.17,0.07,0.31,0.04,0.49,0.04C38.04,96.2,38.28,95.99,38.35,95.67z"/>
			<path class="st0" d="M47.84,104.54c-0.24-0.28-0.38-0.59-0.42-0.94c-0.07-0.21-0.07-0.42-0.07-0.66c0-0.52-0.04-1.08,0-1.63
				c0.07-0.69,0-1.39,0.07-2.08c0.07-0.66,0-1.35,0.07-2.02c0.07-0.49,0-1.01,0.07-1.49c0.07-0.42,0-0.8,0.07-1.18
				c0.07-0.38,0-0.73,0.07-1.11c0.07-0.49,0-0.97,0.07-1.43c0.1-0.76,0.04-1.49,0.04-2.26c0-0.35-0.1-0.7-0.25-1.01
				c-0.1-0.21-0.28-0.31-0.52-0.31h-1.95c-0.66,0-1.11-0.24-1.46-0.73c-0.1-0.17-0.17-0.35-0.14-0.52c0-0.17-0.04-0.31,0.03-0.49
				c0.14-0.52,0.73-1.01,1.32-1.04c0.21,0,0.42-0.04,0.63-0.04h2.54c0.87,0,1.77,0.04,2.64-0.04c1.01-0.03,2.02-0.03,2.99-0.03
				c0.45,0,0.87,0.1,1.25,0.35c0.35,0.17,0.66,0.49,0.73,0.9c0,0.24,0.04,0.56-0.14,0.76c-0.14,0.17-0.38,0.31-0.59,0.42
				c-0.04,0.04-0.07,0.07-0.14,0.07c-0.24,0.14-0.55,0.24-0.87,0.28c-0.55,0.07-1.11,0.04-1.63,0.04c-0.21,0-0.42,0.1-0.63,0.07
				c-0.07,0-0.1,0.07-0.14,0.1c-0.24,0.21-0.42,0.49-0.49,0.8c-0.03,0.24-0.03,0.45-0.03,0.69c0,0.56-0.04,1.11,0,1.67
				c0,0.63-0.14,1.25-0.1,1.88c-0.1,0.38,0,0.8-0.07,1.18c-0.04,0.42,0,0.83-0.07,1.22c-0.07,0.52,0,1.01-0.03,1.53
				c-0.1,0.73,0,1.5-0.1,2.22c-0.04,0.63,0.04,1.25-0.04,1.88c-0.07,0.42-0.03,0.83-0.07,1.22c-0.07,0.42-0.07,0.83-0.28,1.22
				c-0.17,0.38-0.38,0.7-0.83,0.9C48.81,105.16,48.15,104.95,47.84,104.54z"/>
		</g>
		<g>
			<path class="st0" d="M38.38,115.69c-0.5,0.05-1.09,0.1-1.59-0.05c-0.08-0.05-0.25,0-0.33,0c-2.94,0-5.79-0.1-8.72,0
				c-1.68,0.05-3.36,0.05-5.03,0.05c-1.68,0.05-3.36,0.05-5.03,0.05c-1.01,0-2.01-0.16-2.94-0.37c-1.59-0.37-2.68-1.51-2.26-2.5
				c0.25-0.57,0.84-1.09,1.84-1.36c0.59-0.21,1.17-0.31,1.84-0.37c2.77-0.21,5.54-0.05,8.39-0.1h2.26h9.06
				c0.34,0,0.67,0.05,1.01,0.1c0.42,0.05,0.92,0,1.43-0.05c0.92-0.1,1.93-0.1,2.94,0c0.67,0.1,1.42,0.16,2.1,0.31
				c1.09,0.26,2.01,0.68,2.43,1.46c0.34,0.73,0.17,1.36-0.67,1.93c-0.67,0.52-1.68,0.78-2.68,0.89c-0.75,0.1-1.51,0.16-2.35,0.16
				C39.55,115.84,38.96,115.69,38.38,115.69z"/>
		</g>
	</g>
	<g>
		<g>
			<path class="st1" d="M259.6,6.82c-20.4,0-36.94,16.54-36.94,36.94c0,3.23,0.42,6.36,1.19,9.35l-11.52,15.47h19.9
				c6.76,7.45,16.52,12.13,27.37,12.13c20.4,0,36.94-16.54,36.94-36.94C296.54,23.36,280,6.82,259.6,6.82z"/>
			<path class="st2" d="M281.26,36.11c-8.48-13.41-20.03-0.63-21.18,0.7c-1.15-1.33-12.7-14.11-21.18-0.7
				c-8.52,13.47,21.18,29.74,21.18,29.74S289.78,49.59,281.26,36.11z"/>
			<g>
				<path class="st0" d="M254.62,70.23c-0.35,0-0.69-0.09-1.01-0.26c-0.83-0.45-20.29-11.23-23.38-23.18
					c-0.88-3.41-0.4-6.62,1.43-9.52c2.76-4.37,6.16-6.73,10.1-7.02c5.47-0.4,10.35,3.4,12.86,5.81c2.51-2.41,7.39-6.22,12.86-5.81
					c3.94,0.29,7.33,2.66,10.1,7.02l0,0c1.83,2.9,2.32,6.1,1.43,9.52c-3.09,11.95-22.56,22.73-23.38,23.18
					C255.31,70.14,254.96,70.23,254.62,70.23z M242.56,34.41c-0.16,0-0.33,0.01-0.49,0.02c-2.54,0.19-4.85,1.9-6.86,5.08
					c-1.21,1.91-1.51,3.94-0.92,6.22c2.27,8.81,16.4,17.66,20.33,19.97c3.92-2.31,18.05-11.17,20.33-19.97
					c0.59-2.28,0.29-4.31-0.92-6.22l0,0c-2.01-3.18-4.32-4.89-6.86-5.08c-4.26-0.32-8.9,3.64-10.96,6.03
					c-0.4,0.46-0.98,0.73-1.59,0.73h0c-0.61,0-1.19-0.27-1.59-0.73C251.04,38.16,246.68,34.41,242.56,34.41z"/>
			</g>
			<g>
				<path class="st0" d="M254.14,85.08c-10.68,0-20.93-4.41-28.28-12.13h-18.98c-0.79,0-1.52-0.45-1.88-1.16
					c-0.36-0.71-0.28-1.56,0.19-2.2l10.93-14.67c-0.68-2.9-1.02-5.89-1.02-8.89c0-21.53,17.51-39.04,39.04-39.04
					c21.53,0,39.04,17.51,39.04,39.04S275.67,85.08,254.14,85.08z M211.05,68.75h15.72c0.59,0,1.16,0.25,1.55,0.69
					c6.6,7.27,16,11.44,25.82,11.44c19.21,0,34.84-15.63,34.84-34.84c0-19.21-15.63-34.84-34.84-34.84
					c-19.21,0-34.84,15.63-34.84,34.84c0,2.98,0.38,5.95,1.13,8.82c0.16,0.62,0.03,1.27-0.35,1.78L211.05,68.75z"/>
			</g>
		</g>
		<g>
			<path class="st0" d="M256.87,58.28c-0.32,0-0.61-0.2-0.72-0.51l-1.89-5.39h-6c-0.34,0-0.64-0.22-0.73-0.55l-2.06-7.27l-2.16,7.28
				c-0.1,0.32-0.39,0.54-0.73,0.54h-6.34c-0.42,0-0.76-0.34-0.76-0.76s0.34-0.76,0.76-0.76h5.78l2.75-9.23
				c0.1-0.32,0.39-0.54,0.73-0.54c0,0,0,0,0,0c0.34,0,0.63,0.23,0.72,0.55l2.62,9.22h5.97c0.32,0,0.61,0.2,0.72,0.51l1.32,3.76
				l1.44-4.47c0.1-0.31,0.39-0.53,0.72-0.53h14.37c0.42,0,0.76,0.34,0.76,0.76s-0.34,0.76-0.76,0.76h-13.82l-1.96,6.09
				C257.49,58.06,257.2,58.27,256.87,58.28C256.87,58.28,256.87,58.28,256.87,58.28z"/>
		</g>
	</g>
</g>
</svg>
