<svg xmlns="http://www.w3.org/2000/svg" viewBox="0 0 645.63 211.81"><defs><style>.cls-1{fill:#fff;}</style></defs><g id="Capa_2" data-name="Capa 2"><g id="Layer_1" data-name="Layer 1"><path class="cls-1" d="M77.14,60.67v44.51a5.64,5.64,0,0,1-5.54,5.7H57a5.64,5.64,0,0,1-5.54-5.7V67.64c0-9.35-5.7-13.78-12.83-13.78-7.6,0-12.83,4.75-12.83,13.78v37.54a5.67,5.67,0,0,1-5.7,5.7H5.7a5.67,5.67,0,0,1-5.7-5.7V36.27a5.68,5.68,0,0,1,5.7-5.7H21.54a4.26,4.26,0,0,1,4.28,4.28v3c4.43-5.23,11.4-9.19,21.86-9.19C67.8,28.67,77.14,44.51,77.14,60.67Z"/><path class="cls-1" d="M166,30.57a5.68,5.68,0,0,1,5.7,5.7v68.91a5.67,5.67,0,0,1-5.7,5.7H150.16A4.23,4.23,0,0,1,146,106.6v-3c-4.59,5.23-11.56,9.19-22,9.19-20,0-29.47-15.68-29.47-32V36.27a5.68,5.68,0,0,1,5.7-5.7h14.42a5.68,5.68,0,0,1,5.7,5.7V73.81c0,9.35,5.7,13.94,12.83,13.94,7.45,0,12.83-4.91,12.83-13.94V36.27a5.65,5.65,0,0,1,5.55-5.7Z"/><path class="cls-1" d="M309.19,57.82v47.36a5.67,5.67,0,0,1-5.7,5.7H289.08a5.68,5.68,0,0,1-5.71-5.7V64.79c0-9-6.49-10.93-10.61-10.93-4.28,0-10.77,2.06-10.77,10.93v40.39a5.68,5.68,0,0,1-5.7,5.7H241.87a5.64,5.64,0,0,1-5.54-5.7V64.79c0-9-6.5-10.93-10.77-10.93-4.12,0-10.77,2.06-10.77,10.93v40.39a5.65,5.65,0,0,1-5.55,5.7H194.83a5.68,5.68,0,0,1-5.71-5.7V36.27a5.69,5.69,0,0,1,5.71-5.7h15.84a4.23,4.23,0,0,1,4.12,4.28v1.9c4.11-4.59,10.45-8.08,20-8.08,11.09,0,18.38,4.12,22.66,10.77,4.59-6,12-10.77,23-10.77C300.16,28.67,309.19,41.66,309.19,57.82Z"/><path class="cls-1" d="M413.58,70.8c0,20.91-13.63,42-38.5,42-10.92,0-18.05-4-22.65-9.82v3.64a4.26,4.26,0,0,1-4.27,4.28H332.32a5.68,5.68,0,0,1-5.71-5.7V5.7A5.68,5.68,0,0,1,332.32,0h14.41a5.67,5.67,0,0,1,5.7,5.7V38.49c4.6-5.86,11.73-9.82,22.65-9.82C400,28.67,413.58,49.74,413.58,70.8Zm-26,0c0-10-6.5-17.26-17.27-17.26-9.66,0-17.1,6.49-17.1,17.26s7.44,17.11,17.1,17.11C381.1,87.91,387.6,80.63,387.6,70.8Z"/><path class="cls-1" d="M504.5,72.86A5.66,5.66,0,0,1,499,78.57H446.21c2.69,9.34,10.45,13.62,20.27,13.62a22.19,22.19,0,0,0,14.26-4.91,4.06,4.06,0,0,1,4.91-.48l11.24,6.66A4.46,4.46,0,0,1,498,100c-7,7.76-18.06,12.83-31.52,12.83-27.24,0-45.14-17.11-45.14-42,0-23.76,18.37-42.13,41.34-42.13C485.17,28.67,505,42.93,504.5,72.86ZM481.05,63c-2.06-9.5-8.55-13.78-17.42-13.78-8.24,0-14.89,4.91-17.27,13.78Z"/><path class="cls-1" d="M563.58,29.15a4.26,4.26,0,0,1,5.07,4.11V51.48a4.34,4.34,0,0,1-4.6,4.28c-18.69-1.27-20.91,10.77-20.91,23.44v26a5.64,5.64,0,0,1-5.54,5.7H523a5.65,5.65,0,0,1-5.55-5.7V36.27a5.65,5.65,0,0,1,5.55-5.7H537.6a5.65,5.65,0,0,1,5.54,5.7v6.5A31,31,0,0,1,563.58,29.15Z"/><path class="cls-1" d="M645.63,85.85c0,17-12.36,26.93-36,26.93-14.25,0-28-4-33.26-14.73a4.11,4.11,0,0,1,2.53-5.86l15.68-4.91a4.56,4.56,0,0,1,4.76,1.58c1.58,2.22,4.75,4,10,4,5.39,0,9.67-1.58,9.67-5.86,0-5.38-8.4-5.23-17.74-7.28C585.75,76.35,577.52,70.8,577.52,55c0-16.79,14.25-26.29,34.37-26.29,12,0,24.08,5.07,29.15,15.52a4.42,4.42,0,0,1-2.86,6l-13.62,3.33a4.2,4.2,0,0,1-4.28-1.74c-1.58-2.22-4.59-3.49-8.23-3.49-5.07,0-9.67,1.43-9.67,6,0,5.23,8.56,5.55,14.89,6.81C637.55,65.42,645.63,71.12,645.63,85.85Z"/><path class="cls-1" d="M35.38,173.88H29.07v15.77c0,5.22,1.87,7.88,6.9,7.88h.29a2.5,2.5,0,0,1,2.66,2.56v8.47a2.54,2.54,0,0,1-2.17,2.56,28.76,28.76,0,0,1-4.72.4c-15.37,0-18.92-10.44-18.92-20.3V173.88H9.56A3.53,3.53,0,0,1,6,170.33v-6.1a3.54,3.54,0,0,1,3.55-3.55h3.55v-7a3.49,3.49,0,0,1,3.45-3.44h9.06a3.49,3.49,0,0,1,3.45,3.44v7h6.31a3.53,3.53,0,0,1,3.54,3.55v6.1A3.52,3.52,0,0,1,35.38,173.88Z"/><path class="cls-1" d="M101.09,179.4v27.68a3.51,3.51,0,0,1-3.45,3.55h-9a3.53,3.53,0,0,1-3.55-3.55V183.73c0-5.81-3.55-8.57-8-8.57-4.73,0-8,3-8,8.57v23.35a3.53,3.53,0,0,1-3.55,3.55h-9a3.44,3.44,0,0,1-3.44-3.55V145.21a3.45,3.45,0,0,1,3.44-3.55h9a3.54,3.54,0,0,1,3.55,3.55v20c2.76-3.25,7.09-5.71,13.59-5.71C95.28,159.5,101.09,169.35,101.09,179.4Z"/><path class="cls-1" d="M153.7,160.68h9.85a3.54,3.54,0,0,1,3.55,3.55v42.85a3.53,3.53,0,0,1-3.55,3.55H153.7A2.65,2.65,0,0,1,151,208v-2.26c-3,3.64-7.39,6.1-14.09,6.1-15.57,0-23.94-13.1-23.94-26.1S121.38,159.5,137,159.5c6.7,0,11.13,2.46,14.09,6.11v-2.27A2.65,2.65,0,0,1,153.7,160.68Zm-3.15,25c0-6.71-4.73-10.74-10.74-10.74-6.6,0-10.64,4.53-10.64,10.74s4,10.64,10.64,10.64C145.82,196.35,150.55,192.31,150.55,185.71Z"/><path class="cls-1" d="M206.41,173.88H200.1v15.77c0,5.22,1.87,7.88,6.9,7.88h.29a2.51,2.51,0,0,1,2.67,2.56v8.47a2.55,2.55,0,0,1-2.17,2.56,28.9,28.9,0,0,1-4.73.4c-15.37,0-18.92-10.44-18.92-20.3V173.88h-3.55a3.52,3.52,0,0,1-3.54-3.55v-6.1a3.53,3.53,0,0,1,3.54-3.55h3.55v-7a3.49,3.49,0,0,1,3.45-3.44h9.06a3.48,3.48,0,0,1,3.45,3.44v7h6.31a3.54,3.54,0,0,1,3.55,3.55v6.1A3.53,3.53,0,0,1,206.41,173.88Z"/><path class="cls-1" d="M328.48,177.63v29.45a3.53,3.53,0,0,1-3.55,3.55h-9a3.52,3.52,0,0,1-3.54-3.55V182c0-5.62-4-6.8-6.61-6.8s-6.69,1.28-6.69,6.8v25.12a3.53,3.53,0,0,1-3.55,3.55h-9a3.51,3.51,0,0,1-3.45-3.55V182c0-5.62-4-6.8-6.7-6.8s-6.7,1.28-6.7,6.8v25.12a3.5,3.5,0,0,1-3.44,3.55h-9a3.53,3.53,0,0,1-3.55-3.55V164.23a3.54,3.54,0,0,1,3.55-3.55h9.85a2.63,2.63,0,0,1,2.56,2.66v1.18c2.57-2.86,6.51-5,12.42-5,6.9,0,11.43,2.56,14.09,6.7,2.86-3.75,7.49-6.7,14.28-6.7C322.86,159.5,328.48,167.58,328.48,177.63Z"/><path class="cls-1" d="M381,160.68h9.85a3.54,3.54,0,0,1,3.55,3.55v42.85a3.53,3.53,0,0,1-3.55,3.55H381a2.65,2.65,0,0,1-2.66-2.66v-2.26c-3,3.64-7.39,6.1-14.09,6.1-15.57,0-23.95-13.1-23.95-26.1s8.38-26.21,23.95-26.21c6.7,0,11.13,2.46,14.09,6.11v-2.27A2.65,2.65,0,0,1,381,160.68Zm-3.16,25c0-6.71-4.73-10.74-10.74-10.74-6.6,0-10.64,4.53-10.64,10.74s4,10.64,10.64,10.64C373.1,196.35,377.83,192.31,377.83,185.71Z"/><path class="cls-1" d="M433.7,173.88h-6.31v15.77c0,5.22,1.87,7.88,6.9,7.88h.29a2.5,2.5,0,0,1,2.66,2.56v8.47a2.54,2.54,0,0,1-2.16,2.56,29,29,0,0,1-4.73.4c-15.37,0-18.92-10.44-18.92-20.3V173.88h-3.55a3.53,3.53,0,0,1-3.55-3.55v-6.1a3.54,3.54,0,0,1,3.55-3.55h3.55v-7a3.49,3.49,0,0,1,3.45-3.44h9.06a3.49,3.49,0,0,1,3.45,3.44v7h6.31a3.53,3.53,0,0,1,3.54,3.55v6.1A3.52,3.52,0,0,1,433.7,173.88Z"/><path class="cls-1" d="M475.07,173.88h-6.3v15.77c0,5.22,1.87,7.88,6.9,7.88H476a2.5,2.5,0,0,1,2.66,2.56v8.47a2.55,2.55,0,0,1-2.17,2.56,28.9,28.9,0,0,1-4.73.4c-15.37,0-18.91-10.44-18.91-20.3V173.88h-3.55a3.53,3.53,0,0,1-3.55-3.55v-6.1a3.54,3.54,0,0,1,3.55-3.55h3.55v-7a3.48,3.48,0,0,1,3.44-3.44h9.07a3.49,3.49,0,0,1,3.45,3.44v7h6.3a3.54,3.54,0,0,1,3.55,3.55v6.1A3.53,3.53,0,0,1,475.07,173.88Z"/><path class="cls-1" d="M540.69,187a3.51,3.51,0,0,1-3.45,3.54H504.43c1.68,5.82,6.5,8.48,12.61,8.48a13.77,13.77,0,0,0,8.87-3.06,2.51,2.51,0,0,1,3.05-.29l7,4.13a2.79,2.79,0,0,1,.69,4c-4.34,4.83-11.23,8-19.61,8-16.94,0-28.08-10.64-28.08-26.1,0-14.78,11.43-26.21,25.72-26.21C528.67,159.5,541,168.36,540.69,187Zm-14.58-6.11c-1.28-5.91-5.32-8.57-10.84-8.57-5.12,0-9.26,3.05-10.74,8.57Z"/><path class="cls-1" d="M581.38,159.79a2.66,2.66,0,0,1,3.15,2.56v11.33a2.69,2.69,0,0,1-2.86,2.66c-11.62-.78-13,6.7-13,14.59v16.15a3.51,3.51,0,0,1-3.45,3.55h-9.07a3.5,3.5,0,0,1-3.44-3.55V164.23a3.51,3.51,0,0,1,3.44-3.55h9.07a3.52,3.52,0,0,1,3.45,3.55v4A19.23,19.23,0,0,1,581.38,159.79Z"/><path class="cls-1" d="M638.72,159.4c0,12.81-11.33,14.88-13.7,23.25a4.23,4.23,0,0,1-4.14,3.06H613a3.48,3.48,0,0,1-3.35-4.24c2.17-10.64,12.22-14.49,12.22-20.59,0-3.45-2.17-5.72-6.21-5.72a6.26,6.26,0,0,0-5.91,3.94,3.57,3.57,0,0,1-4,2.07l-8.47-2.07a3.66,3.66,0,0,1-2.47-4.63c3.35-9.75,11.93-14.09,22.07-14.09C631.52,140.38,638.72,150,638.72,159.4Zm-13,43.64a8.82,8.82,0,1,1-8.77-8.86A8.79,8.79,0,0,1,625.71,203Z"/></g></g></svg>