<?xml version="1.0" encoding="utf-8"?>
<!-- Generator: Adobe Illustrator 26.4.1, SVG Export Plug-In . SVG Version: 6.00 Build 0)  -->
<svg version="1.1" id="Capa_1" xmlns="http://www.w3.org/2000/svg" xmlns:xlink="http://www.w3.org/1999/xlink" x="0px" y="0px"
	 viewBox="0 0 23 384" style="enable-background:new 0 0 23 384;" xml:space="preserve">
<style type="text/css">
	.st0{fill:#FFFFFF;}
	.st1{enable-background:new    ;}
</style>
<path id="Línea_5" class="st0" d="M10.5,384h-1V115h1V384z"/>
<g class="st1">
	<path class="st0" d="M8.6,96.4v-1c0-0.3,0.2-0.5,0.5-0.5h0.9c0.3,0,0.5,0.2,0.5,0.5v1h5.1c0.3,0,0.5,0.2,0.5,0.5v1.4
		c0,0.3-0.2,0.5-0.5,0.5h-5.1v0.4c0,0.3-0.2,0.5-0.5,0.5H9.1c-0.3,0-0.5-0.2-0.5-0.5v-0.4c-1.4,0-3.3-0.5-3.3-2.9
		c0-0.3,0-0.5,0.1-0.7c0-0.2,0.2-0.3,0.4-0.3H7c0.2,0,0.4,0.2,0.4,0.4c0,0,0,0,0,0C7.3,96.2,7.8,96.4,8.6,96.4z"/>
	<path class="st0" d="M12.4,85.1c2.2,0,4,1.7,4,4.1c0,2.4-1.7,4.1-4,4.1c-2.3,0-4-1.7-4-4.1C8.4,86.8,10.1,85.1,12.4,85.1z
		 M12.4,87.6c-0.9,0-1.6,0.6-1.6,1.6c0,1,0.8,1.6,1.6,1.6s1.6-0.6,1.6-1.6C14,88.2,13.3,87.6,12.4,87.6z"/>
	<path class="st0" d="M5.7,82.4V81c0-0.3,0.2-0.5,0.5-0.5h9.4c0.3,0,0.5,0.2,0.5,0.5v1.4c0,0.3-0.2,0.5-0.5,0.5H6.2
		C5.9,82.9,5.7,82.7,5.7,82.4z"/>
	<path class="st0" d="M5.7,77.3v-1.4c0-0.3,0.2-0.5,0.5-0.5h9.4c0.3,0,0.5,0.2,0.5,0.5v1.4c0,0.3-0.2,0.5-0.5,0.5H6.2
		C5.9,77.8,5.7,77.6,5.7,77.3z"/>
	<path class="st0" d="M12.4,65.1c2.2,0,4,1.7,4,4.1c0,2.4-1.7,4.1-4,4.1c-2.3,0-4-1.7-4-4.1C8.4,66.7,10.1,65.1,12.4,65.1z
		 M12.4,67.5c-0.9,0-1.6,0.6-1.6,1.6c0,1,0.8,1.6,1.6,1.6s1.6-0.6,1.6-1.6C14,68.1,13.3,67.5,12.4,67.5z"/>
	<path class="st0" d="M8.6,54.1v-1.5c0-0.3,0.3-0.5,0.5-0.4l6.6,2.2c0.3,0.1,0.5,0.4,0.5,0.6v1c0,0.3-0.2,0.5-0.5,0.6l-3.6,1.2
		l3.6,1.2c0.3,0.1,0.5,0.4,0.5,0.6v1c0,0.3-0.2,0.5-0.5,0.6l-6.6,2.2c-0.3,0.1-0.5-0.1-0.5-0.4v-1.5c0-0.3,0.2-0.6,0.5-0.6l3.8-1
		l-3.8-1.3c-0.3-0.1-0.5-0.3-0.5-0.6v-0.6c0-0.3,0.2-0.5,0.5-0.6l3.8-1.3l-3.8-1C8.8,54.7,8.6,54.4,8.6,54.1z"/>
	<path class="st0" d="M8.6,38.4c0-0.3,0.2-0.5,0.5-0.5h6.5c0.3,0,0.5,0.2,0.5,0.5v1.5c0,0.2-0.2,0.4-0.4,0.4h-0.3
		c0.5,0.4,0.9,1.1,0.9,2.1c0,1.9-1.5,2.8-3,2.8H9.1c-0.3,0-0.5-0.2-0.5-0.5v-1.4c0-0.3,0.2-0.5,0.5-0.5h3.6c0.9,0,1.3-0.5,1.3-1.2
		c0-0.7-0.5-1.2-1.3-1.2H9.1c-0.3,0-0.5-0.2-0.5-0.5V38.4z"/>
	<path class="st0" d="M13.8,29.1c1.6,0,2.5,1.2,2.5,3.4c0,1.4-0.4,2.7-1.4,3.1c-0.2,0.1-0.5,0-0.6-0.2L14,34c0-0.2,0-0.3,0.2-0.4
		c0.2-0.1,0.4-0.5,0.4-0.9c0-0.5-0.2-0.9-0.6-0.9c-0.5,0-0.5,0.8-0.7,1.7c-0.3,1.5-0.8,2.2-2.3,2.2c-1.6,0-2.5-1.4-2.5-3.3
		c0-1.1,0.5-2.3,1.5-2.8c0.2-0.1,0.5,0,0.6,0.3l0.3,1.3c0,0.1,0,0.3-0.2,0.4c-0.2,0.1-0.3,0.4-0.3,0.8c0,0.5,0.1,0.9,0.6,0.9
		c0.5,0,0.5-0.8,0.6-1.4C11.9,29.9,12.4,29.1,13.8,29.1z"/>
</g>
</svg>
