<?xml version="1.0" encoding="utf-8"?>
<!-- Generator: Adobe Illustrator 26.4.1, SVG Export Plug-In . SVG Version: 6.00 Build 0)  -->
<svg version="1.1" id="Layer_1" xmlns="http://www.w3.org/2000/svg" xmlns:xlink="http://www.w3.org/1999/xlink" x="0px" y="0px"
	 viewBox="0 0 119.6 59.5" style="enable-background:new 0 0 119.6 59.5;" xml:space="preserve">
<style type="text/css">
	.st0{fill:#FFAA00;}
</style>
<g>
	<path class="st0" d="M38.3,53.9c-0.6-0.8-0.9-1.6-1.1-2.6c-0.1-0.9,0.1-1.6,0.2-2.4c0.3-1.9,1-3.6,1.2-5.6c0-0.1,0.1-0.2,0.1-0.2
		c0.3-1.2-0.3-2.2-1.5-2.4c-1-0.3-2-0.3-3-0.2c-1.5,0-2.3,0.8-2.6,2.3c-0.1,1-0.4,1.9-0.6,2.8c-0.2,1.2-0.4,2.4-0.9,3.5
		c-0.8,1.5-1.3,3.2-2.7,4.4c-0.6,0.5-1.2,0.8-1.9,1c-0.6,0.1-1.2-0.1-1.7-0.4c-1-0.8-1.6-1.7-1.8-3.1c-0.1-0.8-0.1-1.5-0.1-2.4
		c-0.1-0.4-0.3-0.7-0.2-1.2c0.2-0.9,0.2-1.8,0.5-2.8c0.2-0.7,0.3-1.3,0.4-2c0.2-0.6-0.4-1.2-1-1.5c-0.4-0.1-0.8-0.2-1.2-0.2
		c-0.6,0.1-1.2,0-1.7-0.2c-1.5-0.4-2.7-1.3-3.3-3c-0.4-1.2-0.2-2.4,0.5-3.5c0.9-1.4,2.2-2,3.7-2c1.3,0,2.6-0.3,3.8-0.2
		c0.4,0,0.6-0.2,0.9-0.5c0.8-1.1,1.2-2.3,1.4-3.5c0.1-0.7,0.2-1.3,0.2-2c0-0.2,0-0.4-0.1-0.6c-0.3-0.5-0.5-0.8-1.1-0.8
		c-1.4,0.1-2.9,0.1-4.3,0c-1.3,0-2.6-0.5-3.5-1.4c-0.9-0.8-1.2-1.8-1.2-3c-0.1-0.9,0.2-1.7,0.8-2.5c0.8-1,1.7-1.5,2.9-1.8
		c0.2-0.1,0.4,0,0.6,0h3.1v-0.1c1,0,1.9,0.1,2.9,0c0.7,0,1.2-0.1,1.8-0.5c0.8-0.5,1.2-1.2,1.4-2c0.5-1.2,0.7-2.6,1-3.9
		c0.3-1.5,0.5-3.1,0.9-4.6s1.2-2.8,2.7-3.5c0.8-0.4,1.6-0.5,2.6-0.3c1.2,0.2,2.2,1,2.8,2.1c0.4,0.5,0.6,1.2,0.6,1.7
		c0.1,1.5-0.2,3-0.5,4.4l-0.4,2.4c-0.1,0.5-0.2,1-0.3,1.4c-0.2,0.6-0.1,1.2-0.1,1.6c0,0.5,0.4,0.8,0.8,0.9c1.2,0.2,2.5,0.2,3.7,0.1
		c1.6-0.1,2.5-1.2,2.8-2.6c0.2-1.1,0.5-2.1,0.7-3.2c0.1-0.9,0.4-1.7,0.5-2.6c0.1-1.1,0.3-2.1,0.6-3.2c0.4-1.2,1.1-2.2,2.2-3
		c0.2,0,0.5-0.1,0.9-0.2c0.8-0.3,1.5-0.3,2.3,0c1,0.3,1.7,0.8,2.3,1.6c0.5,0.8,0.8,1.5,0.8,2.5C56,6,56,7,55.7,8
		c-0.2,0.9-0.3,1.7-0.4,2.5c-0.2,1.1-0.5,2.1-0.7,3.2c-0.2,0.8-0.4,1.4-0.5,2.2c-0.1,0.4,0.1,0.6,0.5,0.6h1.2
		c1.2,0.1,2.4,0.4,3.5,1.2c1,0.7,1.6,2,1.7,3.3c0.2,1.9-1.6,3.9-3.5,4.3c-0.5,0.1-1,0.1-1.4,0.1h-2.3c-0.6,0-1,0.2-1.2,0.7
		c-0.7,1-1.2,1.9-1.3,3.1c-0.1,0.5-0.1,1-0.1,1.4c0,0.9,0.6,1.4,1.4,1.3c0.8,0,1.6,0.1,2.4,0.5c1.5,0.6,2.6,1.6,3,3.3
		c0.3,1,0,1.8-0.6,2.6c-0.7,1.2-1.8,2-3.2,2.3c-0.8,0.1-1.5,0.4-2.4,0.1c-0.6-0.2-1.4-0.1-2.1,0c-0.5,0.1-1,0.4-1.2,0.9
		c-0.4,0.7-0.6,1.3-0.8,2.1l-1.2,4.8c-0.2,1.1-0.5,2-0.7,3c-0.4,1.8-1.3,3.1-3,3.8C41.1,56,39.4,55.4,38.3,53.9z M38.3,31.7
		c0.4,0,0.9,0,1.2,0c0.8,0,1.2-0.3,1.5-0.9c0.7-0.8,0.9-1.7,1.2-2.7c0.1-0.7,0.2-1.3,0.2-2c0-0.4-0.2-0.8-0.4-1.1
		c-0.2-0.3-0.6-0.1-1-0.2h-0.7c-0.9,0.1-1.6-0.3-2.4-0.2c-0.2,0.1-0.5,0-0.6,0.1c-0.7,0.5-1.2,1-1.5,1.6c-0.6,1.2-0.5,2.7-0.4,4
		c0,0.1,0.1,0.3,0.2,0.4c0.2,0.5,0.5,0.9,1.1,0.9C37.2,31.6,37.8,31.7,38.3,31.7z"/>
	<path class="st0" d="M81.7,58.8c-0.6-0.5-1.1-1.1-1.4-1.8c-0.2-0.7-0.5-1.3-0.6-2c-0.1-1-0.1-2-0.1-3c0-1.4,0-2.9,0.1-4.2
		c0-1.6,0-3.2,0.1-4.8c0-0.5,0.1-1-0.1-1.4c-0.1-0.4-0.1-0.9-0.1-1.2c0.1-0.9-0.3-1.6-0.4-2.5c0-0.1-0.1-0.3-0.2-0.4
		c-0.5-0.7-0.7-0.8-1.6-0.7c-1.7,0-3.5,0-5.2-0.1c-1-0.1-2,0-3.1-0.2c-1.8-0.4-3.4-1.2-4.3-2.8c-0.8-1.2-1-2.4-0.9-3.7
		c0.1-1.4,0.3-2.8,0.5-4.1c0.3-1.8,0.5-3.7,0.9-5.6l0.8-4.2c0.4-2.4,0.9-4.7,1.3-7.1c0.3-1.4,0.5-3,0.8-4.5c0.4-1.4,1-2.9,2.4-3.6
		c0.4-0.3,0.8-0.3,1.2-0.4c1.1-0.5,2.1-0.1,3,0.4s1.4,1.3,1.7,2.3c0.4,1,0.3,2,0.1,3L75.4,12c-0.2,0.9-0.4,1.6-0.5,2.5l-0.7,4.1
		c-0.3,1.2-0.5,2.6-0.7,3.8l-0.7,4.1c-0.1,0.7,0.2,1.1,1,1.2c0.5,0.2,1.1,0.3,1.6,0.3c1,0,1.9,0.1,2.8-0.2c1-0.3,1.6-1,1.6-1.9
		c0.1-1,0.1-1.9,0.1-2.9c0.1-2,0.1-4,0.2-6v-3.5c0-1.4-0.1-2.8,0.1-4.1c0.3-1.4,1.3-3.1,3.2-3.5c1.8-0.4,3.8,0.5,4.6,2.2
		c0.5,1,0.6,1.9,0.6,3V16c-0.1,1.5-0.1,3.2-0.1,4.7c-0.1,1.8-0.1,3.6-0.2,5.5v3.6c0,1.7-0.1,3.5,0,5.4c0,1.4-0.1,3-0.1,4.4
		c0,1.5,0,3-0.1,4.5c0,1.2-0.1,2.3-0.1,3.5c0.1,1.7,0,3.5,0,5.2c0.1,1.6-0.1,3.3-1,4.8c-0.5,0.9-1.2,1.5-2.3,1.8
		C83.7,59.6,82.7,59.5,81.7,58.8z"/>
</g>
<g>
	<path class="st0" d="M108.44,0.58h0.38c0.24,0,0.43,0.19,0.43,0.43v10.34c0,0.24-0.19,0.43-0.43,0.43h-0.74
		c-0.24,0-0.43-0.19-0.43-0.43V2.63l-1.76,1.18c-0.19,0.13-0.46,0.06-0.59-0.14l-0.29-0.45c-0.11-0.19-0.06-0.45,0.13-0.58l2.9-1.95
		C108.17,0.62,108.29,0.58,108.44,0.58z"/>
	<path class="st0" d="M111.57,4.18c0-2.03,1.5-3.81,3.94-3.81s3.94,1.78,3.94,3.81c0,1.55-0.83,2.67-1.25,3.28l-2.72,3.95
		c-0.16,0.22-0.42,0.37-0.7,0.37h-0.8c-0.24,0-0.37-0.26-0.24-0.45l2.46-3.44c-0.21,0.05-0.43,0.08-0.69,0.08
		C113.33,7.97,111.57,6.45,111.57,4.18z M113.14,4.18c0,1.46,1.12,2.37,2.37,2.37c1.34,0,2.37-0.96,2.37-2.37
		c0-1.39-1.04-2.38-2.37-2.38S113.14,2.79,113.14,4.18z"/>
</g>
</svg>
