<?xml version="1.0" encoding="utf-8"?>
<!-- Generator: Adobe Illustrator 26.4.1, SVG Export Plug-In . SVG Version: 6.00 Build 0)  -->
<svg version="1.1" id="Layer_1" xmlns="http://www.w3.org/2000/svg" xmlns:xlink="http://www.w3.org/1999/xlink" x="0px" y="0px"
	 viewBox="0 0 389.2 192.4" style="enable-background:new 0 0 389.2 192.4;" xml:space="preserve">
<style type="text/css">
	.st0{clip-path:url(#SVGID_00000106149381545610107840000016587577875764954047_);}
	.st1{fill:#002E66;}
	.st2{enable-background:new    ;}
	.st3{fill:#12C6C1;}
</style>
<g id="Grupo_3150" transform="translate(1067.001 1990.283)">
	<g>
		<g>
			<defs>
				<rect id="SVGID_1_" x="-946.4" y="-1990.3" width="97.5" height="104.8"/>
			</defs>
			<clipPath id="SVGID_00000157992882593413670190000002905241507354322348_">
				<use xlink:href="#SVGID_1_"  style="overflow:visible;"/>
			</clipPath>
			<g id="Grupo_3149" style="clip-path:url(#SVGID_00000157992882593413670190000002905241507354322348_);">
				<path id="Trazado_3132" class="st1" d="M-904.9-1885.4c-5.8-0.1-11.2-3-14.5-7.8c-2.4-3.4-4.5-7.1-6.3-10.9
					c-0.4-0.8-0.1-1.7,0.7-2.1s1.7-0.1,2.1,0.7v0.1c1.7,3.6,3.7,7.1,6,10.4c3.7,5.4,10.4,7.7,16.1,5.7l0.6-0.2
					c6-2.3,12.6-2.3,18.6,0l0.6,0.2c5.8,2,12.4-0.4,16.1-5.7c2.7-3.9,5-8,6.8-12.3c3.9-9.2,5.9-19.2,5.9-29.2c0-4-1.8-11.2-4.1-14.2
					c-3.8-5-9.7-8.1-16-8.2c-3.4,0-6.8,0.9-9.8,2.5l-5.3,2.9c-2.2,1.2-4.9,1.2-7.1,0l-5.3-2.9c-3-1.6-6.4-2.5-9.8-2.5
					c-6.3,0.1-12.2,3.1-16,8.2c-2.3,3-4.1,9.9-4.1,13.8c0,4.3,0.4,8.6,1.1,12.9c0.1,0.8-0.4,1.6-1.3,1.8c-0.8,0.2-1.6-0.4-1.8-1.2
					v-0.1c-0.7-4.4-1.1-8.9-1.1-13.4s2-12.1,4.8-15.7c4.4-5.8,11.2-9.3,18.4-9.4c4,0,7.8,1,11.3,2.9l5.3,2.9c1.3,0.7,2.8,0.7,4.1,0
					l5.3-2.9c10.1-5.6,22.9-2.8,29.7,6.5c2.7,3.5,4.8,11.4,4.8,16.1c0,10.4-2.1,20.8-6.1,30.4c-1.9,4.5-4.3,8.8-7.1,12.8
					c-4.5,6.5-12.6,9.3-19.7,6.9c-0.2-0.1-0.5-0.2-0.7-0.3c-5.2-2-11.1-2-16.3,0l-0.7,0.3C-901.3-1885.7-903.1-1885.5-904.9-1885.4"
					/>
				<path id="Trazado_3133" class="st1" d="M-890.7-1952.5L-890.7-1952.5c-0.9,0-1.6-0.7-1.6-1.6c0.5-19.7-3.5-26-12.2-31.8
					c-0.7-0.5-0.9-1.5-0.4-2.2s1.4-0.9,2.1-0.4c9.4,6.3,14.1,13.4,13.6,34.4C-889.2-1953.1-889.9-1952.5-890.7-1952.5"/>
				<path id="Trazado_3134" class="st1" d="M-890.5-1952.5c-0.8,0-1.4-0.6-1.5-1.3c-0.1-0.5-1.8-13.4,5.1-23.3
					c6.9-10,19.5-13,20-13.1c0.4-0.1,0.9,0,1.2,0.2c0.4,0.2,0.6,0.6,0.7,1.1c0.1,0.5,1.8,13.4-5.1,23.3c-2.1,2.9-4.7,5.5-7.7,7.5
					c-0.7,0.5-1.7,0.4-2.2-0.3s-0.4-1.7,0.3-2.2l0.1-0.1c2.7-1.8,5-4,6.9-6.7c4.7-6.9,4.9-15.6,4.7-19.3
					c-3.5,1.2-11.6,4.4-16.4,11.3c-6.2,9-4.6,21-4.6,21.1c0.1,0.8-0.5,1.6-1.3,1.8C-890.3-1952.5-890.4-1952.5-890.5-1952.5"/>
				<path id="Trazado_3135" class="st1" d="M-888.5-1903.2h-43.7c-7.8,0-14.2-6.4-14.2-14.2v-11.7c-0.1-4,3.1-7.2,7-7.3h0.1h8.2
					c0.9,0,1.6,0.6,1.6,1.5s-0.6,1.6-1.5,1.6c-0.1,0-0.1,0-0.2,0h-8.2c-2.2,0-4,1.8-4.1,4v0.1v0.1c0,0.1,0,0.2,0,0.3
					c0.3,2.1,2.2,3.7,4.4,3.6h50.4c2.2,0,3.9,1.7,3.9,3.9v14.2C-884.6-1905-886.4-1903.2-888.5-1903.2 M-943.3-1923.5v6.1
					c0,6.1,5,11.1,11.1,11.1h43.7c0.4,0,0.8-0.4,0.8-0.8v-14.2c0-0.4-0.4-0.8-0.8-0.8h-50.4C-940.5-1922.1-942-1922.6-943.3-1923.5"
					/>
				<path id="Trazado_3136" class="st1" d="M-933-1915.7c-0.9,0-1.6-0.7-1.6-1.6l0,0v-6.4c0-0.9,0.6-1.6,1.5-1.6s1.6,0.6,1.6,1.5
					c0,0.1,0,0.1,0,0.2v6.4C-931.4-1916.4-932.1-1915.7-933-1915.7L-933-1915.7"/>
				<path id="Trazado_3137" class="st1" d="M-921.3-1915.7c-0.9,0-1.6-0.7-1.6-1.6l0,0v-6.4c0-0.9,0.6-1.6,1.5-1.6s1.6,0.6,1.6,1.5
					c0,0.1,0,0.1,0,0.2v6.4C-919.8-1916.4-920.5-1915.7-921.3-1915.7L-921.3-1915.7"/>
				<path id="Trazado_3138" class="st1" d="M-909.7-1915.7c-0.9,0-1.6-0.7-1.6-1.6l0,0v-6.4c0-0.9,0.6-1.6,1.5-1.6s1.6,0.6,1.6,1.5
					c0,0.1,0,0.1,0,0.2v6.4C-908.1-1916.4-908.8-1915.7-909.7-1915.7L-909.7-1915.7"/>
				<path id="Trazado_3139" class="st1" d="M-898-1915.7c-0.9,0-1.6-0.7-1.6-1.6l0,0v-6.4c0-0.9,0.6-1.6,1.5-1.6s1.6,0.6,1.6,1.5
					c0,0.1,0,0.1,0,0.2v6.4C-896.5-1916.4-897.1-1915.7-898-1915.7L-898-1915.7"/>
			</g>
		</g>
	</g>
</g>
<g class="st2">
	<path class="st3" d="M51.7,149.6c-0.2-0.8-0.1-1.7-0.1-2.5c0.1-0.8,0.1-2.3,0.1-2.9c0-0.5,0.1-1,0.1-1.5c0-0.7,0.1-1.5,0.1-2.2
		c0-0.7,0.1-1.4,0-2.2c0-0.4,0.1-0.8,0.1-1.2c0-0.2,0.1-0.4-0.2-0.5c-0.3-0.1-0.2,0.3-0.3,0.4c-0.5,1.6-1,3.3-1.6,4.9
		c-0.3,0.9-0.5,1.9-1,2.8c-0.5,1-1.5,1.6-2.5,1.5c-0.9,0-1.6-0.4-2.2-1.2c-0.3-0.4-0.5-0.9-0.6-1.4c-0.2-0.5-0.3-1.1-0.4-1.7
		c-0.1-0.5-0.2-1-0.4-1.5c-0.1-0.1-0.1-0.2-0.1-0.2c-0.2-1-0.5-2-0.9-3c-0.2-0.7-0.5-1.4-0.7-2.1c-0.1-0.5-0.4-0.9-0.5-1.4
		c-0.1-0.1-0.1-0.1-0.1-0.2c-0.2-0.3-0.4-0.3-0.7,0c-0.1,0.1-0.1,0.3-0.1,0.4c0.1,0.5-0.1,1-0.1,1.5c0.1,0.7,0.1,1.4,0.1,2.1
		c0,0.4,0.1,0.8,0.1,1.2c0.1,0.7,0.1,1.5,0.1,2.3v3.8c0.1,0.8,0,1.7-0.1,2.5c-0.1,0.7-0.2,1.3-0.4,1.9c-0.3,0.9-1.3,1.7-2.4,1.5
		c-0.4-0.1-0.7-0.2-0.9-0.4c-0.4-0.3-0.7-0.7-0.8-1.3c-0.2-0.5-0.3-0.9-0.2-1.5c0-0.1-0.1-0.1-0.1-0.2c-0.1-0.7-0.1-1.4-0.1-2
		c0-0.4-0.1-0.9-0.1-1.3c0.1-0.4-0.1-0.8,0-1.2c0.1-0.3,0-0.7-0.1-1c-0.1-0.7-0.1-1.5-0.1-2.1v-2.5c0.1-0.6,0.1-1.2,0-1.8
		c0-0.7,0-1.4,0.1-2.1c0.1-0.5,0-1.1,0.1-1.6c0.1-0.7,0.1-1.3,0-2c0-1.2,0.1-2.4,0.2-3.5c0-0.8,0.1-1.5,0.2-2.2
		c0.1-0.8,0.3-1.6,0.7-2.3c0.3-0.6,0.8-1,1.5-1.2c0.6-0.1,1.2-0.1,1.6,0.2c0.5,0.3,1,0.7,1.4,1.2c0.4,0.5,0.8,1.1,1.1,1.6
		c0.4,0.6,0.8,1.3,1.2,1.9c0.4,1,0.9,2,1.4,3c0.3,0.8,0.7,1.5,0.9,2.3c0.3,0.6,0.5,1.3,0.9,1.9c0.1,0.2,0.1,0.5,0.3,0.7
		c0.1,0.2,0.3,0.2,0.4,0.2c0.3-0.1,0.5-0.3,0.7-0.7c0.3-1,0.7-2,1.1-3c0.4-1.3,0.9-2.5,1.4-3.7c0.5-1.3,1.1-2.5,1.5-3.8
		c0.2-0.7,0.5-1.4,1-2c0.5-0.7,1.2-1.1,2.1-1.1c0.9-0.1,1.8,0.3,2.4,1.1c0.5,0.6,0.7,1.1,0.8,2.3c0.2,0.8,0.1,1.5,0.2,2.3
		c0.1,0.7,0,1.3,0.1,1.9c0,0.3,0,0.7-0.1,1c0,0.3,0.1,0.7,0.1,1c-0.1,0.9-0.1,1.8-0.1,2.6v1.6c0,0.6-0.1,1.1-0.1,1.7v1.6
		c0,0.5-0.1,1-0.1,1.6c0,0.5,0,0.9-0.1,1.4c0,0.7-0.1,1.5-0.1,2.3c0,0.7-0.1,1.4-0.1,2.1c-0.1,1.1-0.2,3.5-0.2,4.2
		c0,0.8-0.1,1.5-0.4,2.3c-0.4,0.8-1,1.2-1.8,1.3c-0.5,0.2-0.9,0.2-1.4,0C52.6,151.2,52,150.6,51.7,149.6z"/>
	<path class="st3" d="M66,150.1c-0.8-0.3-1.5-0.7-2.2-1.3c-0.7-0.6-1.3-1.2-1.8-1.9c-0.4-0.6-0.9-1.3-1.2-2
		c-0.2-0.4-0.3-0.9-0.5-1.4c-0.4-1.3-0.6-2.6-0.8-4l-0.2-1.9c-0.1-0.6-0.1-1.2-0.1-1.8c0.1-0.8,0.1-1.5,0.1-2.3
		c0-0.6,0.1-1.3,0.1-1.9c0.1-1.2,0.3-2.3,0.5-3.5l0.2-0.9c0.1-0.6,0.3-1.3,0.5-1.8c0.2-0.3,0.4-0.5,0.6-0.8c0.5-0.5,0.9-1.2,1.5-1.6
		c0.9-0.8,1.9-1.4,3-1.9c0.8-0.3,1.6-0.6,2.5-0.7c0.7-0.1,1.3-0.1,2,0c1.2,0.2,2.4,0.5,3.5,1c0.5,0.3,1.2,0.6,1.6,1.1
		c0.2,0.2,0.5,0.4,0.7,0.6c0.8,0.8,1.4,1.7,2,2.6c0.4,0.7,0.8,1.5,1.1,2.3c0.2,0.4,0.2,0.8,0.4,1.3c0.2,0.5,0.2,1.2,0.3,1.7
		c0.1,0.2,0.1,0.4,0.1,0.5c0.1,0.8,0.1,1.5,0.1,2.3c0.1,1.6-0.2,3.1-0.5,4.7c-0.3,1.6-0.8,3.1-1.5,4.6c-0.3,0.6-0.5,1.3-0.9,1.8
		c-0.4,0.7-0.7,1.3-1.3,1.9c-0.5,0.4-0.9,1-1.4,1.4c-0.8,0.7-1.8,1.3-2.8,1.8c-0.4,0.2-0.9,0.2-1.3,0.4c-0.2,0.1-0.5,0.2-0.8,0.1
		c-0.1-0.1-0.2,0-0.2,0C68.2,150.7,67.1,150.6,66,150.1z M71.4,144.2c0.3-0.3,0.5-0.7,0.7-1.1c0.4-0.5,0.7-1.2,1-1.8
		c0.4-0.9,0.8-1.9,1-3c0.3-1.4,0.6-2.8,0.6-4.2c0-0.7,0-1.4-0.1-2.1c0-0.5-0.3-1-0.4-1.6v-0.1c-0.3-0.7-0.5-1.4-0.9-2
		c-0.6-0.9-1.3-1.6-2.3-2.2c-0.2-0.1-0.4-0.2-0.6-0.2c-0.9-0.2-1.8-0.1-2.6,0.3c-0.7,0.3-1.2,0.8-1.6,1.3c-0.4,0.3-0.5,0.7-0.7,1.2
		l-0.4,2.6c-0.2,1.4-0.3,2.9-0.3,4.4c0,0.6,0,1.2,0.1,1.8c0.1,0.8,0.2,1.5,0.2,2.3c0,0.2,0.2,0.4,0.2,0.6c0.1,0.7,0.3,1.4,0.5,2.1
		c0.3,1,0.8,1.9,1.6,2.7c0.6,0.6,1.4,0.8,2.1,0.5C70.2,145.4,70.9,144.9,71.4,144.2z"/>
	<path class="st3" d="M82.7,151.3c-0.4-0.4-0.6-0.9-0.6-1.3c-0.1-0.8-0.1-1.4-0.1-2.1c0-0.3,0-0.7-0.1-1.1c0-0.5-0.1-0.9,0-1.4
		c0-0.3-0.1-0.7-0.1-1c-0.1-0.7,0-1.3,0-1.9c-0.1-0.8,0-1.6,0-2.4v-1.9c-0.1-0.8-0.1-1.5,0.1-2.3c0.1-0.7,0-1.3,0.1-2
		c0-1,0.1-2,0.2-3l0.2-2.9c0.1-1.2,0.2-2.4,0.5-3.6c0.3-1.1,1.1-1.8,2.3-2c0.7-0.1,1.3,0.1,1.8,0.4c0.9,0.5,1.4,1.4,1.8,2.3l0.8,1.9
		c0.2,0.5,0.4,1.2,0.7,1.8c0.3,0.9,0.7,1.8,1.1,2.7c0.5,1.2,0.9,2.3,1.4,3.5c0.3,0.7,0.6,1.5,1,2.2c0,0.1,0.1,0.1,0.1,0.2
		c0.1,0.1,0.2,0.2,0.3,0.2c0.2-0.1,0.2-0.2,0.3-0.3v-2.9c0-0.6,0.1-1.2,0-1.8c-0.1-0.5-0.1-1,0-1.5c0.1-0.3,0-0.7,0.1-1v-2.8
		c0-0.5,0-1.8,0.1-2.4c0-0.5,0-1.1,0.1-1.6c0.1-0.7,0.3-1.4,0.7-2.1c0.4-0.7,1-1.2,1.9-1.3c0.5,0,1,0.2,1.3,0.6
		c0.6,0.5,0.9,1.2,1.1,1.9c0,0.2,0.2,0.4,0.2,0.7c0.1,0.6,0.1,1.2,0.1,1.8c-0.1,0.3,0,0.6,0,0.9l-0.1,0.7v3.8c0,0.8,0,1.6-0.1,2.4
		v0.8c0.1,1.2,0,2.4-0.1,3.5l-0.2,3.1c-0.1,1-0.1,2-0.1,3.1c-0.1,1.3-0.2,2.7-0.4,4c-0.1,0.7-0.1,1.4-0.4,2
		c-0.3,0.8-0.9,1.3-1.7,1.5c-0.8,0.2-1.6-0.1-2.1-0.7c-0.3-0.3-0.5-0.6-0.7-0.9c-0.2-0.4-0.5-0.8-0.9-1.2c-0.7-0.9-1.3-2-1.8-3.1
		c-0.4-0.8-0.8-1.6-1.3-2.5c-0.5-1-0.9-2.1-1.4-3.1c-0.2-0.6-0.6-1.2-0.7-1.8c-0.1-0.1-0.1-0.2-0.2-0.2c-0.1-0.1-0.2-0.3-0.3-0.2
		c-0.2,0.1-0.3,0.2-0.3,0.4c-0.1,0.2-0.1,0.4-0.1,0.7c0,0.6-0.1,1.2-0.1,1.9v4.5c0,0.6,0.1,1.2,0.1,1.8c-0.1,0.5-0.1,1-0.1,1.6
		c-0.1,0.4-0.1,0.8-0.1,1.3c-0.1,0.7-0.3,1.3-0.6,1.9c-0.3,0.4-0.8,0.8-1.3,0.9C84.2,152.3,83.3,152.1,82.7,151.3z"/>
	<path class="st3" d="M102.1,147.4c-0.2-0.4-0.3-0.8-0.4-1.2c-0.1-0.2-0.1-0.5,0-0.7v-0.2c-0.1-0.7-0.1-1.3-0.1-1.9
		c-0.1-0.8-0.1-1.6-0.1-2.4c0-0.8-0.1-1.6,0-2.5v-1.3c0-0.7,0-1.3,0.1-1.9c0.1-0.4,0.1-0.8,0.1-1.1c-0.1-0.3-0.1-0.7,0-1
		c0.1-0.4,0-0.8,0.1-1.2c0.1-0.7,0.1-1.4,0.1-2.1v-1c0.1-0.7,0.1-1.4,0.1-2.1c0-0.5,0-1.1,0.1-1.6c0.1-0.2,0.1-0.4,0.2-0.5
		c0.3-0.7,0.8-1.2,1.5-1.5c0.2-0.1,0.4-0.1,0.7-0.2c0.7-0.2,1.4,0.1,1.9,0.5c0.5,0.3,0.9,0.8,1,1.4c0.1,0.3,0.2,0.5,0.2,0.8
		c0,0.5-0.1,0.9-0.1,1.4v0.9c-0.1,0.7-0.1,1.4-0.1,2.1v1c-0.1,0.7-0.1,1.4-0.1,2.1c0,0.7-0.1,1.3-0.1,1.9c0,0.6,0,1.2-0.1,1.8
		c-0.1,0.4,0.1,0.8,0,1.2c-0.1,0.5-0.1,1.2,0,1.7c0,0.5-0.1,1.1,0.1,1.7c0.1,0.3-0.1,0.5-0.1,0.8c0.1,0.3,0.2,0.5,0,0.8v0.2
		c0.2,0.5,0.1,1.2,0.1,1.8c0,1.2-0.3,2.4-1.1,3.3c-0.9,1-2.1,1-3.1,0.3C102.7,148.4,102.3,147.9,102.1,147.4z"/>
	<path class="st3" d="M116.1,150.8c-0.4-0.4-0.6-0.9-0.7-1.5c-0.1-0.3-0.1-0.7-0.1-1c0-0.8-0.1-1.7,0-2.6c0.1-1.1,0-2.2,0.1-3.3
		c0.1-1,0-2.1,0.1-3.2c0.1-0.8,0-1.6,0.1-2.4c0.1-0.7,0-1.3,0.1-1.9c0.1-0.6,0-1.2,0.1-1.8c0.1-0.8,0-1.5,0.1-2.3
		c0.2-1.2,0.1-2.4,0.1-3.6c0-0.6-0.2-1.1-0.4-1.6c-0.2-0.3-0.4-0.5-0.8-0.5h-3.1c-1,0-1.8-0.4-2.3-1.2c-0.2-0.3-0.3-0.5-0.2-0.8
		c0-0.3-0.1-0.5,0.1-0.8c0.2-0.8,1.2-1.6,2.1-1.6c0.3,0,0.7-0.1,1-0.1h4c1.4,0,2.8,0.1,4.2-0.1c1.6-0.1,3.2-0.1,4.7-0.1
		c0.7,0,1.4,0.2,2,0.5c0.6,0.3,1,0.8,1.2,1.4c0,0.4,0.1,0.9-0.2,1.2c-0.2,0.3-0.6,0.5-0.9,0.7c-0.1,0.1-0.1,0.1-0.2,0.1
		c-0.4,0.2-0.9,0.4-1.4,0.4c-0.9,0.1-1.8,0.1-2.6,0.1c-0.3,0-0.7,0.2-1,0.1c-0.1,0-0.2,0.1-0.2,0.2c-0.4,0.3-0.7,0.8-0.8,1.3
		c-0.1,0.4-0.1,0.7-0.1,1.1c0,0.9-0.1,1.8,0,2.6c0,1-0.2,2-0.2,3c-0.2,0.6,0,1.3-0.1,1.9c-0.1,0.7,0,1.3-0.1,1.9
		c-0.1,0.8,0,1.6-0.1,2.4c-0.2,1.2,0,2.4-0.2,3.5c-0.1,1,0.1,2-0.1,3c-0.1,0.7-0.1,1.3-0.1,1.9c-0.1,0.7-0.1,1.3-0.4,1.9
		c-0.3,0.6-0.6,1.1-1.3,1.4C117.7,151.8,116.6,151.4,116.1,150.8z"/>
	<path class="st3" d="M135.8,150.1c-0.8-0.3-1.5-0.7-2.2-1.3c-0.7-0.6-1.3-1.2-1.8-1.9c-0.4-0.6-0.9-1.3-1.2-2
		c-0.2-0.4-0.3-0.9-0.5-1.4c-0.4-1.3-0.6-2.6-0.8-4l-0.2-1.9c-0.1-0.6-0.1-1.2-0.1-1.8c0.1-0.8,0.1-1.5,0.1-2.3
		c0-0.6,0.1-1.3,0.1-1.9c0.1-1.2,0.3-2.3,0.5-3.5l0.2-0.9c0.1-0.6,0.3-1.3,0.5-1.8c0.2-0.3,0.4-0.5,0.6-0.8c0.5-0.5,0.9-1.2,1.5-1.6
		c0.9-0.8,1.9-1.4,3-1.9c0.8-0.3,1.6-0.6,2.5-0.7c0.7-0.1,1.3-0.1,2,0c1.2,0.2,2.4,0.5,3.5,1c0.5,0.3,1.2,0.6,1.6,1.1
		c0.2,0.2,0.5,0.4,0.7,0.6c0.8,0.8,1.4,1.7,2,2.6c0.4,0.7,0.8,1.5,1.1,2.3c0.2,0.4,0.2,0.8,0.4,1.3c0.2,0.5,0.2,1.2,0.3,1.7
		c0.1,0.2,0.1,0.4,0.1,0.5c0.1,0.8,0.1,1.5,0.1,2.3c0.1,1.6-0.2,3.1-0.5,4.7c-0.3,1.6-0.8,3.1-1.5,4.6c-0.3,0.6-0.6,1.3-0.9,1.8
		c-0.4,0.7-0.7,1.3-1.3,1.9c-0.5,0.4-0.9,1-1.4,1.4c-0.8,0.7-1.8,1.3-2.8,1.8c-0.4,0.2-0.9,0.2-1.3,0.4c-0.2,0.1-0.5,0.2-0.8,0.1
		c-0.1-0.1-0.2,0-0.2,0C138,150.7,136.9,150.6,135.8,150.1z M141.1,144.2c0.3-0.3,0.5-0.7,0.7-1.1c0.4-0.5,0.7-1.2,1-1.8
		c0.4-0.9,0.8-1.9,1-3c0.3-1.4,0.6-2.8,0.6-4.2c0-0.7,0-1.4-0.1-2.1c0-0.5-0.3-1-0.4-1.6v-0.1c-0.3-0.7-0.5-1.4-0.9-2
		c-0.6-0.9-1.3-1.6-2.3-2.2c-0.2-0.1-0.4-0.2-0.6-0.2c-0.9-0.2-1.8-0.1-2.6,0.3c-0.7,0.3-1.2,0.8-1.6,1.3c-0.4,0.3-0.5,0.7-0.7,1.2
		l-0.4,2.6c-0.2,1.4-0.3,2.9-0.3,4.4c0,0.6,0,1.2,0.1,1.8c0.1,0.8,0.2,1.5,0.2,2.3c0,0.2,0.2,0.4,0.2,0.6c0.1,0.7,0.3,1.4,0.6,2.1
		c0.3,1,0.8,1.9,1.6,2.7c0.6,0.6,1.4,0.8,2.1,0.5C140,145.4,140.6,144.9,141.1,144.2z"/>
	<path class="st3" d="M153.4,150.8c-0.3-0.2-0.5-0.4-0.8-0.7c-0.4-0.6-0.9-1.3-0.9-2.1l-0.2-2.1c-0.1-0.3,0.1-0.5,0.1-0.8
		c-0.1-0.3-0.2-0.5,0-0.8c0.1-0.1,0-0.1,0-0.2c-0.1-0.5,0-1,0.1-1.5c0-0.8,0-1.6,0.1-2.4c0.1-0.4,0.1-0.8,0.1-1.3
		c0.1-0.4,0.1-0.9,0.1-1.3c0-0.4,0.1-0.8,0.1-1.2c0-0.5,0-0.9,0.1-1.4c0.1-0.3,0.1-0.6,0.1-0.9c0-0.7,0.1-1.4,0.1-2
		c0.1-0.7,0.1-1.4,0.1-2.1c0.1-0.4,0.1-0.8,0.1-1.3c0-0.5,0.1-0.9,0.1-1.4c0.1-0.7,0.2-1.3,0.4-1.9c0.2-0.4,0.4-0.9,0.7-1.3
		c0.5-0.8,1.3-1.3,2.2-1.5c0.8-0.2,1.6-0.2,2.4-0.3c1.5,0.2,2.9,0.5,4.1,1.4c1.2,0.8,2.1,1.7,2.8,3c0.3,0.5,0.5,1.2,0.6,1.9
		c0,0.2,0,0.4,0.1,0.6c0.1,1.6-0.2,3.1-1,4.6c-0.3,0.7-0.8,1.3-1.3,2c-0.6,0.9-1.4,1.6-2.2,2.3c-0.4,0.4-0.4,0.9-0.6,1.4
		c0.2,0.3,0.2,0.6,0.4,0.8c0.7,0.8,1.3,1.6,2,2.4c0.8,0.9,1.5,1.9,2.3,2.9c0.5,0.7,0.9,1.4,0.9,2.3c0,0.6-0.1,1.2-0.6,1.7
		c-0.3,0.3-0.5,0.6-0.9,0.7c-0.9,0.3-1.8,0.3-2.6-0.3c-0.7-0.5-1.2-1.2-1.8-1.9c-0.7-0.9-1.4-1.8-2.1-2.7l-0.6-0.8
		c-0.2-0.2-0.4-0.2-0.5-0.2c-0.2,0.1-0.2,0.2-0.2,0.4v0.1c0.1,0.8-0.1,1.5,0.1,2.3c0.1,0.4,0,0.8-0.1,1.2c-0.2,0.8-0.5,1.4-1,2
		c-0.3,0.3-0.7,0.5-1.1,0.5C154.3,151,153.8,151,153.4,150.8z M159,132.7c0.5-0.6,0.9-1.2,1.2-1.9c0.1-0.4,0.3-0.9,0.2-1.4
		c-0.2-0.8-1.1-1.4-2-1.3c-0.4,0.1-0.5,0.1-0.6,0.5c-0.1,0.4-0.1,0.8-0.1,1.2c0.1,0.4,0,0.9,0,1.3c-0.1,0.5-0.1,1.1-0.1,1.5
		c0,0.2,0,0.3,0.1,0.4c0,0.4,0.2,0.5,0.7,0.3C158.6,133.2,158.8,133,159,132.7z"/>
	<path class="st3" d="M183.7,152.4c-0.7-0.3-1.1-0.9-1.4-1.5c-0.3-0.8-0.7-1.5-0.9-2.3c-0.1-0.3-0.2-0.6-0.2-0.9
		c-0.1-0.5-0.2-1.1-0.3-1.6c-0.3-1.4-0.4-2.7-0.7-4.1c-0.1-0.7-0.2-1.3-0.3-1.9c-0.1-0.4-0.1-0.8-0.1-1.1c-0.1-1.5-0.4-3.1-0.4-4.6
		c-0.1-0.8-0.2-1.6-0.2-2.4s-0.2-1.5-0.2-2.3s-0.1-1.5-0.1-2.3c0.1-0.7,0.2-1.4,0.7-2c0.3-0.4,0.7-0.7,1.1-0.8
		c0.9-0.4,1.7-0.2,2.4,0.2c0.6,0.4,1,1,1.2,1.7c0.1,0.4,0.2,0.8,0.2,1.2c-0.1,0.7,0.1,1.3,0.1,1.9c-0.1,0.7,0.1,1.3,0.1,1.9
		c0,1,0.2,2,0.2,3c0,1.3,0.2,2.5,0.3,3.7c0.2,1.3,0.3,2.5,0.4,3.7c0.1,0.1,0,0.1,0.1,0.2c0.1,0.2,0.1,0.4,0.3,0.4
		c0.1,0,0.2-0.2,0.3-0.4c0.2-0.6,0.4-1.3,0.5-1.9c0.3-1,0.3-2.1,0.7-3.1l0.7-2.1l0.5-1.9c0.2-0.7,0.4-1.4,0.9-2c0.5-0.6,1-0.9,1.8-1
		c1.3-0.2,2.2,0.3,2.9,1.4c0.4,0.6,0.8,1.3,1.1,2c0.7,1.3,1.3,2.5,1.9,3.8c0.2,0.5,0.5,1,0.7,1.6c0.1,0.1,0.1,0.2,0.1,0.2
		c0.1,0.1,0.2,0.4,0.3,0.4c0.3,0,0.3-0.3,0.4-0.4c0.1-0.1,0.1-0.2,0.1-0.4c0.3-1.3,0.4-2.5,0.7-3.8l0.5-2.7c0.3-1.5,0.6-3,0.8-4.5
		c0.2-1,0.4-2,0.5-3c0.1-0.7,0.3-1.4,0.4-2.1c0.1-0.7,0.4-1.4,0.8-2c0.5-0.8,1.8-1.5,3-0.9c0.5,0.3,0.8,0.6,1.1,1.1
		c0.2,0.3,0.4,0.7,0.4,1.2c0,0.4,0.1,0.8,0.1,1.2c-0.1,0.8-0.2,1.7-0.4,2.5c-0.3,1.4-0.6,2.9-0.8,4.3l-0.5,2.9
		c-0.3,1.6-0.6,3.1-0.9,4.7c-0.3,1.4-0.6,2.7-0.9,4.2c-0.3,1.5-0.8,2.9-1.2,4.4c-0.2,0.7-0.3,1.3-0.7,1.8c-0.4,0.7-0.8,1.3-1.5,1.6
		c-0.8,0.4-1.6,0.3-2.4,0c-0.6-0.3-1-0.8-1.4-1.3c-0.9-1.3-1.6-2.6-2.3-4.1c-0.3-0.7-0.6-1.3-1-2c-0.2-0.3-0.4-0.6-0.5-0.9
		c-0.2-0.2-0.4-0.2-0.6-0.3c-0.2,0-0.3,0.2-0.4,0.3l-0.3,0.7c-0.5,1.4-0.9,2.8-1.5,4.1c-0.5,1.4-1,2.8-1.7,4.1
		c-0.4,0.7-0.8,1.3-1.4,1.8c-0.4,0.4-1,0.7-1.6,0.8C184.8,152.8,184.2,152.6,183.7,152.4z"/>
	<path class="st3" d="M212.2,150.3c-1.4-0.4-2.3-1.3-2.8-2.6c-0.3-0.7-0.4-1.4-0.5-2.1c-0.2-1.2,0-2.3-0.1-3c0-1.2-0.1-2.1,0.1-3
		c0.1-0.9,0-1.8,0.1-2.8c0.1-0.7,0-1.3,0.1-1.9c0.1-0.7,0-1.4,0.1-2c0.2-1.3,0.1-2.6,0.1-3.9c0-0.7-0.1-1.4-0.1-2.2v-0.3
		c-0.1-0.2-0.1-0.4,0-0.7c0.1-0.1,0.1-0.3,0-0.4c-0.2-0.5,0-1,0.2-1.5c0.3-0.8,1-1.2,1.9-1.5c0.5-0.2,1.2-0.3,1.8-0.4
		c0.5-0.1,1.2,0,1.7-0.2c0.1-0.1,0.1,0,0.1,0c1.5-0.1,3-0.2,4.5-0.2c1,0.1,2,0.6,2.6,1.4c0.5,0.7,0.5,1.6-0.1,2.5
		c-0.4,0.8-1.2,1-2,1.3c-0.3,0.1-0.7,0.1-1,0.1c-1,0-2,0.2-3,0.2c-0.7-0.1-1,0.4-1,1.1c0,1.3,0,2.5-0.1,3.8c0,0.3,0.1,0.6-0.1,0.9
		c-0.1,0.4,0.1,0.8,0.2,1.1c0.1,0.2,0.3,0.4,0.5,0.4c0.6-0.1,1.2,0,1.7-0.1c0.8,0,1.6,0.2,2.4,0.5c0.9,0.3,1.4,1.2,1.4,2.1
		c0.1,1.1-0.7,2-1.8,2.4c-0.7,0.2-1.3,0.4-2,0.4c-0.4-0.1-0.9,0-1.4,0h-0.4c-0.8,0.2-0.9,0.4-1,1.2v2.9c0,0.4,0.1,0.8,0.2,1.2
		c0.1,0.7,0.5,1,1.2,1c0.6,0,1.2-0.1,1.8,0c0.8,0.1,1.5,0.1,2.3,0.5c0.6,0.4,0.9,0.9,1,1.5c0.1,0.5-0.1,1-0.5,1.4
		c-0.5,0.5-1.2,0.8-1.9,0.9c-0.5,0.1-1,0.1-1.5,0.1c-0.6-0.1-1.2,0.2-1.8,0.1C214,150.6,213.1,150.6,212.2,150.3z"/>
	<path class="st3" d="M224.4,147.4c-0.2-0.4-0.3-0.8-0.4-1.2c-0.1-0.2-0.1-0.5,0-0.7v-0.2c-0.1-0.7-0.1-1.3-0.1-1.9
		c-0.1-0.8-0.1-1.6-0.1-2.4c0-0.8-0.1-1.6,0-2.5v-1.3c0-0.7,0-1.3,0.1-1.9c0.1-0.4,0.1-0.8,0.1-1.1c-0.1-0.3-0.1-0.7,0-1
		c0.1-0.4,0-0.8,0.1-1.2c0.1-0.7,0.1-1.4,0.1-2.1v-1c0.1-0.7,0.1-1.4,0.1-2.1c0-0.5,0-1.1,0.1-1.6c0.1-0.2,0.1-0.4,0.2-0.5
		c0.3-0.7,0.8-1.2,1.5-1.5c0.2-0.1,0.4-0.1,0.7-0.2c0.7-0.2,1.4,0.1,1.9,0.5c0.5,0.3,0.9,0.8,1,1.4c0.1,0.3,0.2,0.5,0.2,0.8
		c0,0.5-0.1,0.9-0.1,1.4v0.9c-0.1,0.7-0.1,1.4-0.1,2.1v1c-0.1,0.7-0.1,1.4-0.1,2.1c0,0.7-0.1,1.3-0.1,1.9c0,0.6,0,1.2-0.1,1.8
		c-0.1,0.4,0.1,0.8,0,1.2c-0.1,0.5-0.1,1.2,0,1.7c0,0.5-0.1,1.1,0.1,1.7c0.1,0.3-0.1,0.5-0.1,0.8c0.1,0.3,0.2,0.5,0,0.8v0.2
		c0.2,0.5,0.1,1.2,0.1,1.8c0,1.2-0.3,2.4-1.1,3.3c-0.9,1-2.1,1-3.1,0.3C225,148.4,224.7,147.9,224.4,147.4z"/>
	<path class="st3" d="M236.2,151.4c-1.1-0.5-1.9-1.4-2.6-2.4c-0.6-0.9-1-1.9-1.3-3c-0.2-0.8-0.4-1.5-0.4-2.3c0-0.2-0.1-0.4-0.1-0.6
		c0.1-0.2,0.1-0.4-0.1-0.5c-0.1-0.1,0-0.2,0-0.3v-1.9h-0.1c0-0.5,0-1,0.1-1.5c0-0.5,0.1-1.1,0.2-1.7c0.1-0.3,0.1-0.5,0.1-0.9
		l0.3-1.5c0.2-0.9,0.4-1.9,0.8-2.8c0.2-0.5,0.4-1,0.6-1.5c0.3-0.7,0.7-1.4,1-2.1c0.4-0.8,0.9-1.6,1.5-2.3c0.4-0.6,0.9-1.2,1.5-1.8
		c0.4-0.4,0.8-0.8,1.3-1.2c0.5-0.4,1-0.8,1.5-1.2c1.1-0.7,2.3-1.3,3.6-1.7c0.7-0.2,1.4-0.3,2.1-0.3c1,0.1,1.9,0.5,2.4,1.4
		c0.2,0.3,0.3,0.6,0.3,0.9c-0.1,0.3,0,0.6-0.1,0.9c-0.4,1-1.2,1.7-2.4,1.8c-0.5,0.1-1.1,0.2-1.6,0.4c-0.8,0.4-1.6,0.8-2.3,1.3
		c-0.4,0.4-0.9,0.7-1.2,1.2c-0.2,0.3-0.5,0.5-0.8,0.9c-0.5,0.6-1,1.3-1.4,2c-0.7,1.2-1.2,2.4-1.5,3.7c-0.2,0.7-0.4,1.5-0.5,2.3
		c-0.1,0.7-0.2,1.3-0.3,1.9c-0.1,1-0.1,2-0.1,2.9c0.1,1.2,0.2,2.3,0.7,3.4c0.2,0.5,0.4,0.9,0.7,1.4c0.3,0.4,0.8,0.6,1.3,0.7
		c0.8,0.1,1.5-0.3,2.1-0.8c0.5-0.4,1-0.8,1.3-1.3c0.4-0.8,0.8-1.5,0.8-2.5c-0.1-0.5,0-1.2-0.2-1.7c-0.3-0.8-0.8-1.3-1.5-1.6
		c-0.5-0.2-1-0.2-1.5-0.1c-0.1,0-0.2,0.1-0.2,0c-0.5-0.1-1-0.1-1.4-0.4c-0.3-0.2-0.7-0.5-0.9-0.8c-0.4-0.7-0.5-1.4-0.2-2.1
		c0.4-0.9,1.1-1.4,1.9-1.7c0.4-0.2,0.9-0.2,1.4-0.3c0.4-0.1,0.9,0.1,1.3,0.2c0.5,0.1,1.1,0.3,1.6,0.5c0.8,0.3,1.5,0.7,2.1,1.3
		c0.8,0.7,1.4,1.5,1.9,2.4c0.3,0.8,0.6,1.5,0.7,2.4c0.1,0.7,0.3,1.5,0.2,2.2c-0.1,1-0.3,2.1-0.7,3.1c-0.3,0.9-0.8,1.7-1.4,2.5
		c-0.8,1-1.8,1.9-2.9,2.6c-0.8,0.5-1.7,0.9-2.7,1.1c-0.5,0.1-1,0.2-1.5,0.2C238.4,152.2,237.3,152,236.2,151.4z"/>
	<path class="st3" d="M252.1,151.5c-0.7-0.6-1.2-1.4-1.3-2.3c-0.2-0.9-0.1-1.8-0.1-2.7c0-0.3,0.1-0.7-0.1-1c-0.1-0.2-0.1-0.4,0-0.5
		c0.2-0.4,0.1-0.9,0.1-1.4c0-2.7-0.1-5.4,0.1-8.2c0.1-1.6-0.1-3.2,0.1-4.8c0.1-1.3,0-2.6,0.1-3.8c0.1-1.2,0.1-2.4,0.1-3.6
		c0-1,0.4-1.9,1.3-2.5c0.4-0.3,0.8-0.5,1.3-0.4h0.3c1-0.1,1.7,0.4,2.2,1.2c0.3,0.4,0.5,1,0.5,1.6c0,1.6,0.1,3.2-0.1,4.8
		c-0.1,1.4-0.1,2.7-0.1,4.1c-0.1,0.3-0.1,0.5,0.2,0.7c0.3,0.2,0.5,0.3,0.9,0.3c1,0.1,2-0.1,3-0.1c0.4,0,0.9-0.2,1.3-0.5
		c0.5-0.3,0.8-0.8,0.8-1.5c0-0.5,0.1-0.9-0.1-1.4c-0.2-1.3-0.1-2.5-0.1-3.8c0-1.2,0.6-2,1.6-2.6c1.4-0.7,3,0.1,3.6,1.2
		c0.3,0.6,0.4,1.2,0.4,1.9c-0.1,1.3,0.2,2.6,0.1,3.9c0.2,0.6,0.1,1.3,0.2,1.8c0.1,0.7,0,1.4,0.1,2.1c0.1,0.7,0,1.4,0.1,2
		c0.1,0.6,0.1,1.2,0.1,1.8c0.1,0.7,0.1,1.4,0.2,2.1c0.1,0.5,0.1,1,0.1,1.5c0,0.4,0.2,0.7,0.2,1.1c-0.1,0.4,0.1,3.4,0.3,3.7
		c-0.1,0.8,0.1,1.6-0.2,2.4c-0.3,0.9-0.8,1.6-1.8,2c-0.3,0.1-0.5-0.1-0.8,0.2c-0.7-0.2-1.3-0.3-1.8-0.8c-0.8-0.7-1.1-1.6-1.2-2.6
		c0-0.4-0.1-0.8-0.1-1.2c0-0.4-0.1-3.4-0.3-3.7c-0.1-0.2,0-0.4,0-0.6c0.1-0.9-0.3-1.7-0.5-2.5c-0.1-0.2-0.2-0.3-0.3-0.5
		c-0.1-0.3-0.3-0.4-0.7-0.3c-0.1,0.1-0.2,0-0.3,0c-1.2-0.1-2.4,0.2-3.6,0.2c-1.3,0-1.8,1-1.8,1.8v4.2c0,1.2,0,2.5,0.1,3.7
		c0,0.7-0.1,1.4-0.4,2.1c-0.3,0.7-0.9,1.4-1.7,1.6C253.5,152.1,252.7,152,252.1,151.5z"/>
	<path class="st3" d="M278.1,150.8c-0.4-0.4-0.6-0.9-0.7-1.5c-0.1-0.3-0.1-0.7-0.1-1c0-0.8-0.1-1.7,0-2.6c0.1-1.1,0-2.2,0.1-3.3
		c0.1-1,0-2.1,0.1-3.2c0.1-0.8,0-1.6,0.1-2.4c0.1-0.7,0-1.3,0.1-1.9c0.1-0.6,0-1.2,0.1-1.8c0.1-0.8,0-1.5,0.1-2.3
		c0.2-1.2,0.1-2.4,0.1-3.6c0-0.6-0.2-1.1-0.4-1.6c-0.2-0.3-0.4-0.5-0.8-0.5h-3.1c-1,0-1.8-0.4-2.3-1.2c-0.2-0.3-0.3-0.5-0.2-0.8
		c0-0.3-0.1-0.5,0.1-0.8c0.2-0.8,1.2-1.6,2.1-1.6c0.3,0,0.7-0.1,1-0.1h4c1.4,0,2.8,0.1,4.2-0.1c1.6-0.1,3.2-0.1,4.7-0.1
		c0.7,0,1.4,0.2,2,0.5c0.5,0.3,1,0.8,1.2,1.4c0,0.4,0.1,0.9-0.2,1.2c-0.2,0.3-0.6,0.5-0.9,0.7c-0.1,0.1-0.1,0.1-0.2,0.1
		c-0.4,0.2-0.9,0.4-1.4,0.4c-0.9,0.1-1.8,0.1-2.6,0.1c-0.3,0-0.7,0.2-1,0.1c-0.1,0-0.2,0.1-0.2,0.2c-0.4,0.3-0.7,0.8-0.8,1.3
		c-0.1,0.4-0.1,0.7-0.1,1.1c0,0.9-0.1,1.8,0,2.6c0,1-0.2,2-0.2,3c-0.2,0.6,0,1.3-0.1,1.9c-0.1,0.7,0,1.3-0.1,1.9
		c-0.1,0.8,0,1.6-0.1,2.4c-0.2,1.2,0,2.4-0.2,3.5c-0.1,1,0.1,2-0.1,3c-0.1,0.7-0.1,1.3-0.1,1.9c-0.1,0.7-0.1,1.3-0.4,1.9
		c-0.3,0.6-0.6,1.1-1.3,1.4C279.6,151.8,278.6,151.4,278.1,150.8z"/>
	<path class="st3" d="M307.6,151.4c-1.1-0.5-1.9-1.4-2.6-2.4c-0.6-0.9-1-1.9-1.3-3c-0.2-0.8-0.4-1.5-0.4-2.3c0-0.2-0.1-0.4-0.1-0.6
		c0.1-0.2,0.1-0.4-0.1-0.5c-0.1-0.1,0-0.2,0-0.3v-1.9H303c0-0.5,0-1,0.1-1.5c0-0.5,0.1-1.1,0.2-1.7c0.1-0.3,0.1-0.5,0.1-0.9l0.3-1.5
		c0.2-0.9,0.4-1.9,0.8-2.8c0.2-0.5,0.4-1,0.6-1.5c0.3-0.7,0.7-1.4,1-2.1c0.4-0.8,0.9-1.6,1.5-2.3c0.4-0.6,0.9-1.2,1.5-1.8
		c0.4-0.4,0.8-0.8,1.3-1.2c0.5-0.4,1-0.8,1.5-1.2c1.1-0.7,2.3-1.3,3.6-1.7c0.7-0.2,1.4-0.3,2.1-0.3c1,0.1,1.9,0.5,2.4,1.4
		c0.2,0.3,0.3,0.6,0.3,0.9c-0.1,0.3,0,0.6-0.1,0.9c-0.4,1-1.2,1.7-2.4,1.8c-0.5,0.1-1.1,0.2-1.6,0.4c-0.8,0.4-1.6,0.8-2.3,1.3
		c-0.4,0.4-0.9,0.7-1.2,1.2c-0.2,0.3-0.5,0.5-0.8,0.9c-0.5,0.6-1,1.3-1.4,2c-0.7,1.2-1.2,2.4-1.5,3.7c-0.2,0.7-0.4,1.5-0.5,2.3
		c-0.1,0.7-0.2,1.3-0.3,1.9c-0.1,1-0.1,2-0.1,2.9c0.1,1.2,0.2,2.3,0.7,3.4c0.2,0.5,0.4,0.9,0.7,1.4c0.3,0.4,0.8,0.6,1.3,0.7
		c0.8,0.1,1.5-0.3,2.1-0.8c0.5-0.4,1-0.8,1.3-1.3c0.4-0.8,0.8-1.5,0.8-2.5c-0.1-0.5,0-1.2-0.2-1.7c-0.3-0.8-0.8-1.3-1.5-1.6
		c-0.5-0.2-1-0.2-1.5-0.1c-0.1,0-0.2,0.1-0.2,0c-0.5-0.1-1-0.1-1.4-0.4c-0.3-0.2-0.7-0.5-0.9-0.8c-0.4-0.7-0.5-1.4-0.2-2.1
		c0.4-0.9,1.1-1.4,1.9-1.7c0.4-0.2,0.9-0.2,1.4-0.3c0.4-0.1,0.9,0.1,1.3,0.2c0.5,0.1,1.1,0.3,1.6,0.5c0.8,0.3,1.5,0.7,2.1,1.3
		c0.8,0.7,1.4,1.5,1.9,2.4c0.3,0.8,0.6,1.5,0.7,2.4c0.1,0.7,0.3,1.5,0.2,2.2c-0.1,1-0.3,2.1-0.7,3.1c-0.3,0.9-0.8,1.7-1.4,2.5
		c-0.8,1-1.8,1.9-2.9,2.6c-0.8,0.5-1.7,0.9-2.7,1.1c-0.5,0.1-1,0.2-1.5,0.2C309.7,152.2,308.6,152,307.6,151.4z"/>
	<path class="st3" d="M334.3,150.9c-0.8-0.6-1.1-1.4-1.2-2.3c-0.2-1.5-0.1-3.1-0.1-4.6c0-0.3-0.1-0.7-0.3-0.9
		c-0.2-0.2-0.3-0.2-0.5-0.3c-0.7,0-1.3-0.1-1.9-0.1c-0.5-0.1-1.1-0.1-1.6-0.1c-0.2-0.1-0.4,0-0.5,0.2c-0.2,0.2-0.3,0.3-0.4,0.5
		c-0.2,0.1-0.2,0.3-0.3,0.5l-0.3,2.4c-0.1,0.5-0.2,1.2-0.3,1.7c-0.2,0.7-0.7,1.2-1.2,1.7c-0.2,0.2-0.4,0.3-0.7,0.4
		c-0.7,0.3-1.3,0.1-1.9-0.3c-0.6-0.4-0.9-1-1-1.7c-0.1-0.4-0.2-0.8-0.1-1.2v-0.1c-0.1-0.6,0.1-1.1,0.1-1.6c0.1-0.9,0.2-1.7,0.4-2.6
		l0.5-2.6c0.2-0.9,0.4-1.9,0.7-2.8c0.5-1.9,1.1-3.8,1.8-5.6c0.4-1.2,0.9-2.3,1.3-3.4l1.4-3.6c0.4-1,0.9-2,1.5-2.9
		c0.3-0.5,0.9-0.7,1.4-0.8c0.9-0.2,1.8,0.2,2.4,0.8c0.5,0.5,0.9,1,1.2,1.6c0.5,0.8,0.9,1.6,1.2,2.4c0.4,0.9,0.7,1.9,0.9,2.9
		c0.1,0.6,0.3,1.2,0.4,1.8c0.1,0.6,0.3,1.2,0.2,1.8c0,0.3,0.2,0.4,0.2,0.7c-0.1,0.2-0.1,0.4,0.1,0.7c0.1,0,0,0.1,0,0.1
		c-0.1,0.6,0.1,1.3,0.2,1.9c0.1,1,0,2,0.1,3c0.1,1.3,0.1,2.5,0.1,3.8c0,0.5,0.2,1.1,0.1,1.7v1.7c0,0.7,0.1,1.4,0,2
		c0,0.6-0.1,1.3-0.3,1.9c-0.3,0.8-0.8,1.4-1.6,1.6C335.5,151.5,334.8,151.4,334.3,150.9z M332.7,136.7c0.1-0.2,0.1-0.4,0.1-0.7
		c0.1-0.3-0.1-0.7-0.1-1c0-0.6-0.2-1.2-0.1-1.8v-0.1c-0.2-0.7-0.2-1.3-0.3-2c-0.1-0.3-0.1-0.6-0.2-0.9c0-0.1-0.1-0.3-0.2-0.3
		c-0.2-0.1-0.3,0.1-0.4,0.2c-0.1,0.1-0.1,0.2-0.1,0.2c-0.3,0.8-0.6,1.6-0.9,2.4c-0.3,1-0.7,2-1,3c-0.1,0.3-0.2,0.6-0.2,0.9
		s0.2,0.5,0.5,0.7c0.2,0.1,0.4,0.1,0.6,0.1s0.5,0,0.7,0.1c0.3,0.1,0.5,0.1,0.8,0.1C332.2,137.6,332.6,137.2,332.7,136.7z"/>
	<path class="st3" d="M340.3,147.4c-0.2-0.4-0.3-0.8-0.4-1.2c-0.1-0.2-0.1-0.5,0-0.7v-0.2c-0.1-0.7-0.1-1.3-0.1-1.9
		c-0.1-0.8-0.1-1.6-0.1-2.4c0-0.8-0.1-1.6,0-2.5v-1.3c0-0.7,0-1.3,0.1-1.9c0.1-0.4,0.1-0.8,0.1-1.1c-0.1-0.3-0.1-0.7,0-1
		c0.1-0.4,0-0.8,0.1-1.2c0.1-0.7,0.1-1.4,0.1-2.1v-1c0.1-0.7,0.1-1.4,0.1-2.1c0-0.5,0-1.1,0.1-1.6c0.1-0.2,0.1-0.4,0.2-0.5
		c0.3-0.7,0.8-1.2,1.5-1.5c0.2-0.1,0.4-0.1,0.7-0.2c0.7-0.2,1.4,0.1,1.9,0.5c0.5,0.3,0.9,0.8,1,1.4c0.1,0.3,0.2,0.5,0.2,0.8
		c0,0.5-0.1,0.9-0.1,1.4v0.9c-0.1,0.7-0.1,1.4-0.1,2.1v1c-0.1,0.7-0.1,1.4-0.1,2.1c0,0.7-0.1,1.3-0.1,1.9c0,0.6,0,1.2-0.1,1.8
		c-0.1,0.4,0.1,0.8,0,1.2c-0.1,0.5-0.1,1.2,0,1.7c0,0.5-0.1,1.1,0.1,1.7c0.1,0.3-0.1,0.5-0.1,0.8c0.1,0.3,0.2,0.5,0,0.8v0.2
		c0.2,0.5,0.1,1.2,0.1,1.8c0,1.2-0.3,2.4-1.1,3.3c-0.9,1-2.1,1-3.1,0.3C340.9,148.4,340.5,147.9,340.3,147.4z"/>
	<path class="st3" d="M348.4,151.3c-0.4-0.4-0.6-0.9-0.6-1.3c-0.1-0.8-0.1-1.4-0.1-2.1c0-0.3,0-0.7-0.1-1.1c0-0.5-0.1-0.9,0-1.4
		c0-0.3-0.1-0.7-0.1-1c-0.1-0.7,0-1.3,0-1.9c-0.1-0.8,0-1.6,0-2.4v-1.9c-0.1-0.8-0.1-1.5,0.1-2.3c0.1-0.7,0-1.3,0.1-2
		c0-1,0.1-2,0.2-3l0.2-2.9c0.1-1.2,0.2-2.4,0.6-3.6c0.3-1.1,1.1-1.8,2.3-2c0.7-0.1,1.3,0.1,1.8,0.4c0.9,0.5,1.4,1.4,1.8,2.3l0.8,1.9
		c0.2,0.5,0.4,1.2,0.7,1.8c0.3,0.9,0.7,1.8,1.1,2.7c0.5,1.2,0.9,2.3,1.4,3.5c0.3,0.7,0.6,1.5,1,2.2c0,0.1,0.1,0.1,0.1,0.2
		c0.1,0.1,0.2,0.2,0.3,0.2c0.2-0.1,0.2-0.2,0.3-0.3v-2.9c0-0.6,0.1-1.2,0-1.8c-0.1-0.5-0.1-1,0-1.5c0.1-0.3,0-0.7,0.1-1v-2.8
		c0-0.5,0-1.8,0.1-2.4c0-0.5,0-1.1,0.1-1.6c0.1-0.7,0.3-1.4,0.7-2.1c0.4-0.7,1-1.2,1.9-1.3c0.5,0,1,0.2,1.3,0.6
		c0.6,0.5,0.9,1.2,1.1,1.9c0,0.2,0.2,0.4,0.2,0.7c0.1,0.6,0.1,1.2,0.1,1.8c-0.1,0.3,0,0.6,0,0.9l-0.1,0.7v3.8c0,0.8,0,1.6-0.1,2.4
		v0.8c0.1,1.2,0,2.4-0.1,3.5l-0.2,3.1c-0.1,1-0.1,2-0.1,3.1c-0.1,1.3-0.2,2.7-0.4,4c-0.1,0.7-0.1,1.4-0.4,2
		c-0.3,0.8-0.9,1.3-1.7,1.5c-0.8,0.2-1.6-0.1-2.1-0.7c-0.3-0.3-0.5-0.6-0.7-0.9c-0.2-0.4-0.5-0.8-0.9-1.2c-0.7-0.9-1.3-2-1.8-3.1
		c-0.4-0.8-0.8-1.6-1.3-2.5c-0.5-1-0.9-2.1-1.4-3.1c-0.2-0.6-0.5-1.2-0.7-1.8c-0.1-0.1-0.1-0.2-0.2-0.2c-0.1-0.1-0.2-0.3-0.3-0.2
		c-0.2,0.1-0.3,0.2-0.3,0.4c-0.1,0.2-0.1,0.4-0.1,0.7c0,0.6-0.1,1.2-0.1,1.9v4.5c0,0.6,0.1,1.2,0.1,1.8c-0.1,0.5-0.1,1-0.1,1.6
		c-0.1,0.4-0.1,0.8-0.1,1.3c-0.1,0.7-0.3,1.3-0.6,1.9c-0.3,0.4-0.8,0.8-1.3,0.9C349.9,152.3,349,152.1,348.4,151.3z"/>
</g>
<g class="st2">
	<path class="st3" d="M58.9,181.5c-0.8-0.3-1.4-0.8-1.7-1.6c-0.2-0.4-0.2-0.9-0.3-1.3c-0.1-0.7,0-1.4-0.1-1.8c0-0.7,0-1.3,0-1.8
		c0-0.6,0-1.1,0.1-1.7c0-0.4,0-0.8,0.1-1.2c0-0.4,0-0.8,0.1-1.2c0.1-0.8,0.1-1.6,0-2.4c0-0.4,0-0.9-0.1-1.3V167
		c-0.1-0.1-0.1-0.3,0-0.4c0-0.1,0-0.2,0-0.3c-0.1-0.3,0-0.6,0.1-0.9c0.2-0.5,0.6-0.7,1.1-0.9c0.3-0.1,0.7-0.2,1.1-0.2
		c0.3-0.1,0.7,0,1-0.1c0,0,0,0,0.1,0c0.9,0,1.8-0.1,2.7-0.1c0.6,0.1,1.2,0.3,1.6,0.9c0.3,0.4,0.3,1,0,1.5c-0.3,0.5-0.7,0.6-1.2,0.8
		c-0.2,0.1-0.4,0.1-0.6,0.1c-0.6,0-1.2,0.1-1.8,0.1c-0.4,0-0.6,0.3-0.6,0.7c0,0.8,0,1.5,0,2.3c0,0.2,0,0.4,0,0.6
		c-0.1,0.2,0,0.5,0.1,0.7c0.1,0.1,0.2,0.2,0.3,0.2c0.4,0,0.7,0,1,0c0.5,0,1,0.1,1.4,0.3c0.5,0.2,0.8,0.7,0.9,1.3
		c0.1,0.7-0.4,1.2-1.1,1.5c-0.4,0.1-0.8,0.2-1.2,0.2c-0.3,0-0.6,0-0.8,0h-0.2c-0.5,0.1-0.6,0.3-0.6,0.7v1.7c0,0.3,0.1,0.5,0.1,0.7
		c0,0.4,0.3,0.6,0.7,0.6c0.4,0,0.7,0,1.1,0c0.5,0,0.9,0.1,1.4,0.3c0.4,0.2,0.6,0.5,0.6,0.9c0,0.3-0.1,0.6-0.3,0.9
		c-0.3,0.3-0.7,0.5-1.2,0.6c-0.3,0-0.6,0.1-0.9,0.1c-0.4,0-0.7,0.1-1.1,0C60,181.7,59.5,181.7,58.9,181.5z"/>
	<path class="st3" d="M66.6,182c-0.3-0.5-0.2-1,0-1.5c0.2-0.3,0.4-0.5,0.7-0.6l1-0.4c0.6-0.3,1.2-0.5,1.6-0.9
		c0.4-0.4,0.7-0.8,0.7-1.4c0-0.2,0.1-0.4,0.1-0.6c-0.1-0.6-0.3-1.1-0.6-1.6c-0.3-0.4-0.6-0.8-0.9-1.1c-0.5-0.5-1.1-1-1.6-1.6
		c-0.5-0.5-0.9-1-1.2-1.7c-0.1-0.3-0.2-0.7-0.3-1c-0.1-0.5-0.1-1-0.1-1.5c0-0.3,0.1-0.6,0.2-0.9c0.1-0.4,0.3-0.8,0.5-1.1
		c0.4-0.8,1-1.4,1.6-1.9c0.4-0.3,0.8-0.5,1.2-0.7c0.3-0.2,0.7-0.2,1-0.3c0.4-0.1,0.7-0.1,1-0.1c0.5,0.1,0.9,0.3,1.1,0.7
		c0.1,0.3,0.2,0.5,0.2,0.8c-0.1,0.5-0.3,1-0.7,1.2c-0.3,0.2-0.6,0.2-0.9,0.3c-0.4,0.1-0.7,0.3-1.1,0.5c-0.6,0.4-0.9,1-1.1,1.6
		c-0.2,0.6-0.1,1.1,0.3,1.6c0.6,0.8,1.4,1.4,2.1,2.1s1.3,1.5,1.7,2.4c0.2,0.5,0.4,1,0.4,1.6c0.1,0.3,0,0.6,0.1,0.8
		c0,0.7-0.1,1.4-0.3,2c-0.2,0.5-0.4,0.9-0.7,1.3c-0.5,0.6-0.8,0.9-1.6,1.4c-0.6,0.4-1.3,0.7-1.9,1c-0.2,0.1-0.4,0.1-0.6,0.2
		c-0.4,0.2-0.7,0.2-1.1,0.1C67.2,182.6,66.9,182.4,66.6,182z"/>
	<path class="st3" d="M75.5,182.3c-0.6-0.4-0.9-1.1-0.8-1.7v-0.1c0-0.3,0-0.7,0-0.8c0-0.1,0-0.3,0-0.4c0-0.2,0-0.4,0-0.6
		c0-0.3,0.1-0.5,0-0.8c0-0.1,0.1-0.3,0-0.4c0-0.1-0.1-0.2,0-0.4c0,0,0-0.1,0-0.1c0-0.3,0-0.7,0-1c0-0.3,0-0.5,0-0.8
		c0-0.1,0-0.3,0-0.4c0-0.1-0.1-0.3,0-0.4v-0.1c-0.1-0.3,0-0.6,0-0.9c0-0.2,0.1-0.3,0-0.4v-0.4c0.1-0.2,0-0.4,0-0.6
		c0-0.3,0-0.6,0-0.9c0-0.3,0-0.5,0-0.8c0-0.2,0-0.4,0-0.5c0-0.3,0.1-0.5,0-0.8c0-0.1,0.1-0.2,0-0.4c0-0.1,0-0.2,0-0.4V168
		c0-0.3,0-0.6,0-0.8c0-0.2,0-0.5,0-0.7c0-0.6,0-1.2,0.3-1.7c0.2-0.5,0.6-0.9,1.1-1.1c0.5-0.2,1-0.4,1.6-0.4c0.7,0,1.3,0.1,1.9,0.3
		c0.7,0.2,1.3,0.5,1.8,0.9c0.3,0.3,0.7,0.6,0.9,0.9c0.3,0.4,0.5,0.7,0.7,1.1c0.1,0.2,0.2,0.5,0.3,0.8c0.1,0.2,0.1,0.5,0.2,0.8
		c0.1,0.1,0.1,0.3,0.1,0.5c0,0.6,0,1.2-0.1,1.8c-0.1,0.9-0.5,1.7-0.9,2.5c-0.2,0.4-0.5,0.7-0.7,1.1c-0.4,0.5-0.9,1-1.4,1.3
		c-0.4,0.3-0.8,0.5-1.2,0.6c-0.2,0.1-0.3,0.1-0.5,0.1c-0.3,0-0.5,0.2-0.6,0.4c-0.2,0.2-0.3,0.5-0.3,0.8c0,0-0.1,0.1-0.1,0.1
		c0.1,0.3,0,0.5,0,0.8c0,0.3,0,0.5,0,0.8v0.1c0,0.3,0.1,1.1,0,1.2c0,0.1,0,0.1,0,0.2c0,0.3,0,0.7-0.1,1c-0.2,0.5-0.5,0.9-1.1,1.1
		C76.4,182.6,75.9,182.5,75.5,182.3z M78.6,173c0.1,0,0.2,0,0.3-0.1c0.2-0.1,0.4-0.3,0.5-0.4c0.4-0.4,0.7-0.9,0.9-1.5
		c0.2-0.7,0.4-1.5,0.3-2.3c0-0.1,0-0.3,0-0.5c0-0.2-0.1-0.4-0.2-0.6c-0.2-0.4-0.4-0.7-0.7-1c-0.2-0.2-0.4-0.2-0.6-0.3
		c-0.1,0-0.3,0-0.3,0c-0.2,0.2-0.4,0.3-0.4,0.6c0,0.5-0.1,1.1-0.1,1.6c0,0,0,0.1,0,0.1c-0.1,0.2,0,0.5,0,0.7c0,0.3,0,0.6,0,0.8v0.6
		c0,0.4-0.1,0.7,0,1v0.1c-0.1,0.3,0,0.5,0,0.8c0,0.1,0.1,0.2,0.2,0.3C78.5,173.1,78.6,173,78.6,173z"/>
	<path class="st3" d="M87,181.5c-0.8-0.3-1.4-0.8-1.7-1.6c-0.2-0.4-0.2-0.9-0.3-1.3c-0.1-0.7,0-1.4-0.1-1.8c0-0.7,0-1.3,0-1.8
		c0-0.6,0-1.1,0.1-1.7c0-0.4,0-0.8,0.1-1.2c0-0.4,0-0.8,0.1-1.2c0.1-0.8,0.1-1.6,0-2.4c0-0.4,0-0.9-0.1-1.3V167
		c-0.1-0.1-0.1-0.3,0-0.4c0-0.1,0-0.2,0-0.3c-0.1-0.3,0-0.6,0.1-0.9c0.2-0.5,0.6-0.7,1.1-0.9c0.3-0.1,0.7-0.2,1.1-0.2
		c0.3-0.1,0.7,0,1-0.1c0,0,0,0,0.1,0c0.9,0,1.8-0.1,2.7-0.1c0.6,0.1,1.2,0.3,1.6,0.9c0.3,0.4,0.3,1,0,1.5c-0.3,0.5-0.7,0.6-1.2,0.8
		c-0.2,0.1-0.4,0.1-0.6,0.1c-0.6,0-1.2,0.1-1.8,0.1c-0.4,0-0.6,0.3-0.6,0.7c0,0.8,0,1.5,0,2.3c0,0.2,0,0.4,0,0.6
		c-0.1,0.2,0,0.5,0.1,0.7c0.1,0.1,0.2,0.2,0.3,0.2c0.4,0,0.7,0,1,0c0.5,0,1,0.1,1.4,0.3c0.5,0.2,0.8,0.7,0.9,1.3
		c0.1,0.7-0.4,1.2-1.1,1.5c-0.4,0.1-0.8,0.2-1.2,0.2c-0.3,0-0.6,0-0.8,0h-0.2c-0.5,0.1-0.6,0.3-0.6,0.7v1.7c0,0.3,0.1,0.5,0.1,0.7
		c0,0.4,0.3,0.6,0.7,0.6c0.4,0,0.7,0,1.1,0c0.5,0,0.9,0.1,1.4,0.3c0.4,0.2,0.6,0.5,0.6,0.9c0,0.3-0.1,0.6-0.3,0.9
		c-0.3,0.3-0.7,0.5-1.2,0.6c-0.3,0-0.6,0.1-0.9,0.1c-0.4,0-0.7,0.1-1.1,0C88.1,181.7,87.5,181.7,87,181.5z"/>
	<path class="st3" d="M99,182c-0.8-0.2-1.6-0.5-2.2-1.1c-0.2-0.1-0.3-0.3-0.5-0.4c-0.4-0.5-0.8-1-1.1-1.5c-0.3-0.5-0.5-1-0.6-1.6
		c-0.1-0.4-0.2-0.7-0.3-1.1c-0.1-0.4-0.1-0.8-0.1-1.2c0-0.3,0-0.5,0-0.8c-0.1-0.5,0-0.9,0.1-1.3c0.1-0.9,0.2-1.7,0.5-2.6
		c0.2-0.8,0.5-1.6,0.8-2.4c0.3-0.6,0.7-1.2,1.1-1.8c0.4-0.6,0.9-1.1,1.4-1.5c0.5-0.5,1.2-0.8,1.9-1c0.2-0.1,0.4-0.1,0.6-0.1
		c0.1,0,0.2,0,0.2,0c0,0,0.1,0,0.1,0c0.4,0.1,0.7,0,1.1,0.1c0.4,0.1,0.7,0.3,1,0.6c0.2,0.2,0.3,0.4,0.3,0.7c0,0.3,0,0.5-0.1,0.8
		c-0.1,0.4-0.7,0.8-1,0.9c-0.3,0.1-0.6,0.1-1,0c-0.5-0.1-1,0-1.3,0.4c-0.5,0.5-0.9,1.1-1.3,1.7c-0.3,0.6-0.6,1.3-0.8,1.9
		c-0.1,0.4-0.3,0.8-0.4,1.3c-0.1,0.3-0.1,0.7-0.2,1.1c-0.1,0.6,0,1.1,0,1.7c0,0.7,0.1,1.5,0.4,2.2c0.2,0.6,0.5,1.1,1,1.5
		c0.4,0.3,0.8,0.7,1.2,0.9c0.2,0.1,0.4,0.2,0.6,0.2c0.3,0.1,0.6,0.3,0.9,0.5c0.2,0.2,0.4,0.4,0.4,0.7c0.1,0.3,0,0.6-0.2,0.9
		c-0.2,0.3-0.5,0.4-0.8,0.5c-0.3,0.1-0.7,0-1,0C99.5,182.2,99.3,182.1,99,182z"/>
	<path class="st3" d="M104.6,179.7c-0.1-0.2-0.2-0.5-0.2-0.7c0-0.1-0.1-0.3,0-0.4v-0.1c-0.1-0.4,0-0.8,0-1.2c0-0.5,0-1,0-1.4
		c0-0.5,0-1,0-1.5v-0.8c0-0.4,0-0.8,0-1.2c0-0.2,0.1-0.5,0-0.7c0-0.2,0-0.4,0-0.6c0-0.3,0-0.5,0-0.7c0-0.4,0-0.8,0.1-1.3v-0.6
		c0-0.4,0-0.9,0.1-1.3c0-0.3,0-0.7,0.1-1c0-0.1,0.1-0.2,0.1-0.3c0.2-0.4,0.5-0.7,0.9-0.9c0.1-0.1,0.3-0.1,0.4-0.1
		c0.4-0.1,0.8,0,1.2,0.3c0.3,0.2,0.5,0.5,0.6,0.8c0,0.2,0.1,0.3,0.1,0.5c0,0.3,0,0.6,0,0.9v0.6c0,0.4,0,0.9-0.1,1.3v0.6
		c0,0.4-0.1,0.8-0.1,1.3c0,0.4,0,0.8,0,1.2c0,0.4,0,0.7,0,1.1c0,0.2,0,0.5,0,0.7c0,0.3,0,0.7,0,1c0,0.3-0.1,0.7,0,1
		c0,0.2,0,0.3,0,0.5c0,0.2,0.1,0.3,0,0.5v0.1c0.1,0.3,0,0.7,0.1,1.1c0,0.7-0.2,1.4-0.7,2c-0.5,0.6-1.3,0.6-1.9,0.2
		C104.9,180.4,104.7,180.1,104.6,179.7z"/>
	<path class="st3" d="M116.4,181.9c-0.5-0.4-0.7-0.8-0.7-1.4c-0.1-0.9,0-1.9-0.1-2.8c0-0.2-0.1-0.4-0.2-0.6
		c-0.1-0.1-0.2-0.1-0.3-0.2c-0.4,0-0.8,0-1.2-0.1c-0.3,0-0.7,0-1,0c-0.1,0-0.2,0-0.3,0.1c-0.1,0.1-0.2,0.2-0.3,0.3
		c-0.1,0.1-0.1,0.2-0.2,0.3l-0.2,1.5c-0.1,0.3-0.1,0.7-0.2,1c-0.1,0.4-0.4,0.7-0.7,1c-0.1,0.1-0.3,0.2-0.4,0.2
		c-0.4,0.2-0.8,0.1-1.1-0.2c-0.3-0.3-0.6-0.6-0.6-1c-0.1-0.2-0.1-0.5,0-0.7v-0.1c0-0.3,0-0.7,0.1-1c0.1-0.5,0.1-1,0.2-1.6l0.3-1.6
		c0.1-0.6,0.3-1.1,0.4-1.7c0.3-1.2,0.7-2.3,1.1-3.4c0.2-0.7,0.5-1.4,0.8-2.1l0.9-2.2c0.2-0.6,0.5-1.2,0.9-1.7
		c0.2-0.3,0.5-0.4,0.9-0.5c0.6-0.1,1.1,0.1,1.5,0.5c0.3,0.3,0.5,0.6,0.7,1c0.3,0.5,0.5,1,0.7,1.5c0.2,0.6,0.4,1.1,0.6,1.7
		c0.1,0.4,0.2,0.7,0.2,1.1c0,0.4,0.2,0.7,0.1,1.1c0,0.2,0.1,0.3,0.1,0.4c0,0.1-0.1,0.3,0,0.4c0,0,0,0,0,0.1c0,0.4,0.1,0.8,0.1,1.1
		c0,0.6,0,1.2,0.1,1.8c0.1,0.8,0,1.5,0,2.3c0,0.3,0.1,0.7,0.1,1v1c0,0.4,0,0.8,0,1.2c0,0.4-0.1,0.8-0.2,1.1c-0.2,0.5-0.5,0.8-1,1
		C117.2,182.2,116.8,182.2,116.4,181.9z M115.5,173.3c0-0.1,0-0.3,0-0.4c0-0.2-0.1-0.4-0.1-0.6c0-0.4-0.1-0.7-0.1-1.1v0
		c-0.1-0.4-0.1-0.8-0.2-1.2c0-0.2-0.1-0.4-0.1-0.6c0-0.1,0-0.2-0.1-0.2c-0.1,0-0.2,0-0.3,0.1c0,0.1-0.1,0.1-0.1,0.1
		c-0.2,0.5-0.4,1-0.6,1.5c-0.2,0.6-0.4,1.2-0.6,1.8c-0.1,0.2-0.1,0.4-0.1,0.6s0.1,0.3,0.3,0.4c0.1,0.1,0.2,0.1,0.4,0.1s0.3,0,0.4,0
		c0.2,0.1,0.3,0,0.5,0C115.2,173.8,115.4,173.6,115.5,173.3z"/>
	<path class="st3" d="M127.1,182.5c-0.5-0.2-0.9-0.2-1.4-0.2c-0.4-0.1-0.9-0.1-1.3-0.2c-0.3,0-0.7,0-1-0.1c-0.4,0-0.9-0.2-1.3-0.3
		c-0.3-0.1-0.5-0.2-0.8-0.4c-0.4-0.2-0.6-0.6-0.8-1c-0.1-0.4-0.2-1.1-0.1-1.5c0-0.2,0-0.3,0-0.5c0-0.3,0-0.6,0-0.8c0-0.3,0-0.7,0-1
		c0-0.2,0-0.5,0-0.7c0-0.3,0-0.6,0-0.9c0,0,0-0.1,0-0.1c0-0.3,0-0.7,0-1v-0.9c0-0.3,0-0.6,0-1c0-0.3,0-0.7,0-1v-0.2
		c0-0.4,0-0.7,0-1.1c0-0.2,0-0.5,0-0.7c0-0.3,0-0.7,0-1c0-0.2,0-0.5,0-0.7c0-0.2,0-0.4,0-0.6v-0.9c0-0.5,0.1-1,0.2-1.5
		c0.2-0.4,0.5-0.8,0.9-0.9c0.5-0.1,1,0,1.4,0.4c0.2,0.2,0.3,0.5,0.4,0.8c0.1,0.3,0.1,0.6,0.2,1c0.1,0.3,0,0.8,0,1.2
		c0,0.4,0,0.9-0.1,1.3c0,0.2,0,0.5,0,0.8c0,0.2,0,0.5-0.1,0.8v0.6c0,0.3,0,0.5,0,0.8c0,0.4,0,0.8,0,1.1v0.1c0.1,0.4,0,0.7,0,1.1
		c0,0.1-0.1,0.3,0,0.4c0,0.1,0.1,0.3,0,0.5v0.1c0,0.4,0,0.7,0,1.1v0.9c0,0.3,0,0.6-0.1,0.9c0,0.2,0,0.3,0,0.5c0,0.3-0.1,0.6,0,0.9
		s0.2,0.5,0.4,0.6c0.2,0.1,0.5,0.2,0.7,0.2h0.6c0.6,0,1.2,0,1.8,0.1c0.1,0,0.1,0,0.2,0c0.7-0.1,1.3,0.1,1.9,0.5
		c0.3,0.2,0.5,0.5,0.5,0.8c0.1,0.5,0,1-0.4,1.4c-0.3,0.3-0.6,0.4-1,0.5C127.9,182.6,127.5,182.6,127.1,182.5z"/>
	<path class="st3" d="M137.4,182.5c-0.5-0.2-0.9-0.2-1.4-0.2c-0.4-0.1-0.9-0.1-1.3-0.2c-0.3,0-0.7,0-1-0.1c-0.4,0-0.9-0.2-1.3-0.3
		c-0.3-0.1-0.5-0.2-0.8-0.4c-0.4-0.2-0.6-0.6-0.8-1c-0.1-0.4-0.2-1.1-0.1-1.5c0-0.2,0-0.3,0-0.5c0-0.3,0-0.6,0-0.8c0-0.3,0-0.7,0-1
		c0-0.2,0-0.5,0-0.7c0-0.3,0-0.6,0-0.9c0,0,0-0.1,0-0.1c0-0.3,0-0.7,0-1v-0.9c0-0.3,0-0.6,0-1c0-0.3,0-0.7,0-1v-0.2
		c0-0.4,0-0.7,0-1.1c0-0.2,0-0.5,0-0.7c0-0.3,0-0.7,0-1c0-0.2,0-0.5,0-0.7c0-0.2,0-0.4,0-0.6v-0.9c0-0.5,0.1-1,0.2-1.5
		c0.2-0.4,0.5-0.8,0.9-0.9c0.5-0.1,1,0,1.4,0.4c0.2,0.2,0.3,0.5,0.4,0.8c0.1,0.3,0.1,0.6,0.2,1c0.1,0.3,0,0.8,0,1.2
		c0,0.4,0,0.9-0.1,1.3c0,0.2,0,0.5,0,0.8c0,0.2,0,0.5-0.1,0.8v0.6c0,0.3,0,0.5,0,0.8c0,0.4,0,0.8,0,1.1v0.1c0.1,0.4,0,0.7,0,1.1
		c0,0.1-0.1,0.3,0,0.4c0,0.1,0.1,0.3,0,0.5v0.1c0,0.4,0,0.7,0,1.1v0.9c0,0.3,0,0.6-0.1,0.9c0,0.2,0,0.3,0,0.5c0,0.3-0.1,0.6,0,0.9
		s0.2,0.5,0.4,0.6c0.2,0.1,0.5,0.2,0.7,0.2h0.6c0.6,0,1.2,0,1.8,0.1c0.1,0,0.1,0,0.2,0c0.7-0.1,1.3,0.1,1.9,0.5
		c0.3,0.2,0.5,0.5,0.5,0.8c0.1,0.5,0,1-0.4,1.4c-0.3,0.3-0.6,0.4-1,0.5C138.2,182.6,137.8,182.6,137.4,182.5z"/>
	<path class="st3" d="M142.8,182.1c-0.4-0.3-0.6-0.6-0.7-1.1c-0.2-0.8,0.3-1.6,0.9-1.8c0.4-0.2,0.8-0.1,1.2-0.1
		c0.4,0.1,0.7,0.2,1.1,0.2c0.8-0.1,1.5-0.4,2-1.2c0.3-0.5,0.5-1,0.7-1.6c0.1-0.2,0.2-0.5,0.2-0.8c0-0.1,0-0.1-0.1-0.2
		c-0.1-0.1-0.1-0.1-0.2,0l-0.5,0.4c-0.4,0.3-0.8,0.5-1.2,0.6c-0.4,0.1-0.8,0.1-1.2-0.1c-0.5-0.2-1-0.5-1.4-0.8
		c-0.8-0.6-1.3-1.4-1.7-2.3c-0.1-0.3-0.2-0.6-0.2-0.9c-0.1-0.3-0.1-0.6-0.1-0.9c0-0.1,0-0.3-0.1-0.4c-0.1-0.5-0.2-1-0.2-1.5
		c0-0.4,0-0.7,0-1.1c0-0.3,0.1-0.5,0.1-0.7c0-0.2-0.1-0.5,0-0.7c0,0,0-0.1,0-0.1c0-0.4,0.1-0.8,0.2-1.2c0.1-0.4,0.2-0.8,0.3-1.2
		c0.2-0.6,0.6-1,1.2-1.2c0.2,0,0.4,0,0.5,0c0.7,0.2,1,0.9,1,1.5c0,0.5-0.1,1-0.1,1.5l-0.1,1c-0.1,1-0.1,1.9,0,2.9
		c0,0.9,0.2,1.7,0.7,2.5c0.2,0.3,0.5,0.6,0.8,0.7c0.2,0.1,0.3,0,0.5-0.1c0.2-0.2,0.3-0.3,0.4-0.5c0.3-0.6,0.5-1.3,0.7-2
		c0.1-0.4,0.2-0.8,0.3-1.1c0.1-0.6,0.3-1.2,0.4-1.8c0-0.4,0.2-0.8,0.2-1.2c0-0.2,0.1-0.4,0.1-0.6c0-0.2,0.1-0.5,0.1-0.7l0.1-0.6
		c0.1-0.7,0.4-1.2,1-1.5c0.7-0.3,1.4-0.1,1.9,0.6c0.3,0.4,0.4,0.9,0.5,1.4c0.1,0.6,0.1,1.2,0.1,1.8c0,0.5,0.1,1,0.1,1.4v0.1
		c0,0.6-0.1,1.3-0.1,1.9c0,0.5-0.1,1-0.1,1.5c0,0.4-0.1,0.8-0.1,1.1c-0.1,0.6-0.2,1.2-0.3,1.8c-0.1,0.5-0.2,1.1-0.3,1.6
		c-0.1,0.4-0.2,0.8-0.4,1.3c-0.2,0.6-0.4,1.1-0.7,1.6c-0.2,0.4-0.4,0.8-0.7,1.1c-0.4,0.4-0.8,0.9-1.3,1.2c-0.3,0.2-0.7,0.4-1,0.5
		c-0.4,0.1-0.8,0.2-1.2,0.3c-0.5,0.1-0.9,0.1-1.4,0C143.7,182.5,143.2,182.4,142.8,182.1z"/>
	<path class="st3" d="M159.7,179.7c-0.1-0.2-0.2-0.5-0.2-0.7c0-0.1-0.1-0.3,0-0.4v-0.1c-0.1-0.4,0-0.8,0-1.2c0-0.5,0-1,0-1.4
		c0-0.5,0-1,0-1.5v-0.8c0-0.4,0-0.8,0-1.2c0-0.2,0.1-0.5,0-0.7c0-0.2,0-0.4,0-0.6c0-0.3,0-0.5,0-0.7c0-0.4,0-0.8,0.1-1.3v-0.6
		c0-0.4,0-0.9,0.1-1.3c0-0.3,0-0.7,0.1-1c0-0.1,0.1-0.2,0.1-0.3c0.2-0.4,0.5-0.7,0.9-0.9c0.1-0.1,0.3-0.1,0.4-0.1
		c0.4-0.1,0.8,0,1.2,0.3c0.3,0.2,0.5,0.5,0.6,0.8c0,0.2,0.1,0.3,0.1,0.5c0,0.3,0,0.6,0,0.9v0.6c0,0.4,0,0.9-0.1,1.3v0.6
		c0,0.4-0.1,0.8-0.1,1.3c0,0.4,0,0.8,0,1.2c0,0.4,0,0.7,0,1.1c0,0.2,0,0.5,0,0.7c0,0.3,0,0.7,0,1c0,0.3-0.1,0.7,0,1
		c0,0.2,0,0.3,0,0.5c0,0.2,0.1,0.3,0,0.5v0.1c0.1,0.3,0,0.7,0.1,1.1c0,0.7-0.2,1.4-0.7,2c-0.5,0.6-1.3,0.6-1.9,0.2
		C160.1,180.4,159.9,180.1,159.7,179.7z"/>
	<path class="st3" d="M164.6,182.1c-0.2-0.3-0.4-0.6-0.4-0.8c-0.1-0.5-0.1-0.9-0.1-1.3c0-0.2,0-0.4,0-0.7c0-0.3,0-0.6,0-0.9
		c0-0.2,0-0.4,0-0.6c0-0.4,0-0.8,0-1.2c0-0.5,0-1,0-1.5v-1.1c0-0.5,0-0.9,0-1.4c0-0.4,0-0.8,0-1.2c0-0.6,0.1-1.2,0.1-1.8l0.1-1.7
		c0.1-0.7,0.1-1.5,0.3-2.2c0.2-0.7,0.7-1.1,1.4-1.2c0.4-0.1,0.8,0.1,1.1,0.3c0.6,0.3,0.8,0.8,1.1,1.4l0.5,1.2
		c0.1,0.3,0.3,0.7,0.4,1.1c0.2,0.6,0.4,1.1,0.7,1.7c0.3,0.7,0.6,1.4,0.8,2.1c0.2,0.4,0.4,0.9,0.6,1.3c0,0,0,0.1,0,0.1
		c0.1,0.1,0.1,0.1,0.2,0.1c0.1,0,0.1-0.1,0.2-0.2v-1.7c0-0.4,0-0.7,0-1.1c0-0.3,0-0.6,0-0.9c0-0.2,0-0.4,0-0.6v-1.7
		c0-0.3,0-1.1,0-1.4c0-0.3,0-0.7,0.1-1c0.1-0.4,0.2-0.9,0.4-1.3c0.3-0.4,0.6-0.7,1.2-0.8c0.3,0,0.6,0.1,0.8,0.3
		c0.4,0.3,0.6,0.7,0.7,1.2c0,0.1,0.1,0.3,0.1,0.4c0.1,0.4,0.1,0.7,0.1,1.1c0,0.2,0,0.4,0,0.6l0,0.4v2.3c0,0.5,0,1,0,1.5v0.5
		c0,0.7,0,1.4,0,2.1l-0.1,1.9c0,0.6,0,1.2-0.1,1.9c-0.1,0.8-0.1,1.6-0.2,2.4c-0.1,0.4-0.1,0.8-0.2,1.2c-0.2,0.5-0.5,0.8-1,0.9
		c-0.5,0.1-1,0-1.3-0.4c-0.2-0.2-0.3-0.4-0.4-0.5c-0.1-0.3-0.3-0.5-0.5-0.7c-0.4-0.6-0.8-1.2-1.1-1.9c-0.3-0.5-0.5-1-0.8-1.5
		c-0.3-0.6-0.6-1.3-0.9-1.9c-0.1-0.4-0.3-0.7-0.4-1.1c0-0.1-0.1-0.1-0.1-0.1c-0.1-0.1-0.1-0.2-0.2-0.1c-0.1,0-0.2,0.1-0.2,0.2
		c0,0.1,0,0.3,0,0.4c0,0.4,0,0.7,0,1.1v2.7c0,0.4,0,0.7,0,1.1c0,0.3,0,0.6,0,1c0,0.2,0,0.5,0,0.8c0,0.4-0.2,0.8-0.4,1.1
		c-0.2,0.3-0.5,0.5-0.8,0.6C165.6,182.7,165,182.6,164.6,182.1z"/>
	<path class="st3" d="M186.9,181.8c-0.2-0.3-0.4-0.6-0.4-0.9c-0.1-0.2-0.1-0.4-0.1-0.6c0-0.5,0-1,0-1.6c0.1-0.7,0-1.3,0.1-2
		c0.1-0.6,0-1.3,0.1-1.9c0.1-0.5,0-1,0.1-1.4c0.1-0.4,0-0.8,0.1-1.1c0.1-0.4,0-0.7,0.1-1.1c0.1-0.5,0-0.9,0.1-1.4
		c0.1-0.7,0-1.4,0-2.2c0-0.3-0.1-0.7-0.2-1c-0.1-0.2-0.3-0.3-0.5-0.3h-1.9c-0.6,0-1.1-0.2-1.4-0.7c-0.1-0.2-0.2-0.3-0.1-0.5
		c0-0.2,0-0.3,0-0.5c0.1-0.5,0.7-1,1.3-1c0.2,0,0.4,0,0.6,0h2.4c0.8,0,1.7,0,2.5,0c1,0,1.9,0,2.9,0c0.4,0,0.8,0.1,1.2,0.3
		c0.3,0.2,0.6,0.5,0.7,0.9c0,0.2,0,0.5-0.1,0.7c-0.1,0.2-0.4,0.3-0.6,0.4c0,0-0.1,0.1-0.1,0.1c-0.2,0.1-0.5,0.2-0.8,0.3
		c-0.5,0.1-1.1,0-1.6,0c-0.2,0-0.4,0.1-0.6,0.1c-0.1,0-0.1,0.1-0.1,0.1c-0.2,0.2-0.4,0.5-0.5,0.8c0,0.2,0,0.4,0,0.7
		c0,0.5,0,1.1,0,1.6c0,0.6-0.1,1.2-0.1,1.8c-0.1,0.4,0,0.8-0.1,1.1c0,0.4,0,0.8-0.1,1.2c-0.1,0.5,0,1,0,1.5c-0.1,0.7,0,1.4-0.1,2.1
		c0,0.6,0,1.2,0,1.8c-0.1,0.4,0,0.8-0.1,1.2c-0.1,0.4-0.1,0.8-0.3,1.2c-0.2,0.4-0.4,0.7-0.8,0.9
		C187.9,182.4,187.2,182.2,186.9,181.8z"/>
	<path class="st3" d="M196.4,182.2c-0.4-0.4-0.7-0.8-0.8-1.4c-0.1-0.5,0-1.1-0.1-1.6c0-0.2,0-0.4-0.1-0.6c0-0.1,0-0.2,0-0.3
		c0.1-0.3,0.1-0.5,0.1-0.8c0-1.6,0-3.3,0-5c0-1,0-1.9,0.1-2.9c0.1-0.8,0-1.6,0.1-2.3c0-0.7,0-1.5,0.1-2.2c0-0.6,0.3-1.1,0.8-1.5
		c0.2-0.2,0.5-0.3,0.8-0.3h0.2c0.6-0.1,1,0.3,1.3,0.7c0.2,0.3,0.3,0.6,0.3,1c0,1,0,1.9,0,2.9c-0.1,0.8,0,1.6,0,2.5
		c0,0.2,0,0.3,0.1,0.4c0.2,0.1,0.3,0.2,0.5,0.2c0.6,0,1.2-0.1,1.8-0.1c0.3,0,0.6-0.1,0.8-0.3c0.3-0.2,0.5-0.5,0.5-0.9
		c0-0.3,0-0.6,0-0.9c-0.1-0.8,0-1.5,0-2.3c0-0.7,0.4-1.2,1-1.6c0.9-0.4,1.8,0,2.2,0.7c0.2,0.4,0.3,0.7,0.3,1.1
		c0,0.8,0.1,1.6,0.1,2.4c0.1,0.4,0,0.8,0.1,1.1c0.1,0.4,0,0.9,0.1,1.3c0.1,0.4,0,0.8,0.1,1.2c0.1,0.4,0,0.7,0.1,1.1
		c0.1,0.4,0,0.8,0.1,1.3c0,0.3,0,0.6,0,0.9c0,0.2,0.1,0.4,0.1,0.7c0,0.2,0,2,0.2,2.3c0,0.5,0.1,1-0.1,1.4c-0.2,0.5-0.5,1-1.1,1.2
		c-0.2,0.1-0.3,0-0.5,0.1c-0.4-0.1-0.8-0.2-1.1-0.5c-0.5-0.4-0.7-1-0.7-1.6c0-0.2-0.1-0.5-0.1-0.7s-0.1-2.1-0.2-2.3
		c0-0.1,0-0.2,0-0.4c0-0.5-0.2-1-0.3-1.5c0-0.1-0.1-0.2-0.2-0.3c-0.1-0.2-0.2-0.3-0.4-0.2c0,0-0.1,0-0.2,0c-0.7,0-1.5,0.1-2.2,0.1
		c-0.8,0-1.1,0.6-1.1,1.1v2.5c0,0.7,0,1.5,0,2.2c0,0.4-0.1,0.9-0.3,1.3c-0.2,0.4-0.5,0.8-1,1C197.2,182.6,196.7,182.6,196.4,182.2z"
		/>
	<path class="st3" d="M210,181.5c-0.8-0.3-1.4-0.8-1.7-1.6c-0.2-0.4-0.2-0.9-0.3-1.3c-0.1-0.7,0-1.4-0.1-1.8c0-0.7,0-1.3,0-1.8
		c0-0.6,0-1.1,0.1-1.7c0-0.4,0-0.8,0.1-1.2c0-0.4,0-0.8,0.1-1.2c0.1-0.8,0.1-1.6,0-2.4c0-0.4,0-0.9-0.1-1.3V167
		c-0.1-0.1-0.1-0.3,0-0.4c0-0.1,0-0.2,0-0.3c-0.1-0.3,0-0.6,0.1-0.9c0.2-0.5,0.6-0.7,1.1-0.9c0.3-0.1,0.7-0.2,1.1-0.2
		c0.3-0.1,0.7,0,1-0.1c0,0,0,0,0.1,0c0.9,0,1.8-0.1,2.7-0.1c0.6,0.1,1.2,0.3,1.6,0.9c0.3,0.4,0.3,1,0,1.5c-0.3,0.5-0.7,0.6-1.2,0.8
		c-0.2,0.1-0.4,0.1-0.6,0.1c-0.6,0-1.2,0.1-1.8,0.1c-0.4,0-0.6,0.3-0.6,0.7c0,0.8,0,1.5,0,2.3c0,0.2,0,0.4,0,0.6
		c-0.1,0.2,0,0.5,0.1,0.7c0.1,0.1,0.2,0.2,0.3,0.2c0.4,0,0.7,0,1,0c0.5,0,1,0.1,1.4,0.3c0.5,0.2,0.8,0.7,0.9,1.3
		c0.1,0.7-0.4,1.2-1.1,1.5c-0.4,0.1-0.8,0.2-1.2,0.2c-0.3,0-0.6,0-0.8,0h-0.2c-0.5,0.1-0.6,0.3-0.6,0.7v1.7c0,0.3,0.1,0.5,0.1,0.7
		c0,0.4,0.3,0.6,0.7,0.6c0.4,0,0.7,0,1.1,0c0.5,0,0.9,0.1,1.4,0.3c0.4,0.2,0.6,0.5,0.6,0.9c0,0.3-0.1,0.6-0.3,0.9
		c-0.3,0.3-0.7,0.5-1.2,0.6c-0.3,0-0.6,0.1-0.9,0.1c-0.4,0-0.7,0.1-1.1,0C211.1,181.7,210.5,181.7,210,181.5z"/>
	<path class="st3" d="M226.6,182.8c-0.4-0.2-0.7-0.5-0.9-0.9c-0.2-0.5-0.4-0.9-0.6-1.4c-0.1-0.2-0.1-0.4-0.1-0.5
		c0-0.3-0.1-0.7-0.2-1c-0.2-0.8-0.2-1.6-0.4-2.5c-0.1-0.4-0.1-0.8-0.2-1.1c0-0.3-0.1-0.5-0.1-0.7c0-0.9-0.2-1.9-0.3-2.8
		c0-0.5-0.1-1-0.1-1.4s-0.1-0.9-0.1-1.4s-0.1-0.9,0-1.4c0-0.4,0.1-0.9,0.4-1.2c0.2-0.2,0.4-0.4,0.7-0.5c0.5-0.2,1-0.1,1.5,0.1
		c0.4,0.2,0.6,0.6,0.7,1c0.1,0.2,0.1,0.5,0.1,0.7c0,0.4,0.1,0.8,0.1,1.2c0,0.4,0.1,0.8,0.1,1.1c0,0.6,0.1,1.2,0.1,1.8
		c0,0.8,0.1,1.5,0.2,2.3c0.1,0.8,0.2,1.5,0.3,2.3c0,0,0,0.1,0,0.1c0,0.1,0.1,0.3,0.2,0.3c0.1,0,0.1-0.1,0.2-0.2
		c0.1-0.4,0.2-0.8,0.3-1.1c0.2-0.6,0.2-1.3,0.4-1.9l0.4-1.3l0.3-1.1c0.1-0.4,0.3-0.9,0.5-1.2c0.3-0.4,0.6-0.6,1.1-0.6
		c0.8-0.1,1.3,0.2,1.8,0.8c0.3,0.4,0.5,0.8,0.7,1.2c0.4,0.8,0.8,1.5,1.1,2.3c0.1,0.3,0.3,0.6,0.4,1c0,0,0,0.1,0.1,0.1
		c0.1,0.1,0.1,0.2,0.2,0.2c0.2,0,0.2-0.2,0.3-0.3c0-0.1,0-0.1,0.1-0.2c0.2-0.8,0.3-1.5,0.4-2.3l0.3-1.6c0.2-0.9,0.4-1.8,0.5-2.7
		c0.1-0.6,0.2-1.2,0.3-1.8c0.1-0.4,0.2-0.8,0.3-1.3c0.1-0.4,0.2-0.8,0.5-1.2c0.3-0.5,1.1-0.9,1.8-0.6c0.3,0.2,0.5,0.4,0.7,0.7
		c0.1,0.2,0.2,0.4,0.2,0.7c0,0.2,0,0.5,0,0.7c0,0.5-0.1,1-0.2,1.5c-0.2,0.9-0.3,1.7-0.5,2.6l-0.3,1.7c-0.2,1-0.4,1.9-0.5,2.9
		c-0.2,0.8-0.4,1.7-0.5,2.5c-0.2,0.9-0.5,1.8-0.7,2.7c-0.1,0.4-0.2,0.8-0.4,1.1c-0.2,0.4-0.5,0.8-0.9,1c-0.5,0.2-1,0.2-1.5,0
		c-0.4-0.2-0.6-0.5-0.8-0.8c-0.5-0.8-1-1.6-1.4-2.5c-0.2-0.4-0.4-0.8-0.6-1.2c-0.1-0.2-0.2-0.4-0.3-0.6c-0.1-0.1-0.2-0.1-0.4-0.2
		c-0.1,0-0.2,0.1-0.2,0.2l-0.2,0.4c-0.3,0.8-0.6,1.7-0.9,2.5c-0.3,0.8-0.6,1.7-1,2.5c-0.2,0.4-0.5,0.8-0.9,1.1
		c-0.3,0.3-0.6,0.4-1,0.5C227.3,183,226.9,182.9,226.6,182.8z"/>
	<path class="st3" d="M247.4,181.9c-0.5-0.4-0.7-0.8-0.7-1.4c-0.1-0.9,0-1.9-0.1-2.8c0-0.2-0.1-0.4-0.2-0.6
		c-0.1-0.1-0.2-0.1-0.3-0.2c-0.4,0-0.8,0-1.2-0.1c-0.3,0-0.7,0-1,0c-0.1,0-0.2,0-0.3,0.1c-0.1,0.1-0.2,0.2-0.3,0.3
		c-0.1,0.1-0.1,0.2-0.2,0.3L243,179c-0.1,0.3-0.1,0.7-0.2,1c-0.1,0.4-0.4,0.7-0.7,1c-0.1,0.1-0.3,0.2-0.4,0.2
		c-0.4,0.2-0.8,0.1-1.1-0.2c-0.3-0.3-0.6-0.6-0.6-1c-0.1-0.2-0.1-0.5,0-0.7v-0.1c0-0.3,0-0.7,0.1-1c0.1-0.5,0.1-1,0.2-1.6l0.3-1.6
		c0.1-0.6,0.3-1.1,0.4-1.7c0.3-1.2,0.7-2.3,1.1-3.4c0.2-0.7,0.5-1.4,0.8-2.1l0.9-2.2c0.2-0.6,0.5-1.2,0.9-1.7
		c0.2-0.3,0.5-0.4,0.9-0.5c0.6-0.1,1.1,0.1,1.5,0.5c0.3,0.3,0.5,0.6,0.7,1c0.3,0.5,0.5,1,0.7,1.5c0.2,0.6,0.4,1.1,0.6,1.7
		c0.1,0.4,0.2,0.7,0.2,1.1c0,0.4,0.2,0.7,0.1,1.1c0,0.2,0.1,0.3,0.1,0.4c0,0.1-0.1,0.3,0,0.4c0,0,0,0,0,0.1c0,0.4,0.1,0.8,0.1,1.1
		c0,0.6,0,1.2,0.1,1.8c0.1,0.8,0,1.5,0,2.3c0,0.3,0.1,0.7,0.1,1v1c0,0.4,0,0.8,0,1.2c0,0.4-0.1,0.8-0.2,1.1c-0.2,0.5-0.5,0.8-1,1
		C248.1,182.2,247.7,182.2,247.4,181.9z M246.4,173.3c0-0.1,0-0.3,0-0.4c0-0.2-0.1-0.4-0.1-0.6c0-0.4-0.1-0.7-0.1-1.1v0
		c-0.1-0.4-0.1-0.8-0.2-1.2c0-0.2-0.1-0.4-0.1-0.6c0-0.1,0-0.2-0.1-0.2c-0.1,0-0.2,0-0.3,0.1c0,0.1-0.1,0.1-0.1,0.1
		c-0.2,0.5-0.4,1-0.6,1.5c-0.2,0.6-0.4,1.2-0.6,1.8c-0.1,0.2-0.1,0.4-0.1,0.6s0.1,0.3,0.3,0.4c0.1,0.1,0.2,0.1,0.4,0.1
		c0.1,0,0.3,0,0.4,0c0.2,0.1,0.3,0,0.5,0C246.1,173.8,246.4,173.6,246.4,173.3z"/>
	<path class="st3" d="M251,179.7c-0.1-0.2-0.2-0.5-0.2-0.7c0-0.1-0.1-0.3,0-0.4v-0.1c-0.1-0.4,0-0.8,0-1.2c0-0.5,0-1,0-1.4
		c0-0.5,0-1,0-1.5v-0.8c0-0.4,0-0.8,0-1.2c0-0.2,0.1-0.5,0-0.7c0-0.2,0-0.4,0-0.6c0-0.3,0-0.5,0-0.7c0-0.4,0-0.8,0.1-1.3v-0.6
		c0-0.4,0-0.9,0.1-1.3c0-0.3,0-0.7,0.1-1c0-0.1,0.1-0.2,0.1-0.3c0.2-0.4,0.5-0.7,0.9-0.9c0.1-0.1,0.3-0.1,0.4-0.1
		c0.4-0.1,0.8,0,1.2,0.3c0.3,0.2,0.5,0.5,0.6,0.8c0,0.2,0.1,0.3,0.1,0.5c0,0.3,0,0.6,0,0.9v0.6c0,0.4,0,0.9-0.1,1.3v0.6
		c0,0.4-0.1,0.8-0.1,1.3c0,0.4,0,0.8,0,1.2c0,0.4,0,0.7,0,1.1c0,0.2,0,0.5,0,0.7c0,0.3,0,0.7,0,1c0,0.3-0.1,0.7,0,1
		c0,0.2,0,0.3,0,0.5c0,0.2,0.1,0.3,0,0.5v0.1c0.1,0.3,0,0.7,0.1,1.1c0,0.7-0.2,1.4-0.7,2c-0.5,0.6-1.3,0.6-1.9,0.2
		C251.4,180.4,251.2,180.1,251,179.7z"/>
	<path class="st3" d="M256,182c-0.3-0.5-0.2-1,0-1.5c0.2-0.3,0.4-0.5,0.7-0.6l1-0.4c0.6-0.3,1.2-0.5,1.6-0.9
		c0.4-0.4,0.7-0.8,0.7-1.4c0-0.2,0.1-0.4,0.1-0.6c-0.1-0.6-0.3-1.1-0.6-1.6c-0.3-0.4-0.6-0.8-0.9-1.1c-0.5-0.5-1.1-1-1.6-1.6
		c-0.5-0.5-0.9-1-1.2-1.7c-0.1-0.3-0.2-0.7-0.3-1c-0.1-0.5-0.1-1-0.1-1.5c0-0.3,0.1-0.6,0.2-0.9c0.1-0.4,0.3-0.8,0.5-1.1
		c0.4-0.8,1-1.4,1.6-1.9c0.4-0.3,0.8-0.5,1.2-0.7c0.3-0.2,0.7-0.2,1-0.3c0.4-0.1,0.7-0.1,1-0.1c0.5,0.1,0.9,0.3,1.1,0.7
		c0.1,0.3,0.2,0.5,0.2,0.8c-0.1,0.5-0.3,1-0.7,1.2c-0.3,0.2-0.6,0.2-0.9,0.3c-0.4,0.1-0.7,0.3-1.1,0.5c-0.6,0.4-0.9,1-1.1,1.6
		c-0.2,0.6-0.1,1.1,0.3,1.6c0.6,0.8,1.4,1.4,2.1,2.1c0.7,0.7,1.3,1.5,1.7,2.4c0.2,0.5,0.4,1,0.4,1.6c0.1,0.3,0,0.6,0.1,0.8
		c0,0.7-0.1,1.4-0.3,2c-0.2,0.5-0.4,0.9-0.7,1.3c-0.5,0.6-0.8,0.9-1.6,1.4c-0.6,0.4-1.3,0.7-1.9,1c-0.2,0.1-0.4,0.1-0.6,0.2
		c-0.4,0.2-0.7,0.2-1.1,0.1C256.5,182.6,256.2,182.4,256,182z"/>
	<path class="st3" d="M268.2,181.8c-0.2-0.3-0.4-0.6-0.4-0.9c-0.1-0.2-0.1-0.4-0.1-0.6c0-0.5,0-1,0-1.6c0.1-0.7,0-1.3,0.1-2
		c0.1-0.6,0-1.3,0.1-1.9c0.1-0.5,0-1,0.1-1.4c0.1-0.4,0-0.8,0.1-1.1c0.1-0.4,0-0.7,0.1-1.1c0.1-0.5,0-0.9,0.1-1.4
		c0.1-0.7,0-1.4,0-2.2c0-0.3-0.1-0.7-0.2-1c-0.1-0.2-0.3-0.3-0.5-0.3h-1.9c-0.6,0-1.1-0.2-1.4-0.7c-0.1-0.2-0.2-0.3-0.1-0.5
		c0-0.2,0-0.3,0-0.5c0.1-0.5,0.7-1,1.3-1c0.2,0,0.4,0,0.6,0h2.4c0.8,0,1.7,0,2.5,0c1,0,1.9,0,2.9,0c0.4,0,0.8,0.1,1.2,0.3
		c0.3,0.2,0.6,0.5,0.7,0.9c0,0.2,0,0.5-0.1,0.7c-0.1,0.2-0.4,0.3-0.6,0.4c0,0-0.1,0.1-0.1,0.1c-0.2,0.1-0.5,0.2-0.8,0.3
		c-0.5,0.1-1.1,0-1.6,0c-0.2,0-0.4,0.1-0.6,0.1c-0.1,0-0.1,0.1-0.1,0.1c-0.2,0.2-0.4,0.5-0.5,0.8c0,0.2,0,0.4,0,0.7
		c0,0.5,0,1.1,0,1.6c0,0.6-0.1,1.2-0.1,1.8c-0.1,0.4,0,0.8-0.1,1.1c0,0.4,0,0.8-0.1,1.2c-0.1,0.5,0,1,0,1.5c-0.1,0.7,0,1.4-0.1,2.1
		c0,0.6,0,1.2,0,1.8c-0.1,0.4,0,0.8-0.1,1.2c-0.1,0.4-0.1,0.8-0.3,1.2c-0.2,0.4-0.4,0.7-0.8,0.9
		C269.2,182.4,268.5,182.2,268.2,181.8z"/>
	<path class="st3" d="M290.9,181.9c-0.5-0.4-0.7-0.8-0.7-1.4c-0.1-0.9,0-1.9-0.1-2.8c0-0.2-0.1-0.4-0.2-0.6
		c-0.1-0.1-0.2-0.1-0.3-0.2c-0.4,0-0.8,0-1.2-0.1c-0.3,0-0.7,0-1,0c-0.1,0-0.2,0-0.3,0.1c-0.1,0.1-0.2,0.2-0.3,0.3
		c-0.1,0.1-0.1,0.2-0.2,0.3l-0.2,1.5c-0.1,0.3-0.1,0.7-0.2,1c-0.1,0.4-0.4,0.7-0.7,1c-0.1,0.1-0.3,0.2-0.4,0.2
		c-0.4,0.2-0.8,0.1-1.1-0.2c-0.3-0.3-0.6-0.6-0.6-1c-0.1-0.2-0.1-0.5,0-0.7v-0.1c0-0.3,0-0.7,0.1-1c0.1-0.5,0.1-1,0.2-1.6l0.3-1.6
		c0.1-0.6,0.3-1.1,0.4-1.7c0.3-1.2,0.7-2.3,1.1-3.4c0.2-0.7,0.5-1.4,0.8-2.1l0.9-2.2c0.2-0.6,0.5-1.2,0.9-1.7
		c0.2-0.3,0.5-0.4,0.9-0.5c0.6-0.1,1.1,0.1,1.5,0.5c0.3,0.3,0.5,0.6,0.7,1c0.3,0.5,0.5,1,0.7,1.5c0.2,0.6,0.4,1.1,0.6,1.7
		c0.1,0.4,0.2,0.7,0.2,1.1c0,0.4,0.2,0.7,0.1,1.1c0,0.2,0.1,0.3,0.1,0.4c0,0.1-0.1,0.3,0,0.4c0,0,0,0,0,0.1c0,0.4,0.1,0.8,0.1,1.1
		c0,0.6,0,1.2,0.1,1.8c0.1,0.8,0,1.5,0,2.3c0,0.3,0.1,0.7,0.1,1v1c0,0.4,0,0.8,0,1.2c0,0.4-0.1,0.8-0.2,1.1c-0.2,0.5-0.5,0.8-1,1
		C291.6,182.2,291.2,182.2,290.9,181.9z M289.9,173.3c0-0.1,0-0.3,0-0.4c0-0.2-0.1-0.4-0.1-0.6c0-0.4-0.1-0.7-0.1-1.1v0
		c-0.1-0.4-0.1-0.8-0.2-1.2c0-0.2-0.1-0.4-0.1-0.6c0-0.1,0-0.2-0.1-0.2c-0.1,0-0.2,0-0.3,0.1c0,0.1-0.1,0.1-0.1,0.1
		c-0.2,0.5-0.4,1-0.6,1.5c-0.2,0.6-0.4,1.2-0.6,1.8c-0.1,0.2-0.1,0.4-0.1,0.6s0.1,0.3,0.3,0.4c0.1,0.1,0.2,0.1,0.4,0.1
		c0.1,0,0.3,0,0.4,0c0.2,0.1,0.3,0,0.5,0C289.6,173.8,289.9,173.6,289.9,173.3z"/>
	<path class="st3" d="M295.4,181.8c-0.2-0.1-0.3-0.2-0.5-0.4c-0.3-0.4-0.5-0.8-0.6-1.3l-0.1-1.3c0-0.2,0-0.3,0-0.5
		c0-0.2-0.1-0.3,0-0.5c0,0,0-0.1,0-0.1c-0.1-0.3,0-0.6,0-0.9c0-0.5,0-1,0-1.4c0-0.2,0-0.5,0-0.8c0-0.3,0-0.5,0.1-0.8
		c0-0.2,0-0.5,0-0.7c0-0.3,0-0.6,0-0.8c0-0.2,0-0.4,0-0.5c0-0.4,0-0.8,0.1-1.2c0-0.4,0.1-0.8,0.1-1.3c0-0.3,0-0.5,0-0.8
		c0-0.3,0-0.6,0.1-0.8c0.1-0.4,0.1-0.8,0.3-1.1c0.1-0.3,0.3-0.6,0.4-0.8c0.3-0.5,0.8-0.8,1.3-0.9c0.5-0.1,1-0.1,1.4-0.2
		c0.9,0.1,1.7,0.3,2.5,0.8c0.7,0.5,1.3,1,1.7,1.8c0.2,0.3,0.3,0.7,0.4,1.1c0,0.1,0,0.2,0,0.4c0.1,1-0.1,1.9-0.6,2.8
		c-0.2,0.4-0.5,0.8-0.8,1.2c-0.4,0.5-0.9,1-1.3,1.4c-0.2,0.2-0.3,0.5-0.3,0.8c0.1,0.2,0.1,0.3,0.2,0.5c0.4,0.5,0.8,1,1.2,1.5
		c0.5,0.6,0.9,1.2,1.4,1.8c0.3,0.4,0.6,0.9,0.6,1.4c0,0.4-0.1,0.7-0.3,1c-0.2,0.2-0.3,0.4-0.5,0.4c-0.6,0.2-1.1,0.2-1.6-0.2
		c-0.4-0.3-0.7-0.7-1.1-1.1c-0.4-0.6-0.8-1.1-1.3-1.6L298,178c-0.1-0.1-0.2-0.1-0.3-0.1c-0.1,0-0.1,0.1-0.1,0.2v0.1
		c0,0.5,0,0.9,0,1.4c0,0.2,0,0.5-0.1,0.7c-0.1,0.5-0.3,0.9-0.6,1.2c-0.2,0.2-0.4,0.3-0.7,0.3C295.9,182,295.6,182,295.4,181.8z
		 M298.8,170.9c0.3-0.4,0.6-0.7,0.7-1.2c0.1-0.3,0.2-0.6,0.1-0.8c-0.1-0.5-0.7-0.9-1.2-0.8c-0.3,0-0.3,0-0.4,0.3
		c0,0.2-0.1,0.5-0.1,0.7c0,0.3,0,0.5,0,0.8c0,0.3,0,0.7-0.1,0.9c0,0.1,0,0.2,0,0.3c0,0.3,0.1,0.3,0.4,0.2
		C298.5,171.2,298.6,171,298.8,170.9z"/>
	<path class="st3" d="M306.2,181.5c-0.8-0.3-1.4-0.8-1.7-1.6c-0.2-0.4-0.2-0.9-0.3-1.3c-0.1-0.7,0-1.4-0.1-1.8c0-0.7,0-1.3,0-1.8
		c0-0.6,0-1.1,0.1-1.7c0-0.4,0-0.8,0.1-1.2c0-0.4,0-0.8,0.1-1.2c0.1-0.8,0.1-1.6,0-2.4c0-0.4,0-0.9-0.1-1.3V167
		c-0.1-0.1-0.1-0.3,0-0.4c0-0.1,0-0.2,0-0.3c-0.1-0.3,0-0.6,0.1-0.9c0.2-0.5,0.6-0.7,1.1-0.9c0.3-0.1,0.7-0.2,1.1-0.2
		c0.3-0.1,0.7,0,1-0.1c0,0,0,0,0.1,0c0.9,0,1.8-0.1,2.7-0.1c0.6,0.1,1.2,0.3,1.6,0.9c0.3,0.4,0.3,1,0,1.5c-0.3,0.5-0.7,0.6-1.2,0.8
		c-0.2,0.1-0.4,0.1-0.6,0.1c-0.6,0-1.2,0.1-1.8,0.1c-0.4,0-0.6,0.3-0.6,0.7c0,0.8,0,1.5,0,2.3c0,0.2,0,0.4,0,0.6
		c-0.1,0.2,0,0.5,0.1,0.7c0.1,0.1,0.2,0.2,0.3,0.2c0.4,0,0.7,0,1,0c0.5,0,1,0.1,1.4,0.3c0.5,0.2,0.8,0.7,0.9,1.3
		c0.1,0.7-0.4,1.2-1.1,1.5c-0.4,0.1-0.8,0.2-1.2,0.2c-0.3,0-0.6,0-0.8,0H308c-0.5,0.1-0.6,0.3-0.6,0.7v1.7c0,0.3,0.1,0.5,0.1,0.7
		c0,0.4,0.3,0.6,0.7,0.6c0.4,0,0.7,0,1.1,0c0.5,0,0.9,0.1,1.4,0.3c0.4,0.2,0.6,0.5,0.6,0.9c0,0.3-0.1,0.6-0.3,0.9
		c-0.3,0.3-0.7,0.5-1.2,0.6c-0.3,0-0.6,0.1-0.9,0.1c-0.4,0-0.7,0.1-1.1,0C307.3,181.7,306.7,181.7,306.2,181.5z"/>
	<path class="st3" d="M320.8,181.9c-0.5-0.4-0.7-0.8-0.7-1.4c-0.1-0.9,0-1.9-0.1-2.8c0-0.2-0.1-0.4-0.2-0.6
		c-0.1-0.1-0.2-0.1-0.3-0.2c-0.4,0-0.8,0-1.2-0.1c-0.3,0-0.7,0-1,0c-0.1,0-0.2,0-0.3,0.1c-0.1,0.1-0.2,0.2-0.3,0.3
		c-0.1,0.1-0.1,0.2-0.2,0.3l-0.2,1.5c-0.1,0.3-0.1,0.7-0.2,1c-0.1,0.4-0.4,0.7-0.7,1c-0.1,0.1-0.3,0.2-0.4,0.2
		c-0.4,0.2-0.8,0.1-1.1-0.2c-0.3-0.3-0.6-0.6-0.6-1c-0.1-0.2-0.1-0.5,0-0.7v-0.1c0-0.3,0-0.7,0.1-1c0.1-0.5,0.1-1,0.2-1.6l0.3-1.6
		c0.1-0.6,0.3-1.1,0.4-1.7c0.3-1.2,0.7-2.3,1.1-3.4c0.2-0.7,0.5-1.4,0.8-2.1l0.9-2.2c0.2-0.6,0.5-1.2,0.9-1.7
		c0.2-0.3,0.5-0.4,0.9-0.5c0.6-0.1,1.1,0.1,1.5,0.5c0.3,0.3,0.5,0.6,0.7,1c0.3,0.5,0.5,1,0.7,1.5c0.2,0.6,0.4,1.1,0.6,1.7
		c0.1,0.4,0.2,0.7,0.2,1.1c0,0.4,0.2,0.7,0.1,1.1c0,0.2,0.1,0.3,0.1,0.4c0,0.1-0.1,0.3,0,0.4c0,0,0,0,0,0.1c0,0.4,0.1,0.8,0.1,1.1
		c0,0.6,0,1.2,0.1,1.8c0.1,0.8,0,1.5,0,2.3c0,0.3,0.1,0.7,0.1,1v1c0,0.4,0,0.8,0,1.2c0,0.4-0.1,0.8-0.2,1.1c-0.2,0.5-0.5,0.8-1,1
		C321.5,182.2,321.1,182.2,320.8,181.9z M319.9,173.3c0-0.1,0-0.3,0-0.4c0-0.2-0.1-0.4-0.1-0.6c0-0.4-0.1-0.7-0.1-1.1v0
		c-0.1-0.4-0.1-0.8-0.2-1.2c0-0.2-0.1-0.4-0.1-0.6c0-0.1,0-0.2-0.1-0.2c-0.1,0-0.2,0-0.3,0.1c0,0.1-0.1,0.1-0.1,0.1
		c-0.2,0.5-0.4,1-0.6,1.5c-0.2,0.6-0.4,1.2-0.6,1.8c-0.1,0.2-0.1,0.4-0.1,0.6s0.1,0.3,0.3,0.4c0.1,0.1,0.2,0.1,0.4,0.1
		c0.1,0,0.3,0,0.4,0c0.2,0.1,0.3,0,0.5,0C319.6,173.8,319.8,173.6,319.9,173.3z"/>
</g>
</svg>
