<svg xmlns="http://www.w3.org/2000/svg" xmlns:xlink="http://www.w3.org/1999/xlink" width="360.086" height="173.394" viewBox="0 0 360.086 173.394">
  <defs>
    <clipPath id="clip-path">
      <rect id="Rectángulo_565" data-name="Rectángulo 565" width="144.787" height="109.633" fill="#002e66"/>
    </clipPath>
  </defs>
  <g id="Grupo_3203" data-name="Grupo 3203" transform="translate(-1260.738 -2185.86)">
    <g id="Grupo_3144" data-name="Grupo 3144" transform="translate(1384.607 2185.86)">
      <g id="Grupo_3143" data-name="Grupo 3143" clip-path="url(#clip-path)">
        <path id="Trazado_3105" data-name="Trazado 3105" d="M118.129,152.253c-23.325,0-42.306-20.888-42.306-46.564a48.868,48.868,0,0,1,13.9-34.511A1.754,1.754,0,0,1,92.2,73.663a45.342,45.342,0,0,0-12.868,32.026c0,23.74,17.4,43.053,38.795,43.053s38.795-19.313,38.795-43.053a45.379,45.379,0,0,0-12.873-32.031,1.754,1.754,0,1,1,2.476-2.485,48.886,48.886,0,0,1,13.908,34.515c0,25.676-18.981,46.564-42.307,46.564" transform="translate(-45.733 -42.62)" fill="#002e66"/>
        <path id="Trazado_3106" data-name="Trazado 3106" d="M127.354,130.416c-19.982,0-36.237-17.881-36.237-39.856a41.672,41.672,0,0,1,10.595-28.165,1.753,1.753,0,0,1,2.6,2.356,38.2,38.2,0,0,0-9.681,25.81c0,20.043,14.68,36.344,32.725,36.344s32.725-16.3,32.725-36.344a38.2,38.2,0,0,0-9.685-25.81,1.753,1.753,0,1,1,2.6-2.356,41.69,41.69,0,0,1,10.6,28.165c0,21.975-16.255,39.856-36.237,39.856" transform="translate(-54.958 -37.288)" fill="#002e66"/>
        <path id="Trazado_3107" data-name="Trazado 3107" d="M134.973,94.639c-17.217,0-31.224-15.392-31.224-34.313s14.007-34.313,31.224-34.313,31.22,15.392,31.22,34.313-14.007,34.313-31.22,34.313m0-65.114c-15.28,0-27.712,13.817-27.712,30.8s12.433,30.8,27.712,30.8,27.708-13.817,27.708-30.8-12.428-30.8-27.708-30.8" transform="translate(-62.577 -15.69)" fill="#002e66"/>
        <path id="Trazado_3108" data-name="Trazado 3108" d="M243.691,43.631a1.754,1.754,0,0,1-1.756-1.756c0-21.156-16.742-38.364-37.324-38.364-8.908,0-16.423,3.132-23.653,9.853a1.755,1.755,0,0,1-2.39-2.571C186.489,3.43,194.762,0,204.611,0c22.514,0,40.835,18.787,40.835,41.875a1.754,1.754,0,0,1-1.756,1.756" transform="translate(-107.367)" fill="#002e66"/>
        <path id="Trazado_3109" data-name="Trazado 3109" d="M335.842,114.361H325.471a3.282,3.282,0,0,1-3.278-3.279V107.99a6.9,6.9,0,0,1,6.894-6.894h3.141a6.9,6.9,0,0,1,6.894,6.894v3.093a3.283,3.283,0,0,1-3.279,3.279m-6.755-9.754a3.388,3.388,0,0,0-3.382,3.382v3.093l9.9-.229V107.99a3.388,3.388,0,0,0-3.382-3.382Zm6.755,6.242h0Z" transform="translate(-194.333 -60.977)" fill="#002e66"/>
        <path id="Trazado_3110" data-name="Trazado 3110" d="M334.466,176.522h-.3a5.912,5.912,0,0,1-5.906-5.906V127.43a1.755,1.755,0,0,1,1.756-1.756h8.606a1.755,1.755,0,0,1,1.756,1.756v43.186a5.916,5.916,0,0,1-5.91,5.906m-2.7-47.337v41.431a2.4,2.4,0,0,0,2.394,2.394h.3a2.4,2.4,0,0,0,2.4-2.394V129.186Z" transform="translate(-197.991 -75.801)" fill="#002e66"/>
        <path id="Trazado_3111" data-name="Trazado 3111" d="M18.66,43.631A1.754,1.754,0,0,1,16.9,41.875C16.9,18.787,35.225,0,57.739,0c9.844,0,18.123,3.43,26.048,10.793a1.755,1.755,0,1,1-2.39,2.571C74.162,6.644,66.643,3.512,57.739,3.512c-20.581,0-37.324,17.208-37.324,38.364a1.754,1.754,0,0,1-1.756,1.756" transform="translate(-10.196 0)" fill="#002e66"/>
        <path id="Trazado_3112" data-name="Trazado 3112" d="M13.654,114.361H3.279A3.283,3.283,0,0,1,0,111.083V107.99A6.9,6.9,0,0,1,6.894,101.1h3.141a6.9,6.9,0,0,1,6.894,6.894v3.093a3.282,3.282,0,0,1-3.274,3.279M3.512,110.85H13.654l-.237-2.86a3.388,3.388,0,0,0-3.382-3.382H6.894a3.388,3.388,0,0,0-3.382,3.382Z" transform="translate(0 -60.977)" fill="#002e66"/>
        <path id="Trazado_3113" data-name="Trazado 3113" d="M12.273,176.522h-.3a5.916,5.916,0,0,1-5.91-5.906V127.43a1.755,1.755,0,0,1,1.756-1.756h8.606a1.755,1.755,0,0,1,1.756,1.756v43.186a5.916,5.916,0,0,1-5.91,5.906m-2.7-47.337v41.431a2.4,2.4,0,0,0,2.4,2.394h.3a2.4,2.4,0,0,0,2.4-2.394V129.186Z" transform="translate(-3.658 -75.801)" fill="#002e66"/>
      </g>
    </g>
    <path id="Trazado_3238" data-name="Trazado 3238" d="M2.15-1.15a1.95,1.95,0,0,0,2.3-.05,2.539,2.539,0,0,0,.8-1A4.32,4.32,0,0,0,5.6-3.25a14.134,14.134,0,0,0,.1-2.5A1.338,1.338,0,0,1,6.5-7.1c.5-.25,1-.5,1.5-.8a11.448,11.448,0,0,0,2.6-2.3,11.13,11.13,0,0,0,.95-1.2l.9-1.4c.3-.6.6-1.15.85-1.75a9.655,9.655,0,0,0,.75-2,10.812,10.812,0,0,0,.5-2.2,15.439,15.439,0,0,0,.05-2.15,4.628,4.628,0,0,0-.2-1.15,2.959,2.959,0,0,0-.25-.95c-.2-.45-.35-.9-.55-1.35a20.67,20.67,0,0,0-1.1-1.75,9.049,9.049,0,0,0-1.6-1.5,7.99,7.99,0,0,0-2-1.15,6.818,6.818,0,0,0-3-.55,7.347,7.347,0,0,0-2.75.4A3.191,3.191,0,0,0,1.3-27.15,12.3,12.3,0,0,1,.95-25.7,2.672,2.672,0,0,0,.8-24.6c.05.6-.05,1.2,0,1.8.05.45-.05.95.05,1.45v.05a.845.845,0,0,0-.05.7c.05.25-.1.5-.05.75C.9-19.25.7-18.6.8-18l.05.05a4.86,4.86,0,0,0-.05,1.7c-.05.8,0,1.65,0,2.45v2.2c-.05.75,0,1.5-.05,2.2v2.2A8.429,8.429,0,0,0,.8-5.6v.15C.65-4.95.85-4.4.75-3.9a1.616,1.616,0,0,0,.15.8A3.047,3.047,0,0,0,2.15-1.15Zm4.2-11.8a.448.448,0,0,1-.6-.3v-.05c0-.6,0-1.15.05-1.7v-.15c-.15-.65.05-1.3-.05-1.9-.05-.35.05-.6,0-.95a1.631,1.631,0,0,1,0-.85c.05,0,0-.05,0-.05a9.652,9.652,0,0,1,0-1.7,5.725,5.725,0,0,1,.05-1.6,1.384,1.384,0,0,0-.05-.45,6.375,6.375,0,0,1,.05-1c-.05-.15.05-.3.25-.4a1.31,1.31,0,0,1,.75-.05,3,3,0,0,1,1.9,1.2,10.791,10.791,0,0,1,.85,1.7,4.3,4.3,0,0,1,.05.8,5.789,5.789,0,0,1-.25,2.45,13.431,13.431,0,0,1-1.6,3.3,8.955,8.955,0,0,1-1,1.4C6.6-13.15,6.5-13,6.35-12.95ZM19.05-1.6a1.6,1.6,0,0,0,1-.5A4.361,4.361,0,0,0,21-3.95a2.829,2.829,0,0,0,.1-1.1c-.1-.7,0-1.4-.05-2.1v-.1c.05-.15.05-.3.2-.35a.507.507,0,0,1,.5.15l.55.75a29.9,29.9,0,0,1,1.95,2.45,8.608,8.608,0,0,0,1.6,1.7,2.439,2.439,0,0,0,2.4.3c.35-.1.55-.4.8-.65a2.032,2.032,0,0,0,.5-1.5,3.568,3.568,0,0,0-.85-2.1c-.65-.9-1.35-1.8-2.05-2.65-.6-.75-1.2-1.5-1.8-2.2-.2-.25-.2-.5-.35-.75a2.294,2.294,0,0,1,.5-1.25,13.259,13.259,0,0,0,2-2.1,9.946,9.946,0,0,0,1.15-1.8,7.54,7.54,0,0,0,.9-4.15,2.051,2.051,0,0,1-.05-.55,4.854,4.854,0,0,0-.55-1.7A6.767,6.767,0,0,0,25.9-26.4a8.354,8.354,0,0,0-3.75-1.25A10.925,10.925,0,0,0,20-27.4a3.442,3.442,0,0,0-2,1.35,9.171,9.171,0,0,0-.65,1.2,6.046,6.046,0,0,0-.4,1.7,9.74,9.74,0,0,0-.1,1.25,8.851,8.851,0,0,1-.05,1.15c0,.65-.05,1.25-.1,1.9-.05.6-.1,1.2-.1,1.85a4.575,4.575,0,0,1-.05.8,10.041,10.041,0,0,0-.05,1.25c0,.35-.05.75-.05,1.1-.05.4-.05.8-.1,1.2a8.475,8.475,0,0,1-.05,1.15c-.05.7-.05,1.45-.05,2.15a4.392,4.392,0,0,0-.05,1.4c0,.05.05.1,0,.15a.975.975,0,0,0,0,.75,3.784,3.784,0,0,0-.05.75l.15,1.95a3.66,3.66,0,0,0,.85,1.95,2.631,2.631,0,0,0,.7.6A1.637,1.637,0,0,0,19.05-1.6Zm3.2-16c-.4.15-.6.1-.6-.3a.86.86,0,0,1-.05-.4c.05-.35.05-.85.1-1.35a8.817,8.817,0,0,0,0-1.15,8.176,8.176,0,0,1,.1-1.1c.1-.45.15-.45.55-.5a1.661,1.661,0,0,1,1.8,1.2A2.7,2.7,0,0,1,24-19.95a4.817,4.817,0,0,1-1.05,1.75A2.766,2.766,0,0,1,22.25-17.6ZM44-1.35A2.185,2.185,0,0,0,45.5-2.8a5.079,5.079,0,0,0,.3-1.7c.05-.6,0-1.25,0-1.85V-7.9a15.143,15.143,0,0,0-.1-1.55c0-1.15.05-2.3-.05-3.45-.1-.9-.05-1.85-.1-2.75a9.764,9.764,0,0,1-.15-1.7c0-.05.05-.1,0-.1a.643.643,0,0,1-.05-.6c0-.25-.15-.4-.15-.65a9.326,9.326,0,0,0-.2-1.6c-.05-.5-.25-1.05-.35-1.6a15.8,15.8,0,0,0-.85-2.6,12.913,12.913,0,0,0-1.1-2.2,6.438,6.438,0,0,0-1.1-1.5,2.426,2.426,0,0,0-2.2-.75,1.709,1.709,0,0,0-1.3.7,10.035,10.035,0,0,0-1.4,2.6L35.4-22.4c-.35,1-.8,2.05-1.15,3.1-.6,1.65-1.15,3.35-1.6,5.1-.2.85-.45,1.7-.6,2.55L31.6-9.3c-.15.8-.25,1.55-.35,2.35a6.839,6.839,0,0,0-.1,1.45v.1a1.522,1.522,0,0,0,.05,1.05,2.556,2.556,0,0,0,.95,1.55,1.538,1.538,0,0,0,1.7.3,2.694,2.694,0,0,0,.65-.35A3.72,3.72,0,0,0,35.55-4.4c.1-.5.15-1.05.25-1.55l.3-2.2a.8.8,0,0,1,.25-.5,3.235,3.235,0,0,1,.4-.45.38.38,0,0,1,.45-.15c.5,0,1,0,1.5.05.55.05,1.15.1,1.75.1a.812.812,0,0,1,.45.25,1.686,1.686,0,0,1,.25.85c.05,1.4-.05,2.8.1,4.2A2.7,2.7,0,0,0,42.3-1.7,1.652,1.652,0,0,0,44-1.35Zm-4.05-12.4a1.664,1.664,0,0,1-.7-.05,2.241,2.241,0,0,0-.6-.05.989.989,0,0,1-.55-.1.588.588,0,0,1-.45-.6,2.54,2.54,0,0,1,.15-.85c.25-.9.6-1.8.9-2.75.3-.7.55-1.45.85-2.2,0-.05.05-.1.1-.2a.378.378,0,0,1,.4-.15c.15,0,.2.15.2.25a5.231,5.231,0,0,1,.2.85c.1.6.15,1.2.3,1.8v.05c-.05.55.1,1.05.1,1.6a6.126,6.126,0,0,1,.1.95,2.641,2.641,0,0,1-.05.65A1.017,1.017,0,0,1,39.95-13.75ZM55.85-1.2a4.7,4.7,0,0,0,1.45,0,1.81,1.81,0,0,0,1.15-.75,1.5,1.5,0,0,0,.25-1.3,1.921,1.921,0,0,0-.65-1.1A5.87,5.87,0,0,0,56.7-5.1a2.547,2.547,0,0,1-.85-.35,12.378,12.378,0,0,1-1.8-1.4,5.62,5.62,0,0,1-1.45-2.3A8.146,8.146,0,0,1,52-12.4a20.865,20.865,0,0,1,.05-2.5c.1-.55.15-1.1.25-1.6a11.106,11.106,0,0,1,.55-1.95,16.138,16.138,0,0,1,1.2-2.9A10.527,10.527,0,0,1,56-23.85a2.133,2.133,0,0,1,2-.6,3.542,3.542,0,0,0,1.45,0,2.635,2.635,0,0,0,1.5-1.35,2.916,2.916,0,0,0,.1-1.15,2.56,2.56,0,0,0-.5-1.05,2.969,2.969,0,0,0-1.45-.9c-.55-.15-1.1-.1-1.65-.2a.152.152,0,0,0-.2,0c-.1.1-.25.05-.35.05a2.005,2.005,0,0,0-.95.15,6.722,6.722,0,0,0-2.85,1.45,10.984,10.984,0,0,0-2.05,2.25,21.825,21.825,0,0,0-1.6,2.75A29.9,29.9,0,0,0,48.2-18.9a20.163,20.163,0,0,0-.75,3.85,8.8,8.8,0,0,0-.1,2,9.634,9.634,0,0,0,.05,1.2c.05.6.1,1.2.2,1.85.1.55.25,1.05.4,1.6a10.528,10.528,0,0,0,.95,2.35A11.813,11.813,0,0,0,50.6-3.8a4.318,4.318,0,0,0,.7.65,7.138,7.138,0,0,0,3.35,1.7A10.24,10.24,0,0,0,55.85-1.2ZM71-1.25a2.335,2.335,0,0,0,1.2-1.3,5.25,5.25,0,0,0,.4-1.75c.05-.55,0-1.15.1-1.75.1-.9,0-1.8.05-2.7.15-1.05,0-2.15.15-3.2.05-.75-.05-1.45.05-2.2.1-.55.05-1.15.1-1.75.1-.55-.05-1.15.1-1.7-.05-.9.15-1.8.15-2.7-.05-.8,0-1.6,0-2.4a6.7,6.7,0,0,1,.05-1,2.127,2.127,0,0,1,.7-1.15c.05-.05.1-.15.2-.15a5.51,5.51,0,0,0,.9-.1,18.633,18.633,0,0,0,2.35-.05,3.342,3.342,0,0,0,1.25-.4.26.26,0,0,0,.2-.1,2.615,2.615,0,0,0,.85-.6,1.682,1.682,0,0,0,.2-1.1,1.852,1.852,0,0,0-1.05-1.3,3.264,3.264,0,0,0-1.8-.5c-1.4,0-2.85,0-4.3.05-1.25.1-2.55.05-3.8.05H65.4c-.3,0-.6.05-.9.05a2.229,2.229,0,0,0-1.9,1.5,1.664,1.664,0,0,0-.05.7,1.073,1.073,0,0,0,.2.75A2.375,2.375,0,0,0,64.85-25h2.8a.775.775,0,0,1,.75.45,3.636,3.636,0,0,1,.35,1.45,23.508,23.508,0,0,1-.05,3.25c-.1.65,0,1.35-.1,2.05-.1.55,0,1.05-.1,1.6s0,1.1-.1,1.7c-.1.7,0,1.45-.1,2.15-.1.95,0,1.95-.1,2.9-.1,1,0,2-.1,3-.05.8,0,1.6,0,2.35a2.922,2.922,0,0,0,.1.95,2.37,2.37,0,0,0,.6,1.35A1.89,1.89,0,0,0,71-1.25ZM82.9-3.6a2.05,2.05,0,0,0,2.85-.3,4.365,4.365,0,0,0,1-3,8.339,8.339,0,0,0-.1-1.6v-.15a.975.975,0,0,0,0-.75,3.784,3.784,0,0,0,.05-.75,5.037,5.037,0,0,1-.05-1.5,8.027,8.027,0,0,1,0-1.55c.05-.35-.05-.7,0-1.05.05-.55.05-1.1.05-1.65,0-.6.05-1.15.05-1.75,0-.65.05-1.25.1-1.9v-.95c.05-.65.05-1.3.1-1.95v-.85c0-.45.05-.85.05-1.3-.05-.25-.15-.5-.2-.75a2.179,2.179,0,0,0-.95-1.25,2.016,2.016,0,0,0-1.75-.45,2.637,2.637,0,0,0-.6.15,2.547,2.547,0,0,0-1.35,1.35,1.5,1.5,0,0,0-.2.5,6.839,6.839,0,0,0-.1,1.45c-.05.65-.05,1.3-.1,1.95v.9c-.05.65-.05,1.3-.1,1.9-.05.35,0,.7-.05,1.1a2.714,2.714,0,0,0,0,.9,3.444,3.444,0,0,1-.05,1c-.05.55-.05,1.15-.05,1.75v1.15c-.05.75,0,1.5,0,2.25,0,.7,0,1.45.05,2.15A10.24,10.24,0,0,0,81.6-6.8v.2a.967.967,0,0,0,0,.65,8.617,8.617,0,0,0,.35,1.05A4.161,4.161,0,0,0,82.9-3.6ZM97.05-1.2a4.7,4.7,0,0,0,1.45,0,1.81,1.81,0,0,0,1.15-.75,1.5,1.5,0,0,0,.25-1.3,1.921,1.921,0,0,0-.65-1.1A5.87,5.87,0,0,0,97.9-5.1a2.547,2.547,0,0,1-.85-.35,12.378,12.378,0,0,1-1.8-1.4,5.62,5.62,0,0,1-1.45-2.3,8.146,8.146,0,0,1-.6-3.25,20.865,20.865,0,0,1,.05-2.5c.1-.55.15-1.1.25-1.6a11.1,11.1,0,0,1,.55-1.95,16.138,16.138,0,0,1,1.2-2.9,10.527,10.527,0,0,1,1.95-2.5,2.133,2.133,0,0,1,2-.6,3.542,3.542,0,0,0,1.45,0,2.635,2.635,0,0,0,1.5-1.35,2.916,2.916,0,0,0,.1-1.15,2.56,2.56,0,0,0-.5-1.05,2.969,2.969,0,0,0-1.45-.9c-.55-.15-1.1-.1-1.65-.2a.152.152,0,0,0-.2,0c-.1.1-.25.05-.35.05a2.005,2.005,0,0,0-.95.15,6.722,6.722,0,0,0-2.85,1.45,10.984,10.984,0,0,0-2.05,2.25,21.825,21.825,0,0,0-1.6,2.75A29.9,29.9,0,0,0,89.4-18.9a20.163,20.163,0,0,0-.75,3.85,8.8,8.8,0,0,0-.1,2,9.635,9.635,0,0,0,.05,1.2c.05.6.1,1.2.2,1.85.1.55.25,1.05.4,1.6a10.528,10.528,0,0,0,.95,2.35A11.813,11.813,0,0,0,91.8-3.8a4.318,4.318,0,0,0,.7.65,7.138,7.138,0,0,0,3.35,1.7A10.241,10.241,0,0,0,97.05-1.2Zm18.15-.15a2.185,2.185,0,0,0,1.5-1.45,5.079,5.079,0,0,0,.3-1.7c.05-.6,0-1.25,0-1.85V-7.9a15.141,15.141,0,0,0-.1-1.55c0-1.15.05-2.3-.05-3.45-.1-.9-.05-1.85-.1-2.75a9.765,9.765,0,0,1-.15-1.7c0-.05.05-.1,0-.1a.643.643,0,0,1-.05-.6c0-.25-.15-.4-.15-.65a9.326,9.326,0,0,0-.2-1.6c-.05-.5-.25-1.05-.35-1.6a15.8,15.8,0,0,0-.85-2.6,12.913,12.913,0,0,0-1.1-2.2,6.438,6.438,0,0,0-1.1-1.5,2.426,2.426,0,0,0-2.2-.75,1.709,1.709,0,0,0-1.3.7,10.035,10.035,0,0,0-1.4,2.6l-1.3,3.25c-.35,1-.8,2.05-1.15,3.1-.6,1.65-1.15,3.35-1.6,5.1-.2.85-.45,1.7-.6,2.55L102.8-9.3c-.15.8-.25,1.55-.35,2.35a6.84,6.84,0,0,0-.1,1.45v.1a1.522,1.522,0,0,0,.05,1.05,2.556,2.556,0,0,0,.95,1.55,1.538,1.538,0,0,0,1.7.3,2.694,2.694,0,0,0,.65-.35,3.72,3.72,0,0,0,1.05-1.55c.1-.5.15-1.05.25-1.55l.3-2.2a.8.8,0,0,1,.25-.5,3.235,3.235,0,0,1,.4-.45.38.38,0,0,1,.45-.15c.5,0,1,0,1.5.05.55.05,1.15.1,1.75.1a.812.812,0,0,1,.45.25,1.686,1.686,0,0,1,.25.85c.05,1.4-.05,2.8.1,4.2a2.7,2.7,0,0,0,1.05,2.1A1.652,1.652,0,0,0,115.2-1.35Zm-4.05-12.4a1.664,1.664,0,0,1-.7-.05,2.241,2.241,0,0,0-.6-.05.989.989,0,0,1-.55-.1.588.588,0,0,1-.45-.6,2.54,2.54,0,0,1,.15-.85c.25-.9.6-1.8.9-2.75.3-.7.55-1.45.85-2.2,0-.05.05-.1.1-.2a.378.378,0,0,1,.4-.15c.15,0,.2.15.2.25a5.23,5.23,0,0,1,.2.85c.1.6.15,1.2.3,1.8v.05c-.05.55.1,1.05.1,1.6a6.127,6.127,0,0,1,.1.95,2.641,2.641,0,0,1-.05.65A1.017,1.017,0,0,1,111.15-13.75ZM121.45-1.6a1.6,1.6,0,0,0,1-.5,4.361,4.361,0,0,0,.95-1.85,2.829,2.829,0,0,0,.1-1.1c-.1-.7,0-1.4-.05-2.1v-.1c.05-.15.05-.3.2-.35a.507.507,0,0,1,.5.15l.55.75a29.9,29.9,0,0,1,1.95,2.45,8.607,8.607,0,0,0,1.6,1.7,2.439,2.439,0,0,0,2.4.3c.35-.1.55-.4.8-.65a2.032,2.032,0,0,0,.5-1.5,3.568,3.568,0,0,0-.85-2.1c-.65-.9-1.35-1.8-2.05-2.65-.6-.75-1.2-1.5-1.8-2.2-.2-.25-.2-.5-.35-.75a2.294,2.294,0,0,1,.5-1.25,13.258,13.258,0,0,0,2-2.1,9.946,9.946,0,0,0,1.15-1.8,7.54,7.54,0,0,0,.9-4.15,2.051,2.051,0,0,1-.05-.55,4.854,4.854,0,0,0-.55-1.7,6.767,6.767,0,0,0-2.55-2.75,8.354,8.354,0,0,0-3.75-1.25,10.925,10.925,0,0,0-2.15.25,3.442,3.442,0,0,0-2,1.35,9.171,9.171,0,0,0-.65,1.2,6.046,6.046,0,0,0-.4,1.7,9.741,9.741,0,0,0-.1,1.25,8.85,8.85,0,0,1-.05,1.15c0,.65-.05,1.25-.1,1.9-.05.6-.1,1.2-.1,1.85a4.575,4.575,0,0,1-.05.8,10.042,10.042,0,0,0-.05,1.25c0,.35-.05.75-.05,1.1-.05.4-.05.8-.1,1.2a8.474,8.474,0,0,1-.05,1.15c-.05.7-.05,1.45-.05,2.15a4.392,4.392,0,0,0-.05,1.4c0,.05.05.1,0,.15a.975.975,0,0,0,0,.75,3.784,3.784,0,0,0-.05.75l.15,1.95a3.66,3.66,0,0,0,.85,1.95,2.631,2.631,0,0,0,.7.6A1.637,1.637,0,0,0,121.45-1.6Zm3.2-16c-.4.15-.6.1-.6-.3a.86.86,0,0,1-.05-.4c.05-.35.05-.85.1-1.35a8.816,8.816,0,0,0,0-1.15,8.177,8.177,0,0,1,.1-1.1c.1-.45.15-.45.55-.5a1.661,1.661,0,0,1,1.8,1.2,2.7,2.7,0,0,1-.15,1.25,4.817,4.817,0,0,1-1.05,1.75A2.766,2.766,0,0,1,124.65-17.6ZM156.4-1.35a2.185,2.185,0,0,0,1.5-1.45,5.079,5.079,0,0,0,.3-1.7c.05-.6,0-1.25,0-1.85V-7.9a15.141,15.141,0,0,0-.1-1.55c0-1.15.05-2.3-.05-3.45-.1-.9-.05-1.85-.1-2.75a9.764,9.764,0,0,1-.15-1.7c0-.05.05-.1,0-.1a.643.643,0,0,1-.05-.6c0-.25-.15-.4-.15-.65a9.326,9.326,0,0,0-.2-1.6c-.05-.5-.25-1.05-.35-1.6a15.8,15.8,0,0,0-.85-2.6,12.912,12.912,0,0,0-1.1-2.2,6.437,6.437,0,0,0-1.1-1.5,2.426,2.426,0,0,0-2.2-.75,1.709,1.709,0,0,0-1.3.7,10.035,10.035,0,0,0-1.4,2.6l-1.3,3.25c-.35,1-.8,2.05-1.15,3.1-.6,1.65-1.15,3.35-1.6,5.1-.2.85-.45,1.7-.6,2.55L144-9.3c-.15.8-.25,1.55-.35,2.35a6.839,6.839,0,0,0-.1,1.45v.1a1.522,1.522,0,0,0,.05,1.05,2.556,2.556,0,0,0,.95,1.55,1.538,1.538,0,0,0,1.7.3,2.694,2.694,0,0,0,.65-.35,3.72,3.72,0,0,0,1.05-1.55c.1-.5.15-1.05.25-1.55l.3-2.2a.8.8,0,0,1,.25-.5,3.235,3.235,0,0,1,.4-.45.38.38,0,0,1,.45-.15c.5,0,1,0,1.5.05.55.05,1.15.1,1.75.1a.812.812,0,0,1,.45.25,1.686,1.686,0,0,1,.25.85c.05,1.4-.05,2.8.1,4.2a2.7,2.7,0,0,0,1.05,2.1A1.652,1.652,0,0,0,156.4-1.35Zm-4.05-12.4a1.664,1.664,0,0,1-.7-.05,2.241,2.241,0,0,0-.6-.05.989.989,0,0,1-.55-.1.588.588,0,0,1-.45-.6,2.539,2.539,0,0,1,.15-.85c.25-.9.6-1.8.9-2.75.3-.7.55-1.45.85-2.2,0-.05.05-.1.1-.2a.378.378,0,0,1,.4-.15c.15,0,.2.15.2.25a5.229,5.229,0,0,1,.2.85c.1.6.15,1.2.3,1.8v.05c-.05.55.1,1.05.1,1.6a6.126,6.126,0,0,1,.1.95,2.642,2.642,0,0,1-.05.65A1.017,1.017,0,0,1,152.35-13.75ZM168.25-1.2a4.7,4.7,0,0,0,1.45,0,1.81,1.81,0,0,0,1.15-.75,1.5,1.5,0,0,0,.25-1.3,1.921,1.921,0,0,0-.65-1.1,5.869,5.869,0,0,0-1.35-.75,2.547,2.547,0,0,1-.85-.35,12.378,12.378,0,0,1-1.8-1.4A5.62,5.62,0,0,1,165-9.15a8.146,8.146,0,0,1-.6-3.25,20.863,20.863,0,0,1,.05-2.5c.1-.55.15-1.1.25-1.6a11.106,11.106,0,0,1,.55-1.95,16.139,16.139,0,0,1,1.2-2.9,10.527,10.527,0,0,1,1.95-2.5,2.133,2.133,0,0,1,2-.6,3.542,3.542,0,0,0,1.45,0,2.635,2.635,0,0,0,1.5-1.35,2.916,2.916,0,0,0,.1-1.15,2.56,2.56,0,0,0-.5-1.05,2.969,2.969,0,0,0-1.45-.9c-.55-.15-1.1-.1-1.65-.2a.152.152,0,0,0-.2,0c-.1.1-.25.05-.35.05a2.005,2.005,0,0,0-.95.15,6.722,6.722,0,0,0-2.85,1.45,10.984,10.984,0,0,0-2.05,2.25,21.826,21.826,0,0,0-1.6,2.75,29.9,29.9,0,0,0-1.25,3.55,20.164,20.164,0,0,0-.75,3.85,8.8,8.8,0,0,0-.1,2,9.634,9.634,0,0,0,.05,1.2c.05.6.1,1.2.2,1.85.1.55.25,1.05.4,1.6a10.528,10.528,0,0,0,.95,2.35A11.813,11.813,0,0,0,163-3.8a4.318,4.318,0,0,0,.7.65,7.138,7.138,0,0,0,3.35,1.7A10.24,10.24,0,0,0,168.25-1.2Zm15.15-.05a2.335,2.335,0,0,0,1.2-1.3A5.25,5.25,0,0,0,185-4.3c.05-.55,0-1.15.1-1.75.1-.9,0-1.8.05-2.7.15-1.05,0-2.15.15-3.2.05-.75-.05-1.45.05-2.2.1-.55.05-1.15.1-1.75.1-.55-.05-1.15.1-1.7-.05-.9.15-1.8.15-2.7-.05-.8,0-1.6,0-2.4a6.7,6.7,0,0,1,.05-1,2.127,2.127,0,0,1,.7-1.15c.05-.05.1-.15.2-.15a5.51,5.51,0,0,0,.9-.1,18.632,18.632,0,0,0,2.35-.05,3.342,3.342,0,0,0,1.25-.4.26.26,0,0,0,.2-.1,2.615,2.615,0,0,0,.85-.6,1.682,1.682,0,0,0,.2-1.1,1.852,1.852,0,0,0-1.05-1.3,3.264,3.264,0,0,0-1.8-.5c-1.4,0-2.85,0-4.3.05-1.25.1-2.55.05-3.8.05H177.8c-.3,0-.6.05-.9.05a2.229,2.229,0,0,0-1.9,1.5,1.664,1.664,0,0,0-.05.7,1.073,1.073,0,0,0,.2.75,2.375,2.375,0,0,0,2.1,1.05h2.8a.775.775,0,0,1,.75.45,3.636,3.636,0,0,1,.35,1.45,23.507,23.507,0,0,1-.05,3.25c-.1.65,0,1.35-.1,2.05-.1.55,0,1.05-.1,1.6s0,1.1-.1,1.7c-.1.7,0,1.45-.1,2.15-.1.95,0,1.95-.1,2.9-.1,1,0,2-.1,3-.05.8,0,1.6,0,2.35a2.923,2.923,0,0,0,.1.95,2.37,2.37,0,0,0,.6,1.35A1.89,1.89,0,0,0,183.4-1.25ZM195.3-3.6a2.05,2.05,0,0,0,2.85-.3,4.365,4.365,0,0,0,1-3,8.339,8.339,0,0,0-.1-1.6v-.15a.975.975,0,0,0,0-.75,3.784,3.784,0,0,0,.05-.75,5.037,5.037,0,0,1-.05-1.5,8.029,8.029,0,0,1,0-1.55c.05-.35-.05-.7,0-1.05.05-.55.05-1.1.05-1.65,0-.6.05-1.15.05-1.75,0-.65.05-1.25.1-1.9v-.95c.05-.65.05-1.3.1-1.95v-.85c0-.45.05-.85.05-1.3-.05-.25-.15-.5-.2-.75a2.179,2.179,0,0,0-.95-1.25,2.016,2.016,0,0,0-1.75-.45,2.637,2.637,0,0,0-.6.15,2.548,2.548,0,0,0-1.35,1.35,1.5,1.5,0,0,0-.2.5,6.84,6.84,0,0,0-.1,1.45c-.05.65-.05,1.3-.1,1.95v.9c-.05.65-.05,1.3-.1,1.9-.05.35,0,.7-.05,1.1a2.714,2.714,0,0,0,0,.9,3.444,3.444,0,0,1-.05,1c-.05.55-.05,1.15-.05,1.75v1.15c-.05.75,0,1.5,0,2.25,0,.7,0,1.45.05,2.15A10.239,10.239,0,0,0,194-6.8v.2a.967.967,0,0,0,0,.65,8.616,8.616,0,0,0,.35,1.05A4.161,4.161,0,0,0,195.3-3.6Zm13.9,2.15a3.872,3.872,0,0,0,1.75-1.45,16.409,16.409,0,0,0,1.6-2.9c.55-1.25,1.05-2.6,1.5-3.9.35-.95.65-1.95.95-2.9.25-.9.6-1.75.85-2.6.3-.85.55-1.7.85-2.5.3-.9.6-1.8.95-2.7l.6-1.65c.3-.9.6-1.8.95-2.7.2-.6.5-1.25.65-1.85a1.9,1.9,0,0,0,.15-1.15c-.05-.25,0-.45-.05-.65a4.874,4.874,0,0,0-.25-.55,1.918,1.918,0,0,0-2.15-1,2.79,2.79,0,0,0-1.05.45,3.147,3.147,0,0,0-1.3,1.7l-.6,1.55-.65,1.85c-.35.85-.6,1.7-.95,2.55-.2.55-.4,1.05-.55,1.6-.25.8-.5,1.6-.8,2.4a12.666,12.666,0,0,1-.6,1.8c-.25.75-.5,1.5-.7,2.25l-.75,2.35c-.15.65-.4,1.25-.6,1.9a.506.506,0,0,1-.2.35c-.25.25-.4.25-.5-.05a2.462,2.462,0,0,1-.3-.85l-.2-.95c-.2-.6-.3-1.25-.45-1.9l-.45-2.25-.25-1.75c-.3-2.15-.3-4.3-.65-6.45a13.564,13.564,0,0,1-.2-2.05c-.05-.05-.05-.2-.05-.25.15-.45-.15-.8-.1-1.2a2.578,2.578,0,0,0-2.45-1.5,2.437,2.437,0,0,0-2.15,1.7,5.45,5.45,0,0,0-.15,1.3c.35,2.8.45,5.7.9,8.5.1.55.1,1.1.25,1.65.1.5.1,1.05.25,1.55.1.35.1.75.2,1.1.1.65.25,1.25.35,1.9.1.55.3,1.15.4,1.7a3.682,3.682,0,0,0,.2.7c.1.4.25.75.35,1.15.2.6.4,1.2.65,1.8.35.75.7,1.5,1.1,2.25a3.634,3.634,0,0,0,1,1.3A2.657,2.657,0,0,0,209.2-1.45ZM222.95-3.6a2.05,2.05,0,0,0,2.85-.3,4.365,4.365,0,0,0,1-3,8.339,8.339,0,0,0-.1-1.6v-.15a.975.975,0,0,0,0-.75,3.784,3.784,0,0,0,.05-.75,5.037,5.037,0,0,1-.05-1.5,8.029,8.029,0,0,1,0-1.55c.05-.35-.05-.7,0-1.05.05-.55.05-1.1.05-1.65,0-.6.05-1.15.05-1.75,0-.65.05-1.25.1-1.9v-.95c.05-.65.05-1.3.1-1.95v-.85c0-.45.05-.85.05-1.3-.05-.25-.15-.5-.2-.75a2.179,2.179,0,0,0-.95-1.25,2.016,2.016,0,0,0-1.75-.45,2.637,2.637,0,0,0-.6.15,2.548,2.548,0,0,0-1.35,1.35,1.5,1.5,0,0,0-.2.5,6.84,6.84,0,0,0-.1,1.45c-.05.65-.05,1.3-.1,1.95v.9c-.05.65-.05,1.3-.1,1.9-.05.35,0,.7-.05,1.1a2.714,2.714,0,0,0,0,.9,3.444,3.444,0,0,1-.05,1c-.05.55-.05,1.15-.05,1.75v1.15c-.05.75,0,1.5,0,2.25,0,.7,0,1.45.05,2.15a10.239,10.239,0,0,0,.05,1.75v.2a.967.967,0,0,0,0,.65A8.616,8.616,0,0,0,222-4.9,4.161,4.161,0,0,0,222.95-3.6Zm7.55,2.55a5.142,5.142,0,0,0,1.75,0,17.26,17.26,0,0,0,3.2-1.1c.6-.3,1.15-.6,1.7-.9A18.721,18.721,0,0,0,239.9-5.1c.75-.7,1.4-1.55,2.1-2.3l1-1.3c.3-.4.55-.8.8-1.2.35-.55.65-1.1.95-1.65.2-.45.35-.9.55-1.35a12.33,12.33,0,0,0,.85-3.85c0-.3-.1-.6-.1-.9a5.328,5.328,0,0,0-.3-1.55,11.025,11.025,0,0,0-1.05-2.5,18.11,18.11,0,0,0-1.35-2.05,13.667,13.667,0,0,0-1.65-1.75c-.4-.35-.85-.7-1.3-1.05A21.059,21.059,0,0,0,237.85-28a17.7,17.7,0,0,0-1.7-.8,10.2,10.2,0,0,0-3-.5c-.25.05-.5-.05-.7.05a6.793,6.793,0,0,0-1.4.55,2.5,2.5,0,0,0-1.3,1.85,11.629,11.629,0,0,0-.25,1.4c-.05.5-.15,1-.2,1.5,0,.1.05.15,0,.2a.748.748,0,0,0-.05.65c0,.25-.15.5-.1.75,0,.55-.15,1.1-.1,1.65l-.05.05c-.15.5-.05,1.1-.15,1.65-.1.5-.05,1.05-.1,1.55-.1.85.05,1.7-.1,2.55-.05,2.4.05,4.8-.1,7.15a8.066,8.066,0,0,0,0,1.1,22.86,22.86,0,0,0,.15,3.2,3.671,3.671,0,0,0,.75,1.75A1.9,1.9,0,0,0,230.5-1.05Zm3.4-5.05a.519.519,0,0,1-.65-.4v-3.7c-.05-2,.15-4.15.1-6.3a10.868,10.868,0,0,0,.1-1.8,9.709,9.709,0,0,1,.1-1.2c.15-.5,0-1.05.2-1.55v-.1c-.05-.55.1-1.05.1-1.6,0-.3.1-.55.1-.85a.184.184,0,0,1,.05-.15.844.844,0,0,1,.85-.4,5.882,5.882,0,0,1,1,.35,14.418,14.418,0,0,1,1.9,1.1,10.234,10.234,0,0,1,1.85,1.75,14.422,14.422,0,0,1,1.15,1.7,5.837,5.837,0,0,1,.55,1.4,4.387,4.387,0,0,1,.1,1.8,5.714,5.714,0,0,1-.45,1.5,19.258,19.258,0,0,1-2.2,3.8,28.186,28.186,0,0,1-3.3,3.6,5.327,5.327,0,0,1-1.4.95Zm25.2,4.75a2.185,2.185,0,0,0,1.5-1.45,5.08,5.08,0,0,0,.3-1.7c.05-.6,0-1.25,0-1.85V-7.9a15.146,15.146,0,0,0-.1-1.55c0-1.15.05-2.3-.05-3.45-.1-.9-.05-1.85-.1-2.75a9.764,9.764,0,0,1-.15-1.7c0-.05.05-.1,0-.1a.643.643,0,0,1-.05-.6c0-.25-.15-.4-.15-.65a9.325,9.325,0,0,0-.2-1.6c-.05-.5-.25-1.05-.35-1.6a15.8,15.8,0,0,0-.85-2.6,12.911,12.911,0,0,0-1.1-2.2,6.437,6.437,0,0,0-1.1-1.5,2.426,2.426,0,0,0-2.2-.75,1.709,1.709,0,0,0-1.3.7,10.035,10.035,0,0,0-1.4,2.6l-1.3,3.25c-.35,1-.8,2.05-1.15,3.1-.6,1.65-1.15,3.35-1.6,5.1-.2.85-.45,1.7-.6,2.55L246.7-9.3c-.15.8-.25,1.55-.35,2.35a6.839,6.839,0,0,0-.1,1.45v.1a1.522,1.522,0,0,0,.05,1.05,2.556,2.556,0,0,0,.95,1.55,1.538,1.538,0,0,0,1.7.3,2.694,2.694,0,0,0,.65-.35,3.72,3.72,0,0,0,1.05-1.55c.1-.5.15-1.05.25-1.55l.3-2.2a.8.8,0,0,1,.25-.5,3.235,3.235,0,0,1,.4-.45.38.38,0,0,1,.45-.15c.5,0,1,0,1.5.05.55.05,1.15.1,1.75.1a.812.812,0,0,1,.45.25,1.686,1.686,0,0,1,.25.85c.05,1.4-.05,2.8.1,4.2a2.7,2.7,0,0,0,1.05,2.1A1.652,1.652,0,0,0,259.1-1.35Zm-4.05-12.4a1.664,1.664,0,0,1-.7-.05,2.241,2.241,0,0,0-.6-.05.989.989,0,0,1-.55-.1.588.588,0,0,1-.45-.6,2.539,2.539,0,0,1,.15-.85c.25-.9.6-1.8.9-2.75.3-.7.55-1.45.85-2.2,0-.05.05-.1.1-.2a.378.378,0,0,1,.4-.15c.15,0,.2.15.2.25a5.229,5.229,0,0,1,.2.85c.1.6.15,1.2.3,1.8v.05c-.05.55.1,1.05.1,1.6a6.124,6.124,0,0,1,.1.95,2.642,2.642,0,0,1-.05.65A1.017,1.017,0,0,1,255.05-13.75Zm9.3,12.7a5.142,5.142,0,0,0,1.75,0,17.261,17.261,0,0,0,3.2-1.1c.6-.3,1.15-.6,1.7-.9a18.721,18.721,0,0,0,2.75-2.05c.75-.7,1.4-1.55,2.1-2.3l1-1.3c.3-.4.55-.8.8-1.2.35-.55.65-1.1.95-1.65.2-.45.35-.9.55-1.35a12.33,12.33,0,0,0,.85-3.85c0-.3-.1-.6-.1-.9a5.329,5.329,0,0,0-.3-1.55,11.026,11.026,0,0,0-1.05-2.5,18.11,18.11,0,0,0-1.35-2.05,13.667,13.667,0,0,0-1.65-1.75c-.4-.35-.85-.7-1.3-1.05A21.058,21.058,0,0,0,271.7-28a17.694,17.694,0,0,0-1.7-.8,10.2,10.2,0,0,0-3-.5c-.25.05-.5-.05-.7.05a6.793,6.793,0,0,0-1.4.55,2.5,2.5,0,0,0-1.3,1.85,11.623,11.623,0,0,0-.25,1.4c-.05.5-.15,1-.2,1.5,0,.1.05.15,0,.2a.748.748,0,0,0-.05.65c0,.25-.15.5-.1.75,0,.55-.15,1.1-.1,1.65l-.05.05c-.15.5-.05,1.1-.15,1.65-.1.5-.05,1.05-.1,1.55-.1.85.05,1.7-.1,2.55-.05,2.4.05,4.8-.1,7.15a8.069,8.069,0,0,0,0,1.1,22.86,22.86,0,0,0,.15,3.2,3.671,3.671,0,0,0,.75,1.75A1.9,1.9,0,0,0,264.35-1.05Zm3.4-5.05a.519.519,0,0,1-.65-.4v-3.7c-.05-2,.15-4.15.1-6.3a10.865,10.865,0,0,0,.1-1.8,9.712,9.712,0,0,1,.1-1.2c.15-.5,0-1.05.2-1.55v-.1c-.05-.55.1-1.05.1-1.6,0-.3.1-.55.1-.85a.184.184,0,0,1,.05-.15.844.844,0,0,1,.85-.4,5.881,5.881,0,0,1,1,.35,14.417,14.417,0,0,1,1.9,1.1,10.234,10.234,0,0,1,1.85,1.75,14.42,14.42,0,0,1,1.15,1.7,5.837,5.837,0,0,1,.55,1.4,4.387,4.387,0,0,1,.1,1.8,5.715,5.715,0,0,1-.45,1.5,19.26,19.26,0,0,1-2.2,3.8,28.188,28.188,0,0,1-3.3,3.6,5.327,5.327,0,0,1-1.4.95Zm26.9,5.3a1.979,1.979,0,0,0,1.1-.9,5.461,5.461,0,0,0,.6-1.8,11.175,11.175,0,0,0,.1-1.85v-2.3c-.05-1.35.1-2.65.1-4a2.2,2.2,0,0,1,.35-1.1.862.862,0,0,1,.85-.5c1.05.05,2.05,0,3.1,0a2.468,2.468,0,0,0,2.1-.95,2.148,2.148,0,0,0,.5-1.15,2.315,2.315,0,0,0-.75-2,2.62,2.62,0,0,0-1.8-.7c-1,0-1.95-.15-2.9-.15a.763.763,0,0,1-.75-.3,2.074,2.074,0,0,1-.45-1.7,1.541,1.541,0,0,0,.05-.5v-1a4.212,4.212,0,0,1,.35-1.75,1.514,1.514,0,0,1,1.6-1.15h1.8a3.323,3.323,0,0,0,1.7-.3,2.087,2.087,0,0,0,1.2-1.15,1.939,1.939,0,0,0,.2-1.5,2.517,2.517,0,0,0-1.15-1.5,3.476,3.476,0,0,0-2-.45,2.648,2.648,0,0,0-1.25.05c-.1.05-.2,0-.25,0a27.105,27.105,0,0,1-2.85-.05c0-.05-.05-.05-.1,0-.15.1-.4.05-.6.05a2.829,2.829,0,0,0-1.25.4c-.3.25-.65.45-.95.7a3.45,3.45,0,0,0-.8.9,5.162,5.162,0,0,0-.35,1.7c-.1.8,0,1.6-.1,2.35-.1.85,0,1.7-.1,2.5-.1.75-.05,1.5-.1,2.25-.1,1.15,0,2.3-.1,3.45-.1.95-.05,1.9-.1,2.85-.1,1.55,0,3.15-.15,4.7a14.135,14.135,0,0,1,.1,2.5v.1c0,.05,0,.1.05.1a12.084,12.084,0,0,1,.15,1.25c.05.3.05.65.1.9a2.7,2.7,0,0,0,1.55,1.95A1.669,1.669,0,0,0,294.65-.8Zm9.4-26.65a1.943,1.943,0,0,0,1.45-.45c.45-.3.9-.6,1.35-.85l2.6-1.65c.85-.55,1.75-1.05,2.65-1.55a2.631,2.631,0,0,0,1.5-1.6,2.32,2.32,0,0,0,.05-1.3,1.839,1.839,0,0,0-1.7-1.2,2.536,2.536,0,0,0-1.7.5c-1.15.8-2.4,1.5-3.6,2.3-1.15.8-2.35,1.55-3.55,2.3a1.9,1.9,0,0,0-.8,1.25,1.268,1.268,0,0,0-.1.6A1.87,1.87,0,0,0,304.05-27.45Zm2.6,23.85a2.05,2.05,0,0,0,2.85-.3,4.365,4.365,0,0,0,1-3,8.339,8.339,0,0,0-.1-1.6v-.15a.975.975,0,0,0,0-.75,3.785,3.785,0,0,0,.05-.75,5.036,5.036,0,0,1-.05-1.5,8.029,8.029,0,0,1,0-1.55c.05-.35-.05-.7,0-1.05.05-.55.05-1.1.05-1.65,0-.6.05-1.15.05-1.75,0-.65.05-1.25.1-1.9v-.95c.05-.65.05-1.3.1-1.95v-.85c0-.45.05-.85.05-1.3-.05-.25-.15-.5-.2-.75a2.179,2.179,0,0,0-.95-1.25,2.016,2.016,0,0,0-1.75-.45,2.637,2.637,0,0,0-.6.15,2.548,2.548,0,0,0-1.35,1.35,1.5,1.5,0,0,0-.2.5,6.839,6.839,0,0,0-.1,1.45c-.05.65-.05,1.3-.1,1.95v.9c-.05.65-.05,1.3-.1,1.9-.05.35,0,.7-.05,1.1a2.713,2.713,0,0,0,0,.9,3.444,3.444,0,0,1-.05,1c-.05.55-.05,1.15-.05,1.75v1.15c-.05.75,0,1.5,0,2.25,0,.7,0,1.45.05,2.15a10.239,10.239,0,0,0,.05,1.75v.2a.967.967,0,0,0,0,.65,8.613,8.613,0,0,0,.35,1.05A4.161,4.161,0,0,0,306.65-3.6ZM314.6-.5a2.69,2.69,0,0,0,1.65-.15,4.255,4.255,0,0,1,.85-.3,21.829,21.829,0,0,0,2.85-1.45,7.042,7.042,0,0,0,2.35-2.15,8.97,8.97,0,0,0,1-1.95,7.946,7.946,0,0,0,.5-2.95,10.755,10.755,0,0,0-.1-1.15,10.037,10.037,0,0,0-.65-2.4,13.679,13.679,0,0,0-2.5-3.6c-1-1.1-2.15-2.05-3.1-3.2a2.246,2.246,0,0,1-.5-2.4,4.3,4.3,0,0,1,1.7-2.4,5.76,5.76,0,0,1,1.6-.7,3.034,3.034,0,0,0,1.3-.4,2.126,2.126,0,0,0,1.1-1.8,2.05,2.05,0,0,0-.3-1.2,2.133,2.133,0,0,0-1.65-1.1,4.129,4.129,0,0,0-1.55.1,9.306,9.306,0,0,0-1.55.5,9.382,9.382,0,0,0-1.8,1.05,8.452,8.452,0,0,0-2.45,2.85,9.617,9.617,0,0,0-.7,1.65,6.716,6.716,0,0,0-.35,1.35,6.577,6.577,0,0,0,.1,2.2,8.551,8.551,0,0,0,.45,1.5,9.953,9.953,0,0,0,1.8,2.5c.75.85,1.6,1.6,2.4,2.4a10.792,10.792,0,0,1,1.35,1.65,5.615,5.615,0,0,1,.9,2.45,5.511,5.511,0,0,1-.1.9,3.207,3.207,0,0,1-1.1,2.05,9.161,9.161,0,0,1-2.45,1.4l-1.45.6a2.768,2.768,0,0,0-1.05.95,2.259,2.259,0,0,0,0,2.25A1.828,1.828,0,0,0,314.6-.5Zm12.1-3.1a2.05,2.05,0,0,0,2.85-.3,4.365,4.365,0,0,0,1-3,8.339,8.339,0,0,0-.1-1.6v-.15a.975.975,0,0,0,0-.75,3.785,3.785,0,0,0,.05-.75,5.036,5.036,0,0,1-.05-1.5,8.029,8.029,0,0,1,0-1.55c.05-.35-.05-.7,0-1.05.05-.55.05-1.1.05-1.65,0-.6.05-1.15.05-1.75,0-.65.05-1.25.1-1.9v-.95c.05-.65.05-1.3.1-1.95v-.85c0-.45.05-.85.05-1.3-.05-.25-.15-.5-.2-.75a2.179,2.179,0,0,0-.95-1.25,2.016,2.016,0,0,0-1.75-.45,2.637,2.637,0,0,0-.6.15,2.548,2.548,0,0,0-1.35,1.35,1.5,1.5,0,0,0-.2.5,6.839,6.839,0,0,0-.1,1.45c-.05.65-.05,1.3-.1,1.95v.9c-.05.65-.05,1.3-.1,1.9-.05.35,0,.7-.05,1.1a2.713,2.713,0,0,0,0,.9,3.444,3.444,0,0,1-.05,1c-.05.55-.05,1.15-.05,1.75v1.15c-.05.75,0,1.5,0,2.25,0,.7,0,1.45.05,2.15a10.239,10.239,0,0,0,.05,1.75v.2a.967.967,0,0,0,0,.65,8.613,8.613,0,0,0,.35,1.05A4.161,4.161,0,0,0,326.7-3.6Zm14.15,2.4a4.7,4.7,0,0,0,1.45,0,1.81,1.81,0,0,0,1.15-.75,1.5,1.5,0,0,0,.25-1.3,1.921,1.921,0,0,0-.65-1.1,5.87,5.87,0,0,0-1.35-.75,2.547,2.547,0,0,1-.85-.35,12.377,12.377,0,0,1-1.8-1.4,5.62,5.62,0,0,1-1.45-2.3,8.146,8.146,0,0,1-.6-3.25,20.863,20.863,0,0,1,.05-2.5c.1-.55.15-1.1.25-1.6a11.107,11.107,0,0,1,.55-1.95,16.14,16.14,0,0,1,1.2-2.9,10.526,10.526,0,0,1,1.95-2.5,2.133,2.133,0,0,1,2-.6,3.542,3.542,0,0,0,1.45,0,2.635,2.635,0,0,0,1.5-1.35,2.916,2.916,0,0,0,.1-1.15,2.56,2.56,0,0,0-.5-1.05,2.969,2.969,0,0,0-1.45-.9c-.55-.15-1.1-.1-1.65-.2a.152.152,0,0,0-.2,0c-.1.1-.25.05-.35.05a2.005,2.005,0,0,0-.95.15,6.722,6.722,0,0,0-2.85,1.45,10.983,10.983,0,0,0-2.05,2.25,21.826,21.826,0,0,0-1.6,2.75,29.9,29.9,0,0,0-1.25,3.55,20.163,20.163,0,0,0-.75,3.85,8.8,8.8,0,0,0-.1,2,9.631,9.631,0,0,0,.05,1.2c.05.6.1,1.2.2,1.85.1.55.25,1.05.4,1.6a10.527,10.527,0,0,0,.95,2.35A11.814,11.814,0,0,0,335.6-3.8a4.318,4.318,0,0,0,.7.65,7.139,7.139,0,0,0,3.35,1.7A10.24,10.24,0,0,0,340.85-1.2ZM359-1.35a2.185,2.185,0,0,0,1.5-1.45,5.08,5.08,0,0,0,.3-1.7c.05-.6,0-1.25,0-1.85V-7.9a15.146,15.146,0,0,0-.1-1.55c0-1.15.05-2.3-.05-3.45-.1-.9-.05-1.85-.1-2.75a9.764,9.764,0,0,1-.15-1.7c0-.05.05-.1,0-.1a.643.643,0,0,1-.05-.6c0-.25-.15-.4-.15-.65a9.325,9.325,0,0,0-.2-1.6c-.05-.5-.25-1.05-.35-1.6a15.8,15.8,0,0,0-.85-2.6,12.911,12.911,0,0,0-1.1-2.2,6.437,6.437,0,0,0-1.1-1.5,2.426,2.426,0,0,0-2.2-.75,1.709,1.709,0,0,0-1.3.7,10.036,10.036,0,0,0-1.4,2.6l-1.3,3.25c-.35,1-.8,2.05-1.15,3.1-.6,1.65-1.15,3.35-1.6,5.1-.2.85-.45,1.7-.6,2.55L346.6-9.3c-.15.8-.25,1.55-.35,2.35a6.837,6.837,0,0,0-.1,1.45v.1a1.522,1.522,0,0,0,.05,1.05,2.556,2.556,0,0,0,.95,1.55,1.538,1.538,0,0,0,1.7.3,2.694,2.694,0,0,0,.65-.35,3.721,3.721,0,0,0,1.05-1.55c.1-.5.15-1.05.25-1.55l.3-2.2a.8.8,0,0,1,.25-.5,3.234,3.234,0,0,1,.4-.45.38.38,0,0,1,.45-.15c.5,0,1,0,1.5.05.55.05,1.15.1,1.75.1a.812.812,0,0,1,.45.25,1.686,1.686,0,0,1,.25.85c.05,1.4-.05,2.8.1,4.2a2.7,2.7,0,0,0,1.05,2.1A1.652,1.652,0,0,0,359-1.35Zm-4.05-12.4a1.664,1.664,0,0,1-.7-.05,2.242,2.242,0,0,0-.6-.05.989.989,0,0,1-.55-.1.588.588,0,0,1-.45-.6,2.539,2.539,0,0,1,.15-.85c.25-.9.6-1.8.9-2.75.3-.7.55-1.45.85-2.2,0-.05.05-.1.1-.2a.378.378,0,0,1,.4-.15c.15,0,.2.15.2.25a5.232,5.232,0,0,1,.2.85c.1.6.15,1.2.3,1.8v.05c-.05.55.1,1.05.1,1.6a6.124,6.124,0,0,1,.1.95,2.642,2.642,0,0,1-.05.65A1.017,1.017,0,0,1,354.95-13.75Z" transform="translate(1260.001 2359.692)" fill="#12c6c1"/>
  </g>
</svg>
