<?xml version="1.0" encoding="utf-8"?>
<!-- Generator: Adobe Illustrator 27.4.1, SVG Export Plug-In . SVG Version: 6.00 Build 0)  -->
<svg version="1.1" id="Layer_1" xmlns="http://www.w3.org/2000/svg" xmlns:xlink="http://www.w3.org/1999/xlink" x="0px" y="0px"
	 viewBox="0 0 125.3 125.2" style="enable-background:new 0 0 125.3 125.2;" xml:space="preserve">
<style type="text/css">
	.st0{fill:#033782;}
	.st1{fill:#FFFFFF;}
	.st2{clip-path:url(#SVGID_00000052069289609686594300000012615159482710106813_);}
	.st3{fill:#D52B1E;}
	.st4{clip-path:url(#SVGID_00000016763065155769865840000014638148131856635269_);}
	.st5{clip-path:url(#SVGID_00000023258130079516073970000015405988681003841950_);}
	.st6{clip-path:url(#SVGID_00000164508311833116316750000004507288767342532029_);}
</style>
<g id="Group_10335" transform="translate(-1259 -5150.732)">
	<path id="Path_13836_00000035508040505540508910000014339701315899778192_" class="st3" d="M1321.6,5151.1
		c34.4,0,62.3,27.9,62.3,62.3s-27.9,62.3-62.3,62.3c-34.4,0-62.3-27.9-62.3-62.3S1287.3,5151.1,1321.6,5151.1
		C1321.6,5151.1,1321.6,5151.1,1321.6,5151.1z"/>
	<g id="Group_10328" transform="translate(1283.268 5170.758)">
		<g>
			<defs>
				<rect id="SVGID_00000093161839853251475370000018259556004592075649_" x="0.4" y="0.4" width="67.1" height="84.5"/>
			</defs>
			<clipPath id="SVGID_00000137094919437844214200000006944412261219663010_">
				<use xlink:href="#SVGID_00000093161839853251475370000018259556004592075649_"  style="overflow:visible;"/>
			</clipPath>
			<g id="Group_10327" style="clip-path:url(#SVGID_00000137094919437844214200000006944412261219663010_);">
				<path id="Path_13837" class="st1" d="M49.6,84.8c-0.8-0.4-1.3-1.3-1.2-2.2c0-5.2,0-10.3,0.1-15.5c0.1-0.7-0.3-1.3-0.9-1.6
					c-1-0.5-2-1-3-1.6c-0.7,1.4-1.4,2.8-2,4.2c-0.7,1.8-2.3,3.2-4.1,3.7c-3.9,1.3-7.7,2.6-11.5,3.9c-0.5,0.1-0.9,0.5-0.9,1.1
					c-0.1,1.5-0.7,2.9-1.8,3.9c-0.9,0.9-1.9,1.8-3,2.6c-1.2,0.8-2.2,0.4-2.7-0.9c-1.2-3.2-2.3-6.3-3.5-9.5c-0.4-1.1-0.8-2.1-1.2-3.2
					c-0.5-1.4-0.2-2.2,1.2-2.7c4.3-1.5,8.7-3.1,13.1-4.5c1-0.3,1.6-0.8,1.5-2h-0.8c-2.5,0-5.1,0-7.6,0c-0.8,0.1-1.6-0.4-1.9-1.2
					c-0.3-0.9,0.2-1.8,1.1-2.1c0.2-0.1,0.4-0.1,0.6-0.1c2.8,0,5.5,0,8.2,0c0.8,0,1.2-0.2,1.3-1.1c0.1-1,0.3-2.1,0.6-3.1
					c0.9-2.7-0.1-5.3-0.6-7.9c-0.1-0.8-0.3-1.7-0.5-2.5c-0.7,0-1,0.3-1,1c0.1,1.7,0,3.4,0,5c0,3-2.4,5.5-5.5,5.5
					c-3,0-5.5-2.4-5.5-5.5c0-1.6,0-3.1,0-4.8h-1c-2.8,0-5.6,0-8.3,0c-0.9,0.1-1.7-0.5-1.8-1.4c0-0.2,0-0.4,0-0.6
					c0.2-0.8,1-1.4,1.9-1.3c2.7,0,5.4,0,8.2,0h1c0-0.5,0-1,0-1.5c-0.1-2.5,1.5-4.7,3.9-5.5c2.9-1,5.9-2,8.8-3
					c0.5-0.2,0.9-0.5,1.3-0.9c0.6-0.8,1.2-1.7,1.8-2.6c-1.8-1.3-3.1-3-4-5c-1.4-3.7-2.2-7.6-1.1-11.5c1.3-4.5,5.3-7.8,10.1-8.1
					c1.3-0.1,2.6,0,4,0c2.4,0,4.7-0.6,6.8-1.6c1.4-0.7,2.1-0.4,2.8,1c1.3,2.7,1.2,5.3-0.8,7.7c-0.1,0.2-0.2,0.5-0.1,0.8
					c3.5,5.7,1.9,13.1-3.8,16.7c-0.1,0.1-0.2,0.2-0.3,0.3c1.1,1.8,2.2,3.5,3.4,5.3c0.1,0.2,0.3,0.3,0.6,0.4c0.7,0.1,1.5,0.1,2.2,0
					c0.3-0.1,0.5-0.2,0.7-0.5c1-1.5,2-2.9,3-4.4c1.6-2.6,5-3.3,7.6-1.7c2.6,1.6,3.3,5,1.7,7.6c-0.1,0.1-0.2,0.3-0.3,0.4
					c-1.7,2.5-3.5,5-5.3,7.5c-1,1.6-2.8,2.5-4.7,2.4c-1.5,0-3,0-4.7,0c0,1.3,0.1,2.6,0,3.8c-0.1,1.1,0.3,2.3,1.2,3
					c2,1.8,3.8,3.7,5.7,5.6c1.1,1,1.8,2.4,1.7,4c-0.1,1.1,0,2.3,0,3.4c0.1,0.9-0.6,1.7-1.5,1.8c-0.1,0-0.1,0-0.2,0
					c-0.9,0-1.7-0.7-1.7-1.6c0,0,0-0.1,0-0.1c0-1.2,0-2.3,0-3.5c0-0.5-0.2-1-0.6-1.4c-2.2-2.2-4.4-4.4-6.6-6.6
					c-0.2-0.2-0.5-0.4-0.8-0.4c-4.5,0-9,0-13.6,0c0.2,0.4,0.3,0.7,0.5,1c1.4,2.3,3.4,4.2,5.8,5.4c2.9,1.7,5.8,3.3,8.7,4.9
					c0.9,0.4,1.4,1.3,1.3,2.3c-0.1,2.9,0,5.8,0,8.7c0,0.3,0,0.6,0,1c2.1,0,4.2,0,6.3,0c2.7,0,5.3,1.2,7.1,3.2c1,1.1,1.6,2.5,1.5,4
					c0.1,1-0.5,1.9-1.3,2.4H49.6z M35.7,30.2c0.1,0.1,0.2,0.1,0.2,0.2c2.8,1.3,3.9,4.6,2.6,7.4c-0.7,1.4-2,2.5-3.5,2.9
					c-0.6,0.2-1.2,0.4-1.8,0.6c0.4,2.3,0.9,4.4,1.3,6.6c0.1,0.6,0.4,0.8,1,0.8c4.1,0,8.1,0,12.2,0c0.2,0,0.5,0,0.7,0
					c0-0.1,0.1-0.2,0.1-0.3c0-4.3,0-8.7,0-13c0-0.2,0-0.4-0.2-0.6c-1.3-2-2.6-4.1-3.8-6c-1.2,0.2-2.4,0.3-3.6,0.4
					c-1.2,0-2.4-0.3-3.6-0.4c-0.2,0-0.5,0-0.6,0.2C36.3,29.2,36,29.7,35.7,30.2 M48.6,11.7c-2.6,1.2-5.4,1.9-8.3,2.1
					c-1.3,0.1-2.6,0.7-3.5,1.6c-1.5,1.4-2.7,3.1-3.5,5c-0.1,0.3-0.1,0.6,0,0.8c1,2.1,2.8,3.6,5,4.2c4.6,1.2,9.3-1.2,11.1-5.6
					C50.5,17.1,50.2,14.1,48.6,11.7 M25.1,72.8c0.1,0,0.2,0,0.3,0c4.2-1.5,8.5-2.9,12.7-4.4c0.4-0.2,0.8-0.4,1-0.8
					c0.9-1.7,1.7-3.5,2.6-5.3c-3-1.5-5.6-3.6-7.8-6.2c-0.1,0.3-0.1,0.4-0.1,0.6c-0.4,2.2-0.9,4.5-1.3,6.7c-0.1,0.8-0.6,1.4-1.4,1.6
					c-1.1,0.4-2.2,0.7-3.4,1.1c-1.5,0.5-3,1-4.6,1.6L25.1,72.8 M21.5,43.7v4.5c0,0.1,0,0.1,0,0.2c-0.1,0.9,0.4,1.8,1.2,2.2
					c1.1,0.6,2.4,0.2,2.9-0.9c0.2-0.4,0.3-0.8,0.2-1.2c0-2.1,0-4.3,0-6.4c0-1.4,0.3-1.8,1.6-2.2c2.2-0.8,4.4-1.5,6.6-2.3
					c1.5-0.5,2.1-1.7,1.7-2.9c-0.4-1.2-1.6-1.7-3.1-1.2c-3.1,1.1-6.2,2.1-9.3,3.2c-1.2,0.2-2,1.3-1.8,2.5
					C21.4,40.7,21.5,42.2,21.5,43.7 M49.9,4.4c-0.1,0-0.1,0-0.1,0c-0.5,0.1-0.9,0.3-1.4,0.4c-2.6,0.7-5.3,1-8,0.9
					c-1.3,0-2.6,0.2-3.8,0.7c-4.3,1.6-5.5,5.9-4.6,9.6l0.5-0.7c2-2.7,4.4-4.5,7.9-4.8c1.1-0.1,2.2-0.3,3.2-0.5
					c1.8-0.3,3.5-1.1,5-2.1C49.6,7.1,50.2,5.7,49.9,4.4 M51.8,40.7c1.6,0,3.2,0,4.7,0c0.7,0,1.4-0.3,1.8-0.9c1.7-2.5,3.5-5,5.3-7.6
					c0.2-0.3,0.4-0.7,0.5-1.1c0.2-1-0.4-2-1.3-2.3c-1-0.4-2.1-0.1-2.6,0.8c-1.2,1.8-2.5,3.6-3.7,5.4c-0.5,0.8-1.3,1.3-2.3,1.2
					c-0.8-0.1-1.6,0-2.5,0L51.8,40.7z M51.8,81.5h11.4c-0.3-0.4-0.6-0.8-0.9-1.2c-1.2-1.1-2.8-1.8-4.4-1.7c-2,0.1-4,0-6,0L51.8,81.5
					z M17.3,69.7l3.6,9.7c1.2-0.9,2.1-2.5,1.7-3.5c-0.8-2.3-1.8-4.7-2.7-7.1L17.3,69.7"/>
				<path id="Path_13838" class="st1" d="M2,43.8c-0.9,0-1.6-0.7-1.7-1.6c0,0,0-0.1,0-0.1c0-0.9,0.7-1.6,1.6-1.6
					c0.9,0,1.7,0.7,1.7,1.7C3.7,43.1,3,43.8,2,43.8C2.1,43.8,2,43.8,2,43.8"/>
				<path id="Path_13839" class="st1" d="M60.4,70.3c0,0.9-0.7,1.6-1.6,1.7c0,0-0.1,0-0.1,0c-0.9,0-1.6-0.8-1.6-1.7
					c0-0.9,0.7-1.6,1.6-1.6c0.9,0,1.6,0.7,1.7,1.6C60.4,70.2,60.4,70.3,60.4,70.3"/>
				<path id="Path_13840" class="st1" d="M16.3,58.7c0,0.9-0.8,1.6-1.7,1.6c-0.9,0-1.6-0.8-1.6-1.7s0.8-1.6,1.7-1.6
					C15.6,57,16.3,57.8,16.3,58.7L16.3,58.7"/>
			</g>
		</g>
	</g>
</g>
</svg>
