<?xml version="1.0" encoding="utf-8"?>
<!-- Generator: Adobe Illustrator 27.4.1, SVG Export Plug-In . SVG Version: 6.00 Build 0)  -->
<svg version="1.1" id="Layer_1" xmlns="http://www.w3.org/2000/svg" xmlns:xlink="http://www.w3.org/1999/xlink" x="0px" y="0px"
	 viewBox="0 0 125.3 125.2" style="enable-background:new 0 0 125.3 125.2;" xml:space="preserve">
<style type="text/css">
	.st0{fill:#033782;}
	.st1{fill:#FFFFFF;}
	.st2{clip-path:url(#SVGID_00000080192835757715470220000006744437342646376878_);}
	.st3{fill:#D52B1E;}
	.st4{clip-path:url(#SVGID_00000060723866756784192460000004868178867374719384_);}
	.st5{clip-path:url(#SVGID_00000008149512476556603300000003378976549211280021_);}
</style>
<g id="Group_10336" transform="translate(-754 -5321.465)">
	<circle id="Ellipse_102_00000054261870343897608120000017990305815544921217_" class="st3" cx="816.6" cy="5384.1" r="62.3"/>
	<g id="Group_10333" transform="translate(775.586 5349.131)">
		<g>
			<defs>
				<rect id="SVGID_00000033361297464129197700000012188537108287691198_" x="0.4" y="0.4" width="81.4" height="69.2"/>
			</defs>
			<clipPath id="SVGID_00000101808570866916261200000014429543885328570759_">
				<use xlink:href="#SVGID_00000033361297464129197700000012188537108287691198_"  style="overflow:visible;"/>
			</clipPath>
			<g id="Group_10332" style="clip-path:url(#SVGID_00000101808570866916261200000014429543885328570759_);">
				<path id="Path_13845" class="st1" d="M57.5,11.2c8.3-0.4,14.8,2.9,19.5,9.8l2.2-1.4c-2.7-4.3-6.7-7.7-11.4-9.5
					c-3.3-1.3-6.9-1.8-10.5-1.5L57.5,11.2 M80.7,22.4l-2.5,1.1l0.9,2.3l2.6-0.9L80.7,22.4"/>
				<path id="Path_13846" class="st1" d="M0.4,64.4C0.7,63,1.7,61.8,3,61.2c0.7-0.2,1.5-0.4,2.3-0.6c0-0.1,0-0.1,0-0.2
					C2.7,55.6,2.6,50.3,2.8,45c0.1-3.9,1-7.8,2.6-11.4c1.4-3.4,3.9-6.1,7.2-7.7c-0.2-0.2-0.3-0.3-0.5-0.4c-4-3-6.3-7.6-6.4-12.6
					c-0.1-2.3,0-4.6,0-6.9c0-1,0.5-1.6,1.3-1.6c3.1-0.1,6.2,0,9.3,0.2c5.7,0.8,9.8,3.9,12.3,9.1c0.3,0.6,0.5,0.8,1.2,0.6
					c5.1-1.2,10.5,0,14.7,3.1c0.2,0.1,0.3,0.2,0.6,0.4c0.1-0.5,0.1-1,0.1-1.4s0.1-0.8,0.2-1.3c-0.6-0.1-1.2-0.2-1.7-0.4
					C38,13.3,33.9,8.2,33.6,2.2c-0.1-1.3,0.5-1.9,1.8-1.8c5.1,0.1,9.6,3.1,11.8,7.7c0.1,0.2,0.2,0.4,0.4,0.7
					c1.2-2.5,2.8-4.7,4.7-6.7l1.8,2c-3.6,3.7-5.8,8.5-6.1,13.6c0.3-0.2,0.5-0.3,0.6-0.4c8.2-5.9,19.5-4,25.4,4.2
					c1.1,1.5,1.9,3.2,2.5,5c1.3,4.3,1.6,8.8,0.7,13.2c-0.8,4-2.1,7.9-4,11.6c-0.3,0.4-0.2,1,0.1,1.3c0.4,0.5,0.8,1.1,1.1,1.6
					l2.1-3.1l2.2,1.5l-1.8,2.6l3.1-0.6l0.6,2.6l-4,0.9l3.4,3.7l-2,1.8l-2.8-3c-0.1,0.3-0.2,0.5-0.2,0.7c-1.2,4-4.5,7.1-8.6,7.9
					c-0.9,0.2-1.8,0.2-2.7,0.2c-19.4,0-38.7,0-58.1,0c-3.1,0-4.2-0.7-5.3-3.6V64.4z M70.7,50.1c1.9-3.5,3.1-7.3,3.8-11.2
					c0.8-3.9,0.5-7.8-0.6-11.6c-2.6-8.2-11.4-12.6-19.5-10c-0.5,0.2-1.1,0.4-1.6,0.6c-1.9,1-3.7,2.2-5.3,3.6c-0.5,0.6-1.4,0.6-2,0.1
					c0,0-0.1-0.1-0.1-0.1c-0.7-0.6-1.4-1.2-2.2-1.7c-6-4.7-14.5-4.3-20,0.9c-1.4,1.3-2.5,2.9-3.3,4.6c3.3,0.9,6.2,2.8,8.5,5.3
					c2.8,3,5.2,6.4,6.9,10.1c1.5,2.9,2.5,6,2.9,9.2c0.1,1.3,0.1,2.6,0,3.9c0.1,0,0.3,0,0.4,0c6.8-1.4,13.6-2.8,20.4-4.2
					c1.4-0.3,2.7-0.6,4.1-0.8C65.8,48.3,68.5,48.8,70.7,50.1 M24.7,63.2l-2.6-0.9l0.5-2.4c-0.1,0-0.3,0-0.4,0
					c-4.4,0.9-8.9,1.8-13.3,2.7c-1.5,0.3-3,0.6-4.4,0.9c-0.9,0.1-1.5,1-1.3,1.9c0.1,0.8,0.8,1.4,1.6,1.4c0.3,0,0.6,0,0.9,0
					c19.4,0,38.7,0,58.1,0c2.8,0.1,5.6-1.2,7.3-3.4c2.6-3.1,2.2-7.8-0.9-10.4c-0.8-0.7-1.8-1.2-2.9-1.5c-1.1-0.3-2.3-0.3-3.4,0
					c0.2,1.8,0,3.6-0.5,5.4l-2.4-0.7l0.4-4.2l-7.9,1.6c0.3,2,0,4.1-0.7,6.1l-2.5-0.9c0.5-1.5,0.7-3.1,0.5-4.6L44,55.5
					c0.1,1.8-0.2,3.6-0.8,5.4L40.9,60l0.6-4l-6.6,1.3l-0.8,4.7l-2.6-0.9l0.6-3.2l-6.6,1.3L24.7,63.2 M11.2,59.4
					c-3.6-4.6-3.5-11.2,0.3-15.7c3.5-4,9.1-5.3,14-3.3c2.3,1,4.3,2.6,5.6,4.8c1.8,2.9,2.3,6.5,1.4,9.8c0.9-0.2,1.8-0.3,2.6-0.5
					c0.2-0.1,0.4-0.3,0.4-0.6c0.1-1.6,0.1-3.3-0.1-4.9c-1.2-5.4-3.7-10.5-7.2-14.7c-1.7-2.2-3.8-4-6.2-5.3
					c-4.6-2.4-9.4-1.4-12.3,2.9c-1.1,1.5-1.9,3.2-2.5,5C5.4,42.2,5,47.8,5.8,53.2c0.2,2.2,1,4.4,2.1,6.3c0.1,0.2,0.4,0.5,0.6,0.5
					C9.4,59.8,10.3,59.6,11.2,59.4 M20.8,42.2c-0.6,0.1-1.2,0.1-1.8,0.2c-3.5,0.6-6.3,3.1-7.3,6.5c-1.1,3.3-0.3,7,2.3,9.4
					c0.3,0.2,0.6,0.3,0.9,0.3c4.6-0.9,9.2-1.9,13.8-2.8c0.4-0.1,0.8-0.4,0.9-0.8c1.8-5-0.7-10.4-5.7-12.3
					C22.9,42.4,21.9,42.2,20.8,42.2 M19.4,9.9c0,1.9,0,3.7,0,5.5c0,0.3,0.1,0.6,0.2,0.9c0.6,0.8,1.4,1.5,2,2.1l4.8-3.1
					c-1.9-4.1-5-6.9-9.4-7.8c-2.7-0.5-5.5-0.3-8.3-0.4c0,0-0.1,0.1-0.1,0.1c0,2.2-0.1,4.5,0,6.7c0.2,3.1,1.6,6.1,3.8,8.2
					c1.3,1.3,2.8,2.3,4.5,2.9l2.9-4.8c-0.5-0.5-1.1-1-1.6-1.6c-0.4-0.5-1.1-0.8-1.7-0.7c-1.7,0-3.4,0-5.2,0v-2.7h3.5l-4.4-4.4l2-2
					l4.3,4.4V9.9H19.4z M45.6,12.4c-0.4-4.9-5.1-8.9-9.1-9.1C36.8,7.6,41.2,12,45.6,12.4"/>
				<path id="Path_13847" class="st1" d="M57.5,11.2c-0.1-0.8-0.2-1.7-0.2-2.6c3.6-0.3,7.2,0.2,10.5,1.5c4.8,1.8,8.8,5.2,11.4,9.5
					L76.9,21C72.3,14.1,65.8,10.8,57.5,11.2"/>
				<path id="Path_13848" class="st1" d="M80.7,22.4l1,2.6l-2.6,0.9l-0.9-2.3L80.7,22.4"/>
			</g>
		</g>
	</g>
</g>
</svg>
