<svg xmlns="http://www.w3.org/2000/svg" xmlns:xlink="http://www.w3.org/1999/xlink" width="351" height="129" viewBox="0 0 351 129"><defs><filter id="a" x="0" y="0" width="351" height="129" filterUnits="userSpaceOnUse"><feOffset dy="3" input="SourceAlpha"/><feGaussianBlur stdDeviation="3" result="b"/><feFlood flood-opacity="0.161"/><feComposite operator="in" in2="b"/><feComposite in="SourceGraphic"/></filter></defs><g transform="translate(8.656 6)"><g transform="matrix(1, 0, 0, 1, -8.66, -6)" filter="url(#a)"><rect width="333" height="111" rx="20" transform="translate(9 6)" fill="#f2f5f4"/></g><path d="M13.11,0h2.484a.6.6,0,0,0,.575-.828L10.925-15.433a1.026,1.026,0,0,0-.966-.667h-3.2a1.026,1.026,0,0,0-.966.667L.529-.828A.62.62,0,0,0,1.1,0H3.611A1.044,1.044,0,0,0,4.6-.713l.713-2.3h6.1l.713,2.3A1.044,1.044,0,0,0,13.11,0ZM6.256-5.98,8.349-12.7,10.465-5.98Zm19.527-5.681a.82.82,0,0,0-.805.828v5.451a1.81,1.81,0,0,1-1.863,2.024,1.81,1.81,0,0,1-1.863-2.024v-5.451a.825.825,0,0,0-.828-.828H18.331a.825.825,0,0,0-.828.828V-4.37C17.5-2,18.883.276,21.781.276a4.043,4.043,0,0,0,3.2-1.334v.437a.614.614,0,0,0,.6.621h2.3A.825.825,0,0,0,28.7-.828V-10.833a.825.825,0,0,0-.828-.828Zm18.469-.276a4.018,4.018,0,0,0-3.335,1.564,3.623,3.623,0,0,0-3.289-1.564,3.7,3.7,0,0,0-2.9,1.173v-.276a.614.614,0,0,0-.6-.621h-2.3a.825.825,0,0,0-.828.828V-.828A.825.825,0,0,0,31.832,0h2.093a.82.82,0,0,0,.805-.828V-6.693A1.471,1.471,0,0,1,36.294-8.28a1.448,1.448,0,0,1,1.564,1.587V-.828A.82.82,0,0,0,38.663,0h2.093a.825.825,0,0,0,.828-.828V-6.693A1.46,1.46,0,0,1,43.148-8.28a1.442,1.442,0,0,1,1.541,1.587V-.828A.825.825,0,0,0,45.517,0H47.61a.825.825,0,0,0,.828-.828V-7.705A3.886,3.886,0,0,0,44.252-11.937Zm11.8,0a6,6,0,0,0-6,6.118c0,3.611,2.6,6.1,6.555,6.1A6.055,6.055,0,0,0,61.18-1.587a.65.65,0,0,0-.161-.943L59.386-3.5a.59.59,0,0,0-.713.069,3.218,3.218,0,0,1-2.07.713,2.78,2.78,0,0,1-2.944-1.978h7.659a.82.82,0,0,0,.805-.828C62.192-9.867,59.317-11.937,56.051-11.937ZM53.682-6.946a2.517,2.517,0,0,1,2.507-2,2.363,2.363,0,0,1,2.53,2ZM70.7-11.937A3.957,3.957,0,0,0,67.528-10.6v-.437a.618.618,0,0,0-.621-.621h-2.3a.825.825,0,0,0-.828.828V-.828A.825.825,0,0,0,64.607,0H66.7a.825.825,0,0,0,.828-.828V-6.279a1.78,1.78,0,0,1,1.863-2,1.791,1.791,0,0,1,1.863,2V-.828A.82.82,0,0,0,72.059,0h2.116a.82.82,0,0,0,.805-.828V-7.291C74.98-9.637,73.623-11.937,70.7-11.937Zm13.133,2.53v-1.426a.825.825,0,0,0-.828-.828H81.535v-1.633a.815.815,0,0,0-.805-.805H78.614a.815.815,0,0,0-.805.805v1.633h-.828a.825.825,0,0,0-.828.828v1.426a.825.825,0,0,0,.828.828h.828v4.048c0,2.3.828,4.738,4.416,4.738a6.843,6.843,0,0,0,1.1-.092.6.6,0,0,0,.506-.6V-2.461a.586.586,0,0,0-.621-.6h-.069c-1.173,0-1.61-.621-1.61-1.84v-3.68h1.472A.825.825,0,0,0,83.835-9.407Zm7.521-2.53A6.022,6.022,0,0,0,85.1-5.819,6.035,6.035,0,0,0,91.356.3a6.022,6.022,0,0,0,6.256-6.118A6.008,6.008,0,0,0,91.356-11.937Zm0,8.6a2.417,2.417,0,0,1-2.484-2.484,2.436,2.436,0,0,1,2.484-2.507,2.441,2.441,0,0,1,2.507,2.507A2.423,2.423,0,0,1,91.356-3.335Zm21.781-11.937v4.761a3.913,3.913,0,0,0-3.289-1.426c-3.611,0-5.589,3.059-5.589,6.118,0,3.036,1.978,6.1,5.589,6.1a3.913,3.913,0,0,0,3.289-1.426v.529a.618.618,0,0,0,.621.621h2.3a.825.825,0,0,0,.828-.828V-15.272a.825.825,0,0,0-.828-.828h-2.093A.825.825,0,0,0,113.137-15.272Zm-2.6,11.937a2.36,2.36,0,0,1-2.507-2.484,2.366,2.366,0,0,1,2.507-2.507,2.372,2.372,0,0,1,2.484,2.507A2.366,2.366,0,0,1,110.538-3.335Zm13.961-8.6a6,6,0,0,0-6,6.118c0,3.611,2.6,6.1,6.555,6.1a6.055,6.055,0,0,0,4.577-1.863.65.65,0,0,0-.161-.943L127.834-3.5a.59.59,0,0,0-.713.069,3.217,3.217,0,0,1-2.07.713,2.78,2.78,0,0,1-2.944-1.978h7.659a.82.82,0,0,0,.8-.828C130.64-9.867,127.765-11.937,124.5-11.937ZM122.13-6.946a2.517,2.517,0,0,1,2.507-2,2.363,2.363,0,0,1,2.53,2Zm10.1-8.326V-.828a.82.82,0,0,0,.805.828h2.116a.82.82,0,0,0,.8-.828V-15.272a.82.82,0,0,0-.8-.828h-2.116A.82.82,0,0,0,132.227-15.272Zm19.987,4.232v.529a3.976,3.976,0,0,0-3.289-1.426c-3.634,0-5.589,3.059-5.589,6.118,0,3.036,1.955,6.1,5.589,6.1a3.976,3.976,0,0,0,3.289-1.426v.529a.618.618,0,0,0,.621.621h2.3a.825.825,0,0,0,.828-.828V-10.833a.825.825,0,0,0-.828-.828h-2.3A.618.618,0,0,0,152.214-11.04Zm-2.622,7.705a2.354,2.354,0,0,1-2.484-2.484,2.36,2.36,0,0,1,2.484-2.507A2.39,2.39,0,0,1,152.1-5.819,2.384,2.384,0,0,1,149.592-3.335Zm15.686-8.6a3.976,3.976,0,0,0-3.289,1.426v-.529a.618.618,0,0,0-.621-.621h-2.3a.82.82,0,0,0-.805.828V3.634a.815.815,0,0,0,.805.805h2.093a.82.82,0,0,0,.828-.805V-1.15A3.976,3.976,0,0,0,165.278.276c3.634,0,5.589-3.059,5.589-6.1C170.867-8.878,168.912-11.937,165.278-11.937Zm-.667,8.6A2.384,2.384,0,0,1,162.1-5.819a2.39,2.39,0,0,1,2.507-2.507A2.36,2.36,0,0,1,167.1-5.819,2.354,2.354,0,0,1,164.611-3.335Zm13.2-8.6a6,6,0,0,0-6,6.118c0,3.611,2.6,6.1,6.555,6.1a6.055,6.055,0,0,0,4.577-1.863.65.65,0,0,0-.161-.943L181.148-3.5a.59.59,0,0,0-.713.069,3.217,3.217,0,0,1-2.07.713,2.78,2.78,0,0,1-2.944-1.978h7.659a.82.82,0,0,0,.8-.828C183.954-9.867,181.079-11.937,177.813-11.937Zm-2.369,4.991a2.517,2.517,0,0,1,2.507-2,2.363,2.363,0,0,1,2.53,2ZM192.1-9.407v-1.426a.825.825,0,0,0-.828-.828H189.8v-1.633a.815.815,0,0,0-.8-.805h-2.116a.815.815,0,0,0-.805.805v1.633h-.828a.825.825,0,0,0-.828.828v1.426a.825.825,0,0,0,.828.828h.828v4.048c0,2.3.828,4.738,4.416,4.738a6.843,6.843,0,0,0,1.1-.092.6.6,0,0,0,.506-.6V-2.461a.586.586,0,0,0-.621-.6h-.069c-1.173,0-1.61-.621-1.61-1.84v-3.68h1.472A.825.825,0,0,0,192.1-9.407ZM195.086,0h2.093a.825.825,0,0,0,.828-.828V-10.833a.825.825,0,0,0-.828-.828h-2.093a.825.825,0,0,0-.828.828V-.828A.825.825,0,0,0,195.086,0Zm1.058-12.972a1.953,1.953,0,0,0,1.955-1.955,1.953,1.953,0,0,0-1.955-1.955,1.973,1.973,0,0,0-1.978,1.955A1.973,1.973,0,0,0,196.144-12.972Zm10.948,3.565v-1.426a.825.825,0,0,0-.828-.828h-1.472v-1.633a.815.815,0,0,0-.8-.805h-2.116a.815.815,0,0,0-.805.805v1.633h-.828a.825.825,0,0,0-.828.828v1.426a.825.825,0,0,0,.828.828h.828v4.048c0,2.3.828,4.738,4.416,4.738a6.843,6.843,0,0,0,1.1-.092.6.6,0,0,0,.506-.6V-2.461a.586.586,0,0,0-.621-.6H206.4c-1.173,0-1.61-.621-1.61-1.84v-3.68h1.472A.825.825,0,0,0,207.092-9.407Zm7.521-2.53a6.022,6.022,0,0,0-6.256,6.118A6.035,6.035,0,0,0,214.613.3a6.022,6.022,0,0,0,6.256-6.118A6.008,6.008,0,0,0,214.613-11.937Zm0,8.6a2.417,2.417,0,0,1-2.484-2.484,2.436,2.436,0,0,1,2.484-2.507,2.441,2.441,0,0,1,2.507,2.507A2.423,2.423,0,0,1,214.613-3.335Z" transform="translate(91.344 65)" fill="#0b2c50"/><g transform="translate(12.989 22.095)"><circle cx="33.651" cy="33.651" r="33.651" transform="translate(0)" fill="#3fa3a7"/><g transform="translate(15.871 10.824)"><path d="M657.9-451.388a8.331,8.331,0,0,1-3.933-6.307,3.49,3.49,0,0,1-2.2-.811,3.367,3.367,0,0,1-.14-5.061.844.844,0,0,0,.3-.694c-.013-1.7-.011-3.4-.005-5.1a6.785,6.785,0,0,1,6.716-6.713q2.4-.007,4.8,0a4.772,4.772,0,0,1,4.722,3.816.536.536,0,0,0,.328.34,4.769,4.769,0,0,1,3.83,4.753c0,1.006-.008,2.012.009,3.018a.729.729,0,0,0,.188.472,3.279,3.279,0,0,1,.958,3.709,3.278,3.278,0,0,1-3.093,2.259.7.7,0,0,0-.118.037,8.3,8.3,0,0,1-3.91,6.268c.3.092.525.168.756.235,1.181.34,2.363.675,3.543,1.016a7.017,7.017,0,0,1,4.016,3.019,1.048,1.048,0,0,0,.538.392,3.508,3.508,0,0,1,2.309,2h1.647a3.493,3.493,0,0,1,1.505-2.217,3.415,3.415,0,0,1,2.013-.548c1.472.04,2.589.969,3.207,2.7a3.455,3.455,0,0,1,3.391,4.11c.23,0,.453-.005.675,0a.673.673,0,0,1,.72.828,5.287,5.287,0,0,1-3.167,4.358.805.805,0,0,0-.365.354,2.024,2.024,0,0,1-1.945,1.258H649.354c-.62,0-.845-.223-.845-.84q0-4.251,0-8.5a7.011,7.011,0,0,1,5.263-6.969C655.113-450.6,656.456-450.979,657.9-451.388Zm-2.591,16.08h14.349a.385.385,0,0,0-.2-.184,5.25,5.25,0,0,1-3.247-4.339.692.692,0,0,1,.759-.872c.209,0,.417,0,.633,0a3.377,3.377,0,0,1,2.811-4.022,1.7,1.7,0,0,0,1.288-.772,9.242,9.242,0,0,1,1.516-1.288,5.329,5.329,0,0,0-2.771-1.988c-1-.312-2.008-.581-3.012-.869-.43-.123-.86-.244-1.3-.37a4.012,4.012,0,0,1-3.634,3.155c-2.274.178-3.689-1.038-4.421-3.172-1.592.476-3.2.844-4.718,1.44a5.109,5.109,0,0,0-3.39,4.458c-.152,1.558-.063,3.14-.079,4.711,0,.021.035.042.046.054h4.034v-2h1.346v6.054Zm.01-28.527c0,1.977-.08,3.892.017,5.8a6.782,6.782,0,0,0,6.6,6.445,6.824,6.824,0,0,0,6.971-6.734c.026-1.855.011-3.711,0-5.567a.746.746,0,0,0-.234-.49c-.977-.862-1.97-1.705-2.959-2.553-.158-.136-.321-.267-.5-.413-.059.123-.1.212-.143.3a5.4,5.4,0,0,1-3.382,2.952,6.437,6.437,0,0,1-1.71.251C658.436-463.814,656.9-463.836,655.316-463.836Zm15.636-.647c0-.915.013-1.819,0-2.723a3.417,3.417,0,0,0-3.259-3.427c-.62-.043-.781-.206-.825-.831a3.2,3.2,0,0,0-2.886-3.163,38.135,38.135,0,0,0-6.271.044,5.1,5.1,0,0,0-4.354,4.575c-.128,1.306-.067,2.63-.086,3.946-.008.521,0,1.043,0,1.577l.622-.038c.242-.595.358-.671,1.014-.671q2.443,0,4.886,0a4.209,4.209,0,0,0,4.339-3.376c.193-.764.7-.93,1.3-.417q2.181,1.861,4.352,3.735a7.144,7.144,0,0,1,.638.734Zm18.2,25.161H667.712a3.765,3.765,0,0,0,2.59,2.671c.32.1.57.24.642.593.137.67.288.8.964.8h13.043a2.619,2.619,0,0,0,.3-.006.639.639,0,0,0,.64-.575c.034-.529.349-.709.788-.854A3.722,3.722,0,0,0,689.153-439.322Zm-10.71-1.382c2.988,0,5.976-.007,8.964.009.342,0,.465-.111.524-.43a2.038,2.038,0,0,0-2.336-2.263c-.744.134-.986-.052-1.044-.8a2.071,2.071,0,0,0-2.113-1.955,2.069,2.069,0,0,0-1.96,2.189c.039.822-.4,1.118-1.14.762a2,2,0,0,0-1.76-.031c-.762.339-1.066.183-1.255-.646a2.024,2.024,0,0,0-1.859-1.593,1.988,1.988,0,0,0-2.021,1.38c-.194.695-.569.822-1.2.7a2.032,2.032,0,0,0-2.322,2.2c.05.331.151.5.556.494C672.468-440.714,675.456-440.7,678.444-440.7Zm-24.53,5.433v-2.686H649.9v2.686Zm10.812-15.385a8.147,8.147,0,0,1-5.235,0,2.614,2.614,0,0,0,2.64,2.467A2.611,2.611,0,0,0,664.726-450.655Zm-10.8-8.446v-4.025a2.028,2.028,0,0,0-2.023,2.035A2.026,2.026,0,0,0,653.931-459.1Zm16.365-4.035v4.047a2.05,2.05,0,0,0,2.014-2.024A2.048,2.048,0,0,0,670.3-463.137Z" transform="translate(-648.508 476.08)" fill="#fff"/><path d="M858.955-344.26a6.785,6.785,0,0,1,6.8,6.8,6.788,6.788,0,0,1-6.8,6.8,6.786,6.786,0,0,1-6.8-6.8A6.783,6.783,0,0,1,858.955-344.26Zm0,12.244a5.483,5.483,0,0,0,5.448-5.426,5.482,5.482,0,0,0-5.413-5.46,5.483,5.483,0,0,0-5.47,5.447A5.485,5.485,0,0,0,858.952-332.016Z" transform="translate(-829.034 359.229)" fill="#fff"/><path d="M736.435-311.07l.419-1.242c.66.169,1.288.323,1.912.493.4.11.668.05.753-.426a5.277,5.277,0,0,1,.288-.885,1.889,1.889,0,0,1,2.143-1.266,1.909,1.909,0,0,1,1.507,1.983c-.007.438.068.878.112,1.385A9.226,9.226,0,0,1,736.435-311.07Zm4.358-.667c.377-.066.668-.108.955-.169.366-.077.333-.42.316-.647a.618.618,0,0,0-.381-.46.725.725,0,0,0-.548.319A4.747,4.747,0,0,0,740.793-311.737Z" transform="translate(-726.451 332.789)" fill="#fff"/><path d="M887.829-315.627c0,.9,0,1.735,0,2.57,0,.6-.229.829-.812.831q-1.232,0-2.465,0c-.562,0-.8-.238-.8-.8,0-.848,0-1.7,0-2.6a2.2,2.2,0,0,1-.641-.012,1.137,1.137,0,0,1-.629-.388.779.779,0,0,1,.065-.695c.876-1.148,1.783-2.272,2.7-3.39a.671.671,0,0,1,1.1.007c.913,1.119,1.82,2.244,2.7,3.392a.8.8,0,0,1,.054.7,1.03,1.03,0,0,1-.594.376A2.412,2.412,0,0,1,887.829-315.627Zm-3.313-1.385a.824.824,0,0,1,.6.94c-.021.817-.006,1.634-.006,2.463h1.364c0-.832.019-1.637-.007-2.441a.847.847,0,0,1,.6-.968L885.79-318.6Z" transform="translate(-855.865 338.075)" fill="#fff"/></g></g></g></svg>