<svg xmlns="http://www.w3.org/2000/svg" width="526.172" height="43.536" viewBox="0 0 526.172 43.536">
  <path id="Trazado_13686" data-name="Trazado 13686" d="M15.15-.2a2.668,2.668,0,0,0,1.55-2c.1-.5.25-1,.35-1.55l.6-2.5a4.132,4.132,0,0,1,.4-1.1.982.982,0,0,1,.65-.45,2.714,2.714,0,0,1,1.1,0,2.621,2.621,0,0,0,1.25-.05,2.388,2.388,0,0,0,1.65-1.2A1.469,1.469,0,0,0,23-10.4a2.32,2.32,0,0,0-1.55-1.7,2.8,2.8,0,0,0-1.25-.25.648.648,0,0,1-.75-.7,3.784,3.784,0,0,1,.05-.75,3.828,3.828,0,0,1,.7-1.6.678.678,0,0,1,.65-.35h1.2a3.784,3.784,0,0,0,.75-.05,2.344,2.344,0,0,0,1.8-2.25,2.392,2.392,0,0,0-.9-1.7,3.368,3.368,0,0,0-1.8-.6h-.65c-.2,0-.3-.1-.25-.3a9.458,9.458,0,0,1,.25-1.15c.1-.55.25-1.1.35-1.65.05-.4.1-.85.2-1.3a8.753,8.753,0,0,0,.2-1.6,2.348,2.348,0,0,0-.4-1.3,2.068,2.068,0,0,0-1.2-.85,1.656,1.656,0,0,0-1.2,0,1.791,1.791,0,0,0-.55.2,2.9,2.9,0,0,0-1.15,1.55,9.546,9.546,0,0,0-.3,1.65c-.05.45-.2.9-.25,1.35-.1.55-.25,1.1-.35,1.65a1.508,1.508,0,0,1-1.45,1.35,8.486,8.486,0,0,1-1.95-.05.481.481,0,0,1-.4-.45,2.506,2.506,0,0,1,.05-.85l.15-.75.2-1.25a8.773,8.773,0,0,0,.25-2.3,1.5,1.5,0,0,0-.3-.9,1.925,1.925,0,0,0-1.45-1.1,2.044,2.044,0,0,0-1.35.15,2.766,2.766,0,0,0-1.4,1.85c-.2.8-.3,1.6-.45,2.4A13.636,13.636,0,0,1,8-21.95a1.964,1.964,0,0,1-.75,1.05,1.6,1.6,0,0,1-.95.25c-.5.05-1,0-1.5,0v.05H3.2c-.1,0-.2-.05-.3,0a2.685,2.685,0,0,0-1.5.95,1.83,1.83,0,0,0-.4,1.3,2,2,0,0,0,.65,1.55,2.568,2.568,0,0,0,1.85.75,16.894,16.894,0,0,0,2.25,0c.3,0,.4.15.55.4a.634.634,0,0,1,.05.3,7.459,7.459,0,0,1-.1,1.05,4.984,4.984,0,0,1-.75,1.85c-.15.15-.25.25-.45.25-.65-.05-1.3.1-2,.1A2.133,2.133,0,0,0,1.1-11.05,2.209,2.209,0,0,0,.85-9.2a2.311,2.311,0,0,0,1.7,1.55,1.861,1.861,0,0,0,.9.1,2.51,2.51,0,0,1,.6.1c.3.15.6.5.5.8a7.763,7.763,0,0,1-.2,1.05c-.15.5-.15,1-.25,1.45a1.172,1.172,0,0,0,.1.6A10.042,10.042,0,0,0,4.25-2.3,2.414,2.414,0,0,0,5.2-.7a1.413,1.413,0,0,0,.9.2,2.362,2.362,0,0,0,1-.5A7.292,7.292,0,0,0,8.5-3.3a8.316,8.316,0,0,0,.45-1.85,12.374,12.374,0,0,0,.3-1.45A1.249,1.249,0,0,1,10.6-7.8a4.066,4.066,0,0,1,1.55.1.938.938,0,0,1,.8,1.25.175.175,0,0,0-.05.1c-.15,1-.5,1.9-.65,2.9a5.072,5.072,0,0,0-.1,1.25A3.219,3.219,0,0,0,12.7-.85,1.893,1.893,0,0,0,15.15-.2ZM11.9-12.4a.586.586,0,0,1-.55-.45.379.379,0,0,1-.1-.2,4.266,4.266,0,0,1,.2-2.1,2.157,2.157,0,0,1,.8-.85c.05-.05.2,0,.3-.05.4-.05.8.15,1.25.1h.35c.2.05.4-.05.5.1a1.048,1.048,0,0,1,.2.55,7.46,7.46,0,0,1-.1,1.05,3.506,3.506,0,0,1-.6,1.4.848.848,0,0,1-.8.45H12.7A4.276,4.276,0,0,0,11.9-12.4ZM37.83,4.42a2.9,2.9,0,0,0,1.495-1.3,5.419,5.419,0,0,0,.65-2.21c0-.78.065-1.625,0-2.405a1.4,1.4,0,0,1,.91-1.69,2.635,2.635,0,0,1,.585-.325,8.594,8.594,0,0,0,1.82-1.625,15.4,15.4,0,0,0,2.99-4.29A22.393,22.393,0,0,0,47.9-13.52a25.331,25.331,0,0,0,.91-3.835c.325-2.145.585-10.66-2.08-14.82a15.547,15.547,0,0,0-2.47-3.38,5.393,5.393,0,0,0-1.1-.975,4.961,4.961,0,0,0-.715-.52,8.167,8.167,0,0,0-2.08-1.17,8.794,8.794,0,0,0-2.34-.455,5.042,5.042,0,0,0-2.4.325,9.644,9.644,0,0,0-2.47,1.495,6.958,6.958,0,0,0-1.04.91,9.628,9.628,0,0,0-1.625,2.275,31.2,31.2,0,0,0-2.535,5.85c-.195.52-.325,1.105-.52,1.625a30.264,30.264,0,0,0-.78,4.225,7.085,7.085,0,0,0-.195,1.69,5.591,5.591,0,0,1-.065,1.04c-.065.715-.065,1.495-.065,2.21a4.932,4.932,0,0,1,.065,1.95.707.707,0,0,0,.065.325.7.7,0,0,1,.13.52,20.074,20.074,0,0,0,.585,3.445,21.983,21.983,0,0,0,.715,2.21,12.66,12.66,0,0,0,1.56,2.925,11.5,11.5,0,0,0,2.73,2.6,2.391,2.391,0,0,1,1.3,2.08A7.938,7.938,0,0,1,33.54.78,3.431,3.431,0,0,0,33.8,2.4,3.337,3.337,0,0,0,35.425,4.29,3.1,3.1,0,0,0,37.83,4.42ZM36.205-8.125c-.195,0-.39-.2-.585-.325A5.044,5.044,0,0,1,34-10.66a17.178,17.178,0,0,1-.78-2.6c-.195-.78-.195-1.56-.325-2.275,0-.26-.065-.455-.065-.65-.065-.975,0-1.885,0-2.86a24.418,24.418,0,0,1,.91-5.72,28.859,28.859,0,0,1,1.755-4.68l.975-1.69a3.721,3.721,0,0,1,1.04-.975,1,1,0,0,1,.845-.13,5.01,5.01,0,0,1,1.755,1.1l.975,1.3a7.6,7.6,0,0,1,.91,1.95c.325.78.39,1.56.65,2.34a5.947,5.947,0,0,1,.065,1.1l.13.91A16.518,16.518,0,0,1,42.77-21a22.9,22.9,0,0,1-.585,4.16,26.659,26.659,0,0,1-2.47,6.175A7.476,7.476,0,0,1,37.83-8.515,2.873,2.873,0,0,1,36.205-8.125ZM59.435-.65a9.984,9.984,0,0,0,1.3-.25,5.76,5.76,0,0,0,1.6-.7,7.174,7.174,0,0,0,1.35-1.15,5.6,5.6,0,0,0,1.2-1.65,14.228,14.228,0,0,0,1-2.55c.15-.75.35-1.5.45-2.3.05-.7.15-1.45.25-2.2.15-1.05.15-2.1.2-3.15a5.409,5.409,0,0,1,0-.9c0-.6.05-1.15,0-1.75,0-.05-.05-.1-.05-.15a8.166,8.166,0,0,0,.05-1.55c-.05-.55.05-1.05-.05-1.55a10.239,10.239,0,0,0-.05-1.75,5.227,5.227,0,0,0,0-1.25c-.1-.7,0-1.45-.15-2.15a2.727,2.727,0,0,0-1.05-1.95,2.472,2.472,0,0,0-2.2-.35,2.5,2.5,0,0,0-1.7,1.95,6.608,6.608,0,0,0-.1,1.7,14.077,14.077,0,0,0,.1,2.05v.1a1.242,1.242,0,0,0,0,.85c.05.3-.05.6,0,.9.1.55,0,1.1.05,1.65a8.076,8.076,0,0,1,0,1.1c-.05.45.05.95,0,1.4v1.3a6.676,6.676,0,0,1,0,1c-.05.55.05,1.15.05,1.7a7.384,7.384,0,0,0-.05,1.05c0,.75-.1,1.45-.15,2.2a7.789,7.789,0,0,1-.4,2.1,2.486,2.486,0,0,1-2.8,1.6,2.666,2.666,0,0,1-1.4-.7,1.472,1.472,0,0,1-.5-.8,6.486,6.486,0,0,1-.4-1.7,12.961,12.961,0,0,1-.2-2.4c-.05-.85-.1-1.7-.1-2.55a7.531,7.531,0,0,0-.05-1.5v-.15c.05-.55.05-1.05.05-1.55,0-.1-.05-.2,0-.3,0-.35.05-.7.05-1.1a3.706,3.706,0,0,1,.05-1.05c.05-.45.05-.85.1-1.3s.05-.9.1-1.4c0-.4.05-.8.05-1.2l-.15-.95a2.227,2.227,0,0,0-.9-1.7,2.36,2.36,0,0,0-2.55-.35,2.529,2.529,0,0,0-1.55,2.15c-.1.5,0,1-.05,1.55v1a6.917,6.917,0,0,0-.05,1.45c0,.05.05.15,0,.2a1.459,1.459,0,0,0,.05.8,4.042,4.042,0,0,0-.05.8c.1.5,0,1,.05,1.5a4.816,4.816,0,0,1,0,.85,6.106,6.106,0,0,0-.05,1.35c.05.5.05,1,.05,1.5a23.477,23.477,0,0,0,.1,2.65c.05.6.15,1.2.2,1.8a9.474,9.474,0,0,0,.7,2.9,9.007,9.007,0,0,0,1.35,2.45,6.759,6.759,0,0,0,1.4,1.25c.5.25.95.55,1.45.75A6.605,6.605,0,0,0,59.435-.65Zm13.8-1.25h1.65a8.826,8.826,0,0,0,1.15,0c.5,0,1,0,1.55-.05A3.2,3.2,0,0,0,79.335-3a2.324,2.324,0,0,0,.25-2.15,2.4,2.4,0,0,0-2.35-1.5c-.95-.05-1.85,0-2.8,0a1.3,1.3,0,0,1-1.35-1.4,7.077,7.077,0,0,1,.1-1.45v-.95a3.572,3.572,0,0,1,.1-1.05.953.953,0,0,1,.25-.5,2.348,2.348,0,0,1,1.8-.45,3.792,3.792,0,0,0,1.3.05,2.639,2.639,0,0,0,1.25-.4,2.111,2.111,0,0,0,1.2-2.3,2.223,2.223,0,0,0-1.55-1.8,6.931,6.931,0,0,0-2.25-.45,1.968,1.968,0,0,1-1.05-.3.9.9,0,0,1-.55-.9,14.125,14.125,0,0,1,.1-1.45,14.077,14.077,0,0,1,.1-2.05,1.455,1.455,0,0,1,1.4-1.3,34.755,34.755,0,0,0,4.55-.1,2.656,2.656,0,0,0,1.75-.85,2.345,2.345,0,0,0,.55-1.55,2.356,2.356,0,0,0-1.4-2.05,6.379,6.379,0,0,0-1.65-.3c-.65-.05-1.3.1-1.95.1-1.5-.05-3.05,0-4.55,0a10.875,10.875,0,0,0-1.25.05,2.58,2.58,0,0,0-1.8,1.25,3.9,3.9,0,0,0-.65,2.15c0,.55.15,1.1.1,1.65,0,.65,0,1.35-.05,2-.1,1.05-.05,2.15-.1,3.25a17.963,17.963,0,0,0-.15,2.35v.05a11.7,11.7,0,0,0-.15,1.9,13.3,13.3,0,0,0-.1,1.5,16.573,16.573,0,0,0-.1,2.25,16.385,16.385,0,0,0,.05,3.5c.05.3.05.6.1.9a4.168,4.168,0,0,0,1.65,2.45A5.537,5.537,0,0,0,73.235-1.9ZM96.47.455A10.281,10.281,0,0,0,98.485.39a3.255,3.255,0,0,0,2.86-3.77,2.8,2.8,0,0,0-.975-1.69,4.245,4.245,0,0,0-3.12-1.04h-.715a12.525,12.525,0,0,1-1.56-.065c-.78,0-1.56.065-2.34,0a1.329,1.329,0,0,0-.715,0,1.057,1.057,0,0,1-1.235-.585,2.171,2.171,0,0,1-.195-.975,15.841,15.841,0,0,0,.065-1.755c-.065-.845.13-1.625.065-2.47,0-.715.13-1.43.065-2.145,0-.715.13-1.43.065-2.145,0-.78.13-1.5.13-2.275-.065-.78.13-1.5.065-2.275a18.268,18.268,0,0,1,.065-1.885c-.065-.65.065-1.235.195-6.63.065-1.17,0-2.275.13-3.38a5.742,5.742,0,0,0-.13-1.82,3.244,3.244,0,0,0-3.25-2.405,3.448,3.448,0,0,0-2.6,1.56,6.717,6.717,0,0,0-.585,2.08c-.065.2.065.39.065.585a15.326,15.326,0,0,0-.13,2.4c.065.65-.26,5.98-.26,6.63.065.65-.065,1.235,0,1.885,0,.65-.13,1.365-.065,2.08,0,.78-.13,1.495-.13,2.21.065.78-.065,1.56-.065,2.4A18.268,18.268,0,0,1,84.12-13.2c.065.91-.065,1.755-.065,2.6a26.456,26.456,0,0,1-.195,3.25v.13a17.357,17.357,0,0,1,0,2.6c.065.39,0,.78.065,1.235A3.792,3.792,0,0,0,85.29-.91,4.929,4.929,0,0,0,87.76.13l.975.13A6.86,6.86,0,0,0,90.36.39c.78-.13,1.56.13,2.34,0,.455-.065.91.13,1.365-.065C94.845.52,95.69.325,96.47.455ZM118.335-1.35c3.35,0,2.1-5.2,2-9.4-.15-4.25-1-14.75-3.95-17.25-1.1-.95-3.6-1.05-4.6.35-3.4,4.75-7.6,19.2-8.5,22.1-1.1,3.3,3.95,4.15,5,.8,1.05-3.4,2.55-3.5,4.15-3.5s3-.05,3,2.05S115.535-1.35,118.335-1.35Zm-4.85-12.05c-1.95,0-2.25-.25-1.9-1.3s1.05-3.1,1.15-3.25c.4-.85,1.15-2.4,1.7-.95C115.785-15.15,115.435-13.4,113.485-13.4ZM126.78-1.17a10.564,10.564,0,0,0,2.47-.065,10.405,10.405,0,0,0,2.4-.78A12.926,12.926,0,0,0,135.62-4.81a20.939,20.939,0,0,0,2.08-2.08,16.148,16.148,0,0,0,1.69-2.6,19.134,19.134,0,0,0,1.885-4.615,14.974,14.974,0,0,0,.39-1.82c.13-.715.26-1.365.325-2.08.13-.845.195-1.69.26-2.535v-.975a22.518,22.518,0,0,0-.13-2.99v-.13c-.195-.845-.39-1.625-.52-2.405a16.293,16.293,0,0,0-1.04-2.99,14.417,14.417,0,0,0-1.625-2.73,12.248,12.248,0,0,0-1.43-1.69,15.033,15.033,0,0,0-1.56-1.3,11.4,11.4,0,0,0-2.99-1.69,8.233,8.233,0,0,0-3.055-.585c-.65.065-1.3,0-1.95.13a8.23,8.23,0,0,0-2.535.78,3.13,3.13,0,0,0-1.82,2.99c.065.715-.195,1.43-.13,2.145v.065a20.19,20.19,0,0,0-.26,2.08c-.065.65,0,1.3-.065,2.015-.13.845-.065,1.69-.195,2.6a25.048,25.048,0,0,1-.13,3.12c-.065.91,0,1.82-.13,2.73-.13.975,0,1.95-.13,2.99-.13,1.3,0,2.6-.13,3.9a13.2,13.2,0,0,0,.13,3.575,5.1,5.1,0,0,1-.13,1.43,9.98,9.98,0,0,0,.13,2.795,4.644,4.644,0,0,0,1.04,2.21A4.961,4.961,0,0,0,126.78-1.17Zm2.145-6.7a.689.689,0,0,1-.585-.585v-.715c.2-1.105.065-2.145.2-3.25.065-.65.065-1.365.065-2.08a8.127,8.127,0,0,0,.195-1.235,2.886,2.886,0,0,1,.065-1.3c.065-.065,0-.065,0-.065a19.28,19.28,0,0,1,.2-2.73c0-1.365.065-2.73.13-4.1.065-.91,0-1.82.13-2.73.13-.845.065-1.69.13-2.47.065-.52.065-.975.13-1.43a.806.806,0,0,1,.78-.845,2.239,2.239,0,0,1,1.885.715,9.276,9.276,0,0,1,2.015,2.21,10.038,10.038,0,0,1,1.235,2.86,14.449,14.449,0,0,1,.455,2.925,7.868,7.868,0,0,1,.065,1.235c-.13.78-.065,1.5-.13,2.21a19.656,19.656,0,0,1-1.17,5.135,11.815,11.815,0,0,1-1.56,2.8,14.22,14.22,0,0,1-2.47,2.73A2.173,2.173,0,0,1,128.925-7.865ZM146.89-2.25a2.74,2.74,0,0,0,1.8-1.6,4.413,4.413,0,0,0,.3-1.3c.05-.55.05-1.1.1-1.7.1-.9,0-1.85.1-2.75.1-1.05,0-2.1.1-3.15.1-1,.05-2,.05-3-.05-1,0-2.05-.1-3.05-.1-1.15,0-2.35-.1-3.5a7.639,7.639,0,0,0-.35-1.8,2.254,2.254,0,0,0-2.15-1.7,2.333,2.333,0,0,0-2.4,1.6,5.5,5.5,0,0,0-.2,1.55c0,.15.1.3.1.45-.05.95.1,1.9.1,2.9v4.25c-.05,1.3.1,3.1-.1,4.85-.05.55,0,1.15,0,1.7s-.15,1.15-.1,1.7a18.088,18.088,0,0,0,.1,2.35,2.913,2.913,0,0,0,.95,1.7A2,2,0,0,0,146.89-2.25Zm19.15.9c3.35,0,2.1-5.2,2-9.4-.15-4.25-1-14.75-3.95-17.25-1.1-.95-3.6-1.05-4.6.35-3.4,4.75-7.6,19.2-8.5,22.1-1.1,3.3,3.95,4.15,5,.8,1.05-3.4,2.55-3.5,4.15-3.5s3-.05,3,2.05S163.24-1.35,166.04-1.35ZM161.19-13.4c-1.95,0-2.25-.25-1.9-1.3s1.05-3.1,1.15-3.25c.4-.85,1.15-2.4,1.7-.95C163.49-15.15,163.14-13.4,161.19-13.4ZM175.24-1.5a10.417,10.417,0,0,0,1.25,0,6.529,6.529,0,0,0,2-.5,6.421,6.421,0,0,0,2.3-1.7,6.127,6.127,0,0,0,1.45-3.35,4.3,4.3,0,0,0,0-1.6,7.1,7.1,0,0,0-.7-2.05,12.141,12.141,0,0,0-1.2-1.6.616.616,0,0,1-.1-.7.694.694,0,0,1,.35-.4,5.048,5.048,0,0,0,.65-.8,9.28,9.28,0,0,0,1.25-2.15,6.275,6.275,0,0,0,.6-2.35.634.634,0,0,1,.05-.3c.25-.6-.05-1.15,0-1.7-.1-.2,0-.45-.1-.65-.1-.5-.2-1.05-.35-1.55a15.853,15.853,0,0,0-.85-1.85,7.349,7.349,0,0,0-1.75-2.15,6.691,6.691,0,0,0-1.9-1.4,5.1,5.1,0,0,0-2.15-.6,8.1,8.1,0,0,1-1.1-.05,4.964,4.964,0,0,0-1.5.25,4.6,4.6,0,0,0-2.1,1.15,3.807,3.807,0,0,0-.9,2.45c-.05.05-.05.1,0,.1a1.039,1.039,0,0,1,.05.55c0,3-.2,6-.35,9-.1,1.95-.2,3.9-.2,5.85a34.988,34.988,0,0,0-.05,3.95,3.042,3.042,0,0,0,.4,1.35c.3.4.65.7.9,1.1a5.025,5.025,0,0,0,1.2.9A6.432,6.432,0,0,0,175.24-1.5Zm-.05-13.9c-.15-.05-.25-.1-.25-.3,0-.3.05-.65.05-1,0-.55.05-1.05.05-1.65v-.4c.1-1.45,0-2.9.05-4.35a.634.634,0,0,1,.05-.3.706.706,0,0,1,.85-.6,1.287,1.287,0,0,1,.8.35,7.52,7.52,0,0,1,1.55,2.75,4.72,4.72,0,0,1,0,2.05,4.561,4.561,0,0,1-1.3,2.35,11.318,11.318,0,0,1-1.3,1A1.077,1.077,0,0,1,175.19-15.4Zm.2,9.25c-.3,0-.45-.25-.65-.4a.6.6,0,0,1-.15-.5,4.575,4.575,0,0,0,.05-.8,4.851,4.851,0,0,1,.05-.85.567.567,0,0,1,.55-.6,2.22,2.22,0,0,1,1,.05,1.593,1.593,0,0,1,1.35,1.45,1.4,1.4,0,0,1-.6,1.35A2.271,2.271,0,0,1,175.39-6.15Zm14.3,4.25h1.65a8.826,8.826,0,0,0,1.15,0c.5,0,1,0,1.55-.05A3.2,3.2,0,0,0,195.79-3a2.324,2.324,0,0,0,.25-2.15,2.4,2.4,0,0,0-2.35-1.5c-.95-.05-1.85,0-2.8,0a1.3,1.3,0,0,1-1.35-1.4,7.078,7.078,0,0,1,.1-1.45v-.95a3.573,3.573,0,0,1,.1-1.05.953.953,0,0,1,.25-.5,2.348,2.348,0,0,1,1.8-.45,3.792,3.792,0,0,0,1.3.05,2.639,2.639,0,0,0,1.25-.4,2.111,2.111,0,0,0,1.2-2.3,2.223,2.223,0,0,0-1.55-1.8,6.931,6.931,0,0,0-2.25-.45,1.968,1.968,0,0,1-1.05-.3.9.9,0,0,1-.55-.9,14.125,14.125,0,0,1,.1-1.45,14.076,14.076,0,0,1,.1-2.05,1.455,1.455,0,0,1,1.4-1.3,34.755,34.755,0,0,0,4.55-.1,2.656,2.656,0,0,0,1.75-.85,2.345,2.345,0,0,0,.55-1.55,2.356,2.356,0,0,0-1.4-2.05,6.379,6.379,0,0,0-1.65-.3c-.65-.05-1.3.1-1.95.1-1.5-.05-3.05,0-4.55,0a10.875,10.875,0,0,0-1.25.05,2.58,2.58,0,0,0-1.8,1.25,3.9,3.9,0,0,0-.65,2.15c0,.55.15,1.1.1,1.65,0,.65,0,1.35-.05,2-.1,1.05-.05,2.15-.1,3.25a17.966,17.966,0,0,0-.15,2.35v.05a11.7,11.7,0,0,0-.15,1.9,13.3,13.3,0,0,0-.1,1.5,16.574,16.574,0,0,0-.1,2.25,16.384,16.384,0,0,0,.05,3.5c.05.3.05.6.1.9a4.168,4.168,0,0,0,1.65,2.45A5.537,5.537,0,0,0,189.69-1.9Zm20.85.9a2.387,2.387,0,0,0,1.5-.75,2.564,2.564,0,0,0,.65-1.7c.05-.85-.1-1.7-.1-2.55v-.05c-.2-.55-.05-1.15-.2-1.75a12.259,12.259,0,0,1-.1-1.35c-.05-.65-.25-7.75-.3-8.45-.1-1.3.05-2.6-.1-3.9a8.694,8.694,0,0,1,.05-1.6,1.81,1.81,0,0,1,.75-1.15.2.2,0,0,1,.2-.1c.5.05,1-.15,1.5-.1h.2c.5-.15,1.05-.2,1.55-.3a3.2,3.2,0,0,0,1.65-.8,1.927,1.927,0,0,0-.45-3.05,4.646,4.646,0,0,0-2.45-.55c-1.1-.05-2.2-.05-3.3-.05-1.1.05-2.2.05-3.3.1-1.85.1-3.7,0-5.55.1a4.009,4.009,0,0,0-1.05.25,2.479,2.479,0,0,0-1.5,1.65,2.034,2.034,0,0,0,.3,1.8,2.521,2.521,0,0,0,2.2,1.15h2.6a1.1,1.1,0,0,0,.4-.05.905.905,0,0,1,1,.4,2.839,2.839,0,0,1,.35,1.1c0,1.05-.05,2.1.05,3.15.15,1.1,0,2.2.15,3.35l.2,7.25c0,.65.15,1.3.1,2v.05a.969.969,0,0,1,.1.75c-.05.25.1.5.1.8a12.893,12.893,0,0,0,.2,1.95,3.219,3.219,0,0,0,.55,1.35A2.327,2.327,0,0,0,210.54-1Zm14.25-.9h1.65a8.826,8.826,0,0,0,1.15,0c.5,0,1,0,1.55-.05A3.2,3.2,0,0,0,230.89-3a2.324,2.324,0,0,0,.25-2.15,2.4,2.4,0,0,0-2.35-1.5c-.95-.05-1.85,0-2.8,0a1.3,1.3,0,0,1-1.35-1.4,7.078,7.078,0,0,1,.1-1.45v-.95a3.573,3.573,0,0,1,.1-1.05.953.953,0,0,1,.25-.5,2.348,2.348,0,0,1,1.8-.45,3.792,3.792,0,0,0,1.3.05,2.639,2.639,0,0,0,1.25-.4,2.111,2.111,0,0,0,1.2-2.3,2.223,2.223,0,0,0-1.55-1.8,6.931,6.931,0,0,0-2.25-.45,1.968,1.968,0,0,1-1.05-.3.9.9,0,0,1-.55-.9,14.125,14.125,0,0,1,.1-1.45,14.076,14.076,0,0,1,.1-2.05,1.455,1.455,0,0,1,1.4-1.3,34.755,34.755,0,0,0,4.55-.1,2.656,2.656,0,0,0,1.75-.85,2.345,2.345,0,0,0,.55-1.55,2.356,2.356,0,0,0-1.4-2.05,6.379,6.379,0,0,0-1.65-.3c-.65-.05-1.3.1-1.95.1-1.5-.05-3.05,0-4.55,0a10.875,10.875,0,0,0-1.25.05,2.58,2.58,0,0,0-1.8,1.25,3.9,3.9,0,0,0-.65,2.15c0,.55.15,1.1.1,1.65,0,.65,0,1.35-.05,2-.1,1.05-.05,2.15-.1,3.25a17.966,17.966,0,0,0-.15,2.35v.05a11.7,11.7,0,0,0-.15,1.9,13.3,13.3,0,0,0-.1,1.5,16.574,16.574,0,0,0-.1,2.25,16.384,16.384,0,0,0,.05,3.5c.05.3.05.6.1.9a4.168,4.168,0,0,0,1.65,2.45A5.537,5.537,0,0,0,224.79-1.9Zm13.5,1.55a9.3,9.3,0,0,0,1.7-.2,7.672,7.672,0,0,0,1.9-.6,9.468,9.468,0,0,0,1.5-.95,9.641,9.641,0,0,0,1.55-1.65,10.4,10.4,0,0,0,1.1-1.9,9.9,9.9,0,0,0,.9-3.15,4.653,4.653,0,0,0,.05-1.45c-.1-.4-.05-.8-.15-1.2s-.15-.8-.25-1.2a17.776,17.776,0,0,0-1.55-3.6,14.992,14.992,0,0,0-1.85-2.45l-1.4-1.5a2.368,2.368,0,0,1-.45-2.2,4.334,4.334,0,0,1,.85-1.65,3.165,3.165,0,0,1,1.55-1.1,4.5,4.5,0,0,1,.8-.15,2.535,2.535,0,0,0,1.4-1,2.217,2.217,0,0,0-.8-3.3,3.406,3.406,0,0,0-1.4-.35,5.509,5.509,0,0,0-.9.1,7,7,0,0,0-1.8.65c-.5.3-.95.65-1.45,1a9.638,9.638,0,0,0-1.35,1.5,9.294,9.294,0,0,0-1.15,2.05,8.866,8.866,0,0,0-.65,2.7,6.106,6.106,0,0,0,.05,1.35,8.551,8.551,0,0,0,.45,1.5,8.74,8.74,0,0,0,1.9,2.75l.7.7a9.246,9.246,0,0,1,1.65,2.3,8.415,8.415,0,0,1,.95,2.65,5.061,5.061,0,0,1,.1,1.5,6.568,6.568,0,0,1-.8,2.15,5.8,5.8,0,0,1-1,1.2,2.535,2.535,0,0,1-1.5.65c-.45.05-.9.05-1.35.1a2.727,2.727,0,0,0-1.95,1.05,2.131,2.131,0,0,0-.35,1.9,2.478,2.478,0,0,0,1.3,1.45A3.361,3.361,0,0,0,238.29-.35ZM253.835-2.4a3.315,3.315,0,0,0,1.56-1.17,5.708,5.708,0,0,0,.715-2.535,11.506,11.506,0,0,0-.065-1.5c-.13-.78-.065-1.625-.2-2.405-.065-.65,0-1.365-.13-2.015-.065-.845,0-1.69-.13-2.535-.13-.715-.065-1.365-.13-2.08a21.961,21.961,0,0,1,0-2.925c0-.13,0-.325.2-.39a.517.517,0,0,1,.585.13,2.523,2.523,0,0,1,.39.715l1.625,3.77c.39,1.105.845,2.21,1.3,3.25a34.947,34.947,0,0,1,1.3,3.315c.39.91.715,1.82,1.105,2.73a8.646,8.646,0,0,0,1.69,2.535,3.183,3.183,0,0,0,2.665,1.04,3.162,3.162,0,0,0,2.275-1.3,5.49,5.49,0,0,0,1.04-2.145c.13-.52.39-1.04.52-1.625.13-.845.39-1.69.455-2.6l.2-2.08a8.07,8.07,0,0,0,.195-1.755,5.052,5.052,0,0,0,.13-1.04c-.065-.325.13-.65.13-1.04a13.36,13.36,0,0,1,.13-2.275c.065-.78,0-1.56.13-2.34.13-.975-.065-2.015.13-2.99-.065-1.755.195-3.51.13-5.265v-.91h.065a18.242,18.242,0,0,1,0-1.885,4.536,4.536,0,0,0-.585-2.08,3.085,3.085,0,0,0-2.21-1.69,2.426,2.426,0,0,0-1.17.065,3.364,3.364,0,0,0-1.755,1.235,4.172,4.172,0,0,0-.845,2.08c-.065.975-.065,1.885-.065,2.795-.13,1.885-.065,3.77-.2,5.655-.065,1.3-.13,2.535-.13,3.835a1.363,1.363,0,0,1-.26.715c-.13.26-.13.585-.39.585s-.39-.325-.455-.585c-.39-1.04-.91-2.08-1.365-3.12-.91-1.82-1.755-3.64-2.73-5.4a41.885,41.885,0,0,0-2.6-4.29c-.2-.325-.52-.65-.78-1.04A4.447,4.447,0,0,0,253.9-34.58a3.628,3.628,0,0,0-3.965,1.82,6.913,6.913,0,0,0-.585,2.275c-.13.91-.195,1.82-.26,2.73-.13.65-.065,1.365-.13,2.015a7.938,7.938,0,0,0-.065,1.755,18.363,18.363,0,0,1-.13,1.885c.065,1.5-.065,3.055.13,4.615.13.845,0,1.69.13,2.535.065.975.065,1.95.13,2.925.065.585.065,1.17.13,1.69.13.78.065,1.56.13,2.34.13.65.065,1.365.13,2.08.13.52.26,1.04.455,1.625a3.594,3.594,0,0,0,1.43,1.69A2.61,2.61,0,0,0,253.835-2.4ZM281.715-.45a5.86,5.86,0,0,0,3.2-2,7.767,7.767,0,0,0,1.15-2.1,21.779,21.779,0,0,0,.85-2.55,13.6,13.6,0,0,0,.65-2.45l.3-1.75c.1-.7.15-1.45.2-2.2a11.74,11.74,0,0,0,0-2.65c-.05-.5,0-1.05-.05-1.55l-.15-1.85c-.1-.65-.15-1.25-.3-1.9a20.166,20.166,0,0,0-.55-2.5,9.2,9.2,0,0,0-2.25-4.1,6.054,6.054,0,0,0-1.95-1.3,8.316,8.316,0,0,0-1.85-.45.544.544,0,0,0-.25.05c-.1.1-.25.05-.4.05a6.21,6.21,0,0,0-1.9.25,4.491,4.491,0,0,0-2.15,1.4,6.748,6.748,0,0,0-1.45,3.15,2.4,2.4,0,0,1-.25.85,4.665,4.665,0,0,0-.65,2.25c-.05,1.35-.25,2.75-.2,4.1,0,.7-.05,1.35-.1,2.05,0,.9,0,1.85-.05,2.75s.1,1.8.05,2.75a.227.227,0,0,0,0,.25,1.439,1.439,0,0,1,.05.65c0,.25.1.45.1.7.05.5.1,1,.2,1.5a8.285,8.285,0,0,0,.55,1.9,9.627,9.627,0,0,0,1.3,2.45,6.755,6.755,0,0,0,3.2,2.15A5.5,5.5,0,0,0,281.715-.45Zm-1-4.15a2.012,2.012,0,0,1-2.1-1.75c-.15-.65-.2-1.3-.3-1.95a44.35,44.35,0,0,1-.05-5.15v-.6h.05c0-1,.05-1.95.05-2.95a20.24,20.24,0,0,1,.2-2.5c.15-1.05.25-2.1.3-3.2a2.912,2.912,0,0,1,.75-1.75.951.951,0,0,1,.65-.25,1.915,1.915,0,0,1,1.55,1.05,7.005,7.005,0,0,1,.65,1.8c.15.7.25,1.4.4,2.1.1.6.05,1.2.2,1.8.05.05.05.05,0,.1,0,.65.1,1.3.1,1.95.05,1.75,0,3.5-.05,5.25a8.338,8.338,0,0,1-.25,1.55,6.25,6.25,0,0,1-.15.95,8.627,8.627,0,0,1-1,2.75,2.22,2.22,0,0,1-.4.55A.749.749,0,0,1,280.715-4.6ZM302.24-2.34a5.547,5.547,0,0,1,1.04,0,6.813,6.813,0,0,0,2.34-.455,3.03,3.03,0,0,0,2.015-3.445,3.057,3.057,0,0,0-2.08-2.34,3.445,3.445,0,0,0-1.82-.2,3.484,3.484,0,0,1-1.82-.13,12.118,12.118,0,0,1-2.21-1.17,5.955,5.955,0,0,1-2.015-2.665,9.4,9.4,0,0,1-.91-2.99,18.755,18.755,0,0,1-.26-1.885v-.975a25.244,25.244,0,0,1,.26-3.12l.39-1.755a11.123,11.123,0,0,1,1.755-3.51,10.556,10.556,0,0,1,2.4-2.4,2.738,2.738,0,0,1,1.3-.65,4.125,4.125,0,0,1,1.56-.13,6.8,6.8,0,0,0,2.34.325,3.022,3.022,0,0,0,1.365-.325,3.23,3.23,0,0,0,1.56-3.445,3.345,3.345,0,0,0-1.755-2.21,7.549,7.549,0,0,0-3.575-.975,10.5,10.5,0,0,0-2.015.13,10.12,10.12,0,0,0-2.4.65,13.108,13.108,0,0,0-3.835,2.665,18.321,18.321,0,0,0-2.145,2.34,25.951,25.951,0,0,0-1.755,2.86,14.677,14.677,0,0,0-1.235,3.185c-.13.78-.325,1.56-.455,2.34-.065.39-.065.78-.13,1.235-.195.91-.13,1.95-.26,2.86-.065.39.13.65.13.975a14.8,14.8,0,0,0,.13,1.69,16.7,16.7,0,0,0,.455,2.6,14.431,14.431,0,0,0,2.08,5.07,12.968,12.968,0,0,0,2.8,3.185,12.912,12.912,0,0,0,4.615,2.34A8.173,8.173,0,0,0,302.24-2.34ZM319.395-.45a5.86,5.86,0,0,0,3.2-2,7.767,7.767,0,0,0,1.15-2.1,21.779,21.779,0,0,0,.85-2.55,13.6,13.6,0,0,0,.65-2.45l.3-1.75c.1-.7.15-1.45.2-2.2a11.74,11.74,0,0,0,0-2.65c-.05-.5,0-1.05-.05-1.55l-.15-1.85c-.1-.65-.15-1.25-.3-1.9a20.166,20.166,0,0,0-.55-2.5,9.2,9.2,0,0,0-2.25-4.1,6.054,6.054,0,0,0-1.95-1.3,8.316,8.316,0,0,0-1.85-.45.544.544,0,0,0-.25.05c-.1.1-.25.05-.4.05a6.21,6.21,0,0,0-1.9.25,4.491,4.491,0,0,0-2.15,1.4,6.748,6.748,0,0,0-1.45,3.15,2.4,2.4,0,0,1-.25.85,4.665,4.665,0,0,0-.65,2.25c-.05,1.35-.25,2.75-.2,4.1,0,.7-.05,1.35-.1,2.05,0,.9,0,1.85-.05,2.75s.1,1.8.05,2.75a.227.227,0,0,0,0,.25,1.439,1.439,0,0,1,.05.65c0,.25.1.45.1.7.05.5.1,1,.2,1.5a8.285,8.285,0,0,0,.55,1.9,9.627,9.627,0,0,0,1.3,2.45,6.755,6.755,0,0,0,3.2,2.15A5.5,5.5,0,0,0,319.395-.45Zm-1-4.15a2.012,2.012,0,0,1-2.1-1.75c-.15-.65-.2-1.3-.3-1.95a44.35,44.35,0,0,1-.05-5.15v-.6h.05c0-1,.05-1.95.05-2.95a20.24,20.24,0,0,1,.2-2.5c.15-1.05.25-2.1.3-3.2a2.912,2.912,0,0,1,.75-1.75.951.951,0,0,1,.65-.25,1.915,1.915,0,0,1,1.55,1.05,7.005,7.005,0,0,1,.65,1.8c.15.7.25,1.4.4,2.1.1.6.05,1.2.2,1.8.05.05.05.05,0,.1,0,.65.1,1.3.1,1.95.05,1.75,0,3.5-.05,5.25a8.338,8.338,0,0,1-.25,1.55,6.25,6.25,0,0,1-.15.95,8.627,8.627,0,0,1-1,2.75,2.22,2.22,0,0,1-.4.55A.749.749,0,0,1,318.395-4.6Zm12.85,2.75a2.55,2.55,0,0,0,1.2-.9,4.391,4.391,0,0,0,.55-1.95,8.848,8.848,0,0,0-.05-1.15c-.1-.6-.05-1.25-.15-1.85-.05-.5,0-1.05-.1-1.55-.05-.65,0-1.3-.1-1.95-.1-.55-.05-1.05-.1-1.6a16.893,16.893,0,0,1,0-2.25c0-.1,0-.25.15-.3a.4.4,0,0,1,.45.1,1.94,1.94,0,0,1,.3.55l1.25,2.9c.3.85.65,1.7,1,2.5a26.867,26.867,0,0,1,1,2.55c.3.7.55,1.4.85,2.1a6.651,6.651,0,0,0,1.3,1.95,2.448,2.448,0,0,0,2.05.8,2.432,2.432,0,0,0,1.75-1,4.223,4.223,0,0,0,.8-1.65c.1-.4.3-.8.4-1.25.1-.65.3-1.3.35-2l.15-1.6a6.206,6.206,0,0,0,.15-1.35,3.887,3.887,0,0,0,.1-.8c-.05-.25.1-.5.1-.8a10.276,10.276,0,0,1,.1-1.75c.05-.6,0-1.2.1-1.8.1-.75-.05-1.55.1-2.3-.05-1.35.15-2.7.1-4.05v-.7h.05a14.029,14.029,0,0,1,0-1.45,3.489,3.489,0,0,0-.45-1.6,2.373,2.373,0,0,0-1.7-1.3,1.866,1.866,0,0,0-.9.05,2.588,2.588,0,0,0-1.35.95,3.209,3.209,0,0,0-.65,1.6c-.05.75-.05,1.45-.05,2.15-.1,1.45-.05,2.9-.15,4.35-.05,1-.1,1.95-.1,2.95a1.049,1.049,0,0,1-.2.55c-.1.2-.1.45-.3.45s-.3-.25-.35-.45c-.3-.8-.7-1.6-1.05-2.4-.7-1.4-1.35-2.8-2.1-4.15a32.217,32.217,0,0,0-2-3.3c-.15-.25-.4-.5-.6-.8a3.421,3.421,0,0,0-1.85-1.25,2.791,2.791,0,0,0-3.05,1.4,5.318,5.318,0,0,0-.45,1.75c-.1.7-.15,1.4-.2,2.1-.1.5-.05,1.05-.1,1.55a6.106,6.106,0,0,0-.05,1.35,14.13,14.13,0,0,1-.1,1.45c.05,1.15-.05,2.35.1,3.55.1.65,0,1.3.1,1.95.05.75.05,1.5.1,2.25.05.45.05.9.1,1.3.1.6.05,1.2.1,1.8.1.5.05,1.05.1,1.6.1.4.2.8.35,1.25a2.765,2.765,0,0,0,1.1,1.3A2.008,2.008,0,0,0,331.245-1.85Zm25.8.85a2.387,2.387,0,0,0,1.5-.75,2.564,2.564,0,0,0,.65-1.7c.05-.85-.1-1.7-.1-2.55v-.05c-.2-.55-.05-1.15-.2-1.75a12.262,12.262,0,0,1-.1-1.35c-.05-.65-.25-7.75-.3-8.45-.1-1.3.05-2.6-.1-3.9a8.694,8.694,0,0,1,.05-1.6,1.81,1.81,0,0,1,.75-1.15.2.2,0,0,1,.2-.1c.5.05,1-.15,1.5-.1h.2c.5-.15,1.05-.2,1.55-.3a3.2,3.2,0,0,0,1.65-.8,1.927,1.927,0,0,0-.45-3.05,4.646,4.646,0,0,0-2.45-.55c-1.1-.05-2.2-.05-3.3-.05-1.1.05-2.2.05-3.3.1-1.85.1-3.7,0-5.55.1a4.009,4.009,0,0,0-1.05.25,2.479,2.479,0,0,0-1.5,1.65,2.034,2.034,0,0,0,.3,1.8,2.521,2.521,0,0,0,2.2,1.15h2.6a1.1,1.1,0,0,0,.4-.05.905.905,0,0,1,1,.4,2.84,2.84,0,0,1,.35,1.1c0,1.05-.05,2.1.05,3.15.15,1.1,0,2.2.15,3.35l.2,7.25c0,.65.15,1.3.1,2v.05a.969.969,0,0,1,.1.75c-.05.25.1.5.1.8a12.893,12.893,0,0,0,.2,1.95,3.219,3.219,0,0,0,.55,1.35A2.327,2.327,0,0,0,357.045-1Zm11.8.55a2.018,2.018,0,0,0,1.3-.9,4.436,4.436,0,0,0,.6-2.1,13.2,13.2,0,0,0-.1-1.45c-.05-.55,0-1.15,0-1.7V-8.45a.4.4,0,0,1,.45-.45.95.95,0,0,1,.65.25,8.688,8.688,0,0,1,.65.75,5.644,5.644,0,0,1,1.2,2.3c.2.7.3,1.5.5,2.25a2.986,2.986,0,0,0,1.2,1.8,2.169,2.169,0,0,0,2.95-.35,2.973,2.973,0,0,0,.65-1.7,2.952,2.952,0,0,0-.1-.7,12.376,12.376,0,0,0-.3-1.45,10.935,10.935,0,0,0-.85-2.75,7.989,7.989,0,0,0-1.15-2c-.3-.4-.6-.8-.95-1.2a.687.687,0,0,1,.05-1.05.69.69,0,0,0,.15-.2c.25-.3.6-.45.85-.75.4-.45.8-.9,1.15-1.35a12.827,12.827,0,0,0,1.3-2.05,12.994,12.994,0,0,0,.65-1.8,13.145,13.145,0,0,0,.3-1.95,8.99,8.99,0,0,0-.15-2,7.87,7.87,0,0,0-.95-2.55,6.546,6.546,0,0,0-1.65-1.85,6.887,6.887,0,0,0-4.25-1.4c-.25,0-.45.15-.75.1a2.54,2.54,0,0,0-.85.15,6.774,6.774,0,0,0-2.2,1,4.531,4.531,0,0,0-.8.55,4.352,4.352,0,0,0-.85,1.05l-.6,1.05a4.17,4.17,0,0,0-.55,1.85c-.1.6-.05,1.2-.1,1.8-.1.6,0,1.25-.1,1.85-.1.5-.05,1.05-.1,1.55-.1.7-.05,1.4-.1,2.05-.1,1.15-.05,2.3-.1,3.45-.1,1.5-.05,3-.05,4.55.05,1.5-.05,3,.1,4.5a3.014,3.014,0,0,0,.7,1.85A1.924,1.924,0,0,0,368.845-.45ZM371.7-16.1a.6.6,0,0,1-.7-.15.275.275,0,0,1-.15-.25c.05-.25-.05-.55.1-.8v-.15a20.963,20.963,0,0,1,.15-2.5c0-.75.05-1.55.1-2.3,0-.7.5-1.05,1.1-1.3a2.537,2.537,0,0,1,1.6-.1,2.968,2.968,0,0,1,.4.2,2.314,2.314,0,0,1,.85,1.85v.35a5.04,5.04,0,0,1-.9,2.8,5.585,5.585,0,0,1-.95,1.2A4.688,4.688,0,0,1,371.7-16.1ZM389.645-.45a5.86,5.86,0,0,0,3.2-2,7.767,7.767,0,0,0,1.15-2.1,21.779,21.779,0,0,0,.85-2.55,13.6,13.6,0,0,0,.65-2.45l.3-1.75c.1-.7.15-1.45.2-2.2a11.74,11.74,0,0,0,0-2.65c-.05-.5,0-1.05-.05-1.55l-.15-1.85c-.1-.65-.15-1.25-.3-1.9a20.166,20.166,0,0,0-.55-2.5,9.2,9.2,0,0,0-2.25-4.1,6.054,6.054,0,0,0-1.95-1.3,8.316,8.316,0,0,0-1.85-.45.544.544,0,0,0-.25.05c-.1.1-.25.05-.4.05a6.21,6.21,0,0,0-1.9.25,4.491,4.491,0,0,0-2.15,1.4,6.748,6.748,0,0,0-1.45,3.15,2.4,2.4,0,0,1-.25.85,4.665,4.665,0,0,0-.65,2.25c-.05,1.35-.25,2.75-.2,4.1,0,.7-.05,1.35-.1,2.05,0,.9,0,1.85-.05,2.75s.1,1.8.05,2.75a.227.227,0,0,0,0,.25,1.439,1.439,0,0,1,.05.65c0,.25.1.45.1.7.05.5.1,1,.2,1.5a8.285,8.285,0,0,0,.55,1.9,9.627,9.627,0,0,0,1.3,2.45,6.755,6.755,0,0,0,3.2,2.15A5.5,5.5,0,0,0,389.645-.45Zm-1-4.15a2.012,2.012,0,0,1-2.1-1.75c-.15-.65-.2-1.3-.3-1.95a44.35,44.35,0,0,1-.05-5.15v-.6h.05c0-1,.05-1.95.05-2.95a20.24,20.24,0,0,1,.2-2.5c.15-1.05.25-2.1.3-3.2a2.912,2.912,0,0,1,.75-1.75.951.951,0,0,1,.65-.25,1.915,1.915,0,0,1,1.55,1.05,7.005,7.005,0,0,1,.65,1.8c.15.7.25,1.4.4,2.1.1.6.05,1.2.2,1.8.05.05.05.05,0,.1,0,.65.1,1.3.1,1.95.05,1.75,0,3.5-.05,5.25a8.338,8.338,0,0,1-.25,1.55,6.25,6.25,0,0,1-.15.95,8.627,8.627,0,0,1-1,2.75,2.22,2.22,0,0,1-.4.55A.749.749,0,0,1,388.645-4.6ZM407.3.35a7.908,7.908,0,0,0,1.55-.05,2.5,2.5,0,0,0,2.2-2.9,2.154,2.154,0,0,0-.75-1.3,3.265,3.265,0,0,0-2.4-.8h-.55a9.635,9.635,0,0,1-1.2-.05c-.6,0-1.2.05-1.8,0a1.023,1.023,0,0,0-.55,0,.813.813,0,0,1-.95-.45,1.67,1.67,0,0,1-.15-.75,12.187,12.187,0,0,0,.05-1.35c-.05-.65.1-1.25.05-1.9,0-.55.1-1.1.05-1.65,0-.55.1-1.1.05-1.65,0-.6.1-1.15.1-1.75-.05-.6.1-1.15.05-1.75a14.046,14.046,0,0,1,.05-1.45c-.05-.5.05-.95.15-5.1.05-.9,0-1.75.1-2.6a4.417,4.417,0,0,0-.1-1.4,2.5,2.5,0,0,0-2.5-1.85,2.652,2.652,0,0,0-2,1.2,5.168,5.168,0,0,0-.45,1.6c-.05.15.05.3.05.45a11.792,11.792,0,0,0-.1,1.85c.05.5-.2,4.6-.2,5.1.05.5-.05.95,0,1.45,0,.5-.1,1.05-.05,1.6,0,.6-.1,1.15-.1,1.7.05.6-.05,1.2-.05,1.85a14.054,14.054,0,0,1-.05,1.45c.05.7-.05,1.35-.05,2a20.35,20.35,0,0,1-.15,2.5v.1a13.351,13.351,0,0,1,0,2c.05.3,0,.6.05.95A2.917,2.917,0,0,0,398.7-.7a3.792,3.792,0,0,0,1.9.8l.75.1a5.277,5.277,0,0,0,1.25.1c.6-.1,1.2.1,1.8,0,.35-.05.7.1,1.05-.05C406.045.4,406.7.25,407.3.35Zm10.25-2.25h1.65a8.826,8.826,0,0,0,1.15,0c.5,0,1,0,1.55-.05A3.2,3.2,0,0,0,423.645-3a2.324,2.324,0,0,0,.25-2.15,2.4,2.4,0,0,0-2.35-1.5c-.95-.05-1.85,0-2.8,0a1.3,1.3,0,0,1-1.35-1.4,7.079,7.079,0,0,1,.1-1.45v-.95a3.573,3.573,0,0,1,.1-1.05.953.953,0,0,1,.25-.5,2.348,2.348,0,0,1,1.8-.45,3.792,3.792,0,0,0,1.3.05,2.639,2.639,0,0,0,1.25-.4,2.11,2.11,0,0,0,1.2-2.3,2.223,2.223,0,0,0-1.55-1.8,6.932,6.932,0,0,0-2.25-.45,1.968,1.968,0,0,1-1.05-.3.9.9,0,0,1-.55-.9,14.13,14.13,0,0,1,.1-1.45,14.076,14.076,0,0,1,.1-2.05,1.455,1.455,0,0,1,1.4-1.3,34.754,34.754,0,0,0,4.55-.1,2.656,2.656,0,0,0,1.75-.85,2.345,2.345,0,0,0,.55-1.55,2.356,2.356,0,0,0-1.4-2.05,6.379,6.379,0,0,0-1.65-.3c-.65-.05-1.3.1-1.95.1-1.5-.05-3.05,0-4.55,0a10.876,10.876,0,0,0-1.25.05,2.58,2.58,0,0,0-1.8,1.25,3.9,3.9,0,0,0-.65,2.15c0,.55.15,1.1.1,1.65,0,.65,0,1.35-.05,2-.1,1.05-.05,2.15-.1,3.25a17.968,17.968,0,0,0-.15,2.35v.05a11.7,11.7,0,0,0-.15,1.9,13.306,13.306,0,0,0-.1,1.5,16.571,16.571,0,0,0-.1,2.25,16.385,16.385,0,0,0,.05,3.5c.05.3.05.6.1.9a4.168,4.168,0,0,0,1.65,2.45A5.537,5.537,0,0,0,417.545-1.9ZM432.2-.455a12.1,12.1,0,0,0,2.21-.26,9.974,9.974,0,0,0,2.47-.78,12.309,12.309,0,0,0,1.95-1.235,12.533,12.533,0,0,0,2.015-2.145,13.523,13.523,0,0,0,1.43-2.47,12.865,12.865,0,0,0,1.17-4.1,6.049,6.049,0,0,0,.065-1.885c-.13-.52-.065-1.04-.2-1.56s-.2-1.04-.325-1.56a23.11,23.11,0,0,0-2.015-4.68,19.489,19.489,0,0,0-2.4-3.185l-1.82-1.95a3.078,3.078,0,0,1-.585-2.86,5.634,5.634,0,0,1,1.105-2.145,4.115,4.115,0,0,1,2.015-1.43,5.854,5.854,0,0,1,1.04-.2,3.3,3.3,0,0,0,1.82-1.3,2.882,2.882,0,0,0-1.04-4.29,4.428,4.428,0,0,0-1.82-.455,7.162,7.162,0,0,0-1.17.13,9.107,9.107,0,0,0-2.34.845c-.65.39-1.235.845-1.885,1.3a12.53,12.53,0,0,0-1.755,1.95,12.082,12.082,0,0,0-1.495,2.665,11.525,11.525,0,0,0-.845,3.51,7.938,7.938,0,0,0,.065,1.755,11.114,11.114,0,0,0,.585,1.95,11.362,11.362,0,0,0,2.47,3.575l.91.91a12.019,12.019,0,0,1,2.145,2.99,10.94,10.94,0,0,1,1.235,3.445,6.58,6.58,0,0,1,.13,1.95,8.538,8.538,0,0,1-1.04,2.8,7.541,7.541,0,0,1-1.3,1.56,3.3,3.3,0,0,1-1.95.845c-.585.065-1.17.065-1.755.13a3.545,3.545,0,0,0-2.535,1.365A2.77,2.77,0,0,0,428.3-2.8,3.222,3.222,0,0,0,429.99-.91,4.369,4.369,0,0,0,432.2-.455ZM454-.65a9.985,9.985,0,0,0,1.3-.25,5.76,5.76,0,0,0,1.6-.7,7.174,7.174,0,0,0,1.35-1.15,5.6,5.6,0,0,0,1.2-1.65,14.229,14.229,0,0,0,1-2.55c.15-.75.35-1.5.45-2.3.05-.7.15-1.45.25-2.2.15-1.05.15-2.1.2-3.15a5.411,5.411,0,0,1,0-.9c0-.6.05-1.15,0-1.75,0-.05-.05-.1-.05-.15a8.165,8.165,0,0,0,.05-1.55c-.05-.55.05-1.05-.05-1.55a10.242,10.242,0,0,0-.05-1.75,5.228,5.228,0,0,0,0-1.25c-.1-.7,0-1.45-.15-2.15a2.727,2.727,0,0,0-1.05-1.95,2.472,2.472,0,0,0-2.2-.35,2.5,2.5,0,0,0-1.7,1.95,6.608,6.608,0,0,0-.1,1.7,14.076,14.076,0,0,0,.1,2.05v.1a1.242,1.242,0,0,0,0,.85c.05.3-.05.6,0,.9.1.55,0,1.1.05,1.65a8.073,8.073,0,0,1,0,1.1c-.05.45.05.95,0,1.4v1.3a6.674,6.674,0,0,1,0,1c-.05.55.05,1.15.05,1.7a7.382,7.382,0,0,0-.05,1.05c0,.75-.1,1.45-.15,2.2a7.789,7.789,0,0,1-.4,2.1,2.486,2.486,0,0,1-2.8,1.6,2.666,2.666,0,0,1-1.4-.7,1.472,1.472,0,0,1-.5-.8,6.486,6.486,0,0,1-.4-1.7,12.962,12.962,0,0,1-.2-2.4c-.05-.85-.1-1.7-.1-2.55a7.531,7.531,0,0,0-.05-1.5v-.15c.05-.55.05-1.05.05-1.55,0-.1-.05-.2,0-.3,0-.35.05-.7.05-1.1a3.707,3.707,0,0,1,.05-1.05c.05-.45.05-.85.1-1.3s.05-.9.1-1.4c0-.4.05-.8.05-1.2l-.15-.95a2.227,2.227,0,0,0-.9-1.7A2.36,2.36,0,0,0,447-26a2.529,2.529,0,0,0-1.55,2.15c-.1.5,0,1-.05,1.55v1a6.916,6.916,0,0,0-.05,1.45c0,.05.05.15,0,.2a1.459,1.459,0,0,0,.05.8,4.042,4.042,0,0,0-.05.8c.1.5,0,1,.05,1.5a4.818,4.818,0,0,1,0,.85,6.106,6.106,0,0,0-.05,1.35c.05.5.05,1,.05,1.5a23.476,23.476,0,0,0,.1,2.65c.05.6.15,1.2.2,1.8a9.474,9.474,0,0,0,.7,2.9,9.006,9.006,0,0,0,1.35,2.45,6.759,6.759,0,0,0,1.4,1.25c.5.25.95.55,1.45.75A6.605,6.605,0,0,0,454-.65Zm19.15-.65a6.626,6.626,0,0,0,3.25-1.755,14.469,14.469,0,0,0,1.235-1.56,15.825,15.825,0,0,0,1.43-2.99,46.712,46.712,0,0,0,1.82-5.33c.455-1.82.91-3.64,1.43-5.46.39-1.495.65-3.055.975-4.55.325-1.43.715-2.86,1.04-4.29.195-.78.325-1.56.455-2.34a16.625,16.625,0,0,0,.325-1.755,6.118,6.118,0,0,0,.195-2.665,3.1,3.1,0,0,0-1.95-2.405,4.477,4.477,0,0,0-1.3-.065,1.826,1.826,0,0,0-1.3.39,3.244,3.244,0,0,0-1.495,2.08c-.2.52-.26,1.04-.39,1.495l-.455,2.4a16.625,16.625,0,0,0-.325,1.755c-.195.845-.325,1.69-.52,2.535-.065.65-.2,1.3-.26,1.885-.195.845-.39,1.69-.52,2.535-.065.585-.2,1.17-.325,1.82-.13.715-.325,1.5-.52,2.275-.2.91-.39,1.885-.65,2.86a24.767,24.767,0,0,1-.845,2.925,11.718,11.718,0,0,1-.52,1.365.683.683,0,0,1-.585.325.435.435,0,0,1-.26-.455c-.2-.91-.455-1.82-.585-2.73-.065-.715-.26-1.365-.39-2.08l-.39-2.275a19.91,19.91,0,0,0-.325-2.08l-.39-2.47c-.13-.455-.065-.91-.2-1.3-.195-.715-.26-1.495-.39-2.21-.2-.78-.2-1.56-.325-2.275-.13-.39-.065-.715-.2-1.1a23.949,23.949,0,0,0-.715-2.925,3.392,3.392,0,0,0-1.43-2.08A3.373,3.373,0,0,0,466-34.255a2.812,2.812,0,0,0-2.6,1.95,5.194,5.194,0,0,0-.26,2.47,5.4,5.4,0,0,0,.065,1.43c.13.52.065,1.04.195,1.56.13.39.13.845.26,1.3.065.39.065.78.13,1.17a10.091,10.091,0,0,1,.26,1.365,4.62,4.62,0,0,0,.195,1.365l.39,2.47c.13.715.2,1.43.325,2.08l.585,3.12c.065.65.2,1.365.325,2.015l.39,1.95c.2.715.325,1.43.52,2.145a18.418,18.418,0,0,0,1.495,3.7,6.224,6.224,0,0,0,1.885,2.21A3.97,3.97,0,0,0,473.15-1.3Zm16.86-.95a2.74,2.74,0,0,0,1.8-1.6,4.414,4.414,0,0,0,.3-1.3c.05-.55.05-1.1.1-1.7.1-.9,0-1.85.1-2.75.1-1.05,0-2.1.1-3.15.1-1,.05-2,.05-3-.05-1,0-2.05-.1-3.05-.1-1.15,0-2.35-.1-3.5a7.639,7.639,0,0,0-.35-1.8,2.254,2.254,0,0,0-2.15-1.7,2.333,2.333,0,0,0-2.4,1.6,5.5,5.5,0,0,0-.2,1.55c0,.15.1.3.1.45-.05.95.1,1.9.1,2.9v4.25c-.05,1.3.1,3.1-.1,4.85-.05.55,0,1.15,0,1.7s-.15,1.15-.1,1.7a18.088,18.088,0,0,0,.1,2.35,2.913,2.913,0,0,0,.95,1.7A2,2,0,0,0,490.01-2.25ZM497.36-.9a8.126,8.126,0,0,0,1.9-.05,8,8,0,0,0,1.85-.6,9.944,9.944,0,0,0,3.05-2.15,16.109,16.109,0,0,0,1.6-1.6,12.422,12.422,0,0,0,1.3-2,14.718,14.718,0,0,0,1.45-3.55,11.519,11.519,0,0,0,.3-1.4c.1-.55.2-1.05.25-1.6.1-.65.15-1.3.2-1.95v-.75a17.321,17.321,0,0,0-.1-2.3v-.1c-.15-.65-.3-1.25-.4-1.85a12.53,12.53,0,0,0-.8-2.3,11.092,11.092,0,0,0-1.25-2.1,9.423,9.423,0,0,0-1.1-1.3,11.564,11.564,0,0,0-1.2-1,8.768,8.768,0,0,0-2.3-1.3,6.333,6.333,0,0,0-2.35-.45c-.5.05-1,0-1.5.1a6.331,6.331,0,0,0-1.95.6,2.408,2.408,0,0,0-1.4,2.3c.05.55-.15,1.1-.1,1.65v.05a15.535,15.535,0,0,0-.2,1.6c-.05.5,0,1-.05,1.55-.1.65-.05,1.3-.15,2a19.273,19.273,0,0,1-.1,2.4c-.05.7,0,1.4-.1,2.1-.1.75,0,1.5-.1,2.3-.1,1,0,2-.1,3a10.151,10.151,0,0,0,.1,2.75,3.921,3.921,0,0,1-.1,1.1,7.677,7.677,0,0,0,.1,2.15,3.572,3.572,0,0,0,.8,1.7A3.816,3.816,0,0,0,497.36-.9Zm1.65-5.15a.53.53,0,0,1-.45-.45v-.55c.15-.85.05-1.65.15-2.5.05-.5.05-1.05.05-1.6a6.25,6.25,0,0,0,.15-.95,2.22,2.22,0,0,1,.05-1c.05-.05,0-.05,0-.05a14.835,14.835,0,0,1,.15-2.1c0-1.05.05-2.1.1-3.15.05-.7,0-1.4.1-2.1.1-.65.05-1.3.1-1.9.05-.4.05-.75.1-1.1a.62.62,0,0,1,.6-.65,1.722,1.722,0,0,1,1.45.55,7.135,7.135,0,0,1,1.55,1.7,7.722,7.722,0,0,1,.95,2.2,11.117,11.117,0,0,1,.35,2.25,6.052,6.052,0,0,1,.05.95c-.1.6-.05,1.15-.1,1.7a15.119,15.119,0,0,1-.9,3.95,9.088,9.088,0,0,1-1.2,2.15,10.937,10.937,0,0,1-1.9,2.1A1.672,1.672,0,0,1,499.01-6.05Zm25.6,4.7c3.35,0,2.1-5.2,2-9.4-.15-4.25-1-14.75-3.95-17.25-1.1-.95-3.6-1.05-4.6.35-3.4,4.75-7.6,19.2-8.5,22.1-1.1,3.3,3.95,4.15,5,.8,1.05-3.4,2.55-3.5,4.15-3.5s3-.05,3,2.05S521.81-1.35,524.61-1.35ZM519.76-13.4c-1.95,0-2.25-.25-1.9-1.3s1.05-3.1,1.15-3.25c.4-.85,1.15-2.4,1.7-.95C522.06-15.15,521.71-13.4,519.76-13.4Z" transform="translate(-0.748 38.935)" fill="#fff"/>
</svg>
