<svg xmlns="http://www.w3.org/2000/svg" xmlns:xlink="http://www.w3.org/1999/xlink" width="376" height="96" viewBox="0 0 376 96">
  <defs>
    <clipPath id="clip-path">
      <rect id="Rectángulo_489" data-name="Rectángulo 489" width="53.538" height="53.283" transform="translate(0 0)" fill="#fff"/>
    </clipPath>
    <clipPath id="clip-path-2">
      <rect id="Rectángulo_490" data-name="Rectángulo 490" width="58.735" height="53.491" transform="translate(0 0)" fill="#28dd39"/>
    </clipPath>
    <clipPath id="clip-path-3">
      <rect id="Rectángulo_491" data-name="Rectángulo 491" width="50.161" height="53.079" transform="translate(0 0)" fill="#28dd39"/>
    </clipPath>
  </defs>
  <g id="Grupo_3028" data-name="Grupo 3028" transform="translate(-513.059 -2357.047)">
    <g id="Elipse_146" data-name="Elipse 146" transform="translate(513.059 2357.047)" fill="#28dd39" stroke="#28dd39" stroke-width="1">
      <circle cx="48" cy="48" r="48" stroke="none"/>
      <circle cx="48" cy="48" r="47.5" fill="none"/>
    </g>
    <g id="Elipse_147" data-name="Elipse 147" transform="translate(653.059 2357.047)" fill="#fff" stroke="#28dd39" stroke-width="1">
      <circle cx="48" cy="48" r="48" stroke="none"/>
      <circle cx="48" cy="48" r="47.5" fill="none"/>
    </g>
    <g id="Elipse_148" data-name="Elipse 148" transform="translate(793.059 2357.047)" fill="none" stroke="#28dd39" stroke-width="1">
      <circle cx="48" cy="48" r="48" stroke="none"/>
      <circle cx="48" cy="48" r="47.5" fill="none"/>
    </g>
    <g id="Grupo_2952" data-name="Grupo 2952" transform="translate(534.289 2378.406)">
      <g id="Grupo_2951" data-name="Grupo 2951" clip-path="url(#clip-path)">
        <path id="Trazado_2780" data-name="Trazado 2780" d="M50.968,6.83C47.213,2.568,40.36,4.227,35.28,4.169c-1.674-2.43-4.552-3.754-8.2-4.162a10.182,10.182,0,0,0-8.575,4.364c-3.583-.03-7.241-.29-10.81-.008-1.95.154-3.868.558-5.191,2.085a10.019,10.019,0,0,0-2,5.818C.3,15.333.317,18.467.2,21.545c-.13,3.432.14,6.861.057,10.3-.1,4.005-.4,8.019-.182,12.025.179,3.318.609,7.788,4.438,8.619,6.407,1.39,13.79.564,20.3.464,6.941-.107,13.9.389,20.834-.083,5.2-.354,7.434-1.714,7.456-7.2.029-7.234-.028-14.47.088-21.7.084-5.214,1.527-12.87-2.228-17.131M27.083,1.4c4.594.514,8.194,2.872,8.411,7.825.219,5.023-3.327,9.463-8.551,9.434a9.013,9.013,0,0,1-8.8-8.744A8.73,8.73,0,0,1,27.083,1.4m24.77,19.87c-.106,5.454-.129,10.907-.141,16.362q-.009,3.763,0,7.526a10.829,10.829,0,0,1-.264,3.755c-1.072,2.616-4.138,2.464-6.381,2.6-5.21.312-10.434.076-15.647.026s-10.451.231-15.677.1a62.736,62.736,0,0,1-7.525-.388c-3.273-.491-4.177-2.69-4.589-5.535-.81-5.593.113-11.441.054-17.067-.056-5.336-.037-10.666.214-16,.209-4.451,2.458-6.732,7-6.932,2.918-.128,5.86,0,8.786.038a9.325,9.325,0,0,0-.938,3.637A10.6,10.6,0,0,0,27.02,20.178,10.142,10.142,0,0,0,36.9,9.8a10.943,10.943,0,0,0-.863-4.249c1.7-.011,3.4-.1,5.1-.062,2.214.047,5.224-.36,7.152.825,4.745,2.917,3.652,10.178,3.559,14.956" fill="#fff"/>
        <path id="Trazado_2781" data-name="Trazado 2781" d="M25.58,11.1a1.647,1.647,0,0,0,2.518-.213,1.77,1.77,0,0,0,.018-2.141.573.573,0,0,0-.075-.223q.563-1.544,1.107-3.094c.3-.847-1.046-1.212-1.344-.371q-.524,1.482-1.058,2.958c-1.551.045-2.774,1.874-1.166,3.084m1.2-1.708a.789.789,0,0,0,.175.079c.012.009.016.022.029.031.425.309-.325,1.092-.7.361-.179-.35.174-.493.5-.471" fill="#fff"/>
        <path id="Trazado_2782" data-name="Trazado 2782" d="M47.263,28.036c.077-2.2.536-5.279-.224-7.394A3.757,3.757,0,0,0,43.9,18.127c-1.656-.246-5.073-.364-6.653.445-.778.4-1.359,1.5-1.983,2.066a12.492,12.492,0,0,1-4.993,2.594c-4.567,1.27-8.957-.265-12.436-3.273-2.019-1.8-7.586-1.85-9.9-.716-3.1,1.519-2.048,5.8-1.971,8.56.145,5.211-.538,10.907.364,16.048.415,2.367,1.548,3.659,3.921,4.108a71.961,71.961,0,0,0,9.714.622c3.213.147,6.432.008,9.64-.157,2.952-.152,5.9-.348,8.858-.381,2.356-.027,4.609.5,6.667-.812,3.41-2.176,2.241-6.564,2.095-10.068-.127-3.053-.062-6.075.045-9.127M45.675,44.4c-.947,2.4-3.069,2.168-5.371,2.249-5.7.2-11.435.58-17.14.6-2.8.01-5.541-.309-8.328-.483-2.526-.157-5.978.667-6.991-2.347-.747-2.225-.388-5.1-.361-7.424.032-2.662-.017-5.316-.1-7.978-.077-2.64-1.291-7.349,1.828-8.663,1.639-.691,6.275-.614,7.63.595,3.116,2.7,7.006,4.545,11.238,4.139a15.6,15.6,0,0,0,5.739-1.767c1.794-.959,3.145-3.06,5.061-3.664a10.735,10.735,0,0,1,3.45-.118q2.639-.545,3.519,2.736.067.958.074,1.919c.053,2.772-.184,5.536-.211,8.306-.025,2.65.176,5.29.243,7.937a9.968,9.968,0,0,1-.285,3.965" fill="#fff"/>
        <path id="Trazado_2783" data-name="Trazado 2783" d="M20.98,9.3A5.4,5.4,0,0,1,23.465,5.03c.785-.435.083-1.64-.7-1.2A6.848,6.848,0,0,0,19.586,9.3c-.076.894,1.318.889,1.394,0" fill="#fff"/>
        <path id="Trazado_2784" data-name="Trazado 2784" d="M20.147,10.725a.7.7,0,0,0,0,1.394.7.7,0,0,0,0-1.394" fill="#fff"/>
      </g>
    </g>
    <g id="Grupo_2954" data-name="Grupo 2954" transform="translate(671.69 2381.61)">
      <g id="Grupo_2953" data-name="Grupo 2953" clip-path="url(#clip-path-2)">
        <path id="Trazado_2785" data-name="Trazado 2785" d="M45.32.319c-6.477-.98-13.476,2.456-15.728,8.573a13.849,13.849,0,0,0-6.2-6.887C18.823-.552,14.331-.588,9.439,1.473,5.66,3.065,2.695,7.249,1.124,10.888c-1.985,4.6-.981,10.228.253,14.89a.7.7,0,0,0,1.344-.371C.663,17.63,1,9.044,8.091,3.837,11.419,1.391,17.15.53,20.853,2.221c3.88,1.773,7.739,5.24,8.036,9.771a.7.7,0,0,0,1.393,0c.731-8.3,10.912-12.728,18.046-9.347,7.581,3.593,10.78,13.768,8.285,21.48-1.575,4.867-7.822,3.655-11.933,3.681-2.334.015-4.669.038-7,.018-.315,0-1.606,0-1.569.024-.367-.227-1.313-3.015-1.533-3.582a.7.7,0,0,0-1.369.185c-.457,3.612-1.405,7.124-2.15,10.679-.724-5.976-1.022-12-2.018-17.945-.115-.688-1.2-.642-1.344,0L24.817,29.634q-.642-2.891-1.285-5.78c-.143-.641-1.237-.688-1.344,0-.149.957-.388,3.56-1.035,4.014-.442.31-2.106-.013-2.682-.016l-7.59-.05c-2.764-.018-7.1-.568-6.982,3.576.064,2.172,2.075,4.373,3.36,5.979a38.458,38.458,0,0,0,6.428,6.168c4.818,3.769,10.192,6.689,15.4,9.872a.7.7,0,0,0,.7,0,77.112,77.112,0,0,0,23.73-20.214c.554-.694-.426-1.687-.985-.985A73.147,73.147,0,0,1,37.35,47.067c-1.868,1.293-5.956,5.01-8.279,4.689-1.092-.151-2.6-1.546-3.553-2.112-1.463-.867-2.923-1.738-4.364-2.642a65.6,65.6,0,0,1-9.068-6.616c-1.675-1.5-10.035-9.508-4.527-11.212,2.08-.643,5.477.036,7.658.05q3.243.021,6.488.041a.713.713,0,0,0,.672-.512c.166-.53.316-1.054.467-1.579q.644,2.9,1.288,5.794a.7.7,0,0,0,1.344,0q1.366-5.914,2.734-11.83c.787,6.193,1.067,12.444,2.1,18.609.142.846,1.28.519,1.369-.185.529-4.2,1.723-8.274,2.491-12.43a3.118,3.118,0,0,0,2.4,2.074c3.155.512,6.851,0,10.041-.019,2.934-.02,6.83.633,9.279-1.347,2.123-1.717,2.548-4.758,2.771-7.3C59.41,11.925,54.683,1.735,45.32.319" fill="#28dd39"/>
      </g>
    </g>
    <g id="Grupo_2956" data-name="Grupo 2956" transform="translate(815.978 2378.61)">
      <g id="Grupo_2955" data-name="Grupo 2955" clip-path="url(#clip-path-3)">
        <path id="Trazado_2786" data-name="Trazado 2786" d="M42.093,11.707a10.528,10.528,0,0,0-6.414-.213c.123-.132.261-.245.377-.387A11.325,11.325,0,0,0,37.994.73.7.7,0,0,0,37.9.576.583.583,0,0,0,37.247,0a13.511,13.511,0,0,0-11.619,9.31A19.818,19.818,0,0,0,18.869.206a.544.544,0,0,0-.586-.072.582.582,0,0,0-.059.033.633.633,0,0,0-.115.085.708.708,0,0,0-.084.063A11.413,11.413,0,0,0,15.96,4.893a.626.626,0,0,0,.145.612.652.652,0,0,0,.341.245,11.654,11.654,0,0,1,7.837,8.076c-4.3-.717-7.966-3.433-12.621-2.854a12.77,12.77,0,0,0-9.85,7.688C-3,29.056,2.549,41.53,9.334,49.715c3.554,4.286,6.856,3.819,11.723,2.2,3.527-1.171,5.921-.495,9.352.366a15.564,15.564,0,0,0,6.011.664c4.725-.746,7.774-6.491,9.475-10.415,2.505-5.78,4.438-11.715,4.254-18.085-.153-5.28-2.871-10.773-8.056-12.742M36.743,1.464a9.82,9.82,0,0,1-2.123,9.17c-2.073,2.116-5.264,2.83-8.143,3.246A.666.666,0,0,0,26.5,13.7,11.845,11.845,0,0,1,36.743,1.464M17.473,4.655A10.092,10.092,0,0,1,18.662,1.8a17.873,17.873,0,0,1,5.9,8.947,13.1,13.1,0,0,0-7.093-6.093M39.544,49.723c-4.634,4.328-9.794-.274-14.981-.059-2.481.1-4.665,1.4-7.03,1.99-4.23,1.054-6.723-2-8.828-5.192C5.149,41.073,1.862,35.235,1.442,28.656s2.45-14.852,9.753-16.2c5.232-.968,9.238,2.527,14.211,2.9a.639.639,0,0,0,.3.027,15.218,15.218,0,0,0,4.211-.765,17.451,17.451,0,0,0,1.943-.639c2.947-1.015,5.87-2.075,8.935-1.238,8.326,2.274,8.821,12.63,7.244,19.547-1.352,5.932-3.96,13.2-8.494,17.435" fill="#28dd39"/>
        <path id="Trazado_2787" data-name="Trazado 2787" d="M12.752,16.539c-4.7,1.937-7.082,7.867-6.29,12.649.147.883,1.49.508,1.344-.371-.653-3.943,1.375-9.311,5.317-10.934.817-.337.459-1.686-.371-1.344" fill="#28dd39"/>
        <path id="Trazado_2788" data-name="Trazado 2788" d="M7.388,32.068a.7.7,0,0,0,0,1.394.7.7,0,0,0,0-1.394" fill="#28dd39"/>
      </g>
    </g>
  </g>
</svg>
