<svg xmlns="http://www.w3.org/2000/svg" xmlns:xlink="http://www.w3.org/1999/xlink" width="211.325" height="217.774" viewBox="0 0 211.325 217.774">
  <defs>
    <clipPath id="clip-path">
      <rect id="Rectángulo_497" data-name="Rectángulo 497" width="149.81" height="174.35" fill="#ff2742"/>
    </clipPath>
  </defs>
  <g id="Grupo_3029" data-name="Grupo 3029" transform="translate(-869 -1368.304)">
    <g id="Grupo_2978" data-name="Grupo 2978" transform="translate(915.89 1396.876) rotate(-5)" opacity="0.141">
      <g id="Grupo_2976" data-name="Grupo 2976" clip-path="url(#clip-path)">
        <path id="Trazado_2795" data-name="Trazado 2795" d="M110.021,42.156C86.9,41.932,67.168,60.265,66.47,83.5l-1.335,44.4-16.19,30.04,115.122,1.106-14.411-30.414,1.329-44.4c.7-23.213-17.882-41.856-40.964-42.079" transform="translate(-31.184 -26.858)" fill="#f8f8f8" fill-rule="evenodd"/>
        <path id="Trazado_2796" data-name="Trazado 2796" d="M197.31,42.649c-16.018,34.243-20.912,75.03-13.358,116.1l63.917.614-14.411-30.414,1.329-44.4a40.886,40.886,0,0,0-37.477-41.9" transform="translate(-114.987 -27.173)" fill="#fff" fill-rule="evenodd"/>
        <path id="Trazado_2797" data-name="Trazado 2797" d="M180.66,416.8a14.889,14.889,0,0,0,14.737-12l-28.671-.275A14.042,14.042,0,0,0,180.66,416.8" transform="translate(-106.226 -257.735)" fill="#f8f8f8" fill-rule="evenodd"/>
        <path id="Trazado_2798" data-name="Trazado 2798" d="M202.953,416.943A14.881,14.881,0,0,0,216.239,405l-16.8-.161q1.575,6.061,3.514,12.1" transform="translate(-127.068 -257.936)" fill="#fff" fill-rule="evenodd"/>
        <path id="Trazado_2799" data-name="Trazado 2799" d="M79.211,0C47.66-.3,20.816,24.725,19.866,56.415l-1.3,43.368L1.255,131.916c-3.547,6.587.64,13.873,9.814,14.4l33.94.328a29.123,29.123,0,0,0,29.05,27.705,30.513,30.513,0,0,0,30.628-27.132l30.821.3c8.849.085,17.482-6.281,13.144-15.441l-14.731-31.105,1.3-43.359C136.169,25.88,110.78.309,79.211,0M74.434,159.065A14.041,14.041,0,0,1,60.5,146.792l28.67.275a14.887,14.887,0,0,1-14.736,12M119.8,57.378l-1.329,44.4,14.411,30.415L17.76,131.084l16.191-30.041,1.334-44.4c.7-23.24,20.429-41.574,43.552-41.349,23.081.224,41.658,18.867,40.963,42.079" transform="translate(0 0)" fill="#fa0" fill-rule="evenodd"/>
        <path id="Trazado_2800" data-name="Trazado 2800" d="M273.1,253.978l9.519.176.451-15.049-9.518-.188Z" transform="translate(-174 -152.221)" fill="#fa0" fill-rule="evenodd"/>
        <path id="Trazado_2801" data-name="Trazado 2801" d="M237.916,82a21.327,21.327,0,0,1,14.115,20.736l-.758,25.339,9.518.188.757-25.241A30.963,30.963,0,0,0,238.111,72.1Z" transform="translate(-151.583 -45.937)" fill="#fa0" fill-rule="evenodd"/>
      </g>
    </g>
    <g id="Grupo_2977" data-name="Grupo 2977" transform="translate(934.313 1368.304) rotate(22)">
      <g id="Grupo_2976-2" data-name="Grupo 2976" clip-path="url(#clip-path)">
        <path id="Trazado_2795-2" data-name="Trazado 2795" d="M110.021,42.156C86.9,41.932,67.168,60.265,66.47,83.5l-1.335,44.4-16.19,30.04,115.122,1.106-14.411-30.414,1.329-44.4c.7-23.213-17.882-41.856-40.964-42.079" transform="translate(-31.184 -26.858)" fill="#f8f8f8" fill-rule="evenodd"/>
        <path id="Trazado_2796-2" data-name="Trazado 2796" d="M197.31,42.649c-16.018,34.243-20.912,75.03-13.358,116.1l63.917.614-14.411-30.414,1.329-44.4a40.886,40.886,0,0,0-37.477-41.9" transform="translate(-114.987 -27.173)" fill="#fff" fill-rule="evenodd"/>
        <path id="Trazado_2797-2" data-name="Trazado 2797" d="M180.66,416.8a14.889,14.889,0,0,0,14.737-12l-28.671-.275A14.042,14.042,0,0,0,180.66,416.8" transform="translate(-106.226 -257.735)" fill="#f8f8f8" fill-rule="evenodd"/>
        <path id="Trazado_2798-2" data-name="Trazado 2798" d="M202.953,416.943A14.881,14.881,0,0,0,216.239,405l-16.8-.161q1.575,6.061,3.514,12.1" transform="translate(-127.068 -257.936)" fill="#fff" fill-rule="evenodd"/>
        <path id="Trazado_2799-2" data-name="Trazado 2799" d="M79.211,0C47.66-.3,20.816,24.725,19.866,56.415l-1.3,43.368L1.255,131.916c-3.547,6.587.64,13.873,9.814,14.4l33.94.328a29.123,29.123,0,0,0,29.05,27.705,30.513,30.513,0,0,0,30.628-27.132l30.821.3c8.849.085,17.482-6.281,13.144-15.441l-14.731-31.105,1.3-43.359C136.169,25.88,110.78.309,79.211,0M74.434,159.065A14.041,14.041,0,0,1,60.5,146.792l28.67.275a14.887,14.887,0,0,1-14.736,12M119.8,57.378l-1.329,44.4,14.411,30.415L17.76,131.084l16.191-30.041,1.334-44.4c.7-23.24,20.429-41.574,43.552-41.349,23.081.224,41.658,18.867,40.963,42.079" transform="translate(0 0)" fill="#fa0" fill-rule="evenodd"/>
        <path id="Trazado_2800-2" data-name="Trazado 2800" d="M273.1,253.978l9.519.176.451-15.049-9.518-.188Z" transform="translate(-174 -152.221)" fill="#fa0" fill-rule="evenodd"/>
        <path id="Trazado_2801-2" data-name="Trazado 2801" d="M237.916,82a21.327,21.327,0,0,1,14.115,20.736l-.758,25.339,9.518.188.757-25.241A30.963,30.963,0,0,0,238.111,72.1Z" transform="translate(-151.583 -45.937)" fill="#fa0" fill-rule="evenodd"/>
      </g>
    </g>
  </g>
</svg>
