<svg xmlns="http://www.w3.org/2000/svg" width="752.657" height="288.437" viewBox="0 0 752.657 288.437">
  <path id="Trazado_959" data-name="Trazado 959" d="M783.239,32.552c-7.749,37.863-28.052,72.622-55.755,99.121-27.653,26.448-63.028,45.382-100.8,51.379-38.325,6.086-88.4-.069-108.2-38.944-8.45-16.592-10.543-36.793-2.96-54.1,8.033-18.33,26.916-28.561,46.348-28.421,20.908.152,39.264,11.263,51.126,28.323,11.834,17.021,16.428,38.946,14.814,59.49-3.164,40.24-28.088,74.068-59.062,97.864-35.382,27.184-79.736,40.646-123.706,43.748a260.924,260.924,0,0,1-73.16-5.3c-22.932-4.936-45.119-12.75-67.222-20.535-22.255-7.841-44.583-15.745-67.677-20.709A198.186,198.186,0,0,0,63.876,288.2,201.1,201.1,0,0,0,42.4,309.856c-5.869,6.884-15.7-3.124-9.866-9.967,25.892-30.361,60.565-52.606,98.368-64.517a211.905,211.905,0,0,1,58.766-9.748c21.293-.474,42.5,2.8,63.09,8.118,43.458,11.231,84.417,31.069,128.618,39.56A246.042,246.042,0,0,0,516.1,261.032c33.467-13.067,65.107-36.664,83.51-68.194,17.655-30.251,22.248-73.877-3.221-101.444C584.643,78.681,566.746,72.461,549.9,77.269c-15.805,4.507-24.956,18.815-25.138,35.014a53.54,53.54,0,0,0,20.231,42.332c15,11.857,34.645,16.2,53.33,16.53,36,.635,71.372-12.539,100.407-33.6,28.443-20.627,51.527-50,63.8-83.22A174.539,174.539,0,0,0,769.785,28.8c1.818-8.877,15.27-5.121,13.455,3.748" transform="translate(-30.751 -23.734)" fill="#fff"/>
</svg>
