<svg xmlns="http://www.w3.org/2000/svg" width="79.6" height="64.163" viewBox="0 0 79.6 64.163">
  <g id="Grupo_3048" data-name="Grupo 3048" transform="translate(-1672.972 -98.409)">
    <path id="Trazado_1089" data-name="Trazado 1089" d="M146.444,76.65a3.4,3.4,0,0,1-1.619-.412c-1.325-.727-32.54-18.014-37.494-37.176a18.751,18.751,0,0,1,2.3-15.265c4.425-7,9.875-10.792,16.19-11.263,8.77-.646,16.6,5.453,20.622,9.319,4.026-3.867,11.855-9.968,20.625-9.319,6.312.472,11.759,4.26,16.187,11.263a18.75,18.75,0,0,1,2.3,15.265C180.6,58.225,149.385,75.512,148.06,76.239a3.393,3.393,0,0,1-1.616.412M127.1,19.22c-.261,0-.523.009-.784.03-4.074.3-7.775,3.043-11,8.148a12.094,12.094,0,0,0-1.475,9.977c3.647,14.123,26.3,28.319,32.6,32.029,6.291-3.71,28.95-17.909,32.594-32.029a12.1,12.1,0,0,0-1.472-9.977c-3.227-5.1-6.928-7.844-11-8.148-6.838-.514-14.265,5.84-17.578,9.671a3.364,3.364,0,0,1-5.092,0c-3.185-3.686-10.176-9.7-16.791-9.7" transform="translate(1566.329 85.922)" fill="#fff"/>
    <path id="Trazado_1091" data-name="Trazado 1091" d="M143.969,45.849a1.214,1.214,0,0,1-1.148-.814L139.793,36.4h-9.626A1.219,1.219,0,0,1,129,35.514l-3.3-11.651-3.47,11.666a1.214,1.214,0,0,1-1.163.868H110.895a1.215,1.215,0,1,1,0-2.431h9.259l4.4-14.805a1.214,1.214,0,0,1,1.166-.868h.006a1.217,1.217,0,0,1,1.163.88l4.2,14.793h9.569a1.218,1.218,0,0,1,1.148.814l2.115,6.036,2.3-7.168a1.217,1.217,0,0,1,1.157-.844h23.04a1.215,1.215,0,1,1,0,2.431H148.263L145.126,45a1.212,1.212,0,0,1-1.142.844Z" transform="translate(1572.411 97.559)" fill="#fff"/>
  </g>
</svg>
