<?xml version="1.0" encoding="utf-8"?>
<!-- Generator: Adobe Illustrator 26.3.1, SVG Export Plug-In . SVG Version: 6.00 Build 0)  -->
<svg version="1.1" id="Capa_1" xmlns="http://www.w3.org/2000/svg" xmlns:xlink="http://www.w3.org/1999/xlink" x="0px" y="0px"
	 viewBox="0 0 79.6 64.2" style="enable-background:new 0 0 79.6 64.2;" xml:space="preserve">
<style type="text/css">
	.st0{fill:#4C9109;}
</style>
<g id="Grupo_3048" transform="translate(-1672.972 -98.409)">
	<path id="Trazado_1089" class="st0" d="M1712.8,162.6c-0.6,0-1.1-0.1-1.6-0.4c-1.3-0.7-32.5-18-37.5-37.2
		c-1.5-5.2-0.6-10.7,2.3-15.3c4.4-7,9.9-10.8,16.2-11.3c8.8-0.6,16.6,5.5,20.6,9.3c4-3.9,11.9-10,20.6-9.3
		c6.3,0.5,11.8,4.3,16.2,11.3c2.9,4.5,3.8,10.1,2.3,15.3c-5,19.2-36.2,36.5-37.5,37.2C1713.9,162.4,1713.3,162.6,1712.8,162.6
		 M1693.4,105.1c-0.3,0-0.5,0-0.8,0c-4.1,0.3-7.8,3-11,8.1c-1.9,3-2.5,6.6-1.5,10c3.6,14.1,26.3,28.3,32.6,32
		c6.3-3.7,28.9-17.9,32.6-32c1-3.4,0.4-7-1.5-10c-3.2-5.1-6.9-7.8-11-8.1c-6.8-0.5-14.3,5.8-17.6,9.7c-1.2,1.4-3.3,1.6-4.7,0.3
		c-0.1-0.1-0.2-0.2-0.3-0.3C1707,111.2,1700,105.1,1693.4,105.1"/>
	<path id="Trazado_1091" class="st0" d="M1716.4,143.4c-0.5,0-1-0.3-1.1-0.8l-3-8.6h-9.6c-0.5,0-1-0.4-1.2-0.9l-3.3-11.7l-3.5,11.7
		c-0.2,0.5-0.6,0.9-1.2,0.9h-10.2c-0.7,0-1.2-0.5-1.2-1.2c0-0.7,0.5-1.2,1.2-1.2h9.3l4.4-14.8c0.2-0.5,0.6-0.9,1.2-0.9h0
		c0.5,0,1,0.4,1.2,0.9l4.2,14.8h9.6c0.5,0,1,0.3,1.1,0.8l2.1,6l2.3-7.2c0.2-0.5,0.6-0.8,1.2-0.8h23c0.7,0,1.2,0.5,1.2,1.2
		c0,0.7-0.5,1.2-1.2,1.2l0,0h-22.2l-3.1,9.8C1717.4,143.1,1716.9,143.4,1716.4,143.4L1716.4,143.4z"/>
</g>
</svg>
