<?xml version="1.0" encoding="utf-8"?>
<!-- Generator: Adobe Illustrator 27.4.1, SVG Export Plug-In . SVG Version: 6.00 Build 0)  -->
<svg version="1.1" id="Layer_1" xmlns="http://www.w3.org/2000/svg" xmlns:xlink="http://www.w3.org/1999/xlink" x="0px" y="0px"
	 viewBox="0 0 125.3 125.2" style="enable-background:new 0 0 125.3 125.2;" xml:space="preserve">
<style type="text/css">
	.st0{fill:#033782;}
	.st1{fill:#FFFFFF;}
	.st2{clip-path:url(#SVGID_00000007418979523382376520000002176572450961607101_);}
	.st3{fill:#D52B1E;}
	.st4{clip-path:url(#SVGID_00000088833982095987241040000003636810211811187078_);}
</style>
<g id="Group_10331" transform="translate(-754 -5150.732)">
	<path id="Path_13836" class="st3" d="M816.6,5150.7c34.4,0,62.3,27.9,62.3,62.3s-27.9,62.3-62.3,62.3s-62.3-27.9-62.3-62.3
		S782.3,5150.7,816.6,5150.7C816.6,5150.7,816.6,5150.7,816.6,5150.7z"/>
	<g id="Group_10330" transform="translate(773.793 5170.785)">
		<g>
			<defs>
				<rect id="SVGID_00000042706475927322336500000010913745279118631046_" x="0.4" y="0" width="80.4" height="80.4"/>
			</defs>
			<clipPath id="SVGID_00000071537974816741709760000011458796768929330322_">
				<use xlink:href="#SVGID_00000042706475927322336500000010913745279118631046_"  style="overflow:visible;"/>
			</clipPath>
			<g id="Group_10329" style="clip-path:url(#SVGID_00000071537974816741709760000011458796768929330322_);">
				<path id="Path_13841" class="st1" d="M28.8,19c0-0.8-0.6-1.5-1.5-1.6c0,0,0,0,0,0c-0.9,0-1.6,0.6-1.6,1.5c0,0.9,0.7,1.6,1.6,1.6
					C28.1,20.5,28.8,19.8,28.8,19"/>
				<path id="Path_13842" class="st1" d="M80.8,53.5c-0.4,0.8-1.3,1.2-2.1,1.1c-1.7-0.1-3.5,0-5.2,0c-0.5,0-0.7,0.2-0.9,0.7
					c-3.7,13.1-12.1,21.4-25.4,24.4C30,83.5,12.8,72.5,8.6,55.4c-0.1-0.2-0.1-0.5-0.2-0.8c-2,0-4,0-6,0c-1.5,0-2-0.5-2-2
					c0-3.5,0-7,0-10.5c0-1.4,0.6-1.9,2-1.9c1.8,0,3.6,0,5.3,0c0.5,0,0.8-0.1,0.9-0.7c1.7-6.9,5.6-13.1,11.2-17.7
					c0.2-0.1,0.3-0.3,0.5-0.4c0.6-0.6,1.6-0.5,2.2,0.1c0,0,0,0,0,0c0.6,0.7,0.5,1.7-0.2,2.2c0,0-0.1,0-0.1,0.1
					c-1.1,1-2.2,1.9-3.2,2.9c-3.5,3.6-5.9,8-7.2,12.8c0,0.1-0.1,0.3-0.1,0.5h4.5c0.4-1,0.8-2.1,1.2-3.1c4.3-9.6,14-15.5,24.5-15
					c4.8,0.2,9.4,1.8,13.3,4.6c1.2,0.8,1.3,1.8,0.3,2.9C44.5,40.4,33.6,51.3,22.6,62.3c-1.1,1.1-2,1-2.9-0.3c-1.4-2-2.5-4.3-3.3-6.6
					c-0.1-0.2-0.2-0.4-0.2-0.7h-4.4c1.8,9.3,11,21,25.8,22.4c14.7,1.5,28.3-8.1,31.9-22.4c-1.4,0-2.9,0-4.3,0
					c-0.2,0-0.3,0.4-0.4,0.6C60.4,68.7,46,76,32.7,71.6c-2.3-0.8-4.6-1.9-6.6-3.3c-1.3-0.9-1.4-1.8-0.3-3
					c10.9-10.9,21.8-21.8,32.6-32.6c1.2-1.2,2.1-1.1,3,0.2c1.5,2.2,2.7,4.7,3.5,7.3h4.6c-0.6-1.6-1-3.1-1.6-4.5
					c-4.9-10.6-13.1-16.6-24.8-18c-2.8-0.3-5.7-0.1-8.4,0.5c-0.2,0-0.4,0.1-0.6,0.1c-0.8,0.1-1.6-0.5-1.7-1.3
					c-0.2-0.8,0.3-1.6,1.1-1.8c0,0,0,0,0,0c1.8-0.3,3.6-0.6,5.4-0.7c15.7-0.8,29.8,9.7,33.6,25c0.1,0.2,0.1,0.4,0.2,0.7h4.1
					c0.6,0,1.2,0,1.7,0c0.9-0.1,1.7,0.3,2.1,1.1L80.8,53.5z M29,66.5c12.6,7.6,28.5,1,32.5-11.8c-0.1,0-0.3,0-0.4,0
					c-6.6,0-13.2,0-19.8,0c-0.4,0-0.7,0.2-1,0.5c-2.8,2.8-5.6,5.5-8.3,8.3C31.1,64.5,30.1,65.4,29,66.5 M19.6,40.2
					c0.2,0,0.3,0,0.4,0c6.6,0,13.2,0,19.8,0c0.4,0,0.7-0.2,1-0.5c3.6-3.6,7.3-7.2,10.9-10.9c0.2-0.2,0.3-0.3,0.5-0.5
					C39.7,20.8,23.8,27.2,19.6,40.2 M69.3,43.4c-0.2,0-0.4,0-0.6,0c-5.3,0-10.7,0-16,0c-0.4,0-0.7,0.2-1,0.5
					c-2.4,2.3-4.7,4.7-7.1,7.1c-0.2,0.2-0.3,0.3-0.5,0.5h25.2V43.4z M37.1,43.4H18.9v8.1c3.3,0,6.6,0,9.8,0c0.3,0,0.5-0.2,0.7-0.4
					c1.5-1.4,2.9-2.9,4.3-4.3C34.8,45.7,35.9,44.6,37.1,43.4 M15.6,43.4h-12v8.1h12L15.6,43.4z M77.6,43.4h-5v8.1h5L77.6,43.4z
					 M21.3,58.7l4.1-4h-6L21.3,58.7 M55.6,40.2h6.2l-2-4.2L55.6,40.2"/>
				<path id="Path_13843" class="st1" d="M80.8,23.4c0,0.1-0.1,0.1-0.1,0.2c-0.3,0.7-1.1,1.1-1.8,0.9c-0.7-0.2-1.2-0.8-1.2-1.6
					c0-2-1.7-3.6-3.7-3.6c-0.1,0-0.1,0-0.2,0c-3.1,0-6.2,0-9.3,0c-3.3,0-6-2.7-6-6.1c0-0.2,0-0.3,0-0.5c0.1-0.9,0.4-1.8,0.6-2.6
					c-0.6-0.3-1.1-0.6-1.6-1C56,8,55.3,6,55.8,4.2c0.4-1.9,1.8-3.5,3.7-4c0.2-0.1,0.4-0.1,0.6-0.2h10.2c0.1,0.1,0.2,0.1,0.3,0.1
					c2.4,0.5,4.1,2.7,4,5.2c0,0.6,0,1.2,0,1.8c0.3,0,0.4,0,0.6,0.1c2.3,0.1,4.3,1.6,5.2,3.7c0.2,0.5,0.4,1,0.5,1.5L80.8,23.4z
					 M77.6,17.3c0-1.5,0.1-2.9,0-4.2c-0.1-1.5-1.3-2.7-2.9-2.7c-0.5,0-1,0-1.6,0c-0.9,0.1-1.7-0.6-1.8-1.5c0-0.1,0-0.2,0-0.3
					c0-1.1,0-2.1,0-3.2c0.1-1.1-0.7-2.1-1.8-2.2c-0.1,0-0.2,0-0.4,0c-2.7,0-5.4,0-8.1,0C60,3,58.9,3.8,58.8,4.9s0.7,2.1,1.8,2.3
					c0.2,0,0.3,0,0.5,0c1.2,0,2.3,0,3.5,0c0.8,0,1.5,0.6,1.5,1.5c0,0.8-0.5,1.5-1.3,1.6c-0.2,0-0.4,0-0.5,0.1
					c-1.1,0.1-2.1,0.8-2.5,1.9c-0.6,1.5,0.2,3.2,1.7,3.7c0.3,0.1,0.7,0.2,1.1,0.2c2.7,0,5.4,0,8.2,0C74.4,16.1,76.2,16.4,77.6,17.3"
					/>
				<path id="Path_13844" class="st1" d="M28.8,19c0,0.9-0.7,1.5-1.5,1.6c-0.9,0-1.6-0.7-1.6-1.6c0-0.9,0.8-1.5,1.6-1.5
					C28.2,17.4,28.8,18.1,28.8,19C28.8,19,28.8,19,28.8,19"/>
			</g>
		</g>
	</g>
</g>
</svg>
