<?xml version="1.0" encoding="utf-8"?>
<!-- Generator: Adobe Illustrator 27.4.1, SVG Export Plug-In . SVG Version: 6.00 Build 0)  -->
<svg version="1.1" id="Layer_1" xmlns="http://www.w3.org/2000/svg" xmlns:xlink="http://www.w3.org/1999/xlink" x="0px" y="0px"
	 viewBox="0 0 125.3 125.2" style="enable-background:new 0 0 125.3 125.2;" xml:space="preserve">
<style type="text/css">
	.st0{fill:#033782;}
	.st1{fill:#FFFFFF;}
	.st2{clip-path:url(#SVGID_00000161590414475708010930000012683754706775904165_);}
	.st3{fill:#D52B1E;}
	.st4{clip-path:url(#SVGID_00000173843650559452436220000004080629440105430927_);}
	.st5{clip-path:url(#SVGID_00000150082892329775489290000001041479170724908436_);}
	.st6{clip-path:url(#SVGID_00000044166463625327909430000011049022336795097749_);}
	.st7{clip-path:url(#SVGID_00000159454981196428774690000004649056339077723817_);}
	.st8{clip-path:url(#SVGID_00000136404355894784691540000014543944713148509315_);}
	.st9{clip-path:url(#SVGID_00000094607352412886419120000015331959912787909790_);}
</style>
<g id="Group_10358" transform="translate(-754 -5904.598)">
	<circle id="Ellipse_102_00000025424703153848132700000013375348572613903521_" class="st3" cx="816.6" cy="5967.2" r="62.3"/>
	<g id="Group_10357" transform="translate(778.039 5929.402)">
		<g>
			<defs>
				<rect id="SVGID_00000085246506949867071070000013478317840316175806_" x="0.4" y="0.4" width="76.5" height="76.5"/>
			</defs>
			<clipPath id="SVGID_00000122700823250082010000000014255343828978718100_">
				<use xlink:href="#SVGID_00000085246506949867071070000013478317840316175806_"  style="overflow:visible;"/>
			</clipPath>
			<g id="Group_10356" style="clip-path:url(#SVGID_00000122700823250082010000000014255343828978718100_);">
				<path id="Path_13868" class="st1" d="M76.8,76.8H0.4V0.4h76.5V76.8z M34.9,2.9h-32v32c0.2,0,0.3,0,0.5,0c8.1,0,16.1,0,24.2,0
					c0.4,0,0.7-0.2,0.8-0.6c1.1-2.7,3.2-4.8,5.9-5.9c0.4-0.1,0.7-0.6,0.6-1c0-7.9,0-15.8,0-23.7L34.9,2.9 M2.9,74.3h32
					c0-0.1,0-0.2,0-0.3c0-8.1,0-16.3,0-24.4c0-0.4-0.2-0.6-0.6-0.7c-2.7-1.1-4.8-3.2-5.9-5.9c-0.1-0.4-0.6-0.7-1-0.6
					c-7.9,0-15.8,0-23.7,0H2.9V74.3z M42.4,2.9c0,0.2,0,0.4,0,0.6c0,8,0,16,0,24c0,0.4,0.2,0.8,0.6,0.9c2.6,1.1,4.7,3.2,5.8,5.8
					c0.1,0.5,0.6,0.8,1.1,0.7c7.9,0,15.8,0,23.7,0h0.8v-32L42.4,2.9z M42.3,74.3h32V42.3c-0.2,0-0.4,0-0.6,0c-8,0-16.1,0-24.1,0
					c-0.4,0-0.7,0.2-0.8,0.5c-1.1,2.7-3.2,4.8-5.8,5.9c-0.5,0.1-0.8,0.6-0.7,1.1c0,7.9,0,15.7,0,23.6L42.3,74.3 M30,38.6
					c0,4.8,3.9,8.6,8.6,8.7c4.8,0,8.6-3.9,8.7-8.6c0-4.8-3.8-8.6-8.6-8.7C33.9,30,30,33.8,30,38.6 M37.4,27.5h2.3V2.9h-2.3V27.5z
					 M27.5,37.4H2.9v2.3h24.6L27.5,37.4z M74.3,37.4H49.7v2.3h24.6V37.4z M39.8,49.7h-2.3v24.6h2.3L39.8,49.7z"/>
				<path id="Path_13869" class="st1" d="M18.9,5.1c1.3,0.1,2.6,0.2,3.8,0.5c3.6,1.1,5.6,5,4.4,8.6c-0.2,0.6-0.4,1.1-0.7,1.6
					c-1,1.7-2.1,3.3-3.3,4.9c-0.4,0.6-0.6,1.3-0.6,2c-0.1,1.1,0.3,2.3,1.2,3c1.5,1.3,1.7,3.6,0.5,5.1c-1.1,1.5-3.2,2-4.9,1.1
					c-0.3-0.2-0.7-0.2-1,0c-1.7,0.9-3.7,0.5-4.9-1.1c-1.1-1.5-1-3.6,0.2-4.9c0,0,0,0,0.1-0.1c1.5-0.9,1.5-2.4,1.4-3.9
					c0-0.3-0.1-0.5-0.3-0.7c-1.1-1.7-2.2-3.4-3.3-5C10,14.1,9.8,11.3,11.1,9c1.2-2.4,3.6-3.8,6.3-3.7c0.5,0,1,0,1.6,0L18.9,5.1
					 M18.9,7.8C18.9,7.8,18.9,7.8,18.9,7.8c-0.6,0-1.2,0-1.9,0c-2.4,0-4.4,2.1-4.3,4.5c0,0.9,0.3,1.7,0.8,2.4c0.6,1,1.3,1.9,1.9,2.9
					c0.6,0.8,1,1.9,1.7,2.3s1.9,0.1,2.9,0.1c0.1,0,0.1,0,0.2,0c0.2-0.1,0.4-0.1,0.5-0.3c1.2-1.8,2.5-3.6,3.6-5.5
					c1.2-2.1,0.4-4.8-1.7-6c-0.6-0.3-1.2-0.5-1.9-0.6C20.3,7.7,19.6,7.8,18.9,7.8 M17.5,22.6c0.7,2.2-0.2,3.6-1.8,4.9
					c-0.6,0.4-0.7,1.2-0.3,1.8c0.1,0.1,0.1,0.1,0.2,0.2c0.6,0.6,1.5,0.5,2,0c0,0,0.1-0.1,0.1-0.1c0.4-0.4,0.8-0.8,1.1-1.1
					c0.1,0,0.2,0,0.2,0c0.4,0.4,0.8,0.8,1.2,1.1c0.5,0.6,1.4,0.6,2,0.1c0,0,0.1,0,0.1-0.1c0.5-0.5,0.5-1.4,0-1.9c0,0,0,0-0.1-0.1
					c-0.5-0.5-1-1-1.5-1.5c-0.4-0.3-0.6-0.8-0.5-1.2c0-0.7,0-1.5,0-2.2L17.5,22.6z"/>
				<path id="Path_13870" class="st1" d="M10.4,58.3c-0.1-2.1-0.1-4.2,0-6.3c0.6-4.2,4.3-7.3,8.5-7.2c4.3,0,7.9,3.2,8.5,7.4
					c0.1,0.6,0.1,1.2,0.1,1.9c0,3.5,0.1,6.9-0.1,10.4c-0.6,4.7-4.8,8-9.5,7.5c-3.8-0.5-6.9-3.4-7.5-7.3
					C10.3,62.5,10.3,60.4,10.4,58.3L10.4,58.3 M12.7,58.3L12.7,58.3c0,1.8-0.1,3.6,0,5.4c0.2,3.4,3.1,6,6.5,5.7
					c3.2-0.2,5.7-2.8,5.8-6c0-3.4,0-6.8,0-10.2c0-0.8-0.2-1.7-0.6-2.4c-1.4-3.1-5.1-4.4-8.1-3c-2.1,1-3.4,3-3.5,5.3
					C12.7,54.8,12.7,56.5,12.7,58.3"/>
				<path id="Path_13871" class="st1" d="M64.5,32.4H52.2c0-1-0.1-2.1,0-3.1c0.1-1.2,0-2.1-1.5-2.5c-1.2-0.3-4.7-4-5.3-5.2
					c-1.2-2.4-0.7-5.4,1.3-7.3c0.3-0.3,0.5-0.7,0.5-1.1c0.3-2.9,2.6-5.2,5.5-5.5c0.4-0.1,0.8-0.2,1.1-0.5c2.3-2.5,6.2-2.6,8.7-0.3
					c0.1,0.1,0.2,0.2,0.4,0.4c0.3,0.3,0.6,0.4,1,0.5c2.9,0.3,5.2,2.6,5.5,5.6c0.1,0.4,0.2,0.7,0.5,1c2.5,2.3,2.7,6.2,0.4,8.7
					c-0.3,0.4-0.7,0.7-1.1,1c-0.3,0.2-0.6,0.5-0.8,0.8c-0.8,1.2-1.9,2-3.2,2.4c-0.6,0.2-0.7,0.5-0.7,1
					C64.5,29.5,64.5,30.9,64.5,32.4 M62,25c0.3,0,0.6,0,0.8,0c1.6,0.2,3.2-0.7,3.9-2.3c0.2-0.2,0.4-0.4,0.6-0.6
					c1.3-0.6,2.1-1.8,2.1-3.2c0.1-1.4-0.7-2.7-1.9-3.3c-0.5-0.2-0.8-0.8-0.6-1.3c0.3-2-1.1-3.8-3-4.1c-0.3-0.1-0.7-0.1-1,0
					c-0.5,0.2-1.1-0.1-1.3-0.6c-0.9-1.8-3.1-2.5-4.9-1.5C56,8.5,55.5,9,55.1,9.7c-0.2,0.5-0.8,0.8-1.3,0.6c-2-0.3-3.8,1.1-4.1,3
					c0,0.3-0.1,0.7,0,1c0.2,0.6-0.1,1.2-0.7,1.4c-1.8,1-2.4,3.2-1.4,5c0.4,0.6,0.9,1.2,1.6,1.5c0.3,0.2,0.6,0.5,0.8,0.8
					c0.6,1.3,2,2.1,3.4,2.1c0.4,0,0.7,0,1.2,0v4.9h2.5v-4.8h2.4v4.8H62L62,25L62,25z"/>
				<path id="Path_13872" class="st1" d="M57.1,44.8h2.5v3.1c0.2,0,0.4-0.1,0.6-0.1c3.8-1.5,8.6-0.1,10.7,5
					c2.4,6.2,0.6,13.2-4.4,17.5c-2.1,1.8-5.1,2.1-7.5,0.8c-0.4-0.2-0.9-0.2-1.4,0c-2.7,1.4-6,0.9-8.1-1.3
					c-4.7-4.5-6.1-11.4-3.5-17.4c1.7-4.1,6.3-6.1,10.5-4.6c0.2,0.1,0.3,0.1,0.6,0.2L57.1,44.8z M59.6,54.1l0.2,0.1l1.3-1.4l2.1,1
					c-0.9,2-2.9,3.3-5.1,3.2c-2-0.1-3.7-1.3-4.4-3.2l1.9-0.9l1.4,1.3l0.2-0.1v-3.6c-0.6-0.2-1.2-0.4-1.8-0.6
					c-2.6-0.9-5.4,0.3-6.7,2.7c-2.6,4.5-1.6,10.9,2.2,14.9c1.9,2,3.8,2.4,6.2,1.1c0.8-0.5,1.8-0.5,2.5,0c1.9,1.2,4.4,1,6.3-1.1
					c3.8-4.1,4.7-10.5,2.1-15c-0.7-1.3-2-2.3-3.4-2.7c-1.7-0.5-3.2,0.1-4.7,0.6c-0.1,0.1-0.2,0.2-0.2,0.4
					C59.6,52,59.6,53.1,59.6,54.1"/>
				<path id="Path_13873" class="st1" d="M38.6,44.7c-3.4,0-5.6-3.1-4.7-6.6c0.7-2.4,2.3-4.4,4.4-5.7c0.2-0.1,0.4-0.1,0.6,0
					c2.6,1.8,4.6,4.1,4.6,7.5c0,2.7-2.1,4.9-4.8,4.9C38.7,44.7,38.6,44.7,38.6,44.7 M38.6,35.2c-1.3,1.1-2.2,2.6-2.4,4.3
					c-0.2,1.3,0.8,2.6,2.2,2.7s2.6-0.8,2.7-2.2c0-0.2,0-0.4,0-0.5C40.8,37.9,40,36.3,38.6,35.2"/>
				<rect id="Rectangle_727" x="15.2" y="52.2" class="st1" width="7.3" height="2.3"/>
				<rect id="Rectangle_728" x="15.2" y="57.2" class="st1" width="7.3" height="2.3"/>
				<path id="Path_13874" class="st1" d="M15.2,64.4V62h7.3v2.4H15.2z"/>
				<path id="Path_13875" class="st1" d="M62.8,21.3l-1.6-1.7c1.1-1.5,1.1-3.1-0.6-4.1c-1.5-0.8-2.7-0.1-3.8,2.2
					c-0.7,0.1-1.8-0.4-2.1,0.7c-0.1,0.5,0,1.1,0.2,1.6h0.3l-1.1,2c-1.7-0.9-2.4-3-1.5-4.7c0.5-0.9,1.2-1.6,2.2-1.9
					c0.4-0.1,0.7-0.4,0.9-0.7c1.6-2.2,4.7-2.6,6.9-1c2.2,1.6,2.6,4.7,1,6.9C63.3,20.8,63.1,21.1,62.8,21.3"/>
			</g>
		</g>
	</g>
</g>
</svg>
