<?xml version="1.0" encoding="utf-8"?>
<!-- Generator: Adobe Illustrator 27.4.1, SVG Export Plug-In . SVG Version: 6.00 Build 0)  -->
<svg version="1.1" id="Layer_1" xmlns="http://www.w3.org/2000/svg" xmlns:xlink="http://www.w3.org/1999/xlink" x="0px" y="0px"
	 viewBox="0 0 125.3 125.2" style="enable-background:new 0 0 125.3 125.2;" xml:space="preserve">
<style type="text/css">
	.st0{fill:#033782;}
	.st1{fill:#FFFFFF;}
	.st2{clip-path:url(#SVGID_00000111188943869494801590000001657868006045386894_);}
	.st3{fill:#D52B1E;}
	.st4{clip-path:url(#SVGID_00000171692119653814008230000008123517608869788856_);}
	.st5{clip-path:url(#SVGID_00000104694345927771587630000018366795493510378638_);}
	.st6{clip-path:url(#SVGID_00000086664629210007011750000008599377350340183998_);}
	.st7{clip-path:url(#SVGID_00000121242808564339041180000008821094235876885684_);}
</style>
<g id="Group_10345" transform="translate(-754 -5570.867)">
	<path id="Path_13836_00000121265231256722035330000003762953589230449822_" class="st3" d="M816.6,5571.2
		c34.4,0,62.3,27.9,62.3,62.3s-27.9,62.3-62.3,62.3s-62.3-27.9-62.3-62.3S782.3,5571.2,816.6,5571.2
		C816.6,5571.2,816.6,5571.2,816.6,5571.2z"/>
	<g id="Group_10344" transform="translate(776.348 5601.637)">
		<g>
			<defs>
				<rect id="SVGID_00000121243588888158805700000018153410170878361484_" x="0.4" y="0.4" width="79.8" height="66.5"/>
			</defs>
			<clipPath id="SVGID_00000168083990817334416050000002840593384938916537_">
				<use xlink:href="#SVGID_00000121243588888158805700000018153410170878361484_"  style="overflow:visible;"/>
			</clipPath>
			<g id="Group_10343" style="clip-path:url(#SVGID_00000168083990817334416050000002840593384938916537_);">
				<path id="Path_13849" class="st1" d="M43.5,46.8c0.7-2.9,1.3-5.7,1.9-8.5c0.1-0.2-0.2-0.6-0.5-0.9c-6.5-6.5-13-13.1-19.6-19.6
					c-1.5-1.3-2.3-3.2-2.3-5.2c-0.1-2.7,1.5-5.2,3.9-6.3c2.4-1.2,5.3-0.9,7.4,0.8c0.4,0.3,0.8,0.6,1.1,1c4.9,4.9,9.9,9.9,14.8,14.8
					c0.2,0.2,0.4,0.4,0.7,0.7c0-1.6,0-3.1,0-4.6c0-1.8,0.4-3.5,1.4-5c1.6-2.7,4.6-4.4,7.7-4.5c0.7,0,1.3,0,2,0
					c2.2-0.2,4.3,0.6,5.8,2.2c0.8-1,1.9-1.7,3.2-2.1c3.9-0.9,8.3,2.1,9,6.3c0.1,0.6,0.2,1.3,0.2,1.9c0,6.3,0,12.7,0,19
					c0,1.5-0.5,2-2,1.9c-3-0.1-5.8-1.4-7.9-3.5l-0.8-0.8c0,0.6,0,1,0,1.4c0.1,6.1-1.2,12.1-3.6,17.7c-1.8,4.2-5,7.8-8.9,10.1
					c-0.2,0.1-0.3,0.2-0.7,0.4h14.5v2.6H19.1v-2.6h16.1c-1.2-0.8-2.2-1.5-3.2-2.3c-1.7-1.4-3.2-3-4.5-4.9
					C20.2,46.3,12.8,35.7,5.5,25c-0.2-0.5-0.7-0.7-1.3-0.7c-0.7,0.1-1.4,0-2.2,0c-1.2,0-1.7-0.5-1.7-1.7c0-4.9,0-9.8,0-14.7
					c0-2,0-3.9,0-5.9c0-1.2,0.5-1.7,1.7-1.6c2.8,0.1,5.3,1.8,6.4,4.4c1.6,3.4,3.1,6.7,4.6,10.1c0.2,0.4,0.4,0.7,0.7,1
					C23.6,26.1,33.3,36.2,43,46.3C43.1,46.5,43.3,46.6,43.5,46.8 M27.6,52.3c3.8,6.4,8.2,11.2,17.1,11.8c5.9,0.4,10.9-1.7,15.1-5.9
					c-0.4-0.2-0.7-0.4-1-0.5c-4.8-2.2-9.5-4.4-14.3-6.6c-0.6-0.3-1.2-0.7-1.7-1.2c-1.9-1.9-3.8-3.9-5.7-6L27.6,52.3 M52.1,39
					c2.4-0.1,4.2-2.1,4.1-4.5c0-1.1-0.5-2.2-1.4-3C47.7,24.2,40.4,17,33.2,9.8c-1.6-1.8-4.3-1.9-6.1-0.3s-1.9,4.3-0.3,6.1
					c0.1,0.1,0.2,0.2,0.3,0.3c1.6,1.6,3.1,3.1,4.7,4.7c5.6,5.6,11.2,11.3,16.9,16.9C49.6,38.4,50.8,39,52.1,39 M7.5,23.2L26,50.2
					l9.2-8.1L12.4,18.3L7.5,23.2 M61.6,56.1c4.2-7,5.6-14.5,5.3-22.5h-8c0.2,3-0.8,5.4-3.4,6.9c-2.6,1.6-5.2,1.3-7.8-0.4l-1.9,8.6
					L61.6,56.1 M77.5,36.2c0-0.1,0.1-0.2,0.1-0.3c0-6.2,0-12.4,0-18.5c-0.1-2.7-2.3-4.9-5.1-5c-1.5-0.1-2.8,1-2.9,2.4
					c0,0.1,0,0.2,0,0.3c0,4,0,8,0,12.1c0,1.6,0.5,3.2,1.3,4.6C72.3,34.1,74.7,35.8,77.5,36.2 M66.9,27c-0.7,0-1.4,0-2.1,0
					c-0.7,0.1-1.4-0.2-1.9-0.8c-1.5-1.6-3.1-3.1-4.6-4.7c-0.4-0.5-0.6-1-0.7-1.6c-0.1-0.7-0.1-1.5,0-2.2h-3.8
					c-0.1,0.2-0.1,0.4-0.1,0.6c0,2.2-0.1,4.3,0,6.5c0.1,1.7,1.3,3,3,3.4c0.6,0.1,1.2,0.2,1.8,0.1c1.4,0,1.8,0.4,1.8,1.8
					c0,0.3,0,0.6,0,0.9h6.6V27z M3.1,21.8c0.8-0.1,1.8,0,2.3-0.4c1.8-1.5,3.4-3.3,5-5c0.2-0.2,0.2-0.4,0.2-0.7
					C9,12.3,7.5,8.9,5.9,5.5c-0.6-1.1-1.6-2-2.9-2.3L3.1,21.8z M66.9,24.2c0-2.8,0.1-5.6,0-8.4c-0.1-1.8-1.5-3.3-3.3-3.4
					c-1.6-0.1-3.3-0.1-4.9,0.1c-1.5,0.3-2.9,1.1-3.7,2.4c1.3,0,2.5,0,3.7,0c0.7-0.1,1.4,0.4,1.5,1.1c0,0.1,0,0.2,0,0.4
					c0,0.9,0,1.8,0,2.7c0,0.4,0.2,0.7,0.4,1c0.9,1,2,1.9,2.9,3C64.3,24.2,65.7,24.6,66.9,24.2"/>
				<rect id="Rectangle_720" x="13.7" y="64.3" class="st1" width="2.6" height="2.5"/>
				<rect id="Rectangle_721" x="73.6" y="64.3" class="st1" width="2.5" height="2.6"/>
			</g>
		</g>
	</g>
</g>
</svg>
