<?xml version="1.0" encoding="utf-8"?>
<!-- Generator: Adobe Illustrator 26.3.1, SVG Export Plug-In . SVG Version: 6.00 Build 0)  -->
<svg version="1.1" id="Capa_1" xmlns="http://www.w3.org/2000/svg" xmlns:xlink="http://www.w3.org/1999/xlink" x="0px" y="0px"
	 viewBox="0 0 23 383.8" style="enable-background:new 0 0 23 383.8;" xml:space="preserve">
<style type="text/css">
	.st0{fill:#442C2C;}
	.st1{fill:#FFFFFF;}
</style>
<rect x="-197.6" y="-33" class="st0" width="273.8" height="436.1"/>
<path class="st1" d="M14.2,176.8c0-0.4,0.2-0.6,0.6-0.6h1.6c0.4,0,0.6,0.2,0.6,0.6v6.5c0,0.4-0.2,0.6-0.6,0.6H5.1
	c-0.4,0-0.6-0.2-0.6-0.6v-1.8c0-0.4,0.2-0.6,0.6-0.6h9L14.2,176.8L14.2,176.8L14.2,176.8z"/>
<path class="st1" d="M14.2,140.8c0-0.4,0.2-0.6,0.6-0.6h1.6c0.4,0,0.6,0.2,0.6,0.6v6.6c0,0.4-0.2,0.6-0.6,0.6H5.1
	c-0.4,0-0.6-0.2-0.6-0.6v-6.5c0-0.4,0.2-0.6,0.6-0.6h1.7c0.4,0,0.6,0.2,0.6,0.6v4.1h1.9v-3.5c0-0.4,0.2-0.6,0.6-0.6h1.4
	c0.4,0,0.6,0.2,0.6,0.6v3.5h2v-4.2L14.2,140.8L14.2,140.8z"/>
<path class="st1" d="M13.5,126.4c2,0,4,1.8,4,4.9c0,2-0.7,4.1-2.5,4.8c-0.4,0.1-0.7,0-0.8-0.4l-0.5-1.7c-0.1-0.2,0-0.6,0.2-0.7
	c0.5-0.4,1.1-1,1.1-2s-0.4-1.8-1.2-1.8c-1,0-1.1,1.2-1.4,2.6c-0.6,2.5-1.8,3.7-3.9,3.7c-2.4,0-3.9-2-3.9-4.7c0-1.9,0.8-3.6,2.4-4.2
	c0.4-0.1,0.8,0,0.8,0.5l0.4,1.7c0,0.2,0,0.6-0.2,0.7c-0.5,0.2-0.8,0.7-0.8,1.6c0,1,0.5,1.6,1.2,1.6c1,0,1.2-1.6,1.4-2.5
	C10.5,127.2,11.4,126.4,13.5,126.4z"/>
<path class="st1" d="M13.6,114.1c-0.2-0.2-0.2-0.6-0.1-0.8l1-1.6c0.2-0.4,0.7-0.4,1-0.1c1.2,1.1,1.8,2.8,1.8,4.6
	c0,3.7-2.8,6.4-6.5,6.4s-6.5-2.6-6.5-6.4c0-1.8,0.7-3.5,1.8-4.6c0.2-0.2,0.7-0.2,1,0.1l1,1.6c0.1,0.2,0.1,0.6-0.1,0.8
	c-0.5,0.5-0.8,1.2-0.8,2.2c0,2.2,1.8,3.4,3.6,3.4s3.6-1.1,3.6-3.4C14.4,115.3,14.1,114.6,13.6,114.1z"/>
<path class="st1" d="M4.6,97.2c0-0.4,0.2-0.6,0.6-0.6h7.1c3.5,0,5.2,1.9,5.2,5.3c0,3.4-1.7,5.3-5.2,5.3H5.2c-0.4,0-0.6-0.2-0.6-0.6
	v-1.8c0-0.4,0.2-0.6,0.6-0.6h6.7c1.7,0,2.5-0.8,2.5-2.2s-0.8-2.2-2.5-2.2H5.2c-0.4,0-0.6-0.2-0.6-0.6V97.2z"/>
<path class="st1" d="M13.6,83.5c-0.2-0.2-0.2-0.6-0.1-0.8l1-1.6c0.2-0.4,0.7-0.4,1-0.1c1.2,1.1,1.8,2.8,1.8,4.6
	c0,3.7-2.8,6.4-6.5,6.4s-6.5-2.6-6.5-6.4c0-1.8,0.7-3.5,1.8-4.6c0.2-0.2,0.7-0.2,1,0.1l1,1.6c0.1,0.2,0.1,0.6-0.1,0.8
	c-0.5,0.5-0.8,1.2-0.8,2.2c0,2.2,1.8,3.4,3.6,3.4s3.6-1.1,3.6-3.4C14.4,84.9,14.1,84.1,13.6,83.5z"/>
<path class="st1" d="M4.6,68.2v-1.8c0-0.4,0.2-0.6,0.6-0.6h11.3c0.4,0,0.6,0.2,0.6,0.6v1.8c0,0.4-0.2,0.6-0.6,0.6h-4.2v4.6h4.2
	c0.4,0,0.6,0.2,0.6,0.6v1.8c0,0.4-0.2,0.6-0.6,0.6H5.2c-0.4,0-0.6-0.2-0.6-0.6V74c0-0.4,0.2-0.6,0.6-0.6h4.2v-4.6H5.2
	C4.8,69,4.6,68.6,4.6,68.2z"/>
<path class="st1" d="M16.6,52.6l-1.8,0.6V58l1.8,0.6c0.4,0.1,0.6,0.4,0.6,0.7v1.9c0,0.4-0.4,0.6-0.6,0.5L5.2,57.6
	c-0.4-0.1-0.5-0.4-0.5-0.7v-2.5c0-0.4,0.2-0.6,0.5-0.7l11.4-4.1c0.4-0.1,0.6,0.1,0.6,0.5V52C17.2,52.1,17,52.5,16.6,52.6z
	 M12.5,53.9l-5.3,1.7l5.3,1.7V53.9z"/>
<path class="st1" d="M4.6,34.1v-2c0-0.4,0.2-0.6,0.6-0.6h11.3c0.4,0,0.6,0.2,0.6,0.6v1.8c0,0.4-0.2,0.6-0.6,0.6H9.6l5.1,3.1
	c0.2,0.1,0.4,0.4,0.4,0.6v0.4c0,0.2-0.1,0.5-0.4,0.6l-5.1,3.1h6.9c0.4,0,0.6,0.2,0.6,0.6v1.8c0,0.4-0.2,0.6-0.6,0.6H5.2
	c-0.4,0-0.6-0.2-0.6-0.6v-2c0-0.4,0.2-0.6,0.5-0.8l5.7-3.4l-5.7-3.4C4.7,34.7,4.6,34.4,4.6,34.1z"/>
<path class="st1" d="M10.8,14.1c3.7,0,6.5,2.6,6.5,6.4s-2.8,6.4-6.5,6.4s-6.5-2.6-6.5-6.4S7.1,14.1,10.8,14.1z M10.8,17.2
	c-1.8,0-3.6,1.1-3.6,3.4S9,24,10.8,24s3.6-1.1,3.6-3.4S12.6,17.2,10.8,17.2z"/>
<path class="st1" d="M13.5,0.7c2,0,4,1.8,4,4.9c0,2-0.7,4.1-2.5,4.8c-0.4,0.1-0.7,0-0.8-0.4l-0.5-1.7c-0.1-0.2,0-0.6,0.2-0.7
	c0.5-0.4,1.1-1,1.1-2s-0.4-1.8-1.2-1.8c-1,0-1.1,1.2-1.4,2.6c-0.6,2.5-1.8,3.7-3.9,3.7c-2.4,0-3.9-2-3.9-4.7c0-1.9,0.8-3.6,2.4-4.2
	c0.4-0.1,0.8,0,0.8,0.5l0.4,1.7c0,0.2,0,0.6-0.2,0.7C7.5,4.3,7.2,4.8,7.2,5.7c0,1,0.5,1.6,1.2,1.6c1,0,1.2-1.6,1.4-2.5
	C10.5,1.6,11.4,0.7,13.5,0.7z"/>
<path id="Línea_5_00000150808181105425891680000015574190254319746481_" class="st1" d="M11.4,383.8h-1V193.9h1V383.8z"/>
<path class="st1" d="M14.2,163.2c0-0.4,0.2-0.6,0.6-0.6h1.6c0.4,0,0.6,0.2,0.6,0.6v6.6c0,0.4-0.2,0.6-0.6,0.6H5.1
	c-0.4,0-0.6-0.2-0.6-0.6v-6.5c0-0.4,0.2-0.6,0.6-0.6h1.7c0.4,0,0.6,0.2,0.6,0.6v4.1h1.9v-3.5c0-0.4,0.2-0.6,0.6-0.6h1.4
	c0.4,0,0.6,0.2,0.6,0.6v3.5h2v-4.2L14.2,163.2L14.2,163.2z"/>
</svg>
