<?xml version="1.0" encoding="utf-8"?>
<!-- Generator: Adobe Illustrator 27.4.1, SVG Export Plug-In . SVG Version: 6.00 Build 0)  -->
<svg version="1.1" id="Layer_1" xmlns="http://www.w3.org/2000/svg" xmlns:xlink="http://www.w3.org/1999/xlink" x="0px" y="0px"
	 viewBox="0 0 125.3 125.2" style="enable-background:new 0 0 125.3 125.2;" xml:space="preserve">
<style type="text/css">
	.st0{fill:#033782;}
	.st1{fill:#FFFFFF;}
	.st2{clip-path:url(#SVGID_00000158024269520875977390000013511650536260163239_);}
	.st3{fill:#D52B1E;}
	.st4{clip-path:url(#SVGID_00000098940244657718206560000015714610054177343416_);}
	.st5{clip-path:url(#SVGID_00000085943246985889315510000012238229145122368946_);}
	.st6{clip-path:url(#SVGID_00000042003506909901552510000010759172243429617076_);}
	.st7{clip-path:url(#SVGID_00000121244761264477970930000001489491586098452608_);}
	.st8{clip-path:url(#SVGID_00000049203159052423376920000005877388072530643585_);}
	.st9{clip-path:url(#SVGID_00000118361770306725234300000000330767563164388998_);}
	.st10{clip-path:url(#SVGID_00000090980634244114942690000006930330279450248589_);}
	.st11{clip-path:url(#SVGID_00000012473270443872214190000001838156735523323310_);}
	.st12{clip-path:url(#SVGID_00000176042161135543651660000004447342675708639381_);}
	.st13{clip-path:url(#SVGID_00000089540972244516720090000001097399188829352833_);}
</style>
<g id="Group_10400" transform="translate(-1259 -5763.598)">
	<circle id="Ellipse_102_00000096022320025378259870000015221216573567261313_" class="st3" cx="1321.6" cy="5826.2" r="62.3"/>
	<g id="Group_10349" transform="translate(1281.684 5787.203)">
		<g>
			<defs>
				<rect id="SVGID_00000057833522843965176160000015908317146343645365_" x="0.4" y="0.4" width="80.3" height="80.2"/>
			</defs>
			<clipPath id="SVGID_00000149359506870962249010000012957998504369483910_">
				<use xlink:href="#SVGID_00000057833522843965176160000015908317146343645365_"  style="overflow:visible;"/>
			</clipPath>
			<g id="Group_10348" style="clip-path:url(#SVGID_00000149359506870962249010000012957998504369483910_);">
				<path id="Path_13856" class="st1" d="M80.6,40.5c0,22.2-17.9,40.1-40.1,40.1S0.4,62.7,0.4,40.5S18.3,0.4,40.5,0.4c0,0,0,0,0.1,0
					C62.7,0.3,80.6,18.3,80.6,40.5C80.6,40.4,80.6,40.4,80.6,40.5 M40.5,78.2c20.8,0,37.7-16.9,37.7-37.7
					c0-20.8-16.9-37.7-37.7-37.7C19.7,2.8,2.8,19.6,2.8,40.5c0,0.1,0,0.2,0,0.3C3,61.5,19.8,78.2,40.5,78.2"/>
				<path id="Path_13857" class="st1" d="M39.7,75.8C23.1,75.4,9,63.6,5.8,47.3c-2.1-10.5,0.7-21.4,7.7-29.6c0.8-1,1.4-1,2.3-0.1
					c15.8,15.8,31.7,31.7,47.5,47.5c0.9,0.9,0.9,1.5-0.1,2.3C56.7,73,48.3,76,39.7,75.8 M60.8,66.3l-9.5-9.5v5.6c1.5,0,2.9,0,4.3,0
					c0.9,0,1.5,0.4,1.5,1.2c0,0.8-0.6,1.2-1.5,1.2c-0.2,0-0.4,0-0.6,0c-3.4,0-6.8,0-10.2,0c-0.3,0-0.5,0-0.8,0
					c-0.6,0-1.1-0.6-1.1-1.2c0,0,0,0,0,0c0-0.6,0.5-1.1,1.1-1.1c0,0,0.1,0,0.1,0c1.5,0,3.1,0,4.6,0c0-0.2,0.1-0.3,0.1-0.5
					c0-2.5,0-5,0-7.6c0-0.4-0.2-0.7-0.5-0.9c-3.4-3.4-6.8-6.8-10.2-10.2c-0.1-0.1-0.3-0.3-0.6-0.5v1.1c0,6.4,0,12.8,0,19.1
					c0,1.5-0.3,1.8-1.9,1.8c-3.9,0-7.8,0-11.8,0c-1.4,0-1.8-0.3-1.8-1.8c0-6.7,0-13.3,0-20c0-2.8,0.6-5.5,1.6-8.1
					c0.5-1.3,0.9-2.6,1.3-3.9c0.2-0.5,0-1-0.4-1.3c-3.1-3.1-6.3-6.3-9.4-9.4c-0.2-0.2-0.3-0.3-0.5-0.4C4.3,33,5.3,52,17.3,63.8
					C30,76.4,49.1,76,60.8,66.3 M24.6,54.6h10.5V44.1H24.6V54.6z M35,41.6c0.2-0.9-0.2-1.8-0.8-2.4c-1.9-1.8-3.6-3.6-5.5-5.4
					c-0.4-0.4-0.8-0.9-1.4-1.4c-1,3.2-2.7,5.9-2.7,9.3L35,41.6z M24.6,62.4h10.5v-5.2H24.6V62.4z"/>
				<path id="Path_13858" class="st1" d="M75.9,39.5c-0.2,9.6-2.9,17.3-8.4,23.9c-0.8,1-1.4,1-2.3,0.1
					C49.3,47.6,33.4,31.7,17.6,15.9c-0.9-0.9-0.9-1.5,0.2-2.3C38.3-3.9,70.2,7.4,75.2,33.9C75.6,36.1,75.7,38.3,75.9,39.5
					 M25.6,20.2c0-0.8,0-1.7,0-2.5c0-1.1,0.4-1.5,1.6-1.6c1.7,0,3.4,0,5.1,0c1.5,0,1.9,0.3,1.9,1.9c0,3.3,0,6.7,0.1,10
					c0,0.7,0.3,1.3,0.7,1.7c1.6,1.6,3.2,3.2,4.9,4.8c0.4,0.4,0.9,0.9,1.3,1.4c0.3-1.3,0.6-1.6,1.8-1.6c4.8,0,9.6,0,14.4,0
					c1.2,0,1.6,0.4,1.6,1.6c0,2.4,0,4.9,0,7.3c0,1.9-0.6,3.8-1.8,5.3c-0.5,0.6-1,1.1-1.5,1.6l10.6,10.6c10.8-13.5,9.3-33-3.5-44.7
					c-13.2-12.1-32-10.5-42.6-1.4L25.6,20.2 M43.5,36.9c0,0.6,0.2,1.2,0.4,1.8c0.5,0.8,1.4,1.3,2.4,1.2c1,0,1.9,0,2.9-0.1
					c1.8-0.1,3.6-0.2,5.4-0.2c0.6,0,1.3,0.1,1.9,0.1v-2.9L43.5,36.9z M47.8,42.4l6.1,6.1c1.9-1.4,2.9-3.8,2.5-6.2
					C53.5,41.8,50.6,42.2,47.8,42.4 M28.1,22.2h3.5v-3.6h-3.5V22.2z M31.6,26.5v-1.7H30L31.6,26.5"/>
			</g>
		</g>
	</g>
</g>
</svg>
