<svg xmlns="http://www.w3.org/2000/svg" width="124.536" height="124.536" viewBox="0 0 124.536 124.536"><circle cx="62.268" cy="62.268" r="62.268" transform="translate(0 0)" fill="#dc0a2d"/><g transform="translate(33.584 23.803)"><g transform="translate(0 0)"><path d="M113.679,29.779c-4.115-9.23-11.749-15.528-20.777-17.311a27.505,27.505,0,0,0-.457-7.26A2.039,2.039,0,0,1,93.854,2.75a2.025,2.025,0,0,1,2.577,1.036,24.608,24.608,0,0,1,2.018,5.8,1.308,1.308,0,0,0,2.559-.545,27.241,27.241,0,0,0-2.233-6.416A4.626,4.626,0,0,0,93.012.273a4.668,4.668,0,0,0-3.134,5.442,24.9,24.9,0,0,1,.427,6.372c-13.614-1.343-23.86,7.884-17.742,20.8a27.985,27.985,0,0,0-3.687,6.7,18.617,18.617,0,0,1-4.562-11.1,1.308,1.308,0,0,0-.814-1.141l-2.928-1.189a2.8,2.8,0,0,1,1.109-5.382l2.795.058A1.308,1.308,0,0,0,65.726,20a26.782,26.782,0,0,1,2.295-4.61,1.308,1.308,0,0,0-.035-1.433l-2.352-3.41a2.8,2.8,0,0,1,3.882-3.889l2.742,1.883a1.308,1.308,0,0,0,1.62-.11A38.445,38.445,0,0,1,77.9,5.243a3.2,3.2,0,0,1,2.878-.507A3.775,3.775,0,0,1,83.1,7.042a1.308,1.308,0,1,0,2.464-.878,6.443,6.443,0,0,0-3.983-3.917,5.807,5.807,0,0,0-5.167.842A41.444,41.444,0,0,0,72.9,5.8L71,4.5c-4.949-3.4-10.911,2.61-7.517,7.531l1.873,2.715a29.5,29.5,0,0,0-1.73,3.462l-1.889-.039a5.412,5.412,0,0,0-2.147,10.422l2.177.884a22.07,22.07,0,0,0,6.218,13.046,22.884,22.884,0,0,0,.47,12.153l-.63,1.091a1.308,1.308,0,1,0,2.266,1.308l.771-1.335a1.308,1.308,0,0,1,2.266,0l10.5,18.179a1.308,1.308,0,0,1-1.133,1.962H61.5a1.308,1.308,0,0,1-1.133-1.962l6.024-10.435a1.308,1.308,0,0,0-2.266-1.308L58.1,72.605a3.924,3.924,0,0,0,3.4,5.886H82.488a3.924,3.924,0,0,0,3.4-5.886l-10.5-18.179a3.918,3.918,0,0,0-4.769-1.719c-1.588-6.4-.1-12.806,4.341-18.659,4.215-2.244,8.382-2.606,12.445-2.694.282,3.5,4.346,3.977,7.24,4.878a3.567,3.567,0,0,1-4.1,2.038,1.308,1.308,0,0,0-.42,2.582,6.128,6.128,0,0,0,6.893-3.494,2.069,2.069,0,0,1,.6.8,1.308,1.308,0,0,0,2.427-.976c-.987-2.455-3.679-3.211-6.194-3.893-2.6-.705-3.613-1.161-3.808-1.968a41.465,41.465,0,0,0,6.482-.431,1.308,1.308,0,1,0-.439-2.579c-6.051,1.03-13.58-.756-21.394,2.948-8.4-19,25.577-25.128,36.6-.413a33.147,33.147,0,0,1,2.385,14.841c-3.83,4.6-7.379,5.119-11.146,4.489a1.293,1.293,0,0,0-.2-.034c-4.638-.823-9.539-3.283-14.571-1.553a4.17,4.17,0,0,1-1.538-2.952,1.308,1.308,0,0,0-2.607.214,6.782,6.782,0,0,0,1.659,3.96,16.54,16.54,0,0,0-4.1,3.966,1.308,1.308,0,1,0,2.085,1.58c5.63-7.429,10.953-4.294,17.488-2.868-.861,2.108-4.52,4.485-6.3,7.214a9.306,9.306,0,0,1-2.007-.493,1.308,1.308,0,0,0-.9,2.455,11.927,11.927,0,0,0,1.9.523A4.761,4.761,0,0,0,93.6,64.31a1.308,1.308,0,1,0,2.5-.763,2.458,2.458,0,0,1,.2-1.836c.019-.035.037-.071.054-.108,1.418-2.763,6.064-5.35,7.007-8.686a12.5,12.5,0,0,0,10.044-3.207c-.612,6.594-1.84,12.442-.838,16.566,2.29,9.421-9.374,11.331-19.439,8.187a1.308,1.308,0,0,0-.78,2.5c13.723,4.287,25.353-.636,22.761-11.3-1.727-7.107,4.568-22.421-1.432-35.879Z" transform="translate(-56.215 -0.001)" fill="#ededf2"/><path d="M146.012,375.56a1.308,1.308,0,0,0,1.308-1.308v-5.206a1.308,1.308,0,1,0-2.616,0v5.206A1.308,1.308,0,0,0,146.012,375.56Z" transform="translate(-130.235 -307.608)" fill="#ededf2"/><path d="M144.7,431.894a1.308,1.308,0,1,0,2.616,0v-.654a1.308,1.308,0,1,0-2.616,0Z" transform="translate(-130.235 -359.633)" fill="#ededf2"/></g></g></svg>