<?xml version="1.0" encoding="utf-8"?>
<!-- Generator: Adobe Illustrator 27.4.1, SVG Export Plug-In . SVG Version: 6.00 Build 0)  -->
<svg version="1.1" id="Layer_1" xmlns="http://www.w3.org/2000/svg" xmlns:xlink="http://www.w3.org/1999/xlink" x="0px" y="0px"
	 viewBox="0 0 125.3 125.2" style="enable-background:new 0 0 125.3 125.2;" xml:space="preserve">
<style type="text/css">
	.st0{fill:#b92216;}
	.st1{fill:#FFFFFF;}
	.st2{fill:#EDEDF2;}
</style>
<circle id="Ellipse_103" class="st0" cx="62.6" cy="62.6" r="62.3"/>
<g id="_002-escala-corporal" transform="translate(30.005 28.506)">
	<circle id="Ellipse_101" class="st2" cx="34.1" cy="66.6" r="1.3"/>
	<path id="Path_997" class="st1" d="M58.6,0.4h-49c-5.1,0-9.2,4.2-9.3,9.3c0,0,0,0,0,0l2.6,49c0,5.1,4.2,9.2,9.2,9.2h15.9
		c0.7,0,1.3-0.6,1.3-1.3c0-0.7-0.6-1.3-1.3-1.3H12.3c-3.7,0-6.6-3-6.6-6.6c0,0,0,0,0,0L3,9.6C3,5.9,6,3,9.6,3h49
		c3.6,0,6.6,2.9,6.6,6.6l-2.6,49c0,0,0,0,0,0c0,3.7-3,6.6-6.6,6.6H40.1c-0.7,0-1.3,0.6-1.3,1.3c0,0.7,0.6,1.3,1.3,1.3H56
		c5.1,0,9.2-4.1,9.2-9.2l2.6-49c0,0,0,0,0,0C67.9,4.5,63.8,0.4,58.6,0.4z"/>
	<path id="Path_998" class="st2" d="M20.7,30.6h26.9c0.5,0,1-0.3,1.2-0.8l5.7-13.1c0.2-0.6,0.1-1.2-0.4-1.6
		c-5.8-4.4-12.8-6.7-20-6.8l0,0c-7.2,0-14.3,2.4-20.1,6.8c-0.5,0.4-0.6,1-0.4,1.6l5.7,13.1C19.7,30.3,20.1,30.6,20.7,30.6z
		 M34.1,24.5c1.4,0,2.7,0.3,3.9,0.8c1.2,0.5,2.3,1.5,2.9,2.7H27.3C28.3,26,31,24.5,34.1,24.5L34.1,24.5z M21.8,13.7l1,2.2
		c0.3,0.7,1.1,0.9,1.8,0.6s0.9-1.1,0.6-1.8l-1-2c2.8-1,5.7-1.5,8.6-1.6v2.3c0,0.7,0.6,1.3,1.3,1.3c0.7,0,1.3-0.6,1.3-1.3v-2.3
		c2.9,0.1,5.8,0.7,8.6,1.6l-0.9,2.2c-0.3,0.7,0.1,1.4,0.7,1.7c0.7,0.3,1.4-0.1,1.7-0.7l0,0l0.9-2.2c1.8,0.8,3.6,1.8,5.2,3l-5,11.3
		h-3c-0.7-2.3-2.3-4.2-4.5-5.1c-3.2-1.5-6.9-1.5-10.2,0l-1.8-3.9c-0.3-0.7-1.1-0.9-1.8-0.6c-0.7,0.3-0.9,1.1-0.6,1.8l2,4.2
		c-1.1,0.9-1.9,2.2-2.3,3.6h-3l-5-11.3C18.2,15.5,19.9,14.5,21.8,13.7z"/>
	<path id="Path_999" class="st2" d="M20.7,35.9h26.9c0.7,0,1.3-0.6,1.3-1.3s-0.6-1.3-1.3-1.3H20.7c-0.7,0-1.3,0.6-1.3,1.3
		S19.9,35.9,20.7,35.9z"/>
	<path id="Path_1000" class="st2" d="M10.8,56c0-0.7-0.6-1.3-1.3-1.3c-0.7,0-1.3,0.6-1.3,1.3c0,3.7,3,6.6,6.6,6.6
		c0.7,0,1.3-0.6,1.3-1.3S15.5,60,14.8,60C12.6,60,10.8,58.2,10.8,56z"/>
	<path id="Path_1001" class="st2" d="M52,61.3c0,0.7,0.6,1.3,1.3,1.3h0c3.7,0,6.6-3,6.6-6.6c0-0.7-0.6-1.3-1.3-1.3s-1.3,0.6-1.3,1.3
		c0,2.2-1.8,4-4,4C52.6,60,52,60.6,52,61.3C52,61.3,52,61.3,52,61.3z"/>
</g>
</svg>
