<?xml version="1.0" encoding="utf-8"?>
<!-- Generator: Adobe Illustrator 27.4.1, SVG Export Plug-In . SVG Version: 6.00 Build 0)  -->
<svg version="1.1" id="Layer_1" xmlns="http://www.w3.org/2000/svg" xmlns:xlink="http://www.w3.org/1999/xlink" x="0px" y="0px"
	 viewBox="0 0 125.3 125.2" style="enable-background:new 0 0 125.3 125.2;" xml:space="preserve">
<style type="text/css">
	.st0{fill:#b92216;}
	.st1{fill:#FFFFFF;}
</style>
<g id="Group_771" transform="translate(0)">
	<circle id="Ellipse_104" class="st0" cx="62.6" cy="62.6" r="62.3"/>
	<g id="_003-presion-arterial" transform="translate(19.996 24.726)">
		<path id="Path_1002" class="st1" d="M77.2,39.7c-0.8-1.3-1.9-2.5-3.1-3.4v-3.6c0-1.7-1.4-3.1-3.1-3.1h-0.2V17.6
			c0-8.4-6.8-15.2-15.2-15.2c-2.8,0-5.6,0.8-8.1,2.3c-4.3-5.1-11.8-5.8-16.9-1.5c-3.4,2.8-4.9,7.3-4.1,11.6h-1.7
			c-3,0-5.4,2.4-5.4,5.4v12.1c-3.6-2.6-8.7-1.8-11.3,1.8c-1,1.4-1.5,3-1.5,4.7c0,4.3,2.3,8.8,6.8,13.4c1.9,1.9,3.9,3.6,6,5.1v3.3
			c0,0.6,0.5,1.2,1.2,1.2c0.6,0,1.2-0.5,1.2-1.2v-3.2c2-1.4,4-3,5.8-4.8c0.5-0.5,0.4-1.2,0-1.7c-0.5-0.4-1.2-0.4-1.6,0
			c-1.6,1.6-3.4,3-5.2,4.4C18.2,53.6,9,46.6,9,38.8c0-3.2,2.6-5.7,5.7-5.7c2,0,3.9,1.1,5,2.9c0.3,0.6,1,0.7,1.6,0.4
			c0.2-0.1,0.3-0.2,0.4-0.4c1.6-2.7,5.1-3.7,7.8-2.1c1.8,1,2.9,2.9,2.9,5c-0.2,3-1.3,5.9-3.1,8.3c-0.4,0.5-0.3,1.3,0.3,1.6
			c0.5,0.4,1.3,0.3,1.6-0.3l0,0c2.2-2.8,3.4-6.2,3.6-9.7c0-4.5-3.6-8.1-8.1-8.1c-1.8,0-3.5,0.6-4.9,1.7v-5.6c0.9,0.6,2,1,3.1,1h18
			v44.5h-18c-1.7,0-3.1-1.4-3.1-3.1V66c0-0.6-0.5-1.2-1.2-1.2c-0.6,0-1.2,0.5-1.2,1.2v3.2c0,3,2.4,5.4,5.4,5.4h24.9
			c3,0,5.4-2.4,5.4-5.4V36.9c0-0.6-0.5-1.2-1.2-1.2c-0.6,0-1.2,0.5-1.2,1.2v32.3c0,1.7-1.4,3.1-3.1,3.1h-4.5V27.8h4.5
			c1.1,0,2.2-0.3,3.1-1v4.7c0,0.6,0.5,1.2,1.2,1.2c0.6,0,1.2-0.5,1.2-1.2V20.2c0-2.9-2.2-5.2-5.1-5.4c0.6-2.8,0.1-5.7-1.2-8.2
			c6.1-3.7,14-1.8,17.7,4.3c1.2,2,1.9,4.4,1.9,6.7v12.1h-0.2c-1.7,0-3.1,1.4-3.1,3.1v3.6c-1.3,0.9-2.3,2-3.1,3.4
			c-2,3.3-3,7.1-2.9,10.9c-0.1,3.8,0.9,7.6,2.9,10.9c2,3.1,4.7,4.8,7.6,4.8s5.6-1.7,7.6-4.8c2-3.3,3-7.1,2.9-10.9
			C80.2,46.8,79.2,43,77.2,39.7z M38.3,2.7c5.3,0,9.7,4.3,9.7,9.7S43.7,22,38.3,22s-9.7-4.3-9.7-9.7l0,0C28.7,7,33,2.7,38.3,2.7z
			 M24.9,17.1h2.4c0.5,1.1,1.1,2.1,1.9,3h-7.3C21.9,18.4,23.2,17.1,24.9,17.1z M49.8,17.1c1.7,0,3.1,1.4,3.1,3.1v2.2
			c0,1.7-1.4,3.1-3.1,3.1H24.9c-1.7,0-3-1.3-3.1-3h10c4,2.6,9,2.6,13,0h3.6c0.6,0,1.2-0.5,1.2-1.2s-0.5-1.2-1.2-1.2c0,0,0,0,0,0
			h-0.9c0.8-0.9,1.4-1.9,1.9-3L49.8,17.1L49.8,17.1z M67.5,32.8c0-0.4,0.3-0.8,0.8-0.8H71c0.4,0,0.8,0.3,0.8,0.8v2.4
			c-1.4-0.4-2.8-0.4-4.2,0V32.8z M75.3,60.2c-1.5,2.4-3.5,3.7-5.6,3.7s-4.1-1.3-5.6-3.7c-1.7-2.9-2.6-6.3-2.6-9.6
			c-0.1-3.4,0.8-6.7,2.6-9.6c1.5-2.4,3.5-3.7,5.6-3.7s4.1,1.3,5.6,3.7c1.7,2.9,2.6,6.3,2.6,9.6C77.9,54,77,57.3,75.3,60.2L75.3,60.2
			z"/>
		<path id="Path_1003" class="st1" d="M38.3,20.9c4.7,0,8.5-3.8,8.5-8.5c0-4.7-3.8-8.5-8.5-8.5c-4.7,0-8.5,3.8-8.5,8.5
			C29.8,17.1,33.6,20.9,38.3,20.9z M38.3,6.2c3.4,0,6.2,2.8,6.2,6.2s-2.8,6.2-6.2,6.2c-3.4,0-6.2-2.8-6.2-6.2v0
			C32.1,8.9,34.9,6.2,38.3,6.2z"/>
		<path id="Path_1004" class="st1" d="M38.3,10.7c0.6,0,1.2-0.5,1.2-1.2v0V8c0-0.6-0.5-1.2-1.2-1.2c-0.6,0-1.2,0.5-1.2,1.2v1.5
			C37.1,10.1,37.7,10.7,38.3,10.7z"/>
		<path id="Path_1005" class="st1" d="M42.6,13.5L42.6,13.5c0.7,0,1.2-0.5,1.2-1.2c0-0.6-0.5-1.2-1.2-1.2h0c-0.6,0-1.2,0.5-1.2,1.2
			S41.9,13.5,42.6,13.5L42.6,13.5L42.6,13.5z"/>
		<path id="Path_1006" class="st1" d="M38.3,17.4L38.3,17.4c0.7,0,1.2-0.5,1.2-1.2c0-0.6-0.5-1.2-1.2-1.2h0c-0.6,0-1.2,0.5-1.2,1.2
			C37.1,16.9,37.7,17.4,38.3,17.4L38.3,17.4z"/>
		<path id="Path_1007" class="st1" d="M34.5,13.5L34.5,13.5c0.7,0,1.2-0.5,1.2-1.2s-0.5-1.2-1.2-1.2h0c-0.6,0-1.2,0.5-1.2,1.1
			S33.8,13.5,34.5,13.5C34.4,13.5,34.5,13.5,34.5,13.5L34.5,13.5z"/>
		<path id="Path_1008" class="st1" d="M69.6,40.1c-0.6,0-1.2,0.5-1.2,1.2c0,0,0,0,0,0v18.4c0,0.6,0.5,1.2,1.2,1.2s1.2-0.5,1.2-1.2
			V41.3C70.8,40.6,70.3,40.1,69.6,40.1C69.6,40.1,69.6,40.1,69.6,40.1z"/>
		<path id="Path_1009" class="st1" d="M3.3,40.7L3.3,40.7c0.7,0,1.2-0.5,1.2-1.2c0-0.6-0.5-1.2-1.2-1.2l-1.8,0h0
			c-0.6,0-1.2,0.5-1.2,1.2c0,0.6,0.5,1.2,1.2,1.2l0,0L3.3,40.7z"/>
		<path id="Path_1010" class="st1" d="M3.5,42.8l-1.6,0.9c-0.6,0.3-0.8,1-0.4,1.6s1,0.8,1.6,0.4l1.6-0.9c0.6-0.3,0.8-1,0.4-1.6
			C4.8,42.7,4.1,42.5,3.5,42.8z"/>
		<path id="Path_1011" class="st1" d="M4.7,34.2l-1.5-0.9c-0.6-0.3-1.3-0.1-1.6,0.4C1.3,34.3,1.5,35,2,35.3l1.5,0.9
			c0.6,0.3,1.3,0.1,1.6-0.4C5.5,35.3,5.3,34.6,4.7,34.2C4.7,34.2,4.7,34.2,4.7,34.2z"/>
		<path id="Path_1012" class="st1" d="M41.3,39.5c0-0.6-0.5-1.2-1.2-1.2h0l-1.8,0c-0.6,0-1.2,0.5-1.2,1.2c0,0.6,0.5,1.2,1.2,1.2h0
			l1.8,0C40.8,40.7,41.3,40.1,41.3,39.5C41.3,39.5,41.3,39.5,41.3,39.5z"/>
		<path id="Path_1013" class="st1" d="M39.8,43.7l-1.6-0.9c-0.6-0.3-1.3-0.1-1.6,0.5c-0.3,0.6-0.1,1.2,0.4,1.6l1.6,0.9
			c0.6,0.3,1.3,0.1,1.6-0.5C40.5,44.7,40.3,44,39.8,43.7z"/>
		<path id="Path_1014" class="st1" d="M38.5,33.3L37,34.2c-0.6,0.3-0.7,1-0.4,1.6c0.3,0.6,1,0.7,1.6,0.4l1.5-0.9
			c0.6-0.3,0.7-1,0.4-1.6C39.8,33.2,39.1,33,38.5,33.3z"/>
	</g>
</g>
</svg>
