<svg xmlns="http://www.w3.org/2000/svg" width="124.536" height="124.536" viewBox="0 0 124.536 124.536"><g transform="translate(0)"><circle cx="62.268" cy="62.268" r="62.268" fill="#dc0a2d"/><g transform="translate(19.996 24.726)"><path d="M110.983,39.833a11.716,11.716,0,0,0-3.149-3.355V32.909a3.1,3.1,0,0,0-3.1-3.1h-.178V17.718A15.235,15.235,0,0,0,81.255,4.8,12,12,0,0,0,60.3,14.918H58.63a5.427,5.427,0,0,0-5.421,5.421V32.431a8.065,8.065,0,0,0-12.792,6.541c0,4.323,2.278,8.841,6.77,13.429a44.352,44.352,0,0,0,6.022,5.113v3.313a1.169,1.169,0,1,0,2.338,0v-3.2a44.385,44.385,0,0,0,5.75-4.79,1.169,1.169,0,0,0-1.645-1.661,42.762,42.762,0,0,1-5.194,4.359c-2.523-1.788-11.7-8.828-11.7-16.561a5.734,5.734,0,0,1,10.693-2.879,1.169,1.169,0,0,0,2.02,0,5.734,5.734,0,0,1,10.692,2.879,14.486,14.486,0,0,1-3.145,8.309,1.169,1.169,0,1,0,1.9,1.364A16.739,16.739,0,0,0,68.5,38.973a8.062,8.062,0,0,0-12.952-6.42V26.965a5.387,5.387,0,0,0,3.083.965H76.647V72.406H58.63a3.087,3.087,0,0,1-3.083-3.083V66.155a1.169,1.169,0,1,0-2.338,0v3.169a5.427,5.427,0,0,0,5.421,5.42H83.5a5.427,5.427,0,0,0,5.421-5.42V37.013a1.169,1.169,0,0,0-2.338,0V69.324A3.086,3.086,0,0,1,83.5,72.406H78.985V27.931H83.5a5.388,5.388,0,0,0,3.083-.965v4.722a1.169,1.169,0,0,0,2.338,0V20.339a5.427,5.427,0,0,0-5.1-5.41,12,12,0,0,0-1.244-8.2,12.9,12.9,0,0,1,19.64,10.994V29.811h-.178a3.1,3.1,0,0,0-3.1,3.1v3.569a11.708,11.708,0,0,0-3.149,3.355A20.365,20.365,0,0,0,92.87,50.74a20.367,20.367,0,0,0,2.924,10.907c1.989,3.091,4.685,4.792,7.595,4.792s5.605-1.7,7.594-4.792a20.367,20.367,0,0,0,2.924-10.907,20.365,20.365,0,0,0-2.924-10.907ZM72.062,2.838a9.669,9.669,0,1,1-9.669,9.669,9.68,9.68,0,0,1,9.669-9.669ZM58.63,17.255h2.406a12.023,12.023,0,0,0,1.864,3H55.551a3.085,3.085,0,0,1,3.079-3Zm24.872,0a3.087,3.087,0,0,1,3.083,3.083v2.172A3.086,3.086,0,0,1,83.5,25.593H58.63a3.085,3.085,0,0,1-3.079-3H65.561a11.964,11.964,0,0,0,13,0h3.6a1.169,1.169,0,1,0,0-2.338h-.937a12.031,12.031,0,0,0,1.865-3H83.5Zm17.778,15.654a.762.762,0,0,1,.761-.761h2.694a.762.762,0,0,1,.761.761v2.438a7.394,7.394,0,0,0-4.216,0Zm7.736,27.474c-1.544,2.4-3.543,3.719-5.629,3.719S99.3,62.781,97.76,60.383a18.017,18.017,0,0,1-2.552-9.642A18.019,18.019,0,0,1,97.76,41.1c1.544-2.4,3.542-3.719,5.628-3.719s4.085,1.321,5.629,3.719a18.02,18.02,0,0,1,2.552,9.643A18.018,18.018,0,0,1,109.017,60.383Zm0,0" transform="translate(-34.119 -0.501)" fill="#ededf2"/><path d="M197.255,39.856a8.533,8.533,0,1,0-8.533-8.533A8.543,8.543,0,0,0,197.255,39.856Zm0-14.729a6.2,6.2,0,1,1-6.2,6.2A6.2,6.2,0,0,1,197.255,25.127Zm0,0" transform="translate(-159.312 -19.316)" fill="#ededf2"/><path d="M237.149,46.036a1.169,1.169,0,0,0,1.169-1.169v-1.46a1.169,1.169,0,0,0-2.338,0v1.46A1.169,1.169,0,0,0,237.149,46.036Zm0,0" transform="translate(-199.206 -35.734)" fill="#ededf2"/><path d="M264.444,72.384h.027a1.169,1.169,0,0,0,.01-2.338h-.018a1.169,1.169,0,0,0-.02,2.338Zm0,0" transform="translate(-222.256 -59.208)" fill="#ededf2"/><path d="M237.084,97.393h.028a1.169,1.169,0,0,0,.01-2.338h-.027a1.169,1.169,0,0,0-.01,2.338Zm0,0" transform="translate(-199.159 -80.32)" fill="#ededf2"/><path d="M212.551,72.384h.01a1.169,1.169,0,0,0,.01-2.338h-.018a1.169,1.169,0,1,0-.021,2.337Zm0,0" transform="translate(-178.435 -59.208)" fill="#ededf2"/><path d="M438.169,255.6A1.169,1.169,0,0,0,437,256.771v18.38a1.169,1.169,0,1,0,2.338,0v-18.38A1.169,1.169,0,0,0,438.169,255.6Zm0,0" transform="translate(-368.899 -215.848)" fill="#ededf2"/><path d="M2.948,246.585h.009a1.169,1.169,0,0,0,.009-2.338l-1.788-.013H1.169a1.169,1.169,0,0,0-.009,2.338Zm0,0" transform="translate(0 -206.251)" fill="#ededf2"/><path d="M8.4,271.961l-1.556.883A1.169,1.169,0,0,0,8,274.877l1.555-.883A1.169,1.169,0,0,0,8.4,271.961Zm0,0" transform="translate(-5.279 -229.529)" fill="#ededf2"/><path d="M10.058,212.16l-1.542-.906a1.169,1.169,0,0,0-1.184,2.016l1.542.906a1.169,1.169,0,1,0,1.184-2.016Zm0,0" transform="translate(-5.702 -178.274)" fill="#ededf2"/><path d="M240.391,245.394a1.169,1.169,0,0,0-1.169-1.16h-.009l-1.788.013a1.169,1.169,0,0,0,.009,2.338h.009l1.788-.013A1.169,1.169,0,0,0,240.391,245.394Zm0,0" transform="translate(-199.446 -206.252)" fill="#ededf2"/><path d="M234.8,272.843l-1.555-.883a1.169,1.169,0,0,0-1.154,2.033l1.556.883a1.169,1.169,0,0,0,1.153-2.033Zm0,0" transform="translate(-195.425 -229.528)" fill="#ededf2"/><path d="M233.206,211.252l-1.542.906a1.169,1.169,0,0,0,1.184,2.016l1.543-.906a1.169,1.169,0,0,0-1.185-2.016Zm0,0" transform="translate(-195.076 -178.273)" fill="#ededf2"/></g></g></svg>