<svg xmlns="http://www.w3.org/2000/svg" width="124.536" height="124.536" viewBox="0 0 124.536 124.536"><circle cx="62.268" cy="62.268" r="62.268" transform="translate(0)" fill="#dc0a2d"/><g transform="translate(30.005 28.506)"><circle cx="1.319" cy="1.319" r="1.319" transform="translate(32.443 64.884)" fill="#ededf2"/><path d="M58.276,0H9.252A9.29,9.29,0,0,0,0,9.285c0,.024,0-.024,0,0L2.645,58.311a9.261,9.261,0,0,0,9.25,9.213H27.841a1.321,1.321,0,0,0,0-2.643H11.895a6.646,6.646,0,0,1-6.608-6.643c0-.024,0,.024,0,0L2.645,9.216A6.615,6.615,0,0,1,9.252,2.643H58.276a6.615,6.615,0,0,1,6.607,6.573L62.241,58.238c0,.024,0-.024,0,0a6.646,6.646,0,0,1-6.608,6.643H39.687a1.321,1.321,0,1,0,0,2.643H55.633a9.261,9.261,0,0,0,9.25-9.213L67.525,9.285c0-.024,0,.024,0,0A9.29,9.29,0,0,0,58.276,0Z" transform="translate(-0.003)" fill="#ededf2"/><path d="M107.418,83.485h26.944a1.322,1.322,0,0,0,1.21-.791L141.3,69.612a1.321,1.321,0,0,0-.4-1.573,33.356,33.356,0,0,0-19.966-6.754h0a33.352,33.352,0,0,0-20.066,6.754,1.321,1.321,0,0,0-.4,1.573l5.733,13.082A1.321,1.321,0,0,0,107.418,83.485Zm13.47-6.17a9.275,9.275,0,0,1,3.925.84,5.739,5.739,0,0,1,2.878,2.687h-13.6c.924-2.035,3.649-3.527,6.8-3.527ZM108.509,66.567l1.031,2.188a1.321,1.321,0,1,0,2.39-1.127l-.958-2.032a30.287,30.287,0,0,1,8.595-1.638v2.26a1.321,1.321,0,1,0,2.643,0v-2.26a30.289,30.289,0,0,1,8.554,1.623l-.855,2.166a1.321,1.321,0,1,0,2.458.97l.856-2.17a30.065,30.065,0,0,1,5.237,2.966L133.5,80.842h-3.015a7.939,7.939,0,0,0-4.546-5.079,12.227,12.227,0,0,0-10.158.027l-1.818-3.858a1.321,1.321,0,0,0-2.391,1.127l1.979,4.2a7.15,7.15,0,0,0-2.252,3.585h-3.015l-4.964-11.328A30.036,30.036,0,0,1,108.509,66.567Z" transform="translate(-87.128 -53.203)" fill="#ededf2"/><path d="M145.151,252.3H172.1a1.321,1.321,0,0,0,0-2.643H145.151a1.321,1.321,0,1,0,0,2.643Z" transform="translate(-124.862 -216.731)" fill="#ededf2"/><path d="M61.555,413.389a1.321,1.321,0,0,0-2.643,0,6.64,6.64,0,0,0,6.633,6.633,1.321,1.321,0,1,0,0-2.643A3.994,3.994,0,0,1,61.555,413.389Z" transform="translate(-51.143 -357.724)" fill="#ededf2"/><path d="M391.773,418.7a1.321,1.321,0,0,0,1.321,1.321,6.64,6.64,0,0,0,6.633-6.633,1.321,1.321,0,0,0-2.643,0,3.994,3.994,0,0,1-3.99,3.99A1.321,1.321,0,0,0,391.773,418.7Z" transform="translate(-340.105 -357.724)" fill="#ededf2"/></g></svg>