<?xml version="1.0" encoding="utf-8"?>
<!-- Generator: Adobe Illustrator 27.4.1, SVG Export Plug-In . SVG Version: 6.00 Build 0)  -->
<svg version="1.1" id="Layer_1" xmlns="http://www.w3.org/2000/svg" xmlns:xlink="http://www.w3.org/1999/xlink" x="0px" y="0px"
	 viewBox="0 0 125.3 125.2" style="enable-background:new 0 0 125.3 125.2;" xml:space="preserve">
<style type="text/css">
	.st0{fill:#b92216;}
	.st1{fill:#FFFFFF;}
</style>
<g id="Group_734">
	<circle id="Ellipse_105" class="st0" cx="62.6" cy="62.6" r="62.3"/>
	<g id="_004-problema-cardiaco" transform="translate(33.584 23.803)">
		<g id="Group_731" transform="translate(0 0)">
			<path id="Path_1025" class="st1" d="M57.8,30.1c-4.1-9.2-11.7-15.5-20.8-17.3c0.2-2.4,0-4.9-0.5-7.3C36.3,4.5,37,3.4,38,3.1
				c1-0.4,2.1,0.1,2.6,1c0.9,1.8,1.6,3.8,2,5.8c0.2,0.7,0.8,1.2,1.6,1c0.7-0.2,1.2-0.8,1-1.6C44.7,7.2,43.9,5,42.9,3
				c-1-2.2-3.5-3.2-5.8-2.4c-2.3,0.7-3.6,3.1-3.1,5.4c0.4,2.1,0.6,4.2,0.4,6.4c-13.6-1.3-23.9,7.9-17.7,20.8
				c-1.5,2.1-2.8,4.3-3.7,6.7c-2.7-3.1-4.3-7-4.6-11.1c0-0.5-0.3-1-0.8-1.1l-2.9-1.2c-1.4-0.6-2.1-2.2-1.5-3.7
				c0.4-1,1.5-1.7,2.6-1.7l2.8,0.1c0.6,0,1.1-0.3,1.2-0.8c0.6-1.6,1.4-3.2,2.3-4.6c0.3-0.4,0.3-1,0-1.4l-2.4-3.4
				c-0.9-1.3-0.5-3,0.8-3.9c0.9-0.6,2.2-0.6,3.1,0l2.7,1.9c0.5,0.3,1.2,0.3,1.6-0.1c1.3-1.2,2.6-2.2,4-3.2C22.9,5,24,4.8,24.9,5.1
				c1.1,0.4,1.9,1.2,2.3,2.3c0.2,0.7,1,1,1.7,0.8c0.7-0.2,1-1,0.8-1.7c0,0,0,0,0,0c-0.7-1.8-2.1-3.3-4-3.9C24,2,22.1,2.4,20.6,3.4
				c-1.2,0.8-2.4,1.7-3.5,2.7l-1.9-1.3c-4.9-3.4-10.9,2.6-7.5,7.5l1.9,2.7c-0.7,1.1-1.2,2.3-1.7,3.5l-1.9,0c-3-0.1-5.5,2.3-5.5,5.3
				c0,2.2,1.3,4.3,3.4,5.1l2.2,0.9c0.5,4.9,2.7,9.5,6.2,13c-0.9,4-0.8,8.2,0.5,12.2L12,56.1c-0.4,0.6-0.1,1.4,0.5,1.8
				c0.6,0.4,1.4,0.1,1.8-0.5l0.8-1.3c0.4-0.6,1.2-0.8,1.8-0.5c0.2,0.1,0.4,0.3,0.5,0.5l10.5,18.2c0.4,0.6,0.1,1.4-0.5,1.8
				c-0.2,0.1-0.4,0.2-0.7,0.2h-21c-0.7,0-1.3-0.6-1.3-1.3c0-0.2,0.1-0.5,0.2-0.7l6-10.4c0.4-0.6,0.1-1.4-0.5-1.8
				c-0.6-0.4-1.4-0.1-1.8,0.5l0,0L2.3,73c-1.1,1.9-0.4,4.3,1.4,5.4c0.6,0.3,1.3,0.5,2,0.5h21c2.2,0,3.9-1.8,3.9-3.9
				c0-0.7-0.2-1.4-0.5-2L19.5,54.8c-1-1.7-3-2.4-4.8-1.7c-1.6-6.4-0.1-12.8,4.3-18.7c4.2-2.2,8.4-2.6,12.4-2.7
				c0.3,3.5,4.3,4,7.2,4.9c-0.7,1.6-2.4,2.4-4.1,2c-0.7-0.1-1.4,0.4-1.5,1.1c-0.1,0.7,0.4,1.4,1.1,1.5c2.8,0.6,5.7-0.8,6.9-3.5
				c0.3,0.2,0.5,0.5,0.6,0.8c0.3,0.7,1,1,1.7,0.7c0.7-0.3,1-1,0.7-1.7c-1-2.5-3.7-3.2-6.2-3.9c-2.6-0.7-3.6-1.2-3.8-2
				c2.2,0,4.3-0.1,6.5-0.4c0.7-0.1,1.2-0.8,1.1-1.5c-0.1-0.7-0.8-1.2-1.5-1.1l0,0c-6.1,1-13.6-0.8-21.4,2.9
				c-8.4-19,25.6-25.1,36.6-0.4c1.9,4.7,2.7,9.8,2.4,14.8c-3.8,4.6-7.4,5.1-11.1,4.5c-0.1,0-0.1,0-0.2,0c-4.6-0.8-9.5-3.3-14.6-1.6
				c-0.9-0.7-1.5-1.8-1.5-3c-0.1-0.7-0.7-1.2-1.4-1.2c-0.7,0.1-1.2,0.7-1.2,1.4c0.1,1.5,0.7,2.9,1.7,4c-1.6,1.1-3,2.4-4.1,4
				c-0.4,0.6-0.3,1.4,0.3,1.8c0.6,0.4,1.4,0.3,1.8-0.3c5.6-7.4,11-4.3,17.5-2.9c-0.9,2.1-4.5,4.5-6.3,7.2c-0.7-0.1-1.4-0.3-2-0.5
				c-0.7-0.2-1.4,0.1-1.7,0.8c-0.2,0.7,0.1,1.4,0.8,1.6c0.6,0.2,1.3,0.4,1.9,0.5c-0.1,0.7-0.1,1.4,0.2,2.1c0.2,0.7,0.9,1.1,1.6,0.9
				c0.7-0.2,1.1-0.9,0.9-1.6c0,0,0-0.1,0-0.1c-0.2-0.6-0.1-1.3,0.2-1.8c0,0,0-0.1,0.1-0.1c1.4-2.8,6.1-5.3,7-8.7
				c3.7,0.5,7.3-0.7,10-3.2c-0.6,6.6-1.8,12.4-0.8,16.6C59,76,47.4,78,37.3,74.8c-0.7-0.2-1.4,0.2-1.6,0.9s0.2,1.4,0.9,1.6
				c13.7,4.3,25.4-0.6,22.8-11.3C57.5,58.9,63.8,43.6,57.8,30.1L57.8,30.1z"/>
			<path id="Path_1026" class="st1" d="M16.2,68.3c0.7,0,1.3-0.6,1.3-1.3l0,0v-5.2c0-0.7-0.6-1.3-1.3-1.3c-0.7,0-1.3,0.6-1.3,1.3
				c0,0,0,0,0,0V67C14.8,67.7,15.4,68.3,16.2,68.3L16.2,68.3z"/>
			<path id="Path_1027" class="st1" d="M14.8,72.6c0,0.7,0.6,1.3,1.3,1.3c0.7,0,1.3-0.6,1.3-1.3c0,0,0,0,0,0V72
				c0-0.7-0.6-1.3-1.3-1.3c-0.7,0-1.3,0.6-1.3,1.3c0,0,0,0,0,0V72.6z"/>
		</g>
	</g>
</g>
</svg>
