<?xml version="1.0" encoding="utf-8"?>
<!-- Generator: Adobe Illustrator 27.4.1, SVG Export Plug-In . SVG Version: 6.00 Build 0)  -->
<svg version="1.1" id="Layer_1" xmlns="http://www.w3.org/2000/svg" xmlns:xlink="http://www.w3.org/1999/xlink" x="0px" y="0px"
	 viewBox="0 0 125.3 125.2" style="enable-background:new 0 0 125.3 125.2;" xml:space="preserve">
<style type="text/css">
	.st0{fill:#b92216;}
	.st1{fill:#FFFFFF;}
</style>
<circle id="Ellipse_102" class="st0" cx="62.8" cy="62.6" r="62.3"/>
<g id="Diabetes" transform="translate(36.745 23.644)">
	<g id="_001-diabetes" transform="translate(0 0)">
		<path id="Path_991" class="st1" d="M40,0.4H11.3C5.3,0.4,0.5,5.2,0.5,11.1v31.5c0,11.6,7.9,21.7,19.2,24.4v13.9
			c0,0.7,0.5,1.2,1.2,1.2h9.6c0.7,0,1.2-0.5,1.2-1.2V67c11.2-2.8,19.2-12.8,19.2-24.4V11.1C50.8,5.2,46,0.4,40,0.4z M29.2,70.1h-7.2
			v-12h7.2V70.1z M22.1,79.7v-7.2h7.2v7.2L22.1,79.7z M48.4,42.6c0,10.3-6.9,19.2-16.8,22V57c0-0.7-0.5-1.2-1.2-1.2h-9.6
			c-0.7,0-1.2,0.5-1.2,1.2v7.6c-9.9-2.7-16.7-11.7-16.8-22V11.1c0-4.6,3.8-8.4,8.4-8.4H40c4.6,0,8.4,3.8,8.4,8.4L48.4,42.6z"/>
		<path id="Path_992" class="st1" d="M41.2,11.1c0-0.7-0.5-1.2-1.2-1.2H11.3c-0.7,0-1.2,0.5-1.2,1.2v23.1c0,0.7,0.5,1.2,1.2,1.2H40
			c0.7,0,1.2-0.5,1.2-1.2L41.2,11.1z M38.8,33H12.5V12.3h26.3L38.8,33z"/>
		<circle id="Ellipse_100" class="st1" cx="25.6" cy="76.1" r="1.1"/>
		<path id="Path_993" class="st1" d="M40,5.1H11.3c-3.3,0-6,2.7-6,6c0,0.7,0.5,1.2,1.2,1.2c0.7,0,1.2-0.5,1.2-1.2c0,0,0,0,0,0
			c0-2,1.6-3.6,3.6-3.6H40c2,0,3.6,1.6,3.6,3.6v31.5c0,5.6-2.7,11-7.2,14.4c0-3.3-2.7-6-6-6h-9.6c-3.3,0-6,2.7-6,6
			c-4.5-3.4-7.2-8.7-7.2-14.4V15.9c0-0.7-0.5-1.2-1.2-1.2c-0.7,0-1.2,0.5-1.2,1.2v26.7c0,7.3,3.9,14,10.2,17.6
			c0.6,0.3,1.3,0.1,1.6-0.4c0.1-0.2,0.2-0.4,0.2-0.6V57c0-2,1.6-3.6,3.6-3.6h9.6c2,0,3.6,1.6,3.6,3.6v2.2c0,0.7,0.5,1.2,1.2,1.2
			c0.2,0,0.4-0.1,0.6-0.2C42.1,56.6,46,49.8,46,42.6V11.1C46,7.8,43.3,5.1,40,5.1z"/>
		<path id="Path_994" class="st1" d="M14.9,47.4c2.6,0,4.8-2.1,4.8-4.8s-2.1-4.8-4.8-4.8s-4.8,2.1-4.8,4.8v0
			C10.1,45.2,12.2,47.4,14.9,47.4z M14.9,40.2c1.3,0,2.4,1.1,2.4,2.4c0,1.3-1.1,2.4-2.4,2.4c-1.3,0-2.4-1.1-2.4-2.4
			C12.5,41.3,13.5,40.2,14.9,40.2L14.9,40.2z"/>
		<path id="Path_995" class="st1" d="M36.4,37.8c-2.6,0-4.8,2.1-4.8,4.8c0,2.6,2.1,4.8,4.8,4.8c2.6,0,4.8-2.1,4.8-4.8
			C41.2,39.9,39.1,37.8,36.4,37.8z M36.4,45c-1.3,0-2.4-1.1-2.4-2.4c0-1.3,1.1-2.4,2.4-2.4c1.3,0,2.4,1.1,2.4,2.4
			C38.8,43.9,37.7,45,36.4,45z"/>
		<path id="Path_996" class="st1" d="M25.6,30.6c3.3,0,6-2.7,6-6c0-1.2-0.3-2.3-1-3.3l-4-6.1c-0.4-0.6-1.1-0.7-1.7-0.3
			c-0.1,0.1-0.2,0.2-0.3,0.3l-4,6.1c-1.8,2.8-1.1,6.5,1.7,8.3C23.3,30.3,24.5,30.6,25.6,30.6z M22.6,22.6l3-4.5l3,4.5
			c1.1,1.7,0.6,3.9-1,5c-1.7,1.1-3.9,0.6-5-1C21.9,25.4,21.9,23.8,22.6,22.6z"/>
	</g>
</g>
</svg>
