<svg xmlns="http://www.w3.org/2000/svg" width="124.536" height="124.536" viewBox="0 0 124.536 124.536"><circle cx="62.268" cy="62.268" r="62.268" transform="translate(0)" fill="#dc0a2d"/><g transform="translate(36.745 23.644)"><g transform="translate(0 0)"><path d="M138.017,0h-28.74A10.79,10.79,0,0,0,98.5,10.777V42.232A25.156,25.156,0,0,0,117.66,66.66V80.552a1.2,1.2,0,0,0,1.2,1.2h9.58a1.2,1.2,0,0,0,1.2-1.2V66.66a25.156,25.156,0,0,0,19.16-24.428V10.777A10.79,10.79,0,0,0,138.017,0ZM127.24,69.774h-7.185V57.8h7.185Zm-7.185,9.58V72.169h7.185v7.185ZM146.4,42.232a22.823,22.823,0,0,1-16.765,21.956V56.6a1.2,1.2,0,0,0-1.2-1.2h-9.58a1.2,1.2,0,0,0-1.2,1.2v7.586a22.824,22.824,0,0,1-16.765-21.956V10.777a8.392,8.392,0,0,1,8.382-8.382h28.74a8.392,8.392,0,0,1,8.382,8.382Z" transform="translate(-98.5)" fill="#ededf2"/><path d="M189.635,61.2a1.2,1.2,0,0,0-1.2-1.2H159.7a1.2,1.2,0,0,0-1.2,1.2V84.269a1.2,1.2,0,0,0,1.2,1.2h28.74a1.2,1.2,0,0,0,1.2-1.2Zm-2.4,21.874H160.895V62.395H187.24Z" transform="translate(-148.92 -50.42)" fill="#ededf2"/><circle cx="1.125" cy="1.125" r="1.125" transform="translate(24.022 74.634)" fill="#ededf2"/><path d="M163.227,30h-28.74a5.994,5.994,0,0,0-5.987,5.987,1.2,1.2,0,1,0,2.4,0,3.6,3.6,0,0,1,3.592-3.592h28.74a3.6,3.6,0,0,1,3.592,3.592V67.442a18.04,18.04,0,0,1-7.185,14.36,5.994,5.994,0,0,0-5.987-5.977h-9.58A5.994,5.994,0,0,0,138.08,81.8,18.04,18.04,0,0,1,130.9,67.442V40.777a1.2,1.2,0,0,0-2.4,0V67.442a20.445,20.445,0,0,0,10.177,17.624,1.2,1.2,0,0,0,1.8-1.036V81.812a3.6,3.6,0,0,1,3.593-3.592h9.58a3.6,3.6,0,0,1,3.592,3.592V84.03a1.2,1.2,0,0,0,1.8,1.036,20.445,20.445,0,0,0,10.177-17.624V35.987A5.994,5.994,0,0,0,163.227,30Z" transform="translate(-123.71 -25.21)" fill="#ededf2"/><path d="M163.29,244.08a4.79,4.79,0,1,0-4.79-4.79A4.8,4.8,0,0,0,163.29,244.08Zm0-7.185a2.395,2.395,0,1,1-2.4,2.395A2.4,2.4,0,0,1,163.29,236.9Z" transform="translate(-148.92 -197.058)" fill="#ededf2"/><path d="M298.29,234.5a4.79,4.79,0,1,0,4.79,4.79A4.8,4.8,0,0,0,298.29,234.5Zm0,7.185a2.395,2.395,0,1,1,2.395-2.4A2.4,2.4,0,0,1,298.29,241.685Z" transform="translate(-262.365 -197.058)" fill="#ededf2"/><path d="M224.487,105.887a5.987,5.987,0,0,0,5-9.284l-4-6.064a1.2,1.2,0,0,0-2,0l-4,6.064a5.988,5.988,0,0,0,5,9.284Zm-3-7.965,3-4.549,3,4.549a3.592,3.592,0,1,1-6,0Z" transform="translate(-199.34 -75.63)" fill="#ededf2"/></g></g></svg>