<svg xmlns="http://www.w3.org/2000/svg" xmlns:xlink="http://www.w3.org/1999/xlink" width="211" height="215" viewBox="0 0 211 215">
  <defs>
    <clipPath id="clip-path">
      <rect id="Rect치ngulo_740" data-name="Rect치ngulo 740" width="211" height="215"/>
    </clipPath>
  </defs>
  <g id="icono-cardiaca" clip-path="url(#clip-path)">
    <g id="Grupo_10267" data-name="Grupo 10267" transform="translate(2.904 4.356)">
      <path id="Trazado_656" data-name="Trazado 656" d="M205.61,102.805A102.805,102.805,0,1,1,102.805,0,102.805,102.805,0,0,1,205.61,102.805" transform="translate(0 0)" fill="#b92216"/>
      <path id="Trazado_657" data-name="Trazado 657" d="M101.955,151.458c-24.518,0-40.479-23.149-46.58-32C41.59,99.468,40.886,82.794,42.723,72.321c.739-4.211,1.978-11.252,7.651-17.279,10.867-11.55,31.441-12.7,43.165-2.41a25.541,25.541,0,0,1,4.927,5.862,26.353,26.353,0,0,1,21.987-11.677,35.376,35.376,0,0,1,35.334,35.336V88.73c0,.306-.013.613-.036.913a67.384,67.384,0,0,1-13.465,37.82c-11.571,15.247-24.525,23.3-38.5,23.959-.614.029-1.228.044-1.831.044M73.593,52.046a25.568,25.568,0,0,0-18.518,7.417c-4.018,4.268-5.163,9.245-6,13.979-1.629,9.28-.938,24.162,11.6,42.356,5.7,8.265,20.724,30.191,42.8,29.178,18.049-.842,29.8-16.322,33.664-21.41a60.041,60.041,0,0,0,10.71-23.456,12.052,12.052,0,0,1-4.223.758h-8.871a10.038,10.038,0,0,1-9.862-8.187l-2.178-11.638-3.21,14.166a3.653,3.653,0,0,1-3.572,2.852h-5.633a2.6,2.6,0,0,0-2.431,1.69l-3.568,9.584a5.283,5.283,0,0,1-10.054-.484L89.527,91.078a9.98,9.98,0,0,1-9.48,6.984h-21.6a3.226,3.226,0,0,1,0-6.451H80.051a3.485,3.485,0,0,0,3.34-2.5l1.041-3.555a5.317,5.317,0,0,1,5.152-3.864h.051a5.323,5.323,0,0,1,5.129,3.989l4.792,17.965,2.277-6.145a9.08,9.08,0,0,1,8.476-5.89h3.408l4.744-20.93a4.519,4.519,0,0,1,4.44-3.549h.091a4.517,4.517,0,0,1,4.391,3.719l3.86,20.645a3.582,3.582,0,0,0,3.521,2.922h8.871a5.705,5.705,0,0,0,5.672-5.177c.007-.195.016-.386.023-.574V82.153a28.916,28.916,0,0,0-28.877-28.884A19.954,19.954,0,0,0,101.8,65.943l-.468,1.185a3.226,3.226,0,0,1-6.068-.2,20.84,20.84,0,0,0-5.981-9.45,23.8,23.8,0,0,0-15.691-5.432" transform="translate(3.928 13.264)" fill="#fff"/>
      <rect id="Rect치ngulo_279" data-name="Rect치ngulo 279" width="205.61" height="205.61" transform="translate(0 0)" fill="none"/>
    </g>
  </g>
</svg>
