<svg xmlns="http://www.w3.org/2000/svg" width="124.536" height="124.536" viewBox="0 0 124.536 124.536"><circle cx="62.268" cy="62.268" r="62.268" transform="translate(0 0)" fill="#dc0a2d"/><g transform="translate(22.817 22.067)"><path d="M68.722,29.081l3.047-1.523-2.612-2.612,8.656-5.409L76.491,17.42,65.173,24.495l2.382,2.382-1.273.637a23.55,23.55,0,0,0-3.808-1.728L60.506,25.1l5.247-7.872H61.476l3.114-8.3-2.338-.876L57.873,19.726h3.213l-3.016,4.525L53.041,22.5a5,5,0,0,1-3.353-4.718V16.634A33.041,33.041,0,0,0,61.627,2.77L62.442,1H16.958l.815,1.77a33.034,33.034,0,0,0,11.94,13.863v1.151A5,5,0,0,1,26.36,22.5l-9.433,3.281A23.74,23.74,0,0,0,1,48.186V64.668A13.749,13.749,0,0,0,14.732,78.4H78.4V48.186a23.737,23.737,0,0,0-9.679-19.1ZM20.926,3.5H58.474A30.436,30.436,0,0,1,39.7,18.433,30.442,30.442,0,0,1,20.926,3.5ZM75.9,75.9H63.42V53.736a11.463,11.463,0,0,1,3.379-8.16l-1.765-1.765a13.943,13.943,0,0,0-4.111,9.925V75.9H22.9L37.778,62.093l4.754-.793a8.682,8.682,0,0,0,4.741-2.441L57.285,48.847A3.891,3.891,0,0,0,56.1,42.532,3.88,3.88,0,0,0,54.85,36.29a3.861,3.861,0,0,0,1.08-2.68,3.9,3.9,0,0,0-6.651-2.755L48.1,32.033a3.891,3.891,0,0,0-6.312-1.178l-4.775,4.775a8.522,8.522,0,0,0-3.6-5.379,3.177,3.177,0,0,0-4.944,2.639v1.287a6.022,6.022,0,0,1-1.774,4.285l-1.908,1.908a8.682,8.682,0,0,0-2.559,6.18v3.871l-3.745,3.745v-.428a13.943,13.943,0,0,0-4.111-9.925L12.6,45.577a11.467,11.467,0,0,1,3.378,8.16v2.925L7.608,65.034,9.373,66.8,24.72,51.453v-4.9a6.206,6.206,0,0,1,1.828-4.414l1.908-1.908a8.5,8.5,0,0,0,2.507-6.05V32.889a.7.7,0,0,1,1.059-.564,6.051,6.051,0,0,1,2.687,5.035v.576l-4.628,4.628-.064.064,1.765,1.765.064-.064L37.2,38.969l6.349-6.349a1.4,1.4,0,0,1,1.98,1.98l-9.212,9.212,1.765,1.765L47.3,36.365l3.745-3.745a1.4,1.4,0,0,1,1.98,1.98l-2.5,2.5-10.46,10.46,1.765,1.765,10.46-10.46a1.4,1.4,0,0,1,1.98,1.98l-2.5,2.5L43.811,51.3l1.765,1.765L53.54,45.1a1.4,1.4,0,0,1,1.98,1.98L45.508,57.1a6.2,6.2,0,0,1-3.387,1.743l-5.492.915L19.235,75.9h-4.5A11.249,11.249,0,0,1,3.5,64.668V48.186A21.24,21.24,0,0,1,17.747,28.14l9.433-3.281a7.487,7.487,0,0,0,5-6.761,33.092,33.092,0,0,0,7.2,2.835l.318.084.317-.084a33.067,33.067,0,0,0,7.2-2.835,7.487,7.487,0,0,0,5,6.761L56.639,26.4,54.89,29.02,56.967,30.4l2.107-3.161,2.578.9c.637.221,1.252.479,1.856.757l-6.89,3.444,1.117,2.233,8.445-4.223A21.248,21.248,0,0,1,75.9,48.186Z" transform="translate(-1 -1)" fill="#ededf2"/><path d="M35.49,11.745h2.5c0-2.1-2.193-3.745-4.994-3.745S28,9.645,28,11.745h2.5c0-.509.973-1.248,2.5-1.248S35.49,11.236,35.49,11.745Z" transform="translate(5.707 0.739)" fill="#ededf2"/></g></svg>