<?xml version="1.0" encoding="utf-8"?>
<!-- Generator: Adobe Illustrator 27.4.1, SVG Export Plug-In . SVG Version: 6.00 Build 0)  -->
<svg version="1.1" id="Layer_1" xmlns="http://www.w3.org/2000/svg" xmlns:xlink="http://www.w3.org/1999/xlink" x="0px" y="0px"
	 viewBox="0 0 125.3 125.2" style="enable-background:new 0 0 125.3 125.2;" xml:space="preserve">
<style type="text/css">
	.st0{fill:#b92216;}
	.st1{fill:#FFFFFF;}
</style>
<circle id="Ellipse_106" class="st0" cx="62.6" cy="62.6" r="62.3"/>
<g id="_005-dolor-de-pecho" transform="translate(22.817 22.067)">
	<path id="Path_1029" class="st1" d="M68.1,28.4l3-1.5l-2.6-2.6l8.7-5.4l-1.3-2.1l-11.3,7.1l2.4,2.4l-1.3,0.6
		c-1.2-0.7-2.5-1.3-3.8-1.7l-2-0.7l5.2-7.9h-4.3L64,8.3l-2.3-0.9l-4.4,11.7h3.2l-3,4.5l-5-1.8c-2-0.7-3.4-2.6-3.4-4.7V16
		c5.2-3.4,9.3-8.2,11.9-13.9l0.8-1.8H16.3l0.8,1.8c2.6,5.7,6.7,10.5,11.9,13.9v1.2c0,2.1-1.3,4-3.4,4.7l-9.4,3.3
		C6.8,28.5,0.4,37.4,0.4,47.5V64c0,7.6,6.2,13.7,13.7,13.7h63.7V47.5C77.8,40,74.2,32.9,68.1,28.4L68.1,28.4z M20.3,2.9h37.5
		c-3.9,7.3-10.7,12.7-18.8,14.9C31,15.6,24.3,10.2,20.3,2.9z M75.3,75.3H62.8V53.1c0-3.1,1.2-6,3.4-8.2l-1.8-1.8
		c-2.6,2.6-4.1,6.2-4.1,9.9v22.2h-38l14.9-13.8l4.8-0.8c1.8-0.3,3.5-1.2,4.7-2.4l10-10c1.5-1.5,1.5-4,0-5.5
		c-0.3-0.3-0.7-0.6-1.2-0.8c1.5-1.5,1.4-4-0.1-5.5c-0.3-0.3-0.7-0.6-1.1-0.8c0.7-0.7,1.1-1.7,1.1-2.7c0-2.2-1.8-3.9-3.9-3.9
		c-1,0-2,0.4-2.7,1.1l-1.2,1.2c-0.9-2-3.2-2.9-5.1-2c-0.4,0.2-0.8,0.5-1.2,0.8L36.4,35c-0.4-2.2-1.7-4.1-3.6-5.4
		c-1.5-1-3.4-0.6-4.4,0.9c-0.3,0.5-0.5,1.1-0.5,1.8v1.3c0,1.6-0.6,3.2-1.8,4.3l-1.9,1.9c-1.6,1.6-2.6,3.9-2.6,6.2v3.9l-3.7,3.7v-0.4
		c0-3.7-1.5-7.3-4.1-9.9L12,44.9c2.2,2.2,3.4,5.1,3.4,8.2V56L7,64.4l1.8,1.8l15.3-15.3v-4.9c0-1.7,0.7-3.2,1.8-4.4l1.9-1.9
		c1.6-1.6,2.5-3.8,2.5-6v-1.3c0-0.4,0.3-0.7,0.7-0.7c0.1,0,0.2,0,0.3,0.1c1.7,1.1,2.7,3,2.7,5v0.6l-4.6,4.6L29.4,42l1.8,1.8l0.1-0.1
		l5.4-5.4l6.3-6.3c0.5-0.5,1.4-0.5,2,0s0.5,1.4,0,2l-9.2,9.2l1.8,1.8l9.2-9.2l3.7-3.7c0.5-0.5,1.4-0.5,2,0s0.5,1.4,0,2l-2.5,2.5
		L39.4,46.9l1.8,1.8l10.5-10.5c0.5-0.5,1.4-0.5,2,0s0.5,1.4,0,2l-2.5,2.5l-8,8l1.8,1.8l8-8c0.5-0.5,1.4-0.5,2,0s0.5,1.4,0,2l-10,10
		c-0.9,0.9-2.1,1.5-3.4,1.7L36,59.1L18.6,75.3h-4.5c-6.2,0-11.2-5-11.2-11.2V47.5c0-9,5.7-17.1,14.2-20l9.4-3.3c2.9-1,4.9-3.7,5-6.8
		c2.3,1.2,4.7,2.2,7.2,2.8l0.3,0.1l0.3-0.1c2.5-0.7,4.9-1.6,7.2-2.8c0.1,3.1,2.1,5.7,5,6.8l4.4,1.5l-1.7,2.6l2.1,1.4l2.1-3.2
		l2.6,0.9c0.6,0.2,1.3,0.5,1.9,0.8L56,31.7l1.1,2.2l8.4-4.2c6.1,3.9,9.7,10.6,9.7,17.8V75.3z"/>
	<path id="Path_1030" class="st1" d="M41.6,12.8h2.5c0-2.1-2.2-3.7-5-3.7s-5,1.6-5,3.7h2.5c0-0.5,1-1.2,2.5-1.2S41.6,12.3,41.6,12.8
		z"/>
</g>
</svg>
