<svg xmlns="http://www.w3.org/2000/svg" xmlns:xlink="http://www.w3.org/1999/xlink" width="351" height="129" viewBox="0 0 351 129"><defs><filter id="a" x="0" y="0" width="351" height="129" filterUnits="userSpaceOnUse"><feOffset dy="3" input="SourceAlpha"/><feGaussianBlur stdDeviation="3" result="b"/><feFlood flood-opacity="0.161"/><feComposite operator="in" in2="b"/><feComposite in="SourceGraphic"/></filter></defs><g transform="translate(8.611 6)"><g transform="matrix(1, 0, 0, 1, -8.61, -6)" filter="url(#a)"><rect width="333" height="111" rx="20" transform="translate(9 6)" fill="#f2f5f4"/></g><path d="M11.431-13.2v-2.07A.825.825,0,0,0,10.6-16.1h-8.4a.82.82,0,0,0-.8.828V-.828a.82.82,0,0,0,.8.828h2.3a.825.825,0,0,0,.828-.828V-5.612h4.6a.82.82,0,0,0,.828-.8V-8.51a.82.82,0,0,0-.828-.805h-4.6V-12.4H10.6A.82.82,0,0,0,11.431-13.2Zm9.89,2.162v.529a3.976,3.976,0,0,0-3.289-1.426c-3.634,0-5.589,3.059-5.589,6.118,0,3.036,1.955,6.1,5.589,6.1A3.976,3.976,0,0,0,21.321-1.15v.529A.618.618,0,0,0,21.942,0h2.3a.825.825,0,0,0,.828-.828V-10.833a.825.825,0,0,0-.828-.828h-2.3A.618.618,0,0,0,21.321-11.04ZM18.7-3.335a2.354,2.354,0,0,1-2.484-2.484A2.36,2.36,0,0,1,18.7-8.326a2.39,2.39,0,0,1,2.507,2.507A2.384,2.384,0,0,1,18.7-3.335ZM34.155-9.407v-1.426a.825.825,0,0,0-.828-.828H31.855v-1.633a.815.815,0,0,0-.805-.805H28.934a.815.815,0,0,0-.805.805v1.633H27.3a.825.825,0,0,0-.828.828v1.426a.825.825,0,0,0,.828.828h.828v4.048c0,2.3.828,4.738,4.416,4.738a6.843,6.843,0,0,0,1.1-.092.6.6,0,0,0,.506-.6V-2.461a.586.586,0,0,0-.621-.6h-.069c-1.173,0-1.61-.621-1.61-1.84v-3.68h1.472A.825.825,0,0,0,34.155-9.407ZM37.375,0h2.093A.825.825,0,0,0,40.3-.828V-10.833a.825.825,0,0,0-.828-.828H37.375a.825.825,0,0,0-.828.828V-.828A.825.825,0,0,0,37.375,0Zm1.058-12.972a1.953,1.953,0,0,0,1.955-1.955,1.953,1.953,0,0,0-1.955-1.955,1.973,1.973,0,0,0-1.978,1.955A1.973,1.973,0,0,0,38.433-12.972ZM50.991-11.04v.644a3.75,3.75,0,0,0-3.266-1.541,5.43,5.43,0,0,0-5.612,5.7,5.43,5.43,0,0,0,5.612,5.7,3.866,3.866,0,0,0,3.266-1.426v.529c0,1.817-.69,3.059-2.967,3.059A3.637,3.637,0,0,1,45.609.851.624.624,0,0,0,44.9.805L43.125,1.84a.622.622,0,0,0-.115.966,7.3,7.3,0,0,0,5.2,1.84c4.117,0,6.532-2.346,6.532-5.681v-9.8a.825.825,0,0,0-.828-.828h-2.3A.618.618,0,0,0,50.991-11.04Zm-2.6,7.291a2.36,2.36,0,0,1-2.507-2.484A2.366,2.366,0,0,1,48.392-8.74a2.372,2.372,0,0,1,2.484,2.507A2.366,2.366,0,0,1,48.392-3.749ZM65.458-11.04v.529a3.976,3.976,0,0,0-3.289-1.426c-3.634,0-5.589,3.059-5.589,6.118,0,3.036,1.955,6.1,5.589,6.1A3.976,3.976,0,0,0,65.458-1.15v.529A.618.618,0,0,0,66.079,0h2.3a.825.825,0,0,0,.828-.828V-10.833a.825.825,0,0,0-.828-.828h-2.3A.618.618,0,0,0,65.458-11.04ZM62.836-3.335a2.354,2.354,0,0,1-2.484-2.484,2.36,2.36,0,0,1,2.484-2.507,2.39,2.39,0,0,1,2.507,2.507A2.384,2.384,0,0,1,62.836-3.335Z" transform="translate(109.389 65)" fill="#0b2c50"/><g transform="translate(24.896 22.095)"><circle cx="33.651" cy="33.651" r="33.651" transform="translate(0)" fill="#3fa3a7"/><g transform="translate(11.907 12.415)"><path d="M-767.7-16.241l.147-1.413a7.808,7.808,0,0,1,5.313,2.82,7.723,7.723,0,0,1,1.846,5.109q-.006,4.451,0,8.9V-.36h-1.429v-1.4h-5.04V9.757h5.022V1.134h1.427c.007.147.02.292.02.437q0,4.361,0,8.722c0,.716-.225.94-.944.94h-26.3c-.74,0-.952-.219-.952-.976q0-7,0-14.009v-.632c-.968.447-2.005.516-2.828,1.2A4.89,4.89,0,0,1-799.34-6.1a5.169,5.169,0,0,1,.694-3.721c2.492-4.136,4.954-8.29,7.466-12.414a9.131,9.131,0,0,0,.874-2.395c.04-.143.079-.287.13-.47l1.408.355a12.909,12.909,0,0,1-.924,2.864q-3.877,6.41-7.714,12.844a3.662,3.662,0,0,0,.484,4.53,3.434,3.434,0,0,0,5.6-1.189c.867-1.982,1.706-3.977,2.557-5.966.763-1.782,1.516-3.568,2.3-5.34a1.822,1.822,0,0,1,.582-.71c2.313-1.656,4.641-3.291,6.964-4.932a1.084,1.084,0,0,0,.312-1.787q-.923-1.283-1.857-2.558a1.076,1.076,0,0,0-1.759-.288c-1.061.768-2.124,1.533-3.177,2.31a.812.812,0,0,1-.995.129.782.782,0,0,1-.3-.912c.116-.635.216-1.275.282-1.917a.77.77,0,0,0-.64-.852.8.8,0,0,0-.9.583c-.043.128-.066.262-.1.393-.118.447-.236.893-.36,1.361l-1.443-.372a18.748,18.748,0,0,1,.746-2.311,2.134,2.134,0,0,1,2.376-1.079c.114.023.229.044.36.069a2.924,2.924,0,0,1,2.275-2.219,2.913,2.913,0,0,1,.627-.053q3.976-.005,7.952,0a6.489,6.489,0,0,1,6.456,6.475c0,.238,0,.477,0,.707,1.946.32,2.96,1.438,2.889,3.148a2.937,2.937,0,0,1-2.889,2.7c0,.47,0,.947,0,1.424a8.644,8.644,0,0,1-6.56,8.417,8.674,8.674,0,0,1-10.048-4.88c-.059-.132-.121-.263-.222-.483l-3.883,9.059a1.911,1.911,0,0,0,.319-.043c.385-.127.766-.267,1.15-.4.767-.259,1.168.023,1.168.825q0,7.185,0,14.37v.576h18.789V-6.093h1.437v2.838h5.083V-3.7q0-2.915,0-5.83a6.506,6.506,0,0,0-5.667-6.64A1.346,1.346,0,0,1-767.7-16.241Zm-11.549-4.382.386.9c-.549.144-1.036.281-1.528.4a3.113,3.113,0,0,0-.951.2c-1.142.754-2.25,1.559-3.359,2.36a.451.451,0,0,0-.141.364,7.254,7.254,0,0,0,7.423,5.933,7.254,7.254,0,0,0,6.9-7.252q.016-2.236-.006-4.471a1.143,1.143,0,0,0-.17-.582c-.721-1.11-1.467-2.2-2.19-3.311a.566.566,0,0,0-.543-.294c-1.46.013-2.92.005-4.38.008-.108,0-.216.023-.369.04.29.4.546.753.8,1.106a2.489,2.489,0,0,1-.607,3.7C-778.394-21.22-778.813-20.929-779.247-20.623Zm8.666-4.638c.04-.067.065-.089.066-.112a5.1,5.1,0,0,0-3.732-5.138,5.564,5.564,0,0,0-1.335-.186c-2.62-.018-5.24-.013-7.86-.007a1.425,1.425,0,0,0-1.457,1.051,1.43,1.43,0,0,0,.571,1.583.513.513,0,0,0,.723,0,7.227,7.227,0,0,1,.8-.581,2.422,2.422,0,0,1,3.308.539.742.742,0,0,0,.68.31c1.943-.01,3.885.012,5.828-.016a1.146,1.146,0,0,1,1.107.6C-771.471-26.56-771.025-25.926-770.582-25.261Zm1.537,4.66a1.458,1.458,0,0,0,1.422-1.434,1.442,1.442,0,0,0-1.422-1.416Z" transform="translate(799.432 32.152)" fill="#fff"/><path d="M-653.856,166.011l.548,1.268a13.086,13.086,0,0,1-10.666.029l.557-1.3A12.376,12.376,0,0,0-653.856,166.011Z" transform="translate(680.325 -142.091)" fill="#fff"/><path d="M-476.27,41.272l.987,1.064c-.571.535-1.116,1.068-1.688,1.571-.229.2-.3.365-.138.645a9.1,9.1,0,0,1,.451.981.726.726,0,0,1-.15.872c-.776.731-1.559,1.456-2.367,2.208l-1-1.065c.58-.538,1.126-1.071,1.7-1.569a.446.446,0,0,0,.13-.649c-.172-.315-.309-.65-.45-.981a.745.745,0,0,1,.18-.9C-477.844,42.727-477.071,42.013-476.27,41.272Z" transform="translate(518.712 -32.409)" fill="#fff"/><path d="M-504.4-13.812c.363.351.7.674,1.032,1a.724.724,0,0,1,.175.9c-.464.943-.935,1.882-1.434,2.885l-1.307-.648,1.232-2.482c-.343-.319-.7-.644-1.044-.974a.717.717,0,0,1-.176-.9c.464-.943.935-1.882,1.434-2.886l1.307.649Z" transform="translate(541.427 18.755)" fill="#fff"/><path d="M-547.692,42.781v-2.85" transform="translate(578.08 -31.23)" fill="#fff"/><path d="M-640.3,100.769l-.8,1.145a4.424,4.424,0,0,0-4.976,0l-.783-1.121A5.52,5.52,0,0,1-640.3,100.769Z" transform="translate(665.281 -83.785)" fill="#fff"/><path d="M-605.279,60.789a5.411,5.411,0,0,1-4.932,0l.594-1.244a4.775,4.775,0,0,0,3.73-.008Z" transform="translate(633.053 -48.468)" fill="#fff"/></g></g></g></svg>