<svg xmlns="http://www.w3.org/2000/svg" width="2275.525" height="1133.022" preserveAspectRatio="none"
  viewBox="0 0 2275.525 1133.022">
  <g id="Grupo_664" data-name="Grupo 664" transform="translate(-1442.499 -770.542)">
    <g id="Grupo_658" data-name="Grupo 658" transform="translate(-9467.026 6723.669)" opacity="0.1">
      <path id="Trazado_270" data-name="Trazado 270"
        d="M381.771,191.61a8.312,8.312,0,0,1-3.993-1.021c-3.275-1.794-80.341-44.471-92.572-91.777-3.493-13.521-1.585-26.2,5.678-37.689,10.932-17.29,24.38-26.645,39.973-27.809,21.657-1.6,40.978,13.465,50.914,23.01,9.938-9.545,29.271-24.611,50.919-23.01,15.591,1.163,29.037,10.519,39.969,27.809,7.263,11.49,9.171,24.168,5.677,37.686-12.231,47.309-89.3,89.986-92.575,91.78a8.3,8.3,0,0,1-3.99,1.021M334.027,49.818c-.647,0-1.292.022-1.936.073-10.055.748-19.193,7.517-27.159,20.117-4.777,7.556-5.968,15.613-3.638,24.634,9,34.868,64.939,69.917,80.477,79.077,15.535-9.16,71.474-44.212,80.477-79.079,2.327-9.018,1.138-17.075-3.638-24.631-7.966-12.6-17.1-19.369-27.156-20.117-16.883-1.264-35.219,14.419-43.4,23.88a8.3,8.3,0,0,1-6.286,2.877h0a8.3,8.3,0,0,1-6.286-2.877c-7.863-9.1-25.125-23.953-41.455-23.953"
        transform="translate(10906.584 -5108.65)" fill="#e7e7e8" />
      <path id="Trazado_271" data-name="Trazado 271"
        d="M443.435,309.381A154.9,154.9,0,0,1,331.46,261.355H256.312a8.309,8.309,0,0,1-6.663-13.272L292.9,190a155.1,155.1,0,0,1-4.032-35.18C288.872,69.587,358.208.25,443.435.25S598,69.587,598,154.815,528.664,309.381,443.435,309.381M272.862,244.735h62.219a8.317,8.317,0,0,1,6.155,2.726,138.229,138.229,0,0,0,102.2,45.3c76.066,0,137.947-61.881,137.947-137.945S519.5,16.868,443.435,16.868,305.49,78.752,305.49,154.815a138.394,138.394,0,0,0,4.461,34.9,8.3,8.3,0,0,1-1.375,7.059Z"
        transform="translate(10843.022 -5167.628)" fill="#e7e7e8" />
      <path id="Trazado_272" data-name="Trazado 272"
        d="M376.24,116.667a3,3,0,0,1-2.832-2.006l-7.477-21.33H342.167a3,3,0,0,1-2.885-2.179l-8.164-28.769-8.566,28.8a2.994,2.994,0,0,1-2.874,2.143h-25.1a3,3,0,1,1,0-6h22.862l10.871-36.556a3,3,0,0,1,2.874-2.146h.02a3,3,0,0,1,2.865,2.182l10.362,36.519h23.624a3,3,0,0,1,2.832,2.009l5.226,14.9,5.683-17.7a3,3,0,0,1,2.854-2.081h56.884a3,3,0,1,1,0,6h-54.7l-7.745,24.126a3,3,0,0,1-2.815,2.081Z"
        transform="translate(10921.021 -5081.021)" fill="#e7e7e8" />
    </g>
    <g id="Grupo_659" data-name="Grupo 659" transform="translate(-9376.356 6342.669)" opacity="0.1">
      <path id="Trazado_270-2" data-name="Trazado 270"
        d="M381.771,191.61a8.312,8.312,0,0,1-3.993-1.021c-3.275-1.794-80.341-44.471-92.572-91.777-3.493-13.521-1.585-26.2,5.678-37.689,10.932-17.29,24.38-26.645,39.973-27.809,21.657-1.6,40.978,13.465,50.914,23.01,9.938-9.545,29.271-24.611,50.919-23.01,15.591,1.163,29.037,10.519,39.969,27.809,7.263,11.49,9.171,24.168,5.677,37.686-12.231,47.309-89.3,89.986-92.575,91.78a8.3,8.3,0,0,1-3.99,1.021M334.027,49.818c-.647,0-1.292.022-1.936.073-10.055.748-19.193,7.517-27.159,20.117-4.777,7.556-5.968,15.613-3.638,24.634,9,34.868,64.939,69.917,80.477,79.077,15.535-9.16,71.474-44.212,80.477-79.079,2.327-9.018,1.138-17.075-3.638-24.631-7.966-12.6-17.1-19.369-27.156-20.117-16.883-1.264-35.219,14.419-43.4,23.88a8.3,8.3,0,0,1-6.286,2.877h0a8.3,8.3,0,0,1-6.286-2.877c-7.863-9.1-25.125-23.953-41.455-23.953"
        transform="translate(10906.584 -5108.65)" fill="#e7e7e8" />
      <path id="Trazado_271-2" data-name="Trazado 271"
        d="M443.435,309.381A154.9,154.9,0,0,1,331.46,261.355H256.312a8.309,8.309,0,0,1-6.663-13.272L292.9,190a155.1,155.1,0,0,1-4.032-35.18C288.872,69.587,358.208.25,443.435.25S598,69.587,598,154.815,528.664,309.381,443.435,309.381M272.862,244.735h62.219a8.317,8.317,0,0,1,6.155,2.726,138.229,138.229,0,0,0,102.2,45.3c76.066,0,137.947-61.881,137.947-137.945S519.5,16.868,443.435,16.868,305.49,78.752,305.49,154.815a138.394,138.394,0,0,0,4.461,34.9,8.3,8.3,0,0,1-1.375,7.059Z"
        transform="translate(10843.022 -5167.628)" fill="#e7e7e8" />
      <path id="Trazado_272-2" data-name="Trazado 272"
        d="M376.24,116.667a3,3,0,0,1-2.832-2.006l-7.477-21.33H342.167a3,3,0,0,1-2.885-2.179l-8.164-28.769-8.566,28.8a2.994,2.994,0,0,1-2.874,2.143h-25.1a3,3,0,1,1,0-6h22.862l10.871-36.556a3,3,0,0,1,2.874-2.146h.02a3,3,0,0,1,2.865,2.182l10.362,36.519h23.624a3,3,0,0,1,2.832,2.009l5.226,14.9,5.683-17.7a3,3,0,0,1,2.854-2.081h56.884a3,3,0,1,1,0,6h-54.7l-7.745,24.126a3,3,0,0,1-2.815,2.081Z"
        transform="translate(10921.021 -5081.021)" fill="#e7e7e8" />
    </g>
    <g id="Grupo_661" data-name="Grupo 661" transform="translate(-9648.526 6060.8)" opacity="0.1">
      <path id="Trazado_270-3" data-name="Trazado 270"
        d="M381.771,191.61a8.312,8.312,0,0,1-3.993-1.021c-3.275-1.794-80.341-44.471-92.572-91.777-3.493-13.521-1.585-26.2,5.678-37.689,10.932-17.29,24.38-26.645,39.973-27.809,21.657-1.6,40.978,13.465,50.914,23.01,9.938-9.545,29.271-24.611,50.919-23.01,15.591,1.163,29.037,10.519,39.969,27.809,7.263,11.49,9.171,24.168,5.677,37.686-12.231,47.309-89.3,89.986-92.575,91.78a8.3,8.3,0,0,1-3.99,1.021M334.027,49.818c-.647,0-1.292.022-1.936.073-10.055.748-19.193,7.517-27.159,20.117-4.777,7.556-5.968,15.613-3.638,24.634,9,34.868,64.939,69.917,80.477,79.077,15.535-9.16,71.474-44.212,80.477-79.079,2.327-9.018,1.138-17.075-3.638-24.631-7.966-12.6-17.1-19.369-27.156-20.117-16.883-1.264-35.219,14.419-43.4,23.88a8.3,8.3,0,0,1-6.286,2.877h0a8.3,8.3,0,0,1-6.286-2.877c-7.863-9.1-25.125-23.953-41.455-23.953"
        transform="translate(10906.584 -5108.65)" fill="#e7e7e8" />
      <path id="Trazado_271-3" data-name="Trazado 271"
        d="M443.435,309.381A154.9,154.9,0,0,1,331.46,261.355H256.312a8.309,8.309,0,0,1-6.663-13.272L292.9,190a155.1,155.1,0,0,1-4.032-35.18C288.872,69.587,358.208.25,443.435.25S598,69.587,598,154.815,528.664,309.381,443.435,309.381M272.862,244.735h62.219a8.317,8.317,0,0,1,6.155,2.726,138.229,138.229,0,0,0,102.2,45.3c76.066,0,137.947-61.881,137.947-137.945S519.5,16.868,443.435,16.868,305.49,78.752,305.49,154.815a138.394,138.394,0,0,0,4.461,34.9,8.3,8.3,0,0,1-1.375,7.059Z"
        transform="translate(10843.022 -5167.628)" fill="#e7e7e8" />
      <path id="Trazado_272-3" data-name="Trazado 272"
        d="M376.24,116.667a3,3,0,0,1-2.832-2.006l-7.477-21.33H342.167a3,3,0,0,1-2.885-2.179l-8.164-28.769-8.566,28.8a2.994,2.994,0,0,1-2.874,2.143h-25.1a3,3,0,1,1,0-6h22.862l10.871-36.556a3,3,0,0,1,2.874-2.146h.02a3,3,0,0,1,2.865,2.182l10.362,36.519h23.624a3,3,0,0,1,2.832,2.009l5.226,14.9,5.683-17.7a3,3,0,0,1,2.854-2.081h56.884a3,3,0,1,1,0,6h-54.7l-7.745,24.126a3,3,0,0,1-2.815,2.081Z"
        transform="translate(10921.021 -5081.021)" fill="#e7e7e8" />
    </g>
    <g id="Grupo_657" data-name="Grupo 657" transform="translate(-8073.024 5937.92)" opacity="0.1">
      <path id="Trazado_270-4" data-name="Trazado 270"
        d="M480.039,350.035a16.625,16.625,0,0,1-7.986-2.042C465.5,344.4,311.366,259.047,286.9,164.432c-6.987-27.042-3.17-52.4,11.356-75.38,21.864-34.582,48.761-53.293,79.95-55.62,43.315-3.192,81.959,26.931,101.831,46.021,19.877-19.09,58.543-49.225,101.841-46.021,31.184,2.327,58.076,21.038,79.94,55.62,14.526,22.98,18.343,48.337,11.355,75.374C648.711,259.047,494.57,344.4,488.018,347.993a16.6,16.6,0,0,1-7.98,2.042M384.547,66.441c-1.294,0-2.583.045-3.873.145-20.112,1.5-38.387,15.034-54.319,40.234-9.554,15.112-11.936,31.228-7.277,49.269,18.008,69.738,129.883,139.838,160.96,158.159,31.071-18.32,142.953-88.426,160.96-158.164,4.654-18.036,2.277-34.152-7.277-49.263-15.932-25.2-34.2-38.739-54.314-40.234-33.767-2.528-70.441,28.839-86.8,47.762a16.6,16.6,0,0,1-12.572,5.753h-.006a16.6,16.6,0,0,1-12.572-5.753c-15.726-18.2-50.252-47.908-82.914-47.908"
        transform="translate(11005.659 -5016.719)" fill="#e7e7e8" />
      <path id="Trazado_271-4" data-name="Trazado 271"
        d="M638.88,618.533a309.818,309.818,0,0,1-223.957-96.055h-150.3A16.619,16.619,0,0,1,251.3,495.932l86.512-116.178a310.214,310.214,0,0,1-8.064-70.363C329.744,138.928,468.421.25,638.88.25S948.027,138.928,948.027,309.391,809.344,618.533,638.88,618.533m-341.157-129.3H422.167a16.634,16.634,0,0,1,12.31,5.452,276.468,276.468,0,0,0,204.4,90.6c152.138,0,275.9-123.767,275.9-275.9s-123.767-275.9-275.9-275.9-275.9,123.773-275.9,275.9a276.8,276.8,0,0,0,8.923,69.8,16.6,16.6,0,0,1-2.751,14.118Z"
        transform="translate(10843.022 -5167.628)" fill="#e7e7e8" />
      <path id="Trazado_272-4" data-name="Trazado 272"
        d="M460.908,184.708a6,6,0,0,1-5.664-4.012l-14.955-42.662H392.761a6,6,0,0,1-5.77-4.358L370.662,76.137,353.53,133.748a5.988,5.988,0,0,1-5.748,4.286h-50.2a6,6,0,1,1,0-12h45.725l21.742-73.114a5.993,5.993,0,0,1,5.747-4.291h.039a6,6,0,0,1,5.731,4.364l20.726,73.041h47.249a6,6,0,0,1,5.664,4.018l10.452,29.8,11.367-35.4a6.007,6.007,0,0,1,5.709-4.163H591.505a6,6,0,1,1,0,12h-109.4l-15.491,48.253a6,6,0,0,1-5.63,4.163Z"
        transform="translate(11042.604 -4946.024)" fill="#e7e7e8" />
    </g>
    <g id="Grupo_660" data-name="Grupo 660" transform="translate(-8532.026 6761.812)" opacity="0.1">
      <path id="Trazado_270-5" data-name="Trazado 270"
        d="M381.771,191.61a8.312,8.312,0,0,1-3.993-1.021c-3.275-1.794-80.341-44.471-92.572-91.777-3.493-13.521-1.585-26.2,5.678-37.689,10.932-17.29,24.38-26.645,39.973-27.809,21.657-1.6,40.978,13.465,50.914,23.01,9.938-9.545,29.271-24.611,50.919-23.01,15.591,1.163,29.037,10.519,39.969,27.809,7.263,11.49,9.171,24.168,5.677,37.686-12.231,47.309-89.3,89.986-92.575,91.78a8.3,8.3,0,0,1-3.99,1.021M334.027,49.818c-.647,0-1.292.022-1.936.073-10.055.748-19.193,7.517-27.159,20.117-4.777,7.556-5.968,15.613-3.638,24.634,9,34.868,64.939,69.917,80.477,79.077,15.535-9.16,71.474-44.212,80.477-79.079,2.327-9.018,1.138-17.075-3.638-24.631-7.966-12.6-17.1-19.369-27.156-20.117-16.883-1.264-35.219,14.419-43.4,23.88a8.3,8.3,0,0,1-6.286,2.877h0a8.3,8.3,0,0,1-6.286-2.877c-7.863-9.1-25.125-23.953-41.455-23.953"
        transform="translate(10906.584 -5108.65)" fill="#e7e7e8" />
      <path id="Trazado_271-5" data-name="Trazado 271"
        d="M443.435,309.381A154.9,154.9,0,0,1,331.46,261.355H256.312a8.309,8.309,0,0,1-6.663-13.272L292.9,190a155.1,155.1,0,0,1-4.032-35.18C288.872,69.587,358.208.25,443.435.25S598,69.587,598,154.815,528.664,309.381,443.435,309.381M272.862,244.735h62.219a8.317,8.317,0,0,1,6.155,2.726,138.229,138.229,0,0,0,102.2,45.3c76.066,0,137.947-61.881,137.947-137.945S519.5,16.868,443.435,16.868,305.49,78.752,305.49,154.815a138.394,138.394,0,0,0,4.461,34.9,8.3,8.3,0,0,1-1.375,7.059Z"
        transform="translate(10843.022 -5167.628)" fill="#e7e7e8" />
      <path id="Trazado_272-5" data-name="Trazado 272"
        d="M376.24,116.667a3,3,0,0,1-2.832-2.006l-7.477-21.33H342.167a3,3,0,0,1-2.885-2.179l-8.164-28.769-8.566,28.8a2.994,2.994,0,0,1-2.874,2.143h-25.1a3,3,0,1,1,0-6h22.862l10.871-36.556a3,3,0,0,1,2.874-2.146h.02a3,3,0,0,1,2.865,2.182l10.362,36.519h23.624a3,3,0,0,1,2.832,2.009l5.226,14.9,5.683-17.7a3,3,0,0,1,2.854-2.081h56.884a3,3,0,1,1,0,6h-54.7l-7.745,24.126a3,3,0,0,1-2.815,2.081Z"
        transform="translate(10921.021 -5081.021)" fill="#e7e7e8" />
    </g>
    <g id="Grupo_662" data-name="Grupo 662" transform="translate(-9018.026 5937.931)" opacity="0.1">
      <path id="Trazado_270-6" data-name="Trazado 270"
        d="M445.268,293.978a13.683,13.683,0,0,1-6.573-1.681C433.3,289.344,306.438,219.088,286.3,141.213c-5.751-22.258-2.609-43.129,9.347-62.043,18-28.463,40.134-43.864,65.8-45.779,35.652-2.627,67.458,22.166,83.815,37.879,16.361-15.713,48.185-40.515,83.823-37.879,25.667,1.915,47.8,17.316,65.8,45.779,11.956,18.914,15.1,39.785,9.346,62.038C584.1,219.088,457.228,289.344,451.836,292.3a13.662,13.662,0,0,1-6.568,1.681m-78.6-233.419c-1.065,0-2.126.037-3.187.119-16.553,1.231-31.6,12.374-44.709,33.116-7.863,12.438-9.824,25.7-5.989,40.552,14.822,57.4,106.9,115.1,132.482,130.176,25.574-15.079,117.661-72.782,132.482-130.181,3.831-14.845,1.874-28.109-5.99-40.548-13.113-20.742-28.151-31.885-44.7-33.116C499.264,58.6,469.078,84.415,455.615,99.99a13.665,13.665,0,0,1-10.348,4.735h0a13.665,13.665,0,0,1-10.348-4.735c-12.943-14.983-41.361-39.431-68.244-39.431"
        transform="translate(10970.603 -5049.248)" fill="#e7e7e8" />
      <path id="Trazado_271-6" data-name="Trazado 271"
        d="M569.724,509.143a255,255,0,0,1-184.334-79.06H261.681a13.679,13.679,0,0,1-10.968-21.849l71.206-95.623a255.33,255.33,0,0,1-6.637-57.914C315.282,114.392,429.424.25,569.724.25S824.175,114.392,824.175,254.7,710.029,509.143,569.724,509.143m-280.8-106.421H391.353a13.691,13.691,0,0,1,10.132,4.487,227.554,227.554,0,0,0,168.239,74.573c125.221,0,227.09-101.87,227.09-227.086S694.945,27.606,569.724,27.606,342.638,129.48,342.638,254.7a227.825,227.825,0,0,0,7.344,57.455,13.662,13.662,0,0,1-2.264,11.62Z"
        transform="translate(10843.022 -5167.628)" fill="#e7e7e8" />
      <path id="Trazado_272-6" data-name="Trazado 272"
        d="M430.949,160.633a4.94,4.94,0,0,1-4.662-3.3l-12.309-35.114H374.859a4.939,4.939,0,0,1-4.749-3.587L356.67,71.27l-14.1,47.419a4.929,4.929,0,0,1-4.731,3.528H296.519a4.938,4.938,0,1,1,0-9.875h37.635l17.9-60.178a4.932,4.932,0,0,1,4.73-3.532h.032a4.94,4.94,0,0,1,4.717,3.592l17.059,60.119h38.89a4.935,4.935,0,0,1,4.662,3.307l8.6,24.532,9.356-29.138a4.944,4.944,0,0,1,4.7-3.426H538.44a4.938,4.938,0,1,1,0,9.875H448.4l-12.75,39.716a4.936,4.936,0,0,1-4.634,3.426Z"
        transform="translate(10999.583 -4993.791)" fill="#e7e7e8" />
    </g>
    <g id="Grupo_663" data-name="Grupo 663" transform="translate(-7995.137 6651.8)" opacity="0.1">
      <path id="Trazado_270-7" data-name="Trazado 270"
        d="M393.7,210.844a9.321,9.321,0,0,1-4.477-1.145c-3.673-2.012-90.095-49.871-103.812-102.92-3.917-15.162-1.777-29.38,6.367-42.264,12.259-19.389,27.34-29.88,44.827-31.185,24.286-1.79,45.953,15.1,57.1,25.8,11.145-10.7,32.824-27.6,57.1-25.8,17.484,1.3,32.562,11.8,44.821,31.185,8.144,12.885,10.284,27.1,6.367,42.261C488.274,159.828,401.849,207.687,398.175,209.7a9.307,9.307,0,0,1-4.474,1.145M340.16,51.836c-.726,0-1.449.025-2.171.081-11.276.839-21.523,8.429-30.456,22.559-5.357,8.473-6.692,17.509-4.08,27.625,10.1,39.1,72.824,78.406,90.248,88.678,17.421-10.272,80.152-49.58,90.248-88.681,2.609-10.112,1.276-19.148-4.08-27.621-8.933-14.13-19.177-21.72-30.453-22.559-18.933-1.417-39.5,16.17-48.666,26.78a9.309,9.309,0,0,1-7.049,3.226h0a9.309,9.309,0,0,1-7.049-3.226c-8.817-10.206-28.176-26.861-46.489-26.861"
        transform="translate(10918.612 -5097.489)" fill="#e7e7e8" />
      <path id="Trazado_271-7" data-name="Trazado 271"
        d="M467.163,346.913a173.711,173.711,0,0,1-125.57-53.857H257.321a9.318,9.318,0,0,1-7.472-14.884l48.506-65.139a173.934,173.934,0,0,1-4.521-39.452C293.834,78,371.589.25,467.163.25S640.5,78,640.5,173.582,562.739,346.913,467.163,346.913m-191.282-72.5h69.773a9.326,9.326,0,0,1,6.9,3.057,155.012,155.012,0,0,0,114.606,50.8c85.3,0,154.7-69.395,154.7-154.693s-69.394-154.7-154.7-154.7-154.693,69.4-154.693,154.7a155.2,155.2,0,0,0,5,39.139,9.307,9.307,0,0,1-1.542,7.916Z"
        transform="translate(10843.022 -5167.628)" fill="#e7e7e8" />
      <path id="Trazado_272-7" data-name="Trazado 272"
        d="M386.519,124.928a3.365,3.365,0,0,1-3.176-2.25l-8.385-23.92H348.309a3.364,3.364,0,0,1-3.235-2.444l-9.155-32.261-9.606,32.3a3.357,3.357,0,0,1-3.223,2.4H294.944a3.364,3.364,0,1,1,0-6.727h25.638l12.19-40.994a3.36,3.36,0,0,1,3.222-2.406h.022a3.365,3.365,0,0,1,3.213,2.447L350.85,92.031h26.492a3.362,3.362,0,0,1,3.176,2.253L386.378,111l6.373-19.849a3.368,3.368,0,0,1,3.2-2.334h63.791a3.364,3.364,0,1,1,0,6.727H398.405l-8.686,27.055a3.363,3.363,0,0,1-3.157,2.334Z"
        transform="translate(10935.782 -5064.632)" fill="#e7e7e8" />
    </g>
  </g>
</svg>