<?xml version="1.0" encoding="UTF-8"?>
<svg id="Capa_2" data-name="Capa 2" xmlns="http://www.w3.org/2000/svg" width="529.6" height="688.8" xmlns:xlink="http://www.w3.org/1999/xlink" viewBox="0 0 529.6 688.8">
  <defs>
    <style>
      .cls-1 {
        fill: #d0cece;
      }

      .cls-2 {
        fill: #233d7d;
      }

      .cls-3 {
        clip-path: url(#clippath);
      }

      .cls-4 {
        fill: #ee402f;
      }

      .cls-5 {
        fill: none;
      }

      .cls-6 {
        fill: #383838;
      }
    </style>
    <clipPath id="clippath">
      <rect class="cls-5" x="3.9" y="36.7" width="522.8" height="175.3"/>
    </clipPath>
  </defs>
  <g id="Capa_1-2" data-name="Capa 1">
    <g>
      <rect class="cls-1" y="662.8" width="529.6" height=".5"/>
      <g>
        <path class="cls-2" d="M7.2,8.5c0,1.4-1.2,2.6-3.3,2.6s-2.7-.5-3.2-1.7c0-.2,0-.5,.3-.6l1.1-.3c.2,0,.4,0,.5,.2,.2,.4,.6,.7,1.3,.7s1.2-.3,1.2-.8-.8-.7-1.8-1c-1.7-.4-2.4-1.2-2.4-2.6s1.3-2.6,3.1-2.6,2.4,.6,2.8,1.6c.1,.2,0,.5-.3,.6l-1.1,.3c-.2,0-.4,0-.5-.2-.2-.3-.5-.5-1.1-.5s-1,.3-1,.8,1,.8,1.7,1c2.1,.6,2.7,1.2,2.7,2.5Z"/>
        <path class="cls-2" d="M8.6,2.6h1.2c.2,0,.4,.2,.4,.4v7.5c0,.2-.2,.4-.4,.4h-1.2c-.2,0-.4-.2-.4-.4V3c0-.2,.2-.4,.4-.4Zm.8-2.6h1.2c.2,0,.3,.2,.2,.3l-.8,1.1c0,.1-.3,.2-.4,.2h-.9c-.2,0-.3-.2-.2-.3l.5-1.1c0-.2,.3-.3,.5-.3Z"/>
        <path class="cls-2" d="M17.1,2.6h1.2c.2,0,.4,.2,.4,.4v7.5c0,.2-.2,.4-.4,.4h-1c-.2,0-.4-.1-.5-.3l-3.1-4.6v4.5c0,.2-.2,.4-.4,.4h-1.2c-.2,0-.4-.2-.4-.4V3c0-.2,.2-.4,.4-.4h1c.2,0,.4,.1,.5,.3l3.1,4.6V3c0-.2,.2-.4,.4-.4Z"/>
        <path class="cls-2" d="M25.8,3v1.1c0,.2-.2,.4-.4,.4h-1.5v6c0,.2-.2,.4-.4,.4h-1.2c-.2,0-.4-.2-.4-.4V4.5h-1.5c-.2,0-.4-.2-.4-.4v-1.1c0-.2,.2-.4,.4-.4h5.1c.2,0,.4,.2,.4,.4Z"/>
        <path class="cls-2" d="M35.2,6.8c0,2.5-1.8,4.4-4.3,4.4s-4.3-1.9-4.3-4.4,1.8-4.3,4.3-4.3,4.3,1.9,4.3,4.3Zm-2.1,0c0-1.2-.7-2.4-2.2-2.4s-2.2,1.2-2.2,2.4,.7,2.4,2.2,2.4,2.2-1.2,2.2-2.4Z"/>
        <path class="cls-2" d="M43.8,2.6h1.4c.2,0,.4,.2,.4,.4v7.5c0,.2-.2,.4-.4,.4h-1.2c-.2,0-.4-.2-.4-.4V6l-2.1,3.4c0,.1-.2,.2-.4,.2h-.3c-.1,0-.3,0-.4-.2l-2.1-3.4v4.6c0,.2-.2,.4-.4,.4h-1.2c-.2,0-.4-.2-.4-.4V3c0-.2,.2-.4,.4-.4h1.4c.2,0,.4,.1,.6,.3l2.3,3.7,2.3-3.7c.1-.2,.3-.3,.6-.3Z"/>
        <path class="cls-2" d="M52.6,10.6l-.4-1.2h-3.2l-.4,1.2c0,.2-.3,.4-.5,.4h-1.3c-.2,0-.4-.2-.3-.4l2.7-7.6c0-.2,.3-.3,.5-.3h1.7c.2,0,.4,.1,.5,.3l2.7,7.6c0,.2,0,.4-.3,.4h-1.3c-.2,0-.4-.2-.5-.4Zm-.9-2.7l-1.1-3.5-1.1,3.5h2.2Z"/>
        <path class="cls-2" d="M61.9,8.5c0,1.4-1.2,2.6-3.3,2.6s-2.7-.5-3.2-1.7c0-.2,0-.5,.3-.6l1.1-.3c.2,0,.4,0,.5,.2,.2,.4,.6,.7,1.3,.7s1.2-.3,1.2-.8-.8-.7-1.8-1c-1.7-.4-2.4-1.2-2.4-2.6s1.3-2.6,3.1-2.6,2.4,.6,2.8,1.6c.1,.2,0,.5-.3,.6l-1.1,.3c-.2,0-.4,0-.5-.2-.2-.3-.5-.5-1.1-.5s-1,.3-1,.8,1,.8,1.7,1c2.1,.6,2.7,1.2,2.7,2.5Z"/>
        <path class="cls-2" d="M73.4,6.8c0,2.6-1.7,4.2-4.4,4.2h-2.5c-.2,0-.4-.2-.4-.4V3c0-.2,.2-.4,.4-.4h2.5c2.8,0,4.4,1.6,4.4,4.2Zm-2.1,0c0-1.5-1-2.3-2.4-2.3h-.9v4.5h.9c1.4,0,2.4-.8,2.4-2.3Z"/>
        <path class="cls-2" d="M79.4,9.1c.2,0,.4,.2,.4,.4v1.1c0,.2-.2,.4-.4,.4h-4.4c-.2,0-.4-.2-.4-.4V3c0-.2,.2-.4,.4-.4h4.3c.2,0,.4,.2,.4,.4v1.1c0,.2-.2,.4-.4,.4h-2.7v1.3h2.3c.2,0,.4,.2,.4,.4v1c0,.2-.2,.4-.4,.4h-2.3v1.4h2.8Z"/>
        <path class="cls-2" d="M84.6,2.6h1.2c.2,0,.4,.2,.4,.4v7.5c0,.2-.2,.4-.4,.4h-1.2c-.2,0-.4-.2-.4-.4V3c0-.2,.2-.4,.4-.4Z"/>
        <path class="cls-2" d="M93.1,2.6h1.2c.2,0,.4,.2,.4,.4v7.5c0,.2-.2,.4-.4,.4h-1c-.2,0-.4-.1-.5-.3l-3.1-4.6v4.5c0,.2-.2,.4-.4,.4h-1.2c-.2,0-.4-.2-.4-.4V3c0-.2,.2-.4,.4-.4h1c.2,0,.4,.1,.5,.3l3.1,4.6V3c0-.2,.2-.4,.4-.4Z"/>
        <path class="cls-2" d="M102.4,8.5c0,1.4-1.2,2.6-3.3,2.6s-2.7-.5-3.2-1.7c0-.2,0-.5,.3-.6l1.1-.3c.2,0,.4,0,.5,.2,.2,.4,.6,.7,1.3,.7s1.2-.3,1.2-.8-.8-.7-1.8-1c-1.7-.4-2.4-1.2-2.4-2.6s1.3-2.6,3.1-2.6,2.4,.6,2.8,1.6c.1,.2,0,.5-.3,.6l-1.1,.3c-.2,0-.4,0-.5-.2-.2-.3-.5-.5-1.1-.5s-1,.3-1,.8,1,.8,1.7,1c2.1,.6,2.7,1.2,2.7,2.5Z"/>
        <path class="cls-2" d="M109.9,2.6c.2,0,.4,.2,.4,.4V7.7c0,2.3-1.3,3.4-3.5,3.4s-3.5-1.1-3.5-3.4V3c0-.2,.2-.4,.4-.4h1.2c.2,0,.4,.2,.4,.4V7.5c0,1.1,.5,1.7,1.5,1.7s1.5-.5,1.5-1.7V3c0-.2,.2-.4,.4-.4h1.2Z"/>
        <path class="cls-2" d="M116.6,4.5h-2.7v1.6h2.4c.2,0,.4,.2,.4,.4v1.1c0,.2-.2,.4-.4,.4h-2.4v2.5c0,.2-.2,.4-.4,.4h-1.2c-.2,0-.4-.2-.4-.4V3c0-.2,.2-.4,.4-.4h4.4c.2,0,.4,.2,.4,.4v1.1c0,.2-.2,.4-.4,.4Z"/>
        <path class="cls-2" d="M118.7,2.6h1.2c.2,0,.4,.2,.4,.4v7.5c0,.2-.2,.4-.4,.4h-1.2c-.2,0-.4-.2-.4-.4V3c0-.2,.2-.4,.4-.4Z"/>
        <path class="cls-2" d="M127.1,8.6c.2-.1,.4-.2,.5,0l1,.7c.2,.1,.3,.5,0,.7-.8,.8-1.8,1.2-3.1,1.2-2.5,0-4.3-1.9-4.3-4.3s1.8-4.4,4.3-4.4,2.3,.5,3.1,1.2c.2,.2,.2,.5,0,.7l-1,.7c-.2,.1-.4,0-.5,0-.3-.3-.8-.5-1.5-.5-1.5,0-2.2,1.2-2.2,2.4s.7,2.4,2.2,2.4,1.1-.2,1.5-.5Z"/>
        <path class="cls-2" d="M130.4,2.6h1.2c.2,0,.4,.2,.4,.4v7.5c0,.2-.2,.4-.4,.4h-1.2c-.2,0-.4-.2-.4-.4V3c0-.2,.2-.4,.4-.4Z"/>
        <path class="cls-2" d="M138.3,9.1c.2,0,.4,.2,.4,.4v1.1c0,.2-.2,.4-.4,.4h-4.4c-.2,0-.4-.2-.4-.4V3c0-.2,.2-.4,.4-.4h4.3c.2,0,.4,.2,.4,.4v1.1c0,.2-.2,.4-.4,.4h-2.7v1.3h2.3c.2,0,.4,.2,.4,.4v1c0,.2-.2,.4-.4,.4h-2.3v1.4h2.8Z"/>
        <path class="cls-2" d="M145.5,2.6h1.2c.2,0,.4,.2,.4,.4v7.5c0,.2-.2,.4-.4,.4h-1c-.2,0-.4-.1-.5-.3l-3.1-4.6v4.5c0,.2-.2,.4-.4,.4h-1.2c-.2,0-.4-.2-.4-.4V3c0-.2,.2-.4,.4-.4h1c.2,0,.4,.1,.5,.3l3.1,4.6V3c0-.2,.2-.4,.4-.4Z"/>
        <path class="cls-2" d="M154,8.6c.2-.1,.4-.2,.5,0l1,.7c.2,.1,.3,.5,0,.7-.8,.8-1.8,1.2-3.1,1.2-2.5,0-4.3-1.9-4.3-4.3s1.8-4.4,4.3-4.4,2.3,.5,3.1,1.2c.2,.2,.2,.5,0,.7l-1,.7c-.2,.1-.4,0-.5,0-.3-.3-.8-.5-1.5-.5-1.5,0-2.2,1.2-2.2,2.4s.7,2.4,2.2,2.4,1.1-.2,1.5-.5Z"/>
        <path class="cls-2" d="M157.3,2.6h1.2c.2,0,.4,.2,.4,.4v7.5c0,.2-.2,.4-.4,.4h-1.2c-.2,0-.4-.2-.4-.4V3c0-.2,.2-.4,.4-.4Z"/>
        <path class="cls-2" d="M165.9,10.6l-.4-1.2h-3.2l-.4,1.2c0,.2-.3,.4-.5,.4h-1.3c-.2,0-.4-.2-.3-.4l2.7-7.6c0-.2,.3-.3,.5-.3h1.7c.2,0,.4,.1,.5,.3l2.7,7.6c0,.2,0,.4-.3,.4h-1.3c-.2,0-.4-.2-.5-.4Zm-.9-2.7l-1.1-3.5-1.1,3.5h2.2Z"/>
        <path class="cls-2" d="M177.6,8.6c.2-.1,.4-.2,.5,0l1,.7c.2,.1,.3,.5,0,.7-.8,.8-1.8,1.2-3.1,1.2-2.5,0-4.3-1.9-4.3-4.3s1.8-4.4,4.3-4.4,2.3,.5,3.1,1.2c.2,.2,.2,.5,0,.7l-1,.7c-.2,.1-.4,0-.5,0-.3-.3-.8-.5-1.5-.5-1.5,0-2.2,1.2-2.2,2.4s.7,2.4,2.2,2.4,1.1-.2,1.5-.5Z"/>
        <path class="cls-2" d="M186,10.6l-.4-1.2h-3.2l-.4,1.2c0,.2-.3,.4-.5,.4h-1.3c-.2,0-.4-.2-.3-.4l2.7-7.6c0-.2,.3-.3,.5-.3h1.7c.2,0,.4,.1,.5,.3l2.7,7.6c0,.2,0,.4-.3,.4h-1.3c-.2,0-.4-.2-.5-.4Zm-.9-2.7l-1.1-3.5-1.1,3.5h2.2Z"/>
        <path class="cls-2" d="M195.5,11h-1.3c-.2,0-.4-.1-.5-.3l-1.3-2.5s0,0-.1,0h-1.2v2.4c0,.2-.2,.4-.4,.4h-1.2c-.2,0-.4-.2-.4-.4V3c0-.2,.2-.4,.4-.4h2.8c2.1,0,3.2,1.2,3.2,2.9s-.5,1.8-1.3,2.2l1.5,2.8c.1,.2,0,.5-.3,.5Zm-4.4-4.5h1.2c.6,0,1.2-.3,1.2-1s-.5-1-1.2-1h-1.2v1.9Z"/>
        <path class="cls-2" d="M204.3,6.8c0,2.6-1.7,4.2-4.4,4.2h-2.5c-.2,0-.4-.2-.4-.4V3c0-.2,.2-.4,.4-.4h2.5c2.8,0,4.4,1.6,4.4,4.2Zm-2.1,0c0-1.5-1-2.3-2.4-2.3h-.9v4.5h.9c1.4,0,2.4-.8,2.4-2.3Z"/>
        <path class="cls-2" d="M205.9,2.6h1.2c.2,0,.4,.2,.4,.4v7.5c0,.2-.2,.4-.4,.4h-1.2c-.2,0-.4-.2-.4-.4V3c0-.2,.2-.4,.4-.4Z"/>
        <path class="cls-2" d="M214.5,10.6l-.4-1.2h-3.2l-.4,1.2c0,.2-.3,.4-.5,.4h-1.3c-.2,0-.4-.2-.3-.4l2.7-7.6c0-.2,.3-.3,.5-.3h1.7c.2,0,.4,.1,.5,.3l2.7,7.6c0,.2,0,.4-.3,.4h-1.3c-.2,0-.4-.2-.5-.4Zm-.9-2.7l-1.1-3.5-1.1,3.5h2.2Z"/>
        <path class="cls-2" d="M223.1,8.6c.2-.1,.4-.2,.5,0l1,.7c.2,.1,.3,.5,0,.7-.8,.8-1.8,1.2-3.1,1.2-2.5,0-4.3-1.9-4.3-4.3s1.8-4.4,4.3-4.4,2.3,.5,3.1,1.2c.2,.2,.2,.5,0,.7l-1,.7c-.2,.1-.4,0-.5,0-.3-.3-.8-.5-1.5-.5-1.5,0-2.2,1.2-2.2,2.4s.7,2.4,2.2,2.4,1.1-.2,1.5-.5Z"/>
        <path class="cls-2" d="M231.5,10.6l-.4-1.2h-3.2l-.4,1.2c0,.2-.3,.4-.5,.4h-1.3c-.2,0-.4-.2-.3-.4l2.7-7.6c0-.2,.3-.3,.5-.3h1.7c.2,0,.4,.1,.5,.3l2.7,7.6c0,.2,0,.4-.3,.4h-1.3c-.2,0-.4-.2-.5-.4Zm-.9-2.7l-1.1-3.5-1.1,3.5h2.2Z"/>
      </g>
      <g>
        <path class="cls-4" d="M5.5,278.5h1c.2,0,.4,.2,.4,.4v6.3c0,.2-.2,.4-.4,.4h-.9c-.2,0-.3,0-.4-.2l-2.6-3.8v3.7c0,.2-.2,.4-.3,.4H1.2c-.2,0-.4-.2-.4-.4v-6.3c0-.2,.2-.4,.4-.4h.9c.2,0,.3,0,.4,.2l2.6,3.8v-3.7c0-.2,.2-.4,.4-.4Z"/>
        <path class="cls-4" d="M14.9,281.9c0,2.1-1.5,3.6-3.6,3.6s-3.6-1.5-3.6-3.6,1.5-3.6,3.6-3.6,3.6,1.5,3.6,3.6Zm-1.7,0c0-1-.6-2-1.8-2s-1.8,1-1.8,2,.6,2,1.8,2,1.8-1,1.8-2Z"/>
        <path class="cls-4" d="M20.5,278.8v.9c0,.2-.2,.3-.4,.3h-1.3v5c0,.2-.2,.4-.4,.4h-1c-.2,0-.4-.2-.4-.4v-5h-1.3c-.2,0-.4-.2-.4-.3v-.9c0-.2,.2-.4,.4-.4h4.3c.2,0,.4,.2,.4,.4Z"/>
        <path class="cls-4" d="M26.1,285.1l-.3-1h-2.6l-.3,1c0,.2-.2,.3-.4,.3h-1.1c-.2,0-.3-.2-.2-.4l2.3-6.3c0-.2,.2-.3,.4-.3h1.4c.2,0,.4,.1,.4,.3l2.3,6.3c0,.2,0,.4-.2,.4h-1.1c-.2,0-.4-.1-.4-.3Zm-.7-2.3l-.9-2.9-.9,2.9h1.8Z"/>
        <path class="cls-4" d="M33.9,283.4c0,1.1-1,2.2-2.7,2.2s-2.3-.4-2.7-1.4c0-.2,0-.4,.2-.5l.9-.3c.2,0,.3,0,.4,.2,.2,.3,.5,.6,1.1,.6s1-.2,1-.7-.7-.6-1.5-.8c-1.4-.4-2-1-2-2.2s1.1-2.1,2.6-2.1,2,.5,2.4,1.4c0,.2,0,.4-.2,.5l-.9,.2c-.2,0-.3,0-.4-.2-.1-.2-.4-.4-.9-.4s-.8,.3-.8,.7,.8,.7,1.4,.8c1.7,.5,2.2,1,2.2,2.1Z"/>
        <path class="cls-4" d="M34.5,281.2c0-.5,.4-.9,.9-.9s.9,.4,.9,.9-.4,.9-.9,.9-.9-.4-.9-.9Zm1.8,3.5c0,.5-.4,.9-.9,.9s-.9-.4-.9-.9,.4-.9,.9-.9,.9,.4,.9,.9Z"/>
      </g>
      <g>
        <path class="cls-6" d="M7.7,676.9c.1,0,.2,0,.2,.2v.3c0,.1,0,.2-.2,.2h-2.7c-.1,0-.2,0-.2-.2v-5.2c0-.1,0-.2,.2-.2h2.7c.1,0,.2,0,.2,.2v.3c0,.1,0,.2-.2,.2h-2.1v1.6h1.9c.1,0,.2,0,.2,.2v.3c0,.1,0,.2-.2,.2h-1.9v1.8h2.1Z"/>
        <path class="cls-6" d="M11.7,676.4c0,.7-.5,1.3-1.6,1.3s-1.3-.2-1.5-.7c0-.1,0-.3,.1-.3h.3c0-.1,.2-.1,.2,0,.1,.2,.4,.4,.9,.4s.8-.2,.8-.6-.7-.5-1.2-.6c-.8-.2-1.1-.5-1.1-1.1s.6-1.3,1.5-1.3,1.1,.2,1.3,.7c0,.1,0,.3-.1,.3h-.3c0,.1-.2,0-.2,0-.1-.2-.3-.3-.7-.3s-.7,.2-.7,.6,.6,.5,1,.6c1,.2,1.3,.5,1.3,1.1Z"/>
        <path class="cls-6" d="M14.2,674.3h-.7v1.8c0,.6,0,1,.6,1h.1c.1,0,.2,0,.2,.2v.3c0,0,0,.2-.2,.2,0,0-.2,0-.2,0-.9,0-1.3-.5-1.3-1.4v-2h-.5c-.1,0-.2,0-.2-.2v-.3c0-.1,0-.2,.2-.2h.5v-.6c0-.1,0-.2,.2-.2h.3c.1,0,.2,0,.2,.2v.6h.7c.1,0,.2,0,.2,.2v.3c0,.1,0,.2-.2,.2Z"/>
        <path class="cls-6" d="M19.2,675.6c0,.2-.1,.3-.3,.3h-3c.1,.7,.6,1.1,1.4,1.1s.7-.1,1-.3c0,0,.2,0,.3,0l.2,.2c.1,0,.1,.2,0,.3-.4,.4-.9,.6-1.5,.6-1.3,0-2.2-1-2.2-2.1s.9-2.1,2-2.1,2,.8,2,2.2Zm-.8-.4c0-.7-.5-1.1-1.2-1.1s-1.2,.4-1.3,1.1h2.5Z"/>
        <path class="cls-6" d="M25.6,672h.3c.1,0,.2,0,.2,.2v5.2c0,.1,0,.2-.2,.2h-.3c-.1,0-.2,0-.2-.2v-.4c-.3,.4-.8,.7-1.5,.7-1.3,0-2-1.1-2-2.1s.8-2.1,2-2.1,1.2,.3,1.5,.7v-1.9c0-.1,0-.2,.2-.2Zm-.2,3.6c0-.8-.5-1.4-1.4-1.4s-1.3,.6-1.3,1.4,.5,1.4,1.3,1.4,1.4-.6,1.4-1.4Z"/>
        <path class="cls-6" d="M31.2,675.6c0,1.2-.9,2.1-2.1,2.1s-2.1-1-2.1-2.1,.9-2.1,2.1-2.1,2.1,1,2.1,2.1Zm-.7,0c0-.8-.6-1.4-1.4-1.4s-1.4,.6-1.4,1.4,.6,1.4,1.4,1.4,1.4-.6,1.4-1.4Z"/>
        <path class="cls-6" d="M34.9,676.5c0,0,.2-.1,.3,0h.2c.1,.2,.1,.4,0,.5-.4,.5-1,.8-1.7,.8-1.2,0-2.1-1-2.1-2.1s.9-2.1,2.1-2.1,1.3,.3,1.7,.8c0,.1,0,.3,0,.3h-.2c0,.2-.2,.2-.3,0-.2-.3-.6-.5-1.1-.5-.8,0-1.4,.6-1.4,1.4s.6,1.4,1.4,1.4,.8-.2,1.1-.5Z"/>
        <path class="cls-6" d="M39.7,673.6c.1,0,.2,0,.2,.2v3.6c0,.1,0,.2-.2,.2h-.3c-.1,0-.2,0-.2-.2v-.4c-.2,.4-.6,.7-1.2,.7-.9,0-1.6-.8-1.6-1.6v-2.3c0-.1,0-.2,.2-.2h.3c.1,0,.2,0,.2,.2v2.1c0,.6,.2,1.1,1,1.1s1.1-.7,1.1-1.1v-2.1c0-.1,0-.2,.2-.2h.3Z"/>
        <path class="cls-6" d="M46.6,674.9v2.5c0,.1,0,.2-.2,.2h-.3c-.1,0-.2,0-.2-.2v-2.3c0-.6-.3-1-.9-1s-.9,.5-.9,1v2.3c0,.1,0,.2-.2,.2h-.3c-.1,0-.2,0-.2-.2v-2.3c0-.6-.3-1-.9-1s-.9,.5-.9,1v2.3c0,.1,0,.2-.2,.2h-.3c-.1,0-.2,0-.2-.2v-3.6c0-.1,0-.2,.2-.2h.3c.1,0,.2,0,.2,.2v.3c.2-.3,.6-.6,1.1-.6s.9,.3,1.2,.6c.3-.4,.7-.6,1.3-.6s1.4,.6,1.4,1.5Z"/>
        <path class="cls-6" d="M51.4,675.6c0,.2-.1,.3-.3,.3h-3c.1,.7,.6,1.1,1.4,1.1s.7-.1,1-.3c0,0,.2,0,.3,0l.2,.2c.1,0,.1,.2,0,.3-.4,.4-.9,.6-1.5,.6-1.3,0-2.2-1-2.2-2.1s.9-2.1,2-2.1,2,.8,2,2.2Zm-.8-.4c0-.7-.5-1.1-1.2-1.1s-1.2,.4-1.3,1.1h2.5Z"/>
        <path class="cls-6" d="M55.8,675.1v2.3c0,.1,0,.2-.2,.2h-.3c-.1,0-.2,0-.2-.2v-2.1c0-.6-.2-1.1-1-1.1s-1.1,.7-1.1,1.1v2.1c0,.1,0,.2-.2,.2h-.3c-.1,0-.2,0-.2-.2v-3.6c0-.1,0-.2,.2-.2h.3c.1,0,.2,0,.2,.2v.4c.2-.4,.6-.7,1.2-.7,.9,0,1.6,.8,1.6,1.6Z"/>
        <path class="cls-6" d="M58.6,674.3h-.7v1.8c0,.6,0,1,.6,1h.1c.1,0,.2,0,.2,.2v.3c0,0,0,.2-.2,.2,0,0-.2,0-.2,0-.9,0-1.3-.5-1.3-1.4v-2h-.5c-.1,0-.2,0-.2-.2v-.3c0-.1,0-.2,.2-.2h.5v-.6c0-.1,0-.2,.2-.2h.3c.1,0,.2,0,.2,.2v.6h.7c.1,0,.2,0,.2,.2v.3c0,.1,0,.2-.2,.2Z"/>
        <path class="cls-6" d="M63.8,675.6c0,1.2-.9,2.1-2.1,2.1s-2.1-1-2.1-2.1,.9-2.1,2.1-2.1,2.1,1,2.1,2.1Zm-.7,0c0-.8-.6-1.4-1.4-1.4s-1.4,.6-1.4,1.4,.6,1.4,1.4,1.4,1.4-.6,1.4-1.4Z"/>
        <path class="cls-6" d="M70.5,675.6c0,.2-.1,.3-.3,.3h-3c.1,.7,.6,1.1,1.4,1.1s.7-.1,1-.3c0,0,.2,0,.3,0l.2,.2c.1,0,.1,.2,0,.3-.4,.4-.9,.6-1.5,.6-1.3,0-2.2-1-2.2-2.1s.9-2.1,2-2.1,2,.8,2,2.2Zm-.8-.4c0-.7-.5-1.1-1.2-1.1s-1.2,.4-1.3,1.1h2.5Z"/>
        <path class="cls-6" d="M74.2,676.4c0,.7-.5,1.3-1.6,1.3s-1.3-.2-1.5-.7c0-.1,0-.3,.1-.3h.3c0-.1,.2-.1,.2,0,.1,.2,.4,.4,.9,.4s.8-.2,.8-.6-.7-.5-1.2-.6c-.8-.2-1.1-.5-1.1-1.1s.6-1.3,1.5-1.3,1.1,.2,1.3,.7c0,.1,0,.3-.1,.3h-.3c0,.1-.2,0-.2,0-.1-.2-.3-.3-.7-.3s-.7,.2-.7,.6,.6,.5,1,.6c1,.2,1.3,.5,1.3,1.1Z"/>
        <path class="cls-6" d="M76.7,674.3h-.7v1.8c0,.6,0,1,.6,1h.1c.1,0,.2,0,.2,.2v.3c0,0,0,.2-.2,.2,0,0-.2,0-.2,0-.9,0-1.3-.5-1.3-1.4v-2h-.5c-.1,0-.2,0-.2-.2v-.3c0-.1,0-.2,.2-.2h.5v-.6c0-.1,0-.2,.2-.2h.3c.1,0,.2,0,.2,.2v.6h.7c.1,0,.2,0,.2,.2v.3c0,.1,0,.2-.2,.2Z"/>
        <path class="cls-6" d="M81.3,673.6h.3c.1,0,.2,0,.2,.2v3.6c0,.1,0,.2-.2,.2h-.3c-.1,0-.2,0-.2-.2v-.4c-.3,.4-.8,.7-1.5,.7-1.3,0-2-1.1-2-2.1s.8-2.1,2-2.1,1.2,.3,1.5,.7v-.4c0-.1,0-.2,.2-.2Zm-.2,2c0-.8-.5-1.4-1.4-1.4s-1.3,.6-1.3,1.4,.5,1.4,1.3,1.4,1.4-.6,1.4-1.4Zm-.6-3.8c.1,0,.2,.1,.1,.2l-.6,.8c0,0-.1,0-.2,0h-.3c0,0-.1,0,0-.2l.4-.8c0,0,.2-.2,.3-.2h.3Z"/>
        <path class="cls-6" d="M88.5,672h.3c.1,0,.2,0,.2,.2v5.2c0,.1,0,.2-.2,.2h-.3c-.1,0-.2,0-.2-.2v-.4c-.3,.4-.8,.7-1.5,.7-1.3,0-2-1.1-2-2.1s.8-2.1,2-2.1,1.2,.3,1.5,.7v-1.9c0-.1,0-.2,.2-.2Zm-.2,3.6c0-.8-.5-1.4-1.4-1.4s-1.3,.6-1.3,1.4,.5,1.4,1.3,1.4,1.4-.6,1.4-1.4Z"/>
        <path class="cls-6" d="M90,672.4c0-.2,.2-.4,.4-.4s.4,.2,.4,.4-.2,.4-.4,.4-.4-.2-.4-.4Zm0,5v-3.6c0-.1,0-.2,.2-.2h.3c.1,0,.2,0,.2,.2v3.6c0,.1,0,.2-.2,.2h-.3c-.1,0-.2,0-.2-.2Z"/>
        <path class="cls-6" d="M93.8,673.5c0,0,.2,0,.2,.1v.5c0,0,0,.1-.2,.1-1.1,0-1.2,.8-1.2,1.5v1.6c0,.1,0,.2-.2,.2h-.3c-.1,0-.2,0-.2-.2v-3.6c0-.1,0-.2,.2-.2h.3c.1,0,.2,0,.2,.2v.5c.2-.5,.7-.8,1.2-.8Z"/>
        <path class="cls-6" d="M94.7,672.4c0-.2,.2-.4,.4-.4s.4,.2,.4,.4-.2,.4-.4,.4-.4-.2-.4-.4Zm0,5v-3.6c0-.1,0-.2,.2-.2h.3c.1,0,.2,0,.2,.2v3.6c0,.1,0,.2-.2,.2h-.3c-.1,0-.2,0-.2-.2Z"/>
        <path class="cls-6" d="M99.9,673.6h.3c.1,0,.2,0,.2,.2v3.4c0,1.2-.6,2-2.1,2s-1.3-.2-1.7-.6,0-.3,0-.3l.3-.2c0,0,.2,0,.3,0,.2,.2,.6,.4,1.1,.4,1,0,1.3-.6,1.3-1.4v-.3c-.3,.4-.7,.7-1.4,.7-1.2,0-2-1-2-2s.8-2,2-2,1.1,.3,1.4,.7v-.4c0-.1,0-.2,.2-.2Zm-.2,1.9c0-.7-.5-1.3-1.3-1.3-.7,0-1.4,.6-1.4,1.3s.6,1.3,1.3,1.3,1.3-.6,1.3-1.3Z"/>
        <path class="cls-6" d="M101.4,672.4c0-.2,.2-.4,.4-.4s.4,.2,.4,.4-.2,.4-.4,.4-.4-.2-.4-.4Zm0,5v-3.6c0-.1,0-.2,.2-.2h.3c.1,0,.2,0,.2,.2v3.6c0,.1,0,.2-.2,.2h-.3c-.1,0-.2,0-.2-.2Z"/>
        <path class="cls-6" d="M106.7,672h.3c.1,0,.2,0,.2,.2v5.2c0,.1,0,.2-.2,.2h-.3c-.1,0-.2,0-.2-.2v-.4c-.3,.4-.8,.7-1.5,.7-1.3,0-2-1.1-2-2.1s.8-2.1,2-2.1,1.2,.3,1.5,.7v-1.9c0-.1,0-.2,.2-.2Zm-.2,3.6c0-.8-.5-1.4-1.4-1.4s-1.3,.6-1.3,1.4,.5,1.4,1.3,1.4,1.4-.6,1.4-1.4Z"/>
        <path class="cls-6" d="M112.3,675.6c0,1.2-.9,2.1-2.1,2.1s-2.1-1-2.1-2.1,.9-2.1,2.1-2.1,2.1,1,2.1,2.1Zm-.7,0c0-.8-.6-1.4-1.4-1.4s-1.4,.6-1.4,1.4,.6,1.4,1.4,1.4,1.4-.6,1.4-1.4Z"/>
        <path class="cls-6" d="M118.7,673.6h.3c.1,0,.2,0,.2,.2v3.6c0,.1,0,.2-.2,.2h-.3c-.1,0-.2,0-.2-.2v-.4c-.3,.4-.8,.7-1.5,.7-1.3,0-2-1.1-2-2.1s.8-2.1,2-2.1,1.2,.3,1.5,.7v-.4c0-.1,0-.2,.2-.2Zm-.2,2c0-.8-.5-1.4-1.4-1.4s-1.3,.6-1.3,1.4,.5,1.4,1.3,1.4,1.4-.6,1.4-1.4Z"/>
        <path class="cls-6" d="M120.5,672h.3c.1,0,.2,0,.2,.2v5.2c0,.1,0,.2-.2,.2h-.3c-.1,0-.2,0-.2-.2v-5.2c0-.1,0-.2,.2-.2Z"/>
        <path class="cls-6" d="M128.4,675.6c0,1.1-.8,2.1-2,2.1s-1.2-.3-1.5-.7v1.9c0,.1,0,.2-.2,.2h-.3c-.1,0-.2,0-.2-.2v-5.2c0-.1,0-.2,.2-.2h.3c.1,0,.2,0,.2,.2v.4c.3-.4,.8-.7,1.5-.7,1.3,0,2,1.1,2,2.1Zm-.8,0c0-.8-.5-1.4-1.3-1.4s-1.4,.6-1.4,1.4,.5,1.4,1.4,1.4,1.3-.6,1.3-1.4Z"/>
        <path class="cls-6" d="M132.5,673.6c.1,0,.2,0,.2,.2v3.6c0,.1,0,.2-.2,.2h-.3c-.1,0-.2,0-.2-.2v-.4c-.2,.4-.6,.7-1.2,.7-.9,0-1.6-.8-1.6-1.6v-2.3c0-.1,0-.2,.2-.2h.3c.1,0,.2,0,.2,.2v2.1c0,.6,.2,1.1,1,1.1s1.1-.7,1.1-1.1v-2.1c0-.1,0-.2,.2-.2h.3Zm-.9-1.8c.1,0,.2,.1,.1,.2l-.6,.8c0,0-.1,0-.2,0h-.3c0,0-.1,0,0-.2l.4-.8c0,0,.2-.2,.3-.2h.3Z"/>
        <path class="cls-6" d="M138,675.6c0,1.1-.8,2.1-2,2.1s-1.2-.3-1.5-.7v.4c0,.1,0,.2-.2,.2h-.3c-.1,0-.2,0-.2-.2v-5.2c0-.1,0-.2,.2-.2h.3c.1,0,.2,0,.2,.2v1.9c.3-.4,.8-.7,1.5-.7,1.3,0,2,1.1,2,2.1Zm-.8,0c0-.8-.5-1.4-1.3-1.4s-1.4,.6-1.4,1.4,.5,1.4,1.4,1.4,1.3-.6,1.3-1.4Z"/>
        <path class="cls-6" d="M139,672h.3c.1,0,.2,0,.2,.2v5.2c0,.1,0,.2-.2,.2h-.3c-.1,0-.2,0-.2-.2v-5.2c0-.1,0-.2,.2-.2Z"/>
        <path class="cls-6" d="M140.5,672.4c0-.2,.2-.4,.4-.4s.4,.2,.4,.4-.2,.4-.4,.4-.4-.2-.4-.4Zm0,5v-3.6c0-.1,0-.2,.2-.2h.3c.1,0,.2,0,.2,.2v3.6c0,.1,0,.2-.2,.2h-.3c-.1,0-.2,0-.2-.2Z"/>
        <path class="cls-6" d="M145.3,676.5c0,0,.2-.1,.3,0h.2c.1,.2,.1,.4,0,.5-.4,.5-1,.8-1.7,.8-1.2,0-2.1-1-2.1-2.1s.9-2.1,2.1-2.1,1.3,.3,1.7,.8c0,.1,0,.3,0,.3h-.2c0,.2-.2,.2-.3,0-.2-.3-.6-.5-1.1-.5-.8,0-1.4,.6-1.4,1.4s.6,1.4,1.4,1.4,.8-.2,1.1-.5Z"/>
        <path class="cls-6" d="M150.7,675.6c0,1.2-.9,2.1-2.1,2.1s-2.1-1-2.1-2.1,.9-2.1,2.1-2.1,2.1,1,2.1,2.1Zm-.7,0c0-.8-.6-1.4-1.4-1.4s-1.4,.6-1.4,1.4,.6,1.4,1.4,1.4,1.4-.6,1.4-1.4Z"/>
        <path class="cls-6" d="M157.5,675.6c0,.2-.1,.3-.3,.3h-3c.1,.7,.6,1.1,1.4,1.1s.7-.1,1-.3c0,0,.2,0,.3,0l.2,.2c.1,0,.1,.2,0,.3-.4,.4-.9,.6-1.5,.6-1.3,0-2.2-1-2.2-2.1s.9-2.1,2-2.1,2,.8,2,2.2Zm-.8-.4c0-.7-.5-1.1-1.2-1.1s-1.2,.4-1.3,1.1h2.5Z"/>
        <path class="cls-6" d="M161.8,675.1v2.3c0,.1,0,.2-.2,.2h-.3c-.1,0-.2,0-.2-.2v-2.1c0-.6-.2-1.1-1-1.1s-1.1,.7-1.1,1.1v2.1c0,.1,0,.2-.2,.2h-.3c-.1,0-.2,0-.2-.2v-3.6c0-.1,0-.2,.2-.2h.3c.1,0,.2,0,.2,.2v.4c.2-.4,.6-.7,1.2-.7,.9,0,1.6,.8,1.6,1.6Z"/>
        <path class="cls-6" d="M168.4,673.6h.3c.1,0,.2,0,.2,.2v3.4c0,1.2-.6,2-2.1,2s-1.3-.2-1.7-.6,0-.3,0-.3l.3-.2c0,0,.2,0,.3,0,.2,.2,.6,.4,1.1,.4,1,0,1.3-.6,1.3-1.4v-.3c-.3,.4-.7,.7-1.4,.7-1.2,0-2-1-2-2s.8-2,2-2,1.1,.3,1.4,.7v-.4c0-.1,0-.2,.2-.2Zm-.2,1.9c0-.7-.5-1.3-1.3-1.3-.7,0-1.4,.6-1.4,1.3s.6,1.3,1.3,1.3,1.3-.6,1.3-1.3Z"/>
        <path class="cls-6" d="M173.7,675.6c0,.2-.1,.3-.3,.3h-3c.1,.7,.6,1.1,1.4,1.1s.7-.1,1-.3c0,0,.2,0,.3,0l.2,.2c.1,0,.1,.2,0,.3-.4,.4-.9,.6-1.5,.6-1.3,0-2.2-1-2.2-2.1s.9-2.1,2-2.1,2,.8,2,2.2Zm-.8-.4c0-.7-.5-1.1-1.2-1.1s-1.2,.4-1.3,1.1h2.5Z"/>
        <path class="cls-6" d="M178.1,675.1v2.3c0,.1,0,.2-.2,.2h-.3c-.1,0-.2,0-.2-.2v-2.1c0-.6-.2-1.1-1-1.1s-1.1,.7-1.1,1.1v2.1c0,.1,0,.2-.2,.2h-.3c-.1,0-.2,0-.2-.2v-3.6c0-.1,0-.2,.2-.2h.3c.1,0,.2,0,.2,.2v.4c.2-.4,.6-.7,1.2-.7,.9,0,1.6,.8,1.6,1.6Z"/>
        <path class="cls-6" d="M182.9,675.6c0,.2-.1,.3-.3,.3h-3c.1,.7,.6,1.1,1.4,1.1s.7-.1,1-.3c0,0,.2,0,.3,0l.2,.2c.1,0,.1,.2,0,.3-.4,.4-.9,.6-1.5,.6-1.3,0-2.2-1-2.2-2.1s.9-2.1,2-2.1,2,.8,2,2.2Zm-.8-.4c0-.7-.5-1.1-1.2-1.1s-1.2,.4-1.3,1.1h2.5Z"/>
        <path class="cls-6" d="M185.6,673.5c0,0,.2,0,.2,.1v.5c0,0,0,.1-.2,.1-1.1,0-1.2,.8-1.2,1.5v1.6c0,.1,0,.2-.2,.2h-.3c-.1,0-.2,0-.2-.2v-3.6c0-.1,0-.2,.2-.2h.3c.1,0,.2,0,.2,.2v.5c.2-.5,.7-.8,1.2-.8Z"/>
        <path class="cls-6" d="M190,673.6h.3c.1,0,.2,0,.2,.2v3.6c0,.1,0,.2-.2,.2h-.3c-.1,0-.2,0-.2-.2v-.4c-.3,.4-.8,.7-1.5,.7-1.3,0-2-1.1-2-2.1s.8-2.1,2-2.1,1.2,.3,1.5,.7v-.4c0-.1,0-.2,.2-.2Zm-.2,2c0-.8-.5-1.4-1.4-1.4s-1.3,.6-1.3,1.4,.5,1.4,1.3,1.4,1.4-.6,1.4-1.4Z"/>
        <path class="cls-6" d="M191.8,672h.3c.1,0,.2,0,.2,.2v5.2c0,.1,0,.2-.2,.2h-.3c-.1,0-.2,0-.2-.2v-5.2c0-.1,0-.2,.2-.2Z"/>
        <path class="cls-6" d="M198.5,673.6h.4c.1,0,.2,.1,.2,.2-.3,.8-1.3,3.3-1.5,3.8-.4,.9-.8,1.5-1.5,1.5s-.1,0-.2,0c0,0-.2,0-.2-.2v-.3c0,0,0-.2,.2-.2,.4,0,.7-.2,1-1.1,0-.1-1.2-2.8-1.6-3.6,0-.1,0-.2,.2-.2h.4c.1,0,.2,0,.3,.2l1.2,2.8,1-2.7c0-.1,.2-.2,.3-.2Z"/>
        <path class="cls-6" d="M205.4,673.6h.3c.1,0,.2,0,.2,.2v3.6c0,.1,0,.2-.2,.2h-.3c-.1,0-.2,0-.2-.2v-.4c-.3,.4-.8,.7-1.5,.7-1.3,0-2-1.1-2-2.1s.8-2.1,2-2.1,1.2,.3,1.5,.7v-.4c0-.1,0-.2,.2-.2Zm-.2,2c0-.8-.5-1.4-1.4-1.4s-1.3,.6-1.3,1.4,.5,1.4,1.3,1.4,1.4-.6,1.4-1.4Z"/>
        <path class="cls-6" d="M209.4,672h.3c.1,0,.2,0,.2,.2v5.2c0,.1,0,.2-.2,.2h-.3c-.1,0-.2,0-.2-.2v-5.2c0-.1,0-.2,.2-.2Z"/>
        <path class="cls-6" d="M214.4,673.6h.3c.1,0,.2,0,.2,.2v3.6c0,.1,0,.2-.2,.2h-.3c-.1,0-.2,0-.2-.2v-.4c-.3,.4-.8,.7-1.5,.7-1.3,0-2-1.1-2-2.1s.8-2.1,2-2.1,1.2,.3,1.5,.7v-.4c0-.1,0-.2,.2-.2Zm-.2,2c0-.8-.5-1.4-1.4-1.4s-1.3,.6-1.3,1.4,.5,1.4,1.3,1.4,1.4-.6,1.4-1.4Z"/>
        <path class="cls-6" d="M218.8,676.4c0,.7-.5,1.3-1.6,1.3s-1.3-.2-1.5-.7c0-.1,0-.3,.1-.3h.3c0-.1,.2-.1,.2,0,.1,.2,.4,.4,.9,.4s.8-.2,.8-.6-.7-.5-1.2-.6c-.8-.2-1.1-.5-1.1-1.1s.6-1.3,1.5-1.3,1.1,.2,1.3,.7c0,.1,0,.3-.1,.3h-.3c0,.1-.2,0-.2,0-.1-.2-.3-.3-.7-.3s-.7,.2-.7,.6,.6,.5,1,.6c1,.2,1.3,.5,1.3,1.1Z"/>
        <path class="cls-6" d="M225.9,675.6c0,1.1-.8,2.1-2,2.1s-1.2-.3-1.5-.7v1.9c0,.1,0,.2-.2,.2h-.3c-.1,0-.2,0-.2-.2v-5.2c0-.1,0-.2,.2-.2h.3c.1,0,.2,0,.2,.2v.4c.3-.4,.8-.7,1.5-.7,1.3,0,2,1.1,2,2.1Zm-.8,0c0-.8-.5-1.4-1.3-1.4s-1.4,.6-1.4,1.4,.5,1.4,1.4,1.4,1.3-.6,1.3-1.4Z"/>
        <path class="cls-6" d="M230.5,675.6c0,.2-.1,.3-.3,.3h-3c.1,.7,.6,1.1,1.4,1.1s.7-.1,1-.3c0,0,.2,0,.3,0l.2,.2c.1,0,.1,.2,0,.3-.4,.4-.9,.6-1.5,.6-1.3,0-2.2-1-2.2-2.1s.9-2.1,2-2.1,2,.8,2,2.2Zm-.8-.4c0-.7-.5-1.1-1.2-1.1s-1.2,.4-1.3,1.1h2.5Z"/>
        <path class="cls-6" d="M233.3,673.5c0,0,.2,0,.2,.1v.5c0,0,0,.1-.2,.1-1.1,0-1.2,.8-1.2,1.5v1.6c0,.1,0,.2-.2,.2h-.3c-.1,0-.2,0-.2-.2v-3.6c0-.1,0-.2,.2-.2h.3c.1,0,.2,0,.2,.2v.5c.2-.5,.7-.8,1.2-.8Z"/>
        <path class="cls-6" d="M237.1,676.4c0,.7-.5,1.3-1.6,1.3s-1.3-.2-1.5-.7c0-.1,0-.3,.1-.3h.3c0-.1,.2-.1,.2,0,.1,.2,.4,.4,.9,.4s.8-.2,.8-.6-.7-.5-1.2-.6c-.8-.2-1.1-.5-1.1-1.1s.6-1.3,1.5-1.3,1.1,.2,1.3,.7c0,.1,0,.3-.1,.3h-.3c0,.1-.2,0-.2,0-.1-.2-.3-.3-.7-.3s-.7,.2-.7,.6,.6,.5,1,.6c1,.2,1.3,.5,1.3,1.1Z"/>
        <path class="cls-6" d="M241.9,675.6c0,1.2-.9,2.1-2.1,2.1s-2.1-1-2.1-2.1,.9-2.1,2.1-2.1,2.1,1,2.1,2.1Zm-.7,0c0-.8-.6-1.4-1.4-1.4s-1.4,.6-1.4,1.4,.6,1.4,1.4,1.4,1.4-.6,1.4-1.4Z"/>
        <path class="cls-6" d="M246.2,675.1v2.3c0,.1,0,.2-.2,.2h-.3c-.1,0-.2,0-.2-.2v-2.1c0-.6-.2-1.1-1-1.1s-1.1,.7-1.1,1.1v2.1c0,.1,0,.2-.2,.2h-.3c-.1,0-.2,0-.2-.2v-3.6c0-.1,0-.2,.2-.2h.3c.1,0,.2,0,.2,.2v.4c.2-.4,.6-.7,1.2-.7,.9,0,1.6,.8,1.6,1.6Z"/>
        <path class="cls-6" d="M250.7,673.6h.3c.1,0,.2,0,.2,.2v3.6c0,.1,0,.2-.2,.2h-.3c-.1,0-.2,0-.2-.2v-.4c-.3,.4-.8,.7-1.5,.7-1.3,0-2-1.1-2-2.1s.8-2.1,2-2.1,1.2,.3,1.5,.7v-.4c0-.1,0-.2,.2-.2Zm-.2,2c0-.8-.5-1.4-1.4-1.4s-1.3,.6-1.3,1.4,.5,1.4,1.3,1.4,1.4-.6,1.4-1.4Z"/>
        <path class="cls-6" d="M255.1,676.4c0,.7-.5,1.3-1.6,1.3s-1.3-.2-1.5-.7c0-.1,0-.3,.1-.3h.3c0-.1,.2-.1,.2,0,.1,.2,.4,.4,.9,.4s.8-.2,.8-.6-.7-.5-1.2-.6c-.8-.2-1.1-.5-1.1-1.1s.6-1.3,1.5-1.3,1.1,.2,1.3,.7c0,.1,0,.3-.1,.3h-.3c0,.1-.2,0-.2,0-.1-.2-.3-.3-.7-.3s-.7,.2-.7,.6,.6,.5,1,.6c1,.2,1.3,.5,1.3,1.1Z"/>
        <path class="cls-6" d="M261.5,673.6h.3c.1,0,.2,0,.2,.2v5.2c0,.1,0,.2-.2,.2h-.3c-.1,0-.2,0-.2-.2v-1.9c-.3,.4-.8,.7-1.5,.7-1.3,0-2-1.1-2-2.1s.8-2.1,2-2.1,1.2,.3,1.5,.7v-.4c0-.1,0-.2,.2-.2Zm-.2,2c0-.8-.5-1.4-1.4-1.4s-1.3,.6-1.3,1.4,.5,1.4,1.3,1.4,1.4-.6,1.4-1.4Z"/>
        <path class="cls-6" d="M266.4,673.6c.1,0,.2,0,.2,.2v3.6c0,.1,0,.2-.2,.2h-.3c-.1,0-.2,0-.2-.2v-.4c-.2,.4-.6,.7-1.2,.7-.9,0-1.6-.8-1.6-1.6v-2.3c0-.1,0-.2,.2-.2h.3c.1,0,.2,0,.2,.2v2.1c0,.6,.2,1.1,1,1.1s1.1-.7,1.1-1.1v-2.1c0-.1,0-.2,.2-.2h.3Z"/>
        <path class="cls-6" d="M271.4,675.6c0,.2-.1,.3-.3,.3h-3c.1,.7,.6,1.1,1.4,1.1s.7-.1,1-.3c0,0,.2,0,.3,0l.2,.2c.1,0,.1,.2,0,.3-.4,.4-.9,.6-1.5,.6-1.3,0-2.2-1-2.2-2.1s.9-2.1,2-2.1,2,.8,2,2.2Zm-.8-.4c0-.7-.5-1.1-1.2-1.1s-1.2,.4-1.3,1.1h2.5Z"/>
        <path class="cls-6" d="M277.4,673.6h.4c.1,0,.2,.1,.2,.2l-1.4,3.6c0,.1-.1,.2-.3,.2h-.4c-.1,0-.2,0-.3-.2l-1.4-3.6c0-.1,0-.2,.2-.2h.4c.1,0,.2,0,.3,.2l1.1,3,1.1-3c0-.1,.2-.2,.3-.2Z"/>
        <path class="cls-6" d="M278.6,672.4c0-.2,.2-.4,.4-.4s.4,.2,.4,.4-.2,.4-.4,.4-.4-.2-.4-.4Zm0,5v-3.6c0-.1,0-.2,.2-.2h.3c.1,0,.2,0,.2,.2v3.6c0,.1,0,.2-.2,.2h-.3c-.1,0-.2,0-.2-.2Z"/>
        <path class="cls-6" d="M283.5,673.6h.4c.1,0,.2,.1,.2,.2l-1.4,3.6c0,.1-.1,.2-.3,.2h-.4c-.1,0-.2,0-.3-.2l-1.4-3.6c0-.1,0-.2,.2-.2h.4c.1,0,.2,0,.3,.2l1.1,3,1.1-3c0-.1,.2-.2,.3-.2Z"/>
        <path class="cls-6" d="M288.5,675.6c0,.2-.1,.3-.3,.3h-3c.1,.7,.6,1.1,1.4,1.1s.7-.1,1-.3c0,0,.2,0,.3,0l.2,.2c.1,0,.1,.2,0,.3-.4,.4-.9,.6-1.5,.6-1.3,0-2.2-1-2.2-2.1s.9-2.1,2-2.1,2,.8,2,2.2Zm-.8-.4c0-.7-.5-1.1-1.2-1.1s-1.2,.4-1.3,1.1h2.5Z"/>
        <path class="cls-6" d="M292.9,675.1v2.3c0,.1,0,.2-.2,.2h-.3c-.1,0-.2,0-.2-.2v-2.1c0-.6-.2-1.1-1-1.1s-1.1,.7-1.1,1.1v2.1c0,.1,0,.2-.2,.2h-.3c-.1,0-.2,0-.2-.2v-3.6c0-.1,0-.2,.2-.2h.3c.1,0,.2,0,.2,.2v.4c.2-.4,.6-.7,1.2-.7,.9,0,1.6,.8,1.6,1.6Z"/>
        <path class="cls-6" d="M299,676.5c0,0,.2-.1,.3,0h.2c.1,.2,.1,.4,0,.5-.4,.5-1,.8-1.7,.8-1.2,0-2.1-1-2.1-2.1s.9-2.1,2.1-2.1,1.3,.3,1.7,.8c0,.1,0,.3,0,.3h-.2c0,.2-.2,.2-.3,0-.2-.3-.6-.5-1.1-.5-.8,0-1.4,.6-1.4,1.4s.6,1.4,1.4,1.4,.8-.2,1.1-.5Z"/>
        <path class="cls-6" d="M304.5,675.6c0,1.2-.9,2.1-2.1,2.1s-2.1-1-2.1-2.1,.9-2.1,2.1-2.1,2.1,1,2.1,2.1Zm-.7,0c0-.8-.6-1.4-1.4-1.4s-1.4,.6-1.4,1.4,.6,1.4,1.4,1.4,1.4-.6,1.4-1.4Z"/>
        <path class="cls-6" d="M308.8,675.1v2.3c0,.1,0,.2-.2,.2h-.3c-.1,0-.2,0-.2-.2v-2.1c0-.6-.2-1.1-1-1.1s-1.1,.7-1.1,1.1v2.1c0,.1,0,.2-.2,.2h-.3c-.1,0-.2,0-.2-.2v-3.6c0-.1,0-.2,.2-.2h.3c.1,0,.2,0,.2,.2v.4c.2-.4,.6-.7,1.2-.7,.9,0,1.6,.8,1.6,1.6Z"/>
        <path class="cls-6" d="M312,672.4c0-.2,.2-.4,.4-.4s.4,.2,.4,.4-.2,.4-.4,.4-.4-.2-.4-.4Zm0,5v-3.6c0-.1,0-.2,.2-.2h.3c.1,0,.2,0,.2,.2v3.6c0,.1,0,.2-.2,.2h-.3c-.1,0-.2,0-.2-.2Z"/>
        <path class="cls-6" d="M317.3,675.1v2.3c0,.1,0,.2-.2,.2h-.3c-.1,0-.2,0-.2-.2v-2.1c0-.6-.2-1.1-1-1.1s-1.1,.7-1.1,1.1v2.1c0,.1,0,.2-.2,.2h-.3c-.1,0-.2,0-.2-.2v-3.6c0-.1,0-.2,.2-.2h.3c.1,0,.2,0,.2,.2v.4c.2-.4,.6-.7,1.2-.7,.9,0,1.6,.8,1.6,1.6Z"/>
        <path class="cls-6" d="M321.2,676.4c0,.7-.5,1.3-1.6,1.3s-1.3-.2-1.5-.7c0-.1,0-.3,.1-.3h.3c0-.1,.2-.1,.2,0,.1,.2,.4,.4,.9,.4s.8-.2,.8-.6-.7-.5-1.2-.6c-.8-.2-1.1-.5-1.1-1.1s.6-1.3,1.5-1.3,1.1,.2,1.3,.7c0,.1,0,.3-.1,.3h-.3c0,.1-.2,0-.2,0-.1-.2-.3-.3-.7-.3s-.7,.2-.7,.6,.6,.5,1,.6c1,.2,1.3,.5,1.3,1.1Z"/>
        <path class="cls-6" d="M325.3,673.6c.1,0,.2,0,.2,.2v3.6c0,.1,0,.2-.2,.2h-.3c-.1,0-.2,0-.2-.2v-.4c-.2,.4-.6,.7-1.2,.7-.9,0-1.6-.8-1.6-1.6v-2.3c0-.1,0-.2,.2-.2h.3c.1,0,.2,0,.2,.2v2.1c0,.6,.2,1.1,1,1.1s1.1-.7,1.1-1.1v-2.1c0-.1,0-.2,.2-.2h.3Z"/>
        <path class="cls-6" d="M327.7,673.6h.7c.1,0,.2,0,.2,.2v.3c0,.1,0,.2-.2,.2h-.7v3.1c0,.1,0,.2-.2,.2h-.3c-.1,0-.2,0-.2-.2v-3.1h-.4c-.1,0-.2,0-.2-.2v-.3c0-.1,0-.2,.2-.2h.4c0-.9,.3-1.6,1.4-1.6s0,0,.1,0c0,0,.2,0,.2,.2v.2c0,.1,0,.2-.2,.2h0c-.6,0-.7,.4-.7,1Z"/>
        <path class="cls-6" d="M329.3,672.4c0-.2,.2-.4,.4-.4s.4,.2,.4,.4-.2,.4-.4,.4-.4-.2-.4-.4Zm0,5v-3.6c0-.1,0-.2,.2-.2h.3c.1,0,.2,0,.2,.2v3.6c0,.1,0,.2-.2,.2h-.3c-.1,0-.2,0-.2-.2Z"/>
        <path class="cls-6" d="M334.1,676.5c0,0,.2-.1,.3,0h.2c.1,.2,.1,.4,0,.5-.4,.5-1,.8-1.7,.8-1.2,0-2.1-1-2.1-2.1s.9-2.1,2.1-2.1,1.3,.3,1.7,.8c0,.1,0,.3,0,.3h-.2c0,.2-.2,.2-.3,0-.2-.3-.6-.5-1.1-.5-.8,0-1.4,.6-1.4,1.4s.6,1.4,1.4,1.4,.8-.2,1.1-.5Z"/>
        <path class="cls-6" d="M335.5,672.4c0-.2,.2-.4,.4-.4s.4,.2,.4,.4-.2,.4-.4,.4-.4-.2-.4-.4Zm0,5v-3.6c0-.1,0-.2,.2-.2h.3c.1,0,.2,0,.2,.2v3.6c0,.1,0,.2-.2,.2h-.3c-.1,0-.2,0-.2-.2Z"/>
        <path class="cls-6" d="M341.1,675.6c0,.2-.1,.3-.3,.3h-3c.1,.7,.6,1.1,1.4,1.1s.7-.1,1-.3c0,0,.2,0,.3,0l.2,.2c.1,0,.1,.2,0,.3-.4,.4-.9,.6-1.5,.6-1.3,0-2.2-1-2.2-2.1s.9-2.1,2-2.1,2,.8,2,2.2Zm-.8-.4c0-.7-.5-1.1-1.2-1.1s-1.2,.4-1.3,1.1h2.5Z"/>
        <path class="cls-6" d="M345.4,675.1v2.3c0,.1,0,.2-.2,.2h-.3c-.1,0-.2,0-.2-.2v-2.1c0-.6-.2-1.1-1-1.1s-1.1,.7-1.1,1.1v2.1c0,.1,0,.2-.2,.2h-.3c-.1,0-.2,0-.2-.2v-3.6c0-.1,0-.2,.2-.2h.3c.1,0,.2,0,.2,.2v.4c.2-.4,.6-.7,1.2-.7,.9,0,1.6,.8,1.6,1.6Z"/>
        <path class="cls-6" d="M349.4,676.5c0,0,.2-.1,.3,0h.2c.1,.2,.1,.4,0,.5-.4,.5-1,.8-1.7,.8-1.2,0-2.1-1-2.1-2.1s.9-2.1,2.1-2.1,1.3,.3,1.7,.8c0,.1,0,.3,0,.3h-.2c0,.2-.2,.2-.3,0-.2-.3-.6-.5-1.1-.5-.8,0-1.4,.6-1.4,1.4s.6,1.4,1.4,1.4,.8-.2,1.1-.5Z"/>
        <path class="cls-6" d="M350.8,672.4c0-.2,.2-.4,.4-.4s.4,.2,.4,.4-.2,.4-.4,.4-.4-.2-.4-.4Zm0,5v-3.6c0-.1,0-.2,.2-.2h.3c.1,0,.2,0,.2,.2v3.6c0,.1,0,.2-.2,.2h-.3c-.1,0-.2,0-.2-.2Z"/>
        <path class="cls-6" d="M356.1,673.6h.3c.1,0,.2,0,.2,.2v3.6c0,.1,0,.2-.2,.2h-.3c-.1,0-.2,0-.2-.2v-.4c-.3,.4-.8,.7-1.5,.7-1.3,0-2-1.1-2-2.1s.8-2.1,2-2.1,1.2,.3,1.5,.7v-.4c0-.1,0-.2,.2-.2Zm-.2,2c0-.8-.5-1.4-1.4-1.4s-1.3,.6-1.3,1.4,.5,1.4,1.3,1.4,1.4-.6,1.4-1.4Z"/>
        <path class="cls-6" d="M362.8,676.5c0,0,.2-.1,.3,0h.2c.1,.2,.1,.4,0,.5-.4,.5-1,.8-1.7,.8-1.2,0-2.1-1-2.1-2.1s.9-2.1,2.1-2.1,1.3,.3,1.7,.8c0,.1,0,.3,0,.3h-.2c0,.2-.2,.2-.3,0-.2-.3-.6-.5-1.1-.5-.8,0-1.4,.6-1.4,1.4s.6,1.4,1.4,1.4,.8-.2,1.1-.5Z"/>
        <path class="cls-6" d="M367.6,673.6h.3c.1,0,.2,0,.2,.2v3.6c0,.1,0,.2-.2,.2h-.3c-.1,0-.2,0-.2-.2v-.4c-.3,.4-.8,.7-1.5,.7-1.3,0-2-1.1-2-2.1s.8-2.1,2-2.1,1.2,.3,1.5,.7v-.4c0-.1,0-.2,.2-.2Zm-.2,2c0-.8-.5-1.4-1.4-1.4s-1.3,.6-1.3,1.4,.5,1.4,1.3,1.4,1.4-.6,1.4-1.4Z"/>
        <path class="cls-6" d="M371.1,673.5c0,0,.2,0,.2,.1v.5c0,0,0,.1-.2,.1-1.1,0-1.2,.8-1.2,1.5v1.6c0,.1,0,.2-.2,.2h-.3c-.1,0-.2,0-.2-.2v-3.6c0-.1,0-.2,.2-.2h.3c.1,0,.2,0,.2,.2v.5c.2-.5,.7-.8,1.2-.8Z"/>
        <path class="cls-6" d="M375.5,672h.3c.1,0,.2,0,.2,.2v5.2c0,.1,0,.2-.2,.2h-.3c-.1,0-.2,0-.2-.2v-.4c-.3,.4-.8,.7-1.5,.7-1.3,0-2-1.1-2-2.1s.8-2.1,2-2.1,1.2,.3,1.5,.7v-1.9c0-.1,0-.2,.2-.2Zm-.2,3.6c0-.8-.5-1.4-1.4-1.4s-1.3,.6-1.3,1.4,.5,1.4,1.3,1.4,1.4-.6,1.4-1.4Z"/>
        <path class="cls-6" d="M377.1,677.4v-3.6c0-.1,0-.2,.2-.2h.3c.1,0,.2,0,.2,.2v3.6c0,.1,0,.2-.2,.2h-.3c-.1,0-.2,0-.2-.2Zm1.1-5.6c.1,0,.2,.1,.1,.2l-.6,.8c0,0-.1,0-.2,0h-.3c0,0-.1,0,0-.2l.4-.8c0,0,.2-.2,.3-.2h.3Z"/>
        <path class="cls-6" d="M382.3,673.6h.3c.1,0,.2,0,.2,.2v3.6c0,.1,0,.2-.2,.2h-.3c-.1,0-.2,0-.2-.2v-.4c-.3,.4-.8,.7-1.5,.7-1.3,0-2-1.1-2-2.1s.8-2.1,2-2.1,1.2,.3,1.5,.7v-.4c0-.1,0-.2,.2-.2Zm-.2,2c0-.8-.5-1.4-1.4-1.4s-1.3,.6-1.3,1.4,.5,1.4,1.3,1.4,1.4-.6,1.4-1.4Z"/>
        <path class="cls-6" d="M386.9,676.5c0,0,.2-.1,.3,0h.2c.1,.2,.1,.4,0,.5-.4,.5-1,.8-1.7,.8-1.2,0-2.1-1-2.1-2.1s.9-2.1,2.1-2.1,1.3,.3,1.7,.8c0,.1,0,.3,0,.3h-.2c0,.2-.2,.2-.3,0-.2-.3-.6-.5-1.1-.5-.8,0-1.4,.6-1.4,1.4s.6,1.4,1.4,1.4,.8-.2,1.1-.5Z"/>
        <path class="cls-6" d="M391.7,673.6h.3c.1,0,.2,0,.2,.2v3.6c0,.1,0,.2-.2,.2h-.3c-.1,0-.2,0-.2-.2v-.4c-.3,.4-.8,.7-1.5,.7-1.3,0-2-1.1-2-2.1s.8-2.1,2-2.1,1.2,.3,1.5,.7v-.4c0-.1,0-.2,.2-.2Zm-.2,2c0-.8-.5-1.4-1.4-1.4s-1.3,.6-1.3,1.4,.5,1.4,1.3,1.4,1.4-.6,1.4-1.4Z"/>
        <path class="cls-6" d="M394.2,677.2c0,.3-.2,.5-.5,.5s-.5-.2-.5-.5,.2-.5,.5-.5,.5,.2,.5,.5Z"/>
        <path class="cls-6" d="M401.1,673.8c0,1-.8,1.8-2,1.8h-1v1.7c0,.1,0,.2-.2,.2h-.4c-.1,0-.2,0-.2-.2v-5.2c0-.1,0-.2,.2-.2h1.6c1.3,0,2,.8,2,1.8Zm-.8,0c0-.7-.4-1.1-1.2-1.1h-1v2.2h1c.8,0,1.2-.4,1.2-1.1Z"/>
        <path class="cls-6" d="M405.4,673.6h.3c.1,0,.2,0,.2,.2v3.6c0,.1,0,.2-.2,.2h-.3c-.1,0-.2,0-.2-.2v-.4c-.3,.4-.8,.7-1.5,.7-1.3,0-2-1.1-2-2.1s.8-2.1,2-2.1,1.2,.3,1.5,.7v-.4c0-.1,0-.2,.2-.2Zm-.2,2c0-.8-.5-1.4-1.4-1.4s-1.3,.6-1.3,1.4,.5,1.4,1.3,1.4,1.4-.6,1.4-1.4Z"/>
        <path class="cls-6" d="M408.9,673.5c0,0,.2,0,.2,.1v.5c0,0,0,.1-.2,.1-1.1,0-1.2,.8-1.2,1.5v1.6c0,.1,0,.2-.2,.2h-.3c-.1,0-.2,0-.2-.2v-3.6c0-.1,0-.2,.2-.2h.3c.1,0,.2,0,.2,.2v.5c.2-.5,.7-.8,1.2-.8Z"/>
        <path class="cls-6" d="M413.3,673.6h.3c.1,0,.2,0,.2,.2v3.6c0,.1,0,.2-.2,.2h-.3c-.1,0-.2,0-.2-.2v-.4c-.3,.4-.8,.7-1.5,.7-1.3,0-2-1.1-2-2.1s.8-2.1,2-2.1,1.2,.3,1.5,.7v-.4c0-.1,0-.2,.2-.2Zm-.2,2c0-.8-.5-1.4-1.4-1.4s-1.3,.6-1.3,1.4,.5,1.4,1.3,1.4,1.4-.6,1.4-1.4Z"/>
        <path class="cls-6" d="M422.7,674.9v2.5c0,.1,0,.2-.2,.2h-.3c-.1,0-.2,0-.2-.2v-2.3c0-.6-.3-1-.9-1s-.9,.5-.9,1v2.3c0,.1,0,.2-.2,.2h-.3c-.1,0-.2,0-.2-.2v-2.3c0-.6-.3-1-.9-1s-.9,.5-.9,1v2.3c0,.1,0,.2-.2,.2h-.3c-.1,0-.2,0-.2-.2v-3.6c0-.1,0-.2,.2-.2h.3c.1,0,.2,0,.2,.2v.3c.2-.3,.6-.6,1.1-.6s.9,.3,1.2,.6c.3-.4,.7-.6,1.3-.6s1.4,.6,1.4,1.5Z"/>
        <path class="cls-6" d="M427.2,673.6h.3c.1,0,.2,0,.2,.2v3.6c0,.1,0,.2-.2,.2h-.3c-.1,0-.2,0-.2-.2v-.4c-.3,.4-.8,.7-1.5,.7-1.3,0-2-1.1-2-2.1s.8-2.1,2-2.1,1.2,.3,1.5,.7v-.4c0-.1,0-.2,.2-.2Zm-.2,2c0-.8-.5-1.4-1.4-1.4s-1.3,.6-1.3,1.4,.5,1.4,1.3,1.4,1.4-.6,1.4-1.4Zm-.6-3.8c.1,0,.2,.1,.1,.2l-.6,.8c0,0-.1,0-.2,0h-.3c0,0-.1,0,0-.2l.4-.8c0,0,.2-.2,.3-.2h.3Z"/>
        <path class="cls-6" d="M431.7,676.4c0,.7-.5,1.3-1.6,1.3s-1.3-.2-1.5-.7c0-.1,0-.3,.1-.3h.3c0-.1,.2-.1,.2,0,.1,.2,.4,.4,.9,.4s.8-.2,.8-.6-.7-.5-1.2-.6c-.8-.2-1.1-.5-1.1-1.1s.6-1.3,1.5-1.3,1.1,.2,1.3,.7c0,.1,0,.3-.1,.3h-.3c0,.1-.2,0-.2,0-.1-.2-.3-.3-.7-.3s-.7,.2-.7,.6,.6,.5,1,.6c1,.2,1.3,.5,1.3,1.1Z"/>
        <path class="cls-6" d="M434.5,672.4c0-.2,.2-.4,.4-.4s.4,.2,.4,.4-.2,.4-.4,.4-.4-.2-.4-.4Zm0,5v-3.6c0-.1,0-.2,.2-.2h.3c.1,0,.2,0,.2,.2v3.6c0,.1,0,.2-.2,.2h-.3c-.1,0-.2,0-.2-.2Z"/>
        <path class="cls-6" d="M439.9,675.1v2.3c0,.1,0,.2-.2,.2h-.3c-.1,0-.2,0-.2-.2v-2.1c0-.6-.2-1.1-1-1.1s-1.1,.7-1.1,1.1v2.1c0,.1,0,.2-.2,.2h-.3c-.1,0-.2,0-.2-.2v-3.6c0-.1,0-.2,.2-.2h.3c.1,0,.2,0,.2,.2v.4c.2-.4,.6-.7,1.2-.7,.9,0,1.6,.8,1.6,1.6Z"/>
        <path class="cls-6" d="M442.1,673.6h.7c.1,0,.2,0,.2,.2v.3c0,.1,0,.2-.2,.2h-.7v3.1c0,.1,0,.2-.2,.2h-.3c-.1,0-.2,0-.2-.2v-3.1h-.4c-.1,0-.2,0-.2-.2v-.3c0-.1,0-.2,.2-.2h.4c0-.9,.3-1.6,1.4-1.6s0,0,.1,0c0,0,.2,0,.2,.2v.2c0,.1,0,.2-.2,.2h0c-.6,0-.7,.4-.7,1Z"/>
        <path class="cls-6" d="M447.8,675.6c0,1.2-.9,2.1-2.1,2.1s-2.1-1-2.1-2.1,.9-2.1,2.1-2.1,2.1,1,2.1,2.1Zm-.7,0c0-.8-.6-1.4-1.4-1.4s-1.4,.6-1.4,1.4,.6,1.4,1.4,1.4,1.4-.6,1.4-1.4Z"/>
        <path class="cls-6" d="M450.5,673.5c0,0,.2,0,.2,.1v.5c0,0,0,.1-.2,.1-1.1,0-1.2,.8-1.2,1.5v1.6c0,.1,0,.2-.2,.2h-.3c-.1,0-.2,0-.2-.2v-3.6c0-.1,0-.2,.2-.2h.3c.1,0,.2,0,.2,.2v.5c.2-.5,.7-.8,1.2-.8Z"/>
        <path class="cls-6" d="M457.2,674.9v2.5c0,.1,0,.2-.2,.2h-.3c-.1,0-.2,0-.2-.2v-2.3c0-.6-.3-1-.9-1s-.9,.5-.9,1v2.3c0,.1,0,.2-.2,.2h-.3c-.1,0-.2,0-.2-.2v-2.3c0-.6-.3-1-.9-1s-.9,.5-.9,1v2.3c0,.1,0,.2-.2,.2h-.3c-.1,0-.2,0-.2-.2v-3.6c0-.1,0-.2,.2-.2h.3c.1,0,.2,0,.2,.2v.3c.2-.3,.6-.6,1.1-.6s.9,.3,1.2,.6c.3-.4,.7-.6,1.3-.6s1.4,.6,1.4,1.5Z"/>
        <path class="cls-6" d="M461.7,673.6h.3c.1,0,.2,0,.2,.2v3.6c0,.1,0,.2-.2,.2h-.3c-.1,0-.2,0-.2-.2v-.4c-.3,.4-.8,.7-1.5,.7-1.3,0-2-1.1-2-2.1s.8-2.1,2-2.1,1.2,.3,1.5,.7v-.4c0-.1,0-.2,.2-.2Zm-.2,2c0-.8-.5-1.4-1.4-1.4s-1.3,.6-1.3,1.4,.5,1.4,1.3,1.4,1.4-.6,1.4-1.4Z"/>
        <path class="cls-6" d="M466.2,676.5c0,0,.2-.1,.3,0h.2c.1,.2,.1,.4,0,.5-.4,.5-1,.8-1.7,.8-1.2,0-2.1-1-2.1-2.1s.9-2.1,2.1-2.1,1.3,.3,1.7,.8c0,.1,0,.3,0,.3h-.2c0,.2-.2,.2-.3,0-.2-.3-.6-.5-1.1-.5-.8,0-1.4,.6-1.4,1.4s.6,1.4,1.4,1.4,.8-.2,1.1-.5Z"/>
        <path class="cls-6" d="M467.5,672.4c0-.2,.2-.4,.4-.4s.4,.2,.4,.4-.2,.4-.4,.4-.4-.2-.4-.4Zm0,5v-3.6c0-.1,0-.2,.2-.2h.3c.1,0,.2,0,.2,.2v3.6c0,.1,0,.2-.2,.2h-.3c-.1,0-.2,0-.2-.2Z"/>
        <path class="cls-6" d="M473.4,675.6c0,1.2-.9,2.1-2.1,2.1s-2.1-1-2.1-2.1,.9-2.1,2.1-2.1,2.1,1,2.1,2.1Zm-.7,0c0-.8-.6-1.4-1.4-1.4s-1.4,.6-1.4,1.4,.6,1.4,1.4,1.4,1.4-.6,1.4-1.4Zm-.7-3.8c.1,0,.2,.1,.1,.2l-.6,.8c0,0-.1,0-.2,0h-.3c0,0-.1,0,0-.2l.4-.8c0,0,.2-.2,.3-.2h.3Z"/>
        <path class="cls-6" d="M477.7,675.1v2.3c0,.1,0,.2-.2,.2h-.3c-.1,0-.2,0-.2-.2v-2.1c0-.6-.2-1.1-1-1.1s-1.1,.7-1.1,1.1v2.1c0,.1,0,.2-.2,.2h-.3c-.1,0-.2,0-.2-.2v-3.6c0-.1,0-.2,.2-.2h.3c.1,0,.2,0,.2,.2v.4c.2-.4,.6-.7,1.2-.7,.9,0,1.6,.8,1.6,1.6Z"/>
        <path class="cls-6" d="M479.3,676.8l.3,.2c.1,0,.1,.2,0,.3l-.7,1c0,0-.2,.1-.3,0h-.1c-.1-.1-.1-.2,0-.4l.5-1.1c0-.1,.2-.2,.3,0Z"/>
      </g>
      <g>
        <path class="cls-6" d="M485.9,673.6h.4c.1,0,.2,.1,.2,.2l-1.4,3.6c0,.1-.1,.2-.3,.2h-.4c-.1,0-.2,0-.3-.2l-1.4-3.6c0-.1,0-.2,.2-.2h.4c.1,0,.2,0,.3,.2l1.1,3,1.1-3c0-.1,.2-.2,.3-.2Z"/>
        <path class="cls-6" d="M487.1,672.4c0-.2,.2-.4,.4-.4s.4,.2,.4,.4-.2,.4-.4,.4-.4-.2-.4-.4Zm0,5v-3.6c0-.1,0-.2,.2-.2h.3c.1,0,.2,0,.2,.2v3.6c0,.1,0,.2-.2,.2h-.3c-.1,0-.2,0-.2-.2Z"/>
        <path class="cls-6" d="M491.8,676.4c0,.7-.5,1.3-1.6,1.3s-1.3-.2-1.5-.7c0-.1,0-.3,.1-.3h.3c0-.1,.2-.1,.2,0,.1,.2,.4,.4,.9,.4s.8-.2,.8-.6-.7-.5-1.2-.6c-.8-.2-1.1-.5-1.1-1.1s.6-1.3,1.5-1.3,1.1,.2,1.3,.7c0,.1,0,.3-.1,.3h-.3c0,.1-.2,0-.2,0-.1-.2-.3-.3-.7-.3s-.7,.2-.7,.6,.6,.5,1,.6c1,.2,1.3,.5,1.3,1.1Z"/>
        <path class="cls-6" d="M492.5,672.4c0-.2,.2-.4,.4-.4s.4,.2,.4,.4-.2,.4-.4,.4-.4-.2-.4-.4Zm0,5v-3.6c0-.1,0-.2,.2-.2h.3c.1,0,.2,0,.2,.2v3.6c0,.1,0,.2-.2,.2h-.3c-.1,0-.2,0-.2-.2Z"/>
        <path class="cls-6" d="M496.2,674.3h-.7v1.8c0,.6,0,1,.6,1h.1c.1,0,.2,0,.2,.2v.3c0,0,0,.2-.2,.2,0,0-.2,0-.2,0-.9,0-1.3-.5-1.3-1.4v-2h-.5c-.1,0-.2,0-.2-.2v-.3c0-.1,0-.2,.2-.2h.5v-.6c0-.1,0-.2,.2-.2h.3c.1,0,.2,0,.2,.2v.6h.7c.1,0,.2,0,.2,.2v.3c0,.1,0,.2-.2,.2Z"/>
        <path class="cls-6" d="M501.1,675.6c0,.2-.1,.3-.3,.3h-3c.1,.7,.6,1.1,1.4,1.1s.7-.1,1-.3c0,0,.2,0,.3,0l.2,.2c.1,0,.1,.2,0,.3-.4,.4-.9,.6-1.5,.6-1.3,0-2.2-1-2.2-2.1s.9-2.1,2-2.1,2,.8,2,2.2Zm-.8-.4c0-.7-.5-1.1-1.2-1.1s-1.2,.4-1.3,1.1h2.5Z"/>
      </g>
      <g>
        <path class="cls-6" d="M9.6,683.2h.4c.1,0,.2,.1,.2,.2l-1.2,3.6c0,.1-.1,.2-.3,.2h-.3c-.1,0-.2,0-.3-.2l-.8-2.6-.8,2.6c0,.1-.2,.2-.3,.2h-.3c-.1,0-.2,0-.3-.2l-1.2-3.6c0-.1,0-.2,.2-.2h.4c.1,0,.2,0,.3,.2l.8,2.8,.9-2.8c0,0,.1-.2,.2-.2h.2c0,0,.2,0,.2,.2l.9,2.8,.8-2.8c0-.1,.1-.2,.3-.2Z"/>
        <path class="cls-6" d="M15.8,683.2h.4c.1,0,.2,.1,.2,.2l-1.2,3.6c0,.1-.1,.2-.3,.2h-.3c-.1,0-.2,0-.3-.2l-.8-2.6-.8,2.6c0,.1-.2,.2-.3,.2h-.3c-.1,0-.2,0-.3-.2l-1.2-3.6c0-.1,0-.2,.2-.2h.4c.1,0,.2,0,.3,.2l.8,2.8,.9-2.8c0,0,.1-.2,.2-.2h.2c0,0,.2,0,.2,.2l.9,2.8,.8-2.8c0-.1,.1-.2,.3-.2Z"/>
        <path class="cls-6" d="M22,683.2h.4c.1,0,.2,.1,.2,.2l-1.2,3.6c0,.1-.1,.2-.3,.2h-.3c-.1,0-.2,0-.3-.2l-.8-2.6-.8,2.6c0,.1-.2,.2-.3,.2h-.3c-.1,0-.2,0-.3-.2l-1.2-3.6c0-.1,0-.2,.2-.2h.4c.1,0,.2,0,.3,.2l.8,2.8,.9-2.8c0,0,.1-.2,.2-.2h.2c0,0,.2,0,.2,.2l.9,2.8,.8-2.8c0-.1,.1-.2,.3-.2Z"/>
        <path class="cls-6" d="M24.1,686.8c0,.3-.2,.5-.5,.5s-.5-.2-.5-.5,.2-.5,.5-.5,.5,.2,.5,.5Z"/>
        <path class="cls-6" d="M27.9,686c0,.7-.5,1.3-1.6,1.3s-1.3-.2-1.5-.7c0-.1,0-.3,.1-.3h.3c0-.1,.2-.1,.2,0,.1,.2,.4,.4,.9,.4s.8-.2,.8-.6-.7-.5-1.2-.6c-.8-.2-1.1-.5-1.1-1.1s.6-1.3,1.5-1.3,1.1,.2,1.3,.7c0,.1,0,.3-.1,.3h-.3c0,.1-.2,0-.2,0-.1-.2-.3-.3-.7-.3s-.7,.2-.7,.6,.6,.5,1,.6c1,.2,1.3,.5,1.3,1.1Z"/>
        <path class="cls-6" d="M32.9,685.2c0,1.1-.8,2.1-2,2.1s-1.2-.3-1.5-.7v1.9c0,.1,0,.2-.2,.2h-.3c-.1,0-.2,0-.2-.2v-5.2c0-.1,0-.2,.2-.2h.3c.1,0,.2,0,.2,.2v.4c.3-.4,.8-.7,1.5-.7,1.3,0,2,1.1,2,2.1Zm-.8,0c0-.8-.5-1.4-1.3-1.4s-1.4,.6-1.4,1.4,.5,1.4,1.4,1.4,1.3-.6,1.3-1.4Z"/>
        <path class="cls-6" d="M37.7,685.2c0,1.2-.9,2.1-2.1,2.1s-2.1-1-2.1-2.1,.9-2.1,2.1-2.1,2.1,1,2.1,2.1Zm-.7,0c0-.8-.6-1.4-1.4-1.4s-1.4,.6-1.4,1.4,.6,1.4,1.4,1.4,1.4-.6,1.4-1.4Z"/>
        <path class="cls-6" d="M40.3,683.9h-.7v1.8c0,.6,0,1,.6,1h.1c.1,0,.2,0,.2,.2v.3c0,0,0,.2-.2,.2,0,0-.2,0-.2,0-.9,0-1.3-.5-1.3-1.4v-2h-.5c-.1,0-.2,0-.2-.2v-.3c0-.1,0-.2,.2-.2h.5v-.6c0-.1,0-.2,.2-.2h.3c.1,0,.2,0,.2,.2v.6h.7c.1,0,.2,0,.2,.2v.3c0,.1,0,.2-.2,.2Z"/>
        <path class="cls-6" d="M41.7,681.6h.3c.1,0,.2,0,.2,.2v5.2c0,.1,0,.2-.2,.2h-.3c-.1,0-.2,0-.2-.2v-5.2c0-.1,0-.2,.2-.2Z"/>
        <path class="cls-6" d="M43.2,682c0-.2,.2-.4,.4-.4s.4,.2,.4,.4-.2,.4-.4,.4-.4-.2-.4-.4Zm0,5v-3.6c0-.1,0-.2,.2-.2h.3c.1,0,.2,0,.2,.2v3.6c0,.1,0,.2-.2,.2h-.3c-.1,0-.2,0-.2-.2Z"/>
        <path class="cls-6" d="M48.4,683.2h.3c.1,0,.2,0,.2,.2v3.4c0,1.2-.6,2-2.1,2s-1.3-.2-1.7-.6,0-.3,0-.3l.3-.2c0,0,.2,0,.3,0,.2,.2,.6,.4,1.1,.4,1,0,1.3-.6,1.3-1.4v-.3c-.3,.4-.7,.7-1.4,.7-1.2,0-2-1-2-2s.8-2,2-2,1.1,.3,1.4,.7v-.4c0-.1,0-.2,.2-.2Zm-.2,1.9c0-.7-.5-1.3-1.3-1.3-.7,0-1.4,.6-1.4,1.3s.6,1.3,1.3,1.3,1.3-.6,1.3-1.3Z"/>
        <path class="cls-6" d="M53.5,684.7v2.3c0,.1,0,.2-.2,.2h-.3c-.1,0-.2,0-.2-.2v-2.1c0-.6-.2-1.1-1-1.1s-1.1,.7-1.1,1.1v2.1c0,.1,0,.2-.2,.2h-.3c-.1,0-.2,0-.2-.2v-5.2c0-.1,0-.2,.2-.2h.3c.1,0,.2,0,.2,.2v1.9c.2-.4,.6-.7,1.2-.7,.9,0,1.6,.8,1.6,1.6Z"/>
        <path class="cls-6" d="M56.3,683.9h-.7v1.8c0,.6,0,1,.6,1h.1c.1,0,.2,0,.2,.2v.3c0,0,0,.2-.2,.2,0,0-.2,0-.2,0-.9,0-1.3-.5-1.3-1.4v-2h-.5c-.1,0-.2,0-.2-.2v-.3c0-.1,0-.2,.2-.2h.5v-.6c0-.1,0-.2,.2-.2h.3c.1,0,.2,0,.2,.2v.6h.7c.1,0,.2,0,.2,.2v.3c0,.1,0,.2-.2,.2Z"/>
        <path class="cls-6" d="M61.5,685.2c0,1.2-.9,2.1-2.1,2.1s-2.1-1-2.1-2.1,.9-2.1,2.1-2.1,2.1,1,2.1,2.1Zm-.7,0c0-.8-.6-1.4-1.4-1.4s-1.4,.6-1.4,1.4,.6,1.4,1.4,1.4,1.4-.6,1.4-1.4Z"/>
        <path class="cls-6" d="M65.8,684.7v2.3c0,.1,0,.2-.2,.2h-.3c-.1,0-.2,0-.2-.2v-2.1c0-.6-.2-1.1-1-1.1s-1.1,.7-1.1,1.1v2.1c0,.1,0,.2-.2,.2h-.3c-.1,0-.2,0-.2-.2v-3.6c0-.1,0-.2,.2-.2h.3c.1,0,.2,0,.2,.2v.4c.2-.4,.6-.7,1.2-.7,.9,0,1.6,.8,1.6,1.6Z"/>
        <path class="cls-6" d="M70.4,684.7v2.3c0,.1,0,.2-.2,.2h-.3c-.1,0-.2,0-.2-.2v-2.1c0-.6-.2-1.1-1-1.1s-1.1,.7-1.1,1.1v2.1c0,.1,0,.2-.2,.2h-.3c-.1,0-.2,0-.2-.2v-5.2c0-.1,0-.2,.2-.2h.3c.1,0,.2,0,.2,.2v1.9c.2-.4,.6-.7,1.2-.7,.9,0,1.6,.8,1.6,1.6Z"/>
        <path class="cls-6" d="M75.2,685.2c0,.2-.1,.3-.3,.3h-3c.1,.7,.6,1.1,1.4,1.1s.7-.1,1-.3c0,0,.2,0,.3,0l.2,.2c.1,0,.1,.2,0,.3-.4,.4-.9,.6-1.5,.6-1.3,0-2.2-1-2.2-2.1s.9-2.1,2-2.1,2,.8,2,2.2Zm-.8-.4c0-.7-.5-1.1-1.2-1.1s-1.2,.4-1.3,1.1h2.5Z"/>
        <path class="cls-6" d="M79.5,683.2h.3c.1,0,.2,0,.2,.2v3.6c0,.1,0,.2-.2,.2h-.3c-.1,0-.2,0-.2-.2v-.4c-.3,.4-.8,.7-1.5,.7-1.3,0-2-1.1-2-2.1s.8-2.1,2-2.1,1.2,.3,1.5,.7v-.4c0-.1,0-.2,.2-.2Zm-.2,2c0-.8-.5-1.4-1.4-1.4s-1.3,.6-1.3,1.4,.5,1.4,1.3,1.4,1.4-.6,1.4-1.4Z"/>
        <path class="cls-6" d="M83,683.1c0,0,.2,0,.2,.1v.5c0,0,0,.1-.2,.1-1.1,0-1.2,.8-1.2,1.5v1.6c0,.1,0,.2-.2,.2h-.3c-.1,0-.2,0-.2-.2v-3.6c0-.1,0-.2,.2-.2h.3c.1,0,.2,0,.2,.2v.5c.2-.5,.7-.8,1.2-.8Z"/>
        <path class="cls-6" d="M85.7,683.9h-.7v1.8c0,.6,0,1,.6,1h.1c.1,0,.2,0,.2,.2v.3c0,0,0,.2-.2,.2,0,0-.2,0-.2,0-.9,0-1.3-.5-1.3-1.4v-2h-.5c-.1,0-.2,0-.2-.2v-.3c0-.1,0-.2,.2-.2h.5v-.6c0-.1,0-.2,.2-.2h.3c.1,0,.2,0,.2,.2v.6h.7c.1,0,.2,0,.2,.2v.3c0,.1,0,.2-.2,.2Z"/>
        <path class="cls-6" d="M88,683.2h.7c.1,0,.2,0,.2,.2v.3c0,.1,0,.2-.2,.2h-.7v3.1c0,.1,0,.2-.2,.2h-.3c-.1,0-.2,0-.2-.2v-3.1h-.4c-.1,0-.2,0-.2-.2v-.3c0-.1,0-.2,.2-.2h.4c0-.9,.3-1.6,1.4-1.6s0,0,.1,0c0,0,.2,0,.2,.2v.2c0,.1,0,.2-.2,.2h0c-.6,0-.7,.4-.7,1Z"/>
        <path class="cls-6" d="M93.2,683.2h.3c.1,0,.2,0,.2,.2v3.6c0,.1,0,.2-.2,.2h-.3c-.1,0-.2,0-.2-.2v-.4c-.3,.4-.8,.7-1.5,.7-1.3,0-2-1.1-2-2.1s.8-2.1,2-2.1,1.2,.3,1.5,.7v-.4c0-.1,0-.2,.2-.2Zm-.2,2c0-.8-.5-1.4-1.4-1.4s-1.3,.6-1.3,1.4,.5,1.4,1.3,1.4,1.4-.6,1.4-1.4Z"/>
        <path class="cls-6" d="M94.7,682c0-.2,.2-.4,.4-.4s.4,.2,.4,.4-.2,.4-.4,.4-.4-.2-.4-.4Zm0,5v-3.6c0-.1,0-.2,.2-.2h.3c.1,0,.2,0,.2,.2v3.6c0,.1,0,.2-.2,.2h-.3c-.1,0-.2,0-.2-.2Z"/>
        <path class="cls-6" d="M96.7,681.6h.3c.1,0,.2,0,.2,.2v5.2c0,.1,0,.2-.2,.2h-.3c-.1,0-.2,0-.2-.2v-5.2c0-.1,0-.2,.2-.2Z"/>
        <path class="cls-6" d="M101.6,683.2c.1,0,.2,0,.2,.2v3.6c0,.1,0,.2-.2,.2h-.3c-.1,0-.2,0-.2-.2v-.4c-.2,.4-.6,.7-1.2,.7-.9,0-1.6-.8-1.6-1.6v-2.3c0-.1,0-.2,.2-.2h.3c.1,0,.2,0,.2,.2v2.1c0,.6,.2,1.1,1,1.1s1.1-.7,1.1-1.1v-2.1c0-.1,0-.2,.2-.2h.3Z"/>
        <path class="cls-6" d="M104.8,683.1c0,0,.2,0,.2,.1v.5c0,0,0,.1-.2,.1-1.1,0-1.2,.8-1.2,1.5v1.6c0,.1,0,.2-.2,.2h-.3c-.1,0-.2,0-.2-.2v-3.6c0-.1,0-.2,.2-.2h.3c.1,0,.2,0,.2,.2v.5c.2-.5,.7-.8,1.2-.8Z"/>
        <path class="cls-6" d="M109.5,685.2c0,.2-.1,.3-.3,.3h-3c.1,.7,.6,1.1,1.4,1.1s.7-.1,1-.3c0,0,.2,0,.3,0l.2,.2c.1,0,.1,.2,0,.3-.4,.4-.9,.6-1.5,.6-1.3,0-2.2-1-2.2-2.1s.9-2.1,2-2.1,2,.8,2,2.2Zm-.8-.4c0-.7-.5-1.1-1.2-1.1s-1.2,.4-1.3,1.1h2.5Z"/>
        <path class="cls-6" d="M111.2,686.8c0,.3-.2,.5-.5,.5s-.5-.2-.5-.5,.2-.5,.5-.5,.5,.2,.5,.5Z"/>
        <path class="cls-6" d="M115.1,686.1c0,0,.2-.1,.3,0h.2c.1,.2,.1,.4,0,.5-.4,.5-1,.8-1.7,.8-1.2,0-2.1-1-2.1-2.1s.9-2.1,2.1-2.1,1.3,.3,1.7,.8c0,.1,0,.3,0,.3h-.2c0,.2-.2,.2-.3,0-.2-.3-.6-.5-1.1-.5-.8,0-1.4,.6-1.4,1.4s.6,1.4,1.4,1.4,.8-.2,1.1-.5Z"/>
        <path class="cls-6" d="M120.5,685.2c0,1.2-.9,2.1-2.1,2.1s-2.1-1-2.1-2.1,.9-2.1,2.1-2.1,2.1,1,2.1,2.1Zm-.7,0c0-.8-.6-1.4-1.4-1.4s-1.4,.6-1.4,1.4,.6,1.4,1.4,1.4,1.4-.6,1.4-1.4Z"/>
        <path class="cls-6" d="M127,684.5v2.5c0,.1,0,.2-.2,.2h-.3c-.1,0-.2,0-.2-.2v-2.3c0-.6-.3-1-.9-1s-.9,.5-.9,1v2.3c0,.1,0,.2-.2,.2h-.3c-.1,0-.2,0-.2-.2v-2.3c0-.6-.3-1-.9-1s-.9,.5-.9,1v2.3c0,.1,0,.2-.2,.2h-.3c-.1,0-.2,0-.2-.2v-3.6c0-.1,0-.2,.2-.2h.3c.1,0,.2,0,.2,.2v.3c.2-.3,.6-.6,1.1-.6s.9,.3,1.2,.6c.3-.4,.7-.6,1.3-.6s1.4,.6,1.4,1.5Z"/>
      </g>
      <g class="cls-3">
        <image width="1614" height="541" transform="translate(3.9 36.7) scale(.3)" xlink:href="guia-pag-21.png"/>
      </g>
      <g>
        <path class="cls-6" d="M43.3,103.4c0,1.6-1.1,2.8-3,2.8h-1.5c-.2,0-.3-.1-.3-.3v-5c0-.2,.1-.3,.3-.3h1.5c1.9,0,3,1.2,3,2.8Zm-1.1,0c0-1.2-.9-1.8-1.9-1.8h-.6v3.6h.6c1,0,1.9-.5,1.9-1.8Z"/>
        <path class="cls-6" d="M44.1,101c0-.3,.2-.5,.5-.5s.5,.2,.5,.5-.2,.5-.5,.5-.5-.2-.5-.5Zm0,4.9v-3.5c0-.2,.1-.3,.3-.3h.4c.2,0,.3,.1,.3,.3v3.5c0,.2-.1,.3-.3,.3h-.4c-.2,0-.3-.1-.3-.3Z"/>
        <path class="cls-6" d="M47.5,102.2h.6c.2,0,.3,.1,.3,.3v.4c0,.2-.1,.3-.3,.3h-.6v2.8c0,.2-.1,.3-.3,.3h-.4c-.2,0-.3-.1-.3-.3v-2.8h-.3c-.2,0-.3-.1-.3-.3v-.4c0-.2,.1-.3,.3-.3h.3c0-.8,.4-1.6,1.5-1.6s.2,0,.2,0c.1,0,.2,0,.2,.2v.4c0,.1,0,.2-.2,.2-.5,0-.7,.3-.7,.8Z"/>
        <path class="cls-6" d="M49.1,101c0-.3,.2-.5,.5-.5s.5,.2,.5,.5-.2,.5-.5,.5-.5-.2-.5-.5Zm0,4.9v-3.5c0-.2,.1-.3,.3-.3h.4c.2,0,.3,.1,.3,.3v3.5c0,.2-.1,.3-.3,.3h-.4c-.2,0-.3-.1-.3-.3Z"/>
        <path class="cls-6" d="M53.8,105c0,0,.2-.1,.3,0l.5,.3c.1,0,.1,.2,0,.3-.4,.5-1,.8-1.7,.8-1.2,0-2.1-.9-2.1-2.1s.9-2.1,2.1-2.1,1.3,.3,1.7,.8c0,.1,0,.2,0,.3l-.5,.3c0,0-.2,0-.3,0-.2-.2-.5-.4-.8-.4-.7,0-1.1,.5-1.1,1.2s.4,1.2,1.1,1.2,.6-.1,.8-.4Z"/>
        <path class="cls-6" d="M58.8,102.2c.2,0,.3,.1,.3,.3v3.5c0,.2-.1,.3-.3,.3h-.4c-.2,0-.3-.1-.3-.3v-.2c-.2,.3-.6,.6-1.2,.6-1,0-1.5-.8-1.5-1.7v-2.2c0-.2,.1-.3,.3-.3h.4c.2,0,.3,.1,.3,.3v2c0,.5,.2,.9,.8,.9s.9-.4,.9-.9v-2c0-.2,.1-.3,.3-.3h.4Z"/>
        <path class="cls-6" d="M60.3,100.6h.4c.2,0,.3,.1,.3,.3v5c0,.2-.1,.3-.3,.3h-.4c-.2,0-.3-.1-.3-.3v-5c0-.2,.1-.3,.3-.3Z"/>
        <path class="cls-6" d="M63.9,103.1h-.6v1.5c0,.5,0,.7,.6,.7h0c.1,0,.2,0,.2,.2v.5c0,.1,0,.2-.2,.2,0,0-.1,0-.2,0-1,0-1.5-.7-1.5-1.5v-1.6h-.4c-.2,0-.3-.1-.3-.3v-.4c0-.2,.1-.3,.3-.3h.4v-.6c0-.2,.1-.3,.3-.3h.4c.2,0,.3,.1,.3,.3v.6h.6c.2,0,.3,.1,.3,.3v.4c0,.2-.1,.3-.3,.3Z"/>
        <path class="cls-6" d="M68.4,102.2h.4c.2,0,.3,.1,.3,.3v3.5c0,.2-.1,.3-.3,.3h-.4c-.2,0-.3-.1-.3-.3v-.2c-.3,.3-.7,.6-1.3,.6-1.3,0-2-1.1-2-2.1s.7-2.1,2-2.1,1,.2,1.3,.6v-.2c0-.2,.1-.3,.3-.3Zm-.3,2c0-.6-.4-1.2-1.1-1.2s-1.1,.5-1.1,1.2,.4,1.2,1.1,1.2,1.1-.5,1.1-1.2Z"/>
        <path class="cls-6" d="M73.4,100.6h.4c.2,0,.3,.1,.3,.3v5c0,.2-.1,.3-.3,.3h-.4c-.2,0-.3-.1-.3-.3v-.2c-.3,.3-.7,.6-1.3,.6-1.3,0-2-1.1-2-2.1s.7-2.1,2-2.1,1,.2,1.3,.6v-1.7c0-.2,.1-.3,.3-.3Zm-.3,3.6c0-.6-.4-1.2-1.1-1.2s-1.1,.5-1.1,1.2,.4,1.2,1.1,1.2,1.1-.5,1.1-1.2Z"/>
        <path class="cls-6" d="M81.4,104.2c0,1.1-.7,2.1-2,2.1s-1-.2-1.3-.6v1.7c0,.2-.1,.3-.3,.3h-.4c-.2,0-.3-.1-.3-.3v-5c0-.2,.1-.3,.3-.3h.4c.2,0,.3,.1,.3,.3v.2c.3-.3,.7-.6,1.3-.6,1.3,0,2,1.1,2,2.1Zm-1,0c0-.6-.4-1.2-1.1-1.2s-1.1,.5-1.1,1.2,.4,1.2,1.1,1.2,1.1-.5,1.1-1.2Z"/>
        <path class="cls-6" d="M85.5,102.2h.4c.2,0,.3,.1,.3,.3v3.5c0,.2-.1,.3-.3,.3h-.4c-.2,0-.3-.1-.3-.3v-.2c-.3,.3-.7,.6-1.3,.6-1.3,0-2-1.1-2-2.1s.7-2.1,2-2.1,1,.2,1.3,.6v-.2c0-.2,.1-.3,.3-.3Zm-.3,2c0-.6-.4-1.2-1.1-1.2s-1.1,.5-1.1,1.2,.4,1.2,1.1,1.2,1.1-.5,1.1-1.2Z"/>
        <path class="cls-6" d="M89.3,102.1c.1,0,.2,0,.2,.2v.6c0,.1,0,.2-.2,.2-1,0-1.1,.7-1.1,1.4v1.4c0,.2-.1,.3-.3,.3h-.4c-.2,0-.3-.1-.3-.3v-3.5c0-.2,.1-.3,.3-.3h.4c.2,0,.3,.1,.3,.3v.4c.3-.4,.7-.7,1.1-.7Z"/>
        <path class="cls-6" d="M93.6,102.2h.4c.2,0,.3,.1,.3,.3v3.5c0,.2-.1,.3-.3,.3h-.4c-.2,0-.3-.1-.3-.3v-.2c-.3,.3-.7,.6-1.3,.6-1.3,0-2-1.1-2-2.1s.7-2.1,2-2.1,1,.2,1.3,.6v-.2c0-.2,.1-.3,.3-.3Zm-.3,2c0-.6-.4-1.2-1.1-1.2s-1.1,.5-1.1,1.2,.4,1.2,1.1,1.2,1.1-.5,1.1-1.2Z"/>
      </g>
      <g>
        <path class="cls-6" d="M55.3,111.7c.1,0,.2,0,.2,.2v.6c0,.1,0,.2-.2,.2-1,0-1.1,.7-1.1,1.4v1.4c0,.2-.1,.3-.3,.3h-.4c-.2,0-.3-.1-.3-.3v-3.5c0-.2,.1-.3,.3-.3h.4c.2,0,.3,.1,.3,.3v.4c.3-.4,.7-.7,1.1-.7Z"/>
        <path class="cls-6" d="M60.1,113.9c0,.2-.1,.3-.3,.3h-2.7c.1,.5,.6,.8,1.2,.8s.6-.2,.8-.3c0,0,.2,0,.2,0l.5,.3c.1,0,.1,.2,0,.3-.4,.4-.9,.6-1.5,.6-1.3,0-2.2-.9-2.2-2.1s1-2.1,2.1-2.1,2.1,.8,2,2.2Zm-1-.5c-.1-.5-.5-.8-1-.8s-.9,.3-1,.8h2Z"/>
        <path class="cls-6" d="M63.9,114.6c0,.8-.6,1.3-1.7,1.3s-1.4-.2-1.6-.8c0-.1,0-.3,.1-.3l.6-.2c0,0,.2,0,.2,0,0,.1,.3,.3,.7,.3s.7-.2,.7-.4-.6-.4-1.1-.5c-.8-.2-1.2-.5-1.2-1.2s.6-1.3,1.6-1.3,1.2,.3,1.5,.8c0,.1,0,.3-.1,.3h-.5c0,.2-.2,.1-.2,0,0-.2-.3-.3-.6-.3s-.6,.1-.6,.4,.5,.4,.9,.5c1,.2,1.4,.5,1.4,1.2Z"/>
        <path class="cls-6" d="M68.9,113.8c0,1.1-.7,2.1-2,2.1s-1-.2-1.3-.6v1.7c0,.2-.1,.3-.3,.3h-.4c-.2,0-.3-.1-.3-.3v-5c0-.2,.1-.3,.3-.3h.4c.2,0,.3,.1,.3,.3v.2c.3-.3,.7-.6,1.3-.6,1.3,0,2,1.1,2,2.1Zm-1,0c0-.6-.4-1.2-1.1-1.2s-1.1,.5-1.1,1.2,.4,1.2,1.1,1.2,1.1-.5,1.1-1.2Z"/>
        <path class="cls-6" d="M69.6,110.6c0-.3,.2-.5,.5-.5s.5,.2,.5,.5-.2,.5-.5,.5-.5-.2-.5-.5Zm0,4.9v-3.5c0-.2,.1-.3,.3-.3h.4c.2,0,.3,.1,.3,.3v3.5c0,.2-.1,.3-.3,.3h-.4c-.2,0-.3-.1-.3-.3Z"/>
        <path class="cls-6" d="M73.7,111.7c.1,0,.2,0,.2,.2v.6c0,.1,0,.2-.2,.2-1,0-1.1,.7-1.1,1.4v1.4c0,.2-.1,.3-.3,.3h-.4c-.2,0-.3-.1-.3-.3v-3.5c0-.2,.1-.3,.3-.3h.4c.2,0,.3,.1,.3,.3v.4c.3-.4,.7-.7,1.1-.7Z"/>
        <path class="cls-6" d="M78,111.8h.4c.2,0,.3,.1,.3,.3v3.5c0,.2-.1,.3-.3,.3h-.4c-.2,0-.3-.1-.3-.3v-.2c-.3,.3-.7,.6-1.3,.6-1.3,0-2-1.1-2-2.1s.7-2.1,2-2.1,1,.2,1.3,.6v-.2c0-.2,.1-.3,.3-.3Zm-.3,2c0-.6-.4-1.2-1.1-1.2s-1.1,.5-1.1,1.2,.4,1.2,1.1,1.2,1.1-.5,1.1-1.2Z"/>
        <path class="cls-6" d="M81.8,111.7c.1,0,.2,0,.2,.2v.6c0,.1,0,.2-.2,.2-1,0-1.1,.7-1.1,1.4v1.4c0,.2-.1,.3-.3,.3h-.4c-.2,0-.3-.1-.3-.3v-3.5c0-.2,.1-.3,.3-.3h.4c.2,0,.3,.1,.3,.3v.4c.3-.4,.7-.7,1.1-.7Z"/>
      </g>
      <g>
        <path class="cls-6" d="M153.1,100.6h.5c.2,0,.3,.1,.3,.3v5c0,.2-.1,.3-.3,.3h-.5c-.2,0-.3-.1-.3-.3v-2h-2.3v2c0,.2-.1,.3-.3,.3h-.5c-.2,0-.3-.1-.3-.3v-5c0-.2,.1-.3,.3-.3h.5c.2,0,.3,.1,.3,.3v2h2.3v-2c0-.2,.1-.3,.3-.3Z"/>
        <path class="cls-6" d="M154.9,101c0-.3,.2-.5,.5-.5s.5,.2,.5,.5-.2,.5-.5,.5-.5-.2-.5-.5Zm0,4.9v-3.5c0-.2,.1-.3,.3-.3h.4c.2,0,.3,.1,.3,.3v3.5c0,.2-.1,.3-.3,.3h-.4c-.2,0-.3-.1-.3-.3Z"/>
        <path class="cls-6" d="M160.6,103.7v2.2c0,.2-.1,.3-.3,.3h-.4c-.2,0-.3-.1-.3-.3v-2c0-.5-.2-.9-.8-.9s-.9,.4-.9,.9v2c0,.2-.1,.3-.3,.3h-.4c-.2,0-.3-.1-.3-.3v-3.5c0-.2,.1-.3,.3-.3h.4c.2,0,.3,.1,.3,.3v.2c.2-.3,.6-.6,1.2-.6,1,0,1.5,.8,1.5,1.7Z"/>
        <path class="cls-6" d="M164.3,105c0,0,.2-.1,.3,0l.5,.3c.1,0,.1,.2,0,.3-.4,.5-1,.8-1.7,.8-1.2,0-2.1-.9-2.1-2.1s.9-2.1,2.1-2.1,1.3,.3,1.7,.8c0,.1,0,.2,0,.3l-.5,.3c0,0-.2,0-.3,0-.2-.2-.5-.4-.8-.4-.7,0-1.1,.5-1.1,1.2s.4,1.2,1.1,1.2,.6-.1,.8-.4Z"/>
        <path class="cls-6" d="M169.6,103.7v2.2c0,.2-.1,.3-.3,.3h-.4c-.2,0-.3-.1-.3-.3v-2c0-.5-.2-.9-.8-.9s-.9,.4-.9,.9v2c0,.2-.1,.3-.3,.3h-.4c-.2,0-.3-.1-.3-.3v-5c0-.2,.1-.3,.3-.3h.4c.2,0,.3,.1,.3,.3v1.8c.2-.3,.6-.6,1.2-.6,1,0,1.5,.8,1.5,1.7Z"/>
        <path class="cls-6" d="M173.9,102.2h.4c.2,0,.3,.1,.3,.3v3.5c0,.2-.1,.3-.3,.3h-.4c-.2,0-.3-.1-.3-.3v-.2c-.3,.3-.7,.6-1.3,.6-1.3,0-2-1.1-2-2.1s.7-2.1,2-2.1,1,.2,1.3,.6v-.2c0-.2,.1-.3,.3-.3Zm-.3,2c0-.6-.4-1.2-1.1-1.2s-1.1,.5-1.1,1.2,.4,1.2,1.1,1.2,1.1-.5,1.1-1.2Z"/>
        <path class="cls-6" d="M178.4,105.3c.2,0,.3,.1,.3,.3v.4c0,.2-.1,.3-.3,.3h-2.6c-.2,0-.3-.1-.3-.3v-.3c0,0,0-.2,0-.2l1.8-2.3h-1.5c-.2,0-.3-.1-.3-.3v-.4c0-.2,.1-.3,.3-.3h2.5c.2,0,.3,.1,.3,.3v.3c0,0,0,.2,0,.2l-1.8,2.3h1.7Z"/>
        <path class="cls-6" d="M183.5,104.2c0,1.2-.9,2.1-2.1,2.1s-2.1-.9-2.1-2.1,.9-2.1,2.1-2.1,2.1,.9,2.1,2.1Zm-1,0c0-.6-.4-1.2-1.1-1.2s-1.1,.5-1.1,1.2,.4,1.2,1.1,1.2,1.1-.5,1.1-1.2Zm-.3-3.8c.1,0,.2,.1,.1,.2l-.5,.8c0,0-.1,.1-.2,.1h-.4c-.1,0-.2-.1-.1-.2l.4-.8c0,0,.2-.2,.3-.2h.6Z"/>
        <path class="cls-6" d="M187.9,103.7v2.2c0,.2-.1,.3-.3,.3h-.4c-.2,0-.3-.1-.3-.3v-2c0-.5-.2-.9-.8-.9s-.9,.4-.9,.9v2c0,.2-.1,.3-.3,.3h-.4c-.2,0-.3-.1-.3-.3v-3.5c0-.2,.1-.3,.3-.3h.4c.2,0,.3,.1,.3,.3v.2c.2-.3,.6-.6,1.2-.6,1,0,1.5,.8,1.5,1.7Z"/>
      </g>
      <g>
        <path class="cls-6" d="M136.8,110.2h.4c.2,0,.3,.1,.3,.3v5c0,.2-.1,.3-.3,.3h-.4c-.2,0-.3-.1-.3-.3v-.2c-.3,.3-.7,.6-1.3,.6-1.3,0-2-1.1-2-2.1s.7-2.1,2-2.1,1,.2,1.3,.6v-1.7c0-.2,.1-.3,.3-.3Zm-.3,3.6c0-.6-.4-1.2-1.1-1.2s-1.1,.5-1.1,1.2,.4,1.2,1.1,1.2,1.1-.5,1.1-1.2Z"/>
        <path class="cls-6" d="M142.4,113.9c0,.2-.1,.3-.3,.3h-2.7c.1,.5,.6,.8,1.2,.8s.6-.2,.8-.3c0,0,.2,0,.2,0l.5,.3c.1,0,.1,.2,0,.3-.4,.4-.9,.6-1.5,.6-1.3,0-2.2-.9-2.2-2.1s1-2.1,2.1-2.1,2.1,.8,2,2.2Zm-1-.5c-.1-.5-.5-.8-1-.8s-.9,.3-1,.8h2Z"/>
        <path class="cls-6" d="M147.1,112.7h-.6v1.5c0,.5,0,.7,.6,.7h0c.1,0,.2,0,.2,.2v.5c0,.1,0,.2-.2,.2,0,0-.1,0-.2,0-1,0-1.5-.7-1.5-1.5v-1.6h-.4c-.2,0-.3-.1-.3-.3v-.4c0-.2,.1-.3,.3-.3h.4v-.6c0-.2,.1-.3,.3-.3h.4c.2,0,.3,.1,.3,.3v.6h.6c.2,0,.3,.1,.3,.3v.4c0,.2-.1,.3-.3,.3Z"/>
        <path class="cls-6" d="M152.3,113.8c0,1.2-.9,2.1-2.1,2.1s-2.1-.9-2.1-2.1,.9-2.1,2.1-2.1,2.1,.9,2.1,2.1Zm-1,0c0-.6-.4-1.2-1.1-1.2s-1.1,.5-1.1,1.2,.4,1.2,1.1,1.2,1.1-.5,1.1-1.2Z"/>
        <path class="cls-6" d="M157.3,113.8c0,1.1-.7,2.1-2,2.1s-1-.2-1.3-.6v.2c0,.2-.1,.3-.3,.3h-.4c-.2,0-.3-.1-.3-.3v-5c0-.2,.1-.3,.3-.3h.4c.2,0,.3,.1,.3,.3v1.7c.3-.3,.7-.6,1.3-.6,1.3,0,2,1.1,2,2.1Zm-1,0c0-.6-.4-1.2-1.1-1.2s-1.1,.5-1.1,1.2,.4,1.2,1.1,1.2,1.1-.5,1.1-1.2Z"/>
        <path class="cls-6" d="M158,110.6c0-.3,.2-.5,.5-.5s.5,.2,.5,.5-.2,.5-.5,.5-.5-.2-.5-.5Zm0,4.9v-3.5c0-.2,.1-.3,.3-.3h.4c.2,0,.3,.1,.3,.3v3.5c0,.2-.1,.3-.3,.3h-.4c-.2,0-.3-.1-.3-.3Z"/>
        <path class="cls-6" d="M160.3,110.2h.4c.2,0,.3,.1,.3,.3v5c0,.2-.1,.3-.3,.3h-.4c-.2,0-.3-.1-.3-.3v-5c0-.2,.1-.3,.3-.3Z"/>
        <path class="cls-6" d="M162.3,110.2h.4c.2,0,.3,.1,.3,.3v5c0,.2-.1,.3-.3,.3h-.4c-.2,0-.3-.1-.3-.3v-5c0-.2,.1-.3,.3-.3Z"/>
        <path class="cls-6" d="M168,113.8c0,1.2-.9,2.1-2.1,2.1s-2.1-.9-2.1-2.1,.9-2.1,2.1-2.1,2.1,.9,2.1,2.1Zm-1,0c0-.6-.4-1.2-1.1-1.2s-1.1,.5-1.1,1.2,.4,1.2,1.1,1.2,1.1-.5,1.1-1.2Z"/>
        <path class="cls-6" d="M171.8,114.6c0,.8-.6,1.3-1.7,1.3s-1.4-.2-1.6-.8c0-.1,0-.3,.1-.3l.6-.2c0,0,.2,0,.2,0,0,.1,.3,.3,.7,.3s.7-.2,.7-.4-.6-.4-1.1-.5c-.8-.2-1.2-.5-1.2-1.2s.6-1.3,1.6-1.3,1.2,.3,1.5,.8c0,.1,0,.3-.1,.3h-.5c0,.2-.2,.1-.2,0,0-.2-.3-.3-.6-.3s-.6,.1-.6,.4,.5,.4,.9,.5c1,.2,1.4,.5,1.4,1.2Z"/>
        <path class="cls-6" d="M173.1,114.9l.4,.2c.1,0,.1,.2,0,.3l-.7,1.1c0,0-.2,.1-.3,0l-.3-.2c0,0-.1-.2,0-.3l.6-1.2c0-.1,.2-.2,.3,0Z"/>
        <path class="cls-6" d="M180.9,113.8c0,1.1-.7,2.1-2,2.1s-1-.2-1.3-.6v1.7c0,.2-.1,.3-.3,.3h-.4c-.2,0-.3-.1-.3-.3v-5c0-.2,.1-.3,.3-.3h.4c.2,0,.3,.1,.3,.3v.2c.3-.3,.7-.6,1.3-.6,1.3,0,2,1.1,2,2.1Zm-1,0c0-.6-.4-1.2-1.1-1.2s-1.1,.5-1.1,1.2,.4,1.2,1.1,1.2,1.1-.5,1.1-1.2Z"/>
        <path class="cls-6" d="M181.6,110.6c0-.3,.2-.5,.5-.5s.5,.2,.5,.5-.2,.5-.5,.5-.5-.2-.5-.5Zm0,4.9v-3.5c0-.2,.1-.3,.3-.3h.4c.2,0,.3,.1,.3,.3v3.5c0,.2-.1,.3-.3,.3h-.4c-.2,0-.3-.1-.3-.3Z"/>
        <path class="cls-6" d="M187.5,113.9c0,.2-.1,.3-.3,.3h-2.7c.1,.5,.6,.8,1.2,.8s.6-.2,.8-.3c0,0,.2,0,.2,0l.5,.3c.1,0,.1,.2,0,.3-.4,.4-.9,.6-1.5,.6-1.3,0-2.2-.9-2.2-2.1s1-2.1,2.1-2.1,2.1,.8,2,2.2Zm-1-.5c-.1-.5-.5-.8-1-.8s-.9,.3-1,.8h2Z"/>
        <path class="cls-6" d="M190.4,111.7c.1,0,.2,0,.2,.2v.6c0,.1,0,.2-.2,.2-1,0-1.1,.7-1.1,1.4v1.4c0,.2-.1,.3-.3,.3h-.4c-.2,0-.3-.1-.3-.3v-3.5c0-.2,.1-.3,.3-.3h.4c.2,0,.3,.1,.3,.3v.4c.3-.4,.7-.7,1.1-.7Z"/>
        <path class="cls-6" d="M195,113.3v2.2c0,.2-.1,.3-.3,.3h-.4c-.2,0-.3-.1-.3-.3v-2c0-.5-.2-.9-.8-.9s-.9,.4-.9,.9v2c0,.2-.1,.3-.3,.3h-.4c-.2,0-.3-.1-.3-.3v-3.5c0-.2,.1-.3,.3-.3h.4c.2,0,.3,.1,.3,.3v.2c.2-.3,.6-.6,1.2-.6,1,0,1.5,.8,1.5,1.7Z"/>
        <path class="cls-6" d="M199.3,111.8h.4c.2,0,.3,.1,.3,.3v3.5c0,.2-.1,.3-.3,.3h-.4c-.2,0-.3-.1-.3-.3v-.2c-.3,.3-.7,.6-1.3,.6-1.3,0-2-1.1-2-2.1s.7-2.1,2-2.1,1,.2,1.3,.6v-.2c0-.2,.1-.3,.3-.3Zm-.3,2c0-.6-.4-1.2-1.1-1.2s-1.1,.5-1.1,1.2,.4,1.2,1.1,1.2,1.1-.5,1.1-1.2Z"/>
        <path class="cls-6" d="M204.1,114.6c0,.8-.6,1.3-1.7,1.3s-1.4-.2-1.6-.8c0-.1,0-.3,.1-.3l.6-.2c0,0,.2,0,.2,0,0,.1,.3,.3,.7,.3s.7-.2,.7-.4-.6-.4-1.1-.5c-.8-.2-1.2-.5-1.2-1.2s.6-1.3,1.6-1.3,1.2,.3,1.5,.8c0,.1,0,.3-.1,.3h-.5c0,.2-.2,.1-.2,0,0-.2-.3-.3-.6-.3s-.6,.1-.6,.4,.5,.4,.9,.5c1,.2,1.4,.5,1.4,1.2Z"/>
      </g>
      <g>
        <path class="cls-6" d="M152.9,123.4c0,1.2-.9,2.1-2.1,2.1s-2.1-.9-2.1-2.1,.9-2.1,2.1-2.1,2.1,.9,2.1,2.1Zm-1,0c0-.6-.4-1.2-1.1-1.2s-1.1,.5-1.1,1.2,.4,1.2,1.1,1.2,1.1-.5,1.1-1.2Z"/>
        <path class="cls-6" d="M159,121.4h.4c.2,0,.3,.1,.3,.3v3.5c0,.2-.1,.3-.3,.3h-.4c-.2,0-.3-.1-.3-.3v-.2c-.3,.3-.7,.6-1.3,.6-1.3,0-2-1.1-2-2.1s.7-2.1,2-2.1,1,.2,1.3,.6v-.2c0-.2,.1-.3,.3-.3Zm-.3,2c0-.6-.4-1.2-1.1-1.2s-1.1,.5-1.1,1.2,.4,1.2,1.1,1.2,1.1-.5,1.1-1.2Z"/>
        <path class="cls-6" d="M165,123.4c0,1.1-.7,2.1-2,2.1s-1-.2-1.3-.6v.2c0,.2-.1,.3-.3,.3h-.4c-.2,0-.3-.1-.3-.3v-5c0-.2,.1-.3,.3-.3h.4c.2,0,.3,.1,.3,.3v1.7c.3-.3,.7-.6,1.3-.6,1.3,0,2,1.1,2,2.1Zm-1,0c0-.6-.4-1.2-1.1-1.2s-1.1,.5-1.1,1.2,.4,1.2,1.1,1.2,1.1-.5,1.1-1.2Z"/>
        <path class="cls-6" d="M169,119.8h.4c.2,0,.3,.1,.3,.3v5c0,.2-.1,.3-.3,.3h-.4c-.2,0-.3-.1-.3-.3v-.2c-.3,.3-.7,.6-1.3,.6-1.3,0-2-1.1-2-2.1s.7-2.1,2-2.1,1,.2,1.3,.6v-1.7c0-.2,.1-.3,.3-.3Zm-.3,3.6c0-.6-.4-1.2-1.1-1.2s-1.1,.5-1.1,1.2,.4,1.2,1.1,1.2,1.1-.5,1.1-1.2Z"/>
        <path class="cls-6" d="M174.8,123.4c0,1.2-.9,2.1-2.1,2.1s-2.1-.9-2.1-2.1,.9-2.1,2.1-2.1,2.1,.9,2.1,2.1Zm-1,0c0-.6-.4-1.2-1.1-1.2s-1.1,.5-1.1,1.2,.4,1.2,1.1,1.2,1.1-.5,1.1-1.2Z"/>
        <path class="cls-6" d="M181.3,122.9v2.2c0,.2-.1,.3-.3,.3h-.4c-.2,0-.3-.1-.3-.3v-2c0-.5-.2-.8-.7-.8s-.7,.4-.7,.8v2c0,.2-.1,.3-.3,.3h-.4c-.2,0-.3-.1-.3-.3v-2c0-.5-.2-.8-.7-.8s-.7,.4-.7,.8v2c0,.2-.1,.3-.3,.3h-.4c-.2,0-.3-.1-.3-.3v-3.5c0-.2,.1-.3,.3-.3h.4c.2,0,.3,.1,.3,.3h0c.2-.2,.5-.4,1.1-.4s.9,.3,1.1,.6c.2-.4,.7-.6,1.2-.6,.9,0,1.4,.8,1.4,1.6Z"/>
        <path class="cls-6" d="M186.1,123.5c0,.2-.1,.3-.3,.3h-2.7c.1,.5,.6,.8,1.2,.8s.6-.2,.8-.3c0,0,.2,0,.2,0l.5,.3c.1,0,.1,.2,0,.3-.4,.4-.9,.6-1.5,.6-1.3,0-2.2-.9-2.2-2.1s1-2.1,2.1-2.1,2.1,.8,2,2.2Zm-1-.5c-.1-.5-.5-.8-1-.8s-.9,.3-1,.8h2Z"/>
        <path class="cls-6" d="M190.6,122.9v2.2c0,.2-.1,.3-.3,.3h-.4c-.2,0-.3-.1-.3-.3v-2c0-.5-.2-.9-.8-.9s-.9,.4-.9,.9v2c0,.2-.1,.3-.3,.3h-.4c-.2,0-.3-.1-.3-.3v-3.5c0-.2,.1-.3,.3-.3h.4c.2,0,.3,.1,.3,.3v.2c.2-.3,.6-.6,1.2-.6,1,0,1.5,.8,1.5,1.7Z"/>
      </g>
      <g>
        <path class="cls-6" d="M183,175.8v.4c0,.2-.1,.3-.3,.3h-1.1v4.3c0,.2-.1,.3-.3,.3h-.5c-.2,0-.3-.1-.3-.3v-4.3h-1.1c-.2,0-.3-.1-.3-.3v-.4c0-.2,.1-.3,.3-.3h3.2c.2,0,.3,.1,.3,.3Z"/>
        <path class="cls-6" d="M187.8,179.1c0,1.2-.9,2.1-2.1,2.1s-2.1-.9-2.1-2.1,.9-2.1,2.1-2.1,2.1,.9,2.1,2.1Zm-1,0c0-.6-.4-1.2-1.1-1.2s-1.1,.5-1.1,1.2,.4,1.2,1.1,1.2,1.1-.5,1.1-1.2Z"/>
        <path class="cls-6" d="M191.6,179.9c0,.8-.6,1.3-1.7,1.3s-1.4-.2-1.6-.8c0-.1,0-.3,.1-.3l.6-.2c0,0,.2,0,.2,0,0,.1,.3,.3,.7,.3s.7-.2,.7-.4-.6-.4-1.1-.5c-.8-.2-1.2-.5-1.2-1.2s.6-1.3,1.6-1.3,1.2,.3,1.5,.8c0,.1,0,.3-.1,.3h-.5c0,.2-.2,.1-.2,0,0-.2-.3-.3-.6-.3s-.6,.1-.6,.4,.5,.4,.9,.5c1,.2,1.4,.5,1.4,1.2Z"/>
        <path class="cls-6" d="M198.6,179.1c0,1.1-.7,2.1-2,2.1s-1-.2-1.3-.6v1.7c0,.2-.1,.3-.3,.3h-.4c-.2,0-.3-.1-.3-.3v-5c0-.2,.1-.3,.3-.3h.4c.2,0,.3,.1,.3,.3v.2c.3-.3,.7-.6,1.3-.6,1.3,0,2,1.1,2,2.1Zm-1,0c0-.6-.4-1.2-1.1-1.2s-1.1,.5-1.1,1.2,.4,1.2,1.1,1.2,1.1-.5,1.1-1.2Z"/>
        <path class="cls-6" d="M203.2,179.2c0,.2-.1,.3-.3,.3h-2.7c.1,.5,.6,.8,1.2,.8s.6-.2,.8-.3c0,0,.2,0,.2,0l.5,.3c.1,0,.1,.2,0,.3-.4,.4-.9,.6-1.5,.6-1.3,0-2.2-.9-2.2-2.1s1-2.1,2.1-2.1,2.1,.8,2,2.2Zm-1-.5c-.1-.5-.5-.8-1-.8s-.9,.3-1,.8h2Z"/>
        <path class="cls-6" d="M206.1,177c.1,0,.2,0,.2,.2v.6c0,.1,0,.2-.2,.2-1,0-1.1,.7-1.1,1.4v1.4c0,.2-.1,.3-.3,.3h-.4c-.2,0-.3-.1-.3-.3v-3.5c0-.2,.1-.3,.3-.3h.4c.2,0,.3,.1,.3,.3v.4c.3-.4,.7-.7,1.1-.7Z"/>
        <path class="cls-6" d="M210.1,179.9c0,.8-.6,1.3-1.7,1.3s-1.4-.2-1.6-.8c0-.1,0-.3,.1-.3l.6-.2c0,0,.2,0,.2,0,0,.1,.3,.3,.7,.3s.7-.2,.7-.4-.6-.4-1.1-.5c-.8-.2-1.2-.5-1.2-1.2s.6-1.3,1.6-1.3,1.2,.3,1.5,.8c0,.1,0,.3-.1,.3h-.5c0,.2-.2,.1-.2,0,0-.2-.3-.3-.6-.3s-.6,.1-.6,.4,.5,.4,.9,.5c1,.2,1.4,.5,1.4,1.2Z"/>
        <path class="cls-6" d="M210.8,176c0-.3,.2-.5,.5-.5s.5,.2,.5,.5-.2,.5-.5,.5-.5-.2-.5-.5Zm0,4.9v-3.5c0-.2,.1-.3,.3-.3h.4c.2,0,.3,.1,.3,.3v3.5c0,.2-.1,.3-.3,.3h-.4c-.2,0-.3-.1-.3-.3Z"/>
        <path class="cls-6" d="M215.9,179.9c0,.8-.6,1.3-1.7,1.3s-1.4-.2-1.6-.8c0-.1,0-.3,.1-.3l.6-.2c0,0,.2,0,.2,0,0,.1,.3,.3,.7,.3s.7-.2,.7-.4-.6-.4-1.1-.5c-.8-.2-1.2-.5-1.2-1.2s.6-1.3,1.6-1.3,1.2,.3,1.5,.8c0,.1,0,.3-.1,.3h-.5c0,.2-.2,.1-.2,0,0-.2-.3-.3-.6-.3s-.6,.1-.6,.4,.5,.4,.9,.5c1,.2,1.4,.5,1.4,1.2Z"/>
        <path class="cls-6" d="M218.5,178h-.6v1.5c0,.5,0,.7,.6,.7h0c.1,0,.2,0,.2,.2v.5c0,.1,0,.2-.2,.2,0,0-.1,0-.2,0-1,0-1.5-.7-1.5-1.5v-1.6h-.4c-.2,0-.3-.1-.3-.3v-.4c0-.2,.1-.3,.3-.3h.4v-.6c0-.2,.1-.3,.3-.3h.4c.2,0,.3,.1,.3,.3v.6h.6c.2,0,.3,.1,.3,.3v.4c0,.2-.1,.3-.3,.3Z"/>
        <path class="cls-6" d="M223.5,179.2c0,.2-.1,.3-.3,.3h-2.7c.1,.5,.6,.8,1.2,.8s.6-.2,.8-.3c0,0,.2,0,.2,0l.5,.3c.1,0,.1,.2,0,.3-.4,.4-.9,.6-1.5,.6-1.3,0-2.2-.9-2.2-2.1s1-2.1,2.1-2.1,2.1,.8,2,2.2Zm-1-.5c-.1-.5-.5-.8-1-.8s-.9,.3-1,.8h2Z"/>
        <path class="cls-6" d="M227.9,178.7v2.2c0,.2-.1,.3-.3,.3h-.4c-.2,0-.3-.1-.3-.3v-2c0-.5-.2-.9-.8-.9s-.9,.4-.9,.9v2c0,.2-.1,.3-.3,.3h-.4c-.2,0-.3-.1-.3-.3v-3.5c0-.2,.1-.3,.3-.3h.4c.2,0,.3,.1,.3,.3v.2c.2-.3,.6-.6,1.2-.6,1,0,1.5,.8,1.5,1.7Z"/>
        <path class="cls-6" d="M230.8,178h-.6v1.5c0,.5,0,.7,.6,.7h0c.1,0,.2,0,.2,.2v.5c0,.1,0,.2-.2,.2,0,0-.1,0-.2,0-1,0-1.5-.7-1.5-1.5v-1.6h-.4c-.2,0-.3-.1-.3-.3v-.4c0-.2,.1-.3,.3-.3h.4v-.6c0-.2,.1-.3,.3-.3h.4c.2,0,.3,.1,.3,.3v.6h.6c.2,0,.3,.1,.3,.3v.4c0,.2-.1,.3-.3,.3Z"/>
        <path class="cls-6" d="M235.8,179.2c0,.2-.1,.3-.3,.3h-2.7c.1,.5,.6,.8,1.2,.8s.6-.2,.8-.3c0,0,.2,0,.2,0l.5,.3c.1,0,.1,.2,0,.3-.4,.4-.9,.6-1.5,.6-1.3,0-2.2-.9-2.2-2.1s1-2.1,2.1-2.1,2.1,.8,2,2.2Zm-1-.5c-.1-.5-.5-.8-1-.8s-.9,.3-1,.8h2Z"/>
      </g>
      <g>
        <path class="cls-6" d="M189.9,188.7c0,1.2-.9,2.1-2.1,2.1s-2.1-.9-2.1-2.1,.9-2.1,2.1-2.1,2.1,.9,2.1,2.1Zm-1,0c0-.6-.4-1.2-1.1-1.2s-1.1,.5-1.1,1.2,.4,1.2,1.1,1.2,1.1-.5,1.1-1.2Z"/>
        <path class="cls-6" d="M195.8,189.5c0,.8-.6,1.3-1.7,1.3s-1.4-.2-1.6-.8c0-.1,0-.3,.1-.3l.6-.2c0,0,.2,0,.2,0,0,.1,.3,.3,.7,.3s.7-.2,.7-.4-.6-.4-1.1-.5c-.8-.2-1.2-.5-1.2-1.2s.6-1.3,1.6-1.3,1.2,.3,1.5,.8c0,.1,0,.3-.1,.3h-.5c0,.2-.2,.1-.2,0,0-.2-.3-.3-.6-.3s-.6,.1-.6,.4,.5,.4,.9,.5c1,.2,1.4,.5,1.4,1.2Z"/>
        <path class="cls-6" d="M196.4,185.6c0-.3,.2-.5,.5-.5s.5,.2,.5,.5-.2,.5-.5,.5-.5-.2-.5-.5Zm0,4.9v-3.5c0-.2,.1-.3,.3-.3h.4c.2,0,.3,.1,.3,.3v3.5c0,.2-.1,.3-.3,.3h-.4c-.2,0-.3-.1-.3-.3Z"/>
        <path class="cls-6" d="M202.7,188.7c0,1.1-.7,2.1-2,2.1s-1-.2-1.3-.6v.2c0,.2-.1,.3-.3,.3h-.4c-.2,0-.3-.1-.3-.3v-5c0-.2,.1-.3,.3-.3h.4c.2,0,.3,.1,.3,.3v1.7c.3-.3,.7-.6,1.3-.6,1.3,0,2,1.1,2,2.1Zm-1,0c0-.6-.4-1.2-1.1-1.2s-1.1,.5-1.1,1.2,.4,1.2,1.1,1.2,1.1-.5,1.1-1.2Z"/>
        <path class="cls-6" d="M203.4,185.6c0-.3,.2-.5,.5-.5s.5,.2,.5,.5-.2,.5-.5,.5-.5-.2-.5-.5Zm0,4.9v-3.5c0-.2,.1-.3,.3-.3h.4c.2,0,.3,.1,.3,.3v3.5c0,.2-.1,.3-.3,.3h-.4c-.2,0-.3-.1-.3-.3Z"/>
        <path class="cls-6" d="M205.7,185.2h.4c.2,0,.3,.1,.3,.3v5c0,.2-.1,.3-.3,.3h-.4c-.2,0-.3-.1-.3-.3v-5c0-.2,.1-.3,.3-.3Z"/>
        <path class="cls-6" d="M210.7,186.7h.4c.2,0,.3,.1,.3,.3v3.5c0,.2-.1,.3-.3,.3h-.4c-.2,0-.3-.1-.3-.3v-.2c-.3,.3-.7,.6-1.3,.6-1.3,0-2-1.1-2-2.1s.7-2.1,2-2.1,1,.2,1.3,.6v-.2c0-.2,.1-.3,.3-.3Zm-.3,2c0-.6-.4-1.2-1.1-1.2s-1.1,.5-1.1,1.2,.4,1.2,1.1,1.2,1.1-.5,1.1-1.2Z"/>
        <path class="cls-6" d="M216.1,188.3v2.2c0,.2-.1,.3-.3,.3h-.4c-.2,0-.3-.1-.3-.3v-2c0-.5-.2-.9-.8-.9s-.9,.4-.9,.9v2c0,.2-.1,.3-.3,.3h-.4c-.2,0-.3-.1-.3-.3v-3.5c0-.2,.1-.3,.3-.3h.4c.2,0,.3,.1,.3,.3v.2c.2-.3,.6-.6,1.2-.6,1,0,1.5,.8,1.5,1.7Z"/>
        <path class="cls-6" d="M219.8,189.5c0,0,.2-.1,.3,0l.5,.3c.1,0,.1,.2,0,.3-.4,.5-1,.8-1.7,.8-1.2,0-2.1-.9-2.1-2.1s.9-2.1,2.1-2.1,1.3,.3,1.7,.8c0,.1,0,.2,0,.3l-.5,.3c0,0-.2,0-.3,0-.2-.2-.5-.4-.8-.4-.7,0-1.1,.5-1.1,1.2s.4,1.2,1.1,1.2,.6-.1,.8-.4Z"/>
        <path class="cls-6" d="M221.4,185.6c0-.3,.2-.5,.5-.5s.5,.2,.5,.5-.2,.5-.5,.5-.5-.2-.5-.5Zm0,4.9v-3.5c0-.2,.1-.3,.3-.3h.4c.2,0,.3,.1,.3,.3v3.5c0,.2-.1,.3-.3,.3h-.4c-.2,0-.3-.1-.3-.3Z"/>
        <path class="cls-6" d="M226.7,186.7h.4c.2,0,.3,.1,.3,.3v3.5c0,.2-.1,.3-.3,.3h-.4c-.2,0-.3-.1-.3-.3v-.2c-.3,.3-.7,.6-1.3,.6-1.3,0-2-1.1-2-2.1s.7-2.1,2-2.1,1,.2,1.3,.6v-.2c0-.2,.1-.3,.3-.3Zm-.3,2c0-.6-.4-1.2-1.1-1.2s-1.1,.5-1.1,1.2,.4,1.2,1.1,1.2,1.1-.5,1.1-1.2Z"/>
        <path class="cls-6" d="M231.5,189.5c0,.8-.6,1.3-1.7,1.3s-1.4-.2-1.6-.8c0-.1,0-.3,.1-.3l.6-.2c0,0,.2,0,.2,0,0,.1,.3,.3,.7,.3s.7-.2,.7-.4-.6-.4-1.1-.5c-.8-.2-1.2-.5-1.2-1.2s.6-1.3,1.6-1.3,1.2,.3,1.5,.8c0,.1,0,.3-.1,.3h-.5c0,.2-.2,.1-.2,0,0-.2-.3-.3-.6-.3s-.6,.1-.6,.4,.5,.4,.9,.5c1,.2,1.4,.5,1.4,1.2Z"/>
      </g>
      <g>
        <path class="cls-6" d="M296.4,178.4c0,1.6-1.1,2.8-3,2.8h-1.5c-.2,0-.3-.1-.3-.3v-5c0-.2,.1-.3,.3-.3h1.5c1.9,0,3,1.2,3,2.8Zm-1.1,0c0-1.2-.9-1.8-1.9-1.8h-.6v3.6h.6c1,0,1.9-.5,1.9-1.8Z"/>
        <path class="cls-6" d="M297.1,176c0-.3,.2-.5,.5-.5s.5,.2,.5,.5-.2,.5-.5,.5-.5-.2-.5-.5Zm0,4.9v-3.5c0-.2,.1-.3,.3-.3h.4c.2,0,.3,.1,.3,.3v3.5c0,.2-.1,.3-.3,.3h-.4c-.2,0-.3-.1-.3-.3Z"/>
        <path class="cls-6" d="M300.5,177.1h.6c.2,0,.3,.1,.3,.3v.4c0,.2-.1,.3-.3,.3h-.6v2.8c0,.2-.1,.3-.3,.3h-.4c-.2,0-.3-.1-.3-.3v-2.8h-.3c-.2,0-.3-.1-.3-.3v-.4c0-.2,.1-.3,.3-.3h.3c0-.8,.4-1.6,1.5-1.6s.2,0,.2,0c.1,0,.2,0,.2,.2v.4c0,.1,0,.2-.2,.2-.5,0-.7,.3-.7,.8Z"/>
        <path class="cls-6" d="M302.1,176c0-.3,.2-.5,.5-.5s.5,.2,.5,.5-.2,.5-.5,.5-.5-.2-.5-.5Zm0,4.9v-3.5c0-.2,.1-.3,.3-.3h.4c.2,0,.3,.1,.3,.3v3.5c0,.2-.1,.3-.3,.3h-.4c-.2,0-.3-.1-.3-.3Z"/>
        <path class="cls-6" d="M306.8,179.9c0,0,.2-.1,.3,0l.5,.3c.1,0,.1,.2,0,.3-.4,.5-1,.8-1.7,.8-1.2,0-2.1-.9-2.1-2.1s.9-2.1,2.1-2.1,1.3,.3,1.7,.8c0,.1,0,.2,0,.3l-.5,.3c0,0-.2,0-.3,0-.2-.2-.5-.4-.8-.4-.7,0-1.1,.5-1.1,1.2s.4,1.2,1.1,1.2,.6-.1,.8-.4Z"/>
        <path class="cls-6" d="M311.8,177.1c.2,0,.3,.1,.3,.3v3.5c0,.2-.1,.3-.3,.3h-.4c-.2,0-.3-.1-.3-.3v-.2c-.2,.3-.6,.6-1.2,.6-1,0-1.5-.8-1.5-1.7v-2.2c0-.2,.1-.3,.3-.3h.4c.2,0,.3,.1,.3,.3v2c0,.5,.2,.9,.8,.9s.9-.4,.9-.9v-2c0-.2,.1-.3,.3-.3h.4Z"/>
        <path class="cls-6" d="M313.3,175.6h.4c.2,0,.3,.1,.3,.3v5c0,.2-.1,.3-.3,.3h-.4c-.2,0-.3-.1-.3-.3v-5c0-.2,.1-.3,.3-.3Z"/>
        <path class="cls-6" d="M317,178h-.6v1.5c0,.5,0,.7,.6,.7h0c.1,0,.2,0,.2,.2v.5c0,.1,0,.2-.2,.2,0,0-.1,0-.2,0-1,0-1.5-.7-1.5-1.5v-1.6h-.4c-.2,0-.3-.1-.3-.3v-.4c0-.2,.1-.3,.3-.3h.4v-.6c0-.2,.1-.3,.3-.3h.4c.2,0,.3,.1,.3,.3v.6h.6c.2,0,.3,.1,.3,.3v.4c0,.2-.1,.3-.3,.3Z"/>
        <path class="cls-6" d="M321.4,177.1h.4c.2,0,.3,.1,.3,.3v3.5c0,.2-.1,.3-.3,.3h-.4c-.2,0-.3-.1-.3-.3v-.2c-.3,.3-.7,.6-1.3,.6-1.3,0-2-1.1-2-2.1s.7-2.1,2-2.1,1,.2,1.3,.6v-.2c0-.2,.1-.3,.3-.3Zm-.3,2c0-.6-.4-1.2-1.1-1.2s-1.1,.5-1.1,1.2,.4,1.2,1.1,1.2,1.1-.5,1.1-1.2Z"/>
        <path class="cls-6" d="M326.4,175.6h.4c.2,0,.3,.1,.3,.3v5c0,.2-.1,.3-.3,.3h-.4c-.2,0-.3-.1-.3-.3v-.2c-.3,.3-.7,.6-1.3,.6-1.3,0-2-1.1-2-2.1s.7-2.1,2-2.1,1,.2,1.3,.6v-1.7c0-.2,.1-.3,.3-.3Zm-.3,3.6c0-.6-.4-1.2-1.1-1.2s-1.1,.5-1.1,1.2,.4,1.2,1.1,1.2,1.1-.5,1.1-1.2Z"/>
        <path class="cls-6" d="M333.5,175.6h.4c.2,0,.3,.1,.3,.3v5c0,.2-.1,.3-.3,.3h-.4c-.2,0-.3-.1-.3-.3v-.2c-.3,.3-.7,.6-1.3,.6-1.3,0-2-1.1-2-2.1s.7-2.1,2-2.1,1,.2,1.3,.6v-1.7c0-.2,.1-.3,.3-.3Zm-.3,3.6c0-.6-.4-1.2-1.1-1.2s-1.1,.5-1.1,1.2,.4,1.2,1.1,1.2,1.1-.5,1.1-1.2Z"/>
        <path class="cls-6" d="M339.1,179.2c0,.2-.1,.3-.3,.3h-2.7c.1,.5,.6,.8,1.2,.8s.6-.2,.8-.3c0,0,.2,0,.2,0l.5,.3c.1,0,.1,.2,0,.3-.4,.4-.9,.6-1.5,.6-1.3,0-2.2-.9-2.2-2.1s1-2.1,2.1-2.1,2.1,.8,2,2.2Zm-1-.5c-.1-.5-.5-.8-1-.8s-.9,.3-1,.8h2Z"/>
      </g>
      <g>
        <path class="cls-6" d="M291.4,189.5c0,0,.2-.1,.3,0l.5,.3c.1,0,.1,.2,0,.3-.4,.5-1,.8-1.7,.8-1.2,0-2.1-.9-2.1-2.1s.9-2.1,2.1-2.1,1.3,.3,1.7,.8c0,.1,0,.2,0,.3l-.5,.3c0,0-.2,0-.3,0-.2-.2-.5-.4-.8-.4-.7,0-1.1,.5-1.1,1.2s.4,1.2,1.1,1.2,.6-.1,.8-.4Z"/>
        <path class="cls-6" d="M297,188.7c0,1.2-.9,2.1-2.1,2.1s-2.1-.9-2.1-2.1,.9-2.1,2.1-2.1,2.1,.9,2.1,2.1Zm-1,0c0-.6-.4-1.2-1.1-1.2s-1.1,.5-1.1,1.2,.4,1.2,1.1,1.2,1.1-.5,1.1-1.2Z"/>
        <path class="cls-6" d="M301.4,188.3v2.2c0,.2-.1,.3-.3,.3h-.4c-.2,0-.3-.1-.3-.3v-2c0-.5-.2-.9-.8-.9s-.9,.4-.9,.9v2c0,.2-.1,.3-.3,.3h-.4c-.2,0-.3-.1-.3-.3v-3.5c0-.2,.1-.3,.3-.3h.4c.2,0,.3,.1,.3,.3v.2c.2-.3,.6-.6,1.2-.6,1,0,1.5,.8,1.5,1.7Z"/>
        <path class="cls-6" d="M305.1,189.5c0,0,.2-.1,.3,0l.5,.3c.1,0,.1,.2,0,.3-.4,.5-1,.8-1.7,.8-1.2,0-2.1-.9-2.1-2.1s.9-2.1,2.1-2.1,1.3,.3,1.7,.8c0,.1,0,.2,0,.3l-.5,.3c0,0-.2,0-.3,0-.2-.2-.5-.4-.8-.4-.7,0-1.1,.5-1.1,1.2s.4,1.2,1.1,1.2,.6-.1,.8-.4Z"/>
        <path class="cls-6" d="M310.5,188.8c0,.2-.1,.3-.3,.3h-2.7c.1,.5,.6,.8,1.2,.8s.6-.2,.8-.3c0,0,.2,0,.2,0l.5,.3c.1,0,.1,.2,0,.3-.4,.4-.9,.6-1.5,.6-1.3,0-2.2-.9-2.2-2.1s1-2.1,2.1-2.1,2.1,.8,2,2.2Zm-1-.5c-.1-.5-.5-.8-1-.8s-.9,.3-1,.8h2Z"/>
        <path class="cls-6" d="M314.9,188.3v2.2c0,.2-.1,.3-.3,.3h-.4c-.2,0-.3-.1-.3-.3v-2c0-.5-.2-.9-.8-.9s-.9,.4-.9,.9v2c0,.2-.1,.3-.3,.3h-.4c-.2,0-.3-.1-.3-.3v-3.5c0-.2,.1-.3,.3-.3h.4c.2,0,.3,.1,.3,.3v.2c.2-.3,.6-.6,1.2-.6,1,0,1.5,.8,1.5,1.7Z"/>
        <path class="cls-6" d="M317.8,187.6h-.6v1.5c0,.5,0,.7,.6,.7h0c.1,0,.2,0,.2,.2v.5c0,.1,0,.2-.2,.2,0,0-.1,0-.2,0-1,0-1.5-.7-1.5-1.5v-1.6h-.4c-.2,0-.3-.1-.3-.3v-.4c0-.2,.1-.3,.3-.3h.4v-.6c0-.2,.1-.3,.3-.3h.4c.2,0,.3,.1,.3,.3v.6h.6c.2,0,.3,.1,.3,.3v.4c0,.2-.1,.3-.3,.3Z"/>
        <path class="cls-6" d="M321.1,186.6c.1,0,.2,0,.2,.2v.6c0,.1,0,.2-.2,.2-1,0-1.1,.7-1.1,1.4v1.4c0,.2-.1,.3-.3,.3h-.4c-.2,0-.3-.1-.3-.3v-3.5c0-.2,.1-.3,.3-.3h.4c.2,0,.3,.1,.3,.3v.4c.3-.4,.7-.7,1.1-.7Z"/>
        <path class="cls-6" d="M325.4,186.7h.4c.2,0,.3,.1,.3,.3v3.5c0,.2-.1,.3-.3,.3h-.4c-.2,0-.3-.1-.3-.3v-.2c-.3,.3-.7,.6-1.3,.6-1.3,0-2-1.1-2-2.1s.7-2.1,2-2.1,1,.2,1.3,.6v-.2c0-.2,.1-.3,.3-.3Zm-.3,2c0-.6-.4-1.2-1.1-1.2s-1.1,.5-1.1,1.2,.4,1.2,1.1,1.2,1.1-.5,1.1-1.2Z"/>
        <path class="cls-6" d="M329.8,189.5c0,0,.2-.1,.3,0l.5,.3c.1,0,.1,.2,0,.3-.4,.5-1,.8-1.7,.8-1.2,0-2.1-.9-2.1-2.1s.9-2.1,2.1-2.1,1.3,.3,1.7,.8c0,.1,0,.2,0,.3l-.5,.3c0,0-.2,0-.3,0-.2-.2-.5-.4-.8-.4-.7,0-1.1,.5-1.1,1.2s.4,1.2,1.1,1.2,.6-.1,.8-.4Z"/>
        <path class="cls-6" d="M331.4,185.6c0-.3,.2-.5,.5-.5s.5,.2,.5,.5-.2,.5-.5,.5-.5-.2-.5-.5Zm0,4.9v-3.5c0-.2,.1-.3,.3-.3h.4c.2,0,.3,.1,.3,.3v3.5c0,.2-.1,.3-.3,.3h-.4c-.2,0-.3-.1-.3-.3Z"/>
        <path class="cls-6" d="M337.4,188.7c0,1.2-.9,2.1-2.1,2.1s-2.1-.9-2.1-2.1,.9-2.1,2.1-2.1,2.1,.9,2.1,2.1Zm-1,0c0-.6-.4-1.2-1.1-1.2s-1.1,.5-1.1,1.2,.4,1.2,1.1,1.2,1.1-.5,1.1-1.2Zm-.3-3.8c.1,0,.2,.1,.1,.2l-.5,.8c0,0-.1,.1-.2,.1h-.4c-.1,0-.2-.1-.1-.2l.4-.8c0,0,.2-.2,.3-.2h.6Z"/>
        <path class="cls-6" d="M341.8,188.3v2.2c0,.2-.1,.3-.3,.3h-.4c-.2,0-.3-.1-.3-.3v-2c0-.5-.2-.9-.8-.9s-.9,.4-.9,.9v2c0,.2-.1,.3-.3,.3h-.4c-.2,0-.3-.1-.3-.3v-3.5c0-.2,.1-.3,.3-.3h.4c.2,0,.3,.1,.3,.3v.2c.2-.3,.6-.6,1.2-.6,1,0,1.5,.8,1.5,1.7Z"/>
      </g>
      <g>
        <path class="cls-6" d="M299.1,198.3c0,1.2-.9,2.1-2.1,2.1s-2.1-.9-2.1-2.1,.9-2.1,2.1-2.1,2.1,.9,2.1,2.1Zm-1,0c0-.6-.4-1.2-1.1-1.2s-1.1,.5-1.1,1.2,.4,1.2,1.1,1.2,1.1-.5,1.1-1.2Z"/>
        <path class="cls-6" d="M304.6,199.1c0,0,.2-.1,.3,0l.5,.3c.1,0,.1,.2,0,.3-.4,.5-1,.8-1.7,.8-1.2,0-2.1-.9-2.1-2.1s.9-2.1,2.1-2.1,1.3,.3,1.7,.8c0,.1,0,.2,0,.3l-.5,.3c0,0-.2,0-.3,0-.2-.2-.5-.4-.8-.4-.7,0-1.1,.5-1.1,1.2s.4,1.2,1.1,1.2,.6-.1,.8-.4Z"/>
        <path class="cls-6" d="M310.3,198.3c0,1.2-.9,2.1-2.1,2.1s-2.1-.9-2.1-2.1,.9-2.1,2.1-2.1,2.1,.9,2.1,2.1Zm-1,0c0-.6-.4-1.2-1.1-1.2s-1.1,.5-1.1,1.2,.4,1.2,1.1,1.2,1.1-.5,1.1-1.2Z"/>
        <path class="cls-6" d="M314.7,197.9v2.2c0,.2-.1,.3-.3,.3h-.4c-.2,0-.3-.1-.3-.3v-2c0-.5-.2-.9-.8-.9s-.9,.4-.9,.9v2c0,.2-.1,.3-.3,.3h-.4c-.2,0-.3-.1-.3-.3v-3.5c0-.2,.1-.3,.3-.3h.4c.2,0,.3,.1,.3,.3v.2c.2-.3,.6-.6,1.2-.6,1,0,1.5,.8,1.5,1.7Z"/>
        <path class="cls-6" d="M317,196.3h.6c.2,0,.3,.1,.3,.3v.4c0,.2-.1,.3-.3,.3h-.6v2.8c0,.2-.1,.3-.3,.3h-.4c-.2,0-.3-.1-.3-.3v-2.8h-.3c-.2,0-.3-.1-.3-.3v-.4c0-.2,.1-.3,.3-.3h.3c0-.8,.4-1.6,1.5-1.6s.2,0,.2,0c.1,0,.2,0,.2,.2v.4c0,.1,0,.2-.2,.2-.5,0-.7,.3-.7,.8Z"/>
        <path class="cls-6" d="M322,196.3c.2,0,.3,.1,.3,.3v3.5c0,.2-.1,.3-.3,.3h-.4c-.2,0-.3-.1-.3-.3v-.2c-.2,.3-.6,.6-1.2,.6-1,0-1.5-.8-1.5-1.7v-2.2c0-.2,.1-.3,.3-.3h.4c.2,0,.3,.1,.3,.3v2c0,.5,.2,.9,.8,.9s.9-.4,.9-.9v-2c0-.2,.1-.3,.3-.3h.4Z"/>
        <path class="cls-6" d="M326.3,199.1c0,.8-.6,1.3-1.7,1.3s-1.4-.2-1.6-.8c0-.1,0-.3,.1-.3l.6-.2c0,0,.2,0,.2,0,0,.1,.3,.3,.7,.3s.7-.2,.7-.4-.6-.4-1.1-.5c-.8-.2-1.2-.5-1.2-1.2s.6-1.3,1.6-1.3,1.2,.3,1.5,.8c0,.1,0,.3-.1,.3h-.5c0,.2-.2,.1-.2,0,0-.2-.3-.3-.6-.3s-.6,.1-.6,.4,.5,.4,.9,.5c1,.2,1.4,.5,1.4,1.2Z"/>
        <path class="cls-6" d="M327,195.2c0-.3,.2-.5,.5-.5s.5,.2,.5,.5-.2,.5-.5,.5-.5-.2-.5-.5Zm0,4.9v-3.5c0-.2,.1-.3,.3-.3h.4c.2,0,.3,.1,.3,.3v3.5c0,.2-.1,.3-.3,.3h-.4c-.2,0-.3-.1-.3-.3Z"/>
        <path class="cls-6" d="M333,198.3c0,1.2-.9,2.1-2.1,2.1s-2.1-.9-2.1-2.1,.9-2.1,2.1-2.1,2.1,.9,2.1,2.1Zm-1,0c0-.6-.4-1.2-1.1-1.2s-1.1,.5-1.1,1.2,.4,1.2,1.1,1.2,1.1-.5,1.1-1.2Zm-.3-3.8c.1,0,.2,.1,.1,.2l-.5,.8c0,0-.1,.1-.2,.1h-.4c-.1,0-.2-.1-.1-.2l.4-.8c0,0,.2-.2,.3-.2h.6Z"/>
        <path class="cls-6" d="M337.4,197.9v2.2c0,.2-.1,.3-.3,.3h-.4c-.2,0-.3-.1-.3-.3v-2c0-.5-.2-.9-.8-.9s-.9,.4-.9,.9v2c0,.2-.1,.3-.3,.3h-.4c-.2,0-.3-.1-.3-.3v-3.5c0-.2,.1-.3,.3-.3h.4c.2,0,.3,.1,.3,.3v.2c.2-.3,.6-.6,1.2-.6,1,0,1.5,.8,1.5,1.7Z"/>
      </g>
      <g>
        <path class="cls-6" d="M233.4,104.8c0,0,.2-.1,.4,0l.4,.3c.2,0,.2,.3,0,.4-.5,.5-1.2,.8-2,.8-1.7,0-2.8-1.3-2.8-2.9s1.2-2.9,2.8-2.9,1.5,.3,2,.8c.1,.1,.1,.3,0,.4l-.4,.3c-.1,0-.3,0-.4,0-.3-.3-.7-.4-1.2-.4-1.2,0-1.8,.9-1.8,1.9s.6,1.9,1.8,1.9,.9-.2,1.2-.4Z"/>
        <path class="cls-6" d="M238.4,102.2h.4c.2,0,.3,.1,.3,.3v3.5c0,.2-.1,.3-.3,.3h-.4c-.2,0-.3-.1-.3-.3v-.2c-.3,.3-.7,.6-1.3,.6-1.3,0-2-1.1-2-2.1s.7-2.1,2-2.1,1,.2,1.3,.6v-.2c0-.2,.1-.3,.3-.3Zm-.3,2c0-.6-.4-1.2-1.1-1.2s-1.1,.5-1.1,1.2,.4,1.2,1.1,1.2,1.1-.5,1.1-1.2Z"/>
        <path class="cls-6" d="M243.7,103.7v2.2c0,.2-.1,.3-.3,.3h-.4c-.2,0-.3-.1-.3-.3v-2c0-.5-.2-.9-.8-.9s-.9,.4-.9,.9v2c0,.2-.1,.3-.3,.3h-.4c-.2,0-.3-.1-.3-.3v-3.5c0-.2,.1-.3,.3-.3h.4c.2,0,.3,.1,.3,.3v.2c.2-.3,.6-.6,1.2-.6,1,0,1.5,.8,1.5,1.7Z"/>
        <path class="cls-6" d="M247.8,105c0,.8-.6,1.3-1.7,1.3s-1.4-.2-1.6-.8c0-.1,0-.3,.1-.3l.6-.2c0,0,.2,0,.2,0,0,.1,.3,.3,.7,.3s.7-.2,.7-.4-.6-.4-1.1-.5c-.8-.2-1.2-.5-1.2-1.2s.6-1.3,1.6-1.3,1.2,.3,1.5,.8c0,.1,0,.3-.1,.3h-.5c0,.2-.2,.1-.2,0,0-.2-.3-.3-.6-.3s-.6,.1-.6,.4,.5,.4,.9,.5c1,.2,1.4,.5,1.4,1.2Z"/>
        <path class="cls-6" d="M251.8,102.2h.4c.2,0,.3,.1,.3,.3v3.5c0,.2-.1,.3-.3,.3h-.4c-.2,0-.3-.1-.3-.3v-.2c-.3,.3-.7,.6-1.3,.6-1.3,0-2-1.1-2-2.1s.7-2.1,2-2.1,1,.2,1.3,.6v-.2c0-.2,.1-.3,.3-.3Zm-.3,2c0-.6-.4-1.2-1.1-1.2s-1.1,.5-1.1,1.2,.4,1.2,1.1,1.2,1.1-.5,1.1-1.2Z"/>
        <path class="cls-6" d="M257.2,103.7v2.2c0,.2-.1,.3-.3,.3h-.4c-.2,0-.3-.1-.3-.3v-2c0-.5-.2-.9-.8-.9s-.9,.4-.9,.9v2c0,.2-.1,.3-.3,.3h-.4c-.2,0-.3-.1-.3-.3v-3.5c0-.2,.1-.3,.3-.3h.4c.2,0,.3,.1,.3,.3v.2c.2-.3,.6-.6,1.2-.6,1,0,1.5,.8,1.5,1.7Z"/>
        <path class="cls-6" d="M260.9,105c0,0,.2-.1,.3,0l.5,.3c.1,0,.1,.2,0,.3-.4,.5-1,.8-1.7,.8-1.2,0-2.1-.9-2.1-2.1s.9-2.1,2.1-2.1,1.3,.3,1.7,.8c0,.1,0,.2,0,.3l-.5,.3c0,0-.2,0-.3,0-.2-.2-.5-.4-.8-.4-.7,0-1.1,.5-1.1,1.2s.4,1.2,1.1,1.2,.6-.1,.8-.4Z"/>
        <path class="cls-6" d="M262.4,101c0-.3,.2-.5,.5-.5s.5,.2,.5,.5-.2,.5-.5,.5-.5-.2-.5-.5Zm0,4.9v-3.5c0-.2,.1-.3,.3-.3h.4c.2,0,.3,.1,.3,.3v3.5c0,.2-.1,.3-.3,.3h-.4c-.2,0-.3-.1-.3-.3Z"/>
        <path class="cls-6" d="M268.5,104.2c0,1.2-.9,2.1-2.1,2.1s-2.1-.9-2.1-2.1,.9-2.1,2.1-2.1,2.1,.9,2.1,2.1Zm-1,0c0-.6-.4-1.2-1.1-1.2s-1.1,.5-1.1,1.2,.4,1.2,1.1,1.2,1.1-.5,1.1-1.2Z"/>
        <path class="cls-6" d="M275.3,104.2c0,1.2-.9,2.1-2.1,2.1s-2.1-.9-2.1-2.1,.9-2.1,2.1-2.1,2.1,.9,2.1,2.1Zm-1,0c0-.6-.4-1.2-1.1-1.2s-1.1,.5-1.1,1.2,.4,1.2,1.1,1.2,1.1-.5,1.1-1.2Z"/>
        <path class="cls-6" d="M279.5,102.2h.6c.2,0,.3,.1,.3,.3v.4c0,.2-.1,.3-.3,.3h-.6v2.8c0,.2-.1,.3-.3,.3h-.4c-.2,0-.3-.1-.3-.3v-2.8h-.3c-.2,0-.3-.1-.3-.3v-.4c0-.2,.1-.3,.3-.3h.3c0-.8,.4-1.6,1.5-1.6s.2,0,.2,0c.1,0,.2,0,.2,.2v.4c0,.1,0,.2-.2,.2-.5,0-.7,.3-.7,.8Z"/>
        <path class="cls-6" d="M284.4,102.2h.4c.2,0,.3,.1,.3,.3v3.5c0,.2-.1,.3-.3,.3h-.4c-.2,0-.3-.1-.3-.3v-.2c-.3,.3-.7,.6-1.3,.6-1.3,0-2-1.1-2-2.1s.7-2.1,2-2.1,1,.2,1.3,.6v-.2c0-.2,.1-.3,.3-.3Zm-.3,2c0-.6-.4-1.2-1.1-1.2s-1.1,.5-1.1,1.2,.4,1.2,1.1,1.2,1.1-.5,1.1-1.2Z"/>
        <path class="cls-6" d="M288,103.1h-.6v1.5c0,.5,0,.7,.6,.7h0c.1,0,.2,0,.2,.2v.5c0,.1,0,.2-.2,.2,0,0-.1,0-.2,0-1,0-1.5-.7-1.5-1.5v-1.6h-.4c-.2,0-.3-.1-.3-.3v-.4c0-.2,.1-.3,.3-.3h.4v-.6c0-.2,.1-.3,.3-.3h.4c.2,0,.3,.1,.3,.3v.6h.6c.2,0,.3,.1,.3,.3v.4c0,.2-.1,.3-.3,.3Z"/>
        <path class="cls-6" d="M289.1,101c0-.3,.2-.5,.5-.5s.5,.2,.5,.5-.2,.5-.5,.5-.5-.2-.5-.5Zm0,4.9v-3.5c0-.2,.1-.3,.3-.3h.4c.2,0,.3,.1,.3,.3v3.5c0,.2-.1,.3-.3,.3h-.4c-.2,0-.3-.1-.3-.3Z"/>
        <path class="cls-6" d="M294.4,102.2h.4c.2,0,.3,.1,.3,.3v3.3c0,1.1-.8,2.1-2.2,2.1s-1.4-.2-1.7-.6c-.1,0,0-.3,0-.3l.5-.3c0,0,.2,0,.2,0,.2,.2,.5,.3,1,.3,.8,0,1.2-.4,1.2-1.2v-.3c-.2,.4-.6,.6-1.3,.6-1.2,0-2-.9-2-2s.7-2,2-2,1,.3,1.3,.6v-.2c0-.2,.1-.3,.3-.3Zm-.3,1.9c0-.6-.4-1.1-1.1-1.1s-1.1,.5-1.1,1.1,.4,1.1,1.1,1.1,1.1-.5,1.1-1.1Z"/>
        <path class="cls-6" d="M299.4,102.2h.4c.2,0,.3,.1,.3,.3v3.5c0,.2-.1,.3-.3,.3h-.4c-.2,0-.3-.1-.3-.3v-.2c-.3,.3-.7,.6-1.3,.6-1.3,0-2-1.1-2-2.1s.7-2.1,2-2.1,1,.2,1.3,.6v-.2c0-.2,.1-.3,.3-.3Zm-.3,2c0-.6-.4-1.2-1.1-1.2s-1.1,.5-1.1,1.2,.4,1.2,1.1,1.2,1.1-.5,1.1-1.2Z"/>
      </g>
      <g>
        <path class="cls-6" d="M327.9,105.2c.2,0,.3,.1,.3,.3v.4c0,.2-.1,.3-.3,.3h-2.7c-.2,0-.3-.1-.3-.3v-5c0-.2,.1-.3,.3-.3h.5c.2,0,.3,.1,.3,.3v4.3h1.9Z"/>
        <path class="cls-6" d="M332.3,102.2h.4c.2,0,.3,.1,.3,.3v3.5c0,.2-.1,.3-.3,.3h-.4c-.2,0-.3-.1-.3-.3v-.2c-.3,.3-.7,.6-1.3,.6-1.3,0-2-1.1-2-2.1s.7-2.1,2-2.1,1,.2,1.3,.6v-.2c0-.2,.1-.3,.3-.3Zm-.3,2c0-.6-.4-1.2-1.1-1.2s-1.1,.5-1.1,1.2,.4,1.2,1.1,1.2,1.1-.5,1.1-1.2Z"/>
        <path class="cls-6" d="M335.9,103.1h-.6v1.5c0,.5,0,.7,.6,.7h0c.1,0,.2,0,.2,.2v.5c0,.1,0,.2-.2,.2,0,0-.1,0-.2,0-1,0-1.5-.7-1.5-1.5v-1.6h-.4c-.2,0-.3-.1-.3-.3v-.4c0-.2,.1-.3,.3-.3h.4v-.6c0-.2,.1-.3,.3-.3h.4c.2,0,.3,.1,.3,.3v.6h.6c.2,0,.3,.1,.3,.3v.4c0,.2-.1,.3-.3,.3Z"/>
        <path class="cls-6" d="M337,101c0-.3,.2-.5,.5-.5s.5,.2,.5,.5-.2,.5-.5,.5-.5-.2-.5-.5Zm0,4.9v-3.5c0-.2,.1-.3,.3-.3h.4c.2,0,.3,.1,.3,.3v3.5c0,.2-.1,.3-.3,.3h-.4c-.2,0-.3-.1-.3-.3Z"/>
        <path class="cls-6" d="M342.3,100.6h.4c.2,0,.3,.1,.3,.3v5c0,.2-.1,.3-.3,.3h-.4c-.2,0-.3-.1-.3-.3v-.2c-.3,.3-.7,.6-1.3,.6-1.3,0-2-1.1-2-2.1s.7-2.1,2-2.1,1,.2,1.3,.6v-1.7c0-.2,.1-.3,.3-.3Zm-.3,3.6c0-.6-.4-1.2-1.1-1.2s-1.1,.5-1.1,1.2,.4,1.2,1.1,1.2,1.1-.5,1.1-1.2Z"/>
        <path class="cls-6" d="M348.1,104.2c0,1.2-.9,2.1-2.1,2.1s-2.1-.9-2.1-2.1,.9-2.1,2.1-2.1,2.1,.9,2.1,2.1Zm-1,0c0-.6-.4-1.2-1.1-1.2s-1.1,.5-1.1,1.2,.4,1.2,1.1,1.2,1.1-.5,1.1-1.2Z"/>
        <path class="cls-6" d="M351.9,105c0,.8-.6,1.3-1.7,1.3s-1.4-.2-1.6-.8c0-.1,0-.3,.1-.3l.6-.2c0,0,.2,0,.2,0,0,.1,.3,.3,.7,.3s.7-.2,.7-.4-.6-.4-1.1-.5c-.8-.2-1.2-.5-1.2-1.2s.6-1.3,1.6-1.3,1.2,.3,1.5,.8c0,.1,0,.3-.1,.3h-.5c0,.2-.2,.1-.2,0,0-.2-.3-.3-.6-.3s-.6,.1-.6,.4,.5,.4,.9,.5c1,.2,1.4,.5,1.4,1.2Z"/>
        <path class="cls-6" d="M357.4,105c0,0,.2-.1,.3,0l.5,.3c.1,0,.1,.2,0,.3-.4,.5-1,.8-1.7,.8-1.2,0-2.1-.9-2.1-2.1s.9-2.1,2.1-2.1,1.3,.3,1.7,.8c0,.1,0,.2,0,.3l-.5,.3c0,0-.2,0-.3,0-.2-.2-.5-.4-.8-.4-.7,0-1.1,.5-1.1,1.2s.4,1.2,1.1,1.2,.6-.1,.8-.4Z"/>
        <path class="cls-6" d="M362.3,102.2h.4c.2,0,.3,.1,.3,.3v3.5c0,.2-.1,.3-.3,.3h-.4c-.2,0-.3-.1-.3-.3v-.2c-.3,.3-.7,.6-1.3,.6-1.3,0-2-1.1-2-2.1s.7-2.1,2-2.1,1,.2,1.3,.6v-.2c0-.2,.1-.3,.3-.3Zm-.3,2c0-.6-.4-1.2-1.1-1.2s-1.1,.5-1.1,1.2,.4,1.2,1.1,1.2,1.1-.5,1.1-1.2Z"/>
        <path class="cls-6" d="M366.1,102.1c.1,0,.2,0,.2,.2v.6c0,.1,0,.2-.2,.2-1,0-1.1,.7-1.1,1.4v1.4c0,.2-.1,.3-.3,.3h-.4c-.2,0-.3-.1-.3-.3v-3.5c0-.2,.1-.3,.3-.3h.4c.2,0,.3,.1,.3,.3v.4c.3-.4,.7-.7,1.1-.7Z"/>
        <path class="cls-6" d="M370.4,100.6h.4c.2,0,.3,.1,.3,.3v5c0,.2-.1,.3-.3,.3h-.4c-.2,0-.3-.1-.3-.3v-.2c-.3,.3-.7,.6-1.3,.6-1.3,0-2-1.1-2-2.1s.7-2.1,2-2.1,1,.2,1.3,.6v-1.7c0-.2,.1-.3,.3-.3Zm-.3,3.6c0-.6-.4-1.2-1.1-1.2s-1.1,.5-1.1,1.2,.4,1.2,1.1,1.2,1.1-.5,1.1-1.2Z"/>
        <path class="cls-6" d="M372.1,105.9v-3.5c0-.2,.1-.3,.3-.3h.4c.2,0,.3,.1,.3,.3v3.5c0,.2-.1,.3-.3,.3h-.4c-.2,0-.3-.1-.3-.3Zm1.4-5.5c.1,0,.2,.1,.1,.2l-.5,.8c0,0-.1,.1-.2,.1h-.4c-.1,0-.2-.1-.1-.2l.4-.8c0,0,.2-.2,.3-.2h.6Z"/>
        <path class="cls-6" d="M377.4,102.2h.4c.2,0,.3,.1,.3,.3v3.5c0,.2-.1,.3-.3,.3h-.4c-.2,0-.3-.1-.3-.3v-.2c-.3,.3-.7,.6-1.3,.6-1.3,0-2-1.1-2-2.1s.7-2.1,2-2.1,1,.2,1.3,.6v-.2c0-.2,.1-.3,.3-.3Zm-.3,2c0-.6-.4-1.2-1.1-1.2s-1.1,.5-1.1,1.2,.4,1.2,1.1,1.2,1.1-.5,1.1-1.2Z"/>
        <path class="cls-6" d="M381.8,105c0,0,.2-.1,.3,0l.5,.3c.1,0,.1,.2,0,.3-.4,.5-1,.8-1.7,.8-1.2,0-2.1-.9-2.1-2.1s.9-2.1,2.1-2.1,1.3,.3,1.7,.8c0,.1,0,.2,0,.3l-.5,.3c0,0-.2,0-.3,0-.2-.2-.5-.4-.8-.4-.7,0-1.1,.5-1.1,1.2s.4,1.2,1.1,1.2,.6-.1,.8-.4Z"/>
        <path class="cls-6" d="M387.4,104.2c0,1.2-.9,2.1-2.1,2.1s-2.1-.9-2.1-2.1,.9-2.1,2.1-2.1,2.1,.9,2.1,2.1Zm-1,0c0-.6-.4-1.2-1.1-1.2s-1.1,.5-1.1,1.2,.4,1.2,1.1,1.2,1.1-.5,1.1-1.2Z"/>
        <path class="cls-6" d="M391.3,105c0,.8-.6,1.3-1.7,1.3s-1.4-.2-1.6-.8c0-.1,0-.3,.1-.3l.6-.2c0,0,.2,0,.2,0,0,.1,.3,.3,.7,.3s.7-.2,.7-.4-.6-.4-1.1-.5c-.8-.2-1.2-.5-1.2-1.2s.6-1.3,1.6-1.3,1.2,.3,1.5,.8c0,.1,0,.3-.1,.3h-.5c0,.2-.2,.1-.2,0,0-.2-.3-.3-.6-.3s-.6,.1-.6,.4,.5,.4,.9,.5c1,.2,1.4,.5,1.4,1.2Z"/>
      </g>
      <g>
        <path class="cls-6" d="M322.4,111.7c.1,0,.2,0,.2,.2v.6c0,.1,0,.2-.2,.2-1,0-1.1,.7-1.1,1.4v1.4c0,.2-.1,.3-.3,.3h-.4c-.2,0-.3-.1-.3-.3v-3.5c0-.2,.1-.3,.3-.3h.4c.2,0,.3,.1,.3,.3v.4c.3-.4,.7-.7,1.1-.7Z"/>
        <path class="cls-6" d="M326.7,111.8h.4c.2,0,.3,.1,.3,.3v3.5c0,.2-.1,.3-.3,.3h-.4c-.2,0-.3-.1-.3-.3v-.2c-.3,.3-.7,.6-1.3,.6-1.3,0-2-1.1-2-2.1s.7-2.1,2-2.1,1,.2,1.3,.6v-.2c0-.2,.1-.3,.3-.3Zm-.3,2c0-.6-.4-1.2-1.1-1.2s-1.1,.5-1.1,1.2,.4,1.2,1.1,1.2,1.1-.5,1.1-1.2Zm-.2-3.8c.1,0,.2,.1,.1,.2l-.5,.8c0,0-.1,.1-.2,.1h-.4c-.1,0-.2-.1-.1-.2l.4-.8c0,0,.2-.2,.3-.2h.6Z"/>
        <path class="cls-6" d="M332.7,113.8c0,1.1-.7,2.1-2,2.1s-1-.2-1.3-.6v1.7c0,.2-.1,.3-.3,.3h-.4c-.2,0-.3-.1-.3-.3v-5c0-.2,.1-.3,.3-.3h.4c.2,0,.3,.1,.3,.3v.2c.3-.3,.7-.6,1.3-.6,1.3,0,2,1.1,2,2.1Zm-1,0c0-.6-.4-1.2-1.1-1.2s-1.1,.5-1.1,1.2,.4,1.2,1.1,1.2,1.1-.5,1.1-1.2Z"/>
        <path class="cls-6" d="M333.4,110.6c0-.3,.2-.5,.5-.5s.5,.2,.5,.5-.2,.5-.5,.5-.5-.2-.5-.5Zm0,4.9v-3.5c0-.2,.1-.3,.3-.3h.4c.2,0,.3,.1,.3,.3v3.5c0,.2-.1,.3-.3,.3h-.4c-.2,0-.3-.1-.3-.3Z"/>
        <path class="cls-6" d="M338.7,110.2h.4c.2,0,.3,.1,.3,.3v5c0,.2-.1,.3-.3,.3h-.4c-.2,0-.3-.1-.3-.3v-.2c-.3,.3-.7,.6-1.3,.6-1.3,0-2-1.1-2-2.1s.7-2.1,2-2.1,1,.2,1.3,.6v-1.7c0-.2,.1-.3,.3-.3Zm-.3,3.6c0-.6-.4-1.2-1.1-1.2s-1.1,.5-1.1,1.2,.4,1.2,1.1,1.2,1.1-.5,1.1-1.2Z"/>
        <path class="cls-6" d="M344.4,113.8c0,1.2-.9,2.1-2.1,2.1s-2.1-.9-2.1-2.1,.9-2.1,2.1-2.1,2.1,.9,2.1,2.1Zm-1,0c0-.6-.4-1.2-1.1-1.2s-1.1,.5-1.1,1.2,.4,1.2,1.1,1.2,1.1-.5,1.1-1.2Z"/>
        <path class="cls-6" d="M348.3,114.6c0,.8-.6,1.3-1.7,1.3s-1.4-.2-1.6-.8c0-.1,0-.3,.1-.3l.6-.2c0,0,.2,0,.2,0,0,.1,.3,.3,.7,.3s.7-.2,.7-.4-.6-.4-1.1-.5c-.8-.2-1.2-.5-1.2-1.2s.6-1.3,1.6-1.3,1.2,.3,1.5,.8c0,.1,0,.3-.1,.3h-.5c0,.2-.2,.1-.2,0,0-.2-.3-.3-.6-.3s-.6,.1-.6,.4,.5,.4,.9,.5c1,.2,1.4,.5,1.4,1.2Z"/>
        <path class="cls-6" d="M355.1,113.8c0,1.2-.9,2.1-2.1,2.1s-2.1-.9-2.1-2.1,.9-2.1,2.1-2.1,2.1,.9,2.1,2.1Zm-1,0c0-.6-.4-1.2-1.1-1.2s-1.1,.5-1.1,1.2,.4,1.2,1.1,1.2,1.1-.5,1.1-1.2Z"/>
        <path class="cls-6" d="M357.8,110.6c0-.3,.2-.5,.5-.5s.5,.2,.5,.5-.2,.5-.5,.5-.5-.2-.5-.5Zm0,4.9v-3.5c0-.2,.1-.3,.3-.3h.4c.2,0,.3,.1,.3,.3v3.5c0,.2-.1,.3-.3,.3h-.4c-.2,0-.3-.1-.3-.3Z"/>
        <path class="cls-6" d="M362,111.7c.1,0,.2,0,.2,.2v.6c0,.1,0,.2-.2,.2-1,0-1.1,.7-1.1,1.4v1.4c0,.2-.1,.3-.3,.3h-.4c-.2,0-.3-.1-.3-.3v-3.5c0-.2,.1-.3,.3-.3h.4c.2,0,.3,.1,.3,.3v.4c.3-.4,.7-.7,1.1-.7Z"/>
        <path class="cls-6" d="M365.1,111.7c.1,0,.2,0,.2,.2v.6c0,.1,0,.2-.2,.2-1,0-1.1,.7-1.1,1.4v1.4c0,.2-.1,.3-.3,.3h-.4c-.2,0-.3-.1-.3-.3v-3.5c0-.2,.1-.3,.3-.3h.4c.2,0,.3,.1,.3,.3v.4c.3-.4,.7-.7,1.1-.7Z"/>
        <path class="cls-6" d="M369.9,113.9c0,.2-.1,.3-.3,.3h-2.7c.1,.5,.6,.8,1.2,.8s.6-.2,.8-.3c0,0,.2,0,.2,0l.5,.3c.1,0,.1,.2,0,.3-.4,.4-.9,.6-1.5,.6-1.3,0-2.2-.9-2.2-2.1s1-2.1,2.1-2.1,2.1,.8,2,2.2Zm-1-.5c-.1-.5-.5-.8-1-.8s-.9,.3-1,.8h2Z"/>
        <path class="cls-6" d="M373.9,111.8h.4c.2,0,.3,.1,.3,.3v3.3c0,1.1-.8,2.1-2.2,2.1s-1.4-.2-1.7-.6c-.1,0,0-.3,0-.3l.5-.3c0,0,.2,0,.2,0,.2,.2,.5,.3,1,.3,.8,0,1.2-.4,1.2-1.2v-.3c-.2,.4-.6,.6-1.3,.6-1.2,0-2-.9-2-2s.7-2,2-2,1,.3,1.3,.6v-.2c0-.2,.1-.3,.3-.3Zm-.3,1.9c0-.6-.4-1.1-1.1-1.1s-1.1,.5-1.1,1.1,.4,1.1,1.1,1.1,1.1-.5,1.1-1.1Z"/>
        <path class="cls-6" d="M379,111.8c.2,0,.3,.1,.3,.3v3.5c0,.2-.1,.3-.3,.3h-.4c-.2,0-.3-.1-.3-.3v-.2c-.2,.3-.6,.6-1.2,.6-1,0-1.5-.8-1.5-1.7v-2.2c0-.2,.1-.3,.3-.3h.4c.2,0,.3,.1,.3,.3v2c0,.5,.2,.9,.8,.9s.9-.4,.9-.9v-2c0-.2,.1-.3,.3-.3h.4Z"/>
        <path class="cls-6" d="M380.5,110.2h.4c.2,0,.3,.1,.3,.3v5c0,.2-.1,.3-.3,.3h-.4c-.2,0-.3-.1-.3-.3v-5c0-.2,.1-.3,.3-.3Z"/>
        <path class="cls-6" d="M385.5,111.8h.4c.2,0,.3,.1,.3,.3v3.5c0,.2-.1,.3-.3,.3h-.4c-.2,0-.3-.1-.3-.3v-.2c-.3,.3-.7,.6-1.3,.6-1.3,0-2-1.1-2-2.1s.7-2.1,2-2.1,1,.2,1.3,.6v-.2c0-.2,.1-.3,.3-.3Zm-.3,2c0-.6-.4-1.2-1.1-1.2s-1.1,.5-1.1,1.2,.4,1.2,1.1,1.2,1.1-.5,1.1-1.2Z"/>
        <path class="cls-6" d="M389.3,111.7c.1,0,.2,0,.2,.2v.6c0,.1,0,.2-.2,.2-1,0-1.1,.7-1.1,1.4v1.4c0,.2-.1,.3-.3,.3h-.4c-.2,0-.3-.1-.3-.3v-3.5c0-.2,.1-.3,.3-.3h.4c.2,0,.3,.1,.3,.3v.4c.3-.4,.7-.7,1.1-.7Z"/>
        <path class="cls-6" d="M394.2,113.9c0,.2-.1,.3-.3,.3h-2.7c.1,.5,.6,.8,1.2,.8s.6-.2,.8-.3c0,0,.2,0,.2,0l.5,.3c.1,0,.1,.2,0,.3-.4,.4-.9,.6-1.5,.6-1.3,0-2.2-.9-2.2-2.1s1-2.1,2.1-2.1,2.1,.8,2,2.2Zm-1-.5c-.1-.5-.5-.8-1-.8s-.9,.3-1,.8h2Z"/>
        <path class="cls-6" d="M398,114.6c0,.8-.6,1.3-1.7,1.3s-1.4-.2-1.6-.8c0-.1,0-.3,.1-.3l.6-.2c0,0,.2,0,.2,0,0,.1,.3,.3,.7,.3s.7-.2,.7-.4-.6-.4-1.1-.5c-.8-.2-1.2-.5-1.2-1.2s.6-1.3,1.6-1.3,1.2,.3,1.5,.8c0,.1,0,.3-.1,.3h-.5c0,.2-.2,.1-.2,0,0-.2-.3-.3-.6-.3s-.6,.1-.6,.4,.5,.4,.9,.5c1,.2,1.4,.5,1.4,1.2Z"/>
      </g>
      <g>
        <path class="cls-6" d="M427.9,101.6h-1.9v1.4h1.7c.2,0,.3,.1,.3,.3v.4c0,.2-.1,.3-.3,.3h-1.7v1.9c0,.2-.1,.3-.3,.3h-.5c-.2,0-.3-.1-.3-.3v-5c0-.2,.1-.3,.3-.3h2.7c.2,0,.3,.1,.3,.3v.4c0,.2-.1,.3-.3,.3Z"/>
        <path class="cls-6" d="M432.4,102.2h.4c.2,0,.3,.1,.3,.3v3.5c0,.2-.1,.3-.3,.3h-.4c-.2,0-.3-.1-.3-.3v-.2c-.3,.3-.7,.6-1.3,.6-1.3,0-2-1.1-2-2.1s.7-2.1,2-2.1,1,.2,1.3,.6v-.2c0-.2,.1-.3,.3-.3Zm-.3,2c0-.6-.4-1.2-1.1-1.2s-1.1,.5-1.1,1.2,.4,1.2,1.1,1.2,1.1-.5,1.1-1.2Z"/>
        <path class="cls-6" d="M434.3,100.6h.4c.2,0,.3,.1,.3,.3v5c0,.2-.1,.3-.3,.3h-.4c-.2,0-.3-.1-.3-.3v-5c0-.2,.1-.3,.3-.3Z"/>
        <path class="cls-6" d="M438,103.1h-.6v1.5c0,.5,0,.7,.6,.7h0c.1,0,.2,0,.2,.2v.5c0,.1,0,.2-.2,.2,0,0-.1,0-.2,0-1,0-1.5-.7-1.5-1.5v-1.6h-.4c-.2,0-.3-.1-.3-.3v-.4c0-.2,.1-.3,.3-.3h.4v-.6c0-.2,.1-.3,.3-.3h.4c.2,0,.3,.1,.3,.3v.6h.6c.2,0,.3,.1,.3,.3v.4c0,.2-.1,.3-.3,.3Z"/>
        <path class="cls-6" d="M442.4,102.2h.4c.2,0,.3,.1,.3,.3v3.5c0,.2-.1,.3-.3,.3h-.4c-.2,0-.3-.1-.3-.3v-.2c-.3,.3-.7,.6-1.3,.6-1.3,0-2-1.1-2-2.1s.7-2.1,2-2.1,1,.2,1.3,.6v-.2c0-.2,.1-.3,.3-.3Zm-.3,2c0-.6-.4-1.2-1.1-1.2s-1.1,.5-1.1,1.2,.4,1.2,1.1,1.2,1.1-.5,1.1-1.2Z"/>
        <path class="cls-6" d="M449.5,100.6h.4c.2,0,.3,.1,.3,.3v5c0,.2-.1,.3-.3,.3h-.4c-.2,0-.3-.1-.3-.3v-.2c-.3,.3-.7,.6-1.3,.6-1.3,0-2-1.1-2-2.1s.7-2.1,2-2.1,1,.2,1.3,.6v-1.7c0-.2,.1-.3,.3-.3Zm-.3,3.6c0-.6-.4-1.2-1.1-1.2s-1.1,.5-1.1,1.2,.4,1.2,1.1,1.2,1.1-.5,1.1-1.2Z"/>
        <path class="cls-6" d="M455,104.3c0,.2-.1,.3-.3,.3h-2.7c.1,.5,.6,.8,1.2,.8s.6-.2,.8-.3c0,0,.2,0,.2,0l.5,.3c.1,0,.1,.2,0,.3-.4,.4-.9,.6-1.5,.6-1.3,0-2.2-.9-2.2-2.1s1-2.1,2.1-2.1,2.1,.8,2,2.2Zm-1-.5c-.1-.5-.5-.8-1-.8s-.9,.3-1,.8h2Z"/>
        <path class="cls-6" d="M461.2,102.2h.4c.2,0,.3,.1,.3,.3v3.5c0,.2-.1,.3-.3,.3h-.4c-.2,0-.3-.1-.3-.3v-.2c-.3,.3-.7,.6-1.3,.6-1.3,0-2-1.1-2-2.1s.7-2.1,2-2.1,1,.2,1.3,.6v-.2c0-.2,.1-.3,.3-.3Zm-.3,2c0-.6-.4-1.2-1.1-1.2s-1.1,.5-1.1,1.2,.4,1.2,1.1,1.2,1.1-.5,1.1-1.2Z"/>
        <path class="cls-6" d="M467.1,104.2c0,1.1-.7,2.1-2,2.1s-1-.2-1.3-.6v1.7c0,.2-.1,.3-.3,.3h-.4c-.2,0-.3-.1-.3-.3v-5c0-.2,.1-.3,.3-.3h.4c.2,0,.3,.1,.3,.3v.2c.3-.3,.7-.6,1.3-.6,1.3,0,2,1.1,2,2.1Zm-1,0c0-.6-.4-1.2-1.1-1.2s-1.1,.5-1.1,1.2,.4,1.2,1.1,1.2,1.1-.5,1.1-1.2Z"/>
        <path class="cls-6" d="M471.7,104.3c0,.2-.1,.3-.3,.3h-2.7c.1,.5,.6,.8,1.2,.8s.6-.2,.8-.3c0,0,.2,0,.2,0l.5,.3c.1,0,.1,.2,0,.3-.4,.4-.9,.6-1.5,.6-1.3,0-2.2-.9-2.2-2.1s1-2.1,2.1-2.1,2.1,.8,2,2.2Zm-1-.5c-.1-.5-.5-.8-1-.8s-.9,.3-1,.8h2Z"/>
        <path class="cls-6" d="M474.4,103.1h-.6v1.5c0,.5,0,.7,.6,.7h0c.1,0,.2,0,.2,.2v.5c0,.1,0,.2-.2,.2,0,0-.1,0-.2,0-1,0-1.5-.7-1.5-1.5v-1.6h-.4c-.2,0-.3-.1-.3-.3v-.4c0-.2,.1-.3,.3-.3h.4v-.6c0-.2,.1-.3,.3-.3h.4c.2,0,.3,.1,.3,.3v.6h.6c.2,0,.3,.1,.3,.3v.4c0,.2-.1,.3-.3,.3Z"/>
        <path class="cls-6" d="M475.5,101c0-.3,.2-.5,.5-.5s.5,.2,.5,.5-.2,.5-.5,.5-.5-.2-.5-.5Zm0,4.9v-3.5c0-.2,.1-.3,.3-.3h.4c.2,0,.3,.1,.3,.3v3.5c0,.2-.1,.3-.3,.3h-.4c-.2,0-.3-.1-.3-.3Z"/>
        <path class="cls-6" d="M479.4,103.1h-.6v1.5c0,.5,0,.7,.6,.7h0c.1,0,.2,0,.2,.2v.5c0,.1,0,.2-.2,.2,0,0-.1,0-.2,0-1,0-1.5-.7-1.5-1.5v-1.6h-.4c-.2,0-.3-.1-.3-.3v-.4c0-.2,.1-.3,.3-.3h.4v-.6c0-.2,.1-.3,.3-.3h.4c.2,0,.3,.1,.3,.3v.6h.6c.2,0,.3,.1,.3,.3v.4c0,.2-.1,.3-.3,.3Z"/>
        <path class="cls-6" d="M484.6,104.2c0,1.2-.9,2.1-2.1,2.1s-2.1-.9-2.1-2.1,.9-2.1,2.1-2.1,2.1,.9,2.1,2.1Zm-1,0c0-.6-.4-1.2-1.1-1.2s-1.1,.5-1.1,1.2,.4,1.2,1.1,1.2,1.1-.5,1.1-1.2Z"/>
        <path class="cls-6" d="M490.4,102.2h.5c.2,0,.3,.2,.2,.3-.3,.8-1.3,3.2-1.5,3.8-.4,.9-.7,1.5-1.6,1.5s-.2,0-.2,0c-.1,0-.2-.1-.2-.2v-.4c0-.1,0-.2,.2-.2,.4,0,.7-.3,.9-1,0-.1-1.2-2.6-1.6-3.5,0-.1,0-.3,.2-.3h.5c.2,0,.3,0,.3,.2l.9,2.4,.9-2.4c0-.1,.2-.2,.3-.2Z"/>
      </g>
      <g>
        <path class="cls-6" d="M447.3,113.3v2.2c0,.2-.1,.3-.3,.3h-.4c-.2,0-.3-.1-.3-.3v-2c0-.5-.2-.9-.8-.9s-.9,.4-.9,.9v2c0,.2-.1,.3-.3,.3h-.4c-.2,0-.3-.1-.3-.3v-3.5c0-.2,.1-.3,.3-.3h.4c.2,0,.3,.1,.3,.3v.2c.2-.3,.6-.6,1.2-.6,1,0,1.5,.8,1.5,1.7Z"/>
        <path class="cls-6" d="M451.6,111.8h.4c.2,0,.3,.1,.3,.3v3.5c0,.2-.1,.3-.3,.3h-.4c-.2,0-.3-.1-.3-.3v-.2c-.3,.3-.7,.6-1.3,.6-1.3,0-2-1.1-2-2.1s.7-2.1,2-2.1,1,.2,1.3,.6v-.2c0-.2,.1-.3,.3-.3Zm-.3,2c0-.6-.4-1.2-1.1-1.2s-1.1,.5-1.1,1.2,.4,1.2,1.1,1.2,1.1-.5,1.1-1.2Zm-.2-3.8c.1,0,.2,.1,.1,.2l-.5,.8c0,0-.1,.1-.2,.1h-.4c-.1,0-.2-.1-.1-.2l.4-.8c0,0,.2-.2,.3-.2h.6Z"/>
        <path class="cls-6" d="M456.7,111.8c.2,0,.3,.1,.3,.3v3.5c0,.2-.1,.3-.3,.3h-.4c-.2,0-.3-.1-.3-.3v-.2c-.2,.3-.6,.6-1.2,.6-1,0-1.5-.8-1.5-1.7v-2.2c0-.2,.1-.3,.3-.3h.4c.2,0,.3,.1,.3,.3v2c0,.5,.2,.9,.8,.9s.9-.4,.9-.9v-2c0-.2,.1-.3,.3-.3h.4Z"/>
        <path class="cls-6" d="M461.1,114.6c0,.8-.6,1.3-1.7,1.3s-1.4-.2-1.6-.8c0-.1,0-.3,.1-.3l.6-.2c0,0,.2,0,.2,0,0,.1,.3,.3,.7,.3s.7-.2,.7-.4-.6-.4-1.1-.5c-.8-.2-1.2-.5-1.2-1.2s.6-1.3,1.6-1.3,1.2,.3,1.5,.8c0,.1,0,.3-.1,.3h-.5c0,.2-.2,.1-.2,0,0-.2-.3-.3-.6-.3s-.6,.1-.6,.4,.5,.4,.9,.5c1,.2,1.4,.5,1.4,1.2Z"/>
        <path class="cls-6" d="M465.6,113.9c0,.2-.1,.3-.3,.3h-2.7c.1,.5,.6,.8,1.2,.8s.6-.2,.8-.3c0,0,.2,0,.2,0l.5,.3c.1,0,.1,.2,0,.3-.4,.4-.9,.6-1.5,.6-1.3,0-2.2-.9-2.2-2.1s1-2.1,2.1-2.1,2.1,.8,2,2.2Zm-1-.5c-.1-.5-.5-.8-1-.8s-.9,.3-1,.8h2Z"/>
        <path class="cls-6" d="M469.6,111.8h.4c.2,0,.3,.1,.3,.3v3.5c0,.2-.1,.3-.3,.3h-.4c-.2,0-.3-.1-.3-.3v-.2c-.3,.3-.7,.6-1.3,.6-1.3,0-2-1.1-2-2.1s.7-2.1,2-2.1,1,.2,1.3,.6v-.2c0-.2,.1-.3,.3-.3Zm-.3,2c0-.6-.4-1.2-1.1-1.2s-1.1,.5-1.1,1.2,.4,1.2,1.1,1.2,1.1-.5,1.1-1.2Z"/>
        <path class="cls-6" d="M474.4,114.6c0,.8-.6,1.3-1.7,1.3s-1.4-.2-1.6-.8c0-.1,0-.3,.1-.3l.6-.2c0,0,.2,0,.2,0,0,.1,.3,.3,.7,.3s.7-.2,.7-.4-.6-.4-1.1-.5c-.8-.2-1.2-.5-1.2-1.2s.6-1.3,1.6-1.3,1.2,.3,1.5,.8c0,.1,0,.3-.1,.3h-.5c0,.2-.2,.1-.2,0,0-.2-.3-.3-.6-.3s-.6,.1-.6,.4,.5,.4,.9,.5c1,.2,1.4,.5,1.4,1.2Z"/>
      </g>
    </g>
  </g>
</svg>