<svg xmlns="http://www.w3.org/2000/svg" width="131.621" height="178.712" viewBox="0 0 131.621 178.712">
  <path id="Trazado_2886" data-name="Trazado 2886" d="M88.6-110.189c-9.789,0-17.821,1.506-25.351,4.769l2.761-23.092h50.7a11.2,11.2,0,0,0,11.295-11.044v-25.1A11.2,11.2,0,0,0,116.715-175.7H36.4a11.319,11.319,0,0,0-11.044,9.789L16.315-87.1a9.049,9.049,0,0,0,7.028,9.789l24.6,5.02a13.363,13.363,0,0,0,9.789-1.757,27.045,27.045,0,0,1,13.805-4.016c11.546,0,19.076,6.777,19.076,17.821,0,10.04-5.02,18.574-16.817,18.574-9.036,0-14.056-4.267-16.064-9.036a6.6,6.6,0,0,0-7.53-3.514L16.817-46.937a8.847,8.847,0,0,0-6.526,11.8C19.578-11.546,44.176,3.012,75.049,3.012c40.913,0,66.264-24.6,66.264-59.487C141.313-86.846,123.743-110.189,88.6-110.189Z" transform="translate(-9.692 175.7)" fill="#f95e4b"/>
</svg>
