<svg xmlns="http://www.w3.org/2000/svg" width="114.576" height="154.504" viewBox="0 0 114.576 154.504">
  <g id="h1-6" transform="translate(-7.595 -59.1)">
    <path id="Trazado_13789" data-name="Trazado 13789" d="M66.836-102.207l29.512-40.579a5.824,5.824,0,0,0-4.774-9.114H70.091a13.3,13.3,0,0,0-11.067,5.859L24.738-95.263C19.1-87.017,7.6-71.827,7.6-50.778,7.6-19.1,31.031,2.6,64.883,2.6c34.72,0,57.288-22.568,57.288-53.382C122.171-81.809,99.82-101.339,66.836-102.207ZM64.883-30.163c-12.152,0-20.4-8.9-20.4-20.615a19.973,19.973,0,0,1,20.4-20.4c12.586,0,20.615,8.68,20.615,20.4S77.035-30.163,64.883-30.163Z" transform="translate(0 211)" fill="#f95e4b"/>
  </g>
</svg>
