<svg xmlns="http://www.w3.org/2000/svg" width="536.74" height="311.229" viewBox="0 0 536.74 311.229">
  <g id="Grupo_10115" data-name="Grupo 10115" transform="translate(10651.5 7638.929)">
    <path id="Trazado_13684" data-name="Trazado 13684" d="M22.176-15.552V-63.744a3.422,3.422,0,0,0-3.36-3.456H9.12a3.422,3.422,0,0,0-3.36,3.456V-3.456A3.422,3.422,0,0,0,9.12,0H43.872a3.422,3.422,0,0,0,3.36-3.456V-12.1a3.422,3.422,0,0,0-3.36-3.456ZM89.664-46.08v2.208c-2.88-3.552-7.2-5.952-13.728-5.952-15.168,0-23.328,12.768-23.328,25.536,0,12.672,8.16,25.44,23.328,25.44,6.528,0,10.848-2.4,13.728-5.952v2.208A2.581,2.581,0,0,0,92.256,0h9.6a3.442,3.442,0,0,0,3.456-3.456v-41.76a3.442,3.442,0,0,0-3.456-3.456h-9.6A2.581,2.581,0,0,0,89.664-46.08ZM78.72-13.92c-6.432,0-10.368-4.416-10.368-10.368,0-6.048,3.936-10.464,10.368-10.464,5.856,0,10.464,3.936,10.464,10.464C89.184-17.856,84.576-13.92,78.72-13.92Zm96.192-49.824v19.872c-2.784-3.552-7.1-5.952-13.728-5.952-15.072,0-23.328,12.768-23.328,25.536,0,12.672,8.256,25.44,23.328,25.44,6.624,0,10.944-2.4,13.728-5.952v2.208A2.581,2.581,0,0,0,177.5,0h9.6a3.442,3.442,0,0,0,3.456-3.456V-63.744A3.442,3.442,0,0,0,187.1-67.2h-8.736A3.442,3.442,0,0,0,174.912-63.744ZM164.064-13.92c-6.528,0-10.464-4.416-10.464-10.368,0-6.048,3.936-10.464,10.464-10.464,5.856,0,10.368,3.936,10.368,10.464C174.432-17.856,169.92-13.92,164.064-13.92ZM204.48,0h8.736a3.442,3.442,0,0,0,3.456-3.456v-41.76a3.442,3.442,0,0,0-3.456-3.456H204.48a3.442,3.442,0,0,0-3.456,3.456v41.76A3.442,3.442,0,0,0,204.48,0ZM208.9-54.144a8.153,8.153,0,0,0,8.16-8.16,8.153,8.153,0,0,0-8.16-8.16,8.236,8.236,0,0,0-8.256,8.16A8.236,8.236,0,0,0,208.9-54.144Zm52.512,8.064v2.208c-2.88-3.552-7.2-5.952-13.728-5.952-15.168,0-23.328,12.768-23.328,25.536,0,12.672,8.16,25.44,23.328,25.44,6.528,0,10.848-2.4,13.728-5.952v2.208A2.581,2.581,0,0,0,264,0h9.6a3.442,3.442,0,0,0,3.456-3.456v-41.76a3.442,3.442,0,0,0-3.456-3.456H264A2.581,2.581,0,0,0,261.408-46.08ZM250.464-13.92c-6.432,0-10.368-4.416-10.368-10.368,0-6.048,3.936-10.464,10.368-10.464,5.856,0,10.464,3.936,10.464,10.464C260.928-17.856,256.32-13.92,250.464-13.92Zm66.528-35.9c-6.624,0-10.944,2.4-13.728,5.952V-63.744a3.442,3.442,0,0,0-3.456-3.456h-8.736a3.442,3.442,0,0,0-3.456,3.456V-3.456A3.442,3.442,0,0,0,291.072,0h9.6a2.581,2.581,0,0,0,2.592-2.592V-4.8c2.784,3.552,7.1,5.952,13.728,5.952,15.072,0,23.328-12.768,23.328-25.44C340.32-37.056,332.064-49.824,316.992-49.824Zm-2.88,35.9c-5.856,0-10.368-3.936-10.368-10.368,0-6.528,4.512-10.464,10.368-10.464,6.528,0,10.464,4.416,10.464,10.464C324.576-18.336,320.64-13.92,314.112-13.92Zm55.968-35.9c-13.92,0-25.056,11.136-25.056,25.536,0,15.072,10.848,25.44,27.36,25.44,8.16,0,14.88-3.072,19.1-7.776a2.713,2.713,0,0,0-.672-3.936L384-14.592a2.465,2.465,0,0,0-2.976.288,13.43,13.43,0,0,1-8.64,2.976c-5.952,0-10.656-2.592-12.288-8.256h31.968a3.422,3.422,0,0,0,3.36-3.456C395.712-41.184,383.712-49.824,370.08-49.824Zm-9.888,20.832c1.44-5.376,5.472-8.352,10.464-8.352,5.376,0,9.312,2.592,10.56,8.352Zm70.464-10.272v-5.952a3.442,3.442,0,0,0-3.456-3.456h-6.144v-6.816a3.4,3.4,0,0,0-3.36-3.36h-8.832a3.4,3.4,0,0,0-3.36,3.36v6.816h-3.456a3.442,3.442,0,0,0-3.456,3.456v5.952a3.442,3.442,0,0,0,3.456,3.456H405.5v16.9c0,9.6,3.456,19.776,18.432,19.776A28.561,28.561,0,0,0,428.544.48a2.486,2.486,0,0,0,2.112-2.5v-8.256a2.445,2.445,0,0,0-2.592-2.5h-.288c-4.9,0-6.72-2.592-6.72-7.68v-15.36H427.2A3.442,3.442,0,0,0,430.656-39.264Zm31.3-10.56c-13.92,0-25.056,11.136-25.056,25.536,0,15.072,10.848,25.44,27.36,25.44,8.16,0,14.88-3.072,19.1-7.776a2.713,2.713,0,0,0-.672-3.936l-6.816-4.032a2.465,2.465,0,0,0-2.976.288,13.43,13.43,0,0,1-8.64,2.976c-5.952,0-10.656-2.592-12.288-8.256h31.968a3.422,3.422,0,0,0,3.36-3.456C487.584-41.184,475.584-49.824,461.952-49.824Zm-9.888,20.832c1.44-5.376,5.472-8.352,10.464-8.352,5.376,0,9.312,2.592,10.56,8.352Zm64.992-1.152c-3.84-.768-9.024-.96-9.024-4.128,0-2.784,2.784-3.648,5.856-3.648a5.966,5.966,0,0,1,4.992,2.112,2.536,2.536,0,0,0,2.592,1.056l8.256-2.016a2.678,2.678,0,0,0,1.728-3.648c-3.072-6.336-10.368-9.408-17.664-9.408-12.192,0-20.832,5.76-20.832,15.936,0,9.6,4.992,12.96,14.4,14.976,5.664,1.248,10.752,1.152,10.752,4.416,0,2.592-2.592,3.552-5.856,3.552-3.168,0-5.088-1.056-6.048-2.4a2.758,2.758,0,0,0-2.88-.96l-9.5,2.976a2.491,2.491,0,0,0-1.536,3.552c3.168,6.528,11.52,8.928,20.16,8.928,14.3,0,21.792-6.048,21.792-16.32C534.24-24.1,529.344-27.552,517.056-30.144Z" transform="translate(-10649 -7568.465)" fill="#fff"/>
    <path id="Trazado_13688" data-name="Trazado 13688" d="M28.6-51.9C14.1-51.9,2.5-40.3,2.5-25.3,2.5-9.6,13.8,1.2,31,1.2c8.5,0,15.5-3.2,19.9-8.1a2.826,2.826,0,0,0-.7-4.1l-7.1-4.2a2.567,2.567,0,0,0-3.1.3,13.989,13.989,0,0,1-9,3.1c-6.2,0-11.1-2.7-12.8-8.6H51.5A3.565,3.565,0,0,0,55-24C55.3-42.9,42.8-51.9,28.6-51.9ZM18.3-30.2c1.5-5.6,5.7-8.7,10.9-8.7,5.6,0,9.7,2.7,11,8.7ZM86-31.4c-4-.8-9.4-1-9.4-4.3,0-2.9,2.9-3.8,6.1-3.8a6.214,6.214,0,0,1,5.2,2.2,2.641,2.641,0,0,0,2.7,1.1l8.6-2.1a2.79,2.79,0,0,0,1.8-3.8c-3.2-6.6-10.8-9.8-18.4-9.8-12.7,0-21.7,6-21.7,16.6,0,10,5.2,13.5,15,15.6,5.9,1.3,11.2,1.2,11.2,4.6,0,2.7-2.7,3.7-6.1,3.7-3.3,0-5.3-1.1-6.3-2.5a2.872,2.872,0,0,0-3-1l-9.9,3.1a2.6,2.6,0,0,0-1.6,3.7c3.3,6.8,12,9.3,21,9.3,14.9,0,22.7-6.3,22.7-17C103.9-25.1,98.8-28.7,86-31.4Z" transform="translate(-10654 -7483)" fill="#fff"/>
    <path id="Trazado_13687" data-name="Trazado 13687" d="M63.1-51.9c-6.9,0-11.6,3-14.5,6.8-2.7-4.2-7.3-6.8-14.3-6.8-6,0-10,2.2-12.6,5.1V-48a2.669,2.669,0,0,0-2.6-2.7H9.1a3.585,3.585,0,0,0-3.6,3.6V-3.6A3.585,3.585,0,0,0,9.1,0h9.1a3.565,3.565,0,0,0,3.5-3.6V-29.1c0-5.6,4.2-6.9,6.8-6.9,2.7,0,6.8,1.2,6.8,6.9V-3.6A3.565,3.565,0,0,0,38.8,0h9.1a3.585,3.585,0,0,0,3.6-3.6V-29.1c0-5.6,4.1-6.9,6.8-6.9,2.6,0,6.7,1.2,6.7,6.9V-3.6A3.585,3.585,0,0,0,68.6,0h9.1a3.585,3.585,0,0,0,3.6-3.6V-33.5C81.3-43.7,75.6-51.9,63.1-51.9ZM127.9-48v2.3c-3-3.7-7.5-6.2-14.3-6.2-15.8,0-24.3,13.3-24.3,26.6,0,13.2,8.5,26.5,24.3,26.5,6.8,0,11.3-2.5,14.3-6.2v2.3A2.689,2.689,0,0,0,130.6,0h10a3.585,3.585,0,0,0,3.6-3.6V-47.1a3.585,3.585,0,0,0-3.6-3.6h-10A2.689,2.689,0,0,0,127.9-48ZM116.5-14.5c-6.7,0-10.8-4.6-10.8-10.8,0-6.3,4.1-10.9,10.8-10.9,6.1,0,10.9,4.1,10.9,10.9C127.4-18.6,122.6-14.5,116.5-14.5Zm-2-54.6-4.1,8.9a1.75,1.75,0,0,0,1.6,2.5h7.8a4.369,4.369,0,0,0,3.6-1.9l6.5-9.3a1.812,1.812,0,0,0-1.5-2.8h-9.9A4.375,4.375,0,0,0,114.5-69.1ZM178-31.4c-4-.8-9.4-1-9.4-4.3,0-2.9,2.9-3.8,6.1-3.8a6.214,6.214,0,0,1,5.2,2.2,2.641,2.641,0,0,0,2.7,1.1l8.6-2.1a2.79,2.79,0,0,0,1.8-3.8c-3.2-6.6-10.8-9.8-18.4-9.8-12.7,0-21.7,6-21.7,16.6,0,10,5.2,13.5,15,15.6,5.9,1.3,11.2,1.2,11.2,4.6,0,2.7-2.7,3.7-6.1,3.7-3.3,0-5.3-1.1-6.3-2.5a2.872,2.872,0,0,0-3-1l-9.9,3.1a2.6,2.6,0,0,0-1.6,3.7c3.3,6.8,12,9.3,21,9.3,14.9,0,22.7-6.3,22.7-17C195.9-25.1,190.8-28.7,178-31.4ZM265.1-48v2.3c-3-3.7-7.5-6.2-14.3-6.2-15.8,0-24.3,13.3-24.3,26.6,0,13.2,8.5,26.5,24.3,26.5,6.8,0,11.3-2.5,14.3-6.2V15.8a3.565,3.565,0,0,0,3.6,3.5h9.1a3.543,3.543,0,0,0,3.5-3.5V-47.1a3.565,3.565,0,0,0-3.5-3.6h-10A2.689,2.689,0,0,0,265.1-48ZM253.7-14.5c-6.7,0-10.8-4.6-10.8-10.8,0-6.3,4.1-10.9,10.8-10.9,6.1,0,10.9,4.1,10.9,10.9C264.6-18.6,259.8-14.5,253.7-14.5Zm74.6-36.2a3.565,3.565,0,0,0-3.5,3.6v23.7c0,5.7-3.4,8.8-8.1,8.8-4.5,0-8.1-2.9-8.1-8.8V-47.1a3.585,3.585,0,0,0-3.6-3.6h-9.1a3.585,3.585,0,0,0-3.6,3.6V-19c0,10.3,6,20.2,18.6,20.2,6.6,0,11-2.5,13.9-5.8v1.9A2.669,2.669,0,0,0,327.4,0h10A3.585,3.585,0,0,0,341-3.6V-47.1a3.585,3.585,0,0,0-3.6-3.6Zm46.8-1.2c-14.5,0-26.1,11.6-26.1,26.6,0,15.7,11.3,26.5,28.5,26.5C386,1.2,393-2,397.4-6.9a2.826,2.826,0,0,0-.7-4.1l-7.1-4.2a2.567,2.567,0,0,0-3.1.3,13.989,13.989,0,0,1-9,3.1c-6.2,0-11.1-2.7-12.8-8.6H398a3.565,3.565,0,0,0,3.5-3.6C401.8-42.9,389.3-51.9,375.1-51.9ZM364.8-30.2c1.5-5.6,5.7-8.7,10.9-8.7,5.6,0,9.7,2.7,11,8.7Z" transform="translate(-10519 -7483)" fill="#033782"/>
    <path id="Trazado_13685" data-name="Trazado 13685" d="M61.5-72v4.2c-4.2-5.85-10.8-10.05-21.3-10.05-23.25,0-36.6,17.25-36.6,37.2S16.95-3.45,40.2-3.45c10.5,0,17.1-3.9,21.3-9.3V-9.3c0,11.85-4.5,19.95-19.35,19.95-7.05,0-12.6-2.25-15.75-5.1a4.068,4.068,0,0,0-4.65-.3L10.2,12a4.057,4.057,0,0,0-.75,6.3c7.05,7.35,19.65,12,33.9,12,26.85,0,42.6-15.3,42.6-37.05v-63.9a5.378,5.378,0,0,0-5.4-5.4h-15A4.033,4.033,0,0,0,61.5-72ZM44.55-24.45c-10.2,0-16.35-6.9-16.35-16.2C28.2-50.1,34.35-57,44.55-57c9.15,0,16.2,6.15,16.2,16.35C60.75-30.6,53.7-24.45,44.55-24.45ZM100.2-99.6V-5.4A5.347,5.347,0,0,0,105.45,0h13.8a5.347,5.347,0,0,0,5.25-5.4V-99.6a5.347,5.347,0,0,0-5.25-5.4h-13.8A5.347,5.347,0,0,0,100.2-99.6Zm92.7,23.55a5.347,5.347,0,0,0-5.25,5.4V-35.1c0,8.55-5.1,13.2-12.15,13.2-6.75,0-12.15-4.35-12.15-13.2V-70.65a5.378,5.378,0,0,0-5.4-5.4H144.3a5.378,5.378,0,0,0-5.4,5.4V-28.5c0,15.45,9,30.3,27.9,30.3,9.9,0,16.5-3.75,20.85-8.7v2.85A4,4,0,0,0,191.55,0h15a5.378,5.378,0,0,0,5.4-5.4V-70.65a5.378,5.378,0,0,0-5.4-5.4Zm69.6,54.3c-9.75,0-16.2-7.35-16.2-16.2,0-9,6.45-16.35,16.2-16.35a16.287,16.287,0,0,1,11.7,4.65,4.107,4.107,0,0,0,4.95.75l14.4-8.55a4.073,4.073,0,0,0,1.05-6c-7.35-8.85-18.6-14.4-32.1-14.4-23.7,0-40.8,17.25-40.8,39.9,0,22.5,17.1,39.75,40.8,39.75,13.5,0,24.75-5.55,32.1-14.4a4.091,4.091,0,0,0-1.05-6L279.15-27a3.88,3.88,0,0,0-4.95.6A16.287,16.287,0,0,1,262.5-21.75Zm76.95-56.1c-23.7,0-40.8,17.25-40.8,39.9,0,22.5,17.1,39.9,40.8,39.9,23.85,0,40.8-17.4,40.8-39.9C380.25-60.6,363.3-77.85,339.45-77.85Zm0,56.1c-9.75,0-16.2-7.35-16.2-16.2s6.45-16.35,16.2-16.35c9.9,0,16.35,7.5,16.35,16.35S349.35-21.75,339.45-21.75ZM424.2-47.1c-6-1.2-14.1-1.5-14.1-6.45,0-4.35,4.35-5.7,9.15-5.7,3.45,0,6.3,1.2,7.8,3.3a3.962,3.962,0,0,0,4.05,1.65L444-57.45a4.184,4.184,0,0,0,2.7-5.7c-4.8-9.9-16.2-14.7-27.6-14.7-19.05,0-32.55,9-32.55,24.9,0,15,7.8,20.25,22.5,23.4,8.85,1.95,16.8,1.8,16.8,6.9,0,4.05-4.05,5.55-9.15,5.55-4.95,0-7.95-1.65-9.45-3.75a4.309,4.309,0,0,0-4.5-1.5L387.9-17.7a3.893,3.893,0,0,0-2.4,5.55C390.45-1.95,403.5,1.8,417,1.8c22.35,0,34.05-9.45,34.05-25.5C451.05-37.65,443.4-43.05,424.2-47.1ZM513.6-72v3.45c-4.5-5.55-11.25-9.3-21.45-9.3-23.7,0-36.45,19.95-36.45,39.9,0,19.8,12.75,39.75,36.45,39.75,10.2,0,16.95-3.75,21.45-9.3v3.45A4.033,4.033,0,0,0,517.65,0h15a5.378,5.378,0,0,0,5.4-5.4V-70.65a5.378,5.378,0,0,0-5.4-5.4h-15A4.033,4.033,0,0,0,513.6-72ZM496.5-21.75c-10.05,0-16.2-6.9-16.2-16.2,0-9.45,6.15-16.35,16.2-16.35,9.15,0,16.35,6.15,16.35,16.35C512.85-27.9,505.65-21.75,496.5-21.75Z" transform="translate(-10654 -7358)" fill="#033782"/>
  </g>
</svg>
