<svg xmlns="http://www.w3.org/2000/svg" width="721.548" height="73.386" viewBox="0 0 721.548 73.386">
  <path id="Trazado_2884" data-name="Trazado 2884" d="M19.764-30.132a5.98,5.98,0,0,0,5.994-5.994,5.964,5.964,0,0,0-5.994-5.913,5.964,5.964,0,0,0-5.994,5.913A5.98,5.98,0,0,0,19.764-30.132ZM20.412,7.29c-5.1,0-7.614-3.078-7.614-7.047,0-7.128,9.639-9.963,11.5-19.6a2.9,2.9,0,0,0-2.916-3.4H17.415a2.94,2.94,0,0,0-2.835,2.43C12.96-11.583,2.43-10.044,2.43,1.7c0,7.776,7.614,14.985,17.253,14.985,6.8,0,13.446-3.078,16.443-10.206A2.918,2.918,0,0,0,34.1,2.592L30.375,1.62a2.9,2.9,0,0,0-3.321,1.539A6.839,6.839,0,0,1,20.412,7.29ZM79.3-53.784V-33.7H55.809V-53.784A2.888,2.888,0,0,0,52.974-56.7H47.709a2.888,2.888,0,0,0-2.835,2.916V-2.916A2.888,2.888,0,0,0,47.709,0h5.265a2.888,2.888,0,0,0,2.835-2.916V-23.49H79.3V-2.916A2.9,2.9,0,0,0,82.215,0H87.4a2.9,2.9,0,0,0,2.916-2.916V-53.784A2.9,2.9,0,0,0,87.4-56.7H82.215A2.9,2.9,0,0,0,79.3-53.784Zm51.84,15.633v1.944c-2.592-3.4-6.723-5.832-13.122-5.832-12.717,0-20.007,10.773-20.007,21.546C98.01-9.8,105.3.972,118.017.972c6.4,0,10.53-2.43,13.122-5.832v1.944A2.9,2.9,0,0,0,134.055,0h4.455a2.9,2.9,0,0,0,2.916-2.916V-38.151a2.9,2.9,0,0,0-2.916-2.916h-4.455A2.9,2.9,0,0,0,131.139-38.151Zm-11.5,29.322c-7.047,0-11.1-5.427-11.1-11.664,0-6.318,4.05-11.664,11.1-11.664s11.1,5.265,11.1,11.664C130.734-14.175,126.684-8.829,119.637-8.829Zm71.847,0c-6.885,0-11.178-5.346-11.178-11.664,0-6.4,4.293-11.664,11.178-11.664a10.732,10.732,0,0,1,8.424,3.726,2.142,2.142,0,0,0,2.754.486l5.184-2.916a2.217,2.217,0,0,0,.648-3.24,21.519,21.519,0,0,0-17.01-7.938,21.32,21.32,0,0,0-21.708,21.546A21.3,21.3,0,0,0,191.484.972a21.519,21.519,0,0,0,17.01-7.938,2.118,2.118,0,0,0-.648-3.159l-5.184-3a2.142,2.142,0,0,0-2.754.486A10.539,10.539,0,0,1,191.484-8.829Zm46.737-33.21c-5.994,0-9.72,2.673-11.988,5.994V-53.784A2.836,2.836,0,0,0,223.4-56.7h-4.536a2.888,2.888,0,0,0-2.835,2.916V-2.916A2.888,2.888,0,0,0,218.862,0H223.4a2.836,2.836,0,0,0,2.835-2.916V-22.842c0-4.779,2.673-9.234,8.748-9.234,5.832,0,8.019,3.969,8.019,9.234V-2.916A2.9,2.9,0,0,0,245.916,0h4.455a2.9,2.9,0,0,0,2.916-2.916V-24.948C253.287-33.7,248.589-42.039,238.221-42.039Zm43.335,0c-11.34,0-20.979,8.667-20.979,21.546,0,12.474,8.991,21.465,22.6,21.465a22.058,22.058,0,0,0,15.633-6.156,2.185,2.185,0,0,0-.405-3.4l-4.617-2.754a2.08,2.08,0,0,0-2.511.243,12.473,12.473,0,0,1-8.1,2.916c-5.67,0-10.206-2.916-11.664-8.343H299.3a2.87,2.87,0,0,0,2.835-2.835C302.7-33.858,293.22-42.039,281.556-42.039ZM271.512-24.462c1.215-5.265,5.184-8.424,10.206-8.424,5.508,0,9.153,3,10.206,8.424ZM340.2-38.151v1.944c-2.592-3.4-6.723-5.832-13.041-5.832-12.8,0-20.088,10.773-20.088,21.546,0,10.692,7.29,21.465,20.088,21.465,6.318,0,10.449-2.43,13.041-5.832V12.8a2.888,2.888,0,0,0,2.916,2.835h4.536a2.87,2.87,0,0,0,2.835-2.835V-38.151a2.888,2.888,0,0,0-2.835-2.916h-4.536A2.9,2.9,0,0,0,340.2-38.151ZM328.7-8.829c-7.047,0-11.1-5.427-11.1-11.664,0-6.318,4.05-11.664,11.1-11.664s11.1,5.265,11.1,11.664C339.795-14.175,335.745-8.829,328.7-8.829Zm61.317-32.238a2.888,2.888,0,0,0-2.835,2.916v19.926c0,4.779-2.673,9.234-8.748,9.234-5.751,0-8.019-3.969-8.019-9.234V-38.151a2.888,2.888,0,0,0-2.835-2.916h-4.536a2.888,2.888,0,0,0-2.835,2.916v22.113c0,8.667,4.7,17.01,15.066,17.01,5.913,0,9.639-2.673,11.907-5.994v2.106A2.888,2.888,0,0,0,390.015,0h4.536a2.9,2.9,0,0,0,2.916-2.916V-38.151a2.9,2.9,0,0,0-2.916-2.916Zm35.721-.972c-11.34,0-20.979,8.667-20.979,21.546,0,12.474,8.991,21.465,22.6,21.465a22.058,22.058,0,0,0,15.633-6.156,2.185,2.185,0,0,0-.405-3.4l-4.617-2.754a2.08,2.08,0,0,0-2.511.243,12.473,12.473,0,0,1-8.1,2.916c-5.67,0-10.206-2.916-11.664-8.343h27.783a2.87,2.87,0,0,0,2.835-2.835C446.877-33.858,437.4-42.039,425.736-42.039ZM415.692-24.462c1.215-5.265,5.184-8.424,10.206-8.424,5.508,0,9.153,3,10.206,8.424ZM484.38-38.151v1.944c-2.592-3.4-6.723-5.832-13.122-5.832-12.717,0-20.007,10.773-20.007,21.546,0,10.692,7.29,21.465,20.007,21.465,6.4,0,10.53-2.43,13.122-5.832v1.944A2.9,2.9,0,0,0,487.3,0h4.455a2.9,2.9,0,0,0,2.916-2.916V-38.151a2.9,2.9,0,0,0-2.916-2.916H487.3A2.9,2.9,0,0,0,484.38-38.151Zm-11.5,29.322c-7.047,0-11.1-5.427-11.1-11.664,0-6.318,4.05-11.664,11.1-11.664s11.1,5.265,11.1,11.664C483.975-14.175,479.925-8.829,472.878-8.829Zm62.208-44.955v17.577c-2.673-3.4-6.723-5.832-13.122-5.832-12.717,0-20.007,10.773-20.007,21.546,0,10.692,7.29,21.465,20.007,21.465,6.4,0,10.449-2.43,13.122-5.832v1.944A2.888,2.888,0,0,0,537.921,0h4.536a2.9,2.9,0,0,0,2.916-2.916V-53.784a2.9,2.9,0,0,0-2.916-2.916h-4.536A2.888,2.888,0,0,0,535.086-53.784Zm-11.5,44.955c-7.047,0-11.1-5.427-11.1-11.664,0-6.318,4.05-11.664,11.1-11.664S534.6-26.892,534.6-20.493C534.6-14.175,530.631-8.829,523.584-8.829Zm50.706-33.21a21.252,21.252,0,0,0-21.627,21.546A21.3,21.3,0,0,0,574.29,1.053,21.32,21.32,0,0,0,596-20.493,21.271,21.271,0,0,0,574.29-42.039Zm0,33.21c-6.8,0-11.1-5.265-11.1-11.664s4.293-11.664,11.1-11.664c6.885,0,11.178,5.265,11.178,11.664S581.175-8.829,574.29-8.829Zm50.058-44.955V-2.916A2.9,2.9,0,0,0,627.264,0H631.8a2.888,2.888,0,0,0,2.835-2.916V-53.784A2.888,2.888,0,0,0,631.8-56.7h-4.536A2.9,2.9,0,0,0,624.348-53.784Zm39.2,11.745a21.252,21.252,0,0,0-21.627,21.546A21.3,21.3,0,0,0,663.552,1.053,21.32,21.32,0,0,0,685.26-20.493,21.271,21.271,0,0,0,663.552-42.039Zm0,33.21c-6.8,0-11.1-5.265-11.1-11.664s4.293-11.664,11.1-11.664c6.885,0,11.178,5.265,11.178,11.664S670.437-8.829,663.552-8.829Zm45.927-15.714c-3.24-.729-8.748-1.053-8.748-4.7,0-3.078,3.078-4.131,6.075-4.131s4.86,1.215,5.832,2.754a2.121,2.121,0,0,0,2.349.972l5.265-1.3a2.18,2.18,0,0,0,1.458-3c-2.592-5.427-8.667-8.1-14.9-8.1-9.558,0-16.119,5.1-16.119,12.879,0,6.966,4.05,10.854,11.988,12.474,4.86.972,10.773.891,10.773,4.7,0,2.754-2.43,4.374-6.723,4.374s-6.4-1.458-7.29-2.916a2.129,2.129,0,0,0-2.511-.972L691.173-9.72a2.132,2.132,0,0,0-1.3,3.078c2.916,5.265,9.8,7.614,16.686,7.614,11.583,0,17.415-5.589,17.415-13.608C723.978-19.6,719.6-22.356,709.479-24.543Z" transform="translate(-2.43 56.7)" fill="#fff"/>
</svg>
