<svg xmlns="http://www.w3.org/2000/svg" width="572.985" height="199.068" viewBox="0 0 572.985 199.068">
  <path id="Trazado_2885" data-name="Trazado 2885" d="M49.484-72.141c-9.174,0-15.29,3.475-19.182,8.062V-66.72a3.737,3.737,0,0,0-3.753-3.753h-13.9a4.983,4.983,0,0,0-5,5V-5a4.983,4.983,0,0,0,5,5H25.3a4.983,4.983,0,0,0,5-5V-37.947c0-7.923,4.587-12.093,11.259-12.093,6.255,0,11.259,3.892,11.259,12.093V-5a4.955,4.955,0,0,0,4.865,5H70.473a4.955,4.955,0,0,0,4.865-5V-44.063C75.338-58.241,67.137-72.141,49.484-72.141Zm90.072,1.668a4.955,4.955,0,0,0-4.865,5v32.943c0,7.923-4.726,12.232-11.259,12.232-6.255,0-11.259-4.031-11.259-12.232V-65.469a4.983,4.983,0,0,0-5-5H94.52a4.983,4.983,0,0,0-5,5V-26.41c0,14.317,8.34,28.078,25.854,28.078,9.174,0,15.29-3.475,19.321-8.062v2.641A3.71,3.71,0,0,0,138.305,0h13.9a4.983,4.983,0,0,0,5-5V-65.469a4.983,4.983,0,0,0-5-5ZM120.513-96.049l-5.7,12.371a2.432,2.432,0,0,0,2.224,3.475H127.88a6.073,6.073,0,0,0,5-2.641l9.035-12.927a2.519,2.519,0,0,0-2.085-3.892H126.073A6.082,6.082,0,0,0,120.513-96.049ZM251.451-72.141c-9.591,0-16.124,4.17-20.155,9.452-3.753-5.838-10.147-9.452-19.877-9.452-8.34,0-13.9,3.058-17.514,7.089V-66.72a3.71,3.71,0,0,0-3.614-3.753h-13.9a4.983,4.983,0,0,0-5,5V-5a4.983,4.983,0,0,0,5,5H189.04A4.955,4.955,0,0,0,193.9-5V-40.449c0-7.784,5.838-9.591,9.452-9.591,3.753,0,9.452,1.668,9.452,9.591V-5a4.955,4.955,0,0,0,4.865,5h12.649a4.983,4.983,0,0,0,5-5V-40.449c0-7.784,5.7-9.591,9.452-9.591,3.614,0,9.313,1.668,9.313,9.591V-5a4.983,4.983,0,0,0,5,5h12.649a4.983,4.983,0,0,0,5-5V-46.565C276.749-60.743,268.826-72.141,251.451-72.141Zm71.585,0c-20.155,0-36.279,16.124-36.279,36.974,0,21.823,15.707,36.835,39.615,36.835,11.815,0,21.545-4.448,27.661-11.259a3.929,3.929,0,0,0-.973-5.7l-9.869-5.838a3.569,3.569,0,0,0-4.309.417,19.445,19.445,0,0,1-12.51,4.309c-8.618,0-15.429-3.753-17.792-11.954h46.287a4.955,4.955,0,0,0,4.865-5C360.149-59.631,342.774-72.141,323.036-72.141ZM308.719-41.978c2.085-7.784,7.923-12.093,15.151-12.093,7.784,0,13.483,3.753,15.29,12.093ZM392.536-59.77v-5.7a4.955,4.955,0,0,0-4.865-5H374.883a4.955,4.955,0,0,0-4.865,5V-5a4.955,4.955,0,0,0,4.865,5h12.788a4.955,4.955,0,0,0,4.865-5V-27.8c0-11.12,1.946-21.684,18.348-20.572a3.8,3.8,0,0,0,4.031-3.753V-68.11a3.743,3.743,0,0,0-4.448-3.614A27.177,27.177,0,0,0,392.536-59.77Zm64.5-12.371c-21.962,0-37.808,15.985-37.808,36.974,0,20.85,15.846,36.974,37.808,36.974,22.1,0,37.808-16.124,37.808-36.974C494.84-56.156,479.133-72.141,457.032-72.141Zm0,51.986A14.609,14.609,0,0,1,442.02-35.167c0-8.2,5.977-15.151,15.012-15.151,9.174,0,15.151,6.95,15.151,15.151S466.206-20.155,457.032-20.155ZM536.54-43.646c-5.56-1.112-13.066-1.39-13.066-5.977,0-4.031,4.031-5.282,8.479-5.282,3.2,0,5.838,1.112,7.228,3.058a3.672,3.672,0,0,0,3.753,1.529l11.954-2.919a3.878,3.878,0,0,0,2.5-5.282c-4.448-9.174-15.012-13.622-25.576-13.622-17.653,0-30.163,8.34-30.163,23.074,0,13.9,7.228,18.765,20.85,21.684,8.2,1.807,15.568,1.668,15.568,6.394,0,3.753-3.753,5.143-8.479,5.143-4.587,0-7.367-1.529-8.757-3.475a3.993,3.993,0,0,0-4.17-1.39L502.9-16.4a3.607,3.607,0,0,0-2.224,5.143c4.587,9.452,16.68,12.927,29.19,12.927,20.711,0,31.553-8.757,31.553-23.63C561.421-34.889,554.332-39.893,536.54-43.646ZM37.315,42.965V45c-2.72-3.57-7.055-6.12-13.685-6.12-13.43,0-21.08,11.305-21.08,22.61,0,11.22,7.65,22.525,21.08,22.525,6.63,0,10.965-2.55,13.685-6.12V96.43a3.03,3.03,0,0,0,3.06,2.975h4.76A3.012,3.012,0,0,0,48.11,96.43V42.965a3.03,3.03,0,0,0-2.975-3.06h-4.76A3.047,3.047,0,0,0,37.315,42.965Zm-12.07,30.77c-7.4,0-11.645-5.695-11.645-12.24,0-6.63,4.25-12.24,11.645-12.24S36.89,54.78,36.89,61.495C36.89,68.125,32.64,73.735,25.245,73.735ZM89.59,39.9a3.03,3.03,0,0,0-2.975,3.06v20.91c0,5.015-2.805,9.69-9.18,9.69-6.035,0-8.415-4.165-8.415-9.69V42.965a3.03,3.03,0,0,0-2.975-3.06h-4.76a3.03,3.03,0,0,0-2.975,3.06v23.2c0,9.1,4.93,17.85,15.81,17.85,6.205,0,10.115-2.805,12.5-6.29v2.21A3.03,3.03,0,0,0,89.59,83h4.76a3.047,3.047,0,0,0,3.06-3.06V42.965a3.047,3.047,0,0,0-3.06-3.06Zm37.485-1.02c-11.9,0-22.015,9.1-22.015,22.61,0,13.09,9.435,22.525,23.715,22.525a23.147,23.147,0,0,0,16.4-6.46,2.292,2.292,0,0,0-.425-3.57L139.91,71.1a2.182,2.182,0,0,0-2.635.255,13.088,13.088,0,0,1-8.5,3.06c-5.95,0-10.71-3.06-12.24-8.755H145.69a3.012,3.012,0,0,0,2.975-2.975C149.26,47.47,139.315,38.885,127.075,38.885ZM116.535,57.33c1.275-5.525,5.44-8.84,10.71-8.84,5.78,0,9.6,3.145,10.71,8.84ZM181.56,83h4.675a3.047,3.047,0,0,0,3.06-3.06V42.965a3.047,3.047,0,0,0-3.06-3.06H181.56a3.047,3.047,0,0,0-3.06,3.06V79.94A3.047,3.047,0,0,0,181.56,83Zm2.295-49.385a5.781,5.781,0,1,0-5.7-5.78A5.786,5.786,0,0,0,183.855,33.615Zm62.73,5.27A15.481,15.481,0,0,0,233.58,45.6c-2.21-3.995-6.035-6.715-11.9-6.715-5.7,0-9.18,2.465-11.39,5.61v-1.53a3.047,3.047,0,0,0-3.06-3.06h-4.675a3.047,3.047,0,0,0-3.06,3.06V79.94a3.047,3.047,0,0,0,3.06,3.06h4.675a3.047,3.047,0,0,0,3.06-3.06V58.265c0-4.93,2.635-8.925,7.65-8.925s7.225,3.57,7.225,8.925V79.94a3.047,3.047,0,0,0,3.06,3.06H232.9a3.047,3.047,0,0,0,3.06-3.06V58.265c0-4.93,2.635-8.925,7.65-8.925s7.225,3.57,7.225,8.925V79.94a3.047,3.047,0,0,0,3.06,3.06h4.76a3.03,3.03,0,0,0,2.975-3.06V56.055C261.63,46.875,256.53,38.885,246.585,38.885Zm49.725,0c-6.63,0-10.965,2.55-13.685,6.12v-2.04a3.047,3.047,0,0,0-3.06-3.06H274.8a3.03,3.03,0,0,0-2.975,3.06V96.43A3.012,3.012,0,0,0,274.8,99.4h4.76a3.03,3.03,0,0,0,3.06-2.975V77.9c2.72,3.57,7.055,6.12,13.685,6.12,13.43,0,21.08-11.305,21.08-22.525C317.39,50.19,309.74,38.885,296.31,38.885Zm-1.615,34.85c-7.48,0-11.645-5.61-11.645-12.24,0-6.715,4.165-12.24,11.645-12.24,7.395,0,11.645,5.61,11.645,12.24C306.34,68.04,302.09,73.735,294.695,73.735Zm50.49-34.85a22.611,22.611,0,1,0,22.78,22.61A22.3,22.3,0,0,0,345.185,38.885Zm0,34.85c-7.14,0-11.645-5.525-11.645-12.24s4.505-12.24,11.645-12.24c7.225,0,11.73,5.525,11.73,12.24S352.41,73.735,345.185,73.735Zm41.225-26.86v-3.91a3.03,3.03,0,0,0-2.975-3.06h-4.76a3.047,3.047,0,0,0-3.06,3.06V79.94a3.047,3.047,0,0,0,3.06,3.06h4.76a3.03,3.03,0,0,0,2.975-3.06V65.235c0-7.48,1.445-15.13,12.07-14.79a2.285,2.285,0,0,0,2.3-2.3v-6.8a2.255,2.255,0,0,0-2.55-2.3A17.336,17.336,0,0,0,386.41,46.875Zm44.71-.085V42.965a3.047,3.047,0,0,0-3.06-3.06h-6.12v-5.95a3.047,3.047,0,0,0-3.06-3.06h-4.76a2.976,2.976,0,0,0-2.975,3.06V39.9h-3.91a3.03,3.03,0,0,0-2.975,3.06V46.79a3.012,3.012,0,0,0,2.975,2.975h3.91v17.51c0,8.925,4.42,16.32,15.47,16.32a23.111,23.111,0,0,0,2.55-.085,2.3,2.3,0,0,0,1.955-2.3V75.6a2.359,2.359,0,0,0-2.38-2.295h-.17c-5.95,0-6.63-2.89-6.63-7.82V49.765h6.12A3.03,3.03,0,0,0,431.12,46.79Zm40.29-3.825V45c-2.72-3.57-7.055-6.12-13.77-6.12-13.345,0-21,11.305-21,22.61,0,11.22,7.65,22.525,21,22.525,6.715,0,11.05-2.55,13.77-6.12v2.04A3.047,3.047,0,0,0,474.47,83h4.675a3.047,3.047,0,0,0,3.06-3.06V42.965a3.047,3.047,0,0,0-3.06-3.06H474.47A3.047,3.047,0,0,0,471.41,42.965Zm-12.07,30.77c-7.395,0-11.645-5.695-11.645-12.24,0-6.63,4.25-12.24,11.645-12.24s11.645,5.525,11.645,12.24C470.985,68.125,466.735,73.735,459.34,73.735Zm56.355-34.85c-6.29,0-10.2,2.805-12.58,6.29v-2.21a3.03,3.03,0,0,0-2.975-3.06h-4.76a3.03,3.03,0,0,0-2.975,3.06V79.94A3.03,3.03,0,0,0,495.38,83h4.76a3.03,3.03,0,0,0,2.975-3.06V59.03c0-5.015,2.8-9.69,9.18-9.69,6.12,0,8.415,4.165,8.415,9.69V79.94A3.047,3.047,0,0,0,523.77,83h4.675a3.047,3.047,0,0,0,3.06-3.06V56.82C531.5,47.64,526.575,38.885,515.695,38.885Zm41.735,32.64a6.248,6.248,0,1,0,6.205,6.29A6.276,6.276,0,0,0,557.43,71.525Zm-.68-39.27c5.27,0,7.9,3.23,7.9,7.48,0,7.395-10.03,10.37-11.985,20.485a3.029,3.029,0,0,0,2.975,3.57h4.25a3.158,3.158,0,0,0,2.975-2.55c1.7-9.18,12.665-10.795,12.665-23.035,0-8.245-7.9-15.81-18.02-15.81-7.225,0-14.195,3.23-17.34,10.71a3.062,3.062,0,0,0,2.125,4.08l3.995,1.02a2.978,2.978,0,0,0,3.4-1.615A7.3,7.3,0,0,1,556.75,32.255Z" transform="translate(-2.55 99.663)" fill="#fff"/>
</svg>
