<svg xmlns="http://www.w3.org/2000/svg" xmlns:xlink="http://www.w3.org/1999/xlink" width="509.654" height="328.336" viewBox="0 0 509.654 328.336">
  <defs>
    <clipPath id="clip-path">
      <rect id="Rect치ngulo_568" data-name="Rect치ngulo 568" width="97.477" height="104.836" fill="#002e66"/>
    </clipPath>
    <clipPath id="clip-path-2">
      <rect id="Rect치ngulo_584" data-name="Rect치ngulo 584" width="119.516" height="119.515" fill="#002e66" stroke="#002e66" stroke-width="1"/>
    </clipPath>
  </defs>
  <g id="Grupo_3215" data-name="Grupo 3215" transform="translate(6882 -580.283)">
    <g id="Grupo_3212" data-name="Grupo 3212" transform="translate(-6.653)">
      <path id="Trazado_3244" data-name="Trazado 3244" d="M-84.6-1.2a4.7,4.7,0,0,0,1.45,0A1.81,1.81,0,0,0-82-1.95a1.5,1.5,0,0,0,.25-1.3,1.921,1.921,0,0,0-.65-1.1,5.87,5.87,0,0,0-1.35-.75,2.547,2.547,0,0,1-.85-.35,12.378,12.378,0,0,1-1.8-1.4,5.62,5.62,0,0,1-1.45-2.3,8.146,8.146,0,0,1-.6-3.25,20.865,20.865,0,0,1,.05-2.5c.1-.55.15-1.1.25-1.6a11.1,11.1,0,0,1,.55-1.95,16.138,16.138,0,0,1,1.2-2.9,10.527,10.527,0,0,1,1.95-2.5,2.133,2.133,0,0,1,2-.6,3.542,3.542,0,0,0,1.45,0,2.635,2.635,0,0,0,1.5-1.35,2.916,2.916,0,0,0,.1-1.15A2.56,2.56,0,0,0-79.9-28a2.969,2.969,0,0,0-1.45-.9c-.55-.15-1.1-.1-1.65-.2a.152.152,0,0,0-.2,0c-.1.1-.25.05-.35.05a2.005,2.005,0,0,0-.95.15,6.722,6.722,0,0,0-2.85,1.45A10.984,10.984,0,0,0-89.4-25.2,21.825,21.825,0,0,0-91-22.45a29.9,29.9,0,0,0-1.25,3.55A20.163,20.163,0,0,0-93-15.05a8.8,8.8,0,0,0-.1,2,9.635,9.635,0,0,0,.05,1.2c.05.6.1,1.2.2,1.85.1.55.25,1.05.4,1.6a10.528,10.528,0,0,0,.95,2.35A11.813,11.813,0,0,0-89.85-3.8a4.318,4.318,0,0,0,.7.65,7.138,7.138,0,0,0,3.35,1.7A10.241,10.241,0,0,0-84.6-1.2Zm15.9-.75c.05,0,.15-.05.2,0A.845.845,0,0,0-67.8-2a8.409,8.409,0,0,1,1.2-.35,11.006,11.006,0,0,0,2.55-1.6c.45-.4.85-.9,1.3-1.3a7.823,7.823,0,0,0,1.15-1.7,17.063,17.063,0,0,0,.85-1.65,20.576,20.576,0,0,0,1.35-4.2,17.3,17.3,0,0,0,.45-4.25,14.422,14.422,0,0,0-.1-2.05c-.05-.15-.05-.3-.1-.5-.1-.45-.15-1.05-.3-1.55-.15-.4-.2-.8-.35-1.15a16.153,16.153,0,0,0-1-2.1,12.047,12.047,0,0,0-1.8-2.4,6.535,6.535,0,0,0-.6-.55,5.771,5.771,0,0,0-1.45-1,9.982,9.982,0,0,0-3.15-.95,7.228,7.228,0,0,0-1.8,0,9.548,9.548,0,0,0-2.25.65A12.207,12.207,0,0,0-74.6-26.9,9.6,9.6,0,0,0-76-25.45a3.776,3.776,0,0,0-.55.7,6.3,6.3,0,0,0-.5,1.65l-.15.85a22.917,22.917,0,0,0-.5,3.15c-.05.55-.1,1.15-.1,1.7-.05.65-.05,1.35-.1,2.05,0,.5,0,1.05.05,1.6l.15,1.7a22.872,22.872,0,0,0,.7,3.6c.2.45.35.9.5,1.3a10.814,10.814,0,0,0,1.1,1.8A11.009,11.009,0,0,0-73.75-3.6a7.989,7.989,0,0,0,2,1.15A5.883,5.883,0,0,0-68.7-1.95Zm.05-4.45a1.814,1.814,0,0,1-1.95-.45A5.614,5.614,0,0,1-72.05-9.3a6.686,6.686,0,0,1-.5-1.9c-.05-.2-.2-.35-.2-.55-.05-.7-.1-1.4-.2-2.1C-73-14.4-73-14.95-73-15.5a35.008,35.008,0,0,1,.3-4l.4-2.35a1.877,1.877,0,0,1,.6-1.05,5.873,5.873,0,0,1,1.5-1.2,3.6,3.6,0,0,1,2.4-.3c.2.05.4.15.55.2a5.758,5.758,0,0,1,2.1,2c.35.6.55,1.25.85,1.85v.05c.05.55.35,1,.35,1.5a12.1,12.1,0,0,1,.1,1.9,16.218,16.218,0,0,1-.55,3.8,12.35,12.35,0,0,1-.95,2.7,8.7,8.7,0,0,1-.9,1.65,6.867,6.867,0,0,1-.65,1A4.246,4.246,0,0,1-68.65-6.4Zm14.3,5.8a2.315,2.315,0,0,0,1.2-.85,4.011,4.011,0,0,0,.55-1.7,8.475,8.475,0,0,1,.05-1.15,14.051,14.051,0,0,1,.05-1.45c0-.55-.05-1.1-.05-1.65v-4.05c0-.6.05-1.15.05-1.7a2.434,2.434,0,0,1,.05-.6.333.333,0,0,1,.25-.35c.1-.05.2.1.3.2a.69.69,0,0,1,.15.2c.15.55.45,1.05.65,1.6.45.95.85,1.9,1.3,2.85.4.75.75,1.55,1.15,2.25A17.672,17.672,0,0,0-47-4.15a7.632,7.632,0,0,1,.8,1.1,9.129,9.129,0,0,0,.65.8,1.93,1.93,0,0,0,1.95.65,2.116,2.116,0,0,0,1.55-1.35A8.044,8.044,0,0,0-41.7-4.8c.2-1.2.25-2.45.35-3.65.05-.95.05-1.85.1-2.8l.15-2.8c.05-1.05.1-2.15.05-3.2V-18c.05-.75.05-1.5.05-2.2v-3.45l.05-.65a4.826,4.826,0,0,1,0-.85,9.143,9.143,0,0,0-.1-1.65,4.644,4.644,0,0,1-.2-.65,2.961,2.961,0,0,0-1-1.75,1.746,1.746,0,0,0-1.2-.5,2.162,2.162,0,0,0-1.75,1.15,5.268,5.268,0,0,0-.6,1.9,6.839,6.839,0,0,0-.1,1.45c-.05.55-.05,1.65-.05,2.15v2.5c-.05.3,0,.6-.05.9a6.094,6.094,0,0,0,0,1.35c.05.55,0,1.05,0,1.6v2.6c-.05.1-.05.25-.25.3-.15,0-.2-.1-.3-.2,0-.05-.05-.1-.05-.15-.35-.65-.6-1.35-.9-2-.4-1.05-.8-2.1-1.25-3.15-.35-.85-.7-1.65-1-2.5a13.462,13.462,0,0,1-.65-1.6l-.75-1.75A4.156,4.156,0,0,0-52.8-27.2a2.408,2.408,0,0,0-1.65-.4,2.524,2.524,0,0,0-2.05,1.85,15.068,15.068,0,0,0-.5,3.3l-.15,2.6c-.05.9-.15,1.8-.15,2.7-.05.6,0,1.2-.05,1.8a9.3,9.3,0,0,0-.05,2.05v1.7c0,.75-.05,1.45,0,2.2,0,.55-.05,1.15,0,1.75,0,.3.05.65.05.95a11.276,11.276,0,0,0,0,1.3,7.042,7.042,0,0,1,.05,1,13.088,13.088,0,0,0,.1,1.9,2,2,0,0,0,.55,1.15A2.145,2.145,0,0,0-54.35-.6Zm17.25.1a2.69,2.69,0,0,0,1.65-.15,4.255,4.255,0,0,1,.85-.3A21.826,21.826,0,0,0-31.75-2.4,7.042,7.042,0,0,0-29.4-4.55a8.971,8.971,0,0,0,1-1.95,7.946,7.946,0,0,0,.5-2.95A10.753,10.753,0,0,0-28-10.6a10.037,10.037,0,0,0-.65-2.4,13.679,13.679,0,0,0-2.5-3.6c-1-1.1-2.15-2.05-3.1-3.2a2.246,2.246,0,0,1-.5-2.4,4.3,4.3,0,0,1,1.7-2.4,5.76,5.76,0,0,1,1.6-.7,3.034,3.034,0,0,0,1.3-.4,2.126,2.126,0,0,0,1.1-1.8,2.05,2.05,0,0,0-.3-1.2A2.133,2.133,0,0,0-31-29.8a4.128,4.128,0,0,0-1.55.1,9.306,9.306,0,0,0-1.55.5,9.381,9.381,0,0,0-1.8,1.05,8.452,8.452,0,0,0-2.45,2.85,9.617,9.617,0,0,0-.7,1.65,6.715,6.715,0,0,0-.35,1.35,6.576,6.576,0,0,0,.1,2.2,8.551,8.551,0,0,0,.45,1.5,9.953,9.953,0,0,0,1.8,2.5c.75.85,1.6,1.6,2.4,2.4a10.792,10.792,0,0,1,1.35,1.65,5.615,5.615,0,0,1,.9,2.45,5.51,5.51,0,0,1-.1.9,3.207,3.207,0,0,1-1.1,2.05,9.16,9.16,0,0,1-2.45,1.4l-1.45.6a2.768,2.768,0,0,0-1.05.95,2.259,2.259,0,0,0,0,2.25A1.828,1.828,0,0,0-37.1-.5Zm18.65-1.7a6.775,6.775,0,0,0,1.75-.05,5.844,5.844,0,0,0,1-.3,6.619,6.619,0,0,0,1.6-1A8.943,8.943,0,0,0-12.7-4.9a9.7,9.7,0,0,0,.75-1.2A15,15,0,0,0-10.4-9.65a28.074,28.074,0,0,0,.65-2.95c.05-.45.2-.9.25-1.4.1-1.15.3-2.35.4-3.5,0-.75.1-1.45.15-2.2a4.276,4.276,0,0,1,0-.8,4.153,4.153,0,0,0,.05-1.1c0-.4.05-.8.05-1.2,0-.35-.05-.65-.05-.95a8.565,8.565,0,0,0,.05-1.6,2.165,2.165,0,0,1-.05-.25,2.85,2.85,0,0,0-.25-1.7,2.518,2.518,0,0,0-3.2-1.35,2.151,2.151,0,0,0-1.05.95,3.8,3.8,0,0,0-.5,2.35v1.3c-.05.75,0,1.5-.05,2.25a6.667,6.667,0,0,0,0,1,8.339,8.339,0,0,0-.1,1.6c0,.85-.15,1.65-.2,2.5-.1,1.1-.3,2.2-.5,3.25a22.965,22.965,0,0,1-1.2,4.5,4.81,4.81,0,0,1-1,1.6.931.931,0,0,1-1.15.25,4.071,4.071,0,0,1-1.4-1.2,6.46,6.46,0,0,1-1.35-3.3c-.15-1.45-.4-2.85-.45-4.35a11.59,11.59,0,0,0-.05-1.85v-.15a5.227,5.227,0,0,0,0-1.25c.05-.4,0-.85.05-1.25v-2.1c.05-.6.05-1.25.05-1.85a4.042,4.042,0,0,1,.05-.8,2.119,2.119,0,0,0-.35-1.55,2.469,2.469,0,0,0-1.75-1.2,2.5,2.5,0,0,0-1.6.3A2.662,2.662,0,0,0-26-26.3a6.929,6.929,0,0,0-.35,2.45v1.2a5.409,5.409,0,0,1,0,.9,5.77,5.77,0,0,0-.05,1.3,11.276,11.276,0,0,1,0,1.3c-.05.75.05,1.5,0,2.3a5.34,5.34,0,0,0,.05,1.25c0,.75.15,1.55.15,2.3a3.751,3.751,0,0,0,.1,1c-.05.7.3,1.5.35,2.35a.155.155,0,0,0,.05.1c.2.6.35,1.3.6,1.9A10.113,10.113,0,0,0-23.45-5.1a6.9,6.9,0,0,0,2,1.8A7.533,7.533,0,0,0-18.45-2.2ZM9.9-1.05a1.791,1.791,0,0,0,1.25,0,2.173,2.173,0,0,0,1.6-1.2,4.184,4.184,0,0,0,.4-2.05c0-.65.1-2.85.15-3.85,0-.6.05-1.25.05-1.9,0-.7.05-1.4.05-2.05a11.3,11.3,0,0,0,.05-1.3c0-.5.05-1,.05-1.45v-1.5c0-.5.05-1,.05-1.5V-19.3c0-.8,0-1.6.05-2.4,0-.3-.05-.65-.05-.95a6.051,6.051,0,0,0,.05-.95c-.05-.6,0-1.15-.05-1.75a14.14,14.14,0,0,0-.15-2.05,3.224,3.224,0,0,0-.75-2.05,2.359,2.359,0,0,0-2.15-1,2.417,2.417,0,0,0-1.9,1,5.3,5.3,0,0,0-.9,1.85c-.4,1.2-.9,2.35-1.4,3.5-.45,1.15-.9,2.25-1.3,3.4-.35.9-.7,1.8-1,2.75a.9.9,0,0,1-.6.6A.335.335,0,0,1,3-17.5c-.2-.15-.15-.4-.25-.6-.3-.6-.55-1.2-.8-1.75-.25-.7-.55-1.4-.85-2.1-.4-.9-.85-1.8-1.25-2.7A20.25,20.25,0,0,0-1.2-26.4a13.029,13.029,0,0,0-1-1.5,3.205,3.205,0,0,0-1.25-1.05,2.211,2.211,0,0,0-1.5-.15,2.025,2.025,0,0,0-1.4,1.05,6.3,6.3,0,0,0-.6,2.1,12.976,12.976,0,0,0-.15,2c-.05,1.05-.15,2.1-.15,3.2a10.819,10.819,0,0,1,0,1.8c-.05.45,0,.95-.05,1.45-.05.65-.05,1.25-.05,1.9a8.547,8.547,0,0,1,0,1.6v2.3c0,.6,0,1.3.05,1.95a3.04,3.04,0,0,1,.05.95c-.05.35.05.7,0,1.05,0,.4.05.8.05,1.2.05.6,0,1.25.1,1.85,0,.05.05.1.05.15a2.486,2.486,0,0,0,.2,1.35A2.031,2.031,0,0,0-6.1-2.05a1.9,1.9,0,0,0,.85.35,2.016,2.016,0,0,0,2.2-1.35,6.425,6.425,0,0,0,.35-1.7,11.817,11.817,0,0,0,.1-2.3V-10.5c-.05-.7,0-1.4-.1-2.05,0-.35-.05-.7-.05-1.05a12.706,12.706,0,0,0-.05-1.95,13.1,13.1,0,0,0,.05-1.4.942.942,0,0,1,.1-.4q.3-.45.6,0c0,.05.05.1.1.15a13.864,13.864,0,0,1,.5,1.3c.15.65.45,1.25.65,1.9a17.5,17.5,0,0,1,.85,2.75.3.3,0,0,0,.05.2A6.023,6.023,0,0,1,.5-9.7c.1.5.25,1,.4,1.5a3.978,3.978,0,0,0,.55,1.25,2.587,2.587,0,0,0,2,1.05A2.54,2.54,0,0,0,5.7-7.3a21.992,21.992,0,0,0,.9-2.55c.55-1.45,1-2.95,1.5-4.45.05-.15,0-.45.25-.4.2.05.15.3.15.45,0,.35-.05.7-.05,1.05.05.7,0,1.35,0,2-.05.65-.1,1.35-.1,2,0,.45-.05.95-.05,1.4-.05.6-.05,1.95-.1,2.65A8.481,8.481,0,0,0,8.25-2.9,2.566,2.566,0,0,0,9.9-1.05Zm18.15-.3a2.185,2.185,0,0,0,1.5-1.45,5.079,5.079,0,0,0,.3-1.7c.05-.6,0-1.25,0-1.85V-7.9a15.142,15.142,0,0,0-.1-1.55c0-1.15.05-2.3-.05-3.45-.1-.9-.05-1.85-.1-2.75a9.765,9.765,0,0,1-.15-1.7c0-.05.05-.1,0-.1a.643.643,0,0,1-.05-.6c0-.25-.15-.4-.15-.65a9.326,9.326,0,0,0-.2-1.6c-.05-.5-.25-1.05-.35-1.6a15.8,15.8,0,0,0-.85-2.6,12.913,12.913,0,0,0-1.1-2.2,6.438,6.438,0,0,0-1.1-1.5,2.426,2.426,0,0,0-2.2-.75,1.709,1.709,0,0,0-1.3.7,10.035,10.035,0,0,0-1.4,2.6l-1.3,3.25c-.35,1-.8,2.05-1.15,3.1-.6,1.65-1.15,3.35-1.6,5.1-.2.85-.45,1.7-.6,2.55L15.65-9.3c-.15.8-.25,1.55-.35,2.35a6.839,6.839,0,0,0-.1,1.45v.1a1.522,1.522,0,0,0,.05,1.05A2.556,2.556,0,0,0,16.2-2.8a1.538,1.538,0,0,0,1.7.3,2.694,2.694,0,0,0,.65-.35A3.72,3.72,0,0,0,19.6-4.4c.1-.5.15-1.05.25-1.55l.3-2.2a.8.8,0,0,1,.25-.5,3.235,3.235,0,0,1,.4-.45.38.38,0,0,1,.45-.15c.5,0,1,0,1.5.05.55.05,1.15.1,1.75.1a.812.812,0,0,1,.45.25A1.686,1.686,0,0,1,25.2-8c.05,1.4-.05,2.8.1,4.2a2.7,2.7,0,0,0,1.05,2.1A1.652,1.652,0,0,0,28.05-1.35ZM24-13.75a1.664,1.664,0,0,1-.7-.05,2.241,2.241,0,0,0-.6-.05.989.989,0,0,1-.55-.1.588.588,0,0,1-.45-.6,2.54,2.54,0,0,1,.15-.85c.25-.9.6-1.8.9-2.75.3-.7.55-1.45.85-2.2,0-.05.05-.1.1-.2a.378.378,0,0,1,.4-.15c.15,0,.2.15.2.25a5.231,5.231,0,0,1,.2.85c.1.6.15,1.2.3,1.8v.05c-.05.55.1,1.05.1,1.6a6.126,6.126,0,0,1,.1.95,2.641,2.641,0,0,1-.05.65A1.017,1.017,0,0,1,24-13.75ZM49.3-2.2a6.775,6.775,0,0,0,1.75-.05,5.844,5.844,0,0,0,1-.3,6.619,6.619,0,0,0,1.6-1,8.943,8.943,0,0,0,1.4-1.35,9.7,9.7,0,0,0,.75-1.2,15,15,0,0,0,1.55-3.55A28.075,28.075,0,0,0,58-12.6c.05-.45.2-.9.25-1.4.1-1.15.3-2.35.4-3.5,0-.75.1-1.45.15-2.2a4.276,4.276,0,0,1,0-.8,4.152,4.152,0,0,0,.05-1.1c0-.4.05-.8.05-1.2,0-.35-.05-.65-.05-.95a8.565,8.565,0,0,0,.05-1.6,2.165,2.165,0,0,1-.05-.25,2.85,2.85,0,0,0-.25-1.7,2.518,2.518,0,0,0-3.2-1.35,2.151,2.151,0,0,0-1.05.95,3.8,3.8,0,0,0-.5,2.35v1.3c-.05.75,0,1.5-.05,2.25a6.667,6.667,0,0,0,0,1,8.339,8.339,0,0,0-.1,1.6c0,.85-.15,1.65-.2,2.5-.1,1.1-.3,2.2-.5,3.25a22.965,22.965,0,0,1-1.2,4.5,4.81,4.81,0,0,1-1,1.6.931.931,0,0,1-1.15.25,4.071,4.071,0,0,1-1.4-1.2,6.46,6.46,0,0,1-1.35-3.3c-.15-1.45-.4-2.85-.45-4.35a11.59,11.59,0,0,0-.05-1.85v-.15a5.227,5.227,0,0,0,0-1.25c.05-.4,0-.85.05-1.25v-2.1c.05-.6.05-1.25.05-1.85a4.042,4.042,0,0,1,.05-.8,2.119,2.119,0,0,0-.35-1.55,2.469,2.469,0,0,0-1.75-1.2,2.5,2.5,0,0,0-1.6.3,2.662,2.662,0,0,0-1.1,1.35,6.929,6.929,0,0,0-.35,2.45v1.2a5.409,5.409,0,0,1,0,.9,5.77,5.77,0,0,0-.05,1.3,11.276,11.276,0,0,1,0,1.3c-.05.75.05,1.5,0,2.3a5.34,5.34,0,0,0,.05,1.25c0,.75.15,1.55.15,2.3a3.751,3.751,0,0,0,.1,1c-.05.7.3,1.5.35,2.35a.155.155,0,0,0,.05.1c.2.6.35,1.3.6,1.9A10.113,10.113,0,0,0,44.3-5.1a6.9,6.9,0,0,0,2,1.8A7.533,7.533,0,0,0,49.3-2.2ZM63.5-.6a2.315,2.315,0,0,0,1.2-.85,4.011,4.011,0,0,0,.55-1.7A8.474,8.474,0,0,1,65.3-4.3a14.052,14.052,0,0,1,.05-1.45c0-.55-.05-1.1-.05-1.65v-4.05c0-.6.05-1.15.05-1.7a2.434,2.434,0,0,1,.05-.6.333.333,0,0,1,.25-.35c.1-.05.2.1.3.2a.69.69,0,0,1,.15.2c.15.55.45,1.05.65,1.6.45.95.85,1.9,1.3,2.85.4.75.75,1.55,1.15,2.25a17.672,17.672,0,0,0,1.65,2.85,7.632,7.632,0,0,1,.8,1.1,9.13,9.13,0,0,0,.65.8,1.93,1.93,0,0,0,1.95.65A2.116,2.116,0,0,0,75.8-2.95a8.044,8.044,0,0,0,.35-1.85c.2-1.2.25-2.45.35-3.65.05-.95.05-1.85.1-2.8l.15-2.8c.05-1.05.1-2.15.05-3.2V-18c.05-.75.05-1.5.05-2.2v-3.45l.05-.65a4.826,4.826,0,0,1,0-.85,9.144,9.144,0,0,0-.1-1.65,4.643,4.643,0,0,1-.2-.65,2.961,2.961,0,0,0-1-1.75,1.746,1.746,0,0,0-1.2-.5,2.162,2.162,0,0,0-1.75,1.15,5.268,5.268,0,0,0-.6,1.9,6.839,6.839,0,0,0-.1,1.45c-.05.55-.05,1.65-.05,2.15v2.5c-.05.3,0,.6-.05.9a6.093,6.093,0,0,0,0,1.35c.05.55,0,1.05,0,1.6v2.6c-.05.1-.05.25-.25.3-.15,0-.2-.1-.3-.2,0-.05-.05-.1-.05-.15-.35-.65-.6-1.35-.9-2-.4-1.05-.8-2.1-1.25-3.15-.35-.85-.7-1.65-1-2.5a13.46,13.46,0,0,1-.65-1.6l-.75-1.75a4.157,4.157,0,0,0-1.65-2.05,2.408,2.408,0,0,0-1.65-.4,2.524,2.524,0,0,0-2.05,1.85,15.068,15.068,0,0,0-.5,3.3l-.15,2.6c-.05.9-.15,1.8-.15,2.7-.05.6,0,1.2-.05,1.8a9.3,9.3,0,0,0-.05,2.05v1.7c0,.75-.05,1.45,0,2.2,0,.55-.05,1.15,0,1.75,0,.3.05.65.05.95a11.276,11.276,0,0,0,0,1.3,7.042,7.042,0,0,1,.05,1,13.088,13.088,0,0,0,.1,1.9,2,2,0,0,0,.55,1.15A2.145,2.145,0,0,0,63.5-.6Zm27.85-.75a2.185,2.185,0,0,0,1.5-1.45,5.079,5.079,0,0,0,.3-1.7c.05-.6,0-1.25,0-1.85V-7.9a15.141,15.141,0,0,0-.1-1.55c0-1.15.05-2.3-.05-3.45-.1-.9-.05-1.85-.1-2.75a9.765,9.765,0,0,1-.15-1.7c0-.05.05-.1,0-.1a.643.643,0,0,1-.05-.6c0-.25-.15-.4-.15-.65a9.326,9.326,0,0,0-.2-1.6c-.05-.5-.25-1.05-.35-1.6a15.8,15.8,0,0,0-.85-2.6,12.913,12.913,0,0,0-1.1-2.2,6.438,6.438,0,0,0-1.1-1.5,2.426,2.426,0,0,0-2.2-.75,1.709,1.709,0,0,0-1.3.7,10.035,10.035,0,0,0-1.4,2.6l-1.3,3.25c-.35,1-.8,2.05-1.15,3.1-.6,1.65-1.15,3.35-1.6,5.1-.2.85-.45,1.7-.6,2.55L78.95-9.3c-.15.8-.25,1.55-.35,2.35a6.84,6.84,0,0,0-.1,1.45v.1a1.522,1.522,0,0,0,.05,1.05A2.556,2.556,0,0,0,79.5-2.8a1.538,1.538,0,0,0,1.7.3,2.694,2.694,0,0,0,.65-.35A3.72,3.72,0,0,0,82.9-4.4c.1-.5.15-1.05.25-1.55l.3-2.2a.8.8,0,0,1,.25-.5,3.235,3.235,0,0,1,.4-.45.38.38,0,0,1,.45-.15c.5,0,1,0,1.5.05.55.05,1.15.1,1.75.1a.812.812,0,0,1,.45.25A1.686,1.686,0,0,1,88.5-8c.05,1.4-.05,2.8.1,4.2a2.7,2.7,0,0,0,1.05,2.1A1.652,1.652,0,0,0,91.35-1.35ZM87.3-13.75a1.664,1.664,0,0,1-.7-.05,2.241,2.241,0,0,0-.6-.05.989.989,0,0,1-.55-.1.588.588,0,0,1-.45-.6,2.54,2.54,0,0,1,.15-.85c.25-.9.6-1.8.9-2.75.3-.7.55-1.45.85-2.2,0-.05.05-.1.1-.2a.378.378,0,0,1,.4-.15c.15,0,.2.15.2.25a5.231,5.231,0,0,1,.2.85c.1.6.15,1.2.3,1.8v.05c-.05.55.1,1.05.1,1.6a6.126,6.126,0,0,1,.1.95,2.641,2.641,0,0,1-.05.65A1.017,1.017,0,0,1,87.3-13.75Zm-200.675,47.7a5.142,5.142,0,0,0,1.75,0,17.26,17.26,0,0,0,3.2-1.1c.6-.3,1.15-.6,1.7-.9a18.721,18.721,0,0,0,2.75-2.05c.75-.7,1.4-1.55,2.1-2.3l1-1.3c.3-.4.55-.8.8-1.2.35-.55.65-1.1.95-1.65.2-.45.35-.9.55-1.35a12.329,12.329,0,0,0,.85-3.85c0-.3-.1-.6-.1-.9a5.329,5.329,0,0,0-.3-1.55,11.026,11.026,0,0,0-1.05-2.5,18.111,18.111,0,0,0-1.35-2.05,13.668,13.668,0,0,0-1.65-1.75c-.4-.35-.85-.7-1.3-1.05A21.059,21.059,0,0,0-106.025,7a17.7,17.7,0,0,0-1.7-.8,10.2,10.2,0,0,0-3-.5c-.25.05-.5-.05-.7.05a6.793,6.793,0,0,0-1.4.55,2.5,2.5,0,0,0-1.3,1.85,11.628,11.628,0,0,0-.25,1.4c-.05.5-.15,1-.2,1.5,0,.1.05.15,0,.2a.748.748,0,0,0-.05.65c0,.25-.15.5-.1.75,0,.55-.15,1.1-.1,1.65l-.05.05c-.15.5-.05,1.1-.15,1.65-.1.5-.05,1.05-.1,1.55-.1.85.05,1.7-.1,2.55-.05,2.4.05,4.8-.1,7.15a8.066,8.066,0,0,0,0,1.1,22.858,22.858,0,0,0,.15,3.2,3.671,3.671,0,0,0,.75,1.75A1.9,1.9,0,0,0-113.375,33.95Zm3.4-5.05a.519.519,0,0,1-.65-.4V24.8c-.05-2,.15-4.15.1-6.3a10.87,10.87,0,0,0,.1-1.8,9.709,9.709,0,0,1,.1-1.2c.15-.5,0-1.05.2-1.55v-.1c-.05-.55.1-1.05.1-1.6,0-.3.1-.55.1-.85a.184.184,0,0,1,.05-.15.844.844,0,0,1,.85-.4,5.882,5.882,0,0,1,1,.35,14.418,14.418,0,0,1,1.9,1.1,10.234,10.234,0,0,1,1.85,1.75,14.423,14.423,0,0,1,1.15,1.7,5.837,5.837,0,0,1,.55,1.4,4.387,4.387,0,0,1,.1,1.8,5.714,5.714,0,0,1-.45,1.5,19.259,19.259,0,0,1-2.2,3.8,28.186,28.186,0,0,1-3.3,3.6,5.327,5.327,0,0,1-1.4.95Zm15.15,2.5a2.05,2.05,0,0,0,2.85-.3,4.365,4.365,0,0,0,1-3,8.339,8.339,0,0,0-.1-1.6v-.15a.975.975,0,0,0,0-.75,3.784,3.784,0,0,0,.05-.75,5.037,5.037,0,0,1-.05-1.5,8.027,8.027,0,0,1,0-1.55c.05-.35-.05-.7,0-1.05.05-.55.05-1.1.05-1.65,0-.6.05-1.15.05-1.75,0-.65.05-1.25.1-1.9V14.5c.05-.65.05-1.3.1-1.95V11.7c0-.45.05-.85.05-1.3-.05-.25-.15-.5-.2-.75a2.179,2.179,0,0,0-.95-1.25,2.016,2.016,0,0,0-1.75-.45,2.637,2.637,0,0,0-.6.15,2.547,2.547,0,0,0-1.35,1.35,1.5,1.5,0,0,0-.2.5,6.839,6.839,0,0,0-.1,1.45c-.05.65-.05,1.3-.1,1.95v.9c-.05.65-.05,1.3-.1,1.9-.05.35,0,.7-.05,1.1a2.714,2.714,0,0,0,0,.9,3.444,3.444,0,0,1-.05,1c-.05.55-.05,1.15-.05,1.75v1.15c-.05.75,0,1.5,0,2.25,0,.7,0,1.45.05,2.15a10.24,10.24,0,0,0,.05,1.75v.2a.967.967,0,0,0,0,.65,8.617,8.617,0,0,0,.35,1.05A4.161,4.161,0,0,0-94.825,31.4Zm11.1,1.7c.55.1,1.1-.1,1.65-.05a13.176,13.176,0,0,0,1.4-.1,2.777,2.777,0,0,0,1.75-.85,1.612,1.612,0,0,0,.45-1.3,1.956,1.956,0,0,0-.95-1.4,4.283,4.283,0,0,0-2.05-.5c-.55-.05-1.1,0-1.65,0a.99.99,0,0,1-1.1-.95,7.3,7.3,0,0,1-.15-1.1v-2.6c.05-.7.2-.9.9-1.1h.35a10.426,10.426,0,0,1,1.25,0,5.78,5.78,0,0,0,1.85-.35,2.221,2.221,0,0,0,1.65-2.2,2.075,2.075,0,0,0-1.3-1.9,5.35,5.35,0,0,0-2.15-.45c-.5.05-1,0-1.55.05a.534.534,0,0,1-.45-.35,1.408,1.408,0,0,1-.2-1,2.439,2.439,0,0,0,.05-.85c.05-1.2.05-2.35.05-3.5,0-.6.35-1.05.95-1,.95,0,1.85-.15,2.75-.15a2.922,2.922,0,0,0,.95-.1,2.959,2.959,0,0,0,1.85-1.2,1.957,1.957,0,0,0,.05-2.25,3.321,3.321,0,0,0-2.4-1.3c-1.35-.05-2.7.1-4.05.15-.05,0-.05-.05-.1,0-.5.15-1.05.05-1.55.15a8.27,8.27,0,0,0-1.6.35,2.6,2.6,0,0,0-1.7,1.35,1.936,1.936,0,0,0-.15,1.4.552.552,0,0,1,0,.4.74.74,0,0,0,0,.65v.25c.05.7.1,1.35.1,2a21.048,21.048,0,0,1-.05,3.55c-.1.6-.05,1.25-.1,1.85-.1.6-.05,1.15-.1,1.75-.1.85-.05,1.65-.1,2.5a22.894,22.894,0,0,0-.05,2.7c.1.7-.05,1.7.1,2.75a9.16,9.16,0,0,0,.45,1.95,3.751,3.751,0,0,0,2.5,2.4A10.348,10.348,0,0,0-83.725,33.1Zm16.65.65a2.335,2.335,0,0,0,1.2-1.3,5.25,5.25,0,0,0,.4-1.75c.05-.55,0-1.15.1-1.75.1-.9,0-1.8.05-2.7.15-1.05,0-2.15.15-3.2.05-.75-.05-1.45.05-2.2.1-.55.05-1.15.1-1.75.1-.55-.05-1.15.1-1.7-.05-.9.15-1.8.15-2.7-.05-.8,0-1.6,0-2.4a6.7,6.7,0,0,1,.05-1,2.127,2.127,0,0,1,.7-1.15c.05-.05.1-.15.2-.15a5.51,5.51,0,0,0,.9-.1,18.633,18.633,0,0,0,2.35-.05,3.342,3.342,0,0,0,1.25-.4.26.26,0,0,0,.2-.1,2.614,2.614,0,0,0,.85-.6,1.682,1.682,0,0,0,.2-1.1,1.852,1.852,0,0,0-1.05-1.3,3.264,3.264,0,0,0-1.8-.5c-1.4,0-2.85,0-4.3.05-1.25.1-2.55.05-3.8.05h-3.65c-.3,0-.6.05-.9.05a2.229,2.229,0,0,0-1.9,1.5,1.664,1.664,0,0,0-.05.7,1.073,1.073,0,0,0,.2.75,2.375,2.375,0,0,0,2.1,1.05h2.8a.775.775,0,0,1,.75.45,3.636,3.636,0,0,1,.35,1.45,23.508,23.508,0,0,1-.05,3.25c-.1.65,0,1.35-.1,2.05-.1.55,0,1.05-.1,1.6s0,1.1-.1,1.7c-.1.7,0,1.45-.1,2.15-.1.95,0,1.95-.1,2.9-.1,1,0,2-.1,3-.05.8,0,1.6,0,2.35a2.923,2.923,0,0,0,.1.95,2.37,2.37,0,0,0,.6,1.35A1.89,1.89,0,0,0-67.075,33.75Zm19.45-.1a2.185,2.185,0,0,0,1.5-1.45,5.079,5.079,0,0,0,.3-1.7c.05-.6,0-1.25,0-1.85V27.1a15.141,15.141,0,0,0-.1-1.55c0-1.15.05-2.3-.05-3.45-.1-.9-.05-1.85-.1-2.75a9.765,9.765,0,0,1-.15-1.7c0-.05.05-.1,0-.1a.643.643,0,0,1-.05-.6c0-.25-.15-.4-.15-.65a9.326,9.326,0,0,0-.2-1.6c-.05-.5-.25-1.05-.35-1.6a15.8,15.8,0,0,0-.85-2.6,12.913,12.913,0,0,0-1.1-2.2,6.438,6.438,0,0,0-1.1-1.5,2.426,2.426,0,0,0-2.2-.75,1.709,1.709,0,0,0-1.3.7,10.035,10.035,0,0,0-1.4,2.6l-1.3,3.25c-.35,1-.8,2.05-1.15,3.1-.6,1.65-1.15,3.35-1.6,5.1-.2.85-.45,1.7-.6,2.55l-.45,2.35c-.15.8-.25,1.55-.35,2.35a6.839,6.839,0,0,0-.1,1.45v.1a1.522,1.522,0,0,0,.05,1.05,2.556,2.556,0,0,0,.95,1.55,1.538,1.538,0,0,0,1.7.3,2.694,2.694,0,0,0,.65-.35,3.72,3.72,0,0,0,1.05-1.55c.1-.5.15-1.05.25-1.55l.3-2.2a.8.8,0,0,1,.25-.5,3.235,3.235,0,0,1,.4-.45.38.38,0,0,1,.45-.15c.5,0,1,0,1.5.05.55.05,1.15.1,1.75.1a.812.812,0,0,1,.45.25,1.686,1.686,0,0,1,.25.85c.05,1.4-.05,2.8.1,4.2a2.7,2.7,0,0,0,1.05,2.1A1.652,1.652,0,0,0-47.625,33.65Zm-4.05-12.4a1.664,1.664,0,0,1-.7-.05,2.241,2.241,0,0,0-.6-.05.989.989,0,0,1-.55-.1.588.588,0,0,1-.45-.6,2.54,2.54,0,0,1,.15-.85c.25-.9.6-1.8.9-2.75.3-.7.55-1.45.85-2.2,0-.05.05-.1.1-.2a.378.378,0,0,1,.4-.15c.15,0,.2.15.2.25a5.231,5.231,0,0,1,.2.85c.1.6.15,1.2.3,1.8v.05c-.05.55.1,1.05.1,1.6a6.126,6.126,0,0,1,.1.95,2.641,2.641,0,0,1-.05.65A1.017,1.017,0,0,1-51.675,21.25Zm19.7,13.25a2.69,2.69,0,0,0,1.65-.15,4.255,4.255,0,0,1,.85-.3,21.826,21.826,0,0,0,2.85-1.45,7.042,7.042,0,0,0,2.35-2.15,8.971,8.971,0,0,0,1-1.95,7.946,7.946,0,0,0,.5-2.95,10.753,10.753,0,0,0-.1-1.15,10.037,10.037,0,0,0-.65-2.4,13.679,13.679,0,0,0-2.5-3.6c-1-1.1-2.15-2.05-3.1-3.2a2.246,2.246,0,0,1-.5-2.4,4.3,4.3,0,0,1,1.7-2.4,5.76,5.76,0,0,1,1.6-.7,3.034,3.034,0,0,0,1.3-.4,2.126,2.126,0,0,0,1.1-1.8,2.05,2.05,0,0,0-.3-1.2,2.133,2.133,0,0,0-1.65-1.1,4.128,4.128,0,0,0-1.55.1,9.306,9.306,0,0,0-1.55.5,9.381,9.381,0,0,0-1.8,1.05,8.452,8.452,0,0,0-2.45,2.85,9.617,9.617,0,0,0-.7,1.65,6.715,6.715,0,0,0-.35,1.35,6.576,6.576,0,0,0,.1,2.2,8.551,8.551,0,0,0,.45,1.5,9.953,9.953,0,0,0,1.8,2.5c.75.85,1.6,1.6,2.4,2.4a10.792,10.792,0,0,1,1.35,1.65,5.615,5.615,0,0,1,.9,2.45,5.51,5.51,0,0,1-.1.9,3.207,3.207,0,0,1-1.1,2.05,9.16,9.16,0,0,1-2.45,1.4l-1.45.6a2.768,2.768,0,0,0-1.05.95,2.259,2.259,0,0,0,0,2.25A1.828,1.828,0,0,0-31.975,34.5Zm23.65-.85a2.185,2.185,0,0,0,1.5-1.45,5.079,5.079,0,0,0,.3-1.7c.05-.6,0-1.25,0-1.85V27.1a15.142,15.142,0,0,0-.1-1.55c0-1.15.05-2.3-.05-3.45-.1-.9-.05-1.85-.1-2.75a9.765,9.765,0,0,1-.15-1.7c0-.05.05-.1,0-.1a.643.643,0,0,1-.05-.6c0-.25-.15-.4-.15-.65a9.326,9.326,0,0,0-.2-1.6c-.05-.5-.25-1.05-.35-1.6a15.8,15.8,0,0,0-.85-2.6,12.913,12.913,0,0,0-1.1-2.2,6.438,6.438,0,0,0-1.1-1.5,2.426,2.426,0,0,0-2.2-.75,1.709,1.709,0,0,0-1.3.7,10.035,10.035,0,0,0-1.4,2.6l-1.3,3.25c-.35,1-.8,2.05-1.15,3.1-.6,1.65-1.15,3.35-1.6,5.1-.2.85-.45,1.7-.6,2.55l-.45,2.35c-.15.8-.25,1.55-.35,2.35a6.839,6.839,0,0,0-.1,1.45v.1a1.522,1.522,0,0,0,.05,1.05,2.556,2.556,0,0,0,.95,1.55,1.538,1.538,0,0,0,1.7.3,2.694,2.694,0,0,0,.65-.35,3.72,3.72,0,0,0,1.05-1.55c.1-.5.15-1.05.25-1.55l.3-2.2a.8.8,0,0,1,.25-.5,3.235,3.235,0,0,1,.4-.45.38.38,0,0,1,.45-.15c.5,0,1,0,1.5.05.55.05,1.15.1,1.75.1a.812.812,0,0,1,.45.25,1.686,1.686,0,0,1,.25.85c.05,1.4-.05,2.8.1,4.2a2.7,2.7,0,0,0,1.05,2.1A1.652,1.652,0,0,0-8.325,33.65Zm-4.05-12.4a1.664,1.664,0,0,1-.7-.05,2.241,2.241,0,0,0-.6-.05.989.989,0,0,1-.55-.1.588.588,0,0,1-.45-.6,2.54,2.54,0,0,1,.15-.85c.25-.9.6-1.8.9-2.75.3-.7.55-1.45.85-2.2,0-.05.05-.1.1-.2a.378.378,0,0,1,.4-.15c.15,0,.2.15.2.25a5.231,5.231,0,0,1,.2.85c.1.6.15,1.2.3,1.8v.05c-.05.55.1,1.05.1,1.6a6.126,6.126,0,0,1,.1.95,2.641,2.641,0,0,1-.05.65A1.017,1.017,0,0,1-12.375,21.25ZM7.825,34.3a2.545,2.545,0,0,0,1.45-.75,2.239,2.239,0,0,0-.25-3.3,4.315,4.315,0,0,0-2.9-.75c-.15,0-.25.05-.35,0a24.519,24.519,0,0,0-2.7-.2h-.95a1.972,1.972,0,0,1-1-.25.939.939,0,0,1-.6-.85,6.106,6.106,0,0,1,.05-1.35,3.759,3.759,0,0,1,0-.75,12.259,12.259,0,0,0,.1-1.35v-1.3c0-.55.1-1.1.05-1.65v-.2c.15-.25.05-.5.05-.7-.05-.25.1-.45.05-.65-.1-.55.05-1.1-.05-1.65v-.1a6.394,6.394,0,0,0,.05-1.7c0-.4.05-.8.05-1.2v-.9a9.762,9.762,0,0,0,.1-1.15,8.475,8.475,0,0,1,.05-1.15c.05-.65.05-1.3.1-1.95a10.208,10.208,0,0,0,0-1.75,10.384,10.384,0,0,0-.25-1.5,3.481,3.481,0,0,0-.55-1.15,2,2,0,0,0-2.05-.6,2.208,2.208,0,0,0-1.4,1.35,7.042,7.042,0,0,0-.35,2.25v1.3c-.05.35,0,.65-.05.95a4.065,4.065,0,0,0-.05,1.1c0,.5-.05,1-.05,1.5a8.067,8.067,0,0,1,0,1.1,9.106,9.106,0,0,0-.05,1.65v.25a7.531,7.531,0,0,0-.05,1.5,14.051,14.051,0,0,1-.05,1.45V21.2a6.917,6.917,0,0,0-.05,1.45.094.094,0,0,1,0,.15,12.184,12.184,0,0,0-.05,1.35,7.741,7.741,0,0,1-.05,1.1c-.05.55-.05,1.05-.05,1.55,0,.4-.05.85-.05,1.25a3.759,3.759,0,0,1,0,.75,6.938,6.938,0,0,0,.2,2.3,3.1,3.1,0,0,0,1.2,1.45,2.718,2.718,0,0,0,1.15.55,8.1,8.1,0,0,0,1.9.45c.45.05.95.05,1.45.1a13.665,13.665,0,0,1,2,.25,10.238,10.238,0,0,1,2.1.35A4.615,4.615,0,0,0,7.825,34.3Zm11.5-1.5a6.775,6.775,0,0,0,1.75-.05,5.844,5.844,0,0,0,1-.3,6.619,6.619,0,0,0,1.6-1,8.943,8.943,0,0,0,1.4-1.35,9.7,9.7,0,0,0,.75-1.2,15,15,0,0,0,1.55-3.55,28.074,28.074,0,0,0,.65-2.95c.05-.45.2-.9.25-1.4.1-1.15.3-2.35.4-3.5,0-.75.1-1.45.15-2.2a4.276,4.276,0,0,1,0-.8,4.153,4.153,0,0,0,.05-1.1c0-.4.05-.8.05-1.2,0-.35-.05-.65-.05-.95a8.565,8.565,0,0,0,.05-1.6,2.165,2.165,0,0,1-.05-.25,2.85,2.85,0,0,0-.25-1.7,2.518,2.518,0,0,0-3.2-1.35,2.151,2.151,0,0,0-1.05.95,3.8,3.8,0,0,0-.5,2.35v1.3c-.05.75,0,1.5-.05,2.25a6.667,6.667,0,0,0,0,1,8.339,8.339,0,0,0-.1,1.6c0,.85-.15,1.65-.2,2.5-.1,1.1-.3,2.2-.5,3.25a22.965,22.965,0,0,1-1.2,4.5,4.81,4.81,0,0,1-1,1.6.931.931,0,0,1-1.15.25,4.071,4.071,0,0,1-1.4-1.2,6.46,6.46,0,0,1-1.35-3.3c-.15-1.45-.4-2.85-.45-4.35a11.59,11.59,0,0,0-.05-1.85v-.15a5.227,5.227,0,0,0,0-1.25c.05-.4,0-.85.05-1.25v-2.1c.05-.6.05-1.25.05-1.85a4.042,4.042,0,0,1,.05-.8,2.119,2.119,0,0,0-.35-1.55,2.469,2.469,0,0,0-1.75-1.2,2.5,2.5,0,0,0-1.6.3,2.662,2.662,0,0,0-1.1,1.35,6.929,6.929,0,0,0-.35,2.45v1.2a5.409,5.409,0,0,1,0,.9,5.769,5.769,0,0,0-.05,1.3,11.276,11.276,0,0,1,0,1.3c-.05.75.05,1.5,0,2.3a5.34,5.34,0,0,0,.05,1.25c0,.75.15,1.55.15,2.3a3.751,3.751,0,0,0,.1,1c-.05.7.3,1.5.35,2.35a.155.155,0,0,0,.05.1c.2.6.35,1.3.6,1.9a10.113,10.113,0,0,0,1.65,2.85,6.9,6.9,0,0,0,2,1.8A7.533,7.533,0,0,0,19.325,32.8Zm13.05,1.15a5.142,5.142,0,0,0,1.75,0,17.261,17.261,0,0,0,3.2-1.1c.6-.3,1.15-.6,1.7-.9a18.721,18.721,0,0,0,2.75-2.05c.75-.7,1.4-1.55,2.1-2.3l1-1.3c.3-.4.55-.8.8-1.2.35-.55.65-1.1.95-1.65.2-.45.35-.9.55-1.35a12.329,12.329,0,0,0,.85-3.85c0-.3-.1-.6-.1-.9a5.329,5.329,0,0,0-.3-1.55,11.026,11.026,0,0,0-1.05-2.5,18.111,18.111,0,0,0-1.35-2.05,13.668,13.668,0,0,0-1.65-1.75c-.4-.35-.85-.7-1.3-1.05A21.058,21.058,0,0,0,39.725,7a17.7,17.7,0,0,0-1.7-.8,10.2,10.2,0,0,0-3-.5c-.25.05-.5-.05-.7.05a6.793,6.793,0,0,0-1.4.55,2.5,2.5,0,0,0-1.3,1.85,11.627,11.627,0,0,0-.25,1.4c-.05.5-.15,1-.2,1.5,0,.1.05.15,0,.2a.748.748,0,0,0-.05.65c0,.25-.15.5-.1.75,0,.55-.15,1.1-.1,1.65l-.05.05c-.15.5-.05,1.1-.15,1.65-.1.5-.05,1.05-.1,1.55-.1.85.05,1.7-.1,2.55-.05,2.4.05,4.8-.1,7.15a8.067,8.067,0,0,0,0,1.1,22.859,22.859,0,0,0,.15,3.2,3.671,3.671,0,0,0,.75,1.75A1.9,1.9,0,0,0,32.375,33.95Zm3.4-5.05a.519.519,0,0,1-.65-.4V24.8c-.05-2,.15-4.15.1-6.3a10.869,10.869,0,0,0,.1-1.8,9.71,9.71,0,0,1,.1-1.2c.15-.5,0-1.05.2-1.55v-.1c-.05-.55.1-1.05.1-1.6,0-.3.1-.55.1-.85a.184.184,0,0,1,.05-.15.844.844,0,0,1,.85-.4,5.882,5.882,0,0,1,1,.35,14.418,14.418,0,0,1,1.9,1.1,10.234,10.234,0,0,1,1.85,1.75,14.423,14.423,0,0,1,1.15,1.7,5.837,5.837,0,0,1,.55,1.4,4.387,4.387,0,0,1,.1,1.8,5.714,5.714,0,0,1-.45,1.5,19.259,19.259,0,0,1-2.2,3.8,28.187,28.187,0,0,1-3.3,3.6,5.327,5.327,0,0,1-1.4.95Zm25.2,4.75a2.185,2.185,0,0,0,1.5-1.45,5.079,5.079,0,0,0,.3-1.7c.05-.6,0-1.25,0-1.85V27.1a15.141,15.141,0,0,0-.1-1.55c0-1.15.05-2.3-.05-3.45-.1-.9-.05-1.85-.1-2.75a9.765,9.765,0,0,1-.15-1.7c0-.05.05-.1,0-.1a.643.643,0,0,1-.05-.6c0-.25-.15-.4-.15-.65a9.326,9.326,0,0,0-.2-1.6c-.05-.5-.25-1.05-.35-1.6a15.8,15.8,0,0,0-.85-2.6,12.913,12.913,0,0,0-1.1-2.2,6.438,6.438,0,0,0-1.1-1.5,2.426,2.426,0,0,0-2.2-.75,1.709,1.709,0,0,0-1.3.7,10.035,10.035,0,0,0-1.4,2.6l-1.3,3.25c-.35,1-.8,2.05-1.15,3.1-.6,1.65-1.15,3.35-1.6,5.1-.2.85-.45,1.7-.6,2.55l-.45,2.35c-.15.8-.25,1.55-.35,2.35a6.839,6.839,0,0,0-.1,1.45v.1a1.522,1.522,0,0,0,.05,1.05,2.556,2.556,0,0,0,.95,1.55,1.538,1.538,0,0,0,1.7.3,2.694,2.694,0,0,0,.65-.35,3.72,3.72,0,0,0,1.05-1.55c.1-.5.15-1.05.25-1.55l.3-2.2a.8.8,0,0,1,.25-.5,3.235,3.235,0,0,1,.4-.45.38.38,0,0,1,.45-.15c.5,0,1,0,1.5.05.55.05,1.15.1,1.75.1a.812.812,0,0,1,.45.25,1.686,1.686,0,0,1,.25.85c.05,1.4-.05,2.8.1,4.2a2.7,2.7,0,0,0,1.05,2.1A1.652,1.652,0,0,0,60.975,33.65Zm-4.05-12.4a1.664,1.664,0,0,1-.7-.05,2.241,2.241,0,0,0-.6-.05.989.989,0,0,1-.55-.1.588.588,0,0,1-.45-.6,2.54,2.54,0,0,1,.15-.85c.25-.9.6-1.8.9-2.75.3-.7.55-1.45.85-2.2,0-.05.05-.1.1-.2a.378.378,0,0,1,.4-.15c.15,0,.2.15.2.25a5.231,5.231,0,0,1,.2.85c.1.6.15,1.2.3,1.8v.05c-.05.55.1,1.05.1,1.6a6.126,6.126,0,0,1,.1.95,2.641,2.641,0,0,1-.05.65A1.017,1.017,0,0,1,56.925,21.25Zm11.55,13a6.8,6.8,0,0,0,2-.2,4.658,4.658,0,0,0,1.55-.65,6.661,6.661,0,0,0,1.45-1.25,9.052,9.052,0,0,0,.9-1.35,8,8,0,0,0,.7-3.05,14.341,14.341,0,0,0-.25-2.05,7.653,7.653,0,0,0-.7-2.05A11.6,11.6,0,0,0,72.375,21a.761.761,0,0,1,0-1.15c0-.05.05-.1.1-.15a17.337,17.337,0,0,0,1.25-1.45,11.8,11.8,0,0,0,1.9-3.25,8.625,8.625,0,0,0,.6-2.95c.05-.2-.1-.4-.1-.65a2.768,2.768,0,0,0-.1-.9,7.768,7.768,0,0,0-.85-2,6.582,6.582,0,0,0-1.9-2,6.5,6.5,0,0,0-2.85-1,7.5,7.5,0,0,0-3.45.45,2.836,2.836,0,0,0-1.55,1.4,4.627,4.627,0,0,0-.5,1.85,6,6,0,0,0-.15,1,7.384,7.384,0,0,1-.05,1.05,12.261,12.261,0,0,0-.1,1.35c-.1.65-.05,1.3-.1,1.95-.1.8-.05,1.6-.1,2.35-.1,1.4,0,2.8-.1,4.2-.1,1.25,0,2.45,0,4.05a39.37,39.37,0,0,0,.05,4.15c.05.3.05.6.1.9a2.762,2.762,0,0,0,.9,1.45,2.254,2.254,0,0,1,.5.7,3.269,3.269,0,0,0,.65,1.15A3.05,3.05,0,0,0,68.475,34.25Zm1.05-18.45c-.25,0-.35-.05-.35-.35a7.359,7.359,0,0,1,0-1.05,5.409,5.409,0,0,1,0-.9c.1-.5,0-1.1.1-1.6a4.165,4.165,0,0,1,.15-1.1.993.993,0,0,1,.8-.6.728.728,0,0,1,.6.25,2.019,2.019,0,0,1,.75,1.55,2.71,2.71,0,0,1-.4,1.65,7.65,7.65,0,0,1-1.3,2A.747.747,0,0,1,69.525,15.8Zm-.35,13.6c-.1-.05-.2-.1-.2-.25v-.1c.05-.9-.2-1.75-.1-2.5v-1.3a1.243,1.243,0,0,1,.05-.4c.05-.05,0-.2.15-.2a.236.236,0,0,1,.3.05,2.855,2.855,0,0,1,.65,1.05,4.39,4.39,0,0,1,.35,1.15,2.659,2.659,0,0,1-.25,1.95l-.15.3C69.775,29.45,69.475,29.4,69.175,29.4Zm20.4,4.9a2.545,2.545,0,0,0,1.45-.75,2.239,2.239,0,0,0-.25-3.3,4.315,4.315,0,0,0-2.9-.75c-.15,0-.25.05-.35,0a24.519,24.519,0,0,0-2.7-.2h-.95a1.972,1.972,0,0,1-1-.25.939.939,0,0,1-.6-.85,6.106,6.106,0,0,1,.05-1.35,3.76,3.76,0,0,1,0-.75,12.259,12.259,0,0,0,.1-1.35v-1.3c0-.55.1-1.1.05-1.65v-.2c.15-.25.05-.5.05-.7-.05-.25.1-.45.05-.65-.1-.55.05-1.1-.05-1.65v-.1a6.394,6.394,0,0,0,.05-1.7c0-.4.05-.8.05-1.2v-.9a9.763,9.763,0,0,0,.1-1.15,8.474,8.474,0,0,1,.05-1.15c.05-.65.05-1.3.1-1.95a10.209,10.209,0,0,0,0-1.75,10.384,10.384,0,0,0-.25-1.5,3.481,3.481,0,0,0-.55-1.15,2,2,0,0,0-2.05-.6,2.208,2.208,0,0,0-1.4,1.35,7.042,7.042,0,0,0-.35,2.25v1.3c-.05.35,0,.65-.05.95a4.065,4.065,0,0,0-.05,1.1c0,.5-.05,1-.05,1.5a8.067,8.067,0,0,1,0,1.1,9.106,9.106,0,0,0-.05,1.65v.25a7.531,7.531,0,0,0-.05,1.5,14.05,14.05,0,0,1-.05,1.45V21.2a6.917,6.917,0,0,0-.05,1.45.094.094,0,0,1,0,.15,12.185,12.185,0,0,0-.05,1.35,7.741,7.741,0,0,1-.05,1.1c-.05.55-.05,1.05-.05,1.55,0,.4-.05.85-.05,1.25a3.759,3.759,0,0,1,0,.75,6.938,6.938,0,0,0,.2,2.3,3.1,3.1,0,0,0,1.2,1.45,2.718,2.718,0,0,0,1.15.55,8.1,8.1,0,0,0,1.9.45c.45.05.95.05,1.45.1a13.665,13.665,0,0,1,2,.25,10.238,10.238,0,0,1,2.1.35A4.615,4.615,0,0,0,89.575,34.3Zm9.05-1.2c.55.1,1.1-.1,1.65-.05a13.176,13.176,0,0,0,1.4-.1,2.777,2.777,0,0,0,1.75-.85,1.612,1.612,0,0,0,.45-1.3,1.956,1.956,0,0,0-.95-1.4,4.283,4.283,0,0,0-2.05-.5c-.55-.05-1.1,0-1.65,0a.99.99,0,0,1-1.1-.95,7.3,7.3,0,0,1-.15-1.1v-2.6c.05-.7.2-.9.9-1.1h.35a10.426,10.426,0,0,1,1.25,0,5.78,5.78,0,0,0,1.85-.35,2.221,2.221,0,0,0,1.65-2.2,2.075,2.075,0,0,0-1.3-1.9,5.35,5.35,0,0,0-2.15-.45c-.5.05-1,0-1.55.05a.534.534,0,0,1-.45-.35,1.408,1.408,0,0,1-.2-1,2.439,2.439,0,0,0,.05-.85c.05-1.2.05-2.35.05-3.5,0-.6.35-1.05.95-1,.95,0,1.85-.15,2.75-.15a2.922,2.922,0,0,0,.95-.1,2.959,2.959,0,0,0,1.85-1.2,1.957,1.957,0,0,0,.05-2.25,3.321,3.321,0,0,0-2.4-1.3c-1.35-.05-2.7.1-4.05.15-.05,0-.05-.05-.1,0-.5.15-1.05.05-1.55.15a8.27,8.27,0,0,0-1.6.35,2.6,2.6,0,0,0-1.7,1.35,1.936,1.936,0,0,0-.15,1.4.552.552,0,0,1,0,.4.74.74,0,0,0,0,.65v.25c.05.7.1,1.35.1,2a21.048,21.048,0,0,1-.05,3.55c-.1.6-.05,1.25-.1,1.85-.1.6-.05,1.15-.1,1.75-.1.85-.05,1.65-.1,2.5a22.894,22.894,0,0,0-.05,2.7c.1.7-.05,1.7.1,2.75a9.16,9.16,0,0,0,.45,1.95,3.751,3.751,0,0,0,2.5,2.4A10.348,10.348,0,0,0,98.625,33.1Z" transform="translate(-6471 737.875)" fill="#28dd39"/>
      <g id="Grupo_3207" data-name="Grupo 3207" transform="translate(-6520 580.283)">
        <g id="Grupo_3149" data-name="Grupo 3149" clip-path="url(#clip-path)">
          <path id="Trazado_3132" data-name="Trazado 3132" d="M67.132,157.348a17.832,17.832,0,0,1-14.481-7.758,72.936,72.936,0,0,1-6.255-10.9,1.551,1.551,0,1,1,2.814-1.3A69.666,69.666,0,0,0,55.2,147.817c3.741,5.366,10.382,7.715,16.144,5.724l.614-.225a25.692,25.692,0,0,1,18.555,0l.606.221c5.782,2.006,12.414-.355,16.148-5.717a69.192,69.192,0,0,0,6.823-12.3,75.493,75.493,0,0,0,5.866-29.18c0-4-1.835-11.217-4.115-14.165A20.508,20.508,0,0,0,99.848,84a21.123,21.123,0,0,0-9.794,2.49L84.76,89.4a7.228,7.228,0,0,1-7.052,0L72.414,86.49A21.159,21.159,0,0,0,62.62,84,20.508,20.508,0,0,0,46.629,92.18c-2.319,3-4.115,9.9-4.115,13.836a78.748,78.748,0,0,0,1.075,12.857,1.551,1.551,0,0,1-1.274,1.785,1.511,1.511,0,0,1-1.785-1.274,81.627,81.627,0,0,1-1.121-13.368c0-4.527,1.957-12.1,4.763-15.736A23.625,23.625,0,0,1,62.59,80.895a24.262,24.262,0,0,1,11.32,2.879L79.2,86.688a4.2,4.2,0,0,0,4.062,0l5.294-2.913A23.072,23.072,0,0,1,118.3,90.28c2.727,3.532,4.764,11.392,4.764,16.065a78.7,78.7,0,0,1-6.118,30.4,72.364,72.364,0,0,1-7.128,12.845c-4.527,6.5-12.624,9.336-19.7,6.877-.24-.08-.488-.168-.732-.267a22.537,22.537,0,0,0-16.3,0l-.732.267a15.955,15.955,0,0,1-5.217.873" transform="translate(-25.583 -52.513)" fill="#002e66"/>
          <path id="Trazado_3133" data-name="Trazado 3133" d="M131.877,40.755h-.042a1.556,1.556,0,0,1-1.51-1.594C130.843,19.432,126.8,13.2,118.108,7.4a1.551,1.551,0,0,1,1.724-2.578c9.447,6.308,14.146,13.364,13.6,34.428a1.552,1.552,0,0,1-1.552,1.51" transform="translate(-76.223 -2.957)" fill="#002e66"/>
          <path id="Trazado_3134" data-name="Trazado 3134" d="M156.065,37.8a1.551,1.551,0,0,1-1.533-1.338c-.076-.542-1.77-13.372,5.088-23.337S179.07.159,179.6.037a1.593,1.593,0,0,1,1.228.233,1.556,1.556,0,0,1,.656,1.064c.076.541,1.77,13.371-5.088,23.341a29.28,29.28,0,0,1-7.651,7.468A1.553,1.553,0,1,1,167,29.579a26.088,26.088,0,0,0,6.85-6.667c4.741-6.888,4.9-15.625,4.714-19.344-3.539,1.156-11.644,4.424-16.385,11.316-6.159,8.951-4.585,21.026-4.569,21.148a1.555,1.555,0,0,1-1.323,1.751,2.157,2.157,0,0,1-.218.015" transform="translate(-100.16 0)" fill="#002e66"/>
          <path id="Trazado_3135" data-name="Trazado 3135" d="M57.873,186.722H14.211A14.229,14.229,0,0,1,0,172.511v-11.7A7.163,7.163,0,0,1,7.156,153.5h8.223a1.552,1.552,0,1,1,0,3.1H7.156A4.059,4.059,0,0,0,3.1,160.581a.506.506,0,0,1,0,.076v.137c0,.1.008.191.019.282a4.27,4.27,0,0,0,4.352,3.631h50.4a3.905,3.905,0,0,1,3.9,3.9V182.82a3.906,3.906,0,0,1-3.9,3.9M3.105,166.447v6.064a11.117,11.117,0,0,0,11.106,11.106H57.873a.8.8,0,0,0,.793-.8V168.606a.793.793,0,0,0-.793-.793H7.476a7.683,7.683,0,0,1-4.371-1.365" transform="translate(0 -99.645)" fill="#002e66"/>
          <path id="Trazado_3136" data-name="Trazado 3136" d="M35.331,194.978a1.551,1.551,0,0,1-1.552-1.552V187a1.552,1.552,0,1,1,3.1,0v6.426a1.551,1.551,0,0,1-1.552,1.552" transform="translate(-21.928 -120.384)" fill="#002e66"/>
          <path id="Trazado_3137" data-name="Trazado 3137" d="M68.573,194.978a1.551,1.551,0,0,1-1.552-1.552V187a1.552,1.552,0,1,1,3.1,0v6.426a1.551,1.551,0,0,1-1.552,1.552" transform="translate(-43.507 -120.384)" fill="#002e66"/>
          <path id="Trazado_3138" data-name="Trazado 3138" d="M101.826,194.978a1.551,1.551,0,0,1-1.552-1.552V187a1.552,1.552,0,1,1,3.1,0v6.426a1.551,1.551,0,0,1-1.552,1.552" transform="translate(-65.093 -120.384)" fill="#002e66"/>
          <path id="Trazado_3139" data-name="Trazado 3139" d="M135.079,194.978a1.551,1.551,0,0,1-1.552-1.552V187a1.552,1.552,0,1,1,3.1,0v6.426a1.551,1.551,0,0,1-1.552,1.552" transform="translate(-86.68 -120.384)" fill="#002e66"/>
        </g>
      </g>
    </g>
    <g id="Grupo_3211" data-name="Grupo 3211" transform="translate(122.453 -12.209)">
      <path id="Trazado_3245" data-name="Trazado 3245" d="M-77.354-.9A2.2,2.2,0,0,0-75.923-2.12a3.87,3.87,0,0,0,.583-2.014c0-.318-.106-.583-.106-.848-.053-.8,0-1.59-.106-2.385-.106-.848,0-1.7-.106-2.544-.106-.9,0-1.855-.159-2.809-.053-.53.053-1.113-.053-1.643a4.8,4.8,0,0,1-.053-1.219c.053-.424-.159-.848-.106-1.219.053-.8-.159-1.484-.106-2.279v-.106a8.193,8.193,0,0,1-.212-1.643l-.159-1.272-.318-1.8-.318-1.431c-.106-.477-.212-1.007-.371-1.537a8.177,8.177,0,0,0-1.272-2.862A3.323,3.323,0,0,0-80.322-30.9a2.9,2.9,0,0,0-2.544.371,2.757,2.757,0,0,0-1.06,1.272l-1.431,3.18c-.371.848-.742,1.749-1.06,2.7a23.087,23.087,0,0,0-.9,2.7,2.808,2.808,0,0,1-.318.53c-.212.159-.424.106-.477-.159a31.124,31.124,0,0,0-.848-3.18,16.053,16.053,0,0,0-1.8-4.293,6.035,6.035,0,0,0-1.749-1.908,3.081,3.081,0,0,0-2.7-.424,4,4,0,0,0-1.961,1.537,12.438,12.438,0,0,0-1.166,2.385,8.83,8.83,0,0,0-.424,1.59c-.053.583-.159,1.219-.265,1.8l-.265,2.173c-.106.53-.053,1.06-.159,1.643-.053.583,0,1.219-.106,1.8a14.973,14.973,0,0,1-.106,1.537c-.053.53-.053,1.113-.106,1.643-.106,1.113,0,2.226-.106,3.392a17.957,17.957,0,0,0,.053,2.915c.106.689.053,1.378.106,2.12a17.005,17.005,0,0,0,.371,2.279,2.83,2.83,0,0,0,1.961,2.173,2.164,2.164,0,0,0,1.537-.159,2.315,2.315,0,0,0,1.325-1.643,2.017,2.017,0,0,0,.159-.954,6.478,6.478,0,0,0-.106-1.749c.053-1.537-.159-3.021-.106-4.558v-5.353c0-.9,0-1.8.053-2.7a9.532,9.532,0,0,0,.159-2.12v-.106c.106-.159.053-.477.265-.477.318-.053.318.265.424.424v.159l.159.636c.265.9.424,1.855.636,2.809l.318,1.59a14.53,14.53,0,0,1,.265,1.484l.159,1.007a10.582,10.582,0,0,1,.265,1.378,16.229,16.229,0,0,0,.265,1.7c.159.8.265,1.59.424,2.385a3.537,3.537,0,0,0,1.06,2.12,2.507,2.507,0,0,0,2.544.583,2.518,2.518,0,0,0,1.537-1.325,6.838,6.838,0,0,0,.424-1.484c.159-.742.424-1.484.53-2.226.159-1.166.53-2.279.742-3.392.159-1.007.477-2.014.742-3.021.318-1.378.742-2.756,1.113-4.134.106-.159.159-.371.265-.53a.231.231,0,0,1,.424,0,1.348,1.348,0,0,1,.106.371c0,.371.106.689.106,1.007.053.848.159,1.7.212,2.544.106.636.053,1.219.106,1.855.106.689.053,1.378.159,2.12.106.689,0,1.431.106,2.173.106.848,0,1.749.106,2.65.106.8,0,1.643.106,2.438.106.636,0,1.325.106,1.961a3.792,3.792,0,0,0,1.537,2.544A2.16,2.16,0,0,0-77.354-.9Zm17.331-.53a2.316,2.316,0,0,0,1.59-1.537,5.384,5.384,0,0,0,.318-1.8c.053-.636,0-1.325,0-1.961V-8.374a16.05,16.05,0,0,0-.106-1.643c0-1.219.053-2.438-.053-3.657-.106-.954-.053-1.961-.106-2.915a10.351,10.351,0,0,1-.159-1.8c0-.053.053-.106,0-.106a.682.682,0,0,1-.053-.636c0-.265-.159-.424-.159-.689a9.885,9.885,0,0,0-.212-1.7c-.053-.53-.265-1.113-.371-1.7a16.753,16.753,0,0,0-.9-2.756A13.688,13.688,0,0,0-61.4-28.3a6.824,6.824,0,0,0-1.166-1.59,2.572,2.572,0,0,0-2.332-.8,1.812,1.812,0,0,0-1.378.742,10.637,10.637,0,0,0-1.484,2.756l-1.378,3.445c-.371,1.06-.848,2.173-1.219,3.286-.636,1.749-1.219,3.551-1.7,5.406-.212.9-.477,1.8-.636,2.7l-.477,2.491c-.159.848-.265,1.643-.371,2.491a7.249,7.249,0,0,0-.106,1.537v.106a1.613,1.613,0,0,0,.053,1.113,2.709,2.709,0,0,0,1.007,1.643,1.63,1.63,0,0,0,1.8.318,2.856,2.856,0,0,0,.689-.371,3.944,3.944,0,0,0,1.113-1.643c.106-.53.159-1.113.265-1.643l.318-2.332a.847.847,0,0,1,.265-.53,3.429,3.429,0,0,1,.424-.477.4.4,0,0,1,.477-.159c.53,0,1.06,0,1.59.053.583.053,1.219.106,1.855.106a.86.86,0,0,1,.477.265,1.787,1.787,0,0,1,.265.9c.053,1.484-.053,2.968.106,4.452A2.864,2.864,0,0,0-61.825-1.8,1.751,1.751,0,0,0-60.022-1.431Zm-4.293-13.144a1.764,1.764,0,0,1-.742-.053,2.376,2.376,0,0,0-.636-.053,1.048,1.048,0,0,1-.583-.106.623.623,0,0,1-.477-.636,2.692,2.692,0,0,1,.159-.9c.265-.954.636-1.908.954-2.915.318-.742.583-1.537.9-2.332,0-.053.053-.106.106-.212a.4.4,0,0,1,.424-.159c.159,0,.212.159.212.265a5.545,5.545,0,0,1,.212.9c.106.636.159,1.272.318,1.908v.053c-.053.583.106,1.113.106,1.7a6.494,6.494,0,0,1,.106,1.007,2.8,2.8,0,0,1-.053.689A1.078,1.078,0,0,1-64.316-14.575ZM-53.239-.636a2.454,2.454,0,0,0,1.272-.9,4.252,4.252,0,0,0,.583-1.8,8.984,8.984,0,0,1,.053-1.219A14.894,14.894,0,0,1-51.278-6.1c0-.583-.053-1.166-.053-1.749v-4.293c0-.636.053-1.219.053-1.8a2.58,2.58,0,0,1,.053-.636.353.353,0,0,1,.265-.371c.106-.053.212.106.318.212a.732.732,0,0,1,.159.212c.159.583.477,1.113.689,1.7.477,1.007.9,2.014,1.378,3.021.424.8.8,1.643,1.219,2.385A18.733,18.733,0,0,0-45.448-4.4,8.09,8.09,0,0,1-44.6-3.233a9.677,9.677,0,0,0,.689.848,2.045,2.045,0,0,0,2.067.689A2.243,2.243,0,0,0-40.2-3.127a8.527,8.527,0,0,0,.371-1.961c.212-1.272.265-2.6.371-3.869.053-1.007.053-1.961.106-2.968l.159-2.968c.053-1.113.106-2.279.053-3.392v-.795c.053-.8.053-1.59.053-2.332v-3.657l.053-.689a5.115,5.115,0,0,1,0-.9,9.692,9.692,0,0,0-.106-1.749,4.922,4.922,0,0,1-.212-.689,3.139,3.139,0,0,0-1.06-1.855,1.851,1.851,0,0,0-1.272-.53,2.292,2.292,0,0,0-1.855,1.219,5.584,5.584,0,0,0-.636,2.014,7.25,7.25,0,0,0-.106,1.537c-.053.583-.053,1.749-.053,2.279v2.65c-.053.318,0,.636-.053.954a6.46,6.46,0,0,0,0,1.431c.053.583,0,1.113,0,1.7v2.756c-.053.106-.053.265-.265.318-.159,0-.212-.106-.318-.212,0-.053-.053-.106-.053-.159-.371-.689-.636-1.431-.954-2.12-.424-1.113-.848-2.226-1.325-3.339-.371-.9-.742-1.749-1.06-2.65a14.27,14.27,0,0,1-.689-1.7l-.8-1.855A4.406,4.406,0,0,0-51.6-28.832a2.552,2.552,0,0,0-1.749-.424A2.675,2.675,0,0,0-55.518-27.3a15.972,15.972,0,0,0-.53,3.5l-.159,2.756c-.053.954-.159,1.908-.159,2.862-.053.636,0,1.272-.053,1.908a9.855,9.855,0,0,0-.053,2.173v1.8c0,.8-.053,1.537,0,2.332,0,.583-.053,1.219,0,1.855,0,.318.053.689.053,1.007a11.952,11.952,0,0,0,0,1.378,7.465,7.465,0,0,1,.053,1.06A13.872,13.872,0,0,0-56.26-2.65a2.12,2.12,0,0,0,.583,1.219A2.274,2.274,0,0,0-53.239-.636Zm24.751-.689A2.475,2.475,0,0,0-27.216-2.7a5.565,5.565,0,0,0,.424-1.855c.053-.583,0-1.219.106-1.855.106-.954,0-1.908.053-2.862.159-1.113,0-2.279.159-3.392.053-.8-.053-1.537.053-2.332.106-.583.053-1.219.106-1.855.106-.583-.053-1.219.106-1.8-.053-.954.159-1.908.159-2.862-.053-.848,0-1.7,0-2.544A7.1,7.1,0,0,1-26-25.122a2.255,2.255,0,0,1,.742-1.219c.053-.053.106-.159.212-.159a5.84,5.84,0,0,0,.954-.106,19.751,19.751,0,0,0,2.491-.053,3.543,3.543,0,0,0,1.325-.424.275.275,0,0,0,.212-.106,2.771,2.771,0,0,0,.9-.636,1.783,1.783,0,0,0,.212-1.166,1.963,1.963,0,0,0-1.113-1.378,3.46,3.46,0,0,0-1.908-.53c-1.484,0-3.021,0-4.558.053-1.325.106-2.7.053-4.028.053h-3.869c-.318,0-.636.053-.954.053a2.363,2.363,0,0,0-2.014,1.59,1.764,1.764,0,0,0-.053.742,1.137,1.137,0,0,0,.212.8A2.517,2.517,0,0,0-35.007-26.5h2.968a.822.822,0,0,1,.8.477,3.855,3.855,0,0,1,.371,1.537,24.919,24.919,0,0,1-.053,3.445c-.106.689,0,1.431-.106,2.173-.106.583,0,1.113-.106,1.7s0,1.166-.106,1.8c-.106.742,0,1.537-.106,2.279-.106,1.007,0,2.067-.106,3.074-.106,1.06,0,2.12-.106,3.18-.053.848,0,1.7,0,2.491a3.1,3.1,0,0,0,.106,1.007,2.512,2.512,0,0,0,.636,1.431A2,2,0,0,0-28.488-1.325Zm16.96-.689c.583.106,1.166-.106,1.749-.053a13.967,13.967,0,0,0,1.484-.106,2.944,2.944,0,0,0,1.855-.9,1.709,1.709,0,0,0,.477-1.378A2.074,2.074,0,0,0-6.97-5.936a4.54,4.54,0,0,0-2.173-.53c-.583-.053-1.166,0-1.749,0a1.05,1.05,0,0,1-1.166-1.007,7.74,7.74,0,0,1-.159-1.166V-11.4c.053-.742.212-.954.954-1.166h.371a11.052,11.052,0,0,1,1.325,0,6.127,6.127,0,0,0,1.961-.371,2.354,2.354,0,0,0,1.749-2.332,2.2,2.2,0,0,0-1.378-2.014,5.671,5.671,0,0,0-2.279-.477c-.53.053-1.06,0-1.643.053a.566.566,0,0,1-.477-.371,1.492,1.492,0,0,1-.212-1.06,2.586,2.586,0,0,0,.053-.9c.053-1.272.053-2.491.053-3.71,0-.636.371-1.113,1.007-1.06,1.007,0,1.961-.159,2.915-.159a3.1,3.1,0,0,0,1.007-.106A3.137,3.137,0,0,0-4.85-26.341,2.075,2.075,0,0,0-4.8-28.726,3.521,3.521,0,0,0-7.341-30.1c-1.431-.053-2.862.106-4.293.159-.053,0-.053-.053-.106,0-.53.159-1.113.053-1.643.159a8.766,8.766,0,0,0-1.7.371,2.758,2.758,0,0,0-1.8,1.431A2.053,2.053,0,0,0-17.04-26.5a.585.585,0,0,1,0,.424.784.784,0,0,0,0,.689v.265c.053.742.106,1.431.106,2.12a22.311,22.311,0,0,1-.053,3.763c-.106.636-.053,1.325-.106,1.961-.106.636-.053,1.219-.106,1.855-.106.9-.053,1.749-.106,2.65a24.269,24.269,0,0,0-.053,2.862c.106.742-.053,1.8.106,2.915a9.709,9.709,0,0,0,.477,2.067,3.976,3.976,0,0,0,2.65,2.544A10.969,10.969,0,0,0-11.528-2.014ZM.45-.636a2.454,2.454,0,0,0,1.272-.9,4.252,4.252,0,0,0,.583-1.8,8.983,8.983,0,0,1,.053-1.219A14.894,14.894,0,0,1,2.411-6.1c0-.583-.053-1.166-.053-1.749v-4.293c0-.636.053-1.219.053-1.8a2.58,2.58,0,0,1,.053-.636.353.353,0,0,1,.265-.371c.106-.053.212.106.318.212a.732.732,0,0,1,.159.212c.159.583.477,1.113.689,1.7.477,1.007.9,2.014,1.378,3.021.424.8.8,1.643,1.219,2.385A18.733,18.733,0,0,0,8.241-4.4a8.09,8.09,0,0,1,.848,1.166,9.677,9.677,0,0,0,.689.848,2.045,2.045,0,0,0,2.067.689,2.243,2.243,0,0,0,1.643-1.431,8.527,8.527,0,0,0,.371-1.961c.212-1.272.265-2.6.371-3.869.053-1.007.053-1.961.106-2.968l.159-2.968c.053-1.113.106-2.279.053-3.392v-.795c.053-.8.053-1.59.053-2.332v-3.657l.053-.689a5.115,5.115,0,0,1,0-.9,9.692,9.692,0,0,0-.106-1.749,4.922,4.922,0,0,1-.212-.689,3.139,3.139,0,0,0-1.06-1.855A1.851,1.851,0,0,0,12-31.482a2.292,2.292,0,0,0-1.855,1.219,5.584,5.584,0,0,0-.636,2.014,7.249,7.249,0,0,0-.106,1.537c-.053.583-.053,1.749-.053,2.279v2.65c-.053.318,0,.636-.053.954a6.459,6.459,0,0,0,0,1.431c.053.583,0,1.113,0,1.7v2.756c-.053.106-.053.265-.265.318-.159,0-.212-.106-.318-.212,0-.053-.053-.106-.053-.159-.371-.689-.636-1.431-.954-2.12-.424-1.113-.848-2.226-1.325-3.339-.371-.9-.742-1.749-1.06-2.65a14.27,14.27,0,0,1-.689-1.7l-.8-1.855a4.406,4.406,0,0,0-1.749-2.173,2.552,2.552,0,0,0-1.749-.424A2.675,2.675,0,0,0-1.829-27.3a15.972,15.972,0,0,0-.53,3.5l-.159,2.756c-.053.954-.159,1.908-.159,2.862-.053.636,0,1.272-.053,1.908A9.855,9.855,0,0,0-2.783-14.1v1.8c0,.8-.053,1.537,0,2.332,0,.583-.053,1.219,0,1.855,0,.318.053.689.053,1.007a11.953,11.953,0,0,0,0,1.378,7.464,7.464,0,0,1,.053,1.06A13.873,13.873,0,0,0-2.571-2.65a2.12,2.12,0,0,0,.583,1.219A2.274,2.274,0,0,0,.45-.636Zm23.426.159A7.064,7.064,0,0,0,25.36-.636a7.464,7.464,0,0,0,2.6-1.06A11.42,11.42,0,0,0,30.713-4.24a8.816,8.816,0,0,0,1.325-2.385,10,10,0,0,0,.689-3.021,9.593,9.593,0,0,0-.212-2.12,8.7,8.7,0,0,0-.689-2.279,8.355,8.355,0,0,0-1.8-2.279,6.036,6.036,0,0,0-2.014-1.219,6.057,6.057,0,0,0-1.59-.477,5.227,5.227,0,0,0-1.272-.159,11.72,11.72,0,0,0-1.325.265,2.763,2.763,0,0,0-1.855,1.59,2.191,2.191,0,0,0,.159,2.067,3.034,3.034,0,0,0,.848.8,3.148,3.148,0,0,0,1.378.371c.053.053.106,0,.212,0a2.372,2.372,0,0,1,1.484.053A2.505,2.505,0,0,1,27.533-11.5a5.83,5.83,0,0,1,.212,1.643A4.684,4.684,0,0,1,27-7.473,4.839,4.839,0,0,1,25.731-6.2a2.717,2.717,0,0,1-2.014.742A1.848,1.848,0,0,1,22.445-6.1a6.1,6.1,0,0,1-.636-1.325,10.946,10.946,0,0,1-.636-3.233,16.682,16.682,0,0,1,.053-2.809c.106-.583.159-1.166.265-1.8a14.379,14.379,0,0,1,.477-2.173,16.627,16.627,0,0,1,1.484-3.6A12.993,12.993,0,0,1,24.83-23c.212-.318.53-.583.742-.848a4.871,4.871,0,0,1,1.166-1.166,11.113,11.113,0,0,1,2.173-1.272,3.92,3.92,0,0,1,1.537-.424,2.453,2.453,0,0,0,2.279-1.7,5.9,5.9,0,0,0,.106-.9,1.787,1.787,0,0,0-.265-.9,2.847,2.847,0,0,0-2.279-1.378,5.151,5.151,0,0,0-2.014.265A13.727,13.727,0,0,0,24.83-29.68a15.472,15.472,0,0,0-1.484,1.113,7.985,7.985,0,0,0-1.219,1.113,14.27,14.27,0,0,0-1.431,1.7,12.521,12.521,0,0,0-1.484,2.226c-.371.636-.689,1.325-1.007,2.014a12.343,12.343,0,0,0-.583,1.484,15.111,15.111,0,0,0-.742,2.65L16.562-15.9c-.053.318-.053.583-.106.848a9.058,9.058,0,0,0-.159,1.643,13.887,13.887,0,0,0-.053,1.484H16.3v1.8c0,.106-.053.212,0,.318a.627.627,0,0,1,.053.53c0,.212.106.371.106.583a15.724,15.724,0,0,0,.424,2.173,9.862,9.862,0,0,0,1.272,2.862,6.588,6.588,0,0,0,2.491,2.332A6.837,6.837,0,0,0,23.876-.477ZM48.15-1.431a2.316,2.316,0,0,0,1.59-1.537,5.384,5.384,0,0,0,.318-1.8c.053-.636,0-1.325,0-1.961V-8.374a16.05,16.05,0,0,0-.106-1.643c0-1.219.053-2.438-.053-3.657-.106-.954-.053-1.961-.106-2.915a10.351,10.351,0,0,1-.159-1.8c0-.053.053-.106,0-.106a.682.682,0,0,1-.053-.636c0-.265-.159-.424-.159-.689a9.885,9.885,0,0,0-.212-1.7c-.053-.53-.265-1.113-.371-1.7a16.753,16.753,0,0,0-.9-2.756A13.688,13.688,0,0,0,46.772-28.3a6.824,6.824,0,0,0-1.166-1.59,2.572,2.572,0,0,0-2.332-.8,1.812,1.812,0,0,0-1.378.742,10.637,10.637,0,0,0-1.484,2.756l-1.378,3.445c-.371,1.06-.848,2.173-1.219,3.286-.636,1.749-1.219,3.551-1.7,5.406-.212.9-.477,1.8-.636,2.7l-.477,2.491c-.159.848-.265,1.643-.371,2.491a7.249,7.249,0,0,0-.106,1.537v.106a1.613,1.613,0,0,0,.053,1.113,2.709,2.709,0,0,0,1.007,1.643,1.63,1.63,0,0,0,1.8.318,2.855,2.855,0,0,0,.689-.371,3.943,3.943,0,0,0,1.113-1.643c.106-.53.159-1.113.265-1.643l.318-2.332a.847.847,0,0,1,.265-.53,3.429,3.429,0,0,1,.424-.477.4.4,0,0,1,.477-.159c.53,0,1.06,0,1.59.053.583.053,1.219.106,1.855.106a.86.86,0,0,1,.477.265,1.787,1.787,0,0,1,.265.9c.053,1.484-.053,2.968.106,4.452A2.864,2.864,0,0,0,46.348-1.8,1.751,1.751,0,0,0,48.15-1.431ZM43.857-14.575a1.764,1.764,0,0,1-.742-.053,2.376,2.376,0,0,0-.636-.053,1.048,1.048,0,0,1-.583-.106.623.623,0,0,1-.477-.636,2.692,2.692,0,0,1,.159-.9c.265-.954.636-1.908.954-2.915.318-.742.583-1.537.9-2.332,0-.053.053-.106.106-.212a.4.4,0,0,1,.424-.159c.159,0,.212.159.212.265a5.545,5.545,0,0,1,.212.9c.106.636.159,1.272.318,1.908v.053c-.053.583.106,1.113.106,1.7a6.494,6.494,0,0,1,.106,1.007,2.8,2.8,0,0,1-.053.689A1.078,1.078,0,0,1,43.857-14.575ZM70.676-2.332a7.182,7.182,0,0,0,1.855-.053,6.2,6.2,0,0,0,1.06-.318,7.016,7.016,0,0,0,1.7-1.06,9.48,9.48,0,0,0,1.484-1.431,10.282,10.282,0,0,0,.795-1.272,15.9,15.9,0,0,0,1.643-3.763,29.758,29.758,0,0,0,.689-3.127c.053-.477.212-.954.265-1.484.106-1.219.318-2.491.424-3.71,0-.8.106-1.537.159-2.332a4.532,4.532,0,0,1,0-.848A4.4,4.4,0,0,0,80.8-22.9c0-.424.053-.848.053-1.272,0-.371-.053-.689-.053-1.007a9.078,9.078,0,0,0,.053-1.7,2.3,2.3,0,0,1-.053-.265,3.021,3.021,0,0,0-.265-1.8,2.669,2.669,0,0,0-3.392-1.431,2.28,2.28,0,0,0-1.113,1.007,4.023,4.023,0,0,0-.53,2.491v1.378c-.053.8,0,1.59-.053,2.385a7.068,7.068,0,0,0,0,1.06,8.84,8.84,0,0,0-.106,1.7c0,.9-.159,1.749-.212,2.65-.106,1.166-.318,2.332-.53,3.445a24.342,24.342,0,0,1-1.272,4.77,5.1,5.1,0,0,1-1.06,1.7.987.987,0,0,1-1.219.265A4.316,4.316,0,0,1,69.563-8.8a6.847,6.847,0,0,1-1.431-3.5c-.159-1.537-.424-3.021-.477-4.611a12.287,12.287,0,0,0-.053-1.961v-.159a5.541,5.541,0,0,0,0-1.325c.053-.424,0-.9.053-1.325V-23.9c.053-.636.053-1.325.053-1.961a4.284,4.284,0,0,1,.053-.848,2.246,2.246,0,0,0-.371-1.643,2.618,2.618,0,0,0-1.855-1.272,2.655,2.655,0,0,0-1.7.318,2.822,2.822,0,0,0-1.166,1.431,7.345,7.345,0,0,0-.371,2.6v1.272a5.734,5.734,0,0,1,0,.954,6.116,6.116,0,0,0-.053,1.378,11.952,11.952,0,0,1,0,1.378c-.053.8.053,1.59,0,2.438a5.661,5.661,0,0,0,.053,1.325c0,.8.159,1.643.159,2.438a3.976,3.976,0,0,0,.106,1.06c-.053.742.318,1.59.371,2.491a.164.164,0,0,0,.053.106c.212.636.371,1.378.636,2.014a10.72,10.72,0,0,0,1.749,3.021A7.316,7.316,0,0,0,67.5-3.5,7.985,7.985,0,0,0,70.676-2.332Zm15.052,1.7A2.454,2.454,0,0,0,87-1.537a4.252,4.252,0,0,0,.583-1.8,8.983,8.983,0,0,1,.053-1.219A14.894,14.894,0,0,1,87.688-6.1c0-.583-.053-1.166-.053-1.749v-4.293c0-.636.053-1.219.053-1.8a2.58,2.58,0,0,1,.053-.636.353.353,0,0,1,.265-.371c.106-.053.212.106.318.212a.732.732,0,0,1,.159.212c.159.583.477,1.113.689,1.7.477,1.007.9,2.014,1.378,3.021.424.8.795,1.643,1.219,2.385A18.733,18.733,0,0,0,93.519-4.4a8.09,8.09,0,0,1,.848,1.166,9.675,9.675,0,0,0,.689.848,2.045,2.045,0,0,0,2.067.689,2.243,2.243,0,0,0,1.643-1.431,8.527,8.527,0,0,0,.371-1.961c.212-1.272.265-2.6.371-3.869.053-1.007.053-1.961.106-2.968l.159-2.968c.053-1.113.106-2.279.053-3.392v-.795c.053-.8.053-1.59.053-2.332v-3.657l.053-.689a5.115,5.115,0,0,1,0-.9,9.692,9.692,0,0,0-.106-1.749,4.922,4.922,0,0,1-.212-.689,3.139,3.139,0,0,0-1.06-1.855,1.851,1.851,0,0,0-1.272-.53,2.292,2.292,0,0,0-1.855,1.219,5.584,5.584,0,0,0-.636,2.014,7.25,7.25,0,0,0-.106,1.537c-.053.583-.053,1.749-.053,2.279v2.65c-.053.318,0,.636-.053.954a6.459,6.459,0,0,0,0,1.431c.053.583,0,1.113,0,1.7v2.756c-.053.106-.053.265-.265.318-.159,0-.212-.106-.318-.212,0-.053-.053-.106-.053-.159-.371-.689-.636-1.431-.954-2.12-.424-1.113-.848-2.226-1.325-3.339-.371-.9-.742-1.749-1.06-2.65a14.271,14.271,0,0,1-.689-1.7l-.795-1.855a4.406,4.406,0,0,0-1.749-2.173,2.552,2.552,0,0,0-1.749-.424A2.675,2.675,0,0,0,83.449-27.3a15.972,15.972,0,0,0-.53,3.5l-.159,2.756c-.053.954-.159,1.908-.159,2.862-.053.636,0,1.272-.053,1.908a9.855,9.855,0,0,0-.053,2.173v1.8c0,.8-.053,1.537,0,2.332,0,.583-.053,1.219,0,1.855,0,.318.053.689.053,1.007a11.952,11.952,0,0,0,0,1.378,7.464,7.464,0,0,1,.053,1.06,13.873,13.873,0,0,0,.106,2.014,2.12,2.12,0,0,0,.583,1.219A2.274,2.274,0,0,0,85.728-.636ZM-109.127,44.1a2.527,2.527,0,0,0,1.749-1.749,3.529,3.529,0,0,0,.212-1.643.672.672,0,0,1-.053-.318,6,6,0,0,0,0-1.961v-.159a4.6,4.6,0,0,0,.053-1.219,4.688,4.688,0,0,0,0-1.219c0-.053.053-.106.106-.159a2.533,2.533,0,0,1,.53-1.219,1.2,1.2,0,0,1,.954-.689,4.416,4.416,0,0,0,.8-.212,6.879,6.879,0,0,0,1.961-1.007,10.835,10.835,0,0,0,2.279-2.12,12.546,12.546,0,0,0,1.166-1.749,11.125,11.125,0,0,0,1.431-4.028,12.472,12.472,0,0,0,.106-2.809,1.684,1.684,0,0,0-.106-.742c-.159-.371-.159-.848-.318-1.219-.159-.424-.265-.848-.424-1.219A12.174,12.174,0,0,0-99.8,16.91a9.389,9.389,0,0,0-1.431-1.484,8.81,8.81,0,0,0-2.915-1.431,10.02,10.02,0,0,0-3.074-.424,6.016,6.016,0,0,0-2.544.636,3.408,3.408,0,0,0-1.749,1.8,5.964,5.964,0,0,0-.477,2.7,7.827,7.827,0,0,1-.053,1.113,11.051,11.051,0,0,0,0,1.325v.265A1.1,1.1,0,0,0-112.1,22c.053.212-.106.371-.053.583a5.108,5.108,0,0,1,0,1.272,4.532,4.532,0,0,1,0,.848,10.214,10.214,0,0,0-.053,1.272,11.944,11.944,0,0,0,0,1.378,2.657,2.657,0,0,1-.053.9v.636c.053.212-.106.424-.053.689.106.477-.053.954.053,1.431v.106c-.159.212-.053.424,0,.636,0,.265-.106.477-.053.689a10.186,10.186,0,0,1,0,1.272c0,.53-.106,1.113-.053,1.643,0,.053.053.106,0,.159a.739.739,0,0,0,0,.583c.053.265-.106.477-.053.689a5.536,5.536,0,0,1,0,1.325,5.106,5.106,0,0,1,0,.9,1.292,1.292,0,0,0,0,.636,10.694,10.694,0,0,0,0,1.325v.159a2.828,2.828,0,0,0,1.219,2.7A2.227,2.227,0,0,0-109.127,44.1Zm2.491-15c-.053-.159-.265-.212-.265-.424,0-.424-.212-.848-.053-1.272v-.159A8.655,8.655,0,0,1-106.9,25.6v-.9a11.051,11.051,0,0,1,0-1.325,7.827,7.827,0,0,1,.053-1.113c.053-.053,0-.106,0-.159a20.426,20.426,0,0,1,.106-2.544,1.242,1.242,0,0,1,.583-.954.608.608,0,0,1,.53-.053,2.779,2.779,0,0,1,.954.53,4.731,4.731,0,0,1,1.166,1.537,6.712,6.712,0,0,1,.318.954c0,.265.053.53.053.742a7.751,7.751,0,0,1-.424,3.657A5.26,5.26,0,0,1-104.94,28.3a5.211,5.211,0,0,1-.795.636.9.9,0,0,1-.53.159C-106.371,29.1-106.53,29.206-106.636,29.1Zm16.271,13.886c.583.106,1.166-.106,1.749-.053a13.966,13.966,0,0,0,1.484-.106,2.944,2.944,0,0,0,1.855-.9,1.709,1.709,0,0,0,.477-1.378,2.074,2.074,0,0,0-1.007-1.484,4.54,4.54,0,0,0-2.173-.53c-.583-.053-1.166,0-1.749,0A1.05,1.05,0,0,1-90.9,37.527a7.74,7.74,0,0,1-.159-1.166V33.6c.053-.742.212-.954.954-1.166h.371a11.052,11.052,0,0,1,1.325,0,6.127,6.127,0,0,0,1.961-.371,2.354,2.354,0,0,0,1.749-2.332,2.2,2.2,0,0,0-1.378-2.014,5.67,5.67,0,0,0-2.279-.477c-.53.053-1.06,0-1.643.053a.566.566,0,0,1-.477-.371,1.492,1.492,0,0,1-.212-1.06,2.586,2.586,0,0,0,.053-.9c.053-1.272.053-2.491.053-3.71,0-.636.371-1.113,1.007-1.06,1.007,0,1.961-.159,2.915-.159a3.1,3.1,0,0,0,1.007-.106,3.137,3.137,0,0,0,1.961-1.272,2.075,2.075,0,0,0,.053-2.385A3.521,3.521,0,0,0-86.178,14.9c-1.431-.053-2.862.106-4.293.159-.053,0-.053-.053-.106,0-.53.159-1.113.053-1.643.159a8.766,8.766,0,0,0-1.7.371,2.758,2.758,0,0,0-1.8,1.431,2.053,2.053,0,0,0-.159,1.484.585.585,0,0,1,0,.424.784.784,0,0,0,0,.689v.265c.053.742.106,1.431.106,2.12a22.311,22.311,0,0,1-.053,3.763c-.106.636-.053,1.325-.106,1.961-.106.636-.053,1.219-.106,1.855-.106.9-.053,1.749-.106,2.65a24.268,24.268,0,0,0-.053,2.862c.106.742-.053,1.8.106,2.915a9.71,9.71,0,0,0,.477,2.067,3.976,3.976,0,0,0,2.65,2.544A10.969,10.969,0,0,0-90.365,42.986Zm11.183,1.484a2.851,2.851,0,0,0,1.749-.159,4.51,4.51,0,0,1,.9-.318,23.136,23.136,0,0,0,3.021-1.537,7.464,7.464,0,0,0,2.491-2.279,9.509,9.509,0,0,0,1.06-2.067,8.423,8.423,0,0,0,.53-3.127,11.4,11.4,0,0,0-.106-1.219,10.639,10.639,0,0,0-.689-2.544,14.5,14.5,0,0,0-2.65-3.816c-1.06-1.166-2.279-2.173-3.286-3.392a2.38,2.38,0,0,1-.53-2.544,4.554,4.554,0,0,1,1.8-2.544,6.105,6.105,0,0,1,1.7-.742,3.216,3.216,0,0,0,1.378-.424,2.253,2.253,0,0,0,1.166-1.908,2.173,2.173,0,0,0-.318-1.272,2.261,2.261,0,0,0-1.749-1.166,4.376,4.376,0,0,0-1.643.106,9.865,9.865,0,0,0-1.643.53,9.944,9.944,0,0,0-1.908,1.113,8.959,8.959,0,0,0-2.6,3.021,10.194,10.194,0,0,0-.742,1.749,7.117,7.117,0,0,0-.371,1.431,6.971,6.971,0,0,0,.106,2.332,9.064,9.064,0,0,0,.477,1.59,10.55,10.55,0,0,0,1.908,2.65c.8.9,1.7,1.7,2.544,2.544a11.44,11.44,0,0,1,1.431,1.749,5.952,5.952,0,0,1,.954,2.6,5.84,5.84,0,0,1-.106.954,3.4,3.4,0,0,1-1.166,2.173,9.71,9.71,0,0,1-2.6,1.484l-1.537.636a2.934,2.934,0,0,0-1.113,1.007,2.4,2.4,0,0,0,0,2.385A1.938,1.938,0,0,0-79.182,44.47Zm21.094-1.537c.053,0,.159-.053.212,0a.9.9,0,0,0,.742-.053,8.913,8.913,0,0,1,1.272-.371,11.666,11.666,0,0,0,2.7-1.7c.477-.424.9-.954,1.378-1.378a8.292,8.292,0,0,0,1.219-1.8,18.086,18.086,0,0,0,.9-1.749,21.81,21.81,0,0,0,1.431-4.452,18.336,18.336,0,0,0,.477-4.505,15.287,15.287,0,0,0-.106-2.173c-.053-.159-.053-.318-.106-.53-.106-.477-.159-1.113-.318-1.643-.159-.424-.212-.848-.371-1.219a17.123,17.123,0,0,0-1.06-2.226,12.77,12.77,0,0,0-1.908-2.544,6.927,6.927,0,0,0-.636-.583,6.117,6.117,0,0,0-1.537-1.06,10.581,10.581,0,0,0-3.339-1.007,7.662,7.662,0,0,0-1.908,0,10.121,10.121,0,0,0-2.385.689,12.939,12.939,0,0,0-2.915,1.855,10.18,10.18,0,0,0-1.484,1.537,4,4,0,0,0-.583.742,6.677,6.677,0,0,0-.53,1.749l-.159.9a24.29,24.29,0,0,0-.53,3.339c-.053.583-.106,1.219-.106,1.8-.053.689-.053,1.431-.106,2.173,0,.53,0,1.113.053,1.7l.159,1.8a24.244,24.244,0,0,0,.742,3.816c.212.477.371.954.53,1.378a11.463,11.463,0,0,0,1.166,1.908,11.669,11.669,0,0,0,1.749,1.855,8.469,8.469,0,0,0,2.12,1.219A6.236,6.236,0,0,0-58.088,42.933Zm.053-4.717a1.922,1.922,0,0,1-2.067-.477,5.951,5.951,0,0,1-1.537-2.6,7.087,7.087,0,0,1-.53-2.014c-.053-.212-.212-.371-.212-.583-.053-.742-.106-1.484-.212-2.226-.053-.583-.053-1.166-.053-1.749a37.11,37.11,0,0,1,.318-4.24l.424-2.491a1.99,1.99,0,0,1,.636-1.113,6.225,6.225,0,0,1,1.59-1.272,3.814,3.814,0,0,1,2.544-.318c.212.053.424.159.583.212a6.1,6.1,0,0,1,2.226,2.12c.371.636.583,1.325.9,1.961v.053c.053.583.371,1.06.371,1.59a12.828,12.828,0,0,1,.106,2.014,17.192,17.192,0,0,1-.583,4.028,13.091,13.091,0,0,1-1.007,2.862,9.224,9.224,0,0,1-.954,1.749,7.279,7.279,0,0,1-.689,1.06A4.5,4.5,0,0,1-58.035,38.216Zm24.963,6.254a2.851,2.851,0,0,0,1.749-.159,4.51,4.51,0,0,1,.9-.318A23.136,23.136,0,0,0-27.4,42.456a7.464,7.464,0,0,0,2.491-2.279,9.509,9.509,0,0,0,1.06-2.067,8.423,8.423,0,0,0,.53-3.127,11.4,11.4,0,0,0-.106-1.219,10.639,10.639,0,0,0-.689-2.544,14.5,14.5,0,0,0-2.65-3.816c-1.06-1.166-2.279-2.173-3.286-3.392a2.38,2.38,0,0,1-.53-2.544,4.554,4.554,0,0,1,1.8-2.544,6.105,6.105,0,0,1,1.7-.742,3.216,3.216,0,0,0,1.378-.424,2.253,2.253,0,0,0,1.166-1.908,2.173,2.173,0,0,0-.318-1.272,2.261,2.261,0,0,0-1.749-1.166,4.376,4.376,0,0,0-1.643.106,9.865,9.865,0,0,0-1.643.53A9.944,9.944,0,0,0-31.8,15.161a8.959,8.959,0,0,0-2.6,3.021,10.194,10.194,0,0,0-.742,1.749,7.118,7.118,0,0,0-.371,1.431,6.971,6.971,0,0,0,.106,2.332,9.064,9.064,0,0,0,.477,1.59,10.55,10.55,0,0,0,1.908,2.65c.795.9,1.7,1.7,2.544,2.544a11.44,11.44,0,0,1,1.431,1.749,5.952,5.952,0,0,1,.954,2.6,5.84,5.84,0,0,1-.106.954,3.4,3.4,0,0,1-1.166,2.173,9.71,9.71,0,0,1-2.6,1.484l-1.537.636a2.934,2.934,0,0,0-1.113,1.007,2.4,2.4,0,0,0,0,2.385A1.938,1.938,0,0,0-33.072,44.47ZM-8,43.569a2.316,2.316,0,0,0,1.59-1.537,5.384,5.384,0,0,0,.318-1.8c.053-.636,0-1.325,0-1.961V36.626A16.05,16.05,0,0,0-6.2,34.983c0-1.219.053-2.438-.053-3.657-.106-.954-.053-1.961-.106-2.915a10.351,10.351,0,0,1-.159-1.8c0-.053.053-.106,0-.106a.682.682,0,0,1-.053-.636c0-.265-.159-.424-.159-.689a9.886,9.886,0,0,0-.212-1.7c-.053-.53-.265-1.113-.371-1.7a16.753,16.753,0,0,0-.9-2.756A13.688,13.688,0,0,0-9.381,16.7a6.824,6.824,0,0,0-1.166-1.59,2.572,2.572,0,0,0-2.332-.8,1.812,1.812,0,0,0-1.378.742,10.637,10.637,0,0,0-1.484,2.756l-1.378,3.445c-.371,1.06-.848,2.173-1.219,3.286-.636,1.749-1.219,3.551-1.7,5.406-.212.9-.477,1.8-.636,2.7l-.477,2.491c-.159.848-.265,1.643-.371,2.491a7.249,7.249,0,0,0-.106,1.537v.106a1.613,1.613,0,0,0,.053,1.113,2.709,2.709,0,0,0,1.007,1.643,1.63,1.63,0,0,0,1.8.318,2.855,2.855,0,0,0,.689-.371,3.943,3.943,0,0,0,1.113-1.643c.106-.53.159-1.113.265-1.643l.318-2.332a.847.847,0,0,1,.265-.53,3.429,3.429,0,0,1,.424-.477.4.4,0,0,1,.477-.159c.53,0,1.06,0,1.59.053.583.053,1.219.106,1.855.106a.86.86,0,0,1,.477.265,1.787,1.787,0,0,1,.265.9c.053,1.484-.053,2.968.106,4.452A2.864,2.864,0,0,0-9.805,43.2,1.751,1.751,0,0,0-8,43.569ZM-12.3,30.425a1.764,1.764,0,0,1-.742-.053,2.376,2.376,0,0,0-.636-.053,1.048,1.048,0,0,1-.583-.106.623.623,0,0,1-.477-.636,2.692,2.692,0,0,1,.159-.9c.265-.954.636-1.908.954-2.915.318-.742.583-1.537.9-2.332,0-.053.053-.106.106-.212a.4.4,0,0,1,.424-.159c.159,0,.212.159.212.265a5.545,5.545,0,0,1,.212.9c.106.636.159,1.272.318,1.908v.053c-.053.583.106,1.113.106,1.7a6.494,6.494,0,0,1,.106,1.007,2.8,2.8,0,0,1-.053.689A1.078,1.078,0,0,1-12.3,30.425ZM9.116,44.258a2.7,2.7,0,0,0,1.537-.795,2.374,2.374,0,0,0-.265-3.5,4.574,4.574,0,0,0-3.074-.8c-.159,0-.265.053-.371,0a25.991,25.991,0,0,0-2.862-.212H3.074a2.09,2.09,0,0,1-1.06-.265,1,1,0,0,1-.636-.9,6.473,6.473,0,0,1,.053-1.431,3.985,3.985,0,0,1,0-.795,13,13,0,0,0,.106-1.431V32.757c0-.583.106-1.166.053-1.749V30.8c.159-.265.053-.53.053-.742-.053-.265.106-.477.053-.689-.106-.583.053-1.166-.053-1.749V27.51a6.778,6.778,0,0,0,.053-1.8c0-.424.053-.848.053-1.272v-.954a10.348,10.348,0,0,0,.106-1.219,8.983,8.983,0,0,1,.053-1.219c.053-.689.053-1.378.106-2.067a10.821,10.821,0,0,0,0-1.855,11.007,11.007,0,0,0-.265-1.59,3.69,3.69,0,0,0-.583-1.219,2.12,2.12,0,0,0-2.173-.636,2.341,2.341,0,0,0-1.484,1.431,7.464,7.464,0,0,0-.371,2.385v1.378c-.053.371,0,.689-.053,1.007a4.308,4.308,0,0,0-.053,1.166c0,.53-.053,1.06-.053,1.59a8.551,8.551,0,0,1,0,1.166,9.653,9.653,0,0,0-.053,1.749v.265a7.983,7.983,0,0,0-.053,1.59,14.894,14.894,0,0,1-.053,1.537v1.431a7.332,7.332,0,0,0-.053,1.537.1.1,0,0,1,0,.159A12.915,12.915,0,0,0-3.286,33.5a8.206,8.206,0,0,1-.053,1.166c-.053.583-.053,1.113-.053,1.643,0,.424-.053.9-.053,1.325a3.985,3.985,0,0,1,0,.8,7.354,7.354,0,0,0,.212,2.438A3.283,3.283,0,0,0-1.961,42.4a2.881,2.881,0,0,0,1.219.583,8.585,8.585,0,0,0,2.014.477c.477.053,1.007.053,1.537.106a14.485,14.485,0,0,1,2.12.265,10.852,10.852,0,0,1,2.226.371A4.892,4.892,0,0,0,9.116,44.258Zm12.19-1.59a7.182,7.182,0,0,0,1.855-.053,6.2,6.2,0,0,0,1.06-.318,7.016,7.016,0,0,0,1.7-1.06A9.48,9.48,0,0,0,27.4,39.806a10.282,10.282,0,0,0,.8-1.272,15.9,15.9,0,0,0,1.643-3.763,29.759,29.759,0,0,0,.689-3.127c.053-.477.212-.954.265-1.484.106-1.219.318-2.491.424-3.71,0-.8.106-1.537.159-2.332a4.532,4.532,0,0,1,0-.848,4.4,4.4,0,0,0,.053-1.166c0-.424.053-.848.053-1.272,0-.371-.053-.689-.053-1.007a9.079,9.079,0,0,0,.053-1.7,2.3,2.3,0,0,1-.053-.265,3.021,3.021,0,0,0-.265-1.8,2.669,2.669,0,0,0-3.392-1.431,2.28,2.28,0,0,0-1.113,1.007,4.023,4.023,0,0,0-.53,2.491v1.378c-.053.8,0,1.59-.053,2.385a7.067,7.067,0,0,0,0,1.06,8.839,8.839,0,0,0-.106,1.7c0,.9-.159,1.749-.212,2.65-.106,1.166-.318,2.332-.53,3.445a24.343,24.343,0,0,1-1.272,4.77,5.1,5.1,0,0,1-1.06,1.7.987.987,0,0,1-1.219.265A4.316,4.316,0,0,1,20.193,36.2a6.847,6.847,0,0,1-1.431-3.5c-.159-1.537-.424-3.021-.477-4.611a12.286,12.286,0,0,0-.053-1.961v-.159a5.541,5.541,0,0,0,0-1.325c.053-.424,0-.9.053-1.325V21.1c.053-.636.053-1.325.053-1.961a4.284,4.284,0,0,1,.053-.848,2.246,2.246,0,0,0-.371-1.643,2.618,2.618,0,0,0-1.855-1.272,2.655,2.655,0,0,0-1.7.318A2.822,2.822,0,0,0,13.3,17.122a7.345,7.345,0,0,0-.371,2.6v1.272a5.734,5.734,0,0,1,0,.954,6.116,6.116,0,0,0-.053,1.378,11.953,11.953,0,0,1,0,1.378c-.053.8.053,1.59,0,2.438a5.661,5.661,0,0,0,.053,1.325c0,.8.159,1.643.159,2.438a3.976,3.976,0,0,0,.106,1.06c-.053.742.318,1.59.371,2.491a.164.164,0,0,0,.053.106c.212.636.371,1.378.636,2.014a10.72,10.72,0,0,0,1.749,3.021,7.315,7.315,0,0,0,2.12,1.908A7.985,7.985,0,0,0,21.306,42.668Zm13.833,1.219a5.45,5.45,0,0,0,1.855,0,18.3,18.3,0,0,0,3.392-1.166c.636-.318,1.219-.636,1.8-.954A19.844,19.844,0,0,0,45.1,39.594c.8-.742,1.484-1.643,2.226-2.438l1.06-1.378c.318-.424.583-.848.848-1.272.371-.583.689-1.166,1.007-1.749.212-.477.371-.954.583-1.431a13.069,13.069,0,0,0,.9-4.081c0-.318-.106-.636-.106-.954a5.648,5.648,0,0,0-.318-1.643A11.688,11.688,0,0,0,50.191,22a19.2,19.2,0,0,0-1.431-2.173,14.488,14.488,0,0,0-1.749-1.855c-.424-.371-.9-.742-1.378-1.113a22.322,22.322,0,0,0-2.7-1.537,18.758,18.758,0,0,0-1.8-.848,10.807,10.807,0,0,0-3.18-.53c-.265.053-.53-.053-.742.053a7.2,7.2,0,0,0-1.484.583,2.649,2.649,0,0,0-1.378,1.961,12.323,12.323,0,0,0-.265,1.484c-.053.53-.159,1.06-.212,1.59,0,.106.053.159,0,.212a.792.792,0,0,0-.053.689c0,.265-.159.53-.106.795,0,.583-.159,1.166-.106,1.749l-.053.053c-.159.53-.053,1.166-.159,1.749-.106.53-.053,1.113-.106,1.643-.106.9.053,1.8-.106,2.7-.053,2.544.053,5.088-.106,7.579a8.551,8.551,0,0,0,0,1.166,24.23,24.23,0,0,0,.159,3.392,3.892,3.892,0,0,0,.8,1.855A2.009,2.009,0,0,0,35.139,43.887Zm3.6-5.353a.55.55,0,0,1-.689-.424V34.188c-.053-2.12.159-4.4.106-6.678a11.521,11.521,0,0,0,.106-1.908,10.292,10.292,0,0,1,.106-1.272c.159-.53,0-1.113.212-1.643v-.106c-.053-.583.106-1.113.106-1.7,0-.318.106-.583.106-.9a.2.2,0,0,1,.053-.159.9.9,0,0,1,.9-.424,6.235,6.235,0,0,1,1.06.371,15.284,15.284,0,0,1,2.014,1.166,10.848,10.848,0,0,1,1.961,1.855A15.289,15.289,0,0,1,46,24.595a6.187,6.187,0,0,1,.583,1.484,4.65,4.65,0,0,1,.106,1.908,6.057,6.057,0,0,1-.477,1.59A20.415,20.415,0,0,1,43.884,33.6a29.878,29.878,0,0,1-3.5,3.816A5.646,5.646,0,0,1,38.9,38.428Zm26.712,5.035a2.316,2.316,0,0,0,1.59-1.537,5.384,5.384,0,0,0,.318-1.8c.053-.636,0-1.325,0-1.961V36.626a16.05,16.05,0,0,0-.106-1.643c0-1.219.053-2.438-.053-3.657-.106-.954-.053-1.961-.106-2.915a10.35,10.35,0,0,1-.159-1.8c0-.053.053-.106,0-.106a.682.682,0,0,1-.053-.636c0-.265-.159-.424-.159-.689a9.885,9.885,0,0,0-.212-1.7c-.053-.53-.265-1.113-.371-1.7a16.752,16.752,0,0,0-.9-2.756A13.688,13.688,0,0,0,64.077,16.7a6.824,6.824,0,0,0-1.166-1.59,2.572,2.572,0,0,0-2.332-.8,1.812,1.812,0,0,0-1.378.742,10.637,10.637,0,0,0-1.484,2.756l-1.378,3.445c-.371,1.06-.848,2.173-1.219,3.286-.636,1.749-1.219,3.551-1.7,5.406-.212.9-.477,1.8-.636,2.7l-.477,2.491c-.159.848-.265,1.643-.371,2.491a7.249,7.249,0,0,0-.106,1.537v.106a1.613,1.613,0,0,0,.053,1.113,2.709,2.709,0,0,0,1.007,1.643,1.63,1.63,0,0,0,1.8.318,2.855,2.855,0,0,0,.689-.371A3.943,3.943,0,0,0,56.5,40.336c.106-.53.159-1.113.265-1.643l.318-2.332a.847.847,0,0,1,.265-.53,3.429,3.429,0,0,1,.424-.477.4.4,0,0,1,.477-.159c.53,0,1.06,0,1.59.053.583.053,1.219.106,1.855.106a.86.86,0,0,1,.477.265,1.787,1.787,0,0,1,.265.9c.053,1.484-.053,2.968.106,4.452A2.864,2.864,0,0,0,63.653,43.2,1.751,1.751,0,0,0,65.455,43.569ZM61.162,30.425a1.764,1.764,0,0,1-.742-.053,2.376,2.376,0,0,0-.636-.053,1.048,1.048,0,0,1-.583-.106.623.623,0,0,1-.477-.636,2.692,2.692,0,0,1,.159-.9c.265-.954.636-1.908.954-2.915.318-.742.583-1.537.9-2.332,0-.053.053-.106.106-.212a.4.4,0,0,1,.424-.159c.159,0,.212.159.212.265a5.545,5.545,0,0,1,.212.9c.106.636.159,1.272.318,1.908v.053c-.053.583.106,1.113.106,1.7a6.494,6.494,0,0,1,.106,1.007,2.8,2.8,0,0,1-.053.689A1.078,1.078,0,0,1,61.162,30.425ZM73.4,44.205a7.212,7.212,0,0,0,2.12-.212,4.938,4.938,0,0,0,1.643-.689,7.061,7.061,0,0,0,1.537-1.325,9.6,9.6,0,0,0,.954-1.431,8.475,8.475,0,0,0,.742-3.233,15.2,15.2,0,0,0-.265-2.173,8.112,8.112,0,0,0-.742-2.173,12.291,12.291,0,0,0-1.855-2.809.807.807,0,0,1,0-1.219c0-.053.053-.106.106-.159a18.378,18.378,0,0,0,1.325-1.537A12.5,12.5,0,0,0,80.984,23.8a9.142,9.142,0,0,0,.636-3.127c.053-.212-.106-.424-.106-.689a2.935,2.935,0,0,0-.106-.954,8.234,8.234,0,0,0-.9-2.12,6.977,6.977,0,0,0-2.014-2.12,6.89,6.89,0,0,0-3.021-1.06,7.949,7.949,0,0,0-3.657.477,3.006,3.006,0,0,0-1.643,1.484,4.9,4.9,0,0,0-.53,1.961,6.358,6.358,0,0,0-.159,1.06,7.828,7.828,0,0,1-.053,1.113,13,13,0,0,0-.106,1.431c-.106.689-.053,1.378-.106,2.067-.106.848-.053,1.7-.106,2.491-.106,1.484,0,2.968-.106,4.452-.106,1.325,0,2.6,0,4.293a41.734,41.734,0,0,0,.053,4.4c.053.318.053.636.106.954a2.927,2.927,0,0,0,.954,1.537,2.389,2.389,0,0,1,.53.742,3.465,3.465,0,0,0,.689,1.219A3.234,3.234,0,0,0,73.4,44.205Zm1.113-19.557c-.265,0-.371-.053-.371-.371a7.8,7.8,0,0,1,0-1.113,5.734,5.734,0,0,1,0-.954c.106-.53,0-1.166.106-1.7a4.415,4.415,0,0,1,.159-1.166,1.053,1.053,0,0,1,.848-.636.772.772,0,0,1,.636.265,2.14,2.14,0,0,1,.795,1.643,2.872,2.872,0,0,1-.424,1.749,8.109,8.109,0,0,1-1.378,2.12A.791.791,0,0,1,74.518,24.648Zm-.371,14.416c-.106-.053-.212-.106-.212-.265v-.106c.053-.954-.212-1.855-.106-2.65V34.665a1.317,1.317,0,0,1,.053-.424c.053-.053,0-.212.159-.212a.25.25,0,0,1,.318.053,3.026,3.026,0,0,1,.689,1.113,4.653,4.653,0,0,1,.371,1.219,2.819,2.819,0,0,1-.265,2.067l-.159.318C74.783,39.117,74.465,39.064,74.147,39.064Zm21.624,5.194a2.7,2.7,0,0,0,1.537-.795,2.374,2.374,0,0,0-.265-3.5,4.574,4.574,0,0,0-3.074-.8c-.159,0-.265.053-.371,0a25.991,25.991,0,0,0-2.862-.212H89.729a2.09,2.09,0,0,1-1.06-.265,1,1,0,0,1-.636-.9,6.473,6.473,0,0,1,.053-1.431,3.985,3.985,0,0,1,0-.795,13,13,0,0,0,.106-1.431V32.757c0-.583.106-1.166.053-1.749V30.8c.159-.265.053-.53.053-.742-.053-.265.106-.477.053-.689-.106-.583.053-1.166-.053-1.749V27.51a6.778,6.778,0,0,0,.053-1.8c0-.424.053-.848.053-1.272v-.954a10.348,10.348,0,0,0,.106-1.219,8.983,8.983,0,0,1,.053-1.219c.053-.689.053-1.378.106-2.067a10.821,10.821,0,0,0,0-1.855,11.006,11.006,0,0,0-.265-1.59,3.69,3.69,0,0,0-.583-1.219,2.12,2.12,0,0,0-2.173-.636,2.341,2.341,0,0,0-1.484,1.431,7.464,7.464,0,0,0-.371,2.385v1.378c-.053.371,0,.689-.053,1.007a4.309,4.309,0,0,0-.053,1.166c0,.53-.053,1.06-.053,1.59a8.55,8.55,0,0,1,0,1.166,9.652,9.652,0,0,0-.053,1.749v.265a7.983,7.983,0,0,0-.053,1.59,14.894,14.894,0,0,1-.053,1.537v1.431a7.332,7.332,0,0,0-.053,1.537.1.1,0,0,1,0,.159,12.915,12.915,0,0,0-.053,1.431,8.206,8.206,0,0,1-.053,1.166c-.053.583-.053,1.113-.053,1.643,0,.424-.053.9-.053,1.325a3.985,3.985,0,0,1,0,.8,7.354,7.354,0,0,0,.212,2.438A3.283,3.283,0,0,0,84.694,42.4a2.881,2.881,0,0,0,1.219.583,8.585,8.585,0,0,0,2.014.477c.477.053,1.007.053,1.537.106a14.485,14.485,0,0,1,2.12.265,10.852,10.852,0,0,1,2.226.371A4.892,4.892,0,0,0,95.771,44.258Zm9.593-1.272c.583.106,1.166-.106,1.749-.053a13.966,13.966,0,0,0,1.484-.106,2.944,2.944,0,0,0,1.855-.9,1.709,1.709,0,0,0,.477-1.378,2.074,2.074,0,0,0-1.007-1.484,4.54,4.54,0,0,0-2.173-.53c-.583-.053-1.166,0-1.749,0a1.05,1.05,0,0,1-1.166-1.007,7.74,7.74,0,0,1-.159-1.166V33.6c.053-.742.212-.954.954-1.166H106a11.052,11.052,0,0,1,1.325,0,6.127,6.127,0,0,0,1.961-.371,2.354,2.354,0,0,0,1.749-2.332,2.2,2.2,0,0,0-1.378-2.014,5.67,5.67,0,0,0-2.279-.477c-.53.053-1.06,0-1.643.053a.566.566,0,0,1-.477-.371,1.492,1.492,0,0,1-.212-1.06,2.586,2.586,0,0,0,.053-.9c.053-1.272.053-2.491.053-3.71,0-.636.371-1.113,1.007-1.06,1.007,0,1.961-.159,2.915-.159a3.1,3.1,0,0,0,1.007-.106,3.137,3.137,0,0,0,1.961-1.272,2.075,2.075,0,0,0,.053-2.385,3.521,3.521,0,0,0-2.544-1.378c-1.431-.053-2.862.106-4.293.159-.053,0-.053-.053-.106,0-.53.159-1.113.053-1.643.159a8.766,8.766,0,0,0-1.7.371,2.758,2.758,0,0,0-1.8,1.431,2.053,2.053,0,0,0-.159,1.484.585.585,0,0,1,0,.424.784.784,0,0,0,0,.689v.265c.053.742.106,1.431.106,2.12a22.311,22.311,0,0,1-.053,3.763c-.106.636-.053,1.325-.106,1.961-.106.636-.053,1.219-.106,1.855-.106.9-.053,1.749-.106,2.65a24.268,24.268,0,0,0-.053,2.862c.106.742-.053,1.8.106,2.915a9.71,9.71,0,0,0,.477,2.067,3.976,3.976,0,0,0,2.65,2.544A10.969,10.969,0,0,0,105.364,42.986Z" transform="translate(-6892 876.291)" fill="#28dd39"/>
      <g id="Grupo_3210" data-name="Grupo 3210" transform="translate(-6952 694.875)">
        <g id="Grupo_3209" data-name="Grupo 3209" clip-path="url(#clip-path-2)">
          <path id="Trazado_3240" data-name="Trazado 3240" d="M117.237,26.814q0,16.9-.008,33.8c0,1.112.174,1.5.781,1.724.563.209.919.058,1.5-.674V21.879c-.074-.229-.144-.461-.214-.692a11.786,11.786,0,0,0-.549-1.566,9.434,9.434,0,0,0-9.089-5.925c-9.257-.051-18.537-.025-26.508,0a2.427,2.427,0,0,1-2.378-1.352A23.867,23.867,0,0,0,62.7.194a2.912,2.912,0,0,1-.58-.159L62.016,0H57.462c-.394.08-.79.154-1.186.227-.868.161-1.765.328-2.614.562A23.848,23.848,0,0,0,38.79,12.256a2.6,2.6,0,0,1-2.57,1.449c-4.753-.023-9.557-.029-14.316-.029-2.709,0-5.4,0-8.064,0l-3.443,0C3.985,13.686,0,17.688,0,24.126q0,42.514,0,85.028c0,6.293,4.067,10.359,10.36,10.359q41.03,0,82.06,0h16.412c5.782,0,9.038-2.494,10.559-8.087a.776.776,0,0,1,.123-.255V69.025l-.175-.149a2.394,2.394,0,0,0-.684-.477.932.932,0,0,0-.871.079,1.839,1.839,0,0,0-.546,1.507q0,13.244,0,26.487v12.547c0,5.222-2.99,8.217-8.2,8.217H10.45c-5.193,0-8.171-2.962-8.172-8.126q0-42.512,0-85.025c0-5.162,2.98-8.124,8.176-8.126q8.52,0,17.042,0H36.8l-.181.774c-2.834,12.1.6,21.4,10.194,27.663,8.667,5.652,17.772,5.55,26.334-.294,9.262-6.322,12.536-15.53,9.732-27.367l-.184-.776H91.94q8.6,0,17.207,0c5.065,0,8.089,3.029,8.09,8.1ZM78.615,25.275c.475.029.965.021,1.485.014.252,0,.511-.007.779-.007h.686l-.058.684a21.715,21.715,0,0,1-5.165,12.4l-.471.575-.491-.559c-.179-.2-.348-.405-.514-.6a14.326,14.326,0,0,0-1.024-1.135,1.123,1.123,0,1,0-1.6,1.567c.326.347.7.677,1.1,1.027.2.174.4.354.615.547l.531.484-.55.464a21.816,21.816,0,0,1-12.366,5.181l-.691.066v-.694c0-.263,0-.517.006-.765.006-.516.011-1-.011-1.48-.056-1.189-.675-1.315-1.136-1.317s-1.068.147-1.122,1.345c-.02.455-.016.926-.01,1.426,0,.246.005.5.005.77v.686l-.684-.058A21.569,21.569,0,0,1,45.509,40.7l-.575-.476.566-.487c.217-.187.431-.363.64-.533A12.421,12.421,0,0,0,47.3,38.178a1.233,1.233,0,0,0,.358-.881,1.076,1.076,0,0,0-.346-.756,1.17,1.17,0,0,0-1.613.074,7.045,7.045,0,0,0-.769.759,6.68,6.68,0,0,0-.435.6c-.069.1-.138.206-.209.307l-.428.609-.53-.522a20.46,20.46,0,0,1-5.279-12.417l-.038-.666h.667c.232,0,.463,0,.694.006.506.007.985.013,1.464-.012,1.334-.069,1.335-.874,1.336-1.138,0-.458-.136-1.071-1.328-1.119-.458-.019-.932-.014-1.432-.009-.246,0-.5,0-.77,0h-.683l.055-.681a21.576,21.576,0,0,1,5.2-12.467l.482-.585.487.581c.184.219.356.435.523.645a11.88,11.88,0,0,0,1.01,1.163,1.254,1.254,0,0,0,.88.373,1.075,1.075,0,0,0,.756-.342,1.164,1.164,0,0,0-.054-1.611,8.071,8.071,0,0,0-.767-.779c-.181-.161-.382-.315-.615-.492-.115-.088-.237-.18-.366-.281l-.615-.482.6-.5A21.745,21.745,0,0,1,57.927,2.381l.689-.064v.692c0,.249,0,.492-.005.732-.005.508-.01.988.01,1.463.052,1.2.663,1.345,1.118,1.35s1.082-.125,1.14-1.312c.022-.454.017-.906.011-1.429,0-.25-.006-.509-.006-.783V2.349l.679.052A21.659,21.659,0,0,1,73.934,7.515l.563.46-.534.492c-.212.195-.413.375-.605.546-.394.352-.734.656-1.046.983a1.168,1.168,0,0,0-.121,1.735,1.185,1.185,0,0,0,1.747-.171c.326-.316.64-.671.972-1.047.164-.185.333-.377.513-.575l.489-.537.463.559a21.8,21.8,0,0,1,5.138,12.372l.06.684h-.687c-.268,0-.525,0-.776-.005-.521-.006-1.013-.011-1.493.011-1.115.051-1.262.637-1.276,1.074-.023.729.407,1.124,1.275,1.177" transform="translate(0 0.001)" fill="#002e66"/>
          <path id="Trazado_3240_-_Contorno" data-name="Trazado 3240 - Contorno" d="M59.436,120.014H10.361a10.856,10.856,0,0,1-7.893-2.966A10.856,10.856,0,0,1-.5,109.154c0-26.053,0-53.866,0-85.028A11.014,11.014,0,0,1,2.44,16.138,10.922,10.922,0,0,1,10.4,13.182l3.443,0c2.661,0,5.355,0,8.064,0,5.77,0,10.186.009,14.318.029a2.1,2.1,0,0,0,2.134-1.2A24.332,24.332,0,0,1,53.53.306C54.4.066,55.308-.1,56.185-.265c.422-.078.8-.149,1.177-.226l.049-.01H62.1l.079.027.107.038a2.468,2.468,0,0,0,.479.134A24.345,24.345,0,0,1,81.21,12.1a1.946,1.946,0,0,0,1.948,1.1c4.75-.017,9.879-.033,15.174-.033,4.1,0,7.812.009,11.335.029a10.4,10.4,0,0,1,5.721,1.587,10.749,10.749,0,0,1,3.819,4.629,12.126,12.126,0,0,1,.574,1.632c.068.225.137.457.21.681l.024.075V61.839l-.11.137a1.992,1.992,0,0,1-1.479.948h0a1.687,1.687,0,0,1-.591-.117c-.927-.344-1.108-1.065-1.107-2.194.011-10.992.009-22.167.008-32.975V24.055c0-4.825-2.767-7.593-7.59-7.6l-9.534,0H83.331l.038.16c1.418,5.986,1.3,11.381-.357,16.035a24.206,24.206,0,0,1-9.58,11.861,24.036,24.036,0,0,1-13.638,4.547,24.123,24.123,0,0,1-13.251-4.247,24.249,24.249,0,0,1-9.955-11.888c-1.733-4.7-1.886-10.19-.453-16.308l.037-.16H27.5q-8.52,0-17.042,0c-4.949,0-7.675,2.71-7.676,7.626q0,42.512,0,85.025c0,4.917,2.725,7.626,7.672,7.626h98.586c4.966,0,7.7-2.741,7.7-7.717V96.472c0-8.019,0-17.34,0-26.487a2.278,2.278,0,0,1,.752-1.911,1.423,1.423,0,0,1,1.319-.151,2.687,2.687,0,0,1,.854.572l.172.147.178.15v42.542l-.095.131a.279.279,0,0,0-.045.091,10.2,10.2,0,0,1-11.042,8.457ZM21.9,14.176c-2.709,0-5.4,0-8.064,0l-3.443,0c-6.1,0-9.9,3.814-9.9,9.944C.5,55.288.5,83.1.5,109.154c0,5.989,3.871,9.859,9.86,9.859h98.472c5.592,0,8.606-2.308,10.077-7.718a1.238,1.238,0,0,1,.106-.265V69.256h0a2.429,2.429,0,0,0-.514-.381.8.8,0,0,0-.241-.044.291.291,0,0,0-.182.053,1.411,1.411,0,0,0-.339,1.1c0,9.146,0,18.468,0,26.487v12.547a7.966,7.966,0,0,1-8.7,8.717H10.45a8.814,8.814,0,0,1-6.386-2.272,8.714,8.714,0,0,1-2.286-6.354q0-42.512,0-85.025a8.709,8.709,0,0,1,2.287-6.353,8.825,8.825,0,0,1,6.388-2.274q8.521,0,17.042,0h9.939l-.325,1.388c-2.781,11.87.577,21,9.98,27.13a23.143,23.143,0,0,0,12.7,4.084,23.058,23.058,0,0,0,13.074-4.373C81.942,37.5,85.148,28.465,82.4,16.849l-.329-1.391H99.613l9.534,0a8.663,8.663,0,0,1,6.3,2.3,8.669,8.669,0,0,1,2.292,6.3v3.582c0,10.808,0,21.984-.008,32.976,0,1.086.17,1.15.455,1.255a.726.726,0,0,0,.243.055c.1,0,.258-.053.588-.44V21.958c-.067-.21-.131-.422-.192-.627a11.406,11.406,0,0,0-.524-1.5,8.968,8.968,0,0,0-8.638-5.635c-3.521-.019-7.228-.029-11.33-.029-5.293,0-10.421.016-15.173.033a2.934,2.934,0,0,1-2.811-1.6A23.389,23.389,0,0,0,62.628.689a3.351,3.351,0,0,1-.675-.182l-.007,0L61.931.5H57.513c-.368.074-.737.143-1.144.219-.857.159-1.743.324-2.573.553A23.364,23.364,0,0,0,39.224,12.5a3.094,3.094,0,0,1-3,1.7C32.088,14.185,27.673,14.176,21.9,14.176Zm38.48,32.358V45.289c0-.273,0-.537.006-.771V44.5c.006-.5.011-.978-.011-1.436-.04-.835-.356-.839-.636-.841-.261,0-.584.009-.623.868-.02.447-.015.93-.01,1.4,0,.242.005.5.005.775V46.5l-1.226-.1a22.047,22.047,0,0,1-12.7-5.3l-1.032-.854,1.016-.873c.214-.184.42-.354.649-.541a12.072,12.072,0,0,0,1.111-.986.739.739,0,0,0,.222-.522.579.579,0,0,0-.188-.406.545.545,0,0,0-.382-.154.891.891,0,0,0-.563.241,6.558,6.558,0,0,0-.714.7,6.33,6.33,0,0,0-.4.556l-.019.028c-.064.094-.129.192-.2.288l-.767,1.092-.951-.937a21,21,0,0,1-5.427-12.745l-.068-1.194h1.2c.239,0,.477,0,.7.006.249,0,.455.006.663.006.3,0,.54-.006.768-.017.861-.045.861-.4.861-.64,0-.261,0-.585-.848-.619-.22-.009-.46-.013-.758-.013-.2,0-.405,0-.615,0h-.1c-.228,0-.465,0-.713,0H37.414l.1-1.221A22.054,22.054,0,0,1,42.828,9.551l.865-1.05.874,1.042c.194.23.373.456.531.655l0,0a11.477,11.477,0,0,0,.961,1.11.766.766,0,0,0,.521.234h.007a.577.577,0,0,0,.4-.188.681.681,0,0,0-.072-.941,7.569,7.569,0,0,0-.72-.73c-.17-.152-.371-.3-.585-.467-.115-.088-.24-.182-.371-.286l-1.1-.864,1.078-.9A22.223,22.223,0,0,1,57.881,1.884l1.235-.115V3.009c0,.261,0,.518-.005.738-.005.5-.01.974.01,1.436.038.866.363.869.623.872h.019c.256,0,.575,0,.616-.837.021-.432.017-.869.011-1.374V3.78c0-.24-.006-.488-.006-.751V1.809L61.6,1.9A22.143,22.143,0,0,1,74.251,7.128l1.009.824-.959.882c-.209.192-.408.37-.611.551l-.008.007c-.383.342-.713.638-1.01.948-.173.181-.532.643-.134,1.032a.532.532,0,0,0,.381.17,1.038,1.038,0,0,0,.67-.342c.316-.306.636-.668.944-1.018l.042-.048c.152-.172.309-.349.476-.533l.876-.963.831,1A22.28,22.28,0,0,1,82.011,22.29l.107,1.228H80.885c-.281,0-.551,0-.781-.005-.209,0-.446,0-.67,0-.31,0-.563,0-.795.015-.782.036-.791.343-.8.59-.01.31.045.616.806.662.223.013.468.02.771.02.213,0,.429,0,.658-.006h.058c.24,0,.489-.007.748-.007h1.23l-.1,1.226a22.193,22.193,0,0,1-5.276,12.677l-.844,1.031-.88-1c-.183-.208-.355-.413-.521-.61a13.93,13.93,0,0,0-.987-1.1.841.841,0,0,0-.564-.261.551.551,0,0,0-.4.17.65.65,0,0,0,.073.955c.306.326.669.645,1.053.983l.039.034c.192.168.39.342.6.53l.953.868-.985.832a22.3,22.3,0,0,1-12.641,5.3Zm-.642-5.307h0c1.013.006,1.577.626,1.632,1.794.023.487.017.976.012,1.494v.016c0,.231-.006.493-.006.76v.143l.143-.014a21.331,21.331,0,0,0,12.092-5.066l.114-.1-.11-.1c-.2-.182-.394-.353-.582-.518L73,39.6c-.4-.354-.783-.688-1.121-1.049a1.637,1.637,0,0,1-.046-2.351,1.559,1.559,0,0,1,1.1-.457,1.83,1.83,0,0,1,1.255.538,14.648,14.648,0,0,1,1.061,1.175c.163.194.332.394.508.595l.1.115.1-.119a21.237,21.237,0,0,0,5.054-12.128l.012-.141h-.142c-.252,0-.5,0-.734.007h-.058c-.232,0-.452.006-.672.006-.323,0-.587-.007-.831-.022-1.14-.069-1.776-.686-1.745-1.692.031-.969.637-1.507,1.753-1.558.248-.011.515-.016.84-.016.229,0,.469,0,.681,0,.228,0,.494.005.77.005h.142l-.012-.141a21.311,21.311,0,0,0-5.025-12.1l-.1-.116-.1.111c-.162.179-.317.353-.467.523l-.042.048c-.321.364-.654.741-1,1.075a1.985,1.985,0,0,1-1.365.623,1.526,1.526,0,0,1-1.078-.453A1.668,1.668,0,0,1,71.95,9.65c.323-.338.667-.646,1.066-1l.008-.007c.208-.186.4-.354.6-.542l.11-.1-.116-.1a21.175,21.175,0,0,0-12.093-5l-.14-.011v.141c0,.257,0,.5.006.74v.063c.006.521.011.972-.012,1.434-.056,1.153-.63,1.788-1.615,1.788h-.03c-1-.01-1.56-.642-1.612-1.828-.021-.489-.016-.975-.011-1.491,0-.218.005-.471.005-.726V2.866l-.142.013A21.266,21.266,0,0,0,45.856,7.945l-.124.1.127.1c.126.1.247.191.36.277.23.175.446.34.646.517a8.574,8.574,0,0,1,.815.828,1.662,1.662,0,0,1,.035,2.28,1.571,1.571,0,0,1-1.107.5h-.024a1.758,1.758,0,0,1-1.213-.513,12.185,12.185,0,0,1-1.05-1.207l0-.005c-.155-.194-.33-.414-.515-.635l-.1-.121-.1.121a21.1,21.1,0,0,0-5.091,12.189l-.011.141h.141c.245,0,.478,0,.7,0h.1c.213,0,.42,0,.624,0,.312,0,.565,0,.8.014,1.167.047,1.809.622,1.808,1.619s-.644,1.576-1.81,1.637c-.246.013-.506.019-.82.019-.214,0-.424,0-.677-.006-.22,0-.454-.006-.687-.006h-.138l.008.138a19.919,19.919,0,0,0,5.131,12.09l.109.108.088-.126c.062-.088.122-.177.185-.271l.018-.027a7.034,7.034,0,0,1,.468-.645,7.535,7.535,0,0,1,.823-.814,1.885,1.885,0,0,1,1.217-.484,1.535,1.535,0,0,1,1.064.423,1.572,1.572,0,0,1,.5,1.105,1.729,1.729,0,0,1-.494,1.241,12.765,12.765,0,0,1-1.2,1.071c-.225.184-.427.35-.632.526l-.117.1.119.1A21.091,21.091,0,0,0,57.975,45.4l.141.012v-.142c0-.266,0-.524-.005-.764-.005-.482-.01-.979.011-1.454.054-1.185.613-1.815,1.618-1.823Z" transform="translate(0 0.001)" fill="#002e66"/>
          <path id="Trazado_3241" data-name="Trazado 3241" d="M127.621,71.888c-5.537-.039-11.091-.027-16.269-.008-.863,0-1.237.386-1.29,1.321-.02.356-.036.712-.051,1.068-.034.776-.07,1.578-.151,2.372A30.865,30.865,0,0,1,74.8,103.882,30.826,30.826,0,0,1,48.413,73.673c-.019-1.549-.279-1.8-1.852-1.8q-7.489,0-14.978,0c-2.317,0-3.138.831-3.138,3.172q0,40.749,0,81.5c0,2.411.81,3.225,3.208,3.226q21.7.007,43.4.008c.094,0,.188,0,.281,0a4.276,4.276,0,0,0,.786-.032,1.126,1.126,0,0,0-.053-2.245,4.689,4.689,0,0,0-.667-.014c-.105,0-.211,0-.316,0H30.793V74.224H46.06l.032.6a33.343,33.343,0,0,0,31.015,31.573,31.8,31.8,0,0,0,20.871-5.787c8.734-6.135,13.576-14.809,14.393-25.781l.043-.583h15.311V157.49h-6.63q-17.979,0-35.958.009c-.11-.006-.215,0-.324,0s-.2,0-.292,0a2.267,2.267,0,0,0-.527.048,1.123,1.123,0,0,0,.078,2.219,4.275,4.275,0,0,0,.745.023c.111,0,.222-.005.332-.005l41.515-.008c2.612,0,3.367-.77,3.367-3.429V75.027c0-.257,0-.5-.009-.738a2.38,2.38,0,0,0-2.4-2.4" transform="translate(-19.48 -49.216)" fill="#002e66"/>
          <path id="Trazado_3241_-_Contorno" data-name="Trazado 3241 - Contorno" d="M84.512,160.285a3.22,3.22,0,0,1-.52-.034,1.622,1.622,0,0,1-.117-3.2,2.773,2.773,0,0,1,.646-.062c.1,0,.207,0,.3,0s.206,0,.324,0q17.972-.006,35.945-.009h6.13V74.743H112.877l-.009.12c-.828,11.129-5.742,19.928-14.6,26.153a32.131,32.131,0,0,1-18.811,5.956c-.783,0-1.584-.027-2.38-.079A33.844,33.844,0,0,1,45.592,74.847l-.007-.123H31.293V156.99H75.086c.081,0,.162,0,.243,0h.064c.1,0,.2,0,.3,0a3.607,3.607,0,0,1,.441.023,1.625,1.625,0,0,1,.079,3.234,3.611,3.611,0,0,1-.613.043c-.088,0-.177,0-.269,0s-.182,0-.272,0c-13.824,0-28.562,0-43.4-.008a3.8,3.8,0,0,1-2.858-.856,3.841,3.841,0,0,1-.85-2.869q0-40.75,0-81.5a3.768,3.768,0,0,1,.845-2.815,3.739,3.739,0,0,1,2.793-.857q7.489,0,14.979,0a2.536,2.536,0,0,1,1.858.462,2.454,2.454,0,0,1,.494,1.834,30.463,30.463,0,0,0,30.428,30.054,30.426,30.426,0,0,0,30.022-27.13c.079-.781.115-1.575.149-2.343.016-.351.032-.714.052-1.073.068-1.2.652-1.789,1.787-1.794,2.276-.008,5.277-.018,8.31-.018,2.907,0,5.512.008,7.965.026a2.825,2.825,0,0,1,2.025.815,3.106,3.106,0,0,1,.871,2.055c.015.258.013.52.01.773v81.307c0,2.936-.976,3.928-3.867,3.929l-41.516.008c-.094,0-.188,0-.288,0h-.052C84.707,160.283,84.608,160.285,84.512,160.285Zm.008-2.295a1.877,1.877,0,0,0-.408.033c-.513.125-.545.354-.534.64.014.339.106.525.573.6a2.325,2.325,0,0,0,.361.022c.089,0,.181,0,.274,0h.051c.1,0,.206,0,.311,0l41.515-.008c2.331,0,2.867-.548,2.867-2.929V75.024c0-.25,0-.483-.009-.706a1.881,1.881,0,0,0-1.905-1.93c-2.45-.017-5.053-.026-7.958-.026-3.032,0-6.032.01-8.306.018-.549,0-.752.131-.792.849-.02.354-.036.714-.051,1.062-.035.782-.07,1.591-.153,2.4A30.883,30.883,0,0,1,98.409,98.1a31.631,31.631,0,0,1-9.06,4.935,30.523,30.523,0,0,1-10.009,1.684A31.463,31.463,0,0,1,47.913,73.679a2.16,2.16,0,0,0-.192-1.129,2.265,2.265,0,0,0-1.161-.179q-7.488,0-14.978,0c-2.047,0-2.639.6-2.639,2.672q0,40.749,0,81.5c0,2.139.582,2.725,2.708,2.726,14.841,0,29.579.006,43.4.008.1,0,.193,0,.29,0l.252,0a2.587,2.587,0,0,0,.44-.028c.519-.091.615-.3.606-.641s-.116-.551-.634-.616a2.654,2.654,0,0,0-.318-.015c-.088,0-.18,0-.274,0h-.066c-.088,0-.175,0-.262,0H30.293V73.724H46.534l.057,1.07a32.843,32.843,0,0,0,30.548,31.1c.775.051,1.553.077,2.315.077A31.149,31.149,0,0,0,97.69,100.2c8.605-6.045,13.376-14.593,14.181-25.408l.077-1.046h16.275V157.99h-7.13q-17.979,0-35.958.009h-.027c-.094-.005-.2,0-.309,0C84.708,157.992,84.611,157.99,84.52,157.99Z" transform="translate(-19.48 -49.216)" fill="#002e66"/>
          <path id="Trazado_3242" data-name="Trazado 3242" d="M160.57,281.338c.02-2.715.02-5.489,0-8.245-.015-2.085-.833-2.9-2.915-2.9q-21.815-.006-43.63,0c-2.077,0-2.893.816-2.908,2.909-.02,2.757-.011,5.549,0,8.012.008,2.383.775,3.148,3.158,3.148h27.564q7.857,0,15.712,0c2.186,0,3.005-.794,3.021-2.926m-2.275-1.089c0,.228-.015.453-.03.691-.007.113-.015.233-.021.362l-.031.6H113.462V272.56H158.3v2.373c0,1.8,0,3.56,0,5.316" transform="translate(-76.092 -185.045)" fill="#002e66"/>
          <path id="Trazado_3242_-_Contorno" data-name="Trazado 3242 - Contorno" d="M147.611,284.766H114.272c-2.658,0-3.649-.989-3.658-3.647v-.05c-.008-2.449-.017-5.226,0-7.967a3.5,3.5,0,0,1,.827-2.589,3.453,3.453,0,0,1,2.581-.816q21.814-.006,43.63,0a2.949,2.949,0,0,1,3.415,3.394c.02,2.758.02,5.535,0,8.252a3.481,3.481,0,0,1-.849,2.618,3.662,3.662,0,0,1-2.672.8Q152.58,284.766,147.611,284.766Zm-11.759-1h5.985q7.857,0,15.711,0c1.918,0,2.507-.569,2.521-2.43.02-2.712.02-5.484,0-8.237-.013-1.818-.6-2.4-2.415-2.4q-21.815-.006-43.629,0c-1.81,0-2.395.587-2.408,2.413-.02,2.736-.011,5.51,0,7.957v.05c.007,2.1.554,2.65,2.658,2.65h21.579Zm22.836-1.366H112.962V272.06H158.8v2.946c0,1.806,0,3.511,0,5.244,0,.24-.015.469-.03.712l-.005.087c-.006.088-.011.181-.016.279Zm-44.725-1h43.776l.006-.123c.005-.1.011-.2.017-.289l.006-.089c.014-.226.028-.44.028-.65,0-1.732,0-3.437,0-5.242V273.06H113.962Z" transform="translate(-76.092 -185.045)" fill="#002e66"/>
          <path id="Trazado_3243" data-name="Trazado 3243" d="M176.856,46.147a1.748,1.748,0,0,1-1.783-1.18c-.525-1.242-1.127-2.559-1.892-4.147a1.274,1.274,0,0,0-1.1-.848,1.156,1.156,0,0,0-.479.11,1.172,1.172,0,0,0-.482,1.671c.623,1.44,1.161,2.638,1.761,3.807a2.211,2.211,0,0,1-.309,2.74,5.242,5.242,0,0,0-.113,6.354,5.388,5.388,0,1,0,4.4-8.507m2.153,7.593a3.077,3.077,0,0,1-2.167.885h-.035a3.1,3.1,0,1,1,2.2-.884" transform="translate(-117.088 -27.375)" fill="#002e66"/>
          <path id="Trazado_3243_-_Contorno" data-name="Trazado 3243 - Contorno" d="M176.818,57.411h0a5.864,5.864,0,0,1-4.769-2.467,5.743,5.743,0,0,1,.135-6.962,1.718,1.718,0,0,0,.251-2.194c-.606-1.18-1.148-2.387-1.775-3.836a1.653,1.653,0,0,1,1.419-2.48,1.767,1.767,0,0,1,1.554,1.131c.771,1.6,1.375,2.924,1.9,4.169a1.255,1.255,0,0,0,1.337.875,6.149,6.149,0,0,1,4.194,1.733,5.8,5.8,0,0,1,1.674,4.133,5.931,5.931,0,0,1-5.921,5.9Zm-4.74-16.939a.664.664,0,0,0-.272.065c-.506.228-.329.787-.229,1.017.62,1.431,1.154,2.621,1.747,3.777a2.707,2.707,0,0,1-.368,3.286,4.742,4.742,0,0,0-.092,5.747,4.862,4.862,0,0,0,3.954,2.046h0a4.931,4.931,0,0,0,4.921-4.9,4.831,4.831,0,0,0-4.9-4.869,2.236,2.236,0,0,1-2.228-1.484c-.52-1.23-1.118-2.541-1.882-4.125C172.63,40.826,172.409,40.472,172.079,40.472Zm4.764,14.652H176.8a3.573,3.573,0,1,1,.043,0Zm-.015-6.209a2.6,2.6,0,0,0-.014,5.209h.029a2.6,2.6,0,0,0,2.6-2.578,2.609,2.609,0,0,0-2.57-2.63Z" transform="translate(-117.088 -27.375)" fill="#002e66"/>
        </g>
      </g>
    </g>
  </g>
</svg>
