<svg xmlns="http://www.w3.org/2000/svg" xmlns:xlink="http://www.w3.org/1999/xlink" width="145" height="148" viewBox="0 0 145 148">
  <defs>
    <clipPath id="clip-path">
      <rect id="Rectángulo_695" data-name="Rectángulo 695" width="140.796" height="140.796" fill="none"/>
    </clipPath>
    <clipPath id="clip-icono-presion">
      <rect width="145" height="148"/>
    </clipPath>
  </defs>
  <g id="icono-presion" clip-path="url(#clip-icono-presion)">
    <g id="Grupo_10270" data-name="Grupo 10270" transform="translate(2 3.602)" clip-path="url(#clip-path)">
      <path id="Trazado_13808" data-name="Trazado 13808" d="M140.8,70.4A70.4,70.4,0,1,1,70.4,0a70.4,70.4,0,0,1,70.4,70.4" transform="translate(0 0)" fill="#4b428f"/>
      <path id="Trazado_13809" data-name="Trazado 13809" d="M102.827,85.619a28.507,28.507,0,0,1-17.762-6.164,28.823,28.823,0,0,1-5-5.076A28.694,28.694,0,0,1,76.32,46.043,2.209,2.209,0,0,1,80.4,47.728a24.279,24.279,0,0,0,3.166,23.964A24.258,24.258,0,1,0,105.4,32.858a2.209,2.209,0,0,1,.463-4.394,28.662,28.662,0,0,1,.365,56.958,29.845,29.845,0,0,1-3.406.2" transform="translate(-18.629 -7.147)" fill="#fff"/>
      <path id="Trazado_13810" data-name="Trazado 13810" d="M102.741,85.831a28.9,28.9,0,1,1,28.9-28.9,28.936,28.936,0,0,1-28.9,28.9m0-53.391a24.487,24.487,0,1,0,24.486,24.486A24.514,24.514,0,0,0,102.741,32.44" transform="translate(-18.546 -7.039)" fill="#fff"/>
      <path id="Trazado_13811" data-name="Trazado 13811" d="M116.844,117.423h-15.5a2.209,2.209,0,0,1-2.209-2.209V103.537a2.209,2.209,0,0,1,2.209-2.208h15.5a2.209,2.209,0,0,1,2.208,2.208v11.676a2.209,2.209,0,0,1-2.208,2.209m-13.289-4.417h11.08v-7.259h-11.08Z" transform="translate(-24.901 -25.451)" fill="#fff"/>
      <path id="Trazado_13812" data-name="Trazado 13812" d="M113.936,131.467h-6.744a2.21,2.21,0,0,1-2.209-2.208v-9.44a2.21,2.21,0,0,1,2.209-2.209h6.744a2.209,2.209,0,0,1,2.209,2.209v9.44a2.209,2.209,0,0,1-2.209,2.208m-4.535-4.417h2.327v-5.023H109.4Z" transform="translate(-26.369 -29.54)" fill="#fff"/>
      <path id="Trazado_13813" data-name="Trazado 13813" d="M109.671,73.738a8.244,8.244,0,1,1,8.244-8.244,8.254,8.254,0,0,1-8.244,8.244m0-12.07a3.827,3.827,0,1,0,3.827,3.827,3.831,3.831,0,0,0-3.827-3.827" transform="translate(-25.476 -14.38)" fill="#fff"/>
      <path id="Trazado_13814" data-name="Trazado 13814" d="M118.159,62.541a2.209,2.209,0,0,1-1.561-3.77l6.619-6.619a2.209,2.209,0,1,1,3.123,3.123l-6.62,6.619a2.2,2.2,0,0,1-1.561.647" transform="translate(-29.124 -12.937)" fill="#fff"/>
      <path id="Trazado_13815" data-name="Trazado 13815" d="M128.267,93.116a2.2,2.2,0,0,1-1.561-.647l-5.687-5.687a2.209,2.209,0,0,1,3.123-3.123l5.687,5.687a2.209,2.209,0,0,1-1.561,3.77" transform="translate(-30.234 -20.85)" fill="#fff"/>
      <path id="Trazado_13816" data-name="Trazado 13816" d="M90.707,93.328a2.209,2.209,0,0,1-1.734-3.575l4.973-6.322a2.209,2.209,0,0,1,3.471,2.732l-4.972,6.322a2.2,2.2,0,0,1-1.737.842" transform="translate(-22.229 -20.744)" fill="#fff"/>
      <path id="Trazado_13817" data-name="Trazado 13817" d="M64.265,129.22a18.194,18.194,0,0,1-18.192-18.212l.011-12.246c.409-14.453.708-26.553.233-28.639-.007-.013-.016-.026-.022-.04a.909.909,0,0,0-.078-.108,3.493,3.493,0,0,1-3.2-3.436v-1.3A3.269,3.269,0,0,0,42.773,64a15.655,15.655,0,0,1-3.824-4.555,16.662,16.662,0,0,1-.928-13.426A13.038,13.038,0,0,1,42.8,39.667a10.939,10.939,0,0,1,8.887-1.918c4.3,1.106,7.508,5.259,7.978,10.333a2.208,2.208,0,0,1-4.4.409c-.294-3.172-2.22-5.83-4.68-6.462a6.609,6.609,0,0,0-5.3,1.288,8.685,8.685,0,0,0-3.155,4.312,12.238,12.238,0,0,0,.676,9.673,11.334,11.334,0,0,0,3.063,3.52,2.225,2.225,0,0,1,.588.679,7.686,7.686,0,0,1,.973,3.74v.455A4.534,4.534,0,0,1,50,67.675c1.1,1.3,1.274,3.994.5,31.152L50.49,111a13.779,13.779,0,0,0,13.776,13.8h.027l19.2-.037a7.759,7.759,0,0,0,7.72-7.672l.066-7.985a2.209,2.209,0,0,1,2.209-2.19h.019a2.209,2.209,0,0,1,2.19,2.227l-.067,7.986A12.193,12.193,0,0,1,83.5,129.184l-19.2.036ZM46.658,70.566l0,0,0,0m-.174-.572h0Z" transform="translate(-9.292 -9.41)" fill="#fff"/>
      <path id="Trazado_13818" data-name="Trazado 13818" d="M52.8,76.593H47.248a2.209,2.209,0,1,1,0-4.417h3.558v-.887a5.459,5.459,0,0,1,1.059-3.234,2.205,2.205,0,0,1,.723-.634,9.833,9.833,0,0,0,2.841-2.33,2.208,2.208,0,0,1,3.388,2.833,14.19,14.19,0,0,1-3.546,3.048,1.092,1.092,0,0,0-.048.318v2.878A2.429,2.429,0,0,1,52.8,76.593" transform="translate(-11.313 -16.15)" fill="#fff"/>
      <path id="Trazado_13819" data-name="Trazado 13819" d="M92.6,52.311A2.2,2.2,0,0,1,91.4,51.96L85.716,48.3a2.209,2.209,0,0,1,2.39-3.716l5.687,3.657a2.209,2.209,0,0,1-1.2,4.067" transform="translate(-21.275 -11.111)" fill="#fff"/>
    </g>
  </g>
</svg>
