<svg xmlns="http://www.w3.org/2000/svg" xmlns:xlink="http://www.w3.org/1999/xlink" width="145" height="148" viewBox="0 0 145 148">
  <defs>
    <clipPath id="clip-icono-colesterol">
      <rect width="145" height="148"/>
    </clipPath>
  </defs>
  <g id="icono-colesterol" clip-path="url(#clip-icono-colesterol)">
    <g id="Grupo_10265" data-name="Grupo 10265" transform="translate(19139 -10991.812)">
      <path id="Trazado_663" data-name="Trazado 663" d="M141.6,70.8A70.8,70.8,0,1,1,70.8,0a70.8,70.8,0,0,1,70.8,70.8" transform="translate(-19137 10994.812)" fill="#de9104"/>
      <path id="Trazado_664" data-name="Trazado 664" d="M83.5,126.757c-13.166,0-26.228-8.9-30.285-20.92-2.668-7.9-.819-15.475.286-20,1.354-5.55,3.933-10.225,8.616-18.714,2.4-4.353,3.668-6.339,4.893-8.259,1.092-1.714,2.124-3.333,3.939-6.6,3.44-6.2,5.987-11.642,7.847-15.619,2.987-6.385,3.8-8.1,6.158-7.255l0,0c1.841.658,1.652,2.619,1.548,3.674-.027.289-.059.613-.078.959-.259,4.595,2.317,8.528,9.963,20.206l3.242,4.958c.673,1.027,1.069,1.634,1.276,1.957,7.683,12.023,14.317,22.4,14.442,32.411.085,6.906-2.918,14.805-8.035,21.132C101.483,121.9,93.68,126.164,85.341,126.7c-.614.039-1.23.058-1.843.058m-.905-87.745C80.728,43,78.21,48.34,74.833,54.422c-1.881,3.385-3,5.138-4.079,6.831-1.187,1.863-2.415,3.788-4.748,8.018-4.837,8.769-7.026,12.848-8.192,17.62-.99,4.056-2.648,10.843-.393,17.525,3.186,9.442,14.416,18.7,27.635,17.849,15.983-1.025,25.987-17.657,25.851-28.656-.107-8.738-6.425-18.624-13.742-30.071-.2-.314-.591-.91-1.251-1.92l-3.241-4.956c-5.769-8.811-8.86-13.533-10.081-17.649" transform="translate(-19149.799 10987.605)" fill="#fff"/>
      <path id="Trazado_665" data-name="Trazado 665" d="M89.695,128.138c-1.707,0-9.014-.519-14.1-9.027-5.588-9.338-.8-20.722-.6-21.2a1.716,1.716,0,0,1,3.153,1.354c-.045.1-4.29,10.272.386,18.089,4.559,7.618,11.036,7.35,11.3,7.356a1.726,1.726,0,0,1,1.807,1.61,1.708,1.708,0,0,1-1.592,1.812c-.036,0-.16.008-.355.008" transform="translate(-19154.996 10970.895)" fill="#fff"/>
      <path id="Trazado_666" data-name="Trazado 666" d="M89.456,128.637c-1.523,0-9.394-.453-14.739-9.389-5.765-9.631-.855-21.378-.644-21.872a2.456,2.456,0,0,1,4.516,1.933c-.043.1-4.144,9.925.34,17.419,4.013,6.709,9.543,7.013,10.624,7a2.437,2.437,0,0,1,1.75.607,2.452,2.452,0,0,1-1.444,4.3c-.032,0-.175.01-.4.01M76.323,97.37a.946.946,0,0,0-.354.069.971.971,0,0,0-.535.52c-.2.465-4.829,11.538.553,20.528,4.936,8.251,12.087,8.669,13.469,8.669.16,0,.262,0,.3-.006a.97.97,0,0,0,.572-1.707.918.918,0,0,0-.676-.24h-.058c-1.416,0-7.569-.423-11.931-7.714-4.886-8.167-.474-18.666-.428-18.768a.975.975,0,0,0-.517-1.269.986.986,0,0,0-.392-.082" transform="translate(-19154.758 10971.137)" fill="#fff"/>
      <path id="Trazado_667" data-name="Trazado 667" d="M89.634,128.262a14.842,14.842,0,0,1-5.86-1.339,18.722,18.722,0,0,1-8.4-7.777c-5.642-9.427-.816-20.887-.609-21.371a1.9,1.9,0,0,1,3.494,1.5c-.043.1-4.262,10.167.377,17.922,4.122,6.891,9.877,7.266,11.071,7.266h.03A1.9,1.9,0,1,1,90,128.255c-.035,0-.162.007-.366.007M76.5,97a1.543,1.543,0,0,0-.566.108,1.52,1.52,0,0,0-.836.817c-.2.476-4.96,11.768.586,21.032.892,1.493,5.761,8.938,13.945,8.938.187,0,.306,0,.34-.008a1.53,1.53,0,0,0-.188-3.053H89.7c-1.231,0-7.165-.385-11.391-7.445-4.736-7.917-.442-18.155-.4-18.257A1.534,1.534,0,0,0,76.5,97" transform="translate(-19154.936 10970.955)" fill="#fff"/>
      <path id="Trazado_668" data-name="Trazado 668" d="M89.457,128.634a15.4,15.4,0,0,1-6.085-1.386,19.254,19.254,0,0,1-8.655-8c-5.759-9.622-.853-21.378-.642-21.873a2.456,2.456,0,0,1,4.515,1.935c-.041.1-4.133,9.936.343,17.419,3.982,6.658,9.524,7,10.594,7a2.468,2.468,0,0,1,2.617,2.309,2.457,2.457,0,0,1-2.282,2.594c-.03,0-.173.008-.4.008M76.327,97.369a.984.984,0,0,0-.361.069.963.963,0,0,0-.529.52c-.2.467-4.855,11.5.551,20.528.866,1.448,5.582,8.667,13.469,8.667.158,0,.261,0,.3-.006a.974.974,0,0,0,.913-1.028.985.985,0,0,0-.338-.677,1,1,0,0,0-.685-.24h-.005c-1.337,0-7.587-.38-11.976-7.714-4.882-8.158-.479-18.656-.435-18.76a.972.972,0,0,0-.511-1.278.974.974,0,0,0-.388-.081" transform="translate(-19154.758 10971.138)" fill="#fff"/>
      <rect id="Rectángulo_281" data-name="Rectángulo 281" width="141.6" height="141.6" transform="translate(-19137 10994.812)" fill="none"/>
    </g>
  </g>
</svg>
