<svg xmlns="http://www.w3.org/2000/svg" width="28.5" height="28.5" viewBox="0 0 28.5 28.5">
  <path id="Icon_awesome-facebook-square" data-name="Icon awesome-facebook-square" d="M25.446,2.25H3.054A3.054,3.054,0,0,0,0,5.3V27.7A3.054,3.054,0,0,0,3.054,30.75h8.731V21.061H7.777V16.5h4.008V13.024c0-3.954,2.354-6.138,5.959-6.138a24.28,24.28,0,0,1,3.532.308v3.881H19.286a2.28,2.28,0,0,0-2.571,2.464V16.5h4.376l-.7,4.561H16.715V30.75h8.731A3.054,3.054,0,0,0,28.5,27.7V5.3A3.054,3.054,0,0,0,25.446,2.25Z" transform="translate(0 -2.25)" fill="#fff"/>
</svg>
