<svg xmlns="http://www.w3.org/2000/svg" xmlns:xlink="http://www.w3.org/1999/xlink" width="145" height="148" viewBox="0 0 145 148">
  <defs>
    <clipPath id="clip-icono-peso">
      <rect width="145" height="148"/>
    </clipPath>
  </defs>
  <g id="icono-peso" clip-path="url(#clip-icono-peso)">
    <g id="Grupo_10266" data-name="Grupo 10266" transform="translate(18646 -9934.312)">
      <path id="Trazado_669" data-name="Trazado 669" d="M141.6,70.8A70.8,70.8,0,1,1,70.8,0a70.8,70.8,0,0,1,70.8,70.8" transform="translate(-18644 9937.312)" fill="#15be56"/>
      <path id="Trazado_670" data-name="Trazado 670" d="M67.3,125.5a2.221,2.221,0,1,1,0-4.443H111.23c.548-.013,5.873-.253,9.031-4.566a11.312,11.312,0,0,0,2.1-7.028l-.773-58.036a6.612,6.612,0,0,0-.668-2.936,7.785,7.785,0,0,0-3.656-3.332c-2.945-1.507-6.21-1.4-13.307-.989-1.257.071-2.06.143-2.626.194a7.71,7.71,0,0,1-2.637-.063,10.954,10.954,0,0,1-5.75-3.3,16.046,16.046,0,0,0-3.935-2.9,17.593,17.593,0,0,0-7.648-1.85,20.724,20.724,0,0,0-6.831,1.078,21.382,21.382,0,0,0-4.358,2,14.418,14.418,0,0,0-4.775,4.71c-1,1.588-3.564,5.637-2.25,8.271.77,1.545,2.854,2.266,5.948,3.19a22.214,22.214,0,0,0,9.279.721,2.221,2.221,0,0,1,.572,4.4,26.571,26.571,0,0,1-11.124-.868c-3.264-.976-6.963-2.082-8.651-5.465-2.43-4.875,1.1-10.462,2.431-12.565a18.96,18.96,0,0,1,6.279-6.206,26.014,26.014,0,0,1,5.258-2.415,23.31,23.31,0,0,1,8.338-1.3,21.86,21.86,0,0,1,9.555,2.335,20.3,20.3,0,0,1,4.945,3.61,6.731,6.731,0,0,0,3.6,2.191,3.524,3.524,0,0,0,1.359-.007c.6-.053,1.445-.129,2.77-.2,7.138-.406,11.443-.648,15.584,1.469a11.992,11.992,0,0,1,5.61,5.311,11.007,11.007,0,0,1,1.133,4.869l.77,57.971a15.75,15.75,0,0,1-2.954,9.762c-4.324,5.906-11.227,6.353-12.566,6.383Z" transform="translate(-18658.402 9929.461)" fill="#fff"/>
      <path id="Trazado_671" data-name="Trazado 671" d="M106.046,122.533H47.453a8.7,8.7,0,0,1-8.686-8.686V63.969a8.461,8.461,0,0,1,8.452-8.451h3.192a2.221,2.221,0,1,1,0,4.443H47.219a4.014,4.014,0,0,0-4.009,4.009v49.878a4.247,4.247,0,0,0,4.242,4.243h58.593a4.035,4.035,0,0,0,4.03-4.031V59.97a2.221,2.221,0,1,1,4.443,0v54.09a8.482,8.482,0,0,1-8.472,8.473" transform="translate(-18653.572 9923.604)" fill="#fff"/>
      <path id="Trazado_672" data-name="Trazado 672" d="M104.322,63.8H97.83a8.539,8.539,0,0,1-7.7-4.891L84.9,47.75a2.222,2.222,0,0,1,4.024-1.887l5.232,11.16a4.078,4.078,0,0,0,3.677,2.335h6.114a4.243,4.243,0,0,0,1.945-1.5,4.023,4.023,0,0,0,.626-1.491,2.224,2.224,0,0,1,2.162-1.783l14.857-.105h.016a2.221,2.221,0,0,1,.017,4.443l-13.256.094a8.371,8.371,0,0,1-.765,1.367A8.734,8.734,0,0,1,104.99,63.7a2.228,2.228,0,0,1-.668.1" transform="translate(-18664.908 9926.304)" fill="#fff"/>
      <rect id="Rectángulo_282" data-name="Rectángulo 282" width="141.6" height="141.6" transform="translate(-18644 9937.312)" fill="none"/>
    </g>
  </g>
</svg>
