<svg xmlns="http://www.w3.org/2000/svg" xmlns:xlink="http://www.w3.org/1999/xlink" width="145" height="148" viewBox="0 0 145 148">
  <defs>
    <clipPath id="clip-icono-glucosa">
      <rect width="145" height="148"/>
    </clipPath>
  </defs>
  <g id="icono-glucosa" clip-path="url(#clip-icono-glucosa)">
    <g id="Grupo_10268" data-name="Grupo 10268" transform="translate(18151 -9735.996)">
      <path id="Trazado_658" data-name="Trazado 658" d="M140.8,70.4A70.4,70.4,0,1,1,70.4,0a70.4,70.4,0,0,1,70.4,70.4" transform="translate(-18149 9739.997)" fill="#3fa3a7"/>
      <path id="Trazado_659" data-name="Trazado 659" d="M46.771,123.581c-.176,0-.349,0-.525,0-6.445-.1-18.458-1.707-26.5-11.444a29.387,29.387,0,0,1-4.981-8.792A3.387,3.387,0,0,1,17.822,98.5c2.866,0,5.913.2,9.442.43,5.152.336,11,.728,18.528.653.873-.007,1.169-.025,2.039-.075,1.335-.078,4.116-.239,12.267-.558,3.866-.151,9.775-.365,12.415-.43a112.819,112.819,0,0,1,20.2,1.21c4.159.568,7.169.979,11.137.441,7.886-1.071,15.6-5.513,22.94-13.2a2.208,2.208,0,1,1,3.2,3.048c-8.044,8.434-16.637,13.324-25.54,14.533-4.566.621-7.991.152-12.333-.443a108.685,108.685,0,0,0-19.494-1.168c-2.626.062-8.5.276-12.348.427-8.111.317-10.863.476-12.186.554-.962.054-1.29.073-2.255.081-7.673.089-13.884-.336-18.855-.661-2.82-.185-5.328-.349-7.636-.4a24.852,24.852,0,0,0,3.811,6.386c6.911,8.368,17.478,9.756,23.159,9.838,9.058.158,18.451-3.563,23.891-9.414.344-.37.558-.62.736-.83s.338-.393.528-.593c.024-.025.373-.382.739-.721,1.214-1.122,3.572-1.44,25.26-.564,2.953.119,5.285.213,6.353.222h.168c8.456,0,17.344-5.11,26.425-15.186a2.208,2.208,0,0,1,3.282,2.956c-9.954,11.047-19.946,16.645-29.706,16.647h-.2c-1.138-.01-3.5-.1-6.5-.226-6.466-.26-19.668-.79-22.392-.312-.139.138-.24.24-.247.247-.11.118-.222.248-.351.4-.21.246-.458.537-.86.968-6.146,6.609-16.562,10.826-26.664,10.826M75.2,110.845h0" transform="translate(-18152.947 9716.4)" fill="#fff"/>
      <path id="Trazado_660" data-name="Trazado 660" d="M48.948,100.679H33.41A2.209,2.209,0,0,1,31.2,98.47V88.544a7.83,7.83,0,0,1,7.821-7.822h9.926a2.21,2.21,0,0,1,2.209,2.209V98.47a2.209,2.209,0,0,1-2.209,2.209m-13.33-4.417H46.74V85.14H39.022a3.408,3.408,0,0,0-3.4,3.4Z" transform="translate(-18157.533 9717.921)" fill="#fff"/>
      <path id="Trazado_661" data-name="Trazado 661" d="M73.758,100.679H58.221a2.209,2.209,0,0,1-2.209-2.209V82.931a2.209,2.209,0,0,1,2.209-2.209h8.667a9.09,9.09,0,0,1,9.08,9.08V98.47a2.209,2.209,0,0,1-2.209,2.209M60.429,96.261h11.12V89.8a4.667,4.667,0,0,0-4.662-4.662H60.429Z" transform="translate(-18164.318 9717.921)" fill="#fff"/>
      <path id="Trazado_662" data-name="Trazado 662" d="M63.063,76.135H47.526a2.209,2.209,0,0,1-2.209-2.209v-9.4a8.358,8.358,0,0,1,8.348-8.349h3.26a8.359,8.359,0,0,1,8.348,8.349v9.4a2.209,2.209,0,0,1-2.209,2.209M49.734,71.717h11.12v-7.19a3.935,3.935,0,0,0-3.93-3.931h-3.26a3.935,3.935,0,0,0-3.93,3.931Z" transform="translate(-18161.395 9724.633)" fill="#fff"/>
      <rect id="Rectángulo_280" data-name="Rectángulo 280" width="140.799" height="140.799" transform="translate(-18149 9739.997)" fill="none"/>
    </g>
  </g>
</svg>
