<svg xmlns="http://www.w3.org/2000/svg" xmlns:xlink="http://www.w3.org/1999/xlink" width="145" height="148" viewBox="0 0 145 148">
  <defs>
    <clipPath id="clip-icono-renal">
      <rect width="145" height="148"/>
    </clipPath>
  </defs>
  <g id="icono-renal" clip-path="url(#clip-icono-renal)">
    <g id="Grupo_10269" data-name="Grupo 10269" transform="translate(18151 -9907)">
      <path id="Trazado_644" data-name="Trazado 644" d="M140.8,70.4A70.4,70.4,0,1,1,70.4,0a70.4,70.4,0,0,1,70.4,70.4" transform="translate(-18149 9911)" fill="#d96501"/>
      <path id="Trazado_3240" data-name="Trazado 3240" d="M678.059,482.248c.573,1.64,1.115,3.032,1.545,4.458a44.468,44.468,0,0,1,1.807,6.6,11.229,11.229,0,0,1-9.861,12.686c-10.543,1.375-21.175-5.816-24.117-16.338-2.181-7.8-1.237-15.365,1.977-22.672a37.158,37.158,0,0,1,10.614-14.457c3.831-3.067,8.115-4.993,13.147-4.653,5.747.388,9.626,3.373,11.741,8.7,1.949,4.908,1.252,9.623-1.158,14.158-.928,1.747-2.051,3.389-3.11,5.119a18.757,18.757,0,0,1,7.782,5.461,18.069,18.069,0,0,1,4.359,11.907q.012,19.153,0,38.305c0,1.4-.383,1.767-1.777,1.785-1.029.013-2.059.009-3.088,0-1.543-.012-1.927-.4-1.927-1.974q0-15.7,0-31.406c0-2.574.04-5.151-.051-7.722A11.516,11.516,0,0,0,678.059,482.248ZM669.13,503.6c.365-.016.88-.028,1.393-.064a8.854,8.854,0,0,0,8.111-6.5,11.655,11.655,0,0,0-.413-6.777c-.688-2.042-1.533-4.031-2.2-6.079-1.081-3.34-.882-6.4,1.759-9.127a24.8,24.8,0,0,0,3.238-4.623c1.912-3.2,3.022-6.633,2.24-10.4-1.337-6.445-5.425-9.857-11.745-9.624a16.114,16.114,0,0,0-8.909,3.376,32.825,32.825,0,0,0-9.54,11.569c-3.671,6.908-5.187,14.188-3.59,21.956A20.382,20.382,0,0,0,669.13,503.6Zm21.13,27.084V507.509c0-4.667.021-9.333-.005-14a15.987,15.987,0,0,0-10.218-15.13c-1.3-.5-1.462-.418-1.883,1.009a1.165,1.165,0,0,0,.24.169c6.932,2.621,10.2,7.34,10.205,14.719q0,17.6,0,35.205v1.2Z" transform="translate(-18772.564 9490.861)" fill="#f8f8f8"/>
      <path id="Trazado_3241" data-name="Trazado 3241" d="M836.132,475.671c-1.388-2.675-3-5.246-4.1-8.019-2.343-5.894-.678-13.031,3.787-16.808,4.207-3.558,9.053-3.969,14.134-2.377,5.066,1.587,8.9,4.928,12.091,9.036a39.248,39.248,0,0,1,8.235,18.369c1.139,7.586.321,14.859-4.5,21.118a22.272,22.272,0,0,1-18.447,8.983,11.4,11.4,0,0,1-11.628-9.258,15.308,15.308,0,0,1,1.014-8.562q.941-2.5,1.836-5.01a9.007,9.007,0,0,0,.23-1.149,11.657,11.657,0,0,0-7.494,8.469,14.893,14.893,0,0,0-.284,3.37q-.028,18.486-.012,36.972c0,2.048-.27,2.318-2.307,2.32-.961,0-1.922.019-2.883-.007-1.195-.032-1.6-.431-1.607-1.644-.019-2.609-.007-5.218-.007-7.827,0-9.715.083-19.431-.024-29.145C824.06,485.454,828.118,479.225,836.132,475.671Zm32.049,5.214c-.066-.907-.157-2.171-.251-3.436-.013-.171-.043-.34-.067-.51a37.261,37.261,0,0,0-7.525-17.455c-2.9-3.846-6.372-7.016-11.062-8.54-8.6-2.794-15.565,2.291-15.745,11.375a14.508,14.508,0,0,0,2.576,8.122c1.381,2.163,2.962,4.2,4.473,6.28a5.126,5.126,0,0,1,1,3.054,17.767,17.767,0,0,1-1.159,6.018,56.64,56.64,0,0,0-2.212,7.024,8.812,8.812,0,0,0,8.413,10.542,19.917,19.917,0,0,0,14.849-5.433C866.383,493.484,868.038,487.655,868.181,480.885ZM828.4,530.5v-1.321q0-18.07.007-36.14a14.221,14.221,0,0,1,9.061-13.264c.469-.187.941-.365,1.546-.6l-.872-1.357a15.893,15.893,0,0,0-11.394,15.505c-.027,12.115-.008,24.23,0,36.346,0,.265.036.53.059.83Z" transform="translate(-18901.627 9491.044)" fill="#f8f8f8"/>
    </g>
  </g>
</svg>
