<svg xmlns="http://www.w3.org/2000/svg" xmlns:xlink="http://www.w3.org/1999/xlink" width="145" height="148" viewBox="0 0 145 148">
  <defs>
    <clipPath id="clip-icono-cardiaca">
      <rect width="145" height="148"/>
    </clipPath>
  </defs>
  <g id="icono-cardiaca" clip-path="url(#clip-icono-cardiaca)">
    <g id="Grupo_10267" data-name="Grupo 10267" transform="translate(18646 -9744.398)">
      <path id="Trazado_656" data-name="Trazado 656" d="M141.6,70.8A70.8,70.8,0,1,1,70.8,0a70.8,70.8,0,0,1,70.8,70.8" transform="translate(-18644 9747.398)" fill="#c91a37"/>
      <path id="Trazado_657" data-name="Trazado 657" d="M83.285,118.5c-16.885,0-27.877-15.942-32.079-22.036C41.713,82.695,41.228,71.212,42.493,64c.509-2.9,1.362-7.749,5.269-11.9,7.484-7.954,21.653-8.748,29.727-1.66a17.59,17.59,0,0,1,3.393,4.037,18.149,18.149,0,0,1,15.142-8.042,24.363,24.363,0,0,1,24.334,24.335V75.3c0,.211-.009.422-.025.629a46.406,46.406,0,0,1-9.273,26.046c-7.969,10.5-16.89,16.046-26.513,16.5-.423.02-.846.03-1.261.03M63.753,50.037A17.608,17.608,0,0,0,51,55.145c-2.767,2.939-3.556,6.367-4.129,9.627-1.122,6.391-.646,16.64,7.992,29.17,3.925,5.692,14.272,20.792,29.477,20.094,12.43-.58,20.523-11.241,23.184-14.745A41.349,41.349,0,0,0,114.9,83.137a8.3,8.3,0,0,1-2.908.522h-6.109a6.913,6.913,0,0,1-6.792-5.638l-1.5-8.015-2.211,9.756a2.516,2.516,0,0,1-2.46,1.964H89.041a1.794,1.794,0,0,0-1.674,1.164l-2.457,6.6a3.638,3.638,0,0,1-6.924-.333l-3.26-12.24a6.873,6.873,0,0,1-6.529,4.81H53.319a2.221,2.221,0,1,1,0-4.443H68.2a2.4,2.4,0,0,0,2.3-1.722l.717-2.448a3.662,3.662,0,0,1,3.548-2.661H74.8A3.666,3.666,0,0,1,78.332,73.2l3.3,12.372L83.2,81.34a6.253,6.253,0,0,1,5.837-4.056h2.347l3.267-14.414a3.112,3.112,0,0,1,3.058-2.444h.063a3.111,3.111,0,0,1,3.024,2.561l2.658,14.218a2.467,2.467,0,0,0,2.425,2.012h6.109a3.929,3.929,0,0,0,3.906-3.565c.005-.134.011-.266.016-.395V70.771A19.914,19.914,0,0,0,96.023,50.879a13.742,13.742,0,0,0-12.844,8.728l-.322.816a2.222,2.222,0,0,1-4.179-.136,14.352,14.352,0,0,0-4.119-6.508,16.389,16.389,0,0,0-10.806-3.741" transform="translate(-18654.365 9736.142)" fill="#fff"/>
      <rect id="Rectángulo_279" data-name="Rectángulo 279" width="141.6" height="141.6" transform="translate(-18644 9747.398)" fill="none"/>
    </g>
  </g>
</svg>
