<?xml version="1.0" encoding="utf-8"?>
<!-- Generator: Adobe Illustrator 27.4.1, SVG Export Plug-In . SVG Version: 6.00 Build 0)  -->
<svg version="1.1" id="Layer_1" xmlns="http://www.w3.org/2000/svg" xmlns:xlink="http://www.w3.org/1999/xlink" x="0px" y="0px"
	 viewBox="0 0 125.3 125.2" style="enable-background:new 0 0 125.3 125.2;" xml:space="preserve">
<style type="text/css">
	.st0{fill:#033782;}
	.st1{fill:#FFFFFF;}
	.st2{clip-path:url(#SVGID_00000139279141987816918730000015805700675725497535_);}
	.st3{fill:#D52B1E;}
	.st4{clip-path:url(#SVGID_00000008127506727086525970000006771216200685598626_);}
	.st5{clip-path:url(#SVGID_00000068642995340520387650000014530947482776420534_);}
	.st6{clip-path:url(#SVGID_00000135670212386727355340000004097067444451279285_);}
	.st7{clip-path:url(#SVGID_00000121252642671138877370000006837096414779159964_);}
	.st8{clip-path:url(#SVGID_00000078765934456701611600000016196752975208840068_);}
	.st9{clip-path:url(#SVGID_00000143579991906556189180000014529080308407549624_);}
	.st10{clip-path:url(#SVGID_00000173839314532536080150000006671998095364613289_);}
	.st11{clip-path:url(#SVGID_00000120536923941603902120000005218667433157529757_);}
	.st12{clip-path:url(#SVGID_00000121249184666665508290000018301466308331827332_);}
</style>
<g id="Group_10352" transform="translate(-1259 -5570.867)">
	<path id="Path_13836_00000152955393735338903030000001934055101266909058_" class="st3" d="M1321.6,5571.2
		c34.4,0,62.3,27.9,62.3,62.3s-27.9,62.3-62.3,62.3c-34.4,0-62.3-27.9-62.3-62.3S1287.3,5571.2,1321.6,5571.2
		C1321.6,5571.2,1321.6,5571.2,1321.6,5571.2z"/>
	<g id="Group_10351" transform="translate(1294.277 5599.068)">
		<g>
			<defs>
				<rect id="SVGID_00000047745771007760564000000012281228420796028045_" x="0.4" y="0.4" width="57.6" height="75.9"/>
			</defs>
			<clipPath id="SVGID_00000132801910798441734590000016085864437027178118_">
				<use xlink:href="#SVGID_00000047745771007760564000000012281228420796028045_"  style="overflow:visible;"/>
			</clipPath>
			<g id="Group_10350" style="clip-path:url(#SVGID_00000132801910798441734590000016085864437027178118_);">
				<path id="Path_13859" class="st1" d="M25.6,76.3c-1.3-0.1-2.6-0.2-3.8-0.3c-4-0.4-8-0.8-11.7-2.2c-0.7-0.3-1.4-0.7-2-1.1
					c-0.8-0.6-1.4-1.5-1.4-2.5c-0.8-7.8-1.6-15.7-2.3-23.5C3.5,38.9,2.8,31.1,2,23.3C1.5,17.9,1,12.5,0.4,7.1
					C0.2,5.9,0.8,4.8,1.9,4.2C3.9,3,6.1,2.3,8.4,2C16.6,0.6,25,0.1,33.3,0.4C39.2,0.5,45,1.1,50.7,2.1c2,0.3,3.9,1,5.7,2
					c1.1,0.6,1.8,1.8,1.6,3.1c-0.5,4.8-1,9.6-1.4,14.4c-0.5,4.7-0.9,9.5-1.4,14.2c-0.5,4.7-0.9,9.4-1.4,14.1
					c-0.5,4.7-0.9,9.4-1.4,14.2c-0.2,2-0.4,4.1-0.6,6.1c-0.2,1.2-1,2.3-2.2,2.8c-2,1.1-4.2,1.8-6.5,2.1c-3.2,0.4-6.4,0.7-9.6,1.1
					c-0.2,0-0.5,0.1-0.7,0.1L25.6,76.3z M6.7,41.7c0,0.2,0,0.3,0,0.5c0.4,4.2,0.8,8.4,1.2,12.6c0.5,4.7,1,9.5,1.4,14.2
					c0,0.9,0.6,1.7,1.5,1.9c0.2,0.1,0.4,0.2,0.6,0.2c3.3,1.1,6.7,1.7,10.1,1.9c6.9,0.7,13.9,0.4,20.7-0.7c2.1-0.3,4.1-0.9,6-1.9
					c0.3-0.2,0.6-0.5,0.7-0.9c0.3-3,0.6-6.1,0.9-9.1c0.5-4.8,0.9-9.5,1.4-14.3c0.1-1.5,0.3-3,0.4-4.5c-7.4,2.4-14.9,2.8-22.4,2.8
					C21.7,44.5,14.1,44.1,6.7,41.7 M6,35.1c1.9-0.5,3.8-1.1,5.8-1.5c5.2-1,10.5-1.4,15.8-1.4c6.3-0.2,12.7,0.3,18.9,1.4
					c1.9,0.4,3.9,1,5.8,1.5l2.5-25.2c-1,0.3-1.9,0.6-2.9,0.8c-5.8,1.3-11.7,1.9-17.6,2c-4.6,0.1-9.2,0.1-13.9-0.2
					c-3.9-0.2-7.8-0.8-11.7-1.3C7,10.9,5.3,10.3,3.6,9.9L6,35.1 M54.9,6.7l0-0.2c-0.3-0.2-0.7-0.4-1.1-0.5c-3.3-1.2-6.8-1.8-10.3-2
					c-4.6-0.4-9.3-0.7-13.9-0.7C22.4,3,15.2,3.6,8.1,5C6.5,5.2,4.8,5.8,3.3,6.6c1,0.4,1.8,0.7,2.6,1c4.1,1.1,8.3,1.7,12.5,1.9
					c8.7,0.7,17.3,0.5,26-0.5c2.7-0.3,5.3-0.9,8-1.5C53.3,7.3,54.1,7,54.9,6.7 M51.8,38.4l0-0.3c-1.4-0.5-2.7-1-4.1-1.3
					c-4.8-1-9.6-1.6-14.5-1.7c-5-0.2-10,0-15,0.5c-3.2,0.3-6.4,0.8-9.4,1.8c-0.8,0.2-1.5,0.6-2.2,0.9c0,0.1,0,0.1,0,0.2
					c0.3,0.2,0.6,0.4,0.9,0.5c3,1.2,6.1,1.9,9.3,2.1c4,0.4,7.9,0.6,11.9,0.7c6.4,0.2,12.7-0.4,18.9-1.7
					C49.1,39.7,50.5,39.2,51.8,38.4"/>
				<path id="Path_13860" class="st1" d="M21,70.1c-0.2,0-0.3,0-0.5-0.1c-2-0.5-4-1.1-6-1.5c-0.7-0.1-1.3-0.7-1.4-1.4
					c-0.5-2.4-1-4.9-1.6-7.3c-0.2-1,0.2-1.8,1-2s1.5,0.3,1.7,1.3c0.5,2,0.9,4,1.3,6.1c0,0.5,0.4,0.9,0.9,0.9
					c1.6,0.4,3.2,0.8,4.8,1.2c0.8,0.1,1.3,0.9,1.2,1.6C22.4,69.6,21.8,70.1,21,70.1"/>
			</g>
		</g>
	</g>
</g>
</svg>
