<?xml version="1.0" encoding="utf-8"?>
<!-- Generator: Adobe Illustrator 27.4.1, SVG Export Plug-In . SVG Version: 6.00 Build 0)  -->
<svg version="1.1" id="Layer_1" xmlns="http://www.w3.org/2000/svg" xmlns:xlink="http://www.w3.org/1999/xlink" x="0px" y="0px"
	 viewBox="0 0 125.3 125.2" style="enable-background:new 0 0 125.3 125.2;" xml:space="preserve">
<style type="text/css">
	.st0{fill:#033782;}
	.st1{fill:#FFFFFF;}
	.st2{clip-path:url(#SVGID_00000069368559692985076060000002008037188478113201_);}
	.st3{fill:#D52B1E;}
	.st4{clip-path:url(#SVGID_00000146460266032476960580000013831088114080199332_);}
	.st5{clip-path:url(#SVGID_00000169517113785686276510000007503639584337455504_);}
	.st6{clip-path:url(#SVGID_00000110464091828887133510000010837833257732518537_);}
	.st7{clip-path:url(#SVGID_00000044176078143643795880000016917281576988465310_);}
	.st8{clip-path:url(#SVGID_00000091704865474703239150000006456531317759643819_);}
</style>
<g id="Group_10355" transform="translate(-754 -5741.598)">
	<circle id="Ellipse_102_00000183214747339086487550000010057325763228762525_" class="st3" cx="816.6" cy="5804.2" r="62.3"/>
	<g id="Group_10354" transform="translate(781.707 5767.504)">
		<g>
			<defs>
				<rect id="SVGID_00000023270576179464739010000014755918372345155773_" x="0.4" y="0.4" width="72.8" height="72.8"/>
			</defs>
			<clipPath id="SVGID_00000155145293277228084090000001375669707959447964_">
				<use xlink:href="#SVGID_00000023270576179464739010000014755918372345155773_"  style="overflow:visible;"/>
			</clipPath>
			<g id="Group_10353" style="clip-path:url(#SVGID_00000155145293277228084090000001375669707959447964_);">
				<path id="Path_13861" class="st1" d="M47,0.4c5.4,1.3,9.3,5,13.2,8.6c3.5,3.1,6.7,6.6,9.5,10.4c1.5,1.9,2.6,4,3.2,6.3
					c0.9,2.7-0.2,5.6-2.7,7C60.5,39.1,50.7,45.6,41,52c-0.6,0.3-0.9,0.9-0.8,1.5c0.1,2.3-1.7,4.2-4,4.3c-0.3,0-0.6,0-0.9,0
					c-0.2,0-0.4,0-0.6-0.1c-0.4,1.3-0.8,2.6-1.3,3.8c-0.2,0.6-0.6,1.1-1.1,1.6c-2,1.6-4.7,2.1-7.2,1.3c-5.2-1.3-9.8-4.5-12.8-8.9
					c-1.9-2.4-3-5.2-3.4-8.2c-0.4-2.2,0.2-4.5,1.6-6.3c0.4-0.4,0.9-0.8,1.4-1c1.1-0.5,2.3-0.8,3.5-1.2c0.4-0.1,0.5-0.3,0.4-0.7
					c-0.4-2.3,1.1-4.4,3.3-4.9c0.4-0.1,0.8-0.1,1.3,0c0.4,0.1,0.8-0.1,1-0.5c1.9-2.9,3.9-5.9,5.8-8.8c0.3-0.6,0.9-0.9,1.5-0.9
					c0.8,0.1,1.3,0.8,1.3,1.5c0,0.2-0.1,0.4-0.2,0.6c-0.3,0.5-0.7,1-1,1.5l18,18l18.1-12L40.8,8.6c0,0-0.2,0.2-0.3,0.4
					c-1.5,2.2-2.9,4.4-4.4,6.6c-0.3,0.4-0.6,0.7-1.1,0.8c-0.5,0.2-1.1,0-1.3-0.5c-0.2-0.4-0.2-0.9-0.2-1.4c0-0.2,0.2-0.4,0.3-0.6
					c2.2-3.3,4.4-6.5,6.5-9.8c1.2-1.8,2.5-3.3,4.7-3.8H47z M67.6,31c0.4-0.2,0.8-0.5,1.2-0.8c1.3-0.7,1.9-2.2,1.4-3.6
					c-0.4-1.3-0.9-2.6-1.6-3.8c-1.8-2.9-4-5.6-6.5-8c-3.1-3.3-6.4-6.4-10.1-9c-1.5-1.2-3.3-2-5.2-2.5c-1.1-0.3-2.2,0-3,0.9
					c-0.5,0.6-0.9,1.2-1.3,1.8L67.6,31 M26.9,29.4c-1.1,1.7-2.3,3.5-3.4,5.2c-0.1,0.1,0,0.5,0.2,0.7c1.6,1.6,3.2,3.2,4.8,4.8
					c3.2,3.2,6.4,6.4,9.7,9.6c0.2,0.2,0.6,0.3,0.7,0.2c1.8-1.1,3.5-2.3,5.2-3.4L26.9,29.4 M29.5,61.5L12,44c-0.4,1-0.5,2.2-0.3,3.2
					c0.6,3.1,2,6,4.1,8.3c2.5,3,5.8,5.2,9.6,6.2C26.8,62,28.2,62,29.5,61.5 M37.6,53.7c-0.3-0.5-0.6-0.9-0.9-1.3
					C31.5,47.1,26.3,42,21.2,36.8c-0.1-0.2-0.3-0.3-0.5-0.4c-0.6-0.5-1.5-0.3-2,0.3c-0.1,0.2-0.2,0.4-0.3,0.6
					c-0.1,0.6,0.2,1.2,0.7,1.6c5.2,5.2,10.3,10.3,15.5,15.5c0.2,0.2,0.4,0.5,0.6,0.5c0.5,0.1,0.9,0.2,1.4,0
					C37,54.6,37.2,54.1,37.6,53.7 M14.6,42.1l16.7,16.7c0.3-0.9,0.6-1.7,0.9-2.6c0-0.2-0.1-0.4-0.2-0.5c-4.7-4.7-9.5-9.5-14.2-14.2
					c-0.2-0.2-0.4-0.2-0.7-0.2C16.3,41.5,15.4,41.9,14.6,42.1"/>
				<path id="Path_13862" class="st1" d="M0.4,71.3c0.1-0.1,0.2-0.2,0.2-0.3c0.3-0.6,1-0.8,1.6-0.6c0.7,0.2,1.2,1,0.9,1.8
					C3,72.6,2.7,72.9,2.2,73c-0.6,0.2-1.3,0-1.6-0.6c-0.1-0.1-0.2-0.2-0.2-0.3L0.4,71.3"/>
				<path id="Path_13863" class="st1" d="M33,19.8c0,0.8-0.6,1.4-1.4,1.4c-0.8,0-1.4-0.6-1.4-1.4c0-0.8,0.6-1.4,1.4-1.4c0,0,0,0,0,0
					C32.4,18.4,33,19,33,19.8"/>
				<path id="Path_13864" class="st1" d="M17.9,66.3c0.8,0,1.4,0.6,1.4,1.4c0,0,0,0,0,0c0,0.8-0.6,1.4-1.4,1.4
					c-0.8,0-1.4-0.7-1.4-1.5C16.5,66.9,17.1,66.3,17.9,66.3"/>
				<path id="Path_13865" class="st1" d="M11.9,63c-0.8,0-1.4-0.6-1.4-1.3c0,0,0,0,0,0c0-0.8,0.6-1.4,1.4-1.5c0,0,0,0,0,0
					c0.8,0,1.4,0.6,1.4,1.4C13.3,62.4,12.6,63,11.9,63"/>
				<path id="Path_13866" class="st1" d="M15.3,71.7c0,0.8-0.6,1.4-1.4,1.4c-0.8,0-1.4-0.6-1.4-1.4c0-0.8,0.6-1.4,1.3-1.4
					C14.6,70.3,15.2,70.9,15.3,71.7"/>
				<path id="Path_13867" class="st1" d="M6.8,65.3c0.8,0,1.4,0.5,1.4,1.3c0,0,0,0,0,0.1c0,0.8-0.6,1.4-1.3,1.5c0,0,0,0-0.1,0
					c-0.8,0-1.4-0.6-1.4-1.4C5.4,65.9,6,65.3,6.8,65.3"/>
			</g>
		</g>
	</g>
</g>
</svg>
