<?xml version="1.0" encoding="UTF-8"?>
<svg id="Capa_2" data-name="Capa 2" xmlns="http://www.w3.org/2000/svg" width="111.4" height="26.8" viewBox="0 0 111.4 26.8">
  <defs>
    <style>
      .cls-1 {
        fill: #fff;
      }
    </style>
  </defs>
  <g id="Capa_1-2" data-name="Capa 1">
    <g>
      <path class="cls-1" d="M35.4,24c.2-.5,.3-.7,.3-2-.6,0-1.4,.2-2.4,.4-1.7,.4-2,1-2,1.6s.6,1.3,1.7,1.3,2-.4,2.4-1.4m2.1,2.5h-1.6s-.1-.6-.2-1.3c-.5,.5-1.3,1.5-3,1.5s-3.1-1-3.1-2.6,.1-1,.4-1.4c.5-.8,1.5-1.4,4.2-1.6h1.4v-.3c0-.9,0-2.5-2-2.5s-1.7,.6-1.9,1.2l-1.4-.6s0,0,0-.1c.5-1,1.6-1.6,3.1-1.6s1.9,.2,2.6,.8c1,.8,1,2.3,1,2.3v4.6c0,0,.1,1.3,.3,1.7m50.8-2.5c.2-.5,.2-.7,.2-2-.6,0-1.4,.2-2.4,.4-1.7,.4-2,1-2,1.6s.6,1.3,1.7,1.3,2-.4,2.4-1.4m2.1,2.5h-1.6s-.1-.6-.2-1.3c-.5,.5-1.3,1.5-3.1,1.5s-3.1-1-3.1-2.6,.1-1,.4-1.4c.5-.8,1.5-1.4,4.2-1.6h1.4v-.3c0-.9,0-2.5-2-2.5s-1.7,.6-1.9,1.2l-1.4-.6s0,0,0-.1c.5-1,1.6-1.6,3.1-1.6s1.9,.2,2.7,.8c1,.8,1,2.3,1,2.3v4.6c0,0,.1,1.3,.3,1.7m-17.4-1.7c-.5,.9-1.5,1.9-3.5,1.9s-4.2-1.8-4.2-4.9,2.3-4.7,4.2-4.7,3.3,.9,3.8,3.2c.2,.8,.2,1.5,.2,1.8h-6.5c0,1.5,.6,3.4,2.8,3.4,.9,0,1.5-.4,1.9-1l1.5,.3Zm-6.1-3.7h4.8c-.1-2.4-1.5-2.8-2.4-2.8-1.3,0-2.2,1-2.4,2.8m-11.3,3.7c-.5,.9-1.5,1.9-3.5,1.9s-4.2-1.8-4.2-4.9,2.3-4.7,4.2-4.7,3.3,.9,3.8,3.2c.2,.8,.2,1.5,.2,1.8h-6.5c0,1.5,.6,3.4,2.8,3.4,.9,0,1.5-.4,1.9-1l1.5,.3Zm-6.1-3.7h4.8c-.1-2.4-1.5-2.8-2.4-2.8-1.3,0-2.2,1-2.4,2.8m31.1,3.3c-.3,.6-.9,1.2-2.1,1.2s-2.8-.6-2.8-3.6,.1-3.6,2.7-3.6,1.9,.7,2.1,1.3l1.4-.6c-.9-1.5-2.5-1.8-3.6-1.8-2.9,0-4.3,2.3-4.3,4.9s1.2,4.7,4.4,4.7,2.9-.9,3.5-1.8l-1.3-.6Zm-23.8-6.9v9.1h1.5v-5.1c0-.7,0-1.4,.7-2,.5-.5,1.1-.7,1.7-.7s1.7,.4,2,1.2c0,.3,0,.6,0,1.5v5.1h1.5v-5.4c0-.8,0-1.3-.2-1.9-.4-1.5-1.8-2.1-3-2.1s-2,.1-2.8,1.6v-1.4h-1.5Zm-18.4-2.8v1.5h6.8l-6.8,8.9v1.5h8.8v-1.4h-7l6.8-9v-1.5h-8.6Zm-13.7,2.8v9.1h1.5v-4.2c0-.8,0-1.7,.4-2.4,.5-.8,1.2-1.1,2.7-1.1v-1.6c-.6,0-2.3,0-3.1,1.8v-1.6h-1.5Zm-3-2.9l-1.6,.7v2.2h-1.4v1.3h1.4v5.8c0,1.2,0,2,1.8,2s1.2-.1,1.5-.2v-1.3c-.3,0-.7,.2-1,.2-.7,0-.7-.5-.7-1.5v-5.1h1.7v-1.3h-1.7v-2.9Zm-5,9.4c0,1-.8,1.5-2.1,1.5s-1.8-.3-2.2-1l-1.6,.3c.6,1.3,1.9,1.9,3.8,1.9s3.8-1.4,3.8-2.8-1.8-2.4-3.8-2.8c-1-.2-2.1-.6-2.1-1.4s.6-1.3,1.8-1.3,2,.8,2.1,1.2l1.4-.6c-.6-1.2-2-1.7-3.3-1.7-2.1,0-3.5,1-3.5,2.7s1.6,2.2,3.2,2.6c1.3,.3,2.6,.6,2.6,1.6m-8,2.5h1.7L6.2,14.6h-1.7L0,26.5H1.7l1.3-3.6H7.6l1.3,3.6Zm-5.4-5l1.8-4.9,1.7,4.9H3.5Z"/>
      <path class="cls-1" d="M107.5,11.2c-1.8-.6-6.2-2.3-10.9-2.9-1.6-.2-2.3,.4-1.6,1.9,.7,1.5,2.3,4,4.1,5.9,1.8,1.9,3.7,2.4,4.3-.5,0-.1,0-.2,0-.3,.1-.8,.3-1.5,.3-2.1-.8-.4-1.7-.7-2.6-1.1,0,.7,.1,1.8,.2,2.7,0,.1,0,.2,0,.3,0,1.4-.4,1.4-1.3,.8-1-.7-3.9-4.5-4.2-6.2,0-.1,0-.1,0,0,0,0,0,0,0,0h0c.7,.3,2.9,1.1,5.1,2.1,.9,.4,1.8,.8,2.6,1.1,.8,.4,1.5,.7,2,1,1,.5,1.3,.9,.9,1.3-2,2-9.1,4.9-11.5,8.5h0c0,0,0,.1,0,.2,0,0,0,0,0,0-.1,.2-.3,.6-.4,1.1-.1,.8,.3,1.5,1.4,1.8,.3,0,.6,.1,1,.2,0,0,.1,0,.2,0,2.2,.1,7.8-1.1,9.5-1.9,1.8-.8,1.2-1.6,.7-2-.4-.3-2.4-1.4-3.3-1.9-.3,.2-.5,.3-.7,.5,1.6,1,2.3,1.5,2.7,1.8,.1,.1,0,.2-.2,.3,0,0-.1,0-.2,0-1.5,.1-4.5,.3-5.9,.4-.2,0-.4,0-.6,0,.3-.3,.7-.6,.9-.7,2.9-2.1,7.9-4.9,9.3-6.2,1.1-.9,4-3.7-2.3-5.9m-7.1,7.7c-.2,.2-.5,.3-.7,.5-2.7-1.5-8.6-4.4-9.2-4.7-.5-.3-1.5-.7-1.4-1.6,.2-1.3,2.4-4,3.3-5.2C97.5,1.7,99.8-.2,101.3,0c1.6,.2,2.5,1.9,2.6,9.6-.9-.3-1.9-.6-3-.8,0-1.1-.3-2.8-.4-3.4,0-.7-.2-.9-.5-.9-.3,0-1,.7-1.7,1.4-.3,.3-1.2,1.2-2.1,2.1-.8,0-1.3,.1-1.6,.5-.2,.3-.3,.7-.1,1.3-.5,.5-1,1-1.2,1.2-1.1,1-2.2,1.9-2.2,2.3,0,.3,.5,.7,1.3,1.2,1.9,1.1,6.5,3.6,8.1,4.4"/>
    </g>
  </g>
</svg>