<?xml version="1.0" encoding="utf-8"?>
<!-- Generator: Adobe Illustrator 26.2.1, SVG Export Plug-In . SVG Version: 6.00 Build 0)  -->
<svg version="1.1" id="Grupo_561" xmlns="http://www.w3.org/2000/svg" xmlns:xlink="http://www.w3.org/1999/xlink" x="0px" y="0px"
	 viewBox="0 0 313.7 135.2" style="enable-background:new 0 0 313.7 135.2;" xml:space="preserve">
<style type="text/css">
	.st0{fill:none;}
	.st1{fill:#E7E7E8;}
	.st2{fill:#E33C33;}
</style>
<rect y="0" class="st0" width="313.7" height="135.2"/>
<path id="Trazado_249" class="st1" d="M20.8,82.9c-0.7-0.4-1.3-1.1-1.6-1.9c-0.2-0.7-0.4-1.2-0.5-1.8c-0.1-0.8,0-1.6-0.1-2.3
	c-0.1-0.9,0-1.7-0.1-2.6c-0.1-0.6-0.1-1.2-0.1-1.9c-0.1-1.1-0.1-2.2-0.1-3.3c-0.1-0.9,0-1.9-0.1-2.8c-0.2-1.7-0.1-3.5-0.1-5.2
	c0.1-0.7,0.1-1.4,0.1-2.1c0-0.7,0-1.3,0.1-2c0.1-0.7,0-1.5,0.1-2.3c0.1-1,0.1-2,0.3-3c0.1-0.9,0.3-1.7,0.7-2.5
	c0.9-1.6,2.7-2.4,4.4-2c1.1,0.3,2,0.9,2.7,1.8c0.3,0.4,0.7,0.8,0.9,1.2c1.1,1.5,2,3.1,2.9,4.8c1.1,2,2,4,3.1,6
	c0.5,1.2,1.1,2.3,1.5,3.5c0.1,0.3,0.2,0.7,0.5,0.7s0.3-0.4,0.4-0.7c0.2-0.2,0.3-0.5,0.3-0.8c0-1.5,0.1-2.8,0.1-4.3
	c0.1-2.1,0.1-4.2,0.2-6.3c0-1,0-2,0.1-3.1c0.1-0.8,0.4-1.6,0.9-2.3c0.5-0.7,1.2-1.1,2-1.4c0.4-0.1,0.9-0.2,1.3-0.1
	c1.1,0.2,2,0.9,2.5,1.9c0.4,0.7,0.6,1.5,0.7,2.3c0,0.7,0,1.4,0,2.1h-0.1v1c0.1,2-0.2,3.9-0.1,5.9c-0.2,1.1,0,2.3-0.1,3.3
	c-0.1,0.9-0.1,1.7-0.1,2.6C43,66.1,42.9,67,43,67.8c0,0.4-0.2,0.8-0.1,1.2c0,0.4-0.1,0.8-0.1,1.2c0,0.7-0.1,1.3-0.2,2l-0.2,2.3
	c-0.1,1-0.4,2-0.5,2.9c-0.1,0.7-0.4,1.2-0.6,1.8c-0.2,0.9-0.6,1.7-1.2,2.4c-1.2,1.6-3.4,1.9-5,0.8c-0.2-0.1-0.4-0.3-0.6-0.5
	C33.7,81,33,80.1,32.6,79c-0.4-1-0.8-2-1.2-3.1c-0.4-1.3-0.9-2.5-1.5-3.7c-0.5-1.2-1-2.4-1.5-3.6l-1.8-4.2c-0.1-0.3-0.2-0.6-0.4-0.8
	c-0.2-0.2-0.4-0.2-0.7-0.1c-0.2,0.1-0.2,0.3-0.2,0.4c-0.1,1.1-0.1,2.2,0,3.3c0.1,0.8,0,1.5,0.1,2.3c0.1,0.9,0.1,1.9,0.1,2.8
	c0.1,0.7,0.1,1.5,0.1,2.3c0.1,0.9,0.1,1.8,0.2,2.7c0.1,0.6,0.1,1.1,0.1,1.7c0,1-0.3,2-0.8,2.8c-0.4,0.6-1,1.1-1.7,1.3
	C22.6,83.4,21.6,83.4,20.8,82.9"/>
<path id="Trazado_250" class="st1" d="M53,81c-1.1-0.7-2.1-1.6-2.9-2.6c-1-1.2-1.8-2.6-2.4-4.1c-0.4-0.9-0.6-1.9-0.9-2.8
	c0,0-0.1-0.1-0.1-0.1c-0.1-1.2-0.6-2.4-0.5-3.4c-0.1-0.5-0.2-1-0.1-1.5c0-1.1-0.2-2.3-0.2-3.3c-0.1-0.6-0.1-1.2-0.1-1.8
	c0.1-1.2-0.1-2.3,0-3.3c0-0.6,0-1.3,0-1.9c0-0.6,0-1.3,0.1-1.9c0-0.4,0-0.9,0-1.3v-1.7c0-1.2,0.1-2.4,0.5-3.6c0.3-0.8,0.9-1.5,1.6-2
	c0.7-0.4,1.5-0.6,2.3-0.4c1.1,0.2,2,0.8,2.5,1.7c0.5,0.7,0.6,1.5,0.5,2.3c-0.1,0.4-0.1,0.8-0.1,1.2c0,0.9,0,1.8-0.1,2.7v3.1
	c-0.1,0.6,0,1.2-0.1,1.8c0.1,0.6,0.1,1.2,0,1.8v0.2c0.1,0.9,0.1,1.8,0.1,2.7c0.1,2.2,0.4,4.2,0.7,6.3c0.2,1.8,0.9,3.4,2,4.8
	c0.5,0.7,1.2,1.3,2,1.7c0.6,0.3,1.3,0.1,1.7-0.4c0.6-0.7,1.1-1.5,1.5-2.3c0.8-2.1,1.4-4.3,1.7-6.5c0.3-1.5,0.6-3.1,0.7-4.7
	c0.1-1.2,0.3-2.4,0.3-3.6c0-0.8,0-1.6,0.1-2.3c0-0.5,0-1,0-1.5c0.1-1.1,0-2.2,0.1-3.3v-1.9c-0.1-1.2,0.1-2.4,0.7-3.4
	c0.3-0.6,0.9-1.1,1.5-1.4c1.8-0.7,3.9,0.2,4.6,2c0.4,0.8,0.5,1.6,0.4,2.5c0,0.1,0,0.2,0.1,0.4c0,0.8,0,1.6-0.1,2.3
	c0,0.4,0.1,0.9,0.1,1.4c0,0.6-0.1,1.2-0.1,1.7c0,0.5,0,1.1-0.1,1.6c0,0.4,0,0.8,0,1.2c-0.1,1.1-0.2,2.1-0.2,3.2
	c-0.1,1.7-0.4,3.4-0.6,5.1c-0.1,0.7-0.3,1.4-0.4,2c-0.2,1.4-0.6,2.9-0.9,4.3c-0.5,1.8-1.3,3.5-2.3,5.2c-0.3,0.6-0.7,1.2-1.1,1.7
	c-0.6,0.7-1.3,1.4-2,2c-0.7,0.6-1.5,1.1-2.3,1.5c-0.5,0.2-1,0.3-1.5,0.4c-0.8,0.1-1.7,0.2-2.5,0.1C55.8,82.4,54.3,81.8,53,81
	 M50.5,40.5c0-0.3,0-0.6,0.1-0.9c0.1-0.7,0.5-1.4,1.2-1.8c1.7-1.1,3.5-2.2,5.2-3.3c1.7-1.2,3.6-2.2,5.2-3.3c0.7-0.5,1.6-0.8,2.5-0.7
	c1.1,0,2.1,0.7,2.5,1.7c0.2,0.6,0.1,1.3-0.1,1.9c-0.4,1.1-1.1,1.9-2.2,2.3c-1.3,0.7-2.6,1.5-3.8,2.3L57.2,41c-0.7,0.4-1.3,0.8-2,1.2
	c-0.6,0.5-1.3,0.7-2.1,0.7C51.8,42.9,50.6,41.9,50.5,40.5"/>
<path id="Trazado_251" class="st1" d="M96.2,81.6c-0.2-1.1-0.2-2.2-0.1-3.3c0.1-1,0.1-3,0.1-3.8c0-0.7,0.1-1.4,0.1-2
	c0-0.9,0.1-2,0.1-2.9c0-0.9,0.1-1.9,0-2.9c0-0.5,0.1-1,0.1-1.5c0-0.2,0.1-0.6-0.2-0.7c-0.4-0.1-0.3,0.4-0.4,0.6
	c-0.7,2.2-1.4,4.4-2.2,6.5c-0.4,1.3-0.8,2.5-1.3,3.7c-0.6,1.2-1.9,2-3.3,2c-1.2,0-2.2-0.6-2.9-1.5c-0.4-0.6-0.6-1.2-0.8-1.8
	c-0.2-0.7-0.4-1.5-0.6-2.2c-0.1-0.7-0.3-1.3-0.6-2c-0.1-0.1-0.1-0.2-0.1-0.3c-0.3-1.4-0.7-2.7-1.2-4c-0.3-0.9-0.7-1.8-0.9-2.8
	c-0.2-0.6-0.5-1.3-0.7-1.9c-0.1-0.1-0.1-0.1-0.1-0.2c-0.3-0.4-0.6-0.4-0.9,0c-0.1,0.2-0.1,0.4-0.1,0.6c0,0.7,0,1.4-0.1,2
	c0.1,0.9,0.1,1.9,0.1,2.8c0,0.5,0.1,1,0.1,1.5c0.1,0.9,0.1,2,0.1,3v5c0.1,1.1,0,2.2-0.1,3.3c-0.1,0.8-0.2,1.7-0.5,2.5
	c-0.5,1.3-1.8,2.2-3.2,2c-0.4-0.1-0.9-0.2-1.2-0.5c-0.5-0.4-0.9-1-1.1-1.7c-0.3-0.6-0.4-1.3-0.3-2c0-0.1-0.1-0.1-0.1-0.2
	c-0.1-0.9-0.1-1.8-0.1-2.7c0-0.6-0.1-1.2-0.1-1.7c0.1-0.5-0.1-1,0-1.5c0-0.5,0-0.9-0.1-1.4c-0.1-0.9-0.1-2-0.1-2.8v-3.3
	c0.1-0.8,0.1-1.6,0-2.3c0-0.9,0-1.8,0.1-2.8c0.1-0.7,0-1.5,0.1-2.1c0.1-0.9,0.1-1.7,0-2.6c0-1.6,0.1-3.1,0.2-4.6
	c0-1,0.1-1.9,0.2-2.9c0.1-1.1,0.4-2.1,0.9-3c0.4-0.8,1.2-1.4,2-1.5c0.7-0.2,1.5-0.1,2.2,0.2c0.7,0.3,1.4,0.9,1.8,1.5
	c0.5,0.7,1,1.4,1.5,2.2c0.5,0.8,1.1,1.7,1.5,2.5c0.6,1.3,1.2,2.6,1.8,3.9c0.4,1,0.9,2,1.2,3c0.4,0.8,0.7,1.7,1.2,2.5
	c0.1,0.3,0.1,0.7,0.4,0.9c0.1,0.2,0.4,0.3,0.6,0.2c0.4-0.1,0.7-0.5,0.9-0.9c0.4-1.4,0.9-2.7,1.5-4c0.6-1.7,1.2-3.3,1.9-4.9
	c0.7-1.7,1.5-3.3,2-5.1c0.3-1,0.7-1.9,1.3-2.7c0.6-0.9,1.7-1.4,2.8-1.5c1.2-0.1,2.4,0.4,3.1,1.5c0.7,0.8,1.1,1.9,1.1,3
	c0.1,1,0.2,2,0.2,3c0.1,0.9,0,1.7,0.1,2.5c0,0.5,0,0.9-0.1,1.4c0,0.4,0.1,0.9,0.1,1.4c-0.1,1.2-0.1,2.3-0.1,3.5v2.1
	c0,0.7-0.1,1.5-0.1,2.2v2.2c0,0.7-0.1,1.4-0.1,2.1c0,0.6,0,1.3-0.1,1.9c0,0.9-0.1,2-0.1,3c0,0.9-0.1,1.9-0.1,2.8
	c-0.1,1.5-0.2,4.6-0.2,5.6c0.1,1-0.1,2-0.6,3c-0.4,0.9-1.3,1.6-2.3,1.7c-0.6,0.2-1.2,0.2-1.8,0C97.3,83.8,96.4,82.8,96.2,81.6"/>
<path id="Trazado_252" class="st1" d="M110.6,82.5c-1.7-0.5-3.1-1.8-3.6-3.5c-0.3-0.9-0.5-1.9-0.7-2.8c-0.2-1.5,0-3-0.1-4
	c-0.1-1.3,0-2.6,0.1-3.9c0.1-1.2,0-2.4,0.1-3.6c0.1-0.9,0-1.7,0.1-2.5c0.1-0.9,0-1.8,0.1-2.7c0.2-1.7,0.2-3.4,0.1-5.2
	c0-0.9-0.1-1.9-0.1-2.9V51c-0.1-0.3-0.1-0.6,0-0.9c0.1-0.2,0.1-0.4,0-0.6c-0.2-0.7-0.1-1.4,0.2-2c0.5-1,1.4-1.7,2.5-2
	c0.8-0.2,1.5-0.4,2.3-0.5c0.7-0.1,1.5,0,2.2-0.2c0.1-0.1,0.1,0,0.1,0c2-0.1,3.9-0.3,5.9-0.2c1.4,0.1,2.6,0.8,3.5,1.9
	c0.7,1,0.6,2.3-0.1,3.3c-0.6,0.9-1.6,1.5-2.7,1.7c-0.4,0.1-0.9,0.2-1.4,0.2c-1.3,0-2.6,0.2-4,0.2c-0.9-0.1-1.4,0.6-1.4,1.5
	c0,1.7,0,3.3-0.1,5.1c0,0.4,0,0.8-0.1,1.2c-0.1,0.5,0,1,0.3,1.5c0.1,0.3,0.4,0.5,0.7,0.5c0.8-0.1,1.5,0,2.3-0.1
	c1.1,0,2.1,0.2,3.1,0.7c1.1,0.5,1.9,1.5,1.9,2.8c0,1.5-1,2.8-2.4,3.2c-0.9,0.3-1.8,0.5-2.7,0.5c-0.6,0-1.2,0-1.8,0h-0.5
	c-1,0.3-1.2,0.6-1.3,1.6v3.8c0,0.5,0.1,1.1,0.2,1.6c0,0.8,0.7,1.4,1.5,1.4c0,0,0.1,0,0.1,0c0.8,0,1.6-0.1,2.4,0c1,0,2.1,0.2,3,0.7
	c0.7,0.4,1.3,1.2,1.4,2c0.1,0.7-0.2,1.4-0.7,1.9c-0.7,0.7-1.6,1.1-2.5,1.2c-0.7,0.1-1.4,0.1-2,0.1c-0.8-0.1-1.6,0.2-2.4,0.1
	C112.9,83,111.7,82.8,110.6,82.5"/>
<path id="Trazado_253" class="st1" d="M128.6,83.2c-0.4-0.2-0.7-0.5-1-0.9c-0.7-0.8-1.1-1.8-1.2-2.8l-0.2-2.8c0-0.4,0-0.7,0.1-1.1
	c-0.1-0.3-0.1-0.7,0-1.1c0.1-0.1,0-0.1,0-0.2c-0.1-0.7-0.1-1.4,0.1-2c0-1,0-2.1,0.1-3.1c0.1-0.6,0.1-1.1,0.1-1.7
	c0.1-0.6,0.1-1.2,0.1-1.7c0-0.5,0.1-1.1,0.1-1.6c0-0.6,0-1.2,0.1-1.8c0.1-0.4,0.1-0.8,0.1-1.2c0-0.9,0.1-1.8,0.1-2.7
	c0.1-0.9,0.1-1.8,0.1-2.8c0.1-0.6,0.1-1.1,0.1-1.7c0-0.6,0.1-1.2,0.1-1.8c0.1-0.8,0.3-1.7,0.6-2.5c0.3-0.6,0.6-1.2,0.9-1.7
	c0.7-1,1.7-1.7,2.9-2c1-0.2,2.1-0.3,3.1-0.4c1.9,0.2,3.8,0.8,5.4,1.8c1.6,1,2.9,2.3,3.7,4c0.4,0.8,0.7,1.6,0.8,2.5
	c0,0.3,0,0.5,0.1,0.8c0.2,2.1-0.3,4.2-1.3,6c-0.5,0.9-1,1.8-1.7,2.6c-0.9,1.1-1.8,2.1-2.9,3c-0.4,0.5-0.7,1.2-0.7,1.8
	c0.2,0.4,0.2,0.7,0.5,1.1c0.9,1,1.7,2.1,2.6,3.2c1,1.2,2,2.5,3,3.8c0.7,0.9,1.2,1.9,1.2,3.1c0.1,0.8-0.2,1.6-0.7,2.2
	c-0.3,0.4-0.7,0.7-1.2,0.9c-1.2,0.5-2.5,0.3-3.5-0.4c-0.9-0.7-1.7-1.5-2.3-2.5c-0.9-1.2-1.8-2.4-2.8-3.6l-0.8-1.1
	c-0.2-0.2-0.5-0.3-0.7-0.2c-0.2,0.1-0.2,0.3-0.3,0.5v0.1c0.1,1-0.1,2,0.1,3.1c0.1,0.5,0,1.1-0.1,1.6c-0.2,1-0.7,1.9-1.4,2.7
	c-0.4,0.4-0.9,0.7-1.5,0.7C129.7,83.6,129.1,83.5,128.6,83.2 M136,59.3c0.7-0.7,1.2-1.6,1.5-2.5c0.2-0.6,0.3-1.2,0.2-1.8
	c-0.3-1.1-1.4-1.9-2.6-1.7c-0.6,0.1-0.7,0.1-0.8,0.7c-0.1,0.5-0.1,1.1-0.1,1.6c0,0.6,0,1.1,0,1.7c-0.1,0.7-0.1,1.5-0.1,2
	c0,0.2,0,0.4,0.1,0.6c0,0.6,0.3,0.7,0.9,0.4C135.3,60,135.7,59.7,136,59.3"/>
<path id="Trazado_254" class="st1" d="M156.7,82.2c-1-0.4-2-1-2.9-1.7c-0.9-0.8-1.7-1.6-2.4-2.5c-0.6-0.8-1.2-1.7-1.6-2.6
	c-0.2-0.6-0.4-1.2-0.7-1.9c-0.5-1.7-0.8-3.5-1-5.2l-0.2-2.5c-0.1-0.8-0.1-1.6-0.1-2.3c0.1-1,0.1-2,0.1-3c0-0.8,0.1-1.7,0.1-2.5
	c0.1-1.5,0.4-3.1,0.7-4.6l0.2-1.2c0.1-0.8,0.4-1.6,0.7-2.4c0.2-0.4,0.5-0.7,0.8-1c0.6-0.8,1.3-1.5,2-2.1c1.2-1,2.6-1.9,4-2.5
	c1-0.4,2.1-0.8,3.3-0.9c0.9-0.1,1.7-0.1,2.6,0c1.6,0.2,3.1,0.7,4.6,1.4c0.8,0.4,1.5,0.9,2.1,1.5c0.3,0.2,0.6,0.5,0.9,0.8
	c1,1,1.9,2.2,2.6,3.5c0.6,1,1,2,1.5,3.1c0.2,0.5,0.3,1.1,0.5,1.7c0.2,0.7,0.3,1.6,0.4,2.3c0.1,0.3,0.1,0.5,0.1,0.7
	c0.1,1,0.2,2,0.1,3c0,2.1-0.2,4.2-0.7,6.2c-0.4,2.1-1.1,4.1-2,6.1c-0.4,0.8-0.8,1.6-1.2,2.4c-0.4,0.9-1,1.7-1.7,2.5
	c-0.7,0.6-1.2,1.3-1.9,1.9c-1.1,0.9-2.4,1.7-3.7,2.3c-0.6,0.1-1.2,0.3-1.7,0.5c-0.3,0.2-0.7,0.2-1,0.1c-0.1-0.1-0.2,0-0.3,0
	C159.6,83.1,158.1,82.8,156.7,82.2 M163.7,74.5c0.4-0.5,0.7-0.9,0.9-1.5c0.5-0.7,1-1.6,1.3-2.4c0.6-1.2,1.1-2.6,1.4-3.9
	c0.5-1.8,0.8-3.7,0.8-5.5c0-0.9,0-1.8-0.1-2.8c0-0.7-0.4-1.4-0.5-2.2v-0.1c-0.4-0.9-0.7-1.8-1.2-2.7c-0.8-1.2-1.8-2.2-3-2.9
	c-0.2-0.1-0.5-0.2-0.8-0.3c-1.2-0.3-2.4-0.1-3.5,0.4c-0.8,0.5-1.6,1-2.2,1.7c-0.5,0.4-0.8,0.9-0.9,1.5l-0.6,3.4
	c-0.3,1.9-0.4,3.9-0.4,5.8c0,0.8,0,1.6,0.1,2.4c0.1,1,0.2,2,0.3,3c0,0.3,0.2,0.5,0.3,0.8c0.1,1,0.4,1.9,0.7,2.8
	c0.4,1.3,1.1,2.6,2.1,3.6c0.7,0.8,1.8,1,2.8,0.7C162.2,76.1,163.1,75.4,163.7,74.5"/>
<path id="Trazado_255" class="st1" d="M178.8,83.7c-0.6-1-0.6-2.3,0-3.3c0.4-0.6,0.9-1.1,1.5-1.4l2.1-0.9c1.3-0.5,2.5-1.2,3.6-2
	c0.9-0.8,1.5-1.8,1.6-3c0.1-0.4,0.1-0.9,0.1-1.3c-0.1-1.3-0.6-2.5-1.3-3.6c-0.6-0.9-1.2-1.7-2-2.4c-1.2-1.2-2.4-2.3-3.5-3.5
	c-1.1-1.1-1.9-2.3-2.6-3.6c-0.3-0.7-0.5-1.4-0.7-2.2c-0.4-1.7-0.3-3.5,0.4-5.2c0.3-0.8,0.6-1.6,1-2.4c0.9-1.6,2.1-3,3.6-4.1
	c0.8-0.6,1.7-1.1,2.6-1.5c0.7-0.3,1.5-0.5,2.2-0.7c0.7-0.2,1.5-0.2,2.3-0.1c1,0.1,1.9,0.7,2.4,1.6c0.3,0.5,0.5,1.1,0.4,1.7
	c0,1.1-0.6,2.1-1.6,2.6c-0.6,0.3-1.2,0.5-1.9,0.6c-0.8,0.2-1.6,0.6-2.3,1c-1.2,0.8-2.1,2.1-2.5,3.5c-0.5,1.2-0.2,2.6,0.7,3.5
	c1.4,1.7,3,3.1,4.5,4.6c1.5,1.5,2.7,3.3,3.6,5.2c0.5,1.1,0.8,2.3,0.9,3.5c0.1,0.6,0.1,1.1,0.1,1.7c0,1.5-0.2,2.9-0.7,4.3
	c-0.4,1-0.9,2-1.5,2.8c-0.9,1.3-2.1,2.4-3.4,3.1c-1.3,0.8-2.7,1.5-4.1,2.1c-0.4,0.1-0.8,0.2-1.2,0.4c-0.8,0.3-1.6,0.4-2.4,0.2
	C180,85,179.2,84.4,178.8,83.7"/>
<path id="Trazado_256" class="st1" d="M9.5,120.8c-0.4-0.3-0.7-0.6-1-1c-0.3-0.6-0.6-1.1-0.9-1.6c-0.3-0.4-0.7-0.7-1.1-0.8
	c-0.1,0-0.2,0-0.2,0c-0.3,0-0.5,0.1-0.8,0.1c-0.6,0-1.3-0.1-1.8-0.3c-0.6-0.2-1.1-0.6-1.5-1c-0.4-0.4-0.8-0.9-1.1-1.4
	c-0.1-0.3-0.3-0.5-0.4-0.8c-0.1-0.3-0.2-0.6-0.3-0.9c-0.1-0.6-0.2-1.1-0.3-1.7L0,110.3c0-0.3,0-0.7,0-1.1c0-0.3,0-0.6,0.1-1
	c0-0.5,0.1-1.1,0.2-1.6c0.1-0.8,0.3-1.5,0.4-2.2c0.1-0.7,0.3-1.3,0.5-1.9c0.2-0.5,0.5-1,1-1.3c0.5-0.3,0.9-0.7,1.3-1.1
	c0.5-0.4,1.1-0.7,1.7-1c0.3-0.1,0.7-0.2,1-0.2c0.1,0,0.2-0.1,0.4-0.1c1.1-0.1,2.1,0.2,3,0.8c0.4,0.3,0.8,0.7,1.1,1
	c0.1,0.1,0.2,0.3,0.3,0.4c0.4,0.5,0.7,1,0.9,1.6c0.2,0.5,0.4,1.1,0.5,1.6c0.2,0.8,0.3,1.6,0.3,2.4c0,0.5,0,0.9-0.1,1.4
	c-0.1,0.7-0.2,1.4-0.4,2.1c-0.2,1-0.6,1.9-1,2.8c-0.2,0.4-0.5,0.8-0.8,1.2c-0.2,0.3-0.3,0.6-0.3,0.9c0,0.5,0.1,0.9,0.4,1.3
	c0.3,0.6,0.7,1.2,1,1.9c0.2,0.5,0.3,1.1,0.2,1.6c-0.1,0.5-0.5,0.9-1,1.1C10.4,121.2,9.9,121.1,9.5,120.8 M5.4,114.1
	c0-0.1,0-0.2-0.1-0.2l-1.2-2.4c0-0.1-0.1-0.1-0.2-0.2c0-0.1-0.1-0.1-0.1,0c-0.1,0.2,0,0.3,0,0.6c0.1,0.3,0.1,0.6,0.2,0.9
	c0.1,0.4,0.3,0.8,0.5,1.1c0.1,0.2,0.3,0.4,0.4,0.5c0.1,0.1,0.3,0.1,0.4,0C5.4,114.3,5.4,114.2,5.4,114.1 M8.5,110.9
	c0.1-0.2,0.3-0.5,0.3-0.8c0.1-0.5,0.3-1,0.3-1.4c0.2-0.9,0.2-1.7,0.1-2.6c0-0.4-0.1-0.8-0.2-1.2c-0.2-0.5-0.4-1-0.7-1.5
	c-0.3-0.5-0.8-0.8-1.4-1c-0.3-0.1-0.7-0.1-1,0c-0.4,0.2-0.7,0.4-1,0.7c-0.3,0.3-0.4,0.7-0.4,1.1c0,0.4,0,0.9,0.2,1.2
	c0.2,0.4,0.4,0.9,0.6,1.3c0.3,0.6,0.7,1.2,1,1.9c0.2,0.4,0.5,0.9,0.8,1.4c0.2,0.4,0.4,0.7,0.6,1.1c0.2,0.3,0.4,0.3,0.7,0
	C8.5,111,8.5,110.9,8.5,110.9"/>
<path id="Trazado_257" class="st1" d="M17.3,116.4c-0.5-0.3-1-0.7-1.4-1.2c-0.5-0.6-0.9-1.2-1.1-2c-0.2-0.4-0.3-0.9-0.4-1.3
	c0,0,0,0,0-0.1c0-0.6-0.3-1.1-0.2-1.6c-0.1-0.2-0.1-0.5-0.1-0.7c0-0.5-0.1-1.1-0.1-1.6c0-0.3-0.1-0.6,0-0.9c0-0.6,0-1.1,0-1.6
	c0-0.3,0-0.6,0-0.9c0-0.3,0-0.6,0-0.9c0-0.2,0-0.4,0-0.6v-0.8c0-0.6,0.1-1.1,0.2-1.7c0.1-0.4,0.4-0.7,0.8-0.9
	c0.3-0.2,0.7-0.3,1.1-0.2c0.5,0.1,0.9,0.4,1.2,0.8c0.2,0.3,0.3,0.7,0.2,1.1c0,0.2,0,0.4,0,0.6c0,0.4,0,0.9,0,1.3v1.4
	c0,0.3,0,0.6,0,0.9c0,0.3,0,0.6,0,0.9v0.1c0,0.4,0.1,0.8,0,1.3c0,1,0.2,2,0.3,3c0.1,0.8,0.4,1.6,0.9,2.3c0.3,0.3,0.6,0.6,1,0.8
	c0.3,0.1,0.6,0.1,0.8-0.2c0.3-0.3,0.5-0.7,0.7-1.1c0.4-1,0.7-2,0.8-3.1c0.1-0.7,0.3-1.5,0.3-2.2c0-0.6,0.1-1.1,0.1-1.7
	c0-0.4,0-0.7,0.1-1.1c0-0.2,0-0.5,0-0.7c0-0.5,0-1,0-1.5v-0.9c-0.1-0.6,0.1-1.1,0.3-1.6c0.2-0.3,0.4-0.5,0.7-0.7
	c0.9-0.3,1.8,0.1,2.2,0.9c0.2,0.4,0.2,0.8,0.2,1.2c0,0.1,0,0.1,0,0.2c0,0.4,0,0.7,0,1.1c0,0.2,0,0.4,0,0.7c0,0.3,0,0.5,0,0.8
	c0,0.3,0,0.5,0,0.8c0,0.2,0,0.4,0,0.6c0,0.5-0.1,1-0.1,1.5c-0.1,0.8-0.2,1.6-0.3,2.4c0,0.3-0.1,0.7-0.2,1c-0.1,0.7-0.3,1.4-0.4,2
	c-0.2,0.9-0.6,1.7-1.1,2.4c-0.2,0.3-0.3,0.6-0.5,0.8c-0.3,0.3-0.6,0.7-1,0.9c-0.3,0.3-0.7,0.5-1.1,0.7c-0.2,0.1-0.5,0.2-0.7,0.2
	c-0.4,0.1-0.8,0.1-1.2,0C18.7,117.1,18,116.8,17.3,116.4"/>
<path id="Trazado_258" class="st1" d="M29.1,117.2c-0.8-0.2-1.4-0.9-1.7-1.6c-0.2-0.4-0.3-0.9-0.3-1.3c-0.1-0.7,0-1.4-0.1-1.9
	c0-0.6,0-1.2,0-1.9c0-0.6,0-1.1,0.1-1.7c0-0.4,0-0.8,0.1-1.2c0-0.4,0-0.9,0.1-1.3c0.1-0.8,0.1-1.6,0-2.4c0-0.4,0-0.9-0.1-1.4v-0.2
	c-0.1-0.1-0.1-0.3,0-0.4c0-0.1,0-0.2,0-0.3c-0.1-0.3-0.1-0.7,0.1-1c0.2-0.5,0.7-0.8,1.2-0.9c0.4-0.1,0.7-0.2,1.1-0.2
	c0.3-0.1,0.7,0,1.1-0.1c0,0,0,0,0.1,0c0.9,0,1.9-0.1,2.8-0.1c0.7,0,1.3,0.4,1.6,0.9c0.3,0.5,0.3,1.1,0,1.5c-0.3,0.4-0.8,0.7-1.3,0.8
	c-0.2,0.1-0.4,0.1-0.7,0.1c-0.6,0-1.2,0.1-1.9,0.1c-0.4,0-0.7,0.3-0.7,0.7c0,0.8,0,1.6,0,2.4c0,0.2,0,0.4,0,0.6c0,0.2,0,0.5,0.1,0.7
	c0,0.1,0.2,0.2,0.3,0.2c0.4,0,0.7,0,1.1,0c0.5,0,1,0.1,1.5,0.3c0.5,0.2,0.9,0.7,0.9,1.3c0,0.7-0.4,1.3-1.1,1.5
	c-0.4,0.1-0.8,0.2-1.3,0.2c-0.3,0-0.6,0-0.9,0H31c-0.5,0.1-0.6,0.3-0.6,0.8v1.8c0,0.3,0,0.5,0.1,0.8c0,0.4,0.3,0.7,0.7,0.7
	c0,0,0,0,0.1,0c0.4,0,0.8,0,1.1,0c0.5,0,1,0.1,1.4,0.3c0.4,0.2,0.6,0.6,0.7,1c0,0.3-0.1,0.7-0.3,0.9c-0.3,0.3-0.7,0.5-1.2,0.6
	c-0.3,0-0.6,0.1-1,0.1c-0.4,0-0.8,0.1-1.1,0C30.2,117.4,29.7,117.3,29.1,117.2"/>
<path id="Trazado_259" class="st1" d="M46.6,128.9c-0.2-0.5-0.4-1-0.5-1.5c-0.1-0.3-0.1-0.6,0-0.9v-0.3c-0.1-0.8-0.1-1.7-0.1-2.5
	c-0.1-1-0.1-2.1-0.1-3.1c0-1.1-0.1-2.2,0-3.3v-1.7c0-0.9,0-1.7,0.1-2.5c0.1-0.5,0.1-1,0.1-1.5c-0.1-0.4-0.1-0.9,0-1.3
	c0.1-0.6,0-1.1,0.1-1.6c0.1-0.9,0.1-1.8,0.1-2.8v-1.3c0.1-0.9,0.1-1.9,0.1-2.8c0-0.7,0-1.4,0.1-2.1c0.1-0.3,0.2-0.5,0.3-0.7
	c0.4-0.9,1.1-1.6,2-2c0.3-0.1,0.6-0.2,0.9-0.2c0.9-0.2,1.8,0,2.5,0.7c0.7,0.4,1.2,1.1,1.4,1.8c0.1,0.4,0.2,0.7,0.3,1.1
	c0,0.7-0.1,1.2-0.1,1.9v1.2c-0.1,0.9-0.1,1.9-0.1,2.8v1.4c-0.1,0.9-0.1,1.8-0.1,2.8c0,0.9-0.1,1.7-0.1,2.5c0,0.8,0,1.6-0.1,2.4
	c-0.1,0.5,0.1,1,0,1.5c-0.1,0.7-0.1,1.5,0,2.3c-0.1,0.7-0.1,1.5,0.1,2.2c0,0.4,0,0.7-0.1,1.1c0.1,0.3,0.1,0.7,0,1.1v0.2
	c0.1,0.8,0.2,1.5,0.1,2.3c0.1,1.6-0.4,3.1-1.5,4.4c-1,1.2-2.9,1.4-4.1,0.4C47.4,130.2,46.9,129.6,46.6,128.9"/>
<path id="Trazado_260" class="st1" d="M78.7,131.8c-0.2-1.1-0.2-2.2-0.1-3.3c0.1-1,0.1-3,0.1-3.8c0-0.7,0.1-1.4,0.1-2
	c0-0.9,0.1-2,0.1-2.9c0-0.9,0.1-1.9,0-2.9c0-0.5,0.1-1,0.1-1.5c0-0.2,0.1-0.6-0.2-0.7c-0.4-0.1-0.3,0.4-0.4,0.6
	c-0.7,2.2-1.4,4.4-2.2,6.5c-0.4,1.3-0.8,2.5-1.3,3.7c-0.6,1.2-1.9,2-3.3,2c-1.2,0-2.2-0.6-2.9-1.5c-0.4-0.6-0.6-1.2-0.8-1.8
	c-0.2-0.7-0.4-1.5-0.6-2.2c-0.1-0.7-0.3-1.3-0.6-2c-0.1-0.1-0.1-0.2-0.1-0.3c-0.3-1.4-0.7-2.7-1.2-4c-0.3-0.9-0.7-1.8-0.9-2.8
	c-0.2-0.6-0.5-1.3-0.7-1.9c-0.1-0.1-0.1-0.1-0.1-0.2c-0.3-0.4-0.6-0.4-0.9,0c-0.1,0.2-0.1,0.4-0.1,0.6c0,0.7,0,1.4-0.1,2
	c0.1,0.9,0.1,1.9,0.1,2.8c0,0.5,0.1,1,0.1,1.5c0.1,0.9,0.1,2,0.1,3v5c0.1,1.1,0,2.2-0.1,3.3c-0.1,0.8-0.2,1.7-0.5,2.5
	c-0.5,1.3-1.8,2.2-3.2,2c-0.4-0.1-0.9-0.2-1.2-0.5c-0.5-0.4-0.9-1-1.1-1.7c-0.3-0.6-0.4-1.3-0.3-2c0-0.1-0.1-0.1-0.1-0.2
	c-0.1-0.9-0.1-1.8-0.1-2.7c0-0.6-0.1-1.2-0.1-1.7c0.1-0.5-0.1-1,0-1.5c0-0.5,0-0.9-0.1-1.4c-0.1-0.9-0.1-2-0.1-2.8v-3.3
	c0.1-0.8,0.1-1.6,0-2.3c0-0.9,0-1.8,0.1-2.8c0.1-0.7,0-1.5,0.1-2.1c0.1-0.9,0.1-1.7,0-2.6c0-1.6,0.1-3.1,0.2-4.6
	c0-1,0.1-1.9,0.2-2.9c0.1-1.1,0.4-2.1,0.9-3c0.4-0.8,1.2-1.4,2-1.5c0.7-0.2,1.5-0.1,2.2,0.2c0.7,0.3,1.4,0.9,1.8,1.5
	c0.5,0.7,1,1.4,1.5,2.2c0.5,0.8,1.1,1.7,1.5,2.5c0.6,1.3,1.2,2.6,1.8,3.9c0.4,1,0.9,2,1.2,3c0.4,0.8,0.7,1.7,1.2,2.5
	c0.1,0.3,0.1,0.7,0.4,0.9c0.1,0.2,0.4,0.3,0.6,0.2c0.4-0.1,0.7-0.5,0.9-0.9c0.4-1.4,0.9-2.7,1.5-4c0.6-1.7,1.2-3.3,1.9-4.9
	c0.7-1.7,1.5-3.3,2-5.1c0.3-1,0.7-1.9,1.3-2.7c0.6-0.9,1.7-1.4,2.8-1.5c1.2-0.1,2.4,0.4,3.1,1.5c0.7,0.8,1.1,1.9,1.1,3
	c0.1,1,0.2,2,0.2,3c0.1,0.9,0,1.7,0.1,2.5c0,0.5,0,0.9-0.1,1.4c0,0.4,0.1,0.9,0.1,1.4c-0.1,1.2-0.1,2.3-0.1,3.5v2.1
	c0,0.7-0.1,1.5-0.1,2.2v2.2c0,0.7-0.1,1.4-0.1,2.1c0,0.6,0,1.3-0.1,1.9c0,0.9-0.1,2-0.1,3c0,0.9-0.1,1.9-0.1,2.8
	c-0.1,1.5-0.2,4.6-0.2,5.6c0.1,1-0.1,2-0.6,3c-0.4,0.9-1.3,1.6-2.3,1.7c-0.6,0.2-1.2,0.2-1.8,0C79.9,134,79,133,78.7,131.8"/>
<path id="Trazado_261" class="st1" d="M90.4,134.4c-1.2-0.8-1.9-2.3-1.7-3.7v-0.2c0-0.6,0-1.2,0-1.8c-0.1-0.3-0.1-0.6,0-0.9
	c0-0.4,0-0.8,0-1.2c0.1-0.6,0.1-1.2,0-1.8c-0.1-0.3,0.1-0.6,0.1-0.9c-0.1-0.3-0.1-0.5,0-0.8c0.1-0.1,0-0.1,0-0.2
	c-0.1-0.7,0.1-1.5,0.1-2.3c0-0.6,0-1.2,0-1.7c-0.1-0.3,0.1-0.6,0.1-0.9c-0.1-0.3-0.2-0.6,0-0.9v-0.1c-0.1-0.7,0.1-1.3-0.1-2
	c-0.1-0.4,0.1-0.7,0.1-0.9V113c0.1-0.4,0.1-0.8,0.1-1.2c0-0.6,0-1.3,0-1.9c0-0.6,0-1.2,0.1-1.7c0-0.4,0-0.8,0-1.2
	c0.1-0.6,0.1-1.2,0-1.7c-0.1-0.3,0.1-0.5,0.1-0.8c0-0.3,0-0.5,0.1-0.8v-0.4c0-0.6,0-1.2,0-1.8c0.1-0.5,0.1-1,0.1-1.5
	c-0.1-1.3,0.2-2.5,0.7-3.7c0.5-1.1,1.3-2,2.4-2.5c1.1-0.5,2.3-0.8,3.5-0.9c1.4,0,2.8,0.2,4.2,0.6c1.4,0.4,2.8,1.1,4,2
	c0.7,0.6,1.4,1.3,2,2c0.6,0.8,1.1,1.6,1.5,2.4c0.2,0.5,0.4,1.1,0.6,1.7c0.2,0.5,0.2,1.2,0.4,1.7c0.1,0.3,0.2,0.7,0.1,1
	c0.1,1.3,0,2.6-0.1,3.8c-0.3,1.9-1,3.8-2,5.5c-0.5,0.8-1,1.6-1.6,2.4c-0.9,1.1-1.9,2.1-3.1,2.9c-0.8,0.6-1.7,1.1-2.7,1.4
	c-0.4,0.1-0.7,0.2-1.1,0.3c-0.6,0.1-1.1,0.4-1.3,0.9c-0.4,0.5-0.6,1.1-0.7,1.7c-0.1,0.1-0.1,0.1-0.1,0.2c0.1,0.6,0.1,1.1,0,1.7
	c0.1,0.6,0,1.1-0.1,1.7v0.2c0.1,0.9,0.1,1.8,0,2.7c0,0.1,0,0.3,0.1,0.4c0.1,0.8,0,1.5-0.3,2.3c-0.3,1.2-1.2,2.1-2.4,2.4
	C92.3,135.1,91.3,135,90.4,134.4 M97.2,114.2c0.3,0,0.5-0.1,0.7-0.2c0.4-0.3,0.8-0.5,1.1-0.9c0.9-0.9,1.5-2,1.9-3.2
	c0.6-1.6,0.8-3.3,0.6-5c0-0.3-0.1-0.7-0.1-1c-0.1-0.4-0.3-0.9-0.4-1.3c-0.4-0.8-0.9-1.5-1.6-2.1c-0.4-0.3-0.8-0.6-1.3-0.7
	c-0.2-0.1-0.5-0.1-0.7,0.1c-0.5,0.3-0.8,0.8-0.8,1.3c-0.1,1.2-0.2,2.3-0.1,3.5c0,0.1,0.1,0.1,0,0.2c-0.1,0.5-0.1,1-0.1,1.5
	c0,0.6,0,1.2,0,1.8v1.2c-0.1,0.7-0.1,1.5-0.1,2.3v0.2c-0.2,0.6,0.1,1.2,0.1,1.7c0,0.3,0.3,0.4,0.4,0.6
	C96.8,114.3,97.1,114.2,97.2,114.2"/>
<path id="Trazado_262" class="st1" d="M119.9,132.4c-1-0.4-2-1-2.9-1.7c-0.9-0.8-1.7-1.6-2.4-2.5c-0.6-0.8-1.2-1.7-1.6-2.6
	c-0.2-0.6-0.4-1.2-0.7-1.9c-0.5-1.7-0.8-3.5-1-5.2l-0.2-2.5c-0.1-0.8-0.1-1.6-0.1-2.3c0.1-1,0.1-2,0.1-3c0-0.8,0.1-1.7,0.1-2.5
	c0.1-1.5,0.4-3.1,0.7-4.6l0.2-1.2c0.1-0.8,0.4-1.6,0.7-2.4c0.2-0.4,0.5-0.7,0.8-1c0.6-0.8,1.3-1.5,2-2.1c1.2-1,2.6-1.9,4-2.5
	c1-0.4,2.1-0.8,3.3-0.9c0.9-0.1,1.7-0.1,2.6,0c1.6,0.2,3.1,0.7,4.6,1.4c0.8,0.4,1.5,0.9,2.1,1.5c0.3,0.2,0.6,0.5,0.9,0.8
	c1,1,1.9,2.2,2.6,3.5c0.6,1,1,2,1.5,3.1c0.2,0.5,0.3,1.1,0.5,1.7c0.2,0.7,0.3,1.6,0.4,2.3c0.1,0.3,0.1,0.5,0.1,0.7
	c0.1,1,0.2,2,0.1,3c0,2.1-0.2,4.2-0.7,6.2c-0.4,2.1-1.1,4.1-2,6.1c-0.4,0.8-0.8,1.6-1.2,2.4c-0.4,0.9-1,1.7-1.7,2.5
	c-0.7,0.6-1.2,1.3-1.9,1.9c-1.1,0.9-2.4,1.7-3.7,2.3c-0.6,0.1-1.2,0.3-1.7,0.5c-0.3,0.2-0.7,0.2-1,0.1c-0.1-0.1-0.2,0-0.3,0
	C122.9,133.3,121.3,133,119.9,132.4 M127,124.7c0.4-0.5,0.7-0.9,0.9-1.5c0.5-0.7,1-1.6,1.3-2.4c0.6-1.3,1.1-2.6,1.4-3.9
	c0.5-1.8,0.8-3.7,0.8-5.5c0-0.9,0-1.8-0.1-2.8c0-0.7-0.4-1.4-0.5-2.2v-0.1c-0.4-0.9-0.7-1.8-1.2-2.7c-0.8-1.2-1.8-2.2-3.1-2.9
	c-0.2-0.1-0.5-0.2-0.8-0.3c-1.2-0.3-2.4-0.1-3.5,0.4c-0.8,0.5-1.6,1-2.2,1.7c-0.5,0.4-0.8,0.9-0.9,1.5l-0.6,3.4
	c-0.3,1.9-0.4,3.9-0.4,5.8c0,0.8,0,1.6,0.1,2.4c0.1,1,0.2,2,0.3,3c0,0.3,0.2,0.5,0.3,0.8c0.1,1,0.4,1.9,0.7,2.8
	c0.4,1.3,1.1,2.6,2.1,3.6c0.7,0.8,1.8,1,2.8,0.7C125.5,126.3,126.3,125.6,127,124.7"/>
<path id="Trazado_263" class="st1" d="M143.3,133.4c-0.4-0.2-0.7-0.5-1-0.9c-0.7-0.8-1.1-1.8-1.2-2.8l-0.2-2.8c0-0.4,0-0.7,0.1-1.1
	c-0.1-0.3-0.1-0.7,0-1.1c0.1-0.1,0-0.1,0-0.2c-0.1-0.7-0.1-1.4,0.1-2c0-1,0-2.1,0.1-3.1c0.1-0.6,0.1-1.1,0.1-1.7
	c0.1-0.6,0.1-1.2,0.1-1.7c0-0.5,0.1-1.1,0.1-1.6c0-0.6,0-1.2,0.1-1.8c0.1-0.4,0.1-0.8,0.1-1.2c0-0.9,0.1-1.8,0.1-2.7
	c0.1-0.9,0.1-1.8,0.1-2.8c0.1-0.6,0.1-1.1,0.1-1.7c0-0.6,0.1-1.2,0.1-1.8c0.1-0.8,0.3-1.7,0.6-2.5c0.3-0.6,0.6-1.2,0.9-1.7
	c0.7-1,1.7-1.7,2.9-2c1-0.2,2.1-0.3,3.1-0.4c1.9,0.2,3.8,0.8,5.4,1.8c1.6,1,2.9,2.3,3.7,4c0.4,0.8,0.7,1.6,0.8,2.5
	c0,0.3,0,0.5,0.1,0.8c0.2,2.1-0.3,4.2-1.3,6c-0.5,0.9-1,1.8-1.7,2.6c-0.9,1.1-1.8,2.1-2.9,3c-0.4,0.5-0.7,1.2-0.7,1.8
	c0.2,0.4,0.2,0.7,0.5,1.1c0.9,1,1.7,2.1,2.6,3.2c1,1.2,2,2.5,3,3.8c0.7,0.9,1.2,1.9,1.2,3.1c0.1,0.8-0.2,1.6-0.7,2.2
	c-0.4,0.4-0.7,0.8-1.2,0.9c-1.2,0.5-2.5,0.3-3.5-0.4c-0.9-0.7-1.7-1.5-2.3-2.5c-0.9-1.2-1.8-2.4-2.8-3.6l-0.8-1.1
	c-0.2-0.2-0.5-0.3-0.7-0.2c-0.2,0.1-0.2,0.3-0.3,0.5v0.1c0.1,1-0.1,2,0.1,3.1c0.1,0.5,0,1.1-0.1,1.6c-0.2,1-0.7,1.9-1.4,2.7
	c-0.4,0.4-0.9,0.7-1.5,0.7C144.4,133.8,143.8,133.7,143.3,133.4 M150.7,109.5c0.7-0.7,1.2-1.6,1.5-2.5c0.2-0.6,0.3-1.2,0.2-1.8
	c-0.3-1.1-1.4-1.9-2.6-1.7c-0.6,0.1-0.7,0.1-0.8,0.7c-0.1,0.5-0.1,1.1-0.1,1.6c0,0.6,0,1.1,0,1.7c-0.1,0.7-0.1,1.5-0.1,2
	c0,0.2,0,0.4,0.1,0.6c0,0.6,0.3,0.7,0.9,0.4C150,110.2,150.4,109.9,150.7,109.5"/>
<path id="Trazado_264" class="st1" d="M171.5,133.4c-0.5-0.5-0.8-1.2-0.9-2c-0.1-0.4-0.2-0.9-0.1-1.4c0-1.1-0.1-2.3,0-3.4
	c0.1-1.5,0-2.9,0.1-4.4c0.1-1.4,0-2.8,0.1-4.2c0.1-1,0-2.1,0.1-3.1c0.1-0.9,0-1.7,0.1-2.5s0-1.5,0.1-2.3c0.1-1,0-2,0.1-3
	c0.1-1.6,0.2-3.1,0.1-4.7c0-0.7-0.2-1.4-0.5-2.1c-0.2-0.4-0.6-0.7-1.1-0.7h-4.1c-1.2,0.1-2.4-0.5-3.1-1.5c-0.2-0.3-0.3-0.7-0.3-1.1
	c0-0.3,0-0.7,0.1-1c0.4-1.2,1.5-2.1,2.8-2.2c0.4,0,0.9-0.1,1.3-0.1h5.3c1.8,0,3.7,0.1,5.5-0.1c2.1-0.1,4.2-0.1,6.2-0.1
	c0.9,0,1.8,0.2,2.6,0.7c0.8,0.4,1.3,1.1,1.5,1.9c0.1,0.6,0,1.1-0.3,1.6c-0.3,0.4-0.8,0.7-1.2,0.9c-0.1,0.1-0.2,0.1-0.3,0.1
	c-0.6,0.3-1.2,0.5-1.8,0.6c-1.1,0.1-2.3,0.1-3.4,0.1c-0.4,0.1-0.9,0.1-1.3,0.1c-0.1,0-0.2,0.1-0.3,0.2c-0.5,0.4-0.9,1-1,1.7
	c-0.1,0.5-0.1,1-0.1,1.5c0,1.2-0.1,2.3,0,3.5c0,1.3-0.3,2.6-0.2,3.9c-0.2,0.8,0,1.7-0.1,2.5c-0.1,0.9,0,1.7-0.1,2.5
	c-0.1,1.1,0,2.1-0.1,3.2c-0.2,1.5,0,3.1-0.2,4.6c-0.1,1.3,0.1,2.6-0.1,3.9c-0.1,0.9-0.1,1.7-0.1,2.5c0,0.9-0.2,1.7-0.6,2.5
	c-0.3,0.8-0.9,1.5-1.7,1.9C173.6,134.6,172.3,134.3,171.5,133.4"/>
<path id="Trazado_265" class="st1" d="M200.5,133.5c-0.9-0.7-1.5-1.9-1.5-3.1c-0.2-2-0.1-4.1-0.1-6.1c0-0.4-0.1-0.9-0.4-1.2
	c-0.2-0.2-0.4-0.3-0.6-0.4c-0.9,0-1.7-0.1-2.5-0.1c-0.7-0.1-1.5-0.1-2.2-0.1c-0.2-0.1-0.5,0-0.7,0.2c-0.2,0.2-0.4,0.4-0.6,0.7
	c-0.2,0.2-0.3,0.4-0.4,0.7l-0.4,3.2c-0.1,0.7-0.2,1.5-0.4,2.3c-0.3,0.9-0.8,1.6-1.5,2.3c-0.3,0.2-0.6,0.4-0.9,0.5
	c-0.8,0.4-1.8,0.2-2.5-0.4c-0.7-0.6-1.2-1.4-1.4-2.3c-0.2-0.5-0.2-1-0.1-1.5V128c0-0.7,0-1.4,0.1-2.1c0.1-1.2,0.3-2.3,0.5-3.4
	l0.7-3.4c0.2-1.2,0.6-2.5,0.9-3.7c0.7-2.5,1.5-5,2.3-7.4c0.5-1.5,1.2-3.1,1.7-4.5l1.9-4.7c0.5-1.4,1.2-2.6,2-3.8
	c0.4-0.6,1.1-1,1.9-1c1.2-0.2,2.4,0.2,3.2,1.1c0.6,0.6,1.2,1.4,1.6,2.2c0.6,1,1.2,2.1,1.6,3.2c0.5,1.2,0.9,2.5,1.2,3.8
	c0.1,0.8,0.4,1.6,0.5,2.3c0.2,0.8,0.3,1.5,0.3,2.3c0,0.4,0.2,0.6,0.2,0.9c-0.1,0.3-0.1,0.6,0.1,0.9c0.1,0,0,0.1,0,0.1
	c0,0.8,0.1,1.7,0.2,2.5c0.1,1.3,0,2.7,0.1,4c0.1,1.7,0.1,3.3,0.1,5c0.1,0.7,0.1,1.5,0.1,2.3v2.3c0,0.9,0.1,1.8,0,2.7
	c0,0.8-0.2,1.7-0.4,2.5c-0.3,1-1.1,1.8-2.2,2.1C202.2,134.3,201.2,134.1,200.5,133.5 M198.5,114.8c0.1-0.3,0.1-0.6,0.1-0.9
	c0-0.5-0.1-0.9-0.1-1.4c0-0.8-0.2-1.5-0.1-2.3v-0.1c-0.2-0.9-0.3-1.7-0.4-2.6c-0.1-0.4-0.2-0.8-0.3-1.2c0-0.1-0.1-0.4-0.3-0.4
	c-0.2-0.1-0.5,0-0.6,0.2c-0.1,0.1-0.1,0.2-0.1,0.3c-0.4,1.1-0.8,2.2-1.2,3.2c-0.4,1.4-0.9,2.7-1.3,4c-0.1,0.4-0.2,0.8-0.2,1.2
	c0,0.4,0.3,0.8,0.7,0.9c0.2,0.1,0.5,0.2,0.8,0.1c0.3,0,0.6,0,0.9,0.1c0.3,0.1,0.7,0.1,1,0.1C197.8,116,198.4,115.5,198.5,114.8"/>
<path id="Trazado_266" class="st1" d="M209,134c-0.4-0.5-0.7-1-0.8-1.7c-0.1-0.9-0.2-1.8-0.1-2.8c0-0.5,0-1-0.1-1.5
	c0-0.6,0-1.3,0-1.9c0-0.4-0.1-0.9-0.1-1.4c-0.1-0.9,0-1.7,0-2.5c-0.1-1.1,0-2.1,0-3.2v-2.5c-0.1-1-0.1-2,0.1-3
	c0.1-0.9,0-1.7,0.1-2.6c0-1.3,0.1-2.6,0.2-3.9l0.2-3.8c0.1-1.6,0.3-3.2,0.7-4.8c0.4-1.4,1.5-2.5,3-2.7c0.8-0.1,1.7,0.1,2.4,0.6
	c1.1,0.7,1.9,1.8,2.4,3l1.1,2.5c0.3,0.8,0.6,1.6,0.9,2.3c0.4,1.2,0.9,2.4,1.5,3.6c0.7,1.5,1.2,3.1,1.8,4.6c0.4,0.9,0.8,2,1.3,2.9
	c0,0.1,0.1,0.1,0.1,0.2c0.1,0.1,0.2,0.3,0.4,0.3c0.3-0.1,0.3-0.3,0.4-0.4v-3.8c0-0.8,0.1-1.5,0-2.3c-0.1-0.7-0.1-1.3,0-2
	c0.1-0.4,0-0.9,0.1-1.3v-3.6c0-0.7,0-2.3,0.1-3.1c0-0.7,0-1.4,0.1-2.1c0.1-1,0.4-1.9,0.9-2.8c0.5-1,1.5-1.6,2.5-1.7
	c0.7,0,1.3,0.3,1.7,0.7c0.8,0.7,1.3,1.6,1.5,2.5c0.1,0.3,0.2,0.6,0.3,0.9c0.1,0.8,0.2,1.6,0.1,2.4c0,0.4,0,0.8,0,1.2l-0.1,0.9v5
	c0,1,0,2.1-0.1,3.2v1.1c0.1,1.5,0,3.1-0.1,4.6l-0.2,4.1c-0.1,1.4-0.1,2.7-0.1,4.1c-0.1,1.7-0.2,3.6-0.5,5.3
	c-0.1,0.9-0.2,1.8-0.5,2.7c-0.4,1-1.2,1.7-2.2,2c-1,0.3-2.2-0.1-2.8-0.9c-0.3-0.4-0.7-0.8-0.9-1.2c-0.3-0.6-0.7-1.1-1.2-1.6
	c-0.9-1.3-1.7-2.7-2.4-4.1c-0.6-1-1.1-2.2-1.7-3.3c-0.7-1.4-1.2-2.8-1.9-4.1c-0.3-0.8-0.7-1.5-0.9-2.3c-0.1-0.1-0.1-0.2-0.2-0.3
	c-0.1-0.1-0.3-0.4-0.4-0.3c-0.2,0.1-0.4,0.3-0.4,0.5c-0.1,0.3-0.1,0.6-0.1,0.9c0,0.8-0.1,1.6-0.1,2.5v5.9c0,0.8,0.1,1.6,0.1,2.4
	c-0.1,0.7-0.1,1.4-0.1,2.1c-0.1,0.6-0.1,1.1-0.1,1.7c-0.1,0.9-0.3,1.7-0.8,2.5c-0.4,0.6-1,1-1.7,1.2C211.1,135.5,209.8,135,209,134"
	/>
<path id="Trazado_267" class="st1" d="M28,129c-0.4,0.1-0.8,0.1-1.1-0.1c-0.1-0.1-0.2,0-0.2,0c-2.1,0-4.2-0.1-6.3,0
	c-1.2,0.1-2.4,0.1-3.6,0.1c-1.2,0.1-2.4,0.1-3.6,0.1c-0.7,0-1.4-0.1-2.1-0.4c-1.1-0.2-1.8-1.3-1.6-2.4c0.2-0.6,0.7-1.1,1.3-1.3
	c0.4-0.2,0.9-0.3,1.3-0.4c2-0.2,4-0.1,6-0.1h8.1c0.2,0,0.5,0,0.7,0.1c0.3,0,0.7,0,1-0.1c0.7-0.1,1.4-0.1,2.1,0
	c0.5,0.1,1,0.1,1.5,0.3c0.8,0.2,1.4,0.7,1.8,1.4c0.3,0.7,0.1,1.4-0.5,1.9c-0.5,0.5-1.2,0.8-1.9,0.9c-0.6,0.1-1.1,0.2-1.7,0.1
	C28.8,129.1,28.4,129,28,129"/>
<path id="Trazado_269" class="st2" d="M295.8,34.5c-10-15.8-23.6-0.7-24.9,0.8c-1.4-1.6-15-16.6-24.9-0.8c-10,15.9,24.9,35,24.9,35
	S305.8,50.3,295.8,34.5"/>
<path id="Trazado_270" class="st1" d="M264.4,74.6c-0.4,0-0.8-0.1-1.2-0.3c-1-0.5-23.9-13.2-27.5-27.3c-1.1-3.8-0.5-7.9,1.7-11.2
	c3.2-5.1,7.2-7.9,11.9-8.3c6.4-0.5,12.2,4,15.1,6.8c3-2.8,8.7-7.3,15.1-6.8c4.6,0.3,8.6,3.1,11.9,8.3c2.1,3.3,2.8,7.4,1.7,11.2
	c-3.6,14.1-26.5,26.8-27.5,27.3C265.2,74.5,264.8,74.6,264.4,74.6 M250.2,32.5c-0.2,0-0.4,0-0.6,0c-3,0.2-5.7,2.2-8.1,6
	c-1.4,2.2-1.8,4.8-1.1,7.3c2.7,10.4,19.3,20.8,23.9,23.5c4.6-2.7,21.3-13.1,23.9-23.5c0.7-2.5,0.3-5.2-1.1-7.3
	c-2.4-3.7-5.1-5.8-8.1-6c-5-0.4-10.5,4.3-12.9,7.1c-0.5,0.5-1.2,0.9-1.9,0.9l0,0c-0.7,0-1.4-0.3-1.9-0.9
	C260.2,36.9,255.1,32.5,250.2,32.5"/>
<path id="Trazado_271" class="st1" d="M263.8,92.1c-12.6,0-24.6-5.2-33.3-14.3h-22.3c-1.4,0-2.5-1.1-2.5-2.5c0-0.5,0.2-1,0.5-1.5
	l12.9-17.3c-5.8-24.7,9.6-49.4,34.3-55.2s49.4,9.6,55.2,34.3c5.8,24.7-9.6,49.4-34.3,55.2C270.9,91.7,267.4,92.1,263.8,92.1
	 M213.1,72.9h18.5c0.7,0,1.4,0.3,1.8,0.8c15.2,16.7,41,18,57.8,2.8c16.7-15.2,18-41,2.8-57.8c-15.2-16.7-41-18-57.8-2.8
	c-11.3,10.2-15.9,25.9-12.1,40.6c0.2,0.7,0,1.5-0.4,2.1L213.1,72.9z"/>
<path id="Trazado_272" class="st1" d="M267,60.6c-0.4,0-0.7-0.2-0.8-0.6l-2.2-6.3h-7.1c-0.4,0-0.7-0.3-0.9-0.6l-2.4-8.6l-2.5,8.6
	c-0.1,0.4-0.5,0.6-0.9,0.6h-7.5c-0.5,0-0.9-0.4-0.9-0.9c0-0.5,0.4-0.9,0.9-0.9h6.8l3.2-10.9c0.1-0.4,0.5-0.6,0.9-0.6h0
	c0.4,0,0.7,0.3,0.9,0.6l3.1,10.9h7c0.4,0,0.7,0.2,0.8,0.6l1.6,4.4l1.7-5.3c0.1-0.4,0.5-0.6,0.8-0.6h16.9c0.5,0,0.9,0.4,0.9,0.9
	c0,0.5-0.4,0.9-0.9,0.9h-16.3l-2.3,7.2C267.8,60.3,267.4,60.6,267,60.6L267,60.6z"/>
</svg>
