<svg xmlns="http://www.w3.org/2000/svg" width="53.983" height="58.89" viewBox="0 0 53.983 58.89">
  <path id="Icon_metro-calculator2" data-name="Icon metro-calculator2" d="M11.217,41.831h7.361V34.47H11.217Zm2.454-4.908h2.454v2.454H13.671Zm7.361,4.908h7.361V34.47H21.032Zm2.454-4.908H25.94v2.454H23.486ZM21.032,51.646h7.361V44.285H21.032Zm2.454-4.908H25.94v2.454H23.486ZM11.217,51.646h7.361V44.285H11.217Zm2.454-4.908h2.454v2.454H13.671Zm17.176-4.908h7.361V34.47H30.847ZM33.3,36.923h2.454v2.454H33.3ZM25.94,27.108h2.454V24.655H25.94Zm-4.908,0h2.454V24.655H21.032Zm-9.815,4.908h39.26V9.932H11.217Zm2.454-19.63H48.024V29.562H13.671ZM50.478,2.571H11.217A7.361,7.361,0,0,0,3.856,9.932V54.1a7.361,7.361,0,0,0,7.361,7.361h39.26A7.361,7.361,0,0,0,57.839,54.1V9.932a7.361,7.361,0,0,0-7.361-7.361ZM52.931,54.1a2.452,2.452,0,0,1-2.454,2.454H11.217A2.452,2.452,0,0,1,8.764,54.1V9.932a2.452,2.452,0,0,1,2.454-2.454h39.26a2.452,2.452,0,0,1,2.454,2.454V54.1ZM30.847,51.646h7.361V44.285H30.847ZM33.3,46.738h2.454v2.454H33.3V46.738Zm7.361,4.908h9.815V34.47H40.663V51.646Zm2.454-14.723h4.908V49.192H43.116V36.923ZM16.125,27.108h2.454V24.655H16.125Z" transform="translate(-3.856 -2.571)" fill="#28dd39"/>
</svg>
