<svg xmlns="http://www.w3.org/2000/svg" width="205.531" height="158.487" viewBox="0 0 205.531 158.487">
  <path id="Trazado_2902" data-name="Trazado 2902" d="M45.075,667.76c-14.278,0-27.414-15.753-32.653-22.034-.561-.675-1.009-1.211-1.328-1.568-3.97-4.42-12.966-16.241-10.747-30.5.387-2.478,1.19-7.632,5.3-12,7.522-8,21.763-8.794,29.877-1.67a17.672,17.672,0,0,1,3.41,4.058,18.24,18.24,0,0,1,15.218-8.083,24.485,24.485,0,0,1,24.457,24.458v4.548a8.416,8.416,0,0,1-8.407,8.406h-6.14a6.949,6.949,0,0,1-6.827-5.666l-1.506-8.057-2.222,9.805a2.529,2.529,0,0,1-2.473,1.974h-3.9a1.8,1.8,0,0,0-1.683,1.17l-2.469,6.633a3.608,3.608,0,0,1-3.6,2.376,3.644,3.644,0,0,1-3.357-2.711l-3.276-12.3a6.908,6.908,0,0,1-6.563,4.834H11.233a2.233,2.233,0,0,1,0-4.465H26.186a2.415,2.415,0,0,0,2.308-1.729l.721-2.461A3.681,3.681,0,0,1,32.78,620.1h.046a3.683,3.683,0,0,1,3.547,2.762l3.313,12.435,1.584-4.255a6.285,6.285,0,0,1,5.866-4.077H49.5l3.283-14.487a3.127,3.127,0,0,1,3.073-2.456c.022,0,.044,0,.064,0a3.125,3.125,0,0,1,3.039,2.574l2.672,14.289a2.48,2.48,0,0,0,2.437,2.022H70.2a3.946,3.946,0,0,0,3.942-3.94v-4.548a20.014,20.014,0,0,0-19.991-19.993,13.811,13.811,0,0,0-12.908,8.772l-.324.82a2.2,2.2,0,0,1-2.148,1.409,2.235,2.235,0,0,1-2.052-1.545,14.421,14.421,0,0,0-4.139-6.541C26.274,597.8,14.768,598.473,8.9,604.71c-3.166,3.366-3.8,7.443-4.142,9.632-1.926,12.371,6.112,22.886,9.657,26.833.346.385.83.964,1.436,1.69,4.765,5.715,19.271,23.106,32.448,20.064,1.317-.3,3.66-1.615,17.7-14.164,7.471-6.677,18.362-5.647,27.977-4.731l1.871.175c12.753,1.166,32.356,1.562,59.931,1.214a45.663,45.663,0,0,0,44.556-39.948,78.946,78.946,0,0,0,.357-10.449,84.382,84.382,0,0,1,.372-10.887c-.314-28.21-.155-43.863,0-71.591.012-2.083-.633,1.508-.73,0-.926-14.646-7.454,26.125-7.747,0l3.012,2.672c0-1.233-4.244,0-3.012,0s3.012-1.233,3.012,0l-3.012-2.672c.317,28.255,12.723-18.329,12.568,9.468-.156,27.758.061,34,.376,62.221a2.036,2.036,0,0,1-.018.3,78.955,78.955,0,0,0-.357,10.449,83.437,83.437,0,0,1-.391,11.037,50.142,50.142,0,0,1-48.931,43.867c-27.732.35-47.484-.052-60.393-1.231l-1.885-.178c-9.126-.866-18.563-1.76-24.578,3.615-15.282,13.658-17.431,14.67-19.671,15.187a18.755,18.755,0,0,1-4.231.478" transform="translate(0 -509.273)" fill="#ff2742"/>
</svg>
