<svg id="Grupo_3054" data-name="Grupo 3054" xmlns="http://www.w3.org/2000/svg" xmlns:xlink="http://www.w3.org/1999/xlink" width="238.997" height="544.447" viewBox="0 0 238.997 544.447">
  <defs>
    <clipPath id="clip-path">
      <rect id="Rectángulo_523" data-name="Rectángulo 523" width="238.997" height="544.447" fill="none"/>
    </clipPath>
  </defs>
  <g id="Grupo_3053" data-name="Grupo 3053" transform="translate(0)" clip-path="url(#clip-path)">
    <path id="Trazado_2906" data-name="Trazado 2906" d="M91.218,544.447h50.041c53.893,0,97.737-42.66,97.737-95.095V2.361a2.426,2.426,0,0,0-4.851,0V449.352c0,49.831-41.669,90.375-92.886,90.375H17.011c-1.007-.026-6.494-.375-9.861-4.851a11.787,11.787,0,0,1-2.291-7.47L5.7,465.746a6.887,6.887,0,0,1,.731-3.119,8.406,8.406,0,0,1,3.989-3.537c3.223-1.6,6.785-1.484,14.533-1.052,1.375.077,2.25.152,2.869.2a8.617,8.617,0,0,0,2.877-.068,12.007,12.007,0,0,0,6.28-3.5,17.5,17.5,0,0,1,4.3-3.084,19.6,19.6,0,0,1,8.349-1.964,22.271,22.271,0,0,1,7.459,1.144,23.889,23.889,0,0,1,4.762,2.125,15.656,15.656,0,0,1,5.211,5c1.1,1.688,3.893,5.991,2.458,8.789-.858,1.677-3.025,2.383-6.488,3.389a24.834,24.834,0,0,1-10.137.766,2.4,2.4,0,0,0-2.719,2.034,2.371,2.371,0,0,0,2.09,2.646A29.764,29.764,0,0,0,64.41,474.6c3.746-1.091,7.609-2.216,9.45-5.81,2.654-5.176-1.2-11.111-2.655-13.348a20.515,20.515,0,0,0-6.854-6.593,28.812,28.812,0,0,0-5.746-2.565,27.294,27.294,0,0,0-9.1-1.38,24.421,24.421,0,0,0-10.434,2.483,22.174,22.174,0,0,0-5.4,3.833c-1.363,1.237-2.184,1.984-3.929,2.326a3.853,3.853,0,0,1-1.485-.005c-.654-.055-1.577-.137-3.027-.217-7.786-.429-12.486-.689-17.014,1.564a12.933,12.933,0,0,0-6.126,5.641A11.436,11.436,0,0,0,.85,465.7L.01,527.292a16.4,16.4,0,0,0,3.226,10.371c4.71,6.262,12.254,6.75,13.716,6.784Z" transform="translate(0.001)" fill="#28dd39"/>
    <path id="Trazado_2907" data-name="Trazado 2907" d="M88.136,325.072h63.981a9.369,9.369,0,0,0,9.484-9.229V262.848a9.116,9.116,0,0,0-9.228-8.977h-3.487a2.361,2.361,0,1,0,0,4.72h3.487a4.324,4.324,0,0,1,4.377,4.257v52.994a4.579,4.579,0,0,1-4.633,4.51H88.136a4.35,4.35,0,0,1-4.4-4.285V258.6a2.427,2.427,0,0,0-4.853,0v57.467a9.143,9.143,0,0,0,9.254,9" transform="translate(-70.739 210.002)" fill="#28dd39"/>
    <path id="Trazado_2908" data-name="Trazado 2908" d="M122.412,269.5H129.5a9.343,9.343,0,0,0,8.406-5.2l5.715-11.853a2.333,2.333,0,0,0-1.166-3.139,2.455,2.455,0,0,0-3.226,1.135L133.514,262.3a4.461,4.461,0,0,1-4.013,2.481h-6.678a4.589,4.589,0,0,1-2.124-1.6,4.221,4.221,0,0,1-.684-1.584,2.408,2.408,0,0,0-2.361-1.895l-16.223-.111h-.017a2.36,2.36,0,1,0-.017,4.72l14.475.1a8.78,8.78,0,0,0,.836,1.451,9.553,9.553,0,0,0,4.978,3.528,2.488,2.488,0,0,0,.725.108" transform="translate(-90.752 206.041)" fill="#28dd39"/>
  </g>
</svg>
