<svg xmlns="http://www.w3.org/2000/svg" width="871" height="333.79" viewBox="0 0 871 333.79">
  <path id="Trazado_2779" data-name="Trazado 2779" d="M901.556,33.938c-8.967,43.816-32.462,84.04-64.522,114.706-32,30.606-72.939,52.518-116.646,59.457-44.351,7.043-102.295-.079-125.21-45.068-9.778-19.2-12.2-42.578-3.426-62.6,9.3-21.212,31.148-33.052,53.636-32.89,24.2.176,45.438,13.034,59.165,32.776,13.7,19.7,19.011,45.07,17.143,68.844-3.662,46.567-32.5,85.714-68.348,113.251-40.945,31.458-92.273,47.036-143.157,50.626a301.953,301.953,0,0,1-84.663-6.13c-26.538-5.713-52.213-14.754-77.792-23.764-25.754-9.074-51.594-18.22-78.318-23.965a229.347,229.347,0,0,0-200.333,50.6,232.728,232.728,0,0,0-24.849,25.062c-6.792,7.967-18.17-3.615-11.417-11.534,29.963-35.135,70.088-60.877,113.835-74.661a245.223,245.223,0,0,1,68.007-11.281c24.641-.549,49.183,3.237,73.01,9.394,50.291,13,97.69,35.954,148.841,45.78a284.728,284.728,0,0,0,155.9-14.2c38.729-15.122,75.344-42.429,96.64-78.916,20.431-35.008,25.746-85.493-3.728-117.395-13.592-14.712-34.3-21.909-53.8-16.346-18.29,5.216-28.88,21.773-29.091,40.519a61.958,61.958,0,0,0,23.412,48.988c17.354,13.722,40.093,18.747,61.716,19.129,41.665.735,82.594-14.511,116.194-38.881,32.915-23.871,59.629-57.861,73.835-96.3a201.979,201.979,0,0,0,8.4-29.536c2.1-10.273,17.671-5.926,15.57,4.337" transform="translate(901.751 357.523) rotate(-180)" fill="#f8f8f8"/>
</svg>
