<svg xmlns="http://www.w3.org/2000/svg" xmlns:xlink="http://www.w3.org/1999/xlink" width="351" height="129" viewBox="0 0 351 129"><defs><filter id="a" x="0" y="0" width="351" height="129" filterUnits="userSpaceOnUse"><feOffset dy="3" input="SourceAlpha"/><feGaussianBlur stdDeviation="3" result="b"/><feFlood flood-opacity="0.161"/><feComposite operator="in" in2="b"/><feComposite in="SourceGraphic"/></filter></defs><g transform="translate(8.619 6)"><g transform="matrix(1, 0, 0, 1, -8.62, -6)" filter="url(#a)"><rect width="333" height="111" rx="20" transform="translate(9 6)" fill="#f2f5f4"/></g><path d="M8.993-8.487v1.472a.82.82,0,0,0,.8.828h3.151A3.882,3.882,0,0,1,8.993-3.5C6.187-3.5,4.761-5.773,4.761-8.05S6.187-12.6,8.993-12.6a3.94,3.94,0,0,1,2.783,1.035.831.831,0,0,0,1.012.092l1.932-1.288a.833.833,0,0,0,.138-1.265A8.113,8.113,0,0,0,8.993-16.4,8.019,8.019,0,0,0,.805-8.05,8.014,8.014,0,0,0,8.993.276,6.3,6.3,0,0,0,14.168-2l.391,1.472a.739.739,0,0,0,.69.529h.621a.717.717,0,0,0,.713-.713V-8.487a.82.82,0,0,0-.8-.828H9.8A.82.82,0,0,0,8.993-8.487ZM27.186-11.04v.529A3.976,3.976,0,0,0,23.9-11.937c-3.634,0-5.589,3.059-5.589,6.118,0,3.036,1.955,6.1,5.589,6.1A3.976,3.976,0,0,0,27.186-1.15v.529A.618.618,0,0,0,27.807,0h2.3a.825.825,0,0,0,.828-.828V-10.833a.825.825,0,0,0-.828-.828h-2.3A.618.618,0,0,0,27.186-11.04ZM24.564-3.335A2.354,2.354,0,0,1,22.08-5.819a2.36,2.36,0,0,1,2.484-2.507,2.39,2.39,0,0,1,2.507,2.507A2.384,2.384,0,0,1,24.564-3.335Zm15.824-8.6A3.957,3.957,0,0,0,37.214-10.6v-.437a.618.618,0,0,0-.621-.621h-2.3a.825.825,0,0,0-.828.828V-.828A.825.825,0,0,0,34.293,0h2.093a.825.825,0,0,0,.828-.828V-6.279a1.78,1.78,0,0,1,1.863-2,1.791,1.791,0,0,1,1.863,2V-.828A.82.82,0,0,0,41.745,0h2.116a.82.82,0,0,0,.805-.828V-7.291C44.666-9.637,43.309-11.937,40.388-11.937Zm15,.9v.529A3.976,3.976,0,0,0,52.1-11.937c-3.634,0-5.589,3.059-5.589,6.118,0,3.036,1.955,6.1,5.589,6.1A3.976,3.976,0,0,0,55.384-1.15v.529A.618.618,0,0,0,56.005,0h2.3a.825.825,0,0,0,.828-.828V-10.833a.825.825,0,0,0-.828-.828h-2.3A.618.618,0,0,0,55.384-11.04ZM52.762-3.335a2.354,2.354,0,0,1-2.484-2.484,2.36,2.36,0,0,1,2.484-2.507,2.39,2.39,0,0,1,2.507,2.507A2.384,2.384,0,0,1,52.762-3.335ZM66.907-7.222c-.92-.184-2.162-.23-2.162-.989,0-.667.667-.874,1.4-.874a1.429,1.429,0,0,1,1.2.506.608.608,0,0,0,.621.253l1.978-.483a.642.642,0,0,0,.414-.874,4.559,4.559,0,0,0-4.232-2.254c-2.921,0-4.991,1.38-4.991,3.818,0,2.3,1.2,3.105,3.45,3.588,1.357.3,2.576.276,2.576,1.058,0,.621-.621.851-1.4.851A1.684,1.684,0,0,1,64.308-3.2a.661.661,0,0,0-.69-.23l-2.277.713a.6.6,0,0,0-.368.851C61.732-.3,63.733.276,65.8.276c3.427,0,5.221-1.449,5.221-3.91C71.024-5.773,69.851-6.6,66.907-7.222Zm20.01-8.05v4.761a3.913,3.913,0,0,0-3.289-1.426c-3.611,0-5.589,3.059-5.589,6.118,0,3.036,1.978,6.1,5.589,6.1A3.913,3.913,0,0,0,86.917-1.15v.529A.618.618,0,0,0,87.538,0h2.3a.825.825,0,0,0,.828-.828V-15.272a.825.825,0,0,0-.828-.828H87.745A.825.825,0,0,0,86.917-15.272Zm-2.6,11.937a2.36,2.36,0,0,1-2.507-2.484,2.366,2.366,0,0,1,2.507-2.507A2.372,2.372,0,0,1,86.8-5.819,2.366,2.366,0,0,1,84.318-3.335Zm14.191-8.6a6,6,0,0,0-6,6.118c0,3.611,2.6,6.1,6.555,6.1a6.055,6.055,0,0,0,4.577-1.863.65.65,0,0,0-.161-.943L101.844-3.5a.59.59,0,0,0-.713.069,3.217,3.217,0,0,1-2.07.713,2.78,2.78,0,0,1-2.944-1.978h7.659a.82.82,0,0,0,.805-.828C104.65-9.867,101.775-11.937,98.509-11.937ZM96.14-6.946a2.517,2.517,0,0,1,2.507-2,2.363,2.363,0,0,1,2.53,2Zm21.873-4.991a6.022,6.022,0,0,0-6.256,6.118A6.035,6.035,0,0,0,118.013.3a6.022,6.022,0,0,0,6.256-6.118A6.008,6.008,0,0,0,118.013-11.937Zm0,8.6a2.417,2.417,0,0,1-2.484-2.484,2.436,2.436,0,0,1,2.484-2.507,2.441,2.441,0,0,1,2.507,2.507A2.423,2.423,0,0,1,118.013-3.335ZM129.835-9.89v-.943a.82.82,0,0,0-.805-.828h-2.116a.82.82,0,0,0-.805.828V-.828a.82.82,0,0,0,.805.828h2.116a.82.82,0,0,0,.805-.828V-4.6c0-1.84.322-3.588,3.036-3.4a.629.629,0,0,0,.667-.621V-11.27a.619.619,0,0,0-.736-.6A4.5,4.5,0,0,0,129.835-9.89ZM136.16,0h2.093a.825.825,0,0,0,.828-.828V-10.833a.825.825,0,0,0-.828-.828H136.16a.825.825,0,0,0-.828.828V-.828A.825.825,0,0,0,136.16,0Zm1.058-12.972a1.953,1.953,0,0,0,1.955-1.955,1.953,1.953,0,0,0-1.955-1.955,1.973,1.973,0,0,0-1.978,1.955A1.973,1.973,0,0,0,137.218-12.972Zm11.316,1.035A3.957,3.957,0,0,0,145.36-10.6v-.437a.618.618,0,0,0-.621-.621h-2.3a.825.825,0,0,0-.828.828V-.828a.825.825,0,0,0,.828.828h2.093a.825.825,0,0,0,.828-.828V-6.279a1.78,1.78,0,0,1,1.863-2,1.791,1.791,0,0,1,1.863,2V-.828a.82.82,0,0,0,.8.828h2.116a.82.82,0,0,0,.805-.828V-7.291C152.812-9.637,151.455-11.937,148.534-11.937Zm15,.9v.529a3.976,3.976,0,0,0-3.289-1.426c-3.634,0-5.589,3.059-5.589,6.118,0,3.036,1.955,6.1,5.589,6.1A3.976,3.976,0,0,0,163.53-1.15v.529a.618.618,0,0,0,.621.621h2.3a.825.825,0,0,0,.828-.828V-10.833a.825.825,0,0,0-.828-.828h-2.3A.618.618,0,0,0,163.53-11.04Zm-2.622,7.705a2.354,2.354,0,0,1-2.484-2.484,2.36,2.36,0,0,1,2.484-2.507,2.39,2.39,0,0,1,2.507,2.507A2.384,2.384,0,0,1,160.908-3.335ZM173.535-9.89v-.943a.82.82,0,0,0-.8-.828h-2.116a.82.82,0,0,0-.805.828V-.828a.82.82,0,0,0,.805.828h2.116a.82.82,0,0,0,.8-.828V-4.6c0-1.84.322-3.588,3.036-3.4a.629.629,0,0,0,.667-.621V-11.27a.619.619,0,0,0-.736-.6A4.5,4.5,0,0,0,173.535-9.89Z" transform="translate(107.256 65.297)" fill="#0b2c50"/><g transform="translate(25.978 22.095)"><circle cx="33.651" cy="33.651" r="33.651" transform="translate(0)" fill="#3fa3a7"/><g transform="translate(18.314 13.633)"><path d="M192.651-510.215c.391-.369.749-.693,1.088-1.036a.349.349,0,0,0,.066-.3,8.059,8.059,0,0,1-.1-4.723,26.4,26.4,0,0,0,.526-5.9c0-.121-.009-.242,0-.363a.6.6,0,0,1,.629-.626.593.593,0,0,1,.635.627,23.158,23.158,0,0,1-.051,2.763c-.186,1.677-.47,3.344-.7,5.016a5.183,5.183,0,0,0,.216,2.522,21.367,21.367,0,0,1,11.808-3.126,21.4,21.4,0,0,1,11.834,3.15,5.931,5.931,0,0,0,.211-1.34c-.077-1.019-.213-2.036-.383-3.044a30.5,30.5,0,0,1-.413-5.867.641.641,0,0,1,.657-.705c.392.008.625.264.615.734a33.267,33.267,0,0,0,.759,7.464,5.806,5.806,0,0,1-.3,3.254.426.426,0,0,0,.132.579c.341.269.648.582.995.9a6.846,6.846,0,0,0,.86-2.947,22.27,22.27,0,0,0-.475-4.217c-.181-1.693-.244-3.4-.334-5.1a.612.612,0,0,1,.644-.665.6.6,0,0,1,.618.682,37.894,37.894,0,0,0,.754,7.374,8.358,8.358,0,0,1-1.1,5.8.632.632,0,0,0-.076.512,11.455,11.455,0,0,1,.693,9.174,14.786,14.786,0,0,1-4.76,7.033,28.1,28.1,0,0,1-3.579,2.613,6.267,6.267,0,0,0-3.187,5.075c-.1,1.188-.174,2.379-.25,3.57-.035.548-.235.805-.653.8s-.662-.3-.625-.822c.109-1.535.159-3.082.4-4.6a6.9,6.9,0,0,1,3.486-4.994,22.346,22.346,0,0,0,4.152-3.133,13.623,13.623,0,0,0,4.133-7.283A9.275,9.275,0,0,0,216.23-512.1a20.3,20.3,0,0,0-7.583-1.919,23.941,23.941,0,0,0-8.866.926,12.57,12.57,0,0,0-5.78,3.409,8.734,8.734,0,0,0-2.255,6.629,13.181,13.181,0,0,0,4.919,9.5,23.678,23.678,0,0,0,3.318,2.433,7.422,7.422,0,0,1,3.831,5.767c.15,1.349.207,2.709.3,4.064a.648.648,0,0,1-.513.748c-.422.1-.728-.2-.767-.714-.105-1.369-.186-2.742-.334-4.107a5.743,5.743,0,0,0-2.938-4.485,23.422,23.422,0,0,1-4.883-3.806,14.375,14.375,0,0,1-4.119-8.141,10.873,10.873,0,0,1,1.133-6.894.618.618,0,0,0,.038-.513,9.207,9.207,0,0,1-.989-6.994,27.486,27.486,0,0,0,.585-5.983c0-.106,0-.212,0-.318a.6.6,0,0,1,.593-.664.61.61,0,0,1,.674.633,22.873,22.873,0,0,1-.057,2.672c-.188,1.662-.489,3.311-.7,4.971A7.338,7.338,0,0,0,192.651-510.215Z" transform="translate(-190.431 523.17)" fill="#fff"/><path d="M240.816-422.543a9.646,9.646,0,0,0-3.13-.741,8.374,8.374,0,0,0-4.552.921,8.532,8.532,0,0,1-8.163-.089,8.869,8.869,0,0,0-7.332-.158.708.708,0,0,0-.134.1,9.4,9.4,0,0,0,1.555,3.321,15.059,15.059,0,0,0,4.493,4.094,9.668,9.668,0,0,1,3.926,4.264,10.579,10.579,0,0,1,.844,3.685c.108,1.522.168,3.047.244,4.57.008.164.041.376-.043.485-.149.194-.374.444-.575.451s-.458-.218-.6-.408c-.1-.131-.061-.375-.075-.57-.153-2.031-.19-4.079-.486-6.089a6.937,6.937,0,0,0-3.3-4.882,20.748,20.748,0,0,1-4.853-4.046,11.053,11.053,0,0,1-2.68-6.311,7.189,7.189,0,0,1,3.973-7.294,16.906,16.906,0,0,1,6.142-1.9,21.8,21.8,0,0,1,10.524,1.064,10.1,10.1,0,0,1,3.691,2.235,7.032,7.032,0,0,1,2.067,5.99c-.327,3.561-2.231,6.217-4.906,8.4-.793.648-1.659,1.209-2.513,1.776a7.706,7.706,0,0,0-3.6,6.131c-.128,1.716-.2,3.437-.29,5.156-.027.493-.252.769-.643.777a.609.609,0,0,1-.652-.659,32.647,32.647,0,0,1,.6-7.118,8.485,8.485,0,0,1,3.821-5.306,18.3,18.3,0,0,0,4.792-4.107,10.074,10.074,0,0,0,1.756-3.346C240.753-422.266,240.78-422.4,240.816-422.543Zm-23.551-1.389a.508.508,0,0,0,.125.021,1.177,1.177,0,0,0,.175-.045,10.256,10.256,0,0,1,8.25.469,7.329,7.329,0,0,0,3.208.847,8.089,8.089,0,0,0,3.81-1,9.327,9.327,0,0,1,5.726-.833c.826.13,1.637.349,2.492.536a5.787,5.787,0,0,0-1.033-4.225,7.925,7.925,0,0,0-3.96-2.742,20.8,20.8,0,0,0-13.418-.134,8.7,8.7,0,0,0-3.973,2.419A5.738,5.738,0,0,0,217.265-423.932Z" transform="translate(-212.834 444.236)" fill="#fff"/><path d="M319.871-301.844a.726.726,0,0,1,.747.732.73.73,0,0,1-.734.748.728.728,0,0,1-.723-.713A.724.724,0,0,1,319.871-301.844Z" transform="translate(-303.566 328.657)" fill="#fff"/><path d="M277.949-322.5a.706.706,0,0,1-.775.691.706.706,0,0,1-.679-.786.7.7,0,0,1,.751-.669A.7.7,0,0,1,277.949-322.5Z" transform="translate(-266.068 347.483)" fill="#fff"/><path d="M362.567-323.261a.7.7,0,0,1,.73.736.7.7,0,0,1-.748.719.7.7,0,0,1-.707-.714A.7.7,0,0,1,362.567-323.261Z" transform="translate(-341.077 347.479)" fill="#fff"/></g></g></g></svg>