<svg xmlns="http://www.w3.org/2000/svg" xmlns:xlink="http://www.w3.org/1999/xlink" width="351" height="130" viewBox="0 0 351 130"><defs><filter id="a" x="0" y="0" width="351" height="130" filterUnits="userSpaceOnUse"><feOffset dy="3" input="SourceAlpha"/><feGaussianBlur stdDeviation="3" result="b"/><feFlood flood-opacity="0.161"/><feComposite operator="in" in2="b"/><feComposite in="SourceGraphic"/></filter></defs><g transform="translate(8.611 6.222)"><g transform="matrix(1, 0, 0, 1, -8.61, -6.22)" filter="url(#a)"><rect width="333" height="112" rx="20" transform="translate(9 6)" fill="#f2f5f4"/></g><path d="M7.383-16.1H2.208a.825.825,0,0,0-.828.828V-.828A.825.825,0,0,0,2.208,0h2.3a.82.82,0,0,0,.8-.828V-4.784h2.07c3.5,0,6.371-1.748,6.371-5.543C13.754-13.8,11.385-16.1,7.383-16.1Zm0,7.82H5.313V-12.4h2.07c1.518,0,2.392.828,2.392,2.07C9.775-8.924,8.809-8.28,7.383-8.28Zm13.432-3.657a6,6,0,0,0-6,6.118c0,3.611,2.6,6.1,6.555,6.1a6.055,6.055,0,0,0,4.577-1.863.65.65,0,0,0-.161-.943L24.15-3.5a.59.59,0,0,0-.713.069,3.218,3.218,0,0,1-2.07.713,2.78,2.78,0,0,1-2.944-1.978h7.659a.82.82,0,0,0,.805-.828C26.956-9.867,24.081-11.937,20.815-11.937ZM18.446-6.946a2.517,2.517,0,0,1,2.507-2,2.363,2.363,0,0,1,2.53,2Zm1.725-8.947-.943,2.047a.4.4,0,0,0,.368.575H21.39a1,1,0,0,0,.828-.437l1.5-2.139a.417.417,0,0,0-.345-.644H21.091A1.006,1.006,0,0,0,20.171-15.893Zm12.328,6v-.943a.82.82,0,0,0-.805-.828H29.578a.82.82,0,0,0-.805.828V-.828A.82.82,0,0,0,29.578,0h2.116A.82.82,0,0,0,32.5-.828V-4.6c0-1.84.322-3.588,3.036-3.4a.629.629,0,0,0,.667-.621V-11.27a.619.619,0,0,0-.736-.6A4.5,4.5,0,0,0,32.5-9.89Zm13.455-5.382v4.761a3.913,3.913,0,0,0-3.289-1.426c-3.611,0-5.589,3.059-5.589,6.118,0,3.036,1.978,6.1,5.589,6.1A3.913,3.913,0,0,0,45.954-1.15v.529A.618.618,0,0,0,46.575,0h2.3A.825.825,0,0,0,49.7-.828V-15.272a.825.825,0,0,0-.828-.828H46.782A.825.825,0,0,0,45.954-15.272Zm-2.6,11.937a2.36,2.36,0,0,1-2.507-2.484,2.366,2.366,0,0,1,2.507-2.507,2.372,2.372,0,0,1,2.484,2.507A2.366,2.366,0,0,1,43.355-3.335ZM53.038,0h2.093a.825.825,0,0,0,.828-.828V-10.833a.825.825,0,0,0-.828-.828H53.038a.825.825,0,0,0-.828.828V-.828A.825.825,0,0,0,53.038,0ZM54.1-12.972a1.953,1.953,0,0,0,1.955-1.955A1.953,1.953,0,0,0,54.1-16.882a1.973,1.973,0,0,0-1.978,1.955A1.973,1.973,0,0,0,54.1-12.972Zm12.558-2.3v4.761a3.913,3.913,0,0,0-3.289-1.426c-3.611,0-5.589,3.059-5.589,6.118,0,3.036,1.978,6.1,5.589,6.1A3.913,3.913,0,0,0,66.654-1.15v.529A.618.618,0,0,0,67.275,0h2.3A.825.825,0,0,0,70.4-.828V-15.272a.825.825,0,0,0-.828-.828H67.482A.825.825,0,0,0,66.654-15.272Zm-2.6,11.937a2.36,2.36,0,0,1-2.507-2.484,2.366,2.366,0,0,1,2.507-2.507,2.372,2.372,0,0,1,2.484,2.507A2.366,2.366,0,0,1,64.055-3.335ZM81.121-11.04v.529a3.976,3.976,0,0,0-3.289-1.426c-3.634,0-5.589,3.059-5.589,6.118,0,3.036,1.955,6.1,5.589,6.1A3.976,3.976,0,0,0,81.121-1.15v.529A.618.618,0,0,0,81.742,0h2.3a.825.825,0,0,0,.828-.828V-10.833a.825.825,0,0,0-.828-.828h-2.3A.618.618,0,0,0,81.121-11.04ZM78.5-3.335a2.354,2.354,0,0,1-2.484-2.484A2.36,2.36,0,0,1,78.5-8.326a2.39,2.39,0,0,1,2.507,2.507A2.384,2.384,0,0,1,78.5-3.335Zm23.046-11.937v4.761a3.913,3.913,0,0,0-3.289-1.426c-3.611,0-5.589,3.059-5.589,6.118,0,3.036,1.978,6.1,5.589,6.1a3.913,3.913,0,0,0,3.289-1.426v.529a.618.618,0,0,0,.621.621h2.3a.825.825,0,0,0,.828-.828V-15.272a.825.825,0,0,0-.828-.828h-2.093A.825.825,0,0,0,101.545-15.272Zm-2.6,11.937a2.36,2.36,0,0,1-2.507-2.484,2.366,2.366,0,0,1,2.507-2.507,2.372,2.372,0,0,1,2.484,2.507A2.366,2.366,0,0,1,98.946-3.335Zm14.191-8.6a6,6,0,0,0-6,6.118c0,3.611,2.6,6.1,6.555,6.1a6.055,6.055,0,0,0,4.577-1.863.65.65,0,0,0-.161-.943L116.472-3.5a.59.59,0,0,0-.713.069,3.217,3.217,0,0,1-2.07.713,2.78,2.78,0,0,1-2.944-1.978H118.4a.82.82,0,0,0,.805-.828C119.278-9.867,116.4-11.937,113.137-11.937Zm-2.369,4.991a2.517,2.517,0,0,1,2.507-2,2.363,2.363,0,0,1,2.53,2Zm23.322-4.991a3.976,3.976,0,0,0-3.289,1.426v-.529a.618.618,0,0,0-.621-.621h-2.3a.82.82,0,0,0-.805.828V3.634a.815.815,0,0,0,.805.805h2.093a.82.82,0,0,0,.828-.805V-1.15A3.976,3.976,0,0,0,134.09.276c3.634,0,5.589-3.059,5.589-6.1C139.679-8.878,137.724-11.937,134.09-11.937Zm-.667,8.6a2.384,2.384,0,0,1-2.507-2.484,2.39,2.39,0,0,1,2.507-2.507,2.36,2.36,0,0,1,2.484,2.507A2.354,2.354,0,0,1,133.423-3.335Zm13.432-8.6a6,6,0,0,0-6,6.118c0,3.611,2.6,6.1,6.555,6.1a6.055,6.055,0,0,0,4.577-1.863.65.65,0,0,0-.161-.943L150.19-3.5a.59.59,0,0,0-.713.069,3.217,3.217,0,0,1-2.07.713,2.78,2.78,0,0,1-2.944-1.978h7.659a.82.82,0,0,0,.8-.828C153-9.867,150.121-11.937,146.855-11.937Zm-2.369,4.991a2.517,2.517,0,0,1,2.507-2,2.363,2.363,0,0,1,2.53,2Zm15.571-.276c-.92-.184-2.162-.23-2.162-.989,0-.667.667-.874,1.4-.874a1.429,1.429,0,0,1,1.2.506.608.608,0,0,0,.621.253l1.978-.483a.642.642,0,0,0,.414-.874,4.559,4.559,0,0,0-4.232-2.254c-2.921,0-4.991,1.38-4.991,3.818,0,2.3,1.2,3.105,3.45,3.588,1.357.3,2.576.276,2.576,1.058,0,.621-.621.851-1.4.851a1.684,1.684,0,0,1-1.449-.575.661.661,0,0,0-.69-.23l-2.277.713a.6.6,0,0,0-.368.851c.759,1.564,2.76,2.139,4.83,2.139,3.427,0,5.221-1.449,5.221-3.91C164.174-5.773,163-6.6,160.057-7.222Zm11.431-4.715a6.022,6.022,0,0,0-6.256,6.118A6.035,6.035,0,0,0,171.488.3a6.022,6.022,0,0,0,6.256-6.118A6.008,6.008,0,0,0,171.488-11.937Zm0,8.6A2.417,2.417,0,0,1,169-5.819a2.436,2.436,0,0,1,2.484-2.507,2.441,2.441,0,0,1,2.507,2.507A2.423,2.423,0,0,1,171.488-3.335ZM6.509,17.778c-.92-.184-2.162-.23-2.162-.989,0-.667.667-.874,1.4-.874a1.429,1.429,0,0,1,1.2.506.608.608,0,0,0,.621.253l1.978-.483a.642.642,0,0,0,.414-.874,4.559,4.559,0,0,0-4.232-2.254c-2.921,0-4.991,1.38-4.991,3.818,0,2.3,1.2,3.1,3.45,3.588,1.357.3,2.576.276,2.576,1.058,0,.621-.621.851-1.4.851A1.684,1.684,0,0,1,3.91,21.8a.661.661,0,0,0-.69-.23l-2.277.713a.6.6,0,0,0-.368.851c.759,1.564,2.76,2.139,4.83,2.139,3.427,0,5.221-1.449,5.221-3.91C10.626,19.227,9.453,18.4,6.509,17.778ZM13.179,25h2.093a.825.825,0,0,0,.828-.828V14.167a.825.825,0,0,0-.828-.828H13.179a.825.825,0,0,0-.828.828V24.172A.825.825,0,0,0,13.179,25Zm1.058-12.972a1.955,1.955,0,1,0,0-3.91,1.955,1.955,0,1,0,0,3.91Zm11.316,1.035A3.957,3.957,0,0,0,22.379,14.4V13.96a.618.618,0,0,0-.621-.621h-2.3a.825.825,0,0,0-.828.828V24.172a.825.825,0,0,0,.828.828h2.093a.825.825,0,0,0,.828-.828V18.721a1.868,1.868,0,1,1,3.726,0v5.451A.82.82,0,0,0,26.91,25h2.116a.82.82,0,0,0,.805-.828V17.709C29.831,15.363,28.474,13.063,25.553,13.063ZM42.067,15.11v-.943a.82.82,0,0,0-.805-.828H39.146a.82.82,0,0,0-.805.828V24.172a.82.82,0,0,0,.805.828h2.116a.82.82,0,0,0,.805-.828V20.4c0-1.84.322-3.588,3.036-3.4a.629.629,0,0,0,.667-.621V13.73a.619.619,0,0,0-.736-.6A4.5,4.5,0,0,0,42.067,15.11Zm13.478-1.15v.529a3.976,3.976,0,0,0-3.289-1.426c-3.634,0-5.589,3.059-5.589,6.118,0,3.036,1.955,6.095,5.589,6.095a3.976,3.976,0,0,0,3.289-1.426v.529a.618.618,0,0,0,.621.621h2.3a.825.825,0,0,0,.828-.828V14.167a.825.825,0,0,0-.828-.828h-2.3A.618.618,0,0,0,55.545,13.96Zm-2.622,7.7a2.354,2.354,0,0,1-2.484-2.484,2.36,2.36,0,0,1,2.484-2.507,2.39,2.39,0,0,1,2.507,2.507A2.384,2.384,0,0,1,52.923,21.665ZM66.4,21.527l4.324-5.244a1.1,1.1,0,0,0,.23-.644V14.167a.825.825,0,0,0-.828-.828H62.514a.825.825,0,0,0-.828.828v1.84a.825.825,0,0,0,.828.828h3.5l-4.278,5.221a.964.964,0,0,0-.23.644v1.472a.805.805,0,0,0,.805.828h8.027a.825.825,0,0,0,.828-.828v-1.84a.82.82,0,0,0-.828-.805ZM78.89,13.063a6.12,6.12,0,1,0,0,12.236,6.022,6.022,0,0,0,6.256-6.118A6.008,6.008,0,0,0,78.89,13.063Zm0,8.6A2.5,2.5,0,1,1,81.4,19.181,2.417,2.417,0,0,1,78.89,21.665ZM78.43,9.107l-.943,2.047a.4.4,0,0,0,.368.575h1.794a1,1,0,0,0,.828-.437l1.5-2.139a.417.417,0,0,0-.345-.644H79.35A1.006,1.006,0,0,0,78.43,9.107Zm15.479,3.956A3.957,3.957,0,0,0,90.735,14.4V13.96a.618.618,0,0,0-.621-.621h-2.3a.825.825,0,0,0-.828.828V24.172a.825.825,0,0,0,.828.828h2.093a.825.825,0,0,0,.828-.828V18.721a1.868,1.868,0,1,1,3.726,0v5.451a.82.82,0,0,0,.805.828h2.116a.82.82,0,0,0,.805-.828V17.709C98.187,15.363,96.83,13.063,93.909,13.063Zm20.976.9v.529a3.976,3.976,0,0,0-3.289-1.426c-3.634,0-5.589,3.059-5.589,6.118,0,3.036,1.955,6.095,5.589,6.095a3.976,3.976,0,0,0,3.289-1.426v.529a.618.618,0,0,0,.621.621h2.3a.825.825,0,0,0,.828-.828V14.167a.825.825,0,0,0-.828-.828h-2.3A.618.618,0,0,0,114.885,13.96Zm-2.622,7.7a2.354,2.354,0,0,1-2.484-2.484,2.36,2.36,0,0,1,2.484-2.507,2.39,2.39,0,0,1,2.507,2.507A2.384,2.384,0,0,1,112.263,21.665Zm15.916-8.6a3.976,3.976,0,0,0-3.289,1.426V13.96a.618.618,0,0,0-.621-.621h-2.3a.82.82,0,0,0-.805.828V28.634a.815.815,0,0,0,.805.8h2.093a.82.82,0,0,0,.828-.8V23.85a3.976,3.976,0,0,0,3.289,1.426c3.634,0,5.589-3.059,5.589-6.095C133.768,16.122,131.813,13.063,128.179,13.063Zm-.667,8.6a2.384,2.384,0,0,1-2.507-2.484,2.39,2.39,0,0,1,2.507-2.507A2.36,2.36,0,0,1,130,19.181,2.354,2.354,0,0,1,127.512,21.665Zm16.307-7.7v.529a3.976,3.976,0,0,0-3.289-1.426c-3.634,0-5.589,3.059-5.589,6.118,0,3.036,1.955,6.095,5.589,6.095a3.976,3.976,0,0,0,3.289-1.426v.529a.618.618,0,0,0,.621.621h2.3a.825.825,0,0,0,.828-.828V14.167a.825.825,0,0,0-.828-.828h-2.3A.618.618,0,0,0,143.819,13.96Zm-2.622,7.7a2.354,2.354,0,0,1-2.484-2.484,2.36,2.36,0,0,1,2.484-2.507,2.39,2.39,0,0,1,2.507,2.507A2.384,2.384,0,0,1,141.2,21.665Zm12.627-6.555v-.943a.82.82,0,0,0-.8-.828H150.9a.82.82,0,0,0-.805.828V24.172A.82.82,0,0,0,150.9,25h2.116a.82.82,0,0,0,.8-.828V20.4c0-1.84.322-3.588,3.036-3.4a.629.629,0,0,0,.667-.621V13.73a.619.619,0,0,0-.736-.6A4.5,4.5,0,0,0,153.824,15.11Zm10.6-2.047a6,6,0,0,0-6,6.118c0,3.611,2.6,6.095,6.555,6.095a6.055,6.055,0,0,0,4.577-1.863.65.65,0,0,0-.161-.943l-1.633-.966a.59.59,0,0,0-.713.069,3.217,3.217,0,0,1-2.07.713,2.78,2.78,0,0,1-2.944-1.978h7.659a.82.82,0,0,0,.8-.828C170.568,15.133,167.693,13.063,164.427,13.063Zm-2.369,4.991a2.517,2.517,0,0,1,2.507-2,2.363,2.363,0,0,1,2.53,2Zm17.25-4.991a3.957,3.957,0,0,0-3.174,1.334V13.96a.618.618,0,0,0-.621-.621h-2.3a.825.825,0,0,0-.828.828V24.172a.825.825,0,0,0,.828.828h2.093a.825.825,0,0,0,.828-.828V18.721a1.868,1.868,0,1,1,3.726,0v5.451a.82.82,0,0,0,.8.828h2.116a.82.82,0,0,0,.805-.828V17.709C183.586,15.363,182.229,13.063,179.308,13.063Zm13.363,2.53V14.167a.825.825,0,0,0-.828-.828h-1.472V11.706a.815.815,0,0,0-.8-.805H187.45a.815.815,0,0,0-.805.805v1.633h-.828a.825.825,0,0,0-.828.828v1.426a.825.825,0,0,0,.828.828h.828v4.048c0,2.3.828,4.738,4.416,4.738a6.843,6.843,0,0,0,1.1-.092.6.6,0,0,0,.506-.6V22.539a.586.586,0,0,0-.621-.6h-.069c-1.173,0-1.61-.621-1.61-1.84v-3.68h1.472A.825.825,0,0,0,192.671,15.593Zm7.5-2.53a6,6,0,0,0-6,6.118c0,3.611,2.6,6.095,6.555,6.095a6.055,6.055,0,0,0,4.577-1.863.65.65,0,0,0-.161-.943L203.5,21.5a.59.59,0,0,0-.713.069,3.217,3.217,0,0,1-2.07.713,2.78,2.78,0,0,1-2.944-1.978h7.659a.82.82,0,0,0,.8-.828C206.31,15.133,203.435,13.063,200.169,13.063ZM197.8,18.054a2.517,2.517,0,0,1,2.507-2,2.363,2.363,0,0,1,2.53,2Z" transform="translate(109.389 49.778)" fill="#0b2c50"/><g transform="translate(24.896 22.095)"><circle cx="33.651" cy="33.651" r="33.651" transform="translate(0)" fill="#3fa3a7"/><g transform="translate(17.875 12.415)"><path d="M196.137-8.2H193.97c.1.595.2,1.192.289,1.792a22.932,22.932,0,0,1,.065,6.274c-.053.43-.321.631-.828.631q-3.464,0-6.929,0c-.81,0-1.62-.012-2.43,0A.853.853,0,0,1,183.3.03a30.352,30.352,0,0,1-3.752-9.943,21.841,21.841,0,0,1,.155-7.73,40.331,40.331,0,0,1,2.984-8.287c.158-.369.318-.736.447-1.035-.595-.553-1.186-1.038-1.7-1.6a3.084,3.084,0,0,1-.783-2.187c.017-2.64.01-5.28,0-7.92,0-.387.106-.685.5-.795a.637.637,0,0,1,.839.574,2.487,2.487,0,0,0,.925,1.688,8.625,8.625,0,0,0,2.377,1.426,12.573,12.573,0,0,0-1.468-5.283c-.14-.264-.3-.516-.44-.783a.676.676,0,0,1,.607-1.042c.09,0,.18,0,.27,0q10.776,0,21.551,0a1.482,1.482,0,0,1,.649.111c.37.187.423.612.154,1.055A11.436,11.436,0,0,0,205-37.459c-.155,1.031-.154,2.086-.221,3.131-.025.385.148.5.538.494,1.079-.028,2.159-.013,3.239-.008.7,0,.913.213.914.915q0,3.825,0,7.65c0,.872-.138,1.013-1.009,1.036-.071,0-.142.011-.254.021.311.774.611,1.52.91,2.267a22.537,22.537,0,0,1,1.667,9.78,23.8,23.8,0,0,1-2.026,8.195c-.587,1.342-1.293,2.631-1.942,3.945a.892.892,0,0,1-.9.537C202.833.49,199.743.5,196.654.495c-.618,0-.809-.2-.885-.815a22.8,22.8,0,0,1,.352-7.641A1.714,1.714,0,0,0,196.137-8.2ZM185.892-27.3c0-.219,0-.38,0-.541,0-.675-.013-1.35.008-2.024a.661.661,0,0,1,.673-.695.673.673,0,0,1,.7.665,2.983,2.983,0,0,1,.008.36c0,.795-.011,1.59.012,2.384a.49.49,0,0,0,.244.379c.833.23,1.677.423,2.586.644V-27.4c0-.63,0-1.26,0-1.889,0-.595.253-.9.708-.9.438.007.676.31.684.876,0,.3,0,.6,0,.9,0,.808,0,1.615,0,2.49l2.834.265c0-1.178-.006-2.257,0-3.336,0-.507.289-.828.7-.826s.686.323.691.832c.009.885,0,1.769,0,2.654v.7h2.867c0-.209,0-.386,0-.564,0-.84-.009-1.68.008-2.519a.687.687,0,0,1,.69-.73.724.724,0,0,1,.676.757c.007.15,0,.3,0,.45v2.615h2.864v-.505c0-.72-.007-1.44,0-2.159.008-.492.274-.771.691-.762s.663.305.671.792c.007.375,0,.75,0,1.125v1.5h3.852v-6.839h-.564c-3.193,0-6.387.041-9.579-.014-2.17-.037-4.342-.146-6.5-.34a22.441,22.441,0,0,1-6.1-1.432,11.667,11.667,0,0,1-3.329-1.9v.473c0,1.619.008,3.239,0,4.859a2.154,2.154,0,0,0,.607,1.547A8.839,8.839,0,0,0,185.892-27.3ZM193.013-.85a1.222,1.222,0,0,0,.05-.183,25.249,25.249,0,0,0-.577-7.452,2.882,2.882,0,0,0-.428-.969,19.9,19.9,0,0,0-9.865-7.248c-.386-.139-.777-.262-1.16-.39a1.175,1.175,0,0,0-.087.19,19.612,19.612,0,0,0-.064,6.748A28.512,28.512,0,0,0,184.2-1.148a.507.507,0,0,0,.523.3c1.484-.012,2.968-.006,4.452-.006ZM209.17-17.166c-.99.372-1.852.664-2.688,1.017A18.971,18.971,0,0,0,197.987-9.4a2.274,2.274,0,0,0-.32.729A22.273,22.273,0,0,0,197-2.973c.009.7.048,1.391.072,2.058a1.254,1.254,0,0,0,.179.046c2.728,0,5.456.009,8.183-.007a.6.6,0,0,0,.422-.293c.57-1.119,1.162-2.23,1.658-3.383a21.85,21.85,0,0,0,1.929-9.689C209.406-15.175,209.273-16.106,209.17-17.166Zm-23.94-24.34c.354,1.018.777,2.01,1.036,3.043s.356,2.117.533,3.242c5.36,1.8,11,1.3,16.64,1.379a13.852,13.852,0,0,1,1.51-7.664Zm23,21.052a43.518,43.518,0,0,1-13.181,2.043,43.625,43.625,0,0,1-13.137-2.052l-.581,1.98a1.484,1.484,0,0,0,.148.079c.113.038.228.071.342.108a21.632,21.632,0,0,1,11.464,8.163c.081.115.2.259.325.279a9.729,9.729,0,0,0,1.934.231,1.554,1.554,0,0,0,1.369-.6,19.281,19.281,0,0,1,7.478-6.444c1.414-.7,2.906-1.245,4.41-1.879Zm-.476-1.273c-.321-.757-.63-1.438-.9-2.135a.535.535,0,0,0-.6-.389c-3.117.012-6.235,0-9.353.009a34.971,34.971,0,0,1-9.816-1.193c-.913-.262-1.8-.607-2.718-.919-.334.757-.678,1.52-1.009,2.288s-.645,1.534-.988,2.352A42.022,42.022,0,0,0,207.752-21.726Z" transform="translate(-179.269 42.883)" fill="#fff"/></g></g></g></svg>