<svg xmlns="http://www.w3.org/2000/svg" xmlns:xlink="http://www.w3.org/1999/xlink" width="351" height="130" viewBox="0 0 351 130"><defs><filter id="a" x="0" y="0" width="351" height="130" filterUnits="userSpaceOnUse"><feOffset dy="3" input="SourceAlpha"/><feGaussianBlur stdDeviation="3" result="b"/><feFlood flood-opacity="0.161"/><feComposite operator="in" in2="b"/><feComposite in="SourceGraphic"/></filter></defs><g transform="translate(8.619 6.222)"><g transform="matrix(1, 0, 0, 1, -8.62, -6.22)" filter="url(#a)"><rect width="333" height="112" rx="20" transform="translate(9 6)" fill="#f2f5f4"/></g><path d="M5.313-3.726V-6.371H9.729a.825.825,0,0,0,.828-.828V-9.062a.825.825,0,0,0-.828-.828H5.313V-12.4h5.152a.82.82,0,0,0,.828-.8v-2.07a.825.825,0,0,0-.828-.828H2.208a.825.825,0,0,0-.828.828V-.828A.825.825,0,0,0,2.208,0h8.464A.825.825,0,0,0,11.5-.828V-2.9a.825.825,0,0,0-.828-.828Zm15.065-8.211A3.957,3.957,0,0,0,17.2-10.6v-.437a.618.618,0,0,0-.621-.621h-2.3a.825.825,0,0,0-.828.828V-.828A.825.825,0,0,0,14.283,0h2.093A.825.825,0,0,0,17.2-.828V-6.279a1.78,1.78,0,0,1,1.863-2,1.791,1.791,0,0,1,1.863,2V-.828A.82.82,0,0,0,21.735,0h2.116a.82.82,0,0,0,.805-.828V-7.291C24.656-9.637,23.3-11.937,20.378-11.937Zm13.133,2.53v-1.426a.825.825,0,0,0-.828-.828H31.211v-1.633a.815.815,0,0,0-.805-.805H28.29a.815.815,0,0,0-.805.805v1.633h-.828a.825.825,0,0,0-.828.828v1.426a.825.825,0,0,0,.828.828h.828v4.048c0,2.3.828,4.738,4.416,4.738a6.843,6.843,0,0,0,1.1-.092.6.6,0,0,0,.506-.6V-2.461a.586.586,0,0,0-.621-.6h-.069c-1.173,0-1.61-.621-1.61-1.84v-3.68h1.472A.825.825,0,0,0,33.511-9.407Zm10.465-2.254a.82.82,0,0,0-.8.828v5.451a1.81,1.81,0,0,1-1.863,2.024,1.81,1.81,0,0,1-1.863-2.024v-5.451a.825.825,0,0,0-.828-.828H36.524a.825.825,0,0,0-.828.828V-4.37C35.7-2,37.076.276,39.974.276a4.043,4.043,0,0,0,3.2-1.334v.437a.614.614,0,0,0,.6.621h2.3A.825.825,0,0,0,46.9-.828V-10.833a.825.825,0,0,0-.828-.828Zm18.469-.276a4.018,4.018,0,0,0-3.335,1.564,3.623,3.623,0,0,0-3.289-1.564,3.7,3.7,0,0,0-2.9,1.173v-.276a.614.614,0,0,0-.6-.621h-2.3a.825.825,0,0,0-.828.828V-.828A.825.825,0,0,0,50.025,0h2.093a.82.82,0,0,0,.805-.828V-6.693A1.471,1.471,0,0,1,54.487-8.28a1.448,1.448,0,0,1,1.564,1.587V-.828A.82.82,0,0,0,56.856,0h2.093a.825.825,0,0,0,.828-.828V-6.693A1.46,1.46,0,0,1,61.341-8.28a1.442,1.442,0,0,1,1.541,1.587V-.828A.825.825,0,0,0,63.71,0H65.8a.825.825,0,0,0,.828-.828V-7.705A3.886,3.886,0,0,0,62.445-11.937Zm11.8,0a6,6,0,0,0-6,6.118c0,3.611,2.6,6.1,6.555,6.1a6.055,6.055,0,0,0,4.577-1.863.65.65,0,0,0-.161-.943L77.579-3.5a.59.59,0,0,0-.713.069,3.217,3.217,0,0,1-2.07.713,2.78,2.78,0,0,1-2.944-1.978h7.659a.82.82,0,0,0,.805-.828C80.385-9.867,77.51-11.937,74.244-11.937ZM71.875-6.946a2.517,2.517,0,0,1,2.507-2,2.363,2.363,0,0,1,2.53,2ZM87.538-3.335a2.417,2.417,0,0,1-2.484-2.484,2.423,2.423,0,0,1,2.484-2.507,2.5,2.5,0,0,1,1.794.713.63.63,0,0,0,.759.115L92.3-8.809a.625.625,0,0,0,.161-.92,6.268,6.268,0,0,0-4.922-2.208,6.022,6.022,0,0,0-6.256,6.118,6.016,6.016,0,0,0,6.256,6.1A6.268,6.268,0,0,0,92.46-1.932a.627.627,0,0,0-.161-.92L90.091-4.14a.6.6,0,0,0-.759.092A2.5,2.5,0,0,1,87.538-3.335ZM94.921,0h2.093a.825.825,0,0,0,.828-.828V-10.833a.825.825,0,0,0-.828-.828H94.921a.825.825,0,0,0-.828.828V-.828A.825.825,0,0,0,94.921,0Zm1.058-12.972a1.953,1.953,0,0,0,1.955-1.955,1.953,1.953,0,0,0-1.955-1.955A1.973,1.973,0,0,0,94-14.927,1.973,1.973,0,0,0,95.979-12.972Zm17.411,1.035a4.018,4.018,0,0,0-3.335,1.564,3.623,3.623,0,0,0-3.289-1.564,3.7,3.7,0,0,0-2.9,1.173v-.276a.614.614,0,0,0-.6-.621h-2.3a.825.825,0,0,0-.828.828V-.828A.825.825,0,0,0,100.97,0h2.093a.82.82,0,0,0,.805-.828V-6.693a1.471,1.471,0,0,1,1.564-1.587A1.448,1.448,0,0,1,107-6.693V-.828a.82.82,0,0,0,.8.828h2.093a.825.825,0,0,0,.828-.828V-6.693a1.46,1.46,0,0,1,1.564-1.587,1.442,1.442,0,0,1,1.541,1.587V-.828a.825.825,0,0,0,.828.828h2.093a.825.825,0,0,0,.828-.828V-7.705A3.886,3.886,0,0,0,113.39-11.937ZM120.681,0h2.093a.825.825,0,0,0,.828-.828V-10.833a.825.825,0,0,0-.828-.828h-2.093a.825.825,0,0,0-.828.828V-.828A.825.825,0,0,0,120.681,0Zm1.058-12.972a1.953,1.953,0,0,0,1.955-1.955,1.953,1.953,0,0,0-1.955-1.955,1.973,1.973,0,0,0-1.978,1.955A1.973,1.973,0,0,0,121.739-12.972Zm9.476,1.035a6,6,0,0,0-6,6.118c0,3.611,2.6,6.1,6.555,6.1a6.055,6.055,0,0,0,4.577-1.863.65.65,0,0,0-.161-.943L134.55-3.5a.59.59,0,0,0-.713.069,3.218,3.218,0,0,1-2.07.713,2.78,2.78,0,0,1-2.944-1.978h7.659a.82.82,0,0,0,.805-.828C137.356-9.867,134.481-11.937,131.215-11.937Zm-2.369,4.991a2.517,2.517,0,0,1,2.507-2,2.363,2.363,0,0,1,2.53,2Zm17.02-4.991a3.957,3.957,0,0,0-3.174,1.334v-.437a.618.618,0,0,0-.621-.621h-2.3a.825.825,0,0,0-.828.828V-.828a.825.825,0,0,0,.828.828h2.093a.825.825,0,0,0,.828-.828V-6.279a1.78,1.78,0,0,1,1.863-2,1.791,1.791,0,0,1,1.863,2V-.828a.82.82,0,0,0,.8.828h2.116a.82.82,0,0,0,.805-.828V-7.291C150.144-9.637,148.787-11.937,145.866-11.937ZM159-9.407v-1.426a.825.825,0,0,0-.828-.828H156.7v-1.633a.815.815,0,0,0-.8-.805h-2.116a.815.815,0,0,0-.805.805v1.633h-.828a.825.825,0,0,0-.828.828v1.426a.825.825,0,0,0,.828.828h.828v4.048c0,2.3.828,4.738,4.416,4.738a6.843,6.843,0,0,0,1.1-.092.6.6,0,0,0,.506-.6V-2.461a.586.586,0,0,0-.621-.6h-.069c-1.173,0-1.61-.621-1.61-1.84v-3.68h1.472A.825.825,0,0,0,159-9.407Zm7.521-2.53a6.022,6.022,0,0,0-6.256,6.118A6.035,6.035,0,0,0,166.52.3a6.022,6.022,0,0,0,6.256-6.118A6.008,6.008,0,0,0,166.52-11.937Zm0,8.6a2.417,2.417,0,0,1-2.484-2.484,2.436,2.436,0,0,1,2.484-2.507,2.441,2.441,0,0,1,2.507,2.507A2.423,2.423,0,0,1,166.52-3.335Zm21.9-8.326a.82.82,0,0,0-.8.828v5.451a1.81,1.81,0,0,1-1.863,2.024,1.81,1.81,0,0,1-1.863-2.024v-5.451a.825.825,0,0,0-.828-.828h-2.093a.825.825,0,0,0-.828.828V-4.37c0,2.369,1.38,4.646,4.278,4.646a4.043,4.043,0,0,0,3.2-1.334v.437a.614.614,0,0,0,.6.621h2.3a.825.825,0,0,0,.828-.828V-10.833a.825.825,0,0,0-.828-.828ZM8.165,13.063A3.957,3.957,0,0,0,4.991,14.4V9.728A.825.825,0,0,0,4.163,8.9H2.07a.805.805,0,0,0-.805.828V24.172A.805.805,0,0,0,2.07,25H4.163a.825.825,0,0,0,.828-.828V18.721a1.78,1.78,0,0,1,1.863-2,1.791,1.791,0,0,1,1.863,2v5.451A.825.825,0,0,0,9.545,25h2.093a.82.82,0,0,0,.8-.828V17.709C12.443,15.363,11.086,13.063,8.165,13.063Zm12.167,0a6.12,6.12,0,1,0,0,12.236,6.022,6.022,0,0,0,6.256-6.118A6.008,6.008,0,0,0,20.332,13.063Zm0,8.6a2.5,2.5,0,1,1,2.507-2.484A2.417,2.417,0,0,1,20.332,21.665ZM31.924,15.11v-.943a.82.82,0,0,0-.8-.828H29a.82.82,0,0,0-.805.828V24.172A.82.82,0,0,0,29,25h2.116a.82.82,0,0,0,.8-.828V20.4c0-1.84.322-3.588,3.036-3.4a.629.629,0,0,0,.667-.621V13.73a.619.619,0,0,0-.736-.6A4.5,4.5,0,0,0,31.924,15.11Zm18.538-2.047a4.018,4.018,0,0,0-3.335,1.564,3.623,3.623,0,0,0-3.289-1.564,3.7,3.7,0,0,0-2.9,1.173V13.96a.614.614,0,0,0-.6-.621h-2.3a.825.825,0,0,0-.828.828V24.172a.825.825,0,0,0,.828.828h2.093a.82.82,0,0,0,.805-.828V18.307A1.471,1.471,0,0,1,42.5,16.72a1.448,1.448,0,0,1,1.564,1.587v5.865a.82.82,0,0,0,.805.828h2.093a.825.825,0,0,0,.828-.828V18.307a1.46,1.46,0,0,1,1.564-1.587A1.442,1.442,0,0,1,50.9,18.307v5.865a.825.825,0,0,0,.828.828H53.82a.825.825,0,0,0,.828-.828V17.3A3.886,3.886,0,0,0,50.462,13.063ZM57.753,25h2.093a.825.825,0,0,0,.828-.828V14.167a.825.825,0,0,0-.828-.828H57.753a.825.825,0,0,0-.828.828V24.172A.825.825,0,0,0,57.753,25Zm1.058-12.972a1.955,1.955,0,0,0,0-3.91,1.955,1.955,0,1,0,0,3.91ZM71.139,13.96V14.6a3.75,3.75,0,0,0-3.266-1.541,5.43,5.43,0,0,0-5.612,5.7,5.43,5.43,0,0,0,5.612,5.7,3.866,3.866,0,0,0,3.266-1.426v.529c0,1.817-.69,3.059-2.967,3.059a3.637,3.637,0,0,1-2.415-.782.624.624,0,0,0-.713-.046L63.273,26.84a.622.622,0,0,0-.115.966,7.3,7.3,0,0,0,5.2,1.84c4.117,0,6.532-2.346,6.532-5.681v-9.8a.825.825,0,0,0-.828-.828h-2.3A.618.618,0,0,0,71.139,13.96Zm-2.6,7.291a2.36,2.36,0,0,1-2.507-2.484,2.5,2.5,0,1,1,4.991,0A2.366,2.366,0,0,1,68.54,21.251Zm16.928-7.912a.82.82,0,0,0-.805.828v5.451a1.869,1.869,0,1,1-3.726,0V14.167a.825.825,0,0,0-.828-.828H78.016a.825.825,0,0,0-.828.828V20.63c0,2.369,1.38,4.646,4.278,4.646a4.043,4.043,0,0,0,3.2-1.334v.437a.614.614,0,0,0,.6.621h2.3a.825.825,0,0,0,.828-.828V14.167a.825.825,0,0,0-.828-.828ZM96,13.063a6,6,0,0,0-6,6.118c0,3.611,2.6,6.095,6.555,6.095a6.055,6.055,0,0,0,4.577-1.863.65.65,0,0,0-.161-.943L99.337,21.5a.59.59,0,0,0-.713.069,3.217,3.217,0,0,1-2.07.713,2.78,2.78,0,0,1-2.944-1.978h7.659a.82.82,0,0,0,.805-.828C102.143,15.133,99.268,13.063,96,13.063Zm-2.369,4.991a2.517,2.517,0,0,1,2.507-2,2.363,2.363,0,0,1,2.53,2ZM109.3,13.063a6.12,6.12,0,1,0,0,12.236,6.022,6.022,0,0,0,6.256-6.118A6.008,6.008,0,0,0,109.3,13.063Zm0,8.6a2.5,2.5,0,1,1,2.507-2.484A2.417,2.417,0,0,1,109.3,21.665Zm18.929-8.6a6,6,0,0,0-6,6.118c0,3.611,2.6,6.095,6.555,6.095a6.055,6.055,0,0,0,4.577-1.863.65.65,0,0,0-.161-.943L131.56,21.5a.59.59,0,0,0-.713.069,3.217,3.217,0,0,1-2.07.713,2.78,2.78,0,0,1-2.944-1.978h7.659a.82.82,0,0,0,.8-.828C134.366,15.133,131.491,13.063,128.225,13.063Zm-2.369,4.991a2.517,2.517,0,0,1,2.507-2,2.363,2.363,0,0,1,2.53,2Zm17.02-4.991A3.957,3.957,0,0,0,139.7,14.4V13.96a.618.618,0,0,0-.621-.621h-2.3a.825.825,0,0,0-.828.828V24.172a.825.825,0,0,0,.828.828h2.093a.825.825,0,0,0,.828-.828V18.721a1.868,1.868,0,1,1,3.726,0v5.451a.82.82,0,0,0,.8.828h2.116a.82.82,0,0,0,.805-.828V17.709C147.154,15.363,145.8,13.063,142.876,13.063ZM155.2,9.728V24.172a.82.82,0,0,0,.805.828h2.116a.82.82,0,0,0,.8-.828V9.728a.82.82,0,0,0-.8-.828h-2.116A.82.82,0,0,0,155.2,9.728Zm14.237,4.232v.529a3.976,3.976,0,0,0-3.289-1.426c-3.634,0-5.589,3.059-5.589,6.118,0,3.036,1.955,6.095,5.589,6.095a3.976,3.976,0,0,0,3.289-1.426v.529a.618.618,0,0,0,.621.621h2.3a.825.825,0,0,0,.828-.828V14.167a.825.825,0,0,0-.828-.828h-2.3A.618.618,0,0,0,169.441,13.96Zm-2.622,7.7a2.354,2.354,0,0,1-2.484-2.484,2.36,2.36,0,0,1,2.484-2.507,2.39,2.39,0,0,1,2.507,2.507A2.384,2.384,0,0,1,166.819,21.665Zm13.915-3.887c-.92-.184-2.162-.23-2.162-.989,0-.667.667-.874,1.4-.874a1.429,1.429,0,0,1,1.2.506.608.608,0,0,0,.621.253l1.978-.483a.642.642,0,0,0,.414-.874,4.559,4.559,0,0,0-4.232-2.254c-2.921,0-4.991,1.38-4.991,3.818,0,2.3,1.2,3.1,3.45,3.588,1.357.3,2.576.276,2.576,1.058,0,.621-.621.851-1.4.851a1.684,1.684,0,0,1-1.449-.575.661.661,0,0,0-.69-.23l-2.277.713a.6.6,0,0,0-.368.851c.759,1.564,2.76,2.139,4.83,2.139,3.427,0,5.221-1.449,5.221-3.91C184.851,19.227,183.678,18.4,180.734,17.778ZM14.513,38.063a4.018,4.018,0,0,0-3.335,1.564,3.623,3.623,0,0,0-3.289-1.564,3.7,3.7,0,0,0-2.9,1.173V38.96a.614.614,0,0,0-.6-.621h-2.3a.825.825,0,0,0-.828.828V49.172A.825.825,0,0,0,2.093,50H4.186a.82.82,0,0,0,.8-.828V43.307A1.471,1.471,0,0,1,6.555,41.72a1.448,1.448,0,0,1,1.564,1.587v5.865a.82.82,0,0,0,.8.828h2.093a.825.825,0,0,0,.828-.828V43.307a1.46,1.46,0,0,1,1.564-1.587,1.442,1.442,0,0,1,1.541,1.587v5.865a.825.825,0,0,0,.828.828h2.093a.825.825,0,0,0,.828-.828V42.295A3.886,3.886,0,0,0,14.513,38.063Zm14.674.9v.529A3.976,3.976,0,0,0,25.9,38.063c-3.634,0-5.589,3.059-5.589,6.118,0,3.036,1.955,6.1,5.589,6.1a3.976,3.976,0,0,0,3.289-1.426v.529a.618.618,0,0,0,.621.621h2.3a.825.825,0,0,0,.828-.828V39.167a.825.825,0,0,0-.828-.828h-2.3A.618.618,0,0,0,29.187,38.96Zm-2.622,7.705a2.5,2.5,0,0,1,0-4.991,2.5,2.5,0,1,1,0,4.991Zm15.594-8.6A3.957,3.957,0,0,0,38.985,39.4V38.96a.618.618,0,0,0-.621-.621h-2.3a.825.825,0,0,0-.828.828V49.172a.825.825,0,0,0,.828.828h2.093a.825.825,0,0,0,.828-.828V43.721a1.868,1.868,0,1,1,3.726,0v5.451a.82.82,0,0,0,.8.828h2.116a.82.82,0,0,0,.805-.828V42.709C46.437,40.363,45.08,38.063,42.159,38.063Zm12.144,0a6.12,6.12,0,1,0,6.256,6.118A6.022,6.022,0,0,0,54.3,38.063Zm0,8.6a2.5,2.5,0,1,1,2.507-2.484A2.417,2.417,0,0,1,54.3,46.665Zm13.11-3.887c-.92-.184-2.162-.23-2.162-.989,0-.667.667-.874,1.4-.874a1.429,1.429,0,0,1,1.2.506.608.608,0,0,0,.621.253l1.978-.483a.642.642,0,0,0,.414-.874,4.559,4.559,0,0,0-4.232-2.254c-2.921,0-4.991,1.38-4.991,3.818,0,2.3,1.2,3.1,3.45,3.588,1.357.3,2.576.276,2.576,1.058,0,.621-.621.851-1.4.851a1.684,1.684,0,0,1-1.449-.575.661.661,0,0,0-.69-.23l-2.277.713a.6.6,0,0,0-.368.851c.759,1.564,2.76,2.139,4.83,2.139,3.427,0,5.221-1.449,5.221-3.91C71.53,44.227,70.357,43.4,67.413,42.778Zm16.951-4.715a6.12,6.12,0,1,0,6.256,6.118A6.022,6.022,0,0,0,84.364,38.063Zm0,8.6a2.5,2.5,0,1,1,2.507-2.484A2.417,2.417,0,0,1,84.364,46.665ZM97.98,34.728V49.172a.82.82,0,0,0,.805.828H100.9a.82.82,0,0,0,.805-.828V34.728a.82.82,0,0,0-.805-.828H98.785A.82.82,0,0,0,97.98,34.728Zm11.615,3.335a6.12,6.12,0,1,0,6.256,6.118A6.022,6.022,0,0,0,109.595,38.063Zm0,8.6a2.5,2.5,0,1,1,2.507-2.484A2.417,2.417,0,0,1,109.595,46.665Zm13.11-3.887c-.92-.184-2.162-.23-2.162-.989,0-.667.667-.874,1.4-.874a1.429,1.429,0,0,1,1.2.506.608.608,0,0,0,.621.253l1.978-.483a.642.642,0,0,0,.414-.874,4.559,4.559,0,0,0-4.232-2.254c-2.921,0-4.991,1.38-4.991,3.818,0,2.3,1.2,3.1,3.45,3.588,1.357.3,2.576.276,2.576,1.058,0,.621-.621.851-1.4.851a1.684,1.684,0,0,1-1.449-.575.661.661,0,0,0-.69-.23l-2.277.713a.6.6,0,0,0-.368.851c.759,1.564,2.76,2.139,4.83,2.139,3.427,0,5.221-1.449,5.221-3.91C126.822,44.227,125.649,43.4,122.7,42.778Zm18.4-4.715a3.976,3.976,0,0,0-3.289,1.426V38.96a.618.618,0,0,0-.621-.621h-2.3a.82.82,0,0,0-.805.828V53.634a.815.815,0,0,0,.805.805h2.093a.82.82,0,0,0,.828-.805V48.85a3.976,3.976,0,0,0,3.289,1.426c3.634,0,5.589-3.059,5.589-6.1C146.694,41.122,144.739,38.063,141.1,38.063Zm-.667,8.6a2.5,2.5,0,1,1,0-4.991,2.5,2.5,0,0,1,0,4.991ZM149.132,50h2.093a.825.825,0,0,0,.828-.828V39.167a.825.825,0,0,0-.828-.828h-2.093a.825.825,0,0,0-.828.828V49.172A.825.825,0,0,0,149.132,50Zm1.058-12.972a1.955,1.955,0,1,0,0-3.91,1.955,1.955,0,1,0,0,3.91Zm9.476,1.035a6,6,0,0,0-6,6.118c0,3.611,2.6,6.1,6.555,6.1a6.055,6.055,0,0,0,4.577-1.863.65.65,0,0,0-.161-.943L163,46.5a.59.59,0,0,0-.713.069,3.217,3.217,0,0,1-2.07.713,2.78,2.78,0,0,1-2.944-1.978h7.659a.82.82,0,0,0,.8-.828C165.807,40.133,162.932,38.063,159.666,38.063ZM157.3,43.054a2.517,2.517,0,0,1,2.507-2,2.363,2.363,0,0,1,2.53,2Zm15.341-.276c-.92-.184-2.162-.23-2.162-.989,0-.667.667-.874,1.4-.874a1.429,1.429,0,0,1,1.2.506.608.608,0,0,0,.621.253l1.978-.483a.642.642,0,0,0,.414-.874,4.559,4.559,0,0,0-4.232-2.254c-2.921,0-4.991,1.38-4.991,3.818,0,2.3,1.2,3.1,3.45,3.588,1.357.3,2.576.276,2.576,1.058,0,.621-.621.851-1.4.851a1.684,1.684,0,0,1-1.449-.575.661.661,0,0,0-.69-.23l-2.277.713a.6.6,0,0,0-.368.851c.759,1.564,2.76,2.139,4.83,2.139,3.427,0,5.221-1.449,5.221-3.91C176.755,44.227,175.582,43.4,172.638,42.778Z" transform="translate(107.381 36.778)" fill="#0b2c50"/><g transform="translate(25.978 22.095)"><circle cx="33.651" cy="33.651" r="33.651" transform="translate(0 0)" fill="#3fa3a7"/></g><g transform="translate(43.979 38.031)"><path d="M-799.319-503.121a.167.167,0,0,1-.069-.015,8.245,8.245,0,0,1-1.354-.643,3.172,3.172,0,0,1-1.183-3.588,3.227,3.227,0,0,1,3.03-2.266c.9-.023,1.8,0,2.7-.059a6.564,6.564,0,0,0,4.206-1.871c1.224-1.174,2.418-2.379,3.6-3.595a4.028,4.028,0,0,0,1.121-3.26c-.138-1.828-.252-3.657-.378-5.486q-.193-2.812-.39-5.624c-.1-1.38-.194-2.76-.287-4.14q-.155-2.312-.3-4.625c0-.028,0-.056,0-.085a.172.172,0,0,1,.172-.173h13.054a.163.163,0,0,1,.163.169h0q-.192,5.308-.387,10.616-.2,5.411-.408,10.823a12.829,12.829,0,0,0,.664,4.556,14.656,14.656,0,0,1,.721,4.45,4.636,4.636,0,0,1-3.885,4.753.215.215,0,0,0-.072.034.172.172,0,0,1-.094.028h-1.1a.17.17,0,0,1-.055-.009c-.674-.23-1.359-.433-2.019-.7a6.3,6.3,0,0,0-3.492-.3c-1.689.288-3.382.547-5.077.8-.656.1-1.319.139-1.979.205h-6.9Zm13.085-33.361a.172.172,0,0,0-.171.184c.022.313.042.61.062.907q.185,2.727.37,5.453.192,2.778.389,5.555c.133,1.909.257,3.819.4,5.728a6.165,6.165,0,0,1-1.7,4.943c-1.175,1.224-2.372,2.428-3.6,3.6a9.248,9.248,0,0,1-6.189,2.553c-.709.015-1.419,0-2.128.006a1.17,1.17,0,0,0-1.108.74,1.189,1.189,0,0,0,1.162,1.614c1.384.012,2.769-.008,4.154.006a40.262,40.262,0,0,0,8.236-.87,8.706,8.706,0,0,1,4.006-.086c.7.188,1.369.471,2.053.715a2.652,2.652,0,0,0,3.542-2.4,10.932,10.932,0,0,0-.555-3.736,15.707,15.707,0,0,1-.822-5.506q.195-4.962.383-9.925.166-4.34.328-8.68c.008-.207,0-.414,0-.628a.171.171,0,0,0-.171-.17Z" transform="translate(802.083 538.55)" fill="#fff"/><path d="M-499.109-386.546l-.032-.016a1.031,1.031,0,0,1-.456-1.4c.056-.107.116-.212.181-.313a1,1,0,0,0-.008-1.168c-.28-.475-.49-.99-.749-1.477a.453.453,0,0,1,0-.476c.3-.583.578-1.179.886-1.758a.58.58,0,0,0-.006-.609c-.305-.58-.6-1.167-.87-1.764a.625.625,0,0,1,0-.464c.283-.616.607-1.214.889-1.831a.638.638,0,0,0,0-.47c-.1-.227-.21-.451-.322-.678a1.032,1.032,0,0,1,.461-1.381l.019-.009a1.033,1.033,0,0,1,1.387.462c.288.577.572,1.148.848,1.723a.478.478,0,0,1-.047.349c-.293.612-.592,1.222-.908,1.823a.479.479,0,0,0,0,.507c.228.435.452.873.664,1.316a1.884,1.884,0,0,1,0,1.444c-.147.3-.3.6-.448.9a1.759,1.759,0,0,0,0,1.366c.228.466.465.927.689,1.395a.471.471,0,0,1,.04.348c-.274.571-.555,1.139-.844,1.718A1.033,1.033,0,0,1-499.109-386.546Z" transform="translate(528.16 413.244)" fill="#fff"/><path d="M-702.559-442.286l-.034.017a1.023,1.023,0,0,1-1.371-.458q-.126-.253-.25-.5a3.731,3.731,0,0,1-.605-1.366,2.714,2.714,0,0,1,.61-1.328,1.53,1.53,0,0,0,.006-1.913,2.788,2.788,0,0,1-.618-1.361,2.729,2.729,0,0,1,.612-1.326,1.51,1.51,0,0,0,.006-1.91,10.615,10.615,0,0,1-.551-1.073.506.506,0,0,1-.01-.541c.271-.523.533-1.051.8-1.59a1.023,1.023,0,0,1,1.372-.463l.039.02a1.023,1.023,0,0,1,.461,1.37c-.107.217-.216.43-.329.642a.543.543,0,0,0,.005.576c.306.58.579,1.178.885,1.758a.481.481,0,0,1,0,.507c-.31.591-.613,1.187-.888,1.794a.681.681,0,0,0,0,.5c.276.608.577,1.205.888,1.8a.48.48,0,0,1,0,.508c-.31.592-.612,1.188-.887,1.8a.687.687,0,0,0,0,.5c.1.225.206.447.318.67A1.024,1.024,0,0,1-702.559-442.286Z" transform="translate(713.833 463.825)" fill="#fff"/></g></g></svg>