<svg id="Grupo_752" data-name="Grupo 752" xmlns="http://www.w3.org/2000/svg" xmlns:xlink="http://www.w3.org/1999/xlink" width="424.95" height="627.619" viewBox="0 0 424.95 627.619">
  <defs>
    <clipPath id="clip-path">
      <rect id="Rectángulo_374" data-name="Rectángulo 374" width="424.95" height="627.619" fill="none"/>
    </clipPath>
    <clipPath id="clip-path-3">
      <rect id="Rectángulo_362" data-name="Rectángulo 362" width="110.309" height="44.034" fill="none"/>
    </clipPath>
    <clipPath id="clip-path-4">
      <rect id="Rectángulo_363" data-name="Rectángulo 363" width="226.981" height="347.249" fill="none"/>
    </clipPath>
    <clipPath id="clip-path-5">
      <rect id="Rectángulo_364" data-name="Rectángulo 364" width="196.955" height="57.389" fill="none"/>
    </clipPath>
    <clipPath id="clip-path-6">
      <rect id="Rectángulo_365" data-name="Rectángulo 365" width="148.124" height="100.82" fill="none"/>
    </clipPath>
    <clipPath id="clip-path-7">
      <rect id="Rectángulo_366" data-name="Rectángulo 366" width="24.811" height="86.113" fill="none"/>
    </clipPath>
    <clipPath id="clip-path-8">
      <rect id="Rectángulo_367" data-name="Rectángulo 367" width="61.878" height="102.211" fill="none"/>
    </clipPath>
    <clipPath id="clip-path-9">
      <rect id="Rectángulo_368" data-name="Rectángulo 368" width="152.153" height="195.454" fill="none"/>
    </clipPath>
    <clipPath id="clip-path-10">
      <rect id="Rectángulo_369" data-name="Rectángulo 369" width="35.861" height="99.593" fill="none"/>
    </clipPath>
    <clipPath id="clip-path-11">
      <rect id="Rectángulo_370" data-name="Rectángulo 370" width="63.895" height="116.759" fill="none"/>
    </clipPath>
    <clipPath id="clip-path-12">
      <rect id="Rectángulo_371" data-name="Rectángulo 371" width="28.682" height="45.399" fill="none"/>
    </clipPath>
    <clipPath id="clip-path-13">
      <rect id="Rectángulo_372" data-name="Rectángulo 372" width="166.911" height="49.703" fill="none"/>
    </clipPath>
  </defs>
  <g id="Grupo_696" data-name="Grupo 696" clip-path="url(#clip-path)">
    <g id="Grupo_695" data-name="Grupo 695">
      <g id="Grupo_694" data-name="Grupo 694" clip-path="url(#clip-path)">
        <path id="Trazado_863" data-name="Trazado 863" d="M47.013,227.533q-2.361-6.839-5.3-13.443c-1.727-3.875-3.513-8.606-7.348-10.742-3.8-2.115-8.593-1.142-10.522,3.106-1.975,4.351-.395,9.4.874,13.734.223.761.475,1.511.717,2.266a2.218,2.218,0,0,0-1.278-.964,2.318,2.318,0,0,0-1.674.2c-.966-.862-1.958-1.693-3-2.459a6.883,6.883,0,0,0-4.5-1.676,4.493,4.493,0,0,0-2.623,1.065c-2.107-1.466-5.139.5-5.61,3.114-.041.227-.073.467-.1.712a6.388,6.388,0,0,0-.325,5.621,3.36,3.36,0,0,0,1.342,1.482A2.791,2.791,0,0,0,8.914,231.3c.226,1.536.885,2.948,2.41,3.3a18.579,18.579,0,0,0,8.248,7.337c0,.01.012.017.015.026-.065.032-.126.068-.19.1a2.167,2.167,0,0,0-.577-.276,15.251,15.251,0,0,0-11.783,1.075,8.548,8.548,0,0,0-4.474,9.324c1.061,4.433,5.4,4.992,9.071,5.57l13.239,2.087c1.363.215,3.165-.613,3-2.372a21.727,21.727,0,0,1,.96-8.82,2.579,2.579,0,0,0-1.283-2.941,2.2,2.2,0,0,0,1.889-.674c2.1-2.236,3.977-4.976,3.677-8.061a2.313,2.313,0,0,0,1.6-1.411,101.644,101.644,0,0,1,10.64-5.008,2.5,2.5,0,0,0,1.652-3.019" transform="translate(-0.075 0.773)" fill="#adacac"/>
        <path id="Trazado_864" data-name="Trazado 864" d="M78.3,218c-.023-.076-.058-.145-.088-.217a6.7,6.7,0,0,0-.488-2.576,4.6,4.6,0,0,0-3.958-2.929c-1.774-.049-3.193,1.115-4.461,2.256a24.381,24.381,0,0,0-3.279,3.7q-.343.465-.664.95c-.017-1.6-.116-3.192-.251-4.735-.26-2.994-.56-6.186-1.876-8.912a7.947,7.947,0,0,0-7.412-4.627,7.353,7.353,0,0,0-1.594.279,2.691,2.691,0,0,0-1.111-.852,3.43,3.43,0,0,0-4.545,2.382,18.12,18.12,0,0,0-.229,5.725,42.4,42.4,0,0,0,.038,8.072c.172,3.974.449,7.906.889,11.858a1.906,1.906,0,0,0,2.094,1.793,2.421,2.421,0,0,0,1.166.335,17.953,17.953,0,0,1,5.038.708,2.238,2.238,0,0,0,2.754-1.443c.06.118.1.248.169.362a5.712,5.712,0,0,0,1.852,1.966c.585.381,1.285.582,1.845,1,1,.748,1.528,1.929,2.693,2.534,3.637,1.888,6.205-2.4,7.7-5.16.08-.148.155-.3.232-.449A11.71,11.71,0,0,0,78.3,218M57.272,206.084c-.038.01-.075.024-.111.036a2.763,2.763,0,0,0-2.13.005c0-.045,0-.09,0-.135a2.844,2.844,0,0,1,2.246.093" transform="translate(-1.54 0.765)" fill="#adacac"/>
        <path id="Trazado_865" data-name="Trazado 865" d="M48.105,238.98a3.708,3.708,0,0,0-4.192,2,2.819,2.819,0,0,0-.335,1.341,1.957,1.957,0,0,0,.329,1.134,3.817,3.817,0,0,0,.613,1.513,3.338,3.338,0,0,0,3.826,1.264,3.671,3.671,0,0,0,2.549-3.536,4.07,4.07,0,0,0-2.79-3.712m.882,4.918c-.033.051-.067.1-.1.15-.014.013-.111.128-.133.152a3.955,3.955,0,0,1-.345.322l-.013.011c-.03.024-.061.047-.093.07-.069.048-.141.094-.214.139a2.2,2.2,0,0,1-.8.305c-.037.008-.077.015-.117.021h-.025c-.082.006-.166.009-.249.007a1.292,1.292,0,0,1-.4-.053,2.389,2.389,0,0,1-1.577-1.563.967.967,0,0,0,.136-.258c.009-.022.015-.044.021-.066l.018-.05a2.743,2.743,0,0,0,.124-.344c.009-.03.04-.119.054-.167.015-.027.069-.15.083-.18a3.8,3.8,0,0,0,.147-.369l0,.008c.025-.046.045-.1.068-.142.035-.069.074-.139.114-.2.02-.037.094-.14.109-.167a3.372,3.372,0,0,1,.3-.335c.017-.016.092-.079.119-.1l.054-.039q.062-.044.128-.084c.076-.047.154-.088.231-.131.02-.01.018-.011.027-.015a.208.208,0,0,0,.037-.01c.083-.027.166-.055.252-.077.071-.017.272-.034.1-.026.089,0,.177-.013.268-.012l.129.005c.029.007.167.029.2.036.1.025.193.057.287.091a.24.24,0,0,0,.031.01.23.23,0,0,0,.038.024c.078.043.157.085.231.133s.119.08.177.122.089.079.132.12.11.109.162.168c.02.021.087.1.107.124a3.092,3.092,0,0,1,.266.44c.017.034.034.07.05.105l.007.011v0c.027.073.053.148.074.223s.042.177.064.265l.008.039c0,.03.009.077.009.086.007.09.009.183.007.274,0,.026-.007.093-.009.124a2.524,2.524,0,0,1-.13.5c-.014.029-.026.058-.042.086-.04.075-.079.151-.123.223" transform="translate(-1.394 0.913)" fill="#1c1d1c"/>
        <path id="Trazado_866" data-name="Trazado 866" d="M77.078,213.131a8.345,8.345,0,0,0-8.51-1.635,10.853,10.853,0,0,0-4.294,2.821c-.126.136-.256.276-.384.421A26.361,26.361,0,0,0,61.7,203.861c-1.757-3.584-5.447-6.507-9.478-6.143-4.149.373-7.166,4.077-8.05,8.1a19.667,19.667,0,0,0-.317,5.731c-1.91-4.214-4.77-7.99-9.12-9.652-4.5-1.72-9.791-.557-12.467,3.775-2.423,3.922-2.043,8.562-.8,12.838-5.864-4.079-13.812-5.337-18.145,1.344-2.9,4.471-.8,9.88,2.072,13.7a37.158,37.158,0,0,0,5.5,5.8,12.775,12.775,0,0,0-6.576,2.313A10.6,10.6,0,0,0,0,249.894a9.832,9.832,0,0,0,4.481,8.031c2.925,2.065,6.637,2.65,10.066,3.134a47.114,47.114,0,0,0,13.4.4,1.7,1.7,0,0,0,1.2-1.247,1.73,1.73,0,0,0,0-.95,1.8,1.8,0,0,0-1.66-1.31c-2.007-.053-4.019.129-6.032.065a60.339,60.339,0,0,1-6.014-.487c-3.352-.447-7.409-.936-10.005-3.419a5.888,5.888,0,0,1-.706-7.892,8.042,8.042,0,0,1,3.643-2.806,19.844,19.844,0,0,1,5.172-.886,1.536,1.536,0,0,0,.9-.442c.343.238.685.477,1.033.7a41.1,41.1,0,0,0,14.081,5.838c2.526.526,3.61-3.484,1.069-4.022A38.048,38.048,0,0,1,11.1,233.78c-2.314-2.4-5.47-5.9-5-9.614.453-3.561,4.34-5.133,7.391-4.72a14.37,14.37,0,0,1,6.188,2.651c1.608,1.123,3.009,2.545,4.6,3.685A51.841,51.841,0,0,0,32.01,238.4c1.071,1.242,3.11-.379,2.232-1.787a106.885,106.885,0,0,1-7.37-13.106c-1.914-4.313-4.124-9.531-2.564-14.307,1.358-4.164,5.469-5.371,9.228-4.039,4.036,1.429,6.435,5.573,7.851,9.505,1.931,5.363,2.707,11.079,5.151,16.257.747,1.584,2.633.95,3.13-.353a1.423,1.423,0,0,0,.9-1.713c-.648-1.806-1.164-3.666-1.741-5.5-.271-.86-.5-1.767-.83-2.606.028-3.8-1.072-7.531-.984-11.342.073-3.135,1.283-7.045,4.541-8.019,3.132-.937,5.97,1.747,7.227,4.464,1.557,3.363,1.624,7.5,1.6,11.152a51.9,51.9,0,0,1-.538,7.241q-.261,1.753-.634,3.485a7.852,7.852,0,0,0-.352,3.7,1.458,1.458,0,0,0,2.447.671,6.323,6.323,0,0,0,1.37-3.376q.389-1.843.65-3.71c.276-1.969.465-3.95.547-5.938a25.651,25.651,0,0,0,2.451-2.383,8.411,8.411,0,0,1,3.924-2.175c2.956-.6,5.37,1.129,6.117,4.1.817,3.248-.221,6.694-1.933,9.436-1.817,2.907-4.442,4.878-7.077,6.906-1.707,1.315-.211,4.226,1.711,3.037,5.515-3.412,10.4-9.2,10.913-16.058.231-3.112-.613-6.634-2.9-8.8" transform="translate(0 0.756)" fill="#1c1d1c"/>
        <path id="Trazado_867" data-name="Trazado 867" d="M361.226,553.338c-.177-2.691-4.243-2.712-4.065,0a11.143,11.143,0,0,1-.033,1.791,1.915,1.915,0,0,0-2.772,1.32c-.08.423-.184.834-.3,1.24a2.013,2.013,0,0,0-3.284.265,9.377,9.377,0,0,0-.663,1.031,3.34,3.34,0,0,0-2.016.945,3.488,3.488,0,0,0-2.373.972,4.9,4.9,0,0,0-.632-.131c-.043-.005-.087,0-.131,0a3.433,3.433,0,0,0-2.494-.871,3.971,3.971,0,0,0-.793.126,4.2,4.2,0,0,0-2.394-.156c-.04-.026-.07-.061-.11-.086a3.265,3.265,0,0,0-2.236-.437c-.044-.067-.084-.136-.127-.2a5.855,5.855,0,0,0-2.859-2.709,3.27,3.27,0,0,0-3.318.783c-.04.042-.07.09-.107.134a1.906,1.906,0,0,0-1.191-.236c-.013-.03-.021-.06-.035-.09a14.186,14.186,0,0,0-2.176-3l-2.491-3.052a1.821,1.821,0,0,0-1.438-.683,5.437,5.437,0,0,0-2.737-2.066c.062-.243.124-.486.184-.729a1.685,1.685,0,0,0,.128-.372q.267-1.242.532-2.485a2,2,0,0,0-1.1-2.32,1.844,1.844,0,0,0-2.369.805c-.683,1.617-1.272,3.261-1.858,4.918A2.4,2.4,0,0,0,314.1,549.2a6.153,6.153,0,0,0-.52,1.073,2.775,2.775,0,0,0-1.529,1.562,3.9,3.9,0,0,0,2.658,5.08,5.269,5.269,0,0,0,3.062,1.676,5.823,5.823,0,0,0,3.091,2.27A4.081,4.081,0,0,0,323.788,566a8.976,8.976,0,0,0,2.893,2.677,5.668,5.668,0,0,0,2.686,1.059c.133.016.265.022.4.026.144.023.281.063.428.08a1.441,1.441,0,0,0,1.044-.265,5.178,5.178,0,0,0,1.522-.715,3.826,3.826,0,0,0,3.331-.147c.039-.02.069-.047.1-.07,0,.054-.011.1-.007.161a4.508,4.508,0,0,0,.29,1.328,5.9,5.9,0,0,0,4.2,3.551,7.09,7.09,0,0,0,1.473.177,3.816,3.816,0,0,0,1.924-.449,1.96,1.96,0,0,0,.542-.516,5.337,5.337,0,0,0,1.839-.248c2.55-.829,4.042-3.334,4.971-5.771a6.915,6.915,0,0,0,.243-.791,4.646,4.646,0,0,0,.6-.874c.053-.025.1-.058.153-.086a3.172,3.172,0,0,0,.427.031,3.637,3.637,0,0,0,2.431-1.107,1.9,1.9,0,0,0,2.341-.36,14.194,14.194,0,0,0,3.6-10.351" transform="translate(-9.972 2.072)" fill="#adacac"/>
        <path id="Trazado_868" data-name="Trazado 868" d="M172.263,375.591c0,12.384-9.681,22.423-21.624,22.423s-21.623-10.039-21.623-22.423,9.681-22.423,21.623-22.423,21.624,10.039,21.624,22.423" transform="translate(-4.126 1.35)" fill="#adacac"/>
        <path id="Trazado_869" data-name="Trazado 869" d="M150.565,400.352c-13.161,0-23.869-11.1-23.869-24.752s10.708-24.753,23.869-24.753,23.869,11.1,23.869,24.753-10.707,24.752-23.869,24.752m0-44.847c-10.684,0-19.377,9.014-19.377,20.094s8.693,20.092,19.377,20.092,19.377-9.013,19.377-20.092-8.692-20.094-19.377-20.094" transform="translate(-4.052 1.341)" fill="#1c1d1c"/>
        <path id="Trazado_870" data-name="Trazado 870" d="M326.02,423.274c0,50.455-48.195,106.029-97.292,106.029-47.949,0-88.084-55.574-88.084-106.029s41.5-91.358,92.688-91.358,92.688,40.9,92.688,91.358" transform="translate(-4.498 1.269)" fill="#adacac"/>
        <path id="Trazado_871" data-name="Trazado 871" d="M228.655,531.641c-22.9,0-46.138-12.736-63.757-34.943-16.639-20.972-26.573-48.416-26.573-73.416,0-51.659,42.587-93.687,94.934-93.687s94.934,42.028,94.934,93.687c0,24.59-11.529,52.075-30.839,73.526-19.929,22.136-44.969,34.833-68.7,34.833m4.6-197.387c-49.869,0-90.441,39.938-90.441,89.028,0,23.953,9.551,50.292,25.549,70.455,16.763,21.126,38.737,33.245,60.288,33.245,22.49,0,46.332-12.157,65.415-33.354,18.554-20.608,29.631-46.907,29.631-70.346,0-49.09-40.573-89.028-90.442-89.028" transform="translate(-4.424 1.26)" fill="#1c1d1c"/>
        <path id="Trazado_872" data-name="Trazado 872" d="M253.556,403.309c0,19.2-14.71,34.841-33.086,35.437-.359.009-.728.019-1.1.019-18.879,0-34.191-15.878-34.191-35.456s15.312-35.446,34.191-35.446a33.013,33.013,0,0,1,9.686,1.444c14.162,4.333,24.5,17.918,24.5,34" transform="translate(-5.923 1.406)" fill="#848585"/>
        <path id="Trazado_873" data-name="Trazado 873" d="M219.33,440.168c-19.6,0-35.539-16.533-35.539-36.853s15.942-36.844,35.539-36.844a34.335,34.335,0,0,1,10.067,1.5c14.992,4.588,25.463,19.121,25.463,35.343,0,20.028-15.107,36.208-34.392,36.834-.38.01-.758.019-1.138.019m0-70.9c-18.11,0-32.843,15.274-32.843,34.049s14.733,34.058,32.843,34.058c.357,0,.714-.009,1.064-.018,17.811-.578,31.77-15.531,31.77-34.04,0-14.992-9.675-28.423-23.53-32.661a31.752,31.752,0,0,0-9.3-1.387" transform="translate(-5.878 1.401)" fill="#1c1d1c"/>
        <path id="Trazado_874" data-name="Trazado 874" d="M253.912,403.3c0,19.2-14.71,34.841-33.086,35.437-14.161-4.332-24.5-17.928-24.5-34.012,0-19.2,14.719-34.831,33.095-35.427,14.162,4.333,24.5,17.918,24.5,34" transform="translate(-6.279 1.412)" fill="#070807"/>
        <path id="Trazado_875" data-name="Trazado 875" d="M352.628,401.074a16.755,16.755,0,0,0-2.988-9.281c-4.764-9.122-13.681-15.8-18.433-18.893a18.42,18.42,0,0,0-2.9-1.772c-.175-.1-.275-.152-.275-.152l-.008.005a17.406,17.406,0,0,0-7.449-1.68c-10.326,0-18.7,9.058-18.7,20.234a21.535,21.535,0,0,0,1.743,8.491c.046.117.082.231.133.35.108.251.233.493.351.738.015.03.028.06.043.089,6.493,13.214,27.658,17.735,27.658,17.735,1.72.758,4.078.494,6.05.494a14.655,14.655,0,0,0,12.985-8.352c1.43-1.845,2.188-4.426,1.781-8.006" transform="translate(-9.655 1.411)" fill="#adacac"/>
        <path id="Trazado_876" data-name="Trazado 876" d="M335.228,419.815a11.165,11.165,0,0,1-4.149-.631c-2.394-.54-22.374-5.425-29-18.913l-.145-.3c-.1-.212-.207-.424-.3-.642-.047-.11-.089-.221-.129-.332a23.914,23.914,0,0,1-1.94-9.454c0-12.442,9.394-22.564,20.94-22.564a19.444,19.444,0,0,1,7.245,1.4l.095-.06,1.143.6s.1.052.269.149a20.605,20.605,0,0,1,3.131,1.913c5.023,3.277,14.1,10.134,19.086,19.585a19.112,19.112,0,0,1,3.324,10.362c.412,3.8-.306,6.979-2.133,9.443a16.868,16.868,0,0,1-14.876,9.406c-.38,0-.775.011-1.177.021-.448.012-.913.023-1.383.023M320.5,371.64c-9.069,0-16.448,8.033-16.448,17.905a19.056,19.056,0,0,0,1.549,7.544c.054.132.082.21.11.288.083.2.151.34.219.476l.112.23c5.954,12.122,25.944,16.541,26.146,16.584l.424.138a10.557,10.557,0,0,0,3.881.33c.44-.011.874-.022,1.29-.022a12.428,12.428,0,0,0,10.994-7.1l.241-.381c1.181-1.524,1.607-3.577,1.3-6.274l-.015-.223a14.358,14.358,0,0,0-2.56-7.964l-.157-.258c-4.5-8.623-12.994-15-17.653-18.03l-.122-.084a16.009,16.009,0,0,0-2.544-1.555l-.248-.13a15.181,15.181,0,0,0-6.521-1.473" transform="translate(-9.581 1.403)" fill="#1c1d1c"/>
        <path id="Trazado_877" data-name="Trazado 877" d="M112.854,335.617l.007,0-.028-.056a13.218,13.218,0,0,0-1.046-2.129c-7.9-16.522-35.319-81.175-38.573-88.856a22.5,22.5,0,0,0-20.781-14.409c-12.417,0-22.483,10.438-22.483,23.315a23.8,23.8,0,0,0,4.131,13.46h0c11.93,17.369,56.6,81.209,56.6,81.209l.009,0a12.573,12.573,0,0,0,10.322,5.495,12.976,12.976,0,0,0,12.733-13.205,13.58,13.58,0,0,0-.887-4.816" transform="translate(-0.958 0.88)" fill="#adacac"/>
        <path id="Trazado_878" data-name="Trazado 878" d="M100.933,355.976a14.765,14.765,0,0,1-10.885-4.883l-.112.061-1.151-1.629c-.446-.638-44.81-64.048-56.61-81.225l-1.1-1.605.057-.059a26.171,26.171,0,0,1-3.5-13.149c0-14.141,11.093-25.645,24.73-25.645a24.672,24.672,0,0,1,22.856,15.846c3.088,7.287,30.511,71.953,38.462,88.613a15.864,15.864,0,0,1,1.123,2.284l1.038,2.052-.344.18a15.856,15.856,0,0,1,.419,3.626c0,8.565-6.72,15.533-14.98,15.533m-9.65-10.822,1.15,1.636a10.407,10.407,0,0,0,8.5,4.527,10.7,10.7,0,0,0,10.488-10.874,11.184,11.184,0,0,0-.732-3.966l-.066-.175a10.991,10.991,0,0,0-.813-1.626l-.11-.2c-7.933-16.593-35.5-81.6-38.617-88.955A20.212,20.212,0,0,0,52.359,232.5c-11.159,0-20.237,9.415-20.237,20.986A21.383,21.383,0,0,0,35.839,265.6l.368.538C47.4,282.413,84.3,335.175,91.278,345.157Z" transform="translate(-0.884 0.871)" fill="#1c1d1c"/>
        <path id="Trazado_879" data-name="Trazado 879" d="M361.26,546.25a22.062,22.062,0,0,0,1.151-3.434,199.929,199.929,0,0,0,8.677-65l-.043-.007c.016-.288.043-.573.043-.865a14.26,14.26,0,0,0-13.995-14.512A14.091,14.091,0,0,0,343.56,473.3l-.017,0s-.018.1-.055.293c-.069.3-.126.605-.176.913-1.256,6.4-7.524,36.577-16.011,47.562a21.521,21.521,0,0,0-1.433,1.644l-.007.007h0a22.138,22.138,0,0,0-4.713,13.727c0,12,9.382,21.73,20.955,21.73a20.941,20.941,0,0,0,19.153-12.918h0l0-.009" transform="translate(-10.271 1.767)" fill="#adacac"/>
        <path id="Trazado_880" data-name="Trazado 880" d="M342.028,561.516c-12.793,0-23.2-10.792-23.2-24.059a24.686,24.686,0,0,1,4.955-14.859l.117-.364.371-.258c.41-.505.837-.992,1.275-1.451,8.152-10.683,14.331-40.576,15.49-46.475.044-.28.111-.632.191-.982l.451-2.411.271.045a16.246,16.246,0,0,1,15.07-10.6c8.955,0,16.241,7.556,16.241,16.842,0,.178-.007.354-.016.529l.015.252a201.845,201.845,0,0,1-8.763,65.748,24.606,24.606,0,0,1-1.063,3.263v.012l-.2.462a23.21,23.21,0,0,1-21.206,14.3m-14.649-36.124a19.91,19.91,0,0,0-4.059,12.065c0,10.7,8.393,19.4,18.708,19.4a18.713,18.713,0,0,0,17.055-11.427l.048-.115a19.752,19.752,0,0,0,1.028-3.063l.042-.152a197.043,197.043,0,0,0,8.631-62.254l-.178-.027.091-2.408c.011-.154.022-.306.022-.462a11.985,11.985,0,0,0-11.749-12.182A11.82,11.82,0,0,0,345.66,473.9l-.069.277c-.061.28-.1.5-.139.73-1.7,8.65-7.861,37.484-16.473,48.632l-.167.192a19.233,19.233,0,0,0-1.279,1.468Z" transform="translate(-10.197 1.759)" fill="#1c1d1c"/>
        <path id="Trazado_881" data-name="Trazado 881" d="M181.169,168.391c0,24-18.763,43.458-41.908,43.458s-41.908-19.457-41.908-43.458,18.763-43.458,41.908-43.458,41.908,19.457,41.908,43.458" transform="translate(-3.114 0.477)" fill="#adacac"/>
        <path id="Trazado_882" data-name="Trazado 882" d="M139.187,214.188c-24.347,0-44.154-20.54-44.154-45.788s19.808-45.787,44.154-45.787,44.154,20.54,44.154,45.787-19.808,45.788-44.154,45.788m0-86.917c-21.869,0-39.662,18.45-39.662,41.129s17.792,41.129,39.662,41.129,39.662-18.449,39.662-41.129-17.792-41.129-39.662-41.129" transform="translate(-3.039 0.469)" fill="#1c1d1c"/>
        <path id="Trazado_883" data-name="Trazado 883" d="M351.413,32.808A106.457,106.457,0,0,0,278.556,2.329q-3.518-.042-6.982.14A105.353,105.353,0,0,0,245.686,7.1c-.01,0-.01.009-.018.009q-2.3.712-4.564,1.538-.553.2-1.105.419a105.85,105.85,0,0,0-18.69,9.179C112.849,78.3,126.417,226.989,126.561,228.49a123.314,123.314,0,0,0,21.871,66.066,119.472,119.472,0,0,0,21.5,23.547A113.585,113.585,0,0,0,243.17,344.91c47.354,0,88.114-29.249,106.409-71.274q1.118-2.558,2.121-5.19a1.584,1.584,0,0,0,.116-.289,124.048,124.048,0,0,0,7.189-29.51h.009v-.084a125.336,125.336,0,0,0,.854-14.667c0-.559-.01-1.118-.018-1.677a184.736,184.736,0,0,1,14.4-55.313c.9-1.826,3.55-7.957,3.55-7.957a116.263,116.263,0,0,0,8.374-41.8,114.9,114.9,0,0,0-34.757-84.339m-222.605,195.6-.009-.149c-.036-.373-3.468-37.888,6.6-82.4,9.013-39.836,31.046-93.489,84.817-124.341a202.026,202.026,0,0,0-33.032,29.24,215.676,215.676,0,0,0-17.333,21.292A232.815,232.815,0,0,0,153.662,98.66a200.682,200.682,0,0,0-11.169,25.289,225.124,225.124,0,0,0-9.309,33.49,197.963,197.963,0,0,0-3.7,31.682,240.274,240.274,0,0,0,1.141,35.6c2.22,20.966,9.417,45,17.207,64.947l.136.363a121.292,121.292,0,0,1-19.158-61.621" transform="translate(-4.028 0.009)" fill="#adacac"/>
        <path id="Trazado_884" data-name="Trazado 884" d="M352.875,31.112q-3.357-3.243-6.919-6.168A108.168,108.168,0,0,0,278.508.008c-2.964-.037-5.93.047-8.878.252a107.826,107.826,0,0,0-24.35,4.519l-.639.009-.26.28c-.332.1-.674.214-1.014.335-1.024.326-2.05.681-3.074,1.053a109.412,109.412,0,0,0-20.164,9.765,167.536,167.536,0,0,0-61.365,58.742c-12.515,20.071-21.87,43.563-27.819,69.84-10.01,44.28-6.874,81.879-6.7,83.844a125.418,125.418,0,0,0,23.4,68.852,122.926,122.926,0,0,0,12.86,15.152c.206.2.4.41.611.6a116.081,116.081,0,0,0,81.985,34c35.208,0,67.214-16,89.13-41.671A124.223,124.223,0,0,0,360.144,245.9a.029.029,0,0,1,.01-.019c.288-1.649.539-3.3.764-4.967l.269-.009v-2.189a128.48,128.48,0,0,0,.854-14.807c0-.521-.009-1.052-.018-1.574a183.3,183.3,0,0,1,14.171-54.409c.935-1.91,3.468-7.762,3.6-8.07a117.807,117.807,0,0,0,8.293-36.471c.136-2.05.225-4.119.252-6.188a117.731,117.731,0,0,0-35.466-86.081m30.975,86.006a113.607,113.607,0,0,1-8.178,40.888c-.027.056-2.642,6.094-3.5,7.846l-.046.1a188.319,188.319,0,0,0-14.584,56.029l-.009.14v.15c.009.54.018,1.09.018,1.63a123.15,123.15,0,0,1-.836,14.388l-.008.083C349.74,297.789,300.9,342.59,243.1,342.59a111.367,111.367,0,0,1-63.941-20.08,116.026,116.026,0,0,1-31.262-32.474,121.282,121.282,0,0,1-19.158-61.622l-.009-.149c-.037-.373-3.468-37.888,6.6-82.4,9.012-39.835,31.044-93.489,84.817-124.341.71-.41,1.428-.82,2.156-1.221l.09-.046a104.6,104.6,0,0,1,19.391-9.4c1.383-.5,2.777-.978,4.152-1.406l.638-.01.251-.27a103.184,103.184,0,0,1,27.4-4.463c1.411-.047,2.822-.056,4.242-.037A104.273,104.273,0,0,1,349.8,34.522a112.922,112.922,0,0,1,34.056,80.928c0,.559,0,1.109-.008,1.668" transform="translate(-3.954 0)" fill="#1c1d1c"/>
        <path id="Trazado_885" data-name="Trazado 885" d="M220.286,21.442a201.954,201.954,0,0,0-33.033,29.24A215.533,215.533,0,0,0,169.92,71.974a232.816,232.816,0,0,0-16.183,26.612,201.042,201.042,0,0,0-11.17,25.289,225.272,225.272,0,0,0-9.308,33.49,197.857,197.857,0,0,0-3.7,31.682,240.28,240.28,0,0,0,1.141,35.6c2.22,20.966,9.417,45,17.207,64.947l.135.363a121.287,121.287,0,0,1-19.157-61.621l-.009-.149c-.037-.373-3.468-37.888,6.6-82.4,9.012-39.835,31.045-93.489,84.818-124.341" transform="translate(-4.103 0.082)" fill="#5ec4df"/>
        <path id="Trazado_886" data-name="Trazado 886" d="M320.92,93.258c-.747-1.184-1.45-2.4-2.134-3.623a78.348,78.348,0,0,0-14.358-18.414l0-.005h0c-15.005-14.31-36.072-23.649-59.7-24.642-22.533-.947-43.336,5.871-59.156,17.786v0l-.055.045c-5.141,3.879-13.674,11.022-17.647,15.889a174.173,174.173,0,0,0-45.81,100.936l.041,0c-.043.552-.083,1.1-.106,1.662-.911,23.325,16.584,43,39.078,43.945a39.38,39.38,0,0,0,12.042-1.354h0l0,0a39.435,39.435,0,0,0,6.792-2.551,59.475,59.475,0,0,1,21.967-6.165,70.667,70.667,0,0,1,14.6.573c16.951,2.417,39.315,12.8,52.855,19.743,1.714.88,3.376,1.854,5,2.9a39.961,39.961,0,0,0,6.952,3.551l.017.01v0a39.427,39.427,0,0,0,12.765,2.7c20.008.841,37.219-13.426,41.422-33l0,0s25.56-56.392-14.571-119.977" transform="translate(-3.901 0.178)" fill="#070807"/>
        <path id="Trazado_887" data-name="Trazado 887" d="M120.416,191.223A5.421,5.421,0,1,1,115,185.606a5.519,5.519,0,0,1,5.417,5.617" transform="translate(-3.505 0.709)" fill="#e3e1e2"/>
        <path id="Trazado_888" data-name="Trazado 888" d="M114.954,198.243a7.02,7.02,0,1,1,6.765-7.016,6.9,6.9,0,0,1-6.765,7.016m0-11.235a4.222,4.222,0,1,0,4.069,4.219,4.151,4.151,0,0,0-4.069-4.219" transform="translate(-3.46 0.704)" fill="#1c1d1c"/>
        <path id="Trazado_889" data-name="Trazado 889" d="M285.344,177.828c-1.377,13.539-8.665,23.84-16.276,23.008s-12.665-12.482-11.289-26.022,8.664-23.84,16.275-23.008,12.667,12.484,11.29,26.022" transform="translate(-8.237 0.58)" fill="#e2483a"/>
        <path id="Trazado_890" data-name="Trazado 890" d="M176.184,168.19c-2.2,10.946-8.631,18.815-14.366,17.576s-8.6-11.116-6.405-22.062,8.63-18.815,14.366-17.576,8.6,11.116,6.405,22.062" transform="translate(-4.947 0.558)" fill="#e2483a"/>
        <g id="Grupo_663" data-name="Grupo 663" transform="translate(237.075 2.329)" opacity="0.2">
          <g id="Grupo_662" data-name="Grupo 662">
            <g id="Grupo_661" data-name="Grupo 661" clip-path="url(#clip-path-3)">
              <path id="Trazado_891" data-name="Trazado 891" d="M355.217,32.809c-13.389,11.657-35.979,16.67-59.773,11.536-23.965-5.172-42.853-19.288-50.536-35.7q2.264-.825,4.565-1.538c.009,0,.009-.009.017-.009A105.75,105.75,0,0,1,355.217,32.809" transform="translate(-244.908 -2.32)" fill="#050605"/>
            </g>
          </g>
        </g>
        <path id="Trazado_892" data-name="Trazado 892" d="M122.282,129.426A50.559,50.559,0,0,0,118,139.364a106.768,106.768,0,0,0-3.2,10.864,112.02,112.02,0,0,0-3.041,21.866,105.8,105.8,0,0,0,.309,12.826c.1,1.176,1.872,1.2,1.79,0a117.407,117.407,0,0,1,5.042-43.558c.612-1.93,1.287-3.839,1.982-5.739.715-1.957,1.591-3.857,2.2-5.852a.435.435,0,0,0-.789-.345" transform="translate(-3.572 0.494)" fill="#1c1d1c"/>
        <path id="Trazado_893" data-name="Trazado 893" d="M120.378,206.146c-.561-1.393-1.246-2.724-1.776-4.136q-.383-1.021-.706-2.064c-.231-.747-.406-1.51-.7-2.234a.8.8,0,0,0-1.572.22,18.358,18.358,0,0,0,1.186,4.589c.269.764.57,1.515.9,2.255a16.175,16.175,0,0,0,1.017,2.092.892.892,0,0,0,1.128.383.934.934,0,0,0,.523-1.105" transform="translate(-3.698 0.753)" fill="#1c1d1c"/>
        <path id="Trazado_894" data-name="Trazado 894" d="M355.814,33.536A75.972,75.972,0,0,1,344,37.829c-4.081.94-8.243,1.689-12.372,2.372a97.177,97.177,0,0,1-24.7.945,95.585,95.585,0,0,1-43.607-15.407,103.668,103.668,0,0,1-10.431-7.758c-3.35-2.859-6.509-5.932-9.814-8.842-1.007-.886-2.844.283-1.968,1.575,4.549,6.709,10.973,12.121,17.414,16.784a95.923,95.923,0,0,0,17.756,10.055c-.634.471-1.244.973-1.822,1.449a28.9,28.9,0,0,0-3.847,3.828,32,32,0,0,0-3.106,4.436,19.182,19.182,0,0,0-2.162,4.948.466.466,0,0,0,.846.37c.828-1.495,1.529-3.047,2.424-4.507a29.871,29.871,0,0,1,3.061-4.145,31.837,31.837,0,0,1,3.557-3.451c.672-.556,1.372-1.076,2.091-1.564.285-.194.587-.368.886-.545.436.182.868.369,1.306.544a96.517,96.517,0,0,0,49.6,5.735,55.229,55.229,0,0,0,13.913-3.476c4.509-1.94,9.223-3.375,13.6-5.643,1.05-.544.306-2.457-.811-2" transform="translate(-7.704 0.034)" fill="#1c1d1c"/>
        <g id="Grupo_666" data-name="Grupo 666" transform="translate(157.156)" opacity="0.22">
          <g id="Grupo_665" data-name="Grupo 665">
            <g id="Grupo_664" data-name="Grupo 664" clip-path="url(#clip-path-4)">
              <path id="Trazado_895" data-name="Trazado 895" d="M389.329,123.381a117.81,117.81,0,0,1-8.294,36.471c-.135.308-2.669,6.159-3.6,8.07a183.309,183.309,0,0,0-14.171,54.409c.009.522.018,1.053.018,1.574a128.693,128.693,0,0,1-.854,14.807V240.9l-.27.009c-.225,1.668-.476,3.318-.764,4.967a.03.03,0,0,0-.009.019c-2.713,7.435-5.445,14.918-8.4,22.27a1.661,1.661,0,0,1-.117.289c-.692,1.743-1.393,3.466-2.121,5.19-2.471,5.88-5.122,11.666-8.034,17.276a104.926,104.926,0,0,1-9.246,14.658c-21.917,25.672-53.924,41.671-89.13,41.671a116.08,116.08,0,0,1-81.986-34,11.7,11.7,0,0,1,2.309,1.108q3.168,1.985,6.443,3.755,2.736,1.482,5.553,2.815a30.136,30.136,0,0,0,3.738,1.584c.108.046.234.093.36.139,2.219.848,4.465,1.612,6.73,2.311a106.265,106.265,0,0,0,12.473,2.916c.206.038,1.788.289,2.435.4.566.074,1.653.214,1.806.223q3.208.364,6.416.55a122.464,122.464,0,0,0,12.948.065c2.417-.121,4.817-.3,7.225-.531,1.2-.121,2.4-.252,3.6-.4.18-.019.306-.037.422-.047.09-.018.18-.027.3-.046a127.538,127.538,0,0,0,25.34-6.514,134.962,134.962,0,0,0,20.182-8.871,120.886,120.886,0,0,0,10.908-6.56c1.653-1.118,3.271-2.283,4.87-3.484.225-.159.368-.271.476-.345.054-.046.09-.083.153-.13.575-.475,1.15-.96,1.707-1.454a71.1,71.1,0,0,0,14.935-17.3,123.69,123.69,0,0,0,6.335-11.787c.908-1.9,1.779-3.831,2.624-5.768.422-.97.835-1.947,1.249-2.926.054-.112.6-1.473.6-1.473,13.695-34,27.066-69.2,33.2-105.612,2.516-14.955,3.523-36.406.817-51.184a116.306,116.306,0,0,0-3.441-13.894c-.557-1.8-1.186-3.569-1.824-5.348-.109-.307-.2-.55-.27-.755-.3-.727-.611-1.454-.943-2.171A118.907,118.907,0,0,0,340.536,62.5c-.323-.466-.934-1.276-1.1-1.5-.4-.522-.8-1.044-1.214-1.566q-1.751-2.194-3.567-4.314-3.652-4.276-7.583-8.3c-5.284-5.433-10.909-10.5-16.678-15.385q-2.574-2.18-5.212-4.305c-.6-.484-2.552-2.031-3.225-2.581q-4.1-3.243-8.258-6.4c-6.03-4.566-12.131-9.02-18.25-13.446-.225-.168-.44-.326-.665-.485a16.284,16.284,0,0,1-2.049-1.743A15.434,15.434,0,0,1,270.869.26c2.947-.2,5.913-.289,8.878-.252a108.17,108.17,0,0,1,67.448,24.936,153.875,153.875,0,0,1,25.78,33.405c11.349,20.156,15.995,42.417,16.354,65.032" transform="translate(-162.348 0)" fill="#1c1d1c"/>
            </g>
          </g>
        </g>
        <path id="Trazado_896" data-name="Trazado 896" d="M433.247,209.916c-4.577,26.982-28.923,45.091-54.381,40.447s-28.828-27.808-24.252-54.789,15.367-47.563,40.824-42.92,42.386,30.28,37.809,57.262" transform="translate(-11.286 0.581)" fill="#adacac"/>
        <path id="Trazado_897" data-name="Trazado 897" d="M386.834,253.432a46.969,46.969,0,0,1-8.432-.766c-12.656-2.309-21.1-9.209-25.108-20.509-3.293-9.3-3.61-21.392-.966-36.978s6.92-26.844,13.076-34.417c7.482-9.2,17.691-12.7,30.349-10.395,26.637,4.859,44.415,31.757,39.632,59.96A52.422,52.422,0,0,1,415.122,243.9a47.207,47.207,0,0,1-28.287,9.531m1.594-99.1a24.013,24.013,0,0,0-19.59,9.435c-5.631,6.927-9.584,17.467-12.087,32.222s-2.255,26.06.759,34.564c3.46,9.765,10.548,15.5,21.668,17.527a42.557,42.557,0,0,0,33.323-7.962,47.767,47.767,0,0,0,18.458-30.594l2.212.4-2.212-.4c4.354-25.673-11.789-50.15-35.985-54.564a36.528,36.528,0,0,0-6.547-.627" transform="translate(-11.212 0.572)" fill="#1c1d1c"/>
        <path id="Trazado_898" data-name="Trazado 898" d="M398.376,231.7c0,5.321-5.084,9.636-11.357,9.636s-11.356-4.314-11.356-9.636,5.084-9.636,11.356-9.636,11.357,4.314,11.357,9.636" transform="translate(-12.015 0.849)" fill="#e3e1e2"/>
        <path id="Trazado_899" data-name="Trazado 899" d="M386.974,242.733c-7.006,0-12.7-4.949-12.7-11.033s5.7-11.033,12.7-11.033,12.7,4.95,12.7,11.033-5.7,11.033-12.7,11.033m0-19.27c-5.519,0-10.009,3.7-10.009,8.237s4.491,8.237,10.009,8.237,10.009-3.7,10.009-8.237-4.491-8.237-10.009-8.237" transform="translate(-11.97 0.843)" fill="#1c1d1c"/>
        <path id="Trazado_900" data-name="Trazado 900" d="M398.277,155.4a37.611,37.611,0,0,0-2.155,6.074q-.982,3.15-1.857,6.337c-1.185,4.312-2.189,8.688-3.006,13.092a183.668,183.668,0,0,0-3.067,26.447c-.19,5-.181,10.005-.026,15a1.2,1.2,0,1,0,2.4,0,207.3,207.3,0,0,1,5.836-51.872c.565-2.356,1.144-4.708,1.78-7.046a72.529,72.529,0,0,0,1.979-7.212c.182-1.116-1.293-1.973-1.886-.824" transform="translate(-12.411 0.592)" fill="#1c1d1c"/>
        <path id="Trazado_901" data-name="Trazado 901" d="M387.764,246.133a31.15,31.15,0,0,0-.123-3.853.976.976,0,0,0-1.887,0,31.354,31.354,0,0,0-.119,3.853c-.015,1.244,0,2.488,0,3.732a1.065,1.065,0,1,0,2.128,0c0-1.244.015-2.488,0-3.732" transform="translate(-12.334 0.923)" fill="#1c1d1c"/>
        <path id="Trazado_902" data-name="Trazado 902" d="M418.4,174.879a28.938,28.938,0,0,0-11.788-10.715.358.358,0,0,0-.35.622,32.421,32.421,0,0,1,14.085,17.871,38.852,38.852,0,0,1,1.414,7.784.737.737,0,0,0,1.474,0c.076-5.4-2.039-11.089-4.834-15.562" transform="translate(-12.988 0.627)" fill="#1c1d1c"/>
        <path id="Trazado_903" data-name="Trazado 903" d="M349.031,26.161a2.452,2.452,0,0,0-2.071.369c-.873.452-1.754.887-2.638,1.316q-2.431,1.177-4.935,2.176a77.205,77.205,0,0,1-10.452,3.326,85.117,85.117,0,0,1-21.5,2.26,86.477,86.477,0,0,1-12.568-1.187c-.04-.006-.057.052-.017.063,14.384,3.886,29.737,2.891,43.819-1.824q3.061-1.025,6.037-2.3c.939-.4,1.87-.821,2.791-1.268s1.8-.772,2.118-1.856a.9.9,0,0,0-.589-1.075" transform="translate(-9.43 0.1)" fill="#1c1d1c"/>
        <path id="Trazado_904" data-name="Trazado 904" d="M291.552,32.774a.537.537,0,0,0-.081-.16l-.015-.041c-.02-.051-.041-.1-.062-.152a.465.465,0,0,0-.157-.178.309.309,0,0,0-.135-.081.448.448,0,0,0-.235-.055l-.163.023-.146.064a.467.467,0,0,0-.171.163.483.483,0,0,0-.109.216c0,.012-.009.025-.014.038a.494.494,0,0,0-.046.074.692.692,0,0,0,0,.568.557.557,0,0,0,.147.237.772.772,0,0,0,.5.216l.189-.026a.7.7,0,0,0,.313-.19l.111-.15a.752.752,0,0,0,.1-.371c-.009-.065-.016-.13-.025-.2" transform="translate(-9.28 0.123)" fill="#1c1d1c"/>
        <path id="Trazado_905" data-name="Trazado 905" d="M278.254,243.87a6.776,6.776,0,0,0-3.425-2.315,12.9,12.9,0,0,0-4.027-.873,10.756,10.756,0,0,0-7.576,2.239c-.377.308.032.967.461.82a17.374,17.374,0,0,1,6.46-1.026,20.424,20.424,0,0,1-4.824,8.658c-.095.1-.2.193-.3.29a1.465,1.465,0,0,0-.605.6,25.923,25.923,0,0,1-7.72,4.949,35.87,35.87,0,0,1-7.987,2.265c-.308-.093-.614-.192-.929-.261a.56.56,0,0,0-.624.481c-.923.112-1.851.195-2.789.241-4.462.214-8.934-.391-13.377.015a.176.176,0,0,0-.045.342,42.137,42.137,0,0,0,10.916,1.445,56.051,56.051,0,0,0,7.587-.264c1.11.636,2.266,1.2,3.4,1.783,1.863.956,3.717,1.933,5.6,2.851.248.12.5.239.755.358a4.913,4.913,0,0,0,3.268,1.2,5.894,5.894,0,0,0,5.748-1.255c2.293-2.126,2.877-5.564,3.26-8.565a59.107,59.107,0,0,0,.473-12.036,16.556,16.556,0,0,0,.673-2.7,14.007,14.007,0,0,1,1.439.454c1.13.429,2.1,1.213,3.252,1.56a.853.853,0,0,0,.927-1.252" transform="translate(-7.383 0.92)" fill="#1c1d1c"/>
        <path id="Trazado_906" data-name="Trazado 906" d="M232.237,343.618a172.489,172.489,0,0,1-9.612-24.225c-1.321-4.036-2.9-8.092-3.675-12.292-.792-4.281-1.874-8.5-2.676-12.783a208.99,208.99,0,0,1-2.85-51.683c.313-4.873.765-9.742,1.4-14.581.625-4.776,1.513-9.526,2.015-14.316.055-.524-.7-.573-.848-.118a81.057,81.057,0,0,0-2.71,12.732c-.645,4.32-1.17,8.666-1.511,13.025a188.929,188.929,0,0,0-.287,26.328,229.59,229.59,0,0,0,3.1,25.717,252.457,252.457,0,0,0,6.237,25.523c2.688,9.412,6.608,18.3,10.579,27.18.259.579,1.129.071.836-.507" transform="translate(-6.753 0.815)" fill="#1c1d1c"/>
        <path id="Trazado_907" data-name="Trazado 907" d="M322.411,45.583a.033.033,0,0,0,0,.065.033.033,0,0,0,0-.065" transform="translate(-10.311 0.174)" fill="#1c1d1c"/>
        <path id="Trazado_908" data-name="Trazado 908" d="M390.34,130.317a172.5,172.5,0,0,1-26.89-2.334c-3.754-.627-7.516-1.757-9.077-5.738-1.376-3.507-1.249-7.571-1.67-11.28a126.87,126.87,0,0,0-13.825-45.08,119.007,119.007,0,0,0-6.759-11.234,67.425,67.425,0,0,0-8.2-10.408c-.472-.463-1.356.158-.942.755,2.293,3.312,4.831,6.434,7.1,9.769s4.375,6.81,6.328,10.363a129.5,129.5,0,0,1,14.853,46.414c.407,3.677.34,7.627,1.67,11.115s4.079,5.359,7.473,6.293a89.319,89.319,0,0,0,14.482,2.347q7.709.792,15.462.851a.92.92,0,0,0,0-1.835" transform="translate(-10.326 0.168)" fill="#1c1d1c"/>
        <path id="Trazado_909" data-name="Trazado 909" d="M388.372,122.076a3.172,3.172,0,0,0-2.876-2.334,3.46,3.46,0,0,0-3.42,1.969.757.757,0,0,0,.108.821c-.068.11-.133.224-.2.335-.037.06-.079.115-.112.179-.02.041-.038.093-.054.134l-.027.064a2.018,2.018,0,0,0,.024,1.4,3.347,3.347,0,0,0,1.84,1.9,3.827,3.827,0,0,0,2.126.223,3.246,3.246,0,0,0,1.681-1,4.046,4.046,0,0,0,.911-3.69m-1.4,1.255c0,.029-.01.07-.014.088-.011.056-.023.112-.036.168-.027.11-.06.22-.1.327-.009.023-.035.081-.043.1-.02.044-.04.087-.062.131a2.9,2.9,0,0,1-.171.29c-.023.035-.14.177-.011.021-.036.042-.07.086-.105.127-.074.083-.154.158-.233.234h0a1.747,1.747,0,0,1-.151.1c-.047.028-.1.051-.145.077h0l-.012,0c-.109.033-.217.064-.327.092l-.015,0a.109.109,0,0,0-.018,0c-.062,0-.124.006-.187.006s-.118-.006-.177-.009c-.03-.006-.06-.011-.09-.018-.061-.014-.121-.03-.181-.049-.04-.012-.079-.025-.118-.039l-.01,0c-.044-.026-.1-.067-.113-.077-.035-.024-.07-.048-.1-.074l.093.076c-.06,0-.379-.319-.464-.375l-.031-.027c-.064-.057-.126-.117-.185-.181-.044-.047-.087-.1-.129-.146l-.031-.039-.008-.011c-.033-.055-.069-.11-.1-.165a1.786,1.786,0,0,0-.164-.229c-.029-.051-.216-.322-.235-.35a2.316,2.316,0,0,0-.278-.346c-.031-.043-.06-.088-.094-.13,0,0-.038-.046-.054-.062a.664.664,0,0,1-.048-.123.581.581,0,0,0,.4-.314,2.4,2.4,0,0,1,.158-.3c.008-.014.047-.068.056-.084s.045-.056.068-.082c.073-.082.152-.155.23-.23l.014-.015c.007-.005,0,0,.016-.01.06-.04.118-.083.179-.121.08-.049.164-.091.247-.133.026-.013.061-.029.075-.034q.077-.029.154-.054c.087-.027.175-.051.264-.071l.161-.031c-.195.04.04,0,.082-.006a2.944,2.944,0,0,1,.326-.007c.055,0,.109.005.164.01.014,0,.042.006.067.011.091.018.181.035.27.06.052.015.1.032.154.049.026.009.111.048.133.056.075.038.151.076.223.122.041.026.08.054.12.082.075.076.155.144.226.225.013.014.046.06.062.081.027.042.056.084.081.128s.054.1.078.148c.007.015.018.045.028.07.03.089.06.177.082.269.013.054.021.109.034.165l0,.011v0c.009.133.016.263.013.4,0,.071-.01.142-.016.212" transform="translate(-12.207 0.458)" fill="#1c1d1c"/>
        <path id="Trazado_910" data-name="Trazado 910" d="M381.794,123.23v0c-.014.034-.024.06,0,0" transform="translate(-12.21 0.471)" fill="#1c1d1c"/>
        <path id="Trazado_911" data-name="Trazado 911" d="M381.8,123.214l0,.013c.016-.039.034-.084,0-.013" transform="translate(-12.211 0.471)" fill="#1c1d1c"/>
        <path id="Trazado_912" data-name="Trazado 912" d="M276.96,272.575c-1.53.131-2.977,1.069-4.37,1.693a23.247,23.247,0,0,1-4.942,1.687,11.7,11.7,0,0,1-8.542-1.4c-.547-.355-1.208.494-.7.943a10.82,10.82,0,0,0,8.9,2.387,20.727,20.727,0,0,0,5.241-1.512c1.6-.676,3.649-1.462,4.795-2.853.273-.331.124-.994-.379-.951" transform="translate(-8.259 1.042)" fill="#1c1d1c"/>
        <g id="Grupo_669" data-name="Grupo 669" transform="translate(129.04 194.562)" opacity="0.22">
          <g id="Grupo_668" data-name="Grupo 668">
            <g id="Grupo_667" data-name="Grupo 667" clip-path="url(#clip-path-5)">
              <path id="Trazado_913" data-name="Trazado 913" d="M330.219,212.545c-.774-14.831-21.262-18.565-25.421-3.568-.449,1.621-.984,3.245-1.345,4.891-.183.523-.3.864-.35,1.049-.237.5-.467,1-.733,1.483-.353.641-.741,1.26-1.141,1.871l-.4.485c-.345.349-3.035,2.684-2.486,2.407-.721.485-1.459.937-2.212,1.364,1.152-.7-2.344.869-3,1.011a16.776,16.776,0,0,1-7.752-.634c-7.049-1.948-12.856-5.8-19.583-9.837a193.6,193.6,0,0,0-23.859-12.479c-16.938-7.2-34.861-8.514-52.264-2.244-6.966,2.51-15.165,6.607-21.9,6.865a32.21,32.21,0,0,1-3.281,0q-2.945-.23-.676-.073a23.691,23.691,0,0,1-2.464-.7q1.66.887-.417-.188a21.113,21.113,0,0,1-1.852-1.143c-.15-.143-.349-.329-.609-.57-.211-.241-.373-.425-.505-.574a22.177,22.177,0,0,1-1.11-1.959c-6.766-12.668-27.478-4.15-22.9,10.013,5.478,16.958,22.687,24.059,38.834,21.867,15.287-2.074,27.047-8.439,42.168-6.978,13.35,1.29,28.187,6.4,40.231,13.617,13.832,8.294,29.3,15.672,45.618,11.466,15.363-3.961,30.309-20.283,29.412-37.447" transform="translate(-133.303 -193.821)" fill="#1c1d1c"/>
            </g>
          </g>
        </g>
        <path id="Trazado_914" data-name="Trazado 914" d="M163.739,152.122c-1.914,2.572-2.767,5.874-3.36,9.019a36.308,36.308,0,0,0-.569,4.768,15.267,15.267,0,0,0,.183,4.694.347.347,0,0,0,.67,0,41.458,41.458,0,0,0,.439-4.367,47.1,47.1,0,0,1,.854-4.815c.7-3.038,1.93-5.892,2.669-8.912a.488.488,0,0,0-.886-.387" transform="translate(-5.108 0.581)" fill="#fff"/>
        <path id="Trazado_915" data-name="Trazado 915" d="M267.735,158.591a10.89,10.89,0,0,0-2.3,3.719,37.385,37.385,0,0,0-1.554,4.455,38.324,38.324,0,0,0-1.01,4.449,21.649,21.649,0,0,0-.425,4.65.748.748,0,0,0,1.469.206c.447-1.431.695-2.952,1.066-4.41.362-1.421.761-2.84,1.2-4.238s.958-2.77,1.458-4.149a17.353,17.353,0,0,0,1.214-4.2c.057-.631-.729-.829-1.114-.479" transform="translate(-8.393 0.605)" fill="#fff"/>
        <path id="Trazado_916" data-name="Trazado 916" d="M286.48,138.126a.379.379,0,0,0-.731,0,48.79,48.79,0,0,1-1.448,5.906,16.071,16.071,0,0,1-3.1,5.192,15.137,15.137,0,0,1-10.695,4.741.778.778,0,0,0,0,1.551,14.871,14.871,0,0,0,12.208-4.722,15.528,15.528,0,0,0,3.47-5.813,10.92,10.92,0,0,0,.293-6.855" transform="translate(-8.629 0.527)" fill="#e2483a"/>
        <path id="Trazado_917" data-name="Trazado 917" d="M292.719,149a.766.766,0,0,0-1.13-.477,5.909,5.909,0,0,0-1.338,1.973,15.981,15.981,0,0,1-1.35,1.965,13.476,13.476,0,0,1-8.733,5.043,16.321,16.321,0,0,1-2.648.115,12.152,12.152,0,0,0-2.662-.086.434.434,0,0,0-.181.712,5.008,5.008,0,0,0,2.636.958,12.261,12.261,0,0,0,2.946.109,14.115,14.115,0,0,0,5.8-1.7,15.12,15.12,0,0,0,4.253-3.5,14.065,14.065,0,0,0,1.642-2.431,4.417,4.417,0,0,0,.766-2.684" transform="translate(-8.781 0.567)" fill="#e2483a"/>
        <path id="Trazado_918" data-name="Trazado 918" d="M294.267,160.3c-1.262-.241-2.526.409-3.742.739a17.317,17.317,0,0,1-3.871.658,22.759,22.759,0,0,1-7.9-1.27c-.672-.215-.978.739-.454,1.117a13.838,13.838,0,0,0,8.352,2.382,16.987,16.987,0,0,0,4.341-.621c1.269-.367,2.982-.958,3.556-2.283.113-.262.046-.659-.284-.722" transform="translate(-8.892 0.612)" fill="#e2483a"/>
        <path id="Trazado_919" data-name="Trazado 919" d="M170.619,148.545a7.45,7.45,0,0,0-1.645-1.364,14,14,0,0,1-3.876-4.692,16.176,16.176,0,0,1-1.275-3.8,15.54,15.54,0,0,1-.358-1.969,16.048,16.048,0,0,0-.226-2.237.736.736,0,0,0-1.347-.183,8.083,8.083,0,0,0-.675,4.652,13.332,13.332,0,0,0,1.523,4.846,13.9,13.9,0,0,0,2.85,3.819,13.389,13.389,0,0,0,1.9,1.484,4.615,4.615,0,0,0,2.314.917.989.989,0,0,0,.815-1.474" transform="translate(-5.154 0.512)" fill="#e2483a"/>
        <path id="Trazado_920" data-name="Trazado 920" d="M166.053,150.044a11.36,11.36,0,0,1-1.535.013,4.435,4.435,0,0,1-1.347-.221c-.254-.068-.507-.128-.756-.213-.1-.035-.207-.074-.309-.115-.015-.01-.225-.1-.227-.105a6.31,6.31,0,0,1-.679-.4c-.094-.064-.187-.132-.277-.2-.023-.024-.179-.163-.179-.162a7.137,7.137,0,0,1-.536-.569c-.085-.1-.169-.2-.251-.3-.036-.044-.049-.058-.057-.066s-.017-.033-.051-.086a10.982,10.982,0,0,1-.761-1.377c-.122-.277-.31-.842-.453-1.261a3.556,3.556,0,0,1-.136-.713c-.035-.286-.126-.555-.188-.836a.567.567,0,0,0-1.04-.141,5.5,5.5,0,0,0-.34,3.893,6.953,6.953,0,0,0,2.016,3.412,7.3,7.3,0,0,0,3.537,1.824,6.637,6.637,0,0,0,2.033.02,5.435,5.435,0,0,0,1.977-.7c.726-.407.438-1.785-.441-1.688" transform="translate(-5.013 0.547)" fill="#e2483a"/>
        <path id="Trazado_921" data-name="Trazado 921" d="M160.692,154.686a1.062,1.062,0,0,0-.976-.771c-.594-.035-1.192-.036-1.785-.088-.058-.005-.541-.058-.212-.018-.228-.028-.455-.061-.685-.082l-.047,0-.045-.009c-.147-.027-.294-.051-.441-.082-.588-.124-1.149-.346-1.739-.455.138.026-.692-.105-.338-.033a1.634,1.634,0,0,0-.826-.058,1.158,1.158,0,0,0-.848,1.1,1.274,1.274,0,0,0,.342.891,3.14,3.14,0,0,0,.325.25c.116.085.125.085.025,0a4.9,4.9,0,0,0,.821.548,7.45,7.45,0,0,0,2.214.536,6.807,6.807,0,0,0,1.679.023,9.213,9.213,0,0,0,1.1-.167,5.183,5.183,0,0,0,.974-.393,1.068,1.068,0,0,0,.466-1.186" transform="translate(-4.885 0.585)" fill="#e2483a"/>
        <g id="Grupo_672" data-name="Grupo 672" transform="translate(136.47 62.456)" opacity="0.57">
          <g id="Grupo_671" data-name="Grupo 671">
            <g id="Grupo_670" data-name="Grupo 670" clip-path="url(#clip-path-6)">
              <path id="Trazado_922" data-name="Trazado 922" d="M288.54,74.146c-.407-.242-.82-.466-1.229-.7a.672.672,0,0,0-.539-.693c-.2-.04-.406-.081-.61-.123a.648.648,0,0,0-.3-.671c-.747-.478-1.525-.914-2.318-1.327a2.455,2.455,0,0,0-.621-.366c-.16-.063-.325-.11-.486-.171-1.815-.868-3.693-1.62-5.55-2.3a80.2,80.2,0,0,0-9.541-2.668,1.972,1.972,0,0,0-1.226-.36c-.116,0-.231.013-.348.016a113.982,113.982,0,0,0-18.247-2.457,95.977,95.977,0,0,0-39.276,6.409A99.993,99.993,0,0,0,175.47,89.5a105.023,105.023,0,0,0-22.251,30.145,130.79,130.79,0,0,0-8.282,21.621c-.021.065-.055.115-.072.187-.026.109-.049.22-.076.329q-1.362,4.946-2.258,10.009-.722,3.293-1.44,6.587a1.974,1.974,0,0,0-.046.4,2.1,2.1,0,0,0,1.744,2.647c4.88.194,9.761.051,14.643.272s9.745.667,14.591,1.327a2.306,2.306,0,0,0,2.2-1.741A131.574,131.574,0,0,1,201.1,111.771c11.344-13.114,25.354-24.239,40.933-31.465a121.754,121.754,0,0,1,28-4.345c2.931-.128,5.865-.25,8.8-.2a57.289,57.289,0,0,1,8.835.512,1.17,1.17,0,0,0,.865-2.129" transform="translate(-140.979 -62.218)" fill="#fff"/>
            </g>
          </g>
        </g>
        <path id="Trazado_923" data-name="Trazado 923" d="M237.314,329.672a3.5,3.5,0,0,0-3.436.74,2.876,2.876,0,0,0-.418.523c-.47.05-.788.586-.873,1.031a3.675,3.675,0,0,0,.27,2.268,3.737,3.737,0,0,0,1.376,1.564,3.614,3.614,0,0,0,1.814.644,3.016,3.016,0,0,0,1.831-.543,3.986,3.986,0,0,0,1.662-3.4,3.133,3.133,0,0,0-2.225-2.83m-.588,5.736a1.851,1.851,0,0,1-1.565-.3,2.116,2.116,0,0,1-.493-.569,3.571,3.571,0,0,1-.217-.4c-.033-.07-.062-.142-.092-.212l-.041-.092-.01-.027a7,7,0,0,1-.2-.885s-.01-.081-.013-.135c0-.075-.006-.151,0-.226s.009-.132.012-.2c.01-.042.017-.085.025-.128a3.191,3.191,0,0,0,.049-.585.83.83,0,0,0-.073-.31,2.732,2.732,0,0,1,2.724-.881,2.261,2.261,0,0,1,1.824,2.387,2.876,2.876,0,0,1-1.924,2.559" transform="translate(-7.436 1.259)" fill="#1c1d1c"/>
        <g id="Grupo_675" data-name="Grupo 675" transform="translate(108.465 124.664)" opacity="0.22">
          <g id="Grupo_674" data-name="Grupo 674" transform="translate(0)">
            <g id="Grupo_673" data-name="Grupo 673" clip-path="url(#clip-path-7)">
              <path id="Trazado_924" data-name="Trazado 924" d="M127.767,125.466a4.754,4.754,0,0,0-5.529,2.29c-6.083,11.128-8.775,24.937-9.794,37.556-1.006,12.465-.271,27.087,4.331,38.795.061.156.14.284.21.429.15.836.314,1.668.494,2.491,1.134,5.184,8.463,3.791,8.66-1.215.5-12.787-.288-25.349,1.387-38.124a179.019,179.019,0,0,1,8.978-36.7c2.019-5.671-5.02-8.679-8.736-5.525" transform="translate(-112.049 -124.189)" fill="#1c1d1c"/>
            </g>
          </g>
        </g>
        <g id="Grupo_678" data-name="Grupo 678" transform="translate(359.859 149.907)" opacity="0.22">
          <g id="Grupo_677" data-name="Grupo 677" transform="translate(0)">
            <g id="Grupo_676" data-name="Grupo 676" clip-path="url(#clip-path-8)">
              <path id="Trazado_925" data-name="Trazado 925" d="M431.744,188.5c-3.9-12.324-13.143-24.592-23.3-32.087-9.529-7.03-24.9-10.134-35.206-3.1-2.966,2.024-1.168,7.663,2.554,6.28a24.313,24.313,0,0,1,13.442-1.3,160.52,160.52,0,0,0-5.213,29.251,154.489,154.489,0,0,0-.419,17.353c.119,5.788-.349,11.7.763,17.405.761,3.912,6.153,2.708,6.384-.9.351-5.481-.507-11.008-.23-16.51.276-5.479.917-11.034,1.513-16.489a270.97,270.97,0,0,1,4.671-27.279,39.2,39.2,0,0,1,7.607,5.7c7.349,6.91,14.691,16.88,17.026,27.022,5.011,21.767-12.4,41.305-29.31,51.056-4.074,2.349-.492,8.1,3.557,6.311,11.765-5.21,22.322-12.223,29.81-23.341,7.532-11.185,10.506-26.25,6.354-39.37" transform="translate(-371.749 -149.336)" fill="#1c1d1c"/>
            </g>
          </g>
        </g>
        <path id="Trazado_926" data-name="Trazado 926" d="M230.075,343.391c-2.558,2.931-4.057,7-5.358,10.68a57.128,57.128,0,0,0-2.778,12.058.781.781,0,0,0,.371.672.509.509,0,0,0,.578.078.764.764,0,0,0,.524-.543,71.767,71.767,0,0,1,2.75-11.641q.941-2.9,2.164-5.678c.777-1.771,1.649-3.474,2.259-5.317a.309.309,0,0,0-.51-.308" transform="translate(-7.098 1.312)" fill="#1c1d1c"/>
        <path id="Trazado_927" data-name="Trazado 927" d="M298.521,490.9a65.815,65.815,0,0,0-5.6,3.788q-2.855,2-5.861,3.737a88.2,88.2,0,0,1-12.478,6.006,102.319,102.319,0,0,1-26.3,6.273,107.838,107.838,0,0,1-29.332-1.062c0-.017,0-.031,0-.048a270.6,270.6,0,0,1-6.631-55.642q-.061-3.931-.007-7.862.029-2.022.045-4.042a10.339,10.339,0,0,0-.333-3.665c-.069-.2-.378-.3-.481-.065-.854,1.926-.677,4.34-.725,6.424-.055,2.4-.061,4.792-.045,7.188q.051,7.075.47,14.142a273.54,273.54,0,0,0,3.171,28.084q1.256,7.649,2.953,15.209a133.2,133.2,0,0,1-24.488-7.043,157.737,157.737,0,0,1-15.019-6.811c-2.364-1.224-4.752-2.438-7.07-3.751a48.042,48.042,0,0,0-7.12-3.8c-.277-.1-.467.293-.277.493a28.436,28.436,0,0,0,5.909,4.321c2.1,1.3,4.184,2.618,6.355,3.8a144.6,144.6,0,0,0,13.175,6.363,126.315,126.315,0,0,0,28.289,8.319c18.423,3.039,37.359,2.144,55.039-4.33a101.942,101.942,0,0,0,14.137-6.411c2.3-1.267,4.544-2.639,6.735-4.1a29.512,29.512,0,0,0,6-4.829.433.433,0,0,0-.51-.686" transform="translate(-5.223 1.675)" fill="#1c1d1c"/>
        <path id="Trazado_928" data-name="Trazado 928" d="M201.71,522.545q-1.885-4.475-3.816-8.927c-.6-1.391-1.156-2.821-1.831-4.177a5.892,5.892,0,0,0-2.39-2.725,3.355,3.355,0,0,0-4.98,2.959,6.2,6.2,0,0,0,1.143,3.7c.384.605.816,1.178,1.243,1.751a9.688,9.688,0,0,0,1.486,1.8.814.814,0,0,0,1.257-1c-.948-1.94-3.291-3.539-3.268-5.927.008-.8.392-1.722,1.261-1.786a2.675,2.675,0,0,1,2.252,1.583,26.288,26.288,0,0,1,1.381,3.018l1.49,3.488q1.549,3.626,3.134,7.233c.507,1.156,2.118.151,1.637-.992" transform="translate(-6.035 1.935)" fill="#1c1d1c"/>
        <path id="Trazado_929" data-name="Trazado 929" d="M215.361,526.773a47.862,47.862,0,0,0-1.289-4.708q-.685-2.343-1.372-4.685c-.681-2.328-1.23-6.115-4.058-6.616a2.841,2.841,0,0,0-2.85,1.4,6.049,6.049,0,0,0-.625,3.808,17.406,17.406,0,0,0,2.481,8.158c.352.518,1.289.225,1.059-.463a33.366,33.366,0,0,1-1.874-6.876,6.961,6.961,0,0,1,.132-3.415,1.267,1.267,0,0,1,2.16-.542,6.517,6.517,0,0,1,1.249,2.991q.553,1.9,1.107,3.808a78.71,78.71,0,0,0,2.3,7.593.824.824,0,0,0,1.584-.453" transform="translate(-6.56 1.952)" fill="#1c1d1c"/>
        <path id="Trazado_930" data-name="Trazado 930" d="M232.191,517.006c-.833-2.1-3.027-2.385-4.747-1.228a12.831,12.831,0,0,0-3.884,4.868,17,17,0,0,0-1.289,3.385c-.256.99-.634,2.474-.094,3.408a.5.5,0,0,0,.794.106c.651-.778.712-2.058.987-3.033a15.848,15.848,0,0,1,1.241-3.136,14.634,14.634,0,0,1,1.889-2.766c.606-.695,1.473-1.7,2.46-1.68.9.019,1.116,1.054,1.177,1.8a21.168,21.168,0,0,1-.121,3.631A36.282,36.282,0,0,1,229.028,530a.919.919,0,0,0,1.768.5,33.5,33.5,0,0,0,1.582-7.1,33.9,33.9,0,0,0,.212-3.642,7.351,7.351,0,0,0-.4-2.756" transform="translate(-7.097 1.969)" fill="#1c1d1c"/>
        <path id="Trazado_931" data-name="Trazado 931" d="M251.3,515.577a2.571,2.571,0,0,0-2.042-1.506,3.409,3.409,0,0,0-2.469.959,11.436,11.436,0,0,0-1.88,2.263q-.88,1.263-1.635,2.614a28.015,28.015,0,0,0-1.491,3.179,8.009,8.009,0,0,0-.919,3.318c.032.429.578.776.9.387a8.525,8.525,0,0,0,1.076-2.231q.5-1.191,1.088-2.333a35.71,35.71,0,0,1,2.654-4.4c.537-.749,2.256-3.051,3.175-1.6a2.637,2.637,0,0,1,.009,2.155,22.056,22.056,0,0,1-.992,2.537c-.859,1.916-1.873,3.751-2.886,5.582-.52.94.878,1.787,1.4.849,1.072-1.924,2.146-3.852,3.037-5.875.772-1.755,1.887-3.983.976-5.9" transform="translate(-7.703 1.965)" fill="#1c1d1c"/>
        <path id="Trazado_932" data-name="Trazado 932" d="M266.486,513.6a1.8,1.8,0,0,0-2.068-.987,5.127,5.127,0,0,0-2.167,1.3,18.576,18.576,0,0,0-3.461,3.924,16.808,16.808,0,0,0-1.408,2.577c-.21.479-.4.968-.577,1.463a3.609,3.609,0,0,0-.342,1.506c.043.416.576.79.9.386a8.752,8.752,0,0,0,.888-2.021,21.068,21.068,0,0,1,1.019-2,17.511,17.511,0,0,1,2.716-3.584,15.824,15.824,0,0,1,1.623-1.452c.276-.213,1.087-.878,1.462-.569s-.123,1.226-.271,1.537q-.587,1.224-1.228,2.419c-.456.85-.931,1.688-1.4,2.531q-.375.67-.765,1.33c-.24.407-.582.839-.393,1.338a.506.506,0,0,0,.467.368c.521,0,.771-.414,1.042-.819q.427-.638.838-1.286c.564-.891,1.078-1.808,1.57-2.744.464-.884.932-1.777,1.329-2.7a3.17,3.17,0,0,0,.228-2.524" transform="translate(-8.202 1.959)" fill="#1c1d1c"/>
        <path id="Trazado_933" data-name="Trazado 933" d="M149.059,384.268c-.37-.788-1.465-1-2.189-1.351q-1.288-.625-2.538-1.334a49.491,49.491,0,0,1-4.937-3.234,44.229,44.229,0,0,1-4.473-3.789c-1.425-1.376-2.7-2.9-4.108-4.3a.608.608,0,0,0-.939.751c2.084,3.429,5.316,6.27,8.417,8.679a41.755,41.755,0,0,0,5.048,3.344q1.314.744,2.676,1.4c.763.365,1.814,1.124,2.659.813a.687.687,0,0,0,.384-.979" transform="translate(-4.151 1.415)" fill="#1c1d1c"/>
        <path id="Trazado_934" data-name="Trazado 934" d="M348.313,413.2c-2.528-7.019-7.169-12.812-12.521-17.741-2.728-2.511-5.632-4.81-8.547-7.081a78.685,78.685,0,0,0-9.809-6.957c-3.64-2.025-8.311-3.339-12.3-1.534-.5.226-.107.908.341.838a14.455,14.455,0,0,1,5.778.144,20.734,20.734,0,0,1,5.487,2.191,89.143,89.143,0,0,1,9.095,6.351c5.462,4.049,10.792,8.5,15.048,13.925a36.814,36.814,0,0,1,5.781,10.332c.377,1.061,2.03.6,1.645-.47" transform="translate(-9.752 1.449)" fill="#1c1d1c"/>
        <path id="Trazado_935" data-name="Trazado 935" d="M339.591,406.281a3.607,3.607,0,0,0-3.089-3.156,3.262,3.262,0,0,0-3.306,1.812,1.828,1.828,0,0,0-.166,1.01c-.029.114-.054.229-.072.339a3.323,3.323,0,0,0,4.457,3.73,3.655,3.655,0,0,0,2.175-3.735m-1.382.564c0,.012-.025.147-.025.148a2.884,2.884,0,0,1-.119.411c-.012.025-.055.13-.055.129-.033.068-.069.134-.106.2-.025.043-.053.084-.079.128a.361.361,0,0,0-.028.052.469.469,0,0,0-.037.039,1.833,1.833,0,0,1-.548.489,1.885,1.885,0,0,1-.608.219l-.04.01h-.05l-.145.009c-.073,0-.146,0-.219,0-.048,0-.1-.005-.145-.01l-.018,0a3.652,3.652,0,0,1-.354-.089c-.066-.021-.132-.045-.2-.072l-.03-.017a3.448,3.448,0,0,1-.374-.231c.026.019.089.083-.02-.018-.073-.067-.143-.134-.209-.208a1.81,1.81,0,0,1-.32-.562,4.12,4.12,0,0,1-.119-.474c0-.017-.011-.067-.015-.093-.009-.089-.014-.179-.015-.269,0-.05,0-.1,0-.151s.006-.093.011-.141l.007-.043a3.406,3.406,0,0,1,.1-.383c.04-.061.076-.125.115-.187l.012-.018a4.152,4.152,0,0,1,.338-.392c.036-.035.073-.068.108-.1a.256.256,0,0,0,.032-.034c.011-.007.01,0,.033-.02.1-.07.2-.14.313-.2.066-.035.132-.065.2-.1l.091-.044c.037-.013.121-.046.117-.045.093-.032.188-.052.282-.078l.028-.007c.068-.008.137-.012.206-.014s.148.005.223.007h.034a1.582,1.582,0,0,1,.714.3,2.139,2.139,0,0,1,.82,1.043,2.585,2.585,0,0,1,.083.341c0,.028.014.138.014.139,0,.076,0,.152,0,.228,0,.036,0,.073-.009.11" transform="translate(-10.647 1.541)" fill="#1c1d1c"/>
        <path id="Trazado_936" data-name="Trazado 936" d="M359.565,464.478c-.077-.426-.689-.3-.7.1-.113,3.152.173,6.342.221,9.5s.044,6.344-.123,9.505c-.335,6.39-.974,12.8-1.932,19.119a179.933,179.933,0,0,1-9.358,36.27,156.352,156.352,0,0,1-8.887,19.64c-.474.871.837,1.661,1.291.782,11.645-22.569,19.22-47.622,20.022-73.332.112-3.58.189-7.163.142-10.744a66.073,66.073,0,0,0-.672-10.835" transform="translate(-10.832 1.774)" fill="#1c1d1c"/>
        <path id="Trazado_937" data-name="Trazado 937" d="M335.629,541.764a3.031,3.031,0,0,0-2.581-.28,2.1,2.1,0,0,0-1.1.934,2.468,2.468,0,0,0-.246.6,1.056,1.056,0,0,0,.021.588,1.326,1.326,0,0,0,.388.841,2.144,2.144,0,0,0-.336,1.053,3.116,3.116,0,0,0,.523,1.715,2.664,2.664,0,0,0,3.313,1.024,3.358,3.358,0,0,0,2.073-3.183,4.1,4.1,0,0,0-2.057-3.294m.569,4.014a2.064,2.064,0,0,1-.714.876c-.087.058-.177.107-.268.157-.015.008-.06.026-.081.035-.042.016-.083.031-.126.045a2.409,2.409,0,0,1-.251.061l-.119.015c-.067,0-.134,0-.2,0-.045,0-.089,0-.134-.007.16.01-.052-.011-.075-.016-.05-.011-.331-.114-.19-.049a2.71,2.71,0,0,1-.239-.134c-.013-.008-.042-.029-.06-.042-.036-.03-.072-.061-.1-.094s-.083-.092-.126-.137a.22.22,0,0,0-.025-.022l-.016-.029a2.914,2.914,0,0,1-.174-.3c-.016-.033-.031-.066-.046-.1,0-.016-.034-.1-.037-.108a2.621,2.621,0,0,1-.078-.342l0-.024c-.007-.113-.027-.225-.039-.338,0-.006,0,0,0-.005v-.028c0-.061,0-.121,0-.183a1.182,1.182,0,0,1,.132-.549.442.442,0,0,0-.272-.644.68.68,0,0,0,.06-.071c.062-.1.107-.212.17-.313l.017-.021c.019-.02.194-.195.13-.137l-.025.021c.067-.052.134-.105.2-.16l.034-.019s.129-.071.143-.084c.039-.015.079-.03.119-.042a1.759,1.759,0,0,1,.238-.056l.046,0c.071-.005.14-.008.211-.007.031,0,.262.015.18,0a2.127,2.127,0,0,1,1.772,1.66,1.977,1.977,0,0,1-.043,1.188" transform="translate(-10.608 2.069)" fill="#1c1d1c"/>
        <path id="Trazado_938" data-name="Trazado 938" d="M106.1,350.859c-10.235-14.307-20.4-28.714-30.226-43.327a443.4,443.4,0,0,1-25.894-43.464c-2.179-4.207-4.283-8.457-6.367-12.715-2.075-4.241-3.872-8.682-6.116-12.825a.466.466,0,0,0-.847.37A121.424,121.424,0,0,0,41.5,250.369q2.574,5.711,5.375,11.3,5.648,11.272,11.962,22.169C67.534,298.819,77.336,313,87.276,327.109c5.787,8.209,11.633,16.377,17.346,24.642.638.923,2.125.018,1.473-.892" transform="translate(-1.171 0.911)" fill="#1c1d1c"/>
        <g id="Grupo_681" data-name="Grupo 681" transform="translate(190.896 338.617)" opacity="0.34">
          <g id="Grupo_680" data-name="Grupo 680">
            <g id="Grupo_679" data-name="Grupo 679" clip-path="url(#clip-path-9)">
              <path id="Trazado_939" data-name="Trazado 939" d="M345,389.646a50.339,50.339,0,0,0-11.77-13.249c-6.247-4.764-15.287-7.628-23.228-6.012a8.994,8.994,0,0,0-3.6-7.56c-4.721-3.723-9.428-7.466-14.179-11.145-4.61-3.569-9.309-7.993-14.549-10.489a7.67,7.67,0,0,0-3.133-.775,4.378,4.378,0,0,0-1.9-.387c-5.943.12-11.954,2.569-17.9,3.29a106.6,106.6,0,0,1-18.249.6,109.105,109.105,0,0,1-17.522-2.383c-5.731-1.243-12.188-4.4-18.025-4.2A3.974,3.974,0,0,0,198.282,344c4.336,4.48,12.194,6.252,17.985,7.7a106.829,106.829,0,0,0,19.432,2.926,108.177,108.177,0,0,0,17.977-.406c.156.14.3.286.472.418.943.711,1.9,1.394,2.873,2.067.14.226.292.45.463.673,5.523,7.221,11.764,13.64,17.685,20.5a37.743,37.743,0,0,1,5.151,7.74c.194,8.023,2.716,16.474,5.691,23.074a52.762,52.762,0,0,0,8.545,13.275c.545.611,1.124,1.244,1.739,1.845-1.281,9.385-4.441,18.432-7.991,27.155-4.361,10.715-8.8,21.7-14.86,31.522-5.312,8.6-12.643,15.6-20.74,21.333-8.72,6.177-18.52,10.219-27.395,16-6.158,4.014-2.307,15.079,5.121,12.593a96.7,96.7,0,0,0,10.313-4.177,5.872,5.872,0,0,0,4.947,1.237c10.08-2.414,20.128-10.173,28.231-16.585l.041-.033c3.329.248,6.909-1.6,9.183-4.043a7.694,7.694,0,0,0,3.351-1.861c11.588-10.708,20.276-24.225,27.789-38.194,6.752-12.556,15.946-26.648,12.735-41.183a7.575,7.575,0,0,0,1.224-2.491c1.2-4.543-1.505-8.049-5.31-9.7-5.973-2.589-12.4-5.4-17.058-10.2-5-5.155-6.222-12.441-8.578-19.059,1.615-.005,1.657-.882,2.935-1.9,1.4,1.478.916-3.31,3.493-4.124,1.539-.486,7.551,1.726,9.024,1.586.665.686,3.293,3.815,4.435,4.015,8.055,1.416,10.645,8.11,16.561,13.91.266.26,3.986,4.242,4.19,4.519,1.942,3.544,5.368,6.07,5.027,8.992-.613,5.239,6.726-2.615,6.383-8.992-.311-5.789-1.3-9.724-4.342-14.5" transform="translate(-197.203 -337.328)" fill="#1c1d1c"/>
            </g>
          </g>
        </g>
        <g id="Grupo_684" data-name="Grupo 684" transform="translate(327.112 462.925)" opacity="0.34">
          <g id="Grupo_683" data-name="Grupo 683" transform="translate(0)">
            <g id="Grupo_682" data-name="Grupo 682" clip-path="url(#clip-path-10)">
              <path id="Trazado_940" data-name="Trazado 940" d="M367.171,464.449c-1.816-3.4-4.927-3.9-7.471-2.7-3.394-.076-6.661,2.124-6.307,6.637,2.2,28.05-3.451,55.268-14.847,80.69a6.348,6.348,0,0,0,5.225,9.09c2.018,2.409,5.493,3.541,8.387,1.6,6.4-4.3,10.489-14.051,13.441-21.131a100.814,100.814,0,0,0,6.788-24.259c2.3-15.81,2.481-35.52-5.217-49.927" transform="translate(-337.92 -461.162)" fill="#1c1d1c"/>
            </g>
          </g>
        </g>
        <g id="Grupo_687" data-name="Grupo 687" transform="translate(51.461 233.588)" opacity="0.34">
          <g id="Grupo_686" data-name="Grupo 686" transform="translate(0)">
            <g id="Grupo_685" data-name="Grupo 685" clip-path="url(#clip-path-11)">
              <path id="Trazado_941" data-name="Trazado 941" d="M116.363,338.8c-8.332-18.733-17.045-37.292-25.621-55.906-3.862-8.381-7.668-16.8-11.914-24.98-4.161-8.018-8.654-17.1-15.141-23.372-5.253-5.079-12.971,1.283-9.774,7.821,3.949,8.072,9.306,15.451,13.4,23.492,4.2,8.244,8.017,16.69,11.9,25.1,8.46,18.321,16.8,36.715,25.5,54.915,3.889,8.136,15.25,1.014,11.657-7.066" transform="translate(-53.161 -232.699)" fill="#1c1d1c"/>
            </g>
          </g>
        </g>
        <g id="Grupo_690" data-name="Grupo 690" transform="translate(131.122 354.323)" opacity="0.34">
          <g id="Grupo_689" data-name="Grupo 689" transform="translate(0)">
            <g id="Grupo_688" data-name="Grupo 688" clip-path="url(#clip-path-12)">
              <path id="Trazado_942" data-name="Trazado 942" d="M153.319,354.916c-9.037,9.4-18.108,24.005-17.859,37.816.125,6.966,8.823,7.472,11.087,1.556,2.075-5.428,3.152-10.99,5.828-16.206a58.667,58.667,0,0,1,9.909-13.87c5.75-6.016-3.2-15.3-8.965-9.3" transform="translate(-135.454 -352.974)" fill="#1c1d1c"/>
            </g>
          </g>
        </g>
        <path id="Trazado_943" data-name="Trazado 943" d="M190.944,343.017c-22.323,10.109-38.779,33.112-45.168,57.077-7.514,28.184-2.19,57.567,11.86,82.444,1.186,2.1,4.244.235,3.139-1.9-12.214-23.651-16.941-53.024-9.684-79.021,6.586-23.593,21.795-42.294,42.347-54.172,2.846-1.644.346-5.711-2.495-4.425" transform="translate(-4.553 1.31)" fill="#ff2742" opacity="0.39"/>
        <path id="Trazado_944" data-name="Trazado 944" d="M331.839,412.246c-.9-1.12-2.769-1.47-4.068-1.906-1.54-.518-3.086-1.008-4.6-1.6a34.984,34.984,0,0,1-8.752-4.8,25.228,25.228,0,0,1-6.179-6.845,24.755,24.755,0,0,1-2.966-9.219c-.121-.751-1.264-.936-1.376-.076-.862,6.632,3.725,13.544,8.468,17.5a35.774,35.774,0,0,0,9.233,5.443,48.227,48.227,0,0,0,5.068,1.791c1.365.395,3.54,1.176,4.912.571a.583.583,0,0,0,.26-.859" transform="translate(-9.716 1.48)" fill="#5ec4df"/>
        <path id="Trazado_945" data-name="Trazado 945" d="M238.067,394.039a23.882,23.882,0,0,0-2.882-1.411,6.592,6.592,0,0,0-3.326-.782,9.8,9.8,0,0,0-5.194,1.739,19.137,19.137,0,0,0-2.9,2.348,9.616,9.616,0,0,0-1.189-1.763,9.851,9.851,0,0,0-3.928-2.843,9.591,9.591,0,0,0-9.609,1.761c-5.562,4.741-3.959,13.444-.014,18.639,2.509,3.306,5.907,5.76,9.214,8.129a1.758,1.758,0,0,0,.418.218,5.36,5.36,0,0,0,2.409,1.655,7.441,7.441,0,0,0,5.575-.444,36.8,36.8,0,0,0,10.269-7.017c3.052-2.814,6.026-6.144,6.6-10.508.568-4.314-1.9-7.782-5.441-9.721" transform="translate(-6.57 1.493)" fill="#e2483a"/>
        <path id="Trazado_946" data-name="Trazado 946" d="M218.047,395.049a6.768,6.768,0,0,0-6.409,2.506c-1.582,1.882-2.416,4.841-1.142,7.122a.378.378,0,0,0,.714-.152c.144-2.092.449-4.272,1.8-5.931a7.6,7.6,0,0,1,5.11-2.531c.608-.063.423-.915-.07-1.015" transform="translate(-6.712 1.509)" fill="#fff"/>
        <g id="Grupo_693" data-name="Grupo 693" transform="translate(112.638 577.915)" opacity="0.26">
          <g id="Grupo_692" data-name="Grupo 692" opacity="0.7">
            <g id="Grupo_691" data-name="Grupo 691" clip-path="url(#clip-path-13)">
              <path id="Trazado_947" data-name="Trazado 947" d="M264.693,591.916c3.149-1.519,4.937-3.237,4.937-5.06,0-6.152-20.239-11.14-45.205-11.14-22.218,0-40.679,3.951-44.477,9.158-36.5,2.2-63.588,10.307-63.588,19.978,0,11.359,37.365,20.567,83.456,20.567s83.455-9.208,83.455-20.567c0-4.9-6.962-9.4-18.577-12.935" transform="translate(-116.36 -575.715)" fill="#adacac"/>
            </g>
          </g>
        </g>
        <path id="Trazado_948" data-name="Trazado 948" d="M365.01,455.162c-.138-2.107-.366-4.207-.634-6.3a119.644,119.644,0,0,0-2.342-12.928,104.525,104.525,0,0,0-3.682-12.074c-.783-2.1-1.609-4.187-2.527-6.226a23.2,23.2,0,0,0-3.384-6.07,2.614,2.614,0,0,0-4.475,1.393,2.358,2.358,0,0,0-1.21.841,2.642,2.642,0,0,0-3.522,3.119,94.352,94.352,0,0,0,3.483,10.646q1.883,5.3,3.545,10.668c1.106,3.565,2.087,7.174,2.867,10.832q.584,2.736,1.009,5.5c.269,1.767.346,3.681.73,5.551a3.17,3.17,0,0,0,2.878,2.4,7.607,7.607,0,0,1,2.586,1.838,3.2,3.2,0,0,0,4.7-1.985c.505-2.269.126-4.9-.026-7.209" transform="translate(-10.975 1.57)" fill="#1c1d1c"/>
        <path id="Trazado_949" data-name="Trazado 949" d="M129.661,359.635c-.383-.142-.761-.3-1.141-.449l-.006,0-.062-.029c-.168-.078-.339-.156-.507-.235q-1.061-.5-2.077-1.1t-1.971-1.286c-.3-.218-.6-.447-.9-.674l-.011-.008-.076-.065c-.172-.147-.345-.291-.515-.44a26.985,26.985,0,0,1-3.209-3.34c-.26-.323-.513-.652-.768-.98l-.231-.305c-.071-.1-.179-.25-.2-.274-.48-.684-.936-1.389-1.395-2.088a2.23,2.23,0,0,0-2.805-.953,2.325,2.325,0,0,0-1.3,2.749c.148.38.312.755.48,1.125a2.126,2.126,0,0,0-2.323.272,2.29,2.29,0,0,0-.781,1.207,5.454,5.454,0,0,0-1.145-.586,1.9,1.9,0,0,0-1.722.305,2.456,2.456,0,0,0-.766,3.718,20.768,20.768,0,0,0,2,1.867c.636.689,1.317,1.329,1.95,1.914q2.229,2.063,4.578,3.979a96.325,96.325,0,0,0,10.129,7.3,2.842,2.842,0,0,0,3.923-1.066,3.31,3.31,0,0,0,.341-1.136,2.321,2.321,0,0,0,.8-.894,3.126,3.126,0,0,0-.178-3.112,2.836,2.836,0,0,0,1.782-1.94,2.907,2.907,0,0,0-1.9-3.47" transform="translate(-3.38 1.327)" fill="#1c1d1c"/>
        <path id="Trazado_950" data-name="Trazado 950" d="M197.862,515.044c-.128-.163-.252-.327-.377-.492-.682-.93-1.324-1.891-1.914-2.888-.243-.412-.478-.83-.714-1.247a4.284,4.284,0,0,0-.888-1.6c-.136-.216-.3-.41-.452-.613a1.715,1.715,0,0,0-1.109-.551,1.789,1.789,0,0,0-1.231.238,2.14,2.14,0,0,0-.888,2.263,13.921,13.921,0,0,0,2.928,6.322,1.871,1.871,0,0,0,.9.536c.266.361.527.728.8,1.082a2.046,2.046,0,0,0,1.469.631,2.077,2.077,0,0,0,1.469-.631,2.21,2.21,0,0,0,.609-1.524,2.512,2.512,0,0,0-.609-1.524" transform="translate(-6.085 1.94)" fill="#1c1d1c"/>
        <path id="Trazado_951" data-name="Trazado 951" d="M213.065,523.058c-.221-.557-.5-1.063-.755-1.6-.1-.209-.193-.423-.29-.632-.017-.037-.026-.054-.037-.076s-.009-.024-.017-.047a20.835,20.835,0,0,1-.785-2.587c-.1-.426-.192-.852-.265-1.283-.017-.107-.161-.864-.05-.289a6.133,6.133,0,0,1-.062-.611c-.092-1.085-.017-2.675-.889-3.433a1.7,1.7,0,0,0-2.059-.276c-1.147.8-1.273,2.385-1.2,3.709a20.576,20.576,0,0,0,.421,3.266,16.84,16.84,0,0,0,.835,2.663,12.8,12.8,0,0,0,1.707,3.277,2.015,2.015,0,0,0,2.5.335,2.191,2.191,0,0,0,.949-2.417" transform="translate(-6.609 1.957)" fill="#1c1d1c"/>
        <path id="Trazado_952" data-name="Trazado 952" d="M230.4,516.265a2.176,2.176,0,0,0-2.662.356,24.522,24.522,0,0,0-3.1,4.669q-.6,1.134-1.121,2.311a10.517,10.517,0,0,0-.6,1.583,2.1,2.1,0,0,0,1.8,2.771,2,2,0,0,0,1.563-.77c.024.059.04.117.071.178a2.124,2.124,0,0,0,1.618,1.1,2.048,2.048,0,0,0,1.637-.452,2.447,2.447,0,0,0,.873-1.8q.431-3.48.863-6.96c.022-.135.047-.27.074-.406a2.381,2.381,0,0,0-1.01-2.573" transform="translate(-7.127 1.972)" fill="#1c1d1c"/>
        <path id="Trazado_953" data-name="Trazado 953" d="M249.6,515.787a2.171,2.171,0,0,0-2.617.35,17.977,17.977,0,0,0-3.336,4.459,14.179,14.179,0,0,0-1.166,2.713,8.663,8.663,0,0,0-.279,1.668,1.948,1.948,0,0,0,1.417,2.118,1.744,1.744,0,0,0,.271.194,2.239,2.239,0,0,0,3.059-.831,37.406,37.406,0,0,0,3.642-8.143,2.292,2.292,0,0,0-.992-2.529" transform="translate(-7.746 1.97)" fill="#1c1d1c"/>
        <path id="Trazado_954" data-name="Trazado 954" d="M264.159,512.878a1.478,1.478,0,0,0-1.411.91,2.029,2.029,0,0,0-1.1.867c-.552.865-1.127,1.719-1.651,2.6a9.712,9.712,0,0,0-1.468,3.065,1.652,1.652,0,0,0,.548,1.668,1.476,1.476,0,0,0,1.7.124,7.431,7.431,0,0,0,.846-.7,5.026,5.026,0,0,0,.665-.847q.457-.653.913-1.308c.6-.853,1.142-1.751,1.71-2.626a1.693,1.693,0,0,0,.231-.7c1.042-.853.717-3.059-.983-3.059" transform="translate(-8.267 1.96)" fill="#1c1d1c"/>
        <path id="Trazado_955" data-name="Trazado 955" d="M240.586,541.169c-3.117.59-6.145,1.585-9.28,2.111a58.854,58.854,0,0,1-9.4.816,56.722,56.722,0,0,1-18.625-2.983,83.49,83.49,0,0,1-10.108-4.37.639.639,0,0,0-.627,1.112,46.756,46.756,0,0,0,18.342,7.321,53.368,53.368,0,0,0,19.426.173c3.576-.65,7.408-1.509,10.584-3.4a.428.428,0,0,0-.317-.778" transform="translate(-6.149 2.051)" fill="#1c1d1c"/>
        <path id="Trazado_956" data-name="Trazado 956" d="M221.215,551.739a22.152,22.152,0,0,0-4.469-.584,48.747,48.747,0,0,1-4.909-.673c-1.537-.291-3.068-.6-4.583-1-.757-.2-1.512-.4-2.273-.585a2.569,2.569,0,0,0-1.772-.077.339.339,0,0,0-.113.449c.32.642,1.052.846,1.668,1.1a22.663,22.663,0,0,0,2.222.779,42.208,42.208,0,0,0,4.718,1.14c1.559.274,3.133.482,4.708.617a12.9,12.9,0,0,0,4.8-.215.5.5,0,0,0,0-.948" transform="translate(-6.494 2.097)" fill="#1c1d1c"/>
        <path id="Trazado_957" data-name="Trazado 957" d="M362.037,547.076a1.218,1.218,0,0,0-2.068.888,14.971,14.971,0,0,0,.516,2.639,12.876,12.876,0,0,1,.3,2.718,13.27,13.27,0,0,1-.972,5.083,12.773,12.773,0,0,1-2.411,3.783,25.333,25.333,0,0,1-2.87,2.491,25.246,25.246,0,0,0,1.185-7.441,1.528,1.528,0,1,0-3.055,0c-.2,4.634-1.477,9.5-5.137,12.489-2.843,2.319-6.27,2.266-9.418.977a16.607,16.607,0,0,0,4.391-2.669,15.377,15.377,0,0,0,5.215-8.053,1.68,1.68,0,0,0-3.231-.923,15.412,15.412,0,0,1-4.219,6.423,12.327,12.327,0,0,1-6.821,2.974,12.544,12.544,0,0,1-7.34-1.686,15.255,15.255,0,0,1-3.049-2.4c-.51-.5-1.02-1-1.524-1.5-.1-.1-.209-.2-.319-.3a23.635,23.635,0,0,0,11.151.139c1.731-.39,4.343-.943,5.572-2.349.788-.9.3-2.657-1.028-2.573a10.63,10.63,0,0,0-2.866.939,22.043,22.043,0,0,1-2.538.745,20.432,20.432,0,0,1-5.192.488,18.35,18.35,0,0,1-10.145-3.2c-2.112-1.543-4.027-4.791-1.977-7.248a2.568,2.568,0,0,1,1.878-.908.651.651,0,0,0,.064.021,1.134,1.134,0,0,0,.424-.026,9.431,9.431,0,0,1,1.734.267,17.661,17.661,0,0,0,5.277.848,1.2,1.2,0,0,0,0-2.4c-1.975-.222-3.861-1.184-5.786-1.613.009-.035.015-.071.024-.107a11.092,11.092,0,0,1,.709-1.94,13.8,13.8,0,0,1,1.081-1.867,16.7,16.7,0,0,0,1.084-1.959.6.6,0,0,0-.793-.822,7.254,7.254,0,0,0-3.272,3.572,15.121,15.121,0,0,0-.956,2.337c-.063.2-.109.407-.163.609a5.6,5.6,0,0,0-1.576.374c-2.87,1.154-4.065,4.492-3.607,7.483.5,3.3,3.139,5.76,5.864,7.235a21.433,21.433,0,0,0,2.729,1.229.692.692,0,0,0,0,.26,11.637,11.637,0,0,0,.185,1.309,9.743,9.743,0,0,0,.512,1.208,9.032,9.032,0,0,0,1.307,1.978,15.1,15.1,0,0,0,3.629,2.954,15.408,15.408,0,0,0,9.232,2.24,15.079,15.079,0,0,0,2.363-.414c2.505,4.532,9.216,3.846,12.851,1.226a14.763,14.763,0,0,0,4.742-5.865,1.146,1.146,0,0,0,1.119.442c3.449-.789,6.28-4.415,7.624-7.633a15.846,15.846,0,0,0,1.213-6.219c-.016-2.025-.27-4.679-1.64-6.246" transform="translate(-9.921 2.06)" fill="#1c1d1c"/>
      </g>
    </g>
  </g>
</svg>
