<svg id="Grupo_3279" data-name="Grupo 3279" xmlns="http://www.w3.org/2000/svg" xmlns:xlink="http://www.w3.org/1999/xlink" width="322.26" height="466" viewBox="0 0 322.26 466">
  <defs>
    <clipPath id="clip-path">
      <rect id="Rectángulo_374" data-name="Rectángulo 374" width="322.26" height="466" fill="none"/>
    </clipPath>
    <clipPath id="clip-path-3">
      <rect id="Rectángulo_362" data-name="Rectángulo 362" width="83.653" height="32.694" fill="none"/>
    </clipPath>
    <clipPath id="clip-path-4">
      <rect id="Rectángulo_363" data-name="Rectángulo 363" width="172.13" height="257.829" fill="none"/>
    </clipPath>
    <clipPath id="clip-path-5">
      <rect id="Rectángulo_364" data-name="Rectángulo 364" width="149.36" height="42.611" fill="none"/>
    </clipPath>
    <clipPath id="clip-path-6">
      <rect id="Rectángulo_365" data-name="Rectángulo 365" width="112.33" height="74.858" fill="none"/>
    </clipPath>
    <clipPath id="clip-path-7">
      <rect id="Rectángulo_366" data-name="Rectángulo 366" width="18.816" height="63.938" fill="none"/>
    </clipPath>
    <clipPath id="clip-path-8">
      <rect id="Rectángulo_367" data-name="Rectángulo 367" width="46.925" height="75.891" fill="none"/>
    </clipPath>
    <clipPath id="clip-path-9">
      <rect id="Rectángulo_368" data-name="Rectángulo 368" width="115.385" height="145.123" fill="none"/>
    </clipPath>
    <clipPath id="clip-path-10">
      <rect id="Rectángulo_369" data-name="Rectángulo 369" width="27.195" height="73.947" fill="none"/>
    </clipPath>
    <clipPath id="clip-path-11">
      <rect id="Rectángulo_370" data-name="Rectángulo 370" width="48.454" height="86.692" fill="none"/>
    </clipPath>
    <clipPath id="clip-path-12">
      <rect id="Rectángulo_371" data-name="Rectángulo 371" width="21.751" height="33.708" fill="none"/>
    </clipPath>
    <clipPath id="clip-path-13">
      <rect id="Rectángulo_372" data-name="Rectángulo 372" width="126.577" height="36.904" fill="none"/>
    </clipPath>
  </defs>
  <g id="Grupo_696" data-name="Grupo 696" clip-path="url(#clip-path)">
    <g id="Grupo_695" data-name="Grupo 695">
      <g id="Grupo_694" data-name="Grupo 694" clip-path="url(#clip-path)">
        <path id="Trazado_863" data-name="Trazado 863" d="M2.439,221.027q1.79-5.078,4.02-9.981c1.31-2.877,2.664-6.39,5.573-7.976,2.88-1.57,6.517-.848,7.98,2.306,1.5,3.23.3,6.981-.663,10.2-.169.565-.36,1.122-.544,1.682a1.678,1.678,0,0,1,.969-.715,1.792,1.792,0,0,1,1.269.149c.733-.64,1.485-1.257,2.276-1.826a5.286,5.286,0,0,1,3.416-1.245,3.447,3.447,0,0,1,1.989.791c1.6-1.088,3.9.37,4.254,2.312.031.168.055.347.075.528a4.655,4.655,0,0,1,.247,4.174,2.515,2.515,0,0,1-1.017,1.1,2.075,2.075,0,0,1-.951,1.3,2.6,2.6,0,0,1-1.828,2.447,14,14,0,0,1-6.255,5.448c0,.007-.009.013-.012.019.049.024.1.051.144.075a1.659,1.659,0,0,1,.438-.2,11.788,11.788,0,0,1,8.935.8,6.306,6.306,0,0,1,3.393,6.923c-.8,3.291-4.1,3.707-6.879,4.136l-10.039,1.549c-1.034.16-2.4-.455-2.276-1.761a15.813,15.813,0,0,0-.728-6.548,1.9,1.9,0,0,1,.973-2.184,1.686,1.686,0,0,1-1.432-.5c-1.594-1.66-3.016-3.695-2.789-5.985a1.743,1.743,0,0,1-1.213-1.048,77.834,77.834,0,0,0-8.069-3.718,1.854,1.854,0,0,1-1.253-2.241" transform="translate(284.225 -51.512)" fill="#adacac"/>
        <path id="Trazado_864" data-name="Trazado 864" d="M48.514,213.385a1.721,1.721,0,0,1,.067-.161,4.885,4.885,0,0,1,.37-1.913,3.481,3.481,0,0,1,3-2.175,5.116,5.116,0,0,1,3.383,1.675,18.232,18.232,0,0,1,2.486,2.747q.26.345.5.705c.013-1.186.088-2.37.19-3.516a18.667,18.667,0,0,1,1.423-6.617,6.04,6.04,0,0,1,5.621-3.435,5.681,5.681,0,0,1,1.209.207,2.036,2.036,0,0,1,.843-.633,2.611,2.611,0,0,1,3.447,1.769,13.178,13.178,0,0,1,.174,4.251,30.824,30.824,0,0,1-.029,5.993c-.131,2.951-.341,5.87-.674,8.8a1.437,1.437,0,0,1-1.588,1.331,1.866,1.866,0,0,1-.885.249,13.885,13.885,0,0,0-3.82.525,1.7,1.7,0,0,1-2.088-1.071c-.046.088-.079.184-.128.269a4.28,4.28,0,0,1-1.4,1.46c-.443.283-.974.432-1.4.743-.759.555-1.158,1.433-2.042,1.881-2.758,1.4-4.706-1.785-5.838-3.831-.061-.11-.117-.223-.176-.333a8.58,8.58,0,0,1-2.645-8.925m15.95-8.848c.029.007.057.018.084.027a2.136,2.136,0,0,1,1.615,0c0-.034,0-.067,0-.1a2.2,2.2,0,0,0-1.7.069" transform="translate(215.531 -50.955)" fill="#adacac"/>
        <path id="Trazado_865" data-name="Trazado 865" d="M45.7,238.948a2.831,2.831,0,0,1,3.179,1.482,2.059,2.059,0,0,1,.254,1,1.431,1.431,0,0,1-.25.842,2.8,2.8,0,0,1-.465,1.123,2.561,2.561,0,0,1-2.9.938A2.732,2.732,0,0,1,43.58,241.7a3.032,3.032,0,0,1,2.116-2.756m-.669,3.651c.025.038.051.075.076.111.01.01.084.1.1.113a2.984,2.984,0,0,0,.261.239l.01.008c.023.018.046.035.07.052.052.036.107.07.162.1a1.688,1.688,0,0,0,.606.227c.028.006.059.011.089.016h.019c.062,0,.126.007.189.005a1,1,0,0,0,.3-.04,1.794,1.794,0,0,0,1.2-1.16.714.714,0,0,1-.1-.192c-.007-.016-.011-.033-.016-.049L47.975,242a2.011,2.011,0,0,1-.094-.256c-.007-.022-.03-.089-.041-.124s-.052-.111-.063-.133a2.791,2.791,0,0,1-.112-.274l0,.006c-.019-.034-.034-.071-.051-.105-.026-.051-.056-.1-.087-.152-.015-.028-.071-.1-.083-.124a2.521,2.521,0,0,0-.23-.249l-.09-.077-.041-.029q-.047-.032-.1-.063c-.057-.035-.117-.066-.175-.1l-.021-.011a.162.162,0,0,1-.028-.007c-.063-.02-.126-.041-.191-.057s-.206-.025-.074-.019c-.068,0-.134-.01-.2-.009l-.1,0c-.022.005-.127.022-.15.027-.074.019-.146.043-.218.068l-.023.007a.178.178,0,0,1-.029.018c-.059.032-.119.063-.175.1s-.09.06-.134.091-.068.059-.1.089-.084.081-.123.124c-.015.016-.066.075-.081.092a2.288,2.288,0,0,0-.2.326c-.013.025-.026.052-.038.078l-.005.008v0c-.021.054-.04.11-.056.165s-.032.131-.048.2l-.006.029c0,.022-.007.057-.007.064-.005.067-.007.136-.005.2,0,.019.005.069.007.092a1.843,1.843,0,0,0,.1.37c.01.022.02.043.032.064.03.056.06.112.093.165" transform="translate(241.14 -60.83)" fill="#1c1d1c"/>
        <path id="Trazado_866" data-name="Trazado 866" d="M2.224,209.154a6.432,6.432,0,0,1,6.453-1.214,8.247,8.247,0,0,1,3.256,2.094c.1.1.194.2.291.312a19.221,19.221,0,0,1,1.658-8.075c1.332-2.661,4.131-4.831,7.188-4.561,3.146.277,5.434,3.027,6.1,6.017a14.3,14.3,0,0,1,.241,4.255c1.448-3.129,3.618-5.933,6.916-7.166a7.775,7.775,0,0,1,9.454,2.8c1.837,2.912,1.549,6.357.606,9.532,4.447-3.028,10.474-3.963,13.761,1,2.2,3.32.609,7.336-1.571,10.169a27.846,27.846,0,0,1-4.169,4.3A9.821,9.821,0,0,1,57.4,230.34a7.82,7.82,0,0,1,3.276,6.11,7.267,7.267,0,0,1-3.4,5.963c-2.218,1.533-5.033,1.968-7.634,2.327a36.482,36.482,0,0,1-10.161.3,1.273,1.273,0,0,1-.912-.926,1.259,1.259,0,0,1,0-.705,1.358,1.358,0,0,1,1.259-.973c1.522-.039,3.048.1,4.574.048s3.048-.165,4.561-.361c2.542-.332,5.619-.695,7.588-2.539a4.306,4.306,0,0,0,.535-5.86,6.084,6.084,0,0,0-2.762-2.083,15.342,15.342,0,0,0-3.922-.658,1.174,1.174,0,0,1-.679-.328c-.26.177-.52.354-.783.523a31.537,31.537,0,0,1-10.678,4.335c-1.915.391-2.737-2.587-.81-2.986a29.027,29.027,0,0,0,14.809-8.04c1.754-1.785,4.148-4.378,3.791-7.138-.344-2.644-3.291-3.811-5.6-3.5a11.019,11.019,0,0,0-4.692,1.968c-1.219.834-2.282,1.889-3.485,2.736a38.361,38.361,0,0,1-5.869,9.365c-.812.922-2.359-.282-1.693-1.327a78.914,78.914,0,0,0,5.589-9.731c1.451-3.2,3.127-7.077,1.945-10.623-1.03-3.092-4.148-3.988-7-3-3.06,1.061-4.88,4.138-5.953,7.058-1.465,3.982-2.053,8.226-3.906,12.071a1.287,1.287,0,0,1-2.373-.262,1.053,1.053,0,0,1-.683-1.272c.491-1.341.882-2.722,1.321-4.081.206-.639.377-1.312.629-1.935-.021-2.82.813-5.591.746-8.421-.055-2.328-.973-5.231-3.444-5.954-2.376-.7-4.527,1.3-5.481,3.314-1.18,2.5-1.232,5.568-1.211,8.281a37.746,37.746,0,0,0,.408,5.376q.2,1.3.481,2.588a5.715,5.715,0,0,1,.267,2.744,1.114,1.114,0,0,1-1.856.5,4.642,4.642,0,0,1-1.039-2.507q-.3-1.368-.493-2.755c-.209-1.462-.352-2.933-.415-4.409a19.269,19.269,0,0,1-1.859-1.769,6.418,6.418,0,0,0-2.976-1.615,3.86,3.86,0,0,0-4.639,3.043,9.1,9.1,0,0,0,1.466,7.006A20.575,20.575,0,0,0,9.6,225.36c1.294.976.16,3.138-1.3,2.255-4.182-2.533-7.89-6.827-8.276-11.923a8.19,8.19,0,0,1,2.2-6.537" transform="translate(261.584 -50.346)" fill="#1c1d1c"/>
        <path id="Trazado_867" data-name="Trazado 867" d="M311.824,550.461c.134-2,3.218-2.014,3.082,0a8.113,8.113,0,0,0,.025,1.33,1.459,1.459,0,0,1,2.1.98c.061.314.139.619.228.921a1.545,1.545,0,0,1,2.491.2,6.942,6.942,0,0,1,.5.765,2.558,2.558,0,0,1,1.529.7,2.675,2.675,0,0,1,1.8.721,3.8,3.8,0,0,1,.479-.1c.033,0,.066,0,.1,0a2.638,2.638,0,0,1,1.891-.647,3.078,3.078,0,0,1,.6.094,3.247,3.247,0,0,1,1.815-.116c.03-.019.053-.045.084-.064a2.52,2.52,0,0,1,1.7-.324c.033-.05.064-.1.1-.15a4.4,4.4,0,0,1,2.168-2.012,2.518,2.518,0,0,1,2.516.581c.03.031.053.067.082.1a1.472,1.472,0,0,1,.9-.175c.01-.022.016-.045.026-.067a10.543,10.543,0,0,1,1.65-2.231l1.889-2.266a1.392,1.392,0,0,1,1.091-.507,4.116,4.116,0,0,1,2.075-1.534c-.047-.18-.094-.361-.139-.541a1.238,1.238,0,0,1-.1-.276q-.2-.922-.4-1.845a1.475,1.475,0,0,1,.833-1.722,1.413,1.413,0,0,1,1.8.6c.518,1.2.965,2.422,1.409,3.651a1.824,1.824,0,0,1,1.416.863,4.522,4.522,0,0,1,.394.8,2.081,2.081,0,0,1,1.16,1.16,2.886,2.886,0,0,1-2.016,3.772,4.022,4.022,0,0,1-2.322,1.245,4.412,4.412,0,0,1-2.344,1.685,3.023,3.023,0,0,1-2.218,3.817,6.752,6.752,0,0,1-2.194,1.988,4.35,4.35,0,0,1-2.037.786c-.1.012-.2.016-.3.019s-.213.047-.324.06a1.11,1.11,0,0,1-.792-.2,3.962,3.962,0,0,1-1.154-.531,2.957,2.957,0,0,1-2.526-.109c-.029-.015-.052-.035-.079-.052,0,.04.008.077.005.119a3.287,3.287,0,0,1-.22.986,4.338,4.338,0,0,1-1.452,1.854,4.486,4.486,0,0,1-1.732.782,5.475,5.475,0,0,1-1.117.131,2.943,2.943,0,0,1-1.459-.333,1.473,1.473,0,0,1-.411-.383,4.129,4.129,0,0,1-1.395-.184c-1.934-.616-3.066-2.475-3.77-4.285a5.045,5.045,0,0,1-.184-.587,3.442,3.442,0,0,1-.456-.649c-.04-.018-.077-.043-.116-.064a2.476,2.476,0,0,1-.324.023,2.785,2.785,0,0,1-1.843-.822,1.461,1.461,0,0,1-1.775-.268,10.405,10.405,0,0,1-2.732-7.686" transform="translate(-255.936 -138.075)" fill="#adacac"/>
        <path id="Trazado_868" data-name="Trazado 868" d="M129.017,369.817a16.4,16.4,0,1,0,16.4-16.649,16.525,16.525,0,0,0-16.4,16.649" transform="translate(65.736 -89.942)" fill="#adacac"/>
        <path id="Trazado_869" data-name="Trazado 869" d="M144.8,387.6a18.381,18.381,0,1,0-18.1-18.378A18.262,18.262,0,0,0,144.8,387.6m0-33.3a14.921,14.921,0,1,1-14.694,14.92,14.825,14.825,0,0,1,14.694-14.92" transform="translate(66.354 -89.351)" fill="#1c1d1c"/>
        <path id="Trazado_870" data-name="Trazado 870" d="M140.645,399.748c0,37.462,36.548,78.725,73.781,78.725,36.362,0,66.8-41.263,66.8-78.725s-31.47-67.832-70.289-67.832-70.289,30.37-70.289,67.832" transform="translate(-62.211 -84.53)" fill="#adacac"/>
        <path id="Trazado_871" data-name="Trazado 871" d="M213.81,479.612c17.366,0,34.988-9.457,48.35-25.945,12.618-15.571,20.152-35.949,20.152-54.51,0-38.356-32.3-69.561-71.993-69.561s-71.993,31.205-71.993,69.561c0,18.258,8.743,38.665,23.387,54.592,15.113,16.436,34.1,25.863,52.1,25.863m-3.491-146.557c37.818,0,68.586,29.654,68.586,66.1,0,17.785-7.243,37.342-19.375,52.312-12.712,15.686-29.376,24.684-45.719,24.684-17.055,0-35.136-9.027-49.607-24.765-14.07-15.3-22.471-34.828-22.471-52.231,0-36.449,30.768-66.1,68.586-66.1" transform="translate(-61.595 -83.939)" fill="#1c1d1c"/>
        <path id="Trazado_872" data-name="Trazado 872" d="M185.183,394.181a26.14,26.14,0,0,0,25.091,26.312c.272.007.552.014.831.014a26.325,26.325,0,0,0,0-52.644,25.533,25.533,0,0,0-7.345,1.072,26.28,26.28,0,0,0-18.576,25.246" transform="translate(-50.715 -93.685)" fill="#848585"/>
        <path id="Trazado_873" data-name="Trazado 873" d="M210.735,421.19a27.363,27.363,0,0,0,0-54.72,26.551,26.551,0,0,0-7.635,1.115,27.46,27.46,0,0,0-19.31,26.242,27.041,27.041,0,0,0,26.081,27.349c.289.007.575.014.863.014m0-52.644a25.287,25.287,0,0,1,0,50.568c-.271,0-.542-.007-.807-.013a24.988,24.988,0,0,1-24.093-25.274,25.374,25.374,0,0,1,17.844-24.251,24.555,24.555,0,0,1,7.056-1.03" transform="translate(-50.346 -93.33)" fill="#1c1d1c"/>
        <path id="Trazado_874" data-name="Trazado 874" d="M196.322,394.548a26.14,26.14,0,0,0,25.091,26.311A26.384,26.384,0,0,0,214.9,369.3a26.28,26.28,0,0,0-18.576,25.246" transform="translate(-61.854 -94.051)" fill="#070807"/>
        <path id="Trazado_875" data-name="Trazado 875" d="M301.967,392.892A12.266,12.266,0,0,1,304.233,386c3.612-6.773,10.375-11.731,13.979-14.028a14.026,14.026,0,0,1,2.2-1.315c.133-.073.209-.113.209-.113l.006,0a13.435,13.435,0,0,1,5.649-1.248c7.831,0,14.177,6.726,14.177,15.023a15.7,15.7,0,0,1-1.322,6.3c-.035.087-.062.171-.1.26-.082.186-.177.366-.266.548-.012.022-.021.045-.032.066-4.924,9.811-20.975,13.168-20.975,13.168-1.3.563-3.093.367-4.588.367a11.131,11.131,0,0,1-9.847-6.2,7.751,7.751,0,0,1-1.351-5.945" transform="translate(-239.8 -94.051)" fill="#adacac"/>
        <path id="Trazado_876" data-name="Trazado 876" d="M314.49,406.21a8.634,8.634,0,0,0,3.146-.469c1.815-.4,16.967-4.028,21.992-14.043l.11-.221c.079-.157.157-.314.228-.477.036-.082.068-.164.1-.247a17.438,17.438,0,0,0,1.471-7.02c0-9.238-7.124-16.753-15.88-16.753a15.021,15.021,0,0,0-5.494,1.036l-.072-.045-.867.443-.2.11a15.687,15.687,0,0,0-2.375,1.421c-3.809,2.434-10.69,7.524-14.473,14.541a13.988,13.988,0,0,0-2.521,7.694,9.511,9.511,0,0,0,1.617,7.011,12.818,12.818,0,0,0,11.282,6.984c.288,0,.588.008.893.016.34.009.692.017,1.049.017m11.166-35.77c6.878,0,12.473,5.964,12.473,13.294a13.9,13.9,0,0,1-1.175,5.6c-.041.1-.062.156-.084.214-.063.152-.114.253-.166.353l-.085.171c-4.515,9-19.674,12.281-19.828,12.313l-.322.1a8.172,8.172,0,0,1-2.943.245c-.334-.008-.663-.016-.979-.016a9.44,9.44,0,0,1-8.337-5.272l-.183-.283a6.074,6.074,0,0,1-.986-4.658l.011-.165A10.509,10.509,0,0,1,305,386.426l.119-.192c3.416-6.4,9.854-11.135,13.387-13.387l.092-.063a12.191,12.191,0,0,1,1.929-1.154l.188-.1a11.717,11.717,0,0,1,4.945-1.093" transform="translate(-239.184 -93.46)" fill="#1c1d1c"/>
        <path id="Trazado_877" data-name="Trazado 877" d="M30.621,308.462l-.005,0,.021-.042a9.73,9.73,0,0,1,.794-1.581c5.99-12.267,26.784-60.272,29.251-65.975a17.014,17.014,0,0,1,32.81,6.613,17.41,17.41,0,0,1-3.132,9.994h0c-9.047,12.9-42.921,60.3-42.921,60.3l-.007,0a9.591,9.591,0,0,1-7.828,4.08,9.731,9.731,0,0,1-9.656-9.8,9.9,9.9,0,0,1,.672-3.576" transform="translate(206.782 -58.616)" fill="#adacac"/>
        <path id="Trazado_878" data-name="Trazado 878" d="M38.989,322.98a11.3,11.3,0,0,0,8.255-3.625l.085.045.873-1.21c.338-.474,33.982-47.555,42.93-60.309l.836-1.192-.043-.044a19.12,19.12,0,0,0,2.654-9.763,18.92,18.92,0,0,0-18.754-19.041,18.7,18.7,0,0,0-17.333,11.766c-2.342,5.41-23.138,53.424-29.168,65.794a11.679,11.679,0,0,0-.852,1.7l-.787,1.523.261.133A11.537,11.537,0,0,0,38.989,322.98m7.318-8.035-.872,1.215a7.94,7.94,0,0,1-6.446,3.361,8.024,8.024,0,0,1-7.953-8.074,8.15,8.15,0,0,1,.555-2.945l.05-.13a8.089,8.089,0,0,1,.617-1.207l.084-.152c6.016-12.32,26.921-60.585,29.285-66.048a15.321,15.321,0,0,1,14.2-9.664,15.483,15.483,0,0,1,15.347,15.582,15.644,15.644,0,0,1-2.819,8.995l-.279.4c-8.489,12.083-36.469,51.258-41.763,58.67Z" transform="translate(207.398 -58.025)" fill="#1c1d1c"/>
        <path id="Trazado_879" data-name="Trazado 879" d="M328.7,524.665a16.154,16.154,0,0,1-.873-2.55,145.582,145.582,0,0,1-6.58-48.265l.032-.005c-.012-.214-.032-.426-.032-.642a10.59,10.59,0,0,1,20.876-2.7l.013,0s.014.077.042.218c.052.224.1.449.134.678.953,4.749,5.706,27.158,12.142,35.314a16.09,16.09,0,0,1,1.086,1.221l.005.005h0a16.22,16.22,0,0,1,3.574,10.192,15.854,15.854,0,0,1-30.416,6.542h0l0-.007" transform="translate(-272.611 -117.768)" fill="#adacac"/>
        <path id="Trazado_880" data-name="Trazado 880" d="M342.611,535.4a17.75,17.75,0,0,0,17.594-17.863,18.078,18.078,0,0,0-3.758-11.032l-.089-.271-.281-.192c-.311-.375-.635-.736-.967-1.077-6.182-7.932-10.868-30.127-11.747-34.507-.033-.208-.084-.469-.145-.729l-.342-1.79-.206.033a12.284,12.284,0,0,0-23.745,4.637c0,.132.005.263.013.393l-.011.187a146.972,146.972,0,0,0,6.646,48.817,17.991,17.991,0,0,0,.806,2.423v.009l.15.343A17.608,17.608,0,0,0,342.611,535.4M353.72,508.58a14.582,14.582,0,0,1,3.078,8.958,14.154,14.154,0,0,1-27.121,5.919l-.037-.086a14.459,14.459,0,0,1-.78-2.274l-.032-.113a143.487,143.487,0,0,1-6.545-46.223l.135-.02-.069-1.788c-.008-.114-.017-.227-.017-.343a8.889,8.889,0,0,1,17.524-2.266l.052.206c.046.208.078.373.106.542,1.288,6.422,5.962,27.831,12.492,36.109l.126.142a14.379,14.379,0,0,1,.97,1.09Z" transform="translate(-271.995 -117.176)" fill="#1c1d1c"/>
        <path id="Trazado_881" data-name="Trazado 881" d="M97.352,157.2a31.785,31.785,0,1,0,31.781-32.267A32.027,32.027,0,0,0,97.352,157.2" transform="translate(89.88 -31.817)" fill="#adacac"/>
        <path id="Trazado_882" data-name="Trazado 882" d="M128.517,190.606c18.463,0,33.484-15.251,33.484-34s-15.021-34-33.484-34-33.484,15.251-33.484,34,15.021,34,33.484,34m0-64.535c16.585,0,30.077,13.7,30.077,30.538s-13.493,30.538-30.077,30.538-30.077-13.7-30.077-30.538,13.493-30.538,30.077-30.538" transform="translate(90.495 -31.226)" fill="#1c1d1c"/>
        <path id="Trazado_883" data-name="Trazado 883" d="M152.314,24.957a81.6,81.6,0,0,1,55.251-22.63q2.668-.031,5.3.1A81.43,81.43,0,0,1,232.492,5.87c.007,0,.007.007.014.007q1.748.529,3.461,1.142.419.145.838.311a80.994,80.994,0,0,1,14.174,6.815c82.249,44.591,71.96,154.991,71.851,156.1a90.1,90.1,0,0,1-32.893,66.536,87.241,87.241,0,0,1-55.537,19.9c-35.911,0-66.821-21.717-80.7-52.92q-.848-1.9-1.608-3.853a1.161,1.161,0,0,1-.088-.215,90.515,90.515,0,0,1-5.452-21.911h-.007v-.063a91.132,91.132,0,0,1-.647-10.89c0-.415.007-.83.014-1.245A134.851,134.851,0,0,0,135,124.523c-.681-1.356-2.692-5.908-2.692-5.908a84.779,84.779,0,0,1,20.007-93.658M321.126,170.186l.007-.11a212.514,212.514,0,0,0-5-61.182C309.3,79.317,292.587,39.48,251.811,16.572a152.233,152.233,0,0,1,25.05,21.711A160.836,160.836,0,0,1,290,54.092a172.216,172.216,0,0,1,12.273,19.759,147.43,147.43,0,0,1,8.47,18.777,164.424,164.424,0,0,1,7.06,24.866,144.045,144.045,0,0,1,2.808,23.523,174.69,174.69,0,0,1-.865,26.429c-1.683,15.567-7.141,33.41-13.049,48.223l-.1.27a88.74,88.74,0,0,0,14.528-45.753" transform="translate(-93.493 -0.591)" fill="#adacac"/>
        <path id="Trazado_884" data-name="Trazado 884" d="M150.549,23.1q2.546-2.408,5.247-4.58A83.081,83.081,0,0,1,206.945.006c2.248-.028,4.5.035,6.732.187a83.334,83.334,0,0,1,18.466,3.355l.484.007.2.208c.252.076.511.159.769.249.777.242,1.555.505,2.331.782a83.742,83.742,0,0,1,15.291,7.251,125.931,125.931,0,0,1,46.536,43.615c9.491,14.9,16.585,32.345,21.1,51.855a217.219,217.219,0,0,1,5.084,62.253,91.857,91.857,0,0,1-27.5,62.372c-.156.152-.307.3-.463.443a89.244,89.244,0,0,1-129.765-5.694,91.408,91.408,0,0,1-21.172-44.313.021.021,0,0,0-.007-.014c-.219-1.225-.409-2.449-.579-3.688l-.2-.007v-1.626a93.425,93.425,0,0,1-.648-10.994c0-.387.007-.781.014-1.169a133.807,133.807,0,0,0-10.746-40.4c-.709-1.418-2.63-5.763-2.733-5.992a85.934,85.934,0,0,1-6.289-27.079c-.1-1.522-.17-3.058-.191-4.594a86.5,86.5,0,0,1,26.9-63.914M127.06,86.959a82.821,82.821,0,0,0,6.2,30.359c.021.042,2,4.525,2.657,5.825l.034.077a137.463,137.463,0,0,1,11.06,41.6l.007.1v.111c-.007.4-.014.809-.014,1.21a89.555,89.555,0,0,0,.634,10.683l.006.062c5.281,44.114,42.318,77.378,86.155,77.378a85.706,85.706,0,0,0,48.49-14.91A86.989,86.989,0,0,0,306,215.349,88.733,88.733,0,0,0,320.526,169.6l.007-.11a212.468,212.468,0,0,0-5-61.182C308.7,78.727,291.988,38.889,251.21,15.981c-.538-.3-1.083-.609-1.635-.906l-.068-.034A80.054,80.054,0,0,0,234.8,8.059c-1.049-.373-2.106-.726-3.149-1.044l-.484-.007-.19-.2A79.779,79.779,0,0,0,210.2,3.493c-1.07-.035-2.14-.042-3.217-.028A79.936,79.936,0,0,0,152.88,25.632a82.989,82.989,0,0,0-25.826,60.088c0,.415,0,.824.006,1.239" transform="translate(-92.893 0)" fill="#1c1d1c"/>
        <path id="Trazado_885" data-name="Trazado 885" d="M128.28,21.442a152.178,152.178,0,0,1,25.05,21.711,160.74,160.74,0,0,1,13.145,15.809,172.216,172.216,0,0,1,12.273,19.759A147.7,147.7,0,0,1,187.218,97.5a164.536,164.536,0,0,1,7.059,24.866,143.971,143.971,0,0,1,2.808,23.523,174.7,174.7,0,0,1-.866,26.429c-1.683,15.567-7.141,33.41-13.049,48.223l-.1.27A88.736,88.736,0,0,0,197.6,175.056l.007-.11a212.481,212.481,0,0,0-5-61.182c-6.834-29.577-23.543-69.415-64.321-92.322" transform="translate(30.037 -5.461)" fill="#5ec4df"/>
        <path id="Trazado_886" data-name="Trazado 886" d="M139.092,81.214c.567-.879,1.1-1.781,1.619-2.69A58.358,58.358,0,0,1,151.6,64.852l0,0h0c11.379-10.625,27.355-17.559,45.271-18.3a70.692,70.692,0,0,1,44.861,13.206h0l.042.034c3.9,2.88,10.37,8.184,13.383,11.8a128.211,128.211,0,0,1,34.74,74.944h-.031c.032.41.063.82.08,1.234A31.2,31.2,0,0,1,260.313,180.4a30.47,30.47,0,0,1-9.132-1.005h0a30.306,30.306,0,0,1-5.15-1.894,45.842,45.842,0,0,0-16.659-4.578,54.724,54.724,0,0,0-11.07.426c-12.855,1.795-29.814,9.5-40.082,14.659-1.3.654-2.561,1.377-3.794,2.151a30.551,30.551,0,0,1-5.272,2.636l-.013.007v0a30.449,30.449,0,0,1-9.68,2,31,31,0,0,1-31.413-24.506v0s-19.383-41.87,11.05-89.081" transform="translate(-57.243 -11.839)" fill="#070807"/>
        <path id="Trazado_887" data-name="Trazado 887" d="M109.582,189.777a4.108,4.108,0,1,0,4.108-4.171,4.139,4.139,0,0,0-4.108,4.171" transform="translate(124.018 -47.269)" fill="#e3e1e2"/>
        <path id="Trazado_888" data-name="Trazado 888" d="M113.32,194.63a5.209,5.209,0,1,0-5.13-5.209,5.175,5.175,0,0,0,5.13,5.209m0-8.342a3.133,3.133,0,1,1-3.085,3.133,3.113,3.113,0,0,1,3.085-3.133" transform="translate(124.388 -46.914)" fill="#1c1d1c"/>
        <path id="Trazado_889" data-name="Trazado 889" d="M257.724,171.115c1.045,10.052,6.571,17.7,12.343,17.083s9.6-9.268,8.561-19.321-6.57-17.7-12.342-17.083-9.606,9.269-8.562,19.321" transform="translate(-145.608 -38.649)" fill="#e2483a"/>
        <path id="Trazado_890" data-name="Trazado 890" d="M155.234,162.476c1.667,8.127,6.545,13.97,10.895,13.05s6.525-8.254,4.857-16.381-6.544-13.97-10.895-13.05-6.525,8.254-4.858,16.381" transform="translate(37.168 -37.182)" fill="#e2483a"/>
        <g id="Grupo_663" data-name="Grupo 663" transform="translate(58.821 1.729)" opacity="0.2">
          <g id="Grupo_662" data-name="Grupo 662">
            <g id="Grupo_661" data-name="Grupo 661" clip-path="url(#clip-path-3)">
              <path id="Trazado_891" data-name="Trazado 891" d="M244.908,24.958c10.153,8.655,27.285,12.378,45.329,8.565,18.174-3.84,32.5-14.321,38.324-26.505q-1.717-.613-3.462-1.142c-.007,0-.007-.007-.013-.007a81.526,81.526,0,0,0-80.178,19.089" transform="translate(-244.908 -2.32)" fill="#050605"/>
            </g>
          </g>
        </g>
        <path id="Trazado_892" data-name="Trazado 892" d="M112.3,129.373a37.132,37.132,0,0,1,3.251,7.379,78.022,78.022,0,0,1,2.43,8.067,81.541,81.541,0,0,1,2.306,16.235,76.916,76.916,0,0,1-.234,9.523c-.077.873-1.42.891-1.357,0a85.454,85.454,0,0,0-3.824-32.341c-.464-1.433-.976-2.85-1.5-4.261-.542-1.453-1.207-2.864-1.666-4.345a.329.329,0,0,1,.6-.256" transform="translate(119.94 -32.909)" fill="#1c1d1c"/>
        <path id="Trazado_893" data-name="Trazado 893" d="M115.664,203.819c.426-1.034.945-2.023,1.347-3.071q.291-.758.535-1.532c.175-.555.308-1.121.527-1.658a.617.617,0,0,1,.666-.442.608.608,0,0,1,.526.605,13.4,13.4,0,0,1-.9,3.407c-.2.567-.432,1.125-.679,1.674a11.9,11.9,0,0,1-.772,1.553.686.686,0,0,1-1.252-.536" transform="translate(118.112 -50.198)" fill="#1c1d1c"/>
        <path id="Trazado_894" data-name="Trazado 894" d="M241.872,27.174a58.417,58.417,0,0,0,8.962,3.188c3.1.7,6.251,1.254,9.383,1.761a75.247,75.247,0,0,0,18.731.7,73.49,73.49,0,0,0,33.069-11.439,78.517,78.517,0,0,0,7.911-5.76c2.541-2.123,4.936-4.4,7.442-6.565.764-.658,2.157.21,1.492,1.169-3.449,4.981-8.322,9-13.206,12.462a73.175,73.175,0,0,1-13.465,7.466c.481.35.943.722,1.381,1.076a21.687,21.687,0,0,1,2.917,2.842,23.751,23.751,0,0,1,2.356,3.294,14.088,14.088,0,0,1,1.639,3.674.353.353,0,0,1-.642.275c-.628-1.11-1.16-2.262-1.838-3.347a22.216,22.216,0,0,0-2.321-3.077,23.92,23.92,0,0,0-2.7-2.562c-.509-.413-1.04-.8-1.586-1.161-.216-.144-.445-.274-.672-.4-.33.135-.659.274-.99.4a74.644,74.644,0,0,1-37.617,4.258,42.615,42.615,0,0,1-10.551-2.581c-3.419-1.441-6.994-2.506-10.313-4.19-.8-.4-.232-1.825.615-1.482" transform="translate(-183.602 -2.249)" fill="#1c1d1c"/>
        <g id="Grupo_666" data-name="Grupo 666" transform="translate(30.951)" opacity="0.22">
          <g id="Grupo_665" data-name="Grupo 665">
            <g id="Grupo_664" data-name="Grupo 664" clip-path="url(#clip-path-4)">
              <path id="Trazado_895" data-name="Trazado 895" d="M162.348,91.609a85.937,85.937,0,0,0,6.29,27.079c.1.229,2.024,4.573,2.732,5.992a133.81,133.81,0,0,1,10.746,40.4c-.007.388-.014.782-.014,1.169a93.566,93.566,0,0,0,.647,10.994v1.626l.2.007c.17,1.239.361,2.463.579,3.688a.022.022,0,0,1,.007.014c2.058,5.521,4.129,11.076,6.371,16.535a1.219,1.219,0,0,0,.089.215c.525,1.294,1.056,2.574,1.608,3.853,1.874,4.366,3.884,8.662,6.092,12.827a77.686,77.686,0,0,0,7.011,10.883,89.245,89.245,0,0,0,129.766,5.694,8.962,8.962,0,0,0-1.751.823q-2.4,1.473-4.886,2.788-2.075,1.1-4.211,2.09a23.112,23.112,0,0,1-2.834,1.176c-.082.034-.178.069-.273.1-1.683.63-3.386,1.2-5.1,1.716a82.042,82.042,0,0,1-9.459,2.165c-.156.028-1.356.215-1.846.3-.429.055-1.254.159-1.37.165q-2.432.271-4.866.408a94.839,94.839,0,0,1-9.819.048c-1.833-.09-3.653-.221-5.479-.394-.913-.09-1.819-.187-2.732-.3-.137-.014-.232-.028-.32-.035-.068-.013-.137-.02-.225-.034a98.4,98.4,0,0,1-19.216-4.836,103.48,103.48,0,0,1-15.305-6.586,92.064,92.064,0,0,1-8.272-4.871c-1.254-.83-2.481-1.695-3.693-2.587-.17-.118-.279-.2-.361-.256-.041-.034-.068-.062-.116-.1-.436-.353-.872-.713-1.294-1.079a53.117,53.117,0,0,1-11.326-12.848,91.236,91.236,0,0,1-4.8-8.752c-.689-1.412-1.349-2.844-1.99-4.283-.32-.72-.634-1.446-.947-2.173-.041-.083-.457-1.093-.457-1.093C201.135,168.9,191,142.765,186.341,115.727c-1.908-11.1-2.671-27.031-.62-38a84.864,84.864,0,0,1,2.61-10.316c.422-1.335.9-2.65,1.383-3.971.082-.228.15-.408.2-.56.231-.54.463-1.079.715-1.612a87.83,87.83,0,0,1,8.716-14.854c.245-.346.708-.947.831-1.114.307-.388.607-.775.921-1.163q1.328-1.629,2.705-3.2,2.769-3.175,5.751-6.164c4.007-4.034,8.272-7.8,12.648-11.423q1.952-1.619,3.952-3.2c.457-.359,1.935-1.508,2.446-1.916q3.107-2.408,6.263-4.753c4.573-3.39,9.2-6.7,13.84-9.984.17-.124.334-.242.5-.36a12.281,12.281,0,0,0,1.554-1.294A11.52,11.52,0,0,0,252.181.193c-2.235-.152-4.484-.215-6.732-.187A83.083,83.083,0,0,0,194.3,18.521a114.587,114.587,0,0,0-19.55,24.8c-8.606,14.965-12.129,31.494-12.4,48.285" transform="translate(-162.348 0)" fill="#1c1d1c"/>
            </g>
          </g>
        </g>
        <path id="Trazado_896" data-name="Trazado 896" d="M353.454,195c3.471,20.034,21.934,33.479,41.24,30.031s21.861-20.647,18.391-40.68-11.654-35.315-30.959-31.868S349.983,174.967,353.454,195" transform="translate(-351.187 -38.71)" fill="#adacac"/>
        <path id="Trazado_897" data-name="Trazado 897" d="M387.966,226.714a36.357,36.357,0,0,0,6.395-.569c9.6-1.714,16-6.838,19.041-15.228,2.5-6.9,2.737-15.884.733-27.456s-5.248-19.932-9.916-25.554c-5.674-6.834-13.416-9.431-23.015-7.718-20.2,3.608-33.682,23.579-30.054,44.52a38.8,38.8,0,0,0,15.366,24.927,36.3,36.3,0,0,0,21.452,7.077m-1.209-73.582a18.356,18.356,0,0,1,14.856,7.005c4.27,5.143,7.268,12.969,9.166,23.924s1.71,19.349-.576,25.663c-2.624,7.251-8,11.508-16.432,13.013a32.8,32.8,0,0,1-25.27-5.912,35.353,35.353,0,0,1-14-22.715l-1.677.3,1.677-.3c-3.3-19.062,8.94-37.236,27.289-40.513a28.273,28.273,0,0,1,4.965-.466" transform="translate(-350.559 -38.119)" fill="#1c1d1c"/>
        <path id="Trazado_898" data-name="Trazado 898" d="M375.663,229.214c0,3.951,3.855,7.154,8.612,7.154s8.612-3.2,8.612-7.154-3.855-7.154-8.612-7.154-8.612,3.2-8.612,7.154" transform="translate(-346.399 -56.553)" fill="#e3e1e2"/>
        <path id="Trazado_899" data-name="Trazado 899" d="M383.9,237.051c5.313,0,9.634-3.674,9.634-8.192s-4.322-8.192-9.634-8.192-9.634,3.675-9.634,8.192,4.322,8.192,9.634,8.192m0-14.308c4.185,0,7.591,2.744,7.591,6.116s-3.405,6.116-7.591,6.116-7.59-2.744-7.59-6.116,3.405-6.116,7.59-6.116" transform="translate(-346.028 -56.198)" fill="#1c1d1c"/>
        <path id="Trazado_900" data-name="Trazado 900" d="M389.493,155.256a27.544,27.544,0,0,1,1.634,4.51q.744,2.339,1.408,4.705c.9,3.2,1.66,6.451,2.279,9.721a133.648,133.648,0,0,1,2.326,19.636c.144,3.712.137,7.429.02,11.14a.91.91,0,0,1-1.82,0,150.844,150.844,0,0,0-4.426-38.514c-.429-1.749-.868-3.5-1.35-5.231a52.921,52.921,0,0,1-1.5-5.355c-.138-.829.981-1.465,1.43-.612" transform="translate(-359.854 -39.436)" fill="#1c1d1c"/>
        <path id="Trazado_901" data-name="Trazado 901" d="M385.636,244.954a22.638,22.638,0,0,1,.093-2.861.744.744,0,0,1,1.431,0,22.8,22.8,0,0,1,.09,2.861c.012.923,0,1.848,0,2.771a.807.807,0,1,1-1.614,0c0-.923-.012-1.848,0-2.771" transform="translate(-348.083 -61.517)" fill="#1c1d1c"/>
        <path id="Trazado_902" data-name="Trazado 902" d="M409.754,172.11a21.785,21.785,0,0,1,8.94-7.956c.3-.144.565.288.266.462a23.935,23.935,0,0,0-8.253,8.059,23.492,23.492,0,0,0-2.428,5.21,28.3,28.3,0,0,0-1.073,5.779.559.559,0,0,1-1.118,0,21.871,21.871,0,0,1,3.666-11.555" transform="translate(-394.937 -41.798)" fill="#1c1d1c"/>
        <path id="Trazado_903" data-name="Trazado 903" d="M295.3,26.133a1.892,1.892,0,0,1,1.57.274c.662.335,1.33.659,2,.977q1.843.874,3.742,1.616a59.454,59.454,0,0,0,7.926,2.469,65.871,65.871,0,0,0,16.3,1.678,66.939,66.939,0,0,0,9.531-.881c.03,0,.043.039.013.047a58.9,58.9,0,0,1-33.23-1.354q-2.321-.761-4.578-1.708c-.712-.3-1.418-.61-2.116-.941s-1.365-.573-1.606-1.378a.664.664,0,0,1,.446-.8" transform="translate(-230.581 -6.635)" fill="#1c1d1c"/>
        <path id="Trazado_904" data-name="Trazado 904" d="M290.176,32.6a.4.4,0,0,1,.062-.119l.011-.031c.015-.038.031-.075.047-.113a.347.347,0,0,1,.119-.132.235.235,0,0,1,.1-.06.346.346,0,0,1,.178-.041l.123.017.111.048a.35.35,0,0,1,.13.121.355.355,0,0,1,.083.16c0,.009.007.019.01.028a.365.365,0,0,1,.035.055.568.568,0,0,1-.112.6.408.408,0,0,1-.173.113.412.412,0,0,1-.208.047l-.143-.019a.534.534,0,0,1-.237-.141l-.084-.111a.549.549,0,0,1-.073-.276c.007-.048.013-.1.019-.145" transform="translate(-181.976 -8.177)" fill="#1c1d1c"/>
        <path id="Trazado_905" data-name="Trazado 905" d="M230.924,243.043a5.145,5.145,0,0,1,2.6-1.719,9.964,9.964,0,0,1,3.054-.648,8.28,8.28,0,0,1,5.745,1.663c.286.229-.024.718-.349.609a13.433,13.433,0,0,0-4.9-.762,15.081,15.081,0,0,0,3.658,6.428c.072.074.15.143.224.215a1.1,1.1,0,0,1,.459.443,19.714,19.714,0,0,0,5.854,3.674,27.657,27.657,0,0,0,6.057,1.681c.233-.069.465-.142.7-.194a.423.423,0,0,1,.473.357c.7.083,1.4.145,2.115.179,3.383.159,6.775-.291,10.144.011a.13.13,0,0,1,.034.254,32.6,32.6,0,0,1-8.278,1.073,43.414,43.414,0,0,1-5.754-.2c-.842.473-1.719.89-2.581,1.324-1.413.71-2.819,1.436-4.246,2.117-.188.089-.38.177-.573.266a3.773,3.773,0,0,1-2.478.894,4.541,4.541,0,0,1-4.359-.932c-1.739-1.579-2.182-4.131-2.472-6.359a42.985,42.985,0,0,1-.359-8.936,12.092,12.092,0,0,1-.51-2.008,10.781,10.781,0,0,0-1.092.337c-.857.318-1.59.9-2.466,1.158a.637.637,0,0,1-.7-.929" transform="translate(-114.079 -61.289)" fill="#1c1d1c"/>
        <path id="Trazado_906" data-name="Trazado 906" d="M211.2,310.062a126.5,126.5,0,0,0,7.29-17.987,70.661,70.661,0,0,0,2.787-9.127c.6-3.179,1.421-6.311,2.029-9.491a151.982,151.982,0,0,0,2.161-38.374c-.237-3.618-.58-7.233-1.06-10.826-.474-3.546-1.147-7.073-1.528-10.63-.042-.389.532-.426.643-.088a59.1,59.1,0,0,1,2.055,9.454c.489,3.208.888,6.434,1.146,9.671a137.353,137.353,0,0,1,.218,19.548,167.067,167.067,0,0,1-2.353,19.095,184.2,184.2,0,0,1-4.73,18.951,149.766,149.766,0,0,1-8.023,20.18c-.2.43-.856.053-.634-.376" transform="translate(-59.932 -54.324)" fill="#1c1d1c"/>
        <path id="Trazado_907" data-name="Trazado 907" d="M322.4,45.583a.024.024,0,0,1,0,.048.024.024,0,0,1,0-.048" transform="translate(-236.824 -11.609)" fill="#1c1d1c"/>
        <path id="Trazado_908" data-name="Trazado 908" d="M323.515,108.111a133.541,133.541,0,0,0,20.392-1.733c2.847-.466,5.7-1.3,6.884-4.26,1.043-2.6.947-5.621,1.266-8.375a92.771,92.771,0,0,1,10.484-33.471,88,88,0,0,1,5.125-8.341,50.236,50.236,0,0,1,6.221-7.728c.358-.344,1.029.117.714.56-1.739,2.459-3.664,4.777-5.382,7.254s-3.318,5.056-4.8,7.695a94.743,94.743,0,0,0-11.264,34.462c-.309,2.73-.258,5.663-1.266,8.253a7.784,7.784,0,0,1-5.667,4.672,69.069,69.069,0,0,1-10.982,1.743q-5.846.588-11.726.632a.682.682,0,0,1,0-1.362" transform="translate(-289.437 -11.227)" fill="#1c1d1c"/>
        <path id="Trazado_909" data-name="Trazado 909" d="M381.772,121.472a2.394,2.394,0,0,1,2.181-1.733,2.633,2.633,0,0,1,2.594,1.462.553.553,0,0,1-.082.61c.051.082.1.166.152.249.028.045.06.086.085.133.015.031.029.069.041.1l.02.048a1.469,1.469,0,0,1-.018,1.039,2.511,2.511,0,0,1-1.4,1.409,2.96,2.96,0,0,1-1.612.165,2.473,2.473,0,0,1-1.274-.742,2.959,2.959,0,0,1-.691-2.74m1.061.932c0,.022.008.052.01.066.008.042.018.083.027.124.021.082.046.163.074.243.007.017.026.06.032.073.015.033.03.065.047.1a2.147,2.147,0,0,0,.13.215c.018.026.107.131.008.016.027.031.053.064.08.095.056.062.117.117.177.174h0a1.314,1.314,0,0,0,.115.075c.036.021.073.038.11.057h.009c.083.025.164.048.248.069l.012,0h.014c.047,0,.094,0,.142,0s.09,0,.134-.007l.068-.013c.046-.01.092-.022.137-.037l.09-.029.007,0c.033-.019.075-.05.086-.057.026-.018.053-.036.079-.055l-.07.057c.046,0,.287-.237.352-.279l.023-.02c.048-.042.1-.087.14-.134s.066-.072.1-.108l.024-.029.006-.008c.025-.041.052-.082.078-.122a1.325,1.325,0,0,1,.124-.17c.022-.038.164-.239.178-.26a1.721,1.721,0,0,1,.211-.257c.023-.032.046-.066.071-.1,0,0,.029-.034.041-.046a.489.489,0,0,0,.037-.092.439.439,0,0,1-.3-.233,1.772,1.772,0,0,0-.12-.22c-.006-.01-.035-.051-.043-.063s-.034-.042-.051-.061c-.055-.061-.115-.115-.175-.171l-.011-.011c-.005,0,0,0-.013-.007-.045-.03-.089-.062-.136-.09s-.124-.068-.187-.1l-.057-.025-.117-.04c-.066-.02-.133-.038-.2-.053l-.122-.023c.148.03-.03,0-.062,0a2.276,2.276,0,0,0-.247-.005c-.042,0-.083,0-.124.007l-.051.008c-.069.013-.137.026-.2.045-.04.011-.079.024-.117.037-.02.007-.085.036-.1.042-.057.028-.115.057-.169.091-.031.019-.061.04-.091.061-.057.057-.117.107-.171.167-.01.01-.035.045-.047.06-.021.031-.042.063-.062.1s-.041.072-.059.11c-.005.011-.014.034-.021.052-.023.066-.046.131-.062.2-.01.04-.016.081-.026.122l0,.008v0c-.007.1-.013.2-.009.294,0,.053.007.105.012.157" transform="translate(-344.775 -30.492)" fill="#1c1d1c"/>
        <path id="Trazado_910" data-name="Trazado 910" d="M381.781,123.229v0c.01.025.018.045,0,0" transform="translate(-339.793 -31.382)" fill="#1c1d1c"/>
        <path id="Trazado_911" data-name="Trazado 911" d="M381.807,123.2l0,.01c-.012-.029-.026-.063,0-.01" transform="translate(-339.824 -31.37)" fill="#1c1d1c"/>
        <path id="Trazado_912" data-name="Trazado 912" d="M258.614,272.574a11.113,11.113,0,0,1,3.314,1.257,17.89,17.89,0,0,0,3.748,1.253,9.035,9.035,0,0,0,6.478-1.036c.415-.264.916.367.532.7a8.331,8.331,0,0,1-6.748,1.772,15.977,15.977,0,0,1-3.974-1.122,9.44,9.44,0,0,1-3.636-2.118c-.207-.246-.094-.738.288-.706" transform="translate(-140.123 -69.417)" fill="#1c1d1c"/>
        <g id="Grupo_669" data-name="Grupo 669" transform="translate(75.043 144.46)" opacity="0.22">
          <g id="Grupo_668" data-name="Grupo 668">
            <g id="Grupo_667" data-name="Grupo 667" clip-path="url(#clip-path-5)">
              <path id="Trazado_913" data-name="Trazado 913" d="M133.332,207.724c.587-11.012,16.124-13.784,19.278-2.649.341,1.2.746,2.41,1.02,3.631.139.388.225.642.266.779.18.37.354.742.556,1.1.268.476.562.935.865,1.389l.3.36c.261.259,2.3,1.993,1.885,1.787.547.36,1.106.7,1.677,1.013-.874-.523,1.777.645,2.271.751a12.981,12.981,0,0,0,5.879-.471c5.346-1.447,9.749-4.306,14.851-7.3a147.955,147.955,0,0,1,18.093-9.265c12.845-5.345,26.437-6.322,39.634-1.666,5.283,1.863,11.5,4.906,16.611,5.1q1.244.063,2.488,0,2.233-.171.512-.054a18.261,18.261,0,0,0,1.868-.517q-1.259.659.316-.139a16.079,16.079,0,0,0,1.4-.849c.114-.106.265-.244.462-.423l.383-.426a16.37,16.37,0,0,0,.842-1.455c5.131-9.406,20.838-3.081,17.369,7.435-4.154,12.591-17.205,17.863-29.45,16.236-11.593-1.54-20.511-6.266-31.978-5.181a77.489,77.489,0,0,0-30.509,10.11c-10.489,6.158-22.22,11.636-34.594,8.513-11.651-2.941-22.984-15.06-22.3-27.8" transform="translate(-133.303 -193.821)" fill="#1c1d1c"/>
            </g>
          </g>
        </g>
        <path id="Trazado_914" data-name="Trazado 914" d="M160.406,152.065a15.945,15.945,0,0,1,2.548,6.7,26.423,26.423,0,0,1,.432,3.54,11.1,11.1,0,0,1-.139,3.485.264.264,0,0,1-.508,0,30.158,30.158,0,0,1-.333-3.242,34.3,34.3,0,0,0-.648-3.575c-.529-2.255-1.464-4.375-2.024-6.617a.37.37,0,0,1,.672-.288" transform="translate(41.556 -38.685)" fill="#fff"/>
        <path id="Trazado_915" data-name="Trazado 915" d="M263.276,158.546a8.061,8.061,0,0,1,1.745,2.761,27.389,27.389,0,0,1,1.178,3.308,27.954,27.954,0,0,1,.766,3.3,15.748,15.748,0,0,1,.322,3.452.569.569,0,0,1-1.114.153c-.339-1.063-.527-2.192-.808-3.274-.275-1.055-.577-2.109-.908-3.147s-.727-2.056-1.106-3.08a12.68,12.68,0,0,1-.921-3.121c-.043-.469.553-.616.845-.356" transform="translate(-137.687 -40.345)" fill="#fff"/>
        <path id="Trazado_916" data-name="Trazado 916" d="M270.116,138.054a.289.289,0,0,1,.554,0,35.593,35.593,0,0,0,1.1,4.386,11.884,11.884,0,0,0,2.349,3.855,11.592,11.592,0,0,0,8.11,3.52.577.577,0,0,1,0,1.152,11.588,11.588,0,0,1-11.889-7.822,7.947,7.947,0,0,1-.222-5.09" transform="translate(-158.564 -35.106)" fill="#e2483a"/>
        <path id="Trazado_917" data-name="Trazado 917" d="M274.584,148.844a.584.584,0,0,1,.857-.354,4.385,4.385,0,0,1,1.015,1.465,11.851,11.851,0,0,0,1.024,1.459,10.287,10.287,0,0,0,2.838,2.443,10.578,10.578,0,0,0,3.784,1.3,12.64,12.64,0,0,0,2.008.086,9.409,9.409,0,0,1,2.019-.064.32.32,0,0,1,.137.528,3.848,3.848,0,0,1-2,.711,9.5,9.5,0,0,1-2.234.081,10.875,10.875,0,0,1-4.4-1.26,11.419,11.419,0,0,1-3.226-2.6,10.431,10.431,0,0,1-1.245-1.805,3.229,3.229,0,0,1-.581-1.993" transform="translate(-167.647 -37.795)" fill="#e2483a"/>
        <path id="Trazado_918" data-name="Trazado 918" d="M278.29,160.286a6.663,6.663,0,0,1,2.838.549,13.384,13.384,0,0,0,2.936.488,17.6,17.6,0,0,0,5.989-.943c.509-.159.741.549.344.83a10.659,10.659,0,0,1-6.334,1.769,13.136,13.136,0,0,1-3.292-.461c-.962-.273-2.262-.711-2.7-1.695a.372.372,0,0,1,.215-.536" transform="translate(-172.443 -40.81)" fill="#e2483a"/>
        <path id="Trazado_919" data-name="Trazado 919" d="M161.274,144.784a5.623,5.623,0,0,1,1.247-1.013,10.6,10.6,0,0,0,1.145-1.011,10.481,10.481,0,0,0,1.794-2.472,11.838,11.838,0,0,0,.967-2.821A11.316,11.316,0,0,0,166.7,136a11.68,11.68,0,0,1,.171-1.661.563.563,0,0,1,1.022-.136,5.889,5.889,0,0,1,.512,3.454,9.752,9.752,0,0,1-1.155,3.6,10.341,10.341,0,0,1-2.161,2.835,10.128,10.128,0,0,1-1.441,1.1,3.543,3.543,0,0,1-1.754.681c-.488-.03-.962-.616-.618-1.094" transform="translate(35.505 -34.111)" fill="#e2483a"/>
        <path id="Trazado_920" data-name="Trazado 920" d="M157.379,148.231a8.8,8.8,0,0,0,1.164.01,3.429,3.429,0,0,0,1.022-.164c.192-.051.385-.1.573-.158.079-.026.157-.055.234-.086.012-.007.17-.078.173-.078a4.813,4.813,0,0,0,.515-.3c.071-.048.142-.1.21-.151.018-.018.136-.121.136-.12a5.333,5.333,0,0,0,.407-.423c.065-.074.128-.148.19-.223.027-.033.037-.043.043-.049s.013-.025.039-.064a8.1,8.1,0,0,0,.577-1.023c.092-.206.235-.625.344-.936a2.591,2.591,0,0,0,.1-.529c.026-.212.1-.412.142-.621a.434.434,0,0,1,.788-.1,4,4,0,0,1,.258,2.89,5.141,5.141,0,0,1-1.529,2.533,5.578,5.578,0,0,1-2.682,1.354,5.14,5.14,0,0,1-1.542.015,4.179,4.179,0,0,1-1.5-.522c-.551-.3-.332-1.325.335-1.254" transform="translate(42.757 -36.419)" fill="#e2483a"/>
        <path id="Trazado_921" data-name="Trazado 921" d="M152.778,154.265a.8.8,0,0,1,.74-.572c.451-.026.9-.027,1.354-.066.044,0,.41-.043.161-.013.173-.021.345-.045.52-.061l.036,0,.034-.007c.112-.02.223-.038.335-.061.446-.092.871-.257,1.318-.338-.1.019.525-.078.256-.025a1.264,1.264,0,0,1,.626-.043.864.864,0,0,1,.643.815.935.935,0,0,1-.259.662,2.372,2.372,0,0,1-.247.186c-.088.063-.095.063-.019,0a3.719,3.719,0,0,1-.623.407,5.75,5.75,0,0,1-1.679.4,5.273,5.273,0,0,1-1.273.017,7.123,7.123,0,0,1-.832-.124,3.981,3.981,0,0,1-.738-.291.786.786,0,0,1-.353-.88" transform="translate(51.326 -38.978)" fill="#e2483a"/>
        <g id="Grupo_672" data-name="Grupo 672" transform="translate(106.438 46.373)" opacity="0.57">
          <g id="Grupo_671" data-name="Grupo 671">
            <g id="Grupo_670" data-name="Grupo 670" clip-path="url(#clip-path-6)">
              <path id="Trazado_922" data-name="Trazado 922" d="M141.407,71.075c.308-.18.622-.346.932-.518a.5.5,0,0,1,.409-.514l.462-.092a.477.477,0,0,1,.225-.5c.567-.355,1.156-.679,1.758-.985a1.872,1.872,0,0,1,.471-.272c.121-.047.247-.082.368-.127,1.376-.645,2.8-1.2,4.209-1.7a61.831,61.831,0,0,1,7.235-1.981,1.518,1.518,0,0,1,.93-.268c.088,0,.175.01.264.012A88.18,88.18,0,0,1,172.508,62.3a74.187,74.187,0,0,1,29.785,4.759,76.065,76.065,0,0,1,24.859,15.413,78.107,78.107,0,0,1,16.874,22.382,95.875,95.875,0,0,1,6.281,16.054,1.48,1.48,0,0,1,.054.139c.02.081.037.163.057.244q1.033,3.673,1.713,7.432.547,2.445,1.092,4.891a1.435,1.435,0,0,1,.035.3,1.563,1.563,0,0,1-1.323,1.965c-3.7.144-7.4.038-11.1.2s-7.39.495-11.065.985a1.742,1.742,0,0,1-1.672-1.292A97.089,97.089,0,0,0,207.713,99.01a93.772,93.772,0,0,0-31.041-23.362,94.152,94.152,0,0,0-21.236-3.226c-2.223-.1-4.448-.186-6.673-.147a44.362,44.362,0,0,0-6.7.38c-.9.155-1.55-1.061-.656-1.581" transform="translate(-140.979 -62.218)" fill="#fff"/>
            </g>
          </g>
        </g>
        <path id="Trazado_923" data-name="Trazado 923" d="M234.208,329.629a2.7,2.7,0,0,1,2.606.549,2.142,2.142,0,0,1,.317.388c.357.037.6.435.662.766a2.676,2.676,0,0,1-.2,1.684,3.027,3.027,0,0,1-2.42,1.64,2.322,2.322,0,0,1-1.388-.4,2.939,2.939,0,0,1-1.26-2.522,2.336,2.336,0,0,1,1.688-2.1m.446,4.259a1.428,1.428,0,0,0,1.187-.221,1.581,1.581,0,0,0,.374-.423,2.63,2.63,0,0,0,.164-.3c.025-.052.047-.105.07-.157l.031-.069.007-.02a5.1,5.1,0,0,0,.154-.657s.007-.06.01-.1c0-.056,0-.112,0-.168s-.007-.1-.009-.147c-.007-.031-.013-.063-.019-.095a2.32,2.32,0,0,1-.037-.435.605.605,0,0,1,.055-.23,2.1,2.1,0,0,0-2.066-.654,1.685,1.685,0,0,0-1.383,1.772,2.142,2.142,0,0,0,1.459,1.9" transform="translate(-86.276 -83.916)" fill="#1c1d1c"/>
        <g id="Grupo_675" data-name="Grupo 675" transform="translate(221.19 92.561)" opacity="0.22">
          <g id="Grupo_674" data-name="Grupo 674" transform="translate(0)">
            <g id="Grupo_673" data-name="Grupo 673" clip-path="url(#clip-path-7)">
              <path id="Trazado_924" data-name="Trazado 924" d="M118.944,125.137a3.638,3.638,0,0,1,4.193,1.7c4.613,8.263,6.655,18.515,7.428,27.885.763,9.255.206,20.112-3.284,28.8-.046.116-.106.211-.159.318-.114.621-.238,1.239-.374,1.85-.86,3.849-6.418,2.815-6.567-.9-.381-9.494.219-18.821-1.052-28.307a130.632,130.632,0,0,0-6.809-27.247c-1.531-4.21,3.807-6.444,6.625-4.1" transform="translate(-112.048 -124.189)" fill="#1c1d1c"/>
            </g>
          </g>
        </g>
        <g id="Grupo_678" data-name="Grupo 678" transform="translate(2.436 111.304)" opacity="0.22">
          <g id="Grupo_677" data-name="Grupo 677" transform="translate(0)">
            <g id="Grupo_676" data-name="Grupo 676" clip-path="url(#clip-path-8)">
              <path id="Trazado_925" data-name="Trazado 925" d="M373.178,178.412c2.958-9.15,9.967-18.259,17.672-23.824,7.226-5.219,18.886-7.524,26.7-2.305,2.249,1.5.886,5.69-1.937,4.663a18.807,18.807,0,0,0-10.194-.967,116.935,116.935,0,0,1,3.953,21.719,112.3,112.3,0,0,1,.318,12.884c-.09,4.3.264,8.685-.578,12.923-.577,2.9-4.666,2.011-4.841-.665-.266-4.069.385-8.173.175-12.258-.209-4.068-.7-8.193-1.147-12.243a197.356,197.356,0,0,0-3.542-20.254,29.691,29.691,0,0,0-5.769,4.232c-5.573,5.131-11.141,12.533-12.912,20.063-3.8,16.162,9.4,30.669,22.227,37.909,3.09,1.744.373,6.017-2.7,4.686-8.922-3.868-16.927-9.075-22.606-17.33-5.712-8.3-7.967-19.49-4.819-29.232" transform="translate(-371.75 -149.336)" fill="#1c1d1c"/>
            </g>
          </g>
        </g>
        <path id="Trazado_926" data-name="Trazado 926" d="M222.333,343.367c1.94,2.176,3.077,5.2,4.063,7.93a41.671,41.671,0,0,1,2.107,8.953.578.578,0,0,1-.281.5.393.393,0,0,1-.438.058.573.573,0,0,1-.4-.4,52.352,52.352,0,0,0-2.086-8.644,44.739,44.739,0,0,0-1.641-4.216c-.589-1.315-1.25-2.58-1.713-3.948a.233.233,0,0,1,.387-.229" transform="translate(-69.168 -87.429)" fill="#1c1d1c"/>
        <path id="Trazado_927" data-name="Trazado 927" d="M163.8,477.328a50.007,50.007,0,0,1,4.245,2.813q2.165,1.481,4.445,2.775a67.521,67.521,0,0,0,9.462,4.459,78.967,78.967,0,0,0,19.944,4.658,83.5,83.5,0,0,0,22.244-.789c0-.013,0-.023,0-.036a196.916,196.916,0,0,0,5.029-41.314q.046-2.919.005-5.837c-.015-1-.024-2-.034-3a7.523,7.523,0,0,1,.253-2.721c.052-.146.287-.221.365-.048.647,1.43.513,3.223.55,4.77.042,1.778.046,3.558.034,5.337q-.039,5.253-.357,10.5a199.033,199.033,0,0,1-2.4,20.852q-.952,5.679-2.24,11.292a102.669,102.669,0,0,0,18.57-5.229,120.878,120.878,0,0,0,11.389-5.057c1.793-.909,3.6-1.81,5.362-2.785a36.7,36.7,0,0,1,5.4-2.824c.21-.074.354.218.21.366a21.55,21.55,0,0,1-4.481,3.209c-1.6.968-3.173,1.944-4.819,2.822-3.254,1.734-6.583,3.325-9.991,4.725a97.337,97.337,0,0,1-21.453,6.177c-13.971,2.256-28.331,1.592-41.738-3.215a78.111,78.111,0,0,1-10.721-4.76c-1.744-.941-3.446-1.959-5.108-3.042a22.3,22.3,0,0,1-4.547-3.586.324.324,0,0,1,.387-.509" transform="translate(-63.957 -111.594)" fill="#1c1d1c"/>
        <path id="Trazado_928" data-name="Trazado 928" d="M188.748,518.359q1.429-3.323,2.894-6.628c.457-1.033.877-2.094,1.388-3.1a4.406,4.406,0,0,1,1.813-2.023,2.544,2.544,0,0,1,3.777,2.2,4.539,4.539,0,0,1-.867,2.749c-.291.449-.619.875-.943,1.3a7.231,7.231,0,0,1-1.127,1.339.613.613,0,0,1-.954-.746c.719-1.441,2.5-2.628,2.478-4.4-.006-.593-.3-1.278-.956-1.326a2.028,2.028,0,0,0-1.708,1.175,19.325,19.325,0,0,0-1.048,2.241l-1.13,2.59q-1.175,2.692-2.377,5.37c-.385.859-1.606.112-1.241-.736" transform="translate(-14.878 -128.939)" fill="#1c1d1c"/>
        <path id="Trazado_929" data-name="Trazado 929" d="M205.132,522.641a34.928,34.928,0,0,1,.978-3.5q.52-1.74,1.04-3.478c.517-1.729.933-4.541,3.077-4.912a2.169,2.169,0,0,1,2.161,1.038,4.41,4.41,0,0,1,.474,2.828,12.731,12.731,0,0,1-1.882,6.057c-.267.385-.978.167-.8-.344a24.367,24.367,0,0,0,1.421-5.105,5.065,5.065,0,0,0-.1-2.536.969.969,0,0,0-1.638-.4,4.786,4.786,0,0,0-.947,2.221q-.419,1.414-.84,2.828a57.527,57.527,0,0,1-1.742,5.638.624.624,0,0,1-1.2-.336" transform="translate(-41.216 -130.068)" fill="#1c1d1c"/>
        <path id="Trazado_930" data-name="Trazado 930" d="M222.2,516.517a2.3,2.3,0,0,1,3.6-.912,9.565,9.565,0,0,1,2.945,3.614,12.456,12.456,0,0,1,.978,2.513,3.66,3.66,0,0,1,.071,2.53.383.383,0,0,1-.6.079,5.976,5.976,0,0,1-.749-2.252,11.621,11.621,0,0,0-.941-2.328,10.858,10.858,0,0,0-1.432-2.053c-.46-.516-1.117-1.263-1.865-1.248-.679.014-.846.783-.893,1.339a15.393,15.393,0,0,0,.092,2.7,26.45,26.45,0,0,0,1.2,5.669c.281.868-1.045,1.223-1.34.375a24.739,24.739,0,0,1-1.36-7.977,5.353,5.353,0,0,1,.3-2.046" transform="translate(-70.644 -131.183)" fill="#1c1d1c"/>
        <path id="Trazado_931" data-name="Trazado 931" d="M241.119,515.186a1.946,1.946,0,0,1,1.548-1.118,2.617,2.617,0,0,1,1.873.712,8.534,8.534,0,0,1,1.426,1.68q.667.938,1.24,1.941a20.6,20.6,0,0,1,1.131,2.36,5.851,5.851,0,0,1,.7,2.463c-.024.318-.438.576-.681.287a6.275,6.275,0,0,1-.816-1.656q-.376-.884-.825-1.732a26.417,26.417,0,0,0-2.013-3.265c-.407-.556-1.71-2.265-2.408-1.189a1.921,1.921,0,0,0-.007,1.6,16.174,16.174,0,0,0,.752,1.883c.651,1.423,1.42,2.785,2.188,4.145a.618.618,0,0,1-1.061.631c-.813-1.429-1.627-2.86-2.3-4.362-.586-1.3-1.431-2.957-.74-4.379" transform="translate(-103.592 -130.917)" fill="#1c1d1c"/>
        <path id="Trazado_932" data-name="Trazado 932" d="M256.591,513.335a1.372,1.372,0,0,1,1.568-.733,3.9,3.9,0,0,1,1.644.964,13.889,13.889,0,0,1,2.624,2.914,12.386,12.386,0,0,1,1.068,1.913c.159.356.306.719.438,1.086a2.633,2.633,0,0,1,.259,1.118c-.032.308-.437.587-.681.287a6.424,6.424,0,0,1-.673-1.5,15.509,15.509,0,0,0-.773-1.482,13.025,13.025,0,0,0-2.06-2.661,11.92,11.92,0,0,0-1.231-1.078c-.209-.158-.824-.652-1.109-.422s.093.91.206,1.141q.445.909.932,1.8c.346.631.706,1.254,1.062,1.879q.284.5.58.987c.182.3.441.623.3.994a.382.382,0,0,1-.354.273c-.395,0-.585-.308-.79-.608q-.324-.474-.636-.955c-.428-.662-.818-1.342-1.191-2.038-.352-.656-.707-1.319-1.008-2a2.309,2.309,0,0,1-.173-1.874" transform="translate(-130.2 -130.538)" fill="#1c1d1c"/>
        <path id="Trazado_933" data-name="Trazado 933" d="M129.842,380.618c.28-.585,1.111-.742,1.66-1q.977-.464,1.925-.991a37.621,37.621,0,0,0,3.744-2.4,33.375,33.375,0,0,0,3.392-2.814c1.081-1.022,2.05-2.154,3.115-3.19a.458.458,0,0,1,.712.558,25.582,25.582,0,0,1-6.383,6.444,31.733,31.733,0,0,1-3.828,2.483q-1,.552-2.029,1.038c-.578.271-1.376.835-2.017.6a.507.507,0,0,1-.291-.727" transform="translate(82.527 -94.253)" fill="#1c1d1c"/>
        <path id="Trazado_934" data-name="Trazado 934" d="M304.95,404.4a33.732,33.732,0,0,1,9.5-13.172c2.069-1.865,4.271-3.572,6.481-5.257a59.674,59.674,0,0,1,7.439-5.166c2.76-1.5,6.3-2.479,9.325-1.139.378.168.081.674-.258.622a11.189,11.189,0,0,0-4.382.107,15.916,15.916,0,0,0-4.161,1.627,67.644,67.644,0,0,0-6.9,4.716,57.821,57.821,0,0,0-11.411,10.339,27.18,27.18,0,0,0-4.384,7.672c-.286.788-1.539.444-1.247-.349" transform="translate(-239.438 -96.53)" fill="#1c1d1c"/>
        <path id="Trazado_935" data-name="Trazado 935" d="M332.925,405.46a2.706,2.706,0,0,1,2.342-2.343,2.384,2.384,0,0,1,1.913.584,2.287,2.287,0,0,1,.594.761,1.332,1.332,0,0,1,.126.75c.022.085.041.17.054.252a2.482,2.482,0,0,1-.32,1.747,2.6,2.6,0,0,1-3.06,1.023,2.706,2.706,0,0,1-1.649-2.773m1.048.419c0,.009.019.109.019.109a2.106,2.106,0,0,0,.09.3c.009.019.042.1.042.1.025.051.052.1.081.148.019.032.04.063.06.095a.27.27,0,0,1,.021.039.345.345,0,0,1,.028.029,1.381,1.381,0,0,0,.416.363,1.446,1.446,0,0,0,.461.162l.03.008h.038l.11.007c.055,0,.111,0,.166,0,.037,0,.073,0,.11-.008l.014,0c.09-.019.18-.039.269-.066.05-.016.1-.034.149-.054l.023-.013a2.643,2.643,0,0,0,.283-.171c-.02.014-.068.062.015-.013.055-.05.109-.1.159-.154a1.336,1.336,0,0,0,.243-.417,3,3,0,0,0,.09-.352c0-.013.008-.05.011-.069.007-.066.01-.133.011-.2,0-.037,0-.075,0-.112s0-.069-.008-.1l-.005-.032a2.5,2.5,0,0,0-.076-.285c-.03-.045-.058-.093-.087-.139l-.009-.013a3.115,3.115,0,0,0-.256-.291c-.027-.026-.055-.051-.082-.076a.194.194,0,0,1-.024-.025c-.008-.005-.007,0-.025-.015-.078-.052-.155-.1-.237-.148-.05-.026-.1-.048-.15-.072l-.069-.033-.089-.033c-.07-.024-.142-.039-.214-.058l-.021-.005c-.051-.006-.1-.009-.156-.01s-.112,0-.169.005h-.026a1.212,1.212,0,0,0-.542.224,1.6,1.6,0,0,0-.622.774,1.889,1.889,0,0,0-.063.254c0,.021-.011.1-.011.1,0,.057,0,.112,0,.169,0,.027,0,.054.007.082" transform="translate(-260.119 -102.657)" fill="#1c1d1c"/>
        <path id="Trazado_936" data-name="Trazado 936" d="M339.2,464.409c.059-.316.523-.226.534.073.086,2.34-.131,4.709-.167,7.052s-.033,4.71.093,7.057c.254,4.745.739,9.5,1.465,14.2a131.345,131.345,0,0,0,7.1,26.93,114.923,114.923,0,0,0,6.74,14.582c.36.647-.635,1.233-.979.58-8.831-16.757-14.575-35.359-15.183-54.448-.085-2.658-.143-5.319-.108-7.977a48.052,48.052,0,0,1,.509-8.045" transform="translate(-281.401 -118.222)" fill="#1c1d1c"/>
        <path id="Trazado_937" data-name="Trazado 937" d="M333.234,541.646a2.341,2.341,0,0,1,1.957-.208,1.585,1.585,0,0,1,.833.693,1.81,1.81,0,0,1,.186.447.768.768,0,0,1-.016.437.976.976,0,0,1-.294.625,1.569,1.569,0,0,1,.255.782,2.28,2.28,0,0,1-.4,1.274,2.043,2.043,0,0,1-2.512.76,2.492,2.492,0,0,1-1.572-2.364,3.04,3.04,0,0,1,1.56-2.446m-.432,2.98a1.54,1.54,0,0,0,.542.651c.066.043.134.08.2.116l.062.026.1.033a1.844,1.844,0,0,0,.19.046l.09.011c.051,0,.1,0,.153,0l.1-.005c-.121.007.04-.008.057-.012.038-.008.251-.085.144-.036.064-.028.121-.066.181-.1l.045-.031c.027-.022.054-.046.079-.07s.063-.068.1-.1a.171.171,0,0,1,.019-.016l.012-.022A2.155,2.155,0,0,0,335,544.9c.013-.025.024-.049.035-.075s.026-.074.028-.08a1.916,1.916,0,0,0,.059-.254l0-.018c.005-.084.021-.167.029-.251,0,0,0,0,0,0v-.021c0-.045,0-.09,0-.136a.862.862,0,0,0-.1-.408.326.326,0,0,1,.206-.478.514.514,0,0,1-.046-.053c-.047-.076-.081-.157-.129-.233l-.012-.016c-.015-.015-.147-.145-.1-.1l.019.016c-.051-.039-.1-.078-.151-.118l-.026-.014s-.1-.053-.109-.063c-.029-.011-.06-.022-.09-.031a1.334,1.334,0,0,0-.181-.042l-.034,0c-.054,0-.107-.006-.16-.005-.023,0-.2.011-.137,0a1.6,1.6,0,0,0-1.344,1.233,1.439,1.439,0,0,0,.032.882" transform="translate(-257.453 -137.857)" fill="#1c1d1c"/>
        <path id="Trazado_938" data-name="Trazado 938" d="M36.743,321.873c7.762-10.623,15.471-21.32,22.922-32.17A327.827,327.827,0,0,0,79.3,257.432c1.652-3.124,3.248-6.279,4.828-9.441s2.936-6.446,4.638-9.522a.353.353,0,0,1,.642.275,89.142,89.142,0,0,1-3.685,8.518q-1.952,4.24-4.076,8.392-4.283,8.369-9.071,16.461c-6.591,11.122-14.025,21.654-21.563,32.127-4.388,6.1-8.822,12.16-13.154,18.3-.484.685-1.611.013-1.117-.663" transform="translate(205.948 -60.688)" fill="#1c1d1c"/>
        <g id="Grupo_681" data-name="Grupo 681" transform="translate(62.109 251.42)" opacity="0.34">
          <g id="Grupo_680" data-name="Grupo 680">
            <g id="Grupo_679" data-name="Grupo 679" clip-path="url(#clip-path-9)">
              <path id="Trazado_939" data-name="Trazado 939" d="M200.5,376.173a37.648,37.648,0,0,1,8.926-9.838c4.737-3.537,11.593-5.664,17.615-4.464a6.625,6.625,0,0,1,2.732-5.613c3.58-2.764,7.149-5.544,10.753-8.275,3.5-2.65,7.059-5.935,11.033-7.788a5.916,5.916,0,0,1,2.376-.575,3.381,3.381,0,0,1,1.437-.288c4.507.089,9.065,1.907,13.578,2.442a82.56,82.56,0,0,0,13.839.446,84.408,84.408,0,0,0,13.288-1.769c4.346-.923,9.243-3.267,13.67-3.118a2.941,2.941,0,0,1,2.019,4.951c-3.288,3.326-9.247,4.642-13.639,5.719a82.622,82.622,0,0,1-14.736,2.173,83.781,83.781,0,0,1-13.633-.3c-.118.1-.225.212-.358.31-.715.528-1.444,1.035-2.179,1.535-.106.168-.222.334-.351.5-4.188,5.361-8.921,10.128-13.411,15.219a27.987,27.987,0,0,0-3.906,5.747,45.582,45.582,0,0,1-4.316,17.132,39.092,39.092,0,0,1-6.48,9.856c-.413.454-.852.923-1.318,1.37.971,6.968,3.368,13.686,6.06,20.162,3.307,7.956,6.671,16.113,11.269,23.4a55.953,55.953,0,0,0,15.728,15.84c6.613,4.587,14.045,7.587,20.775,11.883,4.67,2.981,1.749,11.2-3.883,9.35a74.234,74.234,0,0,1-7.821-3.1,4.524,4.524,0,0,1-3.751.918c-7.644-1.793-15.264-7.553-21.409-12.314l-.031-.025a9.315,9.315,0,0,1-6.964-3,5.872,5.872,0,0,1-2.541-1.382c-8.788-7.95-15.376-17.987-21.074-28.359-5.12-9.323-12.093-19.786-9.658-30.578a5.577,5.577,0,0,1-.928-1.85c-.913-3.373,1.142-5.976,4.027-7.2,4.529-1.922,9.4-4.006,12.936-7.573,3.795-3.827,4.719-9.238,6.5-14.151-1.224,0-1.257-.655-2.226-1.409-1.065,1.1-.695-2.457-2.649-3.062-1.167-.361-5.726,1.281-6.843,1.178-.5.509-2.5,2.832-3.364,2.981-6.108,1.052-8.073,6.022-12.559,10.328-.2.193-3.023,3.15-3.177,3.355-1.473,2.632-4.071,4.507-3.812,6.677.465,3.89-5.1-1.942-4.841-6.677a19.621,19.621,0,0,1,3.292-10.763" transform="translate(-197.203 -337.328)" fill="#1c1d1c"/>
            </g>
          </g>
        </g>
        <g id="Grupo_684" data-name="Grupo 684" transform="translate(47 343.716)" opacity="0.34">
          <g id="Grupo_683" data-name="Grupo 683" transform="translate(0)">
            <g id="Grupo_682" data-name="Grupo 682" clip-path="url(#clip-path-10)">
              <path id="Trazado_940" data-name="Trazado 940" d="M342.934,463.6a4.159,4.159,0,0,1,5.666-2c2.574-.057,5.051,1.577,4.783,4.928-1.667,20.827,2.617,41.036,11.259,59.911a4.714,4.714,0,0,1-3.963,6.749,4.846,4.846,0,0,1-6.36,1.185c-4.854-3.195-7.955-10.433-10.193-15.69a73.643,73.643,0,0,1-5.147-18.012c-1.748-11.739-1.881-26.373,3.956-37.07" transform="translate(-337.921 -461.162)" fill="#1c1d1c"/>
            </g>
          </g>
        </g>
        <g id="Grupo_687" data-name="Grupo 687" transform="translate(234.78 173.437)" opacity="0.34">
          <g id="Grupo_686" data-name="Grupo 686">
            <g id="Grupo_685" data-name="Grupo 685" clip-path="url(#clip-path-11)">
              <path id="Trazado_941" data-name="Trazado 941" d="M53.686,311.476c6.318-13.909,12.926-27.689,19.43-41.51,2.929-6.223,5.815-12.472,9.035-18.547,3.155-5.953,6.563-12.7,11.482-17.353,3.984-3.771,9.837.953,7.412,5.807-2.994,5.993-7.057,11.472-10.161,17.443-3.182,6.121-6.08,12.392-9.023,18.633-6.416,13.6-12.737,27.26-19.335,40.774-2.95,6.041-11.565.753-8.84-5.246" transform="translate(-53.161 -232.699)" fill="#1c1d1c"/>
            </g>
          </g>
        </g>
        <g id="Grupo_690" data-name="Grupo 690" transform="translate(201.073 263.081)" opacity="0.34">
          <g id="Grupo_689" data-name="Grupo 689" transform="translate(0)">
            <g id="Grupo_688" data-name="Grupo 688" clip-path="url(#clip-path-12)">
              <path id="Trazado_942" data-name="Trazado 942" d="M143.659,354.416c6.854,6.983,13.732,17.824,13.543,28.078-.095,5.173-6.691,5.548-8.408,1.155-1.574-4.03-2.39-8.16-4.42-12.033a43.589,43.589,0,0,0-7.514-10.3c-4.361-4.467,2.423-11.361,6.8-6.9" transform="translate(-135.455 -352.974)" fill="#1c1d1c"/>
            </g>
          </g>
        </g>
        <path id="Trazado_943" data-name="Trazado 943" d="M145.21,342.953c16.929,7.505,29.408,24.585,34.253,42.379,5.7,20.927,1.661,42.743-8.994,61.214a1.385,1.385,0,0,1-2.381-1.413c9.263-17.561,12.847-39.37,7.344-58.672-4.995-17.517-16.528-31.4-32.114-40.222-2.158-1.221-.262-4.24,1.892-3.285" transform="translate(35.701 -87.294)" fill="#ff2742" opacity="0.39"/>
        <path id="Trazado_944" data-name="Trazado 944" d="M303.874,405.805c.682-.832,2.1-1.091,3.085-1.415,1.168-.385,2.34-.748,3.489-1.189a26.708,26.708,0,0,0,6.637-3.56,18.879,18.879,0,0,0,4.686-5.082,18.111,18.111,0,0,0,2.249-6.845c.092-.558.959-.695,1.043-.057.653,4.924-2.825,10.056-6.422,12.992a27.26,27.26,0,0,1-7,4.041,37.083,37.083,0,0,1-3.843,1.33c-1.035.293-2.685.874-3.725.424a.429.429,0,0,1-.2-.638" transform="translate(-225.895 -98.618)" fill="#5ec4df"/>
        <path id="Trazado_945" data-name="Trazado 945" d="M209.626,393.184a18.289,18.289,0,0,1,2.185-1.048,5.086,5.086,0,0,1,2.522-.581,7.537,7.537,0,0,1,3.939,1.291,14.461,14.461,0,0,1,2.2,1.743,7.132,7.132,0,0,1,.9-1.309,7.22,7.22,0,0,1,10.266-.8c4.218,3.52,3,9.982.01,13.839a31,31,0,0,1-6.987,6.036,1.337,1.337,0,0,1-.317.162,4.067,4.067,0,0,1-1.827,1.229,5.752,5.752,0,0,1-4.228-.329,27.938,27.938,0,0,1-7.787-5.21c-2.315-2.089-4.57-4.562-5.007-7.8-.431-3.2,1.44-5.778,4.126-7.218" transform="translate(-62.922 -99.506)" fill="#e2483a"/>
        <path id="Trazado_946" data-name="Trazado 946" d="M210.217,395.02a5.188,5.188,0,0,1,4.86,1.86,4.79,4.79,0,0,1,.866,5.288.288.288,0,0,1-.542-.113,7.506,7.506,0,0,0-1.362-4.4,5.811,5.811,0,0,0-3.875-1.879c-.461-.047-.321-.68.053-.753" transform="translate(-48.223 -100.579)" fill="#fff"/>
        <g id="Grupo_693" data-name="Grupo 693" transform="translate(110.264 429.096)" opacity="0.26">
          <g id="Grupo_692" data-name="Grupo 692" opacity="0.7">
            <g id="Grupo_691" data-name="Grupo 691" clip-path="url(#clip-path-13)">
              <path id="Trazado_947" data-name="Trazado 947" d="M130.448,587.744c-2.388-1.128-3.744-2.4-3.744-3.757,0-4.568,15.348-8.272,34.281-8.272,16.849,0,30.849,2.934,33.729,6.8,27.678,1.631,48.222,7.653,48.222,14.834,0,8.434-28.335,15.271-63.288,15.271s-63.288-6.837-63.288-15.271c0-3.639,5.28-6.981,14.088-9.6" transform="translate(-116.359 -575.715)" fill="#adacac"/>
            </g>
          </g>
        </g>
        <path id="Trazado_948" data-name="Trazado 948" d="M343.37,443.729c.1-1.565.277-3.124.481-4.678a87.17,87.17,0,0,1,1.776-9.6,76.407,76.407,0,0,1,2.792-8.965c.594-1.558,1.22-3.109,1.916-4.622a17.133,17.133,0,0,1,2.566-4.507,2.039,2.039,0,0,1,2.461-.323,1.973,1.973,0,0,1,.932,1.357,1.79,1.79,0,0,1,.918.625,1.989,1.989,0,0,1,2.671,2.316,69.039,69.039,0,0,1-2.641,7.9q-1.428,3.932-2.688,7.921c-.839,2.647-1.583,5.327-2.174,8.043q-.443,2.031-.765,4.087c-.2,1.312-.262,2.733-.554,4.122a2.392,2.392,0,0,1-2.182,1.781,2.337,2.337,0,0,1-1.335.79,2.305,2.305,0,0,1-.625.575,2.441,2.441,0,0,1-3.568-1.474,19.255,19.255,0,0,1,.02-5.353" transform="translate(-289.592 -104.61)" fill="#1c1d1c"/>
        <path id="Trazado_949" data-name="Trazado 949" d="M107.183,356.439c.291-.105.577-.221.865-.333h0l.047-.022.385-.174q.8-.372,1.575-.817t1.495-.955c.23-.162.455-.332.681-.5l.008-.006.057-.048c.131-.109.261-.216.391-.326a20.227,20.227,0,0,0,2.434-2.48c.2-.24.389-.484.582-.727l.175-.227.148-.2c.364-.508.71-1.032,1.058-1.55A1.708,1.708,0,0,1,120.2,349.4c-.112.283-.236.561-.364.836a1.64,1.64,0,0,1,1.762.2,1.7,1.7,0,0,1,.592.9,4.168,4.168,0,0,1,.868-.435,1.468,1.468,0,0,1,1.306.227,1.8,1.8,0,0,1,.581,2.761,15.626,15.626,0,0,1-1.515,1.386c-.482.511-1,.987-1.478,1.421q-1.69,1.532-3.471,2.954a73.023,73.023,0,0,1-7.682,5.417,2.18,2.18,0,0,1-2.975-.791,2.42,2.42,0,0,1-.258-.844,1.737,1.737,0,0,1-.609-.664,2.28,2.28,0,0,1,.135-2.311,2.124,2.124,0,0,1-1.351-1.441,2.152,2.152,0,0,1,1.441-2.577" transform="translate(119.312 -88.428)" fill="#1c1d1c"/>
        <path id="Trazado_950" data-name="Trazado 950" d="M190.709,513.135c.1-.121.191-.243.286-.365.518-.691,1-1.4,1.451-2.144.184-.305.363-.616.542-.926a3.162,3.162,0,0,1,.673-1.19c.1-.16.227-.3.343-.455a1.311,1.311,0,0,1,.841-.409,1.381,1.381,0,0,1,.934.177,1.573,1.573,0,0,1,.673,1.68,10.239,10.239,0,0,1-2.221,4.694,1.424,1.424,0,0,1-.685.4c-.2.268-.4.54-.609.8a1.567,1.567,0,0,1-1.114.469,1.592,1.592,0,0,1-1.114-.469,1.623,1.623,0,0,1-.462-1.131,1.844,1.844,0,0,1,.462-1.131" transform="translate(-13.884 -129.28)" fill="#1c1d1c"/>
        <path id="Trazado_951" data-name="Trazado 951" d="M206.715,520.206c.167-.414.376-.789.573-1.187.077-.155.146-.314.22-.47l.028-.057.013-.035a15.226,15.226,0,0,0,.6-1.921c.075-.316.145-.633.2-.952.013-.079.122-.642.038-.215a4.453,4.453,0,0,0,.047-.454c.07-.806.013-1.986.674-2.549a1.311,1.311,0,0,1,1.561-.2,2.994,2.994,0,0,1,.913,2.754,14.977,14.977,0,0,1-.319,2.425,12.317,12.317,0,0,1-.633,1.977,9.441,9.441,0,0,1-1.294,2.434,1.552,1.552,0,0,1-1.9.249,1.611,1.611,0,0,1-.719-1.795" transform="translate(-41.02 -130.388)" fill="#1c1d1c"/>
        <path id="Trazado_952" data-name="Trazado 952" d="M223.639,516.189a1.676,1.676,0,0,1,2.019.265,18.178,18.178,0,0,1,2.353,3.466q.455.842.85,1.716a7.706,7.706,0,0,1,.454,1.175,1.559,1.559,0,0,1-1.362,2.058,1.525,1.525,0,0,1-1.186-.572c-.018.044-.03.087-.054.132a1.612,1.612,0,0,1-1.227.814,1.576,1.576,0,0,1-1.241-.335,1.8,1.8,0,0,1-.662-1.339q-.327-2.584-.655-5.168c-.017-.1-.036-.2-.056-.3a1.751,1.751,0,0,1,.766-1.91" transform="translate(-70.696 -131.404)" fill="#1c1d1c"/>
        <path id="Trazado_953" data-name="Trazado 953" d="M243.011,515.713a1.673,1.673,0,0,1,1.984.26,13.37,13.37,0,0,1,2.53,3.311,10.407,10.407,0,0,1,.884,2.015,6.305,6.305,0,0,1,.211,1.239,1.448,1.448,0,0,1-1.075,1.573,1.321,1.321,0,0,1-.205.144,1.718,1.718,0,0,1-2.32-.617,27.483,27.483,0,0,1-2.762-6.046,1.686,1.686,0,0,1,.752-1.877" transform="translate(-104.157 -131.284)" fill="#1c1d1c"/>
        <path id="Trazado_954" data-name="Trazado 954" d="M259.689,512.878a1.122,1.122,0,0,1,1.07.676,1.534,1.534,0,0,1,.832.644c.418.642.855,1.276,1.252,1.931a7.147,7.147,0,0,1,1.114,2.275,1.212,1.212,0,0,1-.415,1.239,1.139,1.139,0,0,1-1.289.092,5.612,5.612,0,0,1-.642-.52,3.748,3.748,0,0,1-.5-.629q-.347-.485-.692-.971c-.452-.634-.866-1.3-1.3-1.95a1.239,1.239,0,0,1-.175-.517,1.284,1.284,0,0,1,.746-2.271" transform="translate(-131.484 -130.616)" fill="#1c1d1c"/>
        <path id="Trazado_955" data-name="Trazado 955" d="M192.651,540.01c2.364.438,4.66,1.177,7.038,1.567a45.561,45.561,0,0,0,7.125.606,43.852,43.852,0,0,0,14.124-2.215,64.033,64.033,0,0,0,7.665-3.244.477.477,0,0,1,.476.826,35.9,35.9,0,0,1-13.91,5.436,41.324,41.324,0,0,1-14.732.128,24.483,24.483,0,0,1-8.027-2.526.317.317,0,0,1,.24-.578" transform="translate(-48.176 -136.675)" fill="#1c1d1c"/>
        <path id="Trazado_956" data-name="Trazado 956" d="M203.314,550.951a17.145,17.145,0,0,1,3.389-.434q1.873-.156,3.723-.5c1.166-.216,2.326-.449,3.475-.746.574-.148,1.147-.3,1.724-.435a1.987,1.987,0,0,1,1.344-.058.249.249,0,0,1,.086.333c-.243.476-.8.628-1.265.818a17.437,17.437,0,0,1-1.685.578,32.566,32.566,0,0,1-3.578.847c-1.183.2-2.376.358-3.571.458a9.986,9.986,0,0,1-3.643-.159.37.37,0,0,1,0-.7" transform="translate(-43.887 -139.734)" fill="#1c1d1c"/>
        <path id="Trazado_957" data-name="Trazado 957" d="M311.454,544.98a.926.926,0,0,1,1.568.66,10.91,10.91,0,0,1-.391,1.96,9.366,9.366,0,0,0-.225,2.018,9.673,9.673,0,0,0,.737,3.774,9.463,9.463,0,0,0,1.829,2.809,19.1,19.1,0,0,0,2.177,1.849,18.384,18.384,0,0,1-.9-5.525,1.159,1.159,0,0,1,2.317,0c.151,3.44,1.12,7.056,3.9,9.273a6.894,6.894,0,0,0,7.142.725,12.646,12.646,0,0,1-3.33-1.982,11.4,11.4,0,0,1-3.955-5.979,1.273,1.273,0,0,1,2.45-.686,11.425,11.425,0,0,0,3.2,4.769,9.449,9.449,0,0,0,5.172,2.209,9.679,9.679,0,0,0,5.567-1.252,11.543,11.543,0,0,0,2.312-1.784c.387-.371.774-.74,1.155-1.116.076-.075.158-.15.242-.224a18.293,18.293,0,0,1-8.456.1c-1.313-.289-3.294-.7-4.226-1.744-.6-.67-.228-1.973.78-1.91a8.178,8.178,0,0,1,2.174.7,16.98,16.98,0,0,0,1.925.553,15.806,15.806,0,0,0,3.938.362,14.122,14.122,0,0,0,7.693-2.372c1.6-1.146,3.054-3.557,1.5-5.381a1.964,1.964,0,0,0-1.424-.674c-.018,0-.03.013-.049.016a.882.882,0,0,1-.322-.02,7.286,7.286,0,0,0-1.315.2,13.658,13.658,0,0,1-4,.63.893.893,0,0,1,0-1.784,43.473,43.473,0,0,0,4.388-1.2c-.007-.026-.011-.053-.018-.08a8.126,8.126,0,0,0-.538-1.441,10.2,10.2,0,0,0-.82-1.386,12.317,12.317,0,0,1-.822-1.454.447.447,0,0,1,.6-.61,5.43,5.43,0,0,1,2.481,2.652,11.093,11.093,0,0,1,.725,1.735c.048.149.083.3.123.452a4.328,4.328,0,0,1,1.2.278c2.177.857,3.082,3.335,2.735,5.556-.382,2.448-2.381,4.277-4.447,5.372a16.4,16.4,0,0,1-2.069.912.5.5,0,0,1,0,.193,8.449,8.449,0,0,1-.14.972,7.163,7.163,0,0,1-.388.9,6.7,6.7,0,0,1-.991,1.468,11.409,11.409,0,0,1-2.752,2.193,11.883,11.883,0,0,1-7,1.663,11.66,11.66,0,0,1-1.792-.307c-1.9,3.365-6.989,2.855-9.746.91a11.01,11.01,0,0,1-3.6-4.355.878.878,0,0,1-.849.328c-2.616-.586-4.763-3.278-5.782-5.668a11.551,11.551,0,0,1-.92-4.617c.013-1.5.2-3.474,1.244-4.638" transform="translate(-256.22 -137.253)" fill="#1c1d1c"/>
      </g>
    </g>
  </g>
</svg>
