<svg id="Grupo_3132" data-name="Grupo 3132" xmlns="http://www.w3.org/2000/svg" xmlns:xlink="http://www.w3.org/1999/xlink" width="418" height="506.08" viewBox="0 0 418 506.08">
  <defs>
    <clipPath id="clip-path">
      <rect id="Rectángulo_557" data-name="Rectángulo 557" width="418" height="506.08" fill="none"/>
    </clipPath>
    <clipPath id="clip-path-3">
      <rect id="Rectángulo_546" data-name="Rectángulo 546" width="92.238" height="35.507" fill="none"/>
    </clipPath>
    <clipPath id="clip-path-4">
      <rect id="Rectángulo_547" data-name="Rectángulo 547" width="189.796" height="280.004" fill="none"/>
    </clipPath>
    <clipPath id="clip-path-5">
      <rect id="Rectángulo_548" data-name="Rectángulo 548" width="164.688" height="46.276" fill="none"/>
    </clipPath>
    <clipPath id="clip-path-6">
      <rect id="Rectángulo_549" data-name="Rectángulo 549" width="113.986" height="54.233" fill="none"/>
    </clipPath>
    <clipPath id="clip-path-7">
      <rect id="Rectángulo_550" data-name="Rectángulo 550" width="20.748" height="69.438" fill="none"/>
    </clipPath>
    <clipPath id="clip-path-8">
      <rect id="Rectángulo_551" data-name="Rectángulo 551" width="51.741" height="82.418" fill="none"/>
    </clipPath>
    <clipPath id="clip-path-9">
      <rect id="Rectángulo_552" data-name="Rectángulo 552" width="72.4" height="81.253" fill="none"/>
    </clipPath>
    <clipPath id="clip-path-10">
      <rect id="Rectángulo_553" data-name="Rectángulo 553" width="23.984" height="36.607" fill="none"/>
    </clipPath>
    <clipPath id="clip-path-11">
      <rect id="Rectángulo_554" data-name="Rectángulo 554" width="139.567" height="40.078" fill="none"/>
    </clipPath>
    <clipPath id="clip-path-12">
      <rect id="Rectángulo_555" data-name="Rectángulo 555" width="84.138" height="68.964" fill="none"/>
    </clipPath>
  </defs>
  <g id="Grupo_3131" data-name="Grupo 3131" clip-path="url(#clip-path)">
    <g id="Grupo_3130" data-name="Grupo 3130">
      <g id="Grupo_3129" data-name="Grupo 3129" clip-path="url(#clip-path)">
        <path id="Trazado_3013" data-name="Trazado 3013" d="M537.543,373.485a1.775,1.775,0,0,0,.146-.122,5.291,5.291,0,0,0,1.869-1.023,3.845,3.845,0,0,0,1.261-3.882,5.677,5.677,0,0,0-2.875-3.011,19.968,19.968,0,0,0-3.692-1.713q-.446-.16-.9-.3c1.231-.406,2.439-.876,3.6-1.362a20.2,20.2,0,0,0,6.417-3.686,6.686,6.686,0,0,0,1.7-7.058,6.338,6.338,0,0,0-.621-1.206,2.236,2.236,0,0,0,.377-1.1,2.893,2.893,0,0,0-2.994-3.048,14.256,14.256,0,0,0-4.486,1.222,33.283,33.283,0,0,0-6.233,2.011c-3.029,1.112-6,2.3-8.946,3.619a1.585,1.585,0,0,0-.857,2.114,2.079,2.079,0,0,0,.037,1.014,15.5,15.5,0,0,1,.73,4.2,1.891,1.891,0,0,0,1.815,1.848c-.077.077-.165.143-.237.223a4.722,4.722,0,0,0-1.052,1.963c-.146.561-.125,1.169-.306,1.72-.325.984-1.1,1.694-1.277,2.774-.537,3.369,3.433,4.368,5.943,4.886.135.028.271.05.406.075a9.307,9.307,0,0,0,10.181-.163m3.884-19.732c-.017-.028-.038-.053-.056-.08a2.393,2.393,0,0,0-.544-1.7l.1-.037a2.457,2.457,0,0,1,.5,1.818" transform="translate(-129.528 -86.021)" fill="#bcbbbb"/>
        <path id="Trazado_3014" data-name="Trazado 3014" d="M512.3,342.849q4.69-3.565,9.053-7.535c2.558-2.331,5.765-4.919,6.445-8.508.672-3.553-1.3-7.147-5.07-7.646-3.865-.511-7.372,1.992-10.4,4.068-.532.365-1.049.751-1.57,1.129a1.858,1.858,0,0,0,.421-1.258,2,2,0,0,0-.579-1.287c.422-.984.813-1.981,1.141-3a5.891,5.891,0,0,0,.155-4.011,3.846,3.846,0,0,0-1.489-1.836c.6-2.044-1.688-3.984-3.831-3.719-.185.023-.379.057-.576.1a5.035,5.035,0,0,0-4.429,1.12,2.753,2.753,0,0,0-.806,1.435,2.275,2.275,0,0,0-1.035,1.431,2.852,2.852,0,0,0-1.938,2.734,15.421,15.421,0,0,0-3.583,8.393.19.19,0,0,0-.016.019c-.041-.044-.086-.084-.127-.127a1.86,1.86,0,0,0,.067-.53,13.166,13.166,0,0,0-3.818-9.152,6.869,6.869,0,0,0-8.346-1.287c-3.16,1.936-2.491,5.544-2.008,8.616l1.742,11.091c.18,1.143,1.277,2.38,2.6,1.818a17.1,17.1,0,0,1,7.066-1.4,2.067,2.067,0,0,0,1.949-1.746,1.879,1.879,0,0,0,1,1.343c2.262,1.132,4.857,1.957,7.167.961a1.92,1.92,0,0,0,1.5.932,86.7,86.7,0,0,1,6.571,7.274,2.023,2.023,0,0,0,2.754.58" transform="translate(-119.232 -76.878)" fill="#bcbbbb"/>
        <path id="Trazado_3015" data-name="Trazado 3015" d="M509.124,356.564a3.14,3.14,0,0,0-2.607-2.859,2.22,2.22,0,0,0-1.122.061,1.553,1.553,0,0,0-.794.541,3.049,3.049,0,0,0-1.014.861,2.85,2.85,0,0,0-.008,3.368,2.989,2.989,0,0,0,3.381,1.169,3.32,3.32,0,0,0,2.164-3.141m-3.58,1.911c-.047-.013-.095-.028-.141-.044-.014-.008-.127-.057-.15-.068a3.424,3.424,0,0,1-.337-.2l-.012-.007c-.026-.019-.053-.038-.077-.058-.056-.044-.11-.089-.162-.137a1.865,1.865,0,0,1-.439-.564c-.016-.029-.032-.059-.047-.089,0,0,0,0-.007-.02-.026-.065-.049-.131-.068-.2a1.122,1.122,0,0,1-.06-.331,1.971,1.971,0,0,1,.809-1.644.786.786,0,0,0,.234.047h.056l.044,0a2.324,2.324,0,0,0,.3.014l.143,0c.025.005.132.019.159.023.107.015.216.023.323.028H506.1c.041.008.084.012.126.019.062.011.125.025.187.041.034.008.132.041.156.047a2.668,2.668,0,0,1,.337.16c.017.01.084.053.11.069l.044.034c.033.026.065.053.1.081.056.049.107.1.159.153a.183.183,0,0,0,.019.017.207.207,0,0,0,.017.027c.043.06.086.119.124.183s.1.21.045.072c.026.07.055.138.077.21,0,.014.02.068.03.105s.02.141.022.167c.005.084,0,.168,0,.252,0,.02,0,.02,0,.028a.243.243,0,0,0-.008.035c-.014.073-.027.146-.045.217s-.032.116-.05.173-.038.09-.059.135-.057.114-.089.17c-.011.02-.057.094-.069.116a2.518,2.518,0,0,1-.272.321l-.069.066-.008.008h0c-.05.04-.1.078-.154.113s-.126.077-.189.116l-.029.015c-.022.01-.057.026-.065.029a2.014,2.014,0,0,1-.21.072l-.1.025a2.053,2.053,0,0,1-.419.018c-.026,0-.052-.007-.077-.012-.068-.014-.136-.026-.2-.044" transform="translate(-125.069 -87.931)" fill="#252626"/>
        <path id="Trazado_3016" data-name="Trazado 3016" d="M530.448,362.28a7.174,7.174,0,0,0-.893-7.2,9.117,9.117,0,0,0-3.27-2.739c-.137-.068-.278-.137-.422-.2a20.782,20.782,0,0,0,7.856-4.416c2.326-2.283,3.652-5.949,2.349-9.081-1.34-3.224-4.97-4.726-8.309-4.444a15.468,15.468,0,0,0-4.513,1.152c2.775-2.56,4.97-5.773,5.152-9.655.189-4.02-2.051-7.962-6.08-9.037-3.648-.974-7.139.469-10.132,2.513,1.667-5.688.626-12.347-5.641-14.172-4.193-1.22-7.845,1.782-10.068,5.016a30.565,30.565,0,0,0-3.09,5.816,10.941,10.941,0,0,0-3.456-4.688,8.516,8.516,0,0,0-7.459-1.432,7.924,7.924,0,0,0-5.076,5.551c-.856,2.844-.367,5.955.128,8.814a40.8,40.8,0,0,0,3.084,10.806,1.4,1.4,0,0,0,1.269.654,1.349,1.349,0,0,0,.734-.233,1.5,1.5,0,0,0,.593-1.648c-.467-1.617-1.119-3.18-1.579-4.8s-.848-3.266-1.148-4.925c-.5-2.789-1.156-6.151.107-8.835a4.668,4.668,0,0,1,5.925-2.5,6.727,6.727,0,0,1,3.094,2.223,17.114,17.114,0,0,1,2,3.915,1.308,1.308,0,0,0,.569.607c-.1.333-.194.665-.282,1a35.08,35.08,0,0,0-.945,12.685c.234,2.147,3.61,2.03,3.382-.132a32.2,32.2,0,0,1,3.423-18.263c1.273-2.438,3.174-5.819,6.168-6.354,2.869-.512,5.07,2.209,5.525,4.748a12.265,12.265,0,0,1-.482,5.6c-.461,1.561-1.206,3.028-1.685,4.577a41.864,41.864,0,0,0-7.793,9.279,1.2,1.2,0,0,0,1.948,1.346A85.9,85.9,0,0,1,509.7,324.7c2.85-2.588,6.326-5.634,10.415-5.56,3.565.064,5.541,3.053,5.464,6.384-.082,3.576-2.679,6.51-5.362,8.606-3.658,2.859-7.882,4.882-11.268,8.106a1.428,1.428,0,0,0,1.067,2.413,1.147,1.147,0,0,0,1.553.3c1.233-.96,2.54-1.829,3.81-2.74.6-.427,1.24-.831,1.8-1.3,2.945-.91,5.553-2.7,8.523-3.569,2.443-.712,5.774-.7,7.354,1.661,1.518,2.274.162,5.2-1.621,6.871-2.207,2.068-5.388,3.138-8.221,4.013a40.73,40.73,0,0,1-5.736,1.346q-1.422.222-2.857.349a6.171,6.171,0,0,0-2.948.626,1.237,1.237,0,0,0,.1,2.119,5.042,5.042,0,0,0,2.958.268q1.524-.142,3.034-.391a48.33,48.33,0,0,0,4.731-1.02,21.138,21.138,0,0,0,2.464,1.374,7.115,7.115,0,0,1,2.677,2.6,4.266,4.266,0,0,1-1.619,5.894,9.856,9.856,0,0,1-7.788.77c-2.709-.738-4.9-2.352-7.136-3.96-1.45-1.042-3.322.868-1.914,2.112,4.037,3.57,9.75,6.058,15.187,4.781a8.887,8.887,0,0,0,6.076-4.474" transform="translate(-118.58 -75.762)" fill="#252626"/>
        <path id="Trazado_3017" data-name="Trazado 3017" d="M72.572,258.226c-.029-.058-.065-.108-.1-.162a5.25,5.25,0,0,0-.72-1.991,3.832,3.832,0,0,0-3.63-1.831,5.672,5.672,0,0,0-3.41,2.365,19.831,19.831,0,0,0-2.257,3.364q-.227.415-.433.842c-.21-1.271-.487-2.529-.787-3.742a20.018,20.018,0,0,0-2.643-6.865A6.671,6.671,0,0,0,51.9,247.46a6.351,6.351,0,0,0-1.283.425,2.23,2.23,0,0,0-1.023-.538,2.887,2.887,0,0,0-3.465,2.476,14.155,14.155,0,0,0,.512,4.592,32.941,32.941,0,0,0,1.021,6.428c.629,3.145,1.34,6.244,2.186,9.338a1.58,1.58,0,0,0,1.951,1.163,2.07,2.07,0,0,0,1,.119,15.548,15.548,0,0,1,4.25-.076,1.885,1.885,0,0,0,2.1-1.5c.064.087.116.184.184.267a4.687,4.687,0,0,0,1.772,1.332c.53.23,1.133.3,1.647.564.92.468,1.5,1.343,2.537,1.677,3.237,1.042,4.834-2.7,5.731-5.091.048-.128.091-.258.137-.387a9.229,9.229,0,0,0,1.41-10.023M53.73,251.4c-.03.013-.059.029-.088.043a2.386,2.386,0,0,0-1.759.275l-.02-.107a2.459,2.459,0,0,1,1.867-.21" transform="translate(-11.455 -61.479)" fill="#bcbbbb"/>
        <path id="Trazado_3018" data-name="Trazado 3018" d="M38.726,271.029q-2.789-5.149-6.028-10.04c-1.9-2.869-3.957-6.412-7.389-7.628-3.4-1.2-7.242.182-8.315,3.812-1.1,3.718.825,7.544,2.4,10.835.277.579.578,1.144.871,1.715a1.852,1.852,0,0,0-1.174-.606,2,2,0,0,0-1.358.373c-.9-.565-1.827-1.1-2.782-1.579a5.891,5.891,0,0,0-3.928-.763,3.837,3.837,0,0,0-2.038,1.182c-1.921-.9-4.186,1.05-4.254,3.195-.006.186,0,.381.005.58a4.991,4.991,0,0,0,.42,4.521,2.746,2.746,0,0,0,1.29,1.011A2.261,2.261,0,0,0,7.7,278.87c.374,1.195,1.092,2.237,2.4,2.32a15.362,15.362,0,0,0,7.717,4.8c0,.007.011.012.016.019-.05.034-.1.071-.145.105a1.841,1.841,0,0,0-.511-.147,13.177,13.177,0,0,0-9.605,2.354,6.819,6.819,0,0,0-2.555,8c1.42,3.4,5.078,3.292,8.179,3.286l11.2-.018c1.153,0,2.541-.891,2.19-2.271a16.942,16.942,0,0,1-.287-7.152,2.051,2.051,0,0,0-1.42-2.18,1.879,1.879,0,0,0,1.479-.777c1.463-2.048,2.676-4.471,2.051-6.891a1.916,1.916,0,0,0,1.15-1.328,86.68,86.68,0,0,1,8.18-5.344,2.009,2.009,0,0,0,1-2.616" transform="translate(-1.089 -62.888)" fill="#bcbbbb"/>
        <path id="Trazado_3019" data-name="Trazado 3019" d="M50.62,289.336A3.136,3.136,0,0,0,47.4,291.46a2.2,2.2,0,0,0-.113,1.111,1.536,1.536,0,0,0,.41.863,3.038,3.038,0,0,0,.692,1.128,2.849,2.849,0,0,0,3.317.521,2.973,2.973,0,0,0,1.674-3.143,3.3,3.3,0,0,0-2.761-2.6m1.331,3.808c-.02.044-.042.089-.065.132-.01.011-.076.116-.09.137a3.351,3.351,0,0,1-.246.3c-.012.014-.007.008-.008.011l-.069.067c-.052.048-.1.094-.159.138a1.876,1.876,0,0,1-.624.345l-.094.032-.022,0a2.077,2.077,0,0,1-.2.038,1.118,1.118,0,0,1-.336.008,1.963,1.963,0,0,1-1.5-1.045.776.776,0,0,0,.082-.223c0-.018.006-.037.008-.055s.008-.035.011-.043a2.4,2.4,0,0,0,.06-.291c0-.025.017-.1.023-.14.009-.023.04-.127.047-.153.031-.1.056-.207.077-.313l0,.006c.015-.039.025-.081.038-.121.021-.06.044-.119.069-.178.014-.032.06-.122.071-.146a2.651,2.651,0,0,1,.21-.306c.012-.015.065-.074.085-.1l.04-.038c.031-.029.063-.056.1-.083.056-.047.116-.091.176-.134a.251.251,0,0,0,.02-.016.189.189,0,0,0,.029-.012c.065-.033.131-.066.2-.094s.221-.062.077-.033c.074-.015.145-.033.219-.044l.108-.013c.025,0,.142,0,.168,0,.083.008.166.021.249.037l.027,0a.254.254,0,0,0,.035.013c.069.025.138.048.207.077s.109.049.162.076.083.051.123.079.1.073.154.113c.018.014.083.071.1.086a2.493,2.493,0,0,1,.274.316c.019.026.036.052.055.078l.006.008v0c.032.056.061.111.088.168s.056.136.086.2c0,0,.006.016.011.03s.017.06.018.068a2.117,2.117,0,0,1,.038.217c0,.022.007.076.009.1a2.013,2.013,0,0,1-.046.413c-.008.025-.015.05-.024.074-.024.065-.047.13-.075.193" transform="translate(-11.751 -71.933)" fill="#252626"/>
        <path id="Trazado_3020" data-name="Trazado 3020" d="M60.78,253.542a7.175,7.175,0,0,0-7.234-.222,9.092,9.092,0,0,0-3.2,2.794c-.088.123-.177.252-.267.383a20.6,20.6,0,0,0-3.138-8.389c-1.891-2.633-5.3-4.494-8.587-3.692-3.383.824-5.423,4.159-5.659,7.481a15.3,15.3,0,0,0,.44,4.607c-2.095-3.116-4.921-5.762-8.72-6.533-3.931-.8-8.161.8-9.841,4.592-1.522,3.434-.639,7.082.913,10.334-5.347-2.506-12.069-2.5-14.832,3.376-1.85,3.933.545,7.977,3.389,10.653a30.46,30.46,0,0,0,5.254,3.921,10.945,10.945,0,0,0-5.151,2.679,8.463,8.463,0,0,0-2.562,7.107,7.872,7.872,0,0,0,4.687,5.831c2.67,1.274,5.811,1.269,8.7,1.219A40.809,40.809,0,0,0,26.1,298.3a1.394,1.394,0,0,0,.841-1.147,1.344,1.344,0,0,0-.116-.757,1.494,1.494,0,0,0-1.532-.833c-1.666.213-3.306.614-4.977.818s-3.349.334-5.03.376c-2.826.071-6.239.2-8.69-1.453a4.627,4.627,0,0,1-1.549-6.2,6.7,6.7,0,0,1,2.666-2.7,17.138,17.138,0,0,1,4.167-1.363,1.311,1.311,0,0,0,.685-.466c.313.146.625.292.941.429a35.068,35.068,0,0,0,12.352,2.864c2.153.1,2.557-3.235.391-3.341a32.153,32.153,0,0,1-17.466-6.149c-2.207-1.622-5.244-4-5.308-7.027-.063-2.9,2.957-4.642,5.529-4.7a12.257,12.257,0,0,1,5.439,1.327c1.466.691,2.8,1.646,4.249,2.353a41.562,41.562,0,0,0,7.941,9.069c1.037.854,2.525-.7,1.627-1.707a85.365,85.365,0,0,1-7.7-9.509c-2.111-3.194-4.576-7.073-3.873-11.077.613-3.491,3.863-4.976,7.133-4.393,3.51.627,6,3.625,7.653,6.579,2.253,4.029,3.594,8.486,6.248,12.3a1.426,1.426,0,0,0,2.543-.679,1.139,1.139,0,0,0,.534-1.479c-.756-1.357-1.41-2.773-2.112-4.16-.33-.651-.627-1.345-1-1.972-.443-3.03-1.809-5.866-2.2-8.914-.325-2.508.2-5.778,2.77-6.968,2.474-1.144,5.148.634,6.52,2.64,1.7,2.483,2.262,5.771,2.685,8.686a40.292,40.292,0,0,1,.443,5.839q0,1.43-.1,2.858a6.115,6.115,0,0,0,.162,2.99,1.235,1.235,0,0,0,2.1.223,5.008,5.008,0,0,0,.72-2.864q.095-1.517.081-3.039a47.216,47.216,0,0,0-.276-4.8,20.98,20.98,0,0,0,1.734-2.211,7.122,7.122,0,0,1,2.977-2.232A4.256,4.256,0,0,1,60.856,258a9.764,9.764,0,0,1-.441,7.766c-1.146,2.548-3.074,4.452-5,6.4-1.249,1.265.343,3.394,1.787,2.2,4.139-3.42,7.472-8.65,7.052-14.185a8.812,8.812,0,0,0-3.471-6.649" transform="translate(0 -60.723)" fill="#252626"/>
        <path id="Trazado_3021" data-name="Trazado 3021" d="M149.407,390.186c.292-.007.585,0,.879,0h0l.05,0c.134.009.267.016.4.026q.843.06,1.688.2t1.679.367c.265.071.528.152.792.231l.01,0,.069.026c.157.056.314.111.471.171a20.368,20.368,0,0,1,3.123,1.492c.27.159.536.324.8.487.022.014.174.11.245.153l.213.142c.525.355,1.041.733,1.557,1.105a1.5,1.5,0,0,0,2.114-.107,1.887,1.887,0,0,0-.021-2.342c-.216-.231-.439-.455-.664-.673a1.38,1.38,0,0,0,1.417-.851,1.824,1.824,0,0,0,.126-1.088,3.657,3.657,0,0,0,.925.1,1.232,1.232,0,0,0,1.017-.706,2.043,2.043,0,0,0-.671-2.887,15.288,15.288,0,0,0-1.878-.777c-.627-.316-1.269-.583-1.862-.825q-2.088-.852-4.209-1.565a68.85,68.85,0,0,0-8.841-2.379,1.9,1.9,0,0,0-2.2,1.875,2.823,2.823,0,0,0,.136.912,1.791,1.791,0,0,0-.239.87,2.689,2.689,0,0,0,1.092,2.185,2.146,2.146,0,0,0-.543,1.9,2.328,2.328,0,0,0,2.317,1.956" transform="translate(-36.435 -94.594)" fill="#252626"/>
        <path id="Trazado_3022" data-name="Trazado 3022" d="M189.153,398.54a18.081,18.081,0,1,1-18.081-18.081,18.081,18.081,0,0,1,18.081,18.081" transform="translate(-38.038 -94.594)" fill="#bcbbbb"/>
        <path id="Trazado_3023" data-name="Trazado 3023" d="M170.451,417.878a19.959,19.959,0,1,1,19.959-19.959,19.981,19.981,0,0,1-19.959,19.959m0-36.162a16.2,16.2,0,1,0,16.2,16.2,16.221,16.221,0,0,0-16.2-16.2" transform="translate(-37.417 -93.972)" fill="#252626"/>
        <path id="Trazado_3024" data-name="Trazado 3024" d="M320.525,431.231c0,40.684-40.3,85.5-81.352,85.5-40.095,0-73.654-44.812-73.654-85.5s34.7-73.666,77.5-73.666,77.5,32.982,77.5,73.666" transform="translate(-41.153 -88.902)" fill="#bcbbbb"/>
        <path id="Trazado_3025" data-name="Trazado 3025" d="M238.551,517.984c-19.148,0-38.58-10.27-53.313-28.176-13.913-16.91-22.219-39.04-22.219-59.2,0-41.655,35.61-75.545,79.381-75.545s79.381,33.89,79.381,75.545c0,19.828-9.64,41.991-25.786,59.287-16.665,17.85-37.6,28.088-57.444,28.088M242.4,358.822c-41.7,0-75.624,32.2-75.624,71.788,0,19.315,7.986,40.553,21.363,56.811,14.017,17.036,32.391,26.807,50.412,26.807,18.8,0,38.741-9.8,54.7-26.895,15.514-16.618,24.776-37.823,24.776-56.723,0-39.584-33.925-71.788-75.625-71.788" transform="translate(-40.532 -88.28)" fill="#252626"/>
        <path id="Trazado_3026" data-name="Trazado 3026" d="M270.67,424.871A28.584,28.584,0,0,1,243,453.446c-.3.008-.609.015-.917.015a28.59,28.59,0,1,1,28.582-28.59" transform="translate(-53.082 -98.53)" fill="#989999"/>
        <path id="Trazado_3027" data-name="Trazado 3027" d="M241.715,454.215a29.726,29.726,0,1,1,.952-.016c-.318.008-.634.016-.952.016m0-57.172a27.459,27.459,0,1,0,0,54.918c.3,0,.6-.008.89-.015A27.323,27.323,0,0,0,269.17,424.5a27.426,27.426,0,0,0-27.455-27.455" transform="translate(-52.709 -98.157)" fill="#252626"/>
        <path id="Trazado_3028" data-name="Trazado 3028" d="M273.653,425.256a28.584,28.584,0,0,1-27.665,28.575,28.589,28.589,0,0,1,7.183-55.992,28.6,28.6,0,0,1,20.482,27.417" transform="translate(-56.066 -98.915)" fill="#030202"/>
        <path id="Trazado_3029" data-name="Trazado 3029" d="M119.408,350.774l.005,0-.035-.038a10.535,10.535,0,0,0-1.289-1.431c-9.829-11.159-45.468-55.582-49.7-60.86A18.8,18.8,0,1,0,41.45,314.33h0c13.26,10.945,62.662,51,62.662,51l.006-.006a10.636,10.636,0,0,0,15.291-14.554" transform="translate(-8.617 -69.883)" fill="#bcbbbb"/>
        <path id="Trazado_3030" data-name="Trazado 3030" d="M113.466,368.565a12.557,12.557,0,0,1-9.811-1.447l-.078.071-1.269-1.02c-.494-.4-49.56-40.187-62.675-51.011l-1.225-1.012.034-.058a20.679,20.679,0,1,1,30.817-27.414c4.015,5.006,39.661,49.438,49.56,60.693A12.531,12.531,0,0,1,120.2,348.9l1.268,1.374-.24.214a12.344,12.344,0,0,1,1.095,2.733,12.539,12.539,0,0,1-8.856,15.341m-10.053-6.341,1.271,1.026a8.757,8.757,0,0,0,12.592-11.984l-.09-.122a8.86,8.86,0,0,0-1-1.092l-.131-.134c-9.871-11.207-45.7-55.871-49.756-60.926a16.922,16.922,0,1,0-24.274,23.271l.41.34c12.437,10.252,53.25,43.361,60.972,49.625Z" transform="translate(-7.996 -69.26)" fill="#252626"/>
        <path id="Trazado_3031" data-name="Trazado 3031" d="M188.965,169.629a35.043,35.043,0,1,1-35.042-35.042,35.042,35.042,0,0,1,35.042,35.042" transform="translate(-29.557 -33.463)" fill="#bcbbbb"/>
        <path id="Trazado_3032" data-name="Trazado 3032" d="M153.3,205.929a36.921,36.921,0,1,1,36.921-36.922A36.963,36.963,0,0,1,153.3,205.929m0-70.085a33.164,33.164,0,1,0,33.164,33.164A33.2,33.2,0,0,0,153.3,135.844" transform="translate(-28.936 -32.841)" fill="#252626"/>
        <path id="Trazado_3033" data-name="Trazado 3033" d="M338.213,27.084A90.691,90.691,0,0,0,277.292,2.507q-2.942-.034-5.838.113a91.043,91.043,0,0,0-21.647,3.734c-.008,0-.008.008-.015.008q-1.927.575-3.817,1.24-.462.158-.924.338a89.943,89.943,0,0,0-15.628,7.4c-90.69,48.426-79.345,168.322-79.224,169.531a97.59,97.59,0,0,0,186.482,36.4q.935-2.063,1.773-4.185a1.271,1.271,0,0,0,.1-.233,97.088,97.088,0,0,0,6.011-23.8h.008v-.068a97.531,97.531,0,0,0,.714-11.827c0-.451-.008-.9-.015-1.352a144.668,144.668,0,0,1,12.037-44.6c.751-1.473,2.968-6.417,2.968-6.417a91.007,91.007,0,0,0-22.06-101.713M152.077,184.8l-.008-.12a227.375,227.375,0,0,1,5.515-66.444c7.536-32.121,25.96-75.385,70.922-100.263a167.14,167.14,0,0,0-27.62,23.578,175.212,175.212,0,0,0-14.494,17.169,186.632,186.632,0,0,0-13.532,21.459,158.99,158.99,0,0,0-9.34,20.392,176.565,176.565,0,0,0-7.784,27,154.192,154.192,0,0,0-3.1,25.547,186.833,186.833,0,0,0,.954,28.7c1.856,16.906,7.874,36.284,14.389,52.37l.113.293A95.37,95.37,0,0,1,152.077,184.8" transform="translate(-37.216 -0.622)" fill="#bcbbbb"/>
        <path id="Trazado_3034" data-name="Trazado 3034" d="M338.881,25.087q-2.806-2.615-5.786-4.974A92.468,92.468,0,0,0,276.7.007c-2.48-.03-4.959.038-7.424.2a93.171,93.171,0,0,0-20.362,3.644l-.533.008-.218.225c-.278.083-.564.173-.849.27-.857.263-1.713.548-2.57.849a92.907,92.907,0,0,0-16.861,7.874A138.017,138.017,0,0,0,176.57,60.447c-10.467,16.184-18.288,35.126-23.262,56.315A232.37,232.37,0,0,0,147.7,184.37a98.791,98.791,0,0,0,19.566,55.519,99.96,99.96,0,0,0,10.752,12.217c.173.165.338.331.511.481A99.464,99.464,0,0,0,344.96,198.278a.023.023,0,0,1,.008-.015c.24-1.33.451-2.66.639-4l.225-.008v-1.766a99.97,99.97,0,0,0,.714-11.939c0-.421-.008-.849-.015-1.27A143.553,143.553,0,0,1,358.379,135.4c.781-1.54,2.9-6.259,3.013-6.507a92.164,92.164,0,0,0,6.935-29.409c.113-1.653.188-3.321.21-4.989a93.251,93.251,0,0,0-29.657-69.411m25.9,69.351a88.772,88.772,0,0,1-6.837,32.97c-.023.045-2.209,4.914-2.93,6.327l-.038.083A147.447,147.447,0,0,0,342.781,179l-.007.113v.12c.007.436.015.879.015,1.315a95.889,95.889,0,0,1-.7,11.6l-.008.068a95.684,95.684,0,0,1-190.622-8.032l-.008-.12a227.376,227.376,0,0,1,5.515-66.444C164.5,85.5,182.927,42.234,227.889,17.356c.594-.331,1.195-.661,1.8-.984l.075-.038a88.844,88.844,0,0,1,16.215-7.581c1.157-.406,2.322-.789,3.471-1.135l.533-.008.21-.218a89.2,89.2,0,0,1,22.909-3.6c1.18-.038,2.359-.045,3.546-.03a89.6,89.6,0,0,1,88.136,89.33c0,.451,0,.894-.007,1.345" transform="translate(-36.599 0)" fill="#252626"/>
        <path id="Trazado_3035" data-name="Trazado 3035" d="M229.131,23.1a167.14,167.14,0,0,0-27.62,23.578,175.213,175.213,0,0,0-14.494,17.169A186.63,186.63,0,0,0,173.484,85.3a158.99,158.99,0,0,0-9.34,20.392,176.567,176.567,0,0,0-7.784,27,154.192,154.192,0,0,0-3.1,25.547,186.833,186.833,0,0,0,.954,28.7c1.856,16.906,7.874,36.284,14.389,52.37l.113.293A95.37,95.37,0,0,1,152.7,189.925l-.008-.12a227.376,227.376,0,0,1,5.515-66.444c7.536-32.121,25.96-75.385,70.922-100.263" transform="translate(-37.841 -5.743)" fill="#47ebfc"/>
        <path id="Trazado_3036" data-name="Trazado 3036" d="M311.755,87.794c-.624-.954-1.213-1.935-1.785-2.921a63.564,63.564,0,0,0-12.005-14.849l0,0h0C285.415,58.482,267.8,50.952,248.045,50.152c-18.841-.763-36.237,4.734-49.466,14.341v0l-.047.036c-4.3,3.128-11.434,8.889-14.756,12.812a138.409,138.409,0,0,0-38.306,81.39h.034c-.035.445-.07.89-.088,1.34a34.1,34.1,0,0,0,42.745,34.344h0a33.7,33.7,0,0,0,5.679-2.057,51.153,51.153,0,0,1,18.369-4.971,61.249,61.249,0,0,1,12.206.462c14.174,1.95,32.874,10.319,44.2,15.921,1.434.709,2.823,1.494,4.184,2.335a33.9,33.9,0,0,0,5.813,2.863l.015.009v0a34.075,34.075,0,0,0,45.311-24.438v0s21.373-45.471-12.183-96.743" transform="translate(-36.148 -12.452)" fill="#030202"/>
        <path id="Trazado_3037" data-name="Trazado 3037" d="M141.114,204.478a4.53,4.53,0,1,1-4.529-4.529,4.529,4.529,0,0,1,4.529,4.529" transform="translate(-32.833 -49.714)" fill="#e9e9ea"/>
        <path id="Trazado_3038" data-name="Trazado 3038" d="M136.212,209.762a5.657,5.657,0,1,1,5.656-5.657,5.663,5.663,0,0,1-5.656,5.657m0-9.059a3.4,3.4,0,1,0,3.4,3.4,3.406,3.406,0,0,0-3.4-3.4" transform="translate(-32.46 -49.341)" fill="#252626"/>
        <path id="Trazado_3039" data-name="Trazado 3039" d="M291.65,182.077c1.151-10.917,7.244-19.223,13.609-18.552s10.591,10.065,9.439,20.983-7.244,19.223-13.609,18.552-10.591-10.065-9.439-20.983" transform="translate(-72.466 -40.648)" fill="#eb5f4d"/>
        <path id="Trazado_3040" data-name="Trazado 3040" d="M198.618,175.175C196.779,184,191.4,190.346,186.6,189.347s-7.194-8.964-5.357-17.789,7.217-15.172,12.013-14.172,7.2,8.963,5.357,17.789" transform="translate(-44.91 -39.105)" fill="#eb5f4d"/>
        <g id="Grupo_3101" data-name="Grupo 3101" transform="translate(208.759 1.878)" opacity="0.2">
          <g id="Grupo_3100" data-name="Grupo 3100">
            <g id="Grupo_3099" data-name="Grupo 3099" clip-path="url(#clip-path-3)">
              <path id="Trazado_3041" data-name="Trazado 3041" d="M370.076,27.084c-11.2,9.4-30.085,13.442-49.981,9.3-20.039-4.17-35.833-15.553-42.257-28.785q1.893-.665,3.817-1.24c.008,0,.008-.008.015-.008a90.974,90.974,0,0,1,88.406,20.73" transform="translate(-277.838 -2.499)"/>
            </g>
          </g>
        </g>
        <path id="Trazado_3042" data-name="Trazado 3042" d="M143.18,139.371a39.987,39.987,0,0,0-3.584,8.013,83.709,83.709,0,0,0-2.679,8.76,87.359,87.359,0,0,0-2.543,17.632,82.33,82.33,0,0,0,.258,10.342c.085.948,1.565.969,1.5,0A91.492,91.492,0,0,1,140.345,149c.512-1.557,1.077-3.095,1.658-4.628.6-1.579,1.33-3.11,1.837-4.719.127-.4-.443-.612-.66-.278" transform="translate(-33.395 -34.611)" fill="#252626"/>
        <path id="Trazado_3043" data-name="Trazado 3043" d="M142.539,219.627c-.47-1.123-1.041-2.2-1.485-3.335q-.32-.824-.59-1.665c-.193-.6-.339-1.216-.582-1.8a.679.679,0,0,0-.734-.479.664.664,0,0,0-.58.657,14.375,14.375,0,0,0,.992,3.7c.225.616.476,1.221.748,1.818a12.949,12.949,0,0,0,.851,1.688.76.76,0,0,0,.943.309.746.746,0,0,0,.437-.891" transform="translate(-34.452 -52.794)" fill="#252626"/>
        <path id="Trazado_3044" data-name="Trazado 3044" d="M369.6,29.434a65.14,65.14,0,0,1-9.881,3.462c-3.413.757-6.893,1.362-10.346,1.912a84.223,84.223,0,0,1-20.654.762,81.864,81.864,0,0,1-36.463-12.423,86.547,86.547,0,0,1-8.722-6.256c-2.8-2.305-5.443-4.782-8.206-7.129-.842-.715-2.378.228-1.646,1.27,3.8,5.41,9.176,9.774,14.562,13.534a81.068,81.068,0,0,0,14.848,8.107c-.53.379-1.041.785-1.524,1.168a23.752,23.752,0,0,0-3.217,3.087,25.749,25.749,0,0,0-2.6,3.577,15.2,15.2,0,0,0-1.808,3.99.389.389,0,0,0,.708.3c.692-1.205,1.279-2.456,2.027-3.634a24,24,0,0,1,2.559-3.342,26.183,26.183,0,0,1,2.975-2.783c.561-.449,1.147-.868,1.748-1.262.238-.156.491-.3.742-.439.364.146.726.3,1.091.438A83.468,83.468,0,0,0,347.276,38.4a47.589,47.589,0,0,0,11.633-2.8c3.77-1.565,7.713-2.721,11.372-4.551.878-.439.255-1.981-.679-1.609" transform="translate(-67.999 -2.365)" fill="#252626"/>
        <g id="Grupo_3104" data-name="Grupo 3104" transform="translate(141.932)" opacity="0.22">
          <g id="Grupo_3103" data-name="Grupo 3103">
            <g id="Grupo_3102" data-name="Grupo 3102" clip-path="url(#clip-path-4)">
              <path id="Trazado_3045" data-name="Trazado 3045" d="M378.694,99.488a92.164,92.164,0,0,1-6.935,29.409c-.113.248-2.232,4.967-3.013,6.507A143.553,143.553,0,0,0,356.9,179.276c.007.421.015.849.015,1.27a99.97,99.97,0,0,1-.714,11.939v1.766l-.225.008c-.188,1.345-.4,2.675-.639,4a.023.023,0,0,0-.008.015c-2.269,6-4.553,12.029-7.025,17.958a1.271,1.271,0,0,1-.1.233c-.579,1.405-1.165,2.8-1.773,4.185-2.066,4.741-4.283,9.407-6.717,13.93a84.23,84.23,0,0,1-7.732,11.819A99.436,99.436,0,0,1,188.9,252.587a9.981,9.981,0,0,1,1.931.894q2.649,1.6,5.387,3.028,2.288,1.195,4.643,2.269a25.666,25.666,0,0,0,3.126,1.277c.09.038.2.075.3.113,1.856.684,3.734,1.3,5.628,1.863a91.743,91.743,0,0,0,10.429,2.352c.173.03,1.5.233,2.036.323.473.06,1.383.173,1.51.18q2.682.293,5.365.443a106.213,106.213,0,0,0,10.827.053c2.021-.1,4.027-.24,6.041-.428,1.007-.1,2.006-.2,3.013-.323.15-.015.255-.03.353-.038.075-.015.15-.023.248-.038a109.916,109.916,0,0,0,21.189-5.252,115.121,115.121,0,0,0,16.876-7.153,102.04,102.04,0,0,0,9.122-5.29c1.383-.9,2.735-1.841,4.072-2.81.188-.128.308-.218.4-.278.045-.038.075-.068.128-.105.481-.383.962-.774,1.428-1.172a57.97,57.97,0,0,0,12.488-13.953,98.771,98.771,0,0,0,5.3-9.5c.759-1.533,1.488-3.088,2.194-4.651.353-.781.7-1.57,1.044-2.359.045-.09.5-1.187.5-1.187,11.451-27.417,22.631-55.8,27.763-85.16,2.1-12.059,2.945-29.356.684-41.273a91.056,91.056,0,0,0-2.878-11.2c-.466-1.45-.992-2.878-1.525-4.313-.09-.248-.165-.443-.225-.609-.255-.586-.511-1.172-.789-1.751a95.043,95.043,0,0,0-9.61-16.132c-.27-.376-.781-1.029-.917-1.21-.338-.421-.669-.842-1.014-1.262Q334.5,46.16,332.98,44.45q-3.054-3.449-6.342-6.695c-4.418-4.38-9.122-8.468-13.945-12.405q-2.153-1.758-4.358-3.471c-.5-.391-2.134-1.638-2.7-2.081q-3.426-2.615-6.905-5.162c-5.042-3.682-10.143-7.273-15.26-10.842-.188-.135-.368-.263-.556-.391A13.536,13.536,0,0,1,281.2,2,12.575,12.575,0,0,1,279.641.21c2.465-.165,4.944-.233,7.424-.2a92.468,92.468,0,0,1,56.4,20.107A124.721,124.721,0,0,1,365.019,47.05c9.49,16.252,13.374,34.2,13.675,52.438" transform="translate(-188.898 0)" fill="#252626"/>
            </g>
          </g>
        </g>
        <path id="Trazado_3046" data-name="Trazado 3046" d="M461.356,210.446c-3.827,21.757-24.185,36.359-45.472,32.615s-24.105-22.423-20.279-44.18,12.849-38.352,34.136-34.608,35.441,24.416,31.615,46.173" transform="translate(-98.001 -40.712)" fill="#bcbbbb"/>
        <path id="Trazado_3047" data-name="Trazado 3047" d="M421.986,244.907a40.649,40.649,0,0,1-7.051-.618c-10.583-1.862-17.647-7.426-21-16.538-2.754-7.5-3.018-17.249-.808-29.817s5.786-21.645,10.934-27.752c6.256-7.422,14.793-10.242,25.377-8.381,22.274,3.918,37.139,25.607,33.14,48.348a42.053,42.053,0,0,1-16.943,27.071,40.44,40.44,0,0,1-23.653,7.686M423.318,165a20.363,20.363,0,0,0-16.381,7.608c-4.708,5.586-8.014,14.085-10.107,25.982s-1.885,21.014.635,27.871c2.893,7.874,8.82,12.5,18.118,14.132a36.6,36.6,0,0,0,27.864-6.42A38.317,38.317,0,0,0,458.882,209.5l1.85.325-1.85-.325c3.641-20.7-9.857-40.439-30.09-44a31.636,31.636,0,0,0-5.474-.506" transform="translate(-97.377 -40.091)" fill="#252626"/>
        <path id="Trazado_3048" data-name="Trazado 3048" d="M437.689,246.989c0,4.291-4.251,7.769-9.5,7.769s-9.5-3.478-9.5-7.769,4.252-7.769,9.5-7.769,9.5,3.478,9.5,7.769" transform="translate(-104.101 -59.478)" fill="#e9e9ea"/>
        <path id="Trazado_3049" data-name="Trazado 3049" d="M427.821,255.513c-5.858,0-10.624-3.991-10.624-8.9s4.765-8.9,10.624-8.9,10.623,3.991,10.623,8.9-4.765,8.9-10.623,8.9m0-15.539c-4.616,0-8.369,2.98-8.369,6.642s3.754,6.643,8.369,6.643,8.369-2.98,8.369-6.643-3.754-6.642-8.369-6.642" transform="translate(-103.728 -59.105)" fill="#252626"/>
        <path id="Trazado_3050" data-name="Trazado 3050" d="M440.594,167.257a29.628,29.628,0,0,0-1.8,4.9q-.822,2.542-1.552,5.11c-.991,3.478-1.83,7.006-2.513,10.557a143.048,143.048,0,0,0-2.564,21.326c-.159,4.03-.152,8.067-.022,12.1a1,1,0,0,0,2.008,0,161.492,161.492,0,0,1,4.879-41.827c.473-1.9.957-3.8,1.489-5.681a56.949,56.949,0,0,0,1.655-5.816c.153-.9-1.081-1.591-1.577-.665" transform="translate(-107.419 -41.476)" fill="#252626"/>
        <path id="Trazado_3051" data-name="Trazado 3051" d="M431.219,263.913a24.189,24.189,0,0,0-.1-3.106.824.824,0,0,0-1.578,0,24.182,24.182,0,0,0-.1,3.106c-.013,1,0,2.006,0,3.009a.889.889,0,1,0,1.778,0c0-1,.013-2.006,0-3.009" transform="translate(-106.771 -64.699)" fill="#252626"/>
        <path id="Trazado_3052" data-name="Trazado 3052" d="M461.768,185.479a23.906,23.906,0,0,0-9.857-8.64c-.333-.156-.623.313-.293.5a26.209,26.209,0,0,1,9.1,8.752,25.353,25.353,0,0,1,2.678,5.659,30.424,30.424,0,0,1,1.183,6.276.617.617,0,0,0,1.232,0,23.506,23.506,0,0,0-4.042-12.549" transform="translate(-112.25 -43.96)" fill="#252626"/>
        <path id="Trazado_3053" data-name="Trazado 3053" d="M376.941,28.153a2.11,2.11,0,0,0-1.732.3c-.73.364-1.466.715-2.205,1.061q-2.032.949-4.127,1.755a66.451,66.451,0,0,1-8.74,2.682,73.681,73.681,0,0,1-17.974,1.821,74.835,74.835,0,0,1-10.509-.956c-.032-.005-.047.042-.014.051a65.891,65.891,0,0,0,36.641-1.471q2.56-.826,5.048-1.855c.785-.325,1.564-.662,2.334-1.022s1.505-.623,1.771-1.5a.719.719,0,0,0-.492-.866" transform="translate(-82.451 -6.978)" fill="#252626"/>
        <path id="Trazado_3054" data-name="Trazado 3054" d="M327.751,35.125a.451.451,0,0,0-.068-.129c0-.011-.008-.022-.013-.033l-.051-.122a.39.39,0,0,0-.131-.144.26.26,0,0,0-.113-.065.387.387,0,0,0-.2-.044l-.136.018-.122.052a.572.572,0,0,0-.235.305l-.011.031a.457.457,0,0,0-.038.061.6.6,0,0,0,.542.822l.158-.021a.59.59,0,0,0,.262-.153l.092-.12a.583.583,0,0,0,.081-.3c-.007-.053-.014-.105-.021-.158" transform="translate(-81.199 -8.6)" fill="#252626"/>
        <path id="Trazado_3055" data-name="Trazado 3055" d="M302.49,303.166a7.811,7.811,0,0,0-1.538-4.449,15.34,15.34,0,0,0-3.069-3.609,12.708,12.708,0,0,0-8.414-3.383c-.552,0-.63.871-.14,1.046a20.656,20.656,0,0,1,6.572,3.66,22.463,22.463,0,0,1-10.279,4.187c-.155.02-.312.029-.467.047a1.648,1.648,0,0,0-.957.1,29.97,29.97,0,0,1-10.389-1.111A42.46,42.46,0,0,1,265,296c-.216-.3-.428-.6-.666-.884a.64.64,0,0,0-.9-.019c-.914-.554-1.815-1.136-2.7-1.758-4.2-2.961-7.859-6.65-12.177-9.43a.2.2,0,0,0-.275.269,50.235,50.235,0,0,0,8.946,8.973,67.063,67.063,0,0,0,7.079,5.124c.576,1.343,1.246,2.651,1.883,3.966,1.044,2.153,2.065,4.32,3.152,6.453.143.28.291.564.442.848a5.786,5.786,0,0,0,2.153,3.363,6.975,6.975,0,0,0,6.082,2.957c3.534-.246,6.405-2.849,8.8-5.211a63.342,63.342,0,0,0,8.624-10.221,17.909,17.909,0,0,0,2.452-1.9,16.92,16.92,0,0,1,1,1.415c.737,1.174,1.081,2.544,1.895,3.664a.956.956,0,0,0,1.7-.443" transform="translate(-61.723 -70.58)" fill="#252626"/>
        <path id="Trazado_3056" data-name="Trazado 3056" d="M259.1,334.867a136.3,136.3,0,0,1-8.038-19.534,75.949,75.949,0,0,1-3.072-9.911c-.662-3.453-1.567-6.855-2.237-10.307a162.639,162.639,0,0,1-2.383-41.675c.261-3.929.639-7.855,1.169-11.757.523-3.851,1.265-7.681,1.685-11.543.046-.423-.588-.463-.709-.1a63.214,63.214,0,0,0-2.266,10.267c-.539,3.484-.979,6.988-1.264,10.5a146.9,146.9,0,0,0-.24,21.23,178.683,178.683,0,0,0,2.6,20.737,197.678,197.678,0,0,0,5.214,20.581c2.248,7.59,5.526,14.757,8.847,21.916.217.467.944.058.7-.409" transform="translate(-60.038 -57.134)" fill="#252626"/>
        <path id="Trazado_3057" data-name="Trazado 3057" d="M361.324,49.1a.026.026,0,0,0,0,.053.026.026,0,0,0,0-.053" transform="translate(-89.83 -12.209)" fill="#252626"/>
        <path id="Trazado_3058" data-name="Trazado 3058" d="M418.241,117.025a149.445,149.445,0,0,1-22.484-1.881c-3.139-.506-6.285-1.417-7.59-4.627-1.15-2.828-1.044-6.106-1.4-9.1a99.668,99.668,0,0,0-11.56-36.35,95.251,95.251,0,0,0-5.652-9.059A54.69,54.69,0,0,0,362.7,47.62c-.4-.373-1.135.127-.788.609,1.917,2.67,4.04,5.187,5.935,7.878s3.658,5.491,5.291,8.356a99.2,99.2,0,0,1,8.012,18.024,98.128,98.128,0,0,1,4.408,19.4c.341,2.965.285,6.15,1.4,8.962s3.411,4.322,6.249,5.076a77.237,77.237,0,0,0,12.108,1.891q6.446.639,12.93.687a.74.74,0,0,0,0-1.479" transform="translate(-89.96 -11.807)" fill="#252626"/>
        <path id="Trazado_3059" data-name="Trazado 3059" d="M430.774,130.874a2.632,2.632,0,0,0-2.4-1.882,2.912,2.912,0,0,0-2.86,1.588.594.594,0,0,0,.09.662c-.056.089-.11.181-.167.27-.032.049-.067.093-.094.144-.017.033-.032.075-.046.108s-.017.039-.022.051a1.568,1.568,0,0,0,.02,1.129,2.751,2.751,0,0,0,1.539,1.531,3.3,3.3,0,0,0,1.778.179,2.732,2.732,0,0,0,1.405-.8,3.181,3.181,0,0,0,.762-2.975m-1.17,1.011c0,.023-.008.057-.011.071-.009.045-.019.09-.03.134-.023.09-.05.178-.082.264-.007.019-.029.065-.035.08-.017.035-.033.07-.052.1a2.573,2.573,0,0,1-.143.234c-.02.028-.118.143-.01.017-.029.035-.058.07-.089.1-.061.067-.128.127-.195.189a1.4,1.4,0,0,1-.126.083c-.04.022-.08.041-.121.062h0l-.01,0c-.092.026-.181.052-.274.074l-.013,0H428.4c-.052,0-.1.006-.156.005s-.1,0-.148-.008l-.076-.014c-.05-.011-.1-.025-.15-.039l-.1-.032-.008,0c-.036-.021-.083-.054-.095-.062-.029-.019-.058-.039-.086-.059l.077.061c-.05,0-.316-.258-.388-.3l-.026-.022c-.053-.047-.105-.1-.155-.147s-.073-.077-.107-.117l-.026-.032-.006-.009-.086-.133a1.485,1.485,0,0,0-.138-.184c-.024-.041-.181-.259-.2-.283a1.883,1.883,0,0,0-.231-.279c-.026-.035-.051-.072-.08-.105,0,0-.031-.037-.044-.05a.49.49,0,0,1-.041-.1.483.483,0,0,0,.335-.253,2.049,2.049,0,0,1,.132-.239c.007-.011.038-.055.047-.068s.037-.044.056-.066c.06-.066.127-.125.193-.186.01-.008.006-.007.011-.012a.146.146,0,0,0,.014-.008c.05-.033.1-.068.15-.1.067-.041.136-.074.206-.108l.062-.027c.042-.016.086-.03.129-.044.072-.022.146-.041.22-.057.045-.01.09-.017.134-.025-.163.032.033,0,.068-.005.091-.007.183-.008.273-.006.045,0,.091,0,.136.008.012,0,.035.005.056.009.076.014.152.028.226.049.043.012.086.026.128.04.022.007.093.038.111.044.063.032.126.062.186.1.035.021.067.044.1.067.062.061.13.115.189.18.011.012.038.05.051.066.023.035.047.068.069.1s.044.079.065.119c.006.011.016.035.024.056.025.071.05.143.068.216.011.044.018.089.029.133l0,.009v0a3.027,3.027,0,0,1,.011.319c0,.057-.008.113-.014.171" transform="translate(-105.712 -32.069)" fill="#252626"/>
        <path id="Trazado_3060" data-name="Trazado 3060" d="M425.3,132.752v0c-.011.027-.02.048,0,0" transform="translate(-105.74 -33.006)" fill="#252626"/>
        <path id="Trazado_3061" data-name="Trazado 3061" d="M425.307,132.725l0,.011c.013-.032.029-.068,0-.011" transform="translate(-105.744 -32.992)" fill="#252626"/>
        <g id="Grupo_3107" data-name="Grupo 3107" transform="translate(118.422 156.885)" opacity="0.22">
          <g id="Grupo_3106" data-name="Grupo 3106">
            <g id="Grupo_3105" data-name="Grupo 3105" clip-path="url(#clip-path-5)">
              <path id="Trazado_3062" data-name="Trazado 3062" d="M322.266,223.9c-.648-11.96-17.778-14.97-21.256-2.877-.376,1.307-.823,2.617-1.125,3.943-.153.422-.247.7-.292.846-.2.4-.391.807-.613,1.2-.3.517-.62,1.016-.954,1.508l-.335.391c-.289.282-2.538,2.165-2.079,1.942-.6.39-1.219.754-1.849,1.1.962-.569-1.96.7-2.505.814a14.524,14.524,0,0,1-6.482-.511c-5.894-1.571-10.749-4.677-16.374-7.933a164.243,164.243,0,0,0-19.95-10.062c-14.163-5.8-29.15-6.865-43.7-1.809-5.825,2.023-12.681,5.328-18.316,5.536q-1.372.068-2.743,0-2.463-.186-.565-.059a20.289,20.289,0,0,1-2.059-.562q1.387.715-.349-.151a17.967,17.967,0,0,1-1.549-.922c-.125-.115-.292-.265-.509-.46-.176-.194-.311-.343-.422-.463a17.794,17.794,0,0,1-.929-1.581c-5.659-10.215-22.976-3.345-19.151,8.074,4.58,13.674,18.97,19.4,32.472,17.633,12.782-1.672,22.616-6.805,35.259-5.627a86.35,86.35,0,0,1,33.64,10.98c11.566,6.688,24.5,12.637,38.145,9.245,12.846-3.193,25.343-16.355,24.594-30.195" transform="translate(-157.609 -208.799)" fill="#252626"/>
            </g>
          </g>
        </g>
        <path id="Trazado_3063" data-name="Trazado 3063" d="M187.558,176.289a11.248,11.248,0,0,1,2.717,5.421,16.524,16.524,0,0,1,.461,2.866,6.865,6.865,0,0,1-.148,2.821c-.075.2-.474.213-.542,0a18.837,18.837,0,0,1-.355-2.625,21.74,21.74,0,0,0-.691-2.894c-.564-1.826-1.561-3.542-2.158-5.357-.116-.355.458-.491.716-.233" transform="translate(-46.451 -43.798)" fill="#fff"/>
        <path id="Trazado_3064" data-name="Trazado 3064" d="M307.083,202.526a7.468,7.468,0,0,0,1.966-2.562,22.642,22.642,0,0,0,1.327-3.07,22.169,22.169,0,0,0,.863-3.065,12.153,12.153,0,0,0,.363-3.2.668.668,0,0,0-1.254-.142c-.382.986-.594,2.034-.911,3.038-.308.979-.649,1.957-1.022,2.92s-.819,1.908-1.246,2.859a10.288,10.288,0,0,0-1.037,2.9c-.049.435.623.571.952.33" transform="translate(-76.113 -47.266)" fill="#fff"/>
        <path id="Trazado_3065" data-name="Trazado 3065" d="M318.6,148.724a.32.32,0,0,0-.612,0,38.126,38.126,0,0,1-1.21,4.763,12.2,12.2,0,0,1-11.533,8.009.626.626,0,0,0,0,1.251,12.687,12.687,0,0,0,10.208-3.808,12.436,12.436,0,0,0,2.9-4.688,8.506,8.506,0,0,0,.246-5.527" transform="translate(-75.743 -36.921)" fill="#eb5f4d"/>
        <path id="Trazado_3066" data-name="Trazado 3066" d="M324.965,160.349a.646.646,0,0,0-.944-.384,4.744,4.744,0,0,0-1.119,1.591,12.967,12.967,0,0,1-1.129,1.585,11.3,11.3,0,0,1-3.129,2.653,11.778,11.778,0,0,1-4.172,1.413,14.157,14.157,0,0,1-2.214.092,10.58,10.58,0,0,0-2.226-.069.345.345,0,0,0-.151.574,4.285,4.285,0,0,0,2.2.772,10.631,10.631,0,0,0,2.462.088A12.133,12.133,0,0,0,319.4,167.3a12.59,12.59,0,0,0,3.556-2.823,11.37,11.37,0,0,0,1.373-1.96,3.475,3.475,0,0,0,.64-2.165" transform="translate(-77.021 -39.75)" fill="#eb5f4d"/>
        <path id="Trazado_3067" data-name="Trazado 3067" d="M327.1,172.672a7.43,7.43,0,0,0-3.129.6,14.964,14.964,0,0,1-3.237.53,19.673,19.673,0,0,1-6.6-1.023c-.562-.173-.818.6-.38.9a11.89,11.89,0,0,0,6.985,1.921,14.657,14.657,0,0,0,3.629-.5c1.061-.3,2.493-.772,2.973-1.84a.4.4,0,0,0-.237-.582" transform="translate(-77.953 -42.921)" fill="#eb5f4d"/>
        <path id="Trazado_3068" data-name="Trazado 3068" d="M195.528,156.066a6.2,6.2,0,0,0-1.375-1.1,11.62,11.62,0,0,1-1.263-1.1,11.444,11.444,0,0,1-1.978-2.685,12.728,12.728,0,0,1-1.065-3.063,12.108,12.108,0,0,1-.3-1.588,12.431,12.431,0,0,0-.189-1.8.624.624,0,0,0-1.126-.147,6.319,6.319,0,0,0-.564,3.752,10.486,10.486,0,0,0,1.274,3.908,11.059,11.059,0,0,0,3.972,4.275,3.941,3.941,0,0,0,1.935.739c.538-.032,1.061-.669.681-1.188" transform="translate(-46.647 -35.875)" fill="#eb5f4d"/>
        <path id="Trazado_3069" data-name="Trazado 3069" d="M190.643,159.731a9.892,9.892,0,0,1-1.284.011,3.834,3.834,0,0,1-1.126-.178c-.212-.055-.425-.1-.633-.171-.086-.029-.173-.06-.258-.093-.014-.008-.188-.084-.19-.085a5.511,5.511,0,0,1-.568-.325c-.078-.052-.156-.107-.231-.163-.02-.02-.15-.131-.15-.131a5.75,5.75,0,0,1-.449-.459c-.071-.08-.141-.159-.21-.241-.03-.036-.041-.047-.047-.053s-.015-.027-.043-.071a8.776,8.776,0,0,1-.636-1.11c-.1-.223-.259-.679-.379-1.017a2.781,2.781,0,0,1-.113-.575c-.029-.231-.106-.448-.157-.675a.481.481,0,0,0-.869-.113,4.285,4.285,0,0,0-.284,3.139,5.563,5.563,0,0,0,1.686,2.752,6.181,6.181,0,0,0,2.957,1.47,5.753,5.753,0,0,0,1.7.017,4.654,4.654,0,0,0,1.653-.567c.607-.328.366-1.439-.369-1.361" transform="translate(-45.462 -38.303)" fill="#eb5f4d"/>
        <path id="Trazado_3070" data-name="Trazado 3070" d="M185.2,166.2a.881.881,0,0,0-.816-.621c-.5-.029-1-.029-1.493-.071-.048,0-.452-.047-.177-.014-.192-.023-.381-.05-.573-.067l-.04,0-.038-.008c-.122-.022-.246-.041-.368-.066-.491-.1-.961-.279-1.455-.367.116.021-.578-.085-.283-.027a1.4,1.4,0,0,0-.69-.047.94.94,0,0,0-.709.885,1,1,0,0,0,.286.719,2.65,2.65,0,0,0,.271.2c.1.068.1.068.021,0a4.077,4.077,0,0,0,.687.442,6.432,6.432,0,0,0,1.851.433,5.926,5.926,0,0,0,1.4.018,8.029,8.029,0,0,0,.917-.134,4.439,4.439,0,0,0,.814-.317.848.848,0,0,0,.389-.956" transform="translate(-44.395 -40.994)" fill="#eb5f4d"/>
        <g id="Grupo_3110" data-name="Grupo 3110" transform="translate(134.507 50.361)" opacity="0.57">
          <g id="Grupo_3109" data-name="Grupo 3109">
            <g id="Grupo_3108" data-name="Grupo 3108" clip-path="url(#clip-path-6)">
              <path id="Trazado_3071" data-name="Trazado 3071" d="M292.569,73.442c-.313-.13-.63-.25-.946-.376-.008-.171-.131-.333-.415-.372l-.469-.066a.319.319,0,0,0-.228-.361c-.574-.257-1.173-.492-1.784-.714a2.152,2.152,0,0,0-.478-.2c-.123-.035-.25-.059-.374-.092-1.4-.467-2.842-.872-4.271-1.235-2.383-.607-4.878-1.041-7.342-1.435a2.007,2.007,0,0,0-.944-.194c-.089,0-.178.007-.267.009a123.691,123.691,0,0,0-14.042-1.322,103.024,103.024,0,0,0-30.225,3.448A86.493,86.493,0,0,0,205.559,81.7a63.258,63.258,0,0,0-17.123,16.216,59.484,59.484,0,0,0-6.374,11.63,1.077,1.077,0,0,0-.056.1c-.02.059-.038.118-.057.177a43.922,43.922,0,0,0-1.738,5.384q-.557,1.771-1.109,3.543a.778.778,0,0,0-.035.216c-.227.588.325,1.4,1.342,1.424,3.755.1,7.511.028,11.268.147s7.5.358,11.228.714a1.775,1.775,0,0,0,1.7-.936c4.051-9.851,11.219-18.987,20.683-26.635a99.1,99.1,0,0,1,31.5-16.925,131.4,131.4,0,0,1,21.549-2.337c2.256-.069,4.513-.135,6.771-.107a62.57,62.57,0,0,1,6.8.276c.915.112,1.573-.769.666-1.146" transform="translate(-179.016 -67.026)" fill="#fff"/>
            </g>
          </g>
        </g>
        <path id="Trazado_3072" data-name="Trazado 3072" d="M268.5,355.1a3.011,3.011,0,0,0-2.874.6,2.361,2.361,0,0,0-.349.422c-.393.041-.658.473-.73.831a2.865,2.865,0,0,0,.226,1.829,3.049,3.049,0,0,0,1.151,1.261,3.105,3.105,0,0,0,1.517.52,2.588,2.588,0,0,0,1.531-.439,3.176,3.176,0,0,0,1.39-2.739A2.545,2.545,0,0,0,268.5,355.1m-.491,4.625a1.6,1.6,0,0,1-1.309-.24,1.721,1.721,0,0,1-.412-.459,2.757,2.757,0,0,1-.182-.322c-.027-.056-.051-.113-.077-.171l-.034-.074-.008-.022a5.478,5.478,0,0,1-.17-.714s-.008-.066-.011-.11c0-.06,0-.121,0-.182s.008-.106.011-.159c.008-.034.014-.069.02-.1a2.482,2.482,0,0,0,.042-.472.665.665,0,0,0-.061-.25,2.336,2.336,0,0,1,2.277-.711,1.836,1.836,0,0,1,1.525,1.925,2.333,2.333,0,0,1-1.609,2.063" transform="translate(-65.76 -88.256)" fill="#252626"/>
        <g id="Grupo_3113" data-name="Grupo 3113" transform="translate(101.218 100.522)" opacity="0.22">
          <g id="Grupo_3112" data-name="Grupo 3112">
            <g id="Grupo_3111" data-name="Grupo 3111" clip-path="url(#clip-path-7)">
              <path id="Trazado_3073" data-name="Trazado 3073" d="M147.856,134.815a4.038,4.038,0,0,0-4.624,1.846c-5.086,8.974-7.337,20.108-8.189,30.284-.842,10.051-.227,21.842,3.621,31.282.051.125.118.229.176.346.126.675.262,1.345.413,2.009.948,4.18,7.077,3.057,7.241-.98.42-10.311-.241-20.439,1.159-30.741a140.125,140.125,0,0,1,7.508-29.59c1.688-4.572-4.2-7-7.306-4.455" transform="translate(-134.712 -133.785)" fill="#252626"/>
            </g>
          </g>
        </g>
        <g id="Grupo_3116" data-name="Grupo 3116" transform="translate(311.428 120.876)" opacity="0.22">
          <g id="Grupo_3115" data-name="Grupo 3115">
            <g id="Grupo_3114" data-name="Grupo 3114" clip-path="url(#clip-path-8)">
              <path id="Trazado_3074" data-name="Trazado 3074" d="M464.648,192.453c-3.261-9.938-10.99-19.829-19.486-25.873-7.967-5.668-20.824-8.171-29.438-2.5-2.48,1.632-.977,6.179,2.135,5.064a21.023,21.023,0,0,1,11.24-1.051,125.345,125.345,0,0,0-4.359,23.587,120.136,120.136,0,0,0-.35,13.992c.1,4.668-.292,9.432.637,14.036.636,3.154,5.145,2.183,5.339-.723.295-4.419-.424-8.876-.192-13.313.231-4.417.766-8.9,1.265-13.295a211.543,211.543,0,0,1,3.906-22,32.739,32.739,0,0,1,6.361,4.6c6.145,5.572,12.284,13.611,14.236,21.789,4.191,17.552-10.368,33.307-24.507,41.169-3.407,1.895-.411,6.535,2.975,5.089,9.838-4.2,18.665-9.855,24.927-18.821,6.3-9.018,8.784-21.166,5.313-31.745" transform="translate(-414.481 -160.875)" fill="#252626"/>
            </g>
          </g>
        </g>
        <path id="Trazado_3075" data-name="Trazado 3075" d="M259.9,369.9c-2.14,2.364-3.392,5.649-4.48,8.611a44.709,44.709,0,0,0-2.323,9.723.625.625,0,0,0,.311.542.436.436,0,0,0,.482.063.625.625,0,0,0,.438-.438,56.172,56.172,0,0,1,2.3-9.387,48.049,48.049,0,0,1,1.811-4.578c.65-1.428,1.378-2.8,1.889-4.287a.257.257,0,0,0-.427-.249" transform="translate(-62.926 -91.951)" fill="#252626"/>
        <path id="Trazado_3076" data-name="Trazado 3076" d="M303,514.555a55.132,55.132,0,0,0-4.681,3.055q-2.386,1.608-4.9,3.013a74.993,74.993,0,0,1-10.434,4.843,88.217,88.217,0,0,1-21.991,5.058,93.444,93.444,0,0,1-24.525-.857c0-.014,0-.024,0-.038a210.789,210.789,0,0,1-5.545-44.867q-.05-3.169,0-6.339.023-1.63.037-3.259a8.048,8.048,0,0,0-.279-2.955c-.057-.159-.316-.24-.4-.053-.713,1.553-.565,3.5-.606,5.181-.047,1.931-.051,3.864-.037,5.8q.042,5.705.393,11.4a212.842,212.842,0,0,0,2.652,22.645q1.05,6.168,2.47,12.265a114.683,114.683,0,0,1-20.477-5.679,134.548,134.548,0,0,1-12.558-5.492c-1.976-.987-3.973-1.966-5.912-3.024a40.611,40.611,0,0,0-5.954-3.067c-.231-.081-.391.236-.231.4a23.79,23.79,0,0,0,4.941,3.484c1.758,1.052,3.5,2.111,5.314,3.064,3.589,1.884,7.26,3.611,11.017,5.132a108.605,108.605,0,0,0,23.655,6.707c15.405,2.45,31.239,1.729,46.022-3.492a86.879,86.879,0,0,0,11.821-5.17c1.923-1.021,3.8-2.128,5.632-3.3a24.581,24.581,0,0,0,5.014-3.894.354.354,0,0,0-.427-.553" transform="translate(-47.226 -117.366)" fill="#252626"/>
        <path id="Trazado_3077" data-name="Trazado 3077" d="M228.16,558.521q-1.576-3.609-3.191-7.2c-.5-1.122-.966-2.274-1.53-3.368a4.814,4.814,0,0,0-2-2.2,2.8,2.8,0,0,0-4.164,2.386,4.868,4.868,0,0,0,.956,2.985c.321.488.681.951,1.039,1.412a7.9,7.9,0,0,0,1.242,1.455.672.672,0,0,0,1.051-.811c-.792-1.564-2.752-2.854-2.733-4.779.007-.645.328-1.388,1.055-1.44a2.237,2.237,0,0,1,1.883,1.277,20.653,20.653,0,0,1,1.155,2.434l1.246,2.812q1.295,2.924,2.622,5.833c.424.932,1.771.122,1.368-.8" transform="translate(-54.019 -135.607)" fill="#252626"/>
        <path id="Trazado_3078" data-name="Trazado 3078" d="M243.538,563.132a37.682,37.682,0,0,0-1.078-3.8l-1.147-3.777c-.57-1.877-1.029-4.93-3.394-5.335a2.4,2.4,0,0,0-2.383,1.128,4.734,4.734,0,0,0-.523,3.072A13.673,13.673,0,0,0,237.089,561c.294.418,1.077.182.885-.373a26.159,26.159,0,0,1-1.567-5.545,5.419,5.419,0,0,1,.11-2.753,1.076,1.076,0,0,1,1.807-.438,5.166,5.166,0,0,1,1.044,2.413q.463,1.536.926,3.071a61.934,61.934,0,0,0,1.92,6.123.688.688,0,0,0,1.325-.365" transform="translate(-58.421 -136.795)" fill="#252626"/>
        <path id="Trazado_3079" data-name="Trazado 3079" d="M261.658,556.444c-.7-1.691-2.531-1.923-3.969-.99a10.423,10.423,0,0,0-3.247,3.925,13.446,13.446,0,0,0-1.078,2.73c-.214.8-.53,2-.079,2.748a.426.426,0,0,0,.664.086,6.421,6.421,0,0,0,.826-2.445,12.46,12.46,0,0,1,1.038-2.529,11.845,11.845,0,0,1,1.579-2.23c.507-.56,1.232-1.371,2.057-1.354.748.015.933.849.984,1.455a16.583,16.583,0,0,1-.1,2.927,28.421,28.421,0,0,1-1.318,6.156c-.311.942,1.152,1.329,1.477.407a26.445,26.445,0,0,0,1.5-8.663,5.73,5.73,0,0,0-.332-2.222" transform="translate(-62.917 -137.968)" fill="#252626"/>
        <path id="Trazado_3080" data-name="Trazado 3080" d="M282.21,555.007a2.144,2.144,0,0,0-1.707-1.214,2.91,2.91,0,0,0-2.065.773,9.282,9.282,0,0,0-1.572,1.824q-.736,1.019-1.367,2.108a22.284,22.284,0,0,0-1.247,2.564,6.282,6.282,0,0,0-.768,2.676c.027.345.483.625.751.311a6.758,6.758,0,0,0,.9-1.8q.415-.959.911-1.881a28.507,28.507,0,0,1,2.22-3.546c.449-.6,1.885-2.46,2.654-1.291a2.058,2.058,0,0,1,.008,1.738,17.6,17.6,0,0,1-.83,2.046c-.718,1.545-1.566,3.024-2.413,4.5a.678.678,0,0,0,1.171.685c.9-1.552,1.794-3.106,2.539-4.737.646-1.416,1.578-3.213.816-4.757" transform="translate(-67.995 -137.688)" fill="#252626"/>
        <path id="Trazado_3081" data-name="Trazado 3081" d="M298.666,553.009a1.52,1.52,0,0,0-1.729-.8,4.332,4.332,0,0,0-1.813,1.047,15.181,15.181,0,0,0-2.893,3.164,13.5,13.5,0,0,0-1.177,2.078c-.175.387-.337.78-.482,1.18a2.819,2.819,0,0,0-.286,1.214c.036.335.482.636.751.312a6.938,6.938,0,0,0,.742-1.63,16.79,16.79,0,0,1,.852-1.609,14.172,14.172,0,0,1,2.271-2.889,13.16,13.16,0,0,1,1.358-1.171c.231-.171.909-.708,1.222-.458s-.1.988-.227,1.239q-.49.987-1.027,1.951c-.381.685-.778,1.361-1.171,2.04q-.312.541-.639,1.073c-.2.328-.487.676-.329,1.079a.422.422,0,0,0,.391.3c.435,0,.645-.335.871-.661q.356-.514.7-1.037c.472-.718.9-1.458,1.313-2.213.388-.713.78-1.433,1.112-2.174a2.472,2.472,0,0,0,.191-2.035" transform="translate(-72.172 -137.289)" fill="#252626"/>
        <path id="Trazado_3082" data-name="Trazado 3082" d="M169.935,410.122c-.31-.635-1.225-.806-1.83-1.089q-1.079-.5-2.123-1.076a41.485,41.485,0,0,1-4.129-2.607,36.627,36.627,0,0,1-3.74-3.057c-1.192-1.11-2.262-2.338-3.436-3.465-.4-.383-1.1.113-.785.606a27.991,27.991,0,0,0,7.039,7,35.041,35.041,0,0,0,4.22,2.7q1.1.6,2.238,1.126c.638.3,1.517.908,2.224.656a.547.547,0,0,0,.321-.789" transform="translate(-38.243 -99.127)" fill="#252626"/>
        <path id="Trazado_3083" data-name="Trazado 3083" d="M378.228,436.813a2.962,2.962,0,0,0-2.584-2.544,2.652,2.652,0,0,0-2.108.634,2.476,2.476,0,0,0-.655.827,1.426,1.426,0,0,0-.139.814c-.024.092-.045.184-.059.273a2.656,2.656,0,0,0,.353,1.9,2.89,2.89,0,0,0,3.373,1.111,2.935,2.935,0,0,0,1.82-3.012m-1.156.455c0,.01-.021.118-.021.119a2.335,2.335,0,0,1-.1.331c-.01.02-.047.1-.047.1-.027.055-.057.108-.089.161-.021.035-.044.068-.066.1a.328.328,0,0,0-.023.042.231.231,0,0,0-.03.032,1.543,1.543,0,0,1-.459.394,1.628,1.628,0,0,1-.508.177l-.033.008h-.042l-.122.007c-.061,0-.122,0-.183,0-.041,0-.081,0-.122-.008l-.015,0c-.1-.02-.2-.042-.3-.072-.055-.017-.11-.036-.164-.058l-.026-.014a2.976,2.976,0,0,1-.313-.186c.023.016.075.068-.017-.014-.061-.054-.12-.108-.175-.168a1.435,1.435,0,0,1-.267-.453,3.2,3.2,0,0,1-.1-.382c0-.014-.009-.055-.012-.076a2.081,2.081,0,0,1-.012-.216c0-.041,0-.081,0-.122s.005-.076.009-.113l.005-.035a2.756,2.756,0,0,1,.083-.309c.034-.049.065-.1.1-.15l.01-.014a3.324,3.324,0,0,1,.283-.316c.03-.029.061-.055.091-.083a.135.135,0,0,0,.026-.028.178.178,0,0,0,.029-.016c.086-.056.17-.112.261-.16.055-.029.11-.053.166-.079l.076-.035c.031-.011.1-.038.1-.037.078-.026.157-.041.236-.062l.023-.006c.057-.007.115-.01.173-.011s.124,0,.186.005h.028a1.347,1.347,0,0,1,.6.244,1.74,1.74,0,0,1,.686.841,2,2,0,0,1,.069.276c0,.022.012.11.012.111,0,.061,0,.122,0,.183,0,.029,0,.059-.008.089" transform="translate(-92.65 -107.966)" fill="#252626"/>
        <path id="Trazado_3084" data-name="Trazado 3084" d="M115.985,358.637c-10.018-9.271-20.005-18.63-29.786-28.208a358.274,358.274,0,0,1-26.7-29.064c-2.35-2.87-4.652-5.786-6.942-8.711s-4.4-6.03-6.78-8.84c-.268-.316-.763.058-.541.432,1.668,2.806,3.709,5.4,5.626,8.013q2.912,3.963,5.967,7.792,6.155,7.723,12.721,15.04C78.587,325.149,88.27,334.4,98.04,343.565c5.686,5.335,11.408,10.627,17.052,16.017a.65.65,0,1,0,.893-.944" transform="translate(-11.234 -70.535)" fill="#252626"/>
        <g id="Grupo_3119" data-name="Grupo 3119" transform="translate(38.946 210.572)" opacity="0.34">
          <g id="Grupo_3118" data-name="Grupo 3118">
            <g id="Grupo_3117" data-name="Grupo 3117" clip-path="url(#clip-path-9)">
              <path id="Trazado_3085" data-name="Trazado 3085" d="M122.879,351.695c-10.453-12.941-21.18-25.667-31.807-38.464-4.785-5.762-9.532-11.564-14.589-17.091-4.956-5.417-10.392-11.6-16.888-15.175-5.262-2.9-10.264,3.658-6.381,8.115,4.8,5.5,10.594,10.176,15.5,15.625,5.029,5.587,9.794,11.407,14.6,17.185,10.476,12.592,20.864,25.266,31.51,37.715,4.759,5.565,12.564-2.328,8.056-7.91" transform="translate(-51.833 -280.251)" fill="#252626"/>
            </g>
          </g>
        </g>
        <g id="Grupo_3122" data-name="Grupo 3122" transform="translate(120.163 285.708)" opacity="0.34">
          <g id="Grupo_3121" data-name="Grupo 3121">
            <g id="Grupo_3120" data-name="Grupo 3120" clip-path="url(#clip-path-10)">
              <path id="Trazado_3086" data-name="Trazado 3086" d="M174.864,381.817c-7.557,7.584-15.142,19.357-14.933,30.493.1,5.618,7.378,6.025,9.27,1.255,1.736-4.377,2.636-8.862,4.873-13.068a47.38,47.38,0,0,1,8.286-11.183c4.807-4.852-2.672-12.338-7.5-7.5" transform="translate(-159.926 -380.25)" fill="#252626"/>
            </g>
          </g>
        </g>
        <path id="Trazado_3087" data-name="Trazado 3087" d="M207.992,369.457c-18.667,8.152-32.426,26.7-37.768,46.024-6.282,22.727-1.83,46.42,9.917,66.479a1.521,1.521,0,0,0,2.625-1.535c-10.213-19.07-14.166-42.756-8.1-63.718,5.507-19.024,18.224-34.1,35.409-43.682,2.38-1.326.289-4.605-2.086-3.568" transform="translate(-41.614 -91.809)" fill="#47ebfc"/>
        <path id="Trazado_3088" data-name="Trazado 3088" d="M352.889,413.2c.01,1.175,1.043,2.383,1.66,3.343.733,1.138,1.484,2.262,2.162,3.435a29.565,29.565,0,0,1,3.22,7.624,20.618,20.618,0,0,1,.508,7.544,19.456,19.456,0,0,1-2.785,7.325c-.3.533.341,1.253.852.775,3.942-3.685,4.5-10.427,3.446-15.405a30.167,30.167,0,0,0-3.2-8.284,41.268,41.268,0,0,0-2.368-3.8c-.681-.969-1.691-2.608-2.888-2.955a.462.462,0,0,0-.607.4" transform="translate(-87.739 -102.631)" fill="#47ebfc"/>
        <path id="Trazado_3089" data-name="Trazado 3089" d="M262.6,423.588a20.234,20.234,0,0,0-2.41-1.138,5.678,5.678,0,0,0-2.782-.631,8.4,8.4,0,0,0-4.344,1.4,15.91,15.91,0,0,0-2.427,1.893,7.7,7.7,0,0,0-.994-1.422,8.038,8.038,0,0,0-11.32-.872c-4.65,3.823-3.31,10.84-.011,15.03a34.057,34.057,0,0,0,7.7,6.554,1.47,1.47,0,0,0,.35.176,4.486,4.486,0,0,0,2.014,1.335,6.437,6.437,0,0,0,4.662-.358,30.835,30.835,0,0,0,8.586-5.658c2.552-2.268,5.039-4.955,5.52-8.473.476-3.479-1.587-6.274-4.55-7.838" transform="translate(-58.508 -104.652)" fill="#eb5f4d"/>
        <path id="Trazado_3090" data-name="Trazado 3090" d="M246.931,425.546a5.767,5.767,0,0,0-5.359,2.02c-1.322,1.518-2.021,3.9-.956,5.743a.318.318,0,0,0,.6-.122,8.07,8.07,0,0,1,1.5-4.783,6.449,6.449,0,0,1,4.274-2.04c.508-.051.354-.739-.059-.818" transform="translate(-59.695 -105.781)" fill="#fff"/>
        <g id="Grupo_3125" data-name="Grupo 3125" transform="translate(104.709 466.002)" opacity="0.53">
          <g id="Grupo_3124" data-name="Grupo 3124">
            <g id="Grupo_3123" data-name="Grupo 3123" clip-path="url(#clip-path-11)">
              <path id="Trazado_3091" data-name="Trazado 3091" d="M263.389,633.267c2.633-1.225,4.128-2.611,4.128-4.081,0-4.961-16.923-8.983-37.8-8.983-18.578,0-34.015,3.186-37.19,7.384-30.519,1.772-53.171,8.312-53.171,16.11,0,9.159,31.243,16.584,69.783,16.584s69.783-7.425,69.783-16.584c0-3.952-5.822-7.581-15.534-10.43" transform="translate(-139.357 -620.204)" fill="#bcbbbb"/>
            </g>
          </g>
        </g>
        <path id="Trazado_3092" data-name="Trazado 3092" d="M225.321,552.836c-.107-.131-.21-.264-.316-.4a28.008,28.008,0,0,1-1.6-2.328c-.2-.332-.4-.669-.6-1.005a3.426,3.426,0,0,0-.742-1.292c-.114-.174-.251-.331-.378-.5a1.461,1.461,0,0,0-.928-.444,1.544,1.544,0,0,0-1.03.192,1.7,1.7,0,0,0-.742,1.824,11.049,11.049,0,0,0,2.449,5.1,1.576,1.576,0,0,0,.755.432c.222.292.44.588.672.872a1.737,1.737,0,0,0,1.228.509,1.767,1.767,0,0,0,1.228-.509,1.744,1.744,0,0,0,.509-1.229,1.987,1.987,0,0,0-.509-1.228" transform="translate(-54.438 -135.966)" fill="#252626"/>
        <path id="Trazado_3093" data-name="Trazado 3093" d="M241.984,560.478c-.184-.449-.415-.857-.632-1.289-.084-.168-.161-.34-.243-.51l-.03-.062c-.005-.013-.008-.02-.014-.038a16.184,16.184,0,0,1-.657-2.086c-.083-.343-.161-.687-.222-1.035-.015-.085-.134-.7-.042-.233a4.5,4.5,0,0,1-.053-.492c-.077-.875-.014-2.158-.743-2.769a1.461,1.461,0,0,0-1.721-.222c-.959.642-1.065,1.924-1.006,2.991a16.015,16.015,0,0,0,.352,2.634,13.3,13.3,0,0,0,.7,2.147,10.2,10.2,0,0,0,1.428,2.643,1.726,1.726,0,0,0,2.885-1.679" transform="translate(-58.828 -137.132)" fill="#252626"/>
        <path id="Trazado_3094" data-name="Trazado 3094" d="M260.384,556.079a1.871,1.871,0,0,0-2.227.287,19.775,19.775,0,0,0-2.6,3.765q-.5.914-.936,1.863a8.272,8.272,0,0,0-.5,1.276,1.638,1.638,0,0,0,2.809,1.615c.021.048.034.095.06.143a1.778,1.778,0,0,0,1.352.884,1.759,1.759,0,0,0,1.368-.364,1.946,1.946,0,0,0,.73-1.455q.362-2.806.723-5.613c.019-.109.04-.218.062-.327a1.89,1.89,0,0,0-.844-2.075" transform="translate(-63.167 -138.2)" fill="#252626"/>
        <path id="Trazado_3095" data-name="Trazado 3095" d="M281.1,555.568a1.868,1.868,0,0,0-2.188.283,14.538,14.538,0,0,0-2.789,3.6,11.2,11.2,0,0,0-.975,2.187,6.792,6.792,0,0,0-.232,1.345,1.573,1.573,0,0,0,1.185,1.708,1.512,1.512,0,0,0,.226.157,1.91,1.91,0,0,0,2.558-.671,29.593,29.593,0,0,0,3.045-6.566,1.817,1.817,0,0,0-.829-2.039" transform="translate(-68.352 -138.074)" fill="#252626"/>
        <path id="Trazado_3096" data-name="Trazado 3096" d="M297.211,552.511a1.236,1.236,0,0,0-1.18.734,1.692,1.692,0,0,0-.919.7c-.461.7-.941,1.386-1.38,2.1a7.714,7.714,0,0,0-1.228,2.471,1.3,1.3,0,0,0,.459,1.345,1.269,1.269,0,0,0,1.421.1,6.083,6.083,0,0,0,.708-.564,4.131,4.131,0,0,0,.556-.683l.763-1.054c.5-.689.955-1.413,1.429-2.118a1.337,1.337,0,0,0,.193-.56,1.39,1.39,0,0,0-.822-2.467" transform="translate(-72.718 -137.371)" fill="#252626"/>
        <path id="Trazado_3097" data-name="Trazado 3097" d="M261.529,581.769c-2.606.476-5.139,1.278-7.76,1.7a51.059,51.059,0,0,1-7.856.657,49.021,49.021,0,0,1-15.574-2.406,71.039,71.039,0,0,1-8.452-3.523.52.52,0,0,0-.524.9A39.925,39.925,0,0,0,236.7,585a46.233,46.233,0,0,0,16.244.139,27.264,27.264,0,0,0,8.85-2.742.345.345,0,0,0-.264-.627" transform="translate(-54.977 -143.743)" fill="#252626"/>
        <path id="Trazado_3098" data-name="Trazado 3098" d="M247.937,593.546a19.177,19.177,0,0,0-3.737-.471q-2.065-.17-4.1-.542c-1.286-.234-2.566-.487-3.833-.81-.633-.161-1.264-.322-1.9-.472a2.224,2.224,0,0,0-1.483-.062.269.269,0,0,0-.095.361c.268.517.88.682,1.4.888a19.154,19.154,0,0,0,1.857.628,36.246,36.246,0,0,0,3.945.92q1.957.333,3.937.5a11.181,11.181,0,0,0,4.016-.173.4.4,0,0,0,0-.764" transform="translate(-57.87 -146.961)" fill="#252626"/>
        <path id="Trazado_3099" data-name="Trazado 3099" d="M411.152,413.748l0,.006.045-.026a10.6,10.6,0,0,0,1.671-.958c12.983-7.251,63.929-32.706,69.982-35.728a18.8,18.8,0,1,0-19.619-31.8v0c-13.5,10.651-63.084,50.481-63.084,50.481l0,.007a10.636,10.636,0,0,0,11,18.019" transform="translate(-98.493 -84.842)" fill="#bcbbbb"/>
        <path id="Trazado_3100" data-name="Trazado 3100" d="M393.656,404.036a12.557,12.557,0,0,1,3.486-9.285l-.053-.091,1.265-1.026c.5-.4,49.746-39.956,63.1-50.49l1.247-.984.05.045a20.679,20.679,0,1,1,20.288,35.912c-5.742,2.866-56.7,28.327-69.791,35.626a12.457,12.457,0,0,1-1.793,1.027l-1.609.949-.159-.28a12.369,12.369,0,0,1-2.9.493,12.54,12.54,0,0,1-13.125-11.9m8.321-8.487-1.271,1.025a8.758,8.758,0,0,0,9.054,14.84l.138-.062a8.89,8.89,0,0,0,1.277-.743l.159-.1c13.039-7.282,64.262-32.875,70.059-35.769a16.922,16.922,0,1,0-17.62-28.64l-.418.328c-12.649,9.992-53.629,42.892-61.382,49.118Z" transform="translate(-97.871 -84.221)" fill="#252626"/>
        <g id="Grupo_3128" data-name="Grupo 3128" transform="translate(298.091 255.226)" opacity="0.34">
          <g id="Grupo_3127" data-name="Grupo 3127">
            <g id="Grupo_3126" data-name="Grupo 3126" clip-path="url(#clip-path-12)">
              <path id="Trazado_3101" data-name="Trazado 3101" d="M406.326,407.465c13.429-9.817,26.657-19.918,39.952-29.917,5.986-4.5,12.009-8.964,17.774-13.749,5.65-4.689,12.087-9.82,15.97-16.137,3.145-5.116-3.16-10.428-7.8-6.765-5.727,4.525-10.674,10.092-16.354,14.729C450.048,360.379,444,364.859,438,369.381c-13.082,9.856-26.242,19.623-39.189,29.657-5.788,4.486,1.72,12.661,7.512,8.427" transform="translate(-396.73 -339.682)" fill="#252626"/>
            </g>
          </g>
        </g>
        <path id="Trazado_3102" data-name="Trazado 3102" d="M387.758,423.6c-.231.25-.471.491-.709.735l0,0-.042.038c-.114.1-.227.211-.341.316q-.721.656-1.5,1.247t-1.6,1.108c-.262.164-.529.319-.8.476l-.009.006-.074.038c-.165.085-.329.172-.5.256a22.079,22.079,0,0,1-3.532,1.405c-.325.1-.652.188-.979.28l-.3.08-.267.064c-.665.152-1.337.278-2.007.41a1.9,1.9,0,0,0-1.63,1.853,1.855,1.855,0,0,0,1.609,1.872c.331.008.662,0,.993-.011a1.873,1.873,0,0,0,.074,2.855,4.581,4.581,0,0,0-.811.694,1.635,1.635,0,0,0-.341,1.421,1.943,1.943,0,0,0,2.5,1.769,17.135,17.135,0,0,0,2.042-.943c.72-.27,1.419-.59,2.061-.89q2.263-1.058,4.457-2.255a80.56,80.56,0,0,0,8.743-5.469,2.424,2.424,0,0,0,.5-3.354,2.618,2.618,0,0,0-.729-.622,1.914,1.914,0,0,0-.4-.9,2.444,2.444,0,0,0-2.365-.851,2.279,2.279,0,0,0-4.049-1.627" transform="translate(-92.857 -105.112)" fill="#252626"/>
      </g>
    </g>
  </g>
</svg>
