<svg id="Grupo_3098" data-name="Grupo 3098" xmlns="http://www.w3.org/2000/svg" xmlns:xlink="http://www.w3.org/1999/xlink" width="311.474" height="443.668" viewBox="0 0 311.474 443.668">
  <defs>
    <clipPath id="clip-path">
      <rect id="Rectángulo_545" data-name="Rectángulo 545" width="311.474" height="443.668" fill="none"/>
    </clipPath>
    <clipPath id="clip-path-3">
      <rect id="Rectángulo_533" data-name="Rectángulo 533" width="80.863" height="31.128" fill="none"/>
    </clipPath>
    <clipPath id="clip-path-4">
      <rect id="Rectángulo_534" data-name="Rectángulo 534" width="166.389" height="245.473" fill="none"/>
    </clipPath>
    <clipPath id="clip-path-5">
      <rect id="Rectángulo_535" data-name="Rectángulo 535" width="144.378" height="40.569" fill="none"/>
    </clipPath>
    <clipPath id="clip-path-6">
      <rect id="Rectángulo_536" data-name="Rectángulo 536" width="99.929" height="47.545" fill="none"/>
    </clipPath>
    <clipPath id="clip-path-7">
      <rect id="Rectángulo_537" data-name="Rectángulo 537" width="18.188" height="60.874" fill="none"/>
    </clipPath>
    <clipPath id="clip-path-8">
      <rect id="Rectángulo_538" data-name="Rectángulo 538" width="45.36" height="72.254" fill="none"/>
    </clipPath>
    <clipPath id="clip-path-9">
      <rect id="Rectángulo_539" data-name="Rectángulo 539" width="111.537" height="138.168" fill="none"/>
    </clipPath>
    <clipPath id="clip-path-10">
      <rect id="Rectángulo_540" data-name="Rectángulo 540" width="26.288" height="70.404" fill="none"/>
    </clipPath>
    <clipPath id="clip-path-11">
      <rect id="Rectángulo_541" data-name="Rectángulo 541" width="72.975" height="61.428" fill="none"/>
    </clipPath>
    <clipPath id="clip-path-12">
      <rect id="Rectángulo_542" data-name="Rectángulo 542" width="21.025" height="32.093" fill="none"/>
    </clipPath>
    <clipPath id="clip-path-13">
      <rect id="Rectángulo_543" data-name="Rectángulo 543" width="122.354" height="35.136" fill="none"/>
    </clipPath>
  </defs>
  <g id="Grupo_3096" data-name="Grupo 3096" clip-path="url(#clip-path)">
    <g id="Grupo_3095" data-name="Grupo 3095">
      <g id="Grupo_3094" data-name="Grupo 3094" clip-path="url(#clip-path)">
        <path id="Trazado_2918" data-name="Trazado 2918" d="M7.762,457.974c-.043.037-.078.079-.117.119a4.6,4.6,0,0,0-1.539,1.038,3.362,3.362,0,0,0-.78,3.478A4.973,4.973,0,0,0,8.067,465a17.4,17.4,0,0,0,3.343,1.2q.4.1.808.188c-1.035.45-2.046.955-3.012,1.47a17.533,17.533,0,0,0-5.27,3.716,5.848,5.848,0,0,0-.9,6.277,5.58,5.58,0,0,0,.636,1,1.965,1.965,0,0,0-.238.985,2.531,2.531,0,0,0,2.847,2.415,12.383,12.383,0,0,0,3.793-1.418,28.893,28.893,0,0,0,5.247-2.244c2.539-1.208,5.021-2.475,7.47-3.858a1.385,1.385,0,0,0,.572-1.907,1.823,1.823,0,0,0-.115-.879,13.635,13.635,0,0,1-.974-3.6,1.652,1.652,0,0,0-1.724-1.464c.061-.073.132-.138.188-.214a4.115,4.115,0,0,0,.754-1.791c.082-.5.013-1.028.126-1.521.2-.882.821-1.562.883-2.516.193-2.975-3.334-3.53-5.555-3.782-.119-.014-.239-.022-.358-.034a8.092,8.092,0,0,0-8.823.947m-1.769,17.48c.017.023.037.044.055.065a2.092,2.092,0,0,0,.61,1.437L6.571,477a2.158,2.158,0,0,1-.578-1.543" transform="translate(-0.851 -155.678)" fill="#bcbbbb"/>
        <path id="Trazado_2919" data-name="Trazado 2919" d="M26.518,485.331q-3.781,3.474-7.246,7.274c-2.031,2.231-4.6,4.737-4.9,7.914-.3,3.145,1.7,6.117,5.021,6.253,3.4.139,6.237-2.317,8.7-4.363.432-.36.849-.736,1.271-1.107a1.627,1.627,0,0,0-.263,1.128A1.755,1.755,0,0,0,29.7,503.5c-.287.89-.545,1.789-.747,2.7a5.162,5.162,0,0,0,.191,3.5,3.371,3.371,0,0,0,1.441,1.48c-.354,1.826,1.789,3.333,3.627,2.933.159-.035.325-.079.492-.128a4.374,4.374,0,0,0,3.753-1.325,2.4,2.4,0,0,0,.583-1.313,1.98,1.98,0,0,0,.782-1.327,2.486,2.486,0,0,0,1.46-2.533,13.467,13.467,0,0,0,2.429-7.587c0-.006.007-.013.012-.018.04.035.081.067.121.1a1.6,1.6,0,0,0-.015.466,11.547,11.547,0,0,0,4.057,7.662,5.977,5.977,0,0,0,7.348.46c2.585-1.935,1.711-5.022,1.043-7.657l-2.412-9.515c-.248-.98-1.3-1.97-2.4-1.376a14.849,14.849,0,0,1-6.019,1.775,1.8,1.8,0,0,0-1.55,1.674,1.647,1.647,0,0,0-.977-1.09c-2.055-.806-4.374-1.319-6.3-.269a1.677,1.677,0,0,0-1.375-.693,75.875,75.875,0,0,1-6.293-5.81,1.761,1.761,0,0,0-2.437-.287" transform="translate(-4.894 -165.511)" fill="#bcbbbb"/>
        <path id="Trazado_2920" data-name="Trazado 2920" d="M44.371,479.31a2.75,2.75,0,0,0,2.5,2.282,1.927,1.927,0,0,0,.968-.142,1.345,1.345,0,0,0,.646-.534,2.634,2.634,0,0,0,.81-.83,2.5,2.5,0,0,0-.267-2.931,2.6,2.6,0,0,0-3.029-.75,2.9,2.9,0,0,0-1.623,2.9m2.952-1.946c.042.007.084.016.126.026.013.007.115.039.136.047a3.116,3.116,0,0,1,.308.144l.011.005.072.044c.051.034.1.069.151.106a1.633,1.633,0,0,1,.427.456c.016.024.032.048.047.073,0,0,0,0,.008.017.028.055.053.109.075.166a.984.984,0,0,1,.079.284,1.721,1.721,0,0,1-.568,1.495.714.714,0,0,0-.207-.022l-.048,0H47.9a2.013,2.013,0,0,0-.26.011l-.124.009c-.022,0-.117-.006-.141-.007-.094,0-.188,0-.283,0H47.1c-.037,0-.074,0-.111-.007-.055,0-.111-.012-.166-.02-.03,0-.117-.025-.14-.028a2.421,2.421,0,0,1-.3-.113l-.1-.051-.041-.026c-.031-.02-.061-.041-.092-.063-.052-.038-.1-.079-.151-.121l-.018-.014a.112.112,0,0,0-.016-.022c-.042-.049-.084-.1-.122-.15s-.1-.175-.045-.059c-.028-.059-.059-.117-.084-.177-.005-.013-.022-.058-.034-.089s-.029-.121-.032-.144c-.012-.072-.018-.146-.022-.219,0-.016,0-.017,0-.024a.159.159,0,0,0,0-.032c.006-.065.011-.128.021-.193s.018-.1.03-.153.026-.082.041-.122.04-.1.063-.155c.009-.018.042-.086.051-.106a2.178,2.178,0,0,1,.211-.3l.054-.063.006-.007h0c.041-.038.082-.076.124-.111s.1-.076.155-.116l.023-.015.053-.03a1.926,1.926,0,0,1,.177-.079l.084-.029a1.8,1.8,0,0,1,.362-.049c.022,0,.045,0,.068,0,.061.006.121.012.18.022" transform="translate(-15.137 -162.52)" fill="#252626"/>
        <path id="Trazado_2921" data-name="Trazado 2921" d="M3.644,458.07a6.29,6.29,0,0,0,1.36,6.2,7.979,7.979,0,0,0,3.061,2.125c.124.049.252.1.383.144A18.059,18.059,0,0,0,1.987,471c-1.833,2.17-2.686,5.467-1.3,8.089,1.425,2.7,4.7,3.72,7.572,3.211a13.413,13.413,0,0,0,3.823-1.36c-2.2,2.448-3.845,5.417-3.688,8.811a7.583,7.583,0,0,0,6.011,7.384c3.245.559,6.158-.973,8.59-2.988-.985,5.082.458,10.8,6.045,11.887,3.739.73,6.664-2.172,8.331-5.162a26.683,26.683,0,0,0,2.21-5.307,9.583,9.583,0,0,0,3.38,3.806,7.414,7.414,0,0,0,6.59.657A6.9,6.9,0,0,0,53.5,494.8c.511-2.543-.165-5.211-.827-7.66a35.816,35.816,0,0,0-3.554-9.161,1.222,1.222,0,0,0-1.155-.47,1.179,1.179,0,0,0-.619.261,1.311,1.311,0,0,0-.381,1.481c.538,1.37,1.23,2.679,1.761,4.056s1,2.776,1.4,4.2c.665,2.387,1.5,5.262.624,7.7a4.057,4.057,0,0,1-4.94,2.645,5.871,5.871,0,0,1-2.865-1.69,15.048,15.048,0,0,1-2.051-3.249,1.14,1.14,0,0,0-.543-.483c.057-.3.115-.594.164-.891a30.752,30.752,0,0,0-.209-11.114c-.377-1.85-3.3-1.481-2.925.383a28.187,28.187,0,0,1-1.489,16.165c-.906,2.222-2.282,5.314-4.837,6.017-2.448.673-4.58-1.521-5.181-3.695a10.751,10.751,0,0,1-.036-4.908c.274-1.394.8-2.731,1.091-4.116a36.455,36.455,0,0,0,6.01-8.692,1.046,1.046,0,0,0-1.8-1.017A74.819,74.819,0,0,1,24.7,489.13c-2.263,2.478-5.033,5.4-8.588,5.663-3.1.227-5.057-2.219-5.261-5.123-.219-3.118,1.8-5.878,3.955-7.914,2.943-2.778,6.445-4.872,9.122-7.946a1.251,1.251,0,0,0-1.122-2.016,1,1,0,0,0-1.372-.137c-.993.933-2.056,1.792-3.085,2.686-.483.419-1.009.821-1.46,1.276-2.482,1.024-4.6,2.793-7.107,3.78-2.063.813-4.954,1.07-6.517-.864-1.5-1.859-.563-4.512.848-6.108,1.747-1.975,4.422-3.157,6.809-4.143a35.3,35.3,0,0,1,4.869-1.626q1.217-.305,2.452-.53a5.366,5.366,0,0,0,2.508-.778,1.083,1.083,0,0,0-.261-1.836,4.38,4.38,0,0,0-2.589,0q-1.311.244-2.6.581a41.731,41.731,0,0,0-4.023,1.261,18.631,18.631,0,0,0-2.251-1,6.228,6.228,0,0,1-2.535-2.053,3.729,3.729,0,0,1,.927-5.257,8.56,8.56,0,0,1,6.7-1.287,19.765,19.765,0,0,1,6.515,2.882c1.343.792,2.813-1.018,1.49-1.99-3.793-2.787-8.953-4.5-13.569-2.959a7.725,7.725,0,0,0-4.909,4.374" transform="translate(0 -154.645)" fill="#252626"/>
        <path id="Trazado_2922" data-name="Trazado 2922" d="M134.992,388.986c.256-.006.513,0,.771,0h0l.043,0c.117.008.234.014.352.022q.739.052,1.48.179t1.472.321c.233.062.463.133.694.2l.009,0,.061.022c.138.049.275.1.413.15a17.855,17.855,0,0,1,2.738,1.308c.236.139.47.284.7.427l.215.134.186.125c.46.312.912.643,1.365.969a1.316,1.316,0,0,0,1.853-.094,1.655,1.655,0,0,0-.018-2.053c-.189-.2-.385-.4-.582-.59a1.21,1.21,0,0,0,1.242-.746,1.6,1.6,0,0,0,.111-.954,3.205,3.205,0,0,0,.811.086,1.08,1.08,0,0,0,.892-.618,1.791,1.791,0,0,0-.588-2.531,13.408,13.408,0,0,0-1.646-.681c-.55-.277-1.113-.511-1.632-.723q-1.831-.747-3.69-1.372a60.359,60.359,0,0,0-7.75-2.085,1.669,1.669,0,0,0-1.931,1.643,2.476,2.476,0,0,0,.119.8,1.57,1.57,0,0,0-.209.763,2.357,2.357,0,0,0,.958,1.915,1.882,1.882,0,0,0-.476,1.663,2.041,2.041,0,0,0,2.031,1.715" transform="translate(-45.214 -129.848)" fill="#252626"/>
        <path id="Trazado_2923" data-name="Trazado 2923" d="M372.07,591.96c-.13-1.9-3.11-1.917-2.979,0a7.574,7.574,0,0,1-.024,1.266,1.414,1.414,0,0,0-2.032.933c-.059.3-.135.59-.221.877a1.508,1.508,0,0,0-2.408.188,6.567,6.567,0,0,0-.485.728,2.5,2.5,0,0,0-1.479.668,2.607,2.607,0,0,0-1.739.687,3.754,3.754,0,0,0-.463-.093c-.032,0-.064,0-.1,0a2.573,2.573,0,0,0-1.827-.617,3.055,3.055,0,0,0-.582.09,3.184,3.184,0,0,0-1.755-.11c-.029-.018-.051-.044-.082-.061a2.466,2.466,0,0,0-1.639-.309c-.032-.047-.061-.1-.093-.143a4.233,4.233,0,0,0-2.1-1.916,2.459,2.459,0,0,0-2.432.553c-.03.03-.051.064-.079.095a1.444,1.444,0,0,0-.873-.166c-.009-.021-.015-.043-.025-.064a10.084,10.084,0,0,0-1.6-2.124l-1.825-2.157a1.357,1.357,0,0,0-1.055-.482,3.971,3.971,0,0,0-2.006-1.46c.045-.172.091-.343.134-.515a1.174,1.174,0,0,0,.094-.263q.195-.878.391-1.756a1.4,1.4,0,0,0-.8-1.64,1.377,1.377,0,0,0-1.736.569c-.5,1.144-.933,2.306-1.362,3.477a1.765,1.765,0,0,0-1.369.822,4.232,4.232,0,0,0-.381.758,2,2,0,0,0-1.122,1.1,2.743,2.743,0,0,0,1.948,3.591,3.906,3.906,0,0,0,2.245,1.185,4.26,4.26,0,0,0,2.265,1.6,2.875,2.875,0,0,0,2.144,3.635,6.5,6.5,0,0,0,2.121,1.893,4.258,4.258,0,0,0,1.97.749c.1.011.194.015.292.018s.206.045.313.057a1.084,1.084,0,0,0,.766-.188,3.844,3.844,0,0,0,1.115-.505,2.9,2.9,0,0,0,2.443-.1c.028-.015.051-.034.076-.049,0,.038-.008.074-.005.113a3.088,3.088,0,0,0,.213.939,4.138,4.138,0,0,0,1.4,1.765,4.36,4.36,0,0,0,1.674.744,5.364,5.364,0,0,0,1.08.125,2.88,2.88,0,0,0,1.41-.317,1.445,1.445,0,0,0,.4-.365,4.057,4.057,0,0,0,1.348-.176c1.869-.586,2.963-2.356,3.643-4.079a4.729,4.729,0,0,0,.179-.559,3.358,3.358,0,0,0,.441-.618c.038-.018.074-.042.111-.062a2.336,2.336,0,0,0,.313.022,2.708,2.708,0,0,0,1.782-.783,1.428,1.428,0,0,0,1.717-.254,9.815,9.815,0,0,0,2.641-7.318" transform="translate(-114.619 -199.336)" fill="#bcbbbb"/>
        <path id="Trazado_2924" data-name="Trazado 2924" d="M170.631,396.31a15.851,15.851,0,1,1-15.851-15.851,15.851,15.851,0,0,1,15.851,15.851" transform="translate(-47.415 -129.848)" fill="#bcbbbb"/>
        <path id="Trazado_2925" data-name="Trazado 2925" d="M153.927,412.955a17.5,17.5,0,1,1,17.5-17.5,17.517,17.517,0,0,1-17.5,17.5m0-31.7a14.2,14.2,0,1,0,14.2,14.2,14.22,14.22,0,0,0-14.2-14.2" transform="translate(-46.563 -128.995)" fill="#252626"/>
        <path id="Trazado_2926" data-name="Trazado 2926" d="M287.346,422.147c0,35.667-35.329,74.952-71.32,74.952-35.15,0-64.57-39.285-64.57-74.952s30.42-64.582,67.945-64.582,67.945,28.915,67.945,64.582" transform="translate(-51.691 -122.034)" fill="#bcbbbb"/>
        <path id="Trazado_2927" data-name="Trazado 2927" d="M215.174,497.893c-16.786,0-33.822-9-46.738-24.7-12.2-14.825-19.479-34.226-19.479-51.9,0-36.518,31.218-66.228,69.591-66.228s69.592,29.71,69.592,66.228c0,17.383-8.451,36.813-22.606,51.975-14.609,15.649-32.965,24.624-50.36,24.624m3.375-139.534c-36.557,0-66.3,28.232-66.3,62.935,0,16.933,7,35.552,18.728,49.8,12.288,14.935,28.4,23.5,44.195,23.5,16.485,0,33.964-8.594,47.953-23.578,13.6-14.569,21.72-33.159,21.72-49.728,0-34.7-29.741-62.935-66.3-62.935" transform="translate(-50.838 -121.181)" fill="#252626"/>
        <path id="Trazado_2928" data-name="Trazado 2928" d="M249.557,421.346A25.059,25.059,0,0,1,225.3,446.4c-.263.007-.534.013-.8.013a25.065,25.065,0,1,1,25.057-25.064" transform="translate(-68.066 -135.251)" fill="#989999"/>
        <path id="Trazado_2929" data-name="Trazado 2929" d="M223.988,446.886a26.061,26.061,0,1,1,.835-.014c-.279.007-.556.014-.835.014m0-50.121a24.072,24.072,0,1,0,0,48.145c.262,0,.524-.007.78-.013a23.954,23.954,0,0,0,23.289-24.063,24.044,24.044,0,0,0-24.069-24.069" transform="translate(-67.554 -134.739)" fill="#252626"/>
        <path id="Trazado_2930" data-name="Trazado 2930" d="M253.653,421.875A25.059,25.059,0,0,1,229.4,446.926a25.063,25.063,0,0,1,6.3-49.087,25.07,25.07,0,0,1,17.956,24.036" transform="translate(-72.162 -135.78)" fill="#030202"/>
        <path id="Trazado_2931" data-name="Trazado 2931" d="M362.353,420.3a11.556,11.556,0,0,0-2.19-6.561c-3.492-6.448-10.029-11.169-13.513-13.355a13.543,13.543,0,0,0-2.124-1.252c-.128-.07-.2-.107-.2-.107l-.005,0a13.169,13.169,0,0,0-5.462-1.188c-7.568,0-13.7,6.4-13.7,14.3a14.751,14.751,0,0,0,1.278,6c.035.083.06.164.1.248.08.178.171.348.258.522.011.021.02.043.032.063,4.759,9.342,20.275,12.537,20.275,12.537,1.26.536,2.989.349,4.434.349a10.776,10.776,0,0,0,9.519-5.9,7.294,7.294,0,0,0,1.3-5.66" transform="translate(-110.973 -135.78)" fill="#bcbbbb"/>
        <path id="Trazado_2932" data-name="Trazado 2932" d="M348.8,432.688a8.452,8.452,0,0,1-3.041-.447c-1.755-.382-16.4-3.835-21.259-13.369l-.106-.211c-.076-.15-.152-.3-.221-.454-.035-.078-.065-.157-.094-.235a16.385,16.385,0,0,1-1.422-6.683c0-8.8,6.886-15.951,15.351-15.951a14.728,14.728,0,0,1,5.311.987l.069-.043.838.422.2.1a15.262,15.262,0,0,1,2.3,1.353c3.682,2.317,10.333,7.163,13.99,13.845a13.175,13.175,0,0,1,2.437,7.325,8.951,8.951,0,0,1-1.563,6.676,12.414,12.414,0,0,1-10.906,6.648c-.278,0-.568.008-.862.015-.329.008-.669.016-1.014.016m-10.794-34.056c-6.648,0-12.057,5.678-12.057,12.657a13.054,13.054,0,0,0,1.136,5.334c.039.093.061.148.08.2.061.145.111.24.161.337l.082.163c4.365,8.569,19.018,11.693,19.166,11.724l.31.1a8.022,8.022,0,0,0,2.846.234c.323-.009.64-.016.945-.016a9.139,9.139,0,0,0,8.06-5.019l.176-.269a5.718,5.718,0,0,0,.954-4.435l-.011-.158a9.9,9.9,0,0,0-1.877-5.63l-.115-.182c-3.3-6.1-9.525-10.6-12.941-12.745l-.09-.059a11.781,11.781,0,0,0-1.865-1.1l-.181-.093a11.477,11.477,0,0,0-4.78-1.041" transform="translate(-110.12 -134.926)" fill="#252626"/>
        <path id="Trazado_2933" data-name="Trazado 2933" d="M93.648,386.139l0,0-.036.029a9.35,9.35,0,0,0-1.315,1.059C82.052,395.289,41.45,424.347,36.626,427.8a16.481,16.481,0,1,0,21.366,24.828h0c10.219-11.081,47.663-52.4,47.663-52.4l0-.005a9.324,9.324,0,0,0-12-14.086" transform="translate(-10.045 -131.262)" fill="#bcbbbb"/>
        <path id="Trazado_2934" data-name="Trazado 2934" d="M108.656,390.831a11.01,11.01,0,0,1-1.739,8.519l.059.071-.954,1.062c-.373.413-37.565,41.447-47.671,52.405l-.945,1.024-.049-.032a18.129,18.129,0,1,1-22.513-28.3c4.576-3.272,45.186-32.335,55.516-40.458a10.994,10.994,0,0,1,1.41-1.137l1.263-1.043.176.221a10.826,10.826,0,0,1,2.446-.827,10.994,10.994,0,0,1,13,8.492m-6.034,8.495.959-1.062a7.68,7.68,0,0,0-7.25-12.7,7.627,7.627,0,0,0-2.634,1.1l-.111.072a7.785,7.785,0,0,0-1,.819l-.124.109c-10.286,8.1-51.108,37.315-55.729,40.62a14.835,14.835,0,1,0,19.2,22.368l.318-.342c9.574-10.394,40.522-44.523,46.376-50.982Z" transform="translate(-9.191 -130.409)" fill="#252626"/>
        <path id="Trazado_2935" data-name="Trazado 2935" d="M375.311,557.416a15.242,15.242,0,0,0,.844-2.428,136.651,136.651,0,0,0,6.36-45.951l-.031-.005c.013-.2.031-.405.031-.612a10.253,10.253,0,0,0-20.18-2.57l-.012,0s-.014.073-.04.207c-.051.213-.093.428-.13.646-.921,4.521-5.516,25.857-11.737,33.622a15.419,15.419,0,0,0-1.05,1.163l-.005,0h0a15.36,15.36,0,1,0,25.946,15.933l0-.007" transform="translate(-118.056 -170.019)" fill="#bcbbbb"/>
        <path id="Trazado_2936" data-name="Trazado 2936" d="M360.415,567.349a17.006,17.006,0,0,1-13.375-27.511l.086-.258.272-.182c.3-.357.614-.7.935-1.026,5.975-7.551,10.505-28.683,11.355-32.854.032-.2.082-.447.14-.694l.331-1.7.2.032a11.9,11.9,0,0,1,22.953,4.415c0,.125-.005.25-.013.373l.011.179a138.023,138.023,0,0,1-6.424,46.478,16.876,16.876,0,0,1-.779,2.307v.009l-.145.326a17.028,17.028,0,0,1-15.545,10.11m-10.739-25.536a13.714,13.714,0,1,0,23.241,14.164l.036-.081a13.633,13.633,0,0,0,.753-2.165l.031-.107a134.718,134.718,0,0,0,6.327-44.008l-.13-.019.067-1.7c.008-.108.016-.216.016-.326a8.606,8.606,0,0,0-16.939-2.158l-.051.2c-.045.2-.076.356-.1.516-1.244,6.115-5.762,26.5-12.075,34.379l-.121.136a13.517,13.517,0,0,0-.937,1.037Z" transform="translate(-117.202 -169.166)" fill="#252626"/>
        <path id="Trazado_2937" data-name="Trazado 2937" d="M166.26,165.308a30.721,30.721,0,1,1-30.721-30.721,30.721,30.721,0,0,1,30.721,30.721" transform="translate(-35.774 -45.934)" fill="#bcbbbb"/>
        <path id="Trazado_2938" data-name="Trazado 2938" d="M134.686,196.823a32.368,32.368,0,1,1,32.368-32.368,32.4,32.4,0,0,1-32.368,32.368m0-61.442a29.074,29.074,0,1,0,29.074,29.074,29.107,29.107,0,0,0-29.074-29.074" transform="translate(-34.92 -45.08)" fill="#252626"/>
        <path id="Trazado_2939" data-name="Trazado 2939" d="M300.9,24.052A79.507,79.507,0,0,0,247.492,2.506q-2.579-.03-5.118.1A79.815,79.815,0,0,0,223.4,5.879c-.007,0-.007.007-.013.007q-1.69.5-3.346,1.087-.405.138-.81.3a78.85,78.85,0,0,0-13.7,6.488C126.02,56.211,135.966,161.32,136.072,162.381A85.555,85.555,0,0,0,299.556,194.3q.821-1.808,1.555-3.669a1.119,1.119,0,0,0,.086-.2,85.114,85.114,0,0,0,5.27-20.861h.007V169.5a85.5,85.5,0,0,0,.626-10.368c0-.4-.007-.79-.013-1.186a126.828,126.828,0,0,1,10.552-39.1c.659-1.291,2.6-5.625,2.6-5.625A79.784,79.784,0,0,0,300.9,24.052M137.719,162.322l-.007-.105a199.336,199.336,0,0,1,4.835-58.249c6.607-28.16,22.758-66.088,62.175-87.9a146.528,146.528,0,0,0-24.214,20.67A153.606,153.606,0,0,0,167.8,51.791,163.615,163.615,0,0,0,155.938,70.6a139.382,139.382,0,0,0-8.188,17.877,154.792,154.792,0,0,0-6.824,23.674,135.175,135.175,0,0,0-2.714,22.4,163.793,163.793,0,0,0,.837,25.163c1.627,14.821,6.9,31.809,12.614,45.912l.1.257a83.609,83.609,0,0,1-14.044-43.56" transform="translate(-46.287 -0.853)" fill="#bcbbbb"/>
        <path id="Trazado_2940" data-name="Trazado 2940" d="M301.181,21.993q-2.461-2.292-5.072-4.361A81.066,81.066,0,0,0,246.666.006c-2.174-.026-4.348.033-6.509.178a81.688,81.688,0,0,0-17.851,3.195l-.467.007-.192.2c-.244.072-.494.152-.744.237-.751.231-1.5.481-2.253.744a81.45,81.45,0,0,0-14.781,6.9,121,121,0,0,0-44.983,41.525c-9.176,14.189-16.033,30.795-20.394,49.37a203.713,203.713,0,0,0-4.914,59.27A86.608,86.608,0,0,0,150.732,210.3a87.635,87.635,0,0,0,9.426,10.711c.152.145.3.29.448.422a87.2,87.2,0,0,0,145.9-47.611.022.022,0,0,1,.006-.013c.211-1.166.4-2.332.56-3.511l.2-.007v-1.548a87.77,87.77,0,0,0,.625-10.467c0-.369-.007-.744-.013-1.113A125.827,125.827,0,0,1,318.273,118.7c.686-1.35,2.543-5.487,2.642-5.7a80.78,80.78,0,0,0,6.079-25.782c.1-1.449.165-2.911.185-4.374a81.753,81.753,0,0,0-26-60.851m22.706,60.8a77.836,77.836,0,0,1-5.994,28.9c-.02.04-1.937,4.308-2.569,5.546l-.034.072A129.281,129.281,0,0,0,304.6,156.923l-.006.1v.105c.006.382.013.771.013,1.153a84.191,84.191,0,0,1-.612,10.17l-.007.059a83.884,83.884,0,0,1-167.113-7.042l-.007-.105a199.335,199.335,0,0,1,4.835-58.249c6.607-28.16,22.758-66.088,62.175-87.9.52-.29,1.047-.58,1.581-.863l.066-.033a77.9,77.9,0,0,1,14.214-6.646c1.015-.356,2.035-.692,3.043-.995l.468-.007.184-.191a78.192,78.192,0,0,1,20.084-3.155c1.034-.033,2.068-.04,3.109-.026a78.55,78.55,0,0,1,77.266,78.314c0,.4,0,.784-.006,1.179" transform="translate(-45.44 0)" fill="#252626"/>
        <path id="Trazado_2941" data-name="Trazado 2941" d="M205.58,23.1a146.528,146.528,0,0,0-24.214,20.67A153.606,153.606,0,0,0,168.66,58.821,163.615,163.615,0,0,0,156.8,77.633a139.382,139.382,0,0,0-8.188,17.877,154.792,154.792,0,0,0-6.824,23.674,135.175,135.175,0,0,0-2.714,22.4,163.793,163.793,0,0,0,.837,25.163c1.626,14.821,6.9,31.809,12.614,45.912l.1.257a83.615,83.615,0,0,1-14.044-43.56l-.007-.105A199.362,199.362,0,0,1,143.4,111c6.607-28.16,22.758-66.088,62.175-87.9" transform="translate(-47.145 -7.884)" fill="#47ebfc"/>
        <path id="Trazado_2942" data-name="Trazado 2942" d="M277.175,83.143c-.547-.837-1.063-1.7-1.565-2.561a55.706,55.706,0,0,0-10.524-13.017l0,0h0c-11-10.116-26.442-16.717-43.761-17.419-16.518-.669-31.768,4.15-43.365,12.573v0l-.041.032c-3.769,2.742-10.024,7.793-12.936,11.232A121.339,121.339,0,0,0,131.4,145.33h.03c-.031.39-.061.781-.077,1.175a29.9,29.9,0,0,0,37.473,30.108h0a29.539,29.539,0,0,0,4.979-1.8,44.845,44.845,0,0,1,16.1-4.358,53.7,53.7,0,0,1,10.7.405c12.426,1.709,28.82,9.046,38.745,13.957,1.257.622,2.475,1.31,3.668,2.047a29.721,29.721,0,0,0,5.1,2.51l.013.008v0a29.873,29.873,0,0,0,39.723-21.424v0s18.737-39.864-10.681-84.812" transform="translate(-44.82 -17.092)" fill="#030202"/>
        <path id="Trazado_2943" data-name="Trazado 2943" d="M125.934,203.92a3.971,3.971,0,1,1-3.971-3.971,3.971,3.971,0,0,1,3.971,3.971" transform="translate(-40.27 -68.241)" fill="#e9e9ea"/>
        <path id="Trazado_2944" data-name="Trazado 2944" d="M121.452,208.367a4.959,4.959,0,1,1,4.959-4.959,4.964,4.964,0,0,1-4.959,4.959m0-7.942a2.983,2.983,0,1,0,2.983,2.983,2.986,2.986,0,0,0-2.983-2.983" transform="translate(-39.758 -67.729)" fill="#252626"/>
        <path id="Trazado_2945" data-name="Trazado 2945" d="M277.564,179.785c1.009-9.571,6.351-16.852,11.931-16.264s9.284,8.824,8.275,18.4-6.351,16.852-11.93,16.264-9.284-8.824-8.275-18.4" transform="translate(-94.674 -55.797)" fill="#eb5f4d"/>
        <path id="Trazado_2946" data-name="Trazado 2946" d="M182.337,172.969c-1.611,7.738-6.327,13.3-10.531,12.425s-6.307-7.858-4.7-15.6,6.327-13.3,10.531-12.425,6.307,7.858,4.7,15.6" transform="translate(-56.848 -53.679)" fill="#eb5f4d"/>
        <g id="Grupo_3063" data-name="Grupo 3063" transform="translate(173.751 1.646)" opacity="0.2">
          <g id="Grupo_3062" data-name="Grupo 3062">
            <g id="Grupo_3061" data-name="Grupo 3061" clip-path="url(#clip-path-3)">
              <path id="Trazado_2947" data-name="Trazado 2947" d="M344.639,24.052c-9.815,8.24-26.375,11.784-43.817,8.155-17.568-3.656-31.414-13.635-37.046-25.235q1.66-.583,3.346-1.087c.007,0,.007-.007.013-.007a79.754,79.754,0,0,1,77.5,18.174" transform="translate(-263.776 -2.499)"/>
            </g>
          </g>
        </g>
        <path id="Trazado_2948" data-name="Trazado 2948" d="M128.025,139.351a35.055,35.055,0,0,0-3.142,7.025,73.383,73.383,0,0,0-2.349,7.68,76.586,76.586,0,0,0-2.229,15.458,72.179,72.179,0,0,0,.227,9.066c.074.831,1.372.849,1.312,0a80.208,80.208,0,0,1,3.7-30.791c.449-1.365.944-2.713,1.453-4.057.524-1.384,1.166-2.726,1.611-4.137.111-.353-.389-.536-.578-.244" transform="translate(-41.042 -47.51)" fill="#252626"/>
        <path id="Trazado_2949" data-name="Trazado 2949" d="M127.987,218.729c-.412-.985-.913-1.926-1.3-2.923q-.282-.722-.518-1.46c-.169-.528-.3-1.066-.51-1.579a.6.6,0,0,0-.644-.42.582.582,0,0,0-.509.576,12.6,12.6,0,0,0,.869,3.243c.2.54.418,1.07.656,1.593a11.347,11.347,0,0,0,.746,1.479.667.667,0,0,0,.827.271.654.654,0,0,0,.383-.781" transform="translate(-42.492 -72.47)" fill="#252626"/>
        <path id="Trazado_2950" data-name="Trazado 2950" d="M343.688,26.977a57.107,57.107,0,0,1-8.663,3.035c-2.992.664-6.043,1.194-9.07,1.676a73.836,73.836,0,0,1-18.107.668,71.768,71.768,0,0,1-31.966-10.891,75.872,75.872,0,0,1-7.646-5.484c-2.456-2.021-4.772-4.193-7.194-6.25-.738-.626-2.085.2-1.443,1.113,3.335,4.743,8.045,8.568,12.766,11.865a71.071,71.071,0,0,0,13.017,7.107c-.465.333-.912.688-1.336,1.024a20.822,20.822,0,0,0-2.82,2.706,22.573,22.573,0,0,0-2.277,3.135,13.324,13.324,0,0,0-1.585,3.5.341.341,0,0,0,.62.262c.607-1.057,1.121-2.153,1.777-3.186A21.038,21.038,0,0,1,282,34.327a22.954,22.954,0,0,1,2.608-2.44c.492-.393,1.005-.761,1.532-1.106.209-.137.43-.26.65-.385.319.128.636.26.956.384a73.175,73.175,0,0,0,36.363,4.054,41.719,41.719,0,0,0,10.2-2.456c3.305-1.372,6.762-2.386,9.97-3.99.769-.385.224-1.737-.595-1.411" transform="translate(-88.542 -3.247)" fill="#252626"/>
        <g id="Grupo_3066" data-name="Grupo 3066" transform="translate(115.166)" opacity="0.22">
          <g id="Grupo_3065" data-name="Grupo 3065">
            <g id="Grupo_3064" data-name="Grupo 3064" clip-path="url(#clip-path-4)">
              <path id="Trazado_2951" data-name="Trazado 2951" d="M341.224,87.219A80.8,80.8,0,0,1,335.145,113c-.1.217-1.956,4.354-2.641,5.7a125.851,125.851,0,0,0-10.388,38.462c.007.369.013.744.013,1.113a87.636,87.636,0,0,1-.626,10.467v1.548l-.2.007c-.165,1.179-.349,2.345-.56,3.511a.02.02,0,0,0-.007.013c-1.989,5.256-3.992,10.546-6.159,15.743a1.115,1.115,0,0,1-.086.2c-.507,1.232-1.021,2.45-1.555,3.669-1.811,4.156-3.755,8.247-5.889,12.212a73.843,73.843,0,0,1-6.778,10.361,87.173,87.173,0,0,1-125.438,5.421,8.749,8.749,0,0,1,1.693.784q2.322,1.4,4.723,2.655,2.006,1.047,4.071,1.989a22.5,22.5,0,0,0,2.74,1.12c.079.033.171.066.263.1,1.627.6,3.274,1.14,4.934,1.634a80.428,80.428,0,0,0,9.143,2.062c.152.026,1.311.2,1.785.283.415.053,1.212.151,1.324.158q2.352.257,4.7.389a93.119,93.119,0,0,0,9.492.046c1.772-.086,3.531-.211,5.3-.375.883-.086,1.759-.178,2.641-.283.132-.013.224-.026.31-.033.066-.013.132-.02.217-.033a96.36,96.36,0,0,0,18.576-4.6,100.922,100.922,0,0,0,14.795-6.271,89.455,89.455,0,0,0,8-4.637c1.212-.79,2.4-1.614,3.57-2.464.165-.112.27-.191.349-.244.04-.033.066-.059.112-.092.422-.336.843-.678,1.252-1.028a50.82,50.82,0,0,0,10.948-12.232,86.584,86.584,0,0,0,4.644-8.333c.665-1.344,1.3-2.707,1.923-4.077.31-.685.613-1.377.916-2.068.04-.079.441-1.041.441-1.041,10.039-24.036,19.84-48.916,24.339-74.658,1.844-10.572,2.582-25.736.6-36.183a79.827,79.827,0,0,0-2.523-9.821c-.408-1.271-.869-2.523-1.337-3.781-.079-.217-.145-.389-.2-.534-.224-.514-.448-1.028-.692-1.535a83.319,83.319,0,0,0-8.425-14.142c-.237-.329-.685-.9-.8-1.061-.3-.369-.586-.738-.889-1.107q-1.284-1.551-2.615-3.05-2.678-3.023-5.559-5.869c-3.873-3.84-8-7.424-12.226-10.875q-1.887-1.541-3.82-3.043c-.441-.343-1.871-1.436-2.365-1.825q-3-2.292-6.054-4.525c-4.42-3.228-8.893-6.376-13.378-9.505-.165-.119-.323-.231-.487-.343a11.868,11.868,0,0,1-1.5-1.232,11.024,11.024,0,0,1-1.37-1.568c2.161-.145,4.334-.2,6.508-.178a81.064,81.064,0,0,1,49.443,17.627,109.339,109.339,0,0,1,18.9,23.615c8.319,14.248,11.725,29.984,11.988,45.971" transform="translate(-174.836 0)" fill="#252626"/>
            </g>
          </g>
        </g>
        <path id="Trazado_2952" data-name="Trazado 2952" d="M439.007,204.686c-3.355,19.074-21.2,31.875-39.864,28.593s-21.133-19.658-17.778-38.731,11.265-33.622,29.926-30.34,31.071,21.405,27.716,40.479" transform="translate(-129.725 -55.884)" fill="#bcbbbb"/>
        <path id="Trazado_2953" data-name="Trazado 2953" d="M404.183,234.59a35.637,35.637,0,0,1-6.181-.541c-9.278-1.632-15.471-6.51-18.406-14.5-2.414-6.572-2.646-15.122-.708-26.14s5.073-18.976,9.586-24.329c5.484-6.507,12.969-8.979,22.247-7.347,19.527,3.434,32.559,22.449,29.053,42.386a36.866,36.866,0,0,1-14.854,23.733,35.453,35.453,0,0,1-20.736,6.738m1.169-70.056a17.852,17.852,0,0,0-14.36,6.669c-4.127,4.9-7.026,12.348-8.86,22.778s-1.653,18.422.557,24.433c2.536,6.9,7.732,10.956,15.884,12.39A32.085,32.085,0,0,0,423,225.176a33.592,33.592,0,0,0,13.531-21.627l1.622.285-1.622-.285c3.192-18.149-8.642-35.452-26.379-38.572a27.733,27.733,0,0,0-4.8-.443" transform="translate(-128.869 -55.032)" fill="#252626"/>
        <path id="Trazado_2954" data-name="Trazado 2954" d="M421.284,246.031c0,3.762-3.727,6.811-8.325,6.811s-8.325-3.049-8.325-6.811,3.728-6.811,8.325-6.811,8.325,3.049,8.325,6.811" transform="translate(-138.099 -81.644)" fill="#e9e9ea"/>
        <path id="Trazado_2955" data-name="Trazado 2955" d="M412.448,253.319c-5.135,0-9.313-3.5-9.313-7.8s4.178-7.8,9.313-7.8,9.313,3.5,9.313,7.8-4.178,7.8-9.313,7.8m0-13.623c-4.046,0-7.337,2.612-7.337,5.823s3.292,5.824,7.337,5.824,7.337-2.612,7.337-5.824-3.292-5.823-7.337-5.823" transform="translate(-137.587 -81.132)" fill="#252626"/>
        <path id="Trazado_2956" data-name="Trazado 2956" d="M425.477,167.2a25.971,25.971,0,0,0-1.58,4.293q-.72,2.228-1.361,4.48c-.869,3.049-1.6,6.142-2.2,9.255a125.407,125.407,0,0,0-2.248,18.7c-.139,3.533-.133,7.073-.019,10.607a.881.881,0,0,0,1.76,0,141.576,141.576,0,0,1,4.278-36.669c.415-1.666.839-3.328,1.306-4.98a49.917,49.917,0,0,0,1.45-5.1c.134-.789-.948-1.4-1.383-.583" transform="translate(-142.654 -56.934)" fill="#252626"/>
        <path id="Trazado_2957" data-name="Trazado 2957" d="M416.936,263.458a21.2,21.2,0,0,0-.09-2.723.722.722,0,0,0-1.383,0,21.2,21.2,0,0,0-.086,2.723c-.012.879,0,1.759,0,2.638a.78.78,0,1,0,1.559,0c0-.879.011-1.759,0-2.638" transform="translate(-141.763 -88.812)" fill="#252626"/>
        <path id="Trazado_2958" data-name="Trazado 2958" d="M446.437,184.409a20.958,20.958,0,0,0-8.642-7.574c-.292-.137-.546.275-.257.44a22.976,22.976,0,0,1,7.978,7.673,22.226,22.226,0,0,1,2.348,4.961,26.673,26.673,0,0,1,1.037,5.5.54.54,0,0,0,1.08,0,20.607,20.607,0,0,0-3.544-11" transform="translate(-149.285 -60.343)" fill="#252626"/>
        <path id="Trazado_2959" data-name="Trazado 2959" d="M357.289,28.142a1.85,1.85,0,0,0-1.518.262c-.64.319-1.285.627-1.933.93q-1.781.832-3.618,1.539a58.259,58.259,0,0,1-7.662,2.351,64.6,64.6,0,0,1-15.757,1.6,65.606,65.606,0,0,1-9.213-.839c-.028,0-.041.037-.012.045a57.765,57.765,0,0,0,32.122-1.29q2.244-.724,4.425-1.626c.688-.285,1.371-.58,2.046-.9s1.319-.546,1.553-1.313a.63.63,0,0,0-.431-.759" transform="translate(-108.38 -9.578)" fill="#252626"/>
        <path id="Trazado_2960" data-name="Trazado 2960" d="M313.544,35.059a.4.4,0,0,0-.059-.113c0-.009-.007-.019-.011-.029l-.045-.107a.342.342,0,0,0-.115-.126.227.227,0,0,0-.1-.057.339.339,0,0,0-.173-.039l-.119.016-.107.045a.5.5,0,0,0-.206.267l-.01.027a.409.409,0,0,0-.034.053.525.525,0,0,0,.476.721l.138-.018a.517.517,0,0,0,.23-.134l.081-.105a.511.511,0,0,0,.071-.263c-.006-.046-.013-.092-.018-.138" transform="translate(-106.661 -11.805)" fill="#252626"/>
        <path id="Trazado_2961" data-name="Trazado 2961" d="M246.064,277.94a4.97,4.97,0,0,0,1.114,2.782,9.783,9.783,0,0,0,2.06,2.2,8.1,8.1,0,0,0,5.455,1.9c.351-.02.373-.573.057-.67a13.14,13.14,0,0,1-4.292-2.128,14.311,14.311,0,0,1,6.411-2.975c.1-.017.2-.028.3-.044a1.047,1.047,0,0,0,.605-.09,19.094,19.094,0,0,1,6.641.391,27.017,27.017,0,0,1,5.712,2.054c.146.184.29.37.451.543a.408.408,0,0,0,.57-.016c.6.325,1.189.667,1.77,1.036,2.765,1.755,5.2,3.99,8.032,5.627a.124.124,0,0,0,.166-.18,31.979,31.979,0,0,0-5.962-5.434,42.724,42.724,0,0,0-4.658-3.044c-.408-.837-.873-1.647-1.318-2.465-.729-1.339-1.445-2.685-2.2-4.008-.1-.174-.2-.35-.307-.526a3.679,3.679,0,0,0-1.472-2.074,4.44,4.44,0,0,0-3.957-1.7c-2.24.263-3.987,2.007-5.436,3.581a40.347,40.347,0,0,0-5.174,6.763,11.384,11.384,0,0,0-1.5,1.281,10.637,10.637,0,0,1-.678-.87c-.5-.724-.765-1.585-1.317-2.273a.609.609,0,0,0-1.065.333" transform="translate(-83.979 -91.839)" fill="#252626"/>
        <path id="Trazado_2962" data-name="Trazado 2962" d="M242.868,321.909a119.488,119.488,0,0,1-7.047-17.125,66.584,66.584,0,0,1-2.693-8.689c-.58-3.027-1.373-6.009-1.961-9.036a142.581,142.581,0,0,1-2.089-36.535c.229-3.444.561-6.886,1.025-10.307.458-3.376,1.109-6.734,1.478-10.12.04-.371-.515-.406-.622-.084a55.414,55.414,0,0,0-1.987,9c-.472,3.054-.858,6.127-1.108,9.207a128.785,128.785,0,0,0-.211,18.612,156.653,156.653,0,0,0,2.275,18.18,173.3,173.3,0,0,0,4.571,18.043,141.463,141.463,0,0,0,7.756,19.213c.19.41.828.051.613-.358" transform="translate(-77.614 -78.427)" fill="#252626"/>
        <path id="Trazado_2963" data-name="Trazado 2963" d="M347.258,49.105a.023.023,0,0,0,0,.046.023.023,0,0,0,0-.046" transform="translate(-118.509 -16.759)" fill="#252626"/>
        <path id="Trazado_2964" data-name="Trazado 2964" d="M397.22,108.449a131.016,131.016,0,0,1-19.711-1.649c-2.752-.444-5.51-1.242-6.654-4.056-1.008-2.479-.916-5.353-1.225-7.974A87.376,87.376,0,0,0,359.5,62.9a83.5,83.5,0,0,0-4.955-7.941,47.945,47.945,0,0,0-6.013-7.357c-.346-.327-.995.111-.691.534,1.681,2.34,3.542,4.548,5.2,6.907s3.207,4.814,4.639,7.325a86.967,86.967,0,0,1,7.024,15.8,86.025,86.025,0,0,1,3.864,17.009c.3,2.6.25,5.392,1.225,7.857a7.5,7.5,0,0,0,5.478,4.45,67.713,67.713,0,0,0,10.615,1.658q5.651.56,11.335.6a.649.649,0,0,0,0-1.3" transform="translate(-118.687 -16.208)" fill="#252626"/>
        <path id="Trazado_2965" data-name="Trazado 2965" d="M416.02,130.641a2.308,2.308,0,0,0-2.108-1.65,2.553,2.553,0,0,0-2.508,1.392.521.521,0,0,0,.079.58c-.049.078-.1.159-.146.237-.028.043-.059.082-.082.126-.015.029-.028.066-.04.095s-.014.034-.019.045a1.375,1.375,0,0,0,.017.989,2.412,2.412,0,0,0,1.349,1.342,2.9,2.9,0,0,0,1.559.157,2.4,2.4,0,0,0,1.232-.705,2.789,2.789,0,0,0,.668-2.608m-1.026.887c0,.02-.007.05-.01.063-.008.04-.016.079-.026.118-.02.079-.044.156-.072.232-.006.016-.026.057-.031.07-.015.031-.029.061-.045.092a2.253,2.253,0,0,1-.125.206c-.017.024-.1.125-.009.014-.026.03-.051.061-.078.091-.053.059-.112.111-.171.165a1.23,1.23,0,0,1-.111.072c-.035.019-.07.036-.106.054h0l-.009,0c-.08.023-.159.045-.24.065l-.011,0h-.014c-.045,0-.091.005-.137,0s-.086,0-.13-.007l-.067-.013c-.044-.01-.088-.022-.132-.034l-.088-.028-.007,0c-.032-.018-.072-.047-.083-.055-.026-.016-.051-.034-.076-.052l.068.053c-.043,0-.277-.226-.34-.265l-.022-.019c-.047-.041-.092-.084-.136-.128s-.064-.068-.094-.1l-.023-.028-.005-.008-.076-.117a1.3,1.3,0,0,0-.121-.161c-.021-.036-.159-.227-.173-.248a1.654,1.654,0,0,0-.2-.244c-.023-.031-.045-.063-.07-.092,0,0-.027-.032-.039-.044a.43.43,0,0,1-.036-.087.424.424,0,0,0,.294-.222,1.794,1.794,0,0,1,.115-.209c.006-.01.034-.048.042-.06l.049-.058c.053-.058.111-.109.169-.163.009-.007.005-.006.01-.011a.127.127,0,0,0,.013-.007c.043-.029.086-.059.132-.086s.119-.065.181-.095l.055-.024c.037-.014.075-.026.113-.038.063-.019.128-.036.193-.05.04-.009.079-.014.118-.022-.143.028.029,0,.06,0,.08-.006.16-.007.24-.005.04,0,.08,0,.119.007.011,0,.031,0,.049.008.067.013.133.024.2.043.038.011.075.022.113.035.019.006.082.034.1.039.055.028.111.054.163.087.03.018.059.039.088.059.055.053.114.1.165.158.009.011.034.043.045.058.02.03.042.059.061.091s.039.069.057.1c.005.01.014.031.021.049.022.063.044.125.06.19.009.039.016.078.025.117l0,.008v0a2.642,2.642,0,0,1,.009.28c0,.05-.007.1-.012.15" transform="translate(-140.309 -44.021)" fill="#252626"/>
        <path id="Trazado_2966" data-name="Trazado 2966" d="M411.235,132.752v0c-.01.024-.018.042,0,0" transform="translate(-140.348 -45.306)" fill="#252626"/>
        <path id="Trazado_2967" data-name="Trazado 2967" d="M411.244,132.721l0,.009c.011-.028.025-.059,0-.009" transform="translate(-140.354 -45.288)" fill="#252626"/>
        <path id="Trazado_2968" data-name="Trazado 2968" d="M257.688,294.343a8.279,8.279,0,0,0,2.443-.913,13.317,13.317,0,0,1,2.763-.91,6.746,6.746,0,0,1,4.776.752c.306.192.675-.267.393-.508a6.21,6.21,0,0,0-4.976-1.286,11.882,11.882,0,0,0-2.931.815,6.98,6.98,0,0,0-2.68,1.538c-.153.178-.069.536.212.512" transform="translate(-87.849 -99.455)" fill="#252626"/>
        <g id="Grupo_3069" data-name="Grupo 3069" transform="translate(94.555 137.537)" opacity="0.22">
          <g id="Grupo_3068" data-name="Grupo 3068">
            <g id="Grupo_3067" data-name="Grupo 3067" clip-path="url(#clip-path-5)">
              <path id="Trazado_2969" data-name="Trazado 2969" d="M287.9,222.035c-.568-10.485-15.586-13.123-18.635-2.522-.33,1.146-.721,2.294-.986,3.457-.134.37-.217.611-.256.742-.175.352-.342.707-.537,1.049-.259.453-.543.891-.837,1.322l-.294.343c-.253.247-2.225,1.9-1.823,1.7-.528.342-1.069.661-1.621.964.844-.5-1.719.615-2.2.714a12.733,12.733,0,0,1-5.683-.448c-5.167-1.377-9.423-4.1-14.355-6.955a143.987,143.987,0,0,0-17.49-8.821c-12.417-5.089-25.555-6.019-38.312-1.586-5.106,1.774-11.117,4.671-16.057,4.853q-1.2.059-2.4,0-2.159-.163-.5-.052a17.787,17.787,0,0,1-1.806-.493q1.216.626-.306-.132a15.643,15.643,0,0,1-1.357-.808c-.111-.1-.256-.233-.447-.4l-.37-.406a15.6,15.6,0,0,1-.814-1.386c-4.961-8.955-20.143-2.933-16.789,7.078,4.015,11.988,16.63,17.007,28.467,15.459,11.206-1.466,19.827-5.966,30.911-4.933A75.7,75.7,0,0,1,232.9,240.4c10.139,5.863,21.48,11.079,33.441,8.1,11.262-2.8,22.218-14.338,21.561-26.471" transform="translate(-143.547 -208.799)" fill="#252626"/>
            </g>
          </g>
        </g>
        <path id="Trazado_2970" data-name="Trazado 2970" d="M173.4,176.272a9.861,9.861,0,0,1,2.382,4.753,14.486,14.486,0,0,1,.4,2.512,6.019,6.019,0,0,1-.13,2.473c-.066.175-.416.186-.475,0a16.514,16.514,0,0,1-.312-2.3,19.059,19.059,0,0,0-.605-2.537c-.495-1.6-1.368-3.105-1.892-4.7-.1-.311.4-.43.628-.2" transform="translate(-58.963 -60.121)" fill="#fff"/>
        <path id="Trazado_2971" data-name="Trazado 2971" d="M292.9,200.994a6.547,6.547,0,0,0,1.723-2.246,19.855,19.855,0,0,0,1.163-2.691,19.442,19.442,0,0,0,.756-2.687,10.656,10.656,0,0,0,.318-2.808.585.585,0,0,0-1.1-.124c-.335.864-.521,1.783-.8,2.663-.27.858-.569,1.715-.9,2.56s-.718,1.673-1.092,2.506a9.018,9.018,0,0,0-.909,2.539c-.043.381.546.5.835.289" transform="translate(-99.68 -64.881)" fill="#fff"/>
        <path id="Trazado_2972" data-name="Trazado 2972" d="M302.814,148.7a.281.281,0,0,0-.537,0,33.424,33.424,0,0,1-1.061,4.176,10.7,10.7,0,0,1-10.111,7.021.549.549,0,0,0,0,1.1,11.122,11.122,0,0,0,8.949-3.338,10.894,10.894,0,0,0,2.543-4.11,7.461,7.461,0,0,0,.216-4.845" transform="translate(-99.172 -50.681)" fill="#eb5f4d"/>
        <path id="Trazado_2973" data-name="Trazado 2973" d="M309.029,160.29a.566.566,0,0,0-.828-.337,4.159,4.159,0,0,0-.981,1.395,11.363,11.363,0,0,1-.99,1.39,9.907,9.907,0,0,1-2.744,2.326,10.326,10.326,0,0,1-3.658,1.239,12.41,12.41,0,0,1-1.941.081,9.277,9.277,0,0,0-1.951-.061.3.3,0,0,0-.132.5,3.756,3.756,0,0,0,1.933.677,9.32,9.32,0,0,0,2.159.077,10.637,10.637,0,0,0,4.251-1.2,11.036,11.036,0,0,0,3.118-2.475,9.965,9.965,0,0,0,1.2-1.719,3.046,3.046,0,0,0,.561-1.9" transform="translate(-100.926 -54.564)" fill="#eb5f4d"/>
        <path id="Trazado_2974" data-name="Trazado 2974" d="M311.362,172.667a6.514,6.514,0,0,0-2.743.522,13.118,13.118,0,0,1-2.838.464,17.247,17.247,0,0,1-5.79-.9c-.493-.152-.717.522-.333.79a10.424,10.424,0,0,0,6.123,1.684,12.849,12.849,0,0,0,3.182-.439c.93-.26,2.186-.676,2.607-1.613a.352.352,0,0,0-.207-.51" transform="translate(-102.205 -58.917)" fill="#eb5f4d"/>
        <path id="Trazado_2975" data-name="Trazado 2975" d="M180.489,154.613a5.435,5.435,0,0,0-1.205-.964,10.184,10.184,0,0,1-1.107-.962,10.032,10.032,0,0,1-1.734-2.354,11.159,11.159,0,0,1-.934-2.686,10.616,10.616,0,0,1-.263-1.392,10.9,10.9,0,0,0-.166-1.582.547.547,0,0,0-.987-.129,5.54,5.54,0,0,0-.495,3.289,9.193,9.193,0,0,0,1.117,3.426,9.695,9.695,0,0,0,3.482,3.748,3.455,3.455,0,0,0,1.7.648c.472-.028.93-.586.6-1.041" transform="translate(-59.232 -49.245)" fill="#eb5f4d"/>
        <path id="Trazado_2976" data-name="Trazado 2976" d="M175.618,159.031a8.677,8.677,0,0,1-1.126.009,3.361,3.361,0,0,1-.987-.156c-.186-.048-.372-.09-.555-.15-.076-.025-.152-.053-.226-.082-.012-.007-.165-.074-.167-.074a4.832,4.832,0,0,1-.5-.285c-.068-.045-.136-.094-.2-.143-.018-.018-.132-.115-.132-.115a5.04,5.04,0,0,1-.393-.4c-.062-.07-.124-.14-.184-.211-.026-.032-.036-.041-.041-.047s-.013-.024-.038-.062a7.69,7.69,0,0,1-.558-.973c-.09-.2-.227-.6-.332-.891a2.438,2.438,0,0,1-.1-.5c-.026-.2-.093-.393-.138-.592a.422.422,0,0,0-.762-.1,3.757,3.757,0,0,0-.249,2.752,4.877,4.877,0,0,0,1.478,2.412A5.419,5.419,0,0,0,173,160.706a5.044,5.044,0,0,0,1.49.014,4.08,4.08,0,0,0,1.449-.5c.532-.287.321-1.261-.323-1.194" transform="translate(-57.605 -52.578)" fill="#eb5f4d"/>
        <path id="Trazado_2977" data-name="Trazado 2977" d="M170.318,166.034a.773.773,0,0,0-.715-.545c-.436-.025-.873-.026-1.309-.063-.042,0-.4-.041-.155-.013-.168-.02-.334-.044-.5-.059l-.035,0-.033-.007c-.107-.019-.215-.036-.323-.058-.431-.088-.842-.244-1.275-.321.1.018-.507-.074-.248-.024a1.229,1.229,0,0,0-.6-.041.825.825,0,0,0-.622.776.881.881,0,0,0,.251.63,2.322,2.322,0,0,0,.238.177c.085.06.092.059.018,0a3.572,3.572,0,0,0,.6.387,5.639,5.639,0,0,0,1.622.379,5.2,5.2,0,0,0,1.23.016,7.041,7.041,0,0,0,.8-.117,3.892,3.892,0,0,0,.714-.278.743.743,0,0,0,.341-.838" transform="translate(-56.141 -56.272)" fill="#eb5f4d"/>
        <g id="Grupo_3072" data-name="Grupo 3072" transform="translate(108.656 44.151)" opacity="0.57">
          <g id="Grupo_3071" data-name="Grupo 3071">
            <g id="Grupo_3070" data-name="Grupo 3070" clip-path="url(#clip-path-6)">
              <path id="Trazado_2978" data-name="Trazado 2978" d="M264.5,72.65c-.275-.114-.553-.219-.829-.329-.006-.15-.115-.292-.364-.326l-.412-.058a.28.28,0,0,0-.2-.317c-.5-.225-1.028-.431-1.564-.626a1.887,1.887,0,0,0-.419-.173c-.108-.03-.219-.052-.328-.08-1.225-.41-2.491-.764-3.744-1.083-2.089-.532-4.276-.912-6.436-1.258a1.759,1.759,0,0,0-.827-.17c-.078,0-.156.006-.235.008a108.437,108.437,0,0,0-12.31-1.159,90.319,90.319,0,0,0-26.5,3.023,75.827,75.827,0,0,0-22.115,9.789,55.456,55.456,0,0,0-15.011,14.216,52.147,52.147,0,0,0-5.588,10.2.947.947,0,0,0-.049.088c-.017.051-.033.1-.05.155a38.5,38.5,0,0,0-1.524,4.72q-.488,1.552-.972,3.106a.683.683,0,0,0-.031.189c-.2.516.285,1.223,1.176,1.248,3.292.092,6.585.024,9.879.128s6.575.314,9.844.626a1.556,1.556,0,0,0,1.487-.821c3.552-8.636,9.835-16.646,18.132-23.351A86.881,86.881,0,0,1,233.13,75.555a115.191,115.191,0,0,1,18.892-2.049c1.977-.061,3.957-.119,5.936-.094a54.855,54.855,0,0,1,5.96.242c.8.1,1.379-.675.584-1" transform="translate(-164.954 -67.026)" fill="#fff"/>
            </g>
          </g>
        </g>
        <path id="Trazado_2979" data-name="Trazado 2979" d="M253.943,355.086a2.64,2.64,0,0,0-2.52.522,2.072,2.072,0,0,0-.306.37c-.344.036-.577.414-.64.729a2.512,2.512,0,0,0,.2,1.6,2.673,2.673,0,0,0,1.009,1.105,2.722,2.722,0,0,0,1.33.456,2.269,2.269,0,0,0,1.342-.385,2.784,2.784,0,0,0,1.219-2.4,2.231,2.231,0,0,0-1.632-2m-.431,4.054a1.4,1.4,0,0,1-1.147-.211,1.51,1.51,0,0,1-.361-.4,2.42,2.42,0,0,1-.159-.282c-.024-.049-.045-.1-.067-.15l-.03-.065-.007-.019a4.8,4.8,0,0,1-.149-.626s-.007-.058-.01-.1,0-.106,0-.159.007-.093.009-.14c.007-.03.013-.061.018-.09a2.176,2.176,0,0,0,.037-.414.583.583,0,0,0-.053-.219,2.048,2.048,0,0,1,2-.623,1.61,1.61,0,0,1,1.337,1.688,2.046,2.046,0,0,1-1.411,1.809" transform="translate(-85.468 -121.149)" fill="#252626"/>
        <g id="Grupo_3075" data-name="Grupo 3075" transform="translate(79.473 88.125)" opacity="0.22">
          <g id="Grupo_3074" data-name="Grupo 3074">
            <g id="Grupo_3073" data-name="Grupo 3073" clip-path="url(#clip-path-7)">
              <path id="Trazado_2980" data-name="Trazado 2980" d="M132.172,134.688a3.54,3.54,0,0,0-4.054,1.618c-4.459,7.867-6.432,17.628-7.179,26.549-.738,8.812-.2,19.148,3.174,27.424.045.11.1.2.154.3q.166.887.362,1.761c.831,3.664,6.2,2.68,6.348-.859.368-9.039-.211-17.919,1.016-26.95a122.843,122.843,0,0,1,6.582-25.941c1.479-4.008-3.68-6.135-6.4-3.905" transform="translate(-120.65 -133.785)" fill="#252626"/>
            </g>
          </g>
        </g>
        <g id="Grupo_3078" data-name="Grupo 3078" transform="translate(263.759 105.97)" opacity="0.22">
          <g id="Grupo_3077" data-name="Grupo 3077">
            <g id="Grupo_3076" data-name="Grupo 3076" clip-path="url(#clip-path-8)">
              <path id="Trazado_2981" data-name="Trazado 2981" d="M444.4,188.559c-2.859-8.712-9.634-17.384-17.083-22.683-6.985-4.969-18.256-7.163-25.807-2.195-2.174,1.431-.856,5.417,1.872,4.44a18.43,18.43,0,0,1,9.854-.922,109.887,109.887,0,0,0-3.821,20.678,105.325,105.325,0,0,0-.307,12.266c.088,4.092-.256,8.269.559,12.3.558,2.765,4.511,1.914,4.68-.634.258-3.874-.371-7.781-.169-11.671.2-3.873.672-7.8,1.109-11.655a185.459,185.459,0,0,1,3.424-19.284,28.7,28.7,0,0,1,5.577,4.029c5.388,4.885,10.769,11.932,12.481,19.1,3.674,15.387-9.089,29.2-21.485,36.092-2.987,1.661-.36,5.729,2.608,4.461,8.625-3.683,16.363-8.64,21.853-16.5,5.521-7.906,7.7-18.556,4.658-27.83" transform="translate(-400.419 -160.875)" fill="#252626"/>
            </g>
          </g>
        </g>
        <path id="Trazado_2982" data-name="Trazado 2982" d="M244.995,369.892c-1.877,2.072-2.975,4.952-3.929,7.549a39.194,39.194,0,0,0-2.037,8.524.548.548,0,0,0,.273.475.383.383,0,0,0,.423.055.55.55,0,0,0,.385-.384,49.179,49.179,0,0,1,2.015-8.229,42.116,42.116,0,0,1,1.587-4.013c.57-1.252,1.208-2.456,1.656-3.759a.225.225,0,0,0-.374-.218" transform="translate(-81.578 -126.219)" fill="#252626"/>
        <path id="Trazado_2983" data-name="Trazado 2983" d="M274.993,509.313a48.325,48.325,0,0,0-4.1,2.678q-2.092,1.41-4.3,2.641a65.75,65.75,0,0,1-9.147,4.246,77.336,77.336,0,0,1-19.279,4.434,81.917,81.917,0,0,1-21.5-.752c0-.012,0-.021,0-.034a184.793,184.793,0,0,1-4.861-39.334q-.043-2.778,0-5.557.02-1.429.032-2.857a7.056,7.056,0,0,0-.244-2.591c-.05-.14-.277-.21-.353-.046-.625,1.362-.5,3.068-.531,4.542-.041,1.693-.045,3.388-.032,5.081q.037,5,.344,10a186.6,186.6,0,0,0,2.325,19.852q.921,5.408,2.165,10.752a100.542,100.542,0,0,1-17.952-4.978,117.978,117.978,0,0,1-11.009-4.815c-1.732-.865-3.483-1.723-5.183-2.651a35.6,35.6,0,0,0-5.22-2.689c-.2-.071-.343.207-.2.348a20.855,20.855,0,0,0,4.332,3.054c1.541.922,3.067,1.851,4.658,2.686,3.146,1.651,6.364,3.166,9.658,4.5a95.212,95.212,0,0,0,20.737,5.88c13.505,2.148,27.386,1.516,40.346-3.061a76.161,76.161,0,0,0,10.363-4.533c1.686-.9,3.33-1.865,4.937-2.9a21.551,21.551,0,0,0,4.4-3.414.31.31,0,0,0-.374-.485" transform="translate(-60.027 -161.106)" fill="#252626"/>
        <path id="Trazado_2984" data-name="Trazado 2984" d="M212.754,556.9q-1.381-3.164-2.8-6.311c-.441-.983-.847-1.994-1.341-2.952a4.22,4.22,0,0,0-1.753-1.927,2.459,2.459,0,0,0-3.651,2.092,4.268,4.268,0,0,0,.839,2.617c.281.428.6.833.911,1.238a6.931,6.931,0,0,0,1.089,1.275.59.59,0,0,0,.922-.711c-.694-1.371-2.412-2.5-2.4-4.189.006-.565.288-1.217.925-1.263a1.961,1.961,0,0,1,1.651,1.12,18.108,18.108,0,0,1,1.012,2.134l1.092,2.466q1.135,2.563,2.3,5.114c.372.817,1.553.107,1.2-.7" transform="translate(-69.352 -186.146)" fill="#252626"/>
        <path id="Trazado_2985" data-name="Trazado 2985" d="M228.418,561.536a33.036,33.036,0,0,0-.945-3.328l-1.005-3.311c-.5-1.645-.9-4.322-2.975-4.677a2.108,2.108,0,0,0-2.089.989,4.15,4.15,0,0,0-.458,2.693,11.986,11.986,0,0,0,1.819,5.766c.258.366.945.159.776-.327a22.933,22.933,0,0,1-1.374-4.861,4.751,4.751,0,0,1,.1-2.413.943.943,0,0,1,1.584-.384,4.528,4.528,0,0,1,.915,2.115l.812,2.692a54.293,54.293,0,0,0,1.684,5.368.6.6,0,0,0,1.161-.32" transform="translate(-75.395 -187.776)" fill="#252626"/>
        <path id="Trazado_2986" data-name="Trazado 2986" d="M246.535,556.255a2.243,2.243,0,0,0-3.48-.868,9.138,9.138,0,0,0-2.847,3.441,11.787,11.787,0,0,0-.945,2.393,3.437,3.437,0,0,0-.069,2.409.374.374,0,0,0,.582.075,5.629,5.629,0,0,0,.724-2.143,10.922,10.922,0,0,1,.91-2.217,10.383,10.383,0,0,1,1.384-1.955c.445-.491,1.08-1.2,1.8-1.187.656.013.818.744.863,1.275a14.535,14.535,0,0,1-.088,2.566,24.917,24.917,0,0,1-1.155,5.4c-.273.826,1.01,1.165,1.3.357a23.186,23.186,0,0,0,1.315-7.595,5.024,5.024,0,0,0-.291-1.948" transform="translate(-81.566 -189.387)" fill="#252626"/>
        <path id="Trazado_2987" data-name="Trazado 2987" d="M267.071,554.856a1.88,1.88,0,0,0-1.5-1.064,2.552,2.552,0,0,0-1.81.678,8.138,8.138,0,0,0-1.378,1.6q-.645.893-1.2,1.848a19.547,19.547,0,0,0-1.093,2.247,5.507,5.507,0,0,0-.673,2.346c.024.3.424.548.659.273a5.927,5.927,0,0,0,.788-1.577q.364-.841.8-1.649a24.994,24.994,0,0,1,1.946-3.109c.393-.53,1.653-2.157,2.327-1.132a1.8,1.8,0,0,1,.007,1.524,15.441,15.441,0,0,1-.728,1.794c-.629,1.354-1.373,2.651-2.115,3.946a.6.6,0,0,0,1.026.6c.785-1.36,1.572-2.723,2.226-4.152.566-1.242,1.383-2.817.715-4.17" transform="translate(-88.537 -189.003)" fill="#252626"/>
        <path id="Trazado_2988" data-name="Trazado 2988" d="M283.568,552.907a1.333,1.333,0,0,0-1.516-.7,3.8,3.8,0,0,0-1.589.918,13.312,13.312,0,0,0-2.537,2.774,11.842,11.842,0,0,0-1.032,1.821c-.154.339-.3.684-.423,1.034a2.472,2.472,0,0,0-.25,1.064c.032.294.422.558.659.273a6.081,6.081,0,0,0,.651-1.429,14.722,14.722,0,0,1,.747-1.411,12.423,12.423,0,0,1,1.991-2.533,11.537,11.537,0,0,1,1.19-1.027c.2-.15.8-.62,1.072-.4s-.09.866-.2,1.086q-.43.866-.9,1.711c-.334.6-.682,1.194-1.027,1.788q-.274.474-.56.941c-.177.287-.427.593-.288.946a.369.369,0,0,0,.342.261c.381,0,.565-.294.763-.58s.413-.6.614-.909c.414-.63.79-1.278,1.151-1.94.341-.625.684-1.256.975-1.906a2.167,2.167,0,0,0,.167-1.784" transform="translate(-94.27 -188.455)" fill="#252626"/>
        <path id="Trazado_2989" data-name="Trazado 2989" d="M153.884,408.712c-.271-.557-1.074-.707-1.6-.955q-.946-.442-1.861-.943a36.365,36.365,0,0,1-3.62-2.286,32.112,32.112,0,0,1-3.278-2.68c-1.045-.973-1.983-2.05-3.012-3.037-.35-.336-.961.1-.688.532a24.539,24.539,0,0,0,6.171,6.135,30.722,30.722,0,0,0,3.7,2.363q.964.527,1.962.987c.559.259,1.33.8,1.95.575a.48.48,0,0,0,.281-.692" transform="translate(-47.697 -136.071)" fill="#252626"/>
        <path id="Trazado_2990" data-name="Trazado 2990" d="M360.23,432.479a32.129,32.129,0,0,0-9.179-12.541c-2-1.775-4.128-3.4-6.265-5.006a57.706,57.706,0,0,0-7.19-4.918c-2.668-1.431-6.094-2.361-9.014-1.084-.366.159-.079.642.25.592a10.965,10.965,0,0,1,4.236.1,15.53,15.53,0,0,1,4.022,1.549,65.505,65.505,0,0,1,6.667,4.489,55.66,55.66,0,0,1,11.031,9.844,25.761,25.761,0,0,1,4.237,7.3c.277.75,1.488.422,1.206-.333" transform="translate(-112.084 -139.359)" fill="#252626"/>
        <path id="Trazado_2991" data-name="Trazado 2991" d="M363.476,436.5a2.6,2.6,0,0,0-2.265-2.23,2.325,2.325,0,0,0-1.848.556,2.17,2.17,0,0,0-.574.725,1.25,1.25,0,0,0-.122.714c-.021.081-.039.161-.052.239a2.329,2.329,0,0,0,.31,1.664,2.533,2.533,0,0,0,2.957.974,2.573,2.573,0,0,0,1.6-2.641m-1.014.4c0,.009-.018.1-.018.1a2.043,2.043,0,0,1-.087.291c-.009.018-.041.092-.041.091-.024.048-.05.095-.078.141-.018.03-.039.06-.058.09a.281.281,0,0,0-.02.037.2.2,0,0,0-.026.028,1.352,1.352,0,0,1-.4.345,1.427,1.427,0,0,1-.445.155l-.029.007h-.037l-.107.006c-.053,0-.107,0-.16,0-.036,0-.071,0-.107-.007l-.013,0c-.088-.018-.175-.037-.26-.063-.048-.015-.1-.032-.144-.051l-.022-.013a2.6,2.6,0,0,1-.274-.163c.02.014.066.059-.015-.013-.053-.047-.105-.095-.153-.147a1.258,1.258,0,0,1-.234-.4,2.8,2.8,0,0,1-.088-.335c0-.013-.008-.048-.01-.067a1.829,1.829,0,0,1-.011-.19c0-.036,0-.071,0-.107s0-.067.008-.1l0-.031a2.419,2.419,0,0,1,.073-.271c.03-.043.057-.088.084-.132l.009-.013a2.909,2.909,0,0,1,.248-.277c.026-.025.053-.048.08-.072a.117.117,0,0,0,.023-.024.154.154,0,0,0,.025-.014c.075-.049.149-.1.229-.14.048-.025.1-.046.146-.069l.067-.031.086-.032c.069-.022.138-.036.207-.055l.02-.005c.05-.006.1-.009.151-.01s.109,0,.163,0h.024a1.182,1.182,0,0,1,.524.214,1.525,1.525,0,0,1,.6.737,1.752,1.752,0,0,1,.061.242c0,.019.011.1.011.1,0,.053,0,.107,0,.161,0,.026,0,.052-.007.078" transform="translate(-122.38 -148.204)" fill="#252626"/>
        <path id="Trazado_2992" data-name="Trazado 2992" d="M380.1,500.271c-.057-.3-.505-.215-.516.07-.083,2.228.127,4.482.162,6.714s.031,4.484-.09,6.719a134,134,0,0,1-1.417,13.515,123.519,123.519,0,0,1-6.859,25.64,108.6,108.6,0,0,1-6.515,13.884c-.348.616.614,1.175.947.553,8.536-15.955,14.089-33.665,14.677-51.84.082-2.53.138-5.063.1-7.595a45.1,45.1,0,0,0-.493-7.659" transform="translate(-124.502 -170.675)" fill="#252626"/>
        <path id="Trazado_2993" data-name="Trazado 2993" d="M360.146,583.46a2.291,2.291,0,0,0-1.892-.2,1.525,1.525,0,0,0-.8.659,1.706,1.706,0,0,0-.18.426.732.732,0,0,0,.015.416.928.928,0,0,0,.285.595,1.477,1.477,0,0,0-.246.744,2.152,2.152,0,0,0,.383,1.213,1.993,1.993,0,0,0,2.429.724,2.374,2.374,0,0,0,1.52-2.251,2.892,2.892,0,0,0-1.508-2.328m.417,2.838a1.469,1.469,0,0,1-.524.62c-.063.04-.129.076-.2.11-.011.006-.043.019-.059.026l-.092.032c-.061.018-.122.031-.184.043l-.087.011c-.049,0-.1,0-.148,0l-.1-.005c.117.007-.039-.008-.055-.011-.036-.008-.242-.081-.139-.035-.061-.027-.117-.063-.175-.095l-.043-.03c-.026-.022-.053-.044-.077-.067s-.061-.065-.092-.1a.088.088,0,0,0-.018-.016l-.012-.02a2.077,2.077,0,0,1-.128-.21c-.012-.023-.023-.047-.034-.07s-.025-.071-.027-.078a1.669,1.669,0,0,1-.058-.241v-.018c-.005-.08-.021-.159-.029-.239,0,0,0,0,0,0a.147.147,0,0,0,0-.02c0-.043,0-.086,0-.129a.812.812,0,0,1,.1-.389.31.31,0,0,0-.2-.455.463.463,0,0,0,.043-.051c.045-.072.079-.15.125-.221l.012-.015c.014-.014.142-.138.1-.1l-.019.015.146-.112.025-.014s.095-.051.1-.06c.029-.011.059-.021.088-.03a1.422,1.422,0,0,1,.175-.04l.033,0c.052,0,.1-.005.155,0,.022,0,.192.011.132,0a1.538,1.538,0,0,1,1.3,1.174,1.356,1.356,0,0,1-.032.84" transform="translate(-121.925 -199.021)" fill="#252626"/>
        <path id="Trazado_2994" data-name="Trazado 2994" d="M107.745,395.965c-8.287,9.483-16.651,18.931-25.213,28.166a311.167,311.167,0,0,1-25.984,25.084c-2.566,2.194-5.173,4.34-7.79,6.473s-5.393,4.079-7.9,6.309c-.282.25.053.754.388.551a84.13,84.13,0,0,0,7.166-5.206q3.543-2.7,6.968-5.55,6.906-5.742,13.448-11.9c8.991-8.478,17.261-17.632,25.452-26.874,4.768-5.38,9.5-10.8,14.316-16.13.538-.595-.319-1.525-.846-.921" transform="translate(-13.907 -135.073)" fill="#252626"/>
        <g id="Grupo_3081" data-name="Grupo 3081" transform="translate(139.899 239.371)" opacity="0.34">
          <g id="Grupo_3080" data-name="Grupo 3080">
            <g id="Grupo_3079" data-name="Grupo 3079" clip-path="url(#clip-path-9)">
              <path id="Trazado_2995" data-name="Trazado 2995" d="M320.73,400.38a36.041,36.041,0,0,0-8.628-9.366c-4.579-3.367-11.206-5.392-17.026-4.25a6.277,6.277,0,0,0-2.641-5.344c-3.461-2.632-6.911-5.278-10.394-7.879-3.379-2.523-6.824-5.651-10.665-7.414a5.805,5.805,0,0,0-2.3-.548,3.316,3.316,0,0,0-1.39-.273c-4.355.084-8.763,1.816-13.125,2.325a81.025,81.025,0,0,1-13.377.426,82.78,82.78,0,0,1-12.845-1.685c-4.2-.878-8.935-3.11-13.214-2.968a2.793,2.793,0,0,0-1.952,4.713c3.178,3.166,8.939,4.419,13.185,5.444a80.935,80.935,0,0,0,14.245,2.068,82.2,82.2,0,0,0,13.177-.286c.115.1.218.2.346.294.692.5,1.4.986,2.106,1.462.1.159.215.318.34.476,4.048,5.1,8.624,9.642,12.964,14.489a26.615,26.615,0,0,1,3.775,5.471,42.879,42.879,0,0,0,4.172,16.312,37.171,37.171,0,0,0,6.264,9.383c.4.432.823.879,1.275,1.3-.939,6.634-3.256,13.03-5.859,19.2-3.2,7.574-6.447,15.341-10.893,22.283a53.679,53.679,0,0,1-15.2,15.081c-6.392,4.367-13.577,7.223-20.082,11.313-4.513,2.838-1.691,10.66,3.753,8.9a72.546,72.546,0,0,0,7.56-2.953,4.421,4.421,0,0,0,3.627.873c7.389-1.706,14.755-7.191,20.695-11.724l.03-.023a9.071,9.071,0,0,0,6.731-2.858,5.711,5.711,0,0,0,2.457-1.316c8.495-7.569,14.864-17.125,20.371-27,4.95-8.876,11.689-18.838,9.336-29.113a5.3,5.3,0,0,0,.9-1.761c.883-3.212-1.1-5.69-3.892-6.856-4.378-1.83-9.086-3.815-12.5-7.21-3.668-3.644-4.562-8.8-6.287-13.473,1.183,0,1.215-.624,2.151-1.342,1.03,1.044.671-2.34,2.56-2.915,1.128-.343,5.535,1.22,6.615,1.121.488.485,2.414,2.7,3.252,2.838,5.9,1,7.8,5.733,12.14,9.833.194.184,2.921,3,3.071,3.195,1.423,2.506,3.934,4.291,3.685,6.357-.449,3.7,4.93-1.848,4.679-6.357a18.479,18.479,0,0,0-3.183-10.247" transform="translate(-212.384 -363.395)" fill="#252626"/>
            </g>
          </g>
        </g>
        <g id="Grupo_3084" data-name="Grupo 3084" transform="translate(239.754 327.244)" opacity="0.34">
          <g id="Grupo_3083" data-name="Grupo 3083">
            <g id="Grupo_3082" data-name="Grupo 3082" clip-path="url(#clip-path-10)">
              <path id="Trazado_2996" data-name="Trazado 2996" d="M385.417,499.122a4.049,4.049,0,0,0-5.477-1.906c-2.487-.053-4.882,1.5-4.623,4.693,1.612,19.828-2.53,39.069-10.884,57.04a4.49,4.49,0,0,0,3.831,6.426,4.733,4.733,0,0,0,6.148,1.128c4.693-3.041,7.69-9.933,9.853-14.938a69.243,69.243,0,0,0,4.976-17.149c1.69-11.176,1.819-25.109-3.824-35.294" transform="translate(-363.976 -496.798)" fill="#252626"/>
            </g>
          </g>
        </g>
        <g id="Grupo_3087" data-name="Grupo 3087" transform="translate(19.472 254.651)" opacity="0.34">
          <g id="Grupo_3086" data-name="Grupo 3086">
            <g id="Grupo_3085" data-name="Grupo 3085" clip-path="url(#clip-path-11)">
              <path id="Trazado_2997" data-name="Trazado 2997" d="M94.063,387.674c-11.64,8.786-23.1,17.817-34.62,26.76-5.187,4.027-10.406,8.018-15.4,12.291-4.89,4.186-10.463,8.771-13.783,14.36-2.689,4.527,2.91,9.1,6.926,5.825,4.96-4.042,9.221-8.989,14.138-13.13,5.04-4.245,10.277-8.253,15.478-12.3,11.336-8.815,22.741-17.552,33.955-26.521,5.013-4.01-1.678-11.076-6.7-7.287" transform="translate(-29.56 -386.592)" fill="#252626"/>
            </g>
          </g>
        </g>
        <g id="Grupo_3090" data-name="Grupo 3090" transform="translate(96.082 250.473)" opacity="0.34">
          <g id="Grupo_3089" data-name="Grupo 3089">
            <g id="Grupo_3088" data-name="Grupo 3088" clip-path="url(#clip-path-12)">
              <path id="Trazado_2998" data-name="Trazado 2998" d="M158.959,381.623c-6.625,6.648-13.274,16.97-13.092,26.732.092,4.925,6.469,5.282,8.127,1.1,1.522-3.837,2.311-7.769,4.272-11.456a41.536,41.536,0,0,1,7.264-9.8c4.214-4.253-2.342-10.817-6.572-6.572" transform="translate(-145.864 -380.25)" fill="#252626"/>
            </g>
          </g>
        </g>
        <path id="Trazado_2999" data-name="Trazado 2999" d="M188.92,369.432c-16.365,7.146-28.427,23.407-33.111,40.348-5.507,19.924-1.6,40.695,8.694,58.28a1.334,1.334,0,0,0,2.3-1.346c-8.954-16.719-12.419-37.483-7.1-55.86,4.828-16.678,15.977-29.9,31.042-38.295,2.086-1.163.254-4.037-1.829-3.128" transform="translate(-52.324 -126.025)" fill="#47ebfc"/>
        <path id="Trazado_3000" data-name="Trazado 3000" d="M347.771,434.839c-.659-.792-2.029-1.039-2.982-1.348-1.129-.366-2.262-.713-3.373-1.132A25.966,25.966,0,0,1,335,428.97a18.086,18.086,0,0,1-4.529-4.839,17.05,17.05,0,0,1-2.174-6.517c-.088-.53-.926-.661-1.008-.053-.632,4.688,2.73,9.574,6.208,12.369a26.458,26.458,0,0,0,6.768,3.847,36.168,36.168,0,0,0,3.714,1.266c1,.279,2.6.832,3.6.4a.406.406,0,0,0,.191-.607" transform="translate(-111.675 -142.373)" fill="#47ebfc"/>
        <path id="Trazado_3001" data-name="Trazado 3001" d="M245.174,423.258a17.743,17.743,0,0,0-2.112-1,4.978,4.978,0,0,0-2.439-.553,7.368,7.368,0,0,0-3.808,1.229,13.948,13.948,0,0,0-2.128,1.66,6.751,6.751,0,0,0-.871-1.246,7.046,7.046,0,0,0-9.924-.765c-4.077,3.351-2.9,9.5-.01,13.176a29.858,29.858,0,0,0,6.754,5.746,1.287,1.287,0,0,0,.307.154,3.932,3.932,0,0,0,1.765,1.171,5.643,5.643,0,0,0,4.087-.314,27.031,27.031,0,0,0,7.527-4.96c2.238-1.989,4.418-4.344,4.84-7.428.417-3.05-1.391-5.5-3.988-6.872" transform="translate(-75.513 -143.654)" fill="#eb5f4d"/>
        <path id="Trazado_3002" data-name="Trazado 3002" d="M232.026,425.534a5.056,5.056,0,0,0-4.7,1.771,4.509,4.509,0,0,0-.838,5.035.279.279,0,0,0,.524-.107,7.075,7.075,0,0,1,1.317-4.193,5.654,5.654,0,0,1,3.747-1.788c.445-.045.31-.647-.051-.717" transform="translate(-77.144 -145.204)" fill="#fff"/>
        <g id="Grupo_3093" data-name="Grupo 3093" transform="translate(82.533 408.533)" opacity="0.53">
          <g id="Grupo_3092" data-name="Grupo 3092">
            <g id="Grupo_3091" data-name="Grupo 3091" clip-path="url(#clip-path-13)">
              <path id="Trazado_3003" data-name="Trazado 3003" d="M234.031,631.656c2.308-1.074,3.619-2.289,3.619-3.577,0-4.349-14.836-7.875-33.138-7.875-16.287,0-29.82,2.793-32.6,6.473-26.755,1.553-46.613,7.287-46.613,14.123,0,8.03,27.39,14.539,61.177,14.539s61.177-6.509,61.177-14.539c0-3.465-5.1-6.646-13.618-9.144" transform="translate(-125.295 -620.204)" fill="#bcbbbb"/>
            </g>
          </g>
        </g>
        <path id="Trazado_3004" data-name="Trazado 3004" d="M385.637,473.891c-.1-1.489-.268-2.973-.464-4.454a81.979,81.979,0,0,0-1.717-9.14,71.936,71.936,0,0,0-2.7-8.535c-.574-1.483-1.18-2.96-1.852-4.4a16.231,16.231,0,0,0-2.481-4.291,1.992,1.992,0,0,0-2.379-.307,1.879,1.879,0,0,0-.9,1.292,1.735,1.735,0,0,0-.887.594,1.913,1.913,0,0,0-2.581,2.205,65.019,65.019,0,0,0,2.553,7.526q1.38,3.743,2.6,7.541c.811,2.52,1.53,5.071,2.1,7.657q.428,1.935.74,3.892c.2,1.25.254,2.6.536,3.924a2.3,2.3,0,0,0,2.109,1.7,2.269,2.269,0,0,0,1.291.752,2.208,2.208,0,0,0,.6.547,2.37,2.37,0,0,0,3.449-1.4,18.05,18.05,0,0,0-.019-5.1" transform="translate(-126.148 -151.024)" fill="#252626"/>
        <path id="Trazado_3005" data-name="Trazado 3005" d="M210.472,552.1c-.094-.115-.184-.231-.277-.348a24.542,24.542,0,0,1-1.4-2.041c-.179-.291-.351-.587-.524-.881a3,3,0,0,0-.65-1.132c-.1-.153-.22-.29-.331-.434a1.281,1.281,0,0,0-.813-.389,1.354,1.354,0,0,0-.9.168,1.488,1.488,0,0,0-.651,1.6,9.687,9.687,0,0,0,2.147,4.469,1.382,1.382,0,0,0,.662.379c.195.256.386.515.589.765a1.522,1.522,0,0,0,1.077.447,1.549,1.549,0,0,0,1.077-.447,1.529,1.529,0,0,0,.446-1.077,1.742,1.742,0,0,0-.446-1.077" transform="translate(-69.927 -186.638)" fill="#252626"/>
        <path id="Trazado_3006" data-name="Trazado 3006" d="M227.259,559.377c-.161-.394-.364-.752-.554-1.13-.074-.148-.141-.3-.213-.447l-.026-.054c0-.011-.007-.017-.013-.034a14.185,14.185,0,0,1-.576-1.829c-.072-.3-.141-.6-.194-.907-.013-.074-.118-.61-.037-.2a3.943,3.943,0,0,1-.046-.432c-.067-.767-.013-1.892-.651-2.427a1.281,1.281,0,0,0-1.509-.195,2.826,2.826,0,0,0-.882,2.622,14.045,14.045,0,0,0,.309,2.309,11.657,11.657,0,0,0,.612,1.883,8.939,8.939,0,0,0,1.252,2.317,1.513,1.513,0,0,0,2.529-1.472" transform="translate(-75.954 -188.239)" fill="#252626"/>
        <path id="Trazado_3007" data-name="Trazado 3007" d="M245.541,556.05a1.639,1.639,0,0,0-1.952.252,17.336,17.336,0,0,0-2.275,3.3q-.44.8-.821,1.634a7.251,7.251,0,0,0-.44,1.119,1.436,1.436,0,0,0,2.463,1.416c.018.042.03.083.052.125a1.56,1.56,0,0,0,1.186.775,1.542,1.542,0,0,0,1.2-.32,1.706,1.706,0,0,0,.64-1.275q.317-2.46.634-4.921c.016-.1.035-.191.054-.287a1.656,1.656,0,0,0-.74-1.819" transform="translate(-81.909 -189.705)" fill="#252626"/>
        <path id="Trazado_3008" data-name="Trazado 3008" d="M266.278,555.539a1.637,1.637,0,0,0-1.918.248,12.747,12.747,0,0,0-2.445,3.153,9.823,9.823,0,0,0-.855,1.917,5.96,5.96,0,0,0-.2,1.179,1.379,1.379,0,0,0,1.039,1.5,1.333,1.333,0,0,0,.2.138,1.675,1.675,0,0,0,2.242-.588,25.943,25.943,0,0,0,2.67-5.756,1.593,1.593,0,0,0-.727-1.788" transform="translate(-89.027 -189.533)" fill="#252626"/>
        <path id="Trazado_3009" data-name="Trazado 3009" d="M282.563,552.511a1.084,1.084,0,0,0-1.034.644,1.483,1.483,0,0,0-.806.613c-.4.611-.825,1.215-1.21,1.839a6.763,6.763,0,0,0-1.077,2.166,1.143,1.143,0,0,0,.4,1.179,1.113,1.113,0,0,0,1.246.088,5.338,5.338,0,0,0,.621-.495,3.625,3.625,0,0,0,.487-.6l.669-.924c.437-.6.837-1.238,1.253-1.857a1.172,1.172,0,0,0,.169-.491,1.219,1.219,0,0,0-.721-2.163" transform="translate(-95.019 -188.568)" fill="#252626"/>
        <path id="Trazado_3010" data-name="Trazado 3010" d="M242.484,581.321c-2.284.418-4.5,1.12-6.8,1.493a44.767,44.767,0,0,1-6.887.576,42.973,42.973,0,0,1-13.653-2.109,62.266,62.266,0,0,1-7.41-3.089.456.456,0,0,0-.46.786,35,35,0,0,0,13.446,5.175,40.53,40.53,0,0,0,14.241.122,23.9,23.9,0,0,0,7.759-2.4.3.3,0,0,0-.232-.55" transform="translate(-70.666 -197.315)" fill="#252626"/>
        <path id="Trazado_3011" data-name="Trazado 3011" d="M232,593.242a16.814,16.814,0,0,0-3.276-.413q-1.81-.149-3.6-.476c-1.127-.206-2.249-.427-3.36-.71-.555-.141-1.108-.282-1.665-.414a1.95,1.95,0,0,0-1.3-.055.235.235,0,0,0-.083.317c.235.453.771.6,1.223.779a16.783,16.783,0,0,0,1.628.551,31.784,31.784,0,0,0,3.459.806q1.715.292,3.452.436a9.8,9.8,0,0,0,3.521-.151.35.35,0,0,0,0-.67" transform="translate(-74.638 -201.731)" fill="#252626"/>
        <path id="Trazado_3012" data-name="Trazado 3012" d="M372.116,586.338a.9.9,0,0,0-1.516.628,10.162,10.162,0,0,0,.378,1.865,8.733,8.733,0,0,1,.217,1.922,9.086,9.086,0,0,1-.712,3.593,8.983,8.983,0,0,1-1.767,2.674,18.452,18.452,0,0,1-2.1,1.761,17.281,17.281,0,0,0,.869-5.26,1.121,1.121,0,0,0-2.24,0c-.146,3.275-1.083,6.717-3.766,8.828a6.745,6.745,0,0,1-6.9.69,12.277,12.277,0,0,0,3.218-1.887,10.839,10.839,0,0,0,3.822-5.693,1.229,1.229,0,0,0-2.369-.653,10.872,10.872,0,0,1-3.092,4.541,9.212,9.212,0,0,1-5,2.1,9.473,9.473,0,0,1-5.381-1.192,11.142,11.142,0,0,1-2.236-1.7c-.373-.353-.748-.7-1.116-1.063-.074-.071-.153-.142-.234-.213a17.95,17.95,0,0,0,8.174.1c1.268-.276,3.184-.667,4.084-1.661a1.078,1.078,0,0,0-.753-1.819,7.957,7.957,0,0,0-2.1.664,16.753,16.753,0,0,1-1.862.526,15.482,15.482,0,0,1-3.805.345,13.8,13.8,0,0,1-7.437-2.259c-1.548-1.09-2.952-3.387-1.448-5.123a1.911,1.911,0,0,1,1.377-.642c.017,0,.029.013.047.015a.848.848,0,0,0,.311-.019,7.16,7.16,0,0,1,1.271.19,13.372,13.372,0,0,0,3.868.6.85.85,0,0,0,0-1.7,42.528,42.528,0,0,1-4.241-1.14c.007-.025.011-.051.018-.076a7.692,7.692,0,0,1,.52-1.372,9.816,9.816,0,0,1,.793-1.32,11.528,11.528,0,0,0,.794-1.385.429.429,0,0,0-.581-.581,5.2,5.2,0,0,0-2.4,2.525,10.442,10.442,0,0,0-.7,1.652c-.046.142-.08.287-.119.431a4.2,4.2,0,0,0-1.155.265,4.738,4.738,0,0,0-2.644,5.29c.37,2.331,2.3,4.071,4.3,5.114a15.963,15.963,0,0,0,2,.868.47.47,0,0,0,0,.184,8.11,8.11,0,0,0,.136.925,6.733,6.733,0,0,0,.375.854,6.349,6.349,0,0,0,.958,1.4,10.983,10.983,0,0,0,2.66,2.089,11.624,11.624,0,0,0,6.768,1.583,11.292,11.292,0,0,0,1.732-.292c1.836,3.2,6.757,2.718,9.421.867a10.521,10.521,0,0,0,3.476-4.147.855.855,0,0,0,.821.312c2.528-.558,4.6-3.121,5.588-5.4a10.841,10.841,0,0,0,.889-4.4c-.012-1.431-.2-3.308-1.2-4.415" transform="translate(-114.034 -198.15)" fill="#252626"/>
      </g>
    </g>
  </g>
</svg>
