<svg id="Grupo_2884" data-name="Grupo 2884" xmlns="http://www.w3.org/2000/svg" xmlns:xlink="http://www.w3.org/1999/xlink" width="436.545" height="645.503" viewBox="0 0 436.545 645.503">
  <defs>
    <clipPath id="clip-path">
      <rect id="Rectángulo_466" data-name="Rectángulo 466" width="436.545" height="645.503" fill="none"/>
    </clipPath>
    <clipPath id="clip-path-3">
      <rect id="Rectángulo_454" data-name="Rectángulo 454" width="28.579" height="49.154" fill="none"/>
    </clipPath>
    <clipPath id="clip-path-4">
      <rect id="Rectángulo_455" data-name="Rectángulo 455" width="117.648" height="45.288" fill="none"/>
    </clipPath>
    <clipPath id="clip-path-5">
      <rect id="Rectángulo_456" data-name="Rectángulo 456" width="242.082" height="357.142" fill="none"/>
    </clipPath>
    <clipPath id="clip-path-6">
      <rect id="Rectángulo_457" data-name="Rectángulo 457" width="210.059" height="59.024" fill="none"/>
    </clipPath>
    <clipPath id="clip-path-7">
      <rect id="Rectángulo_458" data-name="Rectángulo 458" width="26.463" height="88.567" fill="none"/>
    </clipPath>
    <clipPath id="clip-path-8">
      <rect id="Rectángulo_459" data-name="Rectángulo 459" width="65.997" height="105.124" fill="none"/>
    </clipPath>
    <clipPath id="clip-path-9">
      <rect id="Rectángulo_460" data-name="Rectángulo 460" width="173.097" height="201.022" fill="none"/>
    </clipPath>
    <clipPath id="clip-path-10">
      <rect id="Rectángulo_461" data-name="Rectángulo 461" width="178.017" height="56.994" fill="none"/>
    </clipPath>
    <clipPath id="clip-path-11">
      <rect id="Rectángulo_462" data-name="Rectángulo 462" width="76.459" height="71.072" fill="none"/>
    </clipPath>
    <clipPath id="clip-path-12">
      <rect id="Rectángulo_463" data-name="Rectángulo 463" width="86.978" height="69.418" fill="none"/>
    </clipPath>
    <clipPath id="clip-path-13">
      <rect id="Rectángulo_464" data-name="Rectángulo 464" width="157.978" height="103.694" fill="none"/>
    </clipPath>
  </defs>
  <g id="Grupo_2919" data-name="Grupo 2919" clip-path="url(#clip-path)">
    <g id="Grupo_2918" data-name="Grupo 2918">
      <g id="Grupo_2917" data-name="Grupo 2917" clip-path="url(#clip-path)">
        <path id="Trazado_2661" data-name="Trazado 2661" d="M47.445,157.76c0,23.933-10.508,43.336-23.467,43.336S.512,181.693.512,157.76s10.5-43.336,23.467-43.336,23.467,19.4,23.467,43.336" transform="translate(0.926 206.88)" fill="#0f6e70"/>
        <path id="Trazado_2662" data-name="Trazado 2662" d="M24.9,203.46C11.173,203.46,0,183.374,0,158.686s11.173-44.774,24.9-44.774,24.9,20.086,24.9,44.774S38.635,203.46,24.9,203.46m0-86.672c-12.147,0-22.029,18.8-22.029,41.9s9.881,41.9,22.029,41.9,22.029-18.794,22.029-41.9-9.881-41.9-22.029-41.9" transform="translate(0 205.954)" fill="#1c1d1c"/>
        <path id="Trazado_2663" data-name="Trazado 2663" d="M41.5,156.149c0,22.526-8.441,40.786-18.853,40.786S3.8,178.675,3.8,156.149s8.441-40.786,18.85-40.786S41.5,133.624,41.5,156.149" transform="translate(6.869 208.578)" fill="#16b0b2"/>
        <path id="Trazado_2664" data-name="Trazado 2664" d="M23.577,199.3c-11.378,0-20.291-18.547-20.291-42.227s8.913-42.224,20.291-42.224S43.867,133.4,43.867,157.075,34.955,199.3,23.577,199.3m0-81.575c-9.441,0-17.415,18.019-17.415,39.349s7.975,39.351,17.415,39.351S40.992,178.4,40.992,157.075s-7.975-39.349-17.415-39.349" transform="translate(5.941 207.652)" fill="#1c1d1c"/>
        <path id="Trazado_2665" data-name="Trazado 2665" d="M80.865,136.6a23.062,23.062,0,1,1-32.615,0,23.064,23.064,0,0,1,32.615,0" transform="translate(75.025 234.768)" fill="#aeadad"/>
        <path id="Trazado_2666" data-name="Trazado 2666" d="M49.177,184.666c1.011-1.443,1.946-2.943,2.845-4.468A80.3,80.3,0,0,0,57,170.32a73.345,73.345,0,0,0,3.431-10.244c.477-1.879.915-3.78,1.252-5.714a18.651,18.651,0,0,0,.469-6.2,3.427,3.427,0,0,0-2.429-2.494,2.275,2.275,0,0,0-1.982.329,2.623,2.623,0,0,0-1.438-.286c-1.008-1.679-3.737-2.263-4.552-.407a67.267,67.267,0,0,0-2.83,9.2q-1.285,4.675-2.791,9.25a85.519,85.519,0,0,1-3.434,8.9q-.981,2.148-2.112,4.212c-.722,1.317-1.682,2.595-2.364,4.055a3.278,3.278,0,0,0,1.075,3.5,3.527,3.527,0,0,0,.876,1.884,3.115,3.115,0,0,0,.261,1.059c.854,1.845,3.406,2.968,4.914,1.94,1.626-1.106,2.718-3.052,3.827-4.633" transform="translate(68.77 260.64)" fill="#1c1d1c"/>
        <path id="Trazado_2667" data-name="Trazado 2667" d="M67.363,140.8c-.851-.295-1.831.376-2.634.668q-1.424.518-2.884.943a52.875,52.875,0,0,1-6.074,1.37,46.779,46.779,0,0,1-6.13.618c-2.075.073-4.15-.07-6.225-.025a.641.641,0,0,0-.16,1.255c4.066.921,8.57.55,12.659-.036a44.656,44.656,0,0,0,6.239-1.376q1.533-.451,3.035-1c.84-.309,2.185-.55,2.595-1.412a.7.7,0,0,0-.421-1" transform="translate(77.368 254.443)" fill="#1c1d1c"/>
        <g id="Grupo_2886" data-name="Grupo 2886" transform="translate(126.296 364.418)" opacity="0.34">
          <g id="Grupo_2885" data-name="Grupo 2885">
            <g id="Grupo_2884-2" data-name="Grupo 2884" clip-path="url(#clip-path-3)">
              <path id="Trazado_2668" data-name="Trazado 2668" d="M61.118,153.807c-.042-.138-.076-.272-.118-.41l12.555-15.264-4.437-4.159-12.072-2.033.045.314c-3.417-4.313-12.159-3.007-12.114,4,.081,13.6,3.917,31,14.147,40.854,5.161,4.973,12.032-1.162,9.421-7.158-2.4-5.5-5.636-10.347-7.427-16.143" transform="translate(-44.977 -129.779)" fill="#1c1d1c"/>
            </g>
          </g>
        </g>
        <path id="Trazado_2669" data-name="Trazado 2669" d="M84.094,172.448a25.459,25.459,0,1,1,0-36,25.485,25.485,0,0,1,0,36M51.479,139.833a20.666,20.666,0,1,0,29.226,0,20.692,20.692,0,0,0-29.226,0" transform="translate(73.491 233.234)" fill="#1c1d1c"/>
        <path id="Trazado_2670" data-name="Trazado 2670" d="M243.48,215.995c0,51.892-51.4,109.049-103.764,109.049-51.139,0-93.945-57.157-93.945-109.049s44.26-93.959,98.856-93.959S243.48,164.1,243.48,215.995" transform="translate(82.754 220.642)" fill="#aeadad"/>
        <path id="Trazado_2671" data-name="Trazado 2671" d="M141.259,328.983c-24.424,0-49.21-13.1-68-35.94-17.744-21.568-28.338-49.794-28.338-75.507,0-53.13,45.42-96.354,101.248-96.354s101.251,43.224,101.251,96.354c0,25.292-12.3,53.56-32.89,75.62-21.257,22.767-47.961,35.827-73.269,35.827m4.908-203.011c-53.187,0-96.458,41.076-96.458,91.564,0,24.637,10.187,51.726,27.249,72.464,17.879,21.728,41.314,34.19,64.3,34.19,23.983,0,49.413-12.5,69.765-34.3,19.788-21.2,31.6-48.244,31.6-72.351,0-50.488-43.271-91.564-96.458-91.564" transform="translate(81.214 219.098)" fill="#1c1d1c"/>
        <path id="Trazado_2672" data-name="Trazado 2672" d="M135.068,171.707a36.456,36.456,0,0,1-35.285,36.445c-.385.011-.778.02-1.171.02a36.466,36.466,0,1,1,36.456-36.465" transform="translate(112.362 244.535)" fill="#858787"/>
        <path id="Trazado_2673" data-name="Trazado 2673" d="M99.538,210.536a37.9,37.9,0,1,1,1.213-.02c-.4.011-.809.02-1.213.02m0-72.921a35.023,35.023,0,1,0,0,70.046c.382,0,.761-.008,1.134-.017a34.853,34.853,0,0,0,33.884-35.01,34.983,34.983,0,0,0-35.019-35.019" transform="translate(111.437 243.61)" fill="#1c1d1c"/>
        <path id="Trazado_2674" data-name="Trazado 2674" d="M127.664,170.751A36.456,36.456,0,0,1,92.379,207.2a36.464,36.464,0,0,1,9.16-71.416,36.475,36.475,0,0,1,26.126,34.971" transform="translate(119.766 245.492)" fill="#070808"/>
        <path id="Trazado_2675" data-name="Trazado 2675" d="M163.892,151.02a16.8,16.8,0,0,0-6.969-7.259c-8.612-6.3-20.148-8.43-26.089-9.132a19.515,19.515,0,0,0-3.572-.323l-.331-.017-.006.008A19.142,19.142,0,0,0,119,136.143c-9.949,4.717-14.02,16.96-9.1,27.347a21.449,21.449,0,0,0,5.422,7.093c.1.087.18.177.281.264.216.185.444.354.665.525.028.022.053.045.081.065,12.08,9.311,34.468,3.839,34.468,3.839,1.991-.081,4.147-1.4,6.046-2.305a15.675,15.675,0,0,0,8.834-13.7c.564-2.367.157-5.111-1.814-8.253" transform="translate(194.933 242.798)" fill="#aeadad"/>
        <path id="Trazado_2676" data-name="Trazado 2676" d="M156.992,177.907a12.316,12.316,0,0,1-4.277,1.311c-2.547.593-23.952,5.184-36.282-4.322l-.27-.211c-.2-.149-.388-.3-.576-.458-.093-.081-.183-.166-.27-.25a23.809,23.809,0,0,1-6.037-7.9c-5.484-11.563-.893-25.261,10.235-30.54a21.4,21.4,0,0,1,7.6-2.013l.065-.1,1.365.034s.115,0,.326.014a22.137,22.137,0,0,1,3.861.348c6.284.75,18.05,2.974,27.021,9.477a19.149,19.149,0,0,1,7.77,8.11c2.075,3.344,2.783,6.624,2.109,9.749a18.065,18.065,0,0,1-10.19,15.54c-.365.174-.741.365-1.126.559-.427.213-.868.438-1.32.651m-35.423-38.037c-8.739,4.145-12.31,14.981-7.958,24.155a19.009,19.009,0,0,0,4.819,6.3c.11.1.171.157.233.216.168.152.295.247.421.343l.208.163c11.08,8.542,32.292,3.513,32.506,3.462l.469-.067a11.735,11.735,0,0,0,3.886-1.466c.418-.213.831-.421,1.233-.612a13.292,13.292,0,0,0,7.464-11.622l.065-.463c.466-1.957-.028-4.058-1.511-6.425l-.115-.2a14.4,14.4,0,0,0-5.975-6.228l-.267-.168c-8.14-5.956-19.128-8-24.958-8.688l-.154-.022a17.377,17.377,0,0,0-3.137-.281l-.295-.008a16.684,16.684,0,0,0-6.933,1.612" transform="translate(193.394 241.234)" fill="#1c1d1c"/>
        <path id="Trazado_2677" data-name="Trazado 2677" d="M119.247,90.629a44.7,44.7,0,1,1-44.7-44.7,44.694,44.694,0,0,1,44.7,44.7" transform="translate(53.976 83.049)" fill="#aeadad"/>
        <path id="Trazado_2678" data-name="Trazado 2678" d="M76.094,139.265a47.092,47.092,0,1,1,47.093-47.093,47.147,47.147,0,0,1-47.093,47.093m0-89.393a42.3,42.3,0,1,0,42.3,42.3,42.349,42.349,0,0,0-42.3-42.3" transform="translate(52.434 81.507)" fill="#1c1d1c"/>
        <path id="Trazado_2679" data-name="Trazado 2679" d="M280.833,32.21A115.669,115.669,0,0,0,203.129.861Q199.377.819,195.683,1a116.181,116.181,0,0,0-27.611,4.762l-.02.011q-2.456.733-4.866,1.581-.59.2-1.179.43a115,115,0,0,0-19.934,9.441C26.4,79,40.869,231.921,41.023,233.465A124.475,124.475,0,0,0,278.878,279.9c.795-1.752,1.553-3.535,2.26-5.338a1.824,1.824,0,0,0,.126-.295,123.849,123.849,0,0,0,7.666-30.352h.008v-.087a123.839,123.839,0,0,0,.913-15.085c0-.576-.011-1.148-.02-1.724a184.571,184.571,0,0,1,15.351-56.887c.96-1.879,3.788-8.185,3.788-8.185A116.089,116.089,0,0,0,280.833,32.21M43.418,233.378l-.008-.154c-.039-.382-3.7-38.967,7.034-84.746,9.612-40.972,33.109-96.155,90.46-127.885a213.094,213.094,0,0,0-35.229,30.074,223.5,223.5,0,0,0-18.488,21.9,238.165,238.165,0,0,0-17.261,27.37,202.661,202.661,0,0,0-11.912,26.011,225.459,225.459,0,0,0-9.929,34.443,196.663,196.663,0,0,0-3.948,32.584,238.259,238.259,0,0,0,1.216,36.608c2.367,21.566,10.044,46.282,18.353,66.8l.143.373a121.656,121.656,0,0,1-20.431-63.377" transform="translate(72.985 1.543)" fill="#aeadad"/>
        <path id="Trazado_2680" data-name="Trazado 2680" d="M284.005,32q-3.58-3.332-7.379-6.343A117.942,117.942,0,0,0,204.69.009c-3.162-.039-6.326.048-9.469.258A118.813,118.813,0,0,0,169.25,4.915l-.68.011-.278.286c-.357.107-.719.222-1.084.345q-1.638.505-3.277,1.084a118.4,118.4,0,0,0-21.507,10.044A176.007,176.007,0,0,0,76.979,77.1C63.63,97.742,53.653,121.9,47.307,148.929c-10.676,45.54-7.332,84.212-7.149,86.234a126.02,126.02,0,0,0,24.958,70.812,127.288,127.288,0,0,0,13.714,15.582c.219.213.43.424.651.615A126.865,126.865,0,0,0,291.758,252.9l.008-.02c.306-1.7.576-3.392.814-5.108l.289-.008v-2.252a127.531,127.531,0,0,0,.91-15.231c0-.536-.011-1.081-.02-1.617A183.093,183.093,0,0,1,308.873,172.7c1-1.963,3.7-7.983,3.844-8.3a117.627,117.627,0,0,0,8.845-37.509c.143-2.109.239-4.237.267-6.366A118.946,118.946,0,0,0,284.005,32m33.033,88.458a113.167,113.167,0,0,1-8.722,42.053c-.028.059-2.816,6.268-3.737,8.07l-.048.1a188.119,188.119,0,0,0-15.554,57.626l-.011.146v.152c.011.556.02,1.123.02,1.676a122.652,122.652,0,0,1-.89,14.8l-.011.087A122.043,122.043,0,0,1,44.951,234.921l-.011-.152c-.037-.385-3.7-38.967,7.034-84.749,9.615-40.969,33.112-96.152,90.46-127.885.758-.421,1.525-.842,2.3-1.255l.1-.048a113.2,113.2,0,0,1,20.681-9.668c1.474-.519,2.96-1.008,4.428-1.449l.68-.008.267-.278A113.723,113.723,0,0,1,200.11,4.839c1.5-.048,3.007-.056,4.521-.039A114.289,114.289,0,0,1,317.047,118.74c0,.576,0,1.14-.008,1.716" transform="translate(71.453 0)" fill="#1c1d1c"/>
        <path id="Trazado_2681" data-name="Trazado 2681" d="M139.352,7.883a213.094,213.094,0,0,0-35.229,30.074,223.491,223.491,0,0,0-18.488,21.9A238.035,238.035,0,0,0,68.377,87.226a202.7,202.7,0,0,0-11.914,26.011,225.131,225.131,0,0,0-9.926,34.443,196.664,196.664,0,0,0-3.951,32.584A238.26,238.26,0,0,0,43.8,216.872c2.367,21.563,10.044,46.279,18.353,66.8l.143.373a121.658,121.658,0,0,1-20.434-63.377l-.008-.154c-.039-.382-3.7-38.967,7.034-84.749C58.5,94.8,82,39.614,139.352,7.883" transform="translate(74.537 14.253)" fill="#5dc5e0"/>
        <path id="Trazado_2682" data-name="Trazado 2682" d="M251.1,65.193c-.8-1.216-1.547-2.468-2.277-3.726a81.005,81.005,0,0,0-15.312-18.94l0,0h0c-16-14.717-38.47-24.323-63.666-25.342-24.031-.974-46.22,6.037-63.093,18.291v0l-.059.048C101.2,39.505,92.1,46.854,87.864,51.858A176.538,176.538,0,0,0,39.008,155.67l.042,0c-.045.567-.09,1.134-.112,1.71a43.5,43.5,0,0,0,54.52,43.8v0l0,0a42.832,42.832,0,0,0,7.245-2.623,65.174,65.174,0,0,1,23.43-6.34,78.025,78.025,0,0,1,15.568.59c18.078,2.485,41.929,13.161,56.371,20.3,1.828.9,3.6,1.907,5.335,2.979a43.307,43.307,0,0,0,7.416,3.653l.02.008v0a43.465,43.465,0,0,0,57.792-31.169l0,0s27.26-58-15.54-123.4" transform="translate(70.334 30.903)" fill="#070808"/>
        <path id="Trazado_2683" data-name="Trazado 2683" d="M45.906,74.018a5.777,5.777,0,1,1-5.776-5.776,5.776,5.776,0,0,1,5.776,5.776" transform="translate(62.107 123.382)" fill="#e3e3e4"/>
        <path id="Trazado_2684" data-name="Trazado 2684" d="M41.053,82.159a7.215,7.215,0,1,1,7.214-7.217,7.223,7.223,0,0,1-7.214,7.217m0-11.555a4.34,4.34,0,1,0,4.338,4.338A4.345,4.345,0,0,0,41.053,70.6" transform="translate(61.181 122.455)" fill="#1c1d1c"/>
        <g id="Grupo_2889" data-name="Grupo 2889" transform="translate(236.17 2.395)" opacity="0.2">
          <g id="Grupo_2888" data-name="Grupo 2888">
            <g id="Grupo_2887" data-name="Grupo 2887" clip-path="url(#clip-path-4)">
              <path id="Trazado_2685" data-name="Trazado 2685" d="M201.753,32.211C187.475,44.2,163.382,49.356,138,44.074c-25.559-5.318-45.7-19.839-53.9-36.715q2.413-.847,4.866-1.581l.02-.008a116.026,116.026,0,0,1,112.761,26.44" transform="translate(-84.105 -0.853)" fill="#050605"/>
            </g>
          </g>
        </g>
        <path id="Trazado_2686" data-name="Trazado 2686" d="M46.428,47.722a50.975,50.975,0,0,0-4.571,10.221,106.354,106.354,0,0,0-3.417,11.173A111.24,111.24,0,0,0,35.2,91.605a105.525,105.525,0,0,0,.329,13.192c.11,1.207,2,1.236,1.909,0A116.775,116.775,0,0,1,42.811,60c.654-1.985,1.373-3.948,2.114-5.9.764-2.013,1.7-3.968,2.345-6.02.16-.514-.567-.781-.842-.354" transform="translate(63.503 85.897)" fill="#1c1d1c"/>
        <path id="Trazado_2687" data-name="Trazado 2687" d="M41.64,81.766c-.6-1.432-1.328-2.8-1.9-4.254q-.409-1.049-.753-2.123c-.247-.767-.432-1.553-.741-2.3a.866.866,0,0,0-.935-.612.848.848,0,0,0-.741.84,18.334,18.334,0,0,0,1.266,4.717c.286.786.607,1.558.955,2.319a16.4,16.4,0,0,0,1.084,2.151.969.969,0,0,0,1.2.4.95.95,0,0,0,.559-1.137" transform="translate(66.123 131.027)" fill="#1c1d1c"/>
        <path id="Trazado_2688" data-name="Trazado 2688" d="M205.21,28.656a83.023,83.023,0,0,1-12.605,4.417c-4.352.966-8.789,1.735-13.195,2.437a107.313,107.313,0,0,1-26.342.972,104.4,104.4,0,0,1-46.509-15.846,110.666,110.666,0,0,1-11.125-7.978c-3.572-2.94-6.941-6.1-10.465-9.1-1.075-.91-3.035.292-2.1,1.62,4.852,6.9,11.7,12.468,18.572,17.264a103.593,103.593,0,0,0,18.937,10.342c-.677.483-1.325,1-1.943,1.488a30.55,30.55,0,0,0-4.1,3.937,33,33,0,0,0-3.313,4.563,19.426,19.426,0,0,0-2.305,5.088.5.5,0,0,0,.9.382c.882-1.539,1.631-3.134,2.583-4.636a30.838,30.838,0,0,1,3.266-4.263A33.592,33.592,0,0,1,119.26,35.8c.716-.573,1.463-1.106,2.23-1.609.3-.2.626-.379.946-.559.463.185.927.379,1.393.559a106.467,106.467,0,0,0,52.9,5.9,60.748,60.748,0,0,0,14.84-3.575c4.807-2,9.836-3.471,14.5-5.8,1.12-.559.326-2.527-.865-2.053" transform="translate(149.382 5.869)" fill="#1c1d1c"/>
        <g id="Grupo_2892" data-name="Grupo 2892" transform="translate(150.933)" opacity="0.22">
          <g id="Grupo_2891" data-name="Grupo 2891">
            <g id="Grupo_2890" data-name="Grupo 2890" clip-path="url(#clip-path-5)">
              <path id="Trazado_2689" data-name="Trazado 2689" d="M295.832,126.9a117.626,117.626,0,0,1-8.845,37.509c-.143.317-2.847,6.335-3.844,8.3a183.1,183.1,0,0,0-15.113,55.958c.008.536.02,1.084.02,1.62a127.49,127.49,0,0,1-.91,15.228v2.252l-.289.011c-.239,1.716-.508,3.412-.814,5.108l-.008.02c-2.9,7.646-5.81,15.343-8.96,22.9a1.821,1.821,0,0,1-.126.295c-.738,1.794-1.485,3.566-2.26,5.338-2.637,6.048-5.464,12-8.567,17.769a107.78,107.78,0,0,1-9.862,15.076,126.831,126.831,0,0,1-182.5,7.885,12.7,12.7,0,0,1,2.463,1.143q3.378,2.039,6.871,3.861,2.919,1.525,5.922,2.9a33.083,33.083,0,0,0,3.987,1.629c.115.048.25.1.382.143,2.37.873,4.765,1.657,7.18,2.376a116.6,116.6,0,0,0,13.3,3c.219.036,1.907.3,2.6.41.6.079,1.763.222,1.926.23q3.42.375,6.843.567a135.659,135.659,0,0,0,13.81.067c2.578-.126,5.136-.309,7.705-.548,1.283-.124,2.558-.258,3.841-.413.194-.017.326-.036.452-.048.1-.02.191-.028.314-.048a140.219,140.219,0,0,0,27.027-6.7,146.935,146.935,0,0,0,21.526-9.126,130.715,130.715,0,0,0,11.634-6.745c1.763-1.151,3.488-2.348,5.195-3.586.239-.163.393-.278.508-.354a2.1,2.1,0,0,1,.163-.135c.612-.489,1.224-.986,1.82-1.494a73.945,73.945,0,0,0,15.927-17.8,125.447,125.447,0,0,0,6.756-12.122q1.453-2.936,2.8-5.933c.449-1,.89-2,1.331-3.01.059-.115.643-1.514.643-1.514,14.6-34.971,28.866-71.169,35.412-108.619,2.684-15.382,3.757-37.445.873-52.645a116.307,116.307,0,0,0-3.673-14.29c-.592-1.848-1.264-3.67-1.943-5.5-.115-.314-.213-.564-.289-.775-.326-.747-.651-1.494-1.005-2.232a121.314,121.314,0,0,0-12.257-20.577c-.345-.477-1-1.311-1.171-1.542-.43-.536-.851-1.075-1.292-1.612-1.247-1.505-2.513-2.979-3.8-4.437q-3.9-4.4-8.09-8.539c-5.636-5.588-11.634-10.8-17.786-15.823q-2.746-2.241-5.56-4.425c-.643-.5-2.721-2.089-3.44-2.656q-4.372-3.336-8.809-6.582c-6.43-4.7-12.937-9.278-19.462-13.829-.241-.174-.472-.337-.71-.5a17.141,17.141,0,0,1-2.185-1.792,15.96,15.96,0,0,1-1.994-2.28c3.142-.211,6.307-.3,9.469-.261A117.945,117.945,0,0,1,250.9,25.656a158.958,158.958,0,0,1,27.493,34.356c12.105,20.729,17.059,43.625,17.443,66.884" transform="translate(-53.751 -0.002)" fill="#1c1d1c"/>
            </g>
          </g>
        </g>
        <path id="Trazado_2690" data-name="Trazado 2690" d="M209.512,115.452c-4.88,27.752-30.849,46.374-58,41.6s-30.745-28.6-25.865-56.348,16.388-48.918,43.541-44.142,45.2,31.141,40.323,58.892" transform="translate(223.843 101.04)" fill="#aeadad"/>
        <path id="Trazado_2691" data-name="Trazado 2691" d="M161.639,161.741a52.125,52.125,0,0,1-8.991-.786c-13.5-2.376-22.509-9.471-26.78-21.094-3.513-9.561-3.85-22-1.031-38.032s7.382-27.608,13.947-35.4c7.977-9.466,18.867-13.063,32.368-10.69,28.409,5,47.368,32.663,42.269,61.67a53.65,53.65,0,0,1-21.61,34.527,51.587,51.587,0,0,1-30.172,9.8m1.7-101.925a25.979,25.979,0,0,0-20.894,9.7c-6,7.124-10.221,17.963-12.889,33.137s-2.406,26.805.809,35.549c3.69,10.044,11.249,15.941,23.11,18.027a46.686,46.686,0,0,0,35.541-8.191A48.865,48.865,0,0,0,208.7,116.579l2.359.416-2.359-.416c4.644-26.4-12.572-51.58-38.38-56.118a40.311,40.311,0,0,0-6.981-.646" transform="translate(222.295 99.5)" fill="#1c1d1c"/>
        <path id="Trazado_2692" data-name="Trazado 2692" d="M156.4,91.553c0,5.473-5.422,9.909-12.111,9.909s-12.114-4.437-12.114-9.909,5.422-9.909,12.114-9.909S156.4,86.081,156.4,91.553" transform="translate(238.983 147.613)" fill="#e3e3e4"/>
        <path id="Trazado_2693" data-name="Trazado 2693" d="M145.218,103.826c-7.472,0-13.549-5.091-13.549-11.347s6.076-11.347,13.549-11.347,13.549,5.091,13.549,11.347-6.077,11.347-13.549,11.347m0-19.819c-5.886,0-10.676,3.8-10.676,8.472s4.79,8.472,10.676,8.472,10.676-3.8,10.676-8.472-4.791-8.472-10.676-8.472" transform="translate(238.059 146.688)" fill="#1c1d1c"/>
        <path id="Trazado_2694" data-name="Trazado 2694" d="M147.642,57.493a37.686,37.686,0,0,0-2.3,6.251q-1.049,3.239-1.982,6.517c-1.264,4.431-2.333,8.935-3.2,13.464a182.312,182.312,0,0,0-3.271,27.2c-.2,5.141-.194,10.291-.028,15.433a1.281,1.281,0,0,0,2.561,0,206.057,206.057,0,0,1,6.223-53.349c.6-2.423,1.221-4.841,1.9-7.247a71.813,71.813,0,0,0,2.109-7.416c.194-1.148-1.379-2.03-2.011-.851" transform="translate(247.218 102.937)" fill="#1c1d1c"/>
        <path id="Trazado_2695" data-name="Trazado 2695" d="M138.122,93.521a31.052,31.052,0,0,0-.132-3.962,1.05,1.05,0,0,0-2.01,0,30.544,30.544,0,0,0-.126,3.962c-.017,1.28,0,2.558,0,3.839a1.134,1.134,0,1,0,2.269,0c0-1.28.014-2.558,0-3.839" transform="translate(245.609 160.573)" fill="#1c1d1c"/>
        <path id="Trazado_2696" data-name="Trazado 2696" d="M156.5,71.4a30.52,30.52,0,0,0-12.572-11.021c-.427-.2-.8.4-.376.64A33.426,33.426,0,0,1,155.16,72.188a32.221,32.221,0,0,1,3.415,7.217,38.62,38.62,0,0,1,1.508,8.006.787.787,0,0,0,1.572,0C161.736,81.853,159.481,76,156.5,71.4" transform="translate(259.207 109.1)" fill="#1c1d1c"/>
        <path id="Trazado_2697" data-name="Trazado 2697" d="M160.266,9.69a2.7,2.7,0,0,0-2.21.379c-.929.466-1.87.913-2.811,1.353q-2.595,1.213-5.265,2.241a84.864,84.864,0,0,1-11.148,3.42,94.052,94.052,0,0,1-22.925,2.322A95.453,95.453,0,0,1,102.5,18.187c-.039-.008-.059.053-.017.065,15.34,4,31.714,2.971,46.734-1.876q3.264-1.057,6.439-2.367c1-.416,2-.845,2.977-1.3s1.921-.795,2.258-1.909a.915.915,0,0,0-.626-1.106" transform="translate(185.252 17.317)" fill="#1c1d1c"/>
        <path id="Trazado_2698" data-name="Trazado 2698" d="M102.23,12.488a.538.538,0,0,0-.087-.163l-.014-.042-.067-.157a.451.451,0,0,0-.168-.18.314.314,0,0,0-.143-.087.448.448,0,0,0-.25-.053c-.059.006-.115.017-.174.022l-.154.067a.445.445,0,0,0-.183.163.511.511,0,0,0-.118.225l-.014.037c-.014.031-.039.048-.051.079a.579.579,0,0,0-.065.292.82.82,0,0,0,.222.536.631.631,0,0,0,.244.157.577.577,0,0,0,.292.062l.2-.025a.788.788,0,0,0,.334-.194l.118-.152a.775.775,0,0,0,.1-.385c-.011-.067-.02-.135-.028-.2" transform="translate(182.142 21.343)" fill="#1c1d1c"/>
        <path id="Trazado_2699" data-name="Trazado 2699" d="M94.183,212.448a173.583,173.583,0,0,1-10.252-24.915c-1.41-4.153-3.089-8.323-3.92-12.642-.842-4.4-2-8.744-2.853-13.147a207.432,207.432,0,0,1-3.038-53.156c.331-5.009.814-10.019,1.491-14.995.666-4.914,1.612-9.8,2.148-14.725.059-.539-.75-.59-.9-.121a80.425,80.425,0,0,0-2.889,13.094c-.688,4.445-1.25,8.913-1.612,13.4a187.433,187.433,0,0,0-.309,27.078,228.225,228.225,0,0,0,3.311,26.449,252.27,252.27,0,0,0,6.652,26.252c2.867,9.679,7.048,18.822,11.283,27.954.278.6,1.2.073.893-.522" transform="translate(129.624 141.797)" fill="#1c1d1c"/>
        <path id="Trazado_2700" data-name="Trazado 2700" d="M112.622,16.759a.034.034,0,0,0,0,.067.034.034,0,0,0,0-.067" transform="translate(203.565 30.3)" fill="#1c1d1c"/>
        <path id="Trazado_2701" data-name="Trazado 2701" d="M184.731,104.9a190.512,190.512,0,0,1-28.678-2.4c-4-.646-8.017-1.806-9.682-5.9-1.466-3.608-1.331-7.789-1.78-11.6a127.139,127.139,0,0,0-14.745-46.363,122,122,0,0,0-7.208-11.555,69.833,69.833,0,0,0-8.75-10.7c-.5-.475-1.446.163-1.005.778,2.449,3.4,5.156,6.616,7.57,10.047s4.667,7,6.75,10.659a126.5,126.5,0,0,1,10.218,22.989,125.225,125.225,0,0,1,5.622,24.747c.435,3.78.362,7.843,1.78,11.431s4.352,5.512,7.972,6.472a98.778,98.778,0,0,0,15.444,2.412q8.222.817,16.491.876a.944.944,0,0,0,0-1.887" transform="translate(203.886 29.305)" fill="#1c1d1c"/>
        <path id="Trazado_2702" data-name="Trazado 2702" d="M141.532,46.433a3.358,3.358,0,0,0-3.066-2.4,3.712,3.712,0,0,0-3.648,2.027.761.761,0,0,0,.115.845c-.073.11-.14.23-.213.34-.039.067-.084.121-.118.188a1.445,1.445,0,0,0-.059.138l-.028.062a1.993,1.993,0,0,0,.025,1.441,3.518,3.518,0,0,0,1.96,1.954,4.21,4.21,0,0,0,2.269.23,3.494,3.494,0,0,0,1.792-1.028,4.053,4.053,0,0,0,.972-3.8m-1.491,1.289-.014.093c-.011.059-.025.115-.039.174-.028.11-.065.225-.1.334-.008.022-.036.084-.045.1-.022.045-.042.093-.067.135a2.739,2.739,0,0,1-.183.3c-.023.039-.149.185-.011.022-.036.042-.073.09-.112.132-.079.087-.163.16-.247.239-.053.037-.107.076-.163.107l-.154.079h0c-.008,0,0,0-.014.006l-.348.093-.017.006-.02-.006c-.065.006-.132.011-.2.011s-.126-.006-.188-.011l-.1-.02a1.624,1.624,0,0,1-.194-.048,1.107,1.107,0,0,1-.126-.042l-.011-.006c-.045-.025-.1-.067-.121-.079l-.109-.073.1.073c-.062.006-.4-.326-.494-.382l-.031-.031c-.07-.059-.135-.121-.2-.185-.045-.045-.093-.1-.138-.152l-.031-.037-.008-.014c-.036-.053-.073-.112-.112-.168a1.959,1.959,0,0,0-.174-.236c-.031-.053-.23-.331-.25-.357a2.327,2.327,0,0,0-.3-.357,1.177,1.177,0,0,0-.1-.135l-.059-.065a.717.717,0,0,1-.05-.124.624.624,0,0,0,.427-.326,2.687,2.687,0,0,1,.168-.3l.059-.09.073-.084c.076-.084.163-.157.247-.236l.014-.014.017-.011.191-.126c.087-.048.174-.09.264-.135l.079-.034c.056-.02.109-.042.166-.056a2.427,2.427,0,0,1,.281-.073c.056-.011.115-.022.171-.031-.208.037.042-.006.087-.011.118-.006.233-.006.348-.006.059.006.118.006.174.011l.073.008c.1.022.194.037.286.065a1.616,1.616,0,0,1,.166.051c.028.011.118.048.14.059a1.938,1.938,0,0,1,.239.126c.045.025.087.056.129.084.079.079.166.146.239.23l.067.084c.028.045.059.087.087.129s.056.1.084.157l.028.067a2.848,2.848,0,0,1,.087.278c.014.059.025.115.037.168l0,.011V47.1a3.231,3.231,0,0,1,.014.4c0,.073-.008.146-.017.216" transform="translate(242.98 79.591)" fill="#1c1d1c"/>
        <path id="Trazado_2703" data-name="Trazado 2703" d="M134.445,45.31v0c-.014.034-.025.062,0,0" transform="translate(243.05 81.916)" fill="#1c1d1c"/>
        <path id="Trazado_2704" data-name="Trazado 2704" d="M134.438,45.326l0,.014c.017-.039.036-.087,0-.014" transform="translate(243.06 81.882)" fill="#1c1d1c"/>
        <path id="Trazado_2705" data-name="Trazado 2705" d="M108.984,100.218c-1.631.135-3.176,1.1-4.661,1.741a25.257,25.257,0,0,1-5.271,1.735,12.868,12.868,0,0,1-9.109-1.435c-.584-.365-1.289.508-.747.972a11.847,11.847,0,0,0,9.491,2.454,22.738,22.738,0,0,0,5.588-1.556c1.707-.694,3.892-1.5,5.113-2.934.292-.34.132-1.022-.4-.977" transform="translate(160.916 181.192)" fill="#1c1d1c"/>
        <g id="Grupo_2895" data-name="Grupo 2895" transform="translate(120.947 200.104)" opacity="0.22">
          <g id="Grupo_2894" data-name="Grupo 2894">
            <g id="Grupo_2893" data-name="Grupo 2893" clip-path="url(#clip-path-6)">
              <path id="Trazado_2706" data-name="Trazado 2706" d="M253.089,90.52c-.826-15.253-22.675-19.094-27.111-3.67-.48,1.668-1.05,3.339-1.435,5.029-.194.539-.314.89-.373,1.081-.253.511-.5,1.028-.781,1.525-.379.66-.792,1.295-1.219,1.924-.121.14-.256.3-.427.5-.368.359-3.238,2.76-2.651,2.477-.769.5-1.556.96-2.362,1.4,1.23-.724-2.5.9-3.193,1.039a18.524,18.524,0,0,1-8.27-.651c-7.517-2-13.709-5.964-20.883-10.117a209.369,209.369,0,0,0-25.446-12.835c-18.067-7.4-37.181-8.755-55.742-2.305-7.43,2.581-16.174,6.8-23.363,7.059q-1.748.088-3.5,0-3.138-.236-.719-.076a26.306,26.306,0,0,1-2.628-.716q1.769.91-.444-.194a22.218,22.218,0,0,1-1.977-1.177c-.16-.146-.373-.337-.649-.587-.225-.247-.4-.435-.539-.59A22.956,22.956,0,0,1,68.2,77.622c-7.217-13.029-29.3-4.265-24.427,10.3,5.843,17.441,24.2,24.744,41.418,22.489,16.3-2.131,28.847-8.68,44.973-7.177,14.237,1.328,30.063,6.579,42.906,14.006,14.753,8.531,31.25,16.118,48.654,11.791,16.385-4.072,32.323-20.861,31.368-38.512" transform="translate(-43.072 -71.262)" fill="#1c1d1c"/>
            </g>
          </g>
        </g>
        <path id="Trazado_2707" data-name="Trazado 2707" d="M84.668,121.318a3.844,3.844,0,0,0-3.664.761,2.94,2.94,0,0,0-.446.539c-.5.051-.84.6-.932,1.059a3.656,3.656,0,0,0,.289,2.333,3.9,3.9,0,0,0,1.469,1.609,3.963,3.963,0,0,0,1.935.663,3.3,3.3,0,0,0,1.952-.559,4.048,4.048,0,0,0,1.772-3.493,3.246,3.246,0,0,0-2.373-2.912m-.626,5.9a2.037,2.037,0,0,1-1.671-.306,2.24,2.24,0,0,1-.525-.587,3.652,3.652,0,0,1-.23-.41c-.034-.07-.065-.143-.1-.216l-.042-.1-.011-.028a6.9,6.9,0,0,1-.216-.91s-.011-.084-.014-.14c-.006-.076-.006-.154-.006-.233s.011-.135.014-.2c.008-.042.02-.087.025-.132a2.866,2.866,0,0,0,.053-.6.836.836,0,0,0-.076-.32,2.969,2.969,0,0,1,2.9-.9,2.338,2.338,0,0,1,1.946,2.454,2.977,2.977,0,0,1-2.053,2.631" transform="translate(143.825 219.038)" fill="#1c1d1c"/>
        <g id="Grupo_2898" data-name="Grupo 2898" transform="translate(99.003 128.214)" opacity="0.22">
          <g id="Grupo_2897" data-name="Grupo 2897">
            <g id="Grupo_2896" data-name="Grupo 2896" clip-path="url(#clip-path-7)">
              <path id="Trazado_2708" data-name="Trazado 2708" d="M52.022,46.973a5.15,5.15,0,0,0-5.9,2.356c-6.489,11.445-9.359,25.646-10.446,38.624-1.073,12.821-.289,27.858,4.619,39.9.065.16.149.292.225.441.16.859.334,1.716.525,2.561,1.21,5.332,9.028,3.9,9.236-1.25.536-13.15-.306-26.07,1.48-39.211a178.721,178.721,0,0,1,9.575-37.74c2.154-5.832-5.355-8.927-9.317-5.683" transform="translate(-35.256 -45.659)" fill="#1c1d1c"/>
            </g>
          </g>
        </g>
        <g id="Grupo_2901" data-name="Grupo 2901" transform="translate(367.122 154.177)" opacity="0.22">
          <g id="Grupo_2900" data-name="Grupo 2900">
            <g id="Grupo_2899" data-name="Grupo 2899" clip-path="url(#clip-path-8)">
              <path id="Trazado_2709" data-name="Trazado 2709" d="M194.727,95.182c-4.159-12.675-14.018-25.292-24.854-33-10.162-7.231-26.561-10.423-37.549-3.2-3.162,2.081-1.244,7.882,2.724,6.458a26.837,26.837,0,0,1,14.338-1.339,159.633,159.633,0,0,0-5.56,30.085,153.29,153.29,0,0,0-.446,17.848c.126,5.953-.374,12.03.812,17.9.811,4.024,6.562,2.786,6.809-.921.376-5.636-.539-11.322-.244-16.98.292-5.636.977-11.347,1.612-16.958a269.973,269.973,0,0,1,4.981-28.058,41.728,41.728,0,0,1,8.112,5.863c7.84,7.107,15.669,17.359,18.159,27.791,5.346,22.388-13.223,42.482-31.259,52.51-4.347,2.418-.525,8.337,3.794,6.492,12.549-5.358,23.806-12.571,31.8-24.006,8.031-11.5,11.2-27,6.776-40.492" transform="translate(-130.741 -54.906)" fill="#1c1d1c"/>
            </g>
          </g>
        </g>
        <path id="Trazado_2710" data-name="Trazado 2710" d="M102.073,102.84c0,5.035-2.808,9.115-6.27,9.115s-6.267-4.08-6.267-9.115,2.805-9.115,6.267-9.115,6.27,4.08,6.27,9.115" transform="translate(161.88 169.456)" fill="#1c1d1c"/>
        <path id="Trazado_2711" data-name="Trazado 2711" d="M84.34,126.314c-2.729,3.016-4.327,7.205-5.714,10.985a56.839,56.839,0,0,0-2.962,12.4.794.794,0,0,0,.4.691.562.562,0,0,0,.615.081.8.8,0,0,0,.559-.559,71.646,71.646,0,0,1,2.932-11.973,62.165,62.165,0,0,1,2.311-5.841c.828-1.82,1.758-3.572,2.409-5.467a.329.329,0,0,0-.545-.317" transform="translate(136.793 228.208)" fill="#1c1d1c"/>
        <path id="Trazado_2712" data-name="Trazado 2712" d="M198.305,215.326a69.746,69.746,0,0,0-5.97,3.9c-2.03,1.368-4.119,2.642-6.251,3.841a95.666,95.666,0,0,1-13.31,6.178,112.509,112.509,0,0,1-28.049,6.453,119.236,119.236,0,0,1-31.281-1.092.3.3,0,0,0,0-.051,268.68,268.68,0,0,1-7.071-57.227q-.067-4.044-.008-8.087.029-2.077.048-4.156a10.252,10.252,0,0,0-.354-3.768c-.073-.2-.4-.306-.514-.067-.91,1.98-.722,4.465-.772,6.607-.062,2.463-.067,4.928-.048,7.394q.051,7.274.5,14.543a271.931,271.931,0,0,0,3.384,28.886q1.339,7.864,3.151,15.641a146.008,146.008,0,0,1-26.12-7.242,171.728,171.728,0,0,1-16.017-7.006c-2.519-1.258-5.068-2.508-7.54-3.858a52.054,52.054,0,0,0-7.6-3.912c-.295-.1-.5.3-.295.508a30.283,30.283,0,0,0,6.3,4.442c2.244,1.342,4.462,2.693,6.776,3.909,4.577,2.4,9.261,4.605,14.051,6.546a138.567,138.567,0,0,0,30.172,8.556c19.65,3.125,39.846,2.2,58.7-4.454a110.779,110.779,0,0,0,15.076-6.6q3.681-1.954,7.183-4.212a31.261,31.261,0,0,0,6.4-4.967.451.451,0,0,0-.545-.7" transform="translate(97.828 291.284)" fill="#1c1d1c"/>
        <path id="Trazado_2713" data-name="Trazado 2713" d="M77.328,202.865q-2.009-4.6-4.072-9.182c-.64-1.429-1.23-2.9-1.952-4.293a6.13,6.13,0,0,0-2.547-2.805,3.579,3.579,0,0,0-5.313,3.044,6.224,6.224,0,0,0,1.219,3.808c.41.623.87,1.213,1.325,1.8a10.078,10.078,0,0,0,1.586,1.856.857.857,0,0,0,1.339-1.033c-1.011-2-3.51-3.642-3.485-6.1.008-.823.418-1.769,1.345-1.836a2.855,2.855,0,0,1,2.4,1.629,26.176,26.176,0,0,1,1.474,3.106q.8,1.794,1.589,3.586,1.651,3.728,3.342,7.438c.542,1.191,2.26.157,1.747-1.019" transform="translate(114.687 336.557)" fill="#1c1d1c"/>
        <path id="Trazado_2714" data-name="Trazado 2714" d="M80.4,204.281a48.7,48.7,0,0,0-1.379-4.841q-.729-2.405-1.463-4.819c-.724-2.4-1.311-6.287-4.327-6.8a3.058,3.058,0,0,0-3.038,1.438,6.035,6.035,0,0,0-.668,3.92,17.41,17.41,0,0,0,2.651,8.387c.371.531,1.37.233,1.129-.475a33.039,33.039,0,0,1-2-7.073,6.907,6.907,0,0,1,.14-3.51,1.37,1.37,0,0,1,2.3-.562c.826.764,1.022,2.047,1.331,3.08q.594,1.959,1.182,3.917a78.627,78.627,0,0,0,2.449,7.806.879.879,0,0,0,1.693-.466" transform="translate(125.612 339.504)" fill="#1c1d1c"/>
        <path id="Trazado_2715" data-name="Trazado 2715" d="M86.621,191.344c-.89-2.157-3.229-2.451-5.063-1.264a13.294,13.294,0,0,0-4.142,5.007,17.282,17.282,0,0,0-1.376,3.482c-.272,1.019-.677,2.544-.1,3.5a.545.545,0,0,0,.848.11c.7-.8.758-2.117,1.053-3.117a15.908,15.908,0,0,1,1.323-3.226,15.079,15.079,0,0,1,2.016-2.845c.646-.713,1.57-1.749,2.623-1.727.955.017,1.191,1.081,1.255,1.853a21.017,21.017,0,0,1-.129,3.735,36.1,36.1,0,0,1-1.679,7.851c-.4,1.2,1.469,1.7,1.884.52a33.6,33.6,0,0,0,1.688-7.3,34.074,34.074,0,0,0,.225-3.746,7.352,7.352,0,0,0-.424-2.833" transform="translate(136.77 342.417)" fill="#1c1d1c"/>
        <path id="Trazado_2716" data-name="Trazado 2716" d="M93.756,190.563a2.738,2.738,0,0,0-2.179-1.547,3.7,3.7,0,0,0-2.631.988,11.6,11.6,0,0,0-2,2.325,31.014,31.014,0,0,0-1.744,2.69,28.061,28.061,0,0,0-1.592,3.266,8.07,8.07,0,0,0-.98,3.412c.036.441.618.8.96.4a8.663,8.663,0,0,0,1.146-2.3q.531-1.226,1.163-2.4a37.141,37.141,0,0,1,2.83-4.521c.573-.769,2.406-3.139,3.386-1.645a2.616,2.616,0,0,1,.008,2.213,21.71,21.71,0,0,1-1.059,2.611c-.915,1.971-2,3.858-3.078,5.742a.865.865,0,0,0,1.494.87c1.143-1.977,2.289-3.962,3.238-6.037.826-1.808,2.013-4.1,1.042-6.071" transform="translate(149.373 341.721)" fill="#1c1d1c"/>
        <path id="Trazado_2717" data-name="Trazado 2717" d="M99.049,189.514a1.936,1.936,0,0,0-2.2-1.014,5.539,5.539,0,0,0-2.314,1.334,19.379,19.379,0,0,0-3.69,4.035,17.117,17.117,0,0,0-1.5,2.651c-.225.494-.43.994-.615,1.505a3.615,3.615,0,0,0-.365,1.547c.048.427.615.812.96.4a8.938,8.938,0,0,0,.946-2.078,20.761,20.761,0,0,1,1.087-2.053,18.115,18.115,0,0,1,2.9-3.687,17.222,17.222,0,0,1,1.733-1.494c.295-.216,1.16-.9,1.558-.584s-.129,1.261-.289,1.581q-.623,1.259-1.311,2.488c-.486.873-.991,1.738-1.491,2.6-.267.458-.539.915-.817,1.368-.256.418-.621.862-.418,1.376a.535.535,0,0,0,.5.379c.556,0,.823-.427,1.112-.842q.455-.657.893-1.323c.6-.915,1.151-1.859,1.674-2.822.5-.91,1-1.828,1.418-2.774a3.147,3.147,0,0,0,.244-2.595" transform="translate(159.74 340.731)" fill="#1c1d1c"/>
        <path id="Trazado_2718" data-name="Trazado 2718" d="M162.512,159.763c-4.8-6.032-11.344-10.168-18.342-13.223-3.563-1.558-7.242-2.85-10.92-4.108a83.98,83.98,0,0,0-12.159-3.572c-4.336-.781-9.494-.525-12.962,2.555-.432.385.18.921.612.7a16,16,0,0,1,5.908-1.763,22.634,22.634,0,0,1,6.262.334,95.849,95.849,0,0,1,11.243,3.215c6.829,2.159,13.647,4.754,19.69,8.657a37.478,37.478,0,0,1,9.148,8.2c.719.913,2.249-.084,1.519-1" transform="translate(195.231 250.383)" fill="#1c1d1c"/>
        <path id="Trazado_2719" data-name="Trazado 2719" d="M122.886,145.324a3.779,3.779,0,0,0-3.294-3.246,3.39,3.39,0,0,0-2.69.812,3.175,3.175,0,0,0-.837,1.053,1.837,1.837,0,0,0-.177,1.039c-.031.118-.056.236-.076.348a3.4,3.4,0,0,0,.449,2.421,3.684,3.684,0,0,0,4.3,1.415,3.743,3.743,0,0,0,2.319-3.841m-1.474.581c-.006.014-.025.152-.028.152a2.791,2.791,0,0,1-.126.421c-.011.028-.059.135-.059.132-.034.07-.073.14-.112.208l-.084.129-.031.053-.039.042a1.983,1.983,0,0,1-.584.5,2.02,2.02,0,0,1-.649.225l-.042.011H119.6c-.053,0-.1.008-.154.008-.079,0-.157,0-.233,0-.053,0-.1-.006-.157-.011.084.014.079.011-.017,0a3.409,3.409,0,0,1-.379-.093c-.07-.022-.14-.045-.211-.073l-.031-.02a3.547,3.547,0,0,1-.4-.236c.028.02.1.087-.022-.02-.076-.067-.152-.138-.222-.213a1.8,1.8,0,0,1-.343-.578,4.111,4.111,0,0,1-.126-.486l-.017-.1c-.008-.09-.014-.183-.014-.275,0-.051,0-.1,0-.154l.011-.146.008-.045a3.258,3.258,0,0,1,.107-.393c.042-.062.081-.129.124-.191l.011-.02a4.069,4.069,0,0,1,.359-.4l.118-.107.034-.034.034-.022c.109-.07.219-.143.334-.2.07-.036.14-.067.211-.1l.1-.045.124-.048c.1-.034.2-.053.3-.079l.031-.008a1.911,1.911,0,0,1,.219-.014c.081,0,.16,0,.239.006l.036,0a1.709,1.709,0,0,1,.761.309,2.211,2.211,0,0,1,.873,1.073,2.571,2.571,0,0,1,.09.351,1.058,1.058,0,0,0,.017.143,2.144,2.144,0,0,1,0,.233c0,.039-.006.076-.008.115" transform="translate(209.296 256.822)" fill="#1c1d1c"/>
        <g id="Grupo_2904" data-name="Grupo 2904" transform="translate(186.918 348.264)" opacity="0.34">
          <g id="Grupo_2903" data-name="Grupo 2903">
            <g id="Grupo_2902" data-name="Grupo 2902" clip-path="url(#clip-path-9)">
              <path id="Trazado_2720" data-name="Trazado 2720" d="M235.019,164.116c-3.445-5.217-9.449-2.727-14.5-6.442-6.661-4.9-24.958-3.563-33.646.351a9.127,9.127,0,0,0-3.841-7.775c-5.035-3.83-10.055-7.68-15.124-11.462-4.917-3.673-9.926-8.222-15.517-10.788a8.457,8.457,0,0,0-3.339-.8,4.836,4.836,0,0,0-2.025-.4c-6.335.124-12.748,2.642-19.094,3.384a117.97,117.97,0,0,1-19.462.618,120.313,120.313,0,0,1-18.687-2.451c-6.113-1.278-13-4.524-19.226-4.319a4.064,4.064,0,0,0-2.839,6.857c4.625,4.608,13,6.43,19.182,7.921a117.829,117.829,0,0,0,20.723,3.01,119.775,119.775,0,0,0,19.173-.416c.168.143.317.292.505.427,1.005.73,2.03,1.435,3.064,2.126a8.309,8.309,0,0,0,.494.694c5.888,7.424,12.546,14.029,18.861,21.08a38.726,38.726,0,0,1,5.492,7.961c.208,8.253,2.9,16.944,6.071,23.73a53.948,53.948,0,0,0,9.112,13.653c.581.629,1.2,1.28,1.853,1.9-1.365,9.651-4.737,18.957-8.522,27.928-4.65,11.021-9.382,22.321-15.848,32.421-5.664,8.845-13.484,16.042-22.119,21.942-9.3,6.352-19.754,10.508-29.217,16.458-6.568,4.131-2.46,15.512,5.462,12.953a105.008,105.008,0,0,0,11-4.3,6.438,6.438,0,0,0,5.276,1.272c10.749-2.482,21.467-10.463,30.107-17.059l.045-.034c3.549.255,7.368-1.645,9.792-4.159a8.268,8.268,0,0,0,3.575-1.912c12.361-11.013,21.627-24.915,29.639-39.284,7.2-12.914,17.008-27.406,13.582-42.356a7.666,7.666,0,0,0,1.306-2.561c1.283-4.675,2.137-16.477-1.921-18.173-6.369-2.662-10.64-1.045-15.613-5.984-5.335-5.3-9.028-14.458-7.666-15.5,1.5,1.519.188-7.478,2.937-8.315,1.64-.5,5.768-.267,7.34-.41,7.017,0,14.686,3.139,15.9,3.344,8.59,1.457,13,3.137,19.314,9.1.284.27,7.75,7.009,7.969,7.3,2.07,3.645-.983.314-1.345,3.319-.654,5.389,6.77-3.384,6.405-9.94-.331-5.956-1.39-10-4.63-14.911" transform="translate(-66.566 -124.026)" fill="#1c1d1c"/>
            </g>
          </g>
        </g>
        <path id="Trazado_2721" data-name="Trazado 2721" d="M98.213,126.28c-23.809,10.4-41.359,34.056-48.171,58.7-8.014,28.987-2.336,59.207,12.647,84.791,1.264,2.159,4.527.244,3.35-1.957-13.029-24.323-18.07-54.534-10.328-81.272,7.023-24.264,23.245-43.5,45.161-55.714,3.035-1.693.371-5.874-2.659-4.552" transform="translate(83.901 227.855)" fill="#5dc5e0"/>
        <path id="Trazado_2722" data-name="Trazado 2722" d="M146.489,155.2c-1.342-.668-3.311-.191-4.762-.042-1.716.174-3.429.379-5.153.475a37.77,37.77,0,0,1-10.53-.744,26.355,26.355,0,0,1-8.87-3.782,24.832,24.832,0,0,1-6.722-7.4c-.43-.654-1.62-.337-1.373.522,1.912,6.61,9.258,11.139,15.525,12.819a38.48,38.48,0,0,0,11.271,1.146,52.136,52.136,0,0,0,5.686-.5c1.5-.213,3.942-.416,5.029-1.575a.589.589,0,0,0-.1-.921" transform="translate(197.153 259.185)" fill="#5dc5e0"/>
        <path id="Trazado_2723" data-name="Trazado 2723" d="M104.393,147.069a25.9,25.9,0,0,0-3.072-1.452,7.241,7.241,0,0,0-3.549-.8,10.707,10.707,0,0,0-5.54,1.789,20.2,20.2,0,0,0-3.1,2.415,9.772,9.772,0,0,0-1.266-1.814,10.256,10.256,0,0,0-14.439-1.115c-5.931,4.878-4.22,13.829-.014,19.17,2.676,3.4,6.3,5.925,9.825,8.362a2.033,2.033,0,0,0,.449.225,5.727,5.727,0,0,0,2.567,1.7,8.208,8.208,0,0,0,5.947-.458,39.309,39.309,0,0,0,10.951-7.217c3.257-2.892,6.428-6.318,7.042-10.805.607-4.439-2.025-8.006-5.8-10" transform="translate(125.827 259.73)" fill="#e4473a"/>
        <path id="Trazado_2724" data-name="Trazado 2724" d="M79.941,145.322a7.355,7.355,0,0,0-6.835,2.578c-1.688,1.935-2.578,4.979-1.219,7.323a.405.405,0,0,0,.761-.154c.154-2.154.48-4.395,1.915-6.1a8.223,8.223,0,0,1,5.453-2.6c.646-.065.449-.943-.076-1.045" transform="translate(128.775 262.533)" fill="#fff"/>
        <g id="Grupo_2907" data-name="Grupo 2907" transform="translate(103.458 588.509)" opacity="0.53">
          <g id="Grupo_2906" data-name="Grupo 2906">
            <g id="Grupo_2905" data-name="Grupo 2905" clip-path="url(#clip-path-10)">
              <path id="Trazado_2725" data-name="Trazado 2725" d="M214.861,245.415c0,11.681-39.857,21.161-89.014,21.161s-89-9.48-89-21.161c0-6.537,12.451-12.372,32.028-16.253-14.318-1.286-24.685-5.071-24.685-9.547,0-5.549,15.888-10.033,35.507-10.033,19.521,0,35.361,4.448,35.507,9.957,8.834-2.5,22.079-4.091,36.9-4.091,26.623,0,48.214,5.136,48.214,11.462,0,1.879-1.907,3.639-5.271,5.2,12.392,3.631,19.819,8.261,19.819,13.3" transform="translate(-36.844 -209.582)" fill="#aeadad"/>
            </g>
          </g>
        </g>
        <path id="Trazado_2726" data-name="Trazado 2726" d="M160.592,181.857c-.792-2.022-1.674-4.01-2.592-5.975a119.164,119.164,0,0,0-6.383-11.931,104.815,104.815,0,0,0-7.478-10.662c-1.446-1.806-2.932-3.591-4.5-5.3a51.713,51.713,0,0,0-8.463-6.523c-1.1-.618.536,1.353-.292,2.269a2.729,2.729,0,0,0-.685,2.187,2.51,2.51,0,0,0-.972,1.213,5.222,5.222,0,0,0-1.073,5.63,43.71,43.71,0,0,0,5.29,7.882q3.555,4.591,6.9,9.328c2.23,3.142,4.341,6.369,6.267,9.7.958,1.665,1.873,3.356,2.727,5.077.82,1.648,1.491,3.5,2.46,5.212a3.352,3.352,0,0,0,3.67,1.429,3.3,3.3,0,0,0,2.12.48,3.22,3.22,0,0,0,1.078.494,3.446,3.446,0,0,0,4.17-3.457c-.185-2.387-1.387-4.847-2.255-7.062" transform="translate(230.977 255.566)" fill="#1c1d1c"/>
        <path id="Trazado_2727" data-name="Trazado 2727" d="M72.131,194.265c-.138-.166-.27-.337-.4-.505-.727-.958-1.412-1.946-2.041-2.971-.258-.424-.511-.854-.761-1.283a4.345,4.345,0,0,0-.946-1.645c-.146-.225-.32-.421-.483-.632a1.856,1.856,0,0,0-1.182-.567,1.969,1.969,0,0,0-1.314.244,2.162,2.162,0,0,0-.946,2.328,14.065,14.065,0,0,0,3.122,6.5,2,2,0,0,0,.963.553c.284.371.562.75.856,1.112a2.212,2.212,0,0,0,1.567.649,2.258,2.258,0,0,0,1.567-.649,2.222,2.222,0,0,0,.649-1.567,2.541,2.541,0,0,0-.649-1.567" transform="translate(115.728 337.446)" fill="#1c1d1c"/>
        <path id="Trazado_2728" data-name="Trazado 2728" d="M76.891,199.631c-.236-.573-.528-1.092-.806-1.645-.107-.213-.2-.432-.309-.649l-.039-.079-.02-.051a20.868,20.868,0,0,1-.837-2.659c-.1-.438-.2-.876-.281-1.32-.02-.11-.174-.887-.056-.3a5.891,5.891,0,0,1-.065-.629c-.1-1.115-.02-2.752-.949-3.53a1.863,1.863,0,0,0-2.2-.284c-1.222.817-1.356,2.451-1.283,3.813a20.526,20.526,0,0,0,.449,3.361,17.034,17.034,0,0,0,.89,2.738,13.013,13.013,0,0,0,1.822,3.372,2.2,2.2,0,0,0,3.678-2.143" transform="translate(126.623 340.342)" fill="#1c1d1c"/>
        <path id="Trazado_2729" data-name="Trazado 2729" d="M84.058,190.008a2.388,2.388,0,0,0-2.839.365,25.2,25.2,0,0,0-3.311,4.8q-.64,1.167-1.193,2.376a10.544,10.544,0,0,0-.64,1.629,2.089,2.089,0,0,0,3.583,2.058,1.682,1.682,0,0,0,.076.183,2.371,2.371,0,0,0,3.471.663,2.472,2.472,0,0,0,.929-1.856q.463-3.58.924-7.158c.022-.14.051-.278.076-.418a2.4,2.4,0,0,0-1.075-2.645" transform="translate(137.39 342.991)" fill="#1c1d1c"/>
        <path id="Trazado_2730" data-name="Trazado 2730" d="M91,189.827a2.383,2.383,0,0,0-2.791.359,18.638,18.638,0,0,0-3.558,4.588,14.233,14.233,0,0,0-1.244,2.788,8.744,8.744,0,0,0-.295,1.716,2,2,0,0,0,1.511,2.179,1.706,1.706,0,0,0,.289.2,2.435,2.435,0,0,0,3.263-.854,37.968,37.968,0,0,0,3.883-8.376,2.319,2.319,0,0,0-1.059-2.6" transform="translate(150.26 342.678)" fill="#1c1d1c"/>
        <path id="Trazado_2731" data-name="Trazado 2731" d="M95.145,188.569a1.575,1.575,0,0,0-1.505.938,2.143,2.143,0,0,0-1.171.89c-.587.89-1.2,1.769-1.761,2.676a9.83,9.83,0,0,0-1.567,3.151,1.662,1.662,0,0,0,.584,1.716,1.623,1.623,0,0,0,1.814.129,7.99,7.99,0,0,0,.9-.722,5.313,5.313,0,0,0,.71-.871c.323-.449.649-.9.972-1.345.637-.879,1.219-1.8,1.825-2.7a1.7,1.7,0,0,0,.244-.716,1.772,1.772,0,0,0-1.047-3.145" transform="translate(161.095 340.935)" fill="#1c1d1c"/>
        <path id="Trazado_2732" data-name="Trazado 2732" d="M128.916,196.826c-2.926,1.693-5.622,3.743-8.587,5.38a65.184,65.184,0,0,1-9.151,4.164,62.493,62.493,0,0,1-19.738,3.8,90.473,90.473,0,0,1-11.664-.6.663.663,0,0,0-.244,1.3,50.915,50.915,0,0,0,20.956.5,59.045,59.045,0,0,0,19.566-6.812c3.367-1.915,6.916-4.125,9.449-7.1.337-.4-.174-.879-.587-.64" transform="translate(142.857 355.749)" fill="#1c1d1c"/>
        <path id="Trazado_2733" data-name="Trazado 2733" d="M103.39,202.969A24.318,24.318,0,0,0,98.7,204.01q-2.557.682-5.164,1.112c-1.643.27-3.288.517-4.951.674-.828.079-1.657.157-2.482.25a2.844,2.844,0,0,0-1.808.562.341.341,0,0,0,.042.475,3.047,3.047,0,0,0,2.055.469,24.819,24.819,0,0,0,2.5-.045,45.67,45.67,0,0,0,5.133-.592q2.494-.442,4.942-1.092a14.3,14.3,0,0,0,4.748-1.935.51.51,0,0,0-.329-.918" transform="translate(152.263 366.968)" fill="#1c1d1c"/>
        <path id="Trazado_2734" data-name="Trazado 2734" d="M18.738,167.256A20.309,20.309,0,0,0,21,169.84,182.357,182.357,0,0,0,70.057,207.5l.025-.031c.227.146.449.3.688.438a13.444,13.444,0,0,0,18.468-5.254,13.925,13.925,0,0,0-2.5-16.663l.008-.011s-.073-.065-.213-.185c-.213-.2-.435-.39-.663-.576-4.636-4.049-26.356-23.455-31.332-35.839a20.759,20.759,0,0,0-.668-1.994l0-.008h0a20.554,20.554,0,0,0-9-10.423,20.136,20.136,0,0,0-27.656,7.868,20.861,20.861,0,0,0,1.525,22.428v0l.006.006" transform="translate(26.469 242.825)" fill="#aeadad"/>
        <path id="Trazado_2735" data-name="Trazado 2735" d="M90.993,187.236l.163-.211L89.4,185.52c-.25-.227-.508-.458-.719-.621-4.277-3.737-25.8-22.936-30.689-34.887-.171-.593-.362-1.188-.584-1.772l-.039-.441-.239-.267a22.928,22.928,0,0,0-9.814-11.156,22.448,22.448,0,0,0-8.806-2.819,9.919,9.919,0,0,1-2.856,1.123c-1.553.449-3.117.89-4.687,1.283q-1.537.388-3.106.671a4.64,4.64,0,0,1-2.089,1.954c-.345.154-2.272.519-2.2.778a2.432,2.432,0,0,1-3.527,2.713,9.821,9.821,0,0,1-.89-.6,23.023,23.023,0,0,0-.767,28.434l.286.385.008.008a24.194,24.194,0,0,0,2.168,2.426,184.34,184.34,0,0,0,49.623,38.085l.211.1c.143.087.278.174.432.258a15.613,15.613,0,0,0,21.428-6.1,16.146,16.146,0,0,0-1.553-17.845m-2.252,15.68a11.305,11.305,0,0,1-15.506,4.417,4.224,4.224,0,0,1-.373-.239l-1.926-1.2-.107.146A180.036,180.036,0,0,1,24,169.7l-.1-.107a18.766,18.766,0,0,1-2.013-2.308l-.076-.1a18.642,18.642,0,0,1-1.294-19.934A17.992,17.992,0,0,1,45.2,140.23a18.482,18.482,0,0,1,7.955,9.1l.084.219a18.432,18.432,0,0,1,.6,1.783l.076.23c5.052,12.563,25.724,31.253,31.992,36.734.171.135.334.278.536.461l.191.183a11.677,11.677,0,0,1,2.109,13.981" transform="translate(25.068 241.474)" fill="#1c1d1c"/>
        <path id="Trazado_2736" data-name="Trazado 2736" d="M35.107,133.627a9.914,9.914,0,0,1-2.856,1.12c-1.553.452-3.114.893-4.687,1.286-1.025.258-2.061.477-3.106.671a4.655,4.655,0,0,1-2.089,1.954c-.345.152-2.272.517-2.2.775a2.431,2.431,0,0,1-3.527,2.713,9.8,9.8,0,0,1-.89-.592,22.5,22.5,0,0,1,9.325-6.613,22.41,22.41,0,0,1,10.033-1.314" transform="translate(28.474 241.408)" fill="#1c1d1c"/>
        <path id="Trazado_2737" data-name="Trazado 2737" d="M25.794,138.958a3.338,3.338,0,0,0,1.966-1.952,2.208,2.208,0,0,0,0-1.513,2.507,2.507,0,0,0-.312-.6,1.041,1.041,0,0,0-.486-.365,1.336,1.336,0,0,0-.929-.227,2.153,2.153,0,0,0-.612-.96,3.126,3.126,0,0,0-1.721-.685,2.9,2.9,0,0,0-3.049,2.07,3.447,3.447,0,0,0,1.137,3.782,4.2,4.2,0,0,0,4.01.446m-3.58-2.142a2.129,2.129,0,0,1-.216-1.16c.014-.109.034-.216.056-.323l.025-.09.051-.135c.037-.084.076-.166.121-.247l.067-.107c.042-.059.09-.112.135-.168.034-.034.065-.07.1-.1-.115.124.042-.037.062-.053.042-.034.314-.2.168-.124.087-.045.177-.073.267-.11l.076-.023c.048-.008.1-.02.146-.025s.129-.008.194-.014l.034-.008.034.006a2.981,2.981,0,0,1,.354.051c.037.008.076.017.112.028l.112.039a2.852,2.852,0,0,1,.323.157l.022.014c.1.067.2.124.295.188l.006,0,.022.017c.048.042.1.076.146.118a1.186,1.186,0,0,1,.351.466.449.449,0,0,0,.694.194c.008.031.006.065.017.1.039.118.1.227.135.345l.006.025c0,.031.025.286.022.2v-.034l-.008.27-.006.039s-.031.154-.031.174c-.014.042-.028.084-.045.124a1.851,1.851,0,0,1-.118.236l-.028.039a2.007,2.007,0,0,1-.138.177c-.02.025-.188.208-.124.146a2.239,2.239,0,0,1-2.519.385,1.983,1.983,0,0,1-.918-.809" transform="translate(37.038 239.834)" fill="#1c1d1c"/>
        <g id="Grupo_2910" data-name="Grupo 2910" transform="translate(40.23 381.027)" opacity="0.34">
          <g id="Grupo_2909" data-name="Grupo 2909">
            <g id="Grupo_2908" data-name="Grupo 2908" clip-path="url(#clip-path-11)">
              <path id="Trazado_2738" data-name="Trazado 2738" d="M83.89,206.762a5.358,5.358,0,0,0,5.843-5.021c1.727-2.833,1.556-6.663-2.26-8.545-23.716-11.7-46.366-34.12-61.288-56.059-2.76-4.058-4.5,1.4-6.447,4.5a6.289,6.289,0,0,0-5.405,6.326c.329,7.5,6.189,15.672,10.454,21.594a93.075,93.075,0,0,0,16.247,17.474c11.628,9.595,27.448,19.274,42.856,19.726" transform="translate(-14.327 -135.693)" fill="#1c1d1c"/>
            </g>
          </g>
        </g>
        <path id="Trazado_2739" data-name="Trazado 2739" d="M85.9,196.909c.388.126.567-.458.241-.651-2.547-1.525-5.307-2.721-7.93-4.108s-5.248-2.833-7.778-4.409a177.693,177.693,0,0,1-14.874-10.319,165.6,165.6,0,0,1-25.6-24.5,146.331,146.331,0,0,1-12.108-16.573c-.5-.8-1.755-.025-1.238.764,13.257,20.279,30.43,38.167,51.257,50.494,2.9,1.716,5.818,3.4,8.789,4.984a59.836,59.836,0,0,0,9.241,4.322" transform="translate(29.811 245.903)" fill="#1c1d1c"/>
        <path id="Trazado_2740" data-name="Trazado 2740" d="M49.532,145.3H16.8a7.3,7.3,0,0,1-7.287-7.287v-3.347a7.3,7.3,0,0,1,7.287-7.287h32.73ZM16.8,130.259a4.417,4.417,0,0,0-4.411,4.411v3.347a4.417,4.417,0,0,0,4.411,4.411H46.657v-12.17Z" transform="translate(17.203 230.312)" fill="#1c1d1c"/>
        <path id="Trazado_2741" data-name="Trazado 2741" d="M79.164,163.853c0,28.566-12.541,51.724-28.01,51.724s-28.007-23.158-28.007-51.724,12.541-51.724,28.007-51.724,28.01,23.158,28.01,51.724" transform="translate(41.85 202.73)" fill="#0f6e70"/>
        <path id="Trazado_2742" data-name="Trazado 2742" d="M52.389,218.726c-16.781,0-29.925-23.562-29.925-53.641s13.144-53.639,29.925-53.639,29.925,23.562,29.925,53.639S69.17,218.726,52.389,218.726m0-103.447C38,115.279,26.3,137.622,26.3,165.085S38,214.893,52.389,214.893s26.092-22.343,26.092-49.808-11.7-49.806-26.092-49.806" transform="translate(40.615 201.496)" fill="#1c1d1c"/>
        <path id="Trazado_2743" data-name="Trazado 2743" d="M72.071,161.93c0,26.887-10.075,48.68-22.5,48.68s-22.5-21.793-22.5-48.68,10.075-48.68,22.5-48.68,22.5,21.793,22.5,48.68" transform="translate(48.943 204.757)" fill="#16b0b2"/>
        <path id="Trazado_2744" data-name="Trazado 2744" d="M50.8,213.762c-13.692,0-24.416-22.225-24.416-50.6s10.724-50.6,24.416-50.6,24.418,22.225,24.418,50.6-10.727,50.6-24.418,50.6m0-97.362c-11.156,0-20.583,21.414-20.583,46.765s9.426,46.765,20.583,46.765,20.586-21.417,20.586-46.765S61.963,116.4,50.8,116.4" transform="translate(47.71 203.522)" fill="#1c1d1c"/>
        <path id="Trazado_2745" data-name="Trazado 2745" d="M56.735,145.068c0,13.021-5.714,23.576-12.765,23.576S31.2,158.089,31.2,145.068s5.717-23.576,12.768-23.576,12.765,10.555,12.765,23.576" transform="translate(56.414 219.659)" fill="#0f6e70"/>
        <path id="Trazado_2746" data-name="Trazado 2746" d="M44.587,170.218c-7.7,0-13.726-10.774-13.726-24.534s6.029-24.534,13.726-24.534,13.723,10.777,13.723,24.534-6.026,24.534-13.723,24.534m0-47.149c-6.512,0-11.808,10.145-11.808,22.616s5.3,22.618,11.808,22.618,11.808-10.145,11.808-22.618-5.3-22.616-11.808-22.616" transform="translate(55.797 219.042)" fill="#1c1d1c"/>
        <path id="Trazado_2747" data-name="Trazado 2747" d="M53.5,144.192c0,12.254-4.591,22.189-10.255,22.189s-10.255-9.935-10.255-22.189S37.582,122,43.246,122,53.5,131.938,53.5,144.192" transform="translate(59.648 220.583)" fill="#16b0b2"/>
        <path id="Trazado_2748" data-name="Trazado 2748" d="M43.864,167.957c-6.287,0-11.215-10.165-11.215-23.144s4.928-23.152,11.215-23.152,11.215,10.171,11.215,23.152-4.928,23.144-11.215,23.144m0-44.378c-5.04,0-9.3,9.724-9.3,21.234s4.257,21.226,9.3,21.226,9.3-9.719,9.3-21.226-4.257-21.234-9.3-21.234" transform="translate(59.03 219.964)" fill="#1c1d1c"/>
        <path id="Trazado_2749" data-name="Trazado 2749" d="M142.687,209.451c1.744-2.159-1.424-5.122-3.179-2.948a11.234,11.234,0,0,1-1.278,1.328,2.061,2.061,0,0,0-3.092-1.017c-.359.261-.727.5-1.1.719a2.191,2.191,0,0,0-2.755-2.182,9.8,9.8,0,0,0-1.238.295,3.637,3.637,0,0,0-2.238-.75,3.792,3.792,0,0,0-2.536-.986,5.5,5.5,0,0,0-.4-.559c-.031-.034-.067-.062-.1-.1a3.746,3.746,0,0,0-1.342-2.465,4.409,4.409,0,0,0-.708-.477,4.636,4.636,0,0,0-1.763-1.853c-.014-.048-.011-.1-.028-.146a3.573,3.573,0,0,0-1.443-1.952c.014-.081.031-.163.042-.244a6.15,6.15,0,0,0-.34-4.116,3.574,3.574,0,0,0-3.142-1.814c-.062,0-.118.017-.18.022a2.079,2.079,0,0,0-.767-1.042l.036-.093a14.585,14.585,0,0,0,.4-3.844l.185-4.108a1.97,1.97,0,0,0-.646-1.558,5.771,5.771,0,0,0-.7-3.541c.216-.14.435-.278.654-.418a1.524,1.524,0,0,0,.359-.188q1.078-.741,2.154-1.485a2.036,2.036,0,0,0,.764-2.547,2.005,2.005,0,0,0-2.415-1.112c-1.665.724-3.277,1.539-4.892,2.364a2.569,2.569,0,0,0-2.274-.477,5.923,5.923,0,0,0-1.157.432,2.9,2.9,0,0,0-2.289.067,3.991,3.991,0,0,0-1.474,5.759,5.7,5.7,0,0,0,1.224,3.485,6.2,6.2,0,0,0,.828,3.954c-2.179,1.056-2.578,3.982-1.309,6a9.444,9.444,0,0,0,.393,4.117,6.181,6.181,0,0,0,1.359,2.746c.093.11.194.211.295.309.1.124.174.253.278.371a1.582,1.582,0,0,0,1,.559,5.582,5.582,0,0,0,1.69.564,4.215,4.215,0,0,0,2.707,2.305c.045.011.087.014.132.022a1.517,1.517,0,0,0-.118.115,4.514,4.514,0,0,0-.7,1.213,6.036,6.036,0,0,0-.25,3.271,6.374,6.374,0,0,0,1.05,2.451,7.922,7.922,0,0,0,1.031,1.2,4.19,4.19,0,0,0,1.817,1.056,2.113,2.113,0,0,0,.786.006,5.872,5.872,0,0,0,1.612,1.146c2.572,1.224,5.492.416,7.921-.75a6.708,6.708,0,0,0,.744-.418,4.838,4.838,0,0,0,1.081-.225c.059.02.121.031.18.045a3.49,3.49,0,0,0,.312.334,3.936,3.936,0,0,0,2.676.927,2.077,2.077,0,0,0,2.084,1.426,14.277,14.277,0,0,0,10.055-5.195" transform="translate(186.522 307.636)" fill="#aeadad"/>
        <path id="Trazado_2750" data-name="Trazado 2750" d="M136.757,209.568c1.457-1.519-.9-3.684-2.39-2.216-3.395,3.35-7.8,6.1-12.751,5.695-3.844-.314-6.487-2.839-8.048-6.093a17.832,17.832,0,0,0,5.3,1.171c3.2.213,7.037-.41,9.707-2.291a1.789,1.789,0,0,0-1.881-3.041,15.782,15.782,0,0,1-7.789,1.786,13.413,13.413,0,0,1-7.416-2.7,13.781,13.781,0,0,1-4.56-6.6,16.173,16.173,0,0,1-.7-4.024c-.051-.744-.1-1.491-.14-2.238-.008-.149-.022-.3-.039-.458a26.151,26.151,0,0,0,8.623,8.191c1.626.96,4.058,2.437,6,2.266a1.567,1.567,0,0,0,.994-2.684,11.676,11.676,0,0,0-2.9-1.37,24.434,24.434,0,0,1-2.5-1.28,22.457,22.457,0,0,1-4.4-3.395,20.076,20.076,0,0,1-5.7-9.766c-.573-2.7.2-6.534,3.521-6.9a2.769,2.769,0,0,1,2.1.677c.017.02.02.042.036.062a1.232,1.232,0,0,0,.351.286,10.442,10.442,0,0,1,1.168,1.46,19.456,19.456,0,0,0,3.535,4.465,1.236,1.236,0,0,0,1.679-1.811c-1.39-1.6-2.193-3.693-3.4-5.411.031-.022.062-.045.093-.065a11.1,11.1,0,0,1,1.912-.949,14.27,14.27,0,0,1,2.151-.623,16.633,16.633,0,0,0,2.218-.694.623.623,0,0,0-.045-1.193,7.581,7.581,0,0,0-5.057.323,15.076,15.076,0,0,0-2.381,1.067c-.191.107-.371.227-.553.343A6.161,6.161,0,0,0,112,170.7c-3.052-1.213-6.321.438-8.053,3.027-1.912,2.853-1.573,6.621-.475,9.71a23.829,23.829,0,0,0,1.275,2.9.708.708,0,0,0-.18.2,11.491,11.491,0,0,0-.769,1.123,9.733,9.733,0,0,0-.447,1.28,9.31,9.31,0,0,0-.359,2.44,15.979,15.979,0,0,0,.772,4.861,16.906,16.906,0,0,0,5.655,8.382,16.175,16.175,0,0,0,2.137,1.4c-1.21,5.234,4.518,9.584,9.193,10.244a15.313,15.313,0,0,0,7.812-.986,1.246,1.246,0,0,0,.564,1.146c3.252,1.907,8,1.224,11.3-.227a15.808,15.808,0,0,0,5.3-3.813c1.4-1.539,3.061-3.723,3.086-5.9a1.3,1.3,0,0,0-2.238-.828,14.774,14.774,0,0,0-1.443,2.364,12.912,12.912,0,0,1-1.668,2.266,13.186,13.186,0,0,1-4.316,3.128,13.032,13.032,0,0,1-4.532,1.106,27,27,0,0,1-3.985-.2" transform="translate(185.463 306.491)" fill="#1c1d1c"/>
        <path id="Trazado_2751" data-name="Trazado 2751" d="M139.08,227.3a22.186,22.186,0,0,0,3.3-1.755,198.853,198.853,0,0,0,52.24-42.735l-.028-.037c.213-.2.432-.4.637-.623a14.917,14.917,0,0,0-18.988-22.7l-.011-.014-.247.183c-.264.177-.522.365-.778.559-5.453,3.914-31.461,22.133-45.779,24.264-.761.028-1.516.1-2.272.2h-.008v0A22.347,22.347,0,1,0,139.071,227.3v0l.008-.006" transform="translate(195.09 284.018)" fill="#aeadad"/>
        <path id="Trazado_2752" data-name="Trazado 2752" d="M114.965,226.46a24.741,24.741,0,0,1,12.942-42.581l.345-.191.472.076c.674-.084,1.348-.14,2.01-.171,13.846-2.145,39.582-20.209,44.614-23.818.23-.18.528-.4.834-.6l2.039-1.491.183.23a17.314,17.314,0,0,1,20.122,27.415c-.124.135-.253.261-.385.388l-.163.2a200.755,200.755,0,0,1-52.83,43.235,24.733,24.733,0,0,1-3.111,1.69l-.011.008-.475.205a24.772,24.772,0,0,1-26.586-4.591m13.8-37.866a19.952,19.952,0,1,0,10.786,38.1l.118-.053a19.377,19.377,0,0,0,2.946-1.564l.14-.084a196.029,196.029,0,0,0,50.28-40.694l-.121-.149,1.755-1.752c.115-.107.233-.213.34-.331a12.52,12.52,0,0,0-15.935-19.058l-.25.16c-.244.169-.432.306-.618.449-7.377,5.293-32.36,22.571-46.891,24.733l-.264.025a20.182,20.182,0,0,0-2.027.18Z" transform="translate(193.554 282.473)" fill="#1c1d1c"/>
        <g id="Grupo_2913" data-name="Grupo 2913" transform="translate(307.921 443.079)" opacity="0.34">
          <g id="Grupo_2912" data-name="Grupo 2912">
            <g id="Grupo_2911" data-name="Grupo 2911" clip-path="url(#clip-path-12)">
              <path id="Trazado_2753" data-name="Trazado 2753" d="M196.36,167.526a5.887,5.887,0,0,0-3.8-7.531c-2.547-2.572-6.624-3.37-9.581.23-18.367,22.369-42.16,38.3-69.071,48.652a6.533,6.533,0,0,0-2.493,10.595c-.174,3.277,1.682,6.691,5.29,7.4,7.983,1.567,18.089-2.611,25.413-5.658a100.673,100.673,0,0,0,22.548-12.9c13.071-9.98,27.3-24.421,31.7-40.781" transform="translate(-109.658 -157.791)" fill="#1c1d1c"/>
            </g>
          </g>
        </g>
        <path id="Trazado_2754" data-name="Trazado 2754" d="M192.057,159.728c.239-.376-.326-.73-.618-.435-2.294,2.294-4.3,4.908-6.47,7.323s-4.4,4.816-6.742,7.079a194.911,194.911,0,0,1-14.88,13.018,179.909,179.909,0,0,1-32.682,20.572,158.153,158.153,0,0,1-20.684,8.368c-.98.312-.505,1.859.463,1.525,24.89-8.578,48.331-21.981,66.937-40.789,2.589-2.62,5.156-5.265,7.624-8a65.684,65.684,0,0,0,7.051-8.66" transform="translate(197.872 287.805)" fill="#1c1d1c"/>
        <path id="Trazado_2755" data-name="Trazado 2755" d="M119.389,172.419a3.338,3.338,0,0,0-1.822-2.084,2.22,2.22,0,0,0-1.511-.093,2.576,2.576,0,0,0-.615.275,1.083,1.083,0,0,0-.4.461,1.346,1.346,0,0,0-.284.915,2.151,2.151,0,0,0-1,.55,3.112,3.112,0,0,0-.792,1.674,2.9,2.9,0,0,0,1.873,3.173,3.456,3.456,0,0,0,3.85-.9,4.2,4.2,0,0,0,.694-3.976m-2.362,3.44a2.145,2.145,0,0,1-1.171.143c-.11-.02-.213-.048-.32-.076l-.087-.034c-.045-.017-.087-.036-.132-.056-.081-.042-.16-.087-.239-.135l-.1-.076c-.053-.048-.107-.1-.157-.146-.034-.034-.065-.067-.1-.1.118.124-.034-.045-.048-.065-.031-.045-.18-.326-.115-.174-.037-.09-.062-.183-.093-.275l-.017-.076c-.006-.048-.011-.1-.014-.149s0-.129-.006-.194l0-.034.006-.034c.02-.118.042-.236.073-.351l.034-.11c.008-.014.045-.1.048-.107a2.686,2.686,0,0,1,.177-.317l.017-.02c.073-.09.135-.188.2-.284l0-.006.02-.02c.042-.045.081-.093.126-.138a1.132,1.132,0,0,1,.486-.32.452.452,0,0,0,.239-.682.555.555,0,0,0,.1-.011c.121-.031.233-.081.354-.112l.025,0c.031,0,.289-.008.2-.011l-.037,0,.27.025.039.008s.152.042.171.042c.039.017.081.034.121.053a1.85,1.85,0,0,1,.227.132l.036.031c.059.048.115.1.171.146.022.022.194.2.138.135a2.242,2.242,0,0,1,.225,2.538,1.979,1.979,0,0,1-.865.865" transform="translate(204.201 307.636)" fill="#1c1d1c"/>
        <path id="Trazado_2756" data-name="Trazado 2756" d="M41.243,138.026a26.871,26.871,0,0,1-.1-9.008,2.426,2.426,0,0,0-3.516-2.7,14.075,14.075,0,0,0-7.438,10.331,2.462,2.462,0,0,0-1.542-1.418A2.445,2.445,0,0,0,25.8,132c-.326.076-.651.163-.977.258.921-1.286.632-3.4-1.179-3.777a9.7,9.7,0,0,0-10.724,5.156,2.474,2.474,0,0,0,.862,3.277,2.624,2.624,0,0,0,.873.289c-.011.076-.02.163-.028.239h-.011v.048a16.586,16.586,0,0,0,.663,6.672c.755,4.3,2.376,8.345,6.077,10.971a22.54,22.54,0,0,1,9.323-6.61,22.378,22.378,0,0,1,10.036-1.314,3.524,3.524,0,0,0,1.092-1.092c1.561-2.435-.1-5.568-.567-8.09m-10.8,7.3a.258.258,0,0,0-.02-.087c-.373-1.227-1.227-2.423-1.331-3.718a2.733,2.733,0,0,0-.393-1.236c.345-.354.68-.7,1.016-1.056a2.031,2.031,0,0,0,.278-.343,14.358,14.358,0,0,0,1.359,6.237c-.306.067-.6.146-.91.2" transform="translate(22.863 227.827)" fill="#aeadad"/>
        <path id="Trazado_2757" data-name="Trazado 2757" d="M23.331,156.054A33.384,33.384,0,0,1,17,138.826c-.138-2.215-.236-5.349,1.707-6.894,2.376-1.887,5.947-.7,8.52.017,2.974.834,4.243-3.788,1.272-4.622-3.833-1.073-8.129-1.971-11.78.183-3.344,1.971-4.5,5.81-4.56,9.48a36.749,36.749,0,0,0,7.031,21.481,2.459,2.459,0,0,0,3.277.859,2.418,2.418,0,0,0,.859-3.277" transform="translate(21.985 228.161)" fill="#1c1d1c"/>
        <path id="Trazado_2758" data-name="Trazado 2758" d="M25.31,152.708a55.983,55.983,0,0,0-2.039-8.548c-.708-2.465-1.443-5.178-.862-7.747a8.725,8.725,0,0,1,10.339-6.672c3.007.657,4.291-3.962,1.275-4.619a13.6,13.6,0,0,0-15.708,8.317c-2.606,6.621,1.4,12.788,2.2,19.269a2.469,2.469,0,0,0,2.4,2.4,2.41,2.41,0,0,0,2.4-2.4" transform="translate(31.541 225.627)" fill="#1c1d1c"/>
        <path id="Trazado_2759" data-name="Trazado 2759" d="M23.331,156.054A33.384,33.384,0,0,1,17,138.826c-.138-2.215-.236-5.349,1.707-6.894,2.376-1.887,5.947-.7,8.52.017,2.974.834,4.243-3.788,1.272-4.622-3.833-1.073-8.129-1.971-11.78.183-3.344,1.971-4.5,5.81-4.56,9.48a36.749,36.749,0,0,0,7.031,21.481,2.459,2.459,0,0,0,3.277.859,2.418,2.418,0,0,0,.859-3.277" transform="translate(21.985 228.161)" fill="#1c1d1c"/>
        <path id="Trazado_2760" data-name="Trazado 2760" d="M25.31,152.708a55.983,55.983,0,0,0-2.039-8.548c-.708-2.465-1.443-5.178-.862-7.747a8.725,8.725,0,0,1,10.339-6.672c3.007.657,4.291-3.962,1.275-4.619a13.6,13.6,0,0,0-15.708,8.317c-2.606,6.621,1.4,12.788,2.2,19.269a2.469,2.469,0,0,0,2.4,2.4,2.41,2.41,0,0,0,2.4-2.4" transform="translate(31.541 225.627)" fill="#1c1d1c"/>
        <path id="Trazado_2761" data-name="Trazado 2761" d="M134.925,86.452a1.428,1.428,0,0,1-.969-.376C119.521,72.912,91.438,74.521,91.16,74.54l-4.83.3,3.878-2.892c.23-.168,23.233-16.91,50.044-1.213a1.438,1.438,0,1,1-1.452,2.482c-18.606-10.9-34.878-5.445-42.426-1.615a96.374,96.374,0,0,1,11.176.882c8.486,1.179,20.3,4.125,28.344,11.465a1.438,1.438,0,0,1-.969,2.5" transform="translate(156.086 115.764)" fill="#e4473a"/>
        <path id="Trazado_2762" data-name="Trazado 2762" d="M108.652,56.616c-.239-.286-.781-.163-.733.261a49.428,49.428,0,0,1,.59,6.242A15.58,15.58,0,0,1,98.091,77.687a.8.8,0,0,0,.539,1.5,16.175,16.175,0,0,0,10.626-8.955,15.876,15.876,0,0,0,1.474-6.874,10.844,10.844,0,0,0-2.078-6.745" transform="translate(176.42 102.082)" fill="#e4473a"/>
        <path id="Trazado_2763" data-name="Trazado 2763" d="M114.809,59.724a.826.826,0,0,0-1.3-.056,6.063,6.063,0,0,0-.66,2.392,16.851,16.851,0,0,1-.677,2.387,14.421,14.421,0,0,1-2.62,4.529,14.966,14.966,0,0,1-4.406,3.488,17.836,17.836,0,0,1-2.62,1.064,13.43,13.43,0,0,0-2.7.87.44.44,0,0,0,.065.755,5.481,5.481,0,0,0,2.979-.02,13.436,13.436,0,0,0,3-.952,15.49,15.49,0,0,0,5.237-3.723,16.068,16.068,0,0,0,3.058-4.917,14.286,14.286,0,0,0,.809-2.943,4.429,4.429,0,0,0-.16-2.875" transform="translate(180.15 107.356)" fill="#e4473a"/>
        <path id="Trazado_2764" data-name="Trazado 2764" d="M117.319,63.236c-1.351.219-2.4,1.3-3.5,2.058a19.008,19.008,0,0,1-3.662,2.025,25.07,25.07,0,0,1-8.371,1.606c-.75.034-.727,1.067-.07,1.244a15.17,15.17,0,0,0,9.213-.688,18.782,18.782,0,0,0,4.145-2.162c1.146-.809,2.662-2,2.78-3.485.025-.295-.18-.654-.534-.6" transform="translate(183.012 114.32)" fill="#e4473a"/>
        <path id="Trazado_2765" data-name="Trazado 2765" d="M87.5,66.179a1.438,1.438,0,0,1-1.1-2.364c.236-.281,23.947-27.729,51.462-4.726a1.438,1.438,0,0,1-1.845,2.207c-10.606-8.868-21.762-10.864-33.163-5.931A43.3,43.3,0,0,0,88.6,65.671a1.436,1.436,0,0,1-1.1.508" transform="translate(155.605 90.238)" fill="#e4473a"/>
        <path id="Trazado_2766" data-name="Trazado 2766" d="M93.3,77.146,88.728,75.58c-.2-.067-19.956-6.708-32.784-.166a1.437,1.437,0,1,1-1.306-2.561c9.713-4.953,22.5-3.137,29.639-1.483a31.8,31.8,0,0,0-29.352-6.136,1.438,1.438,0,1,1-.744-2.777C76.8,56.392,90.194,73.167,90.329,73.336Z" transform="translate(96.033 110.535)" fill="#e4473a"/>
        <path id="Trazado_2767" data-name="Trazado 2767" d="M58.181,55.312c.2-.168.564-.008.475.281a34.374,34.374,0,0,0-1.244,4.257A11.025,11.025,0,0,0,62.7,71.363a.564.564,0,0,1-.573.972,11.445,11.445,0,0,1-6.186-7.641,11.221,11.221,0,0,1-.107-4.973,7.672,7.672,0,0,1,2.345-4.409" transform="translate(100.539 99.881)" fill="#e4473a"/>
        <path id="Trazado_2768" data-name="Trazado 2768" d="M54,56.977a.581.581,0,0,1,.91.135,4.248,4.248,0,0,1,.14,1.749A11.405,11.405,0,0,0,55.2,60.61a10.256,10.256,0,0,0,1.213,3.5,10.71,10.71,0,0,0,2.595,3.01,12.6,12.6,0,0,0,1.679,1.087,9.634,9.634,0,0,1,1.761.969.31.31,0,0,1-.143.514,3.873,3.873,0,0,1-2.07-.41,9.612,9.612,0,0,1-1.954-1.061,10.916,10.916,0,0,1-3.139-3.285A11.394,11.394,0,0,1,53.671,61.1a10.231,10.231,0,0,1-.166-2.151A3.127,3.127,0,0,1,54,56.977" transform="translate(96.731 102.72)" fill="#e4473a"/>
        <path id="Trazado_2769" data-name="Trazado 2769" d="M52.151,59.221a6.742,6.742,0,0,1,2.157,1.9,13.5,13.5,0,0,0,2.274,1.9,17.784,17.784,0,0,0,5.6,2.235c.519.121.365.837-.118.873a10.741,10.741,0,0,1-6.31-1.71,13.323,13.323,0,0,1-2.586-2.055c-.691-.716-1.587-1.741-1.471-2.794.028-.208.213-.43.455-.343" transform="translate(93.45 107.036)" fill="#e4473a"/>
        <path id="Trazado_2770" data-name="Trazado 2770" d="M95.954,68.2a1.434,1.434,0,0,1-1.294-.812C89.7,57.138,82,51.873,71.774,51.739a35.227,35.227,0,0,0-14.093,2.9,1.438,1.438,0,0,1-1.241-2.595c.278-.132,27.763-12.88,40.809,14.093A1.437,1.437,0,0,1,95.954,68.2" transform="translate(100.565 88.449)" fill="#e4473a"/>
        <g id="Grupo_2916" data-name="Grupo 2916" transform="translate(122.33 64.233)" opacity="0.57">
          <g id="Grupo_2915" data-name="Grupo 2915">
            <g id="Grupo_2914" data-name="Grupo 2914" clip-path="url(#clip-path-13)">
              <path id="Trazado_2771" data-name="Trazado 2771" d="M200.943,35.143c-.432-.247-.873-.48-1.311-.719a.7.7,0,0,0-.576-.71l-.649-.126a.663.663,0,0,0-.317-.691c-.8-.491-1.626-.941-2.471-1.365a2.6,2.6,0,0,0-.663-.376c-.171-.067-.348-.115-.519-.177-1.935-.893-3.94-1.665-5.919-2.362a88.312,88.312,0,0,0-10.176-2.743,2.15,2.15,0,0,0-1.306-.371c-.124,0-.247.014-.371.017A125.756,125.756,0,0,0,157.2,22.993a105.775,105.775,0,0,0-41.89,6.593A107.25,107.25,0,0,0,80.35,50.935a108.376,108.376,0,0,0-23.731,31,131.828,131.828,0,0,0-8.834,22.237,1.739,1.739,0,0,0-.076.194c-.028.112-.053.225-.079.337Q46.174,109.794,45.222,115q-.771,3.386-1.539,6.776a2.761,2.761,0,0,0,1.811,3.134c5.206.2,10.412.053,15.618.281s10.4.685,15.562,1.365a2.444,2.444,0,0,0,2.35-1.792A133.946,133.946,0,0,1,107.692,73.84a131.708,131.708,0,0,1,43.653-32.362,134.239,134.239,0,0,1,29.866-4.468c3.128-.132,6.256-.258,9.384-.2a63.528,63.528,0,0,1,9.424.528c1.269.213,2.182-1.471.924-2.19" transform="translate(-43.564 -22.875)" fill="#fff"/>
            </g>
          </g>
        </g>
        <path id="Trazado_2772" data-name="Trazado 2772" d="M112.871,58.824l.008-.02v.02Z" transform="translate(204.072 106.319)" fill="#fff"/>
        <path id="Trazado_2773" data-name="Trazado 2773" d="M122.791,58.824h-.008V58.8Z" transform="translate(221.992 106.319)" fill="#fff"/>
        <path id="Trazado_2774" data-name="Trazado 2774" d="M125.819,47.945c.89,1.438,1.738,2.791,2.569,4.156,2.154,3.53,4.319,7.048,6.439,10.6a10.307,10.307,0,0,1-.6,11.53A10.494,10.494,0,0,1,115.4,69.376a9.789,9.789,0,0,1,1.255-6.478q4.477-7.312,8.938-14.633c.045-.073.1-.14.23-.32m-.281,27.665a1.5,1.5,0,0,0,1.707-1.429,1.48,1.48,0,0,0-1.606-1.463,4.151,4.151,0,0,1-.59-.056,4.8,4.8,0,0,1-4.015-4.695,1.429,1.429,0,0,0-1.474-1.452,1.47,1.47,0,0,0-1.407,1.53,7.736,7.736,0,0,0,.1.98,7.653,7.653,0,0,0,7.281,6.585" transform="translate(208.466 86.685)" fill="#5dc5e0"/>
        <path id="Trazado_2775" data-name="Trazado 2775" d="M123.7,63.654a7.653,7.653,0,0,1-7.281-6.585,7.738,7.738,0,0,1-.1-.98,1.47,1.47,0,0,1,1.407-1.53A1.429,1.429,0,0,1,119.2,56.01a4.8,4.8,0,0,0,4.015,4.695,4.151,4.151,0,0,0,.59.056,1.48,1.48,0,0,1,1.606,1.463,1.5,1.5,0,0,1-1.707,1.429" transform="translate(210.302 98.641)" fill="#fdfeff"/>
        <path id="Trazado_2776" data-name="Trazado 2776" d="M129.459,57.6c.7,1.126,1.359,2.185,2.011,3.249,1.682,2.76,3.375,5.509,5.032,8.284a8.058,8.058,0,0,1-.472,9.014,8.2,8.2,0,0,1-14.717-3.791,7.655,7.655,0,0,1,.98-5.066q3.5-5.716,6.986-11.437c.036-.059.079-.112.18-.253M129.24,79.23a1.168,1.168,0,0,0,1.334-1.118,1.155,1.155,0,0,0-1.255-1.143,3.6,3.6,0,0,1-.46-.042,3.76,3.76,0,0,1-3.139-3.673,1.116,1.116,0,0,0-1.154-1.134,1.149,1.149,0,0,0-1.1,1.2,5.919,5.919,0,0,0,.081.767,5.984,5.984,0,0,0,5.692,5.147" transform="translate(219.201 104.147)" fill="#5dc5e0"/>
        <path id="Trazado_2777" data-name="Trazado 2777" d="M127.805,69.883a5.984,5.984,0,0,1-5.692-5.147,5.92,5.92,0,0,1-.081-.767,1.149,1.149,0,0,1,1.1-1.2,1.116,1.116,0,0,1,1.154,1.134,3.76,3.76,0,0,0,3.139,3.673,3.6,3.6,0,0,0,.46.042,1.155,1.155,0,0,1,1.255,1.143,1.168,1.168,0,0,1-1.334,1.118" transform="translate(220.635 113.494)" fill="#fdfeff"/>
      </g>
    </g>
  </g>
</svg>
