<svg xmlns="http://www.w3.org/2000/svg" xmlns:xlink="http://www.w3.org/1999/xlink" width="351" height="129" viewBox="0 0 351 129"><defs><filter id="a" x="0" y="0" width="351" height="129" filterUnits="userSpaceOnUse"><feOffset dy="3" input="SourceAlpha"/><feGaussianBlur stdDeviation="3" result="b"/><feFlood flood-opacity="0.161"/><feComposite operator="in" in2="b"/><feComposite in="SourceGraphic"/></filter></defs><g transform="translate(8.664 6)"><g transform="matrix(1, 0, 0, 1, -8.66, -6)" filter="url(#a)"><rect width="333" height="111" rx="20" transform="translate(9 6)" fill="#f2f5f4"/></g><path d="M13.11,0h2.484a.6.6,0,0,0,.575-.828L10.925-15.433a1.026,1.026,0,0,0-.966-.667h-3.2a1.026,1.026,0,0,0-.966.667L.529-.828A.62.62,0,0,0,1.1,0H3.611A1.044,1.044,0,0,0,4.6-.713l.713-2.3h6.1l.713,2.3A1.044,1.044,0,0,0,13.11,0ZM6.256-5.98,8.349-12.7,10.465-5.98Zm19.757-5.681a.82.82,0,0,0-.805.828v5.451a1.81,1.81,0,0,1-1.863,2.024,1.81,1.81,0,0,1-1.863-2.024v-5.451a.825.825,0,0,0-.828-.828H18.561a.825.825,0,0,0-.828.828V-4.37C17.733-2,19.113.276,22.011.276a4.043,4.043,0,0,0,3.2-1.334v.437a.614.614,0,0,0,.6.621h2.3a.825.825,0,0,0,.828-.828V-10.833a.825.825,0,0,0-.828-.828Zm18.7-.276a4.018,4.018,0,0,0-3.335,1.564,3.623,3.623,0,0,0-3.289-1.564,3.7,3.7,0,0,0-2.9,1.173v-.276a.614.614,0,0,0-.6-.621h-2.3a.825.825,0,0,0-.828.828V-.828A.825.825,0,0,0,32.292,0h2.093a.82.82,0,0,0,.805-.828V-6.693A1.471,1.471,0,0,1,36.754-8.28a1.448,1.448,0,0,1,1.564,1.587V-.828A.82.82,0,0,0,39.123,0h2.093a.825.825,0,0,0,.828-.828V-6.693A1.46,1.46,0,0,1,43.608-8.28a1.442,1.442,0,0,1,1.541,1.587V-.828A.825.825,0,0,0,45.977,0H48.07A.825.825,0,0,0,48.9-.828V-7.705A3.886,3.886,0,0,0,44.712-11.937Zm12.029,0a6,6,0,0,0-6,6.118c0,3.611,2.6,6.1,6.555,6.1A6.055,6.055,0,0,0,61.87-1.587a.65.65,0,0,0-.161-.943L60.076-3.5a.59.59,0,0,0-.713.069,3.218,3.218,0,0,1-2.07.713,2.78,2.78,0,0,1-2.944-1.978h7.659a.82.82,0,0,0,.805-.828C62.882-9.867,60.007-11.937,56.741-11.937ZM54.372-6.946a2.517,2.517,0,0,1,2.507-2,2.363,2.363,0,0,1,2.53,2Zm17.25-4.991A3.957,3.957,0,0,0,68.448-10.6v-.437a.618.618,0,0,0-.621-.621h-2.3a.825.825,0,0,0-.828.828V-.828A.825.825,0,0,0,65.527,0H67.62a.825.825,0,0,0,.828-.828V-6.279a1.78,1.78,0,0,1,1.863-2,1.791,1.791,0,0,1,1.863,2V-.828A.82.82,0,0,0,72.979,0H75.1A.82.82,0,0,0,75.9-.828V-7.291C75.9-9.637,74.543-11.937,71.622-11.937Zm13.363,2.53v-1.426a.825.825,0,0,0-.828-.828H82.685v-1.633a.815.815,0,0,0-.805-.805H79.764a.815.815,0,0,0-.805.805v1.633h-.828a.825.825,0,0,0-.828.828v1.426a.825.825,0,0,0,.828.828h.828v4.048c0,2.3.828,4.738,4.416,4.738a6.843,6.843,0,0,0,1.1-.092.6.6,0,0,0,.506-.6V-2.461a.586.586,0,0,0-.621-.6h-.069c-1.173,0-1.61-.621-1.61-1.84v-3.68h1.472A.825.825,0,0,0,84.985-9.407Zm7.751-2.53A6.022,6.022,0,0,0,86.48-5.819,6.035,6.035,0,0,0,92.736.3a6.022,6.022,0,0,0,6.256-6.118A6.008,6.008,0,0,0,92.736-11.937Zm0,8.6a2.417,2.417,0,0,1-2.484-2.484,2.436,2.436,0,0,1,2.484-2.507,2.441,2.441,0,0,1,2.507,2.507A2.423,2.423,0,0,1,92.736-3.335Zm22.241-11.937v4.761a3.913,3.913,0,0,0-3.289-1.426c-3.611,0-5.589,3.059-5.589,6.118,0,3.036,1.978,6.1,5.589,6.1a3.913,3.913,0,0,0,3.289-1.426v.529A.618.618,0,0,0,115.6,0h2.3a.825.825,0,0,0,.828-.828V-15.272a.825.825,0,0,0-.828-.828h-2.093A.825.825,0,0,0,114.977-15.272Zm-2.6,11.937a2.36,2.36,0,0,1-2.507-2.484,2.366,2.366,0,0,1,2.507-2.507,2.372,2.372,0,0,1,2.484,2.507A2.366,2.366,0,0,1,112.378-3.335Zm14.191-8.6a6,6,0,0,0-6,6.118c0,3.611,2.6,6.1,6.555,6.1A6.055,6.055,0,0,0,131.7-1.587a.65.65,0,0,0-.161-.943L129.9-3.5a.59.59,0,0,0-.713.069,3.218,3.218,0,0,1-2.07.713,2.78,2.78,0,0,1-2.944-1.978h7.659a.82.82,0,0,0,.805-.828C132.71-9.867,129.835-11.937,126.569-11.937ZM124.2-6.946a2.517,2.517,0,0,1,2.507-2,2.363,2.363,0,0,1,2.53,2Zm16.307-8.326V-.828a.82.82,0,0,0,.805.828h2.116a.82.82,0,0,0,.8-.828V-15.272a.82.82,0,0,0-.8-.828h-2.116A.82.82,0,0,0,140.507-15.272Zm14.467,4.232v.529a3.976,3.976,0,0,0-3.289-1.426c-3.634,0-5.589,3.059-5.589,6.118,0,3.036,1.955,6.1,5.589,6.1a3.976,3.976,0,0,0,3.289-1.426v.529A.618.618,0,0,0,155.6,0h2.3a.825.825,0,0,0,.828-.828V-10.833a.825.825,0,0,0-.828-.828h-2.3A.618.618,0,0,0,154.974-11.04Zm-2.622,7.705a2.354,2.354,0,0,1-2.484-2.484,2.36,2.36,0,0,1,2.484-2.507,2.39,2.39,0,0,1,2.507,2.507A2.384,2.384,0,0,1,152.352-3.335Zm20.125-3.887c-.92-.184-2.162-.23-2.162-.989,0-.667.667-.874,1.4-.874a1.429,1.429,0,0,1,1.2.506.608.608,0,0,0,.621.253l1.978-.483a.642.642,0,0,0,.414-.874,4.559,4.559,0,0,0-4.232-2.254c-2.921,0-4.991,1.38-4.991,3.818,0,2.3,1.2,3.105,3.45,3.588,1.357.3,2.576.276,2.576,1.058,0,.621-.621.851-1.4.851a1.684,1.684,0,0,1-1.449-.575.661.661,0,0,0-.69-.23l-2.277.713a.6.6,0,0,0-.368.851C167.3-.3,169.3.276,171.373.276c3.427,0,5.221-1.449,5.221-3.91C176.594-5.773,175.421-6.6,172.477-7.222Zm11.178-4.715a6,6,0,0,0-6,6.118c0,3.611,2.6,6.1,6.555,6.1a6.055,6.055,0,0,0,4.577-1.863.65.65,0,0,0-.161-.943L186.99-3.5a.59.59,0,0,0-.713.069,3.217,3.217,0,0,1-2.07.713,2.78,2.78,0,0,1-2.944-1.978h7.659a.82.82,0,0,0,.8-.828C189.8-9.867,186.921-11.937,183.655-11.937Zm-2.369,4.991a2.517,2.517,0,0,1,2.507-2,2.363,2.363,0,0,1,2.53,2Zm18.492-8.326v4.761a3.913,3.913,0,0,0-3.289-1.426c-3.611,0-5.589,3.059-5.589,6.118,0,3.036,1.978,6.1,5.589,6.1a3.913,3.913,0,0,0,3.289-1.426v.529A.618.618,0,0,0,200.4,0h2.3a.825.825,0,0,0,.828-.828V-15.272a.825.825,0,0,0-.828-.828h-2.093A.825.825,0,0,0,199.778-15.272Zm-2.6,11.937a2.36,2.36,0,0,1-2.507-2.484,2.366,2.366,0,0,1,2.507-2.507,2.372,2.372,0,0,1,2.484,2.507A2.366,2.366,0,0,1,197.179-3.335Z" transform="translate(101.002 65.297)" fill="#0b2c50"/><g transform="translate(20.23 22.095)"><circle cx="33.651" cy="33.651" r="33.651" fill="#3fa3a7"/><g transform="translate(19.326 12.919)"><path d="M1369.948,450a1.113,1.113,0,0,1-1.018-1.266c.016-1.091,0-2.183.006-3.275,0-.847.332-1.178,1.17-1.18q3.482,0,6.964,0c.832,0,1.145.316,1.147,1.141,0,1.092-.021,2.184.009,3.275.018.65-.156,1.123-.828,1.266a1.069,1.069,0,0,0,.4,1.184,10.216,10.216,0,0,1,3.258,5.945,15.373,15.373,0,0,1,.29,2.926q.036,10.679.011,21.358a4.121,4.121,0,0,1-3.939,4.324,5.225,5.225,0,0,1-1.54-.207,10.984,10.984,0,0,0-5.2.134,4.123,4.123,0,0,1-4.826-3.55,7.962,7.962,0,0,1-.052-.92q0-10.449,0-20.9a12.623,12.623,0,0,1,1.935-7.184c.511-.77,1.242-1.391,1.828-2.116A3.765,3.765,0,0,0,1369.948,450Zm9.555,12.681c0-1.235.052-2.447-.013-3.653a10.605,10.605,0,0,0-1.177-4.316.64.64,0,0,0-.663-.413q-4.078.025-8.155,0a.583.583,0,0,0-.608.353,11.627,11.627,0,0,0-1.255,5.46c0,.855,0,1.71,0,2.566Zm-.015,12.929V464.568h-11.821v11.038Zm-11.826,1.865c0,1.464-.025,2.89.008,4.314a2.264,2.264,0,0,0,2.787,2.015,12.385,12.385,0,0,1,6.24,0,2.323,2.323,0,0,0,2.831-2.276c-.032-1.244-.006-2.49-.008-3.735a2.98,2.98,0,0,0-.034-.318Zm8.7-31.328H1370.8V448.1h5.558Zm-4.705,3.826c.005.945.223,1.958-.895,2.466h5.655c-1.184-.5-.844-1.562-.906-2.466Z" transform="translate(-1365.795 -444.273)" fill="#fff"/><path d="M1512.313,620.023q2.929,0,5.858,0c.809,0,1.139.369,1.067,1.187q-.556,6.266-1.115,12.532c-.152,1.714-.3,3.428-.46,5.141a.913.913,0,0,1-1.025.941q-4.336.012-8.672,0a.917.917,0,0,1-1.016-.952q-.42-4.659-.831-9.318c-.248-2.785-.5-5.57-.74-8.355-.071-.825.261-1.175,1.076-1.176Q1509.384,620.021,1512.313,620.023Zm3.6,17.948c.339-3.805.676-7.589,1.015-11.394h-9.245l1.016,11.394Zm1.18-13.283c.084-.95.164-1.863.246-2.793h-10.07c.085.952.167,1.864.251,2.793Z" transform="translate(-1488.171 -598.367)" fill="#fff"/><g transform="translate(5.929 23.381)"><path d="M1415.812,634.046l-.159-.025c-.543,1.107-1.1,2.209-1.624,3.323a1.412,1.412,0,0,0,.1,1.284,1.859,1.859,0,0,0,2.228.912,1.778,1.778,0,0,0,1.257-1.869A13.558,13.558,0,0,0,1415.812,634.046Z" transform="translate(-1413.915 -634.021)" fill="#fff"/></g></g></g></g></svg>