<?xml version="1.0" encoding="utf-8"?>
<!-- Generator: Adobe Illustrator 26.3.1, SVG Export Plug-In . SVG Version: 6.00 Build 0)  -->
<svg version="1.1" id="Capa_1" xmlns="http://www.w3.org/2000/svg" xmlns:xlink="http://www.w3.org/1999/xlink" x="0px" y="0px"
	 viewBox="0 0 23 384" style="enable-background:new 0 0 23 384;" xml:space="preserve">
<style type="text/css">
	.st0{fill:#FFFFFF;}
	.st1{enable-background:new    ;}
</style>
<g id="Grupo_3021" transform="translate(-184 -486.5)">
	<path id="Línea_5" class="st0" d="M194.5,870.5h-1v-269h1V870.5z"/>
	<g class="st1">
		<path class="st0" d="M198.3,573.1c2.1,0,3.9,1.8,3.9,4.9c0,2.1-0.7,4.1-2.6,4.9c-0.3,0.1-0.7-0.1-0.9-0.4l-0.5-1.6
			c-0.1-0.3,0-0.6,0.3-0.8c0.5-0.3,1-1,1-2c0-1.1-0.4-1.8-1.2-1.8c-1,0-1.1,1.2-1.4,2.6c-0.6,2.5-1.8,3.7-3.9,3.7
			c-2.4,0-3.9-2-3.9-4.6c0-1.9,0.9-3.5,2.4-4.2c0.4-0.2,0.8,0,0.9,0.4l0.4,1.6c0.1,0.3-0.1,0.6-0.3,0.7c-0.5,0.3-0.8,0.8-0.8,1.6
			c0,0.9,0.5,1.5,1.2,1.5c1,0,1.2-1.5,1.5-2.5C195.4,574,196.3,573.1,198.3,573.1z"/>
		<path class="st0" d="M185.5,567.1v-1.8c0-0.3,0.3-0.4,0.5-0.3l1.7,1.2c0.2,0.1,0.3,0.4,0.3,0.6v1.4c0,0.2-0.3,0.4-0.5,0.3
			l-1.6-0.7C185.7,567.7,185.5,567.4,185.5,567.1z M189.4,568.4v-1.8c0-0.4,0.3-0.6,0.6-0.6h11.3c0.4,0,0.6,0.3,0.6,0.6v1.8
			c0,0.4-0.3,0.6-0.6,0.6H190C189.7,569,189.4,568.7,189.4,568.4z"/>
		<path class="st0" d="M194.7,554.5v-4.7c0-0.3,0.3-0.6,0.6-0.6h6.1c0.3,0,0.6,0.3,0.6,0.6v0.5c0,0.3-0.2,0.5-0.4,0.5l-1.2,0.3
			c1.1,0.9,1.8,2.2,1.8,4.1c0,3.7-2.8,6.4-6.5,6.4c-3.7,0-6.5-2.7-6.5-6.4c0-1.9,0.7-3.5,1.9-4.6c0.3-0.3,0.8-0.2,1,0.1l1,1.5
			c0.2,0.3,0.1,0.6-0.1,0.8c-0.5,0.5-0.8,1.3-0.8,2.2c0,2.2,1.8,3.3,3.6,3.3s3.6-1.1,3.6-3.3c0-1.7-0.9-2.7-2.1-3.1v2.5
			c0,0.3-0.3,0.6-0.6,0.6h-1.2C195,555.2,194.7,554.9,194.7,554.5z"/>
		<path class="st0" d="M201.4,536.2l-1.8,0.6v4.8l1.8,0.6c0.3,0.1,0.6,0.4,0.6,0.8v2c0,0.3-0.3,0.6-0.6,0.5l-11.4-4.1
			c-0.3-0.1-0.5-0.4-0.5-0.8v-2.5c0-0.3,0.2-0.6,0.5-0.8l11.4-4.1c0.3-0.1,0.6,0.1,0.6,0.5v1.9C202,535.8,201.8,536.1,201.4,536.2z
			 M197.3,537.5l-5.3,1.7l5.3,1.6V537.5z"/>
		<path class="st0" d="M189.4,520.6v-1.8c0-0.3,0.3-0.6,0.6-0.6h11.3c0.4,0,0.6,0.3,0.6,0.6v1.5c0,0.3-0.2,0.6-0.4,0.8l-6.9,4.6h6.7
			c0.4,0,0.6,0.3,0.6,0.6v1.8c0,0.4-0.3,0.6-0.6,0.6H190c-0.4,0-0.6-0.3-0.6-0.6v-1.5c0-0.3,0.2-0.6,0.4-0.8l6.9-4.6H190
			C189.7,521.2,189.4,520.9,189.4,520.6z"/>
		<path class="st0" d="M195.7,500.9c3.7,0,6.5,2.7,6.5,6.4s-2.8,6.4-6.5,6.4c-3.7,0-6.5-2.7-6.5-6.4S192,500.9,195.7,500.9z
			 M195.7,504c-1.8,0-3.5,1.1-3.5,3.3s1.8,3.3,3.5,3.3s3.6-1.1,3.6-3.3S197.5,504,195.7,504z"/>
		<path class="st0" d="M198.3,487.6c2.1,0,3.9,1.8,3.9,4.9c0,2.1-0.7,4.1-2.6,4.9c-0.3,0.1-0.7-0.1-0.9-0.4l-0.5-1.6
			c-0.1-0.3,0-0.6,0.3-0.8c0.5-0.3,1-1,1-2c0-1.1-0.4-1.8-1.2-1.8c-1,0-1.1,1.2-1.4,2.6c-0.6,2.5-1.8,3.7-3.9,3.7
			c-2.4,0-3.9-2-3.9-4.6c0-1.9,0.9-3.5,2.4-4.2c0.4-0.2,0.8,0,0.9,0.4l0.4,1.6c0.1,0.3-0.1,0.6-0.3,0.7c-0.5,0.3-0.8,0.8-0.8,1.6
			c0,0.9,0.5,1.5,1.2,1.5c1,0,1.2-1.5,1.5-2.5C195.4,488.5,196.3,487.6,198.3,487.6z"/>
	</g>
</g>
</svg>
