<svg xmlns="http://www.w3.org/2000/svg" width="546.512" height="23.4" viewBox="0 0 546.512 23.4">
  <path id="Trazado_13683" data-name="Trazado 13683" d="M-268.35-17.35l-4.625,3.125a.439.439,0,0,0-.15.6l.25.375a.441.441,0,0,0,.625.125l3.9-2.625V-.45a.448.448,0,0,0,.45.45h.45A.448.448,0,0,0-267-.45v-16.6a.448.448,0,0,0-.45-.45h-.4A.9.9,0,0,0-268.35-17.35Zm17.775,11.875h-2.05V-17.05a.448.448,0,0,0-.45-.45h-.825a1.1,1.1,0,0,0-.925.475l-7.575,11.2a1.415,1.415,0,0,0-.25.75V-4.6a.448.448,0,0,0,.45.45h8.225v3.7a.448.448,0,0,0,.45.45h.45a.448.448,0,0,0,.45-.45v-3.7h2.05a.448.448,0,0,0,.45-.45v-.425A.448.448,0,0,0-250.575-5.475Zm-10.525,0,7.125-10.55v10.55ZM-234.525-17.5H-239.3a.448.448,0,0,0-.45.45V-.45a.448.448,0,0,0,.45.45h4.775A8.442,8.442,0,0,0-225.9-8.75,8.442,8.442,0,0,0-234.525-17.5Zm0,16.175h-3.9v-14.85h3.9a7.126,7.126,0,0,1,7.3,7.425A7.126,7.126,0,0,1-234.525-1.325Zm13.2,0V-8.4h7.075a.448.448,0,0,0,.45-.45v-.425a.448.448,0,0,0-.45-.45h-7.075v-6.45h7.65a.444.444,0,0,0,.45-.425v-.45a.448.448,0,0,0-.45-.45H-222.2a.448.448,0,0,0-.45.45V-.45a.448.448,0,0,0,.45.45h8.775A.444.444,0,0,0-213-.45V-.9a.421.421,0,0,0-.425-.425Zm30.55-15.725V-2.275l-10.45-14.95a.664.664,0,0,0-.55-.275h-.525a.448.448,0,0,0-.45.45V-.45a.448.448,0,0,0,.45.45h.45a.444.444,0,0,0,.425-.45V-15.225l10.45,14.95a.664.664,0,0,0,.55.275h.525a.448.448,0,0,0,.45-.45v-16.6a.448.448,0,0,0-.45-.45h-.425A.448.448,0,0,0-190.775-17.05Zm13.4-.75A8.858,8.858,0,0,0-186.2-8.75,8.88,8.88,0,0,0-177.375.325a8.9,8.9,0,0,0,8.85-9.075A8.879,8.879,0,0,0-177.375-17.8Zm0,16.775a7.541,7.541,0,0,1-7.5-7.725,7.557,7.557,0,0,1,7.5-7.725A7.562,7.562,0,0,1-169.85-8.75,7.546,7.546,0,0,1-177.375-1.025Zm23-16.05-5.65,15.15-5.65-15.15a.681.681,0,0,0-.625-.425h-.475a.344.344,0,0,0-.325.45l6.2,16.625a.681.681,0,0,0,.625.425h.5a.681.681,0,0,0,.625-.425l6.2-16.625a.344.344,0,0,0-.325-.45h-.475A.681.681,0,0,0-154.375-17.075Zm4.325.025V-.45a.448.448,0,0,0,.45.45h.45a.448.448,0,0,0,.45-.45v-16.6a.448.448,0,0,0-.45-.45h-.45A.448.448,0,0,0-150.05-17.05Zm6.675,15.725V-8.4h7.075a.448.448,0,0,0,.45-.45v-.425a.448.448,0,0,0-.45-.45h-7.075v-6.45h7.65a.444.444,0,0,0,.45-.425v-.45a.448.448,0,0,0-.45-.45h-8.525a.448.448,0,0,0-.45.45V-.45a.448.448,0,0,0,.45.45h8.775a.444.444,0,0,0,.425-.45V-.9a.421.421,0,0,0-.425-.425ZM-115.85-17.2l-7.2,10.65-7.225-10.65a.627.627,0,0,0-.55-.3h-.525a.448.448,0,0,0-.45.45V-.45a.448.448,0,0,0,.45.45h.425a.448.448,0,0,0,.45-.45V-15L-123.5-4.65a.441.441,0,0,0,.375.2h.15a.4.4,0,0,0,.35-.2L-115.65-15V-.45a.448.448,0,0,0,.45.45h.45a.428.428,0,0,0,.425-.45v-16.6a.428.428,0,0,0-.425-.45h-.55A.627.627,0,0,0-115.85-17.2Zm13.7,7.975V-9.3a3.824,3.824,0,0,0,2.6-3.675c0-2.625-2-4.525-5.2-4.525h-5.15a.428.428,0,0,0-.425.45V-.45A.428.428,0,0,0-109.9,0h5.525c3.2,0,5.725-1.65,5.725-4.875A4.3,4.3,0,0,0-102.15-9.225Zm-2.6-6.95c2.475,0,3.875,1.325,3.875,3.2,0,1.9-1.4,3.25-3.875,3.25H-109v-6.45Zm.375,14.85H-109v-7.1h4.625c2.475,0,4.375,1.075,4.375,3.55C-100-2.375-101.9-1.325-104.375-1.325ZM-83.95-.5l-4.4-7.125a4.694,4.694,0,0,0,3.725-4.8c0-3.2-2.325-5.075-6.125-5.075H-95.2a.448.448,0,0,0-.45.45V-.45A.448.448,0,0,0-95.2,0h.45a.448.448,0,0,0,.45-.45V-7.325h3.55c.35,0,.7-.025,1.025-.05l4.375,7.05A.661.661,0,0,0-84.775,0h.55A.319.319,0,0,0-83.95-.5ZM-94.3-8.675v-7.5h3.55c3.075,0,4.775,1.275,4.775,3.75,0,2.5-1.7,3.75-4.775,3.75Zm14.75,7.35V-8.4h7.075a.448.448,0,0,0,.45-.45v-.425a.448.448,0,0,0-.45-.45H-79.55v-6.45h7.65a.444.444,0,0,0,.45-.425v-.45a.448.448,0,0,0-.45-.45h-8.525a.448.448,0,0,0-.45.45V-.45a.448.448,0,0,0,.45.45h8.775a.444.444,0,0,0,.425-.45V-.9a.421.421,0,0,0-.425-.425ZM-55.75-17.5h-4.775a.448.448,0,0,0-.45.45V-.45a.448.448,0,0,0,.45.45h4.775a8.442,8.442,0,0,0,8.625-8.75A8.442,8.442,0,0,0-55.75-17.5Zm0,16.175h-3.9v-14.85h3.9a7.126,7.126,0,0,1,7.3,7.425A7.126,7.126,0,0,1-55.75-1.325ZM-43.875-17.05V-.45a.448.448,0,0,0,.45.45h.45a.448.448,0,0,0,.45-.45v-16.6a.448.448,0,0,0-.45-.45h-.45A.448.448,0,0,0-43.875-17.05Zm2.35-6.025a.625.625,0,0,0-.6.4L-43.35-20.1a.241.241,0,0,0,.2.325h.275a.431.431,0,0,0,.35-.2l1.775-2.575a.334.334,0,0,0-.275-.525ZM-26.25,0h.475a.334.334,0,0,0,.325-.45l-6.2-16.625a.681.681,0,0,0-.625-.425h-.5a.681.681,0,0,0-.625.425L-39.575-.45a.321.321,0,0,0,.3.45h.475a.633.633,0,0,0,.625-.425l1.675-4.5h7.95l1.675,4.5A.681.681,0,0,0-26.25,0ZM-36-6.25l3.475-9.35,3.5,9.35ZM.4-17.2-6.8-6.55-14.025-17.2a.627.627,0,0,0-.55-.3H-15.1a.448.448,0,0,0-.45.45V-.45A.448.448,0,0,0-15.1,0h.425a.448.448,0,0,0,.45-.45V-15L-7.25-4.65a.441.441,0,0,0,.375.2h.15a.4.4,0,0,0,.35-.2L.6-15V-.45A.448.448,0,0,0,1.05,0H1.5a.428.428,0,0,0,.425-.45v-16.6A.428.428,0,0,0,1.5-17.5H.95A.627.627,0,0,0,.4-17.2Zm17.05-.3a.448.448,0,0,0-.45.45V-6.525c0,3.375-1.8,5.5-4.875,5.5s-4.85-2.125-4.85-5.5V-17.05a.448.448,0,0,0-.45-.45h-.45a.448.448,0,0,0-.45.45V-6.525c0,4.1,2.4,6.825,6.2,6.825,3.825,0,6.2-2.725,6.2-6.825V-17.05a.444.444,0,0,0-.425-.45Zm16.85.45V-2.275L23.85-17.225a.664.664,0,0,0-.55-.275h-.525a.448.448,0,0,0-.45.45V-.45a.448.448,0,0,0,.45.45h.45a.444.444,0,0,0,.425-.45V-15.225L34.1-.275A.664.664,0,0,0,34.65,0h.525a.448.448,0,0,0,.45-.45v-16.6a.448.448,0,0,0-.45-.45H34.75A.448.448,0,0,0,34.3-17.05Zm10.55-.45H40.075a.448.448,0,0,0-.45.45V-.45a.448.448,0,0,0,.45.45H44.85a8.442,8.442,0,0,0,8.625-8.75A8.442,8.442,0,0,0,44.85-17.5Zm0,16.175h-3.9v-14.85h3.9a7.126,7.126,0,0,1,7.3,7.425A7.126,7.126,0,0,1,44.85-1.325ZM56.725-17.05V-.45a.448.448,0,0,0,.45.45h.45a.448.448,0,0,0,.45-.45v-16.6a.448.448,0,0,0-.45-.45h-.45A.448.448,0,0,0,56.725-17.05ZM74.35,0h.475a.334.334,0,0,0,.325-.45l-6.2-16.625a.681.681,0,0,0-.625-.425h-.5a.681.681,0,0,0-.625.425L61.025-.45a.321.321,0,0,0,.3.45H61.8a.633.633,0,0,0,.625-.425l1.675-4.5h7.95l1.675,4.5A.681.681,0,0,0,74.35,0ZM64.6-6.25l3.475-9.35,3.5,9.35ZM79.375-1.325V-17.05a.448.448,0,0,0-.45-.45H78.5a.448.448,0,0,0-.45.45V-.45A.448.448,0,0,0,78.5,0h8.575a.448.448,0,0,0,.45-.45V-.9a.428.428,0,0,0-.45-.425ZM103-17.5H98.225a.448.448,0,0,0-.45.45V-.45a.448.448,0,0,0,.45.45H103a8.442,8.442,0,0,0,8.625-8.75A8.442,8.442,0,0,0,103-17.5Zm0,16.175H99.1v-14.85H103a7.126,7.126,0,0,1,7.3,7.425A7.126,7.126,0,0,1,103-1.325Zm13.2,0V-8.4h7.075a.448.448,0,0,0,.45-.45v-.425a.448.448,0,0,0-.45-.45H116.2v-6.45h7.65a.444.444,0,0,0,.45-.425v-.45a.448.448,0,0,0-.45-.45h-8.525a.448.448,0,0,0-.45.45V-.45a.448.448,0,0,0,.45.45H124.1a.444.444,0,0,0,.425-.45V-.9a.421.421,0,0,0-.425-.425Zm19.9,0V-17.05a.448.448,0,0,0-.45-.45h-.425a.448.448,0,0,0-.45.45V-.45a.448.448,0,0,0,.45.45H143.8a.448.448,0,0,0,.45-.45V-.9a.428.428,0,0,0-.45-.425ZM159.775,0h.475a.334.334,0,0,0,.325-.45l-6.2-16.625a.681.681,0,0,0-.625-.425h-.5a.681.681,0,0,0-.625.425L146.45-.45a.321.321,0,0,0,.3.45h.475a.633.633,0,0,0,.625-.425l1.675-4.5h7.95l1.675,4.5A.681.681,0,0,0,159.775,0Zm-9.75-6.25L153.5-15.6,157-6.25ZM175.7-17.5h-4.775a.448.448,0,0,0-.45.45V-.45a.448.448,0,0,0,.45.45H175.7a8.442,8.442,0,0,0,8.625-8.75A8.442,8.442,0,0,0,175.7-17.5Zm0,16.175h-3.9v-14.85h3.9A7.126,7.126,0,0,1,183-8.75,7.126,7.126,0,0,1,175.7-1.325ZM187.575-17.05V-.45a.448.448,0,0,0,.45.45h.45a.448.448,0,0,0,.45-.45v-16.6a.448.448,0,0,0-.45-.45h-.45A.448.448,0,0,0,187.575-17.05ZM205.2,0h.475A.334.334,0,0,0,206-.45l-6.2-16.625a.681.681,0,0,0-.625-.425h-.5a.681.681,0,0,0-.625.425L191.875-.45a.321.321,0,0,0,.3.45h.475a.633.633,0,0,0,.625-.425l1.675-4.5h7.95l1.675,4.5A.681.681,0,0,0,205.2,0Zm-9.75-6.25,3.475-9.35,3.5,9.35Zm21.625-2.975V-9.3a3.824,3.824,0,0,0,2.6-3.675c0-2.625-2-4.525-5.2-4.525h-5.15a.428.428,0,0,0-.425.45V-.45a.428.428,0,0,0,.425.45h5.525c3.2,0,5.725-1.65,5.725-4.875A4.3,4.3,0,0,0,217.075-9.225Zm-2.6-6.95c2.475,0,3.875,1.325,3.875,3.2,0,1.9-1.4,3.25-3.875,3.25h-4.25v-6.45Zm.375,14.85h-4.625v-7.1h4.625c2.475,0,4.375,1.075,4.375,3.55C219.225-2.375,217.325-1.325,214.85-1.325Zm10.05,0V-8.4h7.075a.448.448,0,0,0,.45-.45v-.425a.448.448,0,0,0-.45-.45H224.9v-6.45h7.65A.444.444,0,0,0,233-16.6v-.45a.448.448,0,0,0-.45-.45h-8.525a.448.448,0,0,0-.45.45V-.45a.448.448,0,0,0,.45.45H232.8a.444.444,0,0,0,.425-.45V-.9a.421.421,0,0,0-.425-.425ZM246.2-17.5H236.175a.448.448,0,0,0-.45.45v.45a.444.444,0,0,0,.45.425H240.5V-.45a.448.448,0,0,0,.45.45h.45a.448.448,0,0,0,.45-.45V-16.175h4.35a.438.438,0,0,0,.425-.425v-.45A.444.444,0,0,0,246.2-17.5Zm5,16.175V-8.4h7.075a.448.448,0,0,0,.45-.45v-.425a.448.448,0,0,0-.45-.45H251.2v-6.45h7.65a.443.443,0,0,0,.45-.425v-.45a.448.448,0,0,0-.45-.45h-8.525a.448.448,0,0,0-.45.45V-.45a.448.448,0,0,0,.45.45H259.1a.443.443,0,0,0,.425-.45V-.9a.421.421,0,0,0-.425-.425Zm16.95-8.1c-2.65-.7-4.325-1.4-4.325-3.525A3.544,3.544,0,0,1,267.5-16.5a3.6,3.6,0,0,1,3.625,2.3.457.457,0,0,0,.525.275l.425-.125a.448.448,0,0,0,.3-.6,4.966,4.966,0,0,0-4.875-3.175,4.9,4.9,0,0,0-5.025,4.875c0,3.325,3,4.2,5.325,4.825,2.525.675,4.175,1.3,4.175,3.4,0,2.25-1.725,3.675-4.35,3.675A4.605,4.605,0,0,1,263.2-3.7a.435.435,0,0,0-.55-.25l-.425.125a.459.459,0,0,0-.3.575,6.019,6.019,0,0,0,5.7,3.55c4.05,0,5.7-2.7,5.7-5.025C273.325-7.95,270.525-8.775,268.15-9.425Z" transform="translate(273.187 23.075)" fill="#fff"/>
</svg>
