<svg xmlns="http://www.w3.org/2000/svg" xmlns:xlink="http://www.w3.org/1999/xlink" width="414" height="170" viewBox="0 0 414 170">
  <defs>
    <clipPath id="clip-title-cardio-white">
      <rect width="414" height="170"/>
    </clipPath>
  </defs>
  <g id="title-cardio-white" clip-path="url(#clip-title-cardio-white)">
    <g id="Grupo_10260" data-name="Grupo 10260" transform="translate(18770.676 -10713.627)">
      <path id="Trazado_13794" data-name="Trazado 13794" d="M-91.41-.924A5.754,5.754,0,0,0-90.222-2.97a8,8,0,0,0,.33-2.244c.066-.858,0-1.716.066-2.64s.132-1.848.132-2.838a5.666,5.666,0,0,1,.2-1.122,1.694,1.694,0,0,1,.33-.792.905.905,0,0,1,.858-.4,7.987,7.987,0,0,0,1.254.066c.462-.066.858.132,1.32.066h1.65a3.1,3.1,0,0,0,2.64-1.518,2.9,2.9,0,0,0-.4-3.7,3.423,3.423,0,0,0-2.376-1.056,18.135,18.135,0,0,0-2.64-.132,3.083,3.083,0,0,1-1.122-.2A1.72,1.72,0,0,1-89.1-20.988a17.392,17.392,0,0,1,.132-1.848,17.394,17.394,0,0,1,.132-1.848,14.06,14.06,0,0,1,.2-1.65c.132-.924.2-1.782.33-2.64a2.058,2.058,0,0,1,1.98-1.65,7.988,7.988,0,0,1,1.254.066,11.65,11.65,0,0,0,1.518,0h.99a2.9,2.9,0,0,0,1.782-.594,2.978,2.978,0,0,0,1.188-3.3,3.39,3.39,0,0,0-2.64-2.31c-.792-.2-1.584.066-2.376-.2a26.979,26.979,0,0,0-4.026.2c-.66.132-1.386.2-2.046.33a3.109,3.109,0,0,0-2.244,1.452,2.006,2.006,0,0,0-.33.462,8.134,8.134,0,0,0-1.122,2.97,16.58,16.58,0,0,1-.264,1.782c-.132.726-.2,1.518-.264,2.31l-.2,1.716a7.987,7.987,0,0,1-.066,1.254,4.542,4.542,0,0,0-.132.858c.066.33-.132.594-.066.924,0,.726-.2,1.452-.132,2.178v.132a1.443,1.443,0,0,0-.066,1.056c0,.33-.2.66-.132.99,0,.528-.066.99-.066,1.452-.066.792-.066,1.584-.132,2.376-.066.528-.066,1.122-.132,1.65-.066.792,0,1.65-.066,2.442s0,1.518-.066,2.31c-.132.99,0,1.98-.132,2.9a3.63,3.63,0,0,0,.132,1.452,6.452,6.452,0,0,0,.99,2.508A2.361,2.361,0,0,0-91.41-.924Zm17.82-1.188a2.116,2.116,0,0,0,1.32-.66,5.757,5.757,0,0,0,1.254-2.442,3.735,3.735,0,0,0,.132-1.452c-.132-.924,0-1.848-.066-2.772V-9.57c.066-.2.066-.4.264-.462a.67.67,0,0,1,.66.2l.726.99A39.469,39.469,0,0,1-66.726-5.61a11.362,11.362,0,0,0,2.112,2.244,3.219,3.219,0,0,0,3.168.4c.462-.132.726-.528,1.056-.858a2.682,2.682,0,0,0,.66-1.98A4.71,4.71,0,0,0-60.852-8.58c-.858-1.188-1.782-2.376-2.706-3.5-.792-.99-1.584-1.98-2.376-2.9-.264-.33-.264-.66-.462-.99a3.028,3.028,0,0,1,.66-1.65,17.5,17.5,0,0,0,2.64-2.772,13.129,13.129,0,0,0,1.518-2.376,9.953,9.953,0,0,0,1.188-5.478,2.707,2.707,0,0,1-.066-.726,6.407,6.407,0,0,0-.726-2.244,8.933,8.933,0,0,0-3.366-3.63A11.027,11.027,0,0,0-69.5-36.5a14.421,14.421,0,0,0-2.838.33,4.544,4.544,0,0,0-2.64,1.782,12.106,12.106,0,0,0-.858,1.584,7.981,7.981,0,0,0-.528,2.244,12.857,12.857,0,0,0-.132,1.65,11.683,11.683,0,0,1-.066,1.518c0,.858-.066,1.65-.132,2.508-.066.792-.132,1.584-.132,2.442a6.039,6.039,0,0,1-.066,1.056,13.254,13.254,0,0,0-.066,1.65c0,.462-.066.99-.066,1.452-.066.528-.066,1.056-.132,1.584a11.187,11.187,0,0,1-.066,1.518c-.066.924-.066,1.914-.066,2.838a5.8,5.8,0,0,0-.066,1.848c0,.066.066.132,0,.2a1.287,1.287,0,0,0,0,.99,5,5,0,0,0-.066.99l.2,2.574A4.832,4.832,0,0,0-76.1-3.168a3.473,3.473,0,0,0,.924.792A2.16,2.16,0,0,0-73.59-2.112Zm4.224-21.12c-.528.2-.792.132-.792-.4a1.135,1.135,0,0,1-.066-.528c.066-.462.066-1.122.132-1.782a11.639,11.639,0,0,0,0-1.518,10.792,10.792,0,0,1,.132-1.452c.132-.594.2-.594.726-.66a2.192,2.192,0,0,1,2.376,1.584,3.56,3.56,0,0,1-.2,1.65,6.358,6.358,0,0,1-1.386,2.31A3.651,3.651,0,0,1-69.366-23.232ZM-50.49-2.508c.726.132,1.452-.132,2.178-.066a17.393,17.393,0,0,0,1.848-.132,3.666,3.666,0,0,0,2.31-1.122,2.128,2.128,0,0,0,.594-1.716,2.582,2.582,0,0,0-1.254-1.848,5.654,5.654,0,0,0-2.706-.66c-.726-.066-1.452,0-2.178,0A1.307,1.307,0,0,1-51.15-9.306a9.639,9.639,0,0,1-.2-1.452V-14.19c.066-.924.264-1.188,1.188-1.452h.462a13.763,13.763,0,0,1,1.65,0,7.63,7.63,0,0,0,2.442-.462,2.931,2.931,0,0,0,2.178-2.9,2.739,2.739,0,0,0-1.716-2.508,7.061,7.061,0,0,0-2.838-.594c-.66.066-1.32,0-2.046.066a.7.7,0,0,1-.594-.462,1.858,1.858,0,0,1-.264-1.32,3.22,3.22,0,0,0,.066-1.122c.066-1.584.066-3.1.066-4.62,0-.792.462-1.386,1.254-1.32,1.254,0,2.442-.2,3.63-.2a3.858,3.858,0,0,0,1.254-.132A3.906,3.906,0,0,0-42.174-32.8a2.583,2.583,0,0,0,.066-2.97,4.384,4.384,0,0,0-3.168-1.716c-1.782-.066-3.564.132-5.346.2-.066,0-.066-.066-.132,0-.66.2-1.386.066-2.046.2a10.916,10.916,0,0,0-2.112.462,3.434,3.434,0,0,0-2.244,1.782,2.556,2.556,0,0,0-.2,1.848.729.729,0,0,1,0,.528.976.976,0,0,0,0,.858v.33c.066.924.132,1.782.132,2.64a27.783,27.783,0,0,1-.066,4.686c-.132.792-.066,1.65-.132,2.442-.132.792-.066,1.518-.132,2.31-.132,1.122-.066,2.178-.132,3.3a30.222,30.222,0,0,0-.066,3.564c.132.924-.066,2.244.132,3.63a12.091,12.091,0,0,0,.594,2.574,4.952,4.952,0,0,0,3.3,3.168A13.66,13.66,0,0,0-50.49-2.508Zm22.11.924a6.2,6.2,0,0,0,1.914,0,2.39,2.39,0,0,0,1.518-.99,1.975,1.975,0,0,0,.33-1.716,2.536,2.536,0,0,0-.858-1.452,7.748,7.748,0,0,0-1.782-.99,3.362,3.362,0,0,1-1.122-.462,16.339,16.339,0,0,1-2.376-1.848,7.418,7.418,0,0,1-1.914-3.036,10.753,10.753,0,0,1-.792-4.29,27.54,27.54,0,0,1,.066-3.3c.132-.726.2-1.452.33-2.112a14.659,14.659,0,0,1,.726-2.574,21.3,21.3,0,0,1,1.584-3.828,13.9,13.9,0,0,1,2.574-3.3,2.815,2.815,0,0,1,2.64-.792,4.675,4.675,0,0,0,1.914,0,3.478,3.478,0,0,0,1.98-1.782,3.849,3.849,0,0,0,.132-1.518,3.379,3.379,0,0,0-.66-1.386,3.919,3.919,0,0,0-1.914-1.188c-.726-.2-1.452-.132-2.178-.264a.2.2,0,0,0-.264,0c-.132.132-.33.066-.462.066a2.647,2.647,0,0,0-1.254.2,8.873,8.873,0,0,0-3.762,1.914,14.5,14.5,0,0,0-2.706,2.97,28.809,28.809,0,0,0-2.112,3.63,39.463,39.463,0,0,0-1.65,4.686,26.615,26.615,0,0,0-.99,5.082,11.619,11.619,0,0,0-.132,2.64,12.717,12.717,0,0,0,.066,1.584c.066.792.132,1.584.264,2.442.132.726.33,1.386.528,2.112a13.9,13.9,0,0,0,1.254,3.1,15.594,15.594,0,0,0,2.178,2.97,5.7,5.7,0,0,0,.924.858,9.423,9.423,0,0,0,4.422,2.244A13.517,13.517,0,0,0-28.38-1.584ZM-9.042-2.9a8.944,8.944,0,0,0,2.31-.066,7.714,7.714,0,0,0,1.32-.4A8.737,8.737,0,0,0-3.3-4.686,11.805,11.805,0,0,0-1.452-6.468a12.8,12.8,0,0,0,.99-1.584,19.793,19.793,0,0,0,2.046-4.686,37.058,37.058,0,0,0,.858-3.894c.066-.594.264-1.188.33-1.848.132-1.518.4-3.1.528-4.62,0-.99.132-1.914.2-2.9a5.644,5.644,0,0,1,0-1.056,5.481,5.481,0,0,0,.066-1.452c0-.528.066-1.056.066-1.584,0-.462-.066-.858-.066-1.254a11.305,11.305,0,0,0,.066-2.112,2.858,2.858,0,0,1-.066-.33,3.762,3.762,0,0,0-.33-2.244A3.324,3.324,0,0,0-.99-37.818a2.839,2.839,0,0,0-1.386,1.254,5.01,5.01,0,0,0-.66,3.1v1.716c-.066.99,0,1.98-.066,2.97a8.8,8.8,0,0,0,0,1.32,11.008,11.008,0,0,0-.132,2.112c0,1.122-.2,2.178-.264,3.3-.132,1.452-.4,2.9-.66,4.29a30.314,30.314,0,0,1-1.584,5.94A6.349,6.349,0,0,1-7.062-9.7a1.229,1.229,0,0,1-1.518.33,5.374,5.374,0,0,1-1.848-1.584,8.527,8.527,0,0,1-1.782-4.356c-.2-1.914-.528-3.762-.594-5.742A15.3,15.3,0,0,0-12.87-23.5v-.2a6.9,6.9,0,0,0,0-1.65c.066-.528,0-1.122.066-1.65v-2.772c.066-.792.066-1.65.066-2.442a5.335,5.335,0,0,1,.066-1.056,2.8,2.8,0,0,0-.462-2.046,3.26,3.26,0,0,0-2.31-1.584,3.306,3.306,0,0,0-2.112.4,3.514,3.514,0,0,0-1.452,1.782,9.147,9.147,0,0,0-.462,3.234V-29.9a7.14,7.14,0,0,1,0,1.188,7.616,7.616,0,0,0-.066,1.716,14.884,14.884,0,0,1,0,1.716c-.066.99.066,1.98,0,3.036a7.049,7.049,0,0,0,.066,1.65c0,.99.2,2.046.2,3.036a4.952,4.952,0,0,0,.132,1.32c-.066.924.4,1.98.462,3.1a.2.2,0,0,0,.066.132c.264.792.462,1.716.792,2.508a13.35,13.35,0,0,0,2.178,3.762A9.11,9.11,0,0,0-13-4.356,9.943,9.943,0,0,0-9.042-2.9Zm21.912.4c.726.132,1.452-.132,2.178-.066A17.392,17.392,0,0,0,16.9-2.706a3.666,3.666,0,0,0,2.31-1.122A2.128,2.128,0,0,0,19.8-5.544a2.582,2.582,0,0,0-1.254-1.848,5.654,5.654,0,0,0-2.706-.66c-.726-.066-1.452,0-2.178,0A1.307,1.307,0,0,1,12.21-9.306a9.639,9.639,0,0,1-.2-1.452V-14.19c.066-.924.264-1.188,1.188-1.452h.462a13.763,13.763,0,0,1,1.65,0,7.63,7.63,0,0,0,2.442-.462,2.931,2.931,0,0,0,2.178-2.9,2.739,2.739,0,0,0-1.716-2.508,7.061,7.061,0,0,0-2.838-.594c-.66.066-1.32,0-2.046.066a.7.7,0,0,1-.594-.462,1.858,1.858,0,0,1-.264-1.32,3.22,3.22,0,0,0,.066-1.122c.066-1.584.066-3.1.066-4.62,0-.792.462-1.386,1.254-1.32,1.254,0,2.442-.2,3.63-.2a3.858,3.858,0,0,0,1.254-.132A3.906,3.906,0,0,0,21.186-32.8a2.583,2.583,0,0,0,.066-2.97,4.384,4.384,0,0,0-3.168-1.716c-1.782-.066-3.564.132-5.346.2-.066,0-.066-.066-.132,0-.66.2-1.386.066-2.046.2a10.916,10.916,0,0,0-2.112.462A3.434,3.434,0,0,0,6.2-34.848,2.556,2.556,0,0,0,6.006-33a.729.729,0,0,1,0,.528.976.976,0,0,0,0,.858v.33c.066.924.132,1.782.132,2.64a27.783,27.783,0,0,1-.066,4.686c-.132.792-.066,1.65-.132,2.442-.132.792-.066,1.518-.132,2.31-.132,1.122-.066,2.178-.132,3.3a30.222,30.222,0,0,0-.066,3.564c.132.924-.066,2.244.132,3.63a12.091,12.091,0,0,0,.594,2.574,4.952,4.952,0,0,0,3.3,3.168A13.66,13.66,0,0,0,12.87-2.508ZM27.786-.792A3.056,3.056,0,0,0,29.37-1.914,5.3,5.3,0,0,0,30.1-4.158a11.187,11.187,0,0,1,.066-1.518,18.547,18.547,0,0,1,.066-1.914c0-.726-.066-1.452-.066-2.178v-5.346c0-.792.066-1.518.066-2.244a3.213,3.213,0,0,1,.066-.792.44.44,0,0,1,.33-.462c.132-.066.264.132.4.264a.911.911,0,0,1,.2.264c.2.726.594,1.386.858,2.112.594,1.254,1.122,2.508,1.716,3.762.528.99.99,2.046,1.518,2.97a23.328,23.328,0,0,0,2.178,3.762,10.075,10.075,0,0,1,1.056,1.452A12.051,12.051,0,0,0,39.4-2.97a2.547,2.547,0,0,0,2.574.858,2.793,2.793,0,0,0,2.046-1.782,10.618,10.618,0,0,0,.462-2.442c.264-1.584.33-3.234.462-4.818.066-1.254.066-2.442.132-3.7l.2-3.7c.066-1.386.132-2.838.066-4.224v-.99c.066-.99.066-1.98.066-2.9v-4.554l.066-.858a6.37,6.37,0,0,1,0-1.122,12.069,12.069,0,0,0-.132-2.178,6.13,6.13,0,0,1-.264-.858,3.909,3.909,0,0,0-1.32-2.31,2.3,2.3,0,0,0-1.584-.66,2.854,2.854,0,0,0-2.31,1.518,6.954,6.954,0,0,0-.792,2.508,9.028,9.028,0,0,0-.132,1.914c-.066.726-.066,2.178-.066,2.838v3.3c-.066.4,0,.792-.066,1.188a8.043,8.043,0,0,0,0,1.782c.066.726,0,1.386,0,2.112v3.432c-.066.132-.066.33-.33.4-.2,0-.264-.132-.4-.264,0-.066-.066-.132-.066-.2-.462-.858-.792-1.782-1.188-2.64-.528-1.386-1.056-2.772-1.65-4.158-.462-1.122-.924-2.178-1.32-3.3A17.77,17.77,0,0,1,33-30.888l-.99-2.31A5.487,5.487,0,0,0,29.832-35.9a3.178,3.178,0,0,0-2.178-.528,3.331,3.331,0,0,0-2.706,2.442,19.89,19.89,0,0,0-.66,4.356l-.2,3.432c-.066,1.188-.2,2.376-.2,3.564-.066.792,0,1.584-.066,2.376a12.273,12.273,0,0,0-.066,2.706v2.244c0,.99-.066,1.914,0,2.9,0,.726-.066,1.518,0,2.31,0,.4.066.858.066,1.254a14.884,14.884,0,0,0,0,1.716,9.3,9.3,0,0,1,.066,1.32A17.275,17.275,0,0,0,24.024-3.3a2.64,2.64,0,0,0,.726,1.518A2.831,2.831,0,0,0,27.786-.792ZM58.74-1.584a6.2,6.2,0,0,0,1.914,0,2.39,2.39,0,0,0,1.518-.99A1.975,1.975,0,0,0,62.5-4.29a2.536,2.536,0,0,0-.858-1.452,7.748,7.748,0,0,0-1.782-.99,3.362,3.362,0,0,1-1.122-.462,16.338,16.338,0,0,1-2.376-1.848,7.418,7.418,0,0,1-1.914-3.036,10.753,10.753,0,0,1-.792-4.29,27.54,27.54,0,0,1,.066-3.3c.132-.726.2-1.452.33-2.112a14.659,14.659,0,0,1,.726-2.574,21.3,21.3,0,0,1,1.584-3.828,13.9,13.9,0,0,1,2.574-3.3,2.815,2.815,0,0,1,2.64-.792,4.675,4.675,0,0,0,1.914,0,3.478,3.478,0,0,0,1.98-1.782,3.849,3.849,0,0,0,.132-1.518,3.378,3.378,0,0,0-.66-1.386,3.919,3.919,0,0,0-1.914-1.188c-.726-.2-1.452-.132-2.178-.264a.2.2,0,0,0-.264,0c-.132.132-.33.066-.462.066a2.647,2.647,0,0,0-1.254.2,8.873,8.873,0,0,0-3.762,1.914,14.5,14.5,0,0,0-2.706,2.97,28.809,28.809,0,0,0-2.112,3.63,39.463,39.463,0,0,0-1.65,4.686,26.615,26.615,0,0,0-.99,5.082,11.619,11.619,0,0,0-.132,2.64,12.717,12.717,0,0,0,.066,1.584c.066.792.132,1.584.264,2.442.132.726.33,1.386.528,2.112a13.9,13.9,0,0,0,1.254,3.1,15.594,15.594,0,0,0,2.178,2.97,5.7,5.7,0,0,0,.924.858,9.423,9.423,0,0,0,4.422,2.244A13.517,13.517,0,0,0,58.74-1.584ZM69.432-4.752a2.706,2.706,0,0,0,3.762-.4,5.761,5.761,0,0,0,1.32-3.96,11.007,11.007,0,0,0-.132-2.112v-.2a1.287,1.287,0,0,0,0-.99,5,5,0,0,0,.066-.99,6.648,6.648,0,0,1-.066-1.98,10.6,10.6,0,0,1,0-2.046c.066-.462-.066-.924,0-1.386.066-.726.066-1.452.066-2.178,0-.792.066-1.518.066-2.31,0-.858.066-1.65.132-2.508V-27.06c.066-.858.066-1.716.132-2.574v-1.122c0-.594.066-1.122.066-1.716-.066-.33-.2-.66-.264-.99a2.877,2.877,0,0,0-1.254-1.65,2.661,2.661,0,0,0-2.31-.594,3.481,3.481,0,0,0-.792.2,3.363,3.363,0,0,0-1.782,1.782,1.977,1.977,0,0,0-.264.66,9.028,9.028,0,0,0-.132,1.914c-.066.858-.066,1.716-.132,2.574v1.188c-.066.858-.066,1.716-.132,2.508-.066.462,0,.924-.066,1.452a3.583,3.583,0,0,0,0,1.188,4.546,4.546,0,0,1-.066,1.32c-.066.726-.066,1.518-.066,2.31v1.518c-.066.99,0,1.98,0,2.97,0,.924,0,1.914.066,2.838a13.516,13.516,0,0,0,.066,2.31v.264a1.276,1.276,0,0,0,0,.858,11.373,11.373,0,0,0,.462,1.386A5.493,5.493,0,0,0,69.432-4.752Zm24.486,2.97A2.884,2.884,0,0,0,95.9-3.7a6.7,6.7,0,0,0,.4-2.244c.066-.792,0-1.65,0-2.442v-2.046a19.987,19.987,0,0,0-.132-2.046c0-1.518.066-3.036-.066-4.554-.132-1.188-.066-2.442-.132-3.63a12.889,12.889,0,0,1-.2-2.244c0-.066.066-.132,0-.132a.849.849,0,0,1-.066-.792c0-.33-.2-.528-.2-.858a12.31,12.31,0,0,0-.264-2.112c-.066-.66-.33-1.386-.462-2.112a20.862,20.862,0,0,0-1.122-3.432,17.045,17.045,0,0,0-1.452-2.9,8.5,8.5,0,0,0-1.452-1.98,3.2,3.2,0,0,0-2.9-.99,2.256,2.256,0,0,0-1.716.924,13.246,13.246,0,0,0-1.848,3.432l-1.716,4.29c-.462,1.32-1.056,2.706-1.518,4.092-.792,2.178-1.518,4.422-2.112,6.732-.264,1.122-.594,2.244-.792,3.366l-.594,3.1c-.2,1.056-.33,2.046-.462,3.1a9.028,9.028,0,0,0-.132,1.914v.132a2.009,2.009,0,0,0,.066,1.386A3.373,3.373,0,0,0,78.276-3.7a2.03,2.03,0,0,0,2.244.4,3.556,3.556,0,0,0,.858-.462,4.911,4.911,0,0,0,1.386-2.046c.132-.66.2-1.386.33-2.046l.4-2.9a1.055,1.055,0,0,1,.33-.66,4.27,4.27,0,0,1,.528-.594.5.5,0,0,1,.594-.2c.66,0,1.32,0,1.98.066.726.066,1.518.132,2.31.132a1.072,1.072,0,0,1,.594.33,2.225,2.225,0,0,1,.33,1.122c.066,1.848-.066,3.7.132,5.544a3.567,3.567,0,0,0,1.386,2.772A2.18,2.18,0,0,0,93.918-1.782ZM88.572-18.15a2.2,2.2,0,0,1-.924-.066,2.959,2.959,0,0,0-.792-.066,1.306,1.306,0,0,1-.726-.132.776.776,0,0,1-.594-.792,3.352,3.352,0,0,1,.2-1.122c.33-1.188.792-2.376,1.188-3.63.4-.924.726-1.914,1.122-2.9,0-.066.066-.132.132-.264a.5.5,0,0,1,.528-.2c.2,0,.264.2.264.33a6.905,6.905,0,0,1,.264,1.122c.132.792.2,1.584.4,2.376v.066c-.066.726.132,1.386.132,2.112a8.086,8.086,0,0,1,.132,1.254,3.487,3.487,0,0,1-.066.858A1.343,1.343,0,0,1,88.572-18.15ZM-65.01,44.416a6.2,6.2,0,0,0,1.914,0,2.39,2.39,0,0,0,1.518-.99,1.975,1.975,0,0,0,.33-1.716,2.536,2.536,0,0,0-.858-1.452,7.748,7.748,0,0,0-1.782-.99,3.362,3.362,0,0,1-1.122-.462,16.338,16.338,0,0,1-2.376-1.848A7.418,7.418,0,0,1-69.3,33.922a10.753,10.753,0,0,1-.792-4.29,27.54,27.54,0,0,1,.066-3.3c.132-.726.2-1.452.33-2.112a14.659,14.659,0,0,1,.726-2.574,21.3,21.3,0,0,1,1.584-3.828,13.9,13.9,0,0,1,2.574-3.3,2.815,2.815,0,0,1,2.64-.792,4.675,4.675,0,0,0,1.914,0,3.478,3.478,0,0,0,1.98-1.782,3.849,3.849,0,0,0,.132-1.518,3.378,3.378,0,0,0-.66-1.386A3.919,3.919,0,0,0-60.72,7.852c-.726-.2-1.452-.132-2.178-.264a.2.2,0,0,0-.264,0c-.132.132-.33.066-.462.066a2.647,2.647,0,0,0-1.254.2A8.873,8.873,0,0,0-68.64,9.766a14.5,14.5,0,0,0-2.706,2.97,28.808,28.808,0,0,0-2.112,3.63,39.462,39.462,0,0,0-1.65,4.686,26.615,26.615,0,0,0-.99,5.082,11.619,11.619,0,0,0-.132,2.64,12.717,12.717,0,0,0,.066,1.584c.066.792.132,1.584.264,2.442.132.726.33,1.386.528,2.112a13.9,13.9,0,0,0,1.254,3.1,15.594,15.594,0,0,0,2.178,2.97,5.7,5.7,0,0,0,.924.858,9.423,9.423,0,0,0,4.422,2.244A13.518,13.518,0,0,0-65.01,44.416Zm23.958-.2a2.884,2.884,0,0,0,1.98-1.914,6.7,6.7,0,0,0,.4-2.244c.066-.792,0-1.65,0-2.442V35.572a19.987,19.987,0,0,0-.132-2.046c0-1.518.066-3.036-.066-4.554-.132-1.188-.066-2.442-.132-3.63a12.89,12.89,0,0,1-.2-2.244c0-.066.066-.132,0-.132a.849.849,0,0,1-.066-.792c0-.33-.2-.528-.2-.858a12.31,12.31,0,0,0-.264-2.112c-.066-.66-.33-1.386-.462-2.112a20.862,20.862,0,0,0-1.122-3.432,17.045,17.045,0,0,0-1.452-2.9,8.5,8.5,0,0,0-1.452-1.98,3.2,3.2,0,0,0-2.9-.99,2.256,2.256,0,0,0-1.716.924,13.246,13.246,0,0,0-1.848,3.432l-1.716,4.29c-.462,1.32-1.056,2.706-1.518,4.092-.792,2.178-1.518,4.422-2.112,6.732-.264,1.122-.594,2.244-.792,3.366l-.594,3.1c-.2,1.056-.33,2.046-.462,3.1a9.027,9.027,0,0,0-.132,1.914v.132a2.009,2.009,0,0,0,.066,1.386A3.373,3.373,0,0,0-56.694,42.3a2.03,2.03,0,0,0,2.244.4,3.556,3.556,0,0,0,.858-.462,4.911,4.911,0,0,0,1.386-2.046c.132-.66.2-1.386.33-2.046l.4-2.9a1.055,1.055,0,0,1,.33-.66,4.27,4.27,0,0,1,.528-.594.5.5,0,0,1,.594-.2c.66,0,1.32,0,1.98.066.726.066,1.518.132,2.31.132a1.071,1.071,0,0,1,.594.33,2.225,2.225,0,0,1,.33,1.122c.066,1.848-.066,3.7.132,5.544A3.567,3.567,0,0,0-43.3,43.756,2.18,2.18,0,0,0-41.052,44.218ZM-46.4,27.85a2.2,2.2,0,0,1-.924-.066,2.959,2.959,0,0,0-.792-.066,1.305,1.305,0,0,1-.726-.132.776.776,0,0,1-.594-.792,3.352,3.352,0,0,1,.2-1.122c.33-1.188.792-2.376,1.188-3.63.4-.924.726-1.914,1.122-2.9,0-.066.066-.132.132-.264a.5.5,0,0,1,.528-.2c.2,0,.264.2.264.33a6.905,6.905,0,0,1,.264,1.122c.132.792.2,1.584.4,2.376v.066c-.066.726.132,1.386.132,2.112a8.086,8.086,0,0,1,.132,1.254,3.487,3.487,0,0,1-.066.858A1.343,1.343,0,0,1-46.4,27.85Zm13.6,16.038a2.116,2.116,0,0,0,1.32-.66,5.757,5.757,0,0,0,1.254-2.442,3.735,3.735,0,0,0,.132-1.452c-.132-.924,0-1.848-.066-2.772V36.43c.066-.2.066-.4.264-.462a.67.67,0,0,1,.66.2l.726.99a39.468,39.468,0,0,1,2.574,3.234,11.362,11.362,0,0,0,2.112,2.244,3.219,3.219,0,0,0,3.168.4c.462-.132.726-.528,1.056-.858a2.682,2.682,0,0,0,.66-1.98,4.71,4.71,0,0,0-1.122-2.772c-.858-1.188-1.782-2.376-2.706-3.5-.792-.99-1.584-1.98-2.376-2.9-.264-.33-.264-.66-.462-.99a3.028,3.028,0,0,1,.66-1.65,17.5,17.5,0,0,0,2.64-2.772A13.129,13.129,0,0,0-20.79,23.23,9.953,9.953,0,0,0-19.6,17.752a2.707,2.707,0,0,1-.066-.726,6.407,6.407,0,0,0-.726-2.244,8.933,8.933,0,0,0-3.366-3.63A11.027,11.027,0,0,0-28.71,9.5a14.421,14.421,0,0,0-2.838.33,4.544,4.544,0,0,0-2.64,1.782,12.106,12.106,0,0,0-.858,1.584,7.981,7.981,0,0,0-.528,2.244,12.858,12.858,0,0,0-.132,1.65,11.684,11.684,0,0,1-.066,1.518c0,.858-.066,1.65-.132,2.508-.066.792-.132,1.584-.132,2.442a6.039,6.039,0,0,1-.066,1.056,13.255,13.255,0,0,0-.066,1.65c0,.462-.066.99-.066,1.452-.066.528-.066,1.056-.132,1.584a11.187,11.187,0,0,1-.066,1.518c-.066.924-.066,1.914-.066,2.838a5.8,5.8,0,0,0-.066,1.848c0,.066.066.132,0,.2a1.287,1.287,0,0,0,0,.99,5,5,0,0,0-.066.99l.2,2.574a4.832,4.832,0,0,0,1.122,2.574,3.473,3.473,0,0,0,.924.792A2.16,2.16,0,0,0-32.8,43.888Zm4.224-21.12c-.528.2-.792.132-.792-.4a1.135,1.135,0,0,1-.066-.528c.066-.462.066-1.122.132-1.782a11.638,11.638,0,0,0,0-1.518,10.792,10.792,0,0,1,.132-1.452c.132-.594.2-.594.726-.66a2.192,2.192,0,0,1,2.376,1.584,3.56,3.56,0,0,1-.2,1.65,6.358,6.358,0,0,1-1.386,2.31A3.651,3.651,0,0,1-28.578,22.768Zm14.19,21.846a6.787,6.787,0,0,0,2.31,0,22.784,22.784,0,0,0,4.224-1.452c.792-.4,1.518-.792,2.244-1.188a24.712,24.712,0,0,0,3.63-2.706c.99-.924,1.848-2.046,2.772-3.036l1.32-1.716c.4-.528.726-1.056,1.056-1.584.462-.726.858-1.452,1.254-2.178.264-.594.462-1.188.726-1.782A16.275,16.275,0,0,0,6.27,23.89c0-.4-.132-.792-.132-1.188a7.034,7.034,0,0,0-.4-2.046,14.555,14.555,0,0,0-1.386-3.3A23.907,23.907,0,0,0,2.574,14.65,18.041,18.041,0,0,0,.4,12.34c-.528-.462-1.122-.924-1.716-1.386A27.8,27.8,0,0,0-4.686,9.04,23.359,23.359,0,0,0-6.93,7.984a13.457,13.457,0,0,0-3.96-.66c-.33.066-.66-.066-.924.066a8.967,8.967,0,0,0-1.848.726,3.3,3.3,0,0,0-1.716,2.442,15.347,15.347,0,0,0-.33,1.848c-.066.66-.2,1.32-.264,1.98,0,.132.066.2,0,.264a.987.987,0,0,0-.066.858c0,.33-.2.66-.132.99,0,.726-.2,1.452-.132,2.178l-.066.066c-.2.66-.066,1.452-.2,2.178-.132.66-.066,1.386-.132,2.046-.132,1.122.066,2.244-.132,3.366-.066,3.168.066,6.336-.132,9.438a10.648,10.648,0,0,0,0,1.452,30.173,30.173,0,0,0,.2,4.224,4.846,4.846,0,0,0,.99,2.31A2.5,2.5,0,0,0-14.388,44.614ZM-9.9,37.948a.685.685,0,0,1-.858-.528V32.536c-.066-2.64.2-5.478.132-8.316a14.347,14.347,0,0,0,.132-2.376,12.817,12.817,0,0,1,.132-1.584c.2-.66,0-1.386.264-2.046v-.132c-.066-.726.132-1.386.132-2.112,0-.4.132-.726.132-1.122a.242.242,0,0,1,.066-.2,1.114,1.114,0,0,1,1.122-.528,7.764,7.764,0,0,1,1.32.462,19.032,19.032,0,0,1,2.508,1.452,13.509,13.509,0,0,1,2.442,2.31A19.037,19.037,0,0,1-.858,20.59a7.705,7.705,0,0,1,.726,1.848A5.79,5.79,0,0,1,0,24.814a7.543,7.543,0,0,1-.594,1.98A25.422,25.422,0,0,1-3.5,31.81a37.207,37.207,0,0,1-4.356,4.752A7.031,7.031,0,0,1-9.7,37.816ZM12.012,43.03a3.617,3.617,0,0,0,2.376-2.112,5.826,5.826,0,0,0,.4-1.716c.066-.726.066-1.452.132-2.244.132-1.188,0-2.442.132-3.63.132-1.386,0-2.772.132-4.158.132-1.32.066-2.64.066-3.96-.066-1.32,0-2.706-.132-4.026-.132-1.518,0-3.1-.132-4.62a10.083,10.083,0,0,0-.462-2.376,2.975,2.975,0,0,0-2.838-2.244,3.079,3.079,0,0,0-3.168,2.112A7.26,7.26,0,0,0,8.25,16.1c0,.2.132.4.132.594-.066,1.254.132,2.508.132,3.828v5.61c-.066,1.716.132,4.092-.132,6.4-.066.726,0,1.518,0,2.244s-.2,1.518-.132,2.244a23.878,23.878,0,0,0,.132,3.1A3.846,3.846,0,0,0,9.636,42.37,2.637,2.637,0,0,0,12.012,43.03ZM34.32,44.218A2.884,2.884,0,0,0,36.3,42.3a6.7,6.7,0,0,0,.4-2.244c.066-.792,0-1.65,0-2.442V35.572a19.987,19.987,0,0,0-.132-2.046c0-1.518.066-3.036-.066-4.554-.132-1.188-.066-2.442-.132-3.63a12.89,12.89,0,0,1-.2-2.244c0-.066.066-.132,0-.132a.849.849,0,0,1-.066-.792c0-.33-.2-.528-.2-.858A12.31,12.31,0,0,0,35.64,19.2c-.066-.66-.33-1.386-.462-2.112a20.862,20.862,0,0,0-1.122-3.432,17.045,17.045,0,0,0-1.452-2.9,8.5,8.5,0,0,0-1.452-1.98,3.2,3.2,0,0,0-2.9-.99,2.256,2.256,0,0,0-1.716.924,13.246,13.246,0,0,0-1.848,3.432l-1.716,4.29c-.462,1.32-1.056,2.706-1.518,4.092-.792,2.178-1.518,4.422-2.112,6.732-.264,1.122-.594,2.244-.792,3.366l-.594,3.1c-.2,1.056-.33,2.046-.462,3.1a9.028,9.028,0,0,0-.132,1.914v.132a2.009,2.009,0,0,0,.066,1.386A3.373,3.373,0,0,0,18.678,42.3a2.03,2.03,0,0,0,2.244.4,3.556,3.556,0,0,0,.858-.462,4.911,4.911,0,0,0,1.386-2.046c.132-.66.2-1.386.33-2.046l.4-2.9a1.055,1.055,0,0,1,.33-.66,4.27,4.27,0,0,1,.528-.594.5.5,0,0,1,.594-.2c.66,0,1.32,0,1.98.066.726.066,1.518.132,2.31.132a1.071,1.071,0,0,1,.594.33,2.225,2.225,0,0,1,.33,1.122c.066,1.848-.066,3.7.132,5.544a3.567,3.567,0,0,0,1.386,2.772A2.18,2.18,0,0,0,34.32,44.218ZM28.974,27.85a2.2,2.2,0,0,1-.924-.066,2.959,2.959,0,0,0-.792-.066,1.305,1.305,0,0,1-.726-.132.776.776,0,0,1-.594-.792,3.352,3.352,0,0,1,.2-1.122c.33-1.188.792-2.376,1.188-3.63.4-.924.726-1.914,1.122-2.9,0-.066.066-.132.132-.264a.5.5,0,0,1,.528-.2c.2,0,.264.2.264.33a6.9,6.9,0,0,1,.264,1.122c.132.792.2,1.584.4,2.376v.066c-.066.726.132,1.386.132,2.112a8.087,8.087,0,0,1,.132,1.254,3.487,3.487,0,0,1-.066.858A1.343,1.343,0,0,1,28.974,27.85ZM49.962,44.416a6.2,6.2,0,0,0,1.914,0,2.39,2.39,0,0,0,1.518-.99,1.975,1.975,0,0,0,.33-1.716,2.536,2.536,0,0,0-.858-1.452,7.748,7.748,0,0,0-1.782-.99,3.362,3.362,0,0,1-1.122-.462,16.338,16.338,0,0,1-2.376-1.848,7.418,7.418,0,0,1-1.914-3.036,10.753,10.753,0,0,1-.792-4.29,27.54,27.54,0,0,1,.066-3.3c.132-.726.2-1.452.33-2.112A14.659,14.659,0,0,1,46,21.646a21.3,21.3,0,0,1,1.584-3.828,13.9,13.9,0,0,1,2.574-3.3,2.815,2.815,0,0,1,2.64-.792,4.675,4.675,0,0,0,1.914,0,3.478,3.478,0,0,0,1.98-1.782,3.849,3.849,0,0,0,.132-1.518,3.378,3.378,0,0,0-.66-1.386,3.919,3.919,0,0,0-1.914-1.188c-.726-.2-1.452-.132-2.178-.264a.2.2,0,0,0-.264,0c-.132.132-.33.066-.462.066a2.647,2.647,0,0,0-1.254.2,8.873,8.873,0,0,0-3.762,1.914,14.5,14.5,0,0,0-2.706,2.97,28.809,28.809,0,0,0-2.112,3.63,39.463,39.463,0,0,0-1.65,4.686,26.615,26.615,0,0,0-.99,5.082,11.619,11.619,0,0,0-.132,2.64,12.717,12.717,0,0,0,.066,1.584c.066.792.132,1.584.264,2.442.132.726.33,1.386.528,2.112a13.9,13.9,0,0,0,1.254,3.1,15.594,15.594,0,0,0,2.178,2.97,5.7,5.7,0,0,0,.924.858,9.423,9.423,0,0,0,4.422,2.244A13.518,13.518,0,0,0,49.962,44.416Zm23.958-.2A2.884,2.884,0,0,0,75.9,42.3a6.7,6.7,0,0,0,.4-2.244c.066-.792,0-1.65,0-2.442V35.572a19.987,19.987,0,0,0-.132-2.046c0-1.518.066-3.036-.066-4.554-.132-1.188-.066-2.442-.132-3.63a12.889,12.889,0,0,1-.2-2.244c0-.066.066-.132,0-.132a.849.849,0,0,1-.066-.792c0-.33-.2-.528-.2-.858A12.31,12.31,0,0,0,75.24,19.2c-.066-.66-.33-1.386-.462-2.112a20.862,20.862,0,0,0-1.122-3.432,17.045,17.045,0,0,0-1.452-2.9,8.5,8.5,0,0,0-1.452-1.98,3.2,3.2,0,0,0-2.9-.99,2.256,2.256,0,0,0-1.716.924,13.246,13.246,0,0,0-1.848,3.432l-1.716,4.29c-.462,1.32-1.056,2.706-1.518,4.092-.792,2.178-1.518,4.422-2.112,6.732-.264,1.122-.594,2.244-.792,3.366l-.594,3.1c-.2,1.056-.33,2.046-.462,3.1a9.027,9.027,0,0,0-.132,1.914v.132a2.009,2.009,0,0,0,.066,1.386A3.373,3.373,0,0,0,58.278,42.3a2.03,2.03,0,0,0,2.244.4,3.556,3.556,0,0,0,.858-.462,4.911,4.911,0,0,0,1.386-2.046c.132-.66.2-1.386.33-2.046l.4-2.9a1.055,1.055,0,0,1,.33-.66,4.27,4.27,0,0,1,.528-.594.5.5,0,0,1,.594-.2c.66,0,1.32,0,1.98.066.726.066,1.518.132,2.31.132a1.072,1.072,0,0,1,.594.33,2.225,2.225,0,0,1,.33,1.122c.066,1.848-.066,3.7.132,5.544a3.567,3.567,0,0,0,1.386,2.772A2.18,2.18,0,0,0,73.92,44.218ZM68.574,27.85a2.2,2.2,0,0,1-.924-.066,2.959,2.959,0,0,0-.792-.066,1.306,1.306,0,0,1-.726-.132.776.776,0,0,1-.594-.792,3.352,3.352,0,0,1,.2-1.122c.33-1.188.792-2.376,1.188-3.63.4-.924.726-1.914,1.122-2.9,0-.066.066-.132.132-.264a.5.5,0,0,1,.528-.2c.2,0,.264.2.264.33a6.905,6.905,0,0,1,.264,1.122c.132.792.2,1.584.4,2.376v.066c-.066.726.132,1.386.132,2.112a8.086,8.086,0,0,1,.132,1.254,3.487,3.487,0,0,1-.066.858A1.343,1.343,0,0,1,68.574,27.85Z" transform="translate(-18509.822 10809.755)" fill="#f8f8f8"/>
      <path id="Trazado_13793" data-name="Trazado 13793" d="M51.813-.684a9.125,9.125,0,0,0,5.3-6.84c.342-1.71.855-3.42,1.2-5.3l2.052-8.55a14.132,14.132,0,0,1,1.368-3.762,3.358,3.358,0,0,1,2.223-1.539,9.282,9.282,0,0,1,3.762,0c1.539.513,2.907,0,4.275-.171a8.167,8.167,0,0,0,5.643-4.1,5.025,5.025,0,0,0,1.026-4.617,7.935,7.935,0,0,0-5.3-5.814,9.567,9.567,0,0,0-4.275-.855,2.215,2.215,0,0,1-2.565-2.394A12.943,12.943,0,0,1,66.69-47.2a13.092,13.092,0,0,1,2.394-5.472,2.32,2.32,0,0,1,2.223-1.2h4.1a12.943,12.943,0,0,0,2.565-.171c3.249-.684,6.5-4.275,6.156-7.7a8.181,8.181,0,0,0-3.078-5.814A11.518,11.518,0,0,0,74.9-69.6H72.675c-.684,0-1.026-.342-.855-1.026a32.346,32.346,0,0,1,.855-3.933c.342-1.881.855-3.762,1.2-5.643.171-1.368.342-2.907.684-4.446a29.934,29.934,0,0,0,.684-5.472,8.03,8.03,0,0,0-1.368-4.446,7.071,7.071,0,0,0-4.1-2.907,5.664,5.664,0,0,0-4.1,0,6.126,6.126,0,0,0-1.881.684,9.916,9.916,0,0,0-3.933,5.3,32.648,32.648,0,0,0-1.026,5.643c-.171,1.539-.684,3.078-.855,4.617-.342,1.881-.855,3.762-1.2,5.643-.513,2.565-2.052,4.446-4.959,4.617a29.024,29.024,0,0,1-6.669-.171,1.644,1.644,0,0,1-1.368-1.539,8.572,8.572,0,0,1,.171-2.907l.513-2.565.684-4.275A30.006,30.006,0,0,0,46-90.288a5.123,5.123,0,0,0-1.026-3.078,6.582,6.582,0,0,0-4.959-3.762,6.992,6.992,0,0,0-4.617.513,9.46,9.46,0,0,0-4.788,6.327c-.684,2.736-1.026,5.472-1.539,8.208a46.634,46.634,0,0,1-1.71,7.011A6.716,6.716,0,0,1,24.8-71.478a5.469,5.469,0,0,1-3.249.855c-1.71.171-3.42,0-5.13,0v.171H10.944c-.342,0-.684-.171-1.026,0A9.182,9.182,0,0,0,4.788-67.2,6.258,6.258,0,0,0,3.42-62.757a6.857,6.857,0,0,0,2.223,5.3,8.781,8.781,0,0,0,6.327,2.565,57.777,57.777,0,0,0,7.7,0c1.026,0,1.368.513,1.881,1.368a2.169,2.169,0,0,1,.171,1.026,25.511,25.511,0,0,1-.342,3.591,17.045,17.045,0,0,1-2.565,6.327c-.513.513-.855.855-1.539.855-2.223-.171-4.446.342-6.84.342a7.3,7.3,0,0,0-6.669,3.591,7.554,7.554,0,0,0-.855,6.327,7.9,7.9,0,0,0,5.814,5.3,6.365,6.365,0,0,0,3.078.342,8.583,8.583,0,0,1,2.052.342c1.026.513,2.052,1.71,1.71,2.736a26.548,26.548,0,0,1-.684,3.591c-.513,1.71-.513,3.42-.855,4.959a4.009,4.009,0,0,0,.342,2.052,34.342,34.342,0,0,0,.171,4.275,8.256,8.256,0,0,0,3.249,5.472,4.834,4.834,0,0,0,3.078.684,8.079,8.079,0,0,0,3.42-1.71c2.394-2.223,3.42-5.13,4.788-7.866a28.441,28.441,0,0,0,1.539-6.327,42.318,42.318,0,0,0,1.026-4.959c.513-2.736,1.881-4.1,4.617-4.1a13.907,13.907,0,0,1,5.3.342c2.223.342,3.249,2.052,2.736,4.275a.6.6,0,0,0-.171.342c-.513,3.42-1.71,6.5-2.223,9.918a17.348,17.348,0,0,0-.342,4.275,11.008,11.008,0,0,0,1.881,4.617A6.475,6.475,0,0,0,51.813-.684ZM40.7-42.408a2,2,0,0,1-1.881-1.539,1.3,1.3,0,0,1-.342-.684c-.171-2.394-.342-4.959.684-7.182A7.378,7.378,0,0,1,41.9-54.72c.171-.171.684,0,1.026-.171,1.368-.171,2.736.513,4.275.342h1.2c.684.171,1.368-.171,1.71.342a3.586,3.586,0,0,1,.684,1.881,25.512,25.512,0,0,1-.342,3.591c-.513,1.71-.855,3.42-2.052,4.788a2.9,2.9,0,0,1-2.736,1.539H43.434A14.624,14.624,0,0,0,40.7-42.408ZM120.726,5.814a9.061,9.061,0,0,0,7.353-2.736,7.347,7.347,0,0,0,1.881-5.643,7.9,7.9,0,0,0-4.617-6.156,11.257,11.257,0,0,0-5.13-1.2c-2.736-.171-5.3-1.026-8.037-1.539a3.621,3.621,0,0,1-1.2-.513,2.24,2.24,0,0,1-.855-2.907,60.524,60.524,0,0,1,2.736-5.814c2.052-3.933,3.933-8.037,5.814-12.141,2.907-5.985,5.814-12.141,8.379-18.468,1.2-2.565,2.223-5.13,3.249-7.866a58.911,58.911,0,0,0,3.078-13.167,52.7,52.7,0,0,0,0-7.353c-.342-1.2-.513-2.223-.855-3.078a18.24,18.24,0,0,0-3.42-6.5,19.764,19.764,0,0,0-4.788-4.446,19.944,19.944,0,0,0-6.156-2.736,22.922,22.922,0,0,0-8.379-.684,19.544,19.544,0,0,0-5.13,1.539,23.4,23.4,0,0,0-5.472,2.736,41.634,41.634,0,0,0-4.959,4.446,18.149,18.149,0,0,0-4.788,8.892A8.071,8.071,0,0,0,90.972-72.5,7.32,7.32,0,0,0,97.983-69.6a8.118,8.118,0,0,0,5.985-4.788,12.948,12.948,0,0,1,1.539-3.078,10.368,10.368,0,0,1,6.84-3.933c2.052-.171,3.42.855,4.788,2.223l.171.684a16.189,16.189,0,0,1,.342,4.959,33.727,33.727,0,0,1-1.2,5.985,92.339,92.339,0,0,1-4.275,11.457c-2.907,6.327-5.814,12.825-8.892,19.152l-3.078,6.327c-1.368,3.078-2.907,5.985-4.275,8.892-1.026,1.881-1.881,3.762-2.907,5.472a33.613,33.613,0,0,0-2.736,6.84,8.926,8.926,0,0,0,1.2,7.524c1.881,3.078,4.959,4.446,8.379,5.3,2.565.513,5.13.855,7.866,1.2C112,4.959,116.28,5.643,120.726,5.814Z" transform="translate(-18763.234 10859.398)" fill="#f8f8f8"/>
      <path id="Trazado_13795" data-name="Trazado 13795" d="M39.259,9.96a4.645,4.645,0,0,0-2.28.64l.36-3.08h4.78a.717.717,0,0,0,.72-.72V5.72a.717.717,0,0,0-.72-.72h-6.2a.7.7,0,0,0-.7.62l-.74,6.34a.7.7,0,0,0,.52.76l.92.26a1.059,1.059,0,0,0,.94-.16,3.179,3.179,0,0,1,1.9-.66,2.137,2.137,0,0,1,2.3,2.24,2.218,2.218,0,0,1-2.32,2.4,2.174,2.174,0,0,1-2.06-1,.5.5,0,0,0-.58-.26l-1.4.32a.7.7,0,0,0-.46,1.02,5.1,5.1,0,0,0,4.52,2.36,4.7,4.7,0,0,0,4.96-4.88A4.2,4.2,0,0,0,39.259,9.96Zm6.58,2.72v.72a.7.7,0,0,0,.72.7h4.98a.7.7,0,0,0,.72-.7v-.72a.713.713,0,0,0-.72-.7h-4.98A.713.713,0,0,0,45.839,12.68ZM57.7,5.18,54.2,7.52a.745.745,0,0,0-.2.98l.42.68a.714.714,0,0,0,1,.22l1.84-1.24V18.28a.717.717,0,0,0,.72.72h1.28a.717.717,0,0,0,.72-.72V5.72a.717.717,0,0,0-.72-.72H58.3A1.058,1.058,0,0,0,57.7,5.18Zm14.88,8.72h-.94V5.72a.713.713,0,0,0-.7-.72h-2.28a1.055,1.055,0,0,0-.9.5l-5.14,8.24a1.257,1.257,0,0,0-.22.76v1a.713.713,0,0,0,.7.72h5.84v2.06a.713.713,0,0,0,.7.72h1.3a.713.713,0,0,0,.7-.72V16.22h.94a.717.717,0,0,0,.72-.72v-.88A.717.717,0,0,0,72.579,13.9Zm-7.44,0,3.8-6.06V13.9Z" transform="translate(-18440.336 10727.627)" fill="#f8f8f8"/>
    </g>
  </g>
</svg>
