<svg xmlns="http://www.w3.org/2000/svg" xmlns:xlink="http://www.w3.org/1999/xlink" width="414" height="170" viewBox="0 0 414 170">
  <defs>
    <clipPath id="clip-title-colesterol-white">
      <rect width="414" height="170"/>
    </clipPath>
  </defs>
  <g id="title-colesterol-white" clip-path="url(#clip-title-colesterol-white)">
    <g id="Grupo_10264" data-name="Grupo 10264" transform="translate(19277.441 -11155.755)">
      <path id="Trazado_13798" data-name="Trazado 13798" d="M13.53-2.376a5.632,5.632,0,0,1,1.056,0,6.918,6.918,0,0,0,2.376-.462,3.076,3.076,0,0,0,2.046-3.5A3.1,3.1,0,0,0,16.9-8.712a3.5,3.5,0,0,0-1.848-.2A3.537,3.537,0,0,1,13.2-9.042a12.3,12.3,0,0,1-2.244-1.188A6.047,6.047,0,0,1,8.91-12.936a9.545,9.545,0,0,1-.924-3.036,19.044,19.044,0,0,1-.264-1.914v-.99a25.633,25.633,0,0,1,.264-3.168l.4-1.782a11.294,11.294,0,0,1,1.782-3.564,10.718,10.718,0,0,1,2.442-2.442,2.78,2.78,0,0,1,1.32-.66,4.189,4.189,0,0,1,1.584-.132,6.906,6.906,0,0,0,2.376.33,3.068,3.068,0,0,0,1.386-.33,3.28,3.28,0,0,0,1.584-3.5,3.4,3.4,0,0,0-1.782-2.244,7.665,7.665,0,0,0-3.63-.99,10.661,10.661,0,0,0-2.046.132,10.276,10.276,0,0,0-2.442.66,13.309,13.309,0,0,0-3.894,2.706,18.6,18.6,0,0,0-2.178,2.376,26.346,26.346,0,0,0-1.782,2.9,14.9,14.9,0,0,0-1.254,3.234c-.132.792-.33,1.584-.462,2.376-.066.4-.066.792-.132,1.254-.2.924-.132,1.98-.264,2.9-.066.4.132.66.132.99A15.016,15.016,0,0,0,1.254-16.1a16.957,16.957,0,0,0,.462,2.64A14.653,14.653,0,0,0,3.828-8.316,13.167,13.167,0,0,0,6.666-5.082a13.111,13.111,0,0,0,4.686,2.376A8.3,8.3,0,0,0,13.53-2.376Zm21.516-.2c.066,0,.2-.066.264,0a1.116,1.116,0,0,0,.924-.066A11.1,11.1,0,0,1,37.818-3.1a14.527,14.527,0,0,0,3.366-2.112C41.778-5.742,42.306-6.4,42.9-6.93a10.326,10.326,0,0,0,1.518-2.244,22.521,22.521,0,0,0,1.122-2.178A27.16,27.16,0,0,0,47.322-16.9a22.833,22.833,0,0,0,.594-5.61,19.038,19.038,0,0,0-.132-2.706c-.066-.2-.066-.4-.132-.66-.132-.594-.2-1.386-.4-2.046-.2-.528-.264-1.056-.462-1.518a21.323,21.323,0,0,0-1.32-2.772A15.9,15.9,0,0,0,43.1-35.376a8.626,8.626,0,0,0-.792-.726,7.618,7.618,0,0,0-1.914-1.32,13.176,13.176,0,0,0-4.158-1.254,9.541,9.541,0,0,0-2.376,0,12.6,12.6,0,0,0-2.97.858,16.113,16.113,0,0,0-3.63,2.31,12.676,12.676,0,0,0-1.848,1.914,4.984,4.984,0,0,0-.726.924,8.314,8.314,0,0,0-.66,2.178l-.2,1.122a30.249,30.249,0,0,0-.66,4.158c-.066.726-.132,1.518-.132,2.244-.066.858-.066,1.782-.132,2.706,0,.66,0,1.386.066,2.112l.2,2.244a30.191,30.191,0,0,0,.924,4.752c.264.594.462,1.188.66,1.716A14.275,14.275,0,0,0,26.2-7.062a14.532,14.532,0,0,0,2.178,2.31,10.546,10.546,0,0,0,2.64,1.518A7.766,7.766,0,0,0,35.046-2.574Zm.066-5.874a2.394,2.394,0,0,1-2.574-.594,7.41,7.41,0,0,1-1.914-3.234,8.826,8.826,0,0,1-.66-2.508c-.066-.264-.264-.462-.264-.726-.066-.924-.132-1.848-.264-2.772-.066-.726-.066-1.452-.066-2.178a46.211,46.211,0,0,1,.4-5.28l.528-3.1a2.478,2.478,0,0,1,.792-1.386,7.752,7.752,0,0,1,1.98-1.584,4.749,4.749,0,0,1,3.168-.4c.264.066.528.2.726.264a7.6,7.6,0,0,1,2.772,2.64c.462.792.726,1.65,1.122,2.442v.066c.066.726.462,1.32.462,1.98a15.975,15.975,0,0,1,.132,2.508,21.408,21.408,0,0,1-.726,5.016,16.3,16.3,0,0,1-1.254,3.564A11.487,11.487,0,0,1,38.28-11.55a9.065,9.065,0,0,1-.858,1.32A5.6,5.6,0,0,1,35.112-8.448ZM65.538-.924a3.36,3.36,0,0,0,1.914-.99,2.785,2.785,0,0,0,.726-2.706,2.777,2.777,0,0,0-1.056-1.65,5.7,5.7,0,0,0-3.828-.99c-.2,0-.33.066-.462,0a32.365,32.365,0,0,0-3.564-.264H58.014a2.6,2.6,0,0,1-1.32-.33A1.24,1.24,0,0,1,55.9-8.976a8.06,8.06,0,0,1,.066-1.782,4.963,4.963,0,0,1,0-.99A16.183,16.183,0,0,0,56.1-13.53v-1.716c0-.726.132-1.452.066-2.178v-.264c.2-.33.066-.66.066-.924-.066-.33.132-.594.066-.858-.132-.726.066-1.452-.066-2.178v-.132a8.44,8.44,0,0,0,.066-2.244c0-.528.066-1.056.066-1.584V-26.8a12.886,12.886,0,0,0,.132-1.518,11.187,11.187,0,0,1,.066-1.518c.066-.858.066-1.716.132-2.574a13.475,13.475,0,0,0,0-2.31,13.708,13.708,0,0,0-.33-1.98,4.6,4.6,0,0,0-.726-1.518,2.64,2.64,0,0,0-2.706-.792,2.915,2.915,0,0,0-1.848,1.782,9.3,9.3,0,0,0-.462,2.97v1.716c-.066.462,0,.858-.066,1.254a5.365,5.365,0,0,0-.066,1.452c0,.66-.066,1.32-.066,1.98a10.648,10.648,0,0,1,0,1.452,12.02,12.02,0,0,0-.066,2.178v.33a9.941,9.941,0,0,0-.066,1.98A18.547,18.547,0,0,1,50.226-20v1.782A9.13,9.13,0,0,0,50.16-16.3a.124.124,0,0,1,0,.2,16.083,16.083,0,0,0-.066,1.782,10.219,10.219,0,0,1-.066,1.452c-.066.726-.066,1.386-.066,2.046,0,.528-.066,1.122-.066,1.65a4.963,4.963,0,0,1,0,.99,9.158,9.158,0,0,0,.264,3.036,4.088,4.088,0,0,0,1.584,1.914,3.588,3.588,0,0,0,1.518.726,10.69,10.69,0,0,0,2.508.594c.594.066,1.254.066,1.914.132a18.038,18.038,0,0,1,2.64.33A13.514,13.514,0,0,1,63.1-.99,6.092,6.092,0,0,0,65.538-.924ZM77.484-2.508c.726.132,1.452-.132,2.178-.066a17.392,17.392,0,0,0,1.848-.132,3.666,3.666,0,0,0,2.31-1.122,2.128,2.128,0,0,0,.594-1.716A2.582,2.582,0,0,0,83.16-7.392a5.654,5.654,0,0,0-2.706-.66c-.726-.066-1.452,0-2.178,0a1.307,1.307,0,0,1-1.452-1.254,9.639,9.639,0,0,1-.2-1.452V-14.19c.066-.924.264-1.188,1.188-1.452h.462a13.763,13.763,0,0,1,1.65,0,7.63,7.63,0,0,0,2.442-.462,2.931,2.931,0,0,0,2.178-2.9,2.739,2.739,0,0,0-1.716-2.508,7.061,7.061,0,0,0-2.838-.594c-.66.066-1.32,0-2.046.066a.7.7,0,0,1-.594-.462,1.858,1.858,0,0,1-.264-1.32,3.22,3.22,0,0,0,.066-1.122c.066-1.584.066-3.1.066-4.62,0-.792.462-1.386,1.254-1.32,1.254,0,2.442-.2,3.63-.2a3.858,3.858,0,0,0,1.254-.132A3.906,3.906,0,0,0,85.8-32.8a2.583,2.583,0,0,0,.066-2.97A4.384,4.384,0,0,0,82.7-37.488c-1.782-.066-3.564.132-5.346.2-.066,0-.066-.066-.132,0-.66.2-1.386.066-2.046.2a10.916,10.916,0,0,0-2.112.462,3.434,3.434,0,0,0-2.244,1.782A2.556,2.556,0,0,0,70.62-33a.729.729,0,0,1,0,.528.976.976,0,0,0,0,.858v.33c.066.924.132,1.782.132,2.64a27.783,27.783,0,0,1-.066,4.686c-.132.792-.066,1.65-.132,2.442-.132.792-.066,1.518-.132,2.31-.132,1.122-.066,2.178-.132,3.3a30.222,30.222,0,0,0-.066,3.564c.132.924-.066,2.244.132,3.63a12.091,12.091,0,0,0,.594,2.574,4.952,4.952,0,0,0,3.3,3.168A13.66,13.66,0,0,0,77.484-2.508ZM91.41-.66a3.551,3.551,0,0,0,2.178-.2,5.616,5.616,0,0,1,1.122-.4,28.81,28.81,0,0,0,3.762-1.914,9.3,9.3,0,0,0,3.1-2.838,11.842,11.842,0,0,0,1.32-2.574,10.488,10.488,0,0,0,.66-3.894,14.2,14.2,0,0,0-.132-1.518,13.249,13.249,0,0,0-.858-3.168,18.056,18.056,0,0,0-3.3-4.752c-1.32-1.452-2.838-2.706-4.092-4.224a2.964,2.964,0,0,1-.66-3.168,5.671,5.671,0,0,1,2.244-3.168,7.6,7.6,0,0,1,2.112-.924,4,4,0,0,0,1.716-.528,2.806,2.806,0,0,0,1.452-2.376,2.706,2.706,0,0,0-.4-1.584,2.816,2.816,0,0,0-2.178-1.452,5.45,5.45,0,0,0-2.046.132,12.284,12.284,0,0,0-2.046.66,12.383,12.383,0,0,0-2.376,1.386A11.157,11.157,0,0,0,89.76-33.4a12.7,12.7,0,0,0-.924,2.178,8.864,8.864,0,0,0-.462,1.782,8.681,8.681,0,0,0,.132,2.9,11.287,11.287,0,0,0,.594,1.98,13.138,13.138,0,0,0,2.376,3.3c.99,1.122,2.112,2.112,3.168,3.168a14.246,14.246,0,0,1,1.782,2.178,7.412,7.412,0,0,1,1.188,3.234,7.272,7.272,0,0,1-.132,1.188A4.233,4.233,0,0,1,96.03-8.778,12.092,12.092,0,0,1,92.8-6.93l-1.914.792A3.653,3.653,0,0,0,89.5-4.884a2.982,2.982,0,0,0,0,2.97A2.413,2.413,0,0,0,91.41-.66Zm25.278-.99a3.082,3.082,0,0,0,1.584-1.716,6.93,6.93,0,0,0,.528-2.31c.066-.726,0-1.518.132-2.31.132-1.188,0-2.376.066-3.564.2-1.386,0-2.838.2-4.224.066-.99-.066-1.914.066-2.9.132-.726.066-1.518.132-2.31.132-.726-.066-1.518.132-2.244-.066-1.188.2-2.376.2-3.564-.066-1.056,0-2.112,0-3.168a8.845,8.845,0,0,1,.066-1.32,2.808,2.808,0,0,1,.924-1.518c.066-.066.132-.2.264-.2a7.273,7.273,0,0,0,1.188-.132,24.6,24.6,0,0,0,3.1-.066,4.412,4.412,0,0,0,1.65-.528.343.343,0,0,0,.264-.132,3.451,3.451,0,0,0,1.122-.792,2.221,2.221,0,0,0,.264-1.452,2.445,2.445,0,0,0-1.386-1.716,4.309,4.309,0,0,0-2.376-.66c-1.848,0-3.762,0-5.676.066-1.65.132-3.366.066-5.016.066H109.3c-.4,0-.792.066-1.188.066A2.942,2.942,0,0,0,105.6-36.3a2.2,2.2,0,0,0-.066.924,1.417,1.417,0,0,0,.264.99A3.134,3.134,0,0,0,108.57-33h3.7a1.024,1.024,0,0,1,.99.594,4.8,4.8,0,0,1,.462,1.914,31.032,31.032,0,0,1-.066,4.29c-.132.858,0,1.782-.132,2.706-.132.726,0,1.386-.132,2.112s0,1.452-.132,2.244c-.132.924,0,1.914-.132,2.838-.132,1.254,0,2.574-.132,3.828-.132,1.32,0,2.64-.132,3.96-.066,1.056,0,2.112,0,3.1a3.858,3.858,0,0,0,.132,1.254,3.128,3.128,0,0,0,.792,1.782A2.5,2.5,0,0,0,116.688-1.65Zm21.12-.858c.726.132,1.452-.132,2.178-.066a17.392,17.392,0,0,0,1.848-.132,3.666,3.666,0,0,0,2.31-1.122,2.128,2.128,0,0,0,.594-1.716,2.582,2.582,0,0,0-1.254-1.848,5.654,5.654,0,0,0-2.706-.66c-.726-.066-1.452,0-2.178,0a1.307,1.307,0,0,1-1.452-1.254,9.639,9.639,0,0,1-.2-1.452V-14.19c.066-.924.264-1.188,1.188-1.452h.462a13.762,13.762,0,0,1,1.65,0,7.63,7.63,0,0,0,2.442-.462,2.931,2.931,0,0,0,2.178-2.9,2.739,2.739,0,0,0-1.716-2.508,7.061,7.061,0,0,0-2.838-.594c-.66.066-1.32,0-2.046.066a.7.7,0,0,1-.594-.462,1.858,1.858,0,0,1-.264-1.32,3.22,3.22,0,0,0,.066-1.122c.066-1.584.066-3.1.066-4.62,0-.792.462-1.386,1.254-1.32,1.254,0,2.442-.2,3.63-.2a3.858,3.858,0,0,0,1.254-.132,3.906,3.906,0,0,0,2.442-1.584,2.583,2.583,0,0,0,.066-2.97,4.384,4.384,0,0,0-3.168-1.716c-1.782-.066-3.564.132-5.346.2-.066,0-.066-.066-.132,0-.66.2-1.386.066-2.046.2a10.916,10.916,0,0,0-2.112.462,3.434,3.434,0,0,0-2.244,1.782,2.556,2.556,0,0,0-.2,1.848.729.729,0,0,1,0,.528.976.976,0,0,0,0,.858v.33c.066.924.132,1.782.132,2.64a27.784,27.784,0,0,1-.066,4.686c-.132.792-.066,1.65-.132,2.442-.132.792-.066,1.518-.132,2.31-.132,1.122-.066,2.178-.132,3.3a30.221,30.221,0,0,0-.066,3.564c.132.924-.066,2.244.132,3.63a12.091,12.091,0,0,0,.594,2.574,4.952,4.952,0,0,0,3.3,3.168A13.66,13.66,0,0,0,137.808-2.508Zm14.718.4a2.116,2.116,0,0,0,1.32-.66A5.757,5.757,0,0,0,155.1-5.214a3.735,3.735,0,0,0,.132-1.452c-.132-.924,0-1.848-.066-2.772V-9.57c.066-.2.066-.4.264-.462a.67.67,0,0,1,.66.2l.726.99A39.467,39.467,0,0,1,159.39-5.61,11.362,11.362,0,0,0,161.5-3.366a3.219,3.219,0,0,0,3.168.4c.462-.132.726-.528,1.056-.858a2.682,2.682,0,0,0,.66-1.98,4.71,4.71,0,0,0-1.122-2.772c-.858-1.188-1.782-2.376-2.706-3.5-.792-.99-1.584-1.98-2.376-2.9-.264-.33-.264-.66-.462-.99a3.028,3.028,0,0,1,.66-1.65,17.5,17.5,0,0,0,2.64-2.772,13.129,13.129,0,0,0,1.518-2.376,9.953,9.953,0,0,0,1.188-5.478,2.708,2.708,0,0,1-.066-.726,6.408,6.408,0,0,0-.726-2.244,8.933,8.933,0,0,0-3.366-3.63,11.027,11.027,0,0,0-4.95-1.65,14.421,14.421,0,0,0-2.838.33,4.544,4.544,0,0,0-2.64,1.782,12.107,12.107,0,0,0-.858,1.584,7.981,7.981,0,0,0-.528,2.244,12.859,12.859,0,0,0-.132,1.65,11.684,11.684,0,0,1-.066,1.518c0,.858-.066,1.65-.132,2.508-.066.792-.132,1.584-.132,2.442a6.04,6.04,0,0,1-.066,1.056,13.256,13.256,0,0,0-.066,1.65c0,.462-.066.99-.066,1.452-.066.528-.066,1.056-.132,1.584a11.185,11.185,0,0,1-.066,1.518c-.066.924-.066,1.914-.066,2.838a5.8,5.8,0,0,0-.066,1.848c0,.066.066.132,0,.2a1.287,1.287,0,0,0,0,.99,5,5,0,0,0-.066.99l.2,2.574a4.832,4.832,0,0,0,1.122,2.574,3.473,3.473,0,0,0,.924.792A2.16,2.16,0,0,0,152.526-2.112Zm4.224-21.12c-.528.2-.792.132-.792-.4a1.135,1.135,0,0,1-.066-.528c.066-.462.066-1.122.132-1.782a11.639,11.639,0,0,0,0-1.518,10.791,10.791,0,0,1,.132-1.452c.132-.594.2-.594.726-.66a2.192,2.192,0,0,1,2.376,1.584,3.56,3.56,0,0,1-.2,1.65,6.358,6.358,0,0,1-1.386,2.31A3.65,3.65,0,0,1,156.75-23.232ZM180.51-2.574c.066,0,.2-.066.264,0a1.116,1.116,0,0,0,.924-.066,11.1,11.1,0,0,1,1.584-.462,14.527,14.527,0,0,0,3.366-2.112c.594-.528,1.122-1.188,1.716-1.716a10.326,10.326,0,0,0,1.518-2.244A22.524,22.524,0,0,0,191-11.352a27.161,27.161,0,0,0,1.782-5.544,22.833,22.833,0,0,0,.594-5.61,19.039,19.039,0,0,0-.132-2.706c-.066-.2-.066-.4-.132-.66-.132-.594-.2-1.386-.4-2.046-.2-.528-.264-1.056-.462-1.518a21.322,21.322,0,0,0-1.32-2.772,15.9,15.9,0,0,0-2.376-3.168,8.625,8.625,0,0,0-.792-.726,7.618,7.618,0,0,0-1.914-1.32,13.176,13.176,0,0,0-4.158-1.254,9.541,9.541,0,0,0-2.376,0,12.6,12.6,0,0,0-2.97.858,16.113,16.113,0,0,0-3.63,2.31,12.676,12.676,0,0,0-1.848,1.914,4.984,4.984,0,0,0-.726.924,8.314,8.314,0,0,0-.66,2.178l-.2,1.122a30.249,30.249,0,0,0-.66,4.158c-.066.726-.132,1.518-.132,2.244-.066.858-.066,1.782-.132,2.706,0,.66,0,1.386.066,2.112l.2,2.244a30.192,30.192,0,0,0,.924,4.752c.264.594.462,1.188.66,1.716a14.275,14.275,0,0,0,1.452,2.376,14.531,14.531,0,0,0,2.178,2.31,10.546,10.546,0,0,0,2.64,1.518A7.766,7.766,0,0,0,180.51-2.574Zm.066-5.874A2.394,2.394,0,0,1,178-9.042a7.41,7.41,0,0,1-1.914-3.234,8.825,8.825,0,0,1-.66-2.508c-.066-.264-.264-.462-.264-.726-.066-.924-.132-1.848-.264-2.772-.066-.726-.066-1.452-.066-2.178a46.208,46.208,0,0,1,.4-5.28l.528-3.1a2.478,2.478,0,0,1,.792-1.386,7.753,7.753,0,0,1,1.98-1.584,4.749,4.749,0,0,1,3.168-.4c.264.066.528.2.726.264A7.6,7.6,0,0,1,185.2-29.3c.462.792.726,1.65,1.122,2.442v.066c.066.726.462,1.32.462,1.98a15.974,15.974,0,0,1,.132,2.508,21.408,21.408,0,0,1-.726,5.016,16.3,16.3,0,0,1-1.254,3.564,11.487,11.487,0,0,1-1.188,2.178,9.064,9.064,0,0,1-.858,1.32A5.6,5.6,0,0,1,180.576-8.448ZM211-.924a3.36,3.36,0,0,0,1.914-.99,2.785,2.785,0,0,0,.726-2.706,2.777,2.777,0,0,0-1.056-1.65,5.7,5.7,0,0,0-3.828-.99c-.2,0-.33.066-.462,0a32.365,32.365,0,0,0-3.564-.264h-1.254a2.6,2.6,0,0,1-1.32-.33,1.24,1.24,0,0,1-.792-1.122,8.061,8.061,0,0,1,.066-1.782,4.963,4.963,0,0,1,0-.99,16.18,16.18,0,0,0,.132-1.782v-1.716c0-.726.132-1.452.066-2.178v-.264c.2-.33.066-.66.066-.924-.066-.33.132-.594.066-.858-.132-.726.066-1.452-.066-2.178v-.132a8.441,8.441,0,0,0,.066-2.244c0-.528.066-1.056.066-1.584V-26.8a12.885,12.885,0,0,0,.132-1.518,11.185,11.185,0,0,1,.066-1.518c.066-.858.066-1.716.132-2.574a13.475,13.475,0,0,0,0-2.31,13.7,13.7,0,0,0-.33-1.98,4.6,4.6,0,0,0-.726-1.518,2.64,2.64,0,0,0-2.706-.792,2.915,2.915,0,0,0-1.848,1.782,9.3,9.3,0,0,0-.462,2.97v1.716c-.066.462,0,.858-.066,1.254a5.366,5.366,0,0,0-.066,1.452c0,.66-.066,1.32-.066,1.98a10.649,10.649,0,0,1,0,1.452,12.02,12.02,0,0,0-.066,2.178v.33a9.942,9.942,0,0,0-.066,1.98A18.549,18.549,0,0,1,195.69-20v1.782a9.13,9.13,0,0,0-.066,1.914.124.124,0,0,1,0,.2,16.085,16.085,0,0,0-.066,1.782,10.217,10.217,0,0,1-.066,1.452c-.066.726-.066,1.386-.066,2.046,0,.528-.066,1.122-.066,1.65a4.963,4.963,0,0,1,0,.99,9.158,9.158,0,0,0,.264,3.036,4.088,4.088,0,0,0,1.584,1.914,3.588,3.588,0,0,0,1.518.726,10.69,10.69,0,0,0,2.508.594c.594.066,1.254.066,1.914.132a18.038,18.038,0,0,1,2.64.33,13.514,13.514,0,0,1,2.772.462A6.092,6.092,0,0,0,211-.924Z" transform="translate(-19112.332 11262.131)" fill="#f8f8f8"/>
      <path id="Trazado_13803" data-name="Trazado 13803" d="M51.813-.684a9.125,9.125,0,0,0,5.3-6.84c.342-1.71.855-3.42,1.2-5.3l2.052-8.55a14.132,14.132,0,0,1,1.368-3.762,3.358,3.358,0,0,1,2.223-1.539,9.282,9.282,0,0,1,3.762,0c1.539.513,2.907,0,4.275-.171a8.167,8.167,0,0,0,5.643-4.1,5.025,5.025,0,0,0,1.026-4.617,7.935,7.935,0,0,0-5.3-5.814,9.567,9.567,0,0,0-4.275-.855,2.215,2.215,0,0,1-2.565-2.394A12.943,12.943,0,0,1,66.69-47.2a13.092,13.092,0,0,1,2.394-5.472,2.32,2.32,0,0,1,2.223-1.2h4.1a12.943,12.943,0,0,0,2.565-.171c3.249-.684,6.5-4.275,6.156-7.7a8.181,8.181,0,0,0-3.078-5.814A11.518,11.518,0,0,0,74.9-69.6H72.675c-.684,0-1.026-.342-.855-1.026a32.346,32.346,0,0,1,.855-3.933c.342-1.881.855-3.762,1.2-5.643.171-1.368.342-2.907.684-4.446a29.934,29.934,0,0,0,.684-5.472,8.03,8.03,0,0,0-1.368-4.446,7.071,7.071,0,0,0-4.1-2.907,5.664,5.664,0,0,0-4.1,0,6.126,6.126,0,0,0-1.881.684,9.916,9.916,0,0,0-3.933,5.3,32.648,32.648,0,0,0-1.026,5.643c-.171,1.539-.684,3.078-.855,4.617-.342,1.881-.855,3.762-1.2,5.643-.513,2.565-2.052,4.446-4.959,4.617a29.024,29.024,0,0,1-6.669-.171,1.644,1.644,0,0,1-1.368-1.539,8.572,8.572,0,0,1,.171-2.907l.513-2.565.684-4.275A30.006,30.006,0,0,0,46-90.288a5.123,5.123,0,0,0-1.026-3.078,6.582,6.582,0,0,0-4.959-3.762,6.992,6.992,0,0,0-4.617.513,9.46,9.46,0,0,0-4.788,6.327c-.684,2.736-1.026,5.472-1.539,8.208a46.634,46.634,0,0,1-1.71,7.011A6.716,6.716,0,0,1,24.8-71.478a5.469,5.469,0,0,1-3.249.855c-1.71.171-3.42,0-5.13,0v.171H10.944c-.342,0-.684-.171-1.026,0A9.182,9.182,0,0,0,4.788-67.2,6.258,6.258,0,0,0,3.42-62.757a6.857,6.857,0,0,0,2.223,5.3,8.781,8.781,0,0,0,6.327,2.565,57.777,57.777,0,0,0,7.7,0c1.026,0,1.368.513,1.881,1.368a2.169,2.169,0,0,1,.171,1.026,25.511,25.511,0,0,1-.342,3.591,17.045,17.045,0,0,1-2.565,6.327c-.513.513-.855.855-1.539.855-2.223-.171-4.446.342-6.84.342a7.3,7.3,0,0,0-6.669,3.591,7.554,7.554,0,0,0-.855,6.327,7.9,7.9,0,0,0,5.814,5.3,6.365,6.365,0,0,0,3.078.342,8.583,8.583,0,0,1,2.052.342c1.026.513,2.052,1.71,1.71,2.736a26.548,26.548,0,0,1-.684,3.591c-.513,1.71-.513,3.42-.855,4.959a4.009,4.009,0,0,0,.342,2.052,34.342,34.342,0,0,0,.171,4.275,8.256,8.256,0,0,0,3.249,5.472,4.834,4.834,0,0,0,3.078.684,8.079,8.079,0,0,0,3.42-1.71c2.394-2.223,3.42-5.13,4.788-7.866a28.441,28.441,0,0,0,1.539-6.327,42.318,42.318,0,0,0,1.026-4.959c.513-2.736,1.881-4.1,4.617-4.1a13.907,13.907,0,0,1,5.3.342c2.223.342,3.249,2.052,2.736,4.275a.6.6,0,0,0-.171.342c-.513,3.42-1.71,6.5-2.223,9.918a17.348,17.348,0,0,0-.342,4.275,11.008,11.008,0,0,0,1.881,4.617A6.475,6.475,0,0,0,51.813-.684ZM40.7-42.408a2,2,0,0,1-1.881-1.539,1.3,1.3,0,0,1-.342-.684c-.171-2.394-.342-4.959.684-7.182A7.378,7.378,0,0,1,41.9-54.72c.171-.171.684,0,1.026-.171,1.368-.171,2.736.513,4.275.342h1.2c.684.171,1.368-.171,1.71.342a3.586,3.586,0,0,1,.684,1.881,25.512,25.512,0,0,1-.342,3.591c-.513,1.71-.855,3.42-2.052,4.788a2.9,2.9,0,0,1-2.736,1.539H43.434A14.624,14.624,0,0,0,40.7-42.408ZM126.369,6.84a6.182,6.182,0,0,0,4.1-3.249,15.135,15.135,0,0,0,1.71-8.55c0-3.078.171-6.156,0-9.234,0-2.052.171-4.1.171-6.156.171-2.736.171-5.3.171-8.037,0-2.565.171-5.3.171-7.866-.171-3.249,0-6.5,0-9.576v-6.5c.171-3.249.171-6.5.342-9.747,0-2.736,0-5.643.171-8.379v-8.721a11.309,11.309,0,0,0-1.026-5.3,7.354,7.354,0,0,0-8.208-3.933,8.115,8.115,0,0,0-5.643,6.327,52.184,52.184,0,0,0-.171,7.353V-68.4c-.171,3.591-.171,7.182-.342,10.773,0,1.71,0,3.42-.171,5.13a3.619,3.619,0,0,1-2.907,3.42,15.823,15.823,0,0,1-4.959.342,7.988,7.988,0,0,1-2.907-.513c-1.368-.342-1.881-1.026-1.71-2.223l1.2-7.353c.342-2.223.684-4.617,1.2-6.84l1.2-7.353a40.72,40.72,0,0,1,.855-4.446l2.052-10.6a9.336,9.336,0,0,0-.171-5.3,6.826,6.826,0,0,0-3.078-4.1c-1.539-.855-3.42-1.539-5.3-.684a4.861,4.861,0,0,0-2.052.684c-2.565,1.368-3.591,3.933-4.275,6.5-.513,2.736-.855,5.472-1.368,8.037-.855,4.275-1.71,8.379-2.394,12.654l-1.368,7.524c-.684,3.249-1.026,6.669-1.539,9.918-.342,2.394-.684,4.788-.855,7.353A10.2,10.2,0,0,0,90.8-38.817c1.71,2.907,4.446,4.275,7.7,4.959,1.881.342,3.762.171,5.472.342,3.078.171,6.156.171,9.234.171,1.71-.171,2.052,0,2.907,1.2a1.3,1.3,0,0,1,.342.684c.171,1.539.855,2.907.684,4.446a9.75,9.75,0,0,0,.171,2.223,6.519,6.519,0,0,1,.171,2.565c-.171,2.907-.171,5.643-.171,8.55-.171,2.394-.171,4.959-.171,7.524,0,1.71,0,3.591.171,5.3a28.306,28.306,0,0,0,1.026,3.591A9.84,9.84,0,0,0,120.9,5.985,6.28,6.28,0,0,0,126.369,6.84Z" transform="translate(-19264 11289.412)" fill="#f8f8f8"/>
      <path id="Trazado_13799" data-name="Trazado 13799" d="M48.159,5.18l-3.5,2.34a.745.745,0,0,0-.2.98l.42.68a.714.714,0,0,0,1,.22l1.84-1.24V18.28a.717.717,0,0,0,.72.72h1.28a.717.717,0,0,0,.72-.72V5.72a.717.717,0,0,0-.72-.72h-.96A1.058,1.058,0,0,0,48.159,5.18Zm9.68,9.24h.38L55.4,18.3a.436.436,0,0,0,.36.7h1.42a1.262,1.262,0,0,0,1.04-.54l3.16-4.68a7.087,7.087,0,0,0,1.56-4.1,5.1,5.1,0,0,0-10.2,0C52.739,12.68,54.979,14.42,57.839,14.42Zm0-7.18a2.373,2.373,0,0,1,2.44,2.44,2.43,2.43,0,0,1-4.86,0A2.357,2.357,0,0,1,57.839,7.24Z" transform="translate(-18941.445 11181.015)" fill="#f8f8f8"/>
    </g>
  </g>
</svg>
