<svg xmlns="http://www.w3.org/2000/svg" xmlns:xlink="http://www.w3.org/1999/xlink" width="414" height="171" viewBox="0 0 414 171">
  <defs>
    <clipPath id="clip-path">
      <rect id="Rectángulo_286" data-name="Rectángulo 286" width="195.452" height="125.359" fill="none"/>
    </clipPath>
    <clipPath id="clip-title-presion-white">
      <rect width="414" height="171"/>
    </clipPath>
  </defs>
  <g id="title-presion-white" clip-path="url(#clip-title-presion-white)">
    <g id="Grupo_10258" data-name="Grupo 10258" transform="translate(-269.003 -1024.143)">
      <path id="Trazado_13792" data-name="Trazado 13792" d="M43,5.18,39.5,7.52a.745.745,0,0,0-.2.98l.42.68a.714.714,0,0,0,1,.22l1.84-1.24V18.28a.717.717,0,0,0,.72.72h1.28a.717.717,0,0,0,.72-.72V5.72a.717.717,0,0,0-.72-.72H43.6A1.058,1.058,0,0,0,43,5.18Zm5.48,7.5v.72a.7.7,0,0,0,.72.7h4.98a.7.7,0,0,0,.72-.7v-.72a.713.713,0,0,0-.72-.7H49.2A.713.713,0,0,0,48.479,12.68Zm18.8,1.22h-.94V5.72a.713.713,0,0,0-.7-.72h-2.28a1.055,1.055,0,0,0-.9.5l-5.14,8.24a1.257,1.257,0,0,0-.22.76v1a.713.713,0,0,0,.7.72h5.84v2.06a.713.713,0,0,0,.7.72h1.3a.713.713,0,0,0,.7-.72V16.22h.94A.717.717,0,0,0,68,15.5v-.88A.717.717,0,0,0,67.279,13.9Zm-7.44,0,3.8-6.06V13.9Z" transform="translate(579.221 1028.143)" fill="#f8f8f8"/>
      <g id="Grupo_3246" data-name="Grupo 3246" transform="translate(301.443 1012)">
        <path id="Trazado_13791" data-name="Trazado 13791" d="M51.813-.684a9.125,9.125,0,0,0,5.3-6.84c.342-1.71.855-3.42,1.2-5.3l2.052-8.55a14.132,14.132,0,0,1,1.368-3.762,3.358,3.358,0,0,1,2.223-1.539,9.282,9.282,0,0,1,3.762,0c1.539.513,2.907,0,4.275-.171a8.167,8.167,0,0,0,5.643-4.1,5.025,5.025,0,0,0,1.026-4.617,7.935,7.935,0,0,0-5.3-5.814,9.567,9.567,0,0,0-4.275-.855,2.215,2.215,0,0,1-2.565-2.394A12.943,12.943,0,0,1,66.69-47.2a13.092,13.092,0,0,1,2.394-5.472,2.32,2.32,0,0,1,2.223-1.2h4.1a12.943,12.943,0,0,0,2.565-.171c3.249-.684,6.5-4.275,6.156-7.7a8.181,8.181,0,0,0-3.078-5.814A11.518,11.518,0,0,0,74.9-69.6H72.675c-.684,0-1.026-.342-.855-1.026a32.346,32.346,0,0,1,.855-3.933c.342-1.881.855-3.762,1.2-5.643.171-1.368.342-2.907.684-4.446a29.934,29.934,0,0,0,.684-5.472,8.03,8.03,0,0,0-1.368-4.446,7.071,7.071,0,0,0-4.1-2.907,5.664,5.664,0,0,0-4.1,0,6.126,6.126,0,0,0-1.881.684,9.916,9.916,0,0,0-3.933,5.3,32.648,32.648,0,0,0-1.026,5.643c-.171,1.539-.684,3.078-.855,4.617-.342,1.881-.855,3.762-1.2,5.643-.513,2.565-2.052,4.446-4.959,4.617a29.024,29.024,0,0,1-6.669-.171,1.644,1.644,0,0,1-1.368-1.539,8.572,8.572,0,0,1,.171-2.907l.513-2.565.684-4.275A30.006,30.006,0,0,0,46-90.288a5.123,5.123,0,0,0-1.026-3.078,6.582,6.582,0,0,0-4.959-3.762,6.992,6.992,0,0,0-4.617.513,9.46,9.46,0,0,0-4.788,6.327c-.684,2.736-1.026,5.472-1.539,8.208a46.634,46.634,0,0,1-1.71,7.011A6.716,6.716,0,0,1,24.8-71.478a5.469,5.469,0,0,1-3.249.855c-1.71.171-3.42,0-5.13,0v.171H10.944c-.342,0-.684-.171-1.026,0A9.182,9.182,0,0,0,4.788-67.2,6.258,6.258,0,0,0,3.42-62.757a6.857,6.857,0,0,0,2.223,5.3,8.781,8.781,0,0,0,6.327,2.565,57.777,57.777,0,0,0,7.7,0c1.026,0,1.368.513,1.881,1.368a2.169,2.169,0,0,1,.171,1.026,25.511,25.511,0,0,1-.342,3.591,17.045,17.045,0,0,1-2.565,6.327c-.513.513-.855.855-1.539.855-2.223-.171-4.446.342-6.84.342a7.3,7.3,0,0,0-6.669,3.591,7.554,7.554,0,0,0-.855,6.327,7.9,7.9,0,0,0,5.814,5.3,6.365,6.365,0,0,0,3.078.342,8.583,8.583,0,0,1,2.052.342c1.026.513,2.052,1.71,1.71,2.736a26.548,26.548,0,0,1-.684,3.591c-.513,1.71-.513,3.42-.855,4.959a4.009,4.009,0,0,0,.342,2.052,34.342,34.342,0,0,0,.171,4.275,8.256,8.256,0,0,0,3.249,5.472,4.834,4.834,0,0,0,3.078.684,8.079,8.079,0,0,0,3.42-1.71c2.394-2.223,3.42-5.13,4.788-7.866a28.441,28.441,0,0,0,1.539-6.327,42.318,42.318,0,0,0,1.026-4.959c.513-2.736,1.881-4.1,4.617-4.1a13.907,13.907,0,0,1,5.3.342c2.223.342,3.249,2.052,2.736,4.275a.6.6,0,0,0-.171.342c-.513,3.42-1.71,6.5-2.223,9.918a17.348,17.348,0,0,0-.342,4.275,11.008,11.008,0,0,0,1.881,4.617A6.475,6.475,0,0,0,51.813-.684ZM40.7-42.408a2,2,0,0,1-1.881-1.539,1.3,1.3,0,0,1-.342-.684c-.171-2.394-.342-4.959.684-7.182A7.378,7.378,0,0,1,41.9-54.72c.171-.171.684,0,1.026-.171,1.368-.171,2.736.513,4.275.342h1.2c.684.171,1.368-.171,1.71.342a3.586,3.586,0,0,1,.684,1.881,25.512,25.512,0,0,1-.342,3.591c-.513,1.71-.855,3.42-2.052,4.788a2.9,2.9,0,0,1-2.736,1.539H43.434A14.624,14.624,0,0,0,40.7-42.408ZM107.046,3.078c2.736-1.026,4.1-3.42,4.617-6.327a27.533,27.533,0,0,0,0-6.5,46.428,46.428,0,0,0-.171-4.788c0-1.71-.171-3.591-.171-5.472a16.505,16.505,0,0,1,0-2.907c0-1.881,0-3.933-.171-5.814a43.235,43.235,0,0,1-.171-4.788c0-2.052,0-4.275-.171-6.5v-4.617c0-2.394-.171-4.617-.171-7.011V-56.43c-.171-2.052-.171-4.1-.342-6.156,0-1.881-.171-3.591-.171-5.3-.171-1.881-.171-3.762-.342-5.472-.171-2.052-.171-4.1-.342-6.156a13.29,13.29,0,0,1-.342-2.736,18.611,18.611,0,0,0-.513-5.3,11.356,11.356,0,0,0-.513-2.565c-1.539-2.736-3.762-4.788-7.182-5.13A7.58,7.58,0,0,0,93.879-92c-2.394,3.249-3.42,7.011-4.275,10.944A7.378,7.378,0,0,0,92-73.359c1.71.855,1.539,2.565,1.539,3.933a4.734,4.734,0,0,1,.171,1.539c0,.855.171,1.881.171,2.736.171,2.394,0,4.617.171,7.011.171,2.223.171,4.617.342,6.84v8.379c.171,2.052.171,4.275.171,6.327.171,2.907.171,5.643.171,8.379,0,2.223.171,4.275.171,6.5,0,2.907.171,5.985.342,8.892.171,2.394.171,4.959.342,7.353A14.971,14.971,0,0,0,96.615-.684C99.009,3.762,102.942,4.788,107.046,3.078Z" transform="translate(0 146)" fill="#f8f8f8"/>
        <g id="Grupo_705" data-name="Grupo 705" transform="translate(135.994 48.428)">
          <g id="Grupo_511" data-name="Grupo 511" transform="translate(0 0)" clip-path="url(#clip-path)">
            <path id="Trazado_13790" data-name="Trazado 13790" d="M2.967-1.587a2.691,2.691,0,0,0,3.174-.069,3.5,3.5,0,0,0,1.1-1.38,5.962,5.962,0,0,0,.483-1.449,19.505,19.505,0,0,0,.138-3.45A1.847,1.847,0,0,1,8.97-9.8c.69-.345,1.38-.69,2.07-1.1a15.8,15.8,0,0,0,3.588-3.174,15.359,15.359,0,0,0,1.311-1.656l1.242-1.932c.414-.828.828-1.587,1.173-2.415a13.324,13.324,0,0,0,1.035-2.76,14.92,14.92,0,0,0,.69-3.036,21.307,21.307,0,0,0,.069-2.967,6.386,6.386,0,0,0-.276-1.587,4.084,4.084,0,0,0-.345-1.311c-.276-.621-.483-1.242-.759-1.863a28.524,28.524,0,0,0-1.518-2.415,12.487,12.487,0,0,0-2.208-2.07,11.026,11.026,0,0,0-2.76-1.587,9.408,9.408,0,0,0-4.14-.759,10.139,10.139,0,0,0-3.8.552,4.4,4.4,0,0,0-2.553,2.415,16.973,16.973,0,0,1-.483,2A3.688,3.688,0,0,0,1.1-33.948c.069.828-.069,1.656,0,2.484.069.621-.069,1.311.069,2v.069a1.167,1.167,0,0,0-.069.966c.069.345-.138.69-.069,1.035.207.828-.069,1.725.069,2.553l.069.069A6.707,6.707,0,0,0,1.1-22.425c-.069,1.1,0,2.277,0,3.381v3.036c-.069,1.035,0,2.07-.069,3.036v3.036A11.633,11.633,0,0,0,1.1-7.728v.207c-.207.69.069,1.449-.069,2.139a2.23,2.23,0,0,0,.207,1.1A4.2,4.2,0,0,0,2.967-1.587Zm5.8-16.284a.618.618,0,0,1-.828-.414v-.069c0-.828,0-1.587.069-2.346v-.207c-.207-.9.069-1.794-.069-2.622-.069-.483.069-.828,0-1.311a2.25,2.25,0,0,1,0-1.173c.069,0,0-.069,0-.069a13.32,13.32,0,0,1,0-2.346A7.9,7.9,0,0,1,8-30.636a1.91,1.91,0,0,0-.069-.621A8.8,8.8,0,0,1,8-32.637c-.069-.207.069-.414.345-.552a1.808,1.808,0,0,1,1.035-.069A4.136,4.136,0,0,1,12.006-31.6a14.892,14.892,0,0,1,1.173,2.346,5.935,5.935,0,0,1,.069,1.1,7.989,7.989,0,0,1-.345,3.381,18.534,18.534,0,0,1-2.208,4.554,12.357,12.357,0,0,1-1.38,1.932C9.108-18.147,8.97-17.94,8.763-17.871ZM26.289-2.208a2.212,2.212,0,0,0,1.38-.69A6.019,6.019,0,0,0,28.98-5.451a3.9,3.9,0,0,0,.138-1.518c-.138-.966,0-1.932-.069-2.9v-.138c.069-.207.069-.414.276-.483a.7.7,0,0,1,.69.207l.759,1.035a41.262,41.262,0,0,1,2.691,3.381,11.878,11.878,0,0,0,2.208,2.346,3.366,3.366,0,0,0,3.312.414c.483-.138.759-.552,1.1-.9a2.8,2.8,0,0,0,.69-2.07,4.924,4.924,0,0,0-1.173-2.9c-.9-1.242-1.863-2.484-2.829-3.657-.828-1.035-1.656-2.07-2.484-3.036-.276-.345-.276-.69-.483-1.035a3.166,3.166,0,0,1,.69-1.725,18.3,18.3,0,0,0,2.76-2.9,13.726,13.726,0,0,0,1.587-2.484,10.406,10.406,0,0,0,1.242-5.727,2.83,2.83,0,0,1-.069-.759,6.7,6.7,0,0,0-.759-2.346,9.339,9.339,0,0,0-3.519-3.795,11.528,11.528,0,0,0-5.175-1.725,15.076,15.076,0,0,0-2.967.345,4.75,4.75,0,0,0-2.76,1.863,12.656,12.656,0,0,0-.9,1.656,8.344,8.344,0,0,0-.552,2.346,13.442,13.442,0,0,0-.138,1.725,12.214,12.214,0,0,1-.069,1.587c0,.9-.069,1.725-.138,2.622-.069.828-.138,1.656-.138,2.553a6.314,6.314,0,0,1-.069,1.1,13.857,13.857,0,0,0-.069,1.725c0,.483-.069,1.035-.069,1.518-.069.552-.069,1.1-.138,1.656a11.7,11.7,0,0,1-.069,1.587c-.069.966-.069,2-.069,2.967a6.061,6.061,0,0,0-.069,1.932c0,.069.069.138,0,.207a1.345,1.345,0,0,0,0,1.035,5.222,5.222,0,0,0-.069,1.035L22.494-6a5.051,5.051,0,0,0,1.173,2.691,3.631,3.631,0,0,0,.966.828A2.258,2.258,0,0,0,26.289-2.208ZM30.7-24.288c-.552.207-.828.138-.828-.414a1.186,1.186,0,0,1-.069-.552c.069-.483.069-1.173.138-1.863a12.167,12.167,0,0,0,0-1.587,11.283,11.283,0,0,1,.138-1.518c.138-.621.207-.621.759-.69a2.292,2.292,0,0,1,2.484,1.656,3.722,3.722,0,0,1-.207,1.725,6.647,6.647,0,0,1-1.449,2.415A3.817,3.817,0,0,1,30.7-24.288ZM50.439-2.622c.759.138,1.518-.138,2.277-.069a18.183,18.183,0,0,0,1.932-.138A3.832,3.832,0,0,0,57.063-4,2.225,2.225,0,0,0,57.684-5.8a2.7,2.7,0,0,0-1.311-1.932,5.911,5.911,0,0,0-2.829-.69c-.759-.069-1.518,0-2.277,0a1.366,1.366,0,0,1-1.518-1.311,10.077,10.077,0,0,1-.207-1.518v-3.588c.069-.966.276-1.242,1.242-1.518h.483a14.388,14.388,0,0,1,1.725,0,7.977,7.977,0,0,0,2.553-.483,3.065,3.065,0,0,0,2.277-3.036,2.863,2.863,0,0,0-1.794-2.622,7.382,7.382,0,0,0-2.967-.621c-.69.069-1.38,0-2.139.069a.737.737,0,0,1-.621-.483,1.942,1.942,0,0,1-.276-1.38,3.366,3.366,0,0,0,.069-1.173c.069-1.656.069-3.243.069-4.83,0-.828.483-1.449,1.311-1.38,1.311,0,2.553-.207,3.8-.207a4.033,4.033,0,0,0,1.311-.138,4.084,4.084,0,0,0,2.553-1.656A2.7,2.7,0,0,0,59.2-37.4a4.583,4.583,0,0,0-3.312-1.794c-1.863-.069-3.726.138-5.589.207-.069,0-.069-.069-.138,0-.69.207-1.449.069-2.139.207a11.413,11.413,0,0,0-2.208.483,3.59,3.59,0,0,0-2.346,1.863,2.672,2.672,0,0,0-.207,1.932.762.762,0,0,1,0,.552,1.021,1.021,0,0,0,0,.9v.345c.069.966.138,1.863.138,2.76a29.047,29.047,0,0,1-.069,4.9c-.138.828-.069,1.725-.138,2.553-.138.828-.069,1.587-.138,2.415-.138,1.173-.069,2.277-.138,3.45a31.6,31.6,0,0,0-.069,3.726c.138.966-.069,2.346.138,3.8a12.641,12.641,0,0,0,.621,2.691,5.177,5.177,0,0,0,3.45,3.312A14.281,14.281,0,0,0,50.439-2.622ZM65-.69A3.712,3.712,0,0,0,67.275-.9a5.872,5.872,0,0,1,1.173-.414,30.12,30.12,0,0,0,3.933-2,9.718,9.718,0,0,0,3.243-2.967A12.38,12.38,0,0,0,77-8.97a10.965,10.965,0,0,0,.69-4.071,14.839,14.839,0,0,0-.138-1.587,13.851,13.851,0,0,0-.9-3.312,18.877,18.877,0,0,0-3.45-4.968c-1.38-1.518-2.967-2.829-4.278-4.416a3.1,3.1,0,0,1-.69-3.312,5.928,5.928,0,0,1,2.346-3.312,7.949,7.949,0,0,1,2.208-.966,4.187,4.187,0,0,0,1.794-.552,2.933,2.933,0,0,0,1.518-2.484,2.829,2.829,0,0,0-.414-1.656,2.944,2.944,0,0,0-2.277-1.518,5.7,5.7,0,0,0-2.139.138,12.843,12.843,0,0,0-2.139.69,12.946,12.946,0,0,0-2.484,1.449,11.664,11.664,0,0,0-3.381,3.933,13.271,13.271,0,0,0-.966,2.277,9.266,9.266,0,0,0-.483,1.863,9.075,9.075,0,0,0,.138,3.036,11.8,11.8,0,0,0,.621,2.07,13.735,13.735,0,0,0,2.484,3.45c1.035,1.173,2.208,2.208,3.312,3.312a14.894,14.894,0,0,1,1.863,2.277,7.749,7.749,0,0,1,1.242,3.381,7.6,7.6,0,0,1-.138,1.242,4.425,4.425,0,0,1-1.518,2.829,12.641,12.641,0,0,1-3.381,1.932l-2,.828A3.819,3.819,0,0,0,63-5.106,3.118,3.118,0,0,0,63-2,2.523,2.523,0,0,0,65-.69ZM81.7-4.968a2.829,2.829,0,0,0,3.933-.414,6.023,6.023,0,0,0,1.38-4.14,11.508,11.508,0,0,0-.138-2.208v-.207a1.345,1.345,0,0,0,0-1.035,5.222,5.222,0,0,0,.069-1.035,6.95,6.95,0,0,1-.069-2.07,11.077,11.077,0,0,1,0-2.139c.069-.483-.069-.966,0-1.449.069-.759.069-1.518.069-2.277,0-.828.069-1.587.069-2.415,0-.9.069-1.725.138-2.622V-28.29c.069-.9.069-1.794.138-2.691v-1.173c0-.621.069-1.173.069-1.794-.069-.345-.207-.69-.276-1.035a3.007,3.007,0,0,0-1.311-1.725,2.782,2.782,0,0,0-2.415-.621,3.639,3.639,0,0,0-.828.207,3.516,3.516,0,0,0-1.863,1.863,2.066,2.066,0,0,0-.276.69,9.438,9.438,0,0,0-.138,2c-.069.9-.069,1.794-.138,2.691v1.242c-.069.9-.069,1.794-.138,2.622-.069.483,0,.966-.069,1.518a3.746,3.746,0,0,0,0,1.242,4.753,4.753,0,0,1-.069,1.38c-.069.759-.069,1.587-.069,2.415v1.587c-.069,1.035,0,2.07,0,3.1,0,.966,0,2,.069,2.967A14.131,14.131,0,0,0,79.9-9.384v.276a1.335,1.335,0,0,0,0,.9,11.89,11.89,0,0,0,.483,1.449A5.742,5.742,0,0,0,81.7-4.968ZM96.324-42.78a2.682,2.682,0,0,0,2-.621c.621-.414,1.242-.828,1.863-1.173l3.588-2.277c1.173-.759,2.415-1.449,3.657-2.139A3.63,3.63,0,0,0,109.5-51.2a3.2,3.2,0,0,0,.069-1.794,2.538,2.538,0,0,0-2.346-1.656,3.5,3.5,0,0,0-2.346.69c-1.587,1.1-3.312,2.07-4.968,3.174-1.587,1.1-3.243,2.139-4.9,3.174a2.62,2.62,0,0,0-1.1,1.725,1.75,1.75,0,0,0-.138.828A2.581,2.581,0,0,0,96.324-42.78Zm5.8,40.089c.069,0,.207-.069.276,0a1.167,1.167,0,0,0,.966-.069,11.6,11.6,0,0,1,1.656-.483,15.188,15.188,0,0,0,3.519-2.208c.621-.552,1.173-1.242,1.794-1.794a10.8,10.8,0,0,0,1.587-2.346,23.546,23.546,0,0,0,1.173-2.277,28.4,28.4,0,0,0,1.863-5.8,23.871,23.871,0,0,0,.621-5.865,19.9,19.9,0,0,0-.138-2.829c-.069-.207-.069-.414-.138-.69-.138-.621-.207-1.449-.414-2.139-.207-.552-.276-1.1-.483-1.587a22.293,22.293,0,0,0-1.38-2.9,16.625,16.625,0,0,0-2.484-3.312,9.018,9.018,0,0,0-.828-.759,7.964,7.964,0,0,0-2-1.38,13.775,13.775,0,0,0-4.347-1.311,9.975,9.975,0,0,0-2.484,0,13.177,13.177,0,0,0-3.1.9,16.845,16.845,0,0,0-3.8,2.415,13.253,13.253,0,0,0-1.932,2,5.21,5.21,0,0,0-.759.966,8.692,8.692,0,0,0-.69,2.277l-.207,1.173a31.623,31.623,0,0,0-.69,4.347c-.069.759-.138,1.587-.138,2.346-.069.9-.069,1.863-.138,2.829,0,.69,0,1.449.069,2.208l.207,2.346a31.563,31.563,0,0,0,.966,4.968c.276.621.483,1.242.69,1.794a14.923,14.923,0,0,0,1.518,2.484,15.192,15.192,0,0,0,2.277,2.415,11.025,11.025,0,0,0,2.76,1.587A8.119,8.119,0,0,0,102.12-2.691Zm.069-6.141A2.5,2.5,0,0,1,99.5-9.453a7.747,7.747,0,0,1-2-3.381,9.227,9.227,0,0,1-.69-2.622c-.069-.276-.276-.483-.276-.759-.069-.966-.138-1.932-.276-2.9-.069-.759-.069-1.518-.069-2.277a48.311,48.311,0,0,1,.414-5.52l.552-3.243A2.59,2.59,0,0,1,97.98-31.6a8.1,8.1,0,0,1,2.07-1.656,4.965,4.965,0,0,1,3.312-.414c.276.069.552.207.759.276a7.946,7.946,0,0,1,2.9,2.76c.483.828.759,1.725,1.173,2.553v.069c.069.759.483,1.38.483,2.07a16.7,16.7,0,0,1,.138,2.622,22.381,22.381,0,0,1-.759,5.244,17.043,17.043,0,0,1-1.311,3.726,12.009,12.009,0,0,1-1.242,2.277,9.477,9.477,0,0,1-.9,1.38A5.859,5.859,0,0,1,102.189-8.832Zm19.734,8A3.2,3.2,0,0,0,123.579-2a5.536,5.536,0,0,0,.759-2.346,11.7,11.7,0,0,1,.069-1.587,19.39,19.39,0,0,1,.069-2c0-.759-.069-1.518-.069-2.277V-15.8c0-.828.069-1.587.069-2.346a3.359,3.359,0,0,1,.069-.828.46.46,0,0,1,.345-.483c.138-.069.276.138.414.276a.953.953,0,0,1,.207.276c.207.759.621,1.449.9,2.208.621,1.311,1.173,2.622,1.794,3.933.552,1.035,1.035,2.139,1.587,3.105a24.387,24.387,0,0,0,2.277,3.933,10.532,10.532,0,0,1,1.1,1.518,12.6,12.6,0,0,0,.9,1.1,2.663,2.663,0,0,0,2.691.9A2.92,2.92,0,0,0,138.9-4.071a11.1,11.1,0,0,0,.483-2.553c.276-1.656.345-3.381.483-5.037.069-1.311.069-2.553.138-3.864l.207-3.864c.069-1.449.138-2.967.069-4.416V-24.84c.069-1.035.069-2.07.069-3.036v-4.761l.069-.9a6.66,6.66,0,0,1,0-1.173,12.618,12.618,0,0,0-.138-2.277,6.409,6.409,0,0,1-.276-.9,4.087,4.087,0,0,0-1.38-2.415,2.409,2.409,0,0,0-1.656-.69A2.984,2.984,0,0,0,134.55-39.4a7.27,7.27,0,0,0-.828,2.622,9.438,9.438,0,0,0-.138,2c-.069.759-.069,2.277-.069,2.967v3.45c-.069.414,0,.828-.069,1.242a8.409,8.409,0,0,0,0,1.863c.069.759,0,1.449,0,2.208v3.588c-.069.138-.069.345-.345.414-.207,0-.276-.138-.414-.276,0-.069-.069-.138-.069-.207-.483-.9-.828-1.863-1.242-2.76-.552-1.449-1.1-2.9-1.725-4.347-.483-1.173-.966-2.277-1.38-3.45a18.578,18.578,0,0,1-.9-2.208l-1.035-2.415a5.736,5.736,0,0,0-2.277-2.829,3.323,3.323,0,0,0-2.277-.552,3.483,3.483,0,0,0-2.829,2.553,20.794,20.794,0,0,0-.69,4.554l-.207,3.588c-.069,1.242-.207,2.484-.207,3.726-.069.828,0,1.656-.069,2.484a12.832,12.832,0,0,0-.069,2.829v2.346c0,1.035-.069,2,0,3.036,0,.759-.069,1.587,0,2.415,0,.414.069.9.069,1.311a15.561,15.561,0,0,0,0,1.794,9.718,9.718,0,0,1,.069,1.38,18.061,18.061,0,0,0,.138,2.622,2.76,2.76,0,0,0,.759,1.587A2.96,2.96,0,0,0,121.923-.828Z" transform="translate(25.246 53.629)" fill="#f8f8f8"/>
            <path id="Trazado_13789" data-name="Trazado 13789" d="M32.706-1.863a3.015,3.015,0,0,0,2.07-2A7.009,7.009,0,0,0,35.19-6.21c.069-.828,0-1.725,0-2.553V-10.9a20.9,20.9,0,0,0-.138-2.139c0-1.587.069-3.174-.069-4.761-.138-1.242-.069-2.553-.138-3.8a13.475,13.475,0,0,1-.207-2.346c0-.069.069-.138,0-.138a.888.888,0,0,1-.069-.828c0-.345-.207-.552-.207-.9a12.87,12.87,0,0,0-.276-2.208c-.069-.69-.345-1.449-.483-2.208A21.809,21.809,0,0,0,32.43-33.81a17.82,17.82,0,0,0-1.518-3.036,8.884,8.884,0,0,0-1.518-2.07,3.348,3.348,0,0,0-3.036-1.035,2.359,2.359,0,0,0-1.794.966A13.848,13.848,0,0,0,22.632-35.4l-1.794,4.485c-.483,1.38-1.1,2.829-1.587,4.278-.828,2.277-1.587,4.623-2.208,7.038-.276,1.173-.621,2.346-.828,3.519l-.621,3.243c-.207,1.1-.345,2.139-.483,3.243a9.438,9.438,0,0,0-.138,2v.138A2.1,2.1,0,0,0,15.042-6a3.527,3.527,0,0,0,1.311,2.139A2.122,2.122,0,0,0,18.7-3.45a3.718,3.718,0,0,0,.9-.483,5.134,5.134,0,0,0,1.449-2.139c.138-.69.207-1.449.345-2.139l.414-3.036a1.1,1.1,0,0,1,.345-.69,4.464,4.464,0,0,1,.552-.621.524.524,0,0,1,.621-.207c.69,0,1.38,0,2.07.069.759.069,1.587.138,2.415.138a1.12,1.12,0,0,1,.621.345,2.326,2.326,0,0,1,.345,1.173c.069,1.932-.069,3.864.138,5.8a3.729,3.729,0,0,0,1.449,2.9A2.279,2.279,0,0,0,32.706-1.863ZM27.117-18.975a2.3,2.3,0,0,1-.966-.069,3.093,3.093,0,0,0-.828-.069,1.365,1.365,0,0,1-.759-.138.812.812,0,0,1-.621-.828,3.5,3.5,0,0,1,.207-1.173c.345-1.242.828-2.484,1.242-3.795.414-.966.759-2,1.173-3.036,0-.069.069-.138.138-.276a.522.522,0,0,1,.552-.207c.207,0,.276.207.276.345a7.219,7.219,0,0,1,.276,1.173c.138.828.207,1.656.414,2.484v.069c-.069.759.138,1.449.138,2.208a8.454,8.454,0,0,1,.138,1.311,3.645,3.645,0,0,1-.069.9A1.4,1.4,0,0,1,27.117-18.975ZM41.331-2.208a2.212,2.212,0,0,0,1.38-.69,6.019,6.019,0,0,0,1.311-2.553,3.9,3.9,0,0,0,.138-1.518c-.138-.966,0-1.932-.069-2.9v-.138c.069-.207.069-.414.276-.483a.7.7,0,0,1,.69.207l.759,1.035a41.262,41.262,0,0,1,2.691,3.381,11.878,11.878,0,0,0,2.208,2.346,3.366,3.366,0,0,0,3.312.414c.483-.138.759-.552,1.1-.9a2.8,2.8,0,0,0,.69-2.07,4.924,4.924,0,0,0-1.173-2.9c-.9-1.242-1.863-2.484-2.829-3.657-.828-1.035-1.656-2.07-2.484-3.036-.276-.345-.276-.69-.483-1.035a3.166,3.166,0,0,1,.69-1.725,18.3,18.3,0,0,0,2.76-2.9,13.726,13.726,0,0,0,1.587-2.484,10.406,10.406,0,0,0,1.242-5.727,2.83,2.83,0,0,1-.069-.759,6.7,6.7,0,0,0-.759-2.346,9.339,9.339,0,0,0-3.519-3.795,11.528,11.528,0,0,0-5.175-1.725,15.076,15.076,0,0,0-2.967.345,4.75,4.75,0,0,0-2.76,1.863,12.656,12.656,0,0,0-.9,1.656,8.344,8.344,0,0,0-.552,2.346,13.442,13.442,0,0,0-.138,1.725,12.214,12.214,0,0,1-.069,1.587c0,.9-.069,1.725-.138,2.622-.069.828-.138,1.656-.138,2.553a6.314,6.314,0,0,1-.069,1.1,13.858,13.858,0,0,0-.069,1.725c0,.483-.069,1.035-.069,1.518-.069.552-.069,1.1-.138,1.656a11.7,11.7,0,0,1-.069,1.587c-.069.966-.069,2-.069,2.967a6.061,6.061,0,0,0-.069,1.932c0,.069.069.138,0,.207a1.345,1.345,0,0,0,0,1.035,5.222,5.222,0,0,0-.069,1.035L37.536-6a5.051,5.051,0,0,0,1.173,2.691,3.631,3.631,0,0,0,.966.828A2.258,2.258,0,0,0,41.331-2.208Zm4.416-22.08c-.552.207-.828.138-.828-.414a1.186,1.186,0,0,1-.069-.552c.069-.483.069-1.173.138-1.863a12.167,12.167,0,0,0,0-1.587,11.283,11.283,0,0,1,.138-1.518c.138-.621.207-.621.759-.69a2.292,2.292,0,0,1,2.484,1.656,3.722,3.722,0,0,1-.207,1.725,6.647,6.647,0,0,1-1.449,2.415A3.817,3.817,0,0,1,45.747-24.288Zm23.8,22.563a3.222,3.222,0,0,0,1.656-1.794,7.245,7.245,0,0,0,.552-2.415c.069-.759,0-1.587.138-2.415.138-1.242,0-2.484.069-3.726.207-1.449,0-2.967.207-4.416.069-1.035-.069-2,.069-3.036.138-.759.069-1.587.138-2.415.138-.759-.069-1.587.138-2.346-.069-1.242.207-2.484.207-3.726-.069-1.1,0-2.208,0-3.312a9.247,9.247,0,0,1,.069-1.38,2.935,2.935,0,0,1,.966-1.587c.069-.069.138-.207.276-.207a7.6,7.6,0,0,0,1.242-.138,25.713,25.713,0,0,0,3.243-.069,4.612,4.612,0,0,0,1.725-.552.358.358,0,0,0,.276-.138,3.608,3.608,0,0,0,1.173-.828,2.322,2.322,0,0,0,.276-1.518,2.556,2.556,0,0,0-1.449-1.794,4.5,4.5,0,0,0-2.484-.69c-1.932,0-3.933,0-5.934.069-1.725.138-3.519.069-5.244.069H61.824c-.414,0-.828.069-1.242.069a3.076,3.076,0,0,0-2.622,2.07,2.3,2.3,0,0,0-.069.966,1.481,1.481,0,0,0,.276,1.035,3.277,3.277,0,0,0,2.9,1.449h3.864a1.07,1.07,0,0,1,1.035.621,5.018,5.018,0,0,1,.483,2,32.443,32.443,0,0,1-.069,4.485c-.138.9,0,1.863-.138,2.829-.138.759,0,1.449-.138,2.208s0,1.518-.138,2.346c-.138.966,0,2-.138,2.967-.138,1.311,0,2.691-.138,4-.138,1.38,0,2.76-.138,4.14-.069,1.1,0,2.208,0,3.243a4.033,4.033,0,0,0,.138,1.311,3.27,3.27,0,0,0,.828,1.863A2.608,2.608,0,0,0,69.552-1.725Zm22.08-.9c.759.138,1.518-.138,2.277-.069a18.183,18.183,0,0,0,1.932-.138A3.832,3.832,0,0,0,98.256-4,2.225,2.225,0,0,0,98.877-5.8a2.7,2.7,0,0,0-1.311-1.932,5.911,5.911,0,0,0-2.829-.69c-.759-.069-1.518,0-2.277,0a1.366,1.366,0,0,1-1.518-1.311,10.077,10.077,0,0,1-.207-1.518v-3.588c.069-.966.276-1.242,1.242-1.518h.483a14.388,14.388,0,0,1,1.725,0,7.976,7.976,0,0,0,2.553-.483,3.065,3.065,0,0,0,2.277-3.036,2.863,2.863,0,0,0-1.794-2.622,7.382,7.382,0,0,0-2.967-.621c-.69.069-1.38,0-2.139.069a.737.737,0,0,1-.621-.483,1.942,1.942,0,0,1-.276-1.38,3.366,3.366,0,0,0,.069-1.173c.069-1.656.069-3.243.069-4.83,0-.828.483-1.449,1.311-1.38,1.311,0,2.553-.207,3.8-.207a4.033,4.033,0,0,0,1.311-.138,4.084,4.084,0,0,0,2.553-1.656,2.7,2.7,0,0,0,.069-3.105,4.583,4.583,0,0,0-3.312-1.794c-1.863-.069-3.726.138-5.589.207-.069,0-.069-.069-.138,0-.69.207-1.449.069-2.139.207a11.413,11.413,0,0,0-2.208.483,3.59,3.59,0,0,0-2.346,1.863,2.672,2.672,0,0,0-.207,1.932.762.762,0,0,1,0,.552,1.021,1.021,0,0,0,0,.9v.345c.069.966.138,1.863.138,2.76a29.046,29.046,0,0,1-.069,4.9c-.138.828-.069,1.725-.138,2.553-.138.828-.069,1.587-.138,2.415-.138,1.173-.069,2.277-.138,3.45a31.6,31.6,0,0,0-.069,3.726c.138.966-.069,2.346.138,3.8A12.641,12.641,0,0,0,84.8-6.417a5.177,5.177,0,0,0,3.45,3.312A14.281,14.281,0,0,0,91.632-2.622Zm15.387.414a2.212,2.212,0,0,0,1.38-.69,6.019,6.019,0,0,0,1.311-2.553,3.9,3.9,0,0,0,.138-1.518c-.138-.966,0-1.932-.069-2.9v-.138c.069-.207.069-.414.276-.483a.7.7,0,0,1,.69.207l.759,1.035a41.262,41.262,0,0,1,2.691,3.381A11.879,11.879,0,0,0,116.4-3.519a3.366,3.366,0,0,0,3.312.414c.483-.138.759-.552,1.1-.9a2.8,2.8,0,0,0,.69-2.07,4.924,4.924,0,0,0-1.173-2.9c-.9-1.242-1.863-2.484-2.829-3.657-.828-1.035-1.656-2.07-2.484-3.036-.276-.345-.276-.69-.483-1.035a3.166,3.166,0,0,1,.69-1.725,18.3,18.3,0,0,0,2.76-2.9,13.726,13.726,0,0,0,1.587-2.484,10.405,10.405,0,0,0,1.242-5.727,2.83,2.83,0,0,1-.069-.759,6.7,6.7,0,0,0-.759-2.346,9.339,9.339,0,0,0-3.519-3.795,11.528,11.528,0,0,0-5.175-1.725,15.076,15.076,0,0,0-2.967.345,4.75,4.75,0,0,0-2.76,1.863,12.656,12.656,0,0,0-.9,1.656,8.344,8.344,0,0,0-.552,2.346,13.442,13.442,0,0,0-.138,1.725,12.214,12.214,0,0,1-.069,1.587c0,.9-.069,1.725-.138,2.622-.069.828-.138,1.656-.138,2.553a6.314,6.314,0,0,1-.069,1.1,13.857,13.857,0,0,0-.069,1.725c0,.483-.069,1.035-.069,1.518-.069.552-.069,1.1-.138,1.656a11.7,11.7,0,0,1-.069,1.587c-.069.966-.069,2-.069,2.967a6.061,6.061,0,0,0-.069,1.932c0,.069.069.138,0,.207a1.346,1.346,0,0,0,0,1.035,5.222,5.222,0,0,0-.069,1.035L103.224-6A5.051,5.051,0,0,0,104.4-3.312a3.631,3.631,0,0,0,.966.828A2.259,2.259,0,0,0,107.019-2.208Zm4.416-22.08c-.552.207-.828.138-.828-.414a1.186,1.186,0,0,1-.069-.552c.069-.483.069-1.173.138-1.863a12.167,12.167,0,0,0,0-1.587,11.283,11.283,0,0,1,.138-1.518c.138-.621.207-.621.759-.69a2.292,2.292,0,0,1,2.484,1.656,3.722,3.722,0,0,1-.207,1.725,6.647,6.647,0,0,1-1.449,2.415A3.816,3.816,0,0,1,111.435-24.288Zm14.076,19.32a2.829,2.829,0,0,0,3.933-.414,6.023,6.023,0,0,0,1.38-4.14,11.508,11.508,0,0,0-.138-2.208v-.207a1.345,1.345,0,0,0,0-1.035,5.222,5.222,0,0,0,.069-1.035,6.95,6.95,0,0,1-.069-2.07,11.077,11.077,0,0,1,0-2.139c.069-.483-.069-.966,0-1.449.069-.759.069-1.518.069-2.277,0-.828.069-1.587.069-2.415,0-.9.069-1.725.138-2.622V-28.29c.069-.9.069-1.794.138-2.691v-1.173c0-.621.069-1.173.069-1.794-.069-.345-.207-.69-.276-1.035a3.007,3.007,0,0,0-1.311-1.725,2.782,2.782,0,0,0-2.415-.621,3.639,3.639,0,0,0-.828.207,3.516,3.516,0,0,0-1.863,1.863,2.066,2.066,0,0,0-.276.69,9.438,9.438,0,0,0-.138,2c-.069.9-.069,1.794-.138,2.691v1.242c-.069.9-.069,1.794-.138,2.622-.069.483,0,.966-.069,1.518a3.746,3.746,0,0,0,0,1.242,4.753,4.753,0,0,1-.069,1.38c-.069.759-.069,1.587-.069,2.415v1.587c-.069,1.035,0,2.07,0,3.1,0,.966,0,2,.069,2.967a14.131,14.131,0,0,0,.069,2.415v.276a1.335,1.335,0,0,0,0,.9,11.89,11.89,0,0,0,.483,1.449A5.742,5.742,0,0,0,125.511-4.968Zm25.6,3.105a3.015,3.015,0,0,0,2.07-2,7.009,7.009,0,0,0,.414-2.346c.069-.828,0-1.725,0-2.553V-10.9a20.9,20.9,0,0,0-.138-2.139c0-1.587.069-3.174-.069-4.761-.138-1.242-.069-2.553-.138-3.8a13.475,13.475,0,0,1-.207-2.346c0-.069.069-.138,0-.138a.888.888,0,0,1-.069-.828c0-.345-.207-.552-.207-.9a12.87,12.87,0,0,0-.276-2.208c-.069-.69-.345-1.449-.483-2.208a21.809,21.809,0,0,0-1.173-3.588,17.82,17.82,0,0,0-1.518-3.036,8.884,8.884,0,0,0-1.518-2.07,3.348,3.348,0,0,0-3.036-1.035,2.359,2.359,0,0,0-1.794.966,13.849,13.849,0,0,0-1.932,3.588l-1.794,4.485c-.483,1.38-1.1,2.829-1.587,4.278-.828,2.277-1.587,4.623-2.208,7.038-.276,1.173-.621,2.346-.828,3.519L134-12.834c-.207,1.1-.345,2.139-.483,3.243a9.438,9.438,0,0,0-.138,2v.138A2.1,2.1,0,0,0,133.446-6a3.527,3.527,0,0,0,1.311,2.139,2.122,2.122,0,0,0,2.346.414,3.718,3.718,0,0,0,.9-.483,5.134,5.134,0,0,0,1.449-2.139c.138-.69.207-1.449.345-2.139l.414-3.036a1.1,1.1,0,0,1,.345-.69,4.464,4.464,0,0,1,.552-.621.524.524,0,0,1,.621-.207c.69,0,1.38,0,2.07.069.759.069,1.587.138,2.415.138a1.12,1.12,0,0,1,.621.345,2.326,2.326,0,0,1,.345,1.173c.069,1.932-.069,3.864.138,5.8a3.729,3.729,0,0,0,1.449,2.9A2.279,2.279,0,0,0,151.11-1.863Zm-5.589-17.112a2.3,2.3,0,0,1-.966-.069,3.093,3.093,0,0,0-.828-.069,1.365,1.365,0,0,1-.759-.138.812.812,0,0,1-.621-.828,3.5,3.5,0,0,1,.207-1.173c.345-1.242.828-2.484,1.242-3.795.414-.966.759-2,1.173-3.036,0-.069.069-.138.138-.276a.522.522,0,0,1,.552-.207c.207,0,.276.207.276.345a7.218,7.218,0,0,1,.276,1.173c.138.828.207,1.656.414,2.484v.069c-.069.759.138,1.449.138,2.208a8.454,8.454,0,0,1,.138,1.311,3.645,3.645,0,0,1-.069.9A1.4,1.4,0,0,1,145.521-18.975ZM174.708-.966a3.513,3.513,0,0,0,2-1.035,2.912,2.912,0,0,0,.759-2.829,2.9,2.9,0,0,0-1.1-1.725,5.955,5.955,0,0,0-4-1.035c-.207,0-.345.069-.483,0a33.836,33.836,0,0,0-3.726-.276h-1.311a2.721,2.721,0,0,1-1.38-.345,1.3,1.3,0,0,1-.828-1.173,8.427,8.427,0,0,1,.069-1.863,5.188,5.188,0,0,1,0-1.035,16.918,16.918,0,0,0,.138-1.863v-1.794c0-.759.138-1.518.069-2.277v-.276c.207-.345.069-.69.069-.966-.069-.345.138-.621.069-.9-.138-.759.069-1.518-.069-2.277v-.138a8.824,8.824,0,0,0,.069-2.346c0-.552.069-1.1.069-1.656v-1.242a13.472,13.472,0,0,0,.138-1.587,11.7,11.7,0,0,1,.069-1.587c.069-.9.069-1.794.138-2.691a14.088,14.088,0,0,0,0-2.415,14.33,14.33,0,0,0-.345-2.07,4.8,4.8,0,0,0-.759-1.587,2.76,2.76,0,0,0-2.829-.828,3.048,3.048,0,0,0-1.932,1.863,9.718,9.718,0,0,0-.483,3.1v1.794c-.069.483,0,.9-.069,1.311a5.609,5.609,0,0,0-.069,1.518c0,.69-.069,1.38-.069,2.07a11.132,11.132,0,0,1,0,1.518,12.567,12.567,0,0,0-.069,2.277v.345a10.393,10.393,0,0,0-.069,2.07,19.39,19.39,0,0,1-.069,2v1.863a9.545,9.545,0,0,0-.069,2,.129.129,0,0,1,0,.207,16.814,16.814,0,0,0-.069,1.863,10.683,10.683,0,0,1-.069,1.518c-.069.759-.069,1.449-.069,2.139,0,.552-.069,1.173-.069,1.725a5.188,5.188,0,0,1,0,1.035,9.574,9.574,0,0,0,.276,3.174,4.274,4.274,0,0,0,1.656,2,3.751,3.751,0,0,0,1.587.759A11.177,11.177,0,0,0,164.5-2c.621.069,1.311.069,2,.138a18.858,18.858,0,0,1,2.76.345,14.129,14.129,0,0,1,2.9.483A6.369,6.369,0,0,0,174.708-.966Z" transform="translate(-0.013 99.369)" fill="#f8f8f8"/>
          </g>
        </g>
      </g>
    </g>
  </g>
</svg>
