<svg xmlns="http://www.w3.org/2000/svg" width="107.657" height="57.916" viewBox="0 0 107.657 57.916">
  <g id="Grupo_10085" data-name="Grupo 10085" transform="translate(558.387 4231.849)">
    <path id="Trazado_13607" data-name="Trazado 13607" d="M25.755-.34a4.536,4.536,0,0,0,2.635-3.4c.17-.85.425-1.7.6-2.635l1.02-4.25a7.025,7.025,0,0,1,.68-1.87,1.669,1.669,0,0,1,1.1-.765,4.614,4.614,0,0,1,1.87,0,4.455,4.455,0,0,0,2.125-.085,4.06,4.06,0,0,0,2.805-2.04,2.5,2.5,0,0,0,.51-2.295,3.944,3.944,0,0,0-2.635-2.89A4.755,4.755,0,0,0,34.34-21a1.1,1.1,0,0,1-1.275-1.19,6.433,6.433,0,0,1,.085-1.275,6.508,6.508,0,0,1,1.19-2.72,1.153,1.153,0,0,1,1.105-.595h2.04a6.433,6.433,0,0,0,1.275-.085,3.986,3.986,0,0,0,3.06-3.825,4.067,4.067,0,0,0-1.53-2.89,5.725,5.725,0,0,0-3.06-1.02H36.125c-.34,0-.51-.17-.425-.51a16.079,16.079,0,0,1,.425-1.955c.17-.935.425-1.87.6-2.805.085-.68.17-1.445.34-2.21a14.879,14.879,0,0,0,.34-2.72,3.992,3.992,0,0,0-.68-2.21,3.515,3.515,0,0,0-2.04-1.445,2.816,2.816,0,0,0-2.04,0,3.045,3.045,0,0,0-.935.34,4.929,4.929,0,0,0-1.955,2.635,16.229,16.229,0,0,0-.51,2.805c-.085.765-.34,1.53-.425,2.295-.17.935-.425,1.87-.595,2.805a2.563,2.563,0,0,1-2.465,2.3,14.427,14.427,0,0,1-3.315-.085.817.817,0,0,1-.68-.765,4.261,4.261,0,0,1,.085-1.445l.255-1.275.34-2.125a14.915,14.915,0,0,0,.425-3.91,2.546,2.546,0,0,0-.51-1.53,3.272,3.272,0,0,0-2.465-1.87,3.475,3.475,0,0,0-2.3.255,4.7,4.7,0,0,0-2.38,3.145c-.34,1.36-.51,2.72-.765,4.08a23.18,23.18,0,0,1-.85,3.485,3.339,3.339,0,0,1-1.275,1.785,2.718,2.718,0,0,1-1.615.425c-.85.085-1.7,0-2.55,0v.085H5.44c-.17,0-.34-.085-.51,0A4.564,4.564,0,0,0,2.38-33.4,3.111,3.111,0,0,0,1.7-31.2a3.408,3.408,0,0,0,1.1,2.635A4.365,4.365,0,0,0,5.95-27.285a28.72,28.72,0,0,0,3.825,0c.51,0,.68.255.935.68a1.078,1.078,0,0,1,.085.51,12.681,12.681,0,0,1-.17,1.785A8.473,8.473,0,0,1,9.35-21.165c-.255.255-.425.425-.765.425-1.1-.085-2.21.17-3.4.17A3.626,3.626,0,0,0,1.87-18.785a3.755,3.755,0,0,0-.425,3.145,3.929,3.929,0,0,0,2.89,2.635,3.164,3.164,0,0,0,1.53.17,4.266,4.266,0,0,1,1.02.17c.51.255,1.02.85.85,1.36A13.2,13.2,0,0,1,7.4-9.52c-.255.85-.255,1.7-.425,2.465a1.993,1.993,0,0,0,.17,1.02A17.071,17.071,0,0,0,7.225-3.91,4.1,4.1,0,0,0,8.84-1.19a2.4,2.4,0,0,0,1.53.34,4.016,4.016,0,0,0,1.7-.85,12.4,12.4,0,0,0,2.38-3.91,14.137,14.137,0,0,0,.765-3.145,21.035,21.035,0,0,0,.51-2.465,2.123,2.123,0,0,1,2.3-2.04,6.913,6.913,0,0,1,2.635.17,1.6,1.6,0,0,1,1.36,2.125.3.3,0,0,0-.085.17c-.255,1.7-.85,3.23-1.105,4.93a8.623,8.623,0,0,0-.17,2.125,5.472,5.472,0,0,0,.935,2.3A3.219,3.219,0,0,0,25.755-.34ZM20.23-21.08a1,1,0,0,1-.935-.765.644.644,0,0,1-.17-.34,7.253,7.253,0,0,1,.34-3.57,3.667,3.667,0,0,1,1.36-1.445c.085-.085.34,0,.51-.085.68-.085,1.36.255,2.125.17h.595c.34.085.68-.085.85.17a1.782,1.782,0,0,1,.34.935,12.681,12.681,0,0,1-.17,1.785,5.96,5.96,0,0,1-1.02,2.38,1.442,1.442,0,0,1-1.36.765H21.59A7.269,7.269,0,0,0,20.23-21.08ZM62.815,3.4a3.073,3.073,0,0,0,2.04-1.615,7.523,7.523,0,0,0,.85-4.25c0-1.53.085-3.06,0-4.59,0-1.02.085-2.04.085-3.06.085-1.36.085-2.635.085-4,0-1.275.085-2.635.085-3.91-.085-1.615,0-3.23,0-4.76v-3.23c.085-1.615.085-3.23.17-4.845,0-1.36,0-2.805.085-4.165v-4.335a5.621,5.621,0,0,0-.51-2.635,3.656,3.656,0,0,0-4.08-1.955A4.034,4.034,0,0,0,58.82-40.8a25.94,25.94,0,0,0-.085,3.655V-34c-.085,1.785-.085,3.57-.17,5.355,0,.85,0,1.7-.085,2.55a1.8,1.8,0,0,1-1.445,1.7,7.865,7.865,0,0,1-2.465.17,3.971,3.971,0,0,1-1.445-.255c-.68-.17-.935-.51-.85-1.105l.6-3.655c.17-1.1.34-2.3.6-3.4L54.06-36.3a20.242,20.242,0,0,1,.425-2.21l1.02-5.27a4.641,4.641,0,0,0-.085-2.635,3.393,3.393,0,0,0-1.53-2.04,2.882,2.882,0,0,0-2.635-.34,2.416,2.416,0,0,0-1.02.34,4.7,4.7,0,0,0-2.125,3.23c-.255,1.36-.425,2.72-.68,3.995-.425,2.125-.85,4.165-1.19,6.29l-.68,3.74c-.34,1.615-.51,3.315-.765,4.93-.17,1.19-.34,2.38-.425,3.655a5.07,5.07,0,0,0,.765,3.315A5.39,5.39,0,0,0,48.96-16.83c.935.17,1.87.085,2.72.17,1.53.085,3.06.085,4.59.085.85-.085,1.02,0,1.445.6a.644.644,0,0,1,.17.34,9.95,9.95,0,0,1,.34,2.21,4.847,4.847,0,0,0,.085,1.1A3.24,3.24,0,0,1,58.4-11.05c-.085,1.445-.085,2.805-.085,4.25-.085,1.19-.085,2.465-.085,3.74,0,.85,0,1.785.085,2.635a14.07,14.07,0,0,0,.51,1.785A4.891,4.891,0,0,0,60.1,2.975,3.121,3.121,0,0,0,62.815,3.4Z" transform="translate(-559.659 -4177.469)" fill="#3fa3a7"/>
    <path id="Trazado_13608" data-name="Trazado 13608" d="M-5.51-13.82l-3.5,2.34a.745.745,0,0,0-.2.98l.42.68a.714.714,0,0,0,1,.22l1.84-1.24V-.72A.717.717,0,0,0-5.23,0h1.28a.717.717,0,0,0,.72-.72V-13.28A.717.717,0,0,0-3.95-14h-.96A1.058,1.058,0,0,0-5.51-13.82ZM4.17-4.58h.38L1.73-.7a.436.436,0,0,0,.36.7H3.51A1.262,1.262,0,0,0,4.55-.54L7.71-5.22a7.087,7.087,0,0,0,1.56-4.1,4.867,4.867,0,0,0-5.1-4.94A4.879,4.879,0,0,0-.93-9.32C-.93-6.32,1.31-4.58,4.17-4.58Zm0-7.18A2.373,2.373,0,0,1,6.61-9.32,2.347,2.347,0,0,1,4.17-6.9,2.343,2.343,0,0,1,1.75-9.32,2.357,2.357,0,0,1,4.17-11.76Z" transform="translate(-460 -4217.589)" fill="#3fa3a7"/>
  </g>
</svg>
