<svg xmlns="http://www.w3.org/2000/svg" xmlns:xlink="http://www.w3.org/1999/xlink" width="414" height="170" viewBox="0 0 414 170">
  <defs>
    <clipPath id="clip-title-peso-white">
      <rect width="414" height="170"/>
    </clipPath>
  </defs>
  <g id="title-peso-white" clip-path="url(#clip-title-peso-white)">
    <g id="Grupo_10263" data-name="Grupo 10263" transform="translate(18774.816 -11142.335)">
      <path id="Trazado_13797" data-name="Trazado 13797" d="M-38.445-1.518a2.574,2.574,0,0,0,3.036-.066A3.352,3.352,0,0,0-34.353-2.9a5.7,5.7,0,0,0,.462-1.386,18.657,18.657,0,0,0,.132-3.3A1.767,1.767,0,0,1-32.7-9.372c.66-.33,1.32-.66,1.98-1.056a15.111,15.111,0,0,0,3.432-3.036,14.692,14.692,0,0,0,1.254-1.584l1.188-1.848c.4-.792.792-1.518,1.122-2.31a12.744,12.744,0,0,0,.99-2.64,14.272,14.272,0,0,0,.66-2.9,20.38,20.38,0,0,0,.066-2.838,6.109,6.109,0,0,0-.264-1.518,3.906,3.906,0,0,0-.33-1.254c-.264-.594-.462-1.188-.726-1.782a27.284,27.284,0,0,0-1.452-2.31,11.944,11.944,0,0,0-2.112-1.98,10.546,10.546,0,0,0-2.64-1.518,9,9,0,0,0-3.96-.726,9.7,9.7,0,0,0-3.63.528,4.212,4.212,0,0,0-2.442,2.31,16.235,16.235,0,0,1-.462,1.914,3.527,3.527,0,0,0-.2,1.452c.066.792-.066,1.584,0,2.376.066.594-.066,1.254.066,1.914v.066a1.116,1.116,0,0,0-.066.924c.066.33-.132.66-.066.99.2.792-.066,1.65.066,2.442l.066.066a6.416,6.416,0,0,0-.066,2.244c-.066,1.056,0,2.178,0,3.234v2.9c-.066.99,0,1.98-.066,2.9v2.9a11.127,11.127,0,0,0,.066,2.112v.2c-.2.66.066,1.386-.066,2.046a2.133,2.133,0,0,0,.2,1.056A4.022,4.022,0,0,0-38.445-1.518ZM-32.9-17.094a.591.591,0,0,1-.792-.4v-.066c0-.792,0-1.518.066-2.244V-20c-.2-.858.066-1.716-.066-2.508-.066-.462.066-.792,0-1.254a2.152,2.152,0,0,1,0-1.122c.066,0,0-.066,0-.066a12.741,12.741,0,0,1,0-2.244,7.558,7.558,0,0,1,.066-2.112,1.827,1.827,0,0,0-.066-.594,8.415,8.415,0,0,1,.066-1.32c-.066-.2.066-.4.33-.528a1.729,1.729,0,0,1,.99-.066A3.956,3.956,0,0,1-29.8-30.228a14.245,14.245,0,0,1,1.122,2.244,5.677,5.677,0,0,1,.066,1.056,7.641,7.641,0,0,1-.33,3.234,17.728,17.728,0,0,1-2.112,4.356,11.82,11.82,0,0,1-1.32,1.848C-32.571-17.358-32.7-17.16-32.9-17.094Zm20.13,14.586c.726.132,1.452-.132,2.178-.066a17.392,17.392,0,0,0,1.848-.132,3.666,3.666,0,0,0,2.31-1.122,2.128,2.128,0,0,0,.594-1.716A2.582,2.582,0,0,0-7.095-7.392,5.654,5.654,0,0,0-9.8-8.052c-.726-.066-1.452,0-2.178,0a1.307,1.307,0,0,1-1.452-1.254,9.639,9.639,0,0,1-.2-1.452V-14.19c.066-.924.264-1.188,1.188-1.452h.462a13.763,13.763,0,0,1,1.65,0A7.63,7.63,0,0,0-7.887-16.1a2.931,2.931,0,0,0,2.178-2.9,2.739,2.739,0,0,0-1.716-2.508,7.061,7.061,0,0,0-2.838-.594c-.66.066-1.32,0-2.046.066a.7.7,0,0,1-.594-.462,1.858,1.858,0,0,1-.264-1.32,3.22,3.22,0,0,0,.066-1.122c.066-1.584.066-3.1.066-4.62,0-.792.462-1.386,1.254-1.32,1.254,0,2.442-.2,3.63-.2A3.858,3.858,0,0,0-6.9-31.218,3.906,3.906,0,0,0-4.455-32.8a2.583,2.583,0,0,0,.066-2.97,4.384,4.384,0,0,0-3.168-1.716c-1.782-.066-3.564.132-5.346.2-.066,0-.066-.066-.132,0-.66.2-1.386.066-2.046.2a10.916,10.916,0,0,0-2.112.462,3.434,3.434,0,0,0-2.244,1.782,2.556,2.556,0,0,0-.2,1.848.729.729,0,0,1,0,.528.976.976,0,0,0,0,.858v.33c.066.924.132,1.782.132,2.64a27.783,27.783,0,0,1-.066,4.686c-.132.792-.066,1.65-.132,2.442-.132.792-.066,1.518-.132,2.31-.132,1.122-.066,2.178-.132,3.3a30.222,30.222,0,0,0-.066,3.564c.132.924-.066,2.244.132,3.63A12.091,12.091,0,0,0-19.3-6.138,4.952,4.952,0,0,0-16-2.97,13.66,13.66,0,0,0-12.771-2.508ZM1.155-.66a3.551,3.551,0,0,0,2.178-.2,5.616,5.616,0,0,1,1.122-.4A28.81,28.81,0,0,0,8.217-3.168a9.3,9.3,0,0,0,3.1-2.838,11.842,11.842,0,0,0,1.32-2.574,10.488,10.488,0,0,0,.66-3.894,14.194,14.194,0,0,0-.132-1.518,13.249,13.249,0,0,0-.858-3.168,18.056,18.056,0,0,0-3.3-4.752c-1.32-1.452-2.838-2.706-4.092-4.224a2.964,2.964,0,0,1-.66-3.168A5.671,5.671,0,0,1,6.5-32.472,7.6,7.6,0,0,1,8.613-33.4a4,4,0,0,0,1.716-.528A2.806,2.806,0,0,0,11.781-36.3a2.706,2.706,0,0,0-.4-1.584,2.816,2.816,0,0,0-2.178-1.452,5.45,5.45,0,0,0-2.046.132,12.284,12.284,0,0,0-2.046.66,12.383,12.383,0,0,0-2.376,1.386A11.157,11.157,0,0,0-.495-33.4a12.7,12.7,0,0,0-.924,2.178,8.863,8.863,0,0,0-.462,1.782,8.681,8.681,0,0,0,.132,2.9,11.288,11.288,0,0,0,.594,1.98,13.138,13.138,0,0,0,2.376,3.3c.99,1.122,2.112,2.112,3.168,3.168a14.246,14.246,0,0,1,1.782,2.178,7.412,7.412,0,0,1,1.188,3.234,7.273,7.273,0,0,1-.132,1.188A4.233,4.233,0,0,1,5.775-8.778,12.092,12.092,0,0,1,2.541-6.93L.627-6.138A3.653,3.653,0,0,0-.759-4.884a2.982,2.982,0,0,0,0,2.97A2.413,2.413,0,0,0,1.155-.66ZM27.423-2.574c.066,0,.2-.066.264,0a1.116,1.116,0,0,0,.924-.066A11.1,11.1,0,0,1,30.2-3.1a14.527,14.527,0,0,0,3.366-2.112c.594-.528,1.122-1.188,1.716-1.716A10.326,10.326,0,0,0,36.8-9.174a22.521,22.521,0,0,0,1.122-2.178A27.16,27.16,0,0,0,39.7-16.9a22.834,22.834,0,0,0,.594-5.61,19.037,19.037,0,0,0-.132-2.706c-.066-.2-.066-.4-.132-.66-.132-.594-.2-1.386-.4-2.046-.2-.528-.264-1.056-.462-1.518a21.323,21.323,0,0,0-1.32-2.772,15.9,15.9,0,0,0-2.376-3.168,8.626,8.626,0,0,0-.792-.726,7.618,7.618,0,0,0-1.914-1.32,13.176,13.176,0,0,0-4.158-1.254,9.541,9.541,0,0,0-2.376,0,12.6,12.6,0,0,0-2.97.858,16.113,16.113,0,0,0-3.63,2.31,12.676,12.676,0,0,0-1.848,1.914,4.984,4.984,0,0,0-.726.924,8.314,8.314,0,0,0-.66,2.178l-.2,1.122a30.249,30.249,0,0,0-.66,4.158c-.066.726-.132,1.518-.132,2.244-.066.858-.066,1.782-.132,2.706,0,.66,0,1.386.066,2.112l.2,2.244a30.191,30.191,0,0,0,.924,4.752c.264.594.462,1.188.66,1.716a14.275,14.275,0,0,0,1.452,2.376,14.532,14.532,0,0,0,2.178,2.31A10.546,10.546,0,0,0,23.4-3.234,7.766,7.766,0,0,0,27.423-2.574Zm.066-5.874a2.394,2.394,0,0,1-2.574-.594A7.41,7.41,0,0,1,23-12.276a8.826,8.826,0,0,1-.66-2.508c-.066-.264-.264-.462-.264-.726-.066-.924-.132-1.848-.264-2.772-.066-.726-.066-1.452-.066-2.178a46.211,46.211,0,0,1,.4-5.28l.528-3.1a2.478,2.478,0,0,1,.792-1.386,7.752,7.752,0,0,1,1.98-1.584,4.749,4.749,0,0,1,3.168-.4c.264.066.528.2.726.264a7.6,7.6,0,0,1,2.772,2.64c.462.792.726,1.65,1.122,2.442v.066c.066.726.462,1.32.462,1.98a15.975,15.975,0,0,1,.132,2.508,21.408,21.408,0,0,1-.726,5.016,16.3,16.3,0,0,1-1.254,3.564,11.487,11.487,0,0,1-1.188,2.178,9.065,9.065,0,0,1-.858,1.32A5.6,5.6,0,0,1,27.489-8.448ZM-89.067,45.34a3.551,3.551,0,0,0,2.178-.2,5.617,5.617,0,0,1,1.122-.4,28.809,28.809,0,0,0,3.762-1.914,9.3,9.3,0,0,0,3.1-2.838,11.842,11.842,0,0,0,1.32-2.574,10.488,10.488,0,0,0,.66-3.894,14.2,14.2,0,0,0-.132-1.518,13.249,13.249,0,0,0-.858-3.168,18.056,18.056,0,0,0-3.3-4.752c-1.32-1.452-2.838-2.706-4.092-4.224a2.964,2.964,0,0,1-.66-3.168,5.671,5.671,0,0,1,2.244-3.168,7.6,7.6,0,0,1,2.112-.924,4,4,0,0,0,1.716-.528A2.806,2.806,0,0,0-78.441,9.7a2.706,2.706,0,0,0-.4-1.584,2.816,2.816,0,0,0-2.178-1.452,5.45,5.45,0,0,0-2.046.132,12.284,12.284,0,0,0-2.046.66,12.383,12.383,0,0,0-2.376,1.386A11.157,11.157,0,0,0-90.717,12.6a12.7,12.7,0,0,0-.924,2.178,8.864,8.864,0,0,0-.462,1.782,8.681,8.681,0,0,0,.132,2.9,11.287,11.287,0,0,0,.594,1.98A13.138,13.138,0,0,0-89,24.748c.99,1.122,2.112,2.112,3.168,3.168a14.246,14.246,0,0,1,1.782,2.178,7.412,7.412,0,0,1,1.188,3.234A7.272,7.272,0,0,1-83,34.516a4.233,4.233,0,0,1-1.452,2.706,12.092,12.092,0,0,1-3.234,1.848l-1.914.792a3.653,3.653,0,0,0-1.386,1.254,2.982,2.982,0,0,0,0,2.97A2.413,2.413,0,0,0-89.067,45.34Zm31.218-1.122a2.884,2.884,0,0,0,1.98-1.914,6.7,6.7,0,0,0,.4-2.244c.066-.792,0-1.65,0-2.442V35.572a19.987,19.987,0,0,0-.132-2.046c0-1.518.066-3.036-.066-4.554-.132-1.188-.066-2.442-.132-3.63A12.89,12.89,0,0,1-56,23.1c0-.066.066-.132,0-.132a.849.849,0,0,1-.066-.792c0-.33-.2-.528-.2-.858a12.31,12.31,0,0,0-.264-2.112c-.066-.66-.33-1.386-.462-2.112a20.862,20.862,0,0,0-1.122-3.432,17.045,17.045,0,0,0-1.452-2.9,8.5,8.5,0,0,0-1.452-1.98,3.2,3.2,0,0,0-2.9-.99,2.256,2.256,0,0,0-1.716.924,13.246,13.246,0,0,0-1.848,3.432l-1.716,4.29c-.462,1.32-1.056,2.706-1.518,4.092-.792,2.178-1.518,4.422-2.112,6.732-.264,1.122-.594,2.244-.792,3.366l-.594,3.1c-.2,1.056-.33,2.046-.462,3.1a9.028,9.028,0,0,0-.132,1.914v.132a2.009,2.009,0,0,0,.066,1.386A3.373,3.373,0,0,0-73.491,42.3a2.03,2.03,0,0,0,2.244.4,3.556,3.556,0,0,0,.858-.462A4.911,4.911,0,0,0-69,40.192c.132-.66.2-1.386.33-2.046l.4-2.9a1.055,1.055,0,0,1,.33-.66,4.27,4.27,0,0,1,.528-.594.5.5,0,0,1,.594-.2c.66,0,1.32,0,1.98.066.726.066,1.518.132,2.31.132a1.071,1.071,0,0,1,.594.33,2.225,2.225,0,0,1,.33,1.122c.066,1.848-.066,3.7.132,5.544a3.567,3.567,0,0,0,1.386,2.772A2.18,2.18,0,0,0-57.849,44.218ZM-63.2,27.85a2.2,2.2,0,0,1-.924-.066,2.959,2.959,0,0,0-.792-.066,1.306,1.306,0,0,1-.726-.132.776.776,0,0,1-.594-.792,3.352,3.352,0,0,1,.2-1.122c.33-1.188.792-2.376,1.188-3.63.4-.924.726-1.914,1.122-2.9,0-.066.066-.132.132-.264a.5.5,0,0,1,.528-.2c.2,0,.264.2.264.33a6.905,6.905,0,0,1,.264,1.122c.132.792.2,1.584.4,2.376v.066c-.066.726.132,1.386.132,2.112a8.086,8.086,0,0,1,.132,1.254,3.487,3.487,0,0,1-.066.858A1.343,1.343,0,0,1-63.2,27.85Zm26.664,17.226a3.36,3.36,0,0,0,1.914-.99,2.785,2.785,0,0,0,.726-2.706,2.777,2.777,0,0,0-1.056-1.65,5.7,5.7,0,0,0-3.828-.99c-.2,0-.33.066-.462,0a32.366,32.366,0,0,0-3.564-.264h-1.254a2.6,2.6,0,0,1-1.32-.33,1.24,1.24,0,0,1-.792-1.122,8.06,8.06,0,0,1,.066-1.782,4.963,4.963,0,0,1,0-.99,16.183,16.183,0,0,0,.132-1.782V30.754c0-.726.132-1.452.066-2.178v-.264c.2-.33.066-.66.066-.924-.066-.33.132-.594.066-.858-.132-.726.066-1.452-.066-2.178V24.22a8.44,8.44,0,0,0,.066-2.244c0-.528.066-1.056.066-1.584V19.2a12.886,12.886,0,0,0,.132-1.518,11.187,11.187,0,0,1,.066-1.518c.066-.858.066-1.716.132-2.574a13.475,13.475,0,0,0,0-2.31,13.708,13.708,0,0,0-.33-1.98,4.6,4.6,0,0,0-.726-1.518,2.64,2.64,0,0,0-2.706-.792,2.915,2.915,0,0,0-1.848,1.782,9.3,9.3,0,0,0-.462,2.97v1.716c-.066.462,0,.858-.066,1.254a5.365,5.365,0,0,0-.066,1.452c0,.66-.066,1.32-.066,1.98a10.648,10.648,0,0,1,0,1.452,12.02,12.02,0,0,0-.066,2.178v.33a9.941,9.941,0,0,0-.066,1.98A18.547,18.547,0,0,1-51.843,26v1.782a9.13,9.13,0,0,0-.066,1.914.124.124,0,0,1,0,.2,16.083,16.083,0,0,0-.066,1.782,10.219,10.219,0,0,1-.066,1.452c-.066.726-.066,1.386-.066,2.046,0,.528-.066,1.122-.066,1.65a4.963,4.963,0,0,1,0,.99,9.158,9.158,0,0,0,.264,3.036,4.088,4.088,0,0,0,1.584,1.914,3.588,3.588,0,0,0,1.518.726,10.69,10.69,0,0,0,2.508.594c.594.066,1.254.066,1.914.132a18.038,18.038,0,0,1,2.64.33,13.515,13.515,0,0,1,2.772.462A6.092,6.092,0,0,0-36.531,45.076Zm15.18-1.98a8.943,8.943,0,0,0,2.31-.066,7.714,7.714,0,0,0,1.32-.4,8.737,8.737,0,0,0,2.112-1.32,11.8,11.8,0,0,0,1.848-1.782,12.8,12.8,0,0,0,.99-1.584,19.793,19.793,0,0,0,2.046-4.686,37.058,37.058,0,0,0,.858-3.894c.066-.594.264-1.188.33-1.848.132-1.518.4-3.1.528-4.62,0-.99.132-1.914.2-2.9a5.644,5.644,0,0,1,0-1.056,5.481,5.481,0,0,0,.066-1.452c0-.528.066-1.056.066-1.584,0-.462-.066-.858-.066-1.254a11.305,11.305,0,0,0,.066-2.112,2.858,2.858,0,0,1-.066-.33,3.762,3.762,0,0,0-.33-2.244A3.324,3.324,0,0,0-13.3,8.182a2.839,2.839,0,0,0-1.386,1.254,5.01,5.01,0,0,0-.66,3.1v1.716c-.066.99,0,1.98-.066,2.97a8.8,8.8,0,0,0,0,1.32,11.008,11.008,0,0,0-.132,2.112c0,1.122-.2,2.178-.264,3.3-.132,1.452-.4,2.9-.66,4.29a30.314,30.314,0,0,1-1.584,5.94,6.349,6.349,0,0,1-1.32,2.112,1.229,1.229,0,0,1-1.518.33,5.374,5.374,0,0,1-1.848-1.584,8.527,8.527,0,0,1-1.782-4.356c-.2-1.914-.528-3.762-.594-5.742a15.3,15.3,0,0,0-.066-2.442v-.2a6.9,6.9,0,0,0,0-1.65c.066-.528,0-1.122.066-1.65V16.234c.066-.792.066-1.65.066-2.442a5.335,5.335,0,0,1,.066-1.056,2.8,2.8,0,0,0-.462-2.046,3.26,3.26,0,0,0-2.31-1.584,3.306,3.306,0,0,0-2.112.4,3.514,3.514,0,0,0-1.452,1.782,9.147,9.147,0,0,0-.462,3.234V16.1a7.14,7.14,0,0,1,0,1.188,7.616,7.616,0,0,0-.066,1.716,14.884,14.884,0,0,1,0,1.716c-.066.99.066,1.98,0,3.036a7.049,7.049,0,0,0,.066,1.65c0,.99.2,2.046.2,3.036a4.952,4.952,0,0,0,.132,1.32c-.066.924.4,1.98.462,3.1a.2.2,0,0,0,.066.132c.264.792.462,1.716.792,2.508a13.35,13.35,0,0,0,2.178,3.762,9.11,9.11,0,0,0,2.64,2.376A9.943,9.943,0,0,0-21.351,43.1Zm17.226,1.518a6.787,6.787,0,0,0,2.31,0,22.784,22.784,0,0,0,4.224-1.452c.792-.4,1.518-.792,2.244-1.188a24.712,24.712,0,0,0,3.63-2.706c.99-.924,1.848-2.046,2.772-3.036l1.32-1.716c.4-.528.726-1.056,1.056-1.584.462-.726.858-1.452,1.254-2.178.264-.594.462-1.188.726-1.782a16.275,16.275,0,0,0,1.122-5.082c0-.4-.132-.792-.132-1.188a7.034,7.034,0,0,0-.4-2.046,14.555,14.555,0,0,0-1.386-3.3,23.907,23.907,0,0,0-1.782-2.706,18.041,18.041,0,0,0-2.178-2.31c-.528-.462-1.122-.924-1.716-1.386A27.8,27.8,0,0,0,5.577,9.04,23.359,23.359,0,0,0,3.333,7.984a13.457,13.457,0,0,0-3.96-.66c-.33.066-.66-.066-.924.066A8.967,8.967,0,0,0-3.4,8.116a3.3,3.3,0,0,0-1.716,2.442,15.347,15.347,0,0,0-.33,1.848c-.066.66-.2,1.32-.264,1.98,0,.132.066.2,0,.264a.987.987,0,0,0-.066.858c0,.33-.2.66-.132.99,0,.726-.2,1.452-.132,2.178l-.066.066c-.2.66-.066,1.452-.2,2.178-.132.66-.066,1.386-.132,2.046-.132,1.122.066,2.244-.132,3.366C-6.633,29.5-6.5,32.668-6.7,35.77a10.648,10.648,0,0,0,0,1.452,30.173,30.173,0,0,0,.2,4.224,4.846,4.846,0,0,0,.99,2.31A2.5,2.5,0,0,0-4.125,44.614ZM.363,37.948A.685.685,0,0,1-.5,37.42V32.536c-.066-2.64.2-5.478.132-8.316a14.347,14.347,0,0,0,.132-2.376A12.817,12.817,0,0,1-.1,20.26c.2-.66,0-1.386.264-2.046v-.132C.1,17.356.3,16.7.3,15.97c0-.4.132-.726.132-1.122a.242.242,0,0,1,.066-.2,1.114,1.114,0,0,1,1.122-.528,7.764,7.764,0,0,1,1.32.462,19.032,19.032,0,0,1,2.508,1.452,13.509,13.509,0,0,1,2.442,2.31A19.037,19.037,0,0,1,9.4,20.59a7.705,7.705,0,0,1,.726,1.848,5.79,5.79,0,0,1,.132,2.376,7.543,7.543,0,0,1-.594,1.98,25.422,25.422,0,0,1-2.9,5.016,37.207,37.207,0,0,1-4.356,4.752A7.031,7.031,0,0,1,.561,37.816Zm33.264,6.27a2.884,2.884,0,0,0,1.98-1.914A6.7,6.7,0,0,0,36,40.06c.066-.792,0-1.65,0-2.442V35.572a19.987,19.987,0,0,0-.132-2.046c0-1.518.066-3.036-.066-4.554-.132-1.188-.066-2.442-.132-3.63a12.89,12.89,0,0,1-.2-2.244c0-.066.066-.132,0-.132a.849.849,0,0,1-.066-.792c0-.33-.2-.528-.2-.858a12.31,12.31,0,0,0-.264-2.112c-.066-.66-.33-1.386-.462-2.112a20.862,20.862,0,0,0-1.122-3.432,17.045,17.045,0,0,0-1.452-2.9,8.5,8.5,0,0,0-1.452-1.98,3.2,3.2,0,0,0-2.9-.99,2.256,2.256,0,0,0-1.716.924,13.246,13.246,0,0,0-1.848,3.432l-1.716,4.29c-.462,1.32-1.056,2.706-1.518,4.092-.792,2.178-1.518,4.422-2.112,6.732-.264,1.122-.594,2.244-.792,3.366l-.594,3.1c-.2,1.056-.33,2.046-.462,3.1a9.028,9.028,0,0,0-.132,1.914v.132a2.009,2.009,0,0,0,.066,1.386A3.373,3.373,0,0,0,17.985,42.3a2.03,2.03,0,0,0,2.244.4,3.556,3.556,0,0,0,.858-.462,4.911,4.911,0,0,0,1.386-2.046c.132-.66.2-1.386.33-2.046l.4-2.9a1.055,1.055,0,0,1,.33-.66,4.27,4.27,0,0,1,.528-.594.5.5,0,0,1,.594-.2c.66,0,1.32,0,1.98.066.726.066,1.518.132,2.31.132a1.071,1.071,0,0,1,.594.33,2.225,2.225,0,0,1,.33,1.122c.066,1.848-.066,3.7.132,5.544a3.567,3.567,0,0,0,1.386,2.772A2.18,2.18,0,0,0,33.627,44.218ZM28.281,27.85a2.2,2.2,0,0,1-.924-.066,2.959,2.959,0,0,0-.792-.066,1.305,1.305,0,0,1-.726-.132.776.776,0,0,1-.594-.792,3.352,3.352,0,0,1,.2-1.122c.33-1.188.792-2.376,1.188-3.63.4-.924.726-1.914,1.122-2.9,0-.066.066-.132.132-.264a.5.5,0,0,1,.528-.2c.2,0,.264.2.264.33a6.9,6.9,0,0,1,.264,1.122c.132.792.2,1.584.4,2.376v.066c-.066.726.132,1.386.132,2.112a8.087,8.087,0,0,1,.132,1.254,3.487,3.487,0,0,1-.066.858A1.343,1.343,0,0,1,28.281,27.85ZM43.527,45.01a8.981,8.981,0,0,0,2.64-.264,6.149,6.149,0,0,0,2.046-.858,8.792,8.792,0,0,0,1.914-1.65,11.949,11.949,0,0,0,1.188-1.782,10.554,10.554,0,0,0,.924-4.026,18.929,18.929,0,0,0-.33-2.706,10.1,10.1,0,0,0-.924-2.706,15.306,15.306,0,0,0-2.31-3.5,1,1,0,0,1,0-1.518c0-.066.066-.132.132-.2a22.886,22.886,0,0,0,1.65-1.914,15.57,15.57,0,0,0,2.508-4.29,11.385,11.385,0,0,0,.792-3.894c.066-.264-.132-.528-.132-.858a3.654,3.654,0,0,0-.132-1.188,10.254,10.254,0,0,0-1.122-2.64,8.689,8.689,0,0,0-2.508-2.64A8.581,8.581,0,0,0,46.1,7.06a9.9,9.9,0,0,0-4.554.594A3.743,3.743,0,0,0,39.5,9.5a6.108,6.108,0,0,0-.66,2.442,7.919,7.919,0,0,0-.2,1.32,9.747,9.747,0,0,1-.066,1.386,16.183,16.183,0,0,0-.132,1.782c-.132.858-.066,1.716-.132,2.574-.132,1.056-.066,2.112-.132,3.1-.132,1.848,0,3.7-.132,5.544-.132,1.65,0,3.234,0,5.346a51.969,51.969,0,0,0,.066,5.478c.066.4.066.792.132,1.188a3.645,3.645,0,0,0,1.188,1.914,2.975,2.975,0,0,1,.66.924,4.315,4.315,0,0,0,.858,1.518A4.027,4.027,0,0,0,43.527,45.01Zm1.386-24.354c-.33,0-.462-.066-.462-.462a9.714,9.714,0,0,1,0-1.386,7.14,7.14,0,0,1,0-1.188c.132-.66,0-1.452.132-2.112a5.5,5.5,0,0,1,.2-1.452,1.311,1.311,0,0,1,1.056-.792.961.961,0,0,1,.792.33,2.665,2.665,0,0,1,.99,2.046,3.577,3.577,0,0,1-.528,2.178,10.1,10.1,0,0,1-1.716,2.64A.985.985,0,0,1,44.913,20.656Zm-.462,17.952c-.132-.066-.264-.132-.264-.33v-.132c.066-1.188-.264-2.31-.132-3.3V33.13a1.64,1.64,0,0,1,.066-.528c.066-.066,0-.264.2-.264a.311.311,0,0,1,.4.066,3.769,3.769,0,0,1,.858,1.386,5.8,5.8,0,0,1,.462,1.518,3.51,3.51,0,0,1-.33,2.574l-.2.4C45.243,38.674,44.847,38.608,44.451,38.608Zm26.928,6.468a3.36,3.36,0,0,0,1.914-.99,2.956,2.956,0,0,0-.33-4.356,5.7,5.7,0,0,0-3.828-.99c-.2,0-.33.066-.462,0a32.366,32.366,0,0,0-3.564-.264H63.855a2.6,2.6,0,0,1-1.32-.33,1.24,1.24,0,0,1-.792-1.122,8.06,8.06,0,0,1,.066-1.782,4.963,4.963,0,0,1,0-.99,16.183,16.183,0,0,0,.132-1.782V30.754c0-.726.132-1.452.066-2.178v-.264c.2-.33.066-.66.066-.924-.066-.33.132-.594.066-.858-.132-.726.066-1.452-.066-2.178V24.22a8.44,8.44,0,0,0,.066-2.244c0-.528.066-1.056.066-1.584V19.2a12.886,12.886,0,0,0,.132-1.518,11.187,11.187,0,0,1,.066-1.518c.066-.858.066-1.716.132-2.574a13.475,13.475,0,0,0,0-2.31,13.708,13.708,0,0,0-.33-1.98,4.6,4.6,0,0,0-.726-1.518,2.64,2.64,0,0,0-2.706-.792,2.915,2.915,0,0,0-1.848,1.782,9.3,9.3,0,0,0-.462,2.97v1.716c-.066.462,0,.858-.066,1.254a5.365,5.365,0,0,0-.066,1.452c0,.66-.066,1.32-.066,1.98a10.648,10.648,0,0,1,0,1.452,12.02,12.02,0,0,0-.066,2.178v.33a9.941,9.941,0,0,0-.066,1.98A18.547,18.547,0,0,1,56.067,26v1.782A9.13,9.13,0,0,0,56,29.7a.124.124,0,0,1,0,.2,16.083,16.083,0,0,0-.066,1.782,10.219,10.219,0,0,1-.066,1.452c-.066.726-.066,1.386-.066,2.046,0,.528-.066,1.122-.066,1.65a4.963,4.963,0,0,1,0,.99A9.158,9.158,0,0,0,56,40.852a4.088,4.088,0,0,0,1.584,1.914,3.588,3.588,0,0,0,1.518.726,10.69,10.69,0,0,0,2.508.594c.594.066,1.254.066,1.914.132a18.038,18.038,0,0,1,2.64.33,13.514,13.514,0,0,1,2.772.462A6.092,6.092,0,0,0,71.379,45.076Zm11.946-1.584c.726.132,1.452-.132,2.178-.066a17.392,17.392,0,0,0,1.848-.132,3.666,3.666,0,0,0,2.31-1.122,2.128,2.128,0,0,0,.594-1.716A2.582,2.582,0,0,0,89,38.608a5.654,5.654,0,0,0-2.706-.66c-.726-.066-1.452,0-2.178,0a1.307,1.307,0,0,1-1.452-1.254,9.638,9.638,0,0,1-.2-1.452V31.81c.066-.924.264-1.188,1.188-1.452h.462a13.763,13.763,0,0,1,1.65,0,7.63,7.63,0,0,0,2.442-.462,2.931,2.931,0,0,0,2.178-2.9,2.739,2.739,0,0,0-1.716-2.508,7.061,7.061,0,0,0-2.838-.594c-.66.066-1.32,0-2.046.066a.7.7,0,0,1-.594-.462,1.858,1.858,0,0,1-.264-1.32A3.22,3.22,0,0,0,83,21.052c.066-1.584.066-3.1.066-4.62,0-.792.462-1.386,1.254-1.32,1.254,0,2.442-.2,3.63-.2a3.858,3.858,0,0,0,1.254-.132A3.906,3.906,0,0,0,91.641,13.2a2.583,2.583,0,0,0,.066-2.97,4.384,4.384,0,0,0-3.168-1.716c-1.782-.066-3.564.132-5.346.2-.066,0-.066-.066-.132,0-.66.2-1.386.066-2.046.2A10.916,10.916,0,0,0,78.9,9.37a3.434,3.434,0,0,0-2.244,1.782,2.556,2.556,0,0,0-.2,1.848.729.729,0,0,1,0,.528.976.976,0,0,0,0,.858v.33c.066.924.132,1.782.132,2.64a27.783,27.783,0,0,1-.066,4.686c-.132.792-.066,1.65-.132,2.442-.132.792-.066,1.518-.132,2.31-.132,1.122-.066,2.178-.132,3.3a30.222,30.222,0,0,0-.066,3.564c.132.924-.066,2.244.132,3.63a12.091,12.091,0,0,0,.594,2.574,4.952,4.952,0,0,0,3.3,3.168A13.66,13.66,0,0,0,83.325,43.492Z" transform="translate(-18506.721 11230.935)" fill="#f8f8f8"/>
      <path id="Trazado_13801" data-name="Trazado 13801" d="M51.813-.684a9.125,9.125,0,0,0,5.3-6.84c.342-1.71.855-3.42,1.2-5.3l2.052-8.55a14.132,14.132,0,0,1,1.368-3.762,3.358,3.358,0,0,1,2.223-1.539,9.282,9.282,0,0,1,3.762,0c1.539.513,2.907,0,4.275-.171a8.167,8.167,0,0,0,5.643-4.1,5.025,5.025,0,0,0,1.026-4.617,7.935,7.935,0,0,0-5.3-5.814,9.567,9.567,0,0,0-4.275-.855,2.215,2.215,0,0,1-2.565-2.394A12.943,12.943,0,0,1,66.69-47.2a13.092,13.092,0,0,1,2.394-5.472,2.32,2.32,0,0,1,2.223-1.2h4.1a12.943,12.943,0,0,0,2.565-.171c3.249-.684,6.5-4.275,6.156-7.7a8.181,8.181,0,0,0-3.078-5.814A11.518,11.518,0,0,0,74.9-69.6H72.675c-.684,0-1.026-.342-.855-1.026a32.346,32.346,0,0,1,.855-3.933c.342-1.881.855-3.762,1.2-5.643.171-1.368.342-2.907.684-4.446a29.934,29.934,0,0,0,.684-5.472,8.03,8.03,0,0,0-1.368-4.446,7.071,7.071,0,0,0-4.1-2.907,5.664,5.664,0,0,0-4.1,0,6.126,6.126,0,0,0-1.881.684,9.916,9.916,0,0,0-3.933,5.3,32.648,32.648,0,0,0-1.026,5.643c-.171,1.539-.684,3.078-.855,4.617-.342,1.881-.855,3.762-1.2,5.643-.513,2.565-2.052,4.446-4.959,4.617a29.024,29.024,0,0,1-6.669-.171,1.644,1.644,0,0,1-1.368-1.539,8.572,8.572,0,0,1,.171-2.907l.513-2.565.684-4.275A30.006,30.006,0,0,0,46-90.288a5.123,5.123,0,0,0-1.026-3.078,6.582,6.582,0,0,0-4.959-3.762,6.992,6.992,0,0,0-4.617.513,9.46,9.46,0,0,0-4.788,6.327c-.684,2.736-1.026,5.472-1.539,8.208a46.634,46.634,0,0,1-1.71,7.011A6.716,6.716,0,0,1,24.8-71.478a5.469,5.469,0,0,1-3.249.855c-1.71.171-3.42,0-5.13,0v.171H10.944c-.342,0-.684-.171-1.026,0A9.182,9.182,0,0,0,4.788-67.2,6.258,6.258,0,0,0,3.42-62.757a6.857,6.857,0,0,0,2.223,5.3,8.781,8.781,0,0,0,6.327,2.565,57.777,57.777,0,0,0,7.7,0c1.026,0,1.368.513,1.881,1.368a2.169,2.169,0,0,1,.171,1.026,25.511,25.511,0,0,1-.342,3.591,17.045,17.045,0,0,1-2.565,6.327c-.513.513-.855.855-1.539.855-2.223-.171-4.446.342-6.84.342a7.3,7.3,0,0,0-6.669,3.591,7.554,7.554,0,0,0-.855,6.327,7.9,7.9,0,0,0,5.814,5.3,6.365,6.365,0,0,0,3.078.342,8.583,8.583,0,0,1,2.052.342c1.026.513,2.052,1.71,1.71,2.736a26.548,26.548,0,0,1-.684,3.591c-.513,1.71-.513,3.42-.855,4.959a4.009,4.009,0,0,0,.342,2.052,34.342,34.342,0,0,0,.171,4.275,8.256,8.256,0,0,0,3.249,5.472,4.834,4.834,0,0,0,3.078.684,8.079,8.079,0,0,0,3.42-1.71c2.394-2.223,3.42-5.13,4.788-7.866a28.441,28.441,0,0,0,1.539-6.327,42.318,42.318,0,0,0,1.026-4.959c.513-2.736,1.881-4.1,4.617-4.1a13.907,13.907,0,0,1,5.3.342c2.223.342,3.249,2.052,2.736,4.275a.6.6,0,0,0-.171.342c-.513,3.42-1.71,6.5-2.223,9.918a17.348,17.348,0,0,0-.342,4.275,11.008,11.008,0,0,0,1.881,4.617A6.475,6.475,0,0,0,51.813-.684ZM40.7-42.408a2,2,0,0,1-1.881-1.539,1.3,1.3,0,0,1-.342-.684c-.171-2.394-.342-4.959.684-7.182A7.378,7.378,0,0,1,41.9-54.72c.171-.171.684,0,1.026-.171,1.368-.171,2.736.513,4.275.342h1.2c.684.171,1.368-.171,1.71.342a3.586,3.586,0,0,1,.684,1.881,25.512,25.512,0,0,1-.342,3.591c-.513,1.71-.855,3.42-2.052,4.788a2.9,2.9,0,0,1-2.736,1.539H43.434A14.624,14.624,0,0,0,40.7-42.408ZM106.02,7.011a9.511,9.511,0,0,0,3.591-1.026,73.445,73.445,0,0,0,10.6-7.353,35.928,35.928,0,0,0,8.379-10.6,38.82,38.82,0,0,0,2.907-8.55,35.537,35.537,0,0,0,0-10.431c-.171-.855-.684-1.368-.855-2.052a7.326,7.326,0,0,0-.855-2.736,30.98,30.98,0,0,0-3.42-5.643,26.57,26.57,0,0,0-6.669-5.643,31.158,31.158,0,0,0-8.721-3.078,24.529,24.529,0,0,1-4.788-1.2,1.915,1.915,0,0,1-1.2-1.368,2.812,2.812,0,0,1-.342-1.71c.171-1.881.171-3.933.342-5.985,0-2.736.171-5.643.342-8.379a41.669,41.669,0,0,1,.171-4.617c0-2.223.171-4.446.171-6.84a3.352,3.352,0,0,1,2.223-2.736,8.73,8.73,0,0,1,3.591-.513,27.587,27.587,0,0,0,3.762,0c1.71,0,3.591.171,5.472,0,2.052,0,3.933.342,5.985-.513a13.632,13.632,0,0,0,2.565-.513c2.907-1.71,4.788-4.617,3.933-8.379a7.155,7.155,0,0,0-4.959-5.13,10.707,10.707,0,0,0-4.617-.513,32.864,32.864,0,0,1-4.1,0H114.4c-2.394-.171-4.788-.171-7.182-.171h-3.591a35.741,35.741,0,0,1-4.275.171,8.835,8.835,0,0,0-5.472,1.881,7.475,7.475,0,0,0-2.565,6.84,3.555,3.555,0,0,1-.171,1.881c-.342,1.881-.342,3.762-.513,5.643,0,1.71-.171,3.42-.171,4.959,0,2.394-.171,4.788-.171,7.011-.171,2.565-.171,5.13-.342,7.695,0,3.078-.171,6.327-.342,9.576-.171,2.736-.342,5.472-.342,8.379a10.015,10.015,0,0,0,1.2,5.3,9.749,9.749,0,0,0,5.13,3.933,19.2,19.2,0,0,0,7.011.342,36.108,36.108,0,0,1,4.446-.342,15.672,15.672,0,0,1,4.275,1.026c3.591,1.71,5.3,4.788,5.643,8.55a14.292,14.292,0,0,1-1.881,7.353A24.688,24.688,0,0,1,109.1-11.8a61.856,61.856,0,0,1-5.472,3.762,19.1,19.1,0,0,0-4.1,3.249,7.786,7.786,0,0,0-1.881,6.84,6.342,6.342,0,0,0,3.933,4.617A7.817,7.817,0,0,0,106.02,7.011Z" transform="translate(-18751.375 11276.511)" fill="#f8f8f8"/>
      <path id="Trazado_13802" data-name="Trazado 13802" d="M46.729,16.48c3.22-3.7,4.94-5.58,4.94-7.54a4.116,4.116,0,0,0-4.22-4.2,4.493,4.493,0,0,0-4.44,2.82.721.721,0,0,0,.5.96l1.32.3a.533.533,0,0,0,.62-.34,1.793,1.793,0,0,1,1.78-1.28,1.663,1.663,0,0,1,1.72,1.82c0,1.22-1.4,2.76-2.62,4.16-1.2,1.4-1.94,2.24-3.1,3.52a1.175,1.175,0,0,0-.26.72v.86a.713.713,0,0,0,.7.72h7.5a.717.717,0,0,0,.72-.72V17.2a.717.717,0,0,0-.72-.72ZM59.009,4.76c-4.1,0-5.62,3.54-5.62,7.24,0,3.72,1.52,7.26,5.62,7.26,4.12,0,5.64-3.54,5.64-7.26C64.649,8.3,63.129,4.76,59.009,4.76Zm0,11.92c-2.26,0-2.92-2.4-2.92-4.68,0-2.26.66-4.66,2.92-4.66,2.28,0,2.94,2.4,2.94,4.66C61.949,14.28,61.289,16.68,59.009,16.68Z" transform="translate(-18452.195 11166.595)" fill="#f8f8f8"/>
    </g>
  </g>
</svg>
