<svg xmlns="http://www.w3.org/2000/svg" width="642.183" height="634.014" viewBox="0 0 642.183 634.014">
  <g id="title-home-renal" transform="translate(-278 -170)">
    <circle id="Elipse_98" data-name="Elipse 98" cx="306" cy="306" r="306" transform="translate(278 170)" fill="#fd7500"/>
    <path id="Trazado_13820" data-name="Trazado 13820" d="M-30.415-.616a8.217,8.217,0,0,0,4.774-6.16c.308-1.54.77-3.08,1.078-4.774l1.848-7.7a12.727,12.727,0,0,1,1.232-3.388,3.024,3.024,0,0,1,2-1.386,8.359,8.359,0,0,1,3.388,0c1.386.462,2.618,0,3.85-.154a7.355,7.355,0,0,0,5.082-3.7,4.526,4.526,0,0,0,.924-4.158,7.146,7.146,0,0,0-4.774-5.236,8.616,8.616,0,0,0-3.85-.77,2,2,0,0,1-2.31-2.156,11.656,11.656,0,0,1,.154-2.31,11.791,11.791,0,0,1,2.156-4.928,2.089,2.089,0,0,1,2-1.078h3.7a11.656,11.656,0,0,0,2.31-.154c2.926-.616,5.852-3.85,5.544-6.93A7.368,7.368,0,0,0-4.081-60.83a10.373,10.373,0,0,0-5.544-1.848h-2c-.616,0-.924-.308-.77-.924a29.13,29.13,0,0,1,.77-3.542c.308-1.694.77-3.388,1.078-5.082.154-1.232.308-2.618.616-4a26.958,26.958,0,0,0,.616-4.928,7.232,7.232,0,0,0-1.232-4,6.368,6.368,0,0,0-3.7-2.618,5.1,5.1,0,0,0-3.7,0,5.517,5.517,0,0,0-1.694.616,8.93,8.93,0,0,0-3.542,4.774,29.4,29.4,0,0,0-.924,5.082c-.154,1.386-.616,2.772-.77,4.158-.308,1.694-.77,3.388-1.078,5.082-.462,2.31-1.848,4-4.466,4.158a26.138,26.138,0,0,1-6.006-.154,1.481,1.481,0,0,1-1.232-1.386,7.72,7.72,0,0,1,.154-2.618l.462-2.31.616-3.85a27.022,27.022,0,0,0,.77-7.084,4.613,4.613,0,0,0-.924-2.772,5.928,5.928,0,0,0-4.466-3.388,6.3,6.3,0,0,0-4.158.462,8.52,8.52,0,0,0-4.312,5.7c-.616,2.464-.924,4.928-1.386,7.392a42,42,0,0,1-1.54,6.314,6.049,6.049,0,0,1-2.31,3.234,4.925,4.925,0,0,1-2.926.77c-1.54.154-3.08,0-4.62,0v.154h-4.928c-.308,0-.616-.154-.924,0a8.269,8.269,0,0,0-4.62,2.926,5.636,5.636,0,0,0-1.232,4,6.175,6.175,0,0,0,2,4.774,7.908,7.908,0,0,0,5.7,2.31,52.033,52.033,0,0,0,6.93,0c.924,0,1.232.462,1.694,1.232a1.953,1.953,0,0,1,.154.924,22.975,22.975,0,0,1-.308,3.234,15.35,15.35,0,0,1-2.31,5.7c-.462.462-.77.77-1.386.77-2-.154-4,.308-6.16.308a6.57,6.57,0,0,0-6.006,3.234,6.8,6.8,0,0,0-.77,5.7,7.118,7.118,0,0,0,5.236,4.774,5.732,5.732,0,0,0,2.772.308,7.73,7.73,0,0,1,1.848.308c.924.462,1.848,1.54,1.54,2.464a23.909,23.909,0,0,1-.616,3.234c-.462,1.54-.462,3.08-.77,4.466a3.611,3.611,0,0,0,.308,1.848,30.927,30.927,0,0,0,.154,3.85,7.435,7.435,0,0,0,2.926,4.928,4.353,4.353,0,0,0,2.772.616,7.276,7.276,0,0,0,3.08-1.54c2.156-2,3.08-4.62,4.312-7.084a25.614,25.614,0,0,0,1.386-5.7,38.111,38.111,0,0,0,.924-4.466c.462-2.464,1.694-3.7,4.158-3.7a12.525,12.525,0,0,1,4.774.308,2.89,2.89,0,0,1,2.464,3.85.538.538,0,0,0-.154.308c-.462,3.08-1.54,5.852-2,8.932a15.623,15.623,0,0,0-.308,3.85,9.914,9.914,0,0,0,1.694,4.158A5.832,5.832,0,0,0-30.415-.616Zm-10.01-37.576a1.8,1.8,0,0,1-1.694-1.386,1.168,1.168,0,0,1-.308-.616c-.154-2.156-.308-4.466.616-6.468a6.644,6.644,0,0,1,2.464-2.618c.154-.154.616,0,.924-.154,1.232-.154,2.464.462,3.85.308h1.078c.616.154,1.232-.154,1.54.308a3.229,3.229,0,0,1,.616,1.694,22.976,22.976,0,0,1-.308,3.234,10.8,10.8,0,0,1-1.848,4.312,2.612,2.612,0,0,1-2.464,1.386h-2A13.17,13.17,0,0,0-40.425-38.192ZM22.407,2A25.065,25.065,0,0,0,27.027.924,28.893,28.893,0,0,0,32.571-2.31a35.1,35.1,0,0,0,5.7-6.006,38.65,38.65,0,0,0,3.7-7.084,18.589,18.589,0,0,0,1.848-6.314,21.682,21.682,0,0,0,.154-4.466,27.261,27.261,0,0,0-.154-3.542A13.1,13.1,0,0,0,43.2-33.11c-.616-1.54-1.078-2.926-1.54-4.466a22.162,22.162,0,0,0-3.542-6.16,24.143,24.143,0,0,0-4.774-4.928,22.131,22.131,0,0,0-3.85-2.772l-2.31-1.232a3.041,3.041,0,0,1-.924-2.156,3.711,3.711,0,0,1,.616-2.31c1.54-2,2.772-4.312,4.312-6.16a40.377,40.377,0,0,1,3.388-3.85,22.66,22.66,0,0,1,5.39-4.774,8,8,0,0,0,2.618-2.926,5.82,5.82,0,0,0,.308-5.7,6.733,6.733,0,0,0-6.93-3.85,8.885,8.885,0,0,0-4.928,2.156,80.482,80.482,0,0,0-7.546,6.93c-1.54,1.694-2.926,3.388-4.312,5.236a84.98,84.98,0,0,0-6.16,10.164A52.2,52.2,0,0,0,10.241-53.9a59.906,59.906,0,0,0-3.388,9.24A77.979,77.979,0,0,0,4.081-32.8a46.041,46.041,0,0,0-.616,6.314,31.725,31.725,0,0,0,0,6.622c.308,1.54.308,3.388.77,4.928A22.514,22.514,0,0,0,5-11.858l1.386,3.7A19.458,19.458,0,0,0,12.4-.924a13.784,13.784,0,0,0,6.93,2.772A10.363,10.363,0,0,0,22.407,2Zm-.924-12.474a3.911,3.911,0,0,1-1.54-1.232,11.918,11.918,0,0,1-1.848-4l-.462-2.31a24.71,24.71,0,0,1-.616-6.776,47.26,47.26,0,0,1,1.078-9.24l.616-2.926a3.388,3.388,0,0,1,2-2.31,2.833,2.833,0,0,1,3.08.308,14.673,14.673,0,0,1,4.466,4.774c1.54,2.464,2,5.236,2.464,8.008a9.362,9.362,0,0,1-.154,2.926,21.343,21.343,0,0,1-1.386,5.39,20.962,20.962,0,0,1-3.234,4.928,10.055,10.055,0,0,1-2.464,2A3.206,3.206,0,0,1,21.483-10.472ZM-97.856,99.1a23.821,23.821,0,0,0,4.352-.512,19.642,19.642,0,0,0,4.864-1.536,24.237,24.237,0,0,0,3.84-2.432A24.681,24.681,0,0,0-80.832,90.4a26.63,26.63,0,0,0,2.816-4.864,25.335,25.335,0,0,0,2.3-8.064,11.913,11.913,0,0,0,.128-3.712c-.256-1.024-.128-2.048-.384-3.072s-.384-2.048-.64-3.072A45.507,45.507,0,0,0-80.576,58.4a38.38,38.38,0,0,0-4.736-6.272l-3.584-3.84a6.061,6.061,0,0,1-1.152-5.632,11.1,11.1,0,0,1,2.176-4.224A8.1,8.1,0,0,1-83.9,35.616a11.527,11.527,0,0,1,2.048-.384,6.489,6.489,0,0,0,3.584-2.56,5.676,5.676,0,0,0-2.048-8.448,8.719,8.719,0,0,0-3.584-.9,14.1,14.1,0,0,0-2.3.256,17.933,17.933,0,0,0-4.608,1.664c-1.28.768-2.432,1.664-3.712,2.56a24.675,24.675,0,0,0-3.456,3.84,23.793,23.793,0,0,0-2.944,5.248,22.7,22.7,0,0,0-1.664,6.912,15.632,15.632,0,0,0,.128,3.456,21.892,21.892,0,0,0,1.152,3.84,22.375,22.375,0,0,0,4.864,7.04l1.792,1.792a23.669,23.669,0,0,1,4.224,5.888A21.543,21.543,0,0,1-88,72.608a12.957,12.957,0,0,1,.256,3.84,16.812,16.812,0,0,1-2.048,5.5,14.85,14.85,0,0,1-2.56,3.072,6.489,6.489,0,0,1-3.84,1.664c-1.152.128-2.3.128-3.456.256a6.982,6.982,0,0,0-4.992,2.688,5.455,5.455,0,0,0-.9,4.864,6.344,6.344,0,0,0,3.328,3.712A8.6,8.6,0,0,0-97.856,99.1Zm59.392-2.56a5.593,5.593,0,0,0,3.84-3.712,13,13,0,0,0,.768-4.352c.128-1.536,0-3.2,0-4.736V79.776a38.764,38.764,0,0,0-.256-3.968c0-2.944.128-5.888-.128-8.832-.256-2.3-.128-4.736-.256-7.04a25,25,0,0,1-.384-4.352c0-.128.128-.256,0-.256a1.647,1.647,0,0,1-.128-1.536c0-.64-.384-1.024-.384-1.664.128-1.28-.384-2.688-.512-4.1-.128-1.28-.64-2.688-.9-4.1a40.459,40.459,0,0,0-2.176-6.656,33.057,33.057,0,0,0-2.816-5.632,16.48,16.48,0,0,0-2.816-3.84,6.211,6.211,0,0,0-5.632-1.92,4.376,4.376,0,0,0-3.328,1.792,25.689,25.689,0,0,0-3.584,6.656l-3.328,8.32c-.9,2.56-2.048,5.248-2.944,7.936-1.536,4.224-2.944,8.576-4.1,13.056-.512,2.176-1.152,4.352-1.536,6.528l-1.152,6.016c-.384,2.048-.64,3.968-.9,6.016a17.508,17.508,0,0,0-.256,3.712v.256a3.9,3.9,0,0,0,.128,2.688A6.542,6.542,0,0,0-68.8,92.832a3.937,3.937,0,0,0,4.352.768,6.9,6.9,0,0,0,1.664-.9A9.524,9.524,0,0,0-60.1,88.736c.256-1.28.384-2.688.64-3.968l.768-5.632a2.045,2.045,0,0,1,.64-1.28A8.281,8.281,0,0,1-57.024,76.7a.972.972,0,0,1,1.152-.384c1.28,0,2.56,0,3.84.128,1.408.128,2.944.256,4.48.256a2.078,2.078,0,0,1,1.152.64,4.315,4.315,0,0,1,.64,2.176c.128,3.584-.128,7.168.256,10.752a6.917,6.917,0,0,0,2.688,5.376A4.228,4.228,0,0,0-38.464,96.544ZM-48.832,64.8a4.261,4.261,0,0,1-1.792-.128,5.738,5.738,0,0,0-1.536-.128,2.532,2.532,0,0,1-1.408-.256,1.506,1.506,0,0,1-1.152-1.536,6.5,6.5,0,0,1,.384-2.176c.64-2.3,1.536-4.608,2.3-7.04.768-1.792,1.408-3.712,2.176-5.632,0-.128.128-.256.256-.512a.968.968,0,0,1,1.024-.384c.384,0,.512.384.512.64a13.39,13.39,0,0,1,.512,2.176c.256,1.536.384,3.072.768,4.608v.128c-.128,1.408.256,2.688.256,4.1a15.683,15.683,0,0,1,.256,2.432,6.762,6.762,0,0,1-.128,1.664A2.6,2.6,0,0,1-48.832,64.8ZM2.88,98.208a6.516,6.516,0,0,0,3.712-1.92A5.4,5.4,0,0,0,8,91.04a5.387,5.387,0,0,0-2.048-3.2,11.047,11.047,0,0,0-7.424-1.92c-.384,0-.64.128-.9,0a62.767,62.767,0,0,0-6.912-.512h-2.432a5.048,5.048,0,0,1-2.56-.64,2.4,2.4,0,0,1-1.536-2.176,15.632,15.632,0,0,1,.128-3.456,9.624,9.624,0,0,1,0-1.92,31.384,31.384,0,0,0,.256-3.456V70.432c0-1.408.256-2.816.128-4.224V65.7c.384-.64.128-1.28.128-1.792-.128-.64.256-1.152.128-1.664-.256-1.408.128-2.816-.128-4.224V57.76a16.369,16.369,0,0,0,.128-4.352c0-1.024.128-2.048.128-3.072v-2.3a24.992,24.992,0,0,0,.256-2.944,21.7,21.7,0,0,1,.128-2.944c.128-1.664.128-3.328.256-4.992a26.134,26.134,0,0,0,0-4.48,26.583,26.583,0,0,0-.64-3.84,8.913,8.913,0,0,0-1.408-2.944,5.12,5.12,0,0,0-5.248-1.536,5.654,5.654,0,0,0-3.584,3.456,18.027,18.027,0,0,0-.9,5.76V36.9c-.128.9,0,1.664-.128,2.432a10.405,10.405,0,0,0-.128,2.816c0,1.28-.128,2.56-.128,3.84a20.651,20.651,0,0,1,0,2.816,23.312,23.312,0,0,0-.128,4.224v.64a19.28,19.28,0,0,0-.128,3.84,35.971,35.971,0,0,1-.128,3.712v3.456a17.707,17.707,0,0,0-.128,3.712.24.24,0,0,1,0,.384,31.192,31.192,0,0,0-.128,3.456A19.818,19.818,0,0,1-27.2,75.04c-.128,1.408-.128,2.688-.128,3.968,0,1.024-.128,2.176-.128,3.2a9.624,9.624,0,0,1,0,1.92,17.76,17.76,0,0,0,.512,5.888,7.928,7.928,0,0,0,3.072,3.712,6.958,6.958,0,0,0,2.944,1.408,20.733,20.733,0,0,0,4.864,1.152c1.152.128,2.432.128,3.712.256a34.984,34.984,0,0,1,5.12.64,26.21,26.21,0,0,1,5.376.9A11.815,11.815,0,0,0,2.88,98.208Zm29.44-3.84a17.345,17.345,0,0,0,4.48-.128,14.961,14.961,0,0,0,2.56-.768,16.945,16.945,0,0,0,4.1-2.56,22.9,22.9,0,0,0,3.584-3.456,24.833,24.833,0,0,0,1.92-3.072A38.387,38.387,0,0,0,52.928,75.3a71.87,71.87,0,0,0,1.664-7.552c.128-1.152.512-2.3.64-3.584.256-2.944.768-6.016,1.024-8.96,0-1.92.256-3.712.384-5.632a10.946,10.946,0,0,1,0-2.048,10.631,10.631,0,0,0,.128-2.816c0-1.024.128-2.048.128-3.072,0-.9-.128-1.664-.128-2.432a21.925,21.925,0,0,0,.128-4.1,5.544,5.544,0,0,1-.128-.64,7.3,7.3,0,0,0-.64-4.352,6.447,6.447,0,0,0-8.192-3.456,5.507,5.507,0,0,0-2.688,2.432,9.716,9.716,0,0,0-1.28,6.016v3.328c-.128,1.92,0,3.84-.128,5.76a17.067,17.067,0,0,0,0,2.56,21.348,21.348,0,0,0-.256,4.1c0,2.176-.384,4.224-.512,6.4-.256,2.816-.768,5.632-1.28,8.32a58.791,58.791,0,0,1-3.072,11.52,12.314,12.314,0,0,1-2.56,4.1,2.383,2.383,0,0,1-2.944.64,10.423,10.423,0,0,1-3.584-3.072A16.537,16.537,0,0,1,26.176,70.3c-.384-3.712-1.024-7.3-1.152-11.136a29.672,29.672,0,0,0-.128-4.736v-.384a13.381,13.381,0,0,0,0-3.2c.128-1.024,0-2.176.128-3.2V42.272c.128-1.536.128-3.2.128-4.736a10.346,10.346,0,0,1,.128-2.048,5.425,5.425,0,0,0-.9-3.968,6.322,6.322,0,0,0-4.48-3.072,6.412,6.412,0,0,0-4.1.768,6.814,6.814,0,0,0-2.816,3.456,17.739,17.739,0,0,0-.9,6.272v3.072a13.848,13.848,0,0,1,0,2.3,14.77,14.77,0,0,0-.128,3.328,28.867,28.867,0,0,1,0,3.328c-.128,1.92.128,3.84,0,5.888a13.671,13.671,0,0,0,.128,3.2c0,1.92.384,3.968.384,5.888a9.6,9.6,0,0,0,.256,2.56c-.128,1.792.768,3.84.9,6.016a.4.4,0,0,0,.128.256c.512,1.536.9,3.328,1.536,4.864a25.89,25.89,0,0,0,4.224,7.3,17.668,17.668,0,0,0,5.12,4.608A19.283,19.283,0,0,0,32.32,94.368Zm33.408,2.944a13.162,13.162,0,0,0,4.48,0A44.187,44.187,0,0,0,78.4,94.5c1.536-.768,2.944-1.536,4.352-2.3a47.926,47.926,0,0,0,7.04-5.248c1.92-1.792,3.584-3.968,5.376-5.888l2.56-3.328c.768-1.024,1.408-2.048,2.048-3.072.9-1.408,1.664-2.816,2.432-4.224.512-1.152.9-2.3,1.408-3.456a31.563,31.563,0,0,0,2.176-9.856c0-.768-.256-1.536-.256-2.3a13.641,13.641,0,0,0-.768-3.968,28.227,28.227,0,0,0-2.688-6.4A46.365,46.365,0,0,0,98.624,39.2,34.989,34.989,0,0,0,94.4,34.72c-1.024-.9-2.176-1.792-3.328-2.688a53.91,53.91,0,0,0-6.528-3.712,45.3,45.3,0,0,0-4.352-2.048,26.1,26.1,0,0,0-7.68-1.28c-.64.128-1.28-.128-1.792.128a17.39,17.39,0,0,0-3.584,1.408,6.4,6.4,0,0,0-3.328,4.736,29.764,29.764,0,0,0-.64,3.584c-.128,1.28-.384,2.56-.512,3.84,0,.256.128.384,0,.512a1.914,1.914,0,0,0-.128,1.664c0,.64-.384,1.28-.256,1.92,0,1.408-.384,2.816-.256,4.224l-.128.128c-.384,1.28-.128,2.816-.384,4.224-.256,1.28-.128,2.688-.256,3.968-.256,2.176.128,4.352-.256,6.528-.128,6.144.128,12.288-.256,18.3a20.651,20.651,0,0,0,0,2.816,58.518,58.518,0,0,0,.384,8.192,9.4,9.4,0,0,0,1.92,4.48A4.852,4.852,0,0,0,65.728,97.312Zm8.7-12.928a1.328,1.328,0,0,1-1.664-1.024V73.888c-.128-5.12.384-10.624.256-16.128a27.824,27.824,0,0,0,.256-4.608,24.856,24.856,0,0,1,.256-3.072c.384-1.28,0-2.688.512-3.968v-.256c-.128-1.408.256-2.688.256-4.1,0-.768.256-1.408.256-2.176a.47.47,0,0,1,.128-.384,2.161,2.161,0,0,1,2.176-1.024,15.058,15.058,0,0,1,2.56.9,36.91,36.91,0,0,1,4.864,2.816,26.2,26.2,0,0,1,4.736,4.48,36.922,36.922,0,0,1,2.944,4.352A14.943,14.943,0,0,1,93.376,54.3a11.23,11.23,0,0,1,.256,4.608,14.629,14.629,0,0,1-1.152,3.84,49.3,49.3,0,0,1-5.632,9.728c-2.432,3.456-5.5,6.272-8.448,9.216a13.636,13.636,0,0,1-3.584,2.432ZM-92.8,198.848a5.167,5.167,0,0,0,3.328-2.3,11.357,11.357,0,0,0,1.536-5.376,33.814,33.814,0,0,0-.256-3.712c-.128-1.408,0-2.944,0-4.352v-4.736a1.018,1.018,0,0,1,1.152-1.152,2.433,2.433,0,0,1,1.664.64,22.25,22.25,0,0,1,1.664,1.92,14.45,14.45,0,0,1,3.072,5.888c.512,1.792.768,3.84,1.28,5.76a7.644,7.644,0,0,0,3.072,4.608,5.553,5.553,0,0,0,7.552-.9,7.611,7.611,0,0,0,1.664-4.352,7.555,7.555,0,0,0-.256-1.792,31.679,31.679,0,0,0-.768-3.712,28,28,0,0,0-2.176-7.04,20.453,20.453,0,0,0-2.944-5.12c-.768-1.024-1.536-2.048-2.432-3.072a1.76,1.76,0,0,1,.128-2.688,1.767,1.767,0,0,0,.384-.512c.64-.768,1.536-1.152,2.176-1.92,1.024-1.152,2.048-2.3,2.944-3.456a32.837,32.837,0,0,0,3.328-5.248,33.268,33.268,0,0,0,1.664-4.608,33.654,33.654,0,0,0,.768-4.992,23.019,23.019,0,0,0-.384-5.12,20.146,20.146,0,0,0-2.432-6.528A16.759,16.759,0,0,0-71.3,130.24a17.63,17.63,0,0,0-10.88-3.584c-.64,0-1.152.384-1.92.256a6.5,6.5,0,0,0-2.176.384,17.342,17.342,0,0,0-5.632,2.56,11.6,11.6,0,0,0-2.048,1.408,11.139,11.139,0,0,0-2.176,2.688l-1.536,2.688a10.675,10.675,0,0,0-1.408,4.736c-.256,1.536-.128,3.072-.256,4.608-.256,1.536,0,3.2-.256,4.736-.256,1.28-.128,2.688-.256,3.968-.256,1.792-.128,3.584-.256,5.248-.256,2.944-.128,5.888-.256,8.832-.256,3.84-.128,7.68-.128,11.648.128,3.84-.128,7.68.256,11.52a7.716,7.716,0,0,0,1.792,4.736A4.924,4.924,0,0,0-92.8,198.848Zm7.3-40.064A1.541,1.541,0,0,1-87.3,158.4a.7.7,0,0,1-.384-.64c.128-.64-.128-1.408.256-2.048v-.384a53.67,53.67,0,0,1,.384-6.4c0-1.92.128-3.968.256-5.888,0-1.792,1.28-2.688,2.816-3.328a6.494,6.494,0,0,1,4.1-.256,7.6,7.6,0,0,1,1.024.512,5.924,5.924,0,0,1,2.176,4.736v.9c.128,2.688-1.024,4.992-2.3,7.168a14.3,14.3,0,0,1-2.432,3.072A12,12,0,0,1-85.5,158.784Zm39.168,36.352c1.408.256,2.816-.256,4.224-.128a33.729,33.729,0,0,0,3.584-.256,7.109,7.109,0,0,0,4.48-2.176,4.128,4.128,0,0,0,1.152-3.328,5.008,5.008,0,0,0-2.432-3.584,10.965,10.965,0,0,0-5.248-1.28c-1.408-.128-2.816,0-4.224,0a2.535,2.535,0,0,1-2.816-2.432A18.693,18.693,0,0,1-48,179.136V172.48c.128-1.792.512-2.3,2.3-2.816h.9a26.689,26.689,0,0,1,3.2,0,14.8,14.8,0,0,0,4.736-.9c2.56-.9,4.48-3.072,4.224-5.632a5.311,5.311,0,0,0-3.328-4.864,13.7,13.7,0,0,0-5.5-1.152c-1.28.128-2.56,0-3.968.128a1.367,1.367,0,0,1-1.152-.9,3.6,3.6,0,0,1-.512-2.56,6.245,6.245,0,0,0,.128-2.176c.128-3.072.128-6.016.128-8.96,0-1.536.9-2.688,2.432-2.56,2.432,0,4.736-.384,7.04-.384a7.481,7.481,0,0,0,2.432-.256c1.92-.64,3.712-1.28,4.736-3.072a5.01,5.01,0,0,0,.128-5.76,8.5,8.5,0,0,0-6.144-3.328c-3.456-.128-6.912.256-10.368.384-.128,0-.128-.128-.256,0-1.28.384-2.688.128-3.968.384a21.172,21.172,0,0,0-4.1.9,6.66,6.66,0,0,0-4.352,3.456c-.384,1.152-.9,2.3-.384,3.584a1.413,1.413,0,0,1,0,1.024,1.893,1.893,0,0,0,0,1.664v.64c.128,1.792.256,3.456.256,5.12a53.883,53.883,0,0,1-.128,9.088c-.256,1.536-.128,3.2-.256,4.736-.256,1.536-.128,2.944-.256,4.48-.256,2.176-.128,4.224-.256,6.4a58.611,58.611,0,0,0-.128,6.912c.256,1.792-.128,4.352.256,7.04a23.449,23.449,0,0,0,1.152,4.992,9.6,9.6,0,0,0,6.4,6.144A26.492,26.492,0,0,0-46.336,195.136Zm28.928,3.328a5.927,5.927,0,0,0,3.072-2.176,10.269,10.269,0,0,0,1.408-4.352,21.7,21.7,0,0,1,.128-2.944,35.971,35.971,0,0,1,.128-3.712c0-1.408-.128-2.816-.128-4.224V170.688c0-1.536.128-2.944.128-4.352a6.232,6.232,0,0,1,.128-1.536.853.853,0,0,1,.64-.9c.256-.128.512.256.768.512a1.767,1.767,0,0,1,.384.512c.384,1.408,1.152,2.688,1.664,4.1,1.152,2.432,2.176,4.864,3.328,7.3,1.024,1.92,1.92,3.968,2.944,5.76a45.242,45.242,0,0,0,4.224,7.3,19.538,19.538,0,0,1,2.048,2.816A23.371,23.371,0,0,0,5.12,194.24a4.94,4.94,0,0,0,4.992,1.664,5.416,5.416,0,0,0,3.968-3.456,20.593,20.593,0,0,0,.9-4.736c.512-3.072.64-6.272.9-9.344.128-2.432.128-4.736.256-7.168l.384-7.168c.128-2.688.256-5.5.128-8.192v-1.92c.128-1.92.128-3.84.128-5.632v-8.832l.128-1.664a12.354,12.354,0,0,1,0-2.176,23.408,23.408,0,0,0-.256-4.224,11.888,11.888,0,0,1-.512-1.664,7.581,7.581,0,0,0-2.56-4.48,4.47,4.47,0,0,0-3.072-1.28,5.535,5.535,0,0,0-4.48,2.944,13.487,13.487,0,0,0-1.536,4.864,17.508,17.508,0,0,0-.256,3.712c-.128,1.408-.128,4.224-.128,5.5v6.4c-.128.768,0,1.536-.128,2.3a15.6,15.6,0,0,0,0,3.456c.128,1.408,0,2.688,0,4.1V163.9c-.128.256-.128.64-.64.768-.384,0-.512-.256-.768-.512,0-.128-.128-.256-.128-.384-.9-1.664-1.536-3.456-2.3-5.12-1.024-2.688-2.048-5.376-3.2-8.064-.9-2.176-1.792-4.224-2.56-6.4A34.463,34.463,0,0,1-7.3,140.1l-1.92-4.48c-1.024-2.048-2.048-4.1-4.224-5.248a6.164,6.164,0,0,0-4.224-1.024,6.461,6.461,0,0,0-5.248,4.736,38.575,38.575,0,0,0-1.28,8.448l-.384,6.656c-.128,2.3-.384,4.608-.384,6.912-.128,1.536,0,3.072-.128,4.608a23.8,23.8,0,0,0-.128,5.248V170.3c0,1.92-.128,3.712,0,5.632,0,1.408-.128,2.944,0,4.48,0,.768.128,1.664.128,2.432a28.867,28.867,0,0,0,0,3.328,18.027,18.027,0,0,1,.128,2.56A33.5,33.5,0,0,0-24.7,193.6a5.12,5.12,0,0,0,1.408,2.944A5.491,5.491,0,0,0-17.408,198.464Zm71.3-1.92a5.593,5.593,0,0,0,3.84-3.712,13,13,0,0,0,.768-4.352c.128-1.536,0-3.2,0-4.736v-3.968a38.764,38.764,0,0,0-.256-3.968c0-2.944.128-5.888-.128-8.832-.256-2.3-.128-4.736-.256-7.04a25,25,0,0,1-.384-4.352c0-.128.128-.256,0-.256a1.647,1.647,0,0,1-.128-1.536c0-.64-.384-1.024-.384-1.664.128-1.28-.384-2.688-.512-4.1-.128-1.28-.64-2.688-.9-4.1a40.458,40.458,0,0,0-2.176-6.656,33.057,33.057,0,0,0-2.816-5.632,16.48,16.48,0,0,0-2.816-3.84,6.211,6.211,0,0,0-5.632-1.92,4.376,4.376,0,0,0-3.328,1.792,25.689,25.689,0,0,0-3.584,6.656l-3.328,8.32c-.9,2.56-2.048,5.248-2.944,7.936-1.536,4.224-2.944,8.576-4.1,13.056-.512,2.176-1.152,4.352-1.536,6.528l-1.152,6.016c-.384,2.048-.64,3.968-.9,6.016a17.508,17.508,0,0,0-.256,3.712v.256a3.9,3.9,0,0,0,.128,2.688,6.542,6.542,0,0,0,2.432,3.968,3.937,3.937,0,0,0,4.352.768,6.9,6.9,0,0,0,1.664-.9,9.524,9.524,0,0,0,2.688-3.968c.256-1.28.384-2.688.64-3.968l.768-5.632a2.045,2.045,0,0,1,.64-1.28,8.281,8.281,0,0,1,1.024-1.152.972.972,0,0,1,1.152-.384c1.28,0,2.56,0,3.84.128,1.408.128,2.944.256,4.48.256a2.078,2.078,0,0,1,1.152.64,4.315,4.315,0,0,1,.64,2.176c.128,3.584-.128,7.168.256,10.752a6.917,6.917,0,0,0,2.688,5.376A4.228,4.228,0,0,0,53.888,196.544ZM43.52,164.8a4.261,4.261,0,0,1-1.792-.128,5.739,5.739,0,0,0-1.536-.128,2.532,2.532,0,0,1-1.408-.256,1.506,1.506,0,0,1-1.152-1.536,6.5,6.5,0,0,1,.384-2.176c.64-2.3,1.536-4.608,2.3-7.04.768-1.792,1.408-3.712,2.176-5.632,0-.128.128-.256.256-.512a.968.968,0,0,1,1.024-.384c.384,0,.512.384.512.64a13.391,13.391,0,0,1,.512,2.176c.256,1.536.384,3.072.768,4.608v.128c-.128,1.408.256,2.688.256,4.1a15.683,15.683,0,0,1,.256,2.432,6.762,6.762,0,0,1-.128,1.664A2.6,2.6,0,0,1,43.52,164.8Zm51.712,33.408a6.516,6.516,0,0,0,3.712-1.92,5.733,5.733,0,0,0-.64-8.448,11.047,11.047,0,0,0-7.424-1.92c-.384,0-.64.128-.9,0a62.765,62.765,0,0,0-6.912-.512H80.64a5.048,5.048,0,0,1-2.56-.64,2.4,2.4,0,0,1-1.536-2.176,15.632,15.632,0,0,1,.128-3.456,9.624,9.624,0,0,1,0-1.92,31.385,31.385,0,0,0,.256-3.456v-3.328c0-1.408.256-2.816.128-4.224V165.7c.384-.64.128-1.28.128-1.792-.128-.64.256-1.152.128-1.664-.256-1.408.128-2.816-.128-4.224v-.256a16.368,16.368,0,0,0,.128-4.352c0-1.024.128-2.048.128-3.072v-2.3a24.993,24.993,0,0,0,.256-2.944,21.7,21.7,0,0,1,.128-2.944c.128-1.664.128-3.328.256-4.992a26.134,26.134,0,0,0,0-4.48,26.584,26.584,0,0,0-.64-3.84,8.913,8.913,0,0,0-1.408-2.944,5.12,5.12,0,0,0-5.248-1.536,5.654,5.654,0,0,0-3.584,3.456,18.027,18.027,0,0,0-.9,5.76V136.9c-.128.9,0,1.664-.128,2.432a10.405,10.405,0,0,0-.128,2.816c0,1.28-.128,2.56-.128,3.84a20.651,20.651,0,0,1,0,2.816,23.312,23.312,0,0,0-.128,4.224v.64a19.28,19.28,0,0,0-.128,3.84,35.969,35.969,0,0,1-.128,3.712v3.456a17.708,17.708,0,0,0-.128,3.712.24.24,0,0,1,0,.384,31.192,31.192,0,0,0-.128,3.456,19.818,19.818,0,0,1-.128,2.816c-.128,1.408-.128,2.688-.128,3.968,0,1.024-.128,2.176-.128,3.2a9.624,9.624,0,0,1,0,1.92,17.76,17.76,0,0,0,.512,5.888,7.928,7.928,0,0,0,3.072,3.712,6.958,6.958,0,0,0,2.944,1.408,20.733,20.733,0,0,0,4.864,1.152c1.152.128,2.432.128,3.712.256a34.982,34.982,0,0,1,5.12.64,26.209,26.209,0,0,1,5.376.9A11.815,11.815,0,0,0,95.232,198.208Z" transform="translate(583 406)" fill="#fff"/>
    <g id="Grupo_10132" data-name="Grupo 10132" transform="translate(15117.965 -5075.451)">
      <path id="Trazado_644" data-name="Trazado 644" d="M176.514,88.257A88.257,88.257,0,1,1,88.257,0a88.257,88.257,0,0,1,88.257,88.257" transform="translate(-14374.296 5702.951)" fill="#d96501"/>
      <g id="Grupo_3205" data-name="Grupo 3205" transform="translate(-14345.852 5737.582)">
        <path id="Trazado_3240" data-name="Trazado 3240" d="M686.128,490.979c.718,2.056,1.4,3.8,1.937,5.589a55.762,55.762,0,0,1,2.265,8.27,14.078,14.078,0,0,1-12.363,15.9c-13.217,1.723-26.547-7.292-30.235-20.483-2.734-9.777-1.551-19.263,2.478-28.423,3.079-7,7.258-13.282,13.307-18.124,4.8-3.845,10.173-6.26,16.483-5.834,7.2.486,12.068,4.228,14.719,10.9,2.443,6.153,1.57,12.064-1.452,17.75-1.163,2.19-2.572,4.249-3.9,6.417a23.516,23.516,0,0,1,9.756,6.847,22.653,22.653,0,0,1,5.465,14.927q.015,24.011,0,48.023c0,1.749-.48,2.215-2.228,2.238-1.29.016-2.581.011-3.872,0-1.934-.014-2.415-.5-2.416-2.475q0-19.687,0-39.374c0-3.227.05-6.457-.064-9.681C695.819,498.138,691.466,492.53,686.128,490.979Zm-11.194,26.768c.458-.02,1.1-.035,1.747-.08a11.1,11.1,0,0,0,10.168-8.152,14.611,14.611,0,0,0-.518-8.5c-.863-2.559-1.922-5.053-2.754-7.622-1.355-4.187-1.105-8.027,2.206-11.442a31.1,31.1,0,0,0,4.06-5.8c2.4-4.009,3.788-8.316,2.808-13.044-1.676-8.081-6.8-12.357-14.725-12.065a20.2,20.2,0,0,0-11.169,4.232c-5.238,3.8-8.963,8.862-11.96,14.5-4.6,8.661-6.5,17.788-4.5,27.526A25.552,25.552,0,0,0,674.934,517.747Zm26.49,33.954V522.648c0-5.85.026-11.7-.007-17.551a20.043,20.043,0,0,0-12.81-18.968c-1.633-.629-1.833-.524-2.361,1.265a1.461,1.461,0,0,0,.3.212c8.69,3.286,12.794,9.2,12.794,18.453q0,22.068,0,44.136V551.7Z" transform="translate(-646.252 -447.744)" fill="#f8f8f8"/>
        <path id="Trazado_3241" data-name="Trazado 3241" d="M839.169,482.8c-1.74-3.354-3.762-6.577-5.144-10.054-2.938-7.389-.85-16.337,4.748-21.072,5.274-4.461,11.35-4.976,17.72-2.98,6.351,1.989,11.162,6.178,15.159,11.328a49.2,49.2,0,0,1,10.324,23.029c1.427,9.511.4,18.629-5.641,26.476a27.922,27.922,0,0,1-23.127,11.262c-7.466,0-13.168-4.658-14.578-11.607a19.191,19.191,0,0,1,1.271-10.735q1.18-3.129,2.3-6.281a11.29,11.29,0,0,0,.289-1.441c-5.073,2.08-8.2,5.535-9.4,10.617a18.666,18.666,0,0,0-.357,4.225q-.035,23.175-.015,46.351c0,2.567-.338,2.906-2.893,2.908-1.2,0-2.41.024-3.614-.008-1.5-.04-2-.541-2.015-2.061-.024-3.271-.009-6.542-.009-9.812,0-12.18.1-24.36-.031-36.538C824.035,495.063,829.122,487.253,839.169,482.8Zm40.179,6.537c-.083-1.137-.2-2.722-.315-4.308-.016-.214-.054-.426-.084-.639a46.713,46.713,0,0,0-9.433-21.883c-3.633-4.822-7.988-8.8-13.868-10.707-10.779-3.5-19.514,2.872-19.74,14.26a18.19,18.19,0,0,0,3.23,10.183c1.731,2.712,3.713,5.266,5.608,7.873A6.426,6.426,0,0,1,846,487.941a22.275,22.275,0,0,1-1.453,7.545,71.017,71.017,0,0,0-2.774,8.805,11.048,11.048,0,0,0,10.547,13.216,24.97,24.97,0,0,0,18.616-6.811C877.095,505.129,879.17,497.822,879.348,489.334Zm-49.877,62.208v-1.656q0-22.654.009-45.308a17.829,17.829,0,0,1,11.359-16.629c.588-.234,1.18-.457,1.938-.751l-1.094-1.7A19.925,19.925,0,0,0,827.4,504.935c-.034,15.189-.01,30.377-.006,45.566,0,.332.046.664.074,1.04Z" transform="translate(-762.923 -447.579)" fill="#f8f8f8"/>
      </g>
    </g>
  </g>
</svg>
