<svg xmlns="http://www.w3.org/2000/svg" width="98.794" height="56.039" viewBox="0 0 98.794 56.039">
  <g id="Grupo_10082" data-name="Grupo 10082" transform="translate(1532.464 4231.589)">
    <path id="Trazado_13598" data-name="Trazado 13598" d="M25.755-.34a4.536,4.536,0,0,0,2.635-3.4c.17-.85.425-1.7.6-2.635l1.02-4.25a7.025,7.025,0,0,1,.68-1.87,1.669,1.669,0,0,1,1.1-.765,4.614,4.614,0,0,1,1.87,0,4.455,4.455,0,0,0,2.125-.085,4.06,4.06,0,0,0,2.805-2.04,2.5,2.5,0,0,0,.51-2.295,3.944,3.944,0,0,0-2.635-2.89A4.755,4.755,0,0,0,34.34-21a1.1,1.1,0,0,1-1.275-1.19,6.433,6.433,0,0,1,.085-1.275,6.508,6.508,0,0,1,1.19-2.72,1.153,1.153,0,0,1,1.105-.595h2.04a6.433,6.433,0,0,0,1.275-.085,3.986,3.986,0,0,0,3.06-3.825,4.067,4.067,0,0,0-1.53-2.89,5.725,5.725,0,0,0-3.06-1.02H36.125c-.34,0-.51-.17-.425-.51a16.079,16.079,0,0,1,.425-1.955c.17-.935.425-1.87.6-2.805.085-.68.17-1.445.34-2.21a14.879,14.879,0,0,0,.34-2.72,3.992,3.992,0,0,0-.68-2.21,3.515,3.515,0,0,0-2.04-1.445,2.816,2.816,0,0,0-2.04,0,3.045,3.045,0,0,0-.935.34,4.929,4.929,0,0,0-1.955,2.635,16.229,16.229,0,0,0-.51,2.805c-.085.765-.34,1.53-.425,2.295-.17.935-.425,1.87-.595,2.805a2.563,2.563,0,0,1-2.465,2.3,14.427,14.427,0,0,1-3.315-.085.817.817,0,0,1-.68-.765,4.261,4.261,0,0,1,.085-1.445l.255-1.275.34-2.125a14.915,14.915,0,0,0,.425-3.91,2.546,2.546,0,0,0-.51-1.53,3.272,3.272,0,0,0-2.465-1.87,3.475,3.475,0,0,0-2.3.255,4.7,4.7,0,0,0-2.38,3.145c-.34,1.36-.51,2.72-.765,4.08a23.18,23.18,0,0,1-.85,3.485,3.339,3.339,0,0,1-1.275,1.785,2.718,2.718,0,0,1-1.615.425c-.85.085-1.7,0-2.55,0v.085H5.44c-.17,0-.34-.085-.51,0A4.564,4.564,0,0,0,2.38-33.4,3.111,3.111,0,0,0,1.7-31.2a3.408,3.408,0,0,0,1.1,2.635A4.365,4.365,0,0,0,5.95-27.285a28.72,28.72,0,0,0,3.825,0c.51,0,.68.255.935.68a1.078,1.078,0,0,1,.085.51,12.681,12.681,0,0,1-.17,1.785A8.473,8.473,0,0,1,9.35-21.165c-.255.255-.425.425-.765.425-1.1-.085-2.21.17-3.4.17A3.626,3.626,0,0,0,1.87-18.785a3.755,3.755,0,0,0-.425,3.145,3.929,3.929,0,0,0,2.89,2.635,3.164,3.164,0,0,0,1.53.17,4.266,4.266,0,0,1,1.02.17c.51.255,1.02.85.85,1.36A13.2,13.2,0,0,1,7.4-9.52c-.255.85-.255,1.7-.425,2.465a1.993,1.993,0,0,0,.17,1.02A17.071,17.071,0,0,0,7.225-3.91,4.1,4.1,0,0,0,8.84-1.19a2.4,2.4,0,0,0,1.53.34,4.016,4.016,0,0,0,1.7-.85,12.4,12.4,0,0,0,2.38-3.91,14.137,14.137,0,0,0,.765-3.145,21.035,21.035,0,0,0,.51-2.465,2.123,2.123,0,0,1,2.3-2.04,6.913,6.913,0,0,1,2.635.17,1.6,1.6,0,0,1,1.36,2.125.3.3,0,0,0-.085.17c-.255,1.7-.85,3.23-1.105,4.93a8.623,8.623,0,0,0-.17,2.125,5.472,5.472,0,0,0,.935,2.3A3.219,3.219,0,0,0,25.755-.34ZM20.23-21.08a1,1,0,0,1-.935-.765.644.644,0,0,1-.17-.34,7.253,7.253,0,0,1,.34-3.57,3.667,3.667,0,0,1,1.36-1.445c.085-.085.34,0,.51-.085.68-.085,1.36.255,2.125.17h.595c.34.085.68-.085.85.17a1.782,1.782,0,0,1,.34.935,12.681,12.681,0,0,1-.17,1.785,5.96,5.96,0,0,1-1.02,2.38,1.442,1.442,0,0,1-1.36.765H21.59A7.269,7.269,0,0,0,20.23-21.08ZM53.21,1.53a3.769,3.769,0,0,0,2.3-3.145,13.686,13.686,0,0,0,0-3.23,23.078,23.078,0,0,0-.085-2.38c0-.85-.085-1.785-.085-2.72a8.2,8.2,0,0,1,0-1.445c0-.935,0-1.955-.085-2.89a21.491,21.491,0,0,1-.085-2.38c0-1.02,0-2.125-.085-3.23v-2.3c0-1.19-.085-2.3-.085-3.485v-2.38c-.085-1.02-.085-2.04-.17-3.06,0-.935-.085-1.785-.085-2.635-.085-.935-.085-1.87-.17-2.72-.085-1.02-.085-2.04-.17-3.06a6.606,6.606,0,0,1-.17-1.36,9.251,9.251,0,0,0-.255-2.635A5.645,5.645,0,0,0,53.72-44.8a4.527,4.527,0,0,0-3.57-2.55,3.768,3.768,0,0,0-3.485,1.615,13.752,13.752,0,0,0-2.125,5.44,3.667,3.667,0,0,0,1.19,3.825c.85.425.765,1.275.765,1.955a2.353,2.353,0,0,1,.085.765c0,.425.085.935.085,1.36.085,1.19,0,2.3.085,3.485.085,1.1.085,2.295.17,3.4v4.165c.085,1.02.085,2.125.085,3.145.085,1.445.085,2.8.085,4.165,0,1.1.085,2.125.085,3.23,0,1.445.085,2.975.17,4.42.085,1.19.085,2.465.17,3.655a7.442,7.442,0,0,0,.51,2.38A3.789,3.789,0,0,0,53.21,1.53Z" transform="translate(-1533.735 -4177.469)" fill="#3fa3a7"/>
    <path id="Trazado_13599" data-name="Trazado 13599" d="M-10.67-13.82l-3.5,2.34a.745.745,0,0,0-.2.98l.42.68a.714.714,0,0,0,1,.22l1.84-1.24V-.72a.717.717,0,0,0,.72.72h1.28a.717.717,0,0,0,.72-.72V-13.28A.717.717,0,0,0-9.11-14h-.96A1.058,1.058,0,0,0-10.67-13.82Zm5.48,7.5v.72a.7.7,0,0,0,.72.7H.51a.7.7,0,0,0,.72-.7v-.72a.713.713,0,0,0-.72-.7H-4.47A.713.713,0,0,0-5.19-6.32ZM13.61-5.1h-.94v-8.18a.713.713,0,0,0-.7-.72H9.69a1.055,1.055,0,0,0-.9.5L3.65-5.26a1.257,1.257,0,0,0-.22.76v1a.713.713,0,0,0,.7.72H9.97V-.72a.713.713,0,0,0,.7.72h1.3a.713.713,0,0,0,.7-.72V-2.78h.94a.717.717,0,0,0,.72-.72v-.88A.717.717,0,0,0,13.61-5.1Zm-7.44,0,3.8-6.06V-5.1Z" transform="translate(-1448 -4217.589)" fill="#3fa3a7"/>
  </g>
</svg>
