<svg xmlns="http://www.w3.org/2000/svg" width="106.752" height="59.878" viewBox="0 0 106.752 59.878">
  <g id="Grupo_10116" data-name="Grupo 10116" transform="translate(-1961.228 4220.288)">
    <path id="Trazado_13686" data-name="Trazado 13686" d="M25.755-.34a4.536,4.536,0,0,0,2.635-3.4c.17-.85.425-1.7.6-2.635l1.02-4.25a7.025,7.025,0,0,1,.68-1.87,1.669,1.669,0,0,1,1.1-.765,4.614,4.614,0,0,1,1.87,0,4.455,4.455,0,0,0,2.125-.085,4.06,4.06,0,0,0,2.805-2.04,2.5,2.5,0,0,0,.51-2.295,3.944,3.944,0,0,0-2.635-2.89A4.755,4.755,0,0,0,34.34-21a1.1,1.1,0,0,1-1.275-1.19,6.433,6.433,0,0,1,.085-1.275,6.508,6.508,0,0,1,1.19-2.72,1.153,1.153,0,0,1,1.105-.595h2.04a6.433,6.433,0,0,0,1.275-.085,3.986,3.986,0,0,0,3.06-3.825,4.067,4.067,0,0,0-1.53-2.89,5.725,5.725,0,0,0-3.06-1.02H36.125c-.34,0-.51-.17-.425-.51a16.079,16.079,0,0,1,.425-1.955c.17-.935.425-1.87.6-2.805.085-.68.17-1.445.34-2.21a14.879,14.879,0,0,0,.34-2.72,3.992,3.992,0,0,0-.68-2.21,3.515,3.515,0,0,0-2.04-1.445,2.816,2.816,0,0,0-2.04,0,3.045,3.045,0,0,0-.935.34,4.929,4.929,0,0,0-1.955,2.635,16.229,16.229,0,0,0-.51,2.805c-.085.765-.34,1.53-.425,2.295-.17.935-.425,1.87-.595,2.805a2.563,2.563,0,0,1-2.465,2.3,14.427,14.427,0,0,1-3.315-.085.817.817,0,0,1-.68-.765,4.261,4.261,0,0,1,.085-1.445l.255-1.275.34-2.125a14.915,14.915,0,0,0,.425-3.91,2.546,2.546,0,0,0-.51-1.53,3.272,3.272,0,0,0-2.465-1.87,3.475,3.475,0,0,0-2.3.255,4.7,4.7,0,0,0-2.38,3.145c-.34,1.36-.51,2.72-.765,4.08a23.18,23.18,0,0,1-.85,3.485,3.339,3.339,0,0,1-1.275,1.785,2.718,2.718,0,0,1-1.615.425c-.85.085-1.7,0-2.55,0v.085H5.44c-.17,0-.34-.085-.51,0A4.564,4.564,0,0,0,2.38-33.4,3.111,3.111,0,0,0,1.7-31.2a3.408,3.408,0,0,0,1.1,2.635A4.365,4.365,0,0,0,5.95-27.285a28.72,28.72,0,0,0,3.825,0c.51,0,.68.255.935.68a1.078,1.078,0,0,1,.085.51,12.681,12.681,0,0,1-.17,1.785A8.473,8.473,0,0,1,9.35-21.165c-.255.255-.425.425-.765.425-1.1-.085-2.21.17-3.4.17A3.626,3.626,0,0,0,1.87-18.785a3.755,3.755,0,0,0-.425,3.145,3.929,3.929,0,0,0,2.89,2.635,3.164,3.164,0,0,0,1.53.17,4.266,4.266,0,0,1,1.02.17c.51.255,1.02.85.85,1.36A13.2,13.2,0,0,1,7.4-9.52c-.255.85-.255,1.7-.425,2.465a1.993,1.993,0,0,0,.17,1.02A17.071,17.071,0,0,0,7.225-3.91,4.1,4.1,0,0,0,8.84-1.19a2.4,2.4,0,0,0,1.53.34,4.016,4.016,0,0,0,1.7-.85,12.4,12.4,0,0,0,2.38-3.91,14.137,14.137,0,0,0,.765-3.145,21.035,21.035,0,0,0,.51-2.465,2.123,2.123,0,0,1,2.3-2.04,6.913,6.913,0,0,1,2.635.17,1.6,1.6,0,0,1,1.36,2.125.3.3,0,0,0-.085.17c-.255,1.7-.85,3.23-1.105,4.93a8.623,8.623,0,0,0-.17,2.125,5.472,5.472,0,0,0,.935,2.3A3.219,3.219,0,0,0,25.755-.34ZM20.23-21.08a1,1,0,0,1-.935-.765.644.644,0,0,1-.17-.34,7.253,7.253,0,0,1,.34-3.57,3.667,3.667,0,0,1,1.36-1.445c.085-.085.34,0,.51-.085.68-.085,1.36.255,2.125.17h.595c.34.085.68-.085.85.17a1.782,1.782,0,0,1,.34.935,12.681,12.681,0,0,1-.17,1.785,5.96,5.96,0,0,1-1.02,2.38,1.442,1.442,0,0,1-1.36.765H21.59A7.269,7.269,0,0,0,20.23-21.08ZM52.7,3.485a4.728,4.728,0,0,0,1.785-.51A36.508,36.508,0,0,0,59.755-.68,17.859,17.859,0,0,0,63.92-5.95a19.3,19.3,0,0,0,1.445-4.25,17.665,17.665,0,0,0,0-5.185c-.085-.425-.34-.68-.425-1.02a3.641,3.641,0,0,0-.425-1.36,15.4,15.4,0,0,0-1.7-2.805,13.207,13.207,0,0,0-3.315-2.8,15.488,15.488,0,0,0-4.335-1.53,12.193,12.193,0,0,1-2.38-.6.952.952,0,0,1-.6-.68,1.4,1.4,0,0,1-.17-.85c.085-.935.085-1.955.17-2.975,0-1.36.085-2.805.17-4.165a20.714,20.714,0,0,1,.085-2.295c0-1.105.085-2.21.085-3.4a1.666,1.666,0,0,1,1.1-1.36,4.34,4.34,0,0,1,1.785-.255,13.713,13.713,0,0,0,1.87,0c.85,0,1.785.085,2.72,0a7.1,7.1,0,0,0,2.975-.255,6.776,6.776,0,0,0,1.275-.255,3.716,3.716,0,0,0,1.955-4.165,3.556,3.556,0,0,0-2.465-2.55,5.322,5.322,0,0,0-2.295-.255,16.336,16.336,0,0,1-2.04,0h-2.55c-1.19-.085-2.38-.085-3.57-.085H51.51a17.767,17.767,0,0,1-2.125.085,4.392,4.392,0,0,0-2.72.935,3.716,3.716,0,0,0-1.275,3.4,1.767,1.767,0,0,1-.085.935c-.17.935-.17,1.87-.255,2.8,0,.85-.085,1.7-.085,2.465,0,1.19-.085,2.38-.085,3.485-.085,1.275-.085,2.55-.17,3.825,0,1.53-.085,3.145-.17,4.76-.085,1.36-.17,2.72-.17,4.165a4.978,4.978,0,0,0,.595,2.635,4.846,4.846,0,0,0,2.55,1.955,9.546,9.546,0,0,0,3.485.17,17.948,17.948,0,0,1,2.21-.17,7.79,7.79,0,0,1,2.125.51,4.884,4.884,0,0,1,2.8,4.25,7.1,7.1,0,0,1-.935,3.655A12.272,12.272,0,0,1,54.23-5.865,30.748,30.748,0,0,1,51.51-4,9.494,9.494,0,0,0,49.47-2.38a3.87,3.87,0,0,0-.935,3.4,3.152,3.152,0,0,0,1.955,2.3A3.886,3.886,0,0,0,52.7,3.485Z" transform="translate(1959.956 -4163.983)" fill="#3fa3a7"/>
    <path id="Trazado_13692" data-name="Trazado 13692" d="M-6.94-2.52C-3.72-6.22-2-8.1-2-10.06a4.116,4.116,0,0,0-4.22-4.2,4.493,4.493,0,0,0-4.44,2.82.721.721,0,0,0,.5.96l1.32.3a.533.533,0,0,0,.62-.34A1.793,1.793,0,0,1-6.44-11.8,1.663,1.663,0,0,1-4.72-9.98c0,1.22-1.4,2.76-2.62,4.16-1.2,1.4-1.94,2.24-3.1,3.52a1.175,1.175,0,0,0-.26.72v.86A.713.713,0,0,0-10,0h7.5a.717.717,0,0,0,.72-.72V-1.8a.717.717,0,0,0-.72-.72ZM5.34-14.24C1.24-14.24-.28-10.7-.28-7-.28-3.28,1.24.26,5.34.26,9.46.26,10.98-3.28,10.98-7,10.98-10.7,9.46-14.24,5.34-14.24Zm0,11.92C3.08-2.32,2.42-4.72,2.42-7c0-2.26.66-4.66,2.92-4.66,2.28,0,2.94,2.4,2.94,4.66C8.28-4.72,7.62-2.32,5.34-2.32Z" transform="translate(2057 -4206.028)" fill="#3fa3a7"/>
  </g>
</svg>
