<svg xmlns="http://www.w3.org/2000/svg" width="128.94" height="57.386" viewBox="0 0 128.94 57.386">
  <g id="Grupo_10084" data-name="Grupo 10084" transform="translate(883.36 4231.829)">
    <path id="Trazado_13603" data-name="Trazado 13603" d="M25.755-.34a4.536,4.536,0,0,0,2.635-3.4c.17-.85.425-1.7.6-2.635l1.02-4.25a7.025,7.025,0,0,1,.68-1.87,1.669,1.669,0,0,1,1.1-.765,4.614,4.614,0,0,1,1.87,0,4.455,4.455,0,0,0,2.125-.085,4.06,4.06,0,0,0,2.805-2.04,2.5,2.5,0,0,0,.51-2.295,3.944,3.944,0,0,0-2.635-2.89A4.755,4.755,0,0,0,34.34-21a1.1,1.1,0,0,1-1.275-1.19,6.433,6.433,0,0,1,.085-1.275,6.508,6.508,0,0,1,1.19-2.72,1.153,1.153,0,0,1,1.105-.595h2.04a6.433,6.433,0,0,0,1.275-.085,3.986,3.986,0,0,0,3.06-3.825,4.067,4.067,0,0,0-1.53-2.89,5.725,5.725,0,0,0-3.06-1.02H36.125c-.34,0-.51-.17-.425-.51a16.079,16.079,0,0,1,.425-1.955c.17-.935.425-1.87.6-2.805.085-.68.17-1.445.34-2.21a14.879,14.879,0,0,0,.34-2.72,3.992,3.992,0,0,0-.68-2.21,3.515,3.515,0,0,0-2.04-1.445,2.816,2.816,0,0,0-2.04,0,3.045,3.045,0,0,0-.935.34,4.929,4.929,0,0,0-1.955,2.635,16.229,16.229,0,0,0-.51,2.805c-.085.765-.34,1.53-.425,2.295-.17.935-.425,1.87-.595,2.805a2.563,2.563,0,0,1-2.465,2.3,14.427,14.427,0,0,1-3.315-.085.817.817,0,0,1-.68-.765,4.261,4.261,0,0,1,.085-1.445l.255-1.275.34-2.125a14.915,14.915,0,0,0,.425-3.91,2.546,2.546,0,0,0-.51-1.53,3.272,3.272,0,0,0-2.465-1.87,3.475,3.475,0,0,0-2.3.255,4.7,4.7,0,0,0-2.38,3.145c-.34,1.36-.51,2.72-.765,4.08a23.18,23.18,0,0,1-.85,3.485,3.339,3.339,0,0,1-1.275,1.785,2.718,2.718,0,0,1-1.615.425c-.85.085-1.7,0-2.55,0v.085H5.44c-.17,0-.34-.085-.51,0A4.564,4.564,0,0,0,2.38-33.4,3.111,3.111,0,0,0,1.7-31.2a3.408,3.408,0,0,0,1.1,2.635A4.365,4.365,0,0,0,5.95-27.285a28.72,28.72,0,0,0,3.825,0c.51,0,.68.255.935.68a1.078,1.078,0,0,1,.085.51,12.681,12.681,0,0,1-.17,1.785A8.473,8.473,0,0,1,9.35-21.165c-.255.255-.425.425-.765.425-1.1-.085-2.21.17-3.4.17A3.626,3.626,0,0,0,1.87-18.785a3.755,3.755,0,0,0-.425,3.145,3.929,3.929,0,0,0,2.89,2.635,3.164,3.164,0,0,0,1.53.17,4.266,4.266,0,0,1,1.02.17c.51.255,1.02.85.85,1.36A13.2,13.2,0,0,1,7.4-9.52c-.255.85-.255,1.7-.425,2.465a1.993,1.993,0,0,0,.17,1.02A17.071,17.071,0,0,0,7.225-3.91,4.1,4.1,0,0,0,8.84-1.19a2.4,2.4,0,0,0,1.53.34,4.016,4.016,0,0,0,1.7-.85,12.4,12.4,0,0,0,2.38-3.91,14.137,14.137,0,0,0,.765-3.145,21.035,21.035,0,0,0,.51-2.465,2.123,2.123,0,0,1,2.3-2.04,6.913,6.913,0,0,1,2.635.17,1.6,1.6,0,0,1,1.36,2.125.3.3,0,0,0-.085.17c-.255,1.7-.85,3.23-1.105,4.93a8.623,8.623,0,0,0-.17,2.125,5.472,5.472,0,0,0,.935,2.3A3.219,3.219,0,0,0,25.755-.34ZM20.23-21.08a1,1,0,0,1-.935-.765.644.644,0,0,1-.17-.34,7.253,7.253,0,0,1,.34-3.57,3.667,3.667,0,0,1,1.36-1.445c.085-.085.34,0,.51-.085.68-.085,1.36.255,2.125.17h.595c.34.085.68-.085.85.17a1.782,1.782,0,0,1,.34.935,12.681,12.681,0,0,1-.17,1.785,5.96,5.96,0,0,1-1.02,2.38,1.442,1.442,0,0,1-1.36.765H21.59A7.269,7.269,0,0,0,20.23-21.08ZM49.64,2.975a14.45,14.45,0,0,0,3.825-.17l1.87-.51A12.646,12.646,0,0,0,58.4.85,20.537,20.537,0,0,0,61.71-1.785c.34-.34.51-.68.85-1.02a19.237,19.237,0,0,0,1.1-1.7,12.789,12.789,0,0,0,1.36-2.89,12.4,12.4,0,0,0,.85-3.91,18.753,18.753,0,0,0-.425-4.335,18.536,18.536,0,0,0-1.36-3.825,17.938,17.938,0,0,0-3.315-4.93,2.106,2.106,0,0,1,.085-2.89,29.233,29.233,0,0,1,2.3-2.3,11.662,11.662,0,0,0,1.36-1.53c.51-.595,1.02-1.275,1.445-1.87a11.952,11.952,0,0,0,1.53-3.145,22.787,22.787,0,0,0,.595-2.3,8.21,8.21,0,0,0-.255-3.23A6.8,6.8,0,0,0,66.3-44.8a9.242,9.242,0,0,0-3.91-2.8,20,20,0,0,0-4.93-.85c-1.275-.085-2.55.255-3.74.255h-.17c-.85.255-1.7.34-2.465.6a4.381,4.381,0,0,0-2.805,1.785,3.6,3.6,0,0,0-.34,3.06,3.749,3.749,0,0,0,3.315,2.55,10.551,10.551,0,0,0,2.3-.255,6.621,6.621,0,0,1,1.785-.34h1.19a9.761,9.761,0,0,1,1.615-.085,13.2,13.2,0,0,1,1.785.34,1.025,1.025,0,0,1,.68.935,4.092,4.092,0,0,1-.6,2.04,15.612,15.612,0,0,1-2.295,2.89L56.61-33.66c-.68.68-1.275,1.275-1.955,1.87-.935.85-1.955,1.7-2.805,2.635a4.958,4.958,0,0,0-1.53,4,5.262,5.262,0,0,0,.6,1.615,6.608,6.608,0,0,0,2.125,2.21,12.1,12.1,0,0,1,2.465,2.21,11.769,11.769,0,0,1,1.87,2.975,10.632,10.632,0,0,1,1.02,3.655,5.612,5.612,0,0,1-.085,1.19,8.966,8.966,0,0,1-.51,2.04,10.6,10.6,0,0,1-1.785,2.55,7.326,7.326,0,0,1-3.4,2.04,5.712,5.712,0,0,1-2.38.255,6.145,6.145,0,0,0-4.08.6A3.092,3.092,0,0,0,44.37-.765,3.361,3.361,0,0,0,45.985,2.04,6.2,6.2,0,0,0,49.64,2.975Z" transform="translate(-884.632 -4177.469)" fill="#3fa3a7"/>
    <path id="Trazado_13604" data-name="Trazado 13604" d="M-19.82-13.82l-3.5,2.34a.745.745,0,0,0-.2.98l.42.68a.714.714,0,0,0,1,.22l1.84-1.24V-.72a.717.717,0,0,0,.72.72h1.28a.717.717,0,0,0,.72-.72V-13.28a.717.717,0,0,0-.72-.72h-.96A1.058,1.058,0,0,0-19.82-13.82Zm9.9,4.78a4.645,4.645,0,0,0-2.28.64l.36-3.08h4.78a.717.717,0,0,0,.72-.72v-1.08A.717.717,0,0,0-7.06-14h-6.2a.7.7,0,0,0-.7.62l-.74,6.34a.7.7,0,0,0,.52.76l.92.26a1.059,1.059,0,0,0,.94-.16,3.179,3.179,0,0,1,1.9-.66A2.137,2.137,0,0,1-8.12-4.6a2.218,2.218,0,0,1-2.32,2.4,2.174,2.174,0,0,1-2.06-1,.5.5,0,0,0-.58-.26l-1.4.32a.7.7,0,0,0-.46,1.02A5.1,5.1,0,0,0-10.42.24,4.7,4.7,0,0,0-5.46-4.64,4.2,4.2,0,0,0-9.92-9.04Zm6.58,2.72v.72a.7.7,0,0,0,.72.7H2.36a.7.7,0,0,0,.72-.7v-.72a.713.713,0,0,0-.72-.7H-2.62A.713.713,0,0,0-3.34-6.32Zm11.86-7.5-3.5,2.34a.745.745,0,0,0-.2.98l.42.68a.714.714,0,0,0,1,.22l1.84-1.24V-.72A.717.717,0,0,0,8.8,0h1.28a.717.717,0,0,0,.72-.72V-13.28a.717.717,0,0,0-.72-.72H9.12A1.058,1.058,0,0,0,8.52-13.82ZM21.38-7.5a3.341,3.341,0,0,0,1.66-2.9c0-2.06-1.7-3.84-4.7-3.84s-4.72,1.78-4.72,3.84A3.361,3.361,0,0,0,15.3-7.5a3.7,3.7,0,0,0-2.2,3.36c0,2.64,2.22,4.4,5.24,4.4s5.24-1.76,5.24-4.4A3.73,3.73,0,0,0,21.38-7.5Zm-3.04-4.44a1.9,1.9,0,0,1,2.08,1.84,1.842,1.842,0,0,1-2.08,1.78c-1.14,0-2.08-.6-2.08-1.78A1.9,1.9,0,0,1,18.34-11.94Zm0,9.7c-1.7,0-2.44-1-2.44-2.04a2.161,2.161,0,0,1,2.44-2.08,2.154,2.154,0,0,1,2.42,2.08C20.76-3.24,20.02-2.24,18.34-2.24Z" transform="translate(-778 -4217.589)" fill="#3fa3a7"/>
  </g>
</svg>
