<svg xmlns="http://www.w3.org/2000/svg" width="120.094" height="57.021" viewBox="0 0 120.094 57.021">
  <g id="Grupo_10083" data-name="Grupo 10083" transform="translate(1207.464 4231.589)">
    <path id="Trazado_13600" data-name="Trazado 13600" d="M25.755-.34a4.536,4.536,0,0,0,2.635-3.4c.17-.85.425-1.7.6-2.635l1.02-4.25a7.025,7.025,0,0,1,.68-1.87,1.669,1.669,0,0,1,1.1-.765,4.614,4.614,0,0,1,1.87,0,4.455,4.455,0,0,0,2.125-.085,4.06,4.06,0,0,0,2.805-2.04,2.5,2.5,0,0,0,.51-2.295,3.944,3.944,0,0,0-2.635-2.89A4.755,4.755,0,0,0,34.34-21a1.1,1.1,0,0,1-1.275-1.19,6.433,6.433,0,0,1,.085-1.275,6.508,6.508,0,0,1,1.19-2.72,1.153,1.153,0,0,1,1.105-.595h2.04a6.433,6.433,0,0,0,1.275-.085,3.986,3.986,0,0,0,3.06-3.825,4.067,4.067,0,0,0-1.53-2.89,5.725,5.725,0,0,0-3.06-1.02H36.125c-.34,0-.51-.17-.425-.51a16.079,16.079,0,0,1,.425-1.955c.17-.935.425-1.87.6-2.805.085-.68.17-1.445.34-2.21a14.879,14.879,0,0,0,.34-2.72,3.992,3.992,0,0,0-.68-2.21,3.515,3.515,0,0,0-2.04-1.445,2.816,2.816,0,0,0-2.04,0,3.045,3.045,0,0,0-.935.34,4.929,4.929,0,0,0-1.955,2.635,16.229,16.229,0,0,0-.51,2.805c-.085.765-.34,1.53-.425,2.295-.17.935-.425,1.87-.595,2.805a2.563,2.563,0,0,1-2.465,2.3,14.427,14.427,0,0,1-3.315-.085.817.817,0,0,1-.68-.765,4.261,4.261,0,0,1,.085-1.445l.255-1.275.34-2.125a14.915,14.915,0,0,0,.425-3.91,2.546,2.546,0,0,0-.51-1.53,3.272,3.272,0,0,0-2.465-1.87,3.475,3.475,0,0,0-2.3.255,4.7,4.7,0,0,0-2.38,3.145c-.34,1.36-.51,2.72-.765,4.08a23.18,23.18,0,0,1-.85,3.485,3.339,3.339,0,0,1-1.275,1.785,2.718,2.718,0,0,1-1.615.425c-.85.085-1.7,0-2.55,0v.085H5.44c-.17,0-.34-.085-.51,0A4.564,4.564,0,0,0,2.38-33.4,3.111,3.111,0,0,0,1.7-31.2a3.408,3.408,0,0,0,1.1,2.635A4.365,4.365,0,0,0,5.95-27.285a28.72,28.72,0,0,0,3.825,0c.51,0,.68.255.935.68a1.078,1.078,0,0,1,.085.51,12.681,12.681,0,0,1-.17,1.785A8.473,8.473,0,0,1,9.35-21.165c-.255.255-.425.425-.765.425-1.1-.085-2.21.17-3.4.17A3.626,3.626,0,0,0,1.87-18.785a3.755,3.755,0,0,0-.425,3.145,3.929,3.929,0,0,0,2.89,2.635,3.164,3.164,0,0,0,1.53.17,4.266,4.266,0,0,1,1.02.17c.51.255,1.02.85.85,1.36A13.2,13.2,0,0,1,7.4-9.52c-.255.85-.255,1.7-.425,2.465a1.993,1.993,0,0,0,.17,1.02A17.071,17.071,0,0,0,7.225-3.91,4.1,4.1,0,0,0,8.84-1.19a2.4,2.4,0,0,0,1.53.34,4.016,4.016,0,0,0,1.7-.85,12.4,12.4,0,0,0,2.38-3.91,14.137,14.137,0,0,0,.765-3.145,21.035,21.035,0,0,0,.51-2.465,2.123,2.123,0,0,1,2.3-2.04,6.913,6.913,0,0,1,2.635.17,1.6,1.6,0,0,1,1.36,2.125.3.3,0,0,0-.085.17c-.255,1.7-.85,3.23-1.105,4.93a8.623,8.623,0,0,0-.17,2.125,5.472,5.472,0,0,0,.935,2.3A3.219,3.219,0,0,0,25.755-.34ZM20.23-21.08a1,1,0,0,1-.935-.765.644.644,0,0,1-.17-.34,7.253,7.253,0,0,1,.34-3.57,3.667,3.667,0,0,1,1.36-1.445c.085-.085.34,0,.51-.085.68-.085,1.36.255,2.125.17h.595c.34.085.68-.085.85.17a1.782,1.782,0,0,1,.34.935,12.681,12.681,0,0,1-.17,1.785,5.96,5.96,0,0,1-1.02,2.38,1.442,1.442,0,0,1-1.36.765H21.59A7.269,7.269,0,0,0,20.23-21.08ZM60.01,2.89a4.5,4.5,0,0,0,3.655-1.36A3.652,3.652,0,0,0,64.6-1.275a3.926,3.926,0,0,0-2.3-3.06,5.6,5.6,0,0,0-2.55-.6,33.061,33.061,0,0,1-4-.765,1.8,1.8,0,0,1-.6-.255A1.113,1.113,0,0,1,54.74-7.4a30.084,30.084,0,0,1,1.36-2.89c1.02-1.955,1.955-3.995,2.89-6.035,1.445-2.975,2.89-6.035,4.165-9.18.595-1.275,1.1-2.55,1.615-3.91a29.284,29.284,0,0,0,1.53-6.545,26.2,26.2,0,0,0,0-3.655c-.17-.6-.255-1.105-.425-1.53a9.067,9.067,0,0,0-1.7-3.23,9.824,9.824,0,0,0-2.38-2.21,9.914,9.914,0,0,0-3.06-1.36,11.394,11.394,0,0,0-4.165-.34,9.715,9.715,0,0,0-2.55.765,11.634,11.634,0,0,0-2.72,1.36,20.7,20.7,0,0,0-2.465,2.21,9.021,9.021,0,0,0-2.38,4.42,4.012,4.012,0,0,0,.765,3.485A3.638,3.638,0,0,0,48.705-34.6a4.035,4.035,0,0,0,2.975-2.38,6.436,6.436,0,0,1,.765-1.53,5.154,5.154,0,0,1,3.4-1.955,2.9,2.9,0,0,1,2.38,1.1l.085.34a8.047,8.047,0,0,1,.17,2.465,16.765,16.765,0,0,1-.6,2.975A45.9,45.9,0,0,1,55.76-27.88c-1.445,3.145-2.89,6.375-4.42,9.52l-1.53,3.145c-.68,1.53-1.445,2.975-2.125,4.42-.51.935-.935,1.87-1.445,2.72a16.708,16.708,0,0,0-1.36,3.4,4.437,4.437,0,0,0,.6,3.74A6.281,6.281,0,0,0,49.64,1.7c1.275.255,2.55.425,3.91.595C55.675,2.465,57.8,2.805,60.01,2.89Z" transform="translate(-1208.735 -4177.469)" fill="#3fa3a7"/>
    <path id="Trazado_13601" data-name="Trazado 13601" d="M-14.41-9.04a4.645,4.645,0,0,0-2.28.64l.36-3.08h4.78a.717.717,0,0,0,.72-.72v-1.08a.717.717,0,0,0-.72-.72h-6.2a.7.7,0,0,0-.7.62l-.74,6.34a.7.7,0,0,0,.52.76l.92.26a1.059,1.059,0,0,0,.94-.16,3.179,3.179,0,0,1,1.9-.66,2.137,2.137,0,0,1,2.3,2.24,2.218,2.218,0,0,1-2.32,2.4,2.174,2.174,0,0,1-2.06-1,.5.5,0,0,0-.58-.26l-1.4.32a.7.7,0,0,0-.46,1.02A5.1,5.1,0,0,0-14.91.24,4.7,4.7,0,0,0-9.95-4.64,4.2,4.2,0,0,0-14.41-9.04Zm6.58,2.72v.72a.7.7,0,0,0,.72.7h4.98a.7.7,0,0,0,.72-.7v-.72a.713.713,0,0,0-.72-.7H-7.11A.713.713,0,0,0-7.83-6.32Zm11.86-7.5L.53-11.48a.745.745,0,0,0-.2.98l.42.68a.714.714,0,0,0,1,.22l1.84-1.24V-.72A.717.717,0,0,0,4.31,0H5.59a.717.717,0,0,0,.72-.72V-13.28A.717.717,0,0,0,5.59-14H4.63A1.058,1.058,0,0,0,4.03-13.82ZM18.91-5.1h-.94v-8.18a.713.713,0,0,0-.7-.72H14.99a1.055,1.055,0,0,0-.9.5L8.95-5.26a1.257,1.257,0,0,0-.22.76v1a.713.713,0,0,0,.7.72h5.84V-.72a.713.713,0,0,0,.7.72h1.3a.713.713,0,0,0,.7-.72V-2.78h.94a.717.717,0,0,0,.72-.72v-.88A.717.717,0,0,0,18.91-5.1Zm-7.44,0,3.8-6.06V-5.1Z" transform="translate(-1107 -4217.589)" fill="#3fa3a7"/>
  </g>
</svg>
