<svg xmlns="http://www.w3.org/2000/svg" xmlns:xlink="http://www.w3.org/1999/xlink" width="642.184" height="634.014" viewBox="0 0 642.184 634.014"><defs><clipPath id="a"><rect width="176.514" height="176.514" fill="none"/></clipPath></defs><g transform="translate(-278 -170)"><circle cx="306" cy="306" r="306" transform="translate(278 170)" fill="#12c6c1"/><path d="M-31.647-.616a8.217,8.217,0,0,0,4.774-6.16c.308-1.54.77-3.08,1.078-4.774l1.848-7.7a12.727,12.727,0,0,1,1.232-3.388,3.024,3.024,0,0,1,2-1.386,8.359,8.359,0,0,1,3.388,0c1.386.462,2.618,0,3.85-.154a7.355,7.355,0,0,0,5.082-3.7,4.526,4.526,0,0,0,.924-4.158,7.146,7.146,0,0,0-4.774-5.236,8.616,8.616,0,0,0-3.85-.77,2,2,0,0,1-2.31-2.156,11.656,11.656,0,0,1,.154-2.31,11.791,11.791,0,0,1,2.156-4.928,2.089,2.089,0,0,1,2-1.078h3.7a11.656,11.656,0,0,0,2.31-.154c2.926-.616,5.852-3.85,5.544-6.93A7.368,7.368,0,0,0-5.313-60.83a10.373,10.373,0,0,0-5.544-1.848h-2c-.616,0-.924-.308-.77-.924a29.13,29.13,0,0,1,.77-3.542c.308-1.694.77-3.388,1.078-5.082.154-1.232.308-2.618.616-4a26.958,26.958,0,0,0,.616-4.928,7.232,7.232,0,0,0-1.232-4,6.368,6.368,0,0,0-3.7-2.618,5.1,5.1,0,0,0-3.7,0,5.517,5.517,0,0,0-1.694.616,8.93,8.93,0,0,0-3.542,4.774,29.4,29.4,0,0,0-.924,5.082c-.154,1.386-.616,2.772-.77,4.158-.308,1.694-.77,3.388-1.078,5.082-.462,2.31-1.848,4-4.466,4.158a26.138,26.138,0,0,1-6.006-.154,1.481,1.481,0,0,1-1.232-1.386,7.72,7.72,0,0,1,.154-2.618l.462-2.31.616-3.85a27.022,27.022,0,0,0,.77-7.084,4.613,4.613,0,0,0-.924-2.772,5.928,5.928,0,0,0-4.466-3.388,6.3,6.3,0,0,0-4.158.462,8.52,8.52,0,0,0-4.312,5.7c-.616,2.464-.924,4.928-1.386,7.392a42,42,0,0,1-1.54,6.314,6.049,6.049,0,0,1-2.31,3.234,4.925,4.925,0,0,1-2.926.77c-1.54.154-3.08,0-4.62,0v.154h-4.928c-.308,0-.616-.154-.924,0A8.269,8.269,0,0,0-74-60.522a5.636,5.636,0,0,0-1.232,4,6.175,6.175,0,0,0,2,4.774,7.908,7.908,0,0,0,5.7,2.31,52.033,52.033,0,0,0,6.93,0c.924,0,1.232.462,1.694,1.232a1.953,1.953,0,0,1,.154.924,22.975,22.975,0,0,1-.308,3.234,15.35,15.35,0,0,1-2.31,5.7c-.462.462-.77.77-1.386.77-2-.154-4,.308-6.16.308a6.57,6.57,0,0,0-6.006,3.234,6.8,6.8,0,0,0-.77,5.7,7.118,7.118,0,0,0,5.236,4.774,5.732,5.732,0,0,0,2.772.308,7.73,7.73,0,0,1,1.848.308c.924.462,1.848,1.54,1.54,2.464a23.909,23.909,0,0,1-.616,3.234c-.462,1.54-.462,3.08-.77,4.466a3.611,3.611,0,0,0,.308,1.848,30.927,30.927,0,0,0,.154,3.85,7.435,7.435,0,0,0,2.926,4.928,4.353,4.353,0,0,0,2.772.616,7.276,7.276,0,0,0,3.08-1.54c2.156-2,3.08-4.62,4.312-7.084a25.614,25.614,0,0,0,1.386-5.7,38.111,38.111,0,0,0,.924-4.466c.462-2.464,1.694-3.7,4.158-3.7a12.525,12.525,0,0,1,4.774.308,2.89,2.89,0,0,1,2.464,3.85.538.538,0,0,0-.154.308c-.462,3.08-1.54,5.852-2,8.932a15.623,15.623,0,0,0-.308,3.85,9.914,9.914,0,0,0,1.694,4.158A5.832,5.832,0,0,0-31.647-.616Zm-10.01-37.576a1.8,1.8,0,0,1-1.694-1.386,1.168,1.168,0,0,1-.308-.616c-.154-2.156-.308-4.466.616-6.468a6.644,6.644,0,0,1,2.464-2.618c.154-.154.616,0,.924-.154,1.232-.154,2.464.462,3.85.308h1.078c.616.154,1.232-.154,1.54.308a3.229,3.229,0,0,1,.616,1.694,22.976,22.976,0,0,1-.308,3.234,10.8,10.8,0,0,1-1.848,4.312,2.612,2.612,0,0,1-2.464,1.386h-2A13.17,13.17,0,0,0-41.657-38.192ZM11.627,5.39a26.18,26.18,0,0,0,6.93-.308l3.388-.924A22.912,22.912,0,0,0,27.489,1.54,37.209,37.209,0,0,0,33.5-3.234c.616-.616.924-1.232,1.54-1.848a34.851,34.851,0,0,0,2-3.08A23.171,23.171,0,0,0,39.5-13.4a22.459,22.459,0,0,0,1.54-7.084,33.976,33.976,0,0,0-.77-7.854,33.581,33.581,0,0,0-2.464-6.93A32.5,32.5,0,0,0,31.8-44.2c-1.232-1.694-1.386-3.7.154-5.236a52.964,52.964,0,0,1,4.158-4.158,21.13,21.13,0,0,0,2.464-2.772c.924-1.078,1.848-2.31,2.618-3.388a21.653,21.653,0,0,0,2.772-5.7,41.282,41.282,0,0,0,1.078-4.158,14.875,14.875,0,0,0-.462-5.852,12.322,12.322,0,0,0-2.772-5.7,16.744,16.744,0,0,0-7.084-5.082c-2.926-1.078-6.006-1.232-8.932-1.54-2.31-.154-4.62.462-6.776.462h-.308c-1.54.462-3.08.616-4.466,1.078a7.938,7.938,0,0,0-5.082,3.234c-.924,1.694-1.386,4-.616,5.544a6.792,6.792,0,0,0,6.006,4.62,19.115,19.115,0,0,0,4.158-.462,12,12,0,0,1,3.234-.616H24.1a17.684,17.684,0,0,1,2.926-.154,23.909,23.909,0,0,1,3.234.616,1.858,1.858,0,0,1,1.232,1.694,7.415,7.415,0,0,1-1.078,3.7,28.284,28.284,0,0,1-4.158,5.236l-2,1.848c-1.232,1.232-2.31,2.31-3.542,3.388-1.694,1.54-3.542,3.08-5.082,4.774a8.982,8.982,0,0,0-2.772,7.238,9.534,9.534,0,0,0,1.078,2.926,11.971,11.971,0,0,0,3.85,4,21.921,21.921,0,0,1,4.466,4,21.322,21.322,0,0,1,3.388,5.39,19.263,19.263,0,0,1,1.848,6.622,10.167,10.167,0,0,1-.154,2.156,16.244,16.244,0,0,1-.924,3.7,19.2,19.2,0,0,1-3.234,4.62,13.273,13.273,0,0,1-6.16,3.7,10.349,10.349,0,0,1-4.312.462A11.132,11.132,0,0,0,5.313-6.93,5.6,5.6,0,0,0,2.079-1.386,6.09,6.09,0,0,0,5.005,3.7,11.24,11.24,0,0,0,11.627,5.39ZM-125.248,108a19.851,19.851,0,0,0,7.3-3.328,15.3,15.3,0,0,0,4.1-4.992,23.106,23.106,0,0,0,2.56-6.4,41.883,41.883,0,0,0,.9-7.936c0-1.28-.384-2.56-.256-3.84-.384-.64-.128-1.408-.384-2.176-.384-1.152-.768-2.432-1.28-3.584a18.152,18.152,0,0,0-3.968-6.144,20.169,20.169,0,0,0-1.92-1.536,12.422,12.422,0,0,0-3.584-2.048,6.4,6.4,0,0,0-5.5.64,5.792,5.792,0,0,0-2.816,5.376,5.842,5.842,0,0,0,1.664,3.712,11.036,11.036,0,0,0,2.3,1.792,6.736,6.736,0,0,1,1.792,1.536,18.108,18.108,0,0,1,1.792,3.968c.512,1.408.128,2.816.512,4.224.128,0,.128.128,0,.256a4.717,4.717,0,0,0-.128,1.92,13.418,13.418,0,0,1-.512,4.48c-.384,1.536-1.152,2.944-2.816,3.328-1.92.512-2.432.384-3.328-1.28l-1.152-2.56a26.723,26.723,0,0,1-1.408-5.5c-.128-1.408-.384-2.816-.512-4.352a41.565,41.565,0,0,1,.128-6.912l.384-3.84c.256-1.664.64-3.2,1.024-4.864a38.788,38.788,0,0,1,2.816-8.192,33.141,33.141,0,0,1,4.224-7.04A19.7,19.7,0,0,1-120,49.5a4.871,4.871,0,0,1,2.176-1.024,13.356,13.356,0,0,0,3.2-1.024,6.053,6.053,0,0,0,2.944-4.48,5.846,5.846,0,0,0-3.2-6.016,11.767,11.767,0,0,0-3.328-.9c-.512-.128-.9.128-1.408.256-1.92,0-3.584.9-5.248,1.664a31.254,31.254,0,0,0-4.224,2.944,32.916,32.916,0,0,0-4.48,4.992,25.486,25.486,0,0,0-3.2,4.992,35.624,35.624,0,0,0-3.072,6.272,72.5,72.5,0,0,0-2.56,7.424,27.762,27.762,0,0,0-.9,4.48c-.128,1.408-.384,2.688-.512,4.1a31.682,31.682,0,0,0-.384,6.016v2.688c0,1.152.128,2.432.128,3.584-.128,1.152.384,2.176.384,3.328a9.948,9.948,0,0,0,.256,2.048c.384,1.664.768,3.328,1.28,4.992a19.679,19.679,0,0,0,4.224,7.68,12.321,12.321,0,0,0,7.808,4.352A30.886,30.886,0,0,0-125.248,108Zm49.024-1.792a6.516,6.516,0,0,0,3.712-1.92A5.4,5.4,0,0,0-71.1,99.04a5.387,5.387,0,0,0-2.048-3.2,11.047,11.047,0,0,0-7.424-1.92c-.384,0-.64.128-.9,0a62.767,62.767,0,0,0-6.912-.512h-2.432a5.048,5.048,0,0,1-2.56-.64,2.4,2.4,0,0,1-1.536-2.176,15.632,15.632,0,0,1,.128-3.456,9.624,9.624,0,0,1,0-1.92,31.385,31.385,0,0,0,.256-3.456V78.432c0-1.408.256-2.816.128-4.224V73.7c.384-.64.128-1.28.128-1.792-.128-.64.256-1.152.128-1.664-.256-1.408.128-2.816-.128-4.224V65.76a16.368,16.368,0,0,0,.128-4.352c0-1.024.128-2.048.128-3.072v-2.3a24.992,24.992,0,0,0,.256-2.944,21.7,21.7,0,0,1,.128-2.944c.128-1.664.128-3.328.256-4.992a26.134,26.134,0,0,0,0-4.48,26.584,26.584,0,0,0-.64-3.84,8.913,8.913,0,0,0-1.408-2.944,5.12,5.12,0,0,0-5.248-1.536,5.654,5.654,0,0,0-3.584,3.456,18.027,18.027,0,0,0-.9,5.76V44.9c-.128.9,0,1.664-.128,2.432a10.405,10.405,0,0,0-.128,2.816c0,1.28-.128,2.56-.128,3.84a20.651,20.651,0,0,1,0,2.816,23.312,23.312,0,0,0-.128,4.224v.64a19.28,19.28,0,0,0-.128,3.84,35.969,35.969,0,0,1-.128,3.712v3.456a17.708,17.708,0,0,0-.128,3.712.24.24,0,0,1,0,.384,31.192,31.192,0,0,0-.128,3.456,19.819,19.819,0,0,1-.128,2.816c-.128,1.408-.128,2.688-.128,3.968,0,1.024-.128,2.176-.128,3.2a9.624,9.624,0,0,1,0,1.92,17.76,17.76,0,0,0,.512,5.888,7.928,7.928,0,0,0,3.072,3.712,6.958,6.958,0,0,0,2.944,1.408,20.733,20.733,0,0,0,4.864,1.152c1.152.128,2.432.128,3.712.256a34.984,34.984,0,0,1,5.12.64,26.21,26.21,0,0,1,5.376.9A11.815,11.815,0,0,0-76.224,106.208Zm29.44-3.84a17.345,17.345,0,0,0,4.48-.128,14.961,14.961,0,0,0,2.56-.768,16.945,16.945,0,0,0,4.1-2.56,22.9,22.9,0,0,0,3.584-3.456,24.833,24.833,0,0,0,1.92-3.072A38.387,38.387,0,0,0-26.176,83.3a71.87,71.87,0,0,0,1.664-7.552c.128-1.152.512-2.3.64-3.584.256-2.944.768-6.016,1.024-8.96,0-1.92.256-3.712.384-5.632a10.946,10.946,0,0,1,0-2.048,10.631,10.631,0,0,0,.128-2.816c0-1.024.128-2.048.128-3.072,0-.9-.128-1.664-.128-2.432a21.925,21.925,0,0,0,.128-4.1,5.544,5.544,0,0,1-.128-.64,7.3,7.3,0,0,0-.64-4.352,6.447,6.447,0,0,0-8.192-3.456,5.507,5.507,0,0,0-2.688,2.432,9.716,9.716,0,0,0-1.28,6.016v3.328c-.128,1.92,0,3.84-.128,5.76a17.067,17.067,0,0,0,0,2.56,21.348,21.348,0,0,0-.256,4.1c0,2.176-.384,4.224-.512,6.4-.256,2.816-.768,5.632-1.28,8.32a58.791,58.791,0,0,1-3.072,11.52,12.314,12.314,0,0,1-2.56,4.1,2.383,2.383,0,0,1-2.944.64,10.423,10.423,0,0,1-3.584-3.072A16.537,16.537,0,0,1-52.928,78.3c-.384-3.712-1.024-7.3-1.152-11.136a29.672,29.672,0,0,0-.128-4.736v-.384a13.381,13.381,0,0,0,0-3.2c.128-1.024,0-2.176.128-3.2V50.272c.128-1.536.128-3.2.128-4.736a10.346,10.346,0,0,1,.128-2.048,5.425,5.425,0,0,0-.9-3.968,6.322,6.322,0,0,0-4.48-3.072,6.412,6.412,0,0,0-4.1.768,6.814,6.814,0,0,0-2.816,3.456,17.739,17.739,0,0,0-.9,6.272v3.072a13.847,13.847,0,0,1,0,2.3,14.77,14.77,0,0,0-.128,3.328,28.867,28.867,0,0,1,0,3.328c-.128,1.92.128,3.84,0,5.888a13.671,13.671,0,0,0,.128,3.2c0,1.92.384,3.968.384,5.888a9.6,9.6,0,0,0,.256,2.56c-.128,1.792.768,3.84.9,6.016a.4.4,0,0,0,.128.256c.512,1.536.9,3.328,1.536,4.864a25.89,25.89,0,0,0,4.224,7.3,17.668,17.668,0,0,0,5.12,4.608A19.283,19.283,0,0,0-46.784,102.368Zm50.3,2.56a12.025,12.025,0,0,0,3.712,0,4.635,4.635,0,0,0,2.944-1.92,3.83,3.83,0,0,0,.64-3.328,4.918,4.918,0,0,0-1.664-2.816A15.027,15.027,0,0,0,5.7,94.944a6.52,6.52,0,0,1-2.176-.9,31.686,31.686,0,0,1-4.608-3.584A14.386,14.386,0,0,1-4.8,84.576a20.855,20.855,0,0,1-1.536-8.32,53.413,53.413,0,0,1,.128-6.4c.256-1.408.384-2.816.64-4.1A28.43,28.43,0,0,1-4.16,60.768a41.314,41.314,0,0,1,3.072-7.424,26.949,26.949,0,0,1,4.992-6.4,5.46,5.46,0,0,1,5.12-1.536,9.067,9.067,0,0,0,3.712,0,6.745,6.745,0,0,0,3.84-3.456,7.464,7.464,0,0,0,.256-2.944,6.552,6.552,0,0,0-1.28-2.688,7.6,7.6,0,0,0-3.712-2.3c-1.408-.384-2.816-.256-4.224-.512a.389.389,0,0,0-.512,0c-.256.256-.64.128-.9.128a5.134,5.134,0,0,0-2.432.384,17.207,17.207,0,0,0-7.3,3.712,28.118,28.118,0,0,0-5.248,5.76,55.872,55.872,0,0,0-4.1,7.04,76.535,76.535,0,0,0-3.2,9.088,51.617,51.617,0,0,0-1.92,9.856,22.534,22.534,0,0,0-.256,5.12,24.664,24.664,0,0,0,.128,3.072c.128,1.536.256,3.072.512,4.736.256,1.408.64,2.688,1.024,4.1a26.951,26.951,0,0,0,2.432,6.016,30.242,30.242,0,0,0,4.224,5.76,11.053,11.053,0,0,0,1.792,1.664,18.274,18.274,0,0,0,8.576,4.352A26.216,26.216,0,0,0,3.52,104.928Zm40.7-1.92c.128,0,.384-.128.512,0a2.164,2.164,0,0,0,1.792-.128,21.525,21.525,0,0,1,3.072-.9,28.174,28.174,0,0,0,6.528-4.1c1.152-1.024,2.176-2.3,3.328-3.328A20.027,20.027,0,0,0,62.4,90.208a43.68,43.68,0,0,0,2.176-4.224,52.674,52.674,0,0,0,3.456-10.752,44.283,44.283,0,0,0,1.152-10.88,36.921,36.921,0,0,0-.256-5.248c-.128-.384-.128-.768-.256-1.28-.256-1.152-.384-2.688-.768-3.968-.384-1.024-.512-2.048-.9-2.944a41.351,41.351,0,0,0-2.56-5.376,30.84,30.84,0,0,0-4.608-6.144A16.729,16.729,0,0,0,58.3,37.984a14.774,14.774,0,0,0-3.712-2.56,25.554,25.554,0,0,0-8.064-2.432,18.5,18.5,0,0,0-4.608,0,24.444,24.444,0,0,0-5.76,1.664,31.249,31.249,0,0,0-7.04,4.48,24.584,24.584,0,0,0-3.584,3.712,9.666,9.666,0,0,0-1.408,1.792,16.124,16.124,0,0,0-1.28,4.224l-.384,2.176a58.664,58.664,0,0,0-1.28,8.064c-.128,1.408-.256,2.944-.256,4.352-.128,1.664-.128,3.456-.256,5.248,0,1.28,0,2.688.128,4.1l.384,4.352a58.552,58.552,0,0,0,1.792,9.216c.512,1.152.9,2.3,1.28,3.328A27.685,27.685,0,0,0,27.072,94.3a28.182,28.182,0,0,0,4.224,4.48,20.453,20.453,0,0,0,5.12,2.944A15.061,15.061,0,0,0,44.224,103.008Zm.128-11.392a4.643,4.643,0,0,1-4.992-1.152,14.372,14.372,0,0,1-3.712-6.272,17.117,17.117,0,0,1-1.28-4.864c-.128-.512-.512-.9-.512-1.408-.128-1.792-.256-3.584-.512-5.376-.128-1.408-.128-2.816-.128-4.224a89.622,89.622,0,0,1,.768-10.24l1.024-6.016a4.806,4.806,0,0,1,1.536-2.688,15.035,15.035,0,0,1,3.84-3.072,9.211,9.211,0,0,1,6.144-.768c.512.128,1.024.384,1.408.512a14.741,14.741,0,0,1,5.376,5.12c.9,1.536,1.408,3.2,2.176,4.736v.128c.128,1.408.9,2.56.9,3.84a30.981,30.981,0,0,1,.256,4.864,41.519,41.519,0,0,1-1.408,9.728A31.616,31.616,0,0,1,52.8,81.376,22.277,22.277,0,0,1,50.5,85.6a17.581,17.581,0,0,1-1.664,2.56A10.869,10.869,0,0,1,44.352,91.616Zm34.688,15.1a6.886,6.886,0,0,0,4.224-.384,10.893,10.893,0,0,1,2.176-.768,55.875,55.875,0,0,0,7.3-3.712,18.027,18.027,0,0,0,6.016-5.5,22.966,22.966,0,0,0,2.56-4.992,20.341,20.341,0,0,0,1.28-7.552,27.527,27.527,0,0,0-.256-2.944,25.7,25.7,0,0,0-1.664-6.144,35.019,35.019,0,0,0-6.4-9.216c-2.56-2.816-5.5-5.248-7.936-8.192a5.749,5.749,0,0,1-1.28-6.144,11,11,0,0,1,4.352-6.144,14.745,14.745,0,0,1,4.1-1.792,7.767,7.767,0,0,0,3.328-1.024c1.792-.9,2.56-2.56,2.816-4.608a5.249,5.249,0,0,0-.768-3.072,5.461,5.461,0,0,0-4.224-2.816,10.569,10.569,0,0,0-3.968.256,22.041,22.041,0,0,0-8.576,3.968,21.637,21.637,0,0,0-6.272,7.3,24.621,24.621,0,0,0-1.792,4.224,17.19,17.19,0,0,0-.9,3.456,16.835,16.835,0,0,0,.256,5.632,21.892,21.892,0,0,0,1.152,3.84,25.48,25.48,0,0,0,4.608,6.4c1.92,2.176,4.1,4.1,6.144,6.144a27.628,27.628,0,0,1,3.456,4.224,14.375,14.375,0,0,1,2.3,6.272,14.105,14.105,0,0,1-.256,2.3A8.209,8.209,0,0,1,88,90.976c-1.792,1.664-4.1,2.56-6.272,3.584L78.016,96.1a7.085,7.085,0,0,0-2.688,2.432,5.784,5.784,0,0,0,0,5.76A4.68,4.68,0,0,0,79.04,106.72Zm60.544-2.176a5.593,5.593,0,0,0,3.84-3.712,13,13,0,0,0,.768-4.352c.128-1.536,0-3.2,0-4.736V87.776a38.767,38.767,0,0,0-.256-3.968c0-2.944.128-5.888-.128-8.832-.256-2.3-.128-4.736-.256-7.04a25,25,0,0,1-.384-4.352c0-.128.128-.256,0-.256a1.647,1.647,0,0,1-.128-1.536c0-.64-.384-1.024-.384-1.664.128-1.28-.384-2.688-.512-4.1-.128-1.28-.64-2.688-.9-4.1a40.459,40.459,0,0,0-2.176-6.656,33.057,33.057,0,0,0-2.816-5.632,16.48,16.48,0,0,0-2.816-3.84,6.211,6.211,0,0,0-5.632-1.92,4.376,4.376,0,0,0-3.328,1.792,25.689,25.689,0,0,0-3.584,6.656l-3.328,8.32c-.9,2.56-2.048,5.248-2.944,7.936-1.536,4.224-2.944,8.576-4.1,13.056-.512,2.176-1.152,4.352-1.536,6.528l-1.152,6.016c-.384,2.048-.64,3.968-.9,6.016a17.508,17.508,0,0,0-.256,3.712v.256a3.9,3.9,0,0,0,.128,2.688,6.542,6.542,0,0,0,2.432,3.968,3.937,3.937,0,0,0,4.352.768,6.9,6.9,0,0,0,1.664-.9,9.524,9.524,0,0,0,2.688-3.968c.256-1.28.384-2.688.64-3.968l.768-5.632a2.045,2.045,0,0,1,.64-1.28,8.281,8.281,0,0,1,1.024-1.152.972.972,0,0,1,1.152-.384c1.28,0,2.56,0,3.84.128,1.408.128,2.944.256,4.48.256a2.078,2.078,0,0,1,1.152.64,4.315,4.315,0,0,1,.64,2.176c.128,3.584-.128,7.168.256,10.752a6.917,6.917,0,0,0,2.688,5.376A4.228,4.228,0,0,0,139.584,104.544ZM129.216,72.8a4.261,4.261,0,0,1-1.792-.128,5.738,5.738,0,0,0-1.536-.128,2.532,2.532,0,0,1-1.408-.256,1.506,1.506,0,0,1-1.152-1.536,6.5,6.5,0,0,1,.384-2.176c.64-2.3,1.536-4.608,2.3-7.04.768-1.792,1.408-3.712,2.176-5.632,0-.128.128-.256.256-.512a.968.968,0,0,1,1.024-.384c.384,0,.512.384.512.64a13.39,13.39,0,0,1,.512,2.176c.256,1.536.384,3.072.768,4.608v.128c-.128,1.408.256,2.688.256,4.1a15.684,15.684,0,0,1,.256,2.432,6.762,6.762,0,0,1-.128,1.664A2.6,2.6,0,0,1,129.216,72.8Zm-285.76,138.336c1.408.256,2.816-.256,4.224-.128a33.729,33.729,0,0,0,3.584-.256,7.109,7.109,0,0,0,4.48-2.176,4.128,4.128,0,0,0,1.152-3.328,5.008,5.008,0,0,0-2.432-3.584,10.965,10.965,0,0,0-5.248-1.28c-1.408-.128-2.816,0-4.224,0a2.535,2.535,0,0,1-2.816-2.432,18.692,18.692,0,0,1-.384-2.816V188.48c.128-1.792.512-2.3,2.3-2.816h.9a26.689,26.689,0,0,1,3.2,0,14.8,14.8,0,0,0,4.736-.9c2.56-.9,4.48-3.072,4.224-5.632a5.311,5.311,0,0,0-3.328-4.864,13.7,13.7,0,0,0-5.5-1.152c-1.28.128-2.56,0-3.968.128a1.367,1.367,0,0,1-1.152-.9,3.6,3.6,0,0,1-.512-2.56,6.245,6.245,0,0,0,.128-2.176c.128-3.072.128-6.016.128-8.96,0-1.536.9-2.688,2.432-2.56,2.432,0,4.736-.384,7.04-.384a7.481,7.481,0,0,0,2.432-.256c1.92-.64,3.712-1.28,4.736-3.072a5.01,5.01,0,0,0,.128-5.76,8.5,8.5,0,0,0-6.144-3.328c-3.456-.128-6.912.256-10.368.384-.128,0-.128-.128-.256,0-1.28.384-2.688.128-3.968.384a21.172,21.172,0,0,0-4.1.9,6.66,6.66,0,0,0-4.352,3.456c-.384,1.152-.9,2.3-.384,3.584a1.413,1.413,0,0,1,0,1.024,1.893,1.893,0,0,0,0,1.664v.64c.128,1.792.256,3.456.256,5.12a53.882,53.882,0,0,1-.128,9.088c-.256,1.536-.128,3.2-.256,4.736-.256,1.536-.128,2.944-.256,4.48-.256,2.176-.128,4.224-.256,6.4a58.612,58.612,0,0,0-.128,6.912c.256,1.792-.128,4.352.256,7.04a23.45,23.45,0,0,0,1.152,4.992,9.6,9.6,0,0,0,6.4,6.144A26.492,26.492,0,0,0-156.544,211.136Zm28.928,3.328a5.927,5.927,0,0,0,3.072-2.176,10.269,10.269,0,0,0,1.408-4.352,21.7,21.7,0,0,1,.128-2.944,35.971,35.971,0,0,1,.128-3.712c0-1.408-.128-2.816-.128-4.224V186.688c0-1.536.128-2.944.128-4.352a6.232,6.232,0,0,1,.128-1.536.853.853,0,0,1,.64-.9c.256-.128.512.256.768.512a1.767,1.767,0,0,1,.384.512c.384,1.408,1.152,2.688,1.664,4.1,1.152,2.432,2.176,4.864,3.328,7.3,1.024,1.92,1.92,3.968,2.944,5.76a45.243,45.243,0,0,0,4.224,7.3,19.537,19.537,0,0,1,2.048,2.816,23.371,23.371,0,0,0,1.664,2.048A4.94,4.94,0,0,0-100.1,211.9a5.416,5.416,0,0,0,3.968-3.456,20.593,20.593,0,0,0,.9-4.736c.512-3.072.64-6.272.9-9.344.128-2.432.128-4.736.256-7.168l.384-7.168c.128-2.688.256-5.5.128-8.192v-1.92c.128-1.92.128-3.84.128-5.632v-8.832l.128-1.664a12.354,12.354,0,0,1,0-2.176,23.408,23.408,0,0,0-.256-4.224,11.888,11.888,0,0,1-.512-1.664,7.581,7.581,0,0,0-2.56-4.48,4.47,4.47,0,0,0-3.072-1.28,5.535,5.535,0,0,0-4.48,2.944,13.487,13.487,0,0,0-1.536,4.864,17.508,17.508,0,0,0-.256,3.712c-.128,1.408-.128,4.224-.128,5.5v6.4c-.128.768,0,1.536-.128,2.3a15.6,15.6,0,0,0,0,3.456c.128,1.408,0,2.688,0,4.1V179.9c-.128.256-.128.64-.64.768-.384,0-.512-.256-.768-.512,0-.128-.128-.256-.128-.384-.9-1.664-1.536-3.456-2.3-5.12-1.024-2.688-2.048-5.376-3.2-8.064-.9-2.176-1.792-4.224-2.56-6.4a34.464,34.464,0,0,1-1.664-4.1l-1.92-4.48c-1.024-2.048-2.048-4.1-4.224-5.248a6.164,6.164,0,0,0-4.224-1.024,6.461,6.461,0,0,0-5.248,4.736,38.574,38.574,0,0,0-1.28,8.448l-.384,6.656c-.128,2.3-.384,4.608-.384,6.912-.128,1.536,0,3.072-.128,4.608a23.8,23.8,0,0,0-.128,5.248V186.3c0,1.92-.128,3.712,0,5.632,0,1.408-.128,2.944,0,4.48,0,.768.128,1.664.128,2.432a28.869,28.869,0,0,0,0,3.328,18.027,18.027,0,0,1,.128,2.56,33.5,33.5,0,0,0,.256,4.864,5.12,5.12,0,0,0,1.408,2.944A5.491,5.491,0,0,0-127.616,214.464Zm69.76.256a6.886,6.886,0,0,0,4.224-.384,10.893,10.893,0,0,1,2.176-.768,55.874,55.874,0,0,0,7.3-3.712,18.027,18.027,0,0,0,6.016-5.5,22.967,22.967,0,0,0,2.56-4.992,20.341,20.341,0,0,0,1.28-7.552,27.527,27.527,0,0,0-.256-2.944,25.7,25.7,0,0,0-1.664-6.144,35.019,35.019,0,0,0-6.4-9.216c-2.56-2.816-5.5-5.248-7.936-8.192a5.749,5.749,0,0,1-1.28-6.144,11,11,0,0,1,4.352-6.144,14.745,14.745,0,0,1,4.1-1.792,7.767,7.767,0,0,0,3.328-1.024c1.792-.9,2.56-2.56,2.816-4.608a5.249,5.249,0,0,0-.768-3.072,5.461,5.461,0,0,0-4.224-2.816,10.569,10.569,0,0,0-3.968.256,23.826,23.826,0,0,0-3.968,1.28,24.015,24.015,0,0,0-4.608,2.688,21.637,21.637,0,0,0-6.272,7.3,24.621,24.621,0,0,0-1.792,4.224,17.189,17.189,0,0,0-.9,3.456,16.835,16.835,0,0,0,.256,5.632,21.892,21.892,0,0,0,1.152,3.84,25.48,25.48,0,0,0,4.608,6.4c1.92,2.176,4.1,4.1,6.144,6.144a27.628,27.628,0,0,1,3.456,4.224,14.375,14.375,0,0,1,2.3,6.272,14.1,14.1,0,0,1-.256,2.3,8.209,8.209,0,0,1-2.816,5.248c-1.792,1.664-4.1,2.56-6.272,3.584L-58.88,204.1a7.085,7.085,0,0,0-2.688,2.432,5.784,5.784,0,0,0,0,5.76A4.68,4.68,0,0,0-57.856,214.72Zm60.544-2.176a5.593,5.593,0,0,0,3.84-3.712A13,13,0,0,0,7.3,204.48c.128-1.536,0-3.2,0-4.736v-3.968a38.764,38.764,0,0,0-.256-3.968c0-2.944.128-5.888-.128-8.832-.256-2.3-.128-4.736-.256-7.04a25,25,0,0,1-.384-4.352c0-.128.128-.256,0-.256a1.647,1.647,0,0,1-.128-1.536c0-.64-.384-1.024-.384-1.664.128-1.28-.384-2.688-.512-4.1-.128-1.28-.64-2.688-.9-4.1a40.458,40.458,0,0,0-2.176-6.656A33.057,33.057,0,0,0-.64,147.648a16.48,16.48,0,0,0-2.816-3.84,6.211,6.211,0,0,0-5.632-1.92,4.376,4.376,0,0,0-3.328,1.792A25.69,25.69,0,0,0-16,150.336l-3.328,8.32c-.9,2.56-2.048,5.248-2.944,7.936-1.536,4.224-2.944,8.576-4.1,13.056-.512,2.176-1.152,4.352-1.536,6.528l-1.152,6.016c-.384,2.048-.64,3.968-.9,6.016a17.508,17.508,0,0,0-.256,3.712v.256a3.9,3.9,0,0,0,.128,2.688,6.542,6.542,0,0,0,2.432,3.968,3.937,3.937,0,0,0,4.352.768,6.9,6.9,0,0,0,1.664-.9,9.524,9.524,0,0,0,2.688-3.968c.256-1.28.384-2.688.64-3.968l.768-5.632a2.045,2.045,0,0,1,.64-1.28,8.281,8.281,0,0,1,1.024-1.152.972.972,0,0,1,1.152-.384c1.28,0,2.56,0,3.84.128,1.408.128,2.944.256,4.48.256a2.078,2.078,0,0,1,1.152.64,4.315,4.315,0,0,1,.64,2.176c.128,3.584-.128,7.168.256,10.752a6.917,6.917,0,0,0,2.688,5.376A4.228,4.228,0,0,0,2.688,212.544ZM-7.68,180.8a4.261,4.261,0,0,1-1.792-.128,5.738,5.738,0,0,0-1.536-.128,2.532,2.532,0,0,1-1.408-.256,1.506,1.506,0,0,1-1.152-1.536,6.5,6.5,0,0,1,.384-2.176c.64-2.3,1.536-4.608,2.3-7.04.768-1.792,1.408-3.712,2.176-5.632,0-.128.128-.256.256-.512a.968.968,0,0,1,1.024-.384c.384,0,.512.384.512.64a13.391,13.391,0,0,1,.512,2.176c.256,1.536.384,3.072.768,4.608v.128c-.128,1.408.256,2.688.256,4.1a15.683,15.683,0,0,1,.256,2.432,6.762,6.762,0,0,1-.128,1.664A2.6,2.6,0,0,1-7.68,180.8Zm26.752,33.664a5.927,5.927,0,0,0,3.072-2.176,10.269,10.269,0,0,0,1.408-4.352,21.7,21.7,0,0,1,.128-2.944,35.971,35.971,0,0,1,.128-3.712c0-1.408-.128-2.816-.128-4.224V186.688c0-1.536.128-2.944.128-4.352a6.232,6.232,0,0,1,.128-1.536.853.853,0,0,1,.64-.9c.256-.128.512.256.768.512a1.767,1.767,0,0,1,.384.512c.384,1.408,1.152,2.688,1.664,4.1,1.152,2.432,2.176,4.864,3.328,7.3,1.024,1.92,1.92,3.968,2.944,5.76a45.242,45.242,0,0,0,4.224,7.3,19.538,19.538,0,0,1,2.048,2.816A23.371,23.371,0,0,0,41.6,210.24a4.94,4.94,0,0,0,4.992,1.664,5.416,5.416,0,0,0,3.968-3.456,20.593,20.593,0,0,0,.9-4.736c.512-3.072.64-6.272.9-9.344.128-2.432.128-4.736.256-7.168l.384-7.168c.128-2.688.256-5.5.128-8.192v-1.92c.128-1.92.128-3.84.128-5.632v-8.832l.128-1.664a12.354,12.354,0,0,1,0-2.176,23.408,23.408,0,0,0-.256-4.224,11.888,11.888,0,0,1-.512-1.664,7.581,7.581,0,0,0-2.56-4.48,4.47,4.47,0,0,0-3.072-1.28,5.535,5.535,0,0,0-4.48,2.944,13.487,13.487,0,0,0-1.536,4.864,17.508,17.508,0,0,0-.256,3.712c-.128,1.408-.128,4.224-.128,5.5v6.4c-.128.768,0,1.536-.128,2.3a15.6,15.6,0,0,0,0,3.456c.128,1.408,0,2.688,0,4.1V179.9c-.128.256-.128.64-.64.768-.384,0-.512-.256-.768-.512,0-.128-.128-.256-.128-.384-.9-1.664-1.536-3.456-2.3-5.12-1.024-2.688-2.048-5.376-3.2-8.064-.9-2.176-1.792-4.224-2.56-6.4a34.463,34.463,0,0,1-1.664-4.1l-1.92-4.48c-1.024-2.048-2.048-4.1-4.224-5.248a6.164,6.164,0,0,0-4.224-1.024,6.461,6.461,0,0,0-5.248,4.736,38.575,38.575,0,0,0-1.28,8.448l-.384,6.656c-.128,2.3-.384,4.608-.384,6.912-.128,1.536,0,3.072-.128,4.608a23.8,23.8,0,0,0-.128,5.248V186.3c0,1.92-.128,3.712,0,5.632,0,1.408-.128,2.944,0,4.48,0,.768.128,1.664.128,2.432a28.867,28.867,0,0,0,0,3.328,18.028,18.028,0,0,1,.128,2.56,33.5,33.5,0,0,0,.256,4.864,5.12,5.12,0,0,0,1.408,2.944A5.491,5.491,0,0,0,19.072,214.464Zm56.576.384a17.063,17.063,0,0,0,3.584-.384A18.027,18.027,0,0,0,85.5,211.9a27.58,27.58,0,0,0,6.656-6.144,21.291,21.291,0,0,0,3.2-5.76,24.162,24.162,0,0,0,1.664-7.3,23.168,23.168,0,0,0-.512-5.12,21.006,21.006,0,0,0-1.664-5.5,20.178,20.178,0,0,0-4.352-5.5,14.577,14.577,0,0,0-4.864-2.944,14.63,14.63,0,0,0-3.84-1.152,12.624,12.624,0,0,0-3.072-.384,28.3,28.3,0,0,0-3.2.64,6.672,6.672,0,0,0-4.48,3.84,5.291,5.291,0,0,0,.384,4.992,7.328,7.328,0,0,0,2.048,1.92,7.6,7.6,0,0,0,3.328.9c.128.128.256,0,.512,0a5.729,5.729,0,0,1,3.584.128,6.051,6.051,0,0,1,3.584,3.712,14.081,14.081,0,0,1,.512,3.968,11.313,11.313,0,0,1-1.792,5.76,11.687,11.687,0,0,1-3.072,3.072,6.561,6.561,0,0,1-4.864,1.792,4.463,4.463,0,0,1-3.072-1.536,14.729,14.729,0,0,1-1.536-3.2,26.436,26.436,0,0,1-1.536-7.808,40.287,40.287,0,0,1,.128-6.784c.256-1.408.384-2.816.64-4.352a34.726,34.726,0,0,1,1.152-5.248,40.155,40.155,0,0,1,3.584-8.7,31.381,31.381,0,0,1,3.328-4.736c.512-.768,1.28-1.408,1.792-2.048a11.763,11.763,0,0,1,2.816-2.816,26.84,26.84,0,0,1,5.248-3.072,9.467,9.467,0,0,1,3.712-1.024,5.924,5.924,0,0,0,5.5-4.1,14.253,14.253,0,0,0,.256-2.176,4.315,4.315,0,0,0-.64-2.176,6.875,6.875,0,0,0-5.5-3.328,12.441,12.441,0,0,0-4.864.64,33.151,33.151,0,0,0-8.32,3.968,37.365,37.365,0,0,0-3.584,2.688,19.287,19.287,0,0,0-2.944,2.688,34.463,34.463,0,0,0-3.456,4.1,30.239,30.239,0,0,0-3.584,5.376c-.9,1.536-1.664,3.2-2.432,4.864a29.81,29.81,0,0,0-1.408,3.584,36.494,36.494,0,0,0-1.792,6.4l-.768,3.584c-.128.768-.128,1.408-.256,2.048a21.875,21.875,0,0,0-.384,3.968,33.538,33.538,0,0,0-.128,3.584h.128v4.352c0,.256-.128.512,0,.768a1.515,1.515,0,0,1,.128,1.28c0,.512.256.9.256,1.408a37.974,37.974,0,0,0,1.024,5.248,23.818,23.818,0,0,0,3.072,6.912A15.911,15.911,0,0,0,67.84,212.8,16.513,16.513,0,0,0,75.648,214.848Zm33.024-2.944a4.1,4.1,0,0,0,2.56-1.28,11.165,11.165,0,0,0,2.432-4.736,7.243,7.243,0,0,0,.256-2.816c-.256-1.792,0-3.584-.128-5.376v-.256c.128-.384.128-.768.512-.9a1.3,1.3,0,0,1,1.28.384l1.408,1.92a76.545,76.545,0,0,1,4.992,6.272,22.035,22.035,0,0,0,4.1,4.352,6.244,6.244,0,0,0,6.144.768c.9-.256,1.408-1.024,2.048-1.664a5.2,5.2,0,0,0,1.28-3.84,9.135,9.135,0,0,0-2.176-5.376c-1.664-2.3-3.456-4.608-5.248-6.784-1.536-1.92-3.072-3.84-4.608-5.632-.512-.64-.512-1.28-.9-1.92a5.873,5.873,0,0,1,1.28-3.2,33.942,33.942,0,0,0,5.12-5.376,25.462,25.462,0,0,0,2.944-4.608,19.3,19.3,0,0,0,2.3-10.624,5.25,5.25,0,0,1-.128-1.408,12.427,12.427,0,0,0-1.408-4.352,17.325,17.325,0,0,0-6.528-7.04,21.386,21.386,0,0,0-9.6-3.2,27.967,27.967,0,0,0-5.5.64,8.812,8.812,0,0,0-5.12,3.456,23.479,23.479,0,0,0-1.664,3.072,15.478,15.478,0,0,0-1.024,4.352,24.936,24.936,0,0,0-.256,3.2,22.659,22.659,0,0,1-.128,2.944c0,1.664-.128,3.2-.256,4.864-.128,1.536-.256,3.072-.256,4.736a11.713,11.713,0,0,1-.128,2.048,25.707,25.707,0,0,0-.128,3.2c0,.9-.128,1.92-.128,2.816-.128,1.024-.128,2.048-.256,3.072a21.7,21.7,0,0,1-.128,2.944c-.128,1.792-.128,3.712-.128,5.5a11.243,11.243,0,0,0-.128,3.584c0,.128.128.256,0,.384a2.5,2.5,0,0,0,0,1.92,9.688,9.688,0,0,0-.128,1.92l.384,4.992a9.371,9.371,0,0,0,2.176,4.992,6.736,6.736,0,0,0,1.792,1.536A4.19,4.19,0,0,0,108.672,211.9Zm8.192-40.96c-1.024.384-1.536.256-1.536-.768a2.2,2.2,0,0,1-.128-1.024c.128-.9.128-2.176.256-3.456a22.57,22.57,0,0,0,0-2.944,20.931,20.931,0,0,1,.256-2.816c.256-1.152.384-1.152,1.408-1.28a4.251,4.251,0,0,1,4.608,3.072,6.905,6.905,0,0,1-.384,3.2,12.33,12.33,0,0,1-2.688,4.48A7.08,7.08,0,0,1,116.864,170.944Zm36.608,40.192c1.408.256,2.816-.256,4.224-.128a33.729,33.729,0,0,0,3.584-.256,7.109,7.109,0,0,0,4.48-2.176,4.128,4.128,0,0,0,1.152-3.328,5.008,5.008,0,0,0-2.432-3.584,10.965,10.965,0,0,0-5.248-1.28c-1.408-.128-2.816,0-4.224,0a2.535,2.535,0,0,1-2.816-2.432,18.692,18.692,0,0,1-.384-2.816V188.48c.128-1.792.512-2.3,2.3-2.816h.9a26.689,26.689,0,0,1,3.2,0,14.8,14.8,0,0,0,4.736-.9c2.56-.9,4.48-3.072,4.224-5.632a5.311,5.311,0,0,0-3.328-4.864,13.7,13.7,0,0,0-5.5-1.152c-1.28.128-2.56,0-3.968.128a1.367,1.367,0,0,1-1.152-.9,3.6,3.6,0,0,1-.512-2.56,6.245,6.245,0,0,0,.128-2.176c.128-3.072.128-6.016.128-8.96,0-1.536.9-2.688,2.432-2.56,2.432,0,4.736-.384,7.04-.384a7.481,7.481,0,0,0,2.432-.256c1.92-.64,3.712-1.28,4.736-3.072a5.01,5.01,0,0,0,.128-5.76,8.5,8.5,0,0,0-6.144-3.328c-3.456-.128-6.912.256-10.368.384-.128,0-.128-.128-.256,0-1.28.384-2.688.128-3.968.384a21.172,21.172,0,0,0-4.1.9,6.66,6.66,0,0,0-4.352,3.456c-.384,1.152-.9,2.3-.384,3.584a1.413,1.413,0,0,1,0,1.024,1.893,1.893,0,0,0,0,1.664v.64c.128,1.792.256,3.456.256,5.12a53.882,53.882,0,0,1-.128,9.088c-.256,1.536-.128,3.2-.256,4.736-.256,1.536-.128,2.944-.256,4.48-.256,2.176-.128,4.224-.256,6.4a58.612,58.612,0,0,0-.128,6.912c.256,1.792-.128,4.352.256,7.04A23.45,23.45,0,0,0,140.8,204.1a9.6,9.6,0,0,0,6.4,6.144A26.492,26.492,0,0,0,153.472,211.136Z" transform="translate(583 406)" fill="#fff"/><g transform="translate(743.67 627.5)"><g transform="translate(0)" clip-path="url(#a)"><path d="M176.514,88.256A88.257,88.257,0,1,1,88.256,0a88.257,88.257,0,0,1,88.257,88.257" transform="translate(0 0)" fill="#3fa3a7"/><path d="M54.974,133.042c-.22,0-.438,0-.659,0-8.08-.119-23.14-2.14-33.223-14.347a36.841,36.841,0,0,1-6.244-11.022,4.246,4.246,0,0,1,3.834-6.072c3.593,0,7.413.251,11.837.539,6.459.422,13.784.913,23.227.819,1.094-.009,1.465-.031,2.557-.094,1.674-.1,5.161-.3,15.379-.7,4.846-.189,12.254-.458,15.564-.539a141.436,141.436,0,0,1,25.323,1.516c5.214.712,8.987,1.228,13.963.553,9.887-1.343,19.562-6.911,28.759-16.553a2.768,2.768,0,1,1,4.006,3.822c-10.084,10.573-20.857,16.7-32.018,18.22-5.724.779-10.018.19-15.461-.556a136.254,136.254,0,0,0-24.439-1.464c-3.292.077-10.66.346-15.48.536-10.168.4-13.618.6-15.277.694-1.206.068-1.618.092-2.827.1-9.619.112-17.405-.422-23.638-.829-3.535-.232-6.679-.438-9.572-.5a31.156,31.156,0,0,0,4.777,8.006c8.664,10.491,21.911,12.23,29.034,12.334,11.356.2,23.132-4.467,29.952-11.8.431-.464.7-.777.923-1.04s.424-.493.662-.743c.03-.032.468-.479.926-.9,1.522-1.406,4.478-1.805,31.668-.707,3.7.149,6.625.267,7.965.278l.21,0c10.6,0,21.744-6.406,33.128-19.038a2.769,2.769,0,0,1,4.114,3.706c-12.479,13.85-25.006,20.867-37.242,20.869l-.256,0c-1.427-.013-4.391-.131-8.143-.283-8.106-.326-24.657-.991-28.072-.391-.175.173-.3.3-.31.31-.138.148-.278.311-.44.5-.263.309-.575.673-1.078,1.214-7.7,8.286-20.763,13.573-33.428,13.573M90.62,117.075l0,0,0,0" transform="translate(-1.287 -7.696)" fill="#fff"/><path d="M53.45,105.741H33.97a2.769,2.769,0,0,1-2.769-2.769V90.528a9.816,9.816,0,0,1,9.8-9.806H53.45a2.77,2.77,0,0,1,2.77,2.77v19.48a2.77,2.77,0,0,1-2.77,2.769M36.739,100.2H50.681V86.261H41.006a4.272,4.272,0,0,0-4.267,4.267Z" transform="translate(-2.783 -7.201)" fill="#fff"/><path d="M78.259,105.741H58.781a2.769,2.769,0,0,1-2.769-2.769V83.492a2.77,2.77,0,0,1,2.769-2.77H69.646A11.4,11.4,0,0,1,81.029,92.105v10.867a2.77,2.77,0,0,1-2.77,2.769M61.55,100.2H75.49v-8.1a5.85,5.85,0,0,0-5.845-5.845h-8.1Z" transform="translate(-4.996 -7.201)" fill="#fff"/><path d="M67.564,81.2H48.086a2.769,2.769,0,0,1-2.769-2.769V66.645A10.479,10.479,0,0,1,55.782,56.178h4.087A10.479,10.479,0,0,1,70.334,66.645V78.428a2.77,2.77,0,0,1-2.77,2.769m-16.71-5.538H64.8V66.645a4.933,4.933,0,0,0-4.927-4.928H55.782a4.933,4.933,0,0,0-4.927,4.928Z" transform="translate(-4.042 -5.011)" fill="#fff"/></g></g></g></svg>