<svg xmlns="http://www.w3.org/2000/svg" xmlns:xlink="http://www.w3.org/1999/xlink" width="414" height="170" viewBox="0 0 414 170">
  <defs>
    <clipPath id="clip-title-renal-white">
      <rect width="414" height="170"/>
    </clipPath>
  </defs>
  <g id="title-renal-white" clip-path="url(#clip-title-renal-white)">
    <g id="Grupo_10262" data-name="Grupo 10262" transform="translate(18278.285 -11109.291)">
      <path id="Trazado_13800" data-name="Trazado 13800" d="M-49.692-.455a12.1,12.1,0,0,0,2.21-.26,9.974,9.974,0,0,0,2.47-.78,12.308,12.308,0,0,0,1.95-1.235,12.533,12.533,0,0,0,2.015-2.145,13.523,13.523,0,0,0,1.43-2.47,12.865,12.865,0,0,0,1.17-4.1,6.049,6.049,0,0,0,.065-1.885c-.13-.52-.065-1.04-.195-1.56s-.195-1.04-.325-1.56a23.109,23.109,0,0,0-2.015-4.68,19.49,19.49,0,0,0-2.405-3.185l-1.82-1.95a3.078,3.078,0,0,1-.585-2.86,5.634,5.634,0,0,1,1.1-2.145,4.115,4.115,0,0,1,2.015-1.43,5.853,5.853,0,0,1,1.04-.2,3.3,3.3,0,0,0,1.82-1.3,2.882,2.882,0,0,0-1.04-4.29,4.428,4.428,0,0,0-1.82-.455,7.162,7.162,0,0,0-1.17.13,9.107,9.107,0,0,0-2.34.845c-.65.39-1.235.845-1.885,1.3a12.53,12.53,0,0,0-1.755,1.95,12.083,12.083,0,0,0-1.495,2.665,11.526,11.526,0,0,0-.845,3.51,7.938,7.938,0,0,0,.065,1.755,11.117,11.117,0,0,0,.585,1.95,11.362,11.362,0,0,0,2.47,3.575l.91.91a12.02,12.02,0,0,1,2.145,2.99,10.94,10.94,0,0,1,1.235,3.445,6.58,6.58,0,0,1,.13,1.95,8.537,8.537,0,0,1-1.04,2.8,7.541,7.541,0,0,1-1.3,1.56,3.3,3.3,0,0,1-1.95.845c-.585.065-1.17.065-1.755.13a3.545,3.545,0,0,0-2.535,1.365,2.77,2.77,0,0,0-.455,2.47A3.222,3.222,0,0,0-51.9-.91,4.369,4.369,0,0,0-49.692-.455Zm30.16-1.3a2.84,2.84,0,0,0,1.95-1.885,6.6,6.6,0,0,0,.39-2.21c.065-.78,0-1.625,0-2.4V-10.27a19.684,19.684,0,0,0-.13-2.015c0-1.495.065-2.99-.065-4.485-.13-1.17-.065-2.405-.13-3.575a12.694,12.694,0,0,1-.195-2.21c0-.065.065-.13,0-.13a.836.836,0,0,1-.065-.78c0-.325-.2-.52-.2-.845a12.124,12.124,0,0,0-.26-2.08c-.065-.65-.325-1.365-.455-2.08a20.546,20.546,0,0,0-1.1-3.38,16.787,16.787,0,0,0-1.43-2.86,8.369,8.369,0,0,0-1.43-1.95,3.154,3.154,0,0,0-2.86-.975,2.222,2.222,0,0,0-1.69.91,13.046,13.046,0,0,0-1.82,3.38l-1.69,4.225c-.455,1.3-1.04,2.665-1.495,4.03-.78,2.145-1.5,4.355-2.08,6.63-.26,1.1-.585,2.21-.78,3.315l-.585,3.055c-.195,1.04-.325,2.015-.455,3.055a8.891,8.891,0,0,0-.13,1.885v.13a1.978,1.978,0,0,0,.065,1.365A3.322,3.322,0,0,0-34.937-3.64a2,2,0,0,0,2.21.39,3.5,3.5,0,0,0,.845-.455A4.836,4.836,0,0,0-30.517-5.72c.13-.65.195-1.365.325-2.015l.39-2.86a1.039,1.039,0,0,1,.325-.65,4.205,4.205,0,0,1,.52-.585.494.494,0,0,1,.585-.195c.65,0,1.3,0,1.95.065.715.065,1.495.13,2.275.13a1.055,1.055,0,0,1,.585.325,2.191,2.191,0,0,1,.325,1.1c.065,1.82-.065,3.64.13,5.46a3.513,3.513,0,0,0,1.365,2.73A2.147,2.147,0,0,0-19.532-1.755ZM-24.8-17.875a2.164,2.164,0,0,1-.91-.065,2.914,2.914,0,0,0-.78-.065,1.286,1.286,0,0,1-.715-.13.765.765,0,0,1-.585-.78,3.3,3.3,0,0,1,.195-1.105c.325-1.17.78-2.34,1.17-3.575.39-.91.715-1.885,1.1-2.86,0-.065.065-.13.13-.26a.491.491,0,0,1,.52-.2c.2,0,.26.2.26.325a6.8,6.8,0,0,1,.26,1.1c.13.78.2,1.56.39,2.34v.065c-.065.715.13,1.365.13,2.08a7.964,7.964,0,0,1,.13,1.235,3.434,3.434,0,0,1-.065.845A1.323,1.323,0,0,1-24.8-17.875ZM1.463-.91a3.309,3.309,0,0,0,1.885-.975A2.743,2.743,0,0,0,4.063-4.55a2.735,2.735,0,0,0-1.04-1.625A5.61,5.61,0,0,0-.747-7.15c-.2,0-.325.065-.455,0a31.875,31.875,0,0,0-3.51-.26H-5.947a2.563,2.563,0,0,1-1.3-.325,1.221,1.221,0,0,1-.78-1.105A7.938,7.938,0,0,1-7.962-10.6a4.887,4.887,0,0,1,0-.975,15.937,15.937,0,0,0,.13-1.755v-1.69c0-.715.13-1.43.065-2.145v-.26c.195-.325.065-.65.065-.91-.065-.325.13-.585.065-.845-.13-.715.065-1.43-.065-2.145v-.13a8.312,8.312,0,0,0,.065-2.21c0-.52.065-1.04.065-1.56v-1.17a12.691,12.691,0,0,0,.13-1.5,11.017,11.017,0,0,1,.065-1.495c.065-.845.065-1.69.13-2.535a13.271,13.271,0,0,0,0-2.275,13.5,13.5,0,0,0-.325-1.95,4.526,4.526,0,0,0-.715-1.495,2.6,2.6,0,0,0-2.665-.78,2.871,2.871,0,0,0-1.82,1.755,9.154,9.154,0,0,0-.455,2.925v1.69c-.065.455,0,.845-.065,1.235a5.284,5.284,0,0,0-.065,1.43c0,.65-.065,1.3-.065,1.95a10.487,10.487,0,0,1,0,1.43,11.838,11.838,0,0,0-.065,2.145v.325a9.791,9.791,0,0,0-.065,1.95,18.267,18.267,0,0,1-.065,1.885v1.755a8.992,8.992,0,0,0-.065,1.885.122.122,0,0,1,0,.195,15.84,15.84,0,0,0-.065,1.755,10.064,10.064,0,0,1-.065,1.43c-.065.715-.065,1.365-.065,2.015,0,.52-.065,1.1-.065,1.625a4.887,4.887,0,0,1,0,.975,9.019,9.019,0,0,0,.26,2.99,4.026,4.026,0,0,0,1.56,1.885,3.533,3.533,0,0,0,1.495.715,10.528,10.528,0,0,0,2.47.585c.585.065,1.235.065,1.885.13a17.765,17.765,0,0,1,2.6.325,13.31,13.31,0,0,1,2.73.455A6,6,0,0,0,1.463-.91Zm14.95-1.95a8.808,8.808,0,0,0,2.275-.065,7.6,7.6,0,0,0,1.3-.39,8.6,8.6,0,0,0,2.08-1.3,11.626,11.626,0,0,0,1.82-1.755,12.61,12.61,0,0,0,.975-1.56,19.493,19.493,0,0,0,2.015-4.615,36.5,36.5,0,0,0,.845-3.835c.065-.585.26-1.17.325-1.82.13-1.495.39-3.055.52-4.55,0-.975.13-1.885.195-2.86a5.559,5.559,0,0,1,0-1.04,5.4,5.4,0,0,0,.065-1.43c0-.52.065-1.04.065-1.56,0-.455-.065-.845-.065-1.235a11.134,11.134,0,0,0,.065-2.08,2.815,2.815,0,0,1-.065-.325,3.7,3.7,0,0,0-.325-2.21,3.274,3.274,0,0,0-4.16-1.755,2.8,2.8,0,0,0-1.365,1.235,4.934,4.934,0,0,0-.65,3.055v1.69c-.065.975,0,1.95-.065,2.925a8.667,8.667,0,0,0,0,1.3,10.841,10.841,0,0,0-.13,2.08c0,1.1-.195,2.145-.26,3.25-.13,1.43-.39,2.86-.65,4.225a29.855,29.855,0,0,1-1.56,5.85,6.253,6.253,0,0,1-1.3,2.08,1.21,1.21,0,0,1-1.5.325,5.293,5.293,0,0,1-1.82-1.56,8.4,8.4,0,0,1-1.755-4.29c-.195-1.885-.52-3.7-.585-5.655a15.068,15.068,0,0,0-.065-2.405v-.195a6.8,6.8,0,0,0,0-1.625c.065-.52,0-1.105.065-1.625v-2.73c.065-.78.065-1.625.065-2.405a5.254,5.254,0,0,1,.065-1.04,2.755,2.755,0,0,0-.455-2.015,3.21,3.21,0,0,0-2.275-1.56,3.256,3.256,0,0,0-2.08.39A3.46,3.46,0,0,0,6.6-34.19a9.008,9.008,0,0,0-.455,3.185v1.56a7.032,7.032,0,0,1,0,1.17,7.5,7.5,0,0,0-.065,1.69,14.659,14.659,0,0,1,0,1.69c-.065.975.065,1.95,0,2.99a6.942,6.942,0,0,0,.065,1.625c0,.975.2,2.015.2,2.99a4.877,4.877,0,0,0,.13,1.3c-.065.91.39,1.95.455,3.055a.2.2,0,0,0,.065.13c.26.78.455,1.69.78,2.47A13.147,13.147,0,0,0,9.912-6.63a8.972,8.972,0,0,0,2.6,2.34A9.792,9.792,0,0,0,16.412-2.86Zm16.965,1.5a6.684,6.684,0,0,0,2.275,0,22.439,22.439,0,0,0,4.16-1.43c.78-.39,1.495-.78,2.21-1.17A24.337,24.337,0,0,0,45.6-6.63c.975-.91,1.82-2.015,2.73-2.99l1.3-1.69c.39-.52.715-1.04,1.04-1.56.455-.715.845-1.43,1.235-2.145.26-.585.455-1.17.715-1.755a16.028,16.028,0,0,0,1.1-5c0-.39-.13-.78-.13-1.17a6.927,6.927,0,0,0-.39-2.015,14.334,14.334,0,0,0-1.365-3.25,23.544,23.544,0,0,0-1.755-2.665,17.768,17.768,0,0,0-2.145-2.275c-.52-.455-1.105-.91-1.69-1.365A27.376,27.376,0,0,0,42.932-36.4a23.005,23.005,0,0,0-2.21-1.04,13.253,13.253,0,0,0-3.9-.65c-.325.065-.65-.065-.91.065a8.831,8.831,0,0,0-1.82.715A3.249,3.249,0,0,0,32.4-34.9a15.115,15.115,0,0,0-.325,1.82c-.065.65-.195,1.3-.26,1.95,0,.13.065.2,0,.26a.972.972,0,0,0-.065.845c0,.325-.195.65-.13.975,0,.715-.195,1.43-.13,2.145l-.065.065c-.195.65-.065,1.43-.195,2.145-.13.65-.065,1.365-.13,2.015-.13,1.1.065,2.21-.13,3.315-.065,3.12.065,6.24-.13,9.3a10.487,10.487,0,0,0,0,1.43,29.716,29.716,0,0,0,.195,4.16,4.773,4.773,0,0,0,.975,2.275A2.464,2.464,0,0,0,33.377-1.365ZM37.8-7.93a.675.675,0,0,1-.845-.52v-4.81c-.065-2.6.195-5.395.13-8.19a14.13,14.13,0,0,0,.13-2.34,12.623,12.623,0,0,1,.13-1.56c.2-.65,0-1.365.26-2.015v-.13c-.065-.715.13-1.365.13-2.08,0-.39.13-.715.13-1.105a.239.239,0,0,1,.065-.195,1.1,1.1,0,0,1,1.1-.52,7.646,7.646,0,0,1,1.3.455,18.744,18.744,0,0,1,2.47,1.43,13.3,13.3,0,0,1,2.4,2.275,18.749,18.749,0,0,1,1.5,2.21,7.588,7.588,0,0,1,.715,1.82,5.7,5.7,0,0,1,.13,2.34,7.429,7.429,0,0,1-.585,1.95,25.037,25.037,0,0,1-2.86,4.94,36.643,36.643,0,0,1-4.29,4.68,6.925,6.925,0,0,1-1.82,1.235ZM-47.125,45.415a2.624,2.624,0,0,0,1.69-1.17,5.767,5.767,0,0,0,.78-2.73,17.171,17.171,0,0,0-.13-1.885c-.065-.715,0-1.5,0-2.21v-2.4a.517.517,0,0,1,.585-.585,1.236,1.236,0,0,1,.845.325,11.3,11.3,0,0,1,.845.975,7.338,7.338,0,0,1,1.56,2.99c.26.91.39,1.95.65,2.925a3.882,3.882,0,0,0,1.56,2.34A2.82,2.82,0,0,0-34.9,43.53a3.865,3.865,0,0,0,.845-2.21,3.836,3.836,0,0,0-.13-.91,16.087,16.087,0,0,0-.39-1.885,14.217,14.217,0,0,0-1.105-3.575,10.386,10.386,0,0,0-1.495-2.6c-.39-.52-.78-1.04-1.235-1.56a.894.894,0,0,1,.065-1.365.9.9,0,0,0,.195-.26c.325-.39.78-.585,1.1-.975.52-.585,1.04-1.17,1.5-1.755a16.675,16.675,0,0,0,1.69-2.665,16.893,16.893,0,0,0,.845-2.34,17.089,17.089,0,0,0,.39-2.535,11.689,11.689,0,0,0-.195-2.6A10.23,10.23,0,0,0-34.06,12.98a8.51,8.51,0,0,0-2.145-2.4,8.953,8.953,0,0,0-5.525-1.82c-.325,0-.585.195-.975.13a3.3,3.3,0,0,0-1.105.195,8.806,8.806,0,0,0-2.86,1.3,5.891,5.891,0,0,0-1.04.715,5.657,5.657,0,0,0-1.1,1.365l-.78,1.365a5.421,5.421,0,0,0-.715,2.405c-.13.78-.065,1.56-.13,2.34-.13.78,0,1.625-.13,2.405-.13.65-.065,1.365-.13,2.015-.13.91-.065,1.82-.13,2.665-.13,1.495-.065,2.99-.13,4.485-.13,1.95-.065,3.9-.065,5.915.065,1.95-.065,3.9.13,5.85a3.918,3.918,0,0,0,.91,2.405A2.5,2.5,0,0,0-47.125,45.415Zm3.7-20.345a.782.782,0,0,1-.91-.195.357.357,0,0,1-.2-.325c.065-.325-.065-.715.13-1.04v-.195a27.255,27.255,0,0,1,.195-3.25c0-.975.065-2.015.13-2.99,0-.91.65-1.365,1.43-1.69a3.3,3.3,0,0,1,2.08-.13,3.859,3.859,0,0,1,.52.26,3.009,3.009,0,0,1,1.1,2.405v.455a6.552,6.552,0,0,1-1.17,3.64,7.26,7.26,0,0,1-1.235,1.56A6.094,6.094,0,0,1-43.42,25.07Zm19.89,18.46c.715.13,1.43-.13,2.145-.065a17.128,17.128,0,0,0,1.82-.13,3.61,3.61,0,0,0,2.275-1.1,2.1,2.1,0,0,0,.585-1.69,2.543,2.543,0,0,0-1.235-1.82,5.568,5.568,0,0,0-2.665-.65c-.715-.065-1.43,0-2.145,0a1.287,1.287,0,0,1-1.43-1.235,9.493,9.493,0,0,1-.195-1.43v-3.38c.065-.91.26-1.17,1.17-1.43h.455a13.554,13.554,0,0,1,1.625,0,7.514,7.514,0,0,0,2.405-.455,2.887,2.887,0,0,0,2.145-2.86,2.7,2.7,0,0,0-1.69-2.47,6.954,6.954,0,0,0-2.8-.585c-.65.065-1.3,0-2.015.065a.694.694,0,0,1-.585-.455,1.83,1.83,0,0,1-.26-1.3,3.171,3.171,0,0,0,.065-1.1c.065-1.56.065-3.055.065-4.55,0-.78.455-1.365,1.235-1.3,1.235,0,2.4-.195,3.575-.195a3.8,3.8,0,0,0,1.235-.13,3.847,3.847,0,0,0,2.4-1.56,2.544,2.544,0,0,0,.065-2.925,4.318,4.318,0,0,0-3.12-1.69c-1.755-.065-3.51.13-5.265.2-.065,0-.065-.065-.13,0-.65.195-1.365.065-2.015.195a10.751,10.751,0,0,0-2.08.455,3.382,3.382,0,0,0-2.21,1.755,2.517,2.517,0,0,0-.195,1.82.718.718,0,0,1,0,.52.961.961,0,0,0,0,.845v.325c.065.91.13,1.755.13,2.6a27.362,27.362,0,0,1-.065,4.615c-.13.78-.065,1.625-.13,2.405-.13.78-.065,1.5-.13,2.275-.13,1.1-.065,2.145-.13,3.25a29.763,29.763,0,0,0-.065,3.51c.13.91-.065,2.21.13,3.575a11.908,11.908,0,0,0,.585,2.535,4.877,4.877,0,0,0,3.25,3.12A13.453,13.453,0,0,0-23.53,43.53Zm14.69,1.69a3.01,3.01,0,0,0,1.56-1.1,5.215,5.215,0,0,0,.715-2.21A11.017,11.017,0,0,1-6.5,40.41a18.266,18.266,0,0,1,.065-1.885c0-.715-.065-1.43-.065-2.145V31.115c0-.78.065-1.495.065-2.21a3.165,3.165,0,0,1,.065-.78.433.433,0,0,1,.325-.455c.13-.065.26.13.39.26a.9.9,0,0,1,.195.26c.195.715.585,1.365.845,2.08.585,1.235,1.105,2.47,1.69,3.7.52.975.975,2.015,1.495,2.925A22.974,22.974,0,0,0,.715,40.6a9.922,9.922,0,0,1,1.04,1.43,11.868,11.868,0,0,0,.845,1.04,2.509,2.509,0,0,0,2.535.845A2.751,2.751,0,0,0,7.15,42.165a10.458,10.458,0,0,0,.455-2.405c.26-1.56.325-3.185.455-4.745.065-1.235.065-2.4.13-3.64l.195-3.64c.065-1.365.13-2.795.065-4.16V22.6c.065-.975.065-1.95.065-2.86V15.255l.065-.845a6.274,6.274,0,0,1,0-1.1,11.887,11.887,0,0,0-.13-2.145,6.037,6.037,0,0,1-.26-.845A3.85,3.85,0,0,0,6.89,8.04a2.27,2.27,0,0,0-1.56-.65,2.811,2.811,0,0,0-2.275,1.5,6.849,6.849,0,0,0-.78,2.47,8.891,8.891,0,0,0-.13,1.885c-.065.715-.065,2.145-.065,2.8v3.25c-.065.39,0,.78-.065,1.17a7.922,7.922,0,0,0,0,1.755c.065.715,0,1.365,0,2.08v3.38c-.065.13-.065.325-.325.39-.195,0-.26-.13-.39-.26,0-.065-.065-.13-.065-.2C.78,26.76.455,25.85.065,25c-.52-1.365-1.04-2.73-1.625-4.095-.455-1.105-.91-2.145-1.3-3.25A17.5,17.5,0,0,1-3.7,15.58l-.975-2.275A5.4,5.4,0,0,0-6.825,10.64a3.13,3.13,0,0,0-2.145-.52,3.281,3.281,0,0,0-2.665,2.405,19.589,19.589,0,0,0-.65,4.29l-.2,3.38c-.065,1.17-.195,2.34-.195,3.51-.065.78,0,1.56-.065,2.34A12.087,12.087,0,0,0-12.8,28.71v2.21c0,.975-.065,1.885,0,2.86,0,.715-.065,1.5,0,2.275,0,.39.065.845.065,1.235a14.659,14.659,0,0,0,0,1.69,9.154,9.154,0,0,1,.065,1.3,17.014,17.014,0,0,0,.13,2.47,2.6,2.6,0,0,0,.715,1.495A2.789,2.789,0,0,0-8.84,45.22Zm36.205-.975a2.84,2.84,0,0,0,1.95-1.885,6.6,6.6,0,0,0,.39-2.21c.065-.78,0-1.625,0-2.405V35.73a19.684,19.684,0,0,0-.13-2.015c0-1.495.065-2.99-.065-4.485-.13-1.17-.065-2.405-.13-3.575a12.694,12.694,0,0,1-.195-2.21c0-.065.065-.13,0-.13a.836.836,0,0,1-.065-.78c0-.325-.2-.52-.2-.845a12.124,12.124,0,0,0-.26-2.08c-.065-.65-.325-1.365-.455-2.08a20.546,20.546,0,0,0-1.1-3.38,16.787,16.787,0,0,0-1.43-2.86,8.369,8.369,0,0,0-1.43-1.95,3.154,3.154,0,0,0-2.86-.975,2.222,2.222,0,0,0-1.69.91,13.046,13.046,0,0,0-1.82,3.38l-1.69,4.225c-.455,1.3-1.04,2.665-1.5,4.03-.78,2.145-1.495,4.355-2.08,6.63-.26,1.1-.585,2.21-.78,3.315l-.585,3.055c-.2,1.04-.325,2.015-.455,3.055a8.891,8.891,0,0,0-.13,1.885v.13a1.978,1.978,0,0,0,.065,1.365A3.322,3.322,0,0,0,11.96,42.36a2,2,0,0,0,2.21.39,3.5,3.5,0,0,0,.845-.455A4.836,4.836,0,0,0,16.38,40.28c.13-.65.195-1.365.325-2.015l.39-2.86a1.039,1.039,0,0,1,.325-.65,4.205,4.205,0,0,1,.52-.585.494.494,0,0,1,.585-.195c.65,0,1.3,0,1.95.065.715.065,1.495.13,2.275.13a1.055,1.055,0,0,1,.585.325,2.191,2.191,0,0,1,.325,1.1c.065,1.82-.065,3.64.13,5.46a3.513,3.513,0,0,0,1.365,2.73A2.147,2.147,0,0,0,27.365,44.245ZM22.1,28.125a2.164,2.164,0,0,1-.91-.065,2.914,2.914,0,0,0-.78-.065,1.286,1.286,0,0,1-.715-.13.765.765,0,0,1-.585-.78,3.3,3.3,0,0,1,.195-1.105c.325-1.17.78-2.34,1.17-3.575.39-.91.715-1.885,1.1-2.86,0-.065.065-.13.13-.26a.491.491,0,0,1,.52-.2c.2,0,.26.2.26.325a6.8,6.8,0,0,1,.26,1.1c.13.78.2,1.56.39,2.34v.065c-.065.715.13,1.365.13,2.08a7.964,7.964,0,0,1,.13,1.235,3.434,3.434,0,0,1-.065.845A1.323,1.323,0,0,1,22.1,28.125ZM48.36,45.09a3.309,3.309,0,0,0,1.885-.975,2.911,2.911,0,0,0-.325-4.29,5.61,5.61,0,0,0-3.77-.975c-.195,0-.325.065-.455,0a31.874,31.874,0,0,0-3.51-.26H40.95a2.563,2.563,0,0,1-1.3-.325,1.221,1.221,0,0,1-.78-1.1,7.938,7.938,0,0,1,.065-1.755,4.887,4.887,0,0,1,0-.975,15.938,15.938,0,0,0,.13-1.755v-1.69c0-.715.13-1.43.065-2.145v-.26c.195-.325.065-.65.065-.91-.065-.325.13-.585.065-.845-.13-.715.065-1.43-.065-2.145v-.13a8.312,8.312,0,0,0,.065-2.21c0-.52.065-1.04.065-1.56V19.61a12.692,12.692,0,0,0,.13-1.5,11.017,11.017,0,0,1,.065-1.495c.065-.845.065-1.69.13-2.535a13.271,13.271,0,0,0,0-2.275,13.5,13.5,0,0,0-.325-1.95,4.526,4.526,0,0,0-.715-1.495,2.6,2.6,0,0,0-2.665-.78,2.871,2.871,0,0,0-1.82,1.755,9.154,9.154,0,0,0-.455,2.925v1.69c-.065.455,0,.845-.065,1.235a5.284,5.284,0,0,0-.065,1.43c0,.65-.065,1.3-.065,1.95a10.486,10.486,0,0,1,0,1.43,11.838,11.838,0,0,0-.065,2.145v.325a9.791,9.791,0,0,0-.065,1.95,18.266,18.266,0,0,1-.065,1.885V28.06a8.992,8.992,0,0,0-.065,1.885.122.122,0,0,1,0,.195A15.84,15.84,0,0,0,33.15,31.9a10.064,10.064,0,0,1-.065,1.43c-.065.715-.065,1.365-.065,2.015,0,.52-.065,1.1-.065,1.625a4.887,4.887,0,0,1,0,.975,9.019,9.019,0,0,0,.26,2.99,4.026,4.026,0,0,0,1.56,1.885,3.533,3.533,0,0,0,1.495.715,10.528,10.528,0,0,0,2.47.585c.585.065,1.235.065,1.885.13a17.765,17.765,0,0,1,2.6.325,13.31,13.31,0,0,1,2.73.455A6,6,0,0,0,48.36,45.09Z" transform="translate(-18014.682 11190.551)" fill="#f8f8f8"/>
      <path id="Trazado_13796" data-name="Trazado 13796" d="M51.813-.684a9.125,9.125,0,0,0,5.3-6.84c.342-1.71.855-3.42,1.2-5.3l2.052-8.55a14.132,14.132,0,0,1,1.368-3.762,3.358,3.358,0,0,1,2.223-1.539,9.282,9.282,0,0,1,3.762,0c1.539.513,2.907,0,4.275-.171a8.167,8.167,0,0,0,5.643-4.1,5.025,5.025,0,0,0,1.026-4.617,7.935,7.935,0,0,0-5.3-5.814,9.567,9.567,0,0,0-4.275-.855,2.215,2.215,0,0,1-2.565-2.394A12.943,12.943,0,0,1,66.69-47.2a13.092,13.092,0,0,1,2.394-5.472,2.32,2.32,0,0,1,2.223-1.2h4.1a12.943,12.943,0,0,0,2.565-.171c3.249-.684,6.5-4.275,6.156-7.7a8.181,8.181,0,0,0-3.078-5.814A11.518,11.518,0,0,0,74.9-69.6H72.675c-.684,0-1.026-.342-.855-1.026a32.346,32.346,0,0,1,.855-3.933c.342-1.881.855-3.762,1.2-5.643.171-1.368.342-2.907.684-4.446a29.934,29.934,0,0,0,.684-5.472,8.03,8.03,0,0,0-1.368-4.446,7.071,7.071,0,0,0-4.1-2.907,5.664,5.664,0,0,0-4.1,0,6.126,6.126,0,0,0-1.881.684,9.916,9.916,0,0,0-3.933,5.3,32.648,32.648,0,0,0-1.026,5.643c-.171,1.539-.684,3.078-.855,4.617-.342,1.881-.855,3.762-1.2,5.643-.513,2.565-2.052,4.446-4.959,4.617a29.024,29.024,0,0,1-6.669-.171,1.644,1.644,0,0,1-1.368-1.539,8.572,8.572,0,0,1,.171-2.907l.513-2.565.684-4.275A30.006,30.006,0,0,0,46-90.288a5.123,5.123,0,0,0-1.026-3.078,6.582,6.582,0,0,0-4.959-3.762,6.992,6.992,0,0,0-4.617.513,9.46,9.46,0,0,0-4.788,6.327c-.684,2.736-1.026,5.472-1.539,8.208a46.634,46.634,0,0,1-1.71,7.011A6.716,6.716,0,0,1,24.8-71.478a5.469,5.469,0,0,1-3.249.855c-1.71.171-3.42,0-5.13,0v.171H10.944c-.342,0-.684-.171-1.026,0A9.182,9.182,0,0,0,4.788-67.2,6.258,6.258,0,0,0,3.42-62.757a6.857,6.857,0,0,0,2.223,5.3,8.781,8.781,0,0,0,6.327,2.565,57.777,57.777,0,0,0,7.7,0c1.026,0,1.368.513,1.881,1.368a2.169,2.169,0,0,1,.171,1.026,25.511,25.511,0,0,1-.342,3.591,17.045,17.045,0,0,1-2.565,6.327c-.513.513-.855.855-1.539.855-2.223-.171-4.446.342-6.84.342a7.3,7.3,0,0,0-6.669,3.591,7.554,7.554,0,0,0-.855,6.327,7.9,7.9,0,0,0,5.814,5.3,6.365,6.365,0,0,0,3.078.342,8.583,8.583,0,0,1,2.052.342c1.026.513,2.052,1.71,1.71,2.736a26.548,26.548,0,0,1-.684,3.591c-.513,1.71-.513,3.42-.855,4.959a4.009,4.009,0,0,0,.342,2.052,34.342,34.342,0,0,0,.171,4.275,8.256,8.256,0,0,0,3.249,5.472,4.834,4.834,0,0,0,3.078.684,8.079,8.079,0,0,0,3.42-1.71c2.394-2.223,3.42-5.13,4.788-7.866a28.441,28.441,0,0,0,1.539-6.327,42.318,42.318,0,0,0,1.026-4.959c.513-2.736,1.881-4.1,4.617-4.1a13.907,13.907,0,0,1,5.3.342c2.223.342,3.249,2.052,2.736,4.275a.6.6,0,0,0-.171.342c-.513,3.42-1.71,6.5-2.223,9.918a17.348,17.348,0,0,0-.342,4.275,11.008,11.008,0,0,0,1.881,4.617A6.475,6.475,0,0,0,51.813-.684ZM40.7-42.408a2,2,0,0,1-1.881-1.539,1.3,1.3,0,0,1-.342-.684c-.171-2.394-.342-4.959.684-7.182A7.378,7.378,0,0,1,41.9-54.72c.171-.171.684,0,1.026-.171,1.368-.171,2.736.513,4.275.342h1.2c.684.171,1.368-.171,1.71.342a3.586,3.586,0,0,1,.684,1.881,25.512,25.512,0,0,1-.342,3.591c-.513,1.71-.855,3.42-2.052,4.788a2.9,2.9,0,0,1-2.736,1.539H43.434A14.624,14.624,0,0,0,40.7-42.408ZM110.466,2.223a27.832,27.832,0,0,0,5.13-1.2,32.083,32.083,0,0,0,6.156-3.591,38.977,38.977,0,0,0,6.327-6.669,42.918,42.918,0,0,0,4.1-7.866,20.641,20.641,0,0,0,2.052-7.011,24.076,24.076,0,0,0,.171-4.959A30.27,30.27,0,0,0,134.235-33a14.545,14.545,0,0,0-.684-3.762c-.684-1.71-1.2-3.249-1.71-4.959a24.608,24.608,0,0,0-3.933-6.84,26.808,26.808,0,0,0-5.3-5.472,24.574,24.574,0,0,0-4.275-3.078l-2.565-1.368a3.376,3.376,0,0,1-1.026-2.394,4.121,4.121,0,0,1,.684-2.565c1.71-2.223,3.078-4.788,4.788-6.84a44.835,44.835,0,0,1,3.762-4.275,25.162,25.162,0,0,1,5.985-5.3,8.882,8.882,0,0,0,2.907-3.249,6.462,6.462,0,0,0,.342-6.327c-1.71-3.249-4.275-4.446-7.695-4.275a9.866,9.866,0,0,0-5.472,2.394,89.366,89.366,0,0,0-8.379,7.695c-1.71,1.881-3.249,3.762-4.788,5.814a94.362,94.362,0,0,0-6.84,11.286,57.959,57.959,0,0,0-3.078,6.669,66.519,66.519,0,0,0-3.762,10.26,86.587,86.587,0,0,0-3.078,13.167,51.123,51.123,0,0,0-.684,7.011,35.227,35.227,0,0,0,0,7.353c.342,1.71.342,3.762.855,5.472a25,25,0,0,0,.855,3.42l1.539,4.1a21.606,21.606,0,0,0,6.669,8.037,15.305,15.305,0,0,0,7.695,3.078A11.507,11.507,0,0,0,110.466,2.223ZM109.44-11.628A4.342,4.342,0,0,1,107.73-13a13.233,13.233,0,0,1-2.052-4.446l-.513-2.565a27.438,27.438,0,0,1-.684-7.524,52.477,52.477,0,0,1,1.2-10.26l.684-3.249a3.762,3.762,0,0,1,2.223-2.565,3.146,3.146,0,0,1,3.42.342,16.293,16.293,0,0,1,4.959,5.3c1.71,2.736,2.223,5.814,2.736,8.892a10.4,10.4,0,0,1-.171,3.249,23.7,23.7,0,0,1-1.539,5.985,23.277,23.277,0,0,1-3.591,5.472,11.165,11.165,0,0,1-2.736,2.223A3.56,3.56,0,0,1,109.44-11.628Z" transform="translate(-18222.844 11246.512)" fill="#f8f8f8"/>
      <path id="Trazado_13804" data-name="Trazado 13804" d="M48.489,16.48c3.22-3.7,4.94-5.58,4.94-7.54a4.116,4.116,0,0,0-4.22-4.2,4.493,4.493,0,0,0-4.44,2.82.721.721,0,0,0,.5.96l1.32.3a.533.533,0,0,0,.62-.34,1.793,1.793,0,0,1,1.78-1.28,1.663,1.663,0,0,1,1.72,1.82c0,1.22-1.4,2.76-2.62,4.16-1.2,1.4-1.94,2.24-3.1,3.52a1.175,1.175,0,0,0-.26.72v.86a.713.713,0,0,0,.7.72h7.5a.717.717,0,0,0,.72-.72V17.2a.717.717,0,0,0-.72-.72Zm10.82-11.3-3.5,2.34a.745.745,0,0,0-.2.98l.42.68a.714.714,0,0,0,1,.22l1.84-1.24V18.28a.717.717,0,0,0,.72.72h1.28a.717.717,0,0,0,.72-.72V5.72a.717.717,0,0,0-.72-.72h-.96A1.058,1.058,0,0,0,59.309,5.18Z" transform="translate(-17983.695 11135.551)" fill="#f8f8f8"/>
    </g>
  </g>
</svg>
