<svg xmlns="http://www.w3.org/2000/svg" xmlns:xlink="http://www.w3.org/1999/xlink" width="414" height="170" viewBox="0 0 414 170">
  <defs>
    <clipPath id="clip-title-glucosa-white">
      <rect width="414" height="170"/>
    </clipPath>
  </defs>
  <g id="title-glucosa-white" clip-path="url(#clip-title-glucosa-white)">
    <g id="Grupo_10261" data-name="Grupo 10261" transform="translate(18277.242 -10721.753)">
      <path id="Trazado_13806" data-name="Trazado 13806" d="M-63.6,0A10.081,10.081,0,0,0-59.9-1.69a7.771,7.771,0,0,0,2.08-2.535,11.734,11.734,0,0,0,1.3-3.25,21.269,21.269,0,0,0,.455-4.03c0-.65-.195-1.3-.13-1.95-.195-.325-.065-.715-.195-1.1-.195-.585-.39-1.235-.65-1.82a9.218,9.218,0,0,0-2.015-3.12,10.242,10.242,0,0,0-.975-.78,6.308,6.308,0,0,0-1.82-1.04A3.249,3.249,0,0,0-64.642-21a2.941,2.941,0,0,0-1.43,2.73,2.967,2.967,0,0,0,.845,1.885,5.6,5.6,0,0,0,1.17.91,3.421,3.421,0,0,1,.91.78,9.2,9.2,0,0,1,.91,2.015c.26.715.065,1.43.26,2.145.065,0,.065.065,0,.13a2.4,2.4,0,0,0-.065.975A6.814,6.814,0,0,1-62.3-7.15a2.033,2.033,0,0,1-1.43,1.69c-.975.26-1.235.2-1.69-.65l-.585-1.3a13.57,13.57,0,0,1-.715-2.795c-.065-.715-.195-1.43-.26-2.21a21.107,21.107,0,0,1,.065-3.51l.195-1.95c.13-.845.325-1.625.52-2.47a19.7,19.7,0,0,1,1.43-4.16,16.829,16.829,0,0,1,2.145-3.575,10,10,0,0,1,1.69-1.625,2.473,2.473,0,0,1,1.1-.52,6.782,6.782,0,0,0,1.625-.52,3.074,3.074,0,0,0,1.495-2.275,2.969,2.969,0,0,0-1.625-3.055,5.975,5.975,0,0,0-1.69-.455c-.26-.065-.455.065-.715.13a6.415,6.415,0,0,0-2.665.845,15.871,15.871,0,0,0-2.145,1.5,16.715,16.715,0,0,0-2.275,2.535,12.942,12.942,0,0,0-1.625,2.535,18.091,18.091,0,0,0-1.56,3.185,36.817,36.817,0,0,0-1.3,3.77,14.1,14.1,0,0,0-.455,2.275c-.065.715-.195,1.365-.26,2.08a16.088,16.088,0,0,0-.195,3.055v1.365c0,.585.065,1.235.065,1.82a14.952,14.952,0,0,0,.195,1.69,5.052,5.052,0,0,0,.13,1.04c.195.845.39,1.69.65,2.535a9.993,9.993,0,0,0,2.145,3.9,6.257,6.257,0,0,0,3.965,2.21A15.684,15.684,0,0,0-63.6,0Zm24.9-.91a3.309,3.309,0,0,0,1.885-.975,2.743,2.743,0,0,0,.715-2.665,2.735,2.735,0,0,0-1.04-1.625,5.61,5.61,0,0,0-3.77-.975c-.2,0-.325.065-.455,0a31.875,31.875,0,0,0-3.51-.26h-1.235a2.563,2.563,0,0,1-1.3-.325A1.221,1.221,0,0,1-48.2-8.84a7.938,7.938,0,0,1,.065-1.755,4.887,4.887,0,0,1,0-.975A15.938,15.938,0,0,0-48-13.325v-1.69c0-.715.13-1.43.065-2.145v-.26c.195-.325.065-.65.065-.91-.065-.325.13-.585.065-.845-.13-.715.065-1.43-.065-2.145v-.13a8.312,8.312,0,0,0,.065-2.21c0-.52.065-1.04.065-1.56v-1.17a12.692,12.692,0,0,0,.13-1.5,11.017,11.017,0,0,1,.065-1.495c.065-.845.065-1.69.13-2.535a13.271,13.271,0,0,0,0-2.275,13.5,13.5,0,0,0-.325-1.95,4.526,4.526,0,0,0-.715-1.495,2.6,2.6,0,0,0-2.665-.78,2.871,2.871,0,0,0-1.82,1.755,9.154,9.154,0,0,0-.455,2.925v1.69c-.065.455,0,.845-.065,1.235a5.284,5.284,0,0,0-.065,1.43c0,.65-.065,1.3-.065,1.95a10.486,10.486,0,0,1,0,1.43,11.838,11.838,0,0,0-.065,2.145v.325a9.791,9.791,0,0,0-.065,1.95,18.266,18.266,0,0,1-.065,1.885v1.755a8.992,8.992,0,0,0-.065,1.885.122.122,0,0,1,0,.195,15.839,15.839,0,0,0-.065,1.755,10.064,10.064,0,0,1-.065,1.43c-.065.715-.065,1.365-.065,2.015,0,.52-.065,1.1-.065,1.625a4.887,4.887,0,0,1,0,.975,9.019,9.019,0,0,0,.26,2.99,4.026,4.026,0,0,0,1.56,1.885,3.533,3.533,0,0,0,1.5.715,10.528,10.528,0,0,0,2.47.585c.585.065,1.235.065,1.885.13a17.765,17.765,0,0,1,2.6.325,13.31,13.31,0,0,1,2.73.455A6,6,0,0,0-38.707-.91Zm14.95-1.95a8.808,8.808,0,0,0,2.275-.065,7.6,7.6,0,0,0,1.3-.39,8.6,8.6,0,0,0,2.08-1.3,11.626,11.626,0,0,0,1.82-1.755,12.61,12.61,0,0,0,.975-1.56,19.493,19.493,0,0,0,2.015-4.615,36.5,36.5,0,0,0,.845-3.835c.065-.585.26-1.17.325-1.82.13-1.495.39-3.055.52-4.55,0-.975.13-1.885.195-2.86a5.559,5.559,0,0,1,0-1.04,5.4,5.4,0,0,0,.065-1.43c0-.52.065-1.04.065-1.56,0-.455-.065-.845-.065-1.235a11.134,11.134,0,0,0,.065-2.08,2.815,2.815,0,0,1-.065-.325,3.7,3.7,0,0,0-.325-2.21,3.274,3.274,0,0,0-4.16-1.755,2.8,2.8,0,0,0-1.365,1.235,4.934,4.934,0,0,0-.65,3.055v1.69c-.065.975,0,1.95-.065,2.925a8.667,8.667,0,0,0,0,1.3,10.841,10.841,0,0,0-.13,2.08c0,1.1-.195,2.145-.26,3.25-.13,1.43-.39,2.86-.65,4.225a29.855,29.855,0,0,1-1.56,5.85,6.253,6.253,0,0,1-1.3,2.08,1.21,1.21,0,0,1-1.5.325,5.293,5.293,0,0,1-1.82-1.56,8.4,8.4,0,0,1-1.755-4.29c-.195-1.885-.52-3.7-.585-5.655a15.068,15.068,0,0,0-.065-2.405v-.195a6.8,6.8,0,0,0,0-1.625c.065-.52,0-1.105.065-1.625v-2.73c.065-.78.065-1.625.065-2.405a5.254,5.254,0,0,1,.065-1.04,2.755,2.755,0,0,0-.455-2.015,3.21,3.21,0,0,0-2.275-1.56,3.256,3.256,0,0,0-2.08.39,3.46,3.46,0,0,0-1.43,1.755,9.008,9.008,0,0,0-.455,3.185v1.56a7.032,7.032,0,0,1,0,1.17,7.5,7.5,0,0,0-.065,1.69,14.658,14.658,0,0,1,0,1.69c-.065.975.065,1.95,0,2.99a6.942,6.942,0,0,0,.065,1.625c0,.975.195,2.015.195,2.99a4.877,4.877,0,0,0,.13,1.3c-.065.91.39,1.95.455,3.055a.2.2,0,0,0,.065.13c.26.78.455,1.69.78,2.47A13.147,13.147,0,0,0-30.257-6.63a8.972,8.972,0,0,0,2.6,2.34A9.792,9.792,0,0,0-23.757-2.86ZM1.788-1.56a6.106,6.106,0,0,0,1.885,0,2.353,2.353,0,0,0,1.495-.975,1.945,1.945,0,0,0,.325-1.69,2.5,2.5,0,0,0-.845-1.43A7.631,7.631,0,0,0,2.893-6.63a3.311,3.311,0,0,1-1.105-.455,16.091,16.091,0,0,1-2.34-1.82A7.306,7.306,0,0,1-2.437-11.9a10.59,10.59,0,0,1-.78-4.225,27.124,27.124,0,0,1,.065-3.25c.13-.715.195-1.43.325-2.08a14.437,14.437,0,0,1,.715-2.535,20.98,20.98,0,0,1,1.56-3.77,13.685,13.685,0,0,1,2.535-3.25,2.773,2.773,0,0,1,2.6-.78,4.6,4.6,0,0,0,1.885,0,3.425,3.425,0,0,0,1.95-1.755,3.791,3.791,0,0,0,.13-1.5A3.327,3.327,0,0,0,7.9-36.4a3.859,3.859,0,0,0-1.885-1.17c-.715-.2-1.43-.13-2.145-.26a.2.2,0,0,0-.26,0c-.13.13-.325.065-.455.065a2.607,2.607,0,0,0-1.235.2,8.738,8.738,0,0,0-3.7,1.885A14.279,14.279,0,0,0-4.452-32.76a28.373,28.373,0,0,0-2.08,3.575A38.865,38.865,0,0,0-8.157-24.57a26.212,26.212,0,0,0-.975,5,11.443,11.443,0,0,0-.13,2.6,12.525,12.525,0,0,0,.065,1.56c.065.78.13,1.56.26,2.405.13.715.325,1.365.52,2.08A13.686,13.686,0,0,0-7.182-7.865,15.357,15.357,0,0,0-5.037-4.94a5.613,5.613,0,0,0,.91.845A9.28,9.28,0,0,0,.228-1.885,13.313,13.313,0,0,0,1.788-1.56Zm20.67-.975c.065,0,.195-.065.26,0a1.1,1.1,0,0,0,.91-.065,10.931,10.931,0,0,1,1.56-.455A14.307,14.307,0,0,0,28.5-5.135c.585-.52,1.1-1.17,1.69-1.69a10.17,10.17,0,0,0,1.495-2.21,22.181,22.181,0,0,0,1.1-2.145,26.749,26.749,0,0,0,1.755-5.46,22.487,22.487,0,0,0,.585-5.525A18.749,18.749,0,0,0,35-24.83c-.065-.195-.065-.39-.13-.65-.13-.585-.195-1.365-.39-2.015-.195-.52-.26-1.04-.455-1.495a21,21,0,0,0-1.3-2.73,15.661,15.661,0,0,0-2.34-3.12,8.5,8.5,0,0,0-.78-.715,7.5,7.5,0,0,0-1.885-1.3,12.977,12.977,0,0,0-4.1-1.235,9.4,9.4,0,0,0-2.34,0,12.413,12.413,0,0,0-2.925.845,15.869,15.869,0,0,0-3.575,2.275,12.484,12.484,0,0,0-1.82,1.885,4.908,4.908,0,0,0-.715.91,8.188,8.188,0,0,0-.65,2.145l-.195,1.1a29.79,29.79,0,0,0-.65,4.095c-.065.715-.13,1.5-.13,2.21-.065.845-.065,1.755-.13,2.665,0,.65,0,1.365.065,2.08l.2,2.21a29.733,29.733,0,0,0,.91,4.68c.26.585.455,1.17.65,1.69a14.059,14.059,0,0,0,1.43,2.34A14.311,14.311,0,0,0,15.892-4.68a10.386,10.386,0,0,0,2.6,1.5A7.648,7.648,0,0,0,22.458-2.535Zm.065-5.785a2.358,2.358,0,0,1-2.535-.585A7.3,7.3,0,0,1,18.1-12.09a8.692,8.692,0,0,1-.65-2.47c-.065-.26-.26-.455-.26-.715-.065-.91-.13-1.82-.26-2.73-.065-.715-.065-1.43-.065-2.145a45.51,45.51,0,0,1,.39-5.2l.52-3.055a2.44,2.44,0,0,1,.78-1.365,7.635,7.635,0,0,1,1.95-1.56,4.677,4.677,0,0,1,3.12-.39c.26.065.52.2.715.26a7.485,7.485,0,0,1,2.73,2.6c.455.78.715,1.625,1.1,2.405v.065c.065.715.455,1.3.455,1.95a15.733,15.733,0,0,1,.13,2.47,21.084,21.084,0,0,1-.715,4.94,16.055,16.055,0,0,1-1.235,3.51,11.313,11.313,0,0,1-1.17,2.145,8.928,8.928,0,0,1-.845,1.3A5.519,5.519,0,0,1,22.522-8.32ZM40.137-.65a3.5,3.5,0,0,0,2.145-.195,5.531,5.531,0,0,1,1.1-.39A28.374,28.374,0,0,0,47.092-3.12a9.154,9.154,0,0,0,3.055-2.8,11.662,11.662,0,0,0,1.3-2.535,10.329,10.329,0,0,0,.65-3.835,13.979,13.979,0,0,0-.13-1.495,13.048,13.048,0,0,0-.845-3.12,17.783,17.783,0,0,0-3.25-4.68c-1.3-1.43-2.795-2.665-4.03-4.16a2.919,2.919,0,0,1-.65-3.12,5.585,5.585,0,0,1,2.21-3.12,7.488,7.488,0,0,1,2.08-.91,3.944,3.944,0,0,0,1.69-.52,2.763,2.763,0,0,0,1.43-2.34,2.665,2.665,0,0,0-.39-1.56,2.773,2.773,0,0,0-2.145-1.43,5.367,5.367,0,0,0-2.015.13,12.1,12.1,0,0,0-2.015.65A12.2,12.2,0,0,0,41.7-36.6a10.988,10.988,0,0,0-3.185,3.7,12.5,12.5,0,0,0-.91,2.145,8.729,8.729,0,0,0-.455,1.755,8.549,8.549,0,0,0,.13,2.86,11.117,11.117,0,0,0,.585,1.95,12.939,12.939,0,0,0,2.34,3.25c.975,1.105,2.08,2.08,3.12,3.12a14.03,14.03,0,0,1,1.755,2.145,7.3,7.3,0,0,1,1.17,3.185,7.163,7.163,0,0,1-.13,1.17,4.169,4.169,0,0,1-1.43,2.665A11.909,11.909,0,0,1,41.5-6.825l-1.885.78A3.6,3.6,0,0,0,38.252-4.81a2.937,2.937,0,0,0,0,2.925A2.377,2.377,0,0,0,40.137-.65Zm30.745-1.1a2.84,2.84,0,0,0,1.95-1.885,6.6,6.6,0,0,0,.39-2.21c.065-.78,0-1.625,0-2.4V-10.27a19.684,19.684,0,0,0-.13-2.015c0-1.495.065-2.99-.065-4.485-.13-1.17-.065-2.405-.13-3.575a12.694,12.694,0,0,1-.195-2.21c0-.065.065-.13,0-.13a.836.836,0,0,1-.065-.78c0-.325-.195-.52-.195-.845a12.124,12.124,0,0,0-.26-2.08c-.065-.65-.325-1.365-.455-2.08a20.545,20.545,0,0,0-1.1-3.38,16.787,16.787,0,0,0-1.43-2.86,8.369,8.369,0,0,0-1.43-1.95,3.154,3.154,0,0,0-2.86-.975,2.222,2.222,0,0,0-1.69.91,13.046,13.046,0,0,0-1.82,3.38L59.7-29.12c-.455,1.3-1.04,2.665-1.495,4.03-.78,2.145-1.5,4.355-2.08,6.63-.26,1.1-.585,2.21-.78,3.315l-.585,3.055c-.195,1.04-.325,2.015-.455,3.055a8.891,8.891,0,0,0-.13,1.885v.13a1.978,1.978,0,0,0,.065,1.365A3.322,3.322,0,0,0,55.477-3.64a2,2,0,0,0,2.21.39,3.5,3.5,0,0,0,.845-.455A4.836,4.836,0,0,0,59.9-5.72c.13-.65.195-1.365.325-2.015l.39-2.86a1.039,1.039,0,0,1,.325-.65,4.205,4.205,0,0,1,.52-.585.494.494,0,0,1,.585-.195c.65,0,1.3,0,1.95.065.715.065,1.495.13,2.275.13a1.055,1.055,0,0,1,.585.325,2.191,2.191,0,0,1,.325,1.1c.065,1.82-.065,3.64.13,5.46a3.513,3.513,0,0,0,1.365,2.73A2.147,2.147,0,0,0,70.882-1.755Zm-5.265-16.12a2.164,2.164,0,0,1-.91-.065,2.914,2.914,0,0,0-.78-.065,1.286,1.286,0,0,1-.715-.13.765.765,0,0,1-.585-.78,3.3,3.3,0,0,1,.195-1.105c.325-1.17.78-2.34,1.17-3.575.39-.91.715-1.885,1.1-2.86,0-.065.065-.13.13-.26a.491.491,0,0,1,.52-.2c.195,0,.26.2.26.325a6.8,6.8,0,0,1,.26,1.1c.13.78.195,1.56.39,2.34v.065c-.065.715.13,1.365.13,2.08a7.964,7.964,0,0,1,.13,1.235,3.434,3.434,0,0,1-.065.845A1.323,1.323,0,0,1,65.617-17.875ZM-79.5,43.53c.715.13,1.43-.13,2.145-.065a17.128,17.128,0,0,0,1.82-.13,3.61,3.61,0,0,0,2.275-1.1,2.1,2.1,0,0,0,.585-1.69A2.543,2.543,0,0,0-73.9,38.72a5.568,5.568,0,0,0-2.665-.65c-.715-.065-1.43,0-2.145,0a1.287,1.287,0,0,1-1.43-1.235,9.493,9.493,0,0,1-.195-1.43v-3.38c.065-.91.26-1.17,1.17-1.43h.455a13.554,13.554,0,0,1,1.625,0,7.514,7.514,0,0,0,2.405-.455,2.887,2.887,0,0,0,2.145-2.86,2.7,2.7,0,0,0-1.69-2.47,6.954,6.954,0,0,0-2.795-.585c-.65.065-1.3,0-2.015.065a.694.694,0,0,1-.585-.455,1.83,1.83,0,0,1-.26-1.3,3.171,3.171,0,0,0,.065-1.1c.065-1.56.065-3.055.065-4.55,0-.78.455-1.365,1.235-1.3,1.235,0,2.4-.195,3.575-.195a3.8,3.8,0,0,0,1.235-.13,3.847,3.847,0,0,0,2.4-1.56,2.544,2.544,0,0,0,.065-2.925,4.318,4.318,0,0,0-3.12-1.69c-1.755-.065-3.51.13-5.265.2-.065,0-.065-.065-.13,0-.65.195-1.365.065-2.015.195a10.751,10.751,0,0,0-2.08.455,3.382,3.382,0,0,0-2.21,1.755,2.517,2.517,0,0,0-.195,1.82.718.718,0,0,1,0,.52.961.961,0,0,0,0,.845v.325c.065.91.13,1.755.13,2.6A27.363,27.363,0,0,1-86.19,22.4c-.13.78-.065,1.625-.13,2.405-.13.78-.065,1.5-.13,2.275-.13,1.1-.065,2.145-.13,3.25a29.764,29.764,0,0,0-.065,3.51c.13.91-.065,2.21.13,3.575a11.907,11.907,0,0,0,.585,2.535,4.877,4.877,0,0,0,3.25,3.12A13.453,13.453,0,0,0-79.5,43.53Zm14.69,1.69a3.01,3.01,0,0,0,1.56-1.1,5.215,5.215,0,0,0,.715-2.21,11.017,11.017,0,0,1,.065-1.495,18.267,18.267,0,0,1,.065-1.885c0-.715-.065-1.43-.065-2.145V31.115c0-.78.065-1.495.065-2.21a3.165,3.165,0,0,1,.065-.78.433.433,0,0,1,.325-.455c.13-.065.26.13.39.26a.9.9,0,0,1,.195.26c.195.715.585,1.365.845,2.08.585,1.235,1.1,2.47,1.69,3.7.52.975.975,2.015,1.495,2.925a22.974,22.974,0,0,0,2.145,3.7,9.922,9.922,0,0,1,1.04,1.43,11.869,11.869,0,0,0,.845,1.04,2.509,2.509,0,0,0,2.535.845,2.751,2.751,0,0,0,2.015-1.755,10.458,10.458,0,0,0,.455-2.405c.26-1.56.325-3.185.455-4.745.065-1.235.065-2.4.13-3.64l.195-3.64c.065-1.365.13-2.795.065-4.16V22.6c.065-.975.065-1.95.065-2.86V15.255l.065-.845a6.274,6.274,0,0,1,0-1.1,11.887,11.887,0,0,0-.13-2.145,6.037,6.037,0,0,1-.26-.845,3.85,3.85,0,0,0-1.3-2.275,2.27,2.27,0,0,0-1.56-.65,2.811,2.811,0,0,0-2.275,1.5,6.849,6.849,0,0,0-.78,2.47,8.891,8.891,0,0,0-.13,1.885c-.065.715-.065,2.145-.065,2.8v3.25c-.065.39,0,.78-.065,1.17a7.922,7.922,0,0,0,0,1.755c.065.715,0,1.365,0,2.08v3.38c-.065.13-.065.325-.325.39-.195,0-.26-.13-.39-.26,0-.065-.065-.13-.065-.2-.455-.845-.78-1.755-1.17-2.6-.52-1.365-1.04-2.73-1.625-4.095-.455-1.105-.91-2.145-1.3-3.25a17.5,17.5,0,0,1-.845-2.08l-.975-2.275A5.4,5.4,0,0,0-62.79,10.64a3.13,3.13,0,0,0-2.145-.52A3.281,3.281,0,0,0-67.6,12.525a19.589,19.589,0,0,0-.65,4.29l-.195,3.38c-.065,1.17-.195,2.34-.195,3.51-.065.78,0,1.56-.065,2.34a12.086,12.086,0,0,0-.065,2.665v2.21c0,.975-.065,1.885,0,2.86,0,.715-.065,1.5,0,2.275,0,.39.065.845.065,1.235a14.658,14.658,0,0,0,0,1.69,9.155,9.155,0,0,1,.065,1.3,17.013,17.013,0,0,0,.13,2.47,2.6,2.6,0,0,0,.715,1.495A2.789,2.789,0,0,0-64.805,45.22Zm35.425.13a3.5,3.5,0,0,0,2.145-.195,5.531,5.531,0,0,1,1.105-.39,28.374,28.374,0,0,0,3.7-1.885,9.154,9.154,0,0,0,3.055-2.8,11.662,11.662,0,0,0,1.3-2.535,10.329,10.329,0,0,0,.65-3.835,13.979,13.979,0,0,0-.13-1.495A13.048,13.048,0,0,0-18.4,29.1a17.783,17.783,0,0,0-3.25-4.68c-1.3-1.43-2.795-2.665-4.03-4.16a2.919,2.919,0,0,1-.65-3.12,5.585,5.585,0,0,1,2.21-3.12,7.488,7.488,0,0,1,2.08-.91,3.944,3.944,0,0,0,1.69-.52,2.763,2.763,0,0,0,1.43-2.34,2.665,2.665,0,0,0-.39-1.56A2.773,2.773,0,0,0-21.45,7.26a5.367,5.367,0,0,0-2.015.13,12.1,12.1,0,0,0-2.015.65A12.2,12.2,0,0,0-27.82,9.4a10.988,10.988,0,0,0-3.185,3.7,12.5,12.5,0,0,0-.91,2.145,8.729,8.729,0,0,0-.455,1.755,8.549,8.549,0,0,0,.13,2.86,11.117,11.117,0,0,0,.585,1.95,12.939,12.939,0,0,0,2.34,3.25c.975,1.105,2.08,2.08,3.12,3.12a14.03,14.03,0,0,1,1.755,2.145,7.3,7.3,0,0,1,1.17,3.185,7.162,7.162,0,0,1-.13,1.17,4.169,4.169,0,0,1-1.43,2.665,11.909,11.909,0,0,1-3.185,1.82l-1.885.78a3.6,3.6,0,0,0-1.365,1.235,2.937,2.937,0,0,0,0,2.925A2.377,2.377,0,0,0-29.38,45.35Zm30.745-1.1a2.84,2.84,0,0,0,1.95-1.885,6.6,6.6,0,0,0,.39-2.21c.065-.78,0-1.625,0-2.405V35.73a19.684,19.684,0,0,0-.13-2.015c0-1.495.065-2.99-.065-4.485-.13-1.17-.065-2.405-.13-3.575a12.694,12.694,0,0,1-.195-2.21c0-.065.065-.13,0-.13a.836.836,0,0,1-.065-.78c0-.325-.2-.52-.2-.845a12.124,12.124,0,0,0-.26-2.08c-.065-.65-.325-1.365-.455-2.08a20.546,20.546,0,0,0-1.1-3.38,16.787,16.787,0,0,0-1.43-2.86,8.369,8.369,0,0,0-1.43-1.95,3.154,3.154,0,0,0-2.86-.975,2.222,2.222,0,0,0-1.69.91,13.045,13.045,0,0,0-1.82,3.38l-1.69,4.225c-.455,1.3-1.04,2.665-1.5,4.03-.78,2.145-1.495,4.355-2.08,6.63-.26,1.1-.585,2.21-.78,3.315l-.585,3.055c-.2,1.04-.325,2.015-.455,3.055a8.891,8.891,0,0,0-.13,1.885v.13a1.978,1.978,0,0,0,.065,1.365A3.322,3.322,0,0,0-14.04,42.36a2,2,0,0,0,2.21.39,3.5,3.5,0,0,0,.845-.455A4.836,4.836,0,0,0-9.62,40.28c.13-.65.195-1.365.325-2.015l.39-2.86a1.039,1.039,0,0,1,.325-.65,4.205,4.205,0,0,1,.52-.585.494.494,0,0,1,.585-.195c.65,0,1.3,0,1.95.065.715.065,1.495.13,2.275.13a1.055,1.055,0,0,1,.585.325,2.191,2.191,0,0,1,.325,1.1c.065,1.82-.065,3.64.13,5.46A3.513,3.513,0,0,0-.845,43.79,2.147,2.147,0,0,0,1.365,44.245ZM-3.9,28.125a2.164,2.164,0,0,1-.91-.065,2.914,2.914,0,0,0-.78-.065,1.286,1.286,0,0,1-.715-.13.765.765,0,0,1-.585-.78,3.3,3.3,0,0,1,.195-1.105c.325-1.17.78-2.34,1.17-3.575.39-.91.715-1.885,1.1-2.86,0-.065.065-.13.13-.26a.491.491,0,0,1,.52-.2c.2,0,.26.2.26.325a6.8,6.8,0,0,1,.26,1.1c.13.78.2,1.56.39,2.34v.065c-.065.715.13,1.365.13,2.08A7.964,7.964,0,0,1-2.6,26.24a3.434,3.434,0,0,1-.065.845A1.323,1.323,0,0,1-3.9,28.125ZM9.685,45.22a3.01,3.01,0,0,0,1.56-1.1,5.215,5.215,0,0,0,.715-2.21,11.017,11.017,0,0,1,.065-1.495,18.266,18.266,0,0,1,.065-1.885c0-.715-.065-1.43-.065-2.145V31.115c0-.78.065-1.495.065-2.21a3.165,3.165,0,0,1,.065-.78.433.433,0,0,1,.325-.455c.13-.065.26.13.39.26a.9.9,0,0,1,.195.26c.195.715.585,1.365.845,2.08.585,1.235,1.105,2.47,1.69,3.7.52.975.975,2.015,1.495,2.925a22.974,22.974,0,0,0,2.145,3.7,9.922,9.922,0,0,1,1.04,1.43,11.868,11.868,0,0,0,.845,1.04,2.509,2.509,0,0,0,2.535.845,2.751,2.751,0,0,0,2.015-1.755,10.458,10.458,0,0,0,.455-2.405c.26-1.56.325-3.185.455-4.745.065-1.235.065-2.4.13-3.64l.195-3.64c.065-1.365.13-2.795.065-4.16V22.6c.065-.975.065-1.95.065-2.86V15.255l.065-.845a6.274,6.274,0,0,1,0-1.1,11.887,11.887,0,0,0-.13-2.145,6.037,6.037,0,0,1-.26-.845,3.85,3.85,0,0,0-1.3-2.275,2.27,2.27,0,0,0-1.56-.65,2.811,2.811,0,0,0-2.275,1.5,6.849,6.849,0,0,0-.78,2.47,8.891,8.891,0,0,0-.13,1.885c-.065.715-.065,2.145-.065,2.8v3.25c-.065.39,0,.78-.065,1.17a7.922,7.922,0,0,0,0,1.755c.065.715,0,1.365,0,2.08v3.38c-.065.13-.065.325-.325.39-.195,0-.26-.13-.39-.26,0-.065-.065-.13-.065-.2-.455-.845-.78-1.755-1.17-2.6-.52-1.365-1.04-2.73-1.625-4.095-.455-1.105-.91-2.145-1.3-3.25a17.5,17.5,0,0,1-.845-2.08l-.975-2.275A5.4,5.4,0,0,0,11.7,10.64a3.13,3.13,0,0,0-2.145-.52A3.281,3.281,0,0,0,6.89,12.525a19.589,19.589,0,0,0-.65,4.29l-.195,3.38c-.065,1.17-.2,2.34-.2,3.51-.065.78,0,1.56-.065,2.34A12.087,12.087,0,0,0,5.72,28.71v2.21c0,.975-.065,1.885,0,2.86,0,.715-.065,1.5,0,2.275,0,.39.065.845.065,1.235a14.659,14.659,0,0,0,0,1.69,9.155,9.155,0,0,1,.065,1.3,17.014,17.014,0,0,0,.13,2.47A2.6,2.6,0,0,0,6.7,44.245,2.789,2.789,0,0,0,9.685,45.22Zm28.73.195a8.664,8.664,0,0,0,1.82-.195,9.154,9.154,0,0,0,3.185-1.3A14.005,14.005,0,0,0,46.8,40.8a10.812,10.812,0,0,0,1.625-2.925,12.27,12.27,0,0,0,.845-3.705,11.766,11.766,0,0,0-.26-2.6,10.667,10.667,0,0,0-.845-2.8,10.246,10.246,0,0,0-2.21-2.8,7.4,7.4,0,0,0-2.47-1.495,7.429,7.429,0,0,0-1.95-.585,6.411,6.411,0,0,0-1.56-.2,14.374,14.374,0,0,0-1.625.325,3.388,3.388,0,0,0-2.275,1.95,2.687,2.687,0,0,0,.2,2.535,3.721,3.721,0,0,0,1.04.975,3.861,3.861,0,0,0,1.69.455c.065.065.13,0,.26,0a2.91,2.91,0,0,1,1.82.065A3.073,3.073,0,0,1,42.9,31.9a7.15,7.15,0,0,1,.26,2.015,5.745,5.745,0,0,1-.91,2.925,5.935,5.935,0,0,1-1.56,1.56,3.332,3.332,0,0,1-2.47.91,2.266,2.266,0,0,1-1.56-.78,7.48,7.48,0,0,1-.78-1.625,13.424,13.424,0,0,1-.78-3.965,20.459,20.459,0,0,1,.065-3.445c.13-.715.195-1.43.325-2.21a17.635,17.635,0,0,1,.585-2.665,20.391,20.391,0,0,1,1.82-4.42,15.935,15.935,0,0,1,1.69-2.405c.26-.39.65-.715.91-1.04a5.974,5.974,0,0,1,1.43-1.43,13.63,13.63,0,0,1,2.665-1.56,4.807,4.807,0,0,1,1.885-.52,3.008,3.008,0,0,0,2.795-2.08,7.238,7.238,0,0,0,.13-1.105,2.191,2.191,0,0,0-.325-1.1,3.491,3.491,0,0,0-2.8-1.69,6.318,6.318,0,0,0-2.47.325A16.835,16.835,0,0,0,39.585,9.6a18.974,18.974,0,0,0-1.82,1.365A9.794,9.794,0,0,0,36.27,12.33a17.5,17.5,0,0,0-1.755,2.08,15.356,15.356,0,0,0-1.82,2.73c-.455.78-.845,1.625-1.235,2.47a15.138,15.138,0,0,0-.715,1.82,18.532,18.532,0,0,0-.91,3.25l-.39,1.82c-.065.39-.065.715-.13,1.04a11.108,11.108,0,0,0-.195,2.015,17.031,17.031,0,0,0-.065,1.82h.065v2.21c0,.13-.065.26,0,.39a.769.769,0,0,1,.065.65c0,.26.13.455.13.715a19.284,19.284,0,0,0,.52,2.665,12.1,12.1,0,0,0,1.56,3.51,8.08,8.08,0,0,0,3.055,2.86A8.386,8.386,0,0,0,38.415,45.415Zm16.77-1.5a2.084,2.084,0,0,0,1.3-.65,5.67,5.67,0,0,0,1.235-2.405,3.678,3.678,0,0,0,.13-1.43c-.13-.91,0-1.82-.065-2.73v-.13c.065-.195.065-.39.26-.455a.659.659,0,0,1,.65.195l.715.975a38.87,38.87,0,0,1,2.535,3.185,11.19,11.19,0,0,0,2.08,2.21,3.171,3.171,0,0,0,3.12.39c.455-.13.715-.52,1.04-.845a2.642,2.642,0,0,0,.65-1.95,4.639,4.639,0,0,0-1.1-2.73c-.845-1.17-1.755-2.34-2.665-3.445-.78-.975-1.56-1.95-2.34-2.86-.26-.325-.26-.65-.455-.975a2.983,2.983,0,0,1,.65-1.625,17.236,17.236,0,0,0,2.6-2.73,12.929,12.929,0,0,0,1.5-2.34,9.8,9.8,0,0,0,1.17-5.4,2.666,2.666,0,0,1-.065-.715,6.31,6.31,0,0,0-.715-2.21A8.8,8.8,0,0,0,64.09,11.68a10.86,10.86,0,0,0-4.875-1.625,14.2,14.2,0,0,0-2.8.325,4.475,4.475,0,0,0-2.6,1.755,11.923,11.923,0,0,0-.845,1.56,7.86,7.86,0,0,0-.52,2.21,12.662,12.662,0,0,0-.13,1.625,11.506,11.506,0,0,1-.065,1.495c0,.845-.065,1.625-.13,2.47-.065.78-.13,1.56-.13,2.405a5.948,5.948,0,0,1-.065,1.04,13.053,13.053,0,0,0-.065,1.625c0,.455-.065.975-.065,1.43-.065.52-.065,1.04-.13,1.56a11.018,11.018,0,0,1-.065,1.5c-.065.91-.065,1.885-.065,2.8a5.71,5.71,0,0,0-.065,1.82c0,.065.065.13,0,.195a1.268,1.268,0,0,0,0,.975,4.919,4.919,0,0,0-.065.975l.195,2.535a4.759,4.759,0,0,0,1.1,2.535,3.421,3.421,0,0,0,.91.78A2.128,2.128,0,0,0,55.185,43.92Zm4.16-20.8c-.52.195-.78.13-.78-.39a1.117,1.117,0,0,1-.065-.52c.065-.455.065-1.1.13-1.755a11.462,11.462,0,0,0,0-1.5,10.629,10.629,0,0,1,.13-1.43c.13-.585.195-.585.715-.65a2.159,2.159,0,0,1,2.34,1.56,3.507,3.507,0,0,1-.195,1.625,6.262,6.262,0,0,1-1.365,2.275A3.6,3.6,0,0,1,59.345,23.12Zm18.59,20.41c.715.13,1.43-.13,2.145-.065a17.128,17.128,0,0,0,1.82-.13,3.61,3.61,0,0,0,2.275-1.1,2.1,2.1,0,0,0,.585-1.69,2.543,2.543,0,0,0-1.235-1.82,5.568,5.568,0,0,0-2.665-.65c-.715-.065-1.43,0-2.145,0a1.287,1.287,0,0,1-1.43-1.235,9.493,9.493,0,0,1-.195-1.43v-3.38c.065-.91.26-1.17,1.17-1.43h.455a13.554,13.554,0,0,1,1.625,0,7.514,7.514,0,0,0,2.405-.455,2.887,2.887,0,0,0,2.145-2.86,2.7,2.7,0,0,0-1.69-2.47,6.954,6.954,0,0,0-2.795-.585c-.65.065-1.3,0-2.015.065a.694.694,0,0,1-.585-.455,1.83,1.83,0,0,1-.26-1.3,3.171,3.171,0,0,0,.065-1.1c.065-1.56.065-3.055.065-4.55,0-.78.455-1.365,1.235-1.3,1.235,0,2.4-.195,3.575-.195a3.8,3.8,0,0,0,1.235-.13,3.847,3.847,0,0,0,2.4-1.56,2.544,2.544,0,0,0,.065-2.925,4.318,4.318,0,0,0-3.12-1.69c-1.755-.065-3.51.13-5.265.2-.065,0-.065-.065-.13,0-.65.195-1.365.065-2.015.195a10.751,10.751,0,0,0-2.08.455,3.382,3.382,0,0,0-2.21,1.755,2.517,2.517,0,0,0-.195,1.82.718.718,0,0,1,0,.52.961.961,0,0,0,0,.845v.325c.065.91.13,1.755.13,2.6A27.363,27.363,0,0,1,71.24,22.4c-.13.78-.065,1.625-.13,2.405-.13.78-.065,1.5-.13,2.275-.13,1.1-.065,2.145-.13,3.25a29.764,29.764,0,0,0-.065,3.51c.13.91-.065,2.21.13,3.575a11.907,11.907,0,0,0,.585,2.535,4.877,4.877,0,0,0,3.25,3.12A13.453,13.453,0,0,0,77.935,43.53Z" transform="translate(-18022.564 10815.668)" fill="#f8f8f8"/>
      <path id="Trazado_13807" data-name="Trazado 13807" d="M51.813-.684a9.125,9.125,0,0,0,5.3-6.84c.342-1.71.855-3.42,1.2-5.3l2.052-8.55a14.132,14.132,0,0,1,1.368-3.762,3.358,3.358,0,0,1,2.223-1.539,9.282,9.282,0,0,1,3.762,0c1.539.513,2.907,0,4.275-.171a8.167,8.167,0,0,0,5.643-4.1,5.025,5.025,0,0,0,1.026-4.617,7.935,7.935,0,0,0-5.3-5.814,9.567,9.567,0,0,0-4.275-.855,2.215,2.215,0,0,1-2.565-2.394A12.943,12.943,0,0,1,66.69-47.2a13.092,13.092,0,0,1,2.394-5.472,2.32,2.32,0,0,1,2.223-1.2h4.1a12.943,12.943,0,0,0,2.565-.171c3.249-.684,6.5-4.275,6.156-7.7a8.181,8.181,0,0,0-3.078-5.814A11.518,11.518,0,0,0,74.9-69.6H72.675c-.684,0-1.026-.342-.855-1.026a32.346,32.346,0,0,1,.855-3.933c.342-1.881.855-3.762,1.2-5.643.171-1.368.342-2.907.684-4.446a29.934,29.934,0,0,0,.684-5.472,8.03,8.03,0,0,0-1.368-4.446,7.071,7.071,0,0,0-4.1-2.907,5.664,5.664,0,0,0-4.1,0,6.126,6.126,0,0,0-1.881.684,9.916,9.916,0,0,0-3.933,5.3,32.648,32.648,0,0,0-1.026,5.643c-.171,1.539-.684,3.078-.855,4.617-.342,1.881-.855,3.762-1.2,5.643-.513,2.565-2.052,4.446-4.959,4.617a29.024,29.024,0,0,1-6.669-.171,1.644,1.644,0,0,1-1.368-1.539,8.572,8.572,0,0,1,.171-2.907l.513-2.565.684-4.275A30.006,30.006,0,0,0,46-90.288a5.123,5.123,0,0,0-1.026-3.078,6.582,6.582,0,0,0-4.959-3.762,6.992,6.992,0,0,0-4.617.513,9.46,9.46,0,0,0-4.788,6.327c-.684,2.736-1.026,5.472-1.539,8.208a46.634,46.634,0,0,1-1.71,7.011A6.716,6.716,0,0,1,24.8-71.478a5.469,5.469,0,0,1-3.249.855c-1.71.171-3.42,0-5.13,0v.171H10.944c-.342,0-.684-.171-1.026,0A9.182,9.182,0,0,0,4.788-67.2,6.258,6.258,0,0,0,3.42-62.757a6.857,6.857,0,0,0,2.223,5.3,8.781,8.781,0,0,0,6.327,2.565,57.777,57.777,0,0,0,7.7,0c1.026,0,1.368.513,1.881,1.368a2.169,2.169,0,0,1,.171,1.026,25.511,25.511,0,0,1-.342,3.591,17.045,17.045,0,0,1-2.565,6.327c-.513.513-.855.855-1.539.855-2.223-.171-4.446.342-6.84.342a7.3,7.3,0,0,0-6.669,3.591,7.554,7.554,0,0,0-.855,6.327,7.9,7.9,0,0,0,5.814,5.3,6.365,6.365,0,0,0,3.078.342,8.583,8.583,0,0,1,2.052.342c1.026.513,2.052,1.71,1.71,2.736a26.548,26.548,0,0,1-.684,3.591c-.513,1.71-.513,3.42-.855,4.959a4.009,4.009,0,0,0,.342,2.052,34.342,34.342,0,0,0,.171,4.275,8.256,8.256,0,0,0,3.249,5.472,4.834,4.834,0,0,0,3.078.684,8.079,8.079,0,0,0,3.42-1.71c2.394-2.223,3.42-5.13,4.788-7.866a28.441,28.441,0,0,0,1.539-6.327,42.318,42.318,0,0,0,1.026-4.959c.513-2.736,1.881-4.1,4.617-4.1a13.907,13.907,0,0,1,5.3.342c2.223.342,3.249,2.052,2.736,4.275a.6.6,0,0,0-.171.342c-.513,3.42-1.71,6.5-2.223,9.918a17.348,17.348,0,0,0-.342,4.275,11.008,11.008,0,0,0,1.881,4.617A6.475,6.475,0,0,0,51.813-.684ZM40.7-42.408a2,2,0,0,1-1.881-1.539,1.3,1.3,0,0,1-.342-.684c-.171-2.394-.342-4.959.684-7.182A7.378,7.378,0,0,1,41.9-54.72c.171-.171.684,0,1.026-.171,1.368-.171,2.736.513,4.275.342h1.2c.684.171,1.368-.171,1.71.342a3.586,3.586,0,0,1,.684,1.881,25.512,25.512,0,0,1-.342,3.591c-.513,1.71-.855,3.42-2.052,4.788a2.9,2.9,0,0,1-2.736,1.539H43.434A14.624,14.624,0,0,0,40.7-42.408ZM99.864,5.985a29.07,29.07,0,0,0,7.695-.342l3.762-1.026a25.442,25.442,0,0,0,6.156-2.907,41.316,41.316,0,0,0,6.669-5.3c.684-.684,1.026-1.368,1.71-2.052a38.7,38.7,0,0,0,2.223-3.42,25.73,25.73,0,0,0,2.736-5.814,24.938,24.938,0,0,0,1.71-7.866,37.726,37.726,0,0,0-.855-8.721,37.289,37.289,0,0,0-2.736-7.7,36.087,36.087,0,0,0-6.669-9.918c-1.368-1.881-1.539-4.1.171-5.814a58.81,58.81,0,0,1,4.617-4.617,23.461,23.461,0,0,0,2.736-3.078c1.026-1.2,2.052-2.565,2.907-3.762a24.044,24.044,0,0,0,3.078-6.327,45.84,45.84,0,0,0,1.2-4.617,16.518,16.518,0,0,0-.513-6.5,13.683,13.683,0,0,0-3.078-6.327,18.593,18.593,0,0,0-7.866-5.643c-3.249-1.2-6.669-1.368-9.918-1.71-2.565-.171-5.13.513-7.524.513h-.342c-1.71.513-3.42.684-4.959,1.2a8.814,8.814,0,0,0-5.643,3.591c-1.026,1.881-1.539,4.446-.684,6.156a7.541,7.541,0,0,0,6.669,5.13,21.226,21.226,0,0,0,4.617-.513,13.32,13.32,0,0,1,3.591-.684h2.394a19.635,19.635,0,0,1,3.249-.171,26.548,26.548,0,0,1,3.591.684,2.063,2.063,0,0,1,1.368,1.881,8.233,8.233,0,0,1-1.2,4.1,31.406,31.406,0,0,1-4.617,5.814l-2.223,2.052c-1.368,1.368-2.565,2.565-3.933,3.762-1.881,1.71-3.933,3.42-5.643,5.3a9.974,9.974,0,0,0-3.078,8.037,10.586,10.586,0,0,0,1.2,3.249,13.293,13.293,0,0,0,4.275,4.446,24.341,24.341,0,0,1,4.959,4.446,23.676,23.676,0,0,1,3.762,5.985,21.389,21.389,0,0,1,2.052,7.353,11.289,11.289,0,0,1-.171,2.394,18.037,18.037,0,0,1-1.026,4.1,21.321,21.321,0,0,1-3.591,5.13,14.738,14.738,0,0,1-6.84,4.1,11.491,11.491,0,0,1-4.788.513,12.361,12.361,0,0,0-8.208,1.2c-2.394,1.368-3.762,3.249-3.591,6.156,0,2.565,1.368,4.275,3.249,5.643A12.481,12.481,0,0,0,99.864,5.985Z" transform="translate(-18270.801 10859.398)" fill="#f8f8f8"/>
      <path id="Trazado_13805" data-name="Trazado 13805" d="M33.849,5.18l-3.5,2.34a.745.745,0,0,0-.2.98l.42.68a.714.714,0,0,0,1,.22l1.84-1.24V18.28a.717.717,0,0,0,.72.72h1.28a.717.717,0,0,0,.72-.72V5.72a.717.717,0,0,0-.72-.72h-.96A1.058,1.058,0,0,0,33.849,5.18Zm9.9,4.78a4.645,4.645,0,0,0-2.28.64l.36-3.08h4.78a.717.717,0,0,0,.72-.72V5.72a.717.717,0,0,0-.72-.72h-6.2a.7.7,0,0,0-.7.62l-.74,6.34a.7.7,0,0,0,.52.76l.92.26a1.059,1.059,0,0,0,.94-.16,3.179,3.179,0,0,1,1.9-.66,2.137,2.137,0,0,1,2.3,2.24,2.218,2.218,0,0,1-2.32,2.4,2.174,2.174,0,0,1-2.06-1,.5.5,0,0,0-.58-.26l-1.4.32a.7.7,0,0,0-.46,1.02,5.1,5.1,0,0,0,4.52,2.36,4.7,4.7,0,0,0,4.96-4.88A4.2,4.2,0,0,0,43.749,9.96Zm6.58,2.72v.72a.7.7,0,0,0,.72.7h4.98a.7.7,0,0,0,.72-.7v-.72a.713.713,0,0,0-.72-.7h-4.98A.713.713,0,0,0,50.329,12.68Zm11.86-7.5-3.5,2.34a.745.745,0,0,0-.2.98l.42.68a.714.714,0,0,0,1,.22l1.84-1.24V18.28a.717.717,0,0,0,.72.72h1.28a.717.717,0,0,0,.72-.72V5.72a.717.717,0,0,0-.72-.72h-.96A1.058,1.058,0,0,0,62.189,5.18Zm12.86,6.32a3.341,3.341,0,0,0,1.66-2.9c0-2.06-1.7-3.84-4.7-3.84s-4.72,1.78-4.72,3.84a3.361,3.361,0,0,0,1.68,2.9,3.7,3.7,0,0,0-2.2,3.36c0,2.64,2.22,4.4,5.24,4.4s5.24-1.76,5.24-4.4A3.73,3.73,0,0,0,75.049,11.5Zm-3.04-4.44a1.9,1.9,0,0,1,2.08,1.84,1.842,1.842,0,0,1-2.08,1.78c-1.14,0-2.08-.6-2.08-1.78A1.9,1.9,0,0,1,72.009,7.06Zm0,9.7c-1.7,0-2.44-1-2.44-2.04a2.459,2.459,0,0,1,4.86,0C74.429,15.76,73.689,16.76,72.009,16.76Z" transform="translate(-17949.998 10742.993)" fill="#f8f8f8"/>
    </g>
  </g>
</svg>
