<?xml version="1.0" encoding="utf-8"?>
<!-- Generator: Adobe Illustrator 26.4.1, SVG Export Plug-In . SVG Version: 6.00 Build 0)  -->
<svg version="1.1" id="Layer_1" xmlns="http://www.w3.org/2000/svg" xmlns:xlink="http://www.w3.org/1999/xlink" x="0px" y="0px"
	 viewBox="0 0 105 55.2" style="enable-background:new 0 0 105 55.2;" xml:space="preserve">
<style type="text/css">
	.st0{fill:#28DD39;}
</style>
<g>
	<path class="st0" d="M23.7,49.4c-0.5-0.7-0.8-1.5-1-2.3c-0.1-0.8,0.1-1.5,0.2-2.2c0.3-1.7,0.9-3.3,1.1-5c0-0.1,0.1-0.2,0.1-0.2
		c0.3-1.1-0.3-2-1.4-2.2c-0.9-0.3-1.8-0.3-2.7-0.2c-1.4,0-2.1,0.7-2.3,2.1c-0.1,0.9-0.3,1.7-0.5,2.5c-0.2,1-0.3,2.2-0.8,3.2
		c-0.7,1.4-1.2,2.9-2.4,4c-0.5,0.4-1,0.7-1.7,0.9c-0.5,0.1-1.1-0.1-1.6-0.3C9.8,48.9,9.2,48,9,46.8c-0.1-0.7-0.1-1.4-0.1-2.2
		c-0.1-0.3-0.3-0.6-0.2-1c0.2-0.8,0.2-1.6,0.4-2.5c0.2-0.6,0.3-1.2,0.3-1.8c0.2-0.5-0.3-1.1-0.9-1.4c-0.3-0.1-0.7-0.2-1-0.2
		c-0.5,0.1-1,0-1.6-0.2c-1.4-0.3-2.4-1.2-3-2.7c-0.3-1.1-0.2-2.2,0.4-3.2c0.8-1.3,2-1.8,3.4-1.8c1.2,0,2.3-0.3,3.5-0.2
		c0.3,0,0.5-0.2,0.8-0.4c0.7-1,1-2.1,1.3-3.2c0.1-0.6,0.2-1.2,0.2-1.8c0-0.2,0-0.3-0.1-0.5c-0.3-0.4-0.4-0.7-1-0.7
		c-1.3,0.1-2.6,0.1-3.9,0c-1.2,0-2.3-0.4-3.2-1.3C3.7,21,3.4,20,3.4,19c-0.1-0.8,0.2-1.6,0.7-2.3c0.7-0.9,1.6-1.4,2.6-1.6
		c0.2-0.1,0.3,0,0.5,0H10V15c0.9,0,1.7,0.1,2.6,0c0.6,0,1.1-0.1,1.6-0.4c0.7-0.4,1-1.1,1.3-1.8c0.4-1.1,0.6-2.3,0.9-3.6
		c0.3-1.4,0.4-2.8,0.8-4.2c0.3-1.4,1.1-2.5,2.4-3.2c0.7-0.3,1.5-0.4,2.3-0.3c1.1,0.2,2,0.9,2.5,1.9C24.8,3.9,25,4.5,25,5
		c0.1,1.4-0.2,2.7-0.4,4l-0.3,2.2c-0.1,0.4-0.2,0.9-0.3,1.3c-0.2,0.5-0.1,1-0.1,1.5c0,0.4,0.3,0.7,0.7,0.8c1.1,0.2,2.3,0.2,3.4,0.1
		c1.5-0.1,2.3-1,2.5-2.3c0.2-1,0.4-1.9,0.6-2.9c0.1-0.8,0.3-1.6,0.4-2.3c0.1-1,0.3-1.9,0.5-2.9c0.3-1,1-2,2-2.7
		c0.3-0.2,0.6-0.3,1-0.3c0.7-0.3,1.4-0.3,2.1,0C38,1.8,38.7,2.2,39.2,3c0.4,0.7,0.7,1.4,0.7,2.3c-0.1,1-0.1,1.8-0.3,2.8
		c-0.2,0.8-0.3,1.6-0.3,2.3c-0.2,1-0.4,1.9-0.6,2.9c-0.2,0.7-0.3,1.3-0.4,2c-0.1,0.3,0.1,0.5,0.4,0.5h1.1c1.1,0.1,2.2,0.3,3.1,1
		c0.9,0.6,1.5,1.8,1.6,3c0.2,1.7-1.5,3.6-3.1,3.9c-0.4,0.1-0.9,0.1-1.3,0.1H38c-0.5,0-0.9,0.2-1.1,0.6c-0.6,0.9-1,1.7-1.2,2.8
		c-0.1,0.4-0.1,0.9-0.1,1.3c0,0.8,0.5,1.3,1.3,1.2c0.7,0,1.5,0.1,2.2,0.4c1.4,0.5,2.3,1.5,2.7,3c0.3,0.9,0,1.6-0.5,2.3
		c-0.6,1.1-1.6,1.8-2.9,2.1c-0.7,0.1-1.4,0.3-2.2,0.1c-0.5-0.2-1.3-0.1-1.9,0c-0.4,0.1-0.9,0.3-1.1,0.8c-0.3,0.6-0.5,1.2-0.7,1.9
		l-1,4.3c-0.2,1-0.4,1.8-0.6,2.7c-0.3,1.6-1.2,2.8-2.7,3.5C26.3,51.3,24.7,50.7,23.7,49.4z M23.7,29.3c0.3,0,0.8,0,1.1,0
		c0.7,0,1-0.3,1.4-0.8c0.6-0.7,0.8-1.6,1-2.4c0.1-0.6,0.2-1.2,0.2-1.8c0-0.3-0.2-0.7-0.3-1c-0.2-0.3-0.5-0.1-0.9-0.2h-0.6
		c-0.8,0.1-1.5-0.3-2.2-0.2c-0.2,0.1-0.4,0-0.5,0.1c-0.6,0.4-1.1,0.9-1.4,1.5c-0.5,1.1-0.4,2.4-0.3,3.6c0,0.1,0.1,0.3,0.2,0.3
		c0.2,0.4,0.4,0.8,1,0.8C22.7,29.2,23.2,29.3,23.7,29.3z"/>
	<path class="st0" d="M53.2,54.2c-1-0.4-1.7-1.2-2-2.3c-0.3-1.3,0.1-2.4,1-3.5c0.6-0.7,1.3-1.1,2.1-1.6c1-0.6,1.9-1.2,2.8-1.9
		c1.2-1,2.3-2.1,3-3.4c0.6-1.2,1-2.4,1-3.7c-0.2-1.9-1-3.5-2.9-4.3c-0.6-0.3-1.4-0.4-2.2-0.5c-0.8,0-1.6,0.1-2.3,0.2
		c-1.2,0.1-2.4,0.2-3.6-0.2c-1-0.3-2-1-2.6-2c-0.5-1-0.6-2-0.6-2.8c0-1.5,0.1-2.9,0.2-4.3c0.1-1.6,0.2-3.3,0.2-4.9
		c0.1-1.3,0.1-2.6,0.2-3.9c0-1.1,0.1-2.3,0.1-3.6c0-0.8,0.1-1.6,0.1-2.5c0.1-1,0.1-1.9,0.3-2.9c0.1-0.3,0.2-0.6,0.1-1
		c-0.2-1.4,0.3-2.5,1.3-3.5c0.8-0.6,1.7-1,2.8-1c0.7,0,1.5,0,2.2-0.1H56c1.2,0,2.4,0,3.6,0.1h2.6c0.7,0.1,1.4,0,2.1,0
		c0.8-0.1,1.6,0,2.3,0.3c1.3,0.4,2.2,1.3,2.5,2.6c0.4,1.9-0.5,3.4-2,4.3C66.7,8,66.2,8,65.8,8.1c-1,0.4-2,0.3-3,0.3
		c-1,0.1-1.9,0-2.8,0c-0.7,0-1.3,0.1-1.9,0c-0.6-0.1-1.2,0.1-1.8,0.3c-0.6,0.3-1,0.7-1.1,1.4c0,1.2-0.1,2.3-0.1,3.5
		C55,14.4,55,15.2,55,15.9c-0.1,1.4-0.2,2.9-0.2,4.3c-0.1,1-0.1,2.1-0.2,3c0,0.3,0,0.6,0.2,0.9c0.1,0.3,0.3,0.5,0.6,0.7
		c0.8,0.3,1.6,0.4,2.4,0.6c1.6,0.3,3,0.8,4.4,1.6c1.3,0.8,2.4,1.7,3.4,2.9c0.7,0.9,1.2,1.8,1.7,2.9c0.3,0.4,0.3,0.9,0.4,1.4
		c0.1,0.3,0.3,0.6,0.4,1c0.2,1.7,0.3,3.5,0,5.3c-0.3,1.5-0.8,3-1.5,4.3c-1,2.1-2.5,3.8-4.3,5.4c-1.6,1.5-3.6,2.6-5.4,3.7
		c-0.6,0.3-1.2,0.4-1.8,0.5C54.7,54.6,53.9,54.5,53.2,54.2z"/>
</g>
<g>
	<path class="st0" d="M85.93,10.59c0.22,0,0.42,0.19,0.42,0.42v0.59c0,0.24-0.19,0.43-0.42,0.43h-6.05c-0.24,0-0.43-0.19-0.43-0.43
		v-0.4c0-0.18,0.08-0.35,0.19-0.48c0.82-0.9,1.26-1.41,2.27-2.59c1.23-1.46,2.71-3.04,2.71-4.19c0-1.09-0.61-1.89-1.76-1.89
		c-1.04,0-1.58,0.69-1.82,1.34c-0.06,0.21-0.29,0.32-0.48,0.27L79.88,3.5c-0.24-0.05-0.38-0.32-0.3-0.56
		c0.54-1.5,1.86-2.32,3.46-2.32c1.82,0,3.17,1.46,3.17,3.31c0,1.78-1.68,3.31-4.47,6.66H85.93z"/>
	<path class="st0" d="M96.6,6.42c0,2.82-1.15,5.81-4.37,5.81c-3.22,0-4.37-2.99-4.37-5.81c0-2.82,1.15-5.79,4.37-5.79
		C95.45,0.63,96.6,3.61,96.6,6.42z M95,6.42c0-1.92-0.62-4.31-2.77-4.31c-2.14,0-2.77,2.39-2.77,4.31c0,1.92,0.62,4.31,2.77,4.31
		C94.38,10.73,95,8.34,95,6.42z"/>
</g>
</svg>
