<?xml version="1.0" encoding="utf-8"?>
<!-- Generator: Adobe Illustrator 26.4.1, SVG Export Plug-In . SVG Version: 6.00 Build 0)  -->
<svg version="1.1" id="Layer_1" xmlns="http://www.w3.org/2000/svg" xmlns:xlink="http://www.w3.org/1999/xlink" x="0px" y="0px"
	 viewBox="0 0 124.4 53.5" style="enable-background:new 0 0 124.4 53.5;" xml:space="preserve">
<style type="text/css">
	.st0{fill:#FF2742;}
</style>
<g>
	<path class="st0" d="M35,48.6c-0.5-0.7-0.8-1.5-1-2.3c-0.1-0.8,0.1-1.5,0.2-2.2c0.3-1.7,0.9-3.3,1.1-5c0-0.1,0.1-0.2,0.1-0.2
		c0.3-1.1-0.3-2-1.4-2.2c-0.9-0.3-1.8-0.3-2.7-0.2c-1.4,0-2.1,0.7-2.3,2.1c-0.1,0.9-0.3,1.7-0.5,2.5c-0.2,1-0.3,2.2-0.8,3.2
		c-0.7,1.4-1.2,2.9-2.4,4c-0.5,0.4-1,0.7-1.7,0.9c-0.5,0.1-1.1-0.1-1.6-0.3c-0.9-0.7-1.5-1.6-1.7-2.8c-0.1-0.7-0.1-1.4-0.1-2.2
		c-0.1-0.3-0.3-0.6-0.2-1c0.2-0.8,0.2-1.7,0.4-2.5c0.2-0.6,0.3-1.2,0.3-1.8c0.2-0.5-0.3-1.1-0.9-1.4c-0.3-0.1-0.7-0.2-1-0.2
		c-0.5,0.1-1,0-1.6-0.2c-1.4-0.3-2.4-1.2-3-2.7c-0.3-1.1-0.2-2.2,0.4-3.2c0.8-1.3,2-1.8,3.4-1.8c1.2,0,2.3-0.3,3.5-0.2
		c0.3,0,0.5-0.2,0.8-0.4c0.7-1,1-2.1,1.3-3.2c0.1-0.6,0.2-1.2,0.2-1.8c0-0.2,0-0.3-0.1-0.5c-0.3-0.4-0.4-0.7-1-0.7
		c-1.3,0.1-2.6,0.1-3.9,0c-1.2,0-2.3-0.4-3.2-1.3c-0.8-0.7-1.1-1.7-1.1-2.7c-0.1-0.8,0.2-1.6,0.7-2.3c0.7-0.9,1.6-1.4,2.6-1.7
		c0.2-0.1,0.3,0,0.5,0h2.8v-0.1c0.9,0,1.7,0.1,2.6,0c0.6,0,1.1-0.1,1.7-0.4c0.7-0.4,1-1.1,1.3-1.8c0.4-1.1,0.6-2.3,0.9-3.6
		C28,7,28.2,5.6,28.5,4.2C28.9,2.9,29.7,1.7,31,1c0.7-0.3,1.5-0.4,2.3-0.3c1.1,0.2,2,0.9,2.5,1.9c0.3,0.4,0.5,1,0.5,1.6
		c0.1,1.4-0.2,2.7-0.4,4l-0.3,2.2c-0.1,0.4-0.2,0.9-0.3,1.3c-0.2,0.5-0.1,1-0.1,1.5c0,0.4,0.3,0.7,0.7,0.8c1.1,0.2,2.3,0.2,3.4,0.1
		c1.5-0.1,2.3-1,2.5-2.3c0.2-1,0.4-1.9,0.6-2.9c0.1-0.8,0.3-1.6,0.4-2.3c0.1-1,0.3-1.9,0.5-2.9c0.3-1,1-2,2-2.7
		c0.3-0.2,0.6-0.3,1-0.3c0.7-0.3,1.4-0.3,2.1,0C49.3,1,50,1.4,50.5,2.2c0.4,0.7,0.7,1.4,0.7,2.3c-0.1,1-0.1,1.8-0.3,2.8
		c-0.2,0.8-0.3,1.6-0.3,2.3c-0.2,1-0.4,1.9-0.6,2.9c-0.2,0.7-0.3,1.3-0.4,2C49.5,14.8,49.7,15,50,15h1c1.1,0.1,2.2,0.3,3.1,1
		c0.9,0.6,1.5,1.8,1.6,3c0.2,1.7-1.5,3.6-3.1,3.9C52.2,23,51.7,23,51.3,23h-2.1c-0.5,0-0.9,0.2-1.1,0.6c-0.6,0.9-1,1.7-1.2,2.8
		c-0.1,0.4-0.1,0.9-0.1,1.3c0,0.8,0.5,1.3,1.3,1.2c0.7,0,1.5,0.1,2.2,0.4c1.4,0.5,2.3,1.5,2.7,3c0.3,0.9,0,1.7-0.5,2.3
		c-0.6,1.1-1.7,1.8-2.9,2.1c-0.7,0.1-1.4,0.3-2.2,0.1c-0.5-0.2-1.3-0.1-1.9,0c-0.4,0.1-0.9,0.3-1.1,0.8c-0.3,0.6-0.5,1.2-0.7,1.9
		l-1,4.3c-0.2,1-0.4,1.8-0.6,2.7c-0.3,1.7-1.2,2.8-2.7,3.5C37.6,50.5,36.1,50,35,48.6z M35,28.6c0.3,0,0.8,0,1.1,0
		c0.7,0,1-0.3,1.4-0.8c0.6-0.7,0.8-1.6,1-2.4c0.1-0.6,0.2-1.2,0.2-1.8c0-0.3-0.2-0.7-0.3-1c-0.2-0.3-0.5-0.1-0.9-0.2H37
		c-0.8,0.1-1.5-0.3-2.2-0.2c-0.2,0.1-0.4,0-0.5,0.1c-0.6,0.4-1.1,0.9-1.4,1.5c-0.5,1.1-0.4,2.4-0.3,3.6c0,0.1,0.1,0.3,0.2,0.3
		c0.2,0.4,0.4,0.8,1,0.8C34.1,28.5,34.6,28.6,35,28.6z"/>
	<path class="st0" d="M67.7,52.5c-1.4-0.2-2.7-0.3-4-0.6c-1.7-0.4-3.3-1.1-4.3-2.7c-0.8-1.1-1-2.4-0.6-3.8c0.3-1.2,0.9-2.3,1.4-3.5
		c0.5-0.9,1-1.8,1.5-2.8c0.7-1.5,1.5-3,2.2-4.5l1.6-3.2c1.6-3.2,3-6.5,4.5-9.7c0.8-1.9,1.7-3.8,2.2-5.8c0.3-1,0.5-2,0.6-3
		c0.1-0.9,0-1.7-0.2-2.5l-0.1-0.3c-0.7-0.7-1.4-1.2-2.4-1.1c-1.5,0.2-2.6,1-3.5,2c-0.4,0.5-0.5,1-0.8,1.6c-0.6,1.3-1.7,2.2-3,2.4
		c-1.5,0.2-2.7-0.3-3.6-1.5c-0.9-1-1-2.3-0.8-3.6c0.3-1.7,1.2-3.2,2.4-4.5c0.8-0.8,1.6-1.6,2.5-2.3c0.9-0.6,1.8-1,2.8-1.4
		C67,1.4,67.8,1,68.7,0.9c1.5-0.1,2.9-0.1,4.3,0.3c1.1,0.3,2.2,0.7,3.1,1.4c1,0.6,1.7,1.4,2.4,2.3c0.8,1,1.4,2.1,1.7,3.3
		c0.2,0.4,0.3,1,0.4,1.6c0.1,1.1,0.1,2.4,0,3.7c-0.3,2.3-0.8,4.5-1.6,6.7c-0.5,1.4-1,2.7-1.6,4c-1.3,3.2-2.8,6.3-4.3,9.4
		c-1,2.1-1.9,4.2-3,6.2c-0.5,1-1,1.9-1.4,3c-0.3,0.5-0.1,1.1,0.4,1.5c0.2,0.1,0.4,0.3,0.6,0.3c1.4,0.3,2.7,0.7,4.1,0.8
		c0.9,0,1.7,0.2,2.6,0.6c1.2,0.6,2.2,1.6,2.3,3.1c0.1,1.1-0.3,2.1-1,2.9c-1,1-2.3,1.5-3.7,1.4C72,53,69.9,52.6,67.7,52.5z"/>
</g>
<g>
	<path class="st0" d="M99.72,9.1c0,2.03-1.47,3.79-3.92,3.79c-1.62,0-3.07-0.78-3.58-1.97c-0.11-0.26,0.03-0.54,0.29-0.59l0.69-0.16
		c0.19-0.05,0.38,0.05,0.46,0.22c0.27,0.51,0.93,1.07,2.14,1.07c1.38,0,2.37-0.98,2.37-2.37c0-1.44-0.96-2.22-2.27-2.22
		c-0.83,0-1.52,0.37-1.92,0.7c-0.18,0.14-0.4,0.19-0.62,0.14l-0.53-0.13c-0.21-0.06-0.35-0.26-0.32-0.46l0.61-5.25
		c0.02-0.22,0.21-0.38,0.42-0.38h5.11c0.24,0,0.43,0.19,0.43,0.43v0.59c0,0.22-0.19,0.42-0.43,0.42h-4.24l-0.37,3.2
		c0.53-0.38,1.2-0.67,2.03-0.67C98.25,5.47,99.72,7.03,99.72,9.1z"/>
	<path class="st0" d="M101.99,7.23h4.29c0.22,0,0.42,0.18,0.42,0.42v0.58c0,0.24-0.19,0.43-0.42,0.43h-4.29
		c-0.22,0-0.42-0.19-0.42-0.43V7.64C101.57,7.4,101.76,7.23,101.99,7.23z"/>
	<path class="st0" d="M111.62,1.5h0.38c0.24,0,0.43,0.19,0.43,0.43v10.34c0,0.24-0.19,0.43-0.43,0.43h-0.74
		c-0.24,0-0.43-0.19-0.43-0.43V3.54l-1.76,1.18c-0.19,0.13-0.46,0.06-0.59-0.14l-0.29-0.45c-0.11-0.19-0.06-0.45,0.13-0.58l2.9-1.95
		C111.35,1.54,111.48,1.5,111.62,1.5z"/>
	<path class="st0" d="M123.27,9.19v0.56c0,0.24-0.19,0.43-0.43,0.43h-1.02v2.08c0,0.24-0.19,0.43-0.43,0.43h-0.75
		c-0.24,0-0.43-0.19-0.43-0.43v-2.08h-4.95c-0.24,0-0.43-0.19-0.43-0.43V9.19c0-0.19,0.06-0.37,0.16-0.53l4.29-6.77
		c0.14-0.26,0.42-0.4,0.72-0.4h1.39c0.24,0,0.43,0.19,0.43,0.43v6.83h1.02C123.08,8.76,123.27,8.95,123.27,9.19z M120.2,8.76v-5.7
		l-3.6,5.7H120.2z"/>
</g>
</svg>
