<?xml version="1.0" encoding="utf-8"?>
<!-- Generator: Adobe Illustrator 26.4.1, SVG Export Plug-In . SVG Version: 6.00 Build 0)  -->
<svg version="1.1" id="Layer_1" xmlns="http://www.w3.org/2000/svg" xmlns:xlink="http://www.w3.org/1999/xlink" x="0px" y="0px"
	 viewBox="0 0 132.5 52.9" style="enable-background:new 0 0 132.5 52.9;" xml:space="preserve">
<style type="text/css">
	.st0{fill:#12C6C1;}
</style>
<g>
	<path class="st0" d="M33.2,48.4c-0.5-0.7-0.8-1.5-1-2.3c-0.1-0.8,0.1-1.5,0.2-2.2c0.3-1.7,0.9-3.3,1.1-5c0-0.1,0.1-0.2,0.1-0.2
		c0.3-1.1-0.3-2-1.4-2.2c-0.9-0.3-1.8-0.3-2.7-0.2c-1.4,0-2.1,0.7-2.3,2.1c-0.1,0.9-0.3,1.7-0.5,2.5c-0.2,1-0.3,2.2-0.8,3.2
		c-0.7,1.4-1.2,2.9-2.4,4c-0.5,0.4-1,0.7-1.7,0.9c-0.5,0.1-1.1-0.1-1.6-0.3c-0.9-0.7-1.5-1.6-1.6-2.8c-0.1-0.7-0.1-1.4-0.1-2.2
		c-0.1-0.3-0.3-0.6-0.2-1c0.2-0.8,0.2-1.6,0.4-2.5c0.2-0.6,0.3-1.2,0.3-1.8c0.2-0.5-0.3-1.1-0.9-1.4c-0.3-0.1-0.7-0.2-1-0.2
		c-0.5,0.1-1,0-1.6-0.2c-1.4-0.3-2.4-1.2-3-2.7c-0.3-1.1-0.2-2.2,0.4-3.2c0.8-1.3,2-1.8,3.4-1.8c1.2,0,2.3-0.3,3.5-0.2
		c0.3,0,0.5-0.2,0.8-0.4c0.7-1,1-2.1,1.3-3.2c0.1-0.6,0.2-1.2,0.2-1.8c0-0.2,0-0.3-0.1-0.5c-0.3-0.4-0.4-0.7-1-0.7
		c-1.3,0.1-2.6,0.1-3.9,0c-1.2,0-2.3-0.4-3.2-1.3c-0.7-0.8-1-1.8-1-2.8c-0.1-0.8,0.2-1.6,0.7-2.3c0.7-0.9,1.6-1.4,2.6-1.6
		c0.2-0.1,0.3,0,0.5,0h2.8V14c0.9,0,1.7,0.1,2.6,0c0.6,0,1.1-0.1,1.6-0.4c0.7-0.4,1-1.1,1.3-1.8c0.4-1.1,0.6-2.3,0.9-3.6
		c0.3-1.4,0.4-2.8,0.8-4.2c0.3-1.4,1.1-2.5,2.4-3.2c0.7-0.3,1.5-0.4,2.3-0.3c1.1,0.2,2,0.9,2.5,1.9c0.3,0.4,0.5,1,0.5,1.6
		c0.1,1.4-0.2,2.7-0.4,4l-0.3,2.2c-0.1,0.4-0.2,0.9-0.3,1.3c-0.2,0.5-0.1,1-0.1,1.5c0,0.4,0.3,0.7,0.7,0.8c1.1,0.2,2.3,0.2,3.4,0.1
		c1.5-0.1,2.3-1,2.5-2.3c0.2-1,0.4-1.9,0.6-2.9C40.6,7.8,40.9,7,41,6.3c0.1-1,0.3-1.9,0.5-2.9c0.3-1,1-2,2-2.7
		c0.3-0.2,0.6-0.3,1-0.3c0.7-0.3,1.4-0.3,2.1,0c0.9,0.3,1.6,0.7,2.1,1.5c0.4,0.7,0.7,1.4,0.7,2.3c-0.1,1-0.1,1.8-0.3,2.8
		c-0.2,0.8-0.3,1.6-0.3,2.3c-0.2,1-0.4,1.9-0.6,2.9c-0.2,0.7-0.3,1.3-0.4,2c-0.1,0.3,0.1,0.5,0.4,0.5h1.1c1.1,0.1,2.2,0.3,3.1,1
		c0.9,0.6,1.5,1.8,1.6,3c0.2,1.7-1.5,3.6-3.1,3.9c-0.4,0.1-0.9,0.1-1.3,0.1h-2.1c-0.5,0-0.9,0.2-1.1,0.6c-0.6,0.9-1,1.7-1.2,2.8
		c-0.1,0.4-0.1,0.9-0.1,1.3c0,0.8,0.5,1.3,1.3,1.2c0.7,0,1.5,0.1,2.2,0.4c1.4,0.5,2.3,1.5,2.7,3c0.3,0.9,0,1.6-0.5,2.3
		c-0.6,1.1-1.6,1.8-2.9,2.1c-0.7,0.1-1.4,0.3-2.2,0.1c-0.5-0.2-1.3-0.1-1.9,0c-0.4,0.1-0.9,0.3-1.1,0.8c-0.3,0.6-0.5,1.2-0.7,1.9
		l-1,4.3c-0.2,1-0.4,1.8-0.6,2.7c-0.3,1.6-1.2,2.8-2.7,3.5C35.8,50.3,34.2,49.7,33.2,48.4z M33.2,28.3c0.3,0,0.8,0,1.1,0
		c0.7,0,1-0.3,1.4-0.8c0.6-0.7,0.8-1.6,1-2.4c0.1-0.6,0.2-1.2,0.2-1.8c0-0.3-0.2-0.7-0.3-1c-0.2-0.3-0.5-0.1-0.9-0.2h-0.6
		c-0.8,0.1-1.5-0.3-2.2-0.2c-0.2,0.1-0.4,0-0.5,0.1c-0.6,0.4-1.1,0.9-1.4,1.5c-0.5,1.1-0.4,2.4-0.3,3.6c0,0.1,0.1,0.3,0.2,0.3
		c0.2,0.4,0.4,0.8,1,0.8C32.2,28.2,32.7,28.3,33.2,28.3z"/>
	<path class="st0" d="M58.1,51.9c-1-0.7-1.6-1.6-1.6-2.9c-0.1-1.5,0.6-2.4,1.8-3.1c1.3-0.7,2.7-0.9,4.2-0.6c0.8,0.1,1.6,0,2.4-0.3
		c1.4-0.3,2.5-1.1,3.5-2.1c0.7-0.8,1.4-1.6,1.8-2.6c0.3-0.7,0.4-1.4,0.5-2.1c0-0.4,0.2-0.8,0.1-1.2c-0.2-1.3-0.4-2.6-1-3.7
		c-0.5-1.1-1.1-2.2-1.9-3c-0.8-0.9-1.6-1.6-2.5-2.3c-0.9-0.6-1.6-1.3-2.2-2.3c-0.3-0.5-0.5-1-0.6-1.6c-0.1-1.6,0.4-3,1.6-4.1
		c0.9-1,1.9-1.8,2.9-2.7c0.7-0.6,1.3-1.2,2-1.9l1.1-1c0.9-0.9,1.6-1.8,2.3-3c0.3-0.6,0.6-1.3,0.6-2.1c-0.1-0.5-0.3-0.8-0.7-1
		C71.8,8.1,71.2,8,70.6,8C70,8,69.5,8,69,8.1h-1.2c-0.6,0-1.2,0.2-1.8,0.3c-0.8,0.1-1.6,0.3-2.3,0.3c-1.6-0.2-2.8-1-3.4-2.6
		C59.6,5.3,59.9,4,60.4,3c0.7-1,1.7-1.6,2.9-1.8c0.8-0.3,1.6-0.3,2.5-0.6H66c1.2,0,2.5-0.3,3.8-0.3c1.6,0.2,3.4,0.3,5,0.9
		s3,1.6,4,2.9c0.8,1,1.4,2.1,1.6,3.2c0.3,1,0.4,2.2,0.3,3.3c-0.2,0.8-0.3,1.6-0.6,2.3c-0.3,1.1-0.9,2.2-1.6,3.2
		c-0.4,0.6-1,1.3-1.5,1.9c-0.4,0.5-0.9,1.1-1.4,1.6c-0.9,0.7-1.6,1.6-2.3,2.3c-0.9,0.9-0.8,2-0.1,3c1.4,1.5,2.5,3.1,3.4,5
		c0.6,1.2,1,2.5,1.4,3.9c0.3,1.5,0.4,3,0.4,4.4c-0.1,1.4-0.3,2.7-0.9,4c-0.3,1-0.8,2-1.4,3c-0.3,0.6-0.7,1.1-1.1,1.7
		c-0.3,0.3-0.5,0.7-0.9,1c-1,1-2.1,1.9-3.4,2.7c-1,0.6-2,1.1-3.1,1.5l-1.9,0.5c-1.3,0.3-2.6,0.3-3.9,0.2
		C60.5,52.9,59.2,52.7,58.1,51.9z"/>
</g>
<g>
	<path class="st0" d="M96.2,0.78h0.38c0.24,0,0.43,0.19,0.43,0.43v10.34c0,0.24-0.19,0.43-0.43,0.43h-0.74
		c-0.24,0-0.43-0.19-0.43-0.43V2.83l-1.76,1.18c-0.19,0.13-0.46,0.06-0.59-0.14l-0.29-0.45c-0.11-0.19-0.06-0.45,0.13-0.58l2.9-1.95
		C95.93,0.83,96.05,0.78,96.2,0.78z"/>
	<path class="st0" d="M107.14,8.38c0,2.03-1.47,3.79-3.92,3.79c-1.62,0-3.07-0.78-3.59-1.97c-0.11-0.26,0.03-0.54,0.29-0.59
		l0.69-0.16c0.19-0.05,0.38,0.05,0.46,0.22c0.27,0.51,0.93,1.07,2.14,1.07c1.38,0,2.37-0.98,2.37-2.37c0-1.44-0.96-2.22-2.27-2.22
		c-0.83,0-1.52,0.37-1.92,0.7c-0.18,0.14-0.4,0.19-0.62,0.14l-0.53-0.13c-0.21-0.06-0.35-0.26-0.32-0.46l0.61-5.25
		c0.02-0.22,0.21-0.38,0.42-0.38h5.11c0.24,0,0.43,0.19,0.43,0.43V1.8c0,0.22-0.19,0.42-0.43,0.42h-4.24l-0.37,3.2
		c0.53-0.38,1.2-0.67,2.03-0.67C105.67,4.75,107.14,6.32,107.14,8.38z"/>
	<path class="st0" d="M109.41,6.51h4.29c0.22,0,0.42,0.18,0.42,0.42V7.5c0,0.24-0.19,0.43-0.42,0.43h-4.29
		c-0.22,0-0.42-0.19-0.42-0.43V6.93C109,6.69,109.19,6.51,109.41,6.51z"/>
	<path class="st0" d="M119.05,0.78h0.38c0.24,0,0.43,0.19,0.43,0.43v10.34c0,0.24-0.19,0.43-0.43,0.43h-0.74
		c-0.24,0-0.43-0.19-0.43-0.43V2.83l-1.76,1.18c-0.19,0.13-0.46,0.06-0.59-0.14l-0.29-0.45c-0.11-0.19-0.06-0.45,0.13-0.58l2.9-1.95
		C118.77,0.83,118.9,0.78,119.05,0.78z"/>
	<path class="st0" d="M130.28,8.8c0,2-1.63,3.39-4.05,3.39s-4.05-1.39-4.05-3.39c0-1.28,0.74-2.31,1.87-2.87
		c-0.9-0.54-1.3-1.42-1.3-2.34c0-1.67,1.22-3.01,3.47-3.01s3.49,1.34,3.49,3.01c0,0.91-0.4,1.79-1.31,2.34
		C129.56,6.49,130.28,7.52,130.28,8.8z M128.6,8.75c0-1.38-1.09-2-2.37-2c-1.26,0-2.37,0.62-2.37,2c0,1.26,1.02,2.02,2.37,2.02
		C127.59,10.77,128.6,10.01,128.6,8.75z M124.29,3.68c0,1.06,0.88,1.68,1.94,1.68c1.06,0,1.95-0.62,1.95-1.68
		c0-1.01-0.75-1.67-1.95-1.67C125.05,2.01,124.29,2.67,124.29,3.68z"/>
</g>
</svg>
