<svg xmlns="http://www.w3.org/2000/svg" xmlns:xlink="http://www.w3.org/1999/xlink" width="351" height="130" viewBox="0 0 351 130"><defs><filter id="a" x="0" y="0" width="351" height="130" filterUnits="userSpaceOnUse"><feOffset dy="3" input="SourceAlpha"/><feGaussianBlur stdDeviation="3" result="b"/><feFlood flood-opacity="0.161"/><feComposite operator="in" in2="b"/><feComposite in="SourceGraphic"/></filter></defs><g transform="translate(8.656 6.222)"><g transform="matrix(1, 0, 0, 1, -8.66, -6.22)" filter="url(#a)"><rect width="333" height="112" rx="20" transform="translate(9 6)" fill="#f2f5f4"/></g><path d="M11.707-16.1a.825.825,0,0,0-.828.828v8.6C10.879-4.531,9.867-3.5,8.1-3.5,6.348-3.5,5.313-4.531,5.313-6.67v-8.6a.82.82,0,0,0-.8-.828H2.185a.82.82,0,0,0-.805.828v9.016C1.38-1.863,3.887.276,8.1.276s6.739-2.139,6.739-6.532v-9.016a.825.825,0,0,0-.828-.828ZM7.866-20.493l-.943,2.047a.4.4,0,0,0,.368.575H9.085a1,1,0,0,0,.828-.437l1.5-2.139a.417.417,0,0,0-.345-.644H8.786A1.006,1.006,0,0,0,7.866-20.493Zm9.614,5.221V-.828A.82.82,0,0,0,18.285,0H20.4a.82.82,0,0,0,.805-.828V-15.272A.82.82,0,0,0,20.4-16.1H18.285A.82.82,0,0,0,17.48-15.272ZM29.325-3.335a2.417,2.417,0,0,1-2.484-2.484,2.423,2.423,0,0,1,2.484-2.507,2.5,2.5,0,0,1,1.794.713.63.63,0,0,0,.759.115l2.208-1.311a.625.625,0,0,0,.161-.92,6.268,6.268,0,0,0-4.922-2.208,6.022,6.022,0,0,0-6.256,6.118,6.016,6.016,0,0,0,6.256,6.1,6.268,6.268,0,0,0,4.922-2.208.627.627,0,0,0-.161-.92L31.878-4.14a.6.6,0,0,0-.759.092A2.5,2.5,0,0,1,29.325-3.335Zm11.891-8.6a6,6,0,0,0-6,6.118c0,3.611,2.6,6.1,6.555,6.1a6.055,6.055,0,0,0,4.577-1.863.65.65,0,0,0-.161-.943L44.551-3.5a.59.59,0,0,0-.713.069,3.218,3.218,0,0,1-2.07.713,2.78,2.78,0,0,1-2.944-1.978h7.659a.82.82,0,0,0,.805-.828C47.357-9.867,44.482-11.937,41.216-11.937ZM38.847-6.946a2.517,2.517,0,0,1,2.507-2,2.363,2.363,0,0,1,2.53,2ZM52.9-9.89v-.943a.82.82,0,0,0-.805-.828H49.979a.82.82,0,0,0-.805.828V-.828A.82.82,0,0,0,49.979,0H52.1A.82.82,0,0,0,52.9-.828V-4.6c0-1.84.322-3.588,3.036-3.4a.629.629,0,0,0,.667-.621V-11.27a.619.619,0,0,0-.736-.6A4.5,4.5,0,0,0,52.9-9.89Zm13.478-1.15v.529a3.976,3.976,0,0,0-3.289-1.426c-3.634,0-5.589,3.059-5.589,6.118,0,3.036,1.955,6.1,5.589,6.1A3.976,3.976,0,0,0,66.378-1.15v.529A.618.618,0,0,0,67,0h2.3a.825.825,0,0,0,.828-.828V-10.833a.825.825,0,0,0-.828-.828H67A.618.618,0,0,0,66.378-11.04ZM63.756-3.335a2.354,2.354,0,0,1-2.484-2.484,2.36,2.36,0,0,1,2.484-2.507,2.39,2.39,0,0,1,2.507,2.507A2.384,2.384,0,0,1,63.756-3.335ZM77.9-7.222c-.92-.184-2.162-.23-2.162-.989,0-.667.667-.874,1.4-.874a1.429,1.429,0,0,1,1.2.506.608.608,0,0,0,.621.253l1.978-.483a.642.642,0,0,0,.414-.874,4.559,4.559,0,0,0-4.232-2.254c-2.921,0-4.991,1.38-4.991,3.818,0,2.3,1.2,3.105,3.45,3.588,1.357.3,2.576.276,2.576,1.058,0,.621-.621.851-1.4.851A1.684,1.684,0,0,1,75.3-3.2a.661.661,0,0,0-.69-.23l-2.277.713a.6.6,0,0,0-.368.851C72.726-.3,74.727.276,76.8.276c3.427,0,5.221-1.449,5.221-3.91C82.018-5.773,80.845-6.6,77.9-7.222ZM97.934-11.04v.529a3.976,3.976,0,0,0-3.289-1.426c-3.634,0-5.589,3.059-5.589,6.118,0,3.036,1.955,6.1,5.589,6.1A3.976,3.976,0,0,0,97.934-1.15V3.634a.82.82,0,0,0,.828.805h2.093a.815.815,0,0,0,.805-.805V-10.833a.82.82,0,0,0-.805-.828h-2.3A.618.618,0,0,0,97.934-11.04ZM95.312-3.335a2.354,2.354,0,0,1-2.484-2.484,2.36,2.36,0,0,1,2.484-2.507,2.39,2.39,0,0,1,2.507,2.507A2.384,2.384,0,0,1,95.312-3.335Zm17.158-8.326a.82.82,0,0,0-.805.828v5.451A1.81,1.81,0,0,1,109.8-3.358a1.81,1.81,0,0,1-1.863-2.024v-5.451a.825.825,0,0,0-.828-.828h-2.093a.825.825,0,0,0-.828.828V-4.37c0,2.369,1.38,4.646,4.278,4.646a4.043,4.043,0,0,0,3.2-1.334v.437a.614.614,0,0,0,.6.621h2.3a.825.825,0,0,0,.828-.828V-10.833a.825.825,0,0,0-.828-.828Zm10.764-.276a6,6,0,0,0-6,6.118c0,3.611,2.6,6.1,6.555,6.1a6.055,6.055,0,0,0,4.577-1.863.65.65,0,0,0-.161-.943L126.569-3.5a.59.59,0,0,0-.713.069,3.217,3.217,0,0,1-2.07.713,2.78,2.78,0,0,1-2.944-1.978H128.5a.82.82,0,0,0,.8-.828C129.375-9.867,126.5-11.937,123.234-11.937Zm-2.369,4.991a2.517,2.517,0,0,1,2.507-2,2.363,2.363,0,0,1,2.53,2ZM8.188,13.063A3.957,3.957,0,0,0,5.014,14.4V13.96a.618.618,0,0,0-.621-.621h-2.3a.825.825,0,0,0-.828.828V24.172A.825.825,0,0,0,2.093,25H4.186a.825.825,0,0,0,.828-.828V18.721a1.78,1.78,0,0,1,1.863-2,1.791,1.791,0,0,1,1.863,2v5.451a.82.82,0,0,0,.8.828h2.116a.82.82,0,0,0,.805-.828V17.709C12.466,15.363,11.109,13.063,8.188,13.063Zm12.374,0a6.12,6.12,0,1,0,0,12.236,6.022,6.022,0,0,0,6.256-6.118A6.008,6.008,0,0,0,20.562,13.063Zm0,8.6a2.5,2.5,0,1,1,2.507-2.484A2.417,2.417,0,0,1,20.562,21.665Zm19.642,0a2.5,2.5,0,0,1,0-4.991A2.5,2.5,0,0,1,42,17.387a.63.63,0,0,0,.759.115l2.208-1.311a.625.625,0,0,0,.161-.92A6.268,6.268,0,0,0,40.2,13.063a6.108,6.108,0,1,0,0,12.213,6.268,6.268,0,0,0,4.922-2.208.627.627,0,0,0-.161-.92L42.757,20.86a.6.6,0,0,0-.759.092A2.5,2.5,0,0,1,40.2,21.665ZM47.817,25H49.91a.825.825,0,0,0,.828-.828V14.167a.825.825,0,0,0-.828-.828H47.817a.825.825,0,0,0-.828.828V24.172A.825.825,0,0,0,47.817,25Zm1.058-12.972a1.955,1.955,0,1,0,0-3.91,1.955,1.955,0,1,0,0,3.91Zm9.959,9.637a2.5,2.5,0,0,1,0-4.991,2.5,2.5,0,0,1,1.794.713.63.63,0,0,0,.759.115L63.6,16.191a.625.625,0,0,0,.161-.92,6.268,6.268,0,0,0-4.922-2.208,6.108,6.108,0,1,0,0,12.213,6.268,6.268,0,0,0,4.922-2.208.627.627,0,0,0-.161-.92L61.387,20.86a.6.6,0,0,0-.759.092A2.5,2.5,0,0,1,58.834,21.665ZM73.6,13.96v.529a3.976,3.976,0,0,0-3.289-1.426c-3.634,0-5.589,3.059-5.589,6.118,0,3.036,1.955,6.095,5.589,6.095A3.976,3.976,0,0,0,73.6,23.85v.529a.618.618,0,0,0,.621.621h2.3a.825.825,0,0,0,.828-.828V14.167a.825.825,0,0,0-.828-.828h-2.3A.618.618,0,0,0,73.6,13.96Zm-2.622,7.7a2.354,2.354,0,0,1-2.484-2.484,2.36,2.36,0,0,1,2.484-2.507,2.39,2.39,0,0,1,2.507,2.507A2.384,2.384,0,0,1,70.978,21.665Zm15.456-6.072V14.167a.825.825,0,0,0-.828-.828H84.134V11.706a.815.815,0,0,0-.805-.805H81.213a.815.815,0,0,0-.805.805v1.633H79.58a.825.825,0,0,0-.828.828v1.426a.825.825,0,0,0,.828.828h.828v4.048c0,2.3.828,4.738,4.416,4.738a6.843,6.843,0,0,0,1.1-.092.6.6,0,0,0,.506-.6V22.539a.586.586,0,0,0-.621-.6h-.069c-1.173,0-1.61-.621-1.61-1.84v-3.68h1.472A.825.825,0,0,0,86.434,15.593Zm6.141-.483v-.943a.82.82,0,0,0-.805-.828H89.654a.82.82,0,0,0-.805.828V24.172a.82.82,0,0,0,.805.828H91.77a.82.82,0,0,0,.805-.828V20.4c0-1.84.322-3.588,3.036-3.4a.629.629,0,0,0,.667-.621V13.73a.619.619,0,0,0-.736-.6A4.5,4.5,0,0,0,92.575,15.11ZM98.9,25h2.093a.825.825,0,0,0,.828-.828V14.167a.825.825,0,0,0-.828-.828H98.9a.825.825,0,0,0-.828.828V24.172A.825.825,0,0,0,98.9,25Zm1.058-12.972a1.955,1.955,0,1,0,0-3.91,1.955,1.955,0,1,0,0,3.91Zm8.97,9.5,4.324-5.244a1.1,1.1,0,0,0,.23-.644V14.167a.825.825,0,0,0-.828-.828h-7.613a.825.825,0,0,0-.828.828v1.84a.825.825,0,0,0,.828.828h3.5l-4.278,5.221a.964.964,0,0,0-.23.644v1.472a.805.805,0,0,0,.805.828h8.027a.825.825,0,0,0,.828-.828v-1.84a.82.82,0,0,0-.828-.805Zm15.111-7.567v.529a3.976,3.976,0,0,0-3.289-1.426c-3.634,0-5.589,3.059-5.589,6.118,0,3.036,1.955,6.095,5.589,6.095a3.976,3.976,0,0,0,3.289-1.426v.529a.618.618,0,0,0,.621.621h2.3a.825.825,0,0,0,.828-.828V14.167a.825.825,0,0,0-.828-.828h-2.3A.618.618,0,0,0,124.039,13.96Zm-2.622,7.7a2.354,2.354,0,0,1-2.484-2.484,2.36,2.36,0,0,1,2.484-2.507,2.39,2.39,0,0,1,2.507,2.507A2.384,2.384,0,0,1,121.417,21.665Zm15.824-8.6a3.957,3.957,0,0,0-3.174,1.334V13.96a.618.618,0,0,0-.621-.621h-2.3a.825.825,0,0,0-.828.828V24.172a.825.825,0,0,0,.828.828h2.093a.825.825,0,0,0,.828-.828V18.721a1.868,1.868,0,1,1,3.726,0v5.451a.82.82,0,0,0,.8.828h2.116a.82.82,0,0,0,.805-.828V17.709C141.519,15.363,140.162,13.063,137.241,13.063Z" transform="translate(93.344 49.778)" fill="#0b2c50"/><g transform="translate(12.989 22.095)"><circle cx="33.651" cy="33.651" r="33.651" transform="translate(0)" fill="#3fa3a7"/><g transform="translate(17.698 9.617)"><path d="M-295.257,12.7a1.3,1.3,0,0,1-.418-1.075,17.644,17.644,0,0,0-.257-3.349,6.134,6.134,0,0,0-5.969-4.6c-1.174-.005-2.348.017-3.521-.008A3.54,3.54,0,0,1-308.845.534a3.456,3.456,0,0,1,2.5-3.627,4.744,4.744,0,0,1,1.249-.152c3.333-.012,6.666-.006,10-.007a9.583,9.583,0,0,0,9.648-8.091,34.285,34.285,0,0,0,.156-4.212,1.341,1.341,0,0,0-.549-1.351,12.361,12.361,0,0,1-1.5-1.47c-.017.216-.035.345-.035.475,0,1.674.006,3.348,0,5.022a7.608,7.608,0,0,1-8,7.477,7.623,7.623,0,0,1-7.179-6.661,8.423,8.423,0,0,1-.043-1.078c0-2.112-.009-4.224,0-6.336a7.538,7.538,0,0,1,6.321-7.654,7.4,7.4,0,0,1,5.31,1.021,1.093,1.093,0,0,0,.672.124,1.739,1.739,0,0,1,1.6.465c.341.343.657.71,1.007,1.091.449-.949.44-1.08-.207-1.744a9.527,9.527,0,0,0-8.04-3.026,3.822,3.822,0,0,1-4.319-3.612c-.042-.592-.03-1.189-.015-1.782a.693.693,0,0,1,.7-.773.72.72,0,0,1,.727.8c.013.547,0,1.1.007,1.643a2.333,2.333,0,0,0,2.491,2.307,11.208,11.208,0,0,1,9.246,3.211.815.815,0,0,0,.164.084c.242-1.062.476-2.1.716-3.145.216-.938.788-1.431,1.631-1.325a1.606,1.606,0,0,1,.866.4c1.437,1.4,2.849,2.815,4.257,4.24a1.391,1.391,0,0,1,.289,1.682c-.317.679-.634,1.358-.967,2.029a.712.712,0,0,1-1,.4.722.722,0,0,1-.279-1.007c.274-.6.576-1.179.834-1.781a.538.538,0,0,0-.044-.476c-1.332-1.365-2.683-2.712-4.063-4.1a1.607,1.607,0,0,0-.131.275c-.538,2.341-1.062,4.686-1.624,7.021a1.276,1.276,0,0,1-.534.743c-.336.191-.639-.067-.894-.328q-.851-.874-1.729-1.722a.455.455,0,0,0-.356-.138.446.446,0,0,0-.206.323q-.534,3.923-1.047,7.848a4.22,4.22,0,0,0,0,.43c.158-.219.258-.346.347-.481q1.169-1.785,2.335-3.572c.449-.684.845-.721,1.429-.14.721.717,1.437,1.44,2.159,2.156.339.336.476.311.684-.121.508-1.055,1.008-2.114,1.516-3.169.243-.5.607-.677,1-.494.421.2.528.6.28,1.119q-.773,1.629-1.562,3.25a1.336,1.336,0,0,1-.395.568c-.437.263-.447.637-.452,1.074-.017,1.469.035,2.948-.125,4.4a11.014,11.014,0,0,1-8.706,9.3,14.018,14.018,0,0,1-2.421.224c-3.286.025-6.572.007-9.858.015a3.728,3.728,0,0,0-1.019.113A1.99,1.99,0,0,0-307.42.328a1.968,1.968,0,0,0,1.646,1.85c.8.1,1.623.045,2.434.086a20.065,20.065,0,0,1,3.168.224,7.635,7.635,0,0,1,5.932,7.288c.012.641-.015,1.284.011,1.924a1.043,1.043,0,0,1-.465,1Zm6.565-29.553-.175-.029c-.088.127-.178.252-.263.381-.378.574-.743,1.157-1.134,1.722a1.3,1.3,0,0,1-1.6.53,1.305,1.305,0,0,1-.876-1.394c.015-.233.051-.466.081-.7.159-1.22.318-2.439.48-3.676a1.974,1.974,0,0,0-1.891.487c-.376.353-.732.731-1.135,1.05a3.311,3.311,0,0,1-4.125.036c-.358-.274-.662-.618-1-.917-.239-.21-.5-.4-.849-.672v.6c0,2.127,0,4.254,0,6.38a7.22,7.22,0,0,0,.082,1.025,6.231,6.231,0,0,0,5.645,5.216,6.064,6.064,0,0,0,6.443-4.729A40.738,40.738,0,0,0-288.692-16.854Zm-12.2-4.58a8.676,8.676,0,0,1,1.031.608c.416.327.782.718,1.176,1.074a1.972,1.972,0,0,0,2.824-.028c.217-.2.425-.415.636-.624a3.43,3.43,0,0,1,2.923-1.079,2.123,2.123,0,0,0,.328-.014c.133-1.013.273-2,.38-2.994a.546.546,0,0,0-.2-.437A6.161,6.161,0,0,0-300.893-21.434Z" transform="translate(314.699 35.367)" fill="#fff"/><path d="M-341.747,204.827a1.132,1.132,0,0,1-.43-1.021c.02-.531,0-1.063,0-1.595,0-.412-.193-.589-.607-.585-1.048.011-2.1.006-3.144,0a9.414,9.414,0,0,1-9.316-7.8,9.371,9.371,0,0,1,4.245-9.349.732.732,0,0,1,1.073.13.738.738,0,0,1-.312,1.071,7.787,7.787,0,0,0-3.611,5.561,7.81,7.81,0,0,0,5.9,8.693,16.7,16.7,0,0,0,2.927.275c.8.043,1.6,0,2.392.013a1.853,1.853,0,0,1,1.886,1.865,14.149,14.149,0,0,1-.016,1.921,2.541,2.541,0,0,1-.432.819Z" transform="translate(355.368 -156.761)" fill="#fff"/><path d="M-299.005-23.334q0,5.418,0,10.836a5.654,5.654,0,0,1-1.785,4.237,4.04,4.04,0,0,1-.43.362.721.721,0,0,1-1.009-.086.7.7,0,0,1,.115-1,4.169,4.169,0,0,0,1.477-2.17,6.711,6.711,0,0,0,.178-1.525q.017-10.743.009-21.485a3.169,3.169,0,0,1,.034-.606.651.651,0,0,1,.687-.577.66.66,0,0,1,.692.575,2.349,2.349,0,0,1,.032.512Q-299-28.8-299.005-23.334Z" transform="translate(309.034 35.353)" fill="#fff"/><path d="M-194.923,135.293a2.418,2.418,0,0,1,2.433,2.437,2.418,2.418,0,0,1-2.46,2.457,2.419,2.419,0,0,1-2.434-2.437A2.418,2.418,0,0,1-194.923,135.293Zm-.022,3.479a1.046,1.046,0,0,0,1.045-1.035,1.061,1.061,0,0,0-1.05-1.035,1.055,1.055,0,0,0-1.02,1.016A1.043,1.043,0,0,0-194.945,138.772Z" transform="translate(217.195 -113.892)" fill="#fff"/></g></g></g></svg>