<svg xmlns="http://www.w3.org/2000/svg" xmlns:xlink="http://www.w3.org/1999/xlink" width="389.208" height="192.447" viewBox="0 0 389.208 192.447">
  <defs>
    <clipPath id="clip-path">
      <rect id="Rectángulo_568" data-name="Rectángulo 568" width="97.477" height="104.836" fill="#002e66"/>
    </clipPath>
  </defs>
  <g id="Grupo_3202" data-name="Grupo 3202" transform="translate(-946.401 -1990.283)">
    <path id="Trazado_3237" data-name="Trazado 3237" d="M-187.3-1.45a3.872,3.872,0,0,0,1.75-1.45,16.409,16.409,0,0,0,1.6-2.9c.55-1.25,1.05-2.6,1.5-3.9.35-.95.65-1.95.95-2.9.25-.9.6-1.75.85-2.6.3-.85.55-1.7.85-2.5.3-.9.6-1.8.95-2.7l.6-1.65c.3-.9.6-1.8.95-2.7.2-.6.5-1.25.65-1.85a1.9,1.9,0,0,0,.15-1.15c-.05-.25,0-.45-.05-.65a4.874,4.874,0,0,0-.25-.55,1.918,1.918,0,0,0-2.15-1,2.79,2.79,0,0,0-1.05.45,3.147,3.147,0,0,0-1.3,1.7l-.6,1.55-.65,1.85c-.35.85-.6,1.7-.95,2.55-.2.55-.4,1.05-.55,1.6-.25.8-.5,1.6-.8,2.4a12.666,12.666,0,0,1-.6,1.8c-.25.75-.5,1.5-.7,2.25l-.75,2.35c-.15.65-.4,1.25-.6,1.9a.506.506,0,0,1-.2.35c-.25.25-.4.25-.5-.05a2.462,2.462,0,0,1-.3-.85l-.2-.95c-.2-.6-.3-1.25-.45-1.9l-.45-2.25-.25-1.75c-.3-2.15-.3-4.3-.65-6.45a13.564,13.564,0,0,1-.2-2.05c-.05-.05-.05-.2-.05-.25.15-.45-.15-.8-.1-1.2a2.578,2.578,0,0,0-2.45-1.5,2.437,2.437,0,0,0-2.15,1.7,5.45,5.45,0,0,0-.15,1.3c.35,2.8.45,5.7.9,8.5.1.55.1,1.1.25,1.65.1.5.1,1.05.25,1.55.1.35.1.75.2,1.1.1.65.25,1.25.35,1.9.1.55.3,1.15.4,1.7a3.682,3.682,0,0,0,.2.7c.1.4.25.75.35,1.15.2.6.4,1.2.65,1.8.35.75.7,1.5,1.1,2.25a3.634,3.634,0,0,0,1,1.3A2.657,2.657,0,0,0-187.3-1.45Zm13.75-2.15a2.05,2.05,0,0,0,2.85-.3,4.365,4.365,0,0,0,1-3,8.339,8.339,0,0,0-.1-1.6v-.15a.975.975,0,0,0,0-.75,3.784,3.784,0,0,0,.05-.75,5.037,5.037,0,0,1-.05-1.5,8.029,8.029,0,0,1,0-1.55c.05-.35-.05-.7,0-1.05.05-.55.05-1.1.05-1.65,0-.6.05-1.15.05-1.75,0-.65.05-1.25.1-1.9v-.95c.05-.65.05-1.3.1-1.95v-.85c0-.45.05-.85.05-1.3-.05-.25-.15-.5-.2-.75a2.179,2.179,0,0,0-.95-1.25,2.016,2.016,0,0,0-1.75-.45,2.637,2.637,0,0,0-.6.15,2.548,2.548,0,0,0-1.35,1.35,1.5,1.5,0,0,0-.2.5,6.84,6.84,0,0,0-.1,1.45c-.05.65-.05,1.3-.1,1.95v.9c-.05.65-.05,1.3-.1,1.9-.05.35,0,.7-.05,1.1a2.714,2.714,0,0,0,0,.9,3.444,3.444,0,0,1-.05,1c-.05.55-.05,1.15-.05,1.75v1.15c-.05.75,0,1.5,0,2.25,0,.7,0,1.45.05,2.15a10.239,10.239,0,0,0,.05,1.75v.2a.967.967,0,0,0,0,.65,8.616,8.616,0,0,0,.35,1.05A4.161,4.161,0,0,0-173.55-3.6Zm12.8,3.15a6.665,6.665,0,0,0,1.4-.15,7.042,7.042,0,0,0,2.45-1A10.773,10.773,0,0,0-154.3-4a8.317,8.317,0,0,0,1.25-2.25,9.438,9.438,0,0,0,.65-2.85,9.051,9.051,0,0,0-.2-2,8.206,8.206,0,0,0-.65-2.15,7.882,7.882,0,0,0-1.7-2.15,5.694,5.694,0,0,0-1.9-1.15,5.715,5.715,0,0,0-1.5-.45,4.931,4.931,0,0,0-1.2-.15,11.058,11.058,0,0,0-1.25.25,2.606,2.606,0,0,0-1.75,1.5,2.067,2.067,0,0,0,.15,1.95,2.862,2.862,0,0,0,.8.75,2.97,2.97,0,0,0,1.3.35c.05.05.1,0,.2,0a2.238,2.238,0,0,1,1.4.05,2.364,2.364,0,0,1,1.4,1.45,5.5,5.5,0,0,1,.2,1.55,4.419,4.419,0,0,1-.7,2.25,4.565,4.565,0,0,1-1.2,1.2,2.563,2.563,0,0,1-1.9.7,1.743,1.743,0,0,1-1.2-.6A5.753,5.753,0,0,1-162.7-7a10.327,10.327,0,0,1-.6-3.05,15.739,15.739,0,0,1,.05-2.65c.1-.55.15-1.1.25-1.7a13.566,13.566,0,0,1,.45-2.05,15.686,15.686,0,0,1,1.4-3.4,12.257,12.257,0,0,1,1.3-1.85c.2-.3.5-.55.7-.8a4.6,4.6,0,0,1,1.1-1.1A10.485,10.485,0,0,1-156-24.8a3.7,3.7,0,0,1,1.45-.4,2.314,2.314,0,0,0,2.15-1.6,5.567,5.567,0,0,0,.1-.85,1.685,1.685,0,0,0-.25-.85,2.685,2.685,0,0,0-2.15-1.3,4.86,4.86,0,0,0-1.9.25A12.95,12.95,0,0,0-159.85-28a14.6,14.6,0,0,0-1.4,1.05,7.533,7.533,0,0,0-1.15,1.05,13.463,13.463,0,0,0-1.35,1.6,11.811,11.811,0,0,0-1.4,2.1c-.35.6-.65,1.25-.95,1.9a11.642,11.642,0,0,0-.55,1.4,14.255,14.255,0,0,0-.7,2.5l-.3,1.4c-.05.3-.05.55-.1.8a8.546,8.546,0,0,0-.15,1.55,13.1,13.1,0,0,0-.05,1.4h.05v1.7c0,.1-.05.2,0,.3a.592.592,0,0,1,.05.5c0,.2.1.35.1.55a14.833,14.833,0,0,0,.4,2.05,9.3,9.3,0,0,0,1.2,2.7,6.215,6.215,0,0,0,2.35,2.2A6.45,6.45,0,0,0-160.75-.45ZM-149.4-3.6a2.05,2.05,0,0,0,2.85-.3,4.365,4.365,0,0,0,1-3,8.339,8.339,0,0,0-.1-1.6v-.15a.975.975,0,0,0,0-.75,3.784,3.784,0,0,0,.05-.75,5.037,5.037,0,0,1-.05-1.5,8.029,8.029,0,0,1,0-1.55c.05-.35-.05-.7,0-1.05.05-.55.05-1.1.05-1.65,0-.6.05-1.15.05-1.75,0-.65.05-1.25.1-1.9v-.95c.05-.65.05-1.3.1-1.95v-.85c0-.45.05-.85.05-1.3-.05-.25-.15-.5-.2-.75a2.179,2.179,0,0,0-.95-1.25,2.016,2.016,0,0,0-1.75-.45,2.637,2.637,0,0,0-.6.15,2.548,2.548,0,0,0-1.35,1.35,1.5,1.5,0,0,0-.2.5,6.84,6.84,0,0,0-.1,1.45c-.05.65-.05,1.3-.1,1.95v.9c-.05.65-.05,1.3-.1,1.9-.05.35,0,.7-.05,1.1a2.714,2.714,0,0,0,0,.9,3.444,3.444,0,0,1-.05,1c-.05.55-.05,1.15-.05,1.75v1.15c-.05.75,0,1.5,0,2.25,0,.7,0,1.45.05,2.15a10.239,10.239,0,0,0,.05,1.75v.2a.967.967,0,0,0,0,.65,8.616,8.616,0,0,0,.35,1.05A4.161,4.161,0,0,0-149.4-3.6Zm17.45,2.9a2.545,2.545,0,0,0,1.45-.75,2.11,2.11,0,0,0,.55-2.05,2.1,2.1,0,0,0-.8-1.25,4.315,4.315,0,0,0-2.9-.75c-.15,0-.25.05-.35,0a24.519,24.519,0,0,0-2.7-.2h-.95a1.972,1.972,0,0,1-1-.25.94.94,0,0,1-.6-.85,6.106,6.106,0,0,1,.05-1.35,3.759,3.759,0,0,1,0-.75,12.262,12.262,0,0,0,.1-1.35v-1.3c0-.55.1-1.1.05-1.65v-.2c.15-.25.05-.5.05-.7-.05-.25.1-.45.05-.65-.1-.55.05-1.1-.05-1.65v-.1a6.4,6.4,0,0,0,.05-1.7c0-.4.05-.8.05-1.2v-.9a9.762,9.762,0,0,0,.1-1.15,8.474,8.474,0,0,1,.05-1.15c.05-.65.05-1.3.1-1.95a10.208,10.208,0,0,0,0-1.75,10.382,10.382,0,0,0-.25-1.5,3.482,3.482,0,0,0-.55-1.15,2,2,0,0,0-2.05-.6,2.208,2.208,0,0,0-1.4,1.35,7.042,7.042,0,0,0-.35,2.25v1.3c-.05.35,0,.65-.05.95a4.064,4.064,0,0,0-.05,1.1c0,.5-.05,1-.05,1.5a8.066,8.066,0,0,1,0,1.1,9.107,9.107,0,0,0-.05,1.65v.25a7.531,7.531,0,0,0-.05,1.5,14.05,14.05,0,0,1-.05,1.45v1.35a6.917,6.917,0,0,0-.05,1.45.094.094,0,0,1,0,.15,12.184,12.184,0,0,0-.05,1.35,7.743,7.743,0,0,1-.05,1.1c-.05.55-.05,1.05-.05,1.55,0,.4-.05.85-.05,1.25a3.759,3.759,0,0,1,0,.75,6.938,6.938,0,0,0,.2,2.3,3.1,3.1,0,0,0,1.2,1.45,2.718,2.718,0,0,0,1.15.55,8.1,8.1,0,0,0,1.9.45c.45.05.95.05,1.45.1a13.665,13.665,0,0,1,2,.25,10.238,10.238,0,0,1,2.1.35A4.615,4.615,0,0,0-131.95-.7Zm16.5-.65a2.185,2.185,0,0,0,1.5-1.45,5.079,5.079,0,0,0,.3-1.7c.05-.6,0-1.25,0-1.85V-7.9a15.141,15.141,0,0,0-.1-1.55c0-1.15.05-2.3-.05-3.45-.1-.9-.05-1.85-.1-2.75a9.765,9.765,0,0,1-.15-1.7c0-.05.05-.1,0-.1a.643.643,0,0,1-.05-.6c0-.25-.15-.4-.15-.65a9.326,9.326,0,0,0-.2-1.6c-.05-.5-.25-1.05-.35-1.6a15.8,15.8,0,0,0-.85-2.6,12.913,12.913,0,0,0-1.1-2.2,6.438,6.438,0,0,0-1.1-1.5,2.426,2.426,0,0,0-2.2-.75,1.709,1.709,0,0,0-1.3.7,10.035,10.035,0,0,0-1.4,2.6l-1.3,3.25c-.35,1-.8,2.05-1.15,3.1-.6,1.65-1.15,3.35-1.6,5.1-.2.85-.45,1.7-.6,2.55l-.45,2.35c-.15.8-.25,1.55-.35,2.35a6.839,6.839,0,0,0-.1,1.45v.1a1.522,1.522,0,0,0,.05,1.05,2.556,2.556,0,0,0,.95,1.55,1.538,1.538,0,0,0,1.7.3,2.694,2.694,0,0,0,.65-.35A3.72,3.72,0,0,0-123.9-4.4c.1-.5.15-1.05.25-1.55l.3-2.2a.8.8,0,0,1,.25-.5,3.235,3.235,0,0,1,.4-.45.38.38,0,0,1,.45-.15c.5,0,1,0,1.5.05.55.05,1.15.1,1.75.1a.812.812,0,0,1,.45.25,1.686,1.686,0,0,1,.25.85c.05,1.4-.05,2.8.1,4.2a2.7,2.7,0,0,0,1.05,2.1A1.652,1.652,0,0,0-115.45-1.35Zm-4.05-12.4a1.664,1.664,0,0,1-.7-.05,2.241,2.241,0,0,0-.6-.05.989.989,0,0,1-.55-.1.588.588,0,0,1-.45-.6,2.54,2.54,0,0,1,.15-.85c.25-.9.6-1.8.9-2.75.3-.7.55-1.45.85-2.2,0-.05.05-.1.1-.2a.378.378,0,0,1,.4-.15c.15,0,.2.15.2.25a5.23,5.23,0,0,1,.2.85c.1.6.15,1.2.3,1.8v.05c-.05.55.1,1.05.1,1.6a6.127,6.127,0,0,1,.1.95,2.641,2.641,0,0,1-.05.65A1.017,1.017,0,0,1-119.5-13.75ZM-109.2-1.6a1.6,1.6,0,0,0,1-.5,4.361,4.361,0,0,0,.95-1.85,2.829,2.829,0,0,0,.1-1.1c-.1-.7,0-1.4-.05-2.1v-.1c.05-.15.05-.3.2-.35a.507.507,0,0,1,.5.15l.55.75A29.9,29.9,0,0,1-104-4.25a8.607,8.607,0,0,0,1.6,1.7,2.439,2.439,0,0,0,2.4.3c.35-.1.55-.4.8-.65a2.032,2.032,0,0,0,.5-1.5,3.568,3.568,0,0,0-.85-2.1c-.65-.9-1.35-1.8-2.05-2.65-.6-.75-1.2-1.5-1.8-2.2-.2-.25-.2-.5-.35-.75a2.294,2.294,0,0,1,.5-1.25,13.259,13.259,0,0,0,2-2.1,9.946,9.946,0,0,0,1.15-1.8,7.54,7.54,0,0,0,.9-4.15,2.051,2.051,0,0,1-.05-.55,4.854,4.854,0,0,0-.55-1.7,6.767,6.767,0,0,0-2.55-2.75,8.354,8.354,0,0,0-3.75-1.25,10.925,10.925,0,0,0-2.15.25,3.442,3.442,0,0,0-2,1.35,9.171,9.171,0,0,0-.65,1.2,6.046,6.046,0,0,0-.4,1.7,9.741,9.741,0,0,0-.1,1.25,8.85,8.85,0,0,1-.05,1.15c0,.65-.05,1.25-.1,1.9-.05.6-.1,1.2-.1,1.85a4.575,4.575,0,0,1-.05.8,10.042,10.042,0,0,0-.05,1.25c0,.35-.05.75-.05,1.1-.05.4-.05.8-.1,1.2a8.474,8.474,0,0,1-.05,1.15c-.05.7-.05,1.45-.05,2.15a4.392,4.392,0,0,0-.05,1.4c0,.05.05.1,0,.15a.975.975,0,0,0,0,.75,3.784,3.784,0,0,0-.05.75l.15,1.95a3.66,3.66,0,0,0,.85,1.95,2.631,2.631,0,0,0,.7.6A1.637,1.637,0,0,0-109.2-1.6Zm3.2-16c-.4.15-.6.1-.6-.3a.86.86,0,0,1-.05-.4c.05-.35.05-.85.1-1.35a8.816,8.816,0,0,0,0-1.15,8.177,8.177,0,0,1,.1-1.1c.1-.45.15-.45.55-.5a1.661,1.661,0,0,1,1.8,1.2,2.7,2.7,0,0,1-.15,1.25,4.817,4.817,0,0,1-1.05,1.75A2.766,2.766,0,0,1-106-17.6ZM-81.7-1.9c.55.1,1.1-.1,1.65-.05a13.176,13.176,0,0,0,1.4-.1A2.777,2.777,0,0,0-76.9-2.9a1.612,1.612,0,0,0,.45-1.3,1.956,1.956,0,0,0-.95-1.4,4.283,4.283,0,0,0-2.05-.5c-.55-.05-1.1,0-1.65,0a.99.99,0,0,1-1.1-.95,7.3,7.3,0,0,1-.15-1.1v-2.6c.05-.7.2-.9.9-1.1h.35a10.426,10.426,0,0,1,1.25,0A5.78,5.78,0,0,0-78-12.2a2.221,2.221,0,0,0,1.65-2.2,2.075,2.075,0,0,0-1.3-1.9,5.35,5.35,0,0,0-2.15-.45c-.5.05-1,0-1.55.05a.534.534,0,0,1-.45-.35,1.408,1.408,0,0,1-.2-1,2.439,2.439,0,0,0,.05-.85c.05-1.2.05-2.35.05-3.5,0-.6.35-1.05.95-1,.95,0,1.85-.15,2.75-.15a2.922,2.922,0,0,0,.95-.1,2.959,2.959,0,0,0,1.85-1.2,1.957,1.957,0,0,0,.05-2.25,3.321,3.321,0,0,0-2.4-1.3c-1.35-.05-2.7.1-4.05.15-.05,0-.05-.05-.1,0-.5.15-1.05.05-1.55.15a8.27,8.27,0,0,0-1.6.35,2.6,2.6,0,0,0-1.7,1.35A1.936,1.936,0,0,0-86.9-25a.552.552,0,0,1,0,.4.74.74,0,0,0,0,.65v.25c.05.7.1,1.35.1,2a21.048,21.048,0,0,1-.05,3.55c-.1.6-.05,1.25-.1,1.85-.1.6-.05,1.15-.1,1.75-.1.85-.05,1.65-.1,2.5a22.894,22.894,0,0,0-.05,2.7c.1.7-.05,1.7.1,2.75a9.16,9.16,0,0,0,.45,1.95,3.751,3.751,0,0,0,2.5,2.4A10.348,10.348,0,0,0-81.7-1.9ZM-61.65-.7a2.545,2.545,0,0,0,1.45-.75,2.11,2.11,0,0,0,.55-2.05,2.1,2.1,0,0,0-.8-1.25,4.315,4.315,0,0,0-2.9-.75c-.15,0-.25.05-.35,0a24.519,24.519,0,0,0-2.7-.2h-.95a1.972,1.972,0,0,1-1-.25.939.939,0,0,1-.6-.85,6.106,6.106,0,0,1,.05-1.35,3.76,3.76,0,0,1,0-.75,12.259,12.259,0,0,0,.1-1.35v-1.3c0-.55.1-1.1.05-1.65v-.2c.15-.25.05-.5.05-.7-.05-.25.1-.45.05-.65-.1-.55.05-1.1-.05-1.65v-.1a6.394,6.394,0,0,0,.05-1.7c0-.4.05-.8.05-1.2v-.9a9.763,9.763,0,0,0,.1-1.15,8.474,8.474,0,0,1,.05-1.15c.05-.65.05-1.3.1-1.95a10.209,10.209,0,0,0,0-1.75,10.384,10.384,0,0,0-.25-1.5,3.481,3.481,0,0,0-.55-1.15,2,2,0,0,0-2.05-.6,2.208,2.208,0,0,0-1.4,1.35,7.042,7.042,0,0,0-.35,2.25v1.3c-.05.35,0,.65-.05.95a4.065,4.065,0,0,0-.05,1.1c0,.5-.05,1-.05,1.5a8.067,8.067,0,0,1,0,1.1,9.106,9.106,0,0,0-.05,1.65v.25a7.531,7.531,0,0,0-.05,1.5,14.05,14.05,0,0,1-.05,1.45v1.35a6.917,6.917,0,0,0-.05,1.45.094.094,0,0,1,0,.15,12.185,12.185,0,0,0-.05,1.35,7.741,7.741,0,0,1-.05,1.1c-.05.55-.05,1.05-.05,1.55,0,.4-.05.85-.05,1.25a3.759,3.759,0,0,1,0,.75,6.938,6.938,0,0,0,.2,2.3,3.1,3.1,0,0,0,1.2,1.45,2.718,2.718,0,0,0,1.15.55,8.1,8.1,0,0,0,1.9.45c.45.05.95.05,1.45.1a13.665,13.665,0,0,1,2,.25,10.238,10.238,0,0,1,2.1.35A4.615,4.615,0,0,0-61.65-.7Zm26.5-.65a2.185,2.185,0,0,0,1.5-1.45,5.079,5.079,0,0,0,.3-1.7c.05-.6,0-1.25,0-1.85V-7.9a15.141,15.141,0,0,0-.1-1.55c0-1.15.05-2.3-.05-3.45-.1-.9-.05-1.85-.1-2.75a9.765,9.765,0,0,1-.15-1.7c0-.05.05-.1,0-.1a.643.643,0,0,1-.05-.6c0-.25-.15-.4-.15-.65a9.326,9.326,0,0,0-.2-1.6c-.05-.5-.25-1.05-.35-1.6a15.8,15.8,0,0,0-.85-2.6,12.913,12.913,0,0,0-1.1-2.2,6.438,6.438,0,0,0-1.1-1.5,2.426,2.426,0,0,0-2.2-.75,1.709,1.709,0,0,0-1.3.7,10.035,10.035,0,0,0-1.4,2.6l-1.3,3.25c-.35,1-.8,2.05-1.15,3.1-.6,1.65-1.15,3.35-1.6,5.1-.2.85-.45,1.7-.6,2.55l-.45,2.35c-.15.8-.25,1.55-.35,2.35A6.839,6.839,0,0,0-48-5.5v.1a1.522,1.522,0,0,0,.05,1.05A2.556,2.556,0,0,0-47-2.8a1.538,1.538,0,0,0,1.7.3,2.694,2.694,0,0,0,.65-.35A3.72,3.72,0,0,0-43.6-4.4c.1-.5.15-1.05.25-1.55l.3-2.2a.8.8,0,0,1,.25-.5,3.235,3.235,0,0,1,.4-.45.38.38,0,0,1,.45-.15c.5,0,1,0,1.5.05.55.05,1.15.1,1.75.1a.812.812,0,0,1,.45.25A1.686,1.686,0,0,1-38-8c.05,1.4-.05,2.8.1,4.2a2.7,2.7,0,0,0,1.05,2.1A1.652,1.652,0,0,0-35.15-1.35Zm-4.05-12.4a1.664,1.664,0,0,1-.7-.05,2.241,2.241,0,0,0-.6-.05.989.989,0,0,1-.55-.1.588.588,0,0,1-.45-.6,2.54,2.54,0,0,1,.15-.85c.25-.9.6-1.8.9-2.75.3-.7.55-1.45.85-2.2,0-.05.05-.1.1-.2a.378.378,0,0,1,.4-.15c.15,0,.2.15.2.25a5.231,5.231,0,0,1,.2.85c.1.6.15,1.2.3,1.8v.05c-.05.55.1,1.05.1,1.6a6.126,6.126,0,0,1,.1.95,2.641,2.641,0,0,1-.05.65A1.017,1.017,0,0,1-39.2-13.75ZM-23.9-2.2a6.775,6.775,0,0,0,1.75-.05,5.844,5.844,0,0,0,1-.3,6.619,6.619,0,0,0,1.6-1,8.943,8.943,0,0,0,1.4-1.35,9.7,9.7,0,0,0,.75-1.2,15,15,0,0,0,1.55-3.55,28.074,28.074,0,0,0,.65-2.95c.05-.45.2-.9.25-1.4.1-1.15.3-2.35.4-3.5,0-.75.1-1.45.15-2.2a4.276,4.276,0,0,1,0-.8,4.153,4.153,0,0,0,.05-1.1c0-.4.05-.8.05-1.2,0-.35-.05-.65-.05-.95a8.565,8.565,0,0,0,.05-1.6,2.165,2.165,0,0,1-.05-.25,2.85,2.85,0,0,0-.25-1.7,2.518,2.518,0,0,0-3.2-1.35,2.151,2.151,0,0,0-1.05.95,3.8,3.8,0,0,0-.5,2.35v1.3c-.05.75,0,1.5-.05,2.25a6.667,6.667,0,0,0,0,1,8.339,8.339,0,0,0-.1,1.6c0,.85-.15,1.65-.2,2.5-.1,1.1-.3,2.2-.5,3.25a22.965,22.965,0,0,1-1.2,4.5,4.81,4.81,0,0,1-1,1.6.931.931,0,0,1-1.15.25,4.071,4.071,0,0,1-1.4-1.2,6.46,6.46,0,0,1-1.35-3.3c-.15-1.45-.4-2.85-.45-4.35a11.59,11.59,0,0,0-.05-1.85v-.15a5.227,5.227,0,0,0,0-1.25c.05-.4,0-.85.05-1.25v-2.1c.05-.6.05-1.25.05-1.85a4.042,4.042,0,0,1,.05-.8A2.119,2.119,0,0,0-27-26.75a2.469,2.469,0,0,0-1.75-1.2,2.5,2.5,0,0,0-1.6.3,2.662,2.662,0,0,0-1.1,1.35,6.929,6.929,0,0,0-.35,2.45v1.2a5.409,5.409,0,0,1,0,.9,5.77,5.77,0,0,0-.05,1.3,11.276,11.276,0,0,1,0,1.3c-.05.75.05,1.5,0,2.3a5.34,5.34,0,0,0,.05,1.25c0,.75.15,1.55.15,2.3a3.751,3.751,0,0,0,.1,1c-.05.7.3,1.5.35,2.35a.155.155,0,0,0,.05.1c.2.6.35,1.3.6,1.9A10.113,10.113,0,0,0-28.9-5.1a6.9,6.9,0,0,0,2,1.8A7.533,7.533,0,0,0-23.9-2.2ZM4.45-1.05a1.791,1.791,0,0,0,1.25,0,2.173,2.173,0,0,0,1.6-1.2A4.184,4.184,0,0,0,7.7-4.3c0-.65.1-2.85.15-3.85,0-.6.05-1.25.05-1.9,0-.7.05-1.4.05-2.05A11.3,11.3,0,0,0,8-13.4c0-.5.05-1,.05-1.45v-1.5c0-.5.05-1,.05-1.5V-19.3c0-.8,0-1.6.05-2.4,0-.3-.05-.65-.05-.95a6.051,6.051,0,0,0,.05-.95c-.05-.6,0-1.15-.05-1.75a14.14,14.14,0,0,0-.15-2.05,3.224,3.224,0,0,0-.75-2.05,2.359,2.359,0,0,0-2.15-1,2.417,2.417,0,0,0-1.9,1,5.3,5.3,0,0,0-.9,1.85c-.4,1.2-.9,2.35-1.4,3.5-.45,1.15-.9,2.25-1.3,3.4-.35.9-.7,1.8-1,2.75a.9.9,0,0,1-.6.6.335.335,0,0,1-.4-.15c-.2-.15-.15-.4-.25-.6-.3-.6-.55-1.2-.8-1.75-.25-.7-.55-1.4-.85-2.1-.4-.9-.85-1.8-1.25-2.7A20.25,20.25,0,0,0-6.65-26.4a13.029,13.029,0,0,0-1-1.5A3.205,3.205,0,0,0-8.9-28.95a2.211,2.211,0,0,0-1.5-.15,2.025,2.025,0,0,0-1.4,1.05,6.3,6.3,0,0,0-.6,2.1,12.976,12.976,0,0,0-.15,2c-.05,1.05-.15,2.1-.15,3.2a10.819,10.819,0,0,1,0,1.8c-.05.45,0,.95-.05,1.45-.05.65-.05,1.25-.05,1.9a8.547,8.547,0,0,1,0,1.6v2.3c0,.6,0,1.3.05,1.95a3.04,3.04,0,0,1,.05.95c-.05.35.05.7,0,1.05,0,.4.05.8.05,1.2.05.6,0,1.25.1,1.85,0,.05.05.1.05.15a2.486,2.486,0,0,0,.2,1.35,2.031,2.031,0,0,0,.75,1.15,1.9,1.9,0,0,0,.85.35A2.016,2.016,0,0,0-8.5-3.05a6.425,6.425,0,0,0,.35-1.7,11.817,11.817,0,0,0,.1-2.3V-10.5c-.05-.7,0-1.4-.1-2.05,0-.35-.05-.7-.05-1.05a12.706,12.706,0,0,0-.05-1.95,13.1,13.1,0,0,0,.05-1.4.942.942,0,0,1,.1-.4q.3-.45.6,0c0,.05.05.1.1.15a13.864,13.864,0,0,1,.5,1.3c.15.65.45,1.25.65,1.9a17.5,17.5,0,0,1,.85,2.75.3.3,0,0,0,.05.2,6.023,6.023,0,0,1,.4,1.35c.1.5.25,1,.4,1.5A3.978,3.978,0,0,0-4-6.95,2.587,2.587,0,0,0-2-5.9,2.54,2.54,0,0,0,.25-7.3a21.992,21.992,0,0,0,.9-2.55c.55-1.45,1-2.95,1.5-4.45.05-.15,0-.45.25-.4.2.05.15.3.15.45,0,.35-.05.7-.05,1.05.05.7,0,1.35,0,2-.05.65-.1,1.35-.1,2,0,.45-.05.95-.05,1.4-.05.6-.05,1.95-.1,2.65A8.481,8.481,0,0,0,2.8-2.9,2.566,2.566,0,0,0,4.45-1.05Zm10.7-.85c.55.1,1.1-.1,1.65-.05a13.176,13.176,0,0,0,1.4-.1,2.777,2.777,0,0,0,1.75-.85,1.612,1.612,0,0,0,.45-1.3,1.956,1.956,0,0,0-.95-1.4,4.283,4.283,0,0,0-2.05-.5c-.55-.05-1.1,0-1.65,0a.99.99,0,0,1-1.1-.95,7.3,7.3,0,0,1-.15-1.1v-2.6c.05-.7.2-.9.9-1.1h.35a10.426,10.426,0,0,1,1.25,0,5.78,5.78,0,0,0,1.85-.35,2.221,2.221,0,0,0,1.65-2.2,2.075,2.075,0,0,0-1.3-1.9,5.35,5.35,0,0,0-2.15-.45c-.5.05-1,0-1.55.05a.534.534,0,0,1-.45-.35,1.408,1.408,0,0,1-.2-1,2.44,2.44,0,0,0,.05-.85c.05-1.2.05-2.35.05-3.5,0-.6.35-1.05.95-1,.95,0,1.85-.15,2.75-.15a2.922,2.922,0,0,0,.95-.1,2.959,2.959,0,0,0,1.85-1.2,1.957,1.957,0,0,0,.05-2.25,3.321,3.321,0,0,0-2.4-1.3c-1.35-.05-2.7.1-4.05.15-.05,0-.05-.05-.1,0-.5.15-1.05.05-1.55.15a8.27,8.27,0,0,0-1.6.35,2.6,2.6,0,0,0-1.7,1.35A1.936,1.936,0,0,0,9.95-25a.552.552,0,0,1,0,.4.74.74,0,0,0,0,.65v.25c.05.7.1,1.35.1,2A21.048,21.048,0,0,1,10-18.15c-.1.6-.05,1.25-.1,1.85-.1.6-.05,1.15-.1,1.75-.1.85-.05,1.65-.1,2.5a22.9,22.9,0,0,0-.05,2.7c.1.7-.05,1.7.1,2.75a9.16,9.16,0,0,0,.45,1.95,3.751,3.751,0,0,0,2.5,2.4A10.348,10.348,0,0,0,15.15-1.9ZM26.45-.6a2.315,2.315,0,0,0,1.2-.85,4.011,4.011,0,0,0,.55-1.7,8.475,8.475,0,0,1,.05-1.15,14.051,14.051,0,0,1,.05-1.45c0-.55-.05-1.1-.05-1.65v-4.05c0-.6.05-1.15.05-1.7a2.434,2.434,0,0,1,.05-.6.333.333,0,0,1,.25-.35c.1-.05.2.1.3.2a.69.69,0,0,1,.15.2c.15.55.45,1.05.65,1.6.45.95.85,1.9,1.3,2.85.4.75.75,1.55,1.15,2.25A17.672,17.672,0,0,0,33.8-4.15a7.632,7.632,0,0,1,.8,1.1,9.129,9.129,0,0,0,.65.8,1.93,1.93,0,0,0,1.95.65,2.116,2.116,0,0,0,1.55-1.35A8.044,8.044,0,0,0,39.1-4.8c.2-1.2.25-2.45.35-3.65.05-.95.05-1.85.1-2.8l.15-2.8c.05-1.05.1-2.15.05-3.2V-18c.05-.75.05-1.5.05-2.2v-3.45l.05-.65a4.826,4.826,0,0,1,0-.85,9.144,9.144,0,0,0-.1-1.65,4.643,4.643,0,0,1-.2-.65,2.961,2.961,0,0,0-1-1.75,1.746,1.746,0,0,0-1.2-.5,2.162,2.162,0,0,0-1.75,1.15,5.268,5.268,0,0,0-.6,1.9,6.839,6.839,0,0,0-.1,1.45c-.05.55-.05,1.65-.05,2.15v2.5c-.05.3,0,.6-.05.9a6.094,6.094,0,0,0,0,1.35c.05.55,0,1.05,0,1.6v2.6c-.05.1-.05.25-.25.3-.15,0-.2-.1-.3-.2,0-.05-.05-.1-.05-.15-.35-.65-.6-1.35-.9-2-.4-1.05-.8-2.1-1.25-3.15-.35-.85-.7-1.65-1-2.5a13.462,13.462,0,0,1-.65-1.6l-.75-1.75A4.156,4.156,0,0,0,28-27.2a2.408,2.408,0,0,0-1.65-.4,2.524,2.524,0,0,0-2.05,1.85,15.068,15.068,0,0,0-.5,3.3l-.15,2.6c-.05.9-.15,1.8-.15,2.7-.05.6,0,1.2-.05,1.8a9.3,9.3,0,0,0-.05,2.05v1.7c0,.75-.05,1.45,0,2.2,0,.55-.05,1.15,0,1.75,0,.3.05.65.05.95a11.276,11.276,0,0,0,0,1.3,7.042,7.042,0,0,1,.05,1,13.087,13.087,0,0,0,.1,1.9,2,2,0,0,0,.55,1.15A2.145,2.145,0,0,0,26.45-.6ZM49.8-1.25A2.335,2.335,0,0,0,51-2.55a5.25,5.25,0,0,0,.4-1.75c.05-.55,0-1.15.1-1.75.1-.9,0-1.8.05-2.7.15-1.05,0-2.15.15-3.2.05-.75-.05-1.45.05-2.2.1-.55.05-1.15.1-1.75.1-.55-.05-1.15.1-1.7-.05-.9.15-1.8.15-2.7-.05-.8,0-1.6,0-2.4a6.7,6.7,0,0,1,.05-1,2.127,2.127,0,0,1,.7-1.15c.05-.05.1-.15.2-.15a5.51,5.51,0,0,0,.9-.1,18.633,18.633,0,0,0,2.35-.05,3.342,3.342,0,0,0,1.25-.4.26.26,0,0,0,.2-.1,2.614,2.614,0,0,0,.85-.6,1.682,1.682,0,0,0,.2-1.1,1.852,1.852,0,0,0-1.05-1.3,3.264,3.264,0,0,0-1.8-.5c-1.4,0-2.85,0-4.3.05-1.25.1-2.55.05-3.8.05H44.2c-.3,0-.6.05-.9.05a2.229,2.229,0,0,0-1.9,1.5,1.664,1.664,0,0,0-.05.7,1.073,1.073,0,0,0,.2.75A2.375,2.375,0,0,0,43.65-25h2.8a.775.775,0,0,1,.75.45,3.636,3.636,0,0,1,.35,1.45,23.509,23.509,0,0,1-.05,3.25c-.1.65,0,1.35-.1,2.05-.1.55,0,1.05-.1,1.6s0,1.1-.1,1.7c-.1.7,0,1.45-.1,2.15-.1.95,0,1.95-.1,2.9-.1,1,0,2-.1,3-.05.8,0,1.6,0,2.35a2.922,2.922,0,0,0,.1.95,2.37,2.37,0,0,0,.6,1.35A1.89,1.89,0,0,0,49.8-1.25Zm18.7-.7c.05,0,.15-.05.2,0A.845.845,0,0,0,69.4-2a8.409,8.409,0,0,1,1.2-.35,11.006,11.006,0,0,0,2.55-1.6c.45-.4.85-.9,1.3-1.3a7.823,7.823,0,0,0,1.15-1.7,17.062,17.062,0,0,0,.85-1.65,20.576,20.576,0,0,0,1.35-4.2,17.3,17.3,0,0,0,.45-4.25,14.423,14.423,0,0,0-.1-2.05c-.05-.15-.05-.3-.1-.5-.1-.45-.15-1.05-.3-1.55-.15-.4-.2-.8-.35-1.15a16.153,16.153,0,0,0-1-2.1,12.047,12.047,0,0,0-1.8-2.4,6.535,6.535,0,0,0-.6-.55,5.771,5.771,0,0,0-1.45-1,9.982,9.982,0,0,0-3.15-.95,7.228,7.228,0,0,0-1.8,0,9.548,9.548,0,0,0-2.25.65A12.207,12.207,0,0,0,62.6-26.9a9.6,9.6,0,0,0-1.4,1.45,3.776,3.776,0,0,0-.55.7,6.3,6.3,0,0,0-.5,1.65l-.15.85a22.915,22.915,0,0,0-.5,3.15c-.05.55-.1,1.15-.1,1.7-.05.65-.05,1.35-.1,2.05,0,.5,0,1.05.05,1.6l.15,1.7a22.871,22.871,0,0,0,.7,3.6c.2.45.35.9.5,1.3a10.814,10.814,0,0,0,1.1,1.8A11.009,11.009,0,0,0,63.45-3.6a7.989,7.989,0,0,0,2,1.15A5.883,5.883,0,0,0,68.5-1.95Zm.05-4.45a1.814,1.814,0,0,1-1.95-.45A5.614,5.614,0,0,1,65.15-9.3a6.686,6.686,0,0,1-.5-1.9c-.05-.2-.2-.35-.2-.55-.05-.7-.1-1.4-.2-2.1-.05-.55-.05-1.1-.05-1.65a35.008,35.008,0,0,1,.3-4l.4-2.35a1.877,1.877,0,0,1,.6-1.05A5.873,5.873,0,0,1,67-24.1a3.6,3.6,0,0,1,2.4-.3c.2.05.4.15.55.2a5.758,5.758,0,0,1,2.1,2c.35.6.55,1.25.85,1.85v.05c.05.55.35,1,.35,1.5a12.1,12.1,0,0,1,.1,1.9,16.218,16.218,0,0,1-.55,3.8,12.35,12.35,0,0,1-.95,2.7,8.7,8.7,0,0,1-.9,1.65,6.868,6.868,0,0,1-.65,1A4.246,4.246,0,0,1,68.55-6.4ZM91.7-1.05a5.142,5.142,0,0,0,1.75,0,17.26,17.26,0,0,0,3.2-1.1c.6-.3,1.15-.6,1.7-.9A18.721,18.721,0,0,0,101.1-5.1c.75-.7,1.4-1.55,2.1-2.3l1-1.3c.3-.4.55-.8.8-1.2.35-.55.65-1.1.95-1.65.2-.45.35-.9.55-1.35a12.329,12.329,0,0,0,.85-3.85c0-.3-.1-.6-.1-.9a5.329,5.329,0,0,0-.3-1.55,11.026,11.026,0,0,0-1.05-2.5,18.111,18.111,0,0,0-1.35-2.05,13.668,13.668,0,0,0-1.65-1.75c-.4-.35-.85-.7-1.3-1.05A21.059,21.059,0,0,0,99.05-28a17.7,17.7,0,0,0-1.7-.8,10.2,10.2,0,0,0-3-.5c-.25.05-.5-.05-.7.05a6.793,6.793,0,0,0-1.4.55,2.5,2.5,0,0,0-1.3,1.85,11.628,11.628,0,0,0-.25,1.4c-.05.5-.15,1-.2,1.5,0,.1.05.15,0,.2a.748.748,0,0,0-.05.65c0,.25-.15.5-.1.75,0,.55-.15,1.1-.1,1.65l-.05.05c-.15.5-.05,1.1-.15,1.65-.1.5-.05,1.05-.1,1.55-.1.85.05,1.7-.1,2.55-.05,2.4.05,4.8-.1,7.15a8.066,8.066,0,0,0,0,1.1,22.858,22.858,0,0,0,.15,3.2,3.671,3.671,0,0,0,.75,1.75A1.9,1.9,0,0,0,91.7-1.05ZM95.1-6.1a.519.519,0,0,1-.65-.4v-3.7c-.05-2,.15-4.15.1-6.3a10.87,10.87,0,0,0,.1-1.8,9.709,9.709,0,0,1,.1-1.2c.15-.5,0-1.05.2-1.55v-.1c-.05-.55.1-1.05.1-1.6,0-.3.1-.55.1-.85a.184.184,0,0,1,.05-.15.844.844,0,0,1,.85-.4,5.882,5.882,0,0,1,1,.35,14.418,14.418,0,0,1,1.9,1.1,10.234,10.234,0,0,1,1.85,1.75,14.423,14.423,0,0,1,1.15,1.7,5.837,5.837,0,0,1,.55,1.4,4.387,4.387,0,0,1,.1,1.8,5.714,5.714,0,0,1-.45,1.5,19.259,19.259,0,0,1-2.2,3.8,28.187,28.187,0,0,1-3.3,3.6,5.327,5.327,0,0,1-1.4.95Zm19.25,4.2c.55.1,1.1-.1,1.65-.05a13.176,13.176,0,0,0,1.4-.1,2.777,2.777,0,0,0,1.75-.85,1.612,1.612,0,0,0,.45-1.3,1.956,1.956,0,0,0-.95-1.4,4.283,4.283,0,0,0-2.05-.5c-.55-.05-1.1,0-1.65,0a.99.99,0,0,1-1.1-.95,7.3,7.3,0,0,1-.15-1.1v-2.6c.05-.7.2-.9.9-1.1h.35a10.426,10.426,0,0,1,1.25,0,5.78,5.78,0,0,0,1.85-.35,2.221,2.221,0,0,0,1.65-2.2,2.075,2.075,0,0,0-1.3-1.9,5.35,5.35,0,0,0-2.15-.45c-.5.05-1,0-1.55.05a.534.534,0,0,1-.45-.35,1.408,1.408,0,0,1-.2-1,2.439,2.439,0,0,0,.05-.85c.05-1.2.05-2.35.05-3.5,0-.6.35-1.05.95-1,.95,0,1.85-.15,2.75-.15a2.922,2.922,0,0,0,.95-.1,2.959,2.959,0,0,0,1.85-1.2,1.957,1.957,0,0,0,.05-2.25,3.321,3.321,0,0,0-2.4-1.3c-1.35-.05-2.7.1-4.05.15-.05,0-.05-.05-.1,0-.5.15-1.05.05-1.55.15a8.27,8.27,0,0,0-1.6.35,2.6,2.6,0,0,0-1.7,1.35,1.936,1.936,0,0,0-.15,1.4.552.552,0,0,1,0,.4.74.74,0,0,0,0,.65v.25c.05.7.1,1.35.1,2a21.048,21.048,0,0,1-.05,3.55c-.1.6-.05,1.25-.1,1.85-.1.6-.05,1.15-.1,1.75-.1.85-.05,1.65-.1,2.5a22.894,22.894,0,0,0-.05,2.7c.1.7-.05,1.7.1,2.75a9.16,9.16,0,0,0,.45,1.95,3.751,3.751,0,0,0,2.5,2.4A10.348,10.348,0,0,0,114.35-1.9ZM135.7-.85a2.384,2.384,0,0,0,1.65-1.65,3.329,3.329,0,0,0,.2-1.55.634.634,0,0,1-.05-.3,5.658,5.658,0,0,0,0-1.85v-.15a4.342,4.342,0,0,0,.05-1.15,4.422,4.422,0,0,0,0-1.15c0-.05.05-.1.1-.15a2.389,2.389,0,0,1,.5-1.15,1.127,1.127,0,0,1,.9-.65,4.166,4.166,0,0,0,.75-.2,6.49,6.49,0,0,0,1.85-.95,10.222,10.222,0,0,0,2.15-2,11.837,11.837,0,0,0,1.1-1.65,10.5,10.5,0,0,0,1.35-3.8,11.766,11.766,0,0,0,.1-2.65,1.589,1.589,0,0,0-.1-.7c-.15-.35-.15-.8-.3-1.15-.15-.4-.25-.8-.4-1.15a11.485,11.485,0,0,0-1.05-1.65,8.857,8.857,0,0,0-1.35-1.4,8.311,8.311,0,0,0-2.75-1.35,9.453,9.453,0,0,0-2.9-.4,5.676,5.676,0,0,0-2.4.6,3.215,3.215,0,0,0-1.65,1.7A5.627,5.627,0,0,0,133-24.8a7.384,7.384,0,0,1-.05,1.05,10.429,10.429,0,0,0,0,1.25v.25a1.039,1.039,0,0,0-.05.55c.05.2-.1.35-.05.55a4.819,4.819,0,0,1,0,1.2,4.276,4.276,0,0,1,0,.8,9.634,9.634,0,0,0-.05,1.2,11.266,11.266,0,0,0,0,1.3,2.506,2.506,0,0,1-.05.85v.6c.05.2-.1.4-.05.65.1.45-.05.9.05,1.35v.1c-.15.2-.05.4,0,.6,0,.25-.1.45-.05.65a9.609,9.609,0,0,1,0,1.2c0,.5-.1,1.05-.05,1.55,0,.05.05.1,0,.15a.7.7,0,0,0,0,.55c.05.25-.1.45-.05.65a5.223,5.223,0,0,1,0,1.25,4.816,4.816,0,0,1,0,.85,1.219,1.219,0,0,0,0,.6,10.089,10.089,0,0,0,0,1.25v.15a2.668,2.668,0,0,0,1.15,2.55A2.1,2.1,0,0,0,135.7-.85ZM138.05-15c-.05-.15-.25-.2-.25-.4,0-.4-.2-.8-.05-1.2v-.15a8.165,8.165,0,0,1,.05-1.55v-.85a10.425,10.425,0,0,1,0-1.25,7.384,7.384,0,0,1,.05-1.05c.05-.05,0-.1,0-.15a19.27,19.27,0,0,1,.1-2.4,1.172,1.172,0,0,1,.55-.9.573.573,0,0,1,.5-.05,2.622,2.622,0,0,1,.9.5A4.464,4.464,0,0,1,141-23a6.332,6.332,0,0,1,.3.9c0,.25.05.5.05.7a7.312,7.312,0,0,1-.4,3.45,4.962,4.962,0,0,1-1.3,2.2,4.916,4.916,0,0,1-.75.6.845.845,0,0,1-.5.15C138.3-15,138.15-14.9,138.05-15ZM153.4-1.9c.55.1,1.1-.1,1.65-.05a13.176,13.176,0,0,0,1.4-.1,2.777,2.777,0,0,0,1.75-.85,1.612,1.612,0,0,0,.45-1.3,1.956,1.956,0,0,0-.95-1.4,4.283,4.283,0,0,0-2.05-.5c-.55-.05-1.1,0-1.65,0a.99.99,0,0,1-1.1-.95,7.3,7.3,0,0,1-.15-1.1v-2.6c.05-.7.2-.9.9-1.1H154a10.426,10.426,0,0,1,1.25,0,5.78,5.78,0,0,0,1.85-.35,2.221,2.221,0,0,0,1.65-2.2,2.075,2.075,0,0,0-1.3-1.9,5.35,5.35,0,0,0-2.15-.45c-.5.05-1,0-1.55.05a.534.534,0,0,1-.45-.35,1.408,1.408,0,0,1-.2-1,2.439,2.439,0,0,0,.05-.85c.05-1.2.05-2.35.05-3.5,0-.6.35-1.05.95-1,.95,0,1.85-.15,2.75-.15a2.922,2.922,0,0,0,.95-.1,2.959,2.959,0,0,0,1.85-1.2,1.957,1.957,0,0,0,.05-2.25,3.321,3.321,0,0,0-2.4-1.3c-1.35-.05-2.7.1-4.05.15-.05,0-.05-.05-.1,0-.5.15-1.05.05-1.55.15a8.27,8.27,0,0,0-1.6.35,2.6,2.6,0,0,0-1.7,1.35,1.936,1.936,0,0,0-.15,1.4.552.552,0,0,1,0,.4.74.74,0,0,0,0,.65v.25c.05.7.1,1.35.1,2a21.048,21.048,0,0,1-.05,3.55c-.1.6-.05,1.25-.1,1.85-.1.6-.05,1.15-.1,1.75-.1.85-.05,1.65-.1,2.5a22.894,22.894,0,0,0-.05,2.7c.1.7-.05,1.7.1,2.75a9.159,9.159,0,0,0,.45,1.95,3.751,3.751,0,0,0,2.5,2.4A10.348,10.348,0,0,0,153.4-1.9ZM163.95-.5a2.69,2.69,0,0,0,1.65-.15,4.255,4.255,0,0,1,.85-.3A21.826,21.826,0,0,0,169.3-2.4a7.042,7.042,0,0,0,2.35-2.15,8.971,8.971,0,0,0,1-1.95,7.946,7.946,0,0,0,.5-2.95,10.752,10.752,0,0,0-.1-1.15,10.036,10.036,0,0,0-.65-2.4,13.679,13.679,0,0,0-2.5-3.6c-1-1.1-2.15-2.05-3.1-3.2a2.246,2.246,0,0,1-.5-2.4,4.3,4.3,0,0,1,1.7-2.4,5.76,5.76,0,0,1,1.6-.7,3.034,3.034,0,0,0,1.3-.4,2.126,2.126,0,0,0,1.1-1.8,2.05,2.05,0,0,0-.3-1.2,2.133,2.133,0,0,0-1.65-1.1,4.128,4.128,0,0,0-1.55.1,9.306,9.306,0,0,0-1.55.5,9.381,9.381,0,0,0-1.8,1.05,8.452,8.452,0,0,0-2.45,2.85,9.618,9.618,0,0,0-.7,1.65,6.715,6.715,0,0,0-.35,1.35,6.576,6.576,0,0,0,.1,2.2,8.552,8.552,0,0,0,.45,1.5,9.953,9.953,0,0,0,1.8,2.5c.75.85,1.6,1.6,2.4,2.4a10.792,10.792,0,0,1,1.35,1.65,5.615,5.615,0,0,1,.9,2.45,5.509,5.509,0,0,1-.1.9,3.207,3.207,0,0,1-1.1,2.05A9.161,9.161,0,0,1,165-5.25l-1.45.6a2.768,2.768,0,0,0-1.05.95,2.259,2.259,0,0,0,0,2.25A1.828,1.828,0,0,0,163.95-.5Zm19.9-1.45c.05,0,.15-.05.2,0a.846.846,0,0,0,.7-.05,8.408,8.408,0,0,1,1.2-.35,11.006,11.006,0,0,0,2.55-1.6c.45-.4.85-.9,1.3-1.3a7.823,7.823,0,0,0,1.15-1.7,17.058,17.058,0,0,0,.85-1.65,20.576,20.576,0,0,0,1.35-4.2,17.3,17.3,0,0,0,.45-4.25,14.424,14.424,0,0,0-.1-2.05c-.05-.15-.05-.3-.1-.5-.1-.45-.15-1.05-.3-1.55-.15-.4-.2-.8-.35-1.15a16.155,16.155,0,0,0-1-2.1,12.047,12.047,0,0,0-1.8-2.4,6.535,6.535,0,0,0-.6-.55,5.771,5.771,0,0,0-1.45-1,9.982,9.982,0,0,0-3.15-.95,7.228,7.228,0,0,0-1.8,0,9.548,9.548,0,0,0-2.25.65,12.206,12.206,0,0,0-2.75,1.75,9.6,9.6,0,0,0-1.4,1.45,3.776,3.776,0,0,0-.55.7,6.3,6.3,0,0,0-.5,1.65l-.15.85a22.917,22.917,0,0,0-.5,3.15c-.05.55-.1,1.15-.1,1.7-.05.65-.05,1.35-.1,2.05,0,.5,0,1.05.05,1.6l.15,1.7a22.874,22.874,0,0,0,.7,3.6c.2.45.35.9.5,1.3a10.815,10.815,0,0,0,1.1,1.8A11.009,11.009,0,0,0,178.8-3.6a7.99,7.99,0,0,0,2,1.15A5.883,5.883,0,0,0,183.85-1.95Zm.05-4.45a1.814,1.814,0,0,1-1.95-.45A5.614,5.614,0,0,1,180.5-9.3a6.686,6.686,0,0,1-.5-1.9c-.05-.2-.2-.35-.2-.55-.05-.7-.1-1.4-.2-2.1-.05-.55-.05-1.1-.05-1.65a35.01,35.01,0,0,1,.3-4l.4-2.35a1.877,1.877,0,0,1,.6-1.05,5.873,5.873,0,0,1,1.5-1.2,3.6,3.6,0,0,1,2.4-.3c.2.05.4.15.55.2a5.758,5.758,0,0,1,2.1,2c.35.6.55,1.25.85,1.85v.05c.05.55.35,1,.35,1.5a12.1,12.1,0,0,1,.1,1.9,16.218,16.218,0,0,1-.55,3.8,12.35,12.35,0,0,1-.95,2.7,8.7,8.7,0,0,1-.9,1.65,6.867,6.867,0,0,1-.65,1A4.246,4.246,0,0,1,183.9-6.4ZM-163.873,34.62a2.044,2.044,0,0,0,1.254-.114,3.234,3.234,0,0,1,.646-.228,16.587,16.587,0,0,0,2.166-1.1,5.352,5.352,0,0,0,1.786-1.634,6.819,6.819,0,0,0,.76-1.482,6.039,6.039,0,0,0,.38-2.242,8.174,8.174,0,0,0-.076-.874,7.629,7.629,0,0,0-.494-1.824,10.4,10.4,0,0,0-1.9-2.736c-.76-.836-1.634-1.558-2.356-2.432a1.707,1.707,0,0,1-.38-1.824,3.265,3.265,0,0,1,1.292-1.824,4.377,4.377,0,0,1,1.216-.532,2.306,2.306,0,0,0,.988-.3,1.615,1.615,0,0,0,.836-1.368,1.558,1.558,0,0,0-.228-.912,1.621,1.621,0,0,0-1.254-.836,3.138,3.138,0,0,0-1.178.076,7.073,7.073,0,0,0-1.178.38,7.129,7.129,0,0,0-1.368.8,6.423,6.423,0,0,0-1.862,2.166,7.309,7.309,0,0,0-.532,1.254,5.1,5.1,0,0,0-.266,1.026,5,5,0,0,0,.076,1.672,6.5,6.5,0,0,0,.342,1.14,7.564,7.564,0,0,0,1.368,1.9c.57.646,1.216,1.216,1.824,1.824a8.2,8.2,0,0,1,1.026,1.254A4.268,4.268,0,0,1-160.3,27.7a4.188,4.188,0,0,1-.076.684,2.437,2.437,0,0,1-.836,1.558,6.962,6.962,0,0,1-1.862,1.064l-1.1.456a2.1,2.1,0,0,0-.8.722,1.717,1.717,0,0,0,0,1.71A1.389,1.389,0,0,0-163.873,34.62Zm13.532-.79c.03,0,.09-.03.12,0a.507.507,0,0,0,.42-.03,5.046,5.046,0,0,1,.72-.21,6.6,6.6,0,0,0,1.53-.96c.27-.24.51-.54.78-.78a4.694,4.694,0,0,0,.69-1.02,10.238,10.238,0,0,0,.51-.99,12.346,12.346,0,0,0,.81-2.52,10.379,10.379,0,0,0,.27-2.55,8.652,8.652,0,0,0-.06-1.23c-.03-.09-.03-.18-.06-.3-.06-.27-.09-.63-.18-.93-.09-.24-.12-.48-.21-.69a9.693,9.693,0,0,0-.6-1.26,7.228,7.228,0,0,0-1.08-1.44,3.921,3.921,0,0,0-.36-.33,3.463,3.463,0,0,0-.87-.6,5.989,5.989,0,0,0-1.89-.57,4.337,4.337,0,0,0-1.08,0,5.729,5.729,0,0,0-1.35.39,7.324,7.324,0,0,0-1.65,1.05,5.763,5.763,0,0,0-.84.87,2.266,2.266,0,0,0-.33.42,3.779,3.779,0,0,0-.3.99l-.09.51a13.75,13.75,0,0,0-.3,1.89c-.03.33-.06.69-.06,1.02-.03.39-.03.81-.06,1.23,0,.3,0,.63.03.96l.09,1.02a13.722,13.722,0,0,0,.42,2.16c.12.27.21.54.3.78a6.49,6.49,0,0,0,.66,1.08,6.605,6.605,0,0,0,.99,1.05,4.794,4.794,0,0,0,1.2.69A3.53,3.53,0,0,0-150.341,33.83Zm.03-2.67a1.088,1.088,0,0,1-1.17-.27,3.368,3.368,0,0,1-.87-1.47,4.011,4.011,0,0,1-.3-1.14c-.03-.12-.12-.21-.12-.33-.03-.42-.06-.84-.12-1.26-.03-.33-.03-.66-.03-.99a21,21,0,0,1,.18-2.4l.24-1.41a1.126,1.126,0,0,1,.36-.63,3.524,3.524,0,0,1,.9-.72,2.159,2.159,0,0,1,1.44-.18c.12.03.24.09.33.12a3.455,3.455,0,0,1,1.26,1.2c.21.36.33.75.51,1.11v.03c.03.33.21.6.21.9a7.262,7.262,0,0,1,.06,1.14,9.731,9.731,0,0,1-.33,2.28,7.41,7.41,0,0,1-.57,1.62,5.221,5.221,0,0,1-.54.99,4.121,4.121,0,0,1-.39.6A2.548,2.548,0,0,1-150.311,31.16Zm9.24,3.39a4.082,4.082,0,0,0,1.2-.12,2.8,2.8,0,0,0,.93-.39,4,4,0,0,0,.87-.75,5.431,5.431,0,0,0,.54-.81,4.8,4.8,0,0,0,.42-1.83,8.6,8.6,0,0,0-.15-1.23,4.591,4.591,0,0,0-.42-1.23,6.958,6.958,0,0,0-1.05-1.59.457.457,0,0,1,0-.69c0-.03.03-.06.06-.09a10.4,10.4,0,0,0,.75-.87,7.077,7.077,0,0,0,1.14-1.95,5.175,5.175,0,0,0,.36-1.77c.03-.12-.06-.24-.06-.39a1.661,1.661,0,0,0-.06-.54,4.661,4.661,0,0,0-.51-1.2,3.949,3.949,0,0,0-1.14-1.2,3.9,3.9,0,0,0-1.71-.6,4.5,4.5,0,0,0-2.07.27,1.7,1.7,0,0,0-.93.84,2.776,2.776,0,0,0-.3,1.11,3.6,3.6,0,0,0-.09.6,4.431,4.431,0,0,1-.03.63,7.356,7.356,0,0,0-.06.81c-.06.39-.03.78-.06,1.17-.06.48-.03.96-.06,1.41-.06.84,0,1.68-.06,2.52-.06.75,0,1.47,0,2.43a23.623,23.623,0,0,0,.03,2.49c.03.18.03.36.06.54a1.657,1.657,0,0,0,.54.87,1.352,1.352,0,0,1,.3.42,1.961,1.961,0,0,0,.39.69A1.83,1.83,0,0,0-141.071,34.55Zm.63-11.07c-.15,0-.21-.03-.21-.21a4.416,4.416,0,0,1,0-.63,3.246,3.246,0,0,1,0-.54c.06-.3,0-.66.06-.96a2.5,2.5,0,0,1,.09-.66.6.6,0,0,1,.48-.36.437.437,0,0,1,.36.15,1.211,1.211,0,0,1,.45.93,1.626,1.626,0,0,1-.24.99,4.59,4.59,0,0,1-.78,1.2A.448.448,0,0,1-140.441,23.48Zm-.21,8.16c-.06-.03-.12-.06-.12-.15v-.06c.03-.54-.12-1.05-.06-1.5v-.78a.746.746,0,0,1,.03-.24c.03-.03,0-.12.09-.12a.141.141,0,0,1,.18.03,1.713,1.713,0,0,1,.39.63,2.633,2.633,0,0,1,.21.69,1.6,1.6,0,0,1-.15,1.17l-.09.18C-140.291,31.67-140.471,31.64-140.651,31.64Zm6.9,2.4a.962.962,0,0,0,.6-.3,2.617,2.617,0,0,0,.57-1.11,1.7,1.7,0,0,0,.06-.66c-.06-.42,0-.84-.03-1.26v-.06c.03-.09.03-.18.12-.21a.3.3,0,0,1,.3.09l.33.45a17.941,17.941,0,0,1,1.17,1.47,5.165,5.165,0,0,0,.96,1.02,1.463,1.463,0,0,0,1.44.18c.21-.06.33-.24.48-.39a1.219,1.219,0,0,0,.3-.9,2.141,2.141,0,0,0-.51-1.26c-.39-.54-.81-1.08-1.23-1.59-.36-.45-.72-.9-1.08-1.32-.12-.15-.12-.3-.21-.45a1.377,1.377,0,0,1,.3-.75,7.955,7.955,0,0,0,1.2-1.26,5.968,5.968,0,0,0,.69-1.08,4.524,4.524,0,0,0,.54-2.49,1.231,1.231,0,0,1-.03-.33,2.912,2.912,0,0,0-.33-1.02,4.06,4.06,0,0,0-1.53-1.65,5.012,5.012,0,0,0-2.25-.75,6.555,6.555,0,0,0-1.29.15,2.065,2.065,0,0,0-1.2.81,5.5,5.5,0,0,0-.39.72,3.628,3.628,0,0,0-.24,1.02,5.842,5.842,0,0,0-.06.75,5.311,5.311,0,0,1-.03.69c0,.39-.03.75-.06,1.14-.03.36-.06.72-.06,1.11a2.745,2.745,0,0,1-.03.48,6.025,6.025,0,0,0-.03.75c0,.21-.03.45-.03.66-.03.24-.03.48-.06.72a5.085,5.085,0,0,1-.03.69c-.03.42-.03.87-.03,1.29a2.635,2.635,0,0,0-.03.84c0,.03.03.06,0,.09a.585.585,0,0,0,0,.45,2.271,2.271,0,0,0-.03.45l.09,1.17a2.2,2.2,0,0,0,.51,1.17,1.579,1.579,0,0,0,.42.36A.982.982,0,0,0-133.751,34.04Zm1.92-9.6c-.24.09-.36.06-.36-.18a.516.516,0,0,1-.03-.24c.03-.21.03-.51.06-.81a5.29,5.29,0,0,0,0-.69,4.906,4.906,0,0,1,.06-.66c.06-.27.09-.27.33-.3a1,1,0,0,1,1.08.72,1.618,1.618,0,0,1-.09.75,2.89,2.89,0,0,1-.63,1.05A1.659,1.659,0,0,1-131.831,24.44Zm8.58,9.42c.33.06.66-.06.99-.03a7.906,7.906,0,0,0,.84-.06,1.666,1.666,0,0,0,1.05-.51.967.967,0,0,0,.27-.78,1.174,1.174,0,0,0-.57-.84,2.57,2.57,0,0,0-1.23-.3c-.33-.03-.66,0-.99,0a.594.594,0,0,1-.66-.57,4.381,4.381,0,0,1-.09-.66V28.55c.03-.42.12-.54.54-.66h.21a6.256,6.256,0,0,1,.75,0,3.468,3.468,0,0,0,1.11-.21,1.332,1.332,0,0,0,.99-1.32,1.245,1.245,0,0,0-.78-1.14,3.21,3.21,0,0,0-1.29-.27c-.3.03-.6,0-.93.03a.32.32,0,0,1-.27-.21.845.845,0,0,1-.12-.6,1.464,1.464,0,0,0,.03-.51c.03-.72.03-1.41.03-2.1,0-.36.21-.63.57-.6.57,0,1.11-.09,1.65-.09a1.753,1.753,0,0,0,.57-.06,1.776,1.776,0,0,0,1.11-.72,1.174,1.174,0,0,0,.03-1.35,1.993,1.993,0,0,0-1.44-.78c-.81-.03-1.62.06-2.43.09-.03,0-.03-.03-.06,0-.3.09-.63.03-.93.09a4.962,4.962,0,0,0-.96.21,1.561,1.561,0,0,0-1.02.81,1.162,1.162,0,0,0-.09.84.331.331,0,0,1,0,.24.444.444,0,0,0,0,.39v.15c.03.42.06.81.06,1.2a12.629,12.629,0,0,1-.03,2.13c-.06.36-.03.75-.06,1.11-.06.36-.03.69-.06,1.05-.06.51-.03.99-.06,1.5a13.736,13.736,0,0,0-.03,1.62c.06.42-.03,1.02.06,1.65a5.5,5.5,0,0,0,.27,1.17,2.251,2.251,0,0,0,1.5,1.44A6.209,6.209,0,0,0-123.251,33.86Zm15.99.39a1.4,1.4,0,0,0,.72-.78,3.15,3.15,0,0,0,.24-1.05c.03-.33,0-.69.06-1.05.06-.54,0-1.08.03-1.62.09-.63,0-1.29.09-1.92.03-.45-.03-.87.03-1.32.06-.33.03-.69.06-1.05.06-.33-.03-.69.06-1.02-.03-.54.09-1.08.09-1.62-.03-.48,0-.96,0-1.44a4.021,4.021,0,0,1,.03-.6,1.276,1.276,0,0,1,.42-.69c.03-.03.06-.09.12-.09a3.306,3.306,0,0,0,.54-.06,11.18,11.18,0,0,0,1.41-.03,2.005,2.005,0,0,0,.75-.24.156.156,0,0,0,.12-.06,1.569,1.569,0,0,0,.51-.36,1.009,1.009,0,0,0,.12-.66,1.111,1.111,0,0,0-.63-.78,1.959,1.959,0,0,0-1.08-.3c-.84,0-1.71,0-2.58.03-.75.06-1.53.03-2.28.03h-2.19c-.18,0-.36.03-.54.03a1.337,1.337,0,0,0-1.14.9,1,1,0,0,0-.03.42.644.644,0,0,0,.12.45,1.425,1.425,0,0,0,1.26.63h1.68a.465.465,0,0,1,.45.27,2.182,2.182,0,0,1,.21.87,14.1,14.1,0,0,1-.03,1.95c-.06.39,0,.81-.06,1.23-.06.33,0,.63-.06.96s0,.66-.06,1.02c-.06.42,0,.87-.06,1.29-.06.57,0,1.17-.06,1.74-.06.6,0,1.2-.06,1.8-.03.48,0,.96,0,1.41a1.754,1.754,0,0,0,.06.57,1.422,1.422,0,0,0,.36.81A1.134,1.134,0,0,0-107.261,34.25Zm11.22-.42c.03,0,.09-.03.12,0a.507.507,0,0,0,.42-.03,5.045,5.045,0,0,1,.72-.21,6.6,6.6,0,0,0,1.53-.96c.27-.24.51-.54.78-.78a4.694,4.694,0,0,0,.69-1.02,10.238,10.238,0,0,0,.51-.99,12.345,12.345,0,0,0,.81-2.52,10.379,10.379,0,0,0,.27-2.55,8.654,8.654,0,0,0-.06-1.23c-.03-.09-.03-.18-.06-.3-.06-.27-.09-.63-.18-.93-.09-.24-.12-.48-.21-.69a9.692,9.692,0,0,0-.6-1.26,7.228,7.228,0,0,0-1.08-1.44,3.921,3.921,0,0,0-.36-.33,3.463,3.463,0,0,0-.87-.6,5.989,5.989,0,0,0-1.89-.57,4.337,4.337,0,0,0-1.08,0,5.729,5.729,0,0,0-1.35.39,7.324,7.324,0,0,0-1.65,1.05,5.762,5.762,0,0,0-.84.87,2.266,2.266,0,0,0-.33.42,3.779,3.779,0,0,0-.3.99l-.09.51a13.749,13.749,0,0,0-.3,1.89c-.03.33-.06.69-.06,1.02-.03.39-.03.81-.06,1.23,0,.3,0,.63.03.96l.09,1.02a13.724,13.724,0,0,0,.42,2.16c.12.27.21.54.3.78a6.489,6.489,0,0,0,.66,1.08,6.605,6.605,0,0,0,.99,1.05,4.794,4.794,0,0,0,1.2.69A3.53,3.53,0,0,0-96.041,33.83Zm.03-2.67a1.088,1.088,0,0,1-1.17-.27,3.368,3.368,0,0,1-.87-1.47,4.012,4.012,0,0,1-.3-1.14c-.03-.12-.12-.21-.12-.33-.03-.42-.06-.84-.12-1.26-.03-.33-.03-.66-.03-.99a21,21,0,0,1,.18-2.4l.24-1.41a1.126,1.126,0,0,1,.36-.63,3.524,3.524,0,0,1,.9-.72,2.159,2.159,0,0,1,1.44-.18c.12.03.24.09.33.12a3.455,3.455,0,0,1,1.26,1.2c.21.36.33.75.51,1.11v.03c.03.33.21.6.21.9a7.262,7.262,0,0,1,.06,1.14,9.731,9.731,0,0,1-.33,2.28,7.41,7.41,0,0,1-.57,1.62,5.221,5.221,0,0,1-.54.99,4.121,4.121,0,0,1-.39.6A2.548,2.548,0,0,1-96.011,31.16Zm7.89,3.21a3.085,3.085,0,0,0,1.05,0,10.356,10.356,0,0,0,1.92-.66c.36-.18.69-.36,1.02-.54a11.233,11.233,0,0,0,1.65-1.23c.45-.42.84-.93,1.26-1.38l.6-.78c.18-.24.33-.48.48-.72.21-.33.39-.66.57-.99.12-.27.21-.54.33-.81a7.4,7.4,0,0,0,.51-2.31c0-.18-.06-.36-.06-.54a3.2,3.2,0,0,0-.18-.93,6.615,6.615,0,0,0-.63-1.5,10.867,10.867,0,0,0-.81-1.23,8.2,8.2,0,0,0-.99-1.05c-.24-.21-.51-.42-.78-.63a12.634,12.634,0,0,0-1.53-.87,10.618,10.618,0,0,0-1.02-.48,6.117,6.117,0,0,0-1.8-.3c-.15.03-.3-.03-.42.03a4.076,4.076,0,0,0-.84.33,1.5,1.5,0,0,0-.78,1.11,6.978,6.978,0,0,0-.15.84c-.03.3-.09.6-.12.9,0,.06.03.09,0,.12a.449.449,0,0,0-.03.39c0,.15-.09.3-.06.45,0,.33-.09.66-.06.99l-.03.03c-.09.3-.03.66-.09.99-.06.3-.03.63-.06.93-.06.51.03,1.02-.06,1.53-.03,1.44.03,2.88-.06,4.29a4.84,4.84,0,0,0,0,.66,13.715,13.715,0,0,0,.09,1.92,2.2,2.2,0,0,0,.45,1.05A1.137,1.137,0,0,0-88.121,34.37Zm2.04-3.03a.311.311,0,0,1-.39-.24V28.88c-.03-1.2.09-2.49.06-3.78a6.521,6.521,0,0,0,.06-1.08,5.826,5.826,0,0,1,.06-.72c.09-.3,0-.63.12-.93v-.06c-.03-.33.06-.63.06-.96,0-.18.06-.33.06-.51a.11.11,0,0,1,.03-.09.507.507,0,0,1,.51-.24,3.529,3.529,0,0,1,.6.21,8.651,8.651,0,0,1,1.14.66,6.141,6.141,0,0,1,1.11,1.05,8.653,8.653,0,0,1,.69,1.02,3.5,3.5,0,0,1,.33.84,2.632,2.632,0,0,1,.06,1.08,3.429,3.429,0,0,1-.27.9,11.555,11.555,0,0,1-1.32,2.28,16.912,16.912,0,0,1-1.98,2.16,3.2,3.2,0,0,1-.84.57Zm13.77,2.49c.03,0,.09-.03.12,0a.507.507,0,0,0,.42-.03,5.045,5.045,0,0,1,.72-.21,6.6,6.6,0,0,0,1.53-.96c.27-.24.51-.54.78-.78a4.694,4.694,0,0,0,.69-1.02,10.238,10.238,0,0,0,.51-.99,12.345,12.345,0,0,0,.81-2.52,10.379,10.379,0,0,0,.27-2.55,8.654,8.654,0,0,0-.06-1.23c-.03-.09-.03-.18-.06-.3-.06-.27-.09-.63-.18-.93-.09-.24-.12-.48-.21-.69a9.692,9.692,0,0,0-.6-1.26,7.228,7.228,0,0,0-1.08-1.44,3.921,3.921,0,0,0-.36-.33,3.463,3.463,0,0,0-.87-.6,5.989,5.989,0,0,0-1.89-.57,4.337,4.337,0,0,0-1.08,0,5.729,5.729,0,0,0-1.35.39,7.324,7.324,0,0,0-1.65,1.05,5.762,5.762,0,0,0-.84.87,2.266,2.266,0,0,0-.33.42,3.779,3.779,0,0,0-.3.99l-.09.51a13.749,13.749,0,0,0-.3,1.89c-.03.33-.06.69-.06,1.02-.03.39-.03.81-.06,1.23,0,.3,0,.63.03.96l.09,1.02a13.724,13.724,0,0,0,.42,2.16c.12.27.21.54.3.78a6.489,6.489,0,0,0,.66,1.08,6.605,6.605,0,0,0,.99,1.05,4.794,4.794,0,0,0,1.2.69A3.53,3.53,0,0,0-72.311,33.83Zm.03-2.67a1.088,1.088,0,0,1-1.17-.27,3.368,3.368,0,0,1-.87-1.47,4.012,4.012,0,0,1-.3-1.14c-.03-.12-.12-.21-.12-.33-.03-.42-.06-.84-.12-1.26-.03-.33-.03-.66-.03-.99a21,21,0,0,1,.18-2.4l.24-1.41a1.126,1.126,0,0,1,.36-.63,3.524,3.524,0,0,1,.9-.72,2.159,2.159,0,0,1,1.44-.18c.12.03.24.09.33.12a3.455,3.455,0,0,1,1.26,1.2c.21.36.33.75.51,1.11v.03c.03.33.21.6.21.9a7.262,7.262,0,0,1,.06,1.14,9.731,9.731,0,0,1-.33,2.28,7.41,7.41,0,0,1-.57,1.62,5.221,5.221,0,0,1-.54.99,4.121,4.121,0,0,1-.39.6A2.548,2.548,0,0,1-72.281,31.16Zm15.69,2.7h.99a5.3,5.3,0,0,0,.69,0c.3,0,.6,0,.93-.03a1.918,1.918,0,0,0,1.05-.63,1.394,1.394,0,0,0,.15-1.29,1.438,1.438,0,0,0-1.41-.9c-.57-.03-1.11,0-1.68,0a.779.779,0,0,1-.81-.84,4.246,4.246,0,0,1,.06-.87v-.57a2.144,2.144,0,0,1,.06-.63.572.572,0,0,1,.15-.3,1.409,1.409,0,0,1,1.08-.27,2.275,2.275,0,0,0,.78.03,1.583,1.583,0,0,0,.75-.24,1.266,1.266,0,0,0,.72-1.38,1.334,1.334,0,0,0-.93-1.08,4.159,4.159,0,0,0-1.35-.27,1.181,1.181,0,0,1-.63-.18.539.539,0,0,1-.33-.54,8.476,8.476,0,0,1,.06-.87,8.446,8.446,0,0,1,.06-1.23.873.873,0,0,1,.84-.78,20.853,20.853,0,0,0,2.73-.06,1.593,1.593,0,0,0,1.05-.51,1.407,1.407,0,0,0,.33-.93,1.413,1.413,0,0,0-.84-1.23,3.827,3.827,0,0,0-.99-.18c-.39-.03-.78.06-1.17.06-.9-.03-1.83,0-2.73,0a6.525,6.525,0,0,0-.75.03,1.548,1.548,0,0,0-1.08.75,2.337,2.337,0,0,0-.39,1.29c0,.33.09.66.06.99,0,.39,0,.81-.03,1.2-.06.63-.03,1.29-.06,1.95a10.779,10.779,0,0,0-.09,1.41v.03a7.021,7.021,0,0,0-.09,1.14,7.982,7.982,0,0,0-.06.9,9.943,9.943,0,0,0-.06,1.35,9.831,9.831,0,0,0,.03,2.1c.03.18.03.36.06.54a2.5,2.5,0,0,0,.99,1.47A3.322,3.322,0,0,0-56.591,33.86Zm8.1.78a1.389,1.389,0,0,0,.72-.51,2.407,2.407,0,0,0,.33-1.02,5.085,5.085,0,0,1,.03-.69,8.43,8.43,0,0,1,.03-.87c0-.33-.03-.66-.03-.99V28.13c0-.36.03-.69.03-1.02a1.461,1.461,0,0,1,.03-.36.2.2,0,0,1,.15-.21c.06-.03.12.06.18.12a.414.414,0,0,1,.09.12c.09.33.27.63.39.96.27.57.51,1.14.78,1.71.24.45.45.93.69,1.35a10.6,10.6,0,0,0,.99,1.71,4.579,4.579,0,0,1,.48.66,5.478,5.478,0,0,0,.39.48,1.158,1.158,0,0,0,1.17.39,1.269,1.269,0,0,0,.93-.81,4.827,4.827,0,0,0,.21-1.11c.12-.72.15-1.47.21-2.19.03-.57.03-1.11.06-1.68l.09-1.68c.03-.63.06-1.29.03-1.92V24.2c.03-.45.03-.9.03-1.32V20.81l.03-.39a2.9,2.9,0,0,1,0-.51,5.486,5.486,0,0,0-.06-.99,2.787,2.787,0,0,1-.12-.39,1.777,1.777,0,0,0-.6-1.05,1.048,1.048,0,0,0-.72-.3,1.3,1.3,0,0,0-1.05.69,3.161,3.161,0,0,0-.36,1.14,4.1,4.1,0,0,0-.06.87c-.03.33-.03.99-.03,1.29v1.5c-.03.18,0,.36-.03.54a3.656,3.656,0,0,0,0,.81c.03.33,0,.63,0,.96v1.56c-.03.06-.03.15-.15.18-.09,0-.12-.06-.18-.12,0-.03-.03-.06-.03-.09-.21-.39-.36-.81-.54-1.2-.24-.63-.48-1.26-.75-1.89-.21-.51-.42-.99-.6-1.5a8.077,8.077,0,0,1-.39-.96l-.45-1.05a2.494,2.494,0,0,0-.99-1.23,1.445,1.445,0,0,0-.99-.24,1.514,1.514,0,0,0-1.23,1.11,9.041,9.041,0,0,0-.3,1.98l-.09,1.56c-.03.54-.09,1.08-.09,1.62-.03.36,0,.72-.03,1.08a5.579,5.579,0,0,0-.03,1.23v1.02c0,.45-.03.87,0,1.32,0,.33-.03.69,0,1.05,0,.18.03.39.03.57a6.766,6.766,0,0,0,0,.78,4.225,4.225,0,0,1,.03.6,7.853,7.853,0,0,0,.06,1.14,1.2,1.2,0,0,0,.33.69A1.287,1.287,0,0,0-48.491,34.64Zm22.05-.06a1.527,1.527,0,0,0,.87-.45,1.266,1.266,0,0,0,.33-1.23,1.262,1.262,0,0,0-.48-.75,2.589,2.589,0,0,0-1.74-.45c-.09,0-.15.03-.21,0a14.711,14.711,0,0,0-1.62-.12h-.57a1.183,1.183,0,0,1-.6-.15.564.564,0,0,1-.36-.51,3.664,3.664,0,0,1,.03-.81,2.256,2.256,0,0,1,0-.45,7.356,7.356,0,0,0,.06-.81v-.78c0-.33.06-.66.03-.99v-.12c.09-.15.03-.3.03-.42-.03-.15.06-.27.03-.39-.06-.33.03-.66-.03-.99V25.1a3.836,3.836,0,0,0,.03-1.02c0-.24.03-.48.03-.72v-.54a5.857,5.857,0,0,0,.06-.69,5.085,5.085,0,0,1,.03-.69c.03-.39.03-.78.06-1.17a6.125,6.125,0,0,0,0-1.05,6.231,6.231,0,0,0-.15-.9,2.089,2.089,0,0,0-.33-.69,1.2,1.2,0,0,0-1.23-.36,1.325,1.325,0,0,0-.84.81,4.225,4.225,0,0,0-.21,1.35v.78c-.03.21,0,.39-.03.57a2.439,2.439,0,0,0-.03.66c0,.3-.03.6-.03.9a4.84,4.84,0,0,1,0,.66,5.464,5.464,0,0,0-.03.99v.15a4.519,4.519,0,0,0-.03.9,8.43,8.43,0,0,1-.03.87v.81a4.15,4.15,0,0,0-.03.87.056.056,0,0,1,0,.09,7.311,7.311,0,0,0-.03.81,4.645,4.645,0,0,1-.03.66c-.03.33-.03.63-.03.93,0,.24-.03.51-.03.75a2.256,2.256,0,0,1,0,.45,4.163,4.163,0,0,0,.12,1.38,1.858,1.858,0,0,0,.72.87,1.631,1.631,0,0,0,.69.33,4.859,4.859,0,0,0,1.14.27c.27.03.57.03.87.06a8.2,8.2,0,0,1,1.2.15,6.143,6.143,0,0,1,1.26.21A2.769,2.769,0,0,0-26.441,34.58Zm9.9-.39a1.311,1.311,0,0,0,.9-.87,3.048,3.048,0,0,0,.18-1.02c.03-.36,0-.75,0-1.11v-.93a9.085,9.085,0,0,0-.06-.93c0-.69.03-1.38-.03-2.07-.06-.54-.03-1.11-.06-1.65a5.859,5.859,0,0,1-.09-1.02c0-.03.03-.06,0-.06a.386.386,0,0,1-.03-.36c0-.15-.09-.24-.09-.39a5.6,5.6,0,0,0-.12-.96c-.03-.3-.15-.63-.21-.96a9.482,9.482,0,0,0-.51-1.56,7.748,7.748,0,0,0-.66-1.32,3.863,3.863,0,0,0-.66-.9,1.456,1.456,0,0,0-1.32-.45,1.026,1.026,0,0,0-.78.42,6.021,6.021,0,0,0-.84,1.56l-.78,1.95c-.21.6-.48,1.23-.69,1.86-.36.99-.69,2.01-.96,3.06-.12.51-.27,1.02-.36,1.53l-.27,1.41c-.09.48-.15.93-.21,1.41a4.1,4.1,0,0,0-.06.87v.06a.913.913,0,0,0,.03.63,1.533,1.533,0,0,0,.57.93.923.923,0,0,0,1.02.18,1.616,1.616,0,0,0,.39-.21,2.232,2.232,0,0,0,.63-.93c.06-.3.09-.63.15-.93l.18-1.32a.479.479,0,0,1,.15-.3,1.941,1.941,0,0,1,.24-.27.228.228,0,0,1,.27-.09c.3,0,.6,0,.9.03.33.03.69.06,1.05.06a.487.487,0,0,1,.27.15,1.011,1.011,0,0,1,.15.51c.03.84-.03,1.68.06,2.52a1.621,1.621,0,0,0,.63,1.26A.991.991,0,0,0-16.541,34.19Zm-2.43-7.44a1,1,0,0,1-.42-.03,1.345,1.345,0,0,0-.36-.03.593.593,0,0,1-.33-.06.353.353,0,0,1-.27-.36,1.524,1.524,0,0,1,.09-.51c.15-.54.36-1.08.54-1.65.18-.42.33-.87.51-1.32,0-.03.03-.06.06-.12a.227.227,0,0,1,.24-.09c.09,0,.12.09.12.15a3.138,3.138,0,0,1,.12.51c.06.36.09.72.18,1.08v.03c-.03.33.06.63.06.96a3.676,3.676,0,0,1,.06.57,1.585,1.585,0,0,1-.03.39A.61.61,0,0,1-18.971,26.75Zm12.96,7.2h.81a15.453,15.453,0,0,0,1.62-.06h.06a4.052,4.052,0,0,1,.84-.12,8.087,8.087,0,0,0,.84-.12,1.791,1.791,0,0,0,.96-.72,1.384,1.384,0,0,0,.18-.84,1.081,1.081,0,0,0-.39-.87,1.838,1.838,0,0,0-1.29-.45.091.091,0,0,0-.12,0c-.06.06-.15.03-.24.03-.36,0-.69.12-1.05.09h-.09a1.037,1.037,0,0,1-.6.03c-.24,0-.36-.15-.36-.39a1.06,1.06,0,0,1,.12-.51l.24-.45c.3-.72.63-1.44.96-2.13.24-.54.51-1.05.78-1.59.21-.48.45-.96.66-1.47.24-.6.51-1.23.72-1.86a11.2,11.2,0,0,0,.42-1.32c.09-.33.12-.66.21-.96a5.38,5.38,0,0,0-.03-.99,2.136,2.136,0,0,0-1.32-1.41,4.264,4.264,0,0,0-1.2-.24,4.658,4.658,0,0,0-.93-.09c-.03,0-.03.03-.06,0a3.27,3.27,0,0,0-.78-.09l-.63-.09a2.424,2.424,0,0,0-.93,0,1.381,1.381,0,0,0-.87.66,1.273,1.273,0,0,0-.18.99,1.367,1.367,0,0,0,.45.81,1.43,1.43,0,0,0,.66.36,6.266,6.266,0,0,0,1.47.24,3.459,3.459,0,0,0,.78.09c.09,0,.27.15.27.24a1.289,1.289,0,0,1,0,.48,7.508,7.508,0,0,1-.27.75c-.36.93-.75,1.83-1.17,2.73l-.99,2.07-.24.45c-.27.63-.54,1.26-.84,1.89-.27.57-.57,1.14-.81,1.74a2.3,2.3,0,0,0-.18,1.35,1.866,1.866,0,0,0,.96,1.38A3.53,3.53,0,0,0-6.011,33.95Zm11.73-.12c.03,0,.09-.03.12,0a.507.507,0,0,0,.42-.03,5.045,5.045,0,0,1,.72-.21,6.6,6.6,0,0,0,1.53-.96c.27-.24.51-.54.78-.78a4.694,4.694,0,0,0,.69-1.02,10.238,10.238,0,0,0,.51-.99,12.345,12.345,0,0,0,.81-2.52,10.379,10.379,0,0,0,.27-2.55,8.653,8.653,0,0,0-.06-1.23c-.03-.09-.03-.18-.06-.3-.06-.27-.09-.63-.18-.93-.09-.24-.12-.48-.21-.69a9.692,9.692,0,0,0-.6-1.26,7.228,7.228,0,0,0-1.08-1.44,3.921,3.921,0,0,0-.36-.33,3.463,3.463,0,0,0-.87-.6,5.989,5.989,0,0,0-1.89-.57,4.337,4.337,0,0,0-1.08,0,5.729,5.729,0,0,0-1.35.39,7.324,7.324,0,0,0-1.65,1.05,5.762,5.762,0,0,0-.84.87,2.265,2.265,0,0,0-.33.42,3.779,3.779,0,0,0-.3.99l-.09.51a13.749,13.749,0,0,0-.3,1.89c-.03.33-.06.69-.06,1.02-.03.39-.03.81-.06,1.23,0,.3,0,.63.03.96l.09,1.02a13.723,13.723,0,0,0,.42,2.16c.12.27.21.54.3.78a6.488,6.488,0,0,0,.66,1.08,6.605,6.605,0,0,0,.99,1.05,4.794,4.794,0,0,0,1.2.69A3.53,3.53,0,0,0,5.719,33.83Zm.03-2.67a1.088,1.088,0,0,1-1.17-.27,3.368,3.368,0,0,1-.87-1.47,4.012,4.012,0,0,1-.3-1.14c-.03-.12-.12-.21-.12-.33-.03-.42-.06-.84-.12-1.26-.03-.33-.03-.66-.03-.99a21.005,21.005,0,0,1,.18-2.4l.24-1.41a1.126,1.126,0,0,1,.36-.63,3.524,3.524,0,0,1,.9-.72,2.159,2.159,0,0,1,1.44-.18c.12.03.24.09.33.12a3.455,3.455,0,0,1,1.26,1.2c.21.36.33.75.51,1.11v.03c.03.33.21.6.21.9a7.261,7.261,0,0,1,.06,1.14,9.731,9.731,0,0,1-.33,2.28,7.41,7.41,0,0,1-.57,1.62,5.221,5.221,0,0,1-.54.99,4.12,4.12,0,0,1-.39.6A2.547,2.547,0,0,1,5.749,31.16Zm8.58,3.48a1.389,1.389,0,0,0,.72-.51,2.407,2.407,0,0,0,.33-1.02,5.085,5.085,0,0,1,.03-.69,8.431,8.431,0,0,1,.03-.87c0-.33-.03-.66-.03-.99V28.13c0-.36.03-.69.03-1.02a1.461,1.461,0,0,1,.03-.36.2.2,0,0,1,.15-.21c.06-.03.12.06.18.12a.414.414,0,0,1,.09.12c.09.33.27.63.39.96.27.57.51,1.14.78,1.71.24.45.45.93.69,1.35a10.6,10.6,0,0,0,.99,1.71,4.58,4.58,0,0,1,.48.66,5.477,5.477,0,0,0,.39.48,1.158,1.158,0,0,0,1.17.39,1.269,1.269,0,0,0,.93-.81,4.827,4.827,0,0,0,.21-1.11c.12-.72.15-1.47.21-2.19.03-.57.03-1.11.06-1.68l.09-1.68c.03-.63.06-1.29.03-1.92V24.2c.03-.45.03-.9.03-1.32V20.81l.03-.39a2.9,2.9,0,0,1,0-.51,5.486,5.486,0,0,0-.06-.99,2.786,2.786,0,0,1-.12-.39,1.777,1.777,0,0,0-.6-1.05,1.048,1.048,0,0,0-.72-.3,1.3,1.3,0,0,0-1.05.69,3.161,3.161,0,0,0-.36,1.14,4.1,4.1,0,0,0-.06.87c-.03.33-.03.99-.03,1.29v1.5c-.03.18,0,.36-.03.54a3.656,3.656,0,0,0,0,.81c.03.33,0,.63,0,.96v1.56c-.03.06-.03.15-.15.18-.09,0-.12-.06-.18-.12,0-.03-.03-.06-.03-.09-.21-.39-.36-.81-.54-1.2-.24-.63-.48-1.26-.75-1.89-.21-.51-.42-.99-.6-1.5a8.077,8.077,0,0,1-.39-.96l-.45-1.05a2.494,2.494,0,0,0-.99-1.23,1.445,1.445,0,0,0-.99-.24,1.514,1.514,0,0,0-1.23,1.11,9.041,9.041,0,0,0-.3,1.98l-.09,1.56c-.03.54-.09,1.08-.09,1.62-.03.36,0,.72-.03,1.08a5.579,5.579,0,0,0-.03,1.23v1.02c0,.45-.03.87,0,1.32,0,.33-.03.69,0,1.05,0,.18.03.39.03.57a6.765,6.765,0,0,0,0,.78,4.225,4.225,0,0,1,.03.6,7.852,7.852,0,0,0,.06,1.14,1.2,1.2,0,0,0,.33.69A1.287,1.287,0,0,0,14.329,34.64Zm16.71-.45a1.311,1.311,0,0,0,.9-.87,3.047,3.047,0,0,0,.18-1.02c.03-.36,0-.75,0-1.11v-.93a9.085,9.085,0,0,0-.06-.93c0-.69.03-1.38-.03-2.07-.06-.54-.03-1.11-.06-1.65a5.859,5.859,0,0,1-.09-1.02c0-.03.03-.06,0-.06a.386.386,0,0,1-.03-.36c0-.15-.09-.24-.09-.39a5.6,5.6,0,0,0-.12-.96c-.03-.3-.15-.63-.21-.96a9.482,9.482,0,0,0-.51-1.56,7.748,7.748,0,0,0-.66-1.32,3.863,3.863,0,0,0-.66-.9,1.456,1.456,0,0,0-1.32-.45,1.026,1.026,0,0,0-.78.42,6.021,6.021,0,0,0-.84,1.56l-.78,1.95c-.21.6-.48,1.23-.69,1.86-.36.99-.69,2.01-.96,3.06-.12.51-.27,1.02-.36,1.53l-.27,1.41c-.09.48-.15.93-.21,1.41a4.1,4.1,0,0,0-.06.87v.06a.913.913,0,0,0,.03.63,1.533,1.533,0,0,0,.57.93.923.923,0,0,0,1.02.18,1.616,1.616,0,0,0,.39-.21,2.232,2.232,0,0,0,.63-.93c.06-.3.09-.63.15-.93l.18-1.32a.479.479,0,0,1,.15-.3,1.941,1.941,0,0,1,.24-.27.228.228,0,0,1,.27-.09c.3,0,.6,0,.9.03.33.03.69.06,1.05.06a.487.487,0,0,1,.27.15,1.011,1.011,0,0,1,.15.51c.03.84-.03,1.68.06,2.52a1.621,1.621,0,0,0,.63,1.26A.991.991,0,0,0,31.039,34.19Zm-2.43-7.44a1,1,0,0,1-.42-.03,1.345,1.345,0,0,0-.36-.03.593.593,0,0,1-.33-.06.353.353,0,0,1-.27-.36,1.524,1.524,0,0,1,.09-.51c.15-.54.36-1.08.54-1.65.18-.42.33-.87.51-1.32,0-.03.03-.06.06-.12a.227.227,0,0,1,.24-.09c.09,0,.12.09.12.15a3.138,3.138,0,0,1,.12.51c.06.36.09.72.18,1.08v.03c-.03.33.06.63.06.96a3.676,3.676,0,0,1,.06.57,1.585,1.585,0,0,1-.03.39A.61.61,0,0,1,28.609,26.75Zm11.58,7.62a3.085,3.085,0,0,0,1.05,0,10.356,10.356,0,0,0,1.92-.66c.36-.18.69-.36,1.02-.54a11.233,11.233,0,0,0,1.65-1.23c.45-.42.84-.93,1.26-1.38l.6-.78c.18-.24.33-.48.48-.72.21-.33.39-.66.57-.99.12-.27.21-.54.33-.81a7.4,7.4,0,0,0,.51-2.31c0-.18-.06-.36-.06-.54a3.2,3.2,0,0,0-.18-.93,6.616,6.616,0,0,0-.63-1.5,10.866,10.866,0,0,0-.81-1.23,8.2,8.2,0,0,0-.99-1.05c-.24-.21-.51-.42-.78-.63a12.635,12.635,0,0,0-1.53-.87,10.618,10.618,0,0,0-1.02-.48,6.117,6.117,0,0,0-1.8-.3c-.15.03-.3-.03-.42.03a4.076,4.076,0,0,0-.84.33,1.5,1.5,0,0,0-.78,1.11,6.976,6.976,0,0,0-.15.84c-.03.3-.09.6-.12.9,0,.06.03.09,0,.12a.449.449,0,0,0-.03.39c0,.15-.09.3-.06.45,0,.33-.09.66-.06.99l-.03.03c-.09.3-.03.66-.09.99-.06.3-.03.63-.06.93-.06.51.03,1.02-.06,1.53-.03,1.44.03,2.88-.06,4.29a4.84,4.84,0,0,0,0,.66,13.715,13.715,0,0,0,.09,1.92,2.2,2.2,0,0,0,.45,1.05A1.137,1.137,0,0,0,40.189,34.37Zm2.04-3.03a.311.311,0,0,1-.39-.24V28.88c-.03-1.2.09-2.49.06-3.78a6.521,6.521,0,0,0,.06-1.08,5.826,5.826,0,0,1,.06-.72c.09-.3,0-.63.12-.93v-.06c-.03-.33.06-.63.06-.96,0-.18.06-.33.06-.51a.11.11,0,0,1,.03-.09.507.507,0,0,1,.51-.24,3.529,3.529,0,0,1,.6.21,8.651,8.651,0,0,1,1.14.66,6.141,6.141,0,0,1,1.11,1.05,8.653,8.653,0,0,1,.69,1.02,3.5,3.5,0,0,1,.33.84,2.632,2.632,0,0,1,.06,1.08,3.429,3.429,0,0,1-.27.9,11.555,11.555,0,0,1-1.32,2.28,16.912,16.912,0,0,1-1.98,2.16,3.2,3.2,0,0,1-.84.57Zm11.55,2.52c.33.06.66-.06.99-.03a7.906,7.906,0,0,0,.84-.06,1.666,1.666,0,0,0,1.05-.51.967.967,0,0,0,.27-.78,1.174,1.174,0,0,0-.57-.84,2.57,2.57,0,0,0-1.23-.3c-.33-.03-.66,0-.99,0a.594.594,0,0,1-.66-.57,4.381,4.381,0,0,1-.09-.66V28.55c.03-.42.12-.54.54-.66h.21a6.256,6.256,0,0,1,.75,0A3.468,3.468,0,0,0,56,27.68a1.332,1.332,0,0,0,.99-1.32,1.245,1.245,0,0,0-.78-1.14,3.21,3.21,0,0,0-1.29-.27c-.3.03-.6,0-.93.03a.32.32,0,0,1-.27-.21.845.845,0,0,1-.12-.6,1.464,1.464,0,0,0,.03-.51c.03-.72.03-1.41.03-2.1,0-.36.21-.63.57-.6.57,0,1.11-.09,1.65-.09a1.754,1.754,0,0,0,.57-.06,1.776,1.776,0,0,0,1.11-.72,1.174,1.174,0,0,0,.03-1.35,1.993,1.993,0,0,0-1.44-.78c-.81-.03-1.62.06-2.43.09-.03,0-.03-.03-.06,0-.3.09-.63.03-.93.09a4.962,4.962,0,0,0-.96.21,1.561,1.561,0,0,0-1.02.81,1.162,1.162,0,0,0-.09.84.331.331,0,0,1,0,.24.444.444,0,0,0,0,.39v.15c.03.42.06.81.06,1.2a12.628,12.628,0,0,1-.03,2.13c-.06.36-.03.75-.06,1.11-.06.36-.03.69-.06,1.05-.06.51-.03.99-.06,1.5a13.737,13.737,0,0,0-.03,1.62c.06.42-.03,1.02.06,1.65a5.5,5.5,0,0,0,.27,1.17,2.251,2.251,0,0,0,1.5,1.44A6.209,6.209,0,0,0,53.779,33.86Zm18.03.72a1.527,1.527,0,0,0,.87-.45,1.344,1.344,0,0,0-.15-1.98,2.589,2.589,0,0,0-1.74-.45c-.09,0-.15.03-.21,0a14.712,14.712,0,0,0-1.62-.12h-.57a1.183,1.183,0,0,1-.6-.15.564.564,0,0,1-.36-.51,3.664,3.664,0,0,1,.03-.81,2.256,2.256,0,0,1,0-.45,7.356,7.356,0,0,0,.06-.81v-.78c0-.33.06-.66.03-.99v-.12c.09-.15.03-.3.03-.42-.03-.15.06-.27.03-.39-.06-.33.03-.66-.03-.99V25.1a3.837,3.837,0,0,0,.03-1.02c0-.24.03-.48.03-.72v-.54a5.858,5.858,0,0,0,.06-.69,5.084,5.084,0,0,1,.03-.69c.03-.39.03-.78.06-1.17a6.125,6.125,0,0,0,0-1.05,6.23,6.23,0,0,0-.15-.9,2.089,2.089,0,0,0-.33-.69,1.2,1.2,0,0,0-1.23-.36,1.325,1.325,0,0,0-.84.81,4.225,4.225,0,0,0-.21,1.35v.78c-.03.21,0,.39-.03.57a2.439,2.439,0,0,0-.03.66c0,.3-.03.6-.03.9a4.84,4.84,0,0,1,0,.66,5.463,5.463,0,0,0-.03.99v.15a4.518,4.518,0,0,0-.03.9,8.431,8.431,0,0,1-.03.87v.81a4.15,4.15,0,0,0-.03.87.056.056,0,0,1,0,.09,7.311,7.311,0,0,0-.03.81,4.645,4.645,0,0,1-.03.66c-.03.33-.03.63-.03.93,0,.24-.03.51-.03.75a2.255,2.255,0,0,1,0,.45,4.163,4.163,0,0,0,.12,1.38,1.858,1.858,0,0,0,.72.87,1.631,1.631,0,0,0,.69.33,4.859,4.859,0,0,0,1.14.27c.27.03.57.03.87.06a8.2,8.2,0,0,1,1.2.15,6.143,6.143,0,0,1,1.26.21A2.769,2.769,0,0,0,71.809,34.58Zm9.9-.39a1.311,1.311,0,0,0,.9-.87,3.048,3.048,0,0,0,.18-1.02c.03-.36,0-.75,0-1.11v-.93a9.086,9.086,0,0,0-.06-.93c0-.69.03-1.38-.03-2.07-.06-.54-.03-1.11-.06-1.65a5.859,5.859,0,0,1-.09-1.02c0-.03.03-.06,0-.06a.386.386,0,0,1-.03-.36c0-.15-.09-.24-.09-.39a5.6,5.6,0,0,0-.12-.96c-.03-.3-.15-.63-.21-.96a9.483,9.483,0,0,0-.51-1.56,7.748,7.748,0,0,0-.66-1.32,3.863,3.863,0,0,0-.66-.9,1.456,1.456,0,0,0-1.32-.45,1.026,1.026,0,0,0-.78.42,6.021,6.021,0,0,0-.84,1.56l-.78,1.95c-.21.6-.48,1.23-.69,1.86-.36.99-.69,2.01-.96,3.06-.12.51-.27,1.02-.36,1.53l-.27,1.41c-.09.48-.15.93-.21,1.41a4.1,4.1,0,0,0-.06.87v.06a.913.913,0,0,0,.03.63,1.533,1.533,0,0,0,.57.93.923.923,0,0,0,1.02.18,1.616,1.616,0,0,0,.39-.21,2.232,2.232,0,0,0,.63-.93c.06-.3.09-.63.15-.93l.18-1.32a.479.479,0,0,1,.15-.3,1.941,1.941,0,0,1,.24-.27.228.228,0,0,1,.27-.09c.3,0,.6,0,.9.03.33.03.69.06,1.05.06a.487.487,0,0,1,.27.15,1.011,1.011,0,0,1,.15.51c.03.84-.03,1.68.06,2.52a1.621,1.621,0,0,0,.63,1.26A.991.991,0,0,0,81.709,34.19Zm-2.43-7.44a1,1,0,0,1-.42-.03,1.345,1.345,0,0,0-.36-.03.593.593,0,0,1-.33-.06.353.353,0,0,1-.27-.36,1.524,1.524,0,0,1,.09-.51c.15-.54.36-1.08.54-1.65.18-.42.33-.87.51-1.32,0-.03.03-.06.06-.12a.227.227,0,0,1,.24-.09c.09,0,.12.09.12.15a3.139,3.139,0,0,1,.12.51c.06.36.09.72.18,1.08v.03c-.03.33.06.63.06.96a3.676,3.676,0,0,1,.06.57,1.585,1.585,0,0,1-.03.39A.61.61,0,0,1,79.279,26.75Zm15.54,7.53a2.818,2.818,0,0,0,.87,0,1.086,1.086,0,0,0,.69-.45.9.9,0,0,0,.15-.78,1.153,1.153,0,0,0-.39-.66,3.522,3.522,0,0,0-.81-.45,1.528,1.528,0,0,1-.51-.21,7.427,7.427,0,0,1-1.08-.84,3.372,3.372,0,0,1-.87-1.38,4.888,4.888,0,0,1-.36-1.95,12.518,12.518,0,0,1,.03-1.5c.06-.33.09-.66.15-.96a6.664,6.664,0,0,1,.33-1.17,9.683,9.683,0,0,1,.72-1.74,6.316,6.316,0,0,1,1.17-1.5,1.28,1.28,0,0,1,1.2-.36,2.125,2.125,0,0,0,.87,0,1.581,1.581,0,0,0,.9-.81,1.749,1.749,0,0,0,.06-.69,1.536,1.536,0,0,0-.3-.63,1.781,1.781,0,0,0-.87-.54c-.33-.09-.66-.06-.99-.12a.091.091,0,0,0-.12,0c-.06.06-.15.03-.21.03a1.2,1.2,0,0,0-.57.09,4.033,4.033,0,0,0-1.71.87,6.59,6.59,0,0,0-1.23,1.35,13.1,13.1,0,0,0-.96,1.65,17.938,17.938,0,0,0-.75,2.13,12.1,12.1,0,0,0-.45,2.31,5.281,5.281,0,0,0-.06,1.2,5.781,5.781,0,0,0,.03.72c.03.36.06.72.12,1.11.06.33.15.63.24.96a6.316,6.316,0,0,0,.57,1.41,7.088,7.088,0,0,0,.99,1.35,2.591,2.591,0,0,0,.42.39,4.283,4.283,0,0,0,2.01,1.02A6.144,6.144,0,0,0,94.819,34.28Zm4.86-1.44a1.23,1.23,0,0,0,1.71-.18,2.619,2.619,0,0,0,.6-1.8,5,5,0,0,0-.06-.96v-.09a.585.585,0,0,0,0-.45,2.271,2.271,0,0,0,.03-.45,3.022,3.022,0,0,1-.03-.9,4.816,4.816,0,0,1,0-.93c.03-.21-.03-.42,0-.63.03-.33.03-.66.03-.99,0-.36.03-.69.03-1.05,0-.39.03-.75.06-1.14V22.7c.03-.39.03-.78.06-1.17v-.51c0-.27.03-.51.03-.78-.03-.15-.09-.3-.12-.45a1.307,1.307,0,0,0-.57-.75,1.21,1.21,0,0,0-1.05-.27,1.582,1.582,0,0,0-.36.09,1.529,1.529,0,0,0-.81.81.9.9,0,0,0-.12.3,4.1,4.1,0,0,0-.06.87c-.03.39-.03.78-.06,1.17v.54c-.03.39-.03.78-.06,1.14-.03.21,0,.42-.03.66a1.629,1.629,0,0,0,0,.54,2.067,2.067,0,0,1-.03.6c-.03.33-.03.69-.03,1.05v.69c-.03.45,0,.9,0,1.35,0,.42,0,.87.03,1.29a6.143,6.143,0,0,0,.03,1.05v.12a.58.58,0,0,0,0,.39,5.169,5.169,0,0,0,.21.63A2.5,2.5,0,0,0,99.679,32.84Zm5.22,1.8a1.389,1.389,0,0,0,.72-.51,2.407,2.407,0,0,0,.33-1.02,5.085,5.085,0,0,1,.03-.69,8.431,8.431,0,0,1,.03-.87c0-.33-.03-.66-.03-.99V28.13c0-.36.03-.69.03-1.02a1.461,1.461,0,0,1,.03-.36.2.2,0,0,1,.15-.21c.06-.03.12.06.18.12a.414.414,0,0,1,.09.12c.09.33.27.63.39.96.27.57.51,1.14.78,1.71.24.45.45.93.69,1.35a10.6,10.6,0,0,0,.99,1.71,4.579,4.579,0,0,1,.48.66,5.478,5.478,0,0,0,.39.48,1.158,1.158,0,0,0,1.17.39,1.269,1.269,0,0,0,.93-.81,4.827,4.827,0,0,0,.21-1.11c.12-.72.15-1.47.21-2.19.03-.57.03-1.11.06-1.68l.09-1.68c.03-.63.06-1.29.03-1.92V24.2c.03-.45.03-.9.03-1.32V20.81l.03-.39a2.9,2.9,0,0,1,0-.51,5.486,5.486,0,0,0-.06-.99,2.787,2.787,0,0,1-.12-.39,1.777,1.777,0,0,0-.6-1.05,1.048,1.048,0,0,0-.72-.3,1.3,1.3,0,0,0-1.05.69,3.161,3.161,0,0,0-.36,1.14,4.1,4.1,0,0,0-.06.87c-.03.33-.03.99-.03,1.29v1.5c-.03.18,0,.36-.03.54a3.656,3.656,0,0,0,0,.81c.03.33,0,.63,0,.96v1.56c-.03.06-.03.15-.15.18-.09,0-.12-.06-.18-.12,0-.03-.03-.06-.03-.09-.21-.39-.36-.81-.54-1.2-.24-.63-.48-1.26-.75-1.89-.21-.51-.42-.99-.6-1.5a8.078,8.078,0,0,1-.39-.96l-.45-1.05a2.494,2.494,0,0,0-.99-1.23,1.445,1.445,0,0,0-.99-.24,1.514,1.514,0,0,0-1.23,1.11,9.041,9.041,0,0,0-.3,1.98l-.09,1.56c-.03.54-.09,1.08-.09,1.62-.03.36,0,.72-.03,1.08a5.578,5.578,0,0,0-.03,1.23v1.02c0,.45-.03.87,0,1.32,0,.33-.03.69,0,1.05,0,.18.03.39.03.57a6.766,6.766,0,0,0,0,.78,4.225,4.225,0,0,1,.03.6,7.853,7.853,0,0,0,.06,1.14,1.2,1.2,0,0,0,.33.69A1.287,1.287,0,0,0,104.9,34.64Zm14.01-.39a1.4,1.4,0,0,0,.72-.78,3.15,3.15,0,0,0,.24-1.05c.03-.33,0-.69.06-1.05.06-.54,0-1.08.03-1.62.09-.63,0-1.29.09-1.92.03-.45-.03-.87.03-1.32.06-.33.03-.69.06-1.05.06-.33-.03-.69.06-1.02-.03-.54.09-1.08.09-1.62-.03-.48,0-.96,0-1.44a4.021,4.021,0,0,1,.03-.6,1.276,1.276,0,0,1,.42-.69c.03-.03.06-.09.12-.09a3.306,3.306,0,0,0,.54-.06,11.18,11.18,0,0,0,1.41-.03,2.005,2.005,0,0,0,.75-.24.156.156,0,0,0,.12-.06,1.569,1.569,0,0,0,.51-.36,1.009,1.009,0,0,0,.12-.66,1.111,1.111,0,0,0-.63-.78,1.959,1.959,0,0,0-1.08-.3c-.84,0-1.71,0-2.58.03-.75.06-1.53.03-2.28.03h-2.19c-.18,0-.36.03-.54.03a1.337,1.337,0,0,0-1.14.9,1,1,0,0,0-.03.42.644.644,0,0,0,.12.45,1.425,1.425,0,0,0,1.26.63h1.68a.465.465,0,0,1,.45.27,2.182,2.182,0,0,1,.21.87,14.1,14.1,0,0,1-.03,1.95c-.06.39,0,.81-.06,1.23-.06.33,0,.63-.06.96s0,.66-.06,1.02c-.06.42,0,.87-.06,1.29-.06.57,0,1.17-.06,1.74-.06.6,0,1.2-.06,1.8-.03.48,0,.96,0,1.41a1.754,1.754,0,0,0,.06.57,1.422,1.422,0,0,0,.36.81A1.134,1.134,0,0,0,118.909,34.25Zm11.07-.57a4.065,4.065,0,0,0,1.05-.03,3.507,3.507,0,0,0,.6-.18,3.972,3.972,0,0,0,.96-.6,5.366,5.366,0,0,0,.84-.81,5.819,5.819,0,0,0,.45-.72,9,9,0,0,0,.93-2.13,16.845,16.845,0,0,0,.39-1.77c.03-.27.12-.54.15-.84.06-.69.18-1.41.24-2.1,0-.45.06-.87.09-1.32a2.566,2.566,0,0,1,0-.48,2.492,2.492,0,0,0,.03-.66c0-.24.03-.48.03-.72,0-.21-.03-.39-.03-.57a5.139,5.139,0,0,0,.03-.96,1.3,1.3,0,0,1-.03-.15,1.71,1.71,0,0,0-.15-1.02,1.511,1.511,0,0,0-1.92-.81,1.291,1.291,0,0,0-.63.57,2.277,2.277,0,0,0-.3,1.41v.78c-.03.45,0,.9-.03,1.35a4,4,0,0,0,0,.6,5,5,0,0,0-.06.96c0,.51-.09.99-.12,1.5-.06.66-.18,1.32-.3,1.95a13.78,13.78,0,0,1-.72,2.7,2.886,2.886,0,0,1-.6.96.559.559,0,0,1-.69.15,2.443,2.443,0,0,1-.84-.72,3.876,3.876,0,0,1-.81-1.98c-.09-.87-.24-1.71-.27-2.61a6.955,6.955,0,0,0-.03-1.11v-.09a3.136,3.136,0,0,0,0-.75c.03-.24,0-.51.03-.75V21.47c.03-.36.03-.75.03-1.11a2.424,2.424,0,0,1,.03-.48,1.272,1.272,0,0,0-.21-.93,1.482,1.482,0,0,0-1.05-.72,1.5,1.5,0,0,0-.96.18,1.6,1.6,0,0,0-.66.81,4.158,4.158,0,0,0-.21,1.47v.72a3.246,3.246,0,0,1,0,.54,3.461,3.461,0,0,0-.03.78,6.764,6.764,0,0,1,0,.78c-.03.45.03.9,0,1.38a3.2,3.2,0,0,0,.03.75c0,.45.09.93.09,1.38a2.251,2.251,0,0,0,.06.6c-.03.42.18.9.21,1.41a.093.093,0,0,0,.03.06c.12.36.21.78.36,1.14a6.068,6.068,0,0,0,.99,1.71,4.141,4.141,0,0,0,1.2,1.08A4.52,4.52,0,0,0,129.979,33.68Zm8.43.36a.962.962,0,0,0,.6-.3,2.617,2.617,0,0,0,.57-1.11,1.7,1.7,0,0,0,.06-.66c-.06-.42,0-.84-.03-1.26v-.06c.03-.09.03-.18.12-.21a.3.3,0,0,1,.3.09l.33.45a17.941,17.941,0,0,1,1.17,1.47,5.165,5.165,0,0,0,.96,1.02,1.463,1.463,0,0,0,1.44.18c.21-.06.33-.24.48-.39a1.219,1.219,0,0,0,.3-.9,2.141,2.141,0,0,0-.51-1.26c-.39-.54-.81-1.08-1.23-1.59-.36-.45-.72-.9-1.08-1.32-.12-.15-.12-.3-.21-.45a1.377,1.377,0,0,1,.3-.75,7.955,7.955,0,0,0,1.2-1.26,5.968,5.968,0,0,0,.69-1.08,4.524,4.524,0,0,0,.54-2.49,1.231,1.231,0,0,1-.03-.33,2.913,2.913,0,0,0-.33-1.02,4.06,4.06,0,0,0-1.53-1.65,5.012,5.012,0,0,0-2.25-.75,6.555,6.555,0,0,0-1.29.15,2.065,2.065,0,0,0-1.2.81,5.5,5.5,0,0,0-.39.72,3.628,3.628,0,0,0-.24,1.02,5.842,5.842,0,0,0-.06.75,5.311,5.311,0,0,1-.03.69c0,.39-.03.75-.06,1.14-.03.36-.06.72-.06,1.11a2.745,2.745,0,0,1-.03.48,6.025,6.025,0,0,0-.03.75c0,.21-.03.45-.03.66-.03.24-.03.48-.06.72a5.085,5.085,0,0,1-.03.69c-.03.42-.03.87-.03,1.29a2.635,2.635,0,0,0-.03.84c0,.03.03.06,0,.09a.585.585,0,0,0,0,.45,2.271,2.271,0,0,0-.03.45l.09,1.17a2.2,2.2,0,0,0,.51,1.17,1.579,1.579,0,0,0,.42.36A.982.982,0,0,0,138.409,34.04Zm1.92-9.6c-.24.09-.36.06-.36-.18a.516.516,0,0,1-.03-.24c.03-.21.03-.51.06-.81a5.29,5.29,0,0,0,0-.69,4.906,4.906,0,0,1,.06-.66c.06-.27.09-.27.33-.3a1,1,0,0,1,1.08.72,1.618,1.618,0,0,1-.09.75,2.89,2.89,0,0,1-.63,1.05A1.659,1.659,0,0,1,140.329,24.44Zm13.05,9.75a1.311,1.311,0,0,0,.9-.87,3.047,3.047,0,0,0,.18-1.02c.03-.36,0-.75,0-1.11v-.93a9.086,9.086,0,0,0-.06-.93c0-.69.03-1.38-.03-2.07-.06-.54-.03-1.11-.06-1.65a5.859,5.859,0,0,1-.09-1.02c0-.03.03-.06,0-.06a.386.386,0,0,1-.03-.36c0-.15-.09-.24-.09-.39a5.6,5.6,0,0,0-.12-.96c-.03-.3-.15-.63-.21-.96a9.483,9.483,0,0,0-.51-1.56,7.748,7.748,0,0,0-.66-1.32,3.863,3.863,0,0,0-.66-.9,1.456,1.456,0,0,0-1.32-.45,1.026,1.026,0,0,0-.78.42,6.022,6.022,0,0,0-.84,1.56l-.78,1.95c-.21.6-.48,1.23-.69,1.86-.36.99-.69,2.01-.96,3.06-.12.51-.27,1.02-.36,1.53l-.27,1.41c-.09.48-.15.93-.21,1.41a4.1,4.1,0,0,0-.06.87v.06a.913.913,0,0,0,.03.63,1.533,1.533,0,0,0,.57.93.923.923,0,0,0,1.02.18,1.617,1.617,0,0,0,.39-.21,2.232,2.232,0,0,0,.63-.93c.06-.3.09-.63.15-.93l.18-1.32a.479.479,0,0,1,.15-.3,1.941,1.941,0,0,1,.24-.27.228.228,0,0,1,.27-.09c.3,0,.6,0,.9.03.33.03.69.06,1.05.06a.487.487,0,0,1,.27.15,1.011,1.011,0,0,1,.15.51c.03.84-.03,1.68.06,2.52a1.621,1.621,0,0,0,.63,1.26A.991.991,0,0,0,153.379,34.19Zm-2.43-7.44a1,1,0,0,1-.42-.03,1.345,1.345,0,0,0-.36-.03.593.593,0,0,1-.33-.06.353.353,0,0,1-.27-.36,1.524,1.524,0,0,1,.09-.51c.15-.54.36-1.08.54-1.65.18-.42.33-.87.51-1.32,0-.03.03-.06.06-.12a.227.227,0,0,1,.24-.09c.09,0,.12.09.12.15a3.139,3.139,0,0,1,.12.51c.06.36.09.72.18,1.08v.03c-.03.33.06.63.06.96a3.676,3.676,0,0,1,.06.57,1.585,1.585,0,0,1-.03.39A.61.61,0,0,1,150.949,26.75Zm5.7,8.07a3.518,3.518,0,0,0,.72-.27,1.339,1.339,0,0,0,.72-.84,1.169,1.169,0,0,0,.03-.78,1.692,1.692,0,0,0-.12-.36,1.717,1.717,0,0,0-1.38-.72c-.09-.03-.18.06-.3.09a1.159,1.159,0,0,0-.84.69,1.71,1.71,0,0,0-.12.66,1.446,1.446,0,0,1,0,.36,1.249,1.249,0,0,0,.51.99A.789.789,0,0,0,156.649,34.82Z" transform="translate(1142.001 2147.875)" fill="#12c6c1"/>
    <g id="Grupo_3150" data-name="Grupo 3150" transform="translate(1067.001 1990.283)">
      <g id="Grupo_3149" data-name="Grupo 3149" clip-path="url(#clip-path)">
        <path id="Trazado_3132" data-name="Trazado 3132" d="M67.132,157.348a17.832,17.832,0,0,1-14.481-7.758,72.936,72.936,0,0,1-6.255-10.9,1.551,1.551,0,1,1,2.814-1.3A69.666,69.666,0,0,0,55.2,147.817c3.741,5.366,10.382,7.715,16.144,5.724l.614-.225a25.692,25.692,0,0,1,18.555,0l.606.221c5.782,2.006,12.414-.355,16.148-5.717a69.192,69.192,0,0,0,6.823-12.3,75.493,75.493,0,0,0,5.866-29.18c0-4-1.835-11.217-4.115-14.165A20.508,20.508,0,0,0,99.848,84a21.123,21.123,0,0,0-9.794,2.49L84.76,89.4a7.228,7.228,0,0,1-7.052,0L72.414,86.49A21.159,21.159,0,0,0,62.62,84,20.508,20.508,0,0,0,46.629,92.18c-2.319,3-4.115,9.9-4.115,13.836a78.748,78.748,0,0,0,1.075,12.857,1.551,1.551,0,0,1-1.274,1.785,1.511,1.511,0,0,1-1.785-1.274,81.627,81.627,0,0,1-1.121-13.368c0-4.527,1.957-12.1,4.763-15.736A23.625,23.625,0,0,1,62.59,80.895a24.262,24.262,0,0,1,11.32,2.879L79.2,86.688a4.2,4.2,0,0,0,4.062,0l5.294-2.913A23.072,23.072,0,0,1,118.3,90.28c2.727,3.532,4.764,11.392,4.764,16.065a78.7,78.7,0,0,1-6.118,30.4,72.364,72.364,0,0,1-7.128,12.845c-4.527,6.5-12.624,9.336-19.7,6.877-.24-.08-.488-.168-.732-.267a22.537,22.537,0,0,0-16.3,0l-.732.267a15.955,15.955,0,0,1-5.217.873" transform="translate(-25.583 -52.513)" fill="#002e66"/>
        <path id="Trazado_3133" data-name="Trazado 3133" d="M131.877,40.755h-.042a1.556,1.556,0,0,1-1.51-1.594C130.843,19.432,126.8,13.2,118.108,7.4a1.551,1.551,0,0,1,1.724-2.578c9.447,6.308,14.146,13.364,13.6,34.428a1.552,1.552,0,0,1-1.552,1.51" transform="translate(-76.223 -2.957)" fill="#002e66"/>
        <path id="Trazado_3134" data-name="Trazado 3134" d="M156.065,37.8a1.551,1.551,0,0,1-1.533-1.338c-.076-.542-1.77-13.372,5.088-23.337S179.07.159,179.6.037a1.593,1.593,0,0,1,1.228.233,1.556,1.556,0,0,1,.656,1.064c.076.541,1.77,13.371-5.088,23.341a29.28,29.28,0,0,1-7.651,7.468A1.553,1.553,0,1,1,167,29.579a26.088,26.088,0,0,0,6.85-6.667c4.741-6.888,4.9-15.625,4.714-19.344-3.539,1.156-11.644,4.424-16.385,11.316-6.159,8.951-4.585,21.026-4.569,21.148a1.555,1.555,0,0,1-1.323,1.751,2.157,2.157,0,0,1-.218.015" transform="translate(-100.16 0)" fill="#002e66"/>
        <path id="Trazado_3135" data-name="Trazado 3135" d="M57.873,186.722H14.211A14.229,14.229,0,0,1,0,172.511v-11.7A7.163,7.163,0,0,1,7.156,153.5h8.223a1.552,1.552,0,1,1,0,3.1H7.156A4.059,4.059,0,0,0,3.1,160.581a.506.506,0,0,1,0,.076v.137c0,.1.008.191.019.282a4.27,4.27,0,0,0,4.352,3.631h50.4a3.905,3.905,0,0,1,3.9,3.9V182.82a3.906,3.906,0,0,1-3.9,3.9M3.105,166.447v6.064a11.117,11.117,0,0,0,11.106,11.106H57.873a.8.8,0,0,0,.793-.8V168.606a.793.793,0,0,0-.793-.793H7.476a7.683,7.683,0,0,1-4.371-1.365" transform="translate(0 -99.645)" fill="#002e66"/>
        <path id="Trazado_3136" data-name="Trazado 3136" d="M35.331,194.978a1.551,1.551,0,0,1-1.552-1.552V187a1.552,1.552,0,1,1,3.1,0v6.426a1.551,1.551,0,0,1-1.552,1.552" transform="translate(-21.928 -120.384)" fill="#002e66"/>
        <path id="Trazado_3137" data-name="Trazado 3137" d="M68.573,194.978a1.551,1.551,0,0,1-1.552-1.552V187a1.552,1.552,0,1,1,3.1,0v6.426a1.551,1.551,0,0,1-1.552,1.552" transform="translate(-43.507 -120.384)" fill="#002e66"/>
        <path id="Trazado_3138" data-name="Trazado 3138" d="M101.826,194.978a1.551,1.551,0,0,1-1.552-1.552V187a1.552,1.552,0,1,1,3.1,0v6.426a1.551,1.551,0,0,1-1.552,1.552" transform="translate(-65.093 -120.384)" fill="#002e66"/>
        <path id="Trazado_3139" data-name="Trazado 3139" d="M135.079,194.978a1.551,1.551,0,0,1-1.552-1.552V187a1.552,1.552,0,1,1,3.1,0v6.426a1.551,1.551,0,0,1-1.552,1.552" transform="translate(-86.68 -120.384)" fill="#002e66"/>
      </g>
    </g>
  </g>
</svg>
