<?xml version="1.0" encoding="utf-8"?>
<!-- Generator: Adobe Illustrator 27.4.1, SVG Export Plug-In . SVG Version: 6.00 Build 0)  -->
<svg version="1.1" id="Layer_1" xmlns="http://www.w3.org/2000/svg" xmlns:xlink="http://www.w3.org/1999/xlink" x="0px" y="0px"
	 viewBox="0 0 125.3 125.2" style="enable-background:new 0 0 125.3 125.2;" xml:space="preserve">
<style type="text/css">
	.st0{fill:#033782;}
	.st1{fill:#FFFFFF;}
	.st2{clip-path:url(#SVGID_00000097458939794941290260000002534551910884585095_);}
	.st3{fill:#D52B1E;}
	.st4{clip-path:url(#SVGID_00000133515942616741162040000013790933157040297142_);}
	.st5{clip-path:url(#SVGID_00000182487980943352669060000012310778883737884046_);}
	.st6{clip-path:url(#SVGID_00000072959991074681373090000001317202836088979097_);}
	.st7{clip-path:url(#SVGID_00000044162367633243126440000002701318020317677225_);}
	.st8{clip-path:url(#SVGID_00000086669179082968951100000002441659419815407757_);}
	.st9{clip-path:url(#SVGID_00000018196770315564343640000015170202955095170950_);}
	.st10{clip-path:url(#SVGID_00000161621939553947020310000015252645753147164822_);}
	.st11{clip-path:url(#SVGID_00000043450926867239491030000008209696124552911259_);}
	.st12{clip-path:url(#SVGID_00000179623776126981654180000015882836242472546192_);}
</style>
<g id="Group_10339" transform="translate(-1259 -5321.465)">
	<circle id="Ellipse_102_00000118380210762776206320000011033370401306426019_" class="st3" cx="1321.6" cy="5384.1" r="62.3"/>
	<g id="_002-escala-corporal_00000161614891590329520790000000726659334835876488_" transform="translate(1287.506 5350.813)">
		<circle id="Ellipse_101_00000163034005965028902520000007781648801076495261_" class="st1" cx="34.1" cy="66.6" r="1.3"/>
		<path id="Path_997_00000116952045885864958170000013433179842143294892_" class="st1" d="M58.6,0.4h-49c-5.1,0-9.2,4.2-9.3,9.3
			c0,0,0,0,0,0l2.6,49c0,5.1,4.2,9.2,9.3,9.2h15.9c0.7,0,1.3-0.6,1.3-1.3c0-0.7-0.6-1.3-1.3-1.3H12.3c-3.7,0-6.6-3-6.6-6.6
			c0,0,0,0,0,0L3,9.6C3,5.9,6,3,9.6,3h49c3.6,0,6.6,2.9,6.6,6.6l-2.6,49c0,0,0,0,0,0c0,3.7-3,6.6-6.6,6.6H40.1
			c-0.7,0-1.3,0.6-1.3,1.3c0,0.7,0.6,1.3,1.3,1.3H56c5.1,0,9.2-4.1,9.2-9.2l2.6-49c0,0,0,0,0,0C67.9,4.5,63.8,0.4,58.6,0.4z"/>
		<path id="Path_998_00000159452273378329549510000006710120749202048164_" class="st1" d="M20.7,30.6h26.9c0.5,0,1-0.3,1.2-0.8
			l5.7-13.1c0.2-0.6,0.1-1.2-0.4-1.6c-5.8-4.4-12.8-6.7-20-6.8l0,0c-7.2,0-14.3,2.4-20.1,6.8c-0.5,0.4-0.6,1-0.4,1.6l5.7,13.1
			C19.7,30.3,20.1,30.6,20.7,30.6z M34.1,24.5c1.4,0,2.7,0.3,3.9,0.8c1.2,0.5,2.3,1.5,2.9,2.7H27.3C28.3,26,31,24.5,34.1,24.5
			L34.1,24.5z M21.8,13.7l1,2.2c0.3,0.7,1.1,0.9,1.8,0.6s0.9-1.1,0.6-1.8l-1-2c2.8-1,5.7-1.5,8.6-1.6v2.3c0,0.7,0.6,1.3,1.3,1.3
			c0.7,0,1.3-0.6,1.3-1.3v-2.3c2.9,0.1,5.8,0.7,8.6,1.6l-0.9,2.2c-0.3,0.7,0.1,1.4,0.7,1.7c0.7,0.3,1.4-0.1,1.7-0.7l0,0l0.9-2.2
			c1.8,0.8,3.6,1.8,5.2,3l-5,11.3h-3c-0.7-2.3-2.3-4.2-4.5-5.1c-3.2-1.5-6.9-1.5-10.2,0l-1.8-3.9c-0.3-0.7-1.1-0.9-1.8-0.6
			c-0.7,0.3-0.9,1.1-0.6,1.8l2,4.2c-1.1,0.9-1.9,2.2-2.3,3.6h-3l-5-11.3C18.2,15.5,19.9,14.5,21.8,13.7z"/>
		<path id="Path_999_00000057115608937442315430000017879133386870682010_" class="st1" d="M20.7,35.9h26.9c0.7,0,1.3-0.6,1.3-1.3
			s-0.6-1.3-1.3-1.3H20.7c-0.7,0-1.3,0.6-1.3,1.3S19.9,35.9,20.7,35.9z"/>
		<path id="Path_1000_00000008828900951643724030000015779469031519206791_" class="st1" d="M10.8,56c0-0.7-0.6-1.3-1.3-1.3
			c-0.7,0-1.3,0.6-1.3,1.3c0,3.7,3,6.6,6.6,6.6c0.7,0,1.3-0.6,1.3-1.3S15.5,60,14.8,60C12.6,60,10.8,58.2,10.8,56z"/>
		<path id="Path_1001_00000173861231527067756670000005959434753354156217_" class="st1" d="M52,61.3c0,0.7,0.6,1.3,1.3,1.3h0
			c3.7,0,6.6-3,6.6-6.6c0-0.7-0.6-1.3-1.3-1.3s-1.3,0.6-1.3,1.3c0,2.2-1.8,4-4,4C52.6,60,52,60.6,52,61.3C52,61.3,52,61.3,52,61.3z"
			/>
	</g>
</g>
</svg>
