<svg xmlns="http://www.w3.org/2000/svg" xmlns:xlink="http://www.w3.org/1999/xlink" width="351" height="130" viewBox="0 0 351 130"><defs><filter id="a" x="0" y="0" width="351" height="130" filterUnits="userSpaceOnUse"><feOffset dy="3" input="SourceAlpha"/><feGaussianBlur stdDeviation="3" result="b"/><feFlood flood-opacity="0.161"/><feComposite operator="in" in2="b"/><feComposite in="SourceGraphic"/></filter></defs><g transform="translate(8.664 6.222)"><g transform="matrix(1, 0, 0, 1, -8.66, -6.22)" filter="url(#a)"><rect width="333" height="112" rx="20" transform="translate(9 6)" fill="#f2f5f4"/></g><path d="M12.1-15.387,8.349-3.4,4.577-15.387a1.044,1.044,0,0,0-.989-.713H1.1a.624.624,0,0,0-.6.828L5.773-.69A1.016,1.016,0,0,0,6.739,0h3.2A1.016,1.016,0,0,0,10.9-.69l5.267-14.582a.62.62,0,0,0-.575-.828H13.087A1.044,1.044,0,0,0,12.1-15.387ZM18.745,0h2.093a.825.825,0,0,0,.828-.828V-10.833a.825.825,0,0,0-.828-.828H18.745a.825.825,0,0,0-.828.828V-.828A.825.825,0,0,0,18.745,0ZM19.8-12.972a1.953,1.953,0,0,0,1.955-1.955A1.953,1.953,0,0,0,19.8-16.882a1.973,1.973,0,0,0-1.978,1.955A1.973,1.973,0,0,0,19.8-12.972Zm9.637,5.75c-.92-.184-2.162-.23-2.162-.989,0-.667.667-.874,1.4-.874a1.429,1.429,0,0,1,1.2.506.608.608,0,0,0,.621.253l1.978-.483a.642.642,0,0,0,.414-.874,4.559,4.559,0,0,0-4.232-2.254c-2.921,0-4.991,1.38-4.991,3.818,0,2.3,1.2,3.105,3.45,3.588,1.357.3,2.576.276,2.576,1.058,0,.621-.621.851-1.4.851A1.684,1.684,0,0,1,26.841-3.2a.661.661,0,0,0-.69-.23l-2.277.713a.6.6,0,0,0-.368.851C24.265-.3,26.266.276,28.336.276c3.427,0,5.221-1.449,5.221-3.91C33.557-5.773,32.384-6.6,29.44-7.222ZM36.11,0H38.2a.825.825,0,0,0,.828-.828V-10.833a.825.825,0,0,0-.828-.828H36.11a.825.825,0,0,0-.828.828V-.828A.825.825,0,0,0,36.11,0Zm1.058-12.972a1.953,1.953,0,0,0,1.955-1.955,1.953,1.953,0,0,0-1.955-1.955,1.973,1.973,0,0,0-1.978,1.955A1.973,1.973,0,0,0,37.168-12.972Zm9.959,1.035a6.022,6.022,0,0,0-6.256,6.118A6.035,6.035,0,0,0,47.127.3a6.022,6.022,0,0,0,6.256-6.118A6.008,6.008,0,0,0,47.127-11.937Zm0,8.6a2.417,2.417,0,0,1-2.484-2.484,2.436,2.436,0,0,1,2.484-2.507,2.441,2.441,0,0,1,2.507,2.507A2.423,2.423,0,0,1,47.127-3.335Zm-.46-12.558-.943,2.047a.4.4,0,0,0,.368.575h1.794a1,1,0,0,0,.828-.437l1.495-2.139a.417.417,0,0,0-.345-.644H47.587A1.006,1.006,0,0,0,46.667-15.893Zm15.479,3.956A3.957,3.957,0,0,0,58.972-10.6v-.437a.618.618,0,0,0-.621-.621h-2.3a.825.825,0,0,0-.828.828V-.828A.825.825,0,0,0,56.051,0h2.093a.825.825,0,0,0,.828-.828V-6.279a1.78,1.78,0,0,1,1.863-2,1.791,1.791,0,0,1,1.863,2V-.828A.82.82,0,0,0,63.5,0h2.116a.82.82,0,0,0,.805-.828V-7.291C66.424-9.637,65.067-11.937,62.146-11.937Zm19.826,0a3.913,3.913,0,0,0-3.289,1.426v-4.761a.825.825,0,0,0-.828-.828H75.762a.825.825,0,0,0-.828.828V-.828A.825.825,0,0,0,75.762,0h2.3a.618.618,0,0,0,.621-.621V-1.15A3.913,3.913,0,0,0,81.972.276c3.611,0,5.589-3.059,5.589-6.1C87.561-8.878,85.583-11.937,81.972-11.937Zm-.69,8.6A2.366,2.366,0,0,1,78.8-5.819a2.372,2.372,0,0,1,2.484-2.507,2.366,2.366,0,0,1,2.507,2.507A2.36,2.36,0,0,1,81.282-3.335Zm13.662-8.6a6.022,6.022,0,0,0-6.256,6.118A6.035,6.035,0,0,0,94.944.3,6.022,6.022,0,0,0,101.2-5.819,6.008,6.008,0,0,0,94.944-11.937Zm0,8.6A2.417,2.417,0,0,1,92.46-5.819a2.436,2.436,0,0,1,2.484-2.507,2.441,2.441,0,0,1,2.507,2.507A2.423,2.423,0,0,1,94.944-3.335ZM106.766-9.89v-.943a.82.82,0,0,0-.805-.828h-2.116a.82.82,0,0,0-.805.828V-.828a.82.82,0,0,0,.805.828h2.116a.82.82,0,0,0,.805-.828V-4.6c0-1.84.322-3.588,3.036-3.4a.629.629,0,0,0,.667-.621V-11.27a.619.619,0,0,0-.736-.6A4.5,4.5,0,0,0,106.766-9.89Zm9.246,0v-.943a.82.82,0,0,0-.805-.828h-2.116a.82.82,0,0,0-.805.828V-.828a.82.82,0,0,0,.805.828h2.116a.82.82,0,0,0,.805-.828V-4.6c0-1.84.322-3.588,3.036-3.4a.629.629,0,0,0,.667-.621V-11.27a.619.619,0,0,0-.736-.6A4.5,4.5,0,0,0,116.012-9.89Zm10.856-2.047a6.022,6.022,0,0,0-6.256,6.118A6.035,6.035,0,0,0,126.868.3a6.022,6.022,0,0,0,6.256-6.118A6.008,6.008,0,0,0,126.868-11.937Zm0,8.6a2.417,2.417,0,0,1-2.484-2.484,2.436,2.436,0,0,1,2.484-2.507,2.441,2.441,0,0,1,2.507,2.507A2.423,2.423,0,0,1,126.868-3.335Zm13.34-3.887c-.92-.184-2.162-.23-2.162-.989,0-.667.667-.874,1.4-.874a1.429,1.429,0,0,1,1.2.506.608.608,0,0,0,.621.253l1.978-.483a.642.642,0,0,0,.414-.874,4.559,4.559,0,0,0-4.232-2.254c-2.921,0-4.991,1.38-4.991,3.818,0,2.3,1.2,3.105,3.45,3.588,1.357.3,2.576.276,2.576,1.058,0,.621-.621.851-1.4.851a1.684,1.684,0,0,1-1.449-.575.661.661,0,0,0-.69-.23l-2.277.713a.6.6,0,0,0-.368.851C135.033-.3,137.034.276,139.1.276c3.427,0,5.221-1.449,5.221-3.91C144.325-5.773,143.152-6.6,140.208-7.222Zm14.053-3.818v.529a3.976,3.976,0,0,0-3.289-1.426c-3.634,0-5.589,3.059-5.589,6.118,0,3.036,1.955,6.1,5.589,6.1a3.976,3.976,0,0,0,3.289-1.426v.529a.618.618,0,0,0,.621.621h2.3a.825.825,0,0,0,.828-.828V-10.833a.825.825,0,0,0-.828-.828h-2.3A.618.618,0,0,0,154.261-11.04Zm-2.622,7.705a2.354,2.354,0,0,1-2.484-2.484,2.36,2.36,0,0,1,2.484-2.507,2.39,2.39,0,0,1,2.507,2.507A2.384,2.384,0,0,1,151.639-3.335Z" transform="translate(100.336 62.778)" fill="#0b2c50"/><g transform="translate(20.23 22.095)"><circle cx="33.651" cy="33.651" r="33.651" fill="#3fa3a7"/><g transform="translate(14.587 12.478)"><path d="M1041.807-44c.764.084,1.529.153,2.29.255a18.109,18.109,0,0,1,8.816,3.2,9.746,9.746,0,0,1,3.943,7.326,15.521,15.521,0,0,1-.824,6.869,2.144,2.144,0,0,0-.031,1.844,2.77,2.77,0,0,1-2.609,3.806.5.5,0,0,0-.558.386,9.769,9.769,0,0,1-6.825,6.337c-.119.034-.237.072-.383.117,0,.531-.043,1.071.01,1.6a1.774,1.774,0,0,0,1.258,1.585,13.014,13.014,0,0,1,4.952,2.965,7.52,7.52,0,0,1,2.171,4.179,1.461,1.461,0,0,1-1.577,1.876h-19.268a1.466,1.466,0,0,1-1.584-1.9,8.078,8.078,0,0,1,4.14-5.683,24.294,24.294,0,0,1,2.97-1.419,1.919,1.919,0,0,0,1.28-1.791c.006-.467,0-.934,0-1.3-.979-.426-1.935-.753-2.8-1.239a9.454,9.454,0,0,1-4.392-5.275.549.549,0,0,0-.606-.439,2.817,2.817,0,0,1-2.525-4,.663.663,0,0,0-.024-.645,14.944,14.944,0,0,1-1.62-7.865,11.048,11.048,0,0,1,9.366-10.545c.456-.084.914-.161,1.371-.242Zm-9.617,17.578a.169.169,0,0,0,.017-.046c0-.923,0-1.846.009-2.77a2.065,2.065,0,0,1,1.766-2.028c1.059-.162,2.132-.269,3.176-.5,3.347-.738,6.4-2.023,8.605-4.816a.7.7,0,0,1,1.22.138c.226.393.435.8.7,1.167a11.9,11.9,0,0,0,4.388,3.681,2.22,2.22,0,0,1,1.321,2.19c-.024,1-.005,2.007-.005,3l1.041.206c.049-.117.087-.2.123-.292a13.992,13.992,0,0,0,.911-6.4,8.848,8.848,0,0,0-1.756-4.9,10.9,10.9,0,0,0-5.258-3.558,22.968,22.968,0,0,0-6.142-1.165,16.525,16.525,0,0,0-5.1.237,9.452,9.452,0,0,0-7.127,6.128,12.4,12.4,0,0,0,.009,8.224c.207.644.487,1.265.722,1.867Zm14.021-8.456c-.093.082-.146.123-.193.171a14.006,14.006,0,0,1-4.488,3.036,23.912,23.912,0,0,1-7.173,1.8.7.7,0,0,0-.733.811c0,1.916-.067,3.835.018,5.747a8.207,8.207,0,0,0,4.69,7.347,10.493,10.493,0,0,0,7.142.647,8.228,8.228,0,0,0,6.417-7.407c.132-2.267.062-4.546.078-6.819a.794.794,0,0,0-.492-.744c-.559-.3-1.117-.6-1.644-.947A12.964,12.964,0,0,1,1046.211-34.878Zm6.405,31.8a5.55,5.55,0,0,0-1.088-2.8,10.138,10.138,0,0,0-4.778-3.32.513.513,0,0,0-.348.086,13.383,13.383,0,0,1-1.438.786,6.49,6.49,0,0,1-2.77.3,5.007,5.007,0,0,1-3.011-1.089.462.462,0,0,0-.386-.063,11.219,11.219,0,0,0-3.866,2.32,6.014,6.014,0,0,0-1.956,3.779Zm-7.389-6.978c-1.174-.971-1.03-2.307-1.02-3.579h-2.782c-.035.658-.038,1.3-.11,1.938a2.881,2.881,0,0,1-.919,1.656A4.836,4.836,0,0,0,1045.228-10.06Zm-12.992-14.856a1.314,1.314,0,0,0-1.255.728,1.3,1.3,0,0,0,.1,1.473,1.22,1.22,0,0,0,1.157.559Zm21.125.032v2.724a1.366,1.366,0,0,0,1.432-1.405A1.346,1.346,0,0,0,1053.362-24.884Z" transform="translate(-1023.727 44)" fill="#fff"/><path d="M997.576-44c.25.239.533.495.383.871a.981.981,0,0,1-.484.511,9.881,9.881,0,0,0-6.155,7.393,15.478,15.478,0,0,0,.932,9.575,6.572,6.572,0,0,0,.511.941.728.728,0,0,1-.03.916,1.375,1.375,0,0,0-.217,1.609,1.459,1.459,0,0,0,1.442.769c1.106,0,1.2-.167,1.646,1.163a7.829,7.829,0,0,0,5.47,5.224,2.344,2.344,0,0,1,1.8,1.8,2.1,2.1,0,0,1-.066,1,3.268,3.268,0,0,1-2.032,2.179,11.035,11.035,0,0,0-5.034,3.81,6.429,6.429,0,0,0-1.252,3.568c0,.11-.011.221-.026.33a.694.694,0,0,1-.728.685.709.709,0,0,1-.691-.77,7.7,7.7,0,0,1,.765-3.31,11.263,11.263,0,0,1,4.739-4.811,16.424,16.424,0,0,1,1.783-.854,1.908,1.908,0,0,0,1.114-1.2.611.611,0,0,0-.35-.855,5.91,5.91,0,0,0-.729-.283,9.453,9.453,0,0,1-6.092-5.957c-.081-.224-.18-.328-.435-.315a2.832,2.832,0,0,1-2.63-4.075.736.736,0,0,0-.048-.52c-1.831-4.3-2.338-8.674-.516-13.105a10.756,10.756,0,0,1,6.193-6.184A.93.93,0,0,0,997-44Z" transform="translate(-989.504 44)" fill="#fff"/><path d="M1219.054-44c.206.1.41.2.619.294a11.216,11.216,0,0,1,6.148,7.073,15.742,15.742,0,0,1,.221,8.6,14.626,14.626,0,0,1-1.207,3.542.54.54,0,0,0,.005.412,2.825,2.825,0,0,1-2.632,4.07c-.261-.012-.349.1-.429.322a9.449,9.449,0,0,1-6.1,5.951c-.182.062-.367.117-.544.193-.6.258-.725.579-.437,1.179a1.937,1.937,0,0,0,1.067.975,12.368,12.368,0,0,1,6.131,5,7.789,7.789,0,0,1,1.114,3.925.722.722,0,0,1-.654.807.683.683,0,0,1-.767-.728c-.114-3.166-1.972-5.177-4.474-6.743a17.537,17.537,0,0,0-2-.975,3.267,3.267,0,0,1-2-2.686,2.317,2.317,0,0,1,1.82-2.22,7.865,7.865,0,0,0,4.813-3.707,10.9,10.9,0,0,0,.8-1.889c.242-.689.36-.811,1.082-.812.22,0,.442.009.661,0a1.373,1.373,0,0,0,1.254-.8,1.345,1.345,0,0,0-.137-1.442c-.373-.531-.374-.642-.039-1.185a11.775,11.775,0,0,0,1.348-3.831,14.035,14.035,0,0,0-.3-7.616,9.708,9.708,0,0,0-5.816-6.3c-.686-.264-.734-.823-.137-1.4Z" transform="translate(-1188.403 44)" fill="#fff"/><path d="M1100.383,119.863c-.414,0-.827.006-1.24,0-.731-.013-1.012-.442-.753-1.122a.578.578,0,0,0-.007-.341,2.122,2.122,0,0,1,3.238-2.4,2.151,2.151,0,0,1,.8,2.381.724.724,0,0,0,.014.419.722.722,0,0,1-.685,1.063c-.454.022-.909,0-1.364,0Zm.706-2.138a.685.685,0,0,0-.679-.681.684.684,0,1,0,0,1.367A.686.686,0,0,0,1101.089,117.725Z" transform="translate(-1086.261 -97.966)" fill="#fff"/><path d="M1189.856,119.86c-.427,0-.855.01-1.282,0a.729.729,0,0,1-.722-1.091.6.6,0,0,0,.019-.344,2.128,2.128,0,0,1,.8-2.445,2.093,2.093,0,0,1,2.437.024,2.119,2.119,0,0,1,.768,2.424.568.568,0,0,0,.013.338.728.728,0,0,1-.714,1.1h-1.323Zm.711-2.131a.668.668,0,0,0-.665-.686.683.683,0,1,0-.049,1.365A.67.67,0,0,0,1190.566,117.729Z" transform="translate(-1165.864 -97.964)" fill="#fff"/><path d="M1132.349,180.852c.015.669-.543,1.014-1.035.748a1.84,1.84,0,0,1-.295-.224,1.093,1.093,0,0,0-1.4-.159,2.641,2.641,0,0,1-2.992,0,1.078,1.078,0,0,0-1.364.138c-.064.052-.122.112-.189.16a.7.7,0,0,1-1-.1.674.674,0,0,1,.065-.966,2.437,2.437,0,0,1,3.012-.55,1.777,1.777,0,0,0,1.952-.006,2.467,2.467,0,0,1,3.011.563A1.672,1.672,0,0,1,1132.349,180.852Z" transform="translate(-1109.057 -154.88)" fill="#fff"/><path d="M1130.852,86.624a.744.744,0,0,1-.778-.649.707.707,0,0,1,.651-.76.781.781,0,0,0,.766-.761.685.685,0,0,1,.837-.644.726.726,0,0,1,.573.864A2.131,2.131,0,0,1,1130.852,86.624Z" transform="translate(-1114.538 -69.677)" fill="#fff"/><path d="M1170.445,86.624a2.156,2.156,0,0,1-2.039-2.1.716.716,0,0,1,.609-.722.649.649,0,0,1,.788.55.881.881,0,0,0,.9.88.675.675,0,0,1,.544.762A.746.746,0,0,1,1170.445,86.624Z" transform="translate(-1148.638 -69.678)" fill="#fff"/><path d="M1150.828,160.354c.234,0,.469-.012.7,0a.685.685,0,0,1,.673.693.658.658,0,0,1-.652.7c-.509.019-1.02.02-1.528,0a.651.651,0,0,1-.632-.681.681.681,0,0,1,.651-.713C1150.3,160.34,1150.567,160.355,1150.828,160.354Z" transform="translate(-1131.726 -137.77)" fill="#fff"/></g></g></g></svg>